<svg xmlns="http://www.w3.org/2000/svg" viewBox="0 0 1400 780"><path fill="#d7d4d5" d="M0 0h1400v780H0z"/><path d="M573.77 151.05l23-5.41 71.79.44c8.75 8.59 19.11 12.76 31.44 11.53 12.4 1.24 22.8-3 31.58-11.67h72.63v-.07l22 5.18-29.6 127.61H603.39z" fill="#ff83b0"/><path d="M657.38 131.38a70.32 70.32 0 0011.18 14.7l-71.79-.44zm74.21 14.56a70.75 70.75 0 0011-14.55l61.61 14.49v.07z"/><path d="M854.1 648.62H545.9q.61-11.31 1.24-22.56h305.72q.63 11.24 1.24 22.56zm-1.24-22.57H547.14q.76-13.68 1.58-27.22h302.56q.81 13.53 1.58 27.22z" fill="#ff83b0"/><path d="M851.28 598.84H548.72q1-16.33 2.12-32.36h298.32q1.14 16 2.12 32.36zm-2.12-32.36H550.84q1.32-19 2.92-37.33h292.52q1.58 18.35 2.88 37.33zm-2.92-37.33H553.72c1.24-14.17 2.62-28 4.21-41.49h284.1c1.59 13.46 2.97 27.34 4.21 41.49z" fill="#ff83b0"/><path d="M842 487.66H557.97c2.25-19.16 4.89-37.5 8.07-54.77l.31.06h267.3l.31-.06c3.18 17.27 5.82 35.61 8.04 54.77z" fill="#ff83b0"/><path d="M834 432.89l-.31.06H566.35l-.31-.06c4.27-23.16 9.51-44.39 16.05-63.05l.2.07h235.42l.2-.07c6.54 18.66 11.78 39.89 16.09 63.05z" fill="#ff83b0"/><path d="M817.91 369.84l-.2.07H582.29l-.2-.07c7.84-22.32 17.55-41 29.73-54.86l-8.43-36.32h193.22L788.18 315c12.18 13.87 21.89 32.52 29.73 54.84z" fill="#ff83b0"/><path d="M596.74 145.64l-23 5.41 29.62 127.61 8.46 36.34c-12.18 13.89-21.89 32.54-29.73 54.86-6.54 18.66-11.78 39.89-16.05 63.05-3.18 17.27-5.82 35.61-8.07 54.77-1.59 13.46-3 27.32-4.21 41.49q-1.62 18.35-2.92 37.33-1.14 16-2.12 32.36-.81 13.53-1.58 27.22-.63 11.24-1.24 22.56m308.2-.02q-.61-11.32-1.24-22.57-.76-13.68-1.58-27.21-1-16.33-2.12-32.36-1.32-19-2.92-37.33c-1.24-14.17-2.62-28-4.21-41.49-2.25-19.16-4.89-37.5-8.07-54.77-4.27-23.16-9.51-44.39-16.05-63.05-7.84-22.32-17.55-41-29.73-54.86l8.43-36.32 29.62-127.61-22-5.18-61.61-14.49a70.75 70.75 0 01-11 14.55s0 0 0 0c-8.78 8.68-19.18 12.91-31.58 11.67-12.33 1.23-22.69-2.94-31.44-11.53a70.32 70.32 0 01-11.18-14.7l-60.61 14.26m134.78.31h72.62M603.39 278.66h193.22m-214.32 91.25h235.42m-251.36 63.04h267.3M558.27 487.7h283.46M554 529.17h292M551.09 566.5h297.82m-299.95 32.35h302.08m-303.63 27.23h305M545.9 648.62h307.98" fill="none" stroke="#000" stroke-linejoin="round" stroke-width="5"/><path fill="none" stroke="#000" stroke-linecap="round" stroke-linejoin="round" stroke-width=".5" d="M596.74 145.64h.03l71.79.44"/></svg>