<svg xmlns="http://www.w3.org/2000/svg" viewBox="0 0 1400 780"><path fill="#e5e1e0" d="M0 0h1400v780H0z"/><path d="M880.59 258.9c-.22-3-.48-5.41-.84-8.27.25.14.57 3.72.84 8.27z" fill="#355b80"/><path d="M904 135.16s0 .01 0 0z" fill="#f3f6f7"/><path d="M883.88 401h.05z" fill="#3f6b93"/><path d="M880.39 129.89h.06-.09z" fill="#f3f6f7"/><path d="M901.3 159.79q-.36.18-.72.33.36-.12.72-.33z" fill="#9d574d"/><path d="M871.06 156.58a5.26 5.26 0 002.06-2.41 3.65 3.65 0 01-2.06 2.41z" fill="#f8d5b0"/><path d="M979.78 699.34l-.53-.14a3 3 0 01-.4-.12l-.45-.15c.47.15.93.28 1.38.41z" fill="#4b5b6a"/><path d="M850.1 383.1c-5.73-3.31-8.75-3.42-13.56-47.63l-.06-.5c-6.74-1-17.87 0-28.42 4.13 0 0-5.68-21.19-4.65-40.3s10.85-90.4 12.92-92c7.88-6 42.16-19.69 47-21.7v2.67c-.51 4.06 0 10.6 0 25.23l15-10.85 1.13.48 1.43.58 1 .41c1 .39 1.84.72 2.61 1l1.83.71.91.37h.05l.5.23a10.6 10.6 0 011.33.73l.34.26h.06c1.21 1 1.6 2.46 2.27 5.58 0 .16.07.33.11.5s.11.54.17.83q.15.72.33 1.53c.24 1.1.51 2.33.85 3.73 0 103.08-1 142 0 159.71l-.06 1.32c-.47-1.82-.76 3.19-5.1 21.85l-1-.26h-.22l-.8-.2-.26-.07-1-.24-.52-.13-.18-.05-.28-.07-2.41-.61-.42-.11c-11.17-2.86-16.85-4.36-19.7-5a5.32 5.32 0 01-2.47-1.44 7.88 7.88 0 00-.76-2.56c0-.13 0-.26-.07-.4a24.11 24.11 0 00-3.88-4.78 5.51 5.51 0 00-.43-.41c-.27-.25-.55-.5-.84-.72a14.45 14.45 0 00-2.75-1.82zm-9.58-108.31l.48 6.45c23.37 7.11 18.33 7.47 40.48-2.85v-2.22a.49.49 0 000-.12v-1.94c0-.52 0-1-.06-1.51v-.06c-.2-5.41-.38-9.21-.59-12.34 0-.44 0-.87-.08-1.3-.27-4.55-.56-8.13-.84-8.27l-.09-.73c-.24-1.91-.52-4-.87-6.62-.07-.58-.16-1.19-.24-1.83l-.22-1.67-39.26 5.43v10.02l.09 1.16v.75c.17 2.82.52 7.14 1.21 16.26-.08.49-.05.93-.01 1.39z" fill="#898687"/><path d="M884.65 132.58c.16.69-.25 1.26-1 1.72a2.06 2.06 0 00.92-1.64 1.84 1.84 0 00-.25-.79 2.49 2.49 0 01.2.34v.23s.12.12.13.14z" fill="#f3f6f7"/><path d="M901 157.67a21.17 21.17 0 01-5.74 1.52.08.08 0 01-.08 0 18.46 18.46 0 01-6.07-.27c-.26-.05-.51-.11-.76-.18h-.12a14.23 14.23 0 01-1.36-.43l-.29-.12a11.62 11.62 0 01-1.31-.58h-.05c-.05 0-.35-.18-.52-.28a.09.09 0 01-.06 0h-.19l-.1-.06h-.06l-.33-.21-.09-.06-.15-.1-.15-.11-.21-.16-.1-.07-.13-.09-.11-.08-.31-.25-.07-.06-.13-.1-.07-.06-.15-.13-.29-.26h24.31c-.39.3-.78.58-1.19.84l-.27.17h-.08c-.44.28-.9.55-1.36.79h-.07l-.36.18h-.16l-.28.13-.19.08h-.09l-.11.05a.13.13 0 01-.08 0l-.13.05z" fill="#fcf8f7"/><path d="M902.5 171.74a3.55 3.55 0 00.55-.34 3.15 3.15 0 00.29-.22l.06-.05h.06l.08-.07q.23-.19.45-.42l.24-.24c-.68.77-1.26 1.37-1.63 1.39z" fill="#ae978a"/><path d="M926.75 133.69c0 .14 0 .28-.07.41.02-.1.04-.27.07-.41z" fill="#2c1d1b"/><path d="M912.85 153.66v1.13a4.58 4.58 0 010-1.74v.52z" fill="#f8d5b0"/><path d="M879.39 134.05v.07l-.05.07-.09.12-.14.15a2.76 2.76 0 01-3.07.25h-.06l-.09-.06-.18-.14-.17-.18-.05-.06a2.74 2.74 0 01.07-3.15l.06-.07.07-.07v-.05a.81.81 0 01.14-.12l.23-.15a.09.09 0 00.06 0 2.81 2.81 0 012.71.11.18.18 0 00.08 0l.14.12a.12.12 0 010 .05.23.23 0 01.07.07.53.53 0 01.1.12 2.12 2.12 0 00.11.21 2.87 2.87 0 010 2.28.31.31 0 000 .1.41.41 0 00.06.33z" fill="#39403f"/><path d="M912.82 155v-.02z" fill="#f8d5b0"/><path d="M898.55 170.46l.24.26.31.3.08.07a4 4 0 00.63.46l.36.18a.8.8 0 00.2.07 2.34 2.34 0 001.63 0 2.75 2.75 0 00.36-.15h.1c.37 0 .95-.62 1.63-1.39l.07-.07a.27.27 0 01.07-.08c.2-.21.39-.43.58-.65a2 2 0 01.19-.22l.07-.08.53-.61.12-.13.06-.06.17-.18.09-.09a.3.3 0 01.08-.08l.25-.24.1-.09.2-.17.11-.09.19-.14.38-.26c.62-.42 1.38-.91 2.11-1.47l.18-.14a6.79 6.79 0 001.71-1.66v-.07a.61.61 0 00.07-.1 3.46 3.46 0 00.61-1.48v-.15a18.13 18.13 0 00.31-2.93 32.48 32.48 0 00.1-3.84v-1.97c.1-.21.3-.33.66-.46l.18-.06h.19l.25-.08.26-.08.3-.09c.77 1.16 3.4 5.61 6.39 5.52h.1c1.69-.34 2.51-6.37 2.94-12.83.19-1.89.36-3.88.49-5.89v-.46a.76.76 0 010-.15 1.27 1.27 0 000-.2c.27-3.61.43-6.75.48-8.38.1.68.2 1.73.34 3.21v1.09c.14 1.85.23 3.08.31 3.81a.76.76 0 000 .15v.09a1.5 1.5 0 010 .2v10.76a35 35 0 01-1.43 9.21 22.74 22.74 0 01-2.92 5.56c-1.35 1.68-2.7 3.39-4.07 5.07-1.18 1.36-2.49 2.84-3.93 4.52l-.31.41-.06.08c-4.17 4.5-8.67 8.22-14 9.67a21.22 21.22 0 01-8.76.22h-.16c-5.15-1.18-10.16-4.55-14.63-9a30.28 30.28 0 01-1.91-2.49c-2.19-2.55-3.91-4.48-5.34-6.19a67.17 67.17 0 01-8.23-15.62c-.08-.21-.15-.42-.22-.63.45.52.76-.49 1-2.19v-.23a82.26 82.26 0 00.43-11.27V135a59.62 59.62 0 01.44-7.6c.16 1 .35 2.73.55 4.88a.41.41 0 000 .11 1.64 1.64 0 000 .23.76.76 0 000 .15v.09a.17.17 0 000 .07c.37 5.81.62 10.46 1 14.07a.22.22 0 000 .08v1.23a12.24 12.24 0 00.51 2.78c.45 2.48 1.07 4.14 2 5.05 1.46 2.32 2.63 1.15 4.94.38l.23-.09a3.65 3.65 0 002.06-2.41c.16-.3.32-.6.47-.91l.25.07 1.33.39v.35a2.53 2.53 0 000 .32 2.91 2.91 0 000 .31v.58a.31.31 0 000 .1.49.49 0 000 .12.13.13 0 000 .06 1.48 1.48 0 000 .21v2.96c0 .11 0 .41.07.62a.78.78 0 000 .16.11.11 0 000 .05 8.45 8.45 0 00.21 1.07 3.59 3.59 0 00.12.35v.08a4.4 4.4 0 00.25.58v.05a3.46 3.46 0 00.29.45c.18.24.4.52.62.84a70.15 70.15 0 005.27 6.89 5.66 5.66 0 001.38 1.36 4.57 4.57 0 00.68.18 3.25 3.25 0 003.77-.66l.07-.07a21.24 21.24 0 002.67-2.35l.1-.08a8 8 0 011.18-.75l.25-.12a4.84 4.84 0 011-.3 5.54 5.54 0 013 .9 28 28 0 013.05 2.63zm5.78-.22l-.07.07z" fill="#ae978a"/><path d="M905.86 127.85a8.13 8.13 0 00-4.48 3.19 2.39 2.39 0 01.21-.34c0-.07.09-.13.13-.19l.06-.08a7.92 7.92 0 014.08-2.58z" fill="#3d2922"/><path d="M887.07 101.16c10.27.56 21.1.89 25.09-1.87l-.16.13a3.37 3.37 0 01-.32.19 6.49 6.49 0 01-.59.31c-.19.09-.38.18-.59.26h-.09c-4.17 1.59-11.58 1.56-19.25 1.19H891l-1.61-.08q-.95 0-1.89-.12a3.4 3.4 0 01-.43-.01z" fill="#f8d5b0"/><path d="M874.62 127.66h.13z" fill="#3d2922"/><path d="M912.66 159.53c.05-.89.09-1.94.13-3.21 0 1 0 1.82-.07 2.56-.02.23-.03.44-.06.65z" fill="#f8d5b0"/><path d="M906.31 134.76s.01.03 0 0z" fill="#39403f"/><path d="M921.93 118.55c-.12-.22-.23-.44-.35-.65.16.32.33.63.5 1z" fill="#f8d5b0"/><path d="M861.7 395.41l19.38 4.91.42.11 2.37.61c-12.74-3.19-19.01-4.56-22.17-5.63z" fill="#3f6b93"/><path d="M912.65 78.71A62.85 62.85 0 00901 76.09a42 42 0 0111.65 2.62z" fill="#2c1d1b"/><path d="M912.66 159.53c0-.21 0-.42.06-.62a18.13 18.13 0 01-.31 2.93l.06-.49v-1.46a2.19 2.19 0 00.19-.36z" fill="#f8d5b0"/><path d="M884.28 131.85s.01.01 0 0z" fill="#f3f6f7"/><path d="M911.16 153.92l-.16.08z" fill="#9d574d"/><path d="M918.56 110.94c.21.6.44 1.22.69 1.85-.25-.63-.49-1.25-.69-1.85z" fill="#f8d5b0"/><path d="M900.54 132.07c-.83 1.38.88 2.47 3.41 3.09-2.63-.55-4.39-1.61-3.41-3.09z" fill="#f3f6f7"/><path d="M856.52 128.29l.07.05z" fill="#f1bc9a"/><path d="M945.34 252.57l-.47.17z" fill="#3f6b93"/><path d="M912.79 156.25v-1.19a32.48 32.48 0 01-.1 3.84c0-.74 0-1.58.07-2.56zm-5.11-7.51l.48.1z" fill="#ae978a"/><path d="M912 128.17a6 6 0 013.41 3.69 7.25 7.25 0 00-3.66-3.78l.18.06z" fill="#3d2922"/><path d="M936 687.48a7 7 0 01.13-1v-.26c0-.18.06-.41.09-.7l1.78.44 1.41.36 1.23.32c-2.73-.56-4.49-.63-4.56.06-.03.3-.08.58-.08.78z" fill="#515b64"/><path d="M900.26 171.8l-.36-.18z" fill="#f8d5b0"/><path d="M976.92 698.42l.62.22z" fill="#4b5b6a"/><path d="M900.28 171.81l.2.07a.8.8 0 01-.2-.07zm-15.83-49.33l-.51-.08z" fill="#f8d5b0"/><path d="M884.62 132.48v-.08a.13.13 0 010 .08z" fill="#f3f6f7"/><path d="M868.54 124.05c.57 0 1.07-.12 1.52-.19a12.92 12.92 0 003.91-1.29l.27-.11.16-.06.27-.1a12.47 12.47 0 014.89-.41h.18l1.1.1.54.06h.33l.8.1.75.1.56.08h.12l.51.08.57.09-.79-3.87-2.32-.08h-2.15c-1.18 0-2.22-.05-3.16 0h-.26a.08.08 0 00-.07 0h-.59a8.76 8.76 0 00-5.81 2.64 2.69 2.69 0 00-.3.29 3.18 3.18 0 00-.26.26v.06l-.11.12-.19.21c-.48.55-1 1.18-1.51 1.89h.77zm5.2 11.38h.58l.61.06h.07c3.11.34 6.67 0 8.44-1.13h.06c.86-.47 1.32-1.07 1.14-1.8a.14.14 0 000-.06 2.68 2.68 0 00-.09-.23 1.76 1.76 0 00-.2-.34 4.83 4.83 0 00-.43-.65v-.12a8.71 8.71 0 00-5.73-3.22h-.26a9.66 9.66 0 00-1.2-.07h-.21a1.24 1.24 0 00-.27 0h-.5c-.22 0-.43.06-.64.1h-.13a6.64 6.64 0 00-4 2.38c-.07.08-.13.17-.2.26a3.73 3.73 0 00-.72 1.25.57.57 0 000 .22v.05a1.51 1.51 0 00-.12.2 1.44 1.44 0 00.25 2l.08.07a3.66 3.66 0 00.58.39l.23.11.11.05a3.34 3.34 0 00.44.17h.09l.16.06.58.16.79.17.27.05h.52zm31.08-.09a18.1 18.1 0 008.73-.35h.05a1 1 0 00.16-.06c1.54-.53 2.41-1.38 1.91-2.58-.16-1.91-1.65-3.35-3.64-4.13h-.07l-.24-.09a.17.17 0 00-.11 0 1.45 1.45 0 00-.29-.11h-.07l-.22-.06-.25-.07a4.28 4.28 0 00-.54-.12 7.5 7.5 0 00-1.3-.14h-1.37l-.51.07h-.29a7.56 7.56 0 00-4.94 2.74.16.16 0 00-.06.08c0 .06-.09.12-.13.19a2.39 2.39 0 00-.21.34.29.29 0 000 .1 4.75 4.75 0 00-.39.38l-.08.1a.15.15 0 00-.05.07c-1 1.48.78 2.54 3.41 3.09h.08l.49.1zm-3.57-16.64l-.77 3.87.7-.11.82-.13 1.29-.17h.45l.51-.06h2.54a12 12 0 013.68.34l.35.11c.39.14.73.29 1.08.45a12.32 12.32 0 001.69.68 2.22 2.22 0 00.39.12l.36.09a10.82 10.82 0 001.09.23c.3 0 .64.09 1 .13h.31l1.37.1c-.26-.34-.5-.67-.75-1s-.27-.35-.42-.51-.26-.31-.39-.45a2.16 2.16 0 00-.25-.27q-.15-.17-.3-.3a8.92 8.92 0 00-6.32-3h-.47c-1.08-.07-2.29 0-3.69 0h-2.23zm-10.09-17.3c7.67.4 15.07.44 19.25-1.19a.16.16 0 00.09 0 6.21 6.21 0 00.59-.26 4.14 4.14 0 00.59-.31 3.37 3.37 0 00.32-.19 2.48 2.48 0 00.26-.19 2 2 0 00.23-.18l.21-.2.1-.1.11-.11.56-.63.1-.11.08-.09a.46.46 0 01.07-.07c2.45-2.64 1.93-1.15 2.48 3.56 0 .25.06.52.09.79s0 .25.05.38a.15.15 0 010 .07 44.7 44.7 0 003.82 12.76c.2.44.41.9.64 1.36l.09.17q.11.24.24.48v.07l.06.12.18.36.35.65.13.23.06.12.21.39.1.18.14.25.26.45s0 .1.08.14l.4.69v.06l.3.49c.13.22.26.44.41.67s.13.22.21.34l.49.77v.74c.08 1.37.12 2.94.13 4.64-.32-.3-.3 7.65-.78 15.29a1.1 1.1 0 000 .18c-.35 3.47-.78 6.85-1.3 9.34q-.1.5-.21.93c0 .15-.08.29-.11.43v.11a.31.31 0 000 .08 1.55 1.55 0 01-.07.23c-.06.19-.12.37-.17.54a.16.16 0 010 .09l-.24.6a1.5 1.5 0 00-.11.22l-.18.3a.23.23 0 01-.07.1l-.08.09a1 1 0 01-.15.14.27.27 0 01-.1.06h-.2c-3 .09-5.62-4.36-6.39-5.52s-.38-2.62-3.19-2.91l-.63-.07-.56-.07c-.5-.06-1-.12-1.36-.19h-.1l-.34-.05a1.51 1.51 0 00-.28 0h-.09l-.48-.1a15 15 0 01-2.34-.68l-.33-.14h-.21a6.09 6.09 0 00-1.56-.5l-.32-.05a3.61 3.61 0 00-.5-.06l-.69-.05a8.87 8.87 0 00-2.47.23h-.25a.64.64 0 00-.18.06 5.27 5.27 0 00-.56.19h-.12l-.23.1h-.07l-.26.13c-.31.15-.6.31-.88.47l-.11.07-.11.06-.14.08-.12.07-.24.14-.15.09-.14.08-.1.05a3.52 3.52 0 01-2.18.53 3.76 3.76 0 01-.68-.17 3.07 3.07 0 01-.34-.14c-1.84-.88-2.42-1.94-4.36-1.84l-1.64.1h-.26c-.26 0-.51 0-.76.06h-.54l-1.61.6-.38.05c-.41 0-.8.1-1.16.17h-.25c-3.86.64-5.48 1.62-6.38 2.74a1.25 1.25 0 00-.15.19l-.13.19a.83.83 0 00-.08.12c0 .08-.1.15-.14.23v.16a10.67 10.67 0 00-1 2.1 5.26 5.26 0 01-2.06 2.41l-.23.09c-2.27.76-3.83.68-4.94-.38a20.6 20.6 0 01-2-5.05c-.21-1.15-.39-2.49-.54-4v-.08c-.14-2.82-.55-9.19-1-14.07a.17.17 0 000-.07v-.24a1.64 1.64 0 010-.23v-.11c-.12-1.84-.25-3.78-.4-5.85l.06-.34c.79-3.89 3.12-4.75 4.36-6.74a.21.21 0 000-.06c0-.07.1-.14.14-.21v-.07l.09-.21a.36.36 0 000-.09 1 1 0 010-.16 1.46 1.46 0 01.05-.2v-.1a6.35 6.35 0 00.24-1.81v-.25c.13-1.87.21-4.89.54-10.15 0-.4 0-.82.08-1.24s0-.63.06-.93c0-.49.07-1 .11-1.53v-.47c0-.34.05-.7.08-1.06l.43-.05h.55a118.61 118.61 0 0113.78.33h.85l1.3.08h2.62q.94.07 1.89.12l1.61.08z" fill="#f8d5b0"/><path d="M798.83 697.2a15.27 15.27 0 01-1.9-.3l.92.15.68.11z" fill="#515b64"/><path d="M892.13 214c-.06-.29-.12-.57-.17-.83.04.25.11.52.17.83z" fill="#3f6b93"/><path d="M903.05 171.4a3.55 3.55 0 01-.55.34 3.81 3.81 0 00.55-.34z" fill="#f8d5b0"/><path d="M961.88 660.75c4.81 9.59 30.29 27.7 38.36 33.12 0 3.48.11 4.27-.11 4.47l-.69.11h-.23a9.08 9.08 0 00-3.21.55 78.47 78.47 0 01-10.66 1 37.22 37.22 0 01-10.24-2.31l-.88-.33-.5-.19-.16-.06a216.88 216.88 0 00-22.73-7.78l-.4-.12c-3.66-1.12-7-2.07-9.61-2.6h-.13l-1.23-.32-1.41-.36-1.78-.44c0 .26-.06.49-.09.7v.26c-.44 2.14.79-20.16 3.51-18l4.3-2.19c.25-.12.5-.24.73-.37.56-.27 1.07-.53 1.55-.78 6-3 6-3 6-3.06.52-3.44 8.52-3.49 9.61-1.3z" fill="#2d2d2d"/><path d="M913.81 97.65a.46.46 0 00-.07.07z" fill="#2c1d1b"/><path d="M903.85 158.47l-.08.05z" fill="#9d574d"/><path d="M922.61 119.78l.26.45z" fill="#f8d5b0"/><path fill="#3d2922" d="M883.32 130.96l.01.01h-.01v-.01z"/><path d="M881.78 155.2l.15.13z" fill="#fcf8f7"/><path d="M883.42 131a.18.18 0 01.07.05h-.06c-.06 0 0-.05-.01-.05zm.14-.2zm24.22-1.23c-.4 0-.79 0-1.18.05h.34z" fill="#3d2922"/><path d="M927.88 130.11l-.09.15z" fill="#2c1d1b"/><path d="M836.54 335.47c4.81 44.21 7.83 44.32 13.56 47.63a8.83 8.83 0 00-1.8-.73c-8.44-2.37-10.78-37.26-11.76-46.9z" fill="#f4d0af"/><path d="M926.47 135.55c0 .34-.07.66-.11 1 .03-.35.07-.67.11-1z" fill="#2c1d1b"/><path d="M913.76 134.91c1.17-.5 1.92-1.23 1.92-2.25v-.33c.49 1.2-.38 2.05-1.92 2.58z" fill="#f3f6f7"/><path d="M835.39 660.17c6.4-2 8.08-.13 9.2 2.36l15 3.84c0 .65.75 13.79 1 19.11l-2.77.63c-2.28.41-5.73 1.27-9.57 2.31l-.2.05c-21.36 5.36-27.37 8.55-33.1 9.59h-.46c-3.15.45-6.47.32-11.95-.4l-.72-.1h-.15l-.43-.06-.72-.11h-.08l-.64-.09-.46-.07-.8-.13-.68-.11a4 4 0 00-.92-.15h-.08c-.46-.24-.25-.8-.25-2.81 37.05-28.52 38.01-26.33 38.78-33.86z" fill="#2d2d2d"/><path d="M798.83 697.2l.5.08z" fill="#515b64"/><path d="M908.87 149h.1z" fill="#ae978a"/><path d="M846.8 688.81c-8.23 2.26-17.71 5.15-21.19 6.21 4.7-1.55 11.16-3.63 21.19-6.21z" fill="#515b64"/><path d="M877.71 127.56h-.14z" fill="#3d2922"/><path d="M858.88 393.85a5.43 5.43 0 01-.76-2.56 7.88 7.88 0 01.76 2.56z" fill="#f4d0af"/><path d="M882.09 155.48l.13.1z" fill="#fcf8f7"/><path d="M841.6 255.8q-1.26-.2-2.49-.51v-10.08l39.26-5.43.22 1.67.24 1.83.87 6.62.09.73c-1.78.37-3.54.76-5.26 1.15-4.15.93-8.08 1.86-11.84 2.64-1.29.26-2.56.51-3.81.72l-.74.13-1.32.22-1.62.23a49.18 49.18 0 01-11.69.34c-.42 0-.85-.1-1.28-.16z" fill="#b2aeaf"/><path d="M975.71 698l.17.07c-.22-.07-.43-.16-.66-.25z" fill="#4b5b6a"/><path d="M924.66 139c-.13 2-.3 4-.49 5.89a5.07 5.07 0 000-.55 1.1 1.1 0 000-.18c.22-1.79.36-3.53.49-5.16z" fill="#f8d5b0"/><path d="M896.11 168.12a5.54 5.54 0 00-3-.9 3.8 3.8 0 012.06.34l.14.07a7.56 7.56 0 01.71.41z" fill="#ae978a"/><path d="M922.94 211.77l-14.8-9.77a2.52 2.52 0 01-.69-1.1.14.14 0 000-.06c0-.06 0-.12.08-.19.49-1.24.94-2.4 1.36-3.49a.36.36 0 000-.09 33 33 0 003.57-10.44 35.17 35.17 0 00.92-8.31v-4.07c.11-.2.3-.2.62 0l10.53 12 .75.85v26.33z" fill="#a6a2a3"/><path d="M862.3 132.68v.15a.76.76 0 010-.15z" fill="#f8d5b0"/><path d="M876 130.48a.09.09 0 01-.06 0 .09.09 0 01.06 0z" fill="#39403f"/><path d="M916.39 102c0 .12 0 .25.05.38-.02-.13-.03-.26-.05-.38z" fill="#f8d5b0"/><path d="M882 155.36l.07.06z" fill="#fcf8f7"/><path d="M900.48 122.57l.77-3.87 1.94-.06h2.23c1.4 0 2.61-.07 3.69 0h.47a9.12 9.12 0 016.32 3l.3.3.25.27q.19.21.39.45s.28.33.42.51.49.63.75 1l-1.37-.1h-.31c-.36 0-.7-.08-1-.13s-.76-.15-1.09-.23l-.36-.09a2.91 2.91 0 00-.39-.12c-.66-.22-1.18-.46-1.69-.68-.35-.16-.69-.31-1.08-.45l-.35-.11a10.74 10.74 0 00-3.68-.34h-2.54l-.51.06h-.45l-1.29.17-.82.13z" fill="#3d2922"/><path d="M861 134.9l.08.13z" fill="#2c1d1b"/><path d="M969.67 701.32a47.84 47.84 0 0012.81 2.94c-4.37-.16-8.72-.9-11.91-2.48-.31-.15-.57-.3-.9-.46z" fill="#4b5b6a"/><path d="M898.34 170.23l.21.23a28 28 0 00-2.41-2.32l.34.25.43.36.06.06.14.13.16.15c.37.35.73.72 1.07 1.14z" fill="#ae978a"/><path d="M796.89 696.88a.27.27 0 00-.29.23v-.29z" fill="#4b5b6a"/><path d="M884.62 132.48s0 .01 0 0z" fill="#f3f6f7"/><path d="M897.63 75.88c.52 0 1.57.05 3 .16h.44a62.85 62.85 0 0111.63 2.62c3.46 1.44 6.33 3.6 7.05 6.83a10.5 10.5 0 01.11 2.56 2.67 2.67 0 010 .31c13.1 4.36 13.67 15.55 10 28.85-.78 2.76-.78 11.45-1.68 12.61a2.49 2.49 0 00-.17.24l-.09.15a1.09 1.09 0 00-.08.15 1.17 1.17 0 000 .11.34.34 0 00-.06.12.77.77 0 00-.07.16.42.42 0 010 .1 1.08 1.08 0 00-.1.27 27 27 0 00-1.15 6.7.61.61 0 010 .14v.11a3.77 3.77 0 01-.1.63 2.34 2.34 0 01-.06-.36 1.5 1.5 0 000-.2v-.19c-.11-1.47-.21-2.75-.31-3.83v-.4a.2.2 0 000-.07v-.09a.13.13 0 000-.06v-.47c0-.35-.06-.73-.08-1.12-.06-.9-.14-1.91-.22-3v-.07c-.1-1.36-.22-2.89-.35-4.6v-.74l-.49-.77-.21-.34c-.15-.23-.28-.45-.41-.67s-.2-.33-.3-.49v-.06l-.4-.69s-.05-.09-.08-.14l-.26-.45-.14-.25a1.62 1.62 0 00-.1-.18l-.21-.39a.75.75 0 00-.07-.12c-.17-.32-.34-.63-.5-1l-.15-.29c0-.07-.07-.14-.11-.22-.21-.41-.41-.83-.61-1.24a1 1 0 01-.07-.15c-.19-.4-.37-.8-.55-1.19l-.08-.18-.24-.56-.24-.57c-.09-.22-.17-.43-.26-.64a48.134 48.134 0 01-1.08-3.01c-.29-.88-.54-1.73-.74-2.53l-.12-.44q-.16-.68-.3-1.32c-1.12-5.27-.72-8.52-1.1-9.31v-.07c-.15-.25-.39-.17-.86.27a.41.41 0 00-.1.09.8.8 0 00-.16.16 1.37 1.37 0 00-.17.17l-.32.34-.06.06-.22.25-.15.16-.06.06-.08.09-.1.11-.56.63-.11.11-.1.1-.21.2a2 2 0 01-.23.18.34.34 0 01-.11.07c-4 2.76-14.82 2.43-25.09 1.87h-2.03a144.82 144.82 0 00-15.42-.51h-1.17l-.46.06c0 .36 0 .72-.08 1.06v.47c0 .53-.07 1-.11 1.53q0 .48-.06.93c0 .42-.05.84-.08 1.24-.25 3.59-.52 8.06-.54 10.15v.06a13.62 13.62 0 01-.24 2v.1a5.73 5.73 0 01-.46 1 .21.21 0 000 .06c-.19.25-.42.49-.71.8a.8.8 0 00-.13.13.93.93 0 00-.14.14l-.14.15-.12.12c-.29.3-.62.66-1 1.11l-.11.13-.15.17-.07.08c-.22.27-.46.57-.72.91a7.52 7.52 0 00-1 3l-.06.34c-.06.31-.11.63-.15 1-.32-1.85-.54-.5-.44 7.6v.4A4.11 4.11 0 01861 135l-.08-.13-.57-.93s0-.09-.07-.13l-.11-.19-.23-.4a.75.75 0 01-.07-.12 2.25 2.25 0 01-.12-.21.57.57 0 00-.08-.13.1.1 0 000-.07v-.08c0-.06-.06-.1-.09-.15-1.59-2.79-2.08-4-2.22-5.09 0-1.4.6-3-1.08-10.46a2 2 0 000-.24c-.14-.62-.3-1.28-.47-2-1.94-7.88.12-15.1 2.31-16.79s1.17-3.22-.38-3-3.36-1.43-3.36-1.43a6.79 6.79 0 002-.29c3.88-1.14 5.09-5.63 8.64-8.79l.57-.49a13.37 13.37 0 017.72-2.7c2.2-.13 20.28-4.91 24.16-5.16z" fill="#676465"/><path d="M907.78 129.57a14.8 14.8 0 012 .08 19 19 0 00-2-.08z" fill="#3d2922"/><path d="M922.94 211.77c-9-5.87-13.24-8.16-14.8-9.76z" fill="#5682ab"/><path d="M907.79 135.21a2.51 2.51 0 01-1.37-.37 2.82 2.82 0 002.92-.13 2.44 2.44 0 01-1.55.5z" fill="#39403f"/><path d="M875.39 127.53l-.64.1c.25-.04.42-.08.64-.1z" fill="#3d2922"/><path d="M881.48 148.19h-.25zm26.29 18.66l.52-.36c.56-.37 1-.7 1.46-1-.73.56-1.49 1.05-2.11 1.47z" fill="#ae978a"/><path d="M940.35 254.07l1.35-.33q-.7.2-1.35.33z" fill="#3f6b93"/><path d="M902.47 171.74a2.75 2.75 0 01-.36.15 2.41 2.41 0 00.36-.15z" fill="#f8d5b0"/><path d="M950.06 250.66c0-.43.06-.83.07-1.22v1.19z" fill="#3f6b93"/><path d="M903.4 171.13l-.06.05z" fill="#f8d5b0"/><path d="M875 135.56c3.14.21 6.74-.21 8.54-1.21h-.06c-1.89 1.03-5.41 1.43-8.48 1.21z" fill="#f3f6f7"/><path d="M855.16 255.72a47.67 47.67 0 01-11.69.34 49.18 49.18 0 0011.69-.34z" fill="#355b80"/><path d="M925 128.8c0 2.88-.1 6.12-.29 9.37a1.27 1.27 0 010 .2v.61c-.13 1.65-.27 3.39-.44 5.11.43-7.64.41-15.59.73-15.29z" fill="#f8d5b0"/><path d="M880 129.82h.17-.19zm1.3.29l-.23-.06z" fill="#f3f6f7"/><path d="M873.42 172.73a64.26 64.26 0 01-5.12-6.46c1.43 1.71 3.15 3.64 5.34 6.19z" fill="#ae978a"/><path d="M905.86 127.85c.27-.08.55-.14.84-.2h1.13a10.63 10.63 0 013.76.5h.17a7.25 7.25 0 013.66 3.78c-.73-1.15-2.76-1.89-5.11-2.17h-.51a14.8 14.8 0 00-2-.08h-1.54l-.46.05a9.87 9.87 0 00-4 1.25.14.14 0 00-.08 0h-.06l-.28.22a.29.29 0 010-.1 8.13 8.13 0 014.48-3.25z" fill="#3d2922"/><path d="M902.14 171.89a2.34 2.34 0 01-1.63 0 2.4 2.4 0 001.63 0z" fill="#f8d5b0"/><path d="M915.43 131.86zm-42.07-1.94h-.12z" fill="#3d2922"/><path d="M900.58 160.12l-.59.26z" fill="#9d574d"/><path d="M907.06 127.59h-.18z" fill="#3d2922"/><path d="M881.38 122.06h.33z" fill="#f8d5b0"/><path d="M880.72 130l.2.06-.25-.06z" fill="#f3f6f7"/><path d="M883.57 130.81v.06z" fill="#3d2922"/><path d="M875.55 175c-.65-.63-1.29-1.3-1.91-2v-.51a30.28 30.28 0 001.91 2.51z" fill="#f7d1af"/><path d="M925.6 134.1v-.4.4zm-51.25 17.6v.05z" fill="#ae978a"/><path d="M905.21 401l-.57.15z" fill="#425b73"/><path d="M921.37 117.47l-.06-.12c0 .08.08.15.11.22a.25.25 0 01-.05-.1z" fill="#f8d5b0"/><path d="M890.52 161.58l.77.13z" fill="#9d574d"/><path d="M912 128.14l-.18-.06h-.06z" fill="#3d2922"/><path d="M878.11 200.84v.15z" fill="#5682ab"/><path d="M873.84 152.73s0 .01 0 0z" fill="#f8d5b0"/><path d="M950.79 689.35a216.88 216.88 0 0122.73 7.78l-.39-.15c-4.61-1.8-11-4.31-21.73-7.44z" fill="#515b64"/><path d="M856.59 128.34l.17.11z" fill="#f1bc9a"/><path d="M875.78 134.78h.06a.07.07 0 01-.06 0z" fill="#39403f"/><path d="M872.53 130.11a7.18 7.18 0 01.7-.16l-.31.08h-.15zm37.27-.46z" fill="#3d2922"/><path d="M856.33 128.19a.81.81 0 01.18.1z" fill="#f1bc9a"/><path d="M873.35 135.37h.32z" fill="#f3f6f7"/><path d="M898.79 170.72c.1.11.21.2.31.3z" fill="#f8d5b0"/><path d="M874.85 151l-.15.19a1.25 1.25 0 01.15-.19z" fill="#ae978a"/><path d="M854 133.83c-.36-3.72 0-6.89 2.34-5.64-2.25-1.13-2.66 1.94-2.34 5.64z" fill="#f1bc9a"/><path d="M906.42 134.84a.12.12 0 01-.07-.05z" fill="#39403f"/><path d="M841 281.24l-.48-6.45-.1-1.34-1.21-16.26v-1.9q1.23.32 2.49.51l.59.1c.43.06.86.12 1.28.16a47.67 47.67 0 0011.69-.34l1.62-.23 1.32-.22.74-.13c1.25-.21 2.52-.46 3.81-.72 3.8-.78 7.74-1.71 11.84-2.64 1.72-.39 3.48-.78 5.26-1.15.36 2.86.62 5.29.84 8.27 0 .43.06.86.08 1.3.23 4.1.44 8.76.59 12.34v.06c0 .53 0 1 .06 1.51v1.94a.49.49 0 010 .12v2.22c-22.09 10.32-17.05 9.96-40.42 2.85z" fill="#b2aeaf"/><path d="M902.35 159.27h-.09z" fill="#9d574d"/><path d="M904.47 170.08c.43-.5.9-1.05 1.37-1.56l-.53.61-.07.08-.19.22c-.19.22-.38.44-.58.65zm-13.93-1.67a3.62 3.62 0 012.38-1.2h.08a3.9 3.9 0 00-1 .3l-.25.12a8 8 0 00-1.21.78z" fill="#f8d5b0"/><path d="M893.06 167.22a4.84 4.84 0 00-1 .3 3.9 3.9 0 011-.3zm-17.2-48.64z" fill="#f8d5b0"/><path d="M908.91 197.17c-.42 1.09-.87 2.25-1.36 3.49l1.27-3.34z" fill="#f7d1af"/><path d="M899 147.47l-.18.06a.64.64 0 01.18-.06z" fill="#ae978a"/><path d="M884.27 131.84v-.06z" fill="#f3f6f7"/><path d="M920.69 116.08c.2.41.4.83.61 1.24v-.07l-.24-.48-.09-.17z" fill="#f8d5b0"/><path d="M881 130h.08z" fill="#3d2922"/><path d="M904 135.16c-2.53-.62-4.24-1.71-3.41-3.09l.05-.07.08-.1a4.75 4.75 0 01.39-.38l.28-.22h.14l.29-.16.15-.07a11.49 11.49 0 013.41-1h.18l.46-.05h.36c.39 0 .78-.05 1.18-.05a19 19 0 012 .08h.77a11 11 0 013.27 1l.13.07a6.48 6.48 0 011.45 1.07 3.79 3.79 0 01.18.34v.33c0 1-.75 1.75-1.92 2.25l-.16.06h-.05a21.51 21.51 0 01-8.73.35.51.51 0 00-.17 0l-.49-.1h-.08zm2-4.2a2.64 2.64 0 000 3.41l.11.12v.05l.17.13h.08a.12.12 0 00.07.05 2.51 2.51 0 001.37.37 2.44 2.44 0 001.55-.5l.19-.15.05-.05a.71.71 0 00.12-.13v-.06a.21.21 0 00.06-.08s.05-.05.05-.07a2.65 2.65 0 00-.12-3.12.07.07 0 000-.05 1.41 1.41 0 00-.25-.24l-.09-.07-.09-.06a.24.24 0 00-.09-.06 2.74 2.74 0 00-2.68 0l-.19.12h-.05l-.08.07a.17.17 0 00-.06.06s-.2.23-.21.3zm-21.72.9zm-4.04-1.99z" fill="#f3f6f7"/><path d="M911.81 163.41a5.3 5.3 0 00.6-1.57v.15a3.46 3.46 0 01-.61 1.48z" fill="#ae978a"/><path d="M926.64 134.32v-.22a1.43 1.43 0 010 .22z" fill="#2c1d1b"/><path d="M995.9 703c2.24-.88 3.75-2.12 4.2-3.66a3.85 3.85 0 01.14 1.13c0 .89-1.7 1.8-4.34 2.53z" fill="#4b5b6a"/><path d="M905.34 148.06a15 15 0 002.34.68 13 13 0 01-2.34-.68z" fill="#ae978a"/><path d="M869.31 121.79a3.18 3.18 0 01.26-.26z" fill="#f8d5b0"/><path d="M979.06 338.06c-13.72 37.8-19.38 55.75-23.25 64.07a20.64 20.64 0 01-2.91 4.87 12.75 12.75 0 01-8 1.66 33.73 33.73 0 01-6.71-1.51 18.55 18.55 0 01-8.31-5.84 10.9 10.9 0 01-1.89-6.57c.35-2.89 2-6.88 4.33-8.58.17-.11.33-.22.5-.31 1-.57 2-1.14 2.86-1.74a22.87 22.87 0 003.55-2.86 17.32 17.32 0 001.83-2.1q.18-.22.33-.45c4.5-6.32 5.72-16.08 7.86-36.13.06-.55.12-1.11.18-1.69.11-1 .22-2 .33-3.06s.24-2.22.36-3.37z" fill="#f4d0af"/><path d="M879.81 129.79h.11z" fill="#3d2922"/><path d="M994.43 699.33a31.63 31.63 0 01-6.36.77c.76-.05 1.57-.13 2.44-.23.65-.08 2.87-.44 4.92-.76l-.94.21z" fill="#515b64"/><path d="M911 127.81l.22.06zm-6.24-9.23h.68zm17.15-.08l-.35-.65c.12.21.23.43.35.65zm-16.67 50.71l.07-.08z" fill="#f8d5b0"/><path d="M873.64 172.46v.54l-.22-.24z" fill="#5682ab"/><path d="M866.72 118.59a.36.36 0 010 .09z" fill="#f8d5b0"/><path d="M875.84 134.82s.01.02 0 0z" fill="#39403f"/><path d="M875.47 127.52h.9a9.66 9.66 0 011.2.07h.26a9.37 9.37 0 015.73 3.22v.12c.1.15.19.31.28.47s0 0-.05 0a.17.17 0 00-.06-.06.69.69 0 00-.13-.11l-.1-.07a.18.18 0 00-.07-.05.24.24 0 00-.11-.06 6.9 6.9 0 00-1.9-.73H881a1.55 1.55 0 00-.23-.06h-1.04a18.77 18.77 0 00-5.5 0c-.27 0-.54.08-.79.13h-.12a7.18 7.18 0 00-.7.16h-.07l-.18.05a5.17 5.17 0 00-2.37 1.1 5.65 5.65 0 01.54-1c.07-.09.13-.18.2-.26a7.68 7.68 0 014-2.38h.13l.64-.1z" fill="#3d2922"/><path d="M874.24 122.46l.16-.06z" fill="#f8d5b0"/><path d="M915.91 96.18c.38.79 0 4 1.1 9.31a46.93 46.93 0 01-.56-3 .15.15 0 000-.07c0-.13 0-.26-.05-.38s-.07-.54-.09-.79c-.31-2.78-.17-4.51-.4-5.07z" fill="#2c1d1b"/><path d="M906.06 130.81l.08-.07h.05l.19-.12a2.83 2.83 0 012.68 0 .24.24 0 00.09.06l.09.06.09.07a1.41 1.41 0 01.25.24v.05a2.74 2.74 0 01.12 3.12l-.05.07a.21.21 0 01-.06.08v.06l-.12.13-.05.05-.19.15a2.82 2.82 0 01-2.92.13l-.07-.05h-.08l-.17-.13v-.05l-.11-.12a2.72 2.72 0 010-3.41z" fill="#39403f"/><path d="M905.62 153h1.55l4-.08a120.44 120.44 0 01-13.48.17h8z" fill="#9d574d"/><path d="M925.92 137.93v.19a.76.76 0 010-.19z" fill="#ae978a"/><path d="M939.42 686.28l-1.41-.36z" fill="#515b64"/><path d="M924.71 138.17c.19-3.25.29-6.49.29-9.37a3.3 3.3 0 01.19.95c-.05 1.67-.19 4.81-.48 8.42z" fill="#ae978a"/><path d="M895.28 159.19a20.65 20.65 0 005.74-1.52.21.21 0 00.1 0l.13-.05a.13.13 0 00.08 0 .27.27 0 00.11-.05.18.18 0 00.09 0l.19-.08.28-.13h.16l.36-.18h.07c.46-.24.92-.51 1.36-.79h.08l.27-.17c.41-.26.8-.54 1.19-.84h-24.01l.29.26.15.13.07.06.13.1.07.06.31.25.11.08.13.09.1.07.21.16.15.11.15.1.09.06.33.21h.06l.1.06h.19a.09.09 0 00.06 0c.17.1.35.2.52.28s0 0 .05 0a11.62 11.62 0 001.31.58l.29.12a14.23 14.23 0 001.36.43h.12c.25.07.5.13.76.18a17.92 17.92 0 006.07.27.08.08 0 00.62.15zm4.71 1.19c-.67.28-1.32.52-2 .72a15.83 15.83 0 01-1.86.47l-.58.11h-.27a8.27 8.27 0 01-.87.1 14.26 14.26 0 01-3.12-.11l-.77-.13c-.36-.07-.73-.15-1.1-.25l-.17-.05-.32-.09-.29-.08h-.06c-.3-.09-.61-.2-.93-.31h-.14c-.48-.18-1-.38-1.49-.61l-.92-.42a.34.34 0 01-.12-.06h-.1c-.46-.22-.94-.46-1.42-.72l-.16-.08-.09-.05q-.41-.21-.81-.45l-.23-.13-.93-.55h-.12l-.13-.08-.08-.05-.23-.14-.17-.1-.09-.05-.1-.06h-.06l-.08-.05h-.07l-.13-.08-.19-.12c-1.22-.77-2.51-1.64-3.89-2.6 0-.11.26.06-1.33-.39l-.25-.07c.92-.48 3.37-.65 6.68-.65 2.64.15 6.47.35 12.18.42h5.12a120.44 120.44 0 0013.48-.17l1.71-.05-1.21.8-.1.07-.21.13-.18.12-.79-.57c-1.12.74-2.19 1.43-3.2 2.07l-.12.08-.2.13-.19.12h-.12l-.09.05-.28.17-.09.06h-.07l-.13.08-1 .58h-.05l-.08.05-.08.05-.43.25-.15.09-.79.45-.08.05-.71.38-.71.37h-.09l-.77.38-.18.09q-.36.18-.72.33z" fill="#9d574d"/><path d="M850.74 687.81l-3.41.86.75-.2.2-.05z" fill="#515b64"/><path d="M976.65 698.32l.27.1z" fill="#4b5b6a"/><path d="M914 123.54a2.22 2.22 0 01-.39-.12 2.91 2.91 0 01.39.12z" fill="#f8d5b0"/><path d="M911.66 153.59l-.1.07z" fill="#9d574d"/><path d="M878.68 130.59a2.81 2.81 0 00-2.71-.11 2.51 2.51 0 011.27-.31 2.43 2.43 0 011.44.42z" fill="#39403f"/><path d="M940.78 686.63c2.56.53 6 1.48 9.61 2.6-2.18-.62-4.54-1.27-7.1-1.94l-.81-.22-1.15-.3h-.06z" fill="#515b64"/><path d="M976.06 698.11c1 .39 1.9.71 2.79 1a3 3 0 00.4.12l.53.14h.06l.51.13h.13a23.34 23.34 0 007.54.57 31.63 31.63 0 006.36-.77h.06c1.43-.23 3-.51 4.77-.83a1.11 1.11 0 01.84.82c-.45 1.54-2 2.78-4.2 3.66a49.33 49.33 0 01-13.39 1.28 47.84 47.84 0 01-12.81-2.94c-3-1.52-5.64-3.08-8.91-4.7-.36-.19-4-3.22-20.8-7.49h-.28l-.58-.16c-1.63-.43-2.44-.56-2.81-.71a.61.61 0 01-.25-.55.41.41 0 010-.11c0-.2.09-.47.13-.82.07-.69 1.83-.62 4.56-.06h.13l.49.13h.06l1.15.3.81.22c2.93.78 5.61 1.52 8.06 2.24 8.28 2.57 17.63 5.92 21.73 7.44l.39.15.16.06.29.11.47.19.78.3c.23.09.44.18.66.25z"/><path d="M881.36 130.13h.14z" fill="#f3f6f7"/><path d="M919.75 114l.24.56c-.08-.19-.17-.37-.24-.56z" fill="#f8d5b0"/><path d="M908.55 258.34c.4-4.31.74-7.71.74-7.71l.71.1c.83.42 2.32.5 4.89.76l.86.14h.23l3.35.59a1 1 0 00.23 0c4.69.87 8.15 1.6 11.13 2l.84.21a14.32 14.32 0 005.22.08h.05a21.87 21.87 0 003.12-.44 2.57 2.57 0 00.38-.08q.66-.13 1.35-.33c1-.26 2-.59 3.15-1l.47-.17c.55-.2 1.12-.42 1.72-.66l.5-.2c.68-.27 1.4-.57 2.15-.9l.35-.15c0 .48-.08 1-.14 1.61l-.06.55-2.73 21.77-.7 5.6v.28l-18.48 6.19s-20.27-9.69-20.66-10.58a.45.45 0 010-.08 39.41 39.41 0 01.2-4.64v-.44a.86.86 0 010-.16 2.64 2.64 0 010-.29c.28-3.05.69-7.17 1-12 .12.05.13 0 .13-.05z" fill="#b2aeaf"/><path d="M912.87 153a.28.28 0 000 .09.28.28 0 010-.09zm-39.01-.32zm38.68 8.08v.25zm1.05-37.34a12.32 12.32 0 01-1.69-.68c.51.26 1.03.46 1.69.68zm-1.91 40.19v.07a6.55 6.55 0 01-1.31 1.33 7.73 7.73 0 001.31-1.4z" fill="#f8d5b0"/><path d="M865.13 120.63l-.12.12z" fill="#2c1d1b"/><path d="M870.66 134.63l.11.05z" fill="#f3f6f7"/><path d="M850.74 687.81l-2.46.61c3.84-1 7.29-1.9 9.57-2.31l-4 .95-2.84.69z" fill="#515b64"/><path d="M912.83 98.73l-.1.1z" fill="#2c1d1b"/><path d="M884.19 401.11l-.23-.05h-.05z" fill="#3f6b93"/><path d="M909.29 250v-10.22l40.84 3.09v6.57c0 .39 0 .79-.07 1.22l-.35.15a59.15 59.15 0 01-12.71 3.76h-2.74a35.69 35.69 0 01-3.65-.36 103.38 103.38 0 00-15.63-2.76l-.69-.11c-1.33-.22-2.73-.44-4.24-.65a1.53 1.53 0 01-.76-.69z" fill="#b2aeaf"/><path d="M901.3 131.18s-.02.01 0 0z" fill="#3d2922"/><path d="M884.53 132.25a.13.13 0 010 .07z" fill="#f3f6f7"/><path d="M876.6 118.53h-.2z" fill="#f8d5b0"/><path d="M925.92 137.93c-.08-.73-.17-2-.31-3.81.1 1.06.2 2.34.31 3.81z" fill="#ae978a"/><path d="M898.79 170.72l-.24-.26a5 5 0 003.92 1.28 2.38 2.38 0 01-2 .15l-.2-.07-.36-.18a4 4 0 01-.63-.46l-.08-.07s-.31-.28-.41-.39zm-1.79-1.91l.14.13z" fill="#f8d5b0"/><path d="M913.6 135l.16-.06a1 1 0 01-.16.06zm-29.04-2.68a.13.13 0 010 .08z" fill="#f3f6f7"/><path d="M947.56 251.71l-.5.2z" fill="#3f6b93"/><path d="M869.73 134a1.44 1.44 0 01-.25-2c-1 1.81 1.76 3 5.19 3.48h-1.52l-.27-.05c-.28 0-.54-.11-.79-.17l-.58-.16-.16-.06h-.09a3.34 3.34 0 01-.44-.17l-.11-.05-.23-.11a3.66 3.66 0 01-.58-.39l-.08-.07s-.09-.2-.09-.25z" fill="#f3f6f7"/><path d="M976.08 698.11l.57.21.27.1.62.22c.29.11.58.21.86.29l.45.15c-.89-.26-1.8-.58-2.79-1z" fill="#4b5b6a"/><path d="M881.39 276.05a.49.49 0 010 .12.49.49 0 000-.12z" fill="#355b80"/><path d="M901.49 159.7l-.18.09z" fill="#9d574d"/><path d="M869.68 131.72a4.27 4.27 0 012.55-1.53l.18-.05h.28a5.73 5.73 0 00-3.08 1.68z" fill="#3d2922"/><path d="M939.62 689a18.85 18.85 0 01-3.39-.87c.37.15 1.18.28 2.81.71z" fill="#515b64"/><path d="M895.3 167.63a5.85 5.85 0 01.71.41 7.56 7.56 0 00-.71-.41z" fill="#f8d5b0"/><path d="M825.61 695c3.48-1.06 13-3.95 21.19-6.21l.53-.14 3.41-.86.26-.06 2.84-.69 4-.95c1.73-.31 2.78-.37 2.8 0v1.02a1 1 0 010 .17v.42l-1.26.41-.76.25c-12.16 3.9-16.57 4.5-20.14 7.2l-.19.14-.71.5a41 41 0 01-17.78 6.42h-.19c-6.12.4-16.87.34-21.72-1.92l-.27-.13a7 7 0 01-.92-.55.84.84 0 01-.18-.46v-2.39a.27.27 0 01.29-.23 15.27 15.27 0 001.9.3l.5.08.46.07.64.09h.08l.72.11.43.06h.11c8.36 1.22 11.45 1.13 16.41-.29l.43-.12c1.52-.42 3.18-1 5.17-1.62h.06c.46-.14.93-.3 1.43-.47z"/><path d="M846.8 688.81c-10 2.58-16.49 4.66-21.19 6.21l-.3.09-1.07.32c-2.21.73-4 1.33-5.59 1.8l-.43.12a29.11 29.11 0 01-3.24.71c5.73-1 11.74-4.23 33.1-9.59l-.75.2z" fill="#515b64"/><path d="M909.13 130.52a.24.24 0 01.09.06.24.24 0 01-.09-.06z" fill="#39403f"/><path d="M866.59 118.89v.07s-.09.14-.14.21a5.73 5.73 0 00.46-1 1.46 1.46 0 00-.05.2 1 1 0 000 .16v.09zm46.22 36.53v.46c-.01-.15-.01-.3 0-.46zm-21.05 12.22z" fill="#f8d5b0"/><path d="M874.35 151.7c0-.08.09-.15.14-.23a.83.83 0 01.08-.12l.13-.19.15-.19c.91-1.1 2.55-2.09 6.38-2.74h.25c.37-.06.75-.12 1.16-.17l.36-.06 1.66-.18h.54a3.59 3.59 0 01.47 0c-7.44.63-10.15 2.36-11.43 4.16v-.05z" fill="#ae978a"/><path d="M872.88 135.29l.27.05zm-.14-5.22h.15a21.53 21.53 0 015.54-.38c.34 0 .68 0 1 .1l.43.06h.87l.25.06h.13l.23.06h.2a8.06 8.06 0 011.51.61l.1.06h.06l.1.07a.69.69 0 01.13.11.17.17 0 01.06.06h.05s0 .05.06.08 0 0 0 .06a1.84 1.84 0 01.25.79 2.06 2.06 0 01-.92 1.64h-.09c-1.8 1-5.4 1.42-8.54 1.21h-.32c-3.43-.43-6.19-1.67-5.19-3.48a1.51 1.51 0 01.12-.2v-.05a5.73 5.73 0 013.82-.86zm2.52 1a2.67 2.67 0 00-.07 3.15.13.13 0 00.05.06l.17.18.18.14a.24.24 0 00.09.06.07.07 0 00.06 0 2.51 2.51 0 001.37.37 2.43 2.43 0 001.7-.62l.14-.15.09-.12a.18.18 0 00.05-.07.23.23 0 000-.07.3.3 0 00.06-.11.31.31 0 000-.1 2.6 2.6 0 00.25-1.15 2.51 2.51 0 00-.24-1.13.71.71 0 00-.11-.21.53.53 0 00-.1-.12.22.22 0 00-.07-.07v-.05a.53.53 0 00-.14-.12.18.18 0 01-.08 0 2.43 2.43 0 00-1.44-.42 2.51 2.51 0 00-1.27.31.09.09 0 00-.06 0l-.23.15a.81.81 0 00-.14.12.08.08 0 000 .05.12.12 0 00-.07.07.13.13 0 00-.19-.15z" fill="#f3f6f7"/><path d="M881.23 148.23c-3.83.65-5.47 1.64-6.38 2.74.9-1.12 2.52-2.1 6.38-2.74z" fill="#ae978a"/><path d="M921.41 117.54l.15.29c-.05-.1-.1-.19-.15-.29z" fill="#f8d5b0"/><path d="M893.49 381.52a52.7 52.7 0 005 16.28c-2.81-4.57-4.27-7.35-5-16.28z" fill="#425b73"/><path d="M885.06 147.76h-.38z" fill="#ae978a"/><path d="M883.49 131.08l.1.07zm-13.62-9.84a9 9 0 015.81-2.64h6.23l2.32.08.79 3.87-.57-.09-.51-.08h-.12l-.56-.08-.75-.1-.8-.1h-.33l-.54-.06c-.39 0-.76-.08-1.1-.1h-.18a11.21 11.21 0 00-4.89.41 1.48 1.48 0 00-.27.1l-.16.06-.27.11a15.1 15.1 0 01-3.91 1.29c-.45.07-.95.14-1.52.19h-1.15c.53-.71 1-1.34 1.51-1.89l.19-.21.11-.12v-.06l.26-.26a2.69 2.69 0 01.41-.32z" fill="#3d2922"/><path d="M925.57 133.63a.2.2 0 010 .07v-.07z" fill="#ae978a"/><path d="M880.18 129.85h-.08z" fill="#3d2922"/><path d="M881.5 400.43l2.41.61z" fill="#3f6b93"/><path d="M896 168l.14.1z" fill="#f8d5b0"/><path d="M944.87 252.74c-1.13.41-2.17.74-3.15 1 .99-.27 2.03-.6 3.15-1z" fill="#3f6b93"/><path d="M909.22 130.58l.09.06zm-30.22.24v.05a.12.12 0 000-.05z" fill="#39403f"/><path d="M901.32 131.14s-.02.01 0 0z" fill="#3d2922"/><path d="M873.62 153.2l.11-.1.12-.11.11-.1c.93-.69 2.1-.57 6.34-.34-3.3 0-5.76.17-6.68.65z" fill="#9d574d"/><path d="M880.29 129.88h-.11.21-.1z" fill="#3d2922"/><path d="M910.5 100.18a.16.16 0 01-.09 0z" fill="#f8d5b0"/><path d="M884.65 132.58c.18.73-.28 1.33-1.14 1.8h.09c.8-.54 1.21-1.11 1.05-1.8z" fill="#f3f6f7"/><path d="M915.46 131.93v-.05.05z" fill="#3d2922"/><path d="M879 134.57s0-.01 0 0z" fill="#39403f"/><path d="M969.67 701.32a39.36 39.36 0 01-8.91-4.7c3.24 1.62 5.92 3.18 8.91 4.7z" fill="#515b64"/><path d="M877.83 127.58a8.71 8.71 0 015.73 3.22 9.37 9.37 0 00-5.73-3.22z" fill="#3d2922"/><path d="M855.39 141.46a50.5 50.5 0 01-1.22-6 3.05 3.05 0 010-.41c0-.27-.07-.54-.09-.8s0-.27 0-.4c-.31-3.7.1-6.77 2.34-5.64l.18.1.07.05.17.11.17.12.31.24 2.58 4.24.08.13.25.42.11.19s.05.08.07.13l.57.93.08.13a4.11 4.11 0 00.24.39v.9c0 2.2 0 7.91-.43 11.27v.23c-.22 1.31-.54 2.07-1 2.19-.85.23-2.15-2-4.13-7.49l-.12-.37a1.42 1.42 0 01-.07-.22c-.07-.11-.12-.27-.16-.44z" fill="#f1bc9a"/><path d="M908.25 148.86a1.51 1.51 0 01.28 0zm-15.67.69zm-18.3 2.28z" fill="#ae978a"/><path d="M884.63 132.52a.14.14 0 010 .06s.01-.04 0-.06z" fill="#f3f6f7"/><path d="M879.13 131s.01 0 0 0z" fill="#39403f"/><path d="M885.84 401.53l.26.07z" fill="#3f6b93"/><path d="M882.22 155.58l.07.06z" fill="#fcf8f7"/><path d="M919.51 113.43l.24.57q-.13-.28-.24-.57z" fill="#f8d5b0"/><path d="M857.19 399.6a26.85 26.85 0 01-3 3.54c.87-.95 2.04-2.27 3-3.54z" fill="#f4d0af"/><path d="M869.25 121.86l-.11.12z" fill="#f8d5b0"/><path d="M913.55 174.15v-.48c.01.16.01.33 0 .48z" fill="#f7d1af"/><path d="M914.17 174.23c-.32-.22-.51-.22-.62 0a.06.06 0 000-.06v-.54z" fill="#5682ab"/><path d="M884.33 131.91a1.76 1.76 0 01.2.34 2.49 2.49 0 00-.2-.34z" fill="#f3f6f7"/><path d="M866.57 118.93v.07zm58.12 19.59v-.15a.76.76 0 000 .15zm-9.26-14.66a10.82 10.82 0 01-1.09-.23c.33.08.66.16 1.09.23zm-2.77 35.67a2.19 2.19 0 010 .36z" fill="#f8d5b0"/><path d="M880.39 129.89h.09z" fill="#3d2922"/><path d="M975.9 698l-.17-.07z" fill="#515b64"/><path d="M926.21 137.93a27 27 0 011.15-6.7c-.1.29-.2.6-.28.93v.06c-.12.47-.22 1-.31 1.47 0 .14 0 .27-.07.41s0 .15 0 .22 0 .33-.07.5-.06.43-.08.64a.29.29 0 000 .09c0 .33-.08.65-.11 1v.07c-.05.38-.08.73-.11 1a.66.66 0 000 .14z" fill="#2c1d1b"/><path d="M886 147.69a1.36 1.36 0 00-.29 0 3.59 3.59 0 00-.47 0c.23.03.48.01.76 0z" fill="#ae978a"/><path d="M912.8 155.88v.37c-.01-.12-.01-.25 0-.37zm-50.49-22.96a.17.17 0 010 .07.17.17 0 010-.07z" fill="#f8d5b0"/><path d="M884.21 131.76zM869.73 134z" fill="#f3f6f7"/><path d="M890.13 168.74l.31-.25a21.24 21.24 0 01-2.67 2.35c.52-.46 1-.94 1.53-1.38l.14-.13.07-.06.57-.49z" fill="#ae978a"/><path d="M905.92 121.89zm-2.59.26z" fill="#f8d5b0"/><path d="M908.83 197.31c.67-1.79 1.49-4 2.31-6.25-.61 1.87-1.33 3.81-2.19 6a.36.36 0 010 .09z" fill="#f7d1af"/><path d="M907.25 201.42c-12.68 7.32-9.3 3.41-13.94 17.82-.34-1.4-.61-2.63-.85-3.73-.12-.54-.22-1-.33-1.53-.06-.29-.11-.56-.17-.83s-.07-.34-.11-.5c-.66-3.14-1-4.56-2.27-5.58h-.06c-.1-.09-.22-.17-.34-.26a10.6 10.6 0 00-1.33-.73l-.5-.23h-.05l-.91-.37-1.83-.71c-.77-.29-1.63-.62-2.61-1l-1-.41-1.43-.58-1.13-.48c-.07-.41-.13-.82-.19-1.21v-.15c-.08-.51-.16-1-.24-1.48s-.14-.78-.2-1.16c-.21-1.2-.41-2.29-.61-3.28l-.09-.46c-.12-.64-.25-1.24-.37-1.8-.07-.35-.15-.69-.22-1s-.1-.43-.14-.64 0-.22-.08-.33c-.06-.24-.11-.48-.17-.71-.11-.49-.23-.95-.34-1.38l-.18-.7c0-.1-.05-.21-.08-.32s0-.1 0-.15a.75.75 0 000-.16.94.94 0 000-.16.94.94 0 000-.16 32.52 32.52 0 01-1.48-8.48 2.35 2.35 0 000-.26v-5.12c.62.68 1.26 1.35 1.91 2 .24.29.48.57.73.84l.56.6.34.35c.47.47.94.92 1.43 1.34a4 4 0 00.32.28 24.4 24.4 0 0011.25 5.57h.16a17.68 17.68 0 003 .41 18.34 18.34 0 005.79-.63 22.24 22.24 0 003.43-1.14c.38-.16.76-.33 1.14-.53l.73-.37c.41-.22.82-.46 1.22-.71s.49-.3.73-.47c.46-.31.93-.64 1.38-1a2.92 2.92 0 00.28-.21c.37-.29.74-.6 1.1-.92l.63-.57c.11-.1.21-.19.31-.3q.39-.37.78-.78c.67-.7 1.32-1.45 2-2.25v-.05l.14-.18.07-.09.06-.08.09-.12.31-.33v.54a.06.06 0 010 .06c-.25.43-.12 1.81-.1 3.9v.88a45.71 45.71 0 01-2.23 11.9.56.56 0 000 .12c-.82 2.26-1.64 4.46-2.31 6.25-1 1.72-1.6 2.65-1.37 3.58l-.1.25c-.5 0-.53.09-.53.09z" fill="#f7d1af"/><path d="M921 116.77l.24.48q-.11-.25-.24-.48z" fill="#f8d5b0"/><path d="M938.2 407.16c-4.09-1.42-6.75-3.51-8.31-5.84a18.55 18.55 0 008.31 5.84z" fill="#425b73"/><path d="M920.27 115.21a44.7 44.7 0 01-3.82-12.76c.14.92.31 1.93.56 3q.13.65.3 1.32l.12.44c.2.8.45 1.65.74 2.53.11.38.24.77.39 1.16.2.6.43 1.22.69 1.85.08.21.17.43.26.64s.15.38.24.57.16.37.24.56l.08.18c.07.2.14.35.2.51zm-7.41 37.96v.4c-.01-.13 0-.26 0-.4z" fill="#f8d5b0"/><path d="M872.88 135.29l-.79-.17c.25.06.51.12.79.17zm31.12-.12h.08zm-33.58-.65l.23.11z" fill="#f3f6f7"/><path d="M951.35 689.53c-2.45-.72-5.13-1.46-8.06-2.24 2.56.67 4.92 1.32 7.1 1.94l.4.12z" fill="#515b64"/><path d="M899.26 147.4h-.09z" fill="#ae978a"/><path d="M912.58 160.41v.35c-.02-.12-.01-.24 0-.35z" fill="#f8d5b0"/><path d="M798.57 697.15l.8.13-.5-.08z" fill="#515b64"/><path d="M874.67 122.3l-.27.1a1.48 1.48 0 01.27-.1z" fill="#f8d5b0"/><path d="M883.39 156.47l.15.1z" fill="#fcf8f7"/><path d="M922.9 153.66c.52-2.49 1-5.87 1.3-9.34a5.07 5.07 0 010 .55 82.61 82.61 0 01-1.3 8.79zM869.1 122l-.19.21zm5.9 33.43a.31.31 0 010-.1v.1z" fill="#f8d5b0"/><path d="M818.22 697.35c-5 1.42-8.05 1.51-16.41.29l.72.1c5.66.77 8.82.91 11.95.4h.46a29.11 29.11 0 003.28-.79z" fill="#515b64"/><path d="M907.06 127.59l.51-.07h-.17z" fill="#3d2922"/><path d="M900.48 171.88s.01.02 0 0z" fill="#f8d5b0"/><path d="M883.6 131.16s.01.01 0 0z" fill="#3d2922"/><path d="M899.16 171.07l.08.07zm-22.82-52.52h-.07a.08.08 0 01.07 0zm45.59 0l.13.23z" fill="#f8d5b0"/><path d="M903.06 158.9l-.71.37z" fill="#9d574d"/><path d="M903.14 401.57h-.11z" fill="#425b73"/><path d="M879 130.89a.22.22 0 01.07.07.23.23 0 00-.07-.07z" fill="#39403f"/><path d="M866.53 119s-.01 0 0 0zm37.21 3.1h-.31z" fill="#f8d5b0"/><path d="M912.94 98.62l-.11.11z" fill="#2c1d1b"/><path d="M846 408.18l-.27.09c-2.94 1-6 1.71-7.7 2.1l-1.29.28c-.27-.54-.52-1-.77-1.39v-.05c-1.88-3.47-2.87-5.49-3.26-4.88-3.15-5.5-9.09-19-24.62-65.23 10.55-4.1 21.68-5.09 28.42-4.13l.06.5c1 9.64 3.32 44.53 11.76 46.9a8.83 8.83 0 011.8.73 21.76 21.76 0 012.8 1.88l.84.72.43.41a25 25 0 012.31 2.59 12.54 12.54 0 011.64 2.59 5.43 5.43 0 00.76 2.56 6.29 6.29 0 010 .86v.15c-.65 0-.06.52-.13 1.11a9 9 0 01-1.43 3.37l-.17.24c-1 1.27-2.13 2.59-3 3.54l-.34.36-.25.27c-.26.27-.5.54-.74.8-1.36 1.45-3.99 2.64-6.85 3.63z" fill="#f4d0af"/><path d="M852.63 404.83c-1.07 1.22-3.76 2.39-6.63 3.35 2.86-1 5.49-2.2 6.86-3.61z" fill="#f4d0af"/><path d="M868.91 122.23zm15.03.17z" fill="#f8d5b0"/><path d="M879.7 129.77h.2l-.43-.06zm.49.09z" fill="#f3f6f7"/><path d="M872.48 130.12h-.07z" fill="#3d2922"/><path d="M975.91 698l.15.07-.18-.07z" fill="#4b5b6a"/><path d="M919.61 252.31a1 1 0 01-.23 0z" fill="#3f6b93"/><path d="M844.59 662.53c-1.12-2.49-2.8-4.35-9.2-2.36 0-1.38.07-2.74.1-4.09 3.12-123.08 4-108.68.18-186.8v-.5c-.71-21.47-1.6-36.51-2.26-46.63a1.88 1.88 0 010-.34c-.26-5.42-.53-11.13-.81-17.16a.79.79 0 01.12-.32c1.45 2.52 2.32 3.35 3.26 4.88v.05c.25.44.5.9.77 1.39l1.29-.28a73.81 73.81 0 007.7-2.1l.27-.09c2.87-1 5.56-2.13 6.63-3.35l.23-.26c.24-.26.48-.53.74-.8a2.16 2.16 0 00.25-.27l.34-.36a26.85 26.85 0 003-3.54l.17-.24c1.13-1.51 1.9-2.88 1.43-3.37a5.91 5.91 0 00.13-1.12 6.76 6.76 0 011.35.19h.14l1.24.32c3.16 1.07 9.43 2.44 22.17 5.63h.08l.39.1.52.13 1 .24.26.07.8.2h.22l1 .26c3.12-8.1 4.52-9.34 5.1-21.85.07.26.14.66.23 1.18v.07c.73 8.93 2.19 11.71 5 16.28v.05a39.58 39.58 0 002.54 4.24l2-.52h.11l1.5-.39.57-.15 1.08-.28.52-.14.72-.19 8.34-2.18h.14l.23-.06.82-.07h.13l.19-.05.75-.2 1.3-.34h.16l.27-.07.6-.16 1.36-.36c1.66-.44 2.79-.73 3.58-.95l1.39-.4.57-.19h.09l.15-.06.47-.18a8.91 8.91 0 001.91 6.43c1.56 2.33 4.22 4.42 8.31 5.84a24 24 0 006.71 1.51h.31c3.53.43 5.59.67 7.68-1.7a6.54 6.54 0 002.91-4.87c0 175.47-1.57 117.09 6.07 258.61-1.09-2.19-9.09-2.14-9.69 1.35l-.41.21c-.8.24-3 1.47-8.68 4.4l.81-.4-4.3 2.19c-18.78-82.46-18.92-74.85-18.92-120.69l-21.21-107.74c-1-5.25-9.06 0-9.06 0S872.12 539 870.57 546.26s1 27.89-.51 40.81-10.47 79.3-10.47 79.3z" fill="#676465"/><path d="M913.52 152.59c-.36.13-.56.25-.66.46a.28.28 0 010-.09v-.17z" fill="#ae978a"/><path d="M799.37 697.28l.46.07zm196.06 1.83c-2 .32-4.27.68-4.92.76-.87.1-1.68.18-2.44.23a26.18 26.18 0 01-2.76-.08A78.47 78.47 0 00996 699l-.49.12z" fill="#515b64"/><path d="M940 254.15l.38-.08a2.57 2.57 0 01-.38.08z" fill="#3f6b93"/><path d="M907.75 127.51a.21.21 0 01.08 0h-.43.17zM883 130.78a8.06 8.06 0 00-1.51-.61h-.2l-.19-.06a6.9 6.9 0 011.9.67zm.2.11z" fill="#3d2922"/><path d="M922.37 119.35a1.62 1.62 0 01.1.18zm-12.14 8.27a9.56 9.56 0 00-1.3-.14 7.5 7.5 0 011.3.14z" fill="#f8d5b0"/><path d="M915.43 131.88v.05z" fill="#3d2922"/><path d="M897.15 169l.16.15zm13.35-68.82c.21-.08.4-.17.59-.26a6.21 6.21 0 01-.59.26z" fill="#f8d5b0"/><path d="M979.82 699.35h.06z" fill="#4b5b6a"/><path d="M875.68 118.6a9 9 0 00-5.81 2.64 8.76 8.76 0 015.81-2.64zm-6.42 3.25v-.06z" fill="#f8d5b0"/><path d="M880.74 130a1.55 1.55 0 01.23.06z" fill="#3d2922"/><path d="M904 170.59q-.22.22-.45.42z" fill="#f8d5b0"/><path d="M890.34 184a21.22 21.22 0 008.76-.22 18.34 18.34 0 01-5.79.63 17.68 17.68 0 01-2.97-.41z" fill="#f7d1af"/><path d="M880.84 122l.54.06zm40.45-4.68s0 .01 0 0z" fill="#f8d5b0"/><path d="M882.64 148h.36z" fill="#ae978a"/><path d="M883.06 130.81a.24.24 0 01.11.06z" fill="#3d2922"/><path d="M858.1 255.27l.74-.13z" fill="#355b80"/><path d="M902.47 171.74a5 5 0 01-3.92-1.28l-.21-.23c-.36-.42-.7-.79-1-1.11l-.16-.15-.14-.13-.06-.06-.43-.36-.34-.25-.21-.17a5.85 5.85 0 00-.71-.41l-.14-.07a3.58 3.58 0 00-2.1-.34h-.14a3.62 3.62 0 00-2.38 1.2l-.1.08-.31.25c-.19.15-.38.32-.57.49l-.07.06-.14.13c-.5.44-1 .92-1.53 1.38a4.77 4.77 0 01-3.84.73 7.52 7.52 0 01-2.06-1.54c-1.51-1.79-3.8-4.93-5.27-6.89-.22-.32-.44-.6-.62-.84a5 5 0 01-.29-.45v-.05a4.4 4.4 0 01-.25-.58v-.08l-.12-.35a8.45 8.45 0 01-.21-1.07.07.07 0 010-.05.78.78 0 010-.16c0-.2 0-.41-.07-.62s0-.22 0-.33v-2.61a1.48 1.48 0 010-.21.13.13 0 000-.06v-.6a.15.15 0 000-.07.59.59 0 000-.13 2.91 2.91 0 010-.31v-.59a.25.25 0 000-.08c1.38 1 2.67 1.83 3.89 2.6l.19.12.13.08h.07l.08.05h.06l.1.06.09.05.17.1.23.14.08.05.13.08h.12c.32.2.63.38.93.55l.23.13q.4.24.81.45l.09.05.16.08c.48.26 1 .5 1.42.72a.31.31 0 00.1 0 .34.34 0 00.12.06c.31.16.62.3.92.42.51.23 1 .43 1.49.61h.14c.32.11.63.22.93.31h.06l.29.08.32.09.17.05c.37.1.74.18 1.1.25l.77.13a14.26 14.26 0 003.12.11 8.58 8.58 0 00.87-.1h.27l.58-.11a15.83 15.83 0 001.86-.47c.65-.2 1.3-.44 2-.72l.59-.26q.36-.15.72-.33l.18-.09.77-.38h.09l.71-.37.71-.38.08-.05.79-.45.15-.09.43-.25.08-.05.08-.05h.05l1-.58.13-.08h.07l.09-.06.28-.17.09-.05h.12l.19-.12.2-.13.12-.08c1-.64 2.08-1.33 3.2-2.07l.12-.08.18-.12.21-.13.1-.07 1.21-.8v.44a.28.28 0 000 .09 4.58 4.58 0 000 1.74 1.76 1.76 0 000 .23v1.28c0 1.27-.08 2.32-.13 3.21v1.82a6.4 6.4 0 01-.66 2.06v.06l-.07.1a7.73 7.73 0 01-1.35 1.4l-.16.13c-.51.41-1.13.84-1.88 1.35l-.52.36-.14.1-.38.26-.19.14-.11.09-.2.17-.09.09-.25.24a.3.3 0 00-.08.08l-.09.09-.17.18-.06.06-.12.13c-.47.51-.94 1.06-1.37 1.56l-.1.12-.07.07-.24.24-.45.42-.08.07h-.06l-.06.05a3.15 3.15 0 01-.29.22 3.81 3.81 0 01-.07.53z" fill="#f8d5b0"/><path d="M907.25 276.08c.39.89 20.66 10.58 20.66 10.58l18.48-6.19v-.28l.7-5.6c1.61-12.71 2.38-18.42 2.73-21.77l.06-.55.21-1.64v-1.19c.07-1.69 0-3.16 0-6.57l-40.84-3.09v1.58c-.08 4.29-.41 6.63-.2 8-.13 3.19-.32 6.22-.53 9v.14c-.36 3.88-.77 8.46-1 12a2.64 2.64 0 000 .29.86.86 0 000 .16v.44a23.56 23.56 0 00-.2 4.64.45.45 0 00-.07.05zm-13.94-56.84c4.64-14.41 1.26-10.5 13.94-17.82l.89.59c1.56 1.6 5.77 3.89 14.8 9.76l2.53 1.66V187.1c.67.4 10.57 4.47 20.6 8.8l1 .42c9.56 4.19 19 8.51 20.44 9.88a.73.73 0 01.19.24c.77 1.94 7.74 21.57 9.3 28.28s8.26 72.33 8.26 78.52-6.2 24.8-6.2 24.8l-28.93-3.61c-.12 1.15-.24 2.27-.36 3.37s-.22 2.07-.33 3.06c-.06.58-.12 1.14-.18 1.69-2.21 20.29-3.55 30-7.86 36.13l-.33.45a17.32 17.32 0 01-1.83 2.1 23.35 23.35 0 01-3.55 2.86c-.88.6-1.83 1.17-2.86 1.74-.17.09-.33.2-.5.31a11 11 0 00-4.33 8.58.68.68 0 000 .14l-.47.18-.15.06h-.09l-.57.19-1.39.4c-.79.22-1.92.51-3.58.95l-1.36.36-.6.16-.27.07h-.16l-1.3.34-.75.2-.19.05h-.13l-.73.19-.23.06h-.14l-8.34 2.18-.72.19-.52.14-1.08.28-.57.15-1.5.39h-.11l-2 .52c-.95-1.65-1.79-3-2.54-4.24v-.05a52.7 52.7 0 01-5-16.28v-.07c-.06-.78-.12-1.61-.17-2.5.66-17.57-.03-56.46-.03-159.54z" fill="#898687"/><path d="M910.59 129.76h-.09zm-36.85 5.67zm0 0z" fill="#f3f6f7"/><path d="M881 118.59h.92zm40.41-1.05c.05.1.1.19.14.29l-.18-.36a.25.25 0 00.04.07z" fill="#f8d5b0"/><path d="M893.25 380.27c-.58 12.51-2 13.75-5.1 21.85 4.34-18.66 4.63-23.67 5.1-21.85z" fill="#898687"/><path d="M898.27 147.72a5.27 5.27 0 01.56-.19l.18-.06h.25a8.87 8.87 0 012.47-.23l.69.05.5.06.32.05a8.41 8.41 0 011.56.5h.21l.33.14a13 13 0 002.34.68l.48.1h.37l.34.05h.1c.41.07.86.13 1.36.19l.56.07.63.07c2.81.29 2.42 1.74 3.19 2.91l-.3.09a20.19 20.19 0 01-3.25.53l-4 .08h-9.74c-5.65-.15-11.52-.43-16.07-.45-5.24-.31-6.33-.54-7.4.33l-.11.1-.12.11-.11.1a2.14 2.14 0 00.1-.22c0-.07.07-.15.1-.23a.14.14 0 010-.06c.08-.18.17-.37.26-.55v-.06c1.28-1.8 4-3.53 11.43-4.16a1.36 1.36 0 01.29 0h.26l1.64-.1c1.94-.1 2.52 1 4.36 1.84a3.07 3.07 0 00.34.14 3.76 3.76 0 00.68.17 3.37 3.37 0 002.18-.53l.1-.05.14-.08a.6.6 0 00.15-.09l.24-.14.12-.07.14-.08.11-.06.11-.07c.28-.16.57-.32.88-.47l.26-.13h.07l.23-.1h.12a.05.05 0 01.35-.18z" fill="#ae978a"/><path d="M924.2 144.32a1.1 1.1 0 010-.18 1.1 1.1 0 010 .18z" fill="#f8d5b0"/><path d="M873.71 178.35a31.42 31.42 0 001.48 8.48.94.94 0 010 .16v.16a.75.75 0 010 .16v.15c0 .05 0 .21.08.32 0 .23.12.46.18.7.11.43.23.89.34 1.38.06.23.11.47.17.71 0 .11.05.22.08.33s.09.42.14.64.14.67.22 1c.12.56.25 1.16.37 1.8l.09.46c.2 1 .4 2.08.61 3.28.06.37.13.76.2 1.16s.16 1 .24 1.48v.15c.06.39.12.8.19 1.21l-15 10.85v-25.15a11.13 11.13 0 011.32-4.25l8.13-10 .62-.76.22.24v5.12a2.17 2.17 0 00.32.22z" fill="#a6a2a3"/><path d="M976.08 698.11l-.15-.07z" fill="#515b64"/><path d="M927.76 130.32l-.08.15a1.09 1.09 0 01.08-.15z" fill="#2c1d1b"/><path d="M881 130h-.13z" fill="#f3f6f7"/><path d="M907.06 127.59h-.18zm1.59-.12h.28a9.56 9.56 0 011.3.14 5.23 5.23 0 01.54.12l.25.07.22.06h.07l.28.11a10.63 10.63 0 00-3.76-.5h.82z" fill="#3d2922"/><path d="M928.05 129.87a6.54 6.54 0 012.66-.23c3.35.6 1.94 5.84.22 13.65-.14.64-.29 1.29-.43 2-.38 1.84-4.51 5.6-4.51 5.6v-2.33c.09-2.27.06-4.52 0-6.61 0-1.23.09-2.47.17-3.68v-.11a2.79 2.79 0 000-.32.66.66 0 010-.14c0-.3.07-.65.11-1v-.07c0-.3.07-.62.11-1a.29.29 0 010-.09c0-.21 0-.42.08-.64s0-.33.07-.5a1.43 1.43 0 000-.22c0-.13 0-.27.07-.41.09-.5.19-1 .31-1.47v-.06c.08-.33.18-.64.28-.93l.1-.27a.42.42 0 000-.1l.07-.16.06-.12a1.17 1.17 0 010-.11l.08-.15.09-.15a2.49 2.49 0 01.46-.38z" fill="#f1bc9a"/><path d="M865.17 120.59s-.01.01 0 0z" fill="#2c1d1b"/><path d="M907.25 167.21l-.19.14z" fill="#ae978a"/><path d="M923.39 121.12c.1.16.19.33.3.49z" fill="#2c1d1b"/><path d="M906.77 127.63h.07-.18z" fill="#3d2922"/><path d="M979.88 699.37h-.06c-.45-.13-.91-.26-1.38-.41l-.86-.29-.62-.22-.27-.1-.57-.21-.17-.07-.19-.07-.65-.26A37.22 37.22 0 00985.3 700a21.82 21.82 0 01-4.78-.49h-.13z" fill="#515b64"/><path d="M906.45 130.52a2.74 2.74 0 012.68 0 2.83 2.83 0 00-2.68 0zm-27.65.15a.53.53 0 01.14.12z" fill="#39403f"/><path d="M874.32 151.75v.05z" fill="#ae978a"/><path d="M892.13 214c.11.48.21 1 .33 1.53l-.33-1.53z" fill="#3f6b93"/><path d="M882.64 148c-.41 0-.79.11-1.16.17.36-.05.75-.1 1.16-.17z" fill="#ae978a"/><path d="M942.48 687.07l-1.15-.3z" fill="#515b64"/><path d="M879.74 121.9c.34 0 .71.06 1.1.1z" fill="#f8d5b0"/><path d="M875.87 134.84a2.76 2.76 0 003.07-.25 2.43 2.43 0 01-1.7.62 2.51 2.51 0 01-1.37-.37zm-.18-.12l.09.06a.24.24 0 01-.09-.06z" fill="#39403f"/><path d="M916.74 124h-.31z" fill="#f8d5b0"/><path d="M908.54 258.48c-.35 4.82-.76 8.94-1 12 .23-3.54.64-8.12 1-12z" fill="#3f6b93"/><path d="M856.78 255.49l-1.62.23z" fill="#355b80"/><path d="M900.59 132l-.05.07a.15.15 0 01.05-.07z" fill="#f3f6f7"/><path d="M823.82 695.61c-2 .65-3.65 1.2-5.17 1.62 1.59-.47 3.38-1.07 5.59-1.8l-.36.15z" fill="#515b64"/><path d="M925.51 187.12c1.22.51 10.85 4.53 20.6 8.8-10.03-4.33-19.93-8.4-20.6-8.8z" fill="#355b80"/><path d="M915.8 251.64h.23z" fill="#3f6b93"/><path d="M903.54 171l-.08.07z" fill="#f8d5b0"/><path d="M874.67 135.53h.23l-.61-.06z" fill="#f3f6f7"/><path d="M939.24 381.25a22.87 22.87 0 01-3.55 2.86 23.35 23.35 0 003.55-2.86z" fill="#f4d0af"/><path d="M1000.13 698.34h.11a3.64 3.64 0 01-.14 1 1.11 1.11 0 00-.84-.82h.29c.3-.13.45-.09.58-.18z" fill="#515b64"/><path d="M999.44 698.45l.69-.11c-.11.09-.28 0-.58.1zm.11-.01h-.29.22zm-.22.03h-.11.11zm-.11.02c-1.76.32-3.34.6-4.77.83l.94-.21 3.45-.57h.26zm0 0zm-.01-.01h-.26L996 699a9.08 9.08 0 013.21-.52z" fill="#515b64"/><path d="M996 699l2.9-.44-3.45.57.55-.13zm-10.7 1a26.18 26.18 0 002.76.08 23.34 23.34 0 01-7.54-.57 21.82 21.82 0 004.78.49zm10.57 3c-3.27 1.26-8.08 1.75-13.39 1.28a49.33 49.33 0 0013.39-1.28zm-15.48-3.5l-.51-.13z" fill="#515b64"/><path d="M977.54 698.64l.86.29c-.28-.08-.57-.18-.86-.29z" fill="#4b5b6a"/><path d="M975.06 697.71l.65.26-.49-.18-.78-.3-.26-.11z" fill="#515b64"/><path d="M974.18 697.38l.26.11-.47-.19z" fill="#515b64"/><path d="M974.18 697.38l-.21-.08-.29-.11z" fill="#515b64"/><path d="M960.7 696.58a107.42 107.42 0 00-20.8-7.49c16.76 4.27 20.44 7.3 20.8 7.49z" fill="#4b5b6a"/><path d="M951.4 689.54c10.72 3.13 17.12 5.64 21.73 7.44-4.13-1.52-13.45-4.87-21.73-7.44z" fill="#515b64"/><path d="M951.77 662.31l-4.7 2.39-2.44 1.24-.73.37-.81.4c5.69-2.93 7.91-4.16 8.68-4.4z" fill="#facba1"/><path d="M950.13 250.63l-.21 1.64c.06-.61.11-1.13.14-1.61z" fill="#3f6b93"/><path d="M952.9 407c-2.09 2.37-4.15 2.13-7.68 1.7h-.31a12.75 12.75 0 007.99-1.7zm-5.83 257.7l-.89.46c-.48.25-1 .51-1.55.78z" fill="#425b73"/><path d="M940 254.15a21.87 21.87 0 01-3.12.44h.11a23.63 23.63 0 003.01-.44zm-3 .42h-.16zm-1 .06h.85z" fill="#3f6b93"/><path d="M936.14 686.18c0-.21.06-.44.09-.7-.03.29-.06.52-.09.7zm-.04.29v-.26c.03.1.01.19 0 .26z" fill="#515b64"/><path d="M936 254.63h.85a14.32 14.32 0 01-5.22-.08l-.84-.21a34.1 34.1 0 003.48.32c.54-.02 1.11-.02 1.73-.03z" fill="#3f6b93"/><path d="M936 687.59a.61.61 0 00.25.55c-.32-.14-.35-.26-.25-.55z" fill="#4b5b6a"/><path d="M934.22 254.62a34.1 34.1 0 01-3.48-.32h-.17a35.69 35.69 0 003.65.32z" fill="#3f6b93"/><path d="M930.93 143.29c1.72-7.81 3.13-13-.22-13.65 3.49.59 1.91 6.09.22 13.65z" fill="#f1bc9a"/><path d="M932.33 386.16c-2.38 1.7-4 5.69-4.33 8.58a11 11 0 014.33-8.58z" fill="#f4d0af"/><path d="M927.63 130.58l-.06.12a.34.34 0 01.06-.12zm-.06.12l-.07.16a.77.77 0 01.07-.16zm-.11.3l-.1.27a1.08 1.08 0 01.1-.27zm-.89 3.82c0 .22-.06.43-.08.64.02-.21.05-.46.08-.64zm-.21 1.76c0 .38-.08.73-.11 1 .03-.27.06-.58.11-1zm-.15 1.35v-.18a2.79 2.79 0 010 .32.61.61 0 000-.14z" fill="#2c1d1b"/><path d="M926 141.91c0 2.09.06 4.34 0 6.61v-5.78zm0-.05v.83V139v2.86zm0 6.66v-5.78zm-.06-10.4v-.09z" fill="#ae978a"/><path d="M926.7 395.35l-1.39.4z" fill="#425b73"/><path d="M925.56 133.47a.13.13 0 010 .06zm.01.06v.01l-.01-.01h.01z" fill="#ae978a"/><path d="M923 120.37l.4.69z" fill="#f8d5b0"/><path d="M921.62 163.86a22.74 22.74 0 002.92-5.56 16.26 16.26 0 01-2.75 5.35z" fill="#ae978a"/><path d="M922.16 119l.21.39a2.14 2.14 0 00-.21-.39zm0 0c.06.13.13.26.2.39l-.21-.39zm-.03-.1zm-.07-.12a.75.75 0 01.07.12zm-1.37-2.7l.24.52c-.23-.46-.44-.92-.64-1.36l.33.69a1 1 0 00.07.15z" fill="#f8d5b0"/><path d="M920.62 115.93l-.33-.69s-.13-.31-.2-.47c.16.36.34.76.53 1.16z" fill="#f8d5b0"/><path d="M919.7 85.54a7.21 7.21 0 01.11 2.56 10.5 10.5 0 00-.11-2.56z" fill="#2c1d1b"/><path d="M919.25 112.79c.09.21.17.42.26.64-.09-.21-.18-.43-.26-.64zm-1.08-3.01c.12.38.25.77.39 1.16-.15-.39-.28-.78-.39-1.16z" fill="#f8d5b0"/><path d="M917.31 106.81l.12.44z" fill="#2c1d1b"/><path d="M914.94 251.5l-.65-.11zm-.69-.11l.65.11c-2.57-.26-4.06-.34-4.89-.76 1.51.26 2.91.43 4.24.65z" fill="#3f6b93"/><path d="M917.49 169c-1.28 1.56-2.57 3.1-3.9 4.56 1.41-1.71 2.72-3.19 3.9-4.56z" fill="#ae978a"/><path d="M913.56 173.53v.07l-.31.33zm-.01.68v3.9c-.12-2.11-.25-3.47 0-3.9z" fill="#f7d1af"/><path d="M913.53 176.08v-.64c.01.22.01.43 0 .64zm-.04 1.16v-.52c.02.18.01.35 0 .52zm-.04.87v-.87.92zm0 .05z" fill="#f7d1af"/><path d="M913.45 178.28a35.17 35.17 0 01-.92 8.31 64.14 64.14 0 00.88-7.55v-.66s.04-.07.04-.1z" fill="#5682ab"/><path d="M912.82 154.79v-1.13 1.36a1.76 1.76 0 010-.23z" fill="#f8d5b0"/><path d="M912.73 98.83l-.21.2z" fill="#2c1d1b"/><path d="M912.52 99zm-.01 0zm-.04 62.35l-.06.49a5.3 5.3 0 01-.6 1.57 6.4 6.4 0 00.66-2.06z" fill="#f8d5b0"/><path d="M912.27 99.22l-.1.06a.34.34 0 00.1-.06z" fill="#2c1d1b"/><path d="M912.26 99.23a2.48 2.48 0 01-.26.19l.16-.13zm-.48 64.24a.61.61 0 01-.07.1z" fill="#f8d5b0"/><path d="M911.6 128a.17.17 0 01.11 0zm-.29-.1a1.45 1.45 0 01.29.11z" fill="#3d2922"/><path d="M911.09 99.92a6.49 6.49 0 00.59-.31 4.14 4.14 0 01-.59.31z" fill="#f8d5b0"/><path d="M911.35 153.79s0 .01 0 0z" fill="#9d574d"/><path d="M910.77 127.74a5.23 5.23 0 00-.54-.12 4.28 4.28 0 01.54.12z" fill="#f8d5b0"/><path d="M910.48 129.74h-.17z" fill="#f3f6f7"/><path d="M910.15 129.69h-.29z" fill="#3d2922"/><path d="M909.29 239.78V250a2.35 2.35 0 01-.21-.72c.11-2.56.18-5.23.2-8 .01-.42.01-.94.01-1.5z" fill="#3f6b93"/><path d="M909.28 241.36c0 2.73-.09 5.4-.2 8-.21-1.36.12-3.71.2-8z" fill="#3f6b93"/><path d="M908.82 197.32l-1.27 3.34c0 .07-.06.13-.08.19s0 0 0 .05c-.25-.9.4-1.9 1.35-3.58z" fill="#f7d1af"/><path d="M908 127.49h-.17a.21.21 0 00-.08 0z" fill="#3d2922"/><path d="M907.77 166.85l-.13.1z" fill="#f8d5b0"/><path d="M907.47 200.85a.14.14 0 010 .06s-.01-.04 0-.06zm-.02.06l-.1.25z" fill="#f7d1af"/><path d="M906.94 167.45l-.2.17zm-.22.19l-.1.09.09-.09zm-.35.36a.3.3 0 00-.08.08.3.3 0 01.08-.08zm-.08.05zm-.01.01l-.09.09z" fill="#ae978a"/><path d="M901.35 131.09zm-.01.02z" fill="#3d2922"/><path d="M910.41 100.21c-4.18 1.63-11.58 1.59-19.25 1.19 7.67.37 15.08.4 19.25-1.19zm-13.92 68.18l.43.36zm-3.43-1.17a3.58 3.58 0 012.1.34 3.8 3.8 0 00-2.06-.34z" fill="#f8d5b0"/><path d="M893.31 219.24c0 103.08.7 142 0 159.71-1.05-17.73 0-56.63 0-159.71z" fill="#3f6b93"/><path d="M891 101.39l-1.61-.08z" fill="#f8d5b0"/><path d="M889.58 207.07c1.23 1 1.61 2.44 2.27 5.58-.67-3.12-1.06-4.54-2.27-5.58zm-.06-.07l-.34-.26c.12.11.24.19.34.26z" fill="#3f6b93"/><path d="M887.76 170.84l-.07.07a3.25 3.25 0 01-3.77.66 4.77 4.77 0 003.84-.73zm-.24-69.65h-.74.29a3.4 3.4 0 00.45 0zm-.45-.03h-.43zm-.43-.02h-.73.29z" fill="#f8d5b0"/><path d="M886.24 147.67h-.26z" fill="#ae978a"/><path d="M886.2 101.11h-.43zm-.43-.02h-.44zm-.44-.03h-.43.1z" fill="#f8d5b0"/><path d="M885 101h-.14l-1.3-.08h-.85a121.25 121.25 0 00-13.13-.38A144.82 144.82 0 01885 101z" fill="#2c1d1b"/><path d="M884.89 401.29l-.52-.13zm-.52-.13l-.16-.05zm-.18-.05l.16.05-.39-.1z" fill="#3f6b93"/><path d="M883.92 171.57a4.57 4.57 0 01-.68-.18 5.66 5.66 0 01-1.38-1.36 7.52 7.52 0 002.06 1.54z" fill="#ae978a"/><path d="M883.63 131.18zm0 0zm-.31-.22v.01l-.01-.01h.01zm-.06-.04zm0 0z" fill="#3d2922"/><path d="M883.26 122.3l-.75-.1z" fill="#f8d5b0"/><path d="M880.89 203.26l1 .41z" fill="#3f6b93"/><path d="M881.44 277.21v-.58c-.02.21-.01.37 0 .58z" fill="#355b80"/><path d="M881.36 152.56h-1.06c-4.24-.23-5.41-.35-6.34.34 1.04-.9 2.16-.65 7.4-.34z" fill="#ae978a"/><path d="M881.08 400.32l-19.38-4.91-.28-.1c2.81.69 8.49 2.15 19.66 5.01z" fill="#3f6b93"/><path d="M876.58 163.13c1.47 2 3.76 5.1 5.27 6.89a70.15 70.15 0 01-5.27-6.89z" fill="#f8d5b0"/><path d="M879 134.55zm0 .01z" fill="#39403f"/><path d="M879.56 121.89a12.47 12.47 0 00-4.89.41 11.21 11.21 0 014.89-.41zm-4.37 31.81s-.01 0 0 0zm-.02.1v-.08a.25.25 0 010 .08zm-.04.27v.32a2.53 2.53 0 010-.32zm-.08.63a.59.59 0 010 .13s-.05-.09 0-.13zm-.05.17a.15.15 0 010 .07v-.07zm0 .56v.12a.49.49 0 010-.12zm0 .13a.13.13 0 010 .06.13.13 0 010-.06zm0 .27zm-.09.61v-.57q.02.27 0 .57zm-.02.7zm-.32-5.79a.83.83 0 00-.08.12.83.83 0 01.08-.12z" fill="#f8d5b0"/><path d="M874.26 151.88zm-.08.12z" fill="#ae978a"/><path d="M873.89 135.45h.27z" fill="#f3f6f7"/><path d="M873.85 153l-.12.11z" fill="#ae978a"/><path d="M872.8 173.49l-8.13 10c1.33-2.38 3.79-4.74 8.13-10z" fill="#5682ab"/><path d="M870.61 130.05a6.64 6.64 0 014-2.38 7.68 7.68 0 00-4 2.38zm-.75 1.24a5.17 5.17 0 012.37-1.1 4.27 4.27 0 00-2.55 1.53c.05-.14.1-.27.16-.4zm0 0z" fill="#3d2922"/><path d="M869.84 131.32c-.06.13-.11.26-.16.4a.57.57 0 010-.22 1.17 1.17 0 01.16-.18z" fill="#f3f6f7"/><path d="M869.26 121.85s-.01 0 0 0zm-.13.15zm-1.5-16.09c-.33 5.26-.41 8.28-.54 10.15.02-2.06.29-6.56.54-10.15zm-1.26 13.34a.21.21 0 010 .06.21.21 0 010-.06z" fill="#f8d5b0"/><path d="M865.43 83.75l-.57.49a6.68 6.68 0 01.57-.49z" fill="#2c1d1b"/><path d="M865.88 156.27c-1-.91-1.58-2.57-2-5.05a20.6 20.6 0 002 5.05z" fill="#f8d5b0"/><path d="M863.34 187.82v25.23c0-14.63-.51-21.17 0-25.23z" fill="#5682ab"/><path d="M863.3 147.09c-.36-3.61-.61-8.26-1-14.07.45 4.88.86 11.25 1 14.07z" fill="#f8d5b0"/><path d="M864.85 84.24c-3.55 3.16-4.76 7.65-8.64 8.79 3.85-1.16 5.07-5.64 8.64-8.79z" fill="#2c1d1b"/><path d="M861.72 127.42a59.62 59.62 0 00-.44 7.6c-.1-8.1.12-9.45.44-7.6z" fill="#ae978a"/><path d="M861.38 395.3l.28.1-1.24-.32.93.21z" fill="#425b73"/><path d="M861.28 136.33a82.26 82.26 0 01-.43 11.27c.39-3.36.43-9.07.43-11.27z" fill="#f1bc9a"/><path d="M860.73 687.09a1 1 0 010 .17 1 1 0 000-.17z" fill="#4b5b6a"/><path d="M860.69 686.33v-.26c0-.33-1.07-.27-2.8 0l2.77-.63s0 .44.03.89z" fill="#515b64"/><path d="M858.74 688.34l.76-.25z" fill="#4b5b6a"/><path d="M858.93 394.86a5.91 5.91 0 01-.13 1.12c.07-.6-.52-1.1.13-1.12z" fill="#f4d0af"/><path d="M856.12 116.73c1.68 7.5 1.07 9.06 1.08 10.46-.2-1.77.52-3.19-1.08-10.46z" fill="#2c1d1b"/><path d="M858.74 688.34c-3.44 1.13-8.8 2.88-10.77 3.41-5.22 1.38-7.73 2.68-9.56 3.93l.19-.14c3.57-2.7 7.98-3.3 20.14-7.2z" fill="#4b5b6a"/><path d="M853.84 687.06l-2.84.69z" fill="#515b64"/><path d="M839.19 256.85v-.41zm-.03-.41l-.09-1.16c.05.37.07.72.09 1.16z" fill="#355b80"/><path d="M839.11 255.29v-1.2c-.03.38-.02.78 0 1.2z" fill="#3f6b93"/><path d="M835.67 469.28c3.83 78.12 2.94 63.72-.18 186.8 2.16-88.8 1.45-148.14.18-186.8z" fill="#425b73"/><path d="M837.7 696.18c-2.78 2.06-4.43 4-14.14 6a33.75 33.75 0 01-3.64.39 41 41 0 0017.78-6.39z" fill="#4b5b6a"/><path d="M832.68 404.33c.39-.61 1.38 1.41 3.26 4.88-.94-1.53-1.81-2.36-3.26-4.88z" fill="#f4d0af"/><path d="M832.56 404.65c.28 6 .55 11.74.81 17.16-.69-10.61-1.12-15.73-.81-17.16z" fill="#425b73"/><path d="M824.24 695.43l1.07-.32c-.5.17-1 .33-1.43.47zM798 700.7c4.85 2.26 15.6 2.32 21.72 1.92-9.04 1.19-17.72 0-21.72-1.92zm3.7-3.08l-.43-.06zm-3.81-.62l-.92-.15a4 4 0 01.92.15zm-.89-.11z" fill="#515b64"/><path d="M796.82 700a7 7 0 00.92.55 2.53 2.53 0 01-.92-.55z" fill="#4b5b6a"/><path d="M796.82 700l-.18-.13v-.33a.84.84 0 00.18.46zm-.18-2.87v1.54a6.57 6.57 0 010-1.54z" fill="#515b64"/><path d="M909.13 118.55h.09m-4.46.03h.68m-2.25.06h.31m-.17 3.51h0m.41-.05h-.31m2.57-.22h-.08m4.55.3a10.74 10.74 0 00-3.68-.34m9.95 2.16h-.31m30.63 127.91l.5-.2m-31.76-.07h.23m-56.6-119.31s0 0 0 0m7.14-13.4v.07s0 0 0 0m.02-.11h0m.13-.3v.09m.06-.26l-.01.01m54.49-1.18q-.13-.24-.24-.48m.29.58s0 0 0 0m3.02 5.3l-.01-.01m1.13 9.24s0 0 0 0m.59 6.9l-.01-.01m1.05-6.61v.06m-13.38 20.31l.06-.02m-38.09 9.33a3.46 3.46 0 00.29.45m-.32-.51h0m-.28-.66v.08m-.12-.44a3.59 3.59 0 00.12.35m-.36-1.47a.11.11 0 000 .05m-.07-.83c0 .21 0 .41.07.62m-.11-1.28v.33m-.01-.87v.36m-12.61-25.68a.41.41 0 000 .11m62.45 53.79l.75.85m-2.08-65.97l.3.49m-1.54-2.66h.01m-18.02 16.25h0m-.05-.01h0m-3.47-3.19h0l-.05.07c-.83 1.38.88 2.47 3.41 3.09h.08m-3.4-3.26h0m.09-.11h0m.06-.07s0 0 0 0M880 118.55h-.19m.34.01H880m34 12.3h0m-.14-.07l.13.07m-3.49-1.12h.09m-.27-.03h.16m-3.74-.1h.2m-4.76 1.11h0m-.18.08h0m-4.22 17.13h.07m-1.59.83h0m-22.09 3.27v-.01m-.27.57h0m-.04.09l.01-.01m-.04.07h0m-.11.26h0M911 127.81l.22.06m-9.96 3.36h0s0 0 0 0 0 0 0 0m5-1.58h0m3.6.01h-.06m.52.05h-.01m-.53 48.1c.11-.1.21-.19.31-.3m-31.48.57a4 4 0 00.32.28m-2.65-2.57l.56.6.34.35m34.16-22.94s0 0 0 0m-3.62 2.35l.12-.08m-.58.37l.19-.12m-.35.22h.12m-.22.06h0m-.37.23l.09-.06m-.29.23l.13-.08m-1.1.62h0m-.02.01h0m-.1.06l.08-.05m-16.17 3.72l.17.05m-.78-.22l.29.08m-4.06-1.6a.31.31 0 00.1 0m-1.53-.73l.01.01m-2.33-1.33h0m-.05-.03h0m-.22-.13l.13.08h.07m-.3-.14l.08.05m-.32-.2l.01.01m-.19-.12h0m-.1-.06h0m-.16-.1h0m-.07-.07s0 0 0 0h.06m-.15-.03s0 0 0 0m-.12-.08h0m-.15-.09h0l.08.05m-.18-.11h0m-.17-.11h0m-.2-.13h0m-.09-.06h0m27.1-25.56l.01-.01.01-.01m3.2.02h0m-2.59 22.22h.36m-2.08.07h.53m-2.45 0h.57m-2.28 0h.48m-9.42 0h.56m-11.3 2.2l-.01-.01m.23.23l-.07-.06m1.44 1.09h0m.21.14h0m.77.48h0m.86.47h0m1.39.62s0 0 0 0m15.08-.78h-.09l-.11.05m.88-.37h0m-17.47 244.23l-.52-.13m-2.97-124.99a.49.49 0 000-.12m2.6-144.51s0 0 0 0m0-.04s0 0 0 0m-.09-.07a.17.17 0 01.06.06m-.15-.15h0m-.22-.18s0 0 0 0m-.27-.16s0 0 0 0a.05.05 0 010 0h0a.18.18 0 01.07.05l.1.07m-.24-.2l.01.01m-2.16-.88a6.9 6.9 0 011.9.73.05.05 0 010 0 .24.24 0 01.11.06s0 0 0 0m-10.71-.7h.07m-2.74 3.91h0m.1.08h0m.93.55l-.11-.05m.56.23l-.01-.01m.12.05h0m.18.1l-.16-.06m2.54.51h-.09m-.44-5.53h-.12m.17-.01h0m9.78.98h0m.24.16s0 0 0 0h0m.39.29h0m-4.82 3.21h0m.15-.17h0m-.39-3.74h0m-3.44 56.69v0m-.05-.18v0" fill="none" stroke="#000" stroke-linecap="round" stroke-linejoin="round" stroke-width=".92"/><path d="M796.93 696.9h0c-.46-.24-.25-.8-.25-2.81 37-28.56 38-26.37 38.75-33.9 6.4-2 8.08-.13 9.2 2.36l15 3.84c0 .65.75 13.79 1 19.11m-61.3 11.78l-.5-.08m3.02.44h-.15m12.82.5c-3.15.45-6.47.32-11.95-.4m12.18.36h-.14m165.21 1.25h.06m-.63-.15l.53.14m-4.56-1.55c.23.09.44.18.66.25l.18.07c1 .39 1.9.71 2.79 1" fill="none" stroke="#000" stroke-linecap="round" stroke-linejoin="round" stroke-width=".31"/><path d="M1000.13 698.34h.11a3.64 3.64 0 01-.14 1c-.45 1.54-2 2.78-4.2 3.66h0c-3.27 1.26-8.08 1.75-13.39 1.28a47.84 47.84 0 01-12.81-2.94 39.36 39.36 0 01-8.91-4.7h0c-.36-.19-4-3.22-20.8-7.49h-.28a18.85 18.85 0 01-3.39-.87h0a.61.61 0 01-.25-.55.41.41 0 010-.11 7 7 0 01.13-1" fill="none" stroke="#000" stroke-linecap="round" stroke-linejoin="round" stroke-width=".31"/><path d="M975.9 698h0l-.17-.07-.49-.18-.78-.3-.47-.19-.29-.11-.16-.06-.39-.15c-4.61-1.8-11-4.31-21.73-7.44h0c-2.45-.72-5.13-1.46-8.06-2.24l-.81-.22-1.15-.3h-.06l-.49-.13h-.13l-1.23-.32-1.41-.36-1.78-.44c0 .29-.06.52-.09.7v.26h0c-.44 2.14.79-20.16 3.51-18l4.3-2.19c.25-.12.5-.24.73-.37.56-.27 1.07-.53 1.55-.78 6-3 6-3 6-3.06.6-3.49 8.6-3.54 9.69-1.35 4.81 9.59 30.29 27.7 38.36 33.12 0 3.48.11 4.27-.11 4.47s-.28 0-.58.1h-.33 0-.26l-3.45.57h0c-2 .32-4.27.68-4.92.76-.87.1-1.68.18-2.44.23h0a23.34 23.34 0 01-7.54-.57h-.13l-.51-.13h-.06 0c-.45-.13-.91-.26-1.38-.41l-.86-.29-.62-.22-.27-.1m-.81-.12h0l-.15-.07m-118.06-11.93l2.77-.63s0 .4.05.85v.76a1 1 0 010 .17v.42l-1.26.41-.76.25c-12.16 3.9-16.57 4.5-20.14 7.2l-.19.14-.71.5a41 41 0 01-17.78 6.42h-.19c-9.05 1.19-17.69 0-21.72-1.92l-.27-.13a7 7 0 01-.92-.55l-.18-.13v-.33a.06.06 0 000 0v-.85a6.57 6.57 0 010-1.54.27.27 0 01.29-.23h0a4 4 0 01.92.15l.68.11.26.05.5.08h0l.46.07.64.09h.08l.72.11.43.06h.11l.72.1c5.66.77 8.82.91 11.95.4h.46c5.73-1 11.74-4.23 33.1-9.59l.2-.05 2.46-.61.26-.06 2.84-.69 4-.95" fill="none" stroke="#000" stroke-linecap="round" stroke-linejoin="round" stroke-width=".31"/><path fill="none" stroke="#000" stroke-linecap="round" stroke-linejoin="round" stroke-width=".92" d="M952.19 662.1l-.41.21m-92.19 4.06s8.92-66.38 10.47-79.3-1-33.58.51-40.81 19.88-106.08 19.88-106.08 8-5.25 9.06 0l21.17 107.63c0 45.84.14 38.23 18.92 120.69m-104.21-8.33c0-1.38.07-2.74.1-4.09 3.12-123.08 4-108.68.18-186.8v-.5c-.63-12.76-1.38-28-2.26-46.63a1.88 1.88 0 010-.34c-.26-5.42-.53-11.13-.81-17.16a.57.57 0 010-.13m129.28 256.23c-7.64-141.52-6.07-83.14-6.07-258.61M808.06 339.1s-5.68-21.19-4.65-40.3 10.85-90.4 12.92-92c7.88-6 42.16-19.69 47-21.7V213l15-10.85 1.13.48 1.43.58 1 .41c1 .39 1.84.72 2.61 1l1.83.71h0l.91.37h.05l.5.23a10.6 10.6 0 011.33.73c.12.09.24.17.34.26h.06c1.23 1 1.61 2.44 2.27 5.58 0 .16.07.33.11.5s.11.54.17.83c.11.48.21 1 .33 1.53.24 1.1.51 2.33.85 3.73m.37 168.42c-.68 4.26-3.34 9.95-5.47 14.61l-1-.26h-.22l-.8-.2-.26-.07-1-.24-.52-.13h0l-.16-.05-.23-.05h-.05 0l-2.37-.61-.42-.11-19.38-4.91h0l-1.24-.32h-.14l-1.35-.34h-.18m-31.65-177.65c10.59 34.38 9.1 102.33 9.3 117.79m88.99-147.88h0c.67.4 10.57 4.47 20.6 8.8l1 .42c9.57 4.13 19 8.41 20.44 9.88a.73.73 0 01.19.24c.77 1.94 7.74 21.57 9.3 28.28s8.26 72.33 8.26 78.52-6.2 24.8-6.2 24.8"/><path d="M928 394.89l-.47.18-.15.06h-.09l-.57.19-1.39.4c-.79.22-1.92.51-3.58.95l-1.36.36-.6.16-.27.07h-.16l-1.3.34-.75.2-.19.05h-.13l-.73.19-.23.06h-.14l-8.34 2.18-.72.19-.52.14-1.08.28-.57.15-1.5.39h-.11l-2 .52h0c-.95-1.65-1.79-3-2.54-4.24v-.05c-2.78-4.57-4.24-7.35-5-16.28v-.07c-.06-.78-.12-1.61-.17-2.5-1-17.73 0-56.63 0-159.71 4.64-14.41 1.26-10.5 13.94-17.82l.89.59 14.8 9.76 2.53 1.66V187.1m24.63 147.35c0-18.56 1.86-96.07 8.27-112.1m-93.74-38.82l-1.32 1.62m14.99 17.05c-.07-.41-.13-.82-.19-1.21v-.15c-.08-.51-.16-1-.24-1.48s-.14-.78-.2-1.16c-.21-1.2-.41-2.29-.61-3.28l-.09-.46c-.12-.64-.25-1.24-.37-1.8-.07-.35-.15-.69-.22-1s-.1-.43-.14-.64 0-.22-.08-.33a.06.06 0 000 0c-.06-.24-.11-.48-.17-.71-.11-.49-.23-.95-.34-1.38l-.18-.7v0c0-.1-.05-.21-.08-.32s0-.1 0-.15v0a.75.75 0 000-.16v0a.94.94 0 000-.16.94.94 0 000-.16 32.52 32.52 0 01-1.48-8.48 2.35 2.35 0 000-.26v-5.63l-.22.27-.62.76-8.13 10" fill="none" stroke="#000" stroke-linecap="round" stroke-linejoin="round" stroke-width=".92"/><path d="M908.82 197.32l-1.27 3.34c0 .07-.06.13-.08.19s0 0 0 .05h0l-.1.25c-.07.17-.1.26-.1.26m6.9-27.18c-.32-.22-.51-.22-.62 0-.25.43-.12 1.81-.1 3.9v.17a35.17 35.17 0 01-.92 8.31.11.11 0 000 0 34.53 34.53 0 01-1 3.35c-.11.32-.23.63-.34.95a.56.56 0 000 .12c-.82 2.26-1.64 4.46-2.31 6.25m16.59-10.19l-.75-.85c-6.59-7.54-9.38-11.18-10.53-12m-61.33 230.33l-.23.26c-1.07 1.22-3.76 2.39-6.63 3.35l-.27.09c-2.94 1-6 1.71-7.7 2.1l-1.29.28c-.27-.54-.52-1-.77-1.39v-.05c-.94-1.53-1.81-2.36-3.26-4.88-3.15-5.5-9.09-19-24.62-65.23 10.55-4.1 21.68-5.09 28.42-4.13l.06.5c4.81 44.21 7.83 44.32 13.56 47.63a21.76 21.76 0 012.8 1.88l.84.72.43.41a25 25 0 012.31 2.59 12.54 12.54 0 011.64 2.59 7.88 7.88 0 01.76 2.56 6.29 6.29 0 010 .86v.15a5.91 5.91 0 01-.13 1.12 9 9 0 01-1.43 3.37l-.17.24s0 0 0 0a26.85 26.85 0 01-3 3.54l-.34.36-.25.27c-.25.24-.49.55-.73.81zm75.14-9.83a11 11 0 014.33-8.58c.17-.11.33-.22.5-.31 1-.57 2-1.14 2.86-1.74a23.35 23.35 0 003.55-2.86 17.32 17.32 0 001.83-2.1q.18-.22.33-.45c4.5-6.32 5.72-16.08 7.86-36.13.06-.55.12-1.11.18-1.69.11-1 .22-2 .33-3.06s.24-2.22.36-3.37l28.93 3.61c-13.72 37.8-19.38 55.75-23.25 64.07h0a20.64 20.64 0 01-2.91 4.87c-2.09 2.37-4.15 2.13-7.68 1.7h-.31a33.73 33.73 0 01-6.71-1.51c-4.09-1.42-6.75-3.51-8.31-5.84a10.9 10.9 0 01-1.89-6.57m-.21-264.52l.09-.15a2.49 2.49 0 01.17-.24c.9-1.16.9-9.85 1.68-12.61 3.72-13.3 3.15-24.49-10-28.85a2.67 2.67 0 000-.31 10.5 10.5 0 00-.11-2.56 7.19 7.19 0 00-3-5 18.25 18.25 0 00-4-1.83A62.85 62.85 0 00901 76.09h-.44a20.87 20.87 0 00-3-.16h-.32c-3.88.25-22 5-24.16 5.16a13.37 13.37 0 00-7.72 2.7l-.57.49m60.43 44.55c.08 1.12.16 2.13.22 3v0c0 .39 0 .77.08 1.12v.53h0v.56c.14 1.85.23 3.08.31 3.81a.76.76 0 000 .15v.09a1.5 1.5 0 010 .2.06.06 0 010 0 2.34 2.34 0 00.06.36h0s0 0 0 0a3.77 3.77 0 00.1-.63v-.11a.61.61 0 000-.14v-.18a.66.66 0 010-.14c0-.3.06-.65.11-1v-.07c0-.31.07-.63.11-1a.29.29 0 010-.09c0-.21 0-.43.08-.64s0-.33.07-.5 0-.15 0-.22 0-.27.07-.41c.09-.5.19-1 .31-1.47v-.06c.08-.33.18-.64.28-.93l.1-.27a.42.42 0 000-.1l.07-.16.06-.12a1.17 1.17 0 010-.11l.08-.15h0" fill="none" stroke="#000" stroke-linecap="round" stroke-linejoin="round" stroke-width=".92"/><path d="M924.32 122.64h0l.49.77v.74c.13 1.71.25 3.24.35 4.6m-10.24-32.28l.1-.09c.46-.41.71-.49.86-.27v.07c.38.79 0 4 1.1 9.31q.13.65.3 1.32l.12.44c.2.8.45 1.65.74 2.53.11.38.24.77.39 1.16.2.6.43 1.22.69 1.85.08.21.17.43.26.64s.15.38.24.57.16.37.24.56l.08.18c.07.16.14.31.2.47s0 0 0 0l.33.69a1 1 0 00.07.15l.24.52.09.17.24.48v.07h0l.06.12a.25.25 0 000 .07c.05.1.1.19.14.29h0v0c.12.21.23.43.35.65a.08.08 0 010 0l.13.23.06.12h0l.21.39h0l.1.18.14.25.26.45s0 .1.08.14l.4.69v.06c.1.16.19.33.3.49s.26.44.41.67m-10.1-24.38l.06-.06h0s0 0 0 0l.15-.16.22-.25a.17.17 0 00.06-.06l.32-.34.17-.17.16-.16m-1.22 1.3l.08-.09M863.9 122l.11-.13c.38-.45.71-.81 1-1.11l.12-.12s0 0 0 0l.14-.15.14-.14a.8.8 0 01.13-.13c.29-.31.52-.55.71-.8h0a.21.21 0 000-.06c0-.07.1-.14.14-.21s0 0 0 0v-.07h0l.09-.21a.36.36 0 000-.09 1 1 0 010-.16h0a1.46 1.46 0 01.05-.2v-.1a13.62 13.62 0 00.24-2v-.06c.13-1.87.21-4.89.54-10.15 0-.4 0-.82.08-1.24s0-.61.06-.93c0-.49.07-1 .11-1.53v-.47c0-.34.05-.7.08-1.06l.43-.05h1.17A144.82 144.82 0 01885 101h2.48q.94.07 1.89.12l1.61.08h.14c7.67.4 15.07.44 19.25-1.19a.16.16 0 00.09 0 6.21 6.21 0 00.59-.26 4.14 4.14 0 00.59-.31 3.37 3.37 0 00.32-.19l.16-.13a.34.34 0 00.11-.07 2 2 0 00.23-.18h0l.21-.2.1-.1.11-.11.56-.63.1-.11m-52.26 37.71h0V135a59.62 59.62 0 01.44-7.6c0-.34.09-.66.15-1l.06-.34a7.52 7.52 0 011-3c.26-.34.5-.64.72-.91l.07-.08.15-.17" fill="none" stroke="#000" stroke-linecap="round" stroke-linejoin="round" stroke-width=".92"/><path d="M861 134.9l.08.13a4.11 4.11 0 00.24.39m-1.13-1.79h0c0 .06.07.12.1.19h0s.05.08.07.13m-.36-.73h0m4.85-48.98c-3.55 3.16-4.76 7.65-8.64 8.79a6.79 6.79 0 01-2 .29s1.79 1.68 3.32 1.43 2.58 1.28.38 3-4.25 8.91-2.31 16.79c.17.71.33 1.37.47 2a2 2 0 010 .24c1.68 7.5 1.07 9.06 1.08 10.46v0c0 1 .39 2 2.22 5.09 0 0 0 0 0 0a.6.6 0 00.09.15h0v.08a.25.25 0 000 .07l.08.13a2.25 2.25 0 00.12.21s0 0 0 0 0 0 0 0h0a.75.75 0 00.07.12h0m-3.22-4.8l-.18-.1c-2.24-1.13-2.65 1.94-2.34 5.64v.4c0 .14.05.53.09.8a3.05 3.05 0 000 .41 41.83 41.83 0 001.22 6c0 .17.09.33.14.48a1.42 1.42 0 00.07.22l.12.37c2 5.48 3.28 7.72 4.13 7.49.43-.12.75-.88 1-2.19v-.23a82.26 82.26 0 00.43-11.27v-.9m-3.91-6.57l-.31-.24h0l-.17-.12-.17-.11-.07-.05M926 138.78v12.07s4.13-3.76 4.51-5.6c.14-.67.29-1.32.43-2 1.72-7.81 3.13-13-.22-13.65a6.54 6.54 0 00-2.66.23m-24.87-11.19l-1.94.06-.77 3.87.7-.11.82-.13 1.29-.17h.45l.51-.06h2.54a12 12 0 013.68.34l.35.11c.39.14.73.29 1.08.45.51.22 1 .46 1.69.68a2.91 2.91 0 01.39.12l.36.09c.33.08.68.16 1.09.23s.64.09 1 .13h.31l1.37.1c-.26-.34-.5-.67-.75-1s-.27-.35-.42-.51 0 0 0 0h0s0 0 0 0-.26-.31-.39-.45a2.16 2.16 0 00-.25-.27.1.1 0 000 0q-.15-.17-.3-.3a8.92 8.92 0 00-6.32-3h-.47c-1.08-.07-2.29 0-3.69 0h-1.92zm-21.28-.02l2.32.08.79 3.87-.57-.09-.51-.08h-.12l-.56-.08-.75-.1-.8-.1h-.33l-.54-.06-1.1-.1h-.18a12.47 12.47 0 00-4.89.41l-.27.1-.16.06-.27.11a15.1 15.1 0 01-3.91 1.29c-.45.07-.95.14-1.52.19h-1.15c.53-.71 1-1.34 1.51-1.89h0l.19-.21h0l.11-.12s0 0 0 0v-.06a3.18 3.18 0 01.26-.26 2.69 2.69 0 01.3-.29 8.76 8.76 0 015.81-2.64h.59a.08.08 0 01.07 0h4.65zm28.68 11.14a11 11 0 013.27 1l.13.07h0a6.48 6.48 0 011.45 1.07m-4.96-2.16h0m-.62-.08h.43m-3.35-.07h.84a14.8 14.8 0 012 .08h0m-3.52-.02h.48m-4.55 1.06a11.49 11.49 0 013.41-1h.17l.46-.05m-4.23 1.13l.15-.07m-.94.61l.28-.22h.14l.29-.16" fill="none" stroke="#000" stroke-linecap="round" stroke-linejoin="round" stroke-width=".92"/><path d="M915.48 132a3.79 3.79 0 01.18.34s0 0 0 0c.5 1.2-.37 2-1.91 2.58a1 1 0 01-.16.06h-.05a21.51 21.51 0 01-8.73.35.51.51 0 00-.17 0l-.49-.1h0-.08s0 0 0 0c-2.63-.55-4.39-1.61-3.41-3.09a.15.15 0 01.05-.07.05.05 0 010 0s0 0 0 0h0l.08-.1h0a4.75 4.75 0 01.39-.38" fill="none" stroke="#000" stroke-linecap="round" stroke-linejoin="round" stroke-width=".92"/><path d="M909.67 131h0a.07.07 0 010 .05 2.65 2.65 0 01.12 3.12l-.05.07a.21.21 0 01-.06.08v.06a.71.71 0 01-.12.13l-.05.05-.19.15m.08-4h0m-3.24.01h.05s0 0 0 0m-.14.08l.01-.01m.23 3.97h-.08 0l-.17-.13h0v-.05l-.11-.12h0a2.64 2.64 0 010-3.41s0 0 0 0 0 0 0 0 0 0 0 0a.17.17 0 01.06-.06m-4.8.34h0" fill="none" stroke="#000" stroke-linecap="round" stroke-linejoin="round" stroke-width=".92"/><path d="M915.48 132h0v-.05h0v0a7.25 7.25 0 00-3.66-3.78h-.17 0l-.28-.11h-.07l-.22-.06-.25-.07a4.28 4.28 0 00-.54-.12 7.5 7.5 0 00-1.3-.14h-1.16a.21.21 0 00-.08 0h-1.05c-.29.06-.57.12-.84.2a8.13 8.13 0 00-4.48 3.19h0a.08.08 0 010 0s0 0 0 0h0v0a.05.05 0 000 0s0 0 0 0h0m-31.72.7h0m10.63-1.88h-.39l-.43-.06c-.33-.05-.67-.08-1-.1a19.44 19.44 0 00-4.26.13c-.27 0-.54.08-.79.13h0-.12 0a7.18 7.18 0 00-.7.16h0-.07l-.18.05a4.27 4.27 0 00-2.55 1.53m10.55-1.83h0m3.74 1.71h-.05 0s0 0 0 0h0a.17.17 0 00-.06-.06h0s0 0 0 0h0a.69.69 0 00-.13-.11h0s0 0 0 0h0l-.1-.07h-.06c-.06 0 0 0 0 0h0l-.1-.06h0a8.06 8.06 0 00-1.51-.61h-.2l-.23-.06h-.13l-.25-.06h-.33m3.29 1.21h0a.05.05 0 000 0h0s0-.05-.06-.08m.46.81s0 0 0 0v-.23a2.49 2.49 0 00-.2-.34h0s0 0 0 0m-.81 2.36c.78-.46 1.19-1 1-1.72v-.06m-9.72 3.03h.1c3.14.21 6.74-.21 8.54-1.21m-14.06-2.29a1.44 1.44 0 00.25 2s0 0 0 0l.08.07h0a3.66 3.66 0 00.58.39l.23.11h0l.11.05a3.34 3.34 0 00.44.17h.09l.16.06.58.16c.25.06.51.12.79.17l.27.05h1.52m-4.97-3.44l-.01.01" fill="none" stroke="#000" stroke-linecap="round" stroke-linejoin="round" stroke-width=".92"/><path d="M875.53 130.79h0a.08.08 0 000 .05s0 0 0 0a.12.12 0 00-.07.07s0 0 0 0 0 0 0 0h0a.13.13 0 00-.06.07 2.67 2.67 0 00-.07 3.15s0 0 0 0 0 0 0 0 0 0 0 0 0 0 0 0a.13.13 0 00.05.06l.17.18.18.14m-.05-3.85l-.01.01m3.65.55h0m.01 2.91h0a.23.23 0 000-.07.3.3 0 00.06-.11.31.31 0 000-.1 2.6 2.6 0 00.25-1.15 2.51 2.51 0 00-.24-1.13.71.71 0 00-.11-.21s0 0 0 0 0 0 0 0a.05.05 0 000 0m-.1 2.97l.09-.12a.18.18 0 00.05-.07m-.18.24h0m-.15.17l.14-.15m4.52-3.47h0c.1.15.19.31.28.47h0m-6.11-3.82a8.71 8.71 0 015.73 3.22h0v.06m-5.99-3.32h.14m-1.82-.05h.48m-.8.02h.25m-5.21 2.54a6.64 6.64 0 014-2.38h.13c.21 0 .42-.08.64-.1h.08m-5.61 3.74v0a5.65 5.65 0 01.54-1h0m-.71 1.41c.05-.14.1-.27.16-.4M926 150.85a27.56 27.56 0 01-1.45 7.45 22.74 22.74 0 01-2.92 5.56h0c-1.13 1.61-2.48 3.23-4.07 5.07h0c-1.18 1.36-2.49 2.84-3.93 4.52l-.31.41a.08.08 0 010 0 .22.22 0 01-.05.08h0l-.06.08-.07.09-.14.18v.05c-.64.8-1.29 1.55-2 2.25-.26.27-.51.53-.78.78h0l-.31.3-.63.57c-.36.32-.73.62-1.1.92a2.92 2.92 0 01-.28.21c-.45.36-.92.69-1.38 1l-.73.47c-.4.25-.81.49-1.22.71l-.73.37c-.38.19-.76.37-1.14.53a22.24 22.24 0 01-3.43 1.14h0a21.22 21.22 0 01-8.76.22h-.16a24.4 24.4 0 01-11.25-5.57c-.11-.09-.22-.18-.32-.28-.49-.42-1-.87-1.43-1.34l-.34-.35-.56-.6c-.25-.27-.49-.55-.73-.84a30.28 30.28 0 01-1.91-2.49c-2.19-2.55-3.91-4.48-5.34-6.19-3.63-4.36-5.41-7.36-8.23-15.62-.08-.21-.15-.42-.22-.63m5.86 6.37c-1-.91-1.58-2.57-2-5.05-.21-1.15-.39-2.49-.54-4v-.08 0c-.36-3.61-.61-8.26-1-14.07 0 0 0 0 0 0a.17.17 0 010-.07v-.09a.76.76 0 010-.15 1.64 1.64 0 010-.23v-.11 0c-.12-1.84-.25-3.78-.4-5.85" fill="none" stroke="#000" stroke-linecap="round" stroke-linejoin="round" stroke-width=".92"/><path d="M873.61 153.21c-.15.31-.31.61-.47.91a.08.08 0 010 0 5.26 5.26 0 01-2.06 2.41l-.23.09c-2.27.76-3.83.68-4.94-.38m7.96-3.57h0s0 0 0 0 0 0 0 0l-.1.23h0a2.14 2.14 0 01-.1.22m.23-.52h0m18.68-3.05a3.07 3.07 0 01-.34-.14c-1.84-.88-2.42-1.94-4.36-1.84l-1.64.1h-.26a1.36 1.36 0 00-.29 0 3.59 3.59 0 00-.47 0h-.54L883 148l-.38.05c-.41 0-.79.11-1.16.17h-.25c-3.83.65-5.47 1.64-6.38 2.74l-.15.19-.13.19a.83.83 0 00-.08.12c0 .08-.1.15-.14.23v.1s0 0 0 0 0 0 0 0h0s0 0 0 0a.08.08 0 000 0v.06h0c-.09.18-.18.37-.26.55h0m22.07-3.57l-.24.14-.15.09-.14.08h0l-.1.05a3.52 3.52 0 01-2.18.53 3.76 3.76 0 01-.68-.17m4.87-1.49c-.31.15-.6.31-.88.47l-.11.07-.11.06h0l-.14.08m1.88-.98h-.06m27.12-19v.99c-.05 1.63-.21 4.77-.48 8.38a1.27 1.27 0 010 .2v.61c-.13 1.65-.27 3.39-.44 5.11v0a1.1 1.1 0 000 .18c-.35 3.47-.78 6.85-1.3 9.34q-.1.5-.21.93c0 .15-.07.29-.11.43v.11a.06.06 0 010 0 .24.24 0 010 .08 1.55 1.55 0 01-.07.23c-.05.19-.11.37-.17.54h0a.16.16 0 010 .09 4.17 4.17 0 01-.24.6s0 0 0 0a3.88 3.88 0 01-.29.52 1 1 0 01-.15.19.49.49 0 01-.15.14.27.27 0 01-.1.06h-.07 0-.1c-3 .09-5.62-4.36-6.39-5.52s-.38-2.62-3.19-2.91l-.63-.07-.56-.07c-.5-.06-1-.12-1.36-.19h-.1l-.34-.05h-.37l-.48-.1a13 13 0 01-2.34-.68l-.33-.14h-.21a6.09 6.09 0 00-1.56-.5l-.32-.05a3.61 3.61 0 00-.5-.06l-.69-.05a8.87 8.87 0 00-2.47.23h-.25l-.18.06a5.27 5.27 0 00-.56.19m-23.32 6.09l-1.33-.39-.25-.07m1.39 2.34a.49.49 0 010-.12.31.31 0 010-.1v-.38h0v-.2a2.91 2.91 0 010-.31 2.53 2.53 0 010-.32v-.35c0-.02 0 0 0 0v0m6.85 16.23c-1.51-1.79-3.8-4.93-5.27-6.89-.22-.32-.44-.6-.62-.84a5 5 0 01-.29-.45v-.05h0a4.4 4.4 0 01-.25-.58v-.08h0l-.12-.35a8.45 8.45 0 01-.21-1.07.07.07 0 010-.05.78.78 0 010-.16c0-.2 0-.41-.07-.62s0-.22 0-.33v-1.38h0v-1.27a.08.08 0 010 0 1.48 1.48 0 010-.21.13.13 0 010-.06m12.74 15.23a4.77 4.77 0 01-3.84.73 4.57 4.57 0 01-.68-.18 5.66 5.66 0 01-1.38-1.36m22.37.32c-.68.77-1.26 1.37-1.63 1.39h-.13a5 5 0 01-3.92-1.28 28 28 0 00-2.41-2.32h0a5.54 5.54 0 00-3-.9h-.18a3.62 3.62 0 00-2.38 1.2l-.1.08a21.24 21.24 0 01-2.67 2.35" fill="none" stroke="#000" stroke-linecap="round" stroke-linejoin="round" stroke-width=".92"/><path d="M914.71 152.22l-.3.09-.26.08-.25.08h-.13 0-.06l-.18.06c-.36.13-.56.25-.66.46a4.58 4.58 0 000 1.74 1.76 1.76 0 000 .23v0a32.48 32.48 0 01-.1 3.84v0c0 .2 0 .41-.06.62a2.19 2.19 0 010 .36v1.46l-.06.49v.15a3.46 3.46 0 01-.61 1.48.61.61 0 01-.07.1h0a7.73 7.73 0 01-1.35 1.4l-.16.13-.24.2-.18.14c-.73.56-1.49 1.05-2.11 1.47h0l-.38.26-.19.14h0l-.11.09-.2.17h0l-.1.09-.25.24a.3.3 0 00-.08.08h0l-.09.09-.17.18-.06.06-.12.13c-.47.51-.94 1.06-1.37 1.56h0l-.06.08h0l-.07.07m8.19-17.25l-1.71.05h0l-4 .08h-14.65c-5-.09-8.6-.26-11.16-.41-5.24-.31-6.33-.54-7.4.33l-.11.1-.12.11-.11.1h0m10.09 3.52l.33.21h.06l.1.06h.19a.09.09 0 00.06 0h0c.17.1.35.2.52.28s0 0 .05 0 0 0 0 0 0 0 0 0h0s0 0 0 0a11.62 11.62 0 001.31.58s0 0 0 0l.29.12a14.23 14.23 0 001.36.43h.12c.25.07.5.13.76.18a17.92 17.92 0 006.07.27.08.08 0 00.08 0 20.65 20.65 0 005.74-1.52.21.21 0 00.1 0h0l.13-.05h0a.13.13 0 00.08 0h0s0 0 0 0a.27.27 0 00.11-.05.18.18 0 00.09 0l.19-.08.28-.13h.16l.36-.18h.07c.46-.24.92-.51 1.36-.79h.08l.27-.17h0c.41-.26.8-.54 1.19-.84h0m-21.63 1.6l.09.06m-.13-.08h0m-.34-.24l.15.11m-1.06-.8l.31.25.11.08h0l.13.09.1.07.21.16m-1.1-.85s0 0 0 0m-.12-.11h0m23.86-.4h-24.31l.29.26" fill="none" stroke="#000" stroke-linecap="round" stroke-linejoin="round" stroke-width=".92"/><path d="M912.87 152.79l-1.21.8-.1.07-.21.13h0l-.18.12-.17.09c-1.12.74-2.19 1.43-3.2 2.07l-.12.08h0l-.2.13h0l-.19.12h0-.12l-.09.05h0l-.28.17-.09.06h-.07l-.13.08-1 .58h-.05l-.08.05h0l-.08.05-.43.25-.15.09-.79.45-.08.05-.71.38-.71.37h-.09l-.77.38-.18.09h0q-.36.18-.72.33l-.59.26c-.67.28-1.32.52-2 .72h0a15.83 15.83 0 01-1.86.47l-.58.11h-.27a8.27 8.27 0 01-.87.1 14.26 14.26 0 01-3.12-.11l-.77-.13c-.36-.07-.73-.15-1.1-.25l-.17-.05-.32-.09-.29-.08h-.06c-.3-.09-.61-.2-.93-.31h-.14c-.48-.18-1-.38-1.49-.61l-.92-.42a.34.34 0 01-.12-.06s0 0 0 0h-.1c-.46-.22-.94-.46-1.42-.72h0l-.16-.08-.09-.05q-.41-.21-.81-.45l-.23-.13-.93-.55h-.05 0-.07l-.13-.08h0l-.08-.05-.23-.14h0l-.17-.1h0l-.09-.05h0l-.1-.06h0-.06 0l-.08-.05h0-.07 0l-.13-.08h0l-.19-.12h0c-1.22-.77-2.51-1.64-3.89-2.6m65.71 99.67q-.69.19-1.35.33a2.57 2.57 0 01-.38.08 21.87 21.87 0 01-3.12.44h-2.63a35.69 35.69 0 01-3.65-.36c-2.91-.41-6.33-1.12-11-1.95h-.23l-3.35-.59h-.23l-.86-.14-.69-.11c-1.33-.22-2.73-.44-4.24-.65 0 0 0 0 0 0l-.71-.1s-.34 3.4-.74 7.71v.14c-.36 3.88-.77 8.46-1 12a2.64 2.64 0 000 .29.86.86 0 000 .16v.44a39.41 39.41 0 00-.2 4.64.45.45 0 000 .08c.39.89 20.66 10.58 20.66 10.58l18.48-6.19v-.28l.7-5.6 2.73-21.77.06-.55.21-1.64h-.07l-.35.15c-.75.33-1.47.63-2.15.9l-.5.2c-.6.24-1.17.46-1.72.66l-.47.17c-1.13.41-2.17.74-3.15 1m-62-3.15c.28.14.57 3.72.84 8.27 0 .43.06.86.08 1.3.23 4.1.44 8.76.59 12.34v.06c0 .53 0 1 .06 1.51v1.94a.49.49 0 010 .12v2.22c-22.15 10.32-17.11 10-40.48 2.85l-.48-6.45-.1-1.34-1.21-16.26v-.75l-.09-1.16h0q1.23.32 2.49.51l.59.1c.43.06.86.12 1.28.16a49.18 49.18 0 0011.69-.34l1.62-.23 1.32-.22.74-.13c1.25-.21 2.52-.46 3.81-.72 3.8-.78 7.74-1.71 11.84-2.64 1.87-.38 3.66-.77 5.41-1.14z" fill="none" stroke="#000" stroke-linecap="round" stroke-linejoin="round" stroke-width=".92"/><path fill="none" stroke="#000" stroke-linecap="round" stroke-linejoin="round" stroke-width=".92" d="M839.07 255.28v-10.07l39.26-5.43.22 1.67.24 1.83.87 6.62.09.73m29.54 0v-10.85l40.84 3.09v7.76m-125.89 444.8l-.36.15h-.06a29.07 29.07 0 01-7.91 2.34m183.64.52h-.29c-1.76.32-3.34.6-4.77.83h-.06c-1.33.21-2.53.38-3.63.51M975.9 698l-.19-.07-.65-.26"/><path fill="none" stroke="#000" stroke-linecap="round" stroke-linejoin="round" stroke-width=".31" d="M975.91 698.04h-.01"/><path d="M982.21 699.91a21.9 21.9 0 01-3-.71 3 3 0 01-.4-.12l-.45-.15c-.28-.08-.57-.18-.86-.29l-.62-.22-.27-.1-.57-.21-.17-.07" fill="none" stroke="#000" stroke-linecap="round" stroke-linejoin="round" stroke-width=".92"/><path d="M889.1 146.46s.2-11.62.2-11.94m7.2-.54l1.01 12.82" fill="none" stroke="#f1bc9a" stroke-linecap="round" stroke-linejoin="round" stroke-width=".31"/><path d="M399.49 432.2h216v72h-216z"/><path fill="#2d2d2d" d="M399.49 360.2h216v72h-216z"/><path fill="#676465" d="M399.49 288.2h216v72h-216z"/><path fill="#898687" d="M399.49 216.2h216v72h-216z"/><path fill="#b2aeaf" d="M399.49 144.2h216v72h-216z"/></svg>