<svg xmlns="http://www.w3.org/2000/svg" viewBox="0 0 1400 780"><path d="M1400 667.8V780h-280.74v-1.06l279.63-111.14h1.11z"/><path fill="#2d2d2d" d="M1400 556.66V667.8h-1.11l-279.63 111.14V780H839.63v-1.06l559.26-222.28h1.11z"/><path fill="#676465" d="M1400 445.52v111.14h-1.11L839.63 778.94V780H699.91v-56.61l698.98-277.87h1.11z"/><path fill="#898687" d="M1400 334.38v111.14h-1.11L699.91 723.39.74 445.52H0V334.38h.74l699.07 277.85 699.08-277.85h1.11z"/><path fill="#a6a2a3" d="M1400 223.24v111.14h-1.11L699.81 612.23.74 334.38H0V223.24h.74l699.07 277.85 699.08-277.85h1.11z"/><path fill="#b2aeaf" d="M1400 112.1v111.14h-1.11L699.81 501.09.74 223.24H0V112.1h.74l699.07 277.85 699.08-277.85h1.11z"/><path fill="#bebabb" d="M1400 0v112.1h-1.11L699.81 389.95.74 112.1H0V0l699.9 278.81L1400 0z"/><path fill="#d7d4d5" d="M1400 0L699.9 278.81 0 0h280.37v.96l419.44 166.71L1119.26.96V0H1400z"/><path fill="#e5e1e0" d="M1119.26 0v.96L699.81 167.67 280.37.96V0H560v.96l139.81 55.57L839.63.96V0h279.63z"/><path fill="#fff" d="M839.63 0v.96L699.81 56.53 560 .96V0h279.63z"/><path fill="#676465" d="M699.91 723.39V780H560v-1.06L.74 556.66H0V445.52h.74l699.17 277.87z"/><path fill="#2d2d2d" d="M560 778.94V780H280.37v-1.06L.74 667.8H0V556.66h.74L560 778.94z"/><path d="M280.37 778.94V780H0V667.8h.74l279.63 111.14z"/></svg>