<svg xmlns="http://www.w3.org/2000/svg" viewBox="0 0 700 700"><path d="M475.23 699.53H700v-90.11c-225.1 89.29-224.77 88.63-224.77 90.11z" fill="#2d2d2d"/><path d="M349.92 699.53c125.29 0 125.31.52 125.31-.95L700 609.42V510L349.92 648.86z" fill="#676465"/><path fill="#898687" d="M700 509.96v-99.51L349.83 549.36 0 410.58v99.48l349.92 138.8L700 509.96z"/><path fill="#a6a2a3" d="M700 410.45v-99.48L349.83 449.88 0 311.1v99.48l349.83 138.78L700 410.45z"/><path fill="#b2aeaf" d="M700 310.97v-99.48l-350.17 138.9L0 211.62v99.48l349.83 138.78L700 310.97z"/><path fill="#bebabb" d="M700 211.49v-99.73L349.91 250.91 0 111.8v99.82l349.83 138.77L700 211.49z"/><path fill="#d7d4d5" d="M700 111.76V12.53l-350.17 138.9L0 12.66v99.14l349.91 139.11L700 111.76z"/><path d="M700 12.53V1.35H475.23c0 1.34.29.74-125.4 50.6C224.15 2.09 224.44 2.69 224.44 1.35H0v11.31l349.83 138.77z" fill="#e5e1e0"/><path d="M349.83 52C475.51 2.1 475.23 2.69 475.23 1.35c-250.74 0-250.79-.48-250.79.86z" fill="#fff"/><path d="M224.44 699.53h125.48v-50.67L0 510.06v99.49c224.76 89.15 224.44 88.5 224.44 89.98z" fill="#676465"/><path d="M224.44 698.58L0 609.55v90c224.44-.02 224.44.5 224.44-.97z" fill="#2d2d2d"/></svg>