<svg xmlns="http://www.w3.org/2000/svg" viewBox="0 0 1400 780"><path fill="#f5e0cd" d="M0 0h1400v780H0z"/><path d="M587.67 409.79c-3.49 6.32-12.65 6.52-18 3.26a41.16 41.16 0 0118-3.26z" fill="#593f42"/><path d="M327.47 389.81c-7.33-8.79-22-36.87-21.3-44.78 2.07-22.54-.85-29.35 25.43-38.25-28.74 12.08-21.81 46.7-6.57 73.89 0 0 18.81 19.91 26.88 22.71 27.15 9.38-16.05-3.5-24.44-13.57zm15.41-75.52c.57.08 9.47 1.51 11.51 4.88s4.53 14.68 5.07 18.18c1.22 8.22-3 12.16-1 13.55-6.85-1.06-2-6.75-5.15-23-2-10.48-9.93-13.43-10.43-13.61zm26.88 38.07L365.92 366l6.64 7c-15.91-2.22-13.56-6.91-2.8-20.64z" fill="#543533"/><path d="M565.43 451.6c0 2.18-5.25 10-7.46 10.24 6.91 6.57 6.58 13.37-1.28 18.76l-16.89-15.49c11.52-10.47 17.84-16.39 25.63-13.51z" fill="#a47c7a"/><path d="M539.57 318.13c-18.34-8.47-70.89-4-9.78-8.39 33.11-2.37 31.47 12.87 27.25 14.68a111.4 111.4 0 01-17.47-6.29z" fill="#443123"/><path d="M244.67 365.18c-9.54-19.1-10.47-65.45-8.61-94.11s20.27-69.88 28.42-84.78 25.38-28.18 50.31-38.67 66.38-11.41 106.22-8.15 74.07 22.12 94.56 34.47c20.27 12.21 36.89 51.73 37.27 52.63-1.43-.63-95.8-42.59-104.12-39.46s12.58 41.92 17.83 54.5 16.77 25.16-3.15 34.59c-29.87 14.15-43.24 12.94-60.79 68.83l-22.37 3.85s-4.89-28.3-21.32-36.69c-12.53-6.41-25.69-6.23-27.3-5.42-17.66 8.83-23.43 5.66-25 31.27-28.73 86.16-21.74 68.95-42.13 95.39-.56-46.55-8.42-45.43-19.82-68.25z" fill="#684d3c"/><path d="M587.67 409.79a41.16 41.16 0 00-18 3.26c5.43 3.31 14.52 3.04 18-3.26zM557 324.42c4.16-1.78 6.26-17.08-27.25-14.68-61.1 4.36-8.55-.07 9.78 8.39a111.4 111.4 0 0017.47 6.29zm-187.24 27.94s-7.68 9.8-8.73 14.33 11.53 6.3 11.53 6.3l-6.64-7zm-26.88-38.07c14.55 5.18 11 28.71 11.86 33.54.51 2.82 4.37 3.7 6.19 3.15-2.3.12-3.69.14-2.7-2.81 3.79-11.28-3-27.52-3.84-29-2.04-3.37-10.94-4.8-11.51-4.88zm-61.16 96.78c27.24-78.88 25.77-80.38 24.45-66-.74 7.91 14 36 21.3 44.78 6.95 8.34 30.91 15.91 33.29 16.65-9.08-3.15-14.1-2.89-35.73-25.79-15.09-26.94-22.33-59.44 6.59-73.9.84-.42 13.52-1.62 27.3 5.42 16.43 8.39 21.32 36.69 21.32 36.69l22.37-3.92c17.65-56.21 31.74-55.06 60.79-68.83 19.92-9.43 8.38-22 3.15-34.59s-26.22-51.36-17.83-54.5 102.69 38.83 104.12 39.46c.1.1 17.71 48.06 21.44 60.35 7.77 25.67-8 30.05-5.14 48.91 40 68.15 37.79 63 27 78.49-3.72 5.37-25.39 8.16-25.39 8.16s-2.59 25.47-5.35 29.12c-7.76-2.87-14 3-25.63 13.51l16.89 15.49s-4.2 7.33-19.92 33.53-68.13 0-68.13 0l-71.25 127.7S260.75 490 258.65 482.11s5.83-48.68 5.83-48.68z" fill="#d9a887"/><path d="M570.78 422.48s21.67-2.79 25.39-8.16c10.74-15.46 13.12-10.1-27-78.49-2.82-18.84 12.91-23.26 5.14-48.91-10-32.93-30.79-96.17-58.71-113-20.49-12.35-54.73-31.21-94.56-34.47s-81.29-2.33-106.22 8.15-42.17 23.77-50.31 38.67-26.55 56.14-28.42 84.78-.93 75 8.61 94.11c11.61 23.21 19.26 21.62 19.81 68.25 0 0-7.92 40.76-5.83 48.68S397.36 641.8 397.36 641.8l71.28-127.67s52.41 26.22 68.13 0 19.92-33.53 19.92-33.53c7.85-5.38 8.18-12.19 1.28-18.76 8.72-1.13 11.92-30.62 12.81-39.36zm-306.3 10.95c20.39-26.45 13.4-9.23 42.13-95.39" fill="none" stroke="#2d2d2d" stroke-miterlimit="10" stroke-width="1.11"/><path d="M331.62 306.77c.84-.42 13.52-1.62 27.3 5.42 16.43 8.39 21.32 36.69 21.32 36.69l22.37-3.88c17.65-56.21 31.74-55.06 60.79-68.83 19.92-9.43 8.38-22 3.15-34.59s-26.22-51.36-17.83-54.5c7.66-2.88 103.5 38.85 104.13 39.48m-183.09 125.8L365.92 366l6.64 7c-15.91-2.22-13.56-6.91-2.8-20.64z" fill="none" stroke="#2d2d2d" stroke-miterlimit="10" stroke-width="1.11"/><path d="M358.23 348.17c3.79-11.28-3-27.52-3.84-29-2-3.37-10.94-4.8-11.51-4.88.92 0 8.55 3.73 10.46 13.62C356.8 345.78 350.57 351 361 351c-2.3.72-3.66-.18-2.77-2.83zm-20.62-30.04c-26.77 45.27 8.24 56.54 7.39 61.87a36.08 36.08 0 000 6.29" fill="none" stroke="#2d2d2d" stroke-miterlimit="10" stroke-width="1.11"/><path d="M360.86 406.49c-.1-.05-26.21-8.06-33.39-16.68-7.33-8.79-22-36.87-21.3-44.78 2.17-23.6-.48-29.48 25.43-38.25-28.73 12.08-21.81 46.7-6.57 73.89 21.83 23.11 26.87 22.71 35.73 25.79M557 314.28c-10.08-7.78-39.7-3.74-55.91-2.38 42.85 3 35.57 7.44 55.91 12.52 0 0 4.93-2.1 0-10.14zm30.67 95.51a41.16 41.16 0 00-18 3.26c5.43 3.31 14.52 3.04 18-3.26zm-30.98 70.81l-16.89-15.49c11.52-10.47 17.84-16.39 25.63-13.51m-157.93-6.99s42.65 56.54 61.14 69.52" fill="none" stroke="#2d2d2d" stroke-miterlimit="10" stroke-width="1.11"/><path d="M920.21 350.82c-6.69-1-1.91-6.78-5-22.91-1.8-9.27-8.61-13.14-10.2-13.57 1.59.25 9.37 1.71 11.25 4.83.88 1.48 7.63 17.72 3.84 29-.47 1.3-.37 2.17.11 2.65z" fill="#533736"/><path d="M922.79 351a2.57 2.57 0 01-2.58-.15 17.48 17.48 0 002.58.15z" fill="#d7a686"/><path d="M1025.23 276.2c-29.05 13.8-43.15 12.62-60.79 68.8l-22.36 3.85s-4.9-28.3-21.33-36.69c-13.78-7-26.46-5.84-27.3-5.42-23.14 7.83-23.5 13.36-24.85 31.27h-.14c-28.75 86.19-21.76 68.99-42.15 95.42-.54-46.62-8.2-45-19.81-68.25-9.54-19.1-10.47-65.45-8.61-94.11s20.27-69.88 28.42-84.78 25.38-28.18 50.31-38.67 66.38-11.41 106.22-8.15 74.07 22.12 94.56 34.47c14.4 8.67 26.89 29.67 37 52.49-5.79-2.83-96.4-42.12-103.84-39.32-8.39 3.14 12.58 41.92 17.83 54.5s16.76 25.16-3.16 34.59z" fill="#684d3c"/><path d="M893.43 306.78c-28.74 12.08-21.81 46.7-6.57 73.89 14.84 15.71 21.92 20.55 27.71 23-8.32-3.09-20.68-8.35-25.27-13.87-7.3-8.8-22.04-36.86-21.3-44.8.23-2.52.41-4.84.58-7 1.35-17.86 1.71-23.39 24.85-31.22z" fill="#533736"/><path d="M952.55 537.55a477.43 477.43 0 0042.09 40.77l-35.45 63.48S822.58 490 820.48 482.11s5.83-48.68 5.83-48.68c20.39-26.43 13.4-9.23 42.13-95.43h.14c-.17 2.14-.35 4.46-.58 7-.74 7.91 14 36 21.3 44.78 4.59 5.52 17 10.78 25.27 13.87 1.66.71 3.21 1.22 4.81 1.73a2.52 2.52 0 01.39.12c.28.09.53.18.78.25l1.45.48a.49.49 0 01.19.07h.48l29.5 5.37c-2.49 15.33-16.91 106.67.38 125.88z" fill="#d7a686"/><path d="M1118.87 324.42s4.89-2.1 0-10.14c-10.08-7.79-39.7-3.74-55.91-2.38 42.85 2.98 35.57 7.45 55.91 12.52zm12.58 88.63c5.48 3.31 14.56 3 18-3.26a41.16 41.16 0 00-18 3.26zm-199.86-60.69c-10.76 13.72-13.1 18.41 2.8 20.63l-6.64-7zm-16.42-24.45c3.13 16.13-1.65 21.93 5 22.91a2.57 2.57 0 002.58.15 17.48 17.48 0 01-2.58-.15c-.48-.48-.58-1.35-.15-2.65 3.79-11.28-3-27.52-3.84-29-1.88-3.12-9.66-4.58-11.25-4.83 1.63.43 8.44 4.3 10.24 13.57zm-21.72-21.14c.84-.42 13.52-1.62 27.3 5.42 16.43 8.39 21.33 36.69 21.33 36.69l22.36-3.88c17.64-56.21 31.74-55.07 60.79-68.83 19.92-9.43 8.38-22 3.15-34.59s-26.22-51.36-17.83-54.5c7.44-2.8 98 36.49 103.84 39.32 9.49 21.47 16.87 44.53 21.72 60.49 7.77 25.66-8 30.07-5.13 48.91 40.14 68.39 37.76 63 27 78.49-3.73 5.37-25.4 8.16-25.4 8.16-20.48 11.07-54 18.91-79.43 14.68-40.26-6.72-47.36-8.21-73.61-39.13l-27 11.71s-.13.74-.36 2.12l-29.5-5.37h-.48a.49.49 0 00-.19-.07c-.5-.18-1-.33-1.45-.48l-.78-.25a2.52 2.52 0 00-.39-.12c-1.31-.47-3-1-4.81-1.73-5.79-2.46-12.87-7.3-27.71-23-15.24-27.19-22.17-61.81 6.57-73.89zm225.07 173.83s-6.18 22.24-13.16 13.86-9.79-14-8.85-23.3 7.8-19.79 14.9-19.56l7.11.23v.1c-4.7 2-9.82 6.73-16.93 13.18z" fill="#d7a686"/><path d="M1053.18 437.16c25.39 4.23 59-3.61 79.43-14.68 7.87 5.88 6.52 24.14-5.35 29.12a11.19 11.19 0 00-8.7.33v-.1l-7.11-.23c-7.1-.23-14 10.24-14.9 19.56s1.86 14.92 8.85 23.3 13.16-13.86 13.16-13.86c28.91 107.53 23.19 118.49-30.4 128.22-15.38 2.8-37.74.7-57.65-6.28-9.16-3.22-22.37-12.78-35.83-24.22a477.43 477.43 0 01-42.09-40.77c-17.29-19.21-2.87-110.59-.36-125.69.23-1.38.36-2.12.36-2.12l27-11.71c26.23 30.97 33.33 32.41 73.59 39.13z" fill="#684d3c"/><path d="M919.4 405.42c-1.6-.51-3.15-1-4.81-1.73 1.85.69 3.5 1.31 4.81 1.73z" fill="#d7a686"/><path d="M920.57 405.79c.47.15.95.3 1.45.48zm0 0c-.25-.07-.5-.16-.78-.25z" fill="#533736"/><path d="M1118.87 324.42c-20.34-5.07-13.06-9.54-55.91-12.52 16.21-1.36 45.83-5.41 55.91 2.38 4.89 8.04 0 10.14 0 10.14z" fill="#423024"/><path d="M934.39 373c-15.9-2.22-13.56-6.91-2.8-20.63L927.75 366z" fill="#533736"/><path d="M1149.5 409.79c-3.49 6.3-12.57 6.57-18 3.26a41.16 41.16 0 0118-3.26z" fill="#563735"/><path d="M1101.63 465.11c7.11-6.45 12.23-11.18 16.93-13.18a11.19 11.19 0 018.7-.33c0 2.18-5.25 10-7.46 10.24 6.9 6.57 6.57 13.38-1.28 18.76z" fill="#a37a76"/><path d="M826.31 433.43c20.39-26.43 13.4-9.23 42.13-95.43m25.01-31.23c.84-.42 13.52-1.62 27.3 5.42 16.43 8.39 21.33 36.69 21.33 36.69l22.36-3.88c17.64-56.21 31.74-55.07 60.79-68.83 19.92-9.43 8.38-22 3.15-34.59s-26.22-51.36-17.83-54.5c7.44-2.8 98 36.49 103.84 39.32a1.27 1.27 0 01.29.16m-183.09 125.8L927.75 366l6.64 7c-15.9-2.23-13.56-6.92-2.8-20.64zm-11.38-1.54a17.48 17.48 0 002.58.15 2.57 2.57 0 01-2.58-.15z" fill="none" stroke="#2d2d2d" stroke-miterlimit="10" stroke-width="1.11"/><path d="M904.71 314.29h.22c1.59.43 8.4 4.3 10.2 13.57 3.13 16.13-1.65 21.93 5 22.91" fill="none" stroke="#2d2d2d" stroke-miterlimit="10" stroke-width="1.11"/><path d="M920.21 350.82c-.48-.48-.58-1.35-.15-2.65 3.79-11.28-3-27.52-3.84-29-1.88-3.12-9.66-4.58-11.25-4.83m-5.53 3.79c-26.77 45.27 8.24 56.54 7.34 61.84a36.08 36.08 0 000 6.29m13.01 19.28l.78.25c.47.15.95.3 1.45.48m-7.43-2.58c1.66.71 3.21 1.22 4.81 1.73" fill="none" stroke="#2d2d2d" stroke-miterlimit="10" stroke-width="1.11"/><path d="M914.57 403.68c-8.32-3.09-20.68-8.35-25.27-13.87C882 381 867.26 352.94 868 345c.23-2.52.41-4.84.58-7 1.35-17.91 1.71-23.44 24.85-31.27-28.74 12.08-21.81 46.7-6.57 73.89 14.84 15.71 21.92 20.55 27.71 23m0 .06h0m4.83 1.74c-1.31-.47-3-1-4.81-1.73m4.81 1.73a2.52 2.52 0 01.39.12m2.21.73l-1.45-.48c-.25-.07-.5-.16-.78-.25m2.23.73a.49.49 0 01.19.07h.38m.12.15h-.1m196.28-92.21c-10.08-7.79-39.7-3.74-55.91-2.38 42.85 3 35.57 7.45 55.91 12.52 0 0 4.89-2.1 0-10.14zm30.63 95.51a41.16 41.16 0 00-18 3.26c5.43 3.31 14.5 3.04 18-3.26z" fill="none" stroke="#2d2d2d" stroke-miterlimit="10" stroke-width="1.11"/><path d="M1132.61 422.48c-20.48 11.07-54 18.91-79.43 14.68-40.26-6.72-47.36-8.21-73.61-39.13l-27 11.71s-.13.74-.36 2.12c-2.51 15.1-16.93 106.48.36 125.69a477.43 477.43 0 0042.09 40.77c13.46 11.44 26.67 21 35.83 24.22 19.91 7 42.27 9.08 57.65 6.28 53.59-9.73 59.31-20.69 30.4-128.22l-16.89-15.49c7.11-6.45 12.23-11.18 16.93-13.18a11.19 11.19 0 018.7-.33c11.87-5 13.22-23.24 5.35-29.12 0 0 21.67-2.79 25.4-8.16 10.73-15.45 13.11-10.1-27-78.49-2.83-18.84 12.9-23.25 5.13-48.91-4.85-16-12.23-39-21.72-60.49-10.1-22.82-22.59-43.82-37-52.49-20.49-12.35-54.73-31.21-94.56-34.47s-81.29-2.33-106.22 8.15-42.17 23.77-50.31 38.67-26.55 56.14-28.42 84.78-.93 75 8.61 94.11c11.61 23.21 19.27 21.63 19.81 68.25 0 0-7.92 40.76-5.83 48.68S959.19 641.8 959.19 641.8l35.45-63.48" fill="none" stroke="#2d2d2d" stroke-miterlimit="10" stroke-width="1.11"/><path d="M1127.26 451.6c0 2.18-5.25 10-7.46 10.24 6.9 6.57 6.57 13.38-1.28 18.76 0 0-6.18 22.24-13.16 13.86s-9.79-14-8.85-23.3 7.8-19.79 14.9-19.56l7.11.23" fill="none" stroke="#2d2d2d" stroke-miterlimit="10" stroke-width="1.11"/></svg>