<svg xmlns="http://www.w3.org/2000/svg" viewBox="0 0 700 700"><path fill="#b85138" stroke="#6c3315" stroke-linecap="round" stroke-linejoin="round" stroke-width=".67" d="M0 0h700v700H0z"/><path d="M483 288.16a56.41 56.41 0 01-2.75 14.29c-3.37 9-9.18 8.2-16.76-7.94a55.3 55.3 0 0019.93-13q-.12 3.51-.41 6.63l-.01.02zm28.11-32.87c-.25.58-8.59 19.11-12.61 22.23-2.44 1.9-6.06.6-10-2.06-7-4.63-15-13.41-19.48-16.09s-19.52 9.53-19.52 9.53c0-3.65 10.46-17.63 23.15-22.25 15.41-5.6 24.1 19.35 38.48 8.64zm25.53 125.52s-13.81-5.68-25.52 2.94c5.27-17.16 21.93-16.35 29.13-4.57l-3.61 1.63c11.52-5.05 27-11.32 30.64-20.43-17.62-38.18-25.49-31.59-31.67-41.88s-20.5-27.21-31.67-31.67c12.62-16.4 15.74-24.15 6.14-44.95-6.14-13.28-38.82-80.7-60.28-95h-84.1c13.12 72.6 28.18 60.77 42.9 82.06-50.6 18.13-48.19 28.58-58.6 72.19-7.3.29-14.71 4.71-22.21 12.94-37.81-23.22-28-17.26-45.15-27.38 0 0-29.28-11.62-38.14-8.47s-17.7 7-22.47 19.73-7.49 28.83-2.72 34.74a7.48 7.48 0 011.57 5.68c.62.85 22.82 30.6 61.08 59.77 13.47 10.26 22.1 10.83 27.63 7.2l9.83 14.29c.68 2.71-9.77 43.58 11.57 56.29l8.13 21.34c16.29 16.34 93.57 51.92 93.57 51.92 24.29-1 65.2 6.37 74.35 2.22 35.49-16.14 49-32.18 27.57-64.36 0 0 15.35-21.45 10.23-30.64S530.53 439 530.53 439c11.85-34.34 10.09-42.31 6.13-58.19z" fill="#f6e0cf"/><path d="M498.52 277.52c4-3.12 12.36-21.65 12.61-22.23-14.38 10.66-23.07-14.24-38.49-8.64-12.69 4.62-23.15 18.6-23.15 22.25 0 0 15-12.26 19.52-9.53s12.5 11.46 19.48 16.09c3.97 2.66 7.59 3.96 10.03 2.06z" fill="#73584d"/><path d="M511.14 383.75c11.71-8.62 25.52-2.94 25.52-2.94l3.61-1.63c-7.2-11.78-23.86-12.59-29.13 4.57z" fill="#936c5c"/><path d="M480.27 302.45c-2.26-5.81-1.54-9.92 2.75-14.29q.29-3.12.41-6.63a55.3 55.3 0 01-19.93 13c7.59 16.12 13.4 16.92 16.77 7.92z" fill="#f6e0cf"/><path d="M483 288.16c-4.29 4.37-5 8.48-2.75 14.29a56.41 56.41 0 002.75-14.29zm-200.36-1.47c17.19 10.12 7.34 4.16 45.15 27.38 7.5-8.23 14.91-12.65 22.21-12.94 10.41-43.61 8-54.06 58.62-72.19-14.72-21.29-29.78-9.46-42.9-82.06h84.1c-21.44-14.29-58-36.78-110.7-38.81s-108.91 5.11-144.67 36.76-54.14 50.07-59.25 86.84-3.06 94.68 12.26 118.33c11.34 17.51 17.88 26.65 20.76 39h.08c13.24-16.32 6.61-17.66 48.51-42 0 0 3.57-4.11 4.07-8.61a7.48 7.48 0 00-1.57-5.68c-4.77-5.91-2-22 2.72-34.74s13.62-16.57 22.47-19.73 38.14 8.45 38.14 8.45z" fill="#73584d"/><path d="M432.69 549.18s-77.28-35.58-93.57-51.92L331 475.92c-21.34-12.71-10.89-53.58-11.57-56.29l-9.83-14.29c-5.53 3.63-14.16 3.06-27.63-7.2-38.27-29.14-60.47-58.92-61.09-59.77-.5 4.5-4.07 8.61-4.07 8.61-41.9 24.32-35.27 25.66-48.51 42h-.08c4.77 20.4-.49 49.54-10.54 140l244.14 63.33s0-33.7 17.36-40.85c3.24-1.4 7.94-2.05 13.51-2.28z" fill="#f6e0cf"/><path d="M168.22 389c4.77 20.4-.49 49.54-10.54 140l244.14 63.33s0-33.7 17.36-40.85c3.24-1.34 7.94-2 13.51-2.22 24.29-1 65.2 6.37 74.35 2.22 35.49-16.14 49-32.18 27.57-64.36 0 0 15.35-21.45 10.23-30.64S530.53 439 530.53 439c11.85-34.38 10.09-42.35 6.13-58.23 11.52-5.05 27-11.32 30.64-20.43-17.62-38.18-25.49-31.59-31.67-41.88s-20.5-27.21-31.67-31.67c12.62-16.4 15.74-24.15 6.14-44.95-6.14-13.28-38.82-80.7-60.28-95s-58-36.78-110.7-38.81-108.91 5.11-144.67 36.76-54.14 50.07-59.25 86.84-3.06 94.72 12.26 118.37c11.34 17.51 17.88 26.65 20.76 39zm362.31 50.04h-49.04m0-10.79v19.07m-48.8-61.74c-1.69 3.38-17.34 4.2 0 46.76m-24.07-29.51l17.18-9.37" fill="none" stroke="#4c4745" stroke-miterlimit="10" stroke-width="1.08"/><path d="M358.24 321.11c3.62-.91 16.33-2.73 16.33-2.73s17.26 21.79 37.69 28.6m89.44 5.9s-14.54 14.12-11.35 20.91a23.48 23.48 0 009.07 10m11.72-.04c5.27-17.16 21.93-16.35 29.13-4.57l-3.61 1.63s-13.81-5.68-25.52 2.94zm-.01-128.46c-14.38 10.66-23.07-14.24-38.49-8.64-12.69 4.62-23.15 18.6-23.15 22.25 0 0 15-12.26 19.52-9.53s12.5 11.46 19.48 16.09c4 2.66 7.59 4 10 2.06 4-3.12 12.36-21.65 12.61-22.23h0" fill="none" stroke="#4c4745" stroke-miterlimit="10" stroke-width="1.08"/><path d="M451.75 298a75.11 75.11 0 0011.76-3.44 55.3 55.3 0 0019.93-13 50.76 50.76 0 005.05-6.05h0M483 288.14q.29-3.12.41-6.63" fill="none" stroke="#4c4745" stroke-miterlimit="10" stroke-width="1.08"/><path d="M463.51 294.51c7.58 16.14 13.39 16.94 16.76 7.94a56.41 56.41 0 002.73-14.29" fill="none" stroke="#4c4745" stroke-miterlimit="10" stroke-width="1.08"/><path fill="none" stroke="#4c4745" stroke-miterlimit="10" stroke-width="1.08" d="M477.18 307.49l3.98 5.67-11.02 25.2M168.3 389c13.24-16.32 6.61-17.66 48.51-42 0 0 3.57-4.11 4.07-8.61a7.48 7.48 0 00-1.57-5.68c-4.77-5.91-2-22 2.72-34.74s13.62-16.57 22.47-19.73 38.14 8.47 38.14 8.47c17.19 10.12 7.34 4.16 45.15 27.38 7.5-8.23 14.91-12.65 22.21-12.94 10.41-43.61 8-54.06 58.62-72.19-14.72-21.29-29.78-9.46-42.9-82.06h84.1"/><path d="M272.43 347s-12.94-8.62-12.26-14.29S282 308.23 282 308.23s-3.4-14.15-14.3-13.36-23.38-2.27-35.42 3.08m-4.12 20.43s7.49 14.31 10.22 20m59.93-5.69v10s-8.85 6.81-8.85 10.21 2 8.18 4.42 8.86m25.54 14.96s.58 21.76-9.83 28.62c-5.53 3.63-14.16 3.06-27.63-7.2-38.26-29.14-60.46-58.92-61.08-59.77h0m98.54 81.26c.68 2.71-9.77 43.58 11.57 56.29m101.7 73.26s-77.28-35.58-93.57-51.92" fill="none" stroke="#4c4745" stroke-miterlimit="10" stroke-width="1.08"/></svg>