<svg xmlns="http://www.w3.org/2000/svg" viewBox="0 0 1400 780"><path fill="#b85138" stroke="#6c3315" stroke-linecap="round" stroke-linejoin="round" d="M0 0h1400v780H0z"/><path d="M752 277.58c-4.73 34.11-2.84 87.81 11.37 109.75 10.52 16.24 16.63 24.67 19.25 36.13h.08c12.28-15.14 6.13-16.38 45-38.93 0 0 3.31-3.83 3.76-8a6.87 6.87 0 00-1.45-5.26c-4.42-5.48-1.89-20.42 2.53-32.21s12.63-15.37 20.84-18.3 35.37 7.86 35.37 7.86c15.94 9.38 6.81 3.86 41.87 25.39 7-7.64 13.83-11.74 20.6-12 9.65-40.45 7.46-50.14 54.37-66.95-13.67-19.74-27.59-8.78-39.8-76.06h78c-19.89-13.26-53.77-34.1-102.67-36s-101 4.74-134.17 34.11-50.21 46.37-54.95 80.47z" fill="#73584d"/><path d="M772.85 553.27L999.27 612s0-31.26 16.1-37.89c3-1.24 7.36-1.85 12.53-2.05 0 0-71.67-33-86.78-48.16l-7.54-19.79c-19.79-11.79-10.1-49.68-10.73-52.21l-9.13-13.25c-5.13 3.37-13.13 2.84-25.61-6.67-36-27.45-56.66-55.45-56.66-55.45-.45 4.17-3.76 8-3.76 8-38.86 22.55-32.71 23.79-45 38.93h-.08c4.44 18.92-.44 45.94-9.76 129.81z" fill="#f6e0cf"/><path d="M1079.65 318.2c-6.47-4.3-13.92-12.44-18.07-14.93s-18.1 8.84-18.1 8.84c0-3.38 9.7-16.35 21.47-20.63 14.3-5.2 22.36 17.91 35.7 8-.24.54-8 17.72-11.7 20.62-2.26 1.77-5.62.56-9.3-1.9zm39 151.7c11-31.87 9.37-39.27 5.69-54 0 0-12.8-5.26-23.66 2.74 4.88-15.92 20.33-15.17 27-4.24l-2.33 1.05c10.56-4.6 24.13-10.31 27.4-18.5-16.34-35.4-23.64-29.29-29.37-38.84s-19-25.22-29.37-29.37c11.7-15.2 14.59-22.39 5.69-41.68-5.69-12.32-36-74.84-55.9-88.11h-78c12.16 67.33 26.13 56.37 39.79 76.11-46.91 16.81-44.72 26.5-54.37 66.95-6.77.26-13.64 4.36-20.6 12-35.06-21.53-25.93-16-41.87-25.39 0 0-27.16-10.78-35.37-7.86s-16.42 6.51-20.84 18.3-6.95 26.73-2.53 32.21a6.87 6.87 0 011.45 5.26s20.66 28 56.66 55.45c12.48 9.51 20.48 10 25.61 6.67l9.13 13.25c.63 2.53-9.06 40.42 10.73 52.21l7.54 19.79c15.11 15.16 86.78 48.16 86.78 48.16 22.53-.9 60.46 5.91 68.94 2.05 32.93-15 45.48-29.83 25.58-59.68 0 0 14.24-19.9 9.49-28.43s-13.29-16.1-13.29-16.1zM1074.58 330a52.52 52.52 0 01-2.55 13.26c-2.1-5.42-1.43-9.26 2.55-13.26z" fill="#f6e0cf"/><path d="M1079.65 318.2c3.68 2.46 7 3.67 9.3 1.91 3.73-2.9 11.46-20.08 11.7-20.62-13.34 9.9-21.4-13.21-35.7-8-11.77 4.28-21.47 17.25-21.47 20.63 0 0 13.89-11.37 18.1-8.84s11.6 10.62 18.07 14.92zm-5.07 11.8c-4 4-4.65 7.87-2.55 13.26a52.52 52.52 0 002.55-13.26z" fill="#73584d"/><path d="M1100.66 418.64c10.86-8 23.66-2.74 23.66-2.74l.66-.29.36-.16 2.33-1.05c-6.67-10.93-22.13-11.68-27.01 4.24z" fill="#936c5c"/><path d="M1125 415.61l.36-.16c10.56-4.6 24.13-10.31 27.4-18.5-16.34-35.4-23.64-29.29-29.37-38.84s-19-25.22-29.37-29.37c11.7-15.2 14.59-22.39 5.69-41.68-5.69-12.32-36-74.84-55.9-88.11S990 164.85 941.12 163s-101 4.74-134.17 34.11-50.21 46.42-55 80.52-2.84 87.81 11.37 109.75c10.57 16.19 16.68 24.62 19.3 36.08 4.43 18.92-.45 45.94-9.77 129.81L999.27 612s0-31.26 16.1-37.89c3-1.24 7.36-1.85 12.53-2.05 22.53-.9 60.46 5.91 68.94 2.05 32.93-15 45.48-29.83 25.58-59.68 0 0 14.24-19.9 9.49-28.43s-13.28-16.1-13.28-16.1c11-31.87 9.37-39.27 5.69-54m-5.69 54h-45.47m0-10v17.68m-45.26-57.26c-1.57 3.14-16.08 3.91 0 43.37m-22.32-27.37l15.93-8.69" fill="none" stroke="#4c4745" stroke-miterlimit="10"/><path d="M958.84 360.53C962.21 359.69 974 358 974 358s16 20.21 35 26.52m82.9 5.48s-13.48 13.08-10.53 19.38a21.83 21.83 0 008.42 9.25m34.53-2.73s-12.8-5.26-23.66 2.74c4.88-15.92 20.33-15.17 27-4.24l-2.33 1.05m-24.67-115.97h0c-13.34 9.9-21.4-13.21-35.7-8-11.77 4.28-21.47 17.25-21.47 20.63 0 0 13.89-11.37 18.1-8.84s11.6 10.63 18.07 14.93c3.68 2.46 7 3.67 9.3 1.91 3.73-2.9 11.46-20.08 11.7-20.62" fill="none" stroke="#4c4745" stroke-miterlimit="10"/><path d="M1045.58 339.06a68.65 68.65 0 0010.9-3.2 50.11 50.11 0 0023.17-17.66h0" fill="none" stroke="#4c4745" stroke-miterlimit="10"/><path d="M1056.48 335.86c7 15 12.42 15.71 15.55 7.37a52.52 52.52 0 002.55-13.26q.27-2.89.39-6.15" fill="none" stroke="#4c4745" stroke-miterlimit="10"/><path fill="none" stroke="#4c4745" stroke-miterlimit="10" d="M1069.16 347.9l3.68 5.26-10.21 23.37M782.7 423.46c12.28-15.14 6.13-16.38 45-38.93 0 0 3.31-3.83 3.76-8a6.87 6.87 0 00-1.45-5.26c-4.42-5.48-1.89-20.42 2.53-32.21s12.63-15.37 20.84-18.3 35.37 7.86 35.37 7.86c15.94 9.38 6.81 3.86 41.87 25.39 7-7.64 13.83-11.74 20.6-12 9.65-40.45 7.46-50.14 54.37-66.95-13.67-19.74-27.59-8.78-39.8-76.06h78"/><path d="M879.27 384.53s-12-8-11.37-13.26 20.21-22.67 20.21-22.67-3.16-13.14-13.27-12.39-21.68-2.11-32.84 2.85M838.21 358s6.95 13.26 9.48 18.52m55.58-5.25v9.26s-8.21 6.32-8.21 9.48 1.89 7.57 4.1 8.21m23.68 13.89s.54 20.19-9.12 26.54c-5.13 3.37-13.13 2.84-25.61-6.67-36-27.45-56.66-55.45-56.66-55.45m91.4 75.37c.63 2.53-9.06 40.42 10.73 52.21m94.32 67.95s-71.67-33-86.78-48.16" fill="none" stroke="#4c4745" stroke-miterlimit="10"/><path d="M568.18 354.64c-21.09 3.64-24 6.43-37 14.06l32.63 7.58c.39-.71.78-1.47 1.16-2.26 2.63-5.37 5-12.27 3.72-17.74a10.55 10.55 0 00-.48-1.57zm-186.26 72.2h-3.82c-10.5 17.25-18.46 22-49.37-3.22 0 0-6.63-11.94-16.1-27.1s-17.05-47.37-17.05-60.21 17.05-24.11 34.1-24.48 33.16 9.85 43.37 14.55 14.42 36 14.42 36l34.11-7.38s-2.85-19.16 1.89-23.9 36.95-4.77 36.95-4.77l-17.69-9.44 30.95-5.11-47.37-56.47 11.23-15.16h-20.7l39.79-21.79-39.79 7.64c59.19-30.22 83.23-41 138.53-30.69C569 213 579.09 236.63 583.58 248.7c6.73 18.11 9.68 58.11 12.63 66.95 2.54 7.63 16.48 21.32 2.52 39.58-5.47 7.15-1.68 21.47.42 25.28s12.64 34.93 16.85 45 6.31 22.4 8 29.55c5.43 23.09-10.54 20.74-22.32 18.44-2.27-17.35-17-20.09-22.31-17.67-11.22 5.1.08-2.62 8.84 8.46 3.53 4.47 3.75 6.84 3.26 8a1.42 1.42 0 00-1.16 1.18c-21.24 33.84-20.92 25.32-26.52 29-1.27.85-2.53 9.27-4.63 13.9s-14.32 5-21.9 10.1-22.32 21.06-21.47 29.06-9.9 14.21-24.11 18-44.52-7.58-44.52-7.58c-21.07-17.32-38.74-24.54-74.11-104.74 0-4.9 8.82-4.68 8.87-34.37zm192.81-97c7.49-3.58 13.79-5.86 13.48-18-25.46 0-1.49 6.64-54.84 29.05 31.34-5.08 26.88-4.11 41.36-11.03z" fill="#f2dacd"/><path d="M601.68 473.53c-4.48-.87-8.35-1.73-10.21-1.17.49-1.2.27-3.57-3.26-8-8.76-11.08-20.06-3.36-8.84-8.46 5.32-2.46 20.04.28 22.31 17.63zm-13.47-161.67c.31 12.14-6 14.42-13.48 18-14.48 6.92-10 5.95-41.36 11.05 53.35-22.41 29.38-29.05 54.84-29.05zm-19.54 44.42c1.26 5.47-1.09 12.37-3.72 17.74-1.75-2.02-2.5-12.93 3.72-17.74z" fill="#591f00"/><path d="M568.19 354.71a10.55 10.55 0 01.48 1.57C562.45 361.09 563.2 372 565 374c-.38.79-.77 1.55-1.16 2.26l-32.63-7.58c13-7.63 15.93-10.42 37-14.06z" fill="#fdffec"/><path d="M532.63 175.44c8.28 3.65 16 11 22.74 19.83-55.3-10.27-79.37.47-138.53 30.73l39.79-7.58-39.79 21.79h20.7l-11.23 15.16 47.37 56.47-30.95 5.11 17.69 9.44s-32.21 0-36.95 4.77-1.89 23.9-1.89 23.9l-34.11 7.36s-4.21-31.32-14.42-36-26.32-14.93-43.37-14.55-34.1 11.64-34.1 24.48 7.58 45.05 17.05 60.21 16.1 27.1 16.1 27.1l-43.68 33.53h-.14c1.5-27.79-.66-17.58-9.12-52.2-4.63-19-16.84-36.63-27.37-90.53s51.37-98.94 51.37-98.94c-21.24-2.8-22.29-1 2.52-5.48-3.34-30.61-5.72-28.82 6.74-6.73 0 0 14.32-41.69 11.79-32.85s-1.26 14.32 0 11.37 34.53-18.52 77.05-25.68 109.9 8.34 134.74 19.29z" fill="#8d7160"/><path d="M447.16 566.07v59.68l-167.58-75.16c2.58-51.63 4.5-78.26 5.33-93.48h.14l43.68-33.53c30.91 25.19 38.87 20.47 49.37 3.22h3.82c-.05 29.69-8.87 29.47-8.87 34.49 35.37 80.24 53.04 87.46 74.11 104.78z" fill="#f2dacd"/><path d="M284.91 457.11c-.83 15.22-2.75 41.85-5.33 93.48l167.58 75.16v-59.68s30.31 11.37 44.52 7.58 24.95-10 24.11-18 13.89-24 21.47-29.06 19.79-5.47 21.9-10.1 3.36-13.05 4.63-13.9c5.6-3.73 5.28 4.79 26.52-29a1.42 1.42 0 011.16-1.18c1.86-.56 5.73.3 10.21 1.17 11.78 2.3 27.75 4.65 22.32-18.44-1.69-7.15-3.79-19.44-8-29.55s-14.74-41.23-16.85-45-5.89-18.13-.42-25.28c14-18.26 0-32-2.52-39.58-3-8.84-5.9-48.84-12.63-66.95-4.49-12.07-14.6-35.75-28.21-53.43-6.79-8.84-14.46-16.18-22.74-19.83-24.84-10.95-92.21-26.53-134.74-19.37s-75.79 22.74-77.05 25.68-2.53-2.52 0-11.37-11.79 32.85-11.79 32.85c-12.46-22.09-10.08-23.88-6.74 6.73-24.81 4.52-23.76 2.68-2.52 5.48 0 0-61.9 45.05-51.37 98.94s22.74 71.58 27.37 90.53c8.46 34.54 10.62 24.33 9.12 52.12z" fill="none" stroke="#6c3315" stroke-linecap="round" stroke-linejoin="round"/><path d="M381.89 423.59v3.25c-.05 29.69-8.87 29.47-8.87 34.49 35.37 80.2 53 87.42 74.11 104.74m154.55-92.53h0c-2.27-17.35-17-20.09-22.31-17.67-11.22 5.1.08-2.62 8.84 8.46 3.53 4.47 3.75 6.84 3.26 8a2 2 0 01-1.16 1.18m-2.1-44.6s-19.79 8.42-20.63 17.26 0 13.48 0 13.48m-19.79 0s-16 29.09-33.27 35.18m0 13.66c19.33-15.88 15.58-12 19.79-18.53l29.48 12.63m24.42-166.31l-10.51 16.84c-3.54.53-6.7 1-9.52 1.52-21.09 3.64-24 6.43-37 14.06l32.63 7.58c.39-.71.78-1.47 1.16-2.26 2.63-5.37 5-12.27 3.72-17.74a10.55 10.55 0 00-.48-1.57m-4.42 21.57L552 390l-8.84-8.12M552 390l3.37 6.49m32.84-84.63c-25.46 0-1.49 6.64-54.84 29.05 31.34-5.1 26.88-4.13 41.36-11.05 7.49-3.58 13.79-5.86 13.48-18zm-32.84-116.59C500.07 185 476 195.74 416.84 226l39.79-7.58-39.79 21.79h20.7l-11.23 15.16 47.37 56.47-30.95 5.11 17.69 9.44s-32.21 0-36.95 4.77-1.89 23.9-1.89 23.9l-34.11 7.36s-4.21-31.32-14.42-36-26.32-14.93-43.37-14.55-34.1 11.64-34.1 24.48 7.58 45.05 17.05 60.21 16.1 27.1 16.1 27.1l-43.68 33.53" fill="none" stroke="#6c3315" stroke-linecap="round" stroke-linejoin="round"/><path fill="none" stroke="#6c3315" stroke-linecap="round" stroke-linejoin="round" d="M373.05 350.07l-17.18-9.16-30.92-16.48-19.9 11.85m34 13.79l16.82-9.16m6.97 22.42c-5.41 18.4-.06 21.72 4.74 27.48l-6.85 8.84-21.68-12m-10.32 35.94c30.91 25.19 38.87 20.47 49.37 3.22"/></svg>