<svg xmlns="http://www.w3.org/2000/svg" viewBox="0 0 700 700"><path fill="#05577f" d="M-.2 0h700v700H-.2z"/><path d="M566.48 198.81c24-15 33.08-8.77 26.11 41.76s-25.32 111.58-45.85 119.32L562 235.42z" fill="#ecbeb1"/><path d="M579.05.17a805.56 805.56 0 01-12.57 198.64L562 235.42C545.65 104.51 484.4 11.5 393.78 11.5V.17z" fill="#1e040f"/><path d="M439.83 202.06c-15.91 9.75-30.23 29.4-38.09 59.46q-3.78 7.73-7.25 16.91c23-5 41 4.71 60.26 1.51.83 0 1.65 0 2.47-.12 29-1.62 48.66-12 59.28-30.86-1-.91-2-1.82-3-2.7a101.29 101.29 0 00-2.83-10.84l3.67-2.5L534 219.5l-22.18 8.66L525.79 213a124.84 124.84 0 01-20.31 10c-14.57-27.91-41.87-35.45-65.63-20.9zm-254.17 30.86l3.67 2.5a101.29 101.29 0 00-2.83 10.84c-1 .88-2 1.79-3 2.7 10.62 18.87 30.31 29.24 59.28 30.86.82.08 1.64.12 2.47.12 19.25 3.2 37.3-6.52 60.26-1.51q-3.47-9.19-7.25-16.91c-7.86-30-22.17-49.7-38.08-59.45-23.76-14.57-51.06-7-65.64 20.89a124.84 124.84 0 01-20.33-9.96l13.93 15.14L166 219.5zm376.34 2.5l-15.26 124.47c-7.49 61.17-33.67 127.6-64.58 168.31l-10.28-5.69 5.41-17.23-22.54-10.43v-36.16l19.83-10.86-7.35-18.56-12.48 6.73v-18.22h-209.5V436l-12.48-6.72v.09l-.17-.09-7.35 18.56 20 11v36.05l-22.54 10.43 5.41 17.23-13.4 1.45c-29.55-41-54.22-105-61.46-164.08L138 235.42c18.84-151 97.47-251.6 212-217.14a151.7 151.7 0 0143.78-6.78c90.62 0 151.87 93 168.21 223.92zm-160.26-35.36c44.62-26.43 89.59-42.3 135.39-32.7-43.84-22.39-81-14.88-141.35 16.35-5.41 3.53-.65 20.47 5.96 16.35zm-23.31 187c-.21-.22-6.09-3.09-11.12-1.21s-5.25 4.67-6.87 7.62c0 0 12.12-1.02 17.99-6.41zm-38.87 6.41c-1.62-3-1.84-5.74-6.87-7.62s-10.91 1-11.12 1.21c5.87 5.39 17.99 6.41 17.99 6.41zm-41.3-193.41c6.61 4.12 11.37-12.82 6-16.35-60.38-31.23-97.51-38.74-141.35-16.35 45.76-9.6 90.73 6.27 135.35 32.7z" fill="#ecbeb1"/><path d="M534 219.5l-19.7 13.42-3.67 2.5-5.59 3.8a134 134 0 00-18-12.1 67.5 67.5 0 0018-4l.35-.13a124.84 124.84 0 0020.4-9.99l-13.93 15.14z" fill="#211d1e"/><path d="M513.5 246.26c1 .88 2 1.79 3 2.7-10.62 18.87-30.31 29.24-59.28 30.86 15.76-1.43 28.17-16.49 28.17-34.87a38 38 0 00-6.84-22 88.6 88.6 0 018.56 4.19 134 134 0 0118 12.1q4.14 3.27 8.39 7.02z" fill="#f9f9f9"/><path d="M537.13 167.36c-45.8-9.6-90.77 6.27-135.39 32.7-6.61 4.12-11.37-12.82-6-16.35 60.42-31.23 97.55-38.71 141.39-16.35z" fill="#231f20"/><path d="M510.67 235.42a101.29 101.29 0 012.83 10.84q-4.25-3.75-8.42-7zM505.48 223l-.35.13c-23-22.62-44.74-29-65.28-21 23.76-14.63 51.06-7.13 65.63 20.87z" fill="#897076"/><path d="M505.13 223.08a67.5 67.5 0 01-18 4 88.6 88.6 0 00-8.56-4.19c-18.28-7.76-35.05-7-49.83 3.58-9.93 7.11-19 18.65-27 35 7.86-30.06 22.18-49.71 38.09-59.46 20.56-7.95 42.27-1.55 65.3 21.07z" fill="#897076"/><path d="M474.2 538l13.15 161.85h-274.7L225.8 538c33.46 43.8 63.17 77.68 121.61 78.64h5.18c58.41-.98 88.15-34.86 121.61-78.64z" fill="#ecbeb1"/><path d="M478.55 222.93a38 38 0 016.84 22c0 18.38-12.41 33.44-28.17 34.87-.81.05-1.64.08-2.47.12-16.92 0-30.63-15.66-30.63-35a38.47 38.47 0 014.6-18.44c14.78-10.55 31.55-11.31 49.83-3.55zm-13.13 22.5c0-7-5-12.67-11.08-12.67a10 10 0 00-5.57 1.71c-.82-3.59-3.68-6.24-7.08-6.24-4 0-7.31 3.74-7.31 8.36s3.27 8.36 7.31 8.36a6.23 6.23 0 001.56-.19v.67c0 7 5 12.67 11.1 12.67s11.07-5.67 11.07-12.67z" fill="#05577f"/><path d="M471.88 522.51l10.28 5.69q-3.95 5.17-8 9.78c-33.42 43.76-67.67 77.59-121.61 78.64h-5.18c-53.94-1-88.19-34.88-121.61-78.64q-5.62-6.43-11.08-14l13.4-1.46 17.13-8.11v14.74h209.5V514.4z" fill="#ecbeb1"/><path fill="#d9d2d9" d="M477.29 505.28l-5.41 17.23-17.13-8.11-30.47-14.42 6.19-16.36 24.28 11.23 22.54 10.43zm-10.06-76.01l7.35 18.56-19.83 10.86-26.98 14.77-7.35-19 34.33-18.47 12.48-6.72z"/><path d="M454.34 232.76c6.12 0 11.08 5.67 11.08 12.67s-5 12.67-11.08 12.67-11.1-5.67-11.1-12.67v-.67c3.29-.81 5.76-4.16 5.76-8.17a9.25 9.25 0 00-.24-2.12 10 10 0 015.58-1.71z" fill="#231f20"/><path fill="#f3e9f2" d="M454.75 514.4v14.74h-209.5V514.4l30.47-14.42-6.19-16.36-24.28 11.23V458.8l26.77 14.66 7.36-19-46.65-25.1.04-.09 12.48 6.72v-18.21h209.5v18.21l-34.33 18.47 7.35 19 26.98-14.77v36.16l-24.28-11.23-6.19 16.36 30.47 14.42z"/><path d="M449 236.59c0 4-2.47 7.36-5.76 8.17a6.23 6.23 0 01-1.56.19c-4 0-7.31-3.74-7.31-8.36s3.27-8.36 7.31-8.36c3.4 0 6.26 2.65 7.08 6.24a9.25 9.25 0 01.24 2.12z" fill="#fff"/><path d="M454.75 279.94c-19.25 3.2-37.3-6.52-60.26-1.51q3.47-9.19 7.25-16.91c8-16.36 17.05-27.9 27-35a38.47 38.47 0 00-4.6 18.44c-.02 19.32 13.69 34.98 30.61 34.98z" fill="#f9f9f9"/><path d="M474.2 538c-33.46 43.8-63.17 77.68-121.61 78.64 53.94-1.07 88.19-34.9 121.61-78.64z" fill="#ecbeb1"/><path d="M393.78.17V11.5A151.7 151.7 0 00350 18.28C235.48-16.18 156.85 84.39 138 235.42l-4.49-36.61A805.56 805.56 0 01121 .17z" fill="#1e040f"/><path d="M367.31 385.85c5-1.88 10.91 1 11.12 1.21-5.87 5.39-18 6.41-18 6.41 1.63-2.95 1.85-5.74 6.88-7.62zm-34.62 0c5 1.88 5.25 4.67 6.87 7.62 0 0-12.12-1-18-6.41.22-.22 6.1-3.06 11.13-1.21z" fill="#1e1e1e"/><path d="M304.22 183.71c5.41 3.53.65 20.47-6 16.35-44.62-26.43-89.59-42.3-135.39-32.7 43.88-22.36 81.01-14.88 141.39 16.35z" fill="#231f20"/><path d="M298.26 261.52q3.78 7.73 7.25 16.91c-23-5-41 4.71-60.26 1.51 16.92 0 30.63-15.66 30.63-35a38.47 38.47 0 00-4.6-18.44c9.93 7.12 18.98 18.66 26.98 35.02z" fill="#f9f9f9"/><path d="M298.26 261.52c-8-16.36-17.05-27.9-27-35-14.78-10.58-31.55-11.34-49.83-3.58a88.6 88.6 0 00-8.56 4.19 67.5 67.5 0 01-18-4c23-22.63 44.75-29 65.29-21 15.93 9.69 30.24 29.35 38.1 59.39z" fill="#897076"/><path d="M225.8 538c33.42 43.76 67.67 77.59 121.61 78.64-58.41-.98-88.15-34.86-121.61-78.64z" fill="#ecbeb1"/><path fill="#d9d2d9" d="M279.38 454.46l-7.36 19-26.77-14.66v-.11l-19.83-10.86 7.31-18.47 46.65 25.1zm-9.85 29.16l6.19 16.36-30.47 14.42-17.12 8.11-5.42-17.23 22.54-10.43 24.28-11.23z"/><path d="M271.28 226.51a38.47 38.47 0 014.6 18.44c0 19.33-13.71 35-30.63 35-.83 0-1.66-.07-2.47-.12-15.78-1.44-28.17-16.5-28.17-34.83a38 38 0 016.84-22c18.28-7.83 35.05-7.07 49.83 3.51zm-14.52 18.92c0-7-5-12.67-11.1-12.67a9.89 9.89 0 00-4.88 1.3 7.51 7.51 0 00-7-5.83c-4 0-7.32 3.74-7.32 8.36s3.28 8.36 7.32 8.36a5.16 5.16 0 00.79 0v.53c0 7 5 12.67 11.08 12.67s11.11-5.72 11.11-12.72z" fill="#05577f"/><path d="M245.66 232.76c6.13 0 11.1 5.67 11.1 12.67s-5 12.67-11.1 12.67-11.08-5.67-11.08-12.67v-.53c3.67-.44 6.53-4 6.53-8.31a9.54 9.54 0 00-.34-2.53 9.89 9.89 0 014.89-1.3z" fill="#231f20"/><path d="M260.16 202.06c-20.54-8-42.25-1.61-65.29 21l-.35-.13c14.58-27.93 41.88-35.44 65.64-20.87z" fill="#897076"/><path d="M241.12 236.59c0 4.32-2.86 7.87-6.53 8.31a5.16 5.16 0 01-.79 0c-4 0-7.32-3.74-7.32-8.36s3.28-8.36 7.32-8.36a7.51 7.51 0 017 5.83 9.54 9.54 0 01.32 2.58z" fill="#fff"/><path d="M214.61 245c0 18.38 12.41 33.44 28.17 34.87-29-1.62-48.66-12-59.28-30.86 1-.91 2-1.82 3-2.7q4.25-3.75 8.42-7a134 134 0 0118-12.1 88.6 88.6 0 018.56-4.19 38 38 0 00-6.87 21.98z" fill="#f9f9f9"/><path d="M212.89 227.12a134 134 0 00-18 12.1l-5.59-3.8-3.67-2.5L166 219.5l22.18 8.66L174.21 213a124.84 124.84 0 0020.31 10l.35.13a67.5 67.5 0 0018.02 3.99z" fill="#211d1e"/><path d="M189.33 235.42l5.59 3.8q-4.17 3.28-8.42 7a101.29 101.29 0 012.83-10.8z" fill="#897076"/><path d="M138 235.42l15.25 124.47c-20.53-7.74-38.89-68.8-45.85-119.32s2.09-56.78 26.11-41.76z" fill="#ecbeb1"/><path fill="none" stroke="#000" stroke-linecap="round" stroke-linejoin="round" stroke-width="1.68" d="M232.73 429.36l46.65 25.1-7.36 19-26.77-14.66-20.04-10.97 7.35-18.56.17.09z"/><path fill="none" stroke="#000" stroke-linecap="round" stroke-linejoin="round" stroke-width="1.96" d="M474.2 537.98l13.15 161.85h-274.7l13.15-161.85m340.68-339.17c24-15 33.08-8.77 26.11 41.76s-25.32 111.58-45.85 119.32m-97.97-125.42a10 10 0 015.57-1.71c6.12 0 11.08 5.67 11.08 12.67s-5 12.67-11.08 12.67-11.1-5.67-11.1-12.67v-.67m13.98 35.06c15.76-1.43 28.17-16.49 28.17-34.87a38 38 0 00-6.84-22m-49.83 3.56a38.47 38.47 0 00-4.6 18.44c0 19.33 13.71 35 30.63 35m0-.01c.83 0 1.66-.07 2.47-.12"/><path d="M487.11 227.12a88.6 88.6 0 00-8.56-4.19c-18.28-7.76-35.05-7-49.83 3.58-9.93 7.11-19 18.65-27 35m111.78-15.25q-4.25-3.75-8.42-7" fill="none" stroke="#000" stroke-linecap="round" stroke-linejoin="round" stroke-width="1.96"/><path d="M510.67 235.42l-5.59 3.8a134 134 0 00-18-12.1 67.5 67.5 0 0018-4l.35-.13m-65.58-20.94c20.54-8 42.25-1.59 65.28 21m-116.57 31.8c16.26-27.8 33.31-45.78 51.27-52.79m81.06 38.79q-3.3-4.18-6.55-7.93M386.37 356.35c11.18 19.37 16.71 36.47 0 44.63m68.38 57.71l-26.98 14.77-7.35-19 34.33-18.47m0 78.41l-30.47-14.42 6.19-16.36 24.28 11.23" fill="none" stroke="#000" stroke-linecap="round" stroke-linejoin="round" stroke-width="1.96"/><path d="M153.26 359.89C160.5 419 185.17 483 214.72 524q5.44 7.56 11.08 14c33.46 43.8 63.17 77.68 121.61 78.64h5.18c58.44-1 88.15-34.84 121.61-78.64q4-4.61 8-9.78c30.91-40.71 57.09-107.14 64.58-168.31" fill="none" stroke="#000" stroke-linecap="round" stroke-linejoin="round" stroke-width="1.96"/><path d="M378.43 387.06c-5.87 5.39-18 6.41-18 6.41 1.62-3 1.84-5.74 6.87-7.62s10.92.99 11.13 1.21zM260.18 202.07c15.91 9.75 30.22 29.41 38.08 59.45M194.52 223c14.58-27.92 41.88-35.46 65.64-20.89m-73.66 44.15a101.29 101.29 0 012.83-10.84m43.4 193.94l.04-.09 12.48 6.72v-18.21h209.5v18.21l12.48-6.72 7.35 18.56-19.83 10.86v36.16l22.54 10.43-5.41 17.23-17.13-8.11v14.74h-209.5V514.4m0-19.55V458.8m269.09-225.88l-3.67 2.5a101.29 101.29 0 012.83 10.84c1 .88 2 1.79 3 2.7-10.62 18.87-30.31 29.24-59.28 30.86-.82.08-1.64.12-2.47.12-19.25 3.2-37.3-6.52-60.26-1.51q3.47-9.19 7.25-16.91c7.86-30.06 22.18-49.71 38.09-59.46h0c23.76-14.55 51.06-7 65.63 20.9m31.67-55.6c-45.8-9.6-90.77 6.27-135.39 32.7-6.61 4.12-11.37-12.82-6-16.35 60.42-31.23 97.55-38.71 141.39-16.35z" fill="none" stroke="#000" stroke-linecap="round" stroke-linejoin="round" stroke-width="1.96"/><path d="M448.77 234.47a9.25 9.25 0 01.24 2.12c0 4-2.47 7.36-5.76 8.17a6.23 6.23 0 01-1.56.19c-4 0-7.31-3.74-7.31-8.36s3.27-8.36 7.31-8.36c3.4 0 6.31 2.65 7.08 6.24zm-310.77.95l15.25 124.47c-20.53-7.74-38.89-68.8-45.85-119.32s2.09-56.78 26.11-41.76m107.27 35.25a9.89 9.89 0 014.88-1.3c6.13 0 11.1 5.67 11.1 12.67s-5 12.67-11.1 12.67-11.08-5.67-11.08-12.67v-.53" fill="none" stroke="#000" stroke-linecap="round" stroke-linejoin="round" stroke-width="1.96"/><path d="M221.45 222.93a38 38 0 00-6.84 22c0 18.38 12.41 33.44 28.17 34.87.82.08 1.64.12 2.47.12 16.92 0 30.63-15.66 30.63-35a38.47 38.47 0 00-4.6-18.44" fill="none" stroke="#000" stroke-linecap="round" stroke-linejoin="round" stroke-width="1.96"/><path d="M194.92 239.22q-4.17 3.28-8.42 7c-1 .88-2 1.79-3 2.7 10.62 18.87 30.31 29.24 59.28 30.86.81.05 1.64.08 2.47.12 19.25 3.2 37.3-6.52 60.26-1.51q-3.47-9.19-7.25-16.91c-8-16.36-17.05-27.9-27-35-14.78-10.58-31.55-11.34-49.83-3.58a88.6 88.6 0 00-8.56 4.19" fill="none" stroke="#000" stroke-linecap="round" stroke-linejoin="round" stroke-width="1.96"/><path d="M234.59 244.9a5.16 5.16 0 01-.79 0c-4 0-7.32-3.74-7.32-8.36s3.28-8.36 7.32-8.36a7.51 7.51 0 017 5.83 9.54 9.54 0 01.34 2.53c-.02 4.37-2.88 7.92-6.55 8.36zm-21.7-17.78a134 134 0 00-18 12.1l-5.59-3.8-3.67-2.5L166 219.5l22.18 8.66L174.21 213a124.84 124.84 0 0020.31 10l.35.13a67.5 67.5 0 0018.02 3.99z" fill="none" stroke="#000" stroke-linecap="round" stroke-linejoin="round" stroke-width="1.96"/><path d="M194.87 223.08c23-22.63 44.75-29 65.29-21h0c18 7 35 25 51.26 52.78m-125.76-21.94q-3.25 3.75-6.55 7.93m125.11-57.14c5.41 3.53.65 20.47-6 16.35-44.62-26.43-89.59-42.3-135.39-32.7 43.88-22.36 81.01-14.88 141.39 16.35zm28.47 202.14c5 1.88 5.25 4.67 6.87 7.62 0 0-12.12-1-18-6.41.22-.22 6.1-3.06 11.13-1.21zm-19.06-29.5c-11.18 19.37-16.71 36.47 0 44.63" fill="none" stroke="#000" stroke-linecap="round" stroke-linejoin="round" stroke-width="1.96"/><path d="M546.74 359.89L562 235.42h0C545.65 104.51 484.4 11.5 393.78 11.5A151.7 151.7 0 00350 18.28C235.48-16.18 156.85 84.39 138 235.42l-4.49-36.61A805.56 805.56 0 01121 .17h458.1a805.56 805.56 0 01-12.57 198.64L562 235.42M245.25 494.85l24.28-11.23 6.19 16.36-30.47 14.42-17.12 8.11-5.42-17.23 22.54-10.43z" fill="none" stroke="#000" stroke-linecap="round" stroke-linejoin="round" stroke-width="1.96"/></svg>