<svg xmlns="http://www.w3.org/2000/svg" viewBox="0 0 1400 780"><path fill="#05577f" d="M0 .19h1400V780H0z"/><path d="M975.51 221.53c30.57-16.73 42.1-9.77 33.23 46.53s-32.22 124.33-58.35 133l19.41-138.73z" fill="#ecbeb1"/><path d="M991.5.19c5.34 75.21-.54 148.91-16 221.34l-5.71 40.79C949 116.45 871.05 12.81 755.72 12.81V.19z" fill="#1e040f"/><path d="M814.32 225.15c-20.24 10.86-38.47 32.77-48.47 66.26a204.39 204.39 0 00-9.23 18.84c29.22-5.59 52.2 5.24 76.7 1.68 1 0 2.09 0 3.13-.13 36.88-1.81 61.93-13.36 75.45-34.38q-1.92-1.55-3.82-3a101.08 101.08 0 00-3.6-12.08l4.67-2.79 25.07-15-28.22 9.69 17.73-16.88a168.3 168.3 0 01-25.84 11.07c-18.55-31.1-53.3-39.5-83.53-23.28zm-323.47 34.39l4.67 2.79a101.08 101.08 0 00-3.6 12.08q-1.91 1.47-3.82 3c13.52 21 38.57 32.57 75.45 34.38 1 .09 2.08.13 3.13.13 24.5 3.56 47.48-7.27 76.7-1.68a204.39 204.39 0 00-9.23-18.84c-10-33.48-28.22-55.38-48.46-66.25-30.24-16.23-65-7.83-83.55 23.28a168.3 168.3 0 01-25.84-11.07l17.7 16.88-28.23-9.65zm478.95 2.79L950.39 401c-9.53 68.16-42.85 142.19-82.2 187.55l-13.08-6.34L862 563l-28.68-11.61v-40.3L858.55 499l-9.35-20.68-15.88 7.48v-20.27H566.68v20.28l-15.88-7.48v.1l-.22-.1-9.4 20.67 25.5 12.22v40.18L538 563l6.89 19.21-17.06 1.63c-37.6-45.66-69-117-78.22-182.84L430.2 262.32C454.18 94 554.25-18 700 20.37a218.67 218.67 0 0155.72-7.56c115.33 0 193.28 103.64 214.08 249.51zm-203.95-39.41c56.78-29.45 114-47.14 172.31-36.44-55.8-24.95-103.06-16.57-179.9 18.22-6.89 3.94-.82 22.82 7.59 18.22zM736.18 431.3c-.27-.25-7.75-3.45-14.15-1.36s-6.68 5.21-8.74 8.5c0 0 15.42-1.14 22.89-7.14zm-49.47 7.14c-2.06-3.29-2.33-6.4-8.74-8.5s-13.88 1.11-14.15 1.36c7.47 6 22.89 7.14 22.89 7.14zm-52.56-215.52c8.41 4.6 14.48-14.28 7.59-18.22-76.84-34.79-124.1-43.17-179.9-18.22 58.3-10.7 115.53 6.99 172.31 36.44z" fill="#ecbeb1"/><path d="M934.22 244.59l-25.07 15-4.67 2.79-7.11 4.23a175.68 175.68 0 00-22.87-13.49 96.33 96.33 0 0022.93-4.49l.45-.15a168.3 168.3 0 0025.84-11.07L906 254.24z" fill="#211d1e"/><path d="M908.08 274.41q1.9 1.47 3.82 3c-13.52 21-38.57 32.57-75.45 34.38a39 39 0 0027.16-63.4c3.58 1.34 7.22 2.9 10.89 4.67a175.68 175.68 0 0122.87 13.49q5.31 3.66 10.71 7.86z" fill="#f9f9f9"/><path d="M938.16 186.48c-58.3-10.7-115.53 7-172.31 36.44-8.41 4.6-14.48-14.28-7.59-18.22 76.84-34.79 124.1-43.17 179.9-18.22z" fill="#231f20"/><path d="M904.48 262.33a101.08 101.08 0 013.6 12.08q-5.4-4.2-10.71-7.85zm-6.6-13.9l-.45.15c-29.31-25.21-56.94-32.35-83.08-23.43 30.23-16.22 64.98-7.82 83.53 23.28z" fill="#897076"/><path d="M897.43 248.58a96.33 96.33 0 01-22.93 4.49c-3.67-1.77-7.31-3.33-10.89-4.67-23.28-8.64-44.62-7.79-63.43 4-12.64 7.92-24.15 20.77-34.33 39 10-33.49 28.23-55.4 48.47-66.26 26.17-8.91 53.8-1.77 83.11 23.44z" fill="#897076"/><path d="M858.06 599.46l16.74 180.35H525.2l16.74-180.35c42.57 48.81 80.39 86.56 154.77 87.63h6.58c74.38-1.09 112.2-38.82 154.77-87.63z" fill="#ecbeb1"/><path d="M863.61 248.4a39 39 0 01-27.16 63.4l-3.13.13a39 39 0 01-33.14-59.53c18.82-11.79 40.15-12.64 63.43-4zm-16.71 25.08a14.12 14.12 0 00-14.11-14.12 13.94 13.94 0 00-7.08 1.91 9.3 9.3 0 10-7 11.47v.74a14.12 14.12 0 1028.23 0z" fill="#05577f"/><path d="M855.11 582.23l13.08 6.34q-5 5.76-10.13 10.89c-42.52 48.76-86.11 86.46-154.77 87.63h-6.58c-68.66-1.17-112.25-38.87-154.77-87.63-4.78-4.77-9.49-10-14.11-15.6l17.06-1.63 21.79-9v16.42h266.64v-16.46z" fill="#ecbeb1"/><path fill="#d9d2d9" d="M862 563.02l-6.89 19.21-21.79-9.04-38.79-16.07 7.89-18.23 30.9 12.52L862 563.02zm-12.8-84.69l9.35 20.68-25.23 12.1-34.35 16.46-9.35-21.17 43.7-20.59 15.88-7.48z"/><path d="M832.79 259.36a14.12 14.12 0 11-14.12 14.12v-.74a9.32 9.32 0 007.33-9.11 9.14 9.14 0 00-.3-2.36 13.94 13.94 0 017.09-1.91z" fill="#231f20"/><path fill="#f3e9f2" d="M833.32 573.19v16.42H566.68v-16.42l38.79-16.07-7.89-18.23-30.9 12.52v-40.18l34.08 16.34 9.36-21.17-59.37-27.97.05-.1 15.88 7.48v-20.28h266.64v20.28l-43.7 20.59 9.35 21.17 34.35-16.46v40.3l-30.9-12.52-7.89 18.23 38.79 16.07z"/><path d="M826 263.63a9.3 9.3 0 11-.3-2.36 9.14 9.14 0 01.3 2.36z" fill="#fff"/><path d="M833.32 311.93c-24.5 3.56-47.48-7.27-76.7-1.68a204.39 204.39 0 019.23-18.84c10.18-18.24 21.69-31.09 34.33-39a39 39 0 0033.14 59.53z" fill="#f9f9f9"/><path d="M858.06 599.46c-42.57 48.81-80.39 86.56-154.77 87.63 68.71-1.17 112.25-38.87 154.77-87.63z" fill="#ecbeb1"/><path d="M755.72.19v12.62A218.67 218.67 0 00700 20.37C554.25-18 454.18 94 430.2 262.32l-5.71-40.79C409 149.1 403.16 75.4 408.5.19z" fill="#1e040f"/><path d="M722 429.94c6.4-2.09 13.88 1.11 14.15 1.36-7.47 6-22.89 7.14-22.89 7.14 2.09-3.29 2.36-6.44 8.74-8.5zm-44 0c6.41 2.1 6.68 5.21 8.74 8.5 0 0-15.42-1.14-22.89-7.14.24-.25 7.72-3.45 14.15-1.36z" fill="#1e1e1e"/><path d="M641.74 204.7c6.89 3.94.82 22.82-7.59 18.22-56.78-29.45-114-47.14-172.31-36.44 55.8-24.95 103.06-16.57 179.9 18.22z" fill="#231f20"/><path d="M634.15 291.41a204.39 204.39 0 019.23 18.84c-29.22-5.59-52.2 5.24-76.7 1.68a39 39 0 0033.14-59.53c12.64 7.92 24.18 20.77 34.33 39.01z" fill="#f9f9f9"/><path d="M634.15 291.41c-10.18-18.24-21.69-31.09-34.33-39-18.81-11.79-40.15-12.64-63.43-4-3.58 1.34-7.22 2.9-10.89 4.67a96.33 96.33 0 01-22.93-4.49c29.32-25.22 57-32.35 83.1-23.43 20.26 10.84 38.48 32.77 48.48 66.25z" fill="#897076"/><path d="M541.94 599.46c42.52 48.76 86.11 86.46 154.77 87.63-74.38-1.09-112.2-38.82-154.77-87.63z" fill="#ecbeb1"/><path fill="#d9d2d9" d="M610.12 506.4l-9.36 21.17-34.08-16.34v-.12l-25.23-12.1 9.3-20.58 59.37 27.97zm-12.54 32.49l7.89 18.23-38.79 16.07-21.79 9.04-6.89-19.21 28.68-11.61 30.9-12.52z"/><path d="M599.82 252.4a39 39 0 01-33.14 59.53l-3.13-.13a39 39 0 01-27.16-63.4c23.28-8.64 44.61-7.79 63.43 4zm-18.49 21.08A14.11 14.11 0 00561 260.81a9.31 9.31 0 10-8.88 12.19 8.39 8.39 0 001-.06v.59a14.12 14.12 0 1028.23 0z" fill="#05577f"/><path d="M567.21 259.36a14.12 14.12 0 11-14.11 14.12v-.59a9.31 9.31 0 007.9-12.08 14 14 0 016.21-1.45z" fill="#231f20"/><path d="M585.67 225.15c-26.14-8.92-53.78-1.79-83.1 23.43l-.45-.15c18.56-31.11 53.31-39.51 83.55-23.28z" fill="#897076"/><path d="M561.43 263.63a9.31 9.31 0 01-8.31 9.26 8.39 8.39 0 01-1 .06 9.31 9.31 0 119.31-9.32z" fill="#fff"/><path d="M527.69 273a39 39 0 0035.86 38.85c-36.88-1.81-61.93-13.36-75.45-34.38q1.92-1.55 3.82-3 5.4-4.2 10.71-7.85a175.68 175.68 0 0122.87-13.49c3.67-1.77 7.31-3.33 10.89-4.67a38.83 38.83 0 00-8.7 24.54z" fill="#f9f9f9"/><path d="M525.5 253.07a175.68 175.68 0 00-22.87 13.49l-7.11-4.23-4.67-2.79-25.07-15 28.22 9.7-17.73-16.88a168.3 168.3 0 0025.84 11.07l.45.15a96.33 96.33 0 0022.94 4.49z" fill="#211d1e"/><path d="M495.52 262.33l7.11 4.23q-5.31 3.65-10.71 7.85a101.08 101.08 0 013.6-12.08z" fill="#897076"/><path d="M430.2 262.32L449.61 401c-26.13-8.63-49.49-76.66-58.35-133s2.66-63.26 33.23-46.53z" fill="#ecbeb1"/><path fill="none" stroke="#000" stroke-linecap="round" stroke-linejoin="round" stroke-width="2" d="M550.75 478.43l59.37 27.97-9.36 21.17-34.08-16.34-25.5-12.22 9.36-20.68.21.1z"/><path fill="none" stroke="#000" stroke-linecap="round" stroke-linejoin="round" stroke-width="2.34" d="M858.06 599.46L874.8 779.8H525.2l16.74-180.34m433.57-377.93c30.57-16.73 42.1-9.77 33.23 46.53s-32.22 124.33-58.35 133M825.71 261.27a13.94 13.94 0 017.08-1.91 14.12 14.12 0 11-14.12 14.12v-.74m17.78 39.06a39 39 0 0027.16-63.4m-63.43 4a39 39 0 0033.14 59.53m0 0l3.13-.13"/><path d="M874.5 253.07c-3.67-1.77-7.31-3.33-10.89-4.67-23.28-8.64-44.62-7.79-63.43 4-12.64 7.92-24.15 20.77-34.33 39m142.23-16.99q-5.4-4.2-10.71-7.85m7.11-4.23l-7.11 4.23a175.68 175.68 0 00-22.87-13.49 96.33 96.33 0 0022.93-4.49l.45-.15m-83.53-23.28c26.14-8.92 53.77-1.78 83.08 23.43M749.07 284c20.7-31 42.4-51 65.25-58.83m103.16 43.2q-4.18-4.65-8.33-8.83M746.28 397.08c14.24 21.58 21.28 40.63 0 49.73m87.04 64.3l-34.35 16.46-9.35-21.17 43.7-20.59m0 87.38l-38.79-16.07 7.89-18.23 30.9 12.52" fill="none" stroke="#000" stroke-linecap="round" stroke-linejoin="round" stroke-width="2.34"/><path d="M449.61 401c9.21 65.86 40.62 137.18 78.22 182.84 4.62 5.6 9.33 10.83 14.11 15.6 42.57 48.81 80.39 86.56 154.77 87.63h6.58c74.38-1.07 112.2-38.82 154.77-87.63q5.12-5.13 10.13-10.89c39.35-45.36 72.67-119.39 82.2-187.55" fill="none" stroke="#000" stroke-linecap="round" stroke-linejoin="round" stroke-width="2.34"/><path d="M736.18 431.3c-7.47 6-22.89 7.14-22.89 7.14 2.06-3.29 2.33-6.4 8.74-8.5s13.88 1.11 14.15 1.36zM585.69 225.16c20.24 10.87 38.46 32.77 48.46 66.25m-132.03-42.98c18.56-31.11 53.31-39.51 83.55-23.28m-93.75 49.26a101.08 101.08 0 013.6-12.08m55.23 216.1l.05-.1 15.88 7.48v-20.28h266.64v20.28l15.88-7.48 9.35 20.68-25.23 12.1v40.3L862 563.02l-6.89 19.21-21.79-9.04v16.42H566.68v-16.42m0-21.78v-40.18m342.47-251.69l-4.67 2.79a101.08 101.08 0 013.6 12.08q1.9 1.47 3.82 3c-13.52 21-38.57 32.57-75.45 34.38-1 .09-2.08.13-3.13.13-24.5 3.56-47.48-7.27-76.7-1.68a204.39 204.39 0 019.23-18.84c10-33.49 28.23-55.4 48.47-66.26h0c30.23-16.22 65-7.82 83.53 23.28m40.31-61.94c-58.3-10.7-115.53 7-172.31 36.44-8.41 4.6-14.48-14.28-7.59-18.22 76.84-34.79 124.1-43.17 179.9-18.22z" fill="none" stroke="#000" stroke-linecap="round" stroke-linejoin="round" stroke-width="2.34"/><path d="M825.71 261.27a9.14 9.14 0 01.3 2.36 9.3 9.3 0 11-.3-2.36zm-395.51 1.05L449.61 401c-26.13-8.63-49.49-76.66-58.35-133s2.66-63.26 33.23-46.53M561 260.81a14.11 14.11 0 0120.34 12.67 14.12 14.12 0 11-28.23 0v-.59" fill="none" stroke="#000" stroke-linecap="round" stroke-linejoin="round" stroke-width="2.34"/><path d="M536.39 248.4a39 39 0 0027.16 63.4c1 .09 2.08.13 3.13.13a39 39 0 0033.14-59.53" fill="none" stroke="#000" stroke-linecap="round" stroke-linejoin="round" stroke-width="2.34"/><path d="M502.63 266.56q-5.31 3.65-10.71 7.85-1.91 1.47-3.82 3c13.52 21 38.57 32.57 75.45 34.38l3.13.13c24.5 3.56 47.48-7.27 76.7-1.68a204.39 204.39 0 00-9.23-18.84c-10.18-18.24-21.69-31.09-34.33-39-18.81-11.79-40.15-12.64-63.43-4-3.58 1.34-7.22 2.9-10.89 4.67" fill="none" stroke="#000" stroke-linecap="round" stroke-linejoin="round" stroke-width="2.34"/><path d="M553.12 272.89a8.39 8.39 0 01-1 .06 9.37 9.37 0 111-.06zm-27.62-19.82a175.68 175.68 0 00-22.87 13.49l-7.11-4.23-4.67-2.79-25.07-15 28.22 9.7-17.73-16.88a168.3 168.3 0 0025.84 11.07l.45.15a96.33 96.33 0 0022.94 4.49z" fill="none" stroke="#000" stroke-linecap="round" stroke-linejoin="round" stroke-width="2.34"/><path d="M502.57 248.58c29.32-25.22 57-32.35 83.1-23.43h0C608.54 233 630.24 253 650.93 284m-160.08-24.46q-4.14 4.17-8.33 8.83m159.22-63.67c6.89 3.94.82 22.82-7.59 18.22-56.78-29.45-114-47.14-172.31-36.44 55.8-24.95 103.06-16.57 179.9 18.22zM678 429.94c6.41 2.1 6.68 5.21 8.74 8.5 0 0-15.42-1.14-22.89-7.14.24-.25 7.72-3.45 14.15-1.36zm-24.28-32.86c-14.24 21.58-21.27 40.63 0 49.73" fill="none" stroke="#000" stroke-linecap="round" stroke-linejoin="round" stroke-width="2.34"/><path d="M950.39 401l19.41-138.67h0C949 116.45 871.05 12.81 755.72 12.81A218.67 218.67 0 00700 20.37C554.25-18 454.18 94 430.2 262.32l-5.71-40.79C409 149.1 403.16 75.4 408.5.19h583c5.34 75.21-.54 148.91-16 221.34l-5.71 40.79M566.68 551.41l30.9-12.52 7.89 18.23-38.79 16.07-21.79 9.04-6.89-19.21 28.68-11.61z" fill="none" stroke="#000" stroke-linecap="round" stroke-linejoin="round" stroke-width="2.34"/></svg>