<svg xmlns="http://www.w3.org/2000/svg" viewBox="0 0 1400 780"><path fill="#f7dfa9" d="M0 0h1400v780H0z"/><path d="M880.76 370.42l3.31 16.58c-.18.16-.38.34-.59.51l-.32.27a31.18 31.18 0 01-3.93 2.71l-.24.14a13.87 13.87 0 01-5 1.79h-.27a5 5 0 01-.55 0h-.56c-6.22-.16-9.77-.17-11.72-1.22l-.17-.09c-1.19-.74-1.75-2-1.95-4-.23-2.89.3-7.45.71-14.67 1.52-26.22 2.5-45.55 3-60.87v-1.25c.7-21.55.34-33.52-.9-46.25v-.43c-.94-10.48-2.42-20.93-4.38-34.86l24.8 7.11s50.35 66.12 51.11 66.89c7.41 7.4-1.87 19-31.53 76.54a36.5 36.5 0 01-7.44-1.64 30.27 30.27 0 00-3.76-1.46h-.09a48.1 48.1 0 01-9-5.3zm-1.52-14.24s23.14-42.21 23.65-43.49-18.31-24.91-18.31-24.91c-.76 45.92-2.08 28.29-5.34 68.4z" fill="#25a3ae"/><path d="M897.8 402.21c10.69-1.83 5.08 6.31-3 13.47-9.28-3.09-5.68-.77-9.67-10.52a80.46 80.46 0 00-6.75-13.46l-.34-.6c.33-.16.66-.34 1-.52l.24-.14a27.61 27.61 0 003.93-2.71 4.15 4.15 0 00.32-.27c.21-.17.41-.35.59-.51l-3.31-16.53.61.46a40.55 40.55 0 009 5.3h.09c1.24.55 2.49 1 3.76 1.46.94.73-.35 2.05-3.11 8.51z" fill="#fcdcbd"/><path d="M894.18 377.68c-1.27-.42-2.52-.91-3.76-1.46a30.27 30.27 0 013.76 1.46z" fill="#fcdcbd"/><path d="M886.87 150.83c5.34 19.45 7.63 22.89 4.19 42.34s-28.24 10.67-28.24 10.67l-.14-.13a48.42 48.42 0 0010.08-18c9.68-4.42 10-18.82 3-18.59 0-1.21.05-2.45 0-3.71-14.9-20.11-32.4-11.65-40.82-20.6-6.1-6.48-11.44-16.78-11.44-16.78a201.68 201.68 0 01-11.23 23.85c-3.48 6.08-7.34 11.47-10.9 13.53-.06 1.07-.11 2.12-.14 3.16-2.42-.8-5 1.2-5.69 4.53l-8.45-.12c.59-3.8 1-9.13 1.32-19.21.76-23.47 20.59-52.06 53-54s40.12 33.61 45.46 53.06z" fill="#ffde5d"/><path d="M801.68 515h-5.92c-4.07-29.89-9.47-93.15 1.93-124.94.67.3 1.37.6 2.07.86l.26.1.93.34a15.22 15.22 0 005.94 1c.22 0 .43 0 .64-.08l1.12-.22.9-.19c4.1-.88 6.11-1.79 7-4.34a.93.93 0 000-.13c.95-2.84.5-7.63-.06-16.42-.07-1.21-.15-2.49-.22-3.86.53.26 1.05.51 1.56.74 13.1 6.1 18.75 5.66 29.76 3.17l2-.45 3.34-.78.22-.05 1.75-.4 1.72-.39 1.9-.42.32-.07.82-.17c-.54 9.66-1.26 15.39-.94 18.8.17 2 .71 3.24 1.95 4l.17.09c2 1.11 5.54 1.07 11.72 1.22h.56a5 5 0 00.55 0h.27a12 12 0 004-1.27l.34.6a119.39 119.39 0 016.75 13.46c5.28 14.56 7.11 39.58-3 109.84h-80.35z" fill="#a57e53"/><path d="M883.16 387.73l.32-.27a4.15 4.15 0 01-.32.27zm-3.93 2.71a31.18 31.18 0 003.93-2.71 27.61 27.61 0 01-3.93 2.71z" fill="#fcdcbd"/><path d="M885.08 405.16a119.39 119.39 0 00-6.75-13.46 80.46 80.46 0 016.75 13.46z" fill="#a57e53"/><path d="M875.78 167.13c7-.23 6.66 14.17-3 18.59a67.77 67.77 0 003-18.59z" fill="#fcdcbd"/><path d="M802.8 184.75a73.82 73.82 0 01-1.52-18.17c0-1 .08-2.09.14-3.16 3.56-2.06 7.42-7.45 10.9-13.53A201.68 201.68 0 00823.55 126s5.34 10.3 11.44 16.78c8.42 9 25.92.49 40.82 20.6v3.71a67.77 67.77 0 01-3 18.59 48.42 48.42 0 01-10.08 18 38.12 38.12 0 01-13.7 9.77A31.66 31.66 0 01810.87 203a46.16 46.16 0 01-8.07-18.25zm53.68-13.19a2.16 2.16 0 00-4.32 0 2.16 2.16 0 004.32 0zm-32.38 0a2.16 2.16 0 00-4.32 0 2.16 2.16 0 004.32 0zM844.67 515h28.08c0 .6-5.49 58.86-3.38 70.64s-7.2 47.8-8 74.87a173.65 173.65 0 002.21 35.7 67 67 0 011.17 9.56c0 7.19-6.77 9.73-11.43 8.68-2.29-.52-3-.54-3.69-20.75-.83-23.04-1.63-72.38-4.96-178.7z" fill="#fcdcbd"/><path d="M863.55 696.22c6.93 10.12 6.43 31.55-5.82 32.19-4 .21-5.71 1.27-9.51-9.31s1.09-25.38 1.09-25.38h.29c.71 20.21 1.4 20.23 3.69 20.75 4.66 1 11.43-1.49 11.43-8.68a67 67 0 00-1.17-9.57z" fill="#8d6437"/><path d="M861.54 264.07c1.15 13 1.48 26.18.9 46.25v1.25c-.46 14-1.36 32-2.73 56.74l-.82.17-.32.07-1.9.42-1.72.39-1.75.4-.22.05-3.34.78-2 .45c-10.62 2.37-16.83 2.83-29.76-3.17-.51-.23-1-.48-1.56-.74 0-.65-.07-1.3-.11-1.94l-.18-3.45v-.36c-.06-1.05-.11-2.09-.17-3.12s-.12-2.28-.18-3.4l-.09-1.67c-.3-5.72-.58-11.05-.83-16l-.12-2.42c-.05-.95-.1-1.88-.14-2.8l-.09-1.82c0-.76-.08-1.52-.11-2.26-1.61-33.85-1.77-51.14 0-68 .78-6.61 1.89-13.36 3.34-22 11.78 10.57 30.82 10.33 40.75 0 1.34 10.31 2.4 18.17 3.15 25.72-.03.17-.02.32 0 .46z" fill="#def7da"/><path d="M862.44 310.32c.58-20.07.25-33.23-.9-46.25 1.24 12.73 1.6 24.7.9 46.25z" fill="#def7da"/><path d="M858.73 387.11c.2 2 .76 3.24 1.95 4-1.24-.76-1.78-1.97-1.95-4zm-.2-18.56l.32-.07z" fill="#a57e53"/><path d="M861.5 263.64c-.75-7.55-1.81-15.41-3.15-25.72-9.93 10.33-29 10.57-40.75 0-1.45 8.61-2.56 15.36-3.34 22 1-9.54 2.63-18.93 5-31.11l8.47-3.57v-10.41a32.28 32.28 0 0021.27-1.35c1 13.19-.53 13.69 8.14 15.3 1.94 13.93 3.42 24.38 4.36 34.86z" fill="#fcdcbd"/><path d="M852.16 171.56a2.16 2.16 0 014.32 0 2.16 2.16 0 01-4.32 0z" fill="#050505"/><path d="M817.86 367.87c12.93 6 19.14 5.54 29.76 3.17-11.01 2.49-16.62 2.96-29.76-3.17z" fill="#a57e53"/><path d="M801.68 515h30.46c-6.07 115.31-5.23 161.84-4.3 181.62.66 14.13 1.37 14.62-.35 16.77s-11.42.85-13.54-1.69c-1.65-2-.21-9.35 1.1-15.1.37-1.63.74-3.14 1-4.35 1.27-5.5 1.69-39.34-2.12-49.49s-5.08-51.61-4.23-67.68-7.91-59.56-8.02-60.08z" fill="#fcdcbd"/><path d="M828.52 696.59s6 18.81.45 26.22-7.61 10-12.06 5.39-7.3-14-7.08-18.62 5.07-12.73 5.22-13c-1.31 5.75-2.75 13.12-1.1 15.1 2.12 2.54 11.85 3.81 13.54 1.69s1-2.64.35-16.77z" fill="#8d6437"/><path d="M819.78 171.56a2.16 2.16 0 014.32 0 2.16 2.16 0 01-4.32 0z" fill="#050505"/><path d="M791.76 289.55c-14.16 26.52-27.52 53.21-42.21 26.45-36.82-67.11-39.48-71.24-30.51-78.52 1.23-1 2.69-2.07 4.32-3.37a25.54 25.54 0 0110.45-4.7 27 27 0 014.55-.63l26.19 48.31 23.14-39.41 31.54-8.9c-2.34 12.18-4 21.57-5 31.11-1.84 15.66-1.8 30.6 0 68 0 .74.07 1.5.11 2.26l.09 1.82c0 .92.09 1.85.14 2.8l.12 2.42c.25 5 .53 10.3.83 16l.09 1.67.18 3.4c.06 1.15.11 2.07.17 3.12v.36l.18 3.45c0 .64.07 1.29.11 1.94.07 1.37.15 2.65.22 3.86.54 8.8 1 13.59.06 16.42a.93.93 0 010 .13c-.88 2.48-2.9 3.45-7 4.34l-.9.19-1.12.22c-.21 0-.42.06-.64.08a15.61 15.61 0 01-5.94-1L800 391l-.26-.1c-.71-.28-1.41-.57-2.06-.87a43.83 43.83 0 01-4.91-2.61c7.77-12.42.3-83.29-1.01-97.87z" fill="#25a3ae"/><path d="M816.58 387.41c.91-2.83.48-7.62-.06-16.42.56 8.79 1.01 13.58.06 16.42z" fill="#a57e53"/><path d="M816 361.74l.18 3.45q-.08-1.74-.18-3.45zm-.18-3.48c.06 1 .11 2.07.17 3.12-.06-1.05-.11-2.09-.17-3.12zm-.27-5.07l.09 1.67zm-.95-18.44l.12 2.42zm-.14-2.75l-.09-1.82zm-.2-72.11c-1.77 16.84-1.61 34.13 0 68-1.8-37.4-1.84-52.34 0-68z" fill="#def7da"/><path d="M810.87 203l.17 4.74c-2.28.08-6.48.14-12.67-.1-9.91-.38-17.92-9.54-14.87-22.13 1.74-7.17 2.86-9.51 3.64-14.55l8.45.12c-.71 3.58.81 8.73 7.21 13.64a46.16 46.16 0 008.07 18.28z" fill="#ffde5d"/><path d="M801.28 166.58a73.82 73.82 0 001.52 18.17c-6.4-4.91-7.92-10.06-7.21-13.64.67-3.33 3.27-5.33 5.69-4.53z" fill="#fcdcbd"/><path d="M797.7 390.05c.65.3 1.35.59 2.06.87-.7-.26-1.4-.56-2.07-.86z" fill="#a57e53"/><path d="M719.87 195.47l-5.54-7.64c9.52-1.87 8.32-2 15.39 13.1-2.09 16.12-3.76 14 4.09 28.48a25.54 25.54 0 00-10.45 4.7c-1.63 1.3-3.09 2.36-4.32 3.37l-5.47-10.74c-12.54.77-14.06-13.22-15.51-16.13.89 1.34 3.8 5.63 4.87 5.7 1.27.09 4.89-.15 4.39-4.61a2.23 2.23 0 001.46.54c2.19-.31 2.71-.87 2.83-1.08a30.88 30.88 0 011-3.23 35.14 35.14 0 013.4-7 55 55 0 013.86-5.46z" fill="#fcdcbd"/><path d="M714.33 187.83l5.54 7.64a55 55 0 00-3.9 5.47l-.24-.15-8.82-12.32c-.26-2.97 3.26-6.68 7.42-.64z" fill="#fcdcbd"/><path d="M715.73 200.79l.24.15a35.14 35.14 0 00-3.4 7h-.05l-10.4-14.22c-2-4.77 2.67-6.51 4.79-5.21z" fill="#fcdcbd"/><path d="M712.52 207.9h.05a30.88 30.88 0 00-1 3.23c-.12.21-.64.77-2.83 1.08a2.23 2.23 0 01-1.46-.54c-3.2-2.27-8.37-10.77-8.37-10.77-4.18-6.35 1.88-8.28 3.17-7.25z" fill="#fcdcbd"/><path d="M707.32 211.7c.5 4.46-3.12 4.7-4.39 4.61-1.07-.07-4-4.36-4.87-5.7a1.25 1.25 0 00-.25-.37c-.76-.76-4.7-6.74-2.29-7.88a21.34 21.34 0 013.44-1.4s5.16 8.47 8.36 10.74z" fill="#fcdcbd"/><path d="M812.32 149.89c-3.48 6.08-7.34 11.47-10.9 13.53-.06 1.07-.11 2.12-.14 3.16a73.82 73.82 0 001.52 18.17 46.16 46.16 0 008.07 18.25A31.66 31.66 0 00849 213.48a38.12 38.12 0 0013.7-9.77 48.42 48.42 0 0010.08-18 67.77 67.77 0 003-18.59c0-1.21.05-2.45 0-3.71-14.9-20.11-32.4-11.65-40.82-20.6-6.1-6.48-11.44-16.78-11.44-16.78a201.68 201.68 0 01-11.2 23.86z" fill="none" stroke="#000" stroke-linecap="round" stroke-linejoin="round" stroke-width=".5"/><path d="M862.82 203.84s24.81 8.79 28.24-10.67 1.15-22.89-4.19-42.34-13-54.92-45.39-53-52.26 30.5-53 54c-.33 10.08-.73 15.41-1.32 19.21-.78 5-1.9 7.38-3.64 14.55-3 12.59 5 21.75 14.87 22.13 6.19.24 10.39.18 12.67.1 1.37-.05 2.05-.1 2.05-.1" fill="none" stroke="#000" stroke-linecap="round" stroke-linejoin="round" stroke-width=".5"/><path d="M803.31 185.14l-.51-.39c-6.4-4.91-7.92-10.06-7.21-13.64.67-3.33 3.27-5.33 5.69-4.53h.07m70.96 19.33a4.68 4.68 0 00.45-.19c9.68-4.42 10-18.82 3-18.59h-.09m-46.27 32.4s7.12-5.09 17.29 0M838 175.74v4.38s-4.32 3.13 0 7.8m18.48-16.36a2.16 2.16 0 01-4.32 0 2.16 2.16 0 014.32 0zm-32.38 0a2.16 2.16 0 01-4.32 0 2.16 2.16 0 014.32 0zm3.6-4.32c-5.76-4.17-12.33-4.81-13.64 1.78m34.94-2.23c3.11-4.64 12.81-4.91 13.22 2.23m-16.55-9.75s12.23-8.15 13.7-8.53m-28.96 8.53s-9.47-8.68-18.09-9.38M777.4 62.72l7.24 27.08m-16.02-25.55l8.78 15.25m-17.17 0s15.26 8 20.79 15.26m3.62-30.51c5.8-6.74 4.54-9.16-3.62-7.38-2.57-11-8-13-17.1-3.69-11.52-4.11-15.79.21-13.35 12.33-10 2.91-10.29 7.46-2.67 13.36-5.9 9.67-1.5 8.13 5.1 4.19m7.34 29.43l12.76 10.72m-16.52-6.99l9.47 4.44m-8.36 5.85s10.16-1.3 15.33.35m-8.63-16.1c.53-5.26-.91-6-4.28-2.36-5-4.5-8.35-3.59-9.59 4-7 1.92-7.62 5.48-2.3 10.56-3.86 4.81-2.48 7.14 3.25 7.41.43 6.72 2 4.48 3.9.32m42.32 259.37a43.83 43.83 0 01-4.91-2.61c7.76-12.41.29-83.32-1-97.9-14.16 26.52-27.52 53.21-42.21 26.45-36.82-67.11-39.48-71.24-30.51-78.52 1.23-1 2.69-2.07 4.32-3.37a25.54 25.54 0 0110.45-4.7 27 27 0 014.55-.63l26.19 48.31 23.14-39.41 31.54-8.9c-2.34 12.18-4 21.57-5 31.11m-7.36 132.48a15.61 15.61 0 01-5.94-1L800 391m9.55.88l-.9.19m7.89-4.53c-.88 2.48-2.9 3.45-7 4.34m71.83-21a48.1 48.1 0 009 5.3m-16.69 16.21h.27a13.87 13.87 0 005-1.79m-18.1.58c1.95 1.05 5.5 1.06 11.72 1.22m-10.17-80.83c-.46 15.32-1.44 34.65-3 60.87-.41 7.22-.94 11.78-.71 14.67m35.49-9.43a36.5 36.5 0 007.44 1.64c29.66-57.5 38.94-69.14 31.53-76.54-.76-.78-51.15-66.89-51.15-66.89l-24.92-7.11c2 13.93 3.44 24.38 4.38 34.86" fill="none" stroke="#000" stroke-linecap="round" stroke-linejoin="round" stroke-width=".5"/><path d="M884.58 287.77h0s18.82 23.64 18.31 24.91-23.65 43.49-23.65 43.49c3.26-40.11 4.58-22.48 5.34-68.4m-5.34 68.41l1.52 14.24m-23.64-141.64c-8.67-1.61-7.13-2.11-8.14-15.3h0m-21.27 1.35v10.38l-8.48 3.57M796.59 255s-5.53 26.67-4.83 34.58m88.65-30.8s4.37 20.35 4.17 29m-22.14 22.54v1.25c-.46 14-1.36 32-2.73 56.74m-43.41-1.18c0-.65-.07-1.3-.11-1.94l-.18-3.45v-.36c-.06-1.05-.11-2.09-.17-3.12s-.12-2.28-.18-3.4l-.09-1.67c-.3-5.72-.58-11.05-.83-16l-.12-2.42c-.05-.95-.1-1.88-.14-2.8l-.09-1.82c0-.76-.08-1.52-.11-2.26-1.8-37.38-1.84-52.32 0-68 .78-6.61 1.89-13.36 3.34-22 11.78 10.57 30.82 10.33 40.75 0 1.34 10.31 2.4 18.17 3.15 25.72M847.62 371c-11 2.49-16.66 2.93-29.76-3.17m35.08 1.98l-3.34.78m7.03-1.59l-1.72.39-1.75.4m5.69-1.31l-.32.07m22.84 2.33a40.55 40.55 0 009 5.3m-11.14 14.26a31.18 31.18 0 003.93-2.71l.32-.27c.21-.17.41-.35.59-.51l-3.31-16.53M878 391.1c.33-.16.66-.34 1-.52m15.18-12.9c.94.73-.35 2.05-3.11 8.51l6.73 16c10.69-1.83 5.08 6.31-3 13.47-9.28-3.09-5.68-.77-9.67-10.52" fill="none" stroke="#000" stroke-linecap="round" stroke-linejoin="round" stroke-width=".5"/><path d="M878.33 391.7a80.46 80.46 0 016.75 13.46c5.28 14.56 7.11 39.58-3 109.84h-86.3c-4.07-29.89-9.47-93.15 1.93-124.94h0c.65.3 1.35.59 2.06.87" fill="none" stroke="#000" stroke-linecap="round" stroke-linejoin="round" stroke-width=".5"/><path d="M873.68 392.39h.27a12 12 0 004-1.27m-17.1.06c2 1.11 5.54 1.07 11.72 1.22m-12.9-24.09c-.54 9.66-1.26 15.39-.94 18.8m-5.57-17.35l1.75-.4 1.72-.39 1.9-.42m-40.67-.68c12.93 6 19.14 5.54 29.76 3.17l2-.45 3.34-.78m-36.38 17.6c.91-2.83.48-7.62-.06-16.42-.07-1.21-.15-2.49-.22-3.86m-7.65 24.94l.9-.19h0c4.1-.88 6.11-1.79 7-4.34M800 391l.93.34a15.22 15.22 0 005.94 1m8.18 304.26c-1.31 5.75-2.75 13.12-1.1 15.1 2.12 2.54 11.85 3.81 13.54 1.69s1-2.64.35-16.77c-.93-19.78-1.77-66.31 4.3-181.62h0" fill="none" stroke="#000" stroke-linecap="round" stroke-linejoin="round" stroke-width=".5"/><path d="M801.68 515h0c.11.52 8.88 44.09 8 60.07s.43 57.53 4.23 67.68 3.39 44 2.12 49.49c-.28 1.21-.65 2.72-1 4.35m48.51-.38a173.65 173.65 0 01-2.21-35.7c.84-27.07 10.15-63 8-74.87s3.33-70 3.38-70.64h0" fill="none" stroke="#000" stroke-linecap="round" stroke-linejoin="round" stroke-width=".5"/><path d="M844.67 515h0c3.29 106.32 4.13 155.66 4.93 178.71.71 20.21 1.4 20.23 3.69 20.75 4.66 1 11.43-1.49 11.43-8.68a67 67 0 00-1.17-9.56" fill="none" stroke="#000" stroke-linecap="round" stroke-linejoin="round" stroke-width=".5"/><path d="M849.31 693.72s-4.9 14.81-1.09 25.38 5.5 9.52 9.51 9.31c12.25-.64 12.75-22.07 5.82-32.19h0m-35.03.37s6 18.81.45 26.22-7.61 10-12.06 5.39-7.3-14-7.08-18.62 5.07-12.73 5.22-13h0M697.8 210.21c-.76-.76-4.7-6.74-2.29-7.88a21.34 21.34 0 013.44-1.4c-4.18-6.35 1.88-8.28 3.17-7.25-2-4.77 2.67-6.51 4.79-5.21-.26-3 3.26-6.68 7.42-.64 9.52-1.87 8.32-2 15.39 13.1-2.09 16.12-3.76 14 4.09 28.48m-35.75-18.81a1.25 1.25 0 00-.25-.37m21.28 27.37l-.05-.12-5.47-10.74c-12.54.77-14.06-13.22-15.51-16.13m13.55.55a37.57 37.57 0 00-1 8.08" fill="none" stroke="#000" stroke-linecap="round" stroke-linejoin="round" stroke-width=".5"/><path d="M720.81 194.32c-.32.38-.63.77-.94 1.15a55 55 0 00-3.9 5.47 35.14 35.14 0 00-3.4 7 30.88 30.88 0 00-1 3.23m-9.45-17.49l10.4 14.22m-5.61-19.43l8.82 12.32" fill="none" stroke="#000" stroke-linecap="round" stroke-linejoin="round" stroke-width=".5"/><path fill="none" stroke="#000" stroke-linecap="round" stroke-linejoin="round" stroke-width=".5" d="M714.33 187.83l5.55 7.64.01.02M699 200.93s5.17 8.5 8.37 10.77a2.23 2.23 0 001.46.54c2.19-.31 2.71-.87 2.83-1.08h0v-.07"/><path d="M697.8 210.21v0l.25.37h0c.89 1.34 3.8 5.63 4.87 5.7 1.27.09 4.89-.15 4.39-4.61" fill="none" stroke="#000" stroke-linecap="round" stroke-linejoin="round" stroke-width=".5"/><path d="M815 457.08c-9 125.75-7.17 266.78-7.17 270.78h-8.36l-3.59-128.58h-20.32v128.58h-7.15l-4-128.58h-21c54.56-11.68 58.55-12.42 61.26-20.58 0 0 3.78-27.9-3.38-42.42-7.28-14.74-11.9-31-17.16-49.22 8.66-1.67 15.47-2 10.59-16.69-1.9-5.68-14.43-4.23-16.75-3.91a451.7 451.7 0 00-5.77-17.19l.44-.15c24.1.53 28.25-2.64 42.36 7.96z" fill="#62b3ac"/><path d="M550.63 470.92l9-25.64c11.39-1.67 2.79 16.23-2.83 26.29-1.86-.17-3.94-.32-6.14-.42z" fill="#729bc7"/><path d="M676.59 368.42c-7.4-8.27-21.2-10.28-23.9-4-1.79 4.18-3 7.57-1 10.56 4.74 7.11.29 9.75-6.35 9-5-.6-19 .6-19 .6s-7.76 11.81-8.76 11.78-1.39 7.93-3.18 8.13a13.4 13.4 0 00-4 1.39c.75 8.61 1.53 16.24-4.18 20.52-.8.59 7.22 6.22 7.22 6.22-2.39-.75-8.21-2.84-12.1-.45a23.81 23.81 0 00-5.45 5.18c-10.39-5-10.58-13.12-17.75-18.92-4.18-3.38-6.57-11.75-5-15.14s5.78-3.78 4-8.16-3.79-15.13-.8-17.52 8.36-2.59 8.56-7 6.18-13.55 9.36-13.94 6.78 3.58 8.77-2.39 6.17-13.14 10.15-11.56 5.18 2.74 11.15-.22 14.54-3 18.13 1.62 7.36 6.17 13.74 7.17 15.13 7.1 15.93 9.53 11.7 8.79 11.42 11-1.1 11.88-1.21 13.18c-1.79-1.75-3.36-3-4.24-4 .08 0 1.9-8.8-1.51-12.58z" fill="#80292f"/><path d="M694.61 441.1c.28 3.67-2.15 4-5.53 3-9.77 4.56-11.38-3.71-18.76-2.09-5.47 1.19-1.7 3.28-.8 5.26s1.79 2.5-1.79 1.86-7.77-5-7.77-5a81.71 81.71 0 01-20.61 3.17c-12.54.48-26.59 6.39-34.05 8.18-5.21 1.25-4.87 4.19-4.79 4.6h-.27c-4.46-.9-8.1-8.87-8.53-13.27-.26-2.61 1.75-6.33 4.25-9.45a23.81 23.81 0 015.45-5.18c3.89-2.39 9.71-.3 12.1.45 8.37 2.62 33.78-1.76 52.28-3.51 3.17-.31 6.15-.53 8.79-.62 7.17-.27 12 .38 12 2.93l1 .45c3.1 1.45 5.5 2.52 7.28 3.38v.09l.07-.08c4.52 2.18 5.11 3 3.39 5.13-.72.7-3.71.7-3.71.7z" fill="#fcdcbd"/><path d="M693.32 552.81c6.24-13.47 4.75-12.24-2.4-35.24h24.3l5.67 37c-7.54 1-18.7 0-24.48-1a23.33 23.33 0 01-3.09-.76z" fill="#edb13f"/><path d="M556.76 471.57l2.83.3-2.53 33.75h-24.65l-2.54-33.75c.78-.15 1.63-.28 2.52-.38a81.18 81.18 0 019-.53h4.88c1 0 2 .06 3 .09l1.35.07c2.2.13 4.28.28 6.14.45z" fill="#b0c1d3"/><path d="M692.52 416c-.2 5-5 15.83-5 15.83l-1-.45c0-2.55-4.79-3.2-12-2.93.74-1.11 2.64-4.18 1-4.5a8.48 8.48 0 00-9.8 5.12c-18.5 1.75-43.91 6.13-52.28 3.51 0 0-8-5.63-7.22-6.22 5.71-4.28 4.93-11.91 4.18-20.52a13.4 13.4 0 014-1.39c1.79-.2 2.19-8.16 3.18-8.13s8.76-11.78 8.76-11.78 14-1.2 19-.6c6.64.79 11.09-1.85 6.35-9-2-3-.8-6.38 1-10.56 2.7-6.29 16.5-4.28 23.9 4 3.41 3.82 1.59 12.62 1.59 12.62.88 1.06 2.45 2.27 4.24 4 3.74 3.63 8.43 9.56 9.78 21.18a57.31 57.31 0 01.37 6.54c.01 1.04 0 2.14-.05 3.28z" fill="#fcdcbd"/><path d="M697.3 666.12c-14.73 2-12.76.28-24.54-36.56a893.36 893.36 0 00-11.11-32.53c-12.74-31.67 34.06-39.83 34.06-39.83l.7-3.69c5.78 1 16.94 2 24.48 1l7.42 48.49-10.31 3.58c3.88 11.42 7 20.08 9.39 26.71 7.22 20.14 7.4 21.61 0 25-1 .49-2.24 1-3.59 1.62-15.62 5.16-15.36 5.09-26.5 6.21z" fill="#b4aa75"/><path d="M728.31 603l-.91 30.3c-2.4-6.64-5.51-15.3-9.4-26.72zm-.94 55.33v14.57l-3.59-12.9c1.35-.66 2.54-1.18 3.59-1.67z" fill="#62b3ac"/><path d="M687.5 431.84s4.82-10.85 5-15.83c.05-1.15.06-2.25.05-3.31.45 1.19 6.13 16.69 2.21 22.52-1.76-.86-4.16-1.93-7.26-3.38z" fill="#1a1a1a"/><path d="M521.66 379.57l14.54 62.82c-1.39-.43-2.54.29-3.79 2.8l9 25.73a81.18 81.18 0 00-9 .53l-21.51-91.88z" fill="#f0b54d"/><path d="M674.58 428.46c-2.64.09-5.62.31-8.79.62a8.48 8.48 0 019.8-5.12c1.63.32-.27 3.39-1.01 4.5z" fill="#fff"/><path d="M709.84 505.62c-.23-4.78.33-3.87-2.19-4.38l-.59-14c2.75-1 2.29.13 1.79-3.88l-6-.6-.2-18.92L713 459s8.19 6 12.84 4.78a2.35 2.35 0 00.7-.3 2.11 2.11 0 00.54-.49l12.47-11.4.84.91c6.35-.5 19.34-10.5 19.34-10.5l8.11-4.12q2.31 5.81 4.32 11.39c2.12 5.9 4 11.63 5.77 17.19 2.24 7.13 4.25 14 6.16 20.6 5.26 18.18 9.88 34.48 17.16 49.22 7.16 14.52 3.38 42.42 3.38 42.42S774.16 552 765.21 550s-26.61-2.1-33 2.14l-4.42-36.39h6v-10.13z" fill="#edb13f"/><path d="M660.87 663.19a24.84 24.84 0 004.77-3.24c3.78-3.38-4-62.92-4-62.92a893.36 893.36 0 0111.11 32.53l-.44.14-.86 98.16h-8.81z" fill="#62b3ac"/><path d="M721.64 445.28c-3.13-7.17-21.36-15.53-21.36-15.53l8.37-18.52s10.15-6.57 13-10.16c4-5.05 28.9-.44 34.8 11.35 4.41 8.81 8.15 17.29 11.4 25.46l-8.12 4.12s-13 10-19.34 10.52l-.84-.91L727.08 463c1.68-2.25-1.11-8.32-3.69-13.89-.61-1.32-1.22-2.61-1.75-3.83z" fill="#edb13f"/><path d="M743.37 599.28l-5.32 1.14-5.86-48.25c6.41-4.24 24-4.13 33-2.14s39.42 28.67 39.42 28.67c-2.69 8.16-6.68 8.9-61.24 20.58z" fill="#b4aa75"/><path fill="#87282c" d="M631.5 697.35l-1.21 8.03-4.08 27.26h-7.18l2.9-23.14 5.39-43.05 13.74-109.75 4.86-38.83H503.14l-31.07 212.97h-7.17l26.89-212.67h-8.96v-12.55h250.91v10.16h-5.97l4.42 36.39 5.86 48.25 16 131.62h-5.97l-19.77-129.05-7.42-48.42-5.67-37h-56.75l-5.79 38.6-16.59 110.58-4.59 30.6z"/><path d="M737.77 709.79c1.66 5.19 2 7.05 2.54 16.87-18.8 6-18.93 7-54.36 4.78-2.36-11.1 7-10.91 9.26-12.39 1.79-1.2 10.3-15.09 10.3-15.09 26.83-1.22 10.8 18.91 32.26 5.83z" fill="#6e4e4f"/><path d="M732 689.43l5.82 20.36c-21.46 13.08-5.43-7-32.26-5.83 2.84-3.18.55-9.76.55-9.76 12.18-1.11 13.7.65 25.89-4.77z" fill="#dfe4e7"/><path d="M727.37 672.9l4.63 16.53c-12.14 5.42-13.66 3.66-25.89 4.77l-8.76-28.08c11.14-1.08 10.88-1 26.48-6.17z" fill="#fcdcbd"/><path d="M723.39 449.12c2.58 5.57 5.37 11.64 3.69 13.89l-.54.49a2.35 2.35 0 01-.7.3C721.19 465 713 459 713 459z" fill="#1a1a1a"/><path d="M726.54 463.5l.54-.49a2.11 2.11 0 01-.54.49z" fill="#1a1a1a"/><path d="M723.39 449.12L713 459l-10.32 4.78s-7.39 8.07-29.69 3.29c-25.18-5.4-20.85-7.5-72.48-7-.08-.41-.42-3.35 4.79-4.6 7.46-1.79 21.51-7.7 34.05-8.18a81.71 81.71 0 0020.65-3.2s4.18 4.38 7.77 5 2.69.11 1.79-1.86-4.67-4.07.8-5.26c7.38-1.62 9 6.65 18.76 2.09 3.38 1 5.81.68 5.53-3 0 0 3 0 3.58-.74 1.72-2.16 1.13-2.95-3.39-5.13l5.48-5.48s18.23 8.36 21.36 15.53c.49 1.26 1.1 2.55 1.71 3.88z" fill="#fcdcbd"/><path d="M709.84 505.62H579.25c1.28-6.4-2.26-15.57 3.34-20.31l2.39-.05 117.9-2.54 6 .6c.5 4 1 2.88-1.79 3.88h-51v14h51.57c2.51.55 1.95-.36 2.18 4.42z" fill="#687eb7"/><path d="M708.65 411.23l-8.37 18.52-5.48 5.48c3.92-5.83-1.76-21.33-2.21-22.52a57.31 57.31 0 00-.37-6.54c5.14 4.06 16.43 5.06 16.43 5.06z" fill="#fcdcbd"/><path fill="#fff" d="M707.06 487.2l.59 14.04h-51.57V487.2h50.98z"/><path d="M702.68 463.8l.2 18.92L585 485.26v-5h63.93V463.5H585v-3.28c5.57-.08 10.64-.14 15.26-.18h.28c51.63-.45 47.3 1.65 72.48 7 22.27 4.83 29.66-3.24 29.66-3.24z" fill="#ee4451"/><path d="M696.41 553.51l-.7 3.69s-46.8 8.16-34.06 39.83c0 0 7.77 59.54 4 62.92a24.84 24.84 0 01-4.77 3.24 31.82 31.82 0 01-4.4 1.94c-9.77 1.91-14.08 2.15-20.38 1.62l16.59-110.58 40.64-3.36a23.33 23.33 0 003.08.7z" fill="#b4aa75"/><path d="M694.8 435.23l-.07.08v-.09z" fill="#ed8b70"/><path d="M658.17 711.58c5.83 22 8.71 18.52-32 21.06l4.08-27.26c3.2.56 5.68 5.19 7.09 8.13 1.85 3.76 3.92 3.37 20.83-1.93z" fill="#6e4e4f"/><path d="M656.47 665.13l1 30.27c-16.64 4.91-15.79 2-26 2l4.59-30.6c6.33.48 10.64.2 20.41-1.67z" fill="#fcdcbd"/><path d="M657.47 695.4c-.75 3-1.14 4.25.7 16.18-16.91 5.3-19 5.69-20.76 1.94-1.41-2.94-3.89-7.57-7.09-8.13l1.21-8c10.15.05 9.3 2.92 25.94-1.99z" fill="#dfe4e7"/><path fill="#fff" d="M584.98 463.5h63.92v16.73h-63.92z"/><path d="M641.06 556.7l-13.74 109.75s-6.28-2.32-8.07-3.91-4.09-66.41-4.19-85.43 26-20.41 26-20.41z" fill="#b4aa75"/><path d="M621.93 709.5L619 732.64s-11.95-.45-15.54-1.35c-4.49-1.12-7.67-4.72-4.18-8.21l6-1.19-.16-1.2 16.72-11.2z" fill="#6e4e4f"/><path fill="#6b1c21" d="M605.14 720.69l.16 1.2-5.98 1.19-31.61-205.21h11.5l25.93 202.82z"/><path d="M600.51 460h-.28z" fill="#ed8b70"/><path d="M555.41 436.32l-6.14 34.76c-1 0-2-.07-3-.09v-.07c-.22-4.75-.09-6.18-.52-8.28h.13c4.02-17.85 4.12-31.73 9.53-26.32z" fill="#398054"/><path d="M546.25 470.92v.08c-1.62 0-3.27-.05-4.88 0l-9-25.73c1.25-2.51 2.4-3.23 3.79-2.8a12.19 12.19 0 013.83 2.8c3.82 11.41 5.17 14.91 5.7 17.44.47 2.03.31 3.46.56 8.21z" fill="#6c4e4e"/><path d="M545.86 462.61h-.13c-.53-2.53-1.88-6-5.7-17.44-.37-10.54-.12-8.13-1-14.26l5.08-.59c.89 7.99.44 1.74 1.75 32.29z" fill="#3e8356"/><path fill="none" stroke="#050000" stroke-miterlimit="10" stroke-width=".47" d="M720.89 554.57l-5.67-37h-56.75l-5.79 38.6-16.59 110.58-4.59 30.6-1.21 8.03-4.08 27.26h-7.18l2.9-23.14 5.39-43.05 13.74-109.75 4.86-38.83H503.14l-31.07 212.97h-7.17l26.89-212.67h-8.96v-12.55h250.91v10.16h-5.97l4.42 36.39 5.86 48.25 16 131.62h-5.97l-19.77-129.05-7.42-48.42"/><path fill="none" stroke="#050000" stroke-miterlimit="10" stroke-width=".47" d="M579.21 517.87l25.93 202.82.16 1.2-5.98 1.19-31.61-205.21-.05-.3M705.51 704s-8.51 13.89-10.3 15.09c-2.23 1.48-11.62 1.29-9.26 12.39 35.43 2.17 35.56 1.21 54.36-4.78-.54-9.82-.88-11.68-2.54-16.87-21.46 13.04-5.43-7.09-32.26-5.83zm-79.3 28.64c40.67-2.54 37.79.94 32-21.06-16.91 5.3-19 5.69-20.76 1.94-1.41-2.94-3.89-7.57-7.09-8.13M619 732.64s-11.95-.45-15.54-1.35c-4.49-1.12-7.67-4.72-4.18-8.21m22.59-13.59l-16.72 11.2"/><path d="M737.77 709.79L732 689.43c-12.14 5.42-13.66 3.66-25.89 4.77 0 0 2.29 6.58-.55 9.76" fill="none" stroke="#050000" stroke-miterlimit="10" stroke-width=".47"/><path d="M732 689.43l-4.58-16.53-3.64-12.9c-15.6 5.12-15.34 5.09-26.48 6.17l8.76 28.08m-47.89 17.33c-1.84-11.93-1.45-13.2-.7-16.18-16.64 4.91-15.79 2-26 2h-.06m4.35-30.67h.33c6.3.53 10.61.29 20.38-1.62l1 30.27m80.58-94.96l5.32-1.14c54.56-11.68 58.55-12.42 61.26-20.58 0 0-30.47-26.68-39.42-28.67s-26.61-2.1-33 2.14M697.3 666.12c-14.73 2-12.76.28-24.54-36.56a893.36 893.36 0 00-11.11-32.53s7.77 59.54 4 62.92a24.84 24.84 0 01-4.77 3.24 31.82 31.82 0 01-4.4 1.94m39.23-107.93s-46.8 8.16-34.06 39.83m59.24-42.47h0c-7.54 1-18.7 0-24.48-1a23.33 23.33 0 01-3.09-.7c6.24-13.47 4.75-12.24-2.4-35.24m2.4 35.19l-40.64 3.36m-11.68.53s-26.08 1.39-26 20.41 2.4 83.84 4.19 85.43 8.07 3.91 8.07 3.91" fill="none" stroke="#050000" stroke-miterlimit="10" stroke-width=".47"/><path d="M804.63 578.7s3.78-27.9-3.38-42.42c-7.28-14.74-11.9-31-17.16-49.22-1.91-6.62-3.92-13.47-6.16-20.6a451.7 451.7 0 00-5.77-17.19q-2-5.59-4.32-11.39c-3.25-8.17-7-16.65-11.4-25.46-5.9-11.79-30.8-16.4-34.8-11.35-2.84 3.59-13 10.16-13 10.16l-8.37 18.52s18.23 8.36 21.36 15.53c.53 1.22 1.14 2.51 1.75 3.84 2.58 5.57 5.37 11.64 3.69 13.89a2.11 2.11 0 01-.54.49 2.35 2.35 0 01-.7.3C721.19 465 713 459 713 459l-10.32 4.78.2 18.92 6 .6c.5 4 1 2.88-1.79 3.88l.59 14c2.52.51 2-.4 2.19 4.38" fill="none" stroke="#050000" stroke-miterlimit="10" stroke-width=".47"/><path fill="none" stroke="#050000" stroke-miterlimit="10" stroke-width=".47" d="M747.78 444.09l-8.23 7.52-12.47 11.4-.54.49m33.19-21.5s-13 10-19.34 10.52m-27.39 6.5l10.39-9.9m-20.51 33.6L585 485.26l-2.39.05c-5.6 4.74-2.06 13.91-3.34 20.31"/><path fill="none" stroke="#050000" stroke-miterlimit="10" stroke-width=".47" d="M707.65 501.24h-51.57V487.2h50.98m-4.38-23.4s-7.39 8.07-29.69 3.29c-25.18-5.4-20.85-7.5-72.48-7h-.27c-4.62 0-9.69.1-15.26.18v25"/><path fill="none" stroke="#050000" stroke-miterlimit="10" stroke-width=".47" d="M584.98 480.23h63.93V463.5h-63.93m15.26-3.5h.28a.06.06 0 010 0c-.08-.41-.42-3.35 4.79-4.6 7.46-1.79 21.51-7.7 34.05-8.18a81.71 81.71 0 0020.64-3.13s4.18 4.38 7.77 5 2.69.11 1.79-1.86-4.67-4.07.8-5.26c7.38-1.62 9 6.65 18.76 2.09 3.38 1 5.81.68 5.53-3 0 0 3 0 3.58-.74 1.72-2.16 1.13-2.95-3.39-5.13h0c-1.78-.86-4.18-1.93-7.28-3.38l-1-.45c0-2.55-4.79-3.2-12-2.93-2.64.09-5.62.31-8.79.62-18.5 1.75-43.91 6.13-52.28 3.51-2.39-.75-8.21-2.84-12.1-.45a23.81 23.81 0 00-5.45 5.18c-2.5 3.12-4.51 6.84-4.25 9.45.45 4.43 4.09 12.4 8.55 13.26zm88.84-15.91l-10.9-6.77m16.43 3.78l-8.66-5.79m4.33 18.76s1.15 3.69 0 6m-2.78-28.23s4.82-10.85 5-15.83c.05-1.15.06-2.25.05-3.31a57.31 57.31 0 00-.37-6.54c-1.35-11.62-6-17.55-9.78-21.18-1.79-1.75-3.36-3-4.24-4 0 0 1.8-8.76-1.59-12.54-7.4-8.27-21.2-10.28-23.9-4-1.79 4.18-3 7.57-1 10.56 4.74 7.11.29 9.75-6.35 9-5-.6-19 .6-19 .6s-7.76 11.81-8.76 11.78-1.39 7.93-3.18 8.13a13.4 13.4 0 00-4 1.39c.75 8.61 1.53 16.24-4.18 20.52-.8.59 7.22 6.22 7.22 6.22"/><path d="M596 437.32c-10.39-5-10.58-13.12-17.75-18.92-4.18-3.38-6.57-11.75-5-15.14s5.78-3.78 4-8.16-3.79-15.13-.8-17.52 8.36-2.59 8.56-7 6.18-13.55 9.36-13.94 6.78 3.58 8.77-2.39 6.17-13.14 10.15-11.56 5.18 2.74 11.15-.22 14.54-3 18.13 1.62 7.36 6.17 13.74 7.17 15.13 7.1 15.93 9.53 11.7 8.79 11.42 11-1.1 11.88-1.21 13.18a.79.79 0 010 .14m26.2 26.12s-11.29-1-16.45-5.07l-.2-.16m.55 6.62v.08c.45 1.19 6.13 16.69 2.21 22.52v.09l.07-.08 5.48-5.48m-26.01-.9l.28-.39c.74-1.11 2.64-4.18 1-4.5a8.48 8.48 0 00-9.8 5.12 1 1 0 00-.11.3m-9.18.53c2.08-2.71-.81-3.49-3.7.46" fill="none" stroke="#050000" stroke-miterlimit="10" stroke-width=".47"/><path d="M648.31 408.64s-.7 5.43-3 6.62" fill="none" stroke="#050000" stroke-miterlimit="10" stroke-width="1.42"/><path fill="none" stroke="#050000" stroke-miterlimit="10" stroke-width="2.36" d="M642.93 400.77l-11.05 11.85"/><path fill="none" stroke="#050000" stroke-miterlimit="10" stroke-width="1.42" d="M628.75 429.38v3.21"/><path fill="none" stroke="#050000" stroke-miterlimit="10" stroke-width=".47" d="M660.87 663.19l1.78 64.67h8.81l.86-98.16m55.05 43.2v-14.7m0-23.92v-1l.91-30.3-10.28 3.6c3.88 11.42 7 20.08 9.39 26.71 7.22 20.14 7.4 21.61 0 25-1 .49-2.24 1-3.59 1.62m19.56-60.63h21l4 128.58h7.15V599.28h20.31l3.59 128.58h8.36c0-4-1.78-145 7.17-270.78-14.1-10.6-18.25-7.43-42.39-8"/><path d="M777.56 466.52l.37-.06c2.32-.32 14.85-1.77 16.75 3.91 4.88 14.67-1.93 15-10.59 16.69h-.25m-251.43 18.56l-2.54-33.75c.78-.15 1.63-.28 2.52-.38a81.18 81.18 0 019-.53h4.88c1 0 2 .06 3 .09l1.35.07c2.2.1 4.28.25 6.14.42l2.83.3-2.53 33.75" fill="none" stroke="#050000" stroke-miterlimit="10" stroke-width=".47"/><path d="M550.63 470.92l9-25.64c11.39-1.67 2.79 16.23-2.83 26.29h0m-15.43-.64l-9-25.73c1.25-2.51 2.4-3.23 3.79-2.8a12.19 12.19 0 013.83 2.8c-.37-10.54-.12-8.13-1-14.26l5.08-.59c.9 8 .49 1.71 1.8 32.26 4-17.82 4.14-31.7 9.55-26.29l-6.14 34.76v0" fill="none" stroke="#050000" stroke-miterlimit="10" stroke-width=".47"/><path d="M540 445.2c3.82 11.41 5.17 14.91 5.7 17.44.43 2.1.3 3.53.52 8.28m-13.81.68l-.02-.11-21.49-91.92h10.76l14.54 62.82" fill="none" stroke="#050000" stroke-miterlimit="10" stroke-width=".47"/></svg>