<svg xmlns="http://www.w3.org/2000/svg" viewBox="0 0 700 700"><path fill="#f7dfa9" d="M0 0h700v700H0z"/><path d="M336.12 492.72s-6.91-2.55-8.87-4.3-4.49-73-4.6-93.85 28.54-22.43 28.54-22.43l-15.06 120.58z" fill="#b4aa75"/><path d="M446 483.8v16l-3.94-14.22z" fill="#62b3ac"/><path d="M457.78 420.17l-6.44-53c7-4.65 26.42-4.53 36.27-2.35s43.31 31.51 43.31 31.51c-3 8.95-7.36 9.77-67.29 22.6z" fill="#b4aa75"/><path d="M301.68 241c-11.41-5.47-11.62-14.41-19.5-20.79-4.59-3.71-7.22-12.9-5.47-16.62s6.34-4.16 4.37-9-4.15-16.63-.87-19.25 9.19-2.85 9.41-7.66 6.78-14.88 10.28-15.31 7.44 3.94 9.63-2.63 6.78-14.44 11.15-12.69 5.69 3 12.25-.24 16-3.26 19.91 1.77 8.1 6.78 15.1 7.88 16.63 7.8 17.5 10.46S398.29 166.61 398 169s-1.2 13.05-1.33 14.48c-2-1.92-3.69-3.25-4.65-4.41 0 0 2-9.63-1.76-13.79-8.13-9.07-23.26-11.28-26.26-4.36-2 4.59-3.28 8.31-1.09 11.59 5.21 7.82.32 10.72-7 9.85-5.49-.66-20.81.65-20.81.65s-8.53 13-9.62 12.94-1.53 8.72-3.5 8.94a14.75 14.75 0 00-4.38 1.53c.82 9.46 1.68 17.84-4.59 22.54-.88.65 7.93 6.83 7.93 6.83-2.63-.82-9-3.12-13.29-.49a26.09 26.09 0 00-5.97 5.7z" fill="#80292f"/><path d="M334.9 565.43l4.49-29.94c3.52.62 6.25 5.7 7.79 8.93 2 4.13 4.24 3.69 22.81-2.13 6.44 24.17 9.6 20.35-35.09 23.14zm-7.9 0s-13.1-.49-17-1.43c-4.94-1.24-8.42-5.19-4.59-9l6.56-1.31-.16-1.32L330.14 540h.07z" fill="#6e4e4f"/><path d="M386.31 273.7c-27.67-5.93-22.92-8.25-79.64-7.76-.08-.46-.43-3.68 5.26-5 8.21-2 23.63-8.46 37.41-9s22.66-3.51 22.66-3.51 4.59 4.81 8.53 5.52 3 .13 2-2-5.13-4.47.88-5.78c8.1-1.77 9.87 7.31 20.61 2.3 3.71 1.08 6.38.74 6.07-3.29 0 0 3.28 0 3.94-.82 1.89-2.36 1.24-3.23-3.73-5.62l6-6s20 9.2 23.46 17.07c.58 1.33 1.25 2.76 1.92 4.21l-11.41 10.89-11.34 5.24s-8.13 8.85-32.62 3.55z" fill="#fcdcbd"/><path d="M445.72 269.23c1.85-2.47-1.2-9.15-4.05-15.28-.67-1.45-1.34-2.88-1.92-4.21-3.44-7.87-23.46-17.07-23.46-17.07l9.19-20.34s11.15-7.22 14.27-11.16c4.4-5.55 31.75-.48 38.23 12.47 4.84 9.68 8.95 19 12.52 28l-8.91 4.52s-14.27 11-21.25 11.56l-.91-1z" fill="#edb13f"/><path d="M251.88 277.91l9.85-28.17c12.5-1.84 3 17.83-3.12 28.88-2-.19-4.33-.35-6.74-.47z" fill="#729bc7"/><path fill="#fff" d="M289.62 269.76h70.23v18.38h-70.23zm134.76 41.45h-56.66v-15.42h56.01l.65 15.42z"/><path d="M321 235.79s-8.81-6.18-7.93-6.83c6.27-4.7 5.41-13.08 4.59-22.54a14.75 14.75 0 014.38-1.53c2-.22 2.4-9 3.5-8.94s9.58-12.95 9.58-12.95 15.32-1.31 20.81-.65c7.3.87 12.19-2 7-9.85-2.19-3.28-.88-7 1.09-11.59 3-6.91 18.13-4.71 26.25 4.37 3.73 4.16 1.76 13.79 1.76 13.79 1 1.16 2.69 2.49 4.65 4.41 4.11 4 9.26 10.51 10.74 23.27a63.41 63.41 0 01.42 7.18c0 1.17 0 2.38-.07 3.64-.21 5.47-5.51 17.39-5.51 17.39l-1.05-.49c0-2.8-5.26-3.52-13.14-3.22.81-1.22 2.9-4.59 1.11-4.94a9.32 9.32 0 00-10.77 5.62c-20.34 1.93-48.26 6.74-57.41 3.86z" fill="#fcdcbd"/><path d="M374.94 560.18l-2-71a26.33 26.33 0 005.24-3.55c4.16-3.72-4.37-69.13-4.37-69.13 5.21 14.38 9.13 26.14 12.2 35.73l-.49.16-.94 107.84z" fill="#62b3ac"/><path d="M418.92 270.08l11.34-5.24s9 6.56 14.09 5.24a2.5 2.5 0 00.78-.32 2.46 2.46 0 00.58-.53l13.71-12.54.91 1c7-.59 21.25-11.56 21.25-11.56l8.91-4.52c1.7 4.25 3.27 8.42 4.75 12.51 2.33 6.48 4.42 12.77 6.34 18.89 2.46 7.82 4.66 15.36 6.76 22.62 5.78 20 10.86 37.89 18.86 54.08 7.87 16 3.71 46.61 3.71 46.61s-33.46-29.32-43.3-31.51-29.23-2.3-36.27 2.35l-4.86-40H453V316h-26.21c-.26-5.26.36-4.26-2.41-4.82l-.65-15.42c3-1.1 2.52.14 2-4.26l-6.57-.66z" fill="#edb13f"/><path d="M347.21 544.42c-1.54-3.23-4.27-8.31-7.79-8.93l1.33-8.82c11.18.09 10.25 3.24 28.53-2.15-.82 3.28-1.25 4.67.77 17.77-18.6 5.82-20.88 6.26-22.84 2.13z" fill="#dfe4e7"/><path d="M306.67 265.94a.28.28 0 010 .06l-.3-.05z" fill="#ed8b70"/><path d="M445.13 269.76l.58-.53a2.46 2.46 0 01-.58.53z" fill="#1a1a1a"/><path d="M246.63 268.77c4.45-19.57 4.55-34.82 10.5-28.87l-6.75 38.19c-1.09 0-2.2-.08-3.31-.11v-.07c-.25-5.22-.1-6.8-.58-9.1z" fill="#398054"/><path d="M402.24 235s5.3-11.92 5.51-17.39c.06-1.26.08-2.47.07-3.64.49 1.32 6.73 18.34 2.42 24.75-1.96-.97-4.59-2.15-8-3.72z" fill="#1a1a1a"/><path fill="#6b1c21" d="M305.37 554.93l-34.73-225.45h12.63l28.5 222.82.16 1.32-6.56 1.31z"/><path d="M369.25 524.52c-18.28 5.39-17.35 2.24-28.53 2.15l5-33.62c6.93.58 11.66.31 22.4-1.78z" fill="#fcdcbd"/><path d="M378.39 231.94a9.32 9.32 0 0110.77-5.62c1.79.35-.3 3.72-1.11 4.94-2.91.1-6.17.34-9.66.68z" fill="#fff"/><path d="M287 293.71h2.63l129.51-2.79 6.57.66c.55 4.4 1.06 3.16-2 4.26h-56v15.42h56.66c2.77.56 2.15-.44 2.41 4.82H283.31c1.42-7.08-2.47-17.16 3.69-22.37z" fill="#687eb7"/><path d="M457.47 540.33c-23.58 14.37-6-7.75-35.44-6.41 3.12-3.49.6-10.71.6-10.71 13.44-1.23 15.11.7 28.44-5.25z" fill="#dfe4e7"/><path d="M413 492.36c-16.19 2.16-14 .3-27-40.18-3.07-9.59-7-21.35-12.2-35.73-14-34.79 37.41-43.76 37.41-43.76l.77-4.05c6.36 1.13 18.61 2.24 26.89 1.16l8.15 53.2-11.26 4c4.26 12.54 7.71 22.05 10.31 29.34 7.93 22.11 8.14 23.73 0 27.51l-3.94 1.78c-17.13 5.57-16.88 5.53-29.13 6.73z" fill="#b4aa75"/><path d="M406 329.16h26.69l6.23 40.64c-8.28 1.08-20.53 0-26.89-1.16a27.09 27.09 0 01-3.4-.76c6.86-14.81 5.22-13.46-2.63-38.72z" fill="#edb13f"/><path d="M289.62 293.66v-5.53h70.22v-18.37h-70.22v-3.61c6.12-.09 11.68-.16 16.76-.2l.3.05a.28.28 0 000-.06c56.72-.49 52 1.83 79.64 7.76 24.49 5.25 32.61-3.62 32.61-3.62l.21 20.79z" fill="#ee4451"/><path d="M460.26 558.86c-20.65 6.58-20.8 7.64-59.72 5.26-2.59-12.2 7.72-12 10.17-13.62 2-1.32 11.32-16.58 11.32-16.58 29.47-1.34 11.86 20.78 35.44 6.41 1.83 5.67 2.19 7.75 2.79 18.53z" fill="#6e4e4f"/><path d="M345.76 493.05L364 371.56l44.65-3.68a27.09 27.09 0 003.4.76l-.77 4.05s-51.42 9-37.41 43.76c0 0 8.53 65.41 4.37 69.13a26.33 26.33 0 01-5.24 3.55 35 35 0 01-4.82 2.14c-10.76 2.09-15.49 2.36-22.42 1.78z" fill="#b4aa75"/><path d="M231.86 249.65c1.38-2.76 2.64-3.54 4.16-3.07 1.19.37 2.53 1.5 4.21 3.07 4.19 12.54 5.68 16.38 6.26 19.16.48 2.3.33 3.88.58 9.1v.09c-1.78 0-3.59-.06-5.36 0z" fill="#6c4e4e"/><path d="M422.63 523.21L413 492.36c12.24-1.2 11.95-1.16 29.09-6.78L446 499.8l5 18.16c-13.26 5.95-14.93 4.04-28.37 5.25zM306.38 266c-4.91-1-8.9-9.74-9.38-14.57-.28-2.87 1.93-7 4.68-10.39a26.09 26.09 0 016-5.69c4.26-2.63 10.66-.33 13.29.49 9.19 2.88 37.11-1.93 57.43-3.85 3.49-.34 6.75-.58 9.66-.68 7.88-.3 13.14.42 13.14 3.22l1.05.49c3.41 1.6 6 2.78 8 3.72l-.06.09.08-.08c5 2.39 5.62 3.26 3.73 5.62-.66.82-3.94.82-3.94.82.31 4-2.36 4.37-6.07 3.29-10.74 5-12.51-4.07-20.61-2.3-6 1.31-1.86 3.61-.88 5.78s2 2.75-2 2-8.53-5.52-8.53-5.52-8.86 2.95-22.65 3.48-29.2 7-37.41 9c-5.69 1.36-5.34 4.58-5.26 5z" fill="#fcdcbd"/><path d="M231.84 278.53l-23.61-101h11.82l16 69c-1.52-.47-2.78.31-4.16 3.07l9.85 28.26a89 89 0 00-9.9.67z" fill="#f0b54d"/><path d="M435.76 427l11.31-4-1 33.29c-2.6-7.29-6.07-16.8-10.31-29.29z" fill="#62b3ac"/><path d="M231.86 316l-2.79-37c.86-.16 1.79-.3 2.77-.42a89 89 0 019.87-.58h5.36c1.11 0 2.22.06 3.31.11l1.49.06c2.41.12 4.7.28 6.74.47 1.12.1 2.17.21 3.12.33l-2.8 37.03z" fill="#b0c1d3"/><path d="M463.63 418.92c59.93-12.83 64.31-13.65 67.29-22.6 0 0 4.16-30.65-3.71-46.61-8-16.19-13.08-34.1-18.86-54.08 9.52-1.83 17-2.22 11.63-18.32-2.08-6.25-15.86-4.65-18.39-4.3-1.92-6.12-4-12.41-6.34-18.89l.48-.17c26.53.59 31.08-2.9 46.57 8.75-9.83 138.15-7.88 293.08-7.88 297.48h-9.18l-3.94-141.26H499v141.26h-7.85l-4.4-141.26z" fill="#62b3ac"/><path d="M407.82 213.94a63.41 63.41 0 00-.42-7.18c5.68 4.47 18.08 5.57 18.08 5.57l-9.19 20.34-6 6c4.26-6.39-1.98-23.41-2.47-24.73z" fill="#fcdcbd"/><path d="M444.35 270.08c-5.09 1.32-14.09-5.24-14.09-5.24L441.67 254c2.85 6.13 5.9 12.81 4.05 15.28l-.58.53a2.5 2.5 0 01-.79.27z" fill="#1a1a1a"/><path d="M410.26 238.7l-.08.08.06-.09z" fill="#ed8b70"/><path d="M240.23 249.65c-.41-11.58-.13-8.93-1.15-15.66l5.58-.66c1 8.75.54 1.88 2 35.44h-.14c-.61-2.77-2.1-6.58-6.29-19.12z" fill="#3e8356"/><path fill="#87282c" d="M231.87 316.03h221.17v11.16h-6.56l4.86 39.97 6.44 53.01 17.58 144.6h-6.56L447.07 423l-8.15-53.2-6.23-40.64h-62.35l-6.35 42.4-18.23 121.49-5.04 33.62-1.33 8.82-4.49 29.94h-7.87l3.18-25.42 5.92-47.29 15.09-120.57 5.34-42.67H199.7l-34.12 233.98h-7.88l29.53-233.65h-9.84v-13.78h54.48z"/><path fill="none" stroke="#050000" stroke-miterlimit="10" stroke-width=".52" d="M438.92 369.8l-6.23-40.64h-62.35l-6.35 42.4-18.23 121.49-5.04 33.62-1.33 8.82-4.49 29.94h-7.87l3.18-25.42 5.92-47.29 15.09-120.57 5.34-42.67H199.7l-34.12 233.98h-7.88l29.53-233.65h-9.84v-13.78h275.65v11.16h-6.56l4.86 39.97 6.44 53.01 17.58 144.6h-6.56L447.07 423l-8.15-53.2"/><path fill="none" stroke="#050000" stroke-miterlimit="10" stroke-width=".52" d="M283.27 329.48l28.5 222.82.16 1.32-6.56 1.31-34.73-225.45-.06-.32M422 533.92s-9.35 15.26-11.32 16.58c-2.45 1.63-12.76 1.42-10.17 13.62 38.92 2.38 39.07 1.32 59.72-5.26-.6-10.78-1-12.83-2.79-18.53-23.55 14.37-5.94-7.75-35.44-6.41zm-87.1 31.51c44.69-2.79 41.53 1 35.12-23.14-18.57 5.82-20.85 6.26-22.81 2.13-1.54-3.23-4.27-8.31-7.79-8.93M327 565.43s-13.1-.49-17-1.43c-4.94-1.24-8.42-5.19-4.59-9m24.73-15l-18.37 12.3"/><path d="M457.47 540.33l-6.4-22.33c-13.33 5.95-15 4-28.44 5.25 0 0 2.52 7.22-.6 10.71" fill="none" stroke="#050000" stroke-miterlimit="10" stroke-width=".52"/><path d="M451.07 518l-5-18.16-3.94-14.22c-17.14 5.62-16.85 5.58-29.09 6.78l9.62 30.85M370 542.29c-2-13.1-1.59-14.49-.77-17.77-18.28 5.39-17.35 2.24-28.53 2.15h-.08M345.4 493h.36c6.93.58 11.66.31 22.4-1.78l1.09 33.25m88.53-104.3l5.85-1.25c59.93-12.83 64.31-13.65 67.29-22.6 0 0-33.47-29.32-43.31-31.51s-29.23-2.3-36.27 2.35" fill="none" stroke="#050000" stroke-miterlimit="10" stroke-width=".52"/><path d="M413 492.36c-16.19 2.16-14 .3-27-40.18-3.07-9.59-7-21.35-12.2-35.73 0 0 8.53 65.41 4.37 69.13a26.33 26.33 0 01-5.24 3.55 35 35 0 01-4.82 2.14m43.15-118.58s-51.42 9-37.41 43.76m65.07-46.65h0c-8.28 1.08-20.53 0-26.89-1.16a27.09 27.09 0 01-3.4-.76c6.86-14.81 5.22-13.46-2.63-38.72m2.63 38.72l-44.65 3.68m-12.79.58s-28.65 1.53-28.54 22.43 2.63 92.1 4.6 93.85 8.87 4.3 8.87 4.3m109.59-223.49a2.46 2.46 0 01-.58.53 2.5 2.5 0 01-.78.32c-5.09 1.32-14.09-5.24-14.09-5.24l-11.34 5.24.21 20.79 6.57.66c.55 4.4 1.06 3.16-2 4.26l.65 15.42c2.77.56 2.15-.44 2.41 4.82" fill="none" stroke="#050000" stroke-miterlimit="10" stroke-width=".52"/><path d="M530.92 396.32s4.16-30.65-3.71-46.61c-8-16.19-13.08-34.1-18.86-54.08-2.1-7.26-4.3-14.8-6.76-22.62-1.92-6.12-4-12.41-6.34-18.89-1.48-4.09-3.05-8.26-4.75-12.51-3.57-9-7.68-18.29-12.52-28-6.48-12.95-33.83-18-38.23-12.47-3.12 3.94-14.27 11.16-14.27 11.16l-9.19 20.34s20 9.2 23.46 17.07c.58 1.33 1.25 2.76 1.92 4.21 2.85 6.13 5.9 12.81 4.05 15.28" fill="none" stroke="#050000" stroke-miterlimit="10" stroke-width=".52"/><path fill="none" stroke="#050000" stroke-miterlimit="10" stroke-width=".52" d="M468.46 248.43l-9.03 8.26-13.72 12.54h0l-.58.53m36.46-23.63s-14.27 11-21.25 11.56m-30.08 7.15l11.41-10.89m-22.54 36.92l-129.51 2.79h-2.63c-6.15 5.21-2.26 15.29-3.68 22.32"/><path fill="none" stroke="#050000" stroke-miterlimit="10" stroke-width=".52" d="M424.38 311.21h-56.66v-15.42h56.01m-4.81-25.71s-8.12 8.87-32.61 3.62c-27.67-5.93-22.92-8.25-79.64-7.76h-.29c-5.08 0-10.64.11-16.76.2v27.51"/><path fill="none" stroke="#050000" stroke-miterlimit="10" stroke-width=".52" d="M289.62 288.13h70.22v-18.37h-70.22m16.76-3.76l.3.05a.28.28 0 000-.06c-.08-.46-.43-3.68 5.26-5 8.21-2 23.63-8.46 37.41-9s22.65-3.56 22.65-3.56 4.59 4.81 8.53 5.52 3 .13 2-2-5.13-4.47.88-5.78c8.1-1.77 9.87 7.31 20.61 2.3 3.71 1.08 6.38.74 6.07-3.29 0 0 3.28 0 3.94-.82 1.89-2.36 1.24-3.23-3.73-5.62h0c-2-.94-4.59-2.12-8-3.72l-1.05-.49c0-2.8-5.26-3.52-13.14-3.22-2.91.1-6.17.34-9.66.68-20.32 1.92-48.24 6.73-57.43 3.85-2.63-.82-9-3.12-13.29-.49a26.09 26.09 0 00-6 5.69c-2.75 3.43-5 7.52-4.68 10.39.43 4.78 4.42 13.57 9.33 14.57zm97.6-17.57l-11.97-7.44m18.04 4.15l-9.51-6.36m4.76 20.62s1.25 4.05 0 6.6"/><path d="M402.24 235s5.3-11.92 5.51-17.39c.06-1.26.08-2.47.07-3.64a63.41 63.41 0 00-.42-7.18c-1.48-12.76-6.63-19.28-10.74-23.27-2-1.92-3.69-3.25-4.65-4.41 0 0 2-9.63-1.76-13.79-8.12-9.11-23.25-11.32-26.25-4.4-2 4.59-3.28 8.31-1.09 11.59 5.21 7.82.32 10.72-7 9.85-5.49-.66-20.81.65-20.81.65s-8.53 13-9.62 12.94-1.53 8.72-3.5 8.94a14.75 14.75 0 00-4.38 1.53c.82 9.46 1.68 17.84-4.59 22.54-.88.65 7.93 6.83 7.93 6.83" fill="none" stroke="#050000" stroke-miterlimit="10" stroke-width=".52"/><path d="M301.68 241c-11.41-5.47-11.62-14.41-19.5-20.79-4.59-3.71-7.22-12.9-5.47-16.62s6.34-4.16 4.37-9-4.15-16.63-.87-19.25 9.19-2.85 9.41-7.66 6.78-14.88 10.28-15.31 7.44 3.94 9.63-2.63 6.78-14.44 11.15-12.69 5.69 3 12.25-.24 16-3.26 19.91 1.77 8.1 6.78 15.1 7.88 16.63 7.8 17.5 10.46S398.29 166.61 398 169s-1.2 13.05-1.33 14.48a1.08 1.08 0 010 .16m28.81 28.69s-12.4-1.1-18.08-5.57l-.18-.13m.57 7.23v.08c.49 1.32 6.73 18.34 2.42 24.75l-.06.09.08-.08 6-6m-28.49-1.01l.31-.43c.81-1.22 2.9-4.59 1.11-4.94a9.32 9.32 0 00-10.77 5.62 1.07 1.07 0 00-.12.33m-10.09.59c2.28-3-.9-3.84-4.07.49" fill="none" stroke="#050000" stroke-miterlimit="10" stroke-width=".52"/><path d="M359.19 209.48s-.77 6-3.26 7.28" fill="none" stroke="#050000" stroke-miterlimit="10" stroke-width="1.56"/><path fill="none" stroke="#050000" stroke-miterlimit="10" stroke-width="2.6" d="M353.28 200.84l-12.14 13.02"/><path fill="none" stroke="#050000" stroke-miterlimit="10" stroke-width="1.56" d="M337.69 232.27v3.52"/><path fill="none" stroke="#050000" stroke-miterlimit="10" stroke-width=".52" d="M372.98 489.13l1.96 71.05h9.68l.94-107.84m60.48 47.46v-16.15m-.04-26.28v-1.08l1-33.29-11.24 4c4.26 12.54 7.71 22.05 10.31 29.34 7.93 22.11 8.14 23.73 0 27.51l-3.94 1.78m21.47-66.71h23.13l4.4 141.26H499V418.92h22.3l3.94 141.26h9.18c0-4.4-1.95-159.33 7.88-297.48-15.49-11.65-20-8.16-46.57-8.75"/><path d="M501.19 273.07l.4-.06c2.53-.35 16.31-1.95 18.39 4.3 5.37 16.1-2.11 16.49-11.63 18.32l-.27.05M231.86 316l-2.79-37c.86-.16 1.79-.3 2.77-.42a89 89 0 019.87-.58h5.36c1.11 0 2.22.06 3.31.11l1.49.06c2.41.12 4.7.28 6.74.47 1.12.1 2.17.21 3.12.33l-2.8 37.03m-7.05-38.09l9.85-28.17c12.5-1.84 3 17.83-3.12 28.88h0" fill="none" stroke="#050000" stroke-miterlimit="10" stroke-width=".52"/><path d="M241.71 277.91l-9.85-28.26c1.38-2.76 2.64-3.54 4.16-3.07 1.19.37 2.53 1.5 4.21 3.07-.41-11.58-.13-8.93-1.15-15.66l5.58-.66c1 8.75.54 1.88 2 35.44 4.45-19.57 4.55-34.82 10.5-28.87l-6.75 38.19v0" fill="none" stroke="#050000" stroke-miterlimit="10" stroke-width=".52"/><path d="M240.23 249.65c4.19 12.54 5.68 16.38 6.26 19.16.48 2.3.33 3.88.58 9.1m-15.2.74l-.03-.12-23.61-100.98h11.82l15.97 69.02" fill="none" stroke="#050000" stroke-miterlimit="10" stroke-width=".52"/></svg>