<svg xmlns="http://www.w3.org/2000/svg" viewBox="0 0 1400 780"><path fill="none" stroke="#000" stroke-miterlimit="10" stroke-width="12.47" d="M925.54 189.99v401.58"/><path d="M865.69 275.21a6.24 6.24 0 008.61-1.92l51.24-80.46 51.24 80.46a6.23 6.23 0 1010.52-6.69l-56.5-88.72a6.23 6.23 0 00-10.52 0l-56.51 88.72a6.24 6.24 0 001.92 8.61zm0 231.14a6.25 6.25 0 018.61 1.91l51.24 80.46 51.24-80.46A6.24 6.24 0 01987.3 515l-56.5 88.72a6.24 6.24 0 01-10.52 0L863.77 515a6.24 6.24 0 011.92-8.61z"/><path fill="#fff" stroke="#000" stroke-miterlimit="10" stroke-width="12.47" d="M478.22 174.99v431.57"/><path fill="none" stroke="#000" stroke-linecap="round" stroke-miterlimit="10" stroke-width="12.47" d="M417.97 684.4l61.04-81.51 59.46 81.51m0-588.8l-61.04 81.51-59.46-81.51"/></svg>