<svg xmlns="http://www.w3.org/2000/svg" xmlns:xlink="http://www.w3.org/1999/xlink" viewBox="0 0 1400 780"><defs><linearGradient id="a" x1="893.09" y1="450.6" x2="1037.1" y2="450.6" gradientUnits="userSpaceOnUse"><stop offset="0" stop-color="#c1272d"/><stop offset="1"/></linearGradient><linearGradient id="b" x1="746.35" y1="451" x2="893.09" y2="451" gradientUnits="userSpaceOnUse"><stop offset="0"/><stop offset="1" stop-color="#c1272d"/></linearGradient><linearGradient id="c" x1="506.91" y1="435.2" x2="580.91" y2="435.2" xlink:href="#a"/><linearGradient id="d" x1="432.93" y1="435.2" x2="506.91" y2="435.2" xlink:href="#b"/></defs><path fill="#ccc" d="M0 0h1400v780H0z"/><path d="M1078 651.31c2.9 68.58-10.73 55.76-34.52-7.23-19.68 43.17-19.35 14.52-10.43-45-15.59-32.35-27.22-60.06-34.27-82.38 0 0 26.09 3.22 38.35-9.76 8.39 30.71 18 70.47 20.8 101 3.6 15.06 16.62 26.06 20.07 43.37z" fill="#eccbc7"/><path d="M1023.4 459.49c.22 1.36 6.5 21.08 13.7 47.5-12.26 13-38.35 9.76-38.35 9.76-6.38-20.17-9-36-7.46-46.83-41.88-233.45-4.6-80.33-40.93-14.45 31.77 52 51.25 109 49 170.16l-106.23-89.5V334.28l73.37-58.7c16.61 7.28 31.91 14.17 34.46 17 5.66 6.18 21.98 163.94 22.44 166.91z" fill="url(#a)"/><path d="M966.46 275.57l-73.37 58.7-73-57.91c20.15-9.08 42.12-19.14 45.4-22.34 6-5.9 6.19-19.75 6.68-33.86H914c.49 14.11.67 28 6.68 33.86 3.32 3.25 25.51 12.68 45.78 21.55z" fill="#eccbc7"/><path d="M893.09 334.28v201.85l-106.24 89.5c-2.28-60.81 16.91-117.59 49-170.16-36-65.36.9-218.69-40.93 14.45 1.56 10.93-1.12 26.84-7.57 47.18-30.12 11.87-40.95 0-40.95 0 8.29-31.36 16.19-56.08 16.43-57.61.45-3 17.47-163.4 22.47-166.94 2.29-1.62 17.93-8.54 34.86-16.18z" fill="url(#b)"/><path d="M746.36 517.1s10.83 11.87 40.95 0c-7.06 22.27-18.65 49.84-34.16 82 8.92 59.47 9.25 88.12-10.43 45-23.79 63-37.4 75.81-34.52 7.23C711.63 634 724.66 623 728.27 608c2.49-27.24 10.44-61.88 18.08-90.86zM691.8 651.31c2.89 68.58-10.73 55.76-34.52-7.23-19.68 43.17-19.35 14.52-10.43-45-29.69-61.59-45-106.31-41.73-129.21-31.26-174.16-19.89-130.87-24.21-81.52l-74-54.07-74 54.06c-4.37-49.42 7-92.52-24.22 81.58 3.26 22.9-12 67.62-41.73 129.21 8.92 59.47 9.25 88.12-10.44 45-23.79 63-37.4 75.81-34.51 7.23C325.46 634 338.48 623 342.09 608c5.19-56.74 34.06-145.51 34.52-148.47s17.47-163.4 22.46-166.94 74.24-32.64 80.27-38.52 6.18-19.75 6.68-33.86h41.78c.5 14.11.68 28 6.69 33.86s74.58 32.29 80.26 38.52 22 164 22.48 166.94 29.33 91.73 34.5 148.47c3.62 15 16.65 26 20.07 43.31z" fill="#eccbc7"/><path d="M506.91 334.28l74 54.07c-2.36 27.08-7.41 50.23-16.72 67.12 5.9 9.67 11.39 19.52 16.39 29.53l-73.66 51.13z" fill="url(#c)"/><path d="M506.91 334.28v201.85L433.27 485q7.47-15 16.37-29.53c-9.32-16.89-14.36-40-16.71-67.13z" fill="url(#d)"/><path d="M432.93 388.34c-4.37-49.42 7-92.52-24.22 81.58 3.26 22.9-12 67.62-41.73 129.21 8.92 59.47 9.25 88.12-10.44 45-23.79 63-37.4 75.81-34.51 7.23C325.46 634 338.48 623 342.09 608c5.19-56.74 34.06-145.51 34.52-148.47s17.47-163.4 22.46-166.94 74.24-32.64 80.27-38.52 6.18-19.75 6.68-33.86h41.78c.5 14.11.68 28 6.69 33.86s74.58 32.29 80.26 38.52 22 164 22.48 166.94 29.33 91.73 34.5 148.47c3.62 15 16.65 26 20.07 43.35 2.89 68.58-10.73 55.76-34.52-7.23-19.68 43.17-19.35 14.52-10.43-45-29.69-61.59-45-106.31-41.73-129.21-31.26-174.2-19.89-130.91-24.21-81.56l-74-54.07z" fill="none" stroke="#000" stroke-miterlimit="10"/><path d="M613.15 625.63c1.87-49.79-10.7-96.81-32.57-140.63-5-10-10.49-19.86-16.39-29.53 9.31-16.89 14.36-40 16.72-67.12m-147.98-.01l-.01.01m-32.24 237.28c-1.86-49.58 10.56-96.49 32.59-140.63q7.47-15 16.37-29.53c-9.32-16.89-14.36-40-16.71-67.13" fill="none" stroke="#000" stroke-miterlimit="10"/><path fill="none" stroke="#000" stroke-miterlimit="10" d="M506.91 536.13L433.27 485h-.01m147.31 0l-73.66 51.13V334.28m312.19 54.06l-.01.01m74-54.07l-72.98-57.91m146.35-.79l-73.37 58.7v201.85"/><path d="M820.11 276.37c20.15-9.08 42.12-19.14 45.4-22.34 6-5.9 6.19-19.75 6.68-33.86H914c.49 14.11.67 28 6.68 33.86 3.32 3.24 25.53 12.67 45.8 21.54 16.61 7.28 31.91 14.17 34.46 17 5.7 6.21 22 164 22.48 166.94.22 1.36 6.5 21.08 13.7 47.5 8.39 30.71 18 70.47 20.8 101 3.63 15 16.65 26 20.07 43.35 2.9 68.58-10.73 55.76-34.52-7.23-19.68 43.17-19.35 14.52-10.43-45-15.59-32.35-27.22-60.06-34.27-82.38-6.38-20.17-9-36-7.46-46.83-41.88-233.45-4.6-80.33-40.93-14.45 31.77 52 51.25 109 49 170.16l-106.23-89.5-106.24 89.5c-2.28-60.81 16.91-117.59 49-170.16-36-65.36.9-218.69-40.93 14.45 1.56 10.93-1.12 26.84-7.57 47.18-7.06 22.27-18.65 49.84-34.16 82 8.92 59.47 9.25 88.12-10.43 45-23.79 63-37.4 75.81-34.52 7.23C711.63 634 724.66 623 728.27 608c2.49-27.24 10.44-61.88 18.08-90.86 8.29-31.36 16.19-56.08 16.43-57.61.45-3 17.47-163.4 22.47-166.94 2.29-1.66 17.93-8.59 34.86-16.22zm178.64 240.38s26.09 3.22 38.35-9.76M746.36 517.1s10.83 11.87 40.95 0" fill="none" stroke="#000" stroke-miterlimit="10"/><path d="M506.49 218.66c8.27-.95 13.71-4.23 16.91-9.37-6-1.57-11.88-2.54-16.91-1-5-1.53-10.87-.56-16.92 1 3.2 5.14 8.64 8.42 16.92 9.37zm7-26.47c-2.53.25-5.67 2.36-7 2.28-1.34.08-4.49-2-7-2.28s-3.5 3.1 0 3a.24.24 0 01.12 0h.19a7.11 7.11 0 014.21.34 1.54 1.54 0 01.24.1h.06c.19.09.41.2.6.31h3.16c.2-.11.41-.22.63-.32a5.63 5.63 0 011.11-.39 7 7 0 012.24-.21h.38c.31 0 .61.1.92.17h.12c3.53.1 2.53-3.26.02-3zm19.24 1c9.92-.41 17.17-6.44 21.25-19.16-1.11 6.21-2.35 11.95-3.78 17.22-4.11 15.09-10.78 22.73-17.3 31.39-7.24 7.75-14.53 13.81-26.41 15-11.89-1.23-19.43-7.48-26.42-15-7.05-8.66-13.2-16.3-17.3-31.39-1.45-5.27-2.68-11-3.78-17.22 4.08 12.72 11.33 18.75 21.25 19.16 12.22.52 18.93-9.22 21.65-26.31 1-1.19 2.6-1.54 4.59-1.44 2-.1 3.6.25 4.59 1.44 2.73 17.12 9.44 26.83 21.66 26.31z" fill="#eccbc7"/><path d="M500.81 193.73c1.72-.11 3.3 1.61 3.47 1.8a.68.68 0 00-.24-.1 7.09 7.09 0 00-4.21-.34h-.19s-.64-1.23 1.17-1.36z" fill="#231400"/><path d="M529.64 172.41a2.83 2.83 0 10-2.83-2.84 2.83 2.83 0 002.83 2.84zm6.13-5a7.36 7.36 0 01-1.56 6.51 18.86 18.86 0 01-8.44.67 6.24 6.24 0 01-2.15-6.49q5.57-4.56 12.15-.65z" fill="#3c4c9a"/><path d="M506.49 194.47c1.33.08 4.47-2 7-2.28s3.49 3.1 0 3h-.12s.62-1.27-1.22-1.4-3.34 1.66-3.46 1.8-.43.21-.63.32h-3.16c-.19-.11-.41-.22-.6-.31-.17-.19-1.75-1.91-3.47-1.8s-1.21 1.4-1.21 1.4a.24.24 0 00-.12 0c-3.5.13-2.52-3.23 0-3s5.65 2.35 6.99 2.27z" fill="#704b3c"/><path d="M530.15 167.76a.82.82 0 10-.81.82.82.82 0 00.81-.82zm2.31 1.81a2.83 2.83 0 11-2.82-2.81 2.83 2.83 0 012.82 2.81z" fill="#231f20"/><path d="M483.33 172.41a2.83 2.83 0 100-5.65 2.83 2.83 0 000 5.65zm3.86 2.22a18.88 18.88 0 01-8.44-.67 7.38 7.38 0 01-1.55-6.51q6.58-3.91 12.14.67a6.2 6.2 0 01-2.15 6.49z" fill="#3c4c9a"/><path d="M539.42 170.2c3.88-.27 5.84-2.72 6.72-6.35a7.56 7.56 0 01-4.83 3.32c-.37-.34-.75-.65-1.14-.95-4.2-7.86-20.13-5.27-20.91 7 7.86 5.68 19.12 3.04 20.16-3.02zm11.46-.39c1.13 26.61-36.06 30.49-36.06 0 4.34-14.76 32.46-14 36.06 0z" fill="#eccbc7"/><path d="M523.4 209.29c-3.2 5.14-8.64 8.42-16.91 9.37-8.28-.95-13.72-4.23-16.92-9.37l16.92 2.65z" fill="#df576b"/><path d="M508.69 195.53c.12-.14 1.71-1.91 3.46-1.8s1.22 1.4 1.22 1.4c-.31-.07-.61-.13-.92-.17h-.38a7 7 0 00-2.24.21 5.63 5.63 0 00-1.14.36z" fill="#231400"/><path d="M517.7 154.72c8.27-3.1 15.85-5.41 21.67-5.76 4.06.55 7.13 2.18 8.51 5.68-1.62-1.09-4.34-1.69-8.13-1.8a186.78 186.78 0 00-20.53 5.48 2.46 2.46 0 01-1.52-3.6z" fill="#231f20"/><path d="M504.24 195.53a1.54 1.54 0 00-.24-.1.68.68 0 01.24.1z" fill="#704b3c"/><path d="M462.09 169.81c3.6-14 31.71-14.76 36.06 0 0 30.49-37.15 26.61-36.06 0zm31.62 3.42c-.78-12.28-16.7-14.87-20.92-7-.38.3-.76.61-1.13.95a7.56 7.56 0 01-4.83-3.32c.88 3.63 2.83 6.08 6.71 6.35 1.05 6.05 12.31 8.69 20.17 3.02z" fill="#eccbc7"/><path d="M457.84 182.91A37.3 37.3 0 01459 174v.05c1.1 6.21 2.33 11.95 3.78 17.22-2.83.44-4.49-2.62-4.86-6.6-.06-.58-.08-1.16-.08-1.76z" fill="#d0ab9a"/><path d="M539.42 170.2a23.41 23.41 0 00-3.65-2.75q-6.59-3.91-12.15.67a21.9 21.9 0 00-4.36 5.11c3.24-10.74 13.14-12.93 20.91-7 .39.3.77.61 1.14.95a7.56 7.56 0 004.83-3.32c-.88 3.62-2.84 6.07-6.72 6.34z" fill="#231f20"/><path d="M539.42 170.2c-1 6.06-12.3 8.7-20.16 3a42 42 0 006.51 1.4 18.86 18.86 0 008.44-.67 11.06 11.06 0 005.21-3.73z" fill="#de9b95"/><path d="M512.07 194.92h.38z" fill="#231400"/><path d="M493.71 173.23c-7.86 5.67-19.12 3-20.17-3a11.16 11.16 0 005.21 3.76 18.88 18.88 0 008.44.67 41.88 41.88 0 006.52-1.43z" fill="#de9b95"/><path d="M506.49 208.28c5-1.53 10.86-.56 16.91 1l-16.91 2.65-16.92-2.65c6.05-1.56 11.88-2.53 16.92-1z" fill="#df576b"/><path d="M540.17 166.22c-7.77-5.92-17.67-3.73-20.91 7 .74-12.22 16.74-14.86 20.91-7z" fill="#de9b95"/><path d="M551.25 162.28s-5.64-44.63-44.8-45.39a45.05 45.05 0 00-10.52 1.4l-12.68-32c39-10.18 65.86.29 81.11 30.56 4.79 10.93 6.76 23.49 7.66 36.76 3.61 52.72-7.5 81.51-31.73 90.4 11.71-15.51 15.43-35.84 14.71-58.8 0-.19 0-.37.06-.56.05-.56.07-1.14.07-1.74A37 37 0 00554 174c.6-1.87 1.12-3.89 1.59-6.07v-3.21c-1.45-.87-2.86-1.65-4.28-2.36l-1.7-.82c.55.2 1.08.46 1.64.74z" fill="#231f20"/><path d="M498.15 169.81c-4.35-14.76-32.46-14-36.06 0-1.09 26.61 36.06 30.49 36.06 0zm52.73 0c-3.6-14-31.72-14.76-36.06 0 0 30.49 37.18 26.61 36.06 0zm-39.8-2.93c-1-1.19-2.61-1.54-4.59-1.44-2-.1-3.6.25-4.59 1.44-2.72 17.09-9.43 26.83-21.65 26.31-9.92-.41-17.17-6.44-21.25-19.16v-.05c-.59-1.88-1.11-3.89-1.58-6.07v-3.21c1.44-.87 2.86-1.65 4.27-2.36 13.62-6.81 26.35-6.42 38.13 1.73 1.41-1.2 3.63-1.85 6.69-2 3.06.12 5.28.77 6.68 2 11.29-7.81 23.45-8.49 36.43-2.55l1.7.82c1.42.71 2.83 1.49 4.28 2.36v3.21c-.47 2.18-1 4.2-1.59 6.07s0 0 0 .05c-4.08 12.72-11.33 18.75-21.25 19.16-12.25.52-18.96-9.19-21.68-26.31z" fill="#231f20"/><path d="M495.19 154.72c-8.28-3.1-15.84-5.41-21.66-5.76-4.06.55-7.14 2.18-8.51 5.68 1.61-1.09 4.33-1.69 8.13-1.8a188.57 188.57 0 0120.53 5.48 2.46 2.46 0 001.51-3.6zm11.26-37.83c39.16.76 44.8 45.39 44.8 45.39-.56-.27-1.09-.54-1.65-.78-13-6-25.17-5.32-36.47 2.5-1.4-1.19-3.62-1.85-6.68-2-3 .11-5.28.77-6.66 2-11.77-8.15-24.5-8.53-38.12-1.72 0 0 4.39-34.7 32.27-43.42.65-.21 1.31-.4 2-.57a45.05 45.05 0 0110.52-1.4zM539.37 149c-5.82.35-13.4 2.66-21.67 5.76a2.46 2.46 0 001.52 3.6 186.78 186.78 0 0120.53-5.48c3.79.11 6.51.71 8.13 1.8-1.38-3.54-4.45-5.17-8.51-5.68z" fill="#eccbc7"/><path d="M493.68 158.32a188.57 188.57 0 00-20.53-5.48c-3.8.11-6.52.71-8.13 1.8 1.37-3.5 4.45-5.13 8.51-5.68 5.82.35 13.38 2.66 21.66 5.76a2.46 2.46 0 01-1.51 3.6zm-20.89 7.9c7.78-5.92 17.67-3.73 20.92 7a21.92 21.92 0 00-4.37-5.11q-5.56-4.58-12.14-.67a24 24 0 00-3.66 2.75c-3.88-.27-5.83-2.72-6.71-6.35a7.56 7.56 0 004.83 3.32c.34-.33.75-.64 1.13-.94z" fill="#231f20"/><path d="M486.16 169.57a2.83 2.83 0 11-5.65 0 2.83 2.83 0 015.65 0zm-2.83-2.57a.82.82 0 10.8.81.81.81 0 00-.8-.81z" fill="#231f20"/><path d="M499.79 195.09a7.09 7.09 0 014.21.34 7.11 7.11 0 00-4.21-.34z" fill="#704b3c"/><path d="M472.79 166.22c4.22-7.86 20.14-5.27 20.92 7-3.25-10.73-13.14-12.92-20.92-7z" fill="#de9b95"/><path d="M555 185.21c-.47 3.7-2.1 6.47-4.8 6 1.43-5.27 2.67-11 3.78-17.22v-.05a37 37 0 011.14 8.93c0 .6 0 1.18-.07 1.74-.05.23-.05.39-.05.6z" fill="#d0ab9a"/><path d="M549.6 161.5c-13-5.94-25.14-5.26-36.43 2.55-1.4-1.2-3.62-1.85-6.68-2-3.06.12-5.28.77-6.69 2-11.78-8.15-24.51-8.54-38.13-1.73-1.41.71-2.83 1.49-4.27 2.36v3.21c.47 2.18 1 4.19 1.58 6.07a37.3 37.3 0 00-1.13 8.93c0 .6 0 1.18.07 1.74-.79 23.2 2.9 43.73 14.72 59.4-24.22-8.89-35.34-37.68-31.73-90.4.91-13.27 2.88-25.83 7.66-36.76 9.65-15.63 21.06-26.22 34.68-30.56l10.69 32.53c-27.88 8.72-32.27 43.42-32.27 43.42 13.62-6.81 26.35-6.43 38.12 1.72 1.38-1.19 3.62-1.85 6.66-2 3.06.11 5.28.77 6.68 2 11.3-7.8 23.48-8.47 36.47-2.48z" fill="#231f20"/><path d="M509.83 195.13h0m2.62-.13h-.38m27.35-24.8c-1 6.06-12.3 8.7-20.16 3a42 42 0 006.51 1.4 18.86 18.86 0 008.44-.67 11.06 11.06 0 005.21-3.73z" fill="none" stroke="#000" stroke-miterlimit="10" stroke-width=".75"/><path d="M539.42 170.2a23.41 23.41 0 00-3.65-2.75q-6.59-3.91-12.15.67a21.9 21.9 0 00-4.36 5.11c3.24-10.74 13.14-12.93 20.91-7 .39.3.77.61 1.14.95a7.56 7.56 0 004.83-3.32c-.88 3.62-2.84 6.07-6.72 6.34zm-15.8-2.08a6.24 6.24 0 002.15 6.49m10-7.16a7.36 7.36 0 01-1.56 6.51" fill="none" stroke="#000" stroke-miterlimit="10" stroke-width=".75"/><path d="M532.46 169.57a2.83 2.83 0 11-2.82-2.81 2.83 2.83 0 012.82 2.81z" fill="none" stroke="#000" stroke-miterlimit="10" stroke-width=".75"/><path d="M530.15 167.76a.82.82 0 11-.81-.81.82.82 0 01.81.81zM459 174c1.1 6.21 2.33 11.95 3.78 17.22 4.1 15.09 10.25 22.73 17.3 31.39 7 7.56 14.53 13.81 26.42 15 11.88-1.23 19.17-7.29 26.41-15 6.52-8.66 13.19-16.3 17.3-31.39 1.43-5.27 2.67-11 3.78-17.22" fill="none" stroke="#000" stroke-miterlimit="10" stroke-width=".75"/><path d="M504.24 195.53a1.54 1.54 0 00-.24-.1 7.11 7.11 0 00-4.21-.34m13.58.04c-.31-.07-.61-.13-.92-.17h-.38a7 7 0 00-2.24.21h0a5.63 5.63 0 00-1.11.39m-19.15 13.73c6.05-1.57 11.88-2.54 16.92-1 5-1.53 10.86-.56 16.91 1m0 0c-3.2 5.14-8.64 8.42-16.91 9.37-8.28-.95-13.72-4.23-16.92-9.37l16.92 2.65zm26.8-18.04c2.7.43 4.33-2.34 4.8-6 0-.19 0-.37.06-.56.05-.56.07-1.14.07-1.74A37 37 0 00554 174m-4.4-12.5c.56.24 1.09.51 1.65.78 0 0-5.64-44.63-44.8-45.39h0a45.05 45.05 0 00-10.52 1.4c-.68.17-1.34.36-2 .57-27.88 8.72-32.27 43.42-32.27 43.42 13.62-6.81 26.35-6.43 38.12 1.72 1.38-1.19 3.62-1.85 6.66-2h0c3.06.11 5.28.77 6.68 2 11.31-7.82 23.49-8.49 36.48-2.5z" fill="none" stroke="#000" stroke-miterlimit="10" stroke-width=".75"/><path d="M519.22 158.32a2.46 2.46 0 01-1.52-3.6c8.27-3.1 15.85-5.41 21.67-5.76 4.06.55 7.13 2.18 8.51 5.68-1.62-1.09-4.34-1.69-8.13-1.8a186.78 186.78 0 00-20.53 5.48z" fill="none" stroke="#000" stroke-miterlimit="10" stroke-width=".75"/><path d="M459 174v.05c4.08 12.72 11.33 18.75 21.25 19.16 12.22.52 18.93-9.22 21.65-26.31 1-1.19 2.6-1.54 4.59-1.44h0c2-.1 3.6.25 4.59 1.44 2.72 17.09 9.43 26.83 21.65 26.31 9.92-.41 17.17-6.44 21.25-19.16V174v0c.6-1.87 1.12-3.89 1.59-6.07v-3.21c-1.45-.87-2.86-1.65-4.28-2.36l-1.7-.82c-13-5.94-25.14-5.26-36.43 2.55-1.4-1.2-3.62-1.85-6.68-2h0c-3.06.12-5.28.77-6.69 2-11.78-8.15-24.51-8.54-38.13-1.73-1.41.71-2.83 1.49-4.27 2.36v3.21c.47 2.18 1 4.19 1.58 6.07" fill="none" stroke="#000" stroke-miterlimit="10" stroke-width=".75"/><path d="M514.82 169.81c4.34-14.76 32.46-14 36.06 0 1.12 26.61-36.06 30.49-36.06 0zm4.44 3.42c.78-12.28 16.71-14.87 20.91-7m-40.57 28.9a.24.24 0 00-.12 0c-3.5.13-2.52-3.23 0-3s5.67 2.36 7 2.28c1.33.08 4.47-2 7-2.28s3.49 3.1 0 3h-.12s.62-1.27-1.22-1.4-3.34 1.66-3.46 1.8" fill="none" stroke="#000" stroke-miterlimit="10" stroke-width=".75"/><path d="M504.28 195.53h0a.68.68 0 00-.24-.1 7.09 7.09 0 00-4.21-.34h-.19s-.63-1.27 1.21-1.4 3.3 1.61 3.47 1.8h0c.19.09.41.2.6.31h3.16c.2-.11.41-.22.63-.32m-10.56-25.67c0 30.49-37.19 26.61-36.06 0 3.6-14 31.71-14.76 36.06 0z" fill="none" stroke="#000" stroke-miterlimit="10" stroke-width=".75"/><path d="M473.54 170.2c1 6.06 12.31 8.7 20.17 3a41.88 41.88 0 01-6.52 1.4 18.88 18.88 0 01-8.44-.67 11.16 11.16 0 01-5.21-3.73z" fill="none" stroke="#000" stroke-miterlimit="10" stroke-width=".75"/><path d="M473.54 170.2a24 24 0 013.66-2.75q6.58-3.91 12.14.67a21.92 21.92 0 014.37 5.11c-3.25-10.74-13.14-12.93-20.92-7-.38.3-.76.61-1.13.95a7.56 7.56 0 01-4.83-3.32c.88 3.62 2.83 6.07 6.71 6.34zm15.8-2.08a6.2 6.2 0 01-2.15 6.49m-9.99-7.16a7.38 7.38 0 001.55 6.51" fill="none" stroke="#000" stroke-miterlimit="10" stroke-width=".75"/><path d="M480.51 169.57a2.83 2.83 0 102.82-2.81 2.83 2.83 0 00-2.82 2.81z" fill="none" stroke="#000" stroke-miterlimit="10" stroke-width=".75"/><path d="M482.52 167.76a.81.81 0 10.81-.81.81.81 0 00-.81.81zm11.16-9.44a188.57 188.57 0 00-20.53-5.48c-3.8.11-6.52.71-8.13 1.8 1.37-3.5 4.45-5.13 8.51-5.68 5.82.35 13.38 2.66 21.66 5.76a2.46 2.46 0 01-1.51 3.6zm-30.91 32.93c-2.83.44-4.49-2.62-4.86-6.6-.05-.56-.07-1.14-.07-1.74A37.3 37.3 0 01459 174v0m34.71-.77c-.78-12.28-16.7-14.87-20.92-7" fill="none" stroke="#000" stroke-miterlimit="10" stroke-width=".75"/><path d="M493.92 118.86l-10.69-32.53c-13.62 4.34-25 14.93-34.68 30.56-4.78 10.93-6.75 23.49-7.66 36.76-3.61 52.72 7.51 81.51 31.73 90.4-11.82-15.67-15.51-36.2-14.72-59.4v-.05m38.01-66.31l-12.68-32c39-10.18 65.86.29 81.11 30.56 4.79 10.93 6.76 23.49 7.66 36.76 3.61 52.72-7.5 81.51-31.73 90.4 11.73-15.51 15.45-35.84 14.73-58.8v-.61" fill="none" stroke="#000" stroke-miterlimit="10" stroke-width=".75"/><path d="M900 164c11.3-7.82 23.48-8.49 36.48-2.5-13-5.94-25.15-5.26-36.43 2.55-1.41-1.2-3.63-1.85-6.69-2-3.06.12-5.28.77-6.68 2-11.78-8.15-24.51-8.54-38.13-1.73-1.42.71-2.83 1.49-4.28 2.36v3.21c.47 2.18 1 4.19 1.59 6.07a37 37 0 00-1.14 8.93 16.38 16.38 0 00.08 1.74c-.79 23.2 2.9 43.73 14.73 59.4-24.23-8.89-35.34-37.68-31.73-90.4.9-13.27 2.87-25.83 7.66-36.76 9.64-15.63 21.05-26.22 34.67-30.56l10.69 32.53c-27.88 8.72-32.27 43.42-32.27 43.42 13.62-6.81 26.35-6.43 38.12 1.72 1.39-1.19 3.62-1.85 6.67-2 3 .17 5.22.83 6.66 2.02z" fill="#231f20"/><path d="M880.51 158.32a187.37 187.37 0 00-20.51-5.48c-3.79.11-6.51.71-8.13 1.8 1.38-3.5 4.45-5.13 8.51-5.68 5.82.35 13.38 2.66 21.66 5.76a2.45 2.45 0 01-1.53 3.6z" fill="#231f20"/><path d="M890.83 195.43a.56.56 0 01.24.1 1 1 0 00-.24-.1z" fill="#704b3c"/><path d="M893.32 208.28c5-1.53 10.86-.56 16.91 1l-16.91 2.65-16.92-2.65c6.05-1.56 11.88-2.53 16.92-1z" fill="#df576b"/><path d="M880.54 173.23c-.78-12.28-16.69-14.87-20.91-7-.39.3-.77.61-1.14.95a7.51 7.51 0 01-4.82-3.32c.87 3.63 2.83 6.08 6.71 6.35 1.04 6.05 12.3 8.69 20.16 3.02zm4.44-3.42c0 30.49-37.19 26.61-36.06 0 3.6-14 31.72-14.76 36.08 0z" fill="#eccbc7"/><path d="M886.32 195.16c-3.5.13-2.53-3.23 0-3s5.66 2.36 7 2.28c1.33.08 4.48-2 7-2.28s3.5 3.1 0 3a.24.24 0 00-.12 0s.63-1.27-1.21-1.4-3.34 1.66-3.47 1.8-.43.21-.62.32h-3.16c-.2-.11-.41-.22-.61-.31-.17-.19-1.75-1.91-3.46-1.8s-1.22 1.4-1.22 1.4a.23.23 0 00-.13-.01z" fill="#704b3c"/><path d="M880.54 173.23c-7.86 5.67-19.12 3-20.16-3a11.06 11.06 0 005.21 3.76 18.86 18.86 0 008.44.67 42 42 0 006.51-1.43z" fill="#de9b95"/><path d="M910.46 168.12a21.92 21.92 0 00-4.37 5.11c3.25-10.74 13.14-12.93 20.92-7 .38.3.76.61 1.13.95a7.56 7.56 0 004.83-3.32c-.88 3.63-2.83 6.08-6.71 6.35a24 24 0 00-3.66-2.75q-6.6-3.92-12.14.66z" fill="#231f20"/><path d="M886.63 195.09a7.07 7.07 0 014.2.34 7.07 7.07 0 00-4.2-.34z" fill="#704b3c"/><path d="M937 191.25q2.15-7.91 3.78-17.22v-.05a37.3 37.3 0 011.13 8.93c0 .6 0 1.18-.07 1.74l-.06.56c-.42 3.7-2.04 6.47-4.78 6.04z" fill="#d0ab9a"/><path d="M859.63 166.22c7.77-5.92 17.67-3.73 20.91 7a21.9 21.9 0 00-4.36-5.11q-5.56-4.58-12.15-.67a23.41 23.41 0 00-3.65 2.75c-3.88-.27-5.84-2.72-6.71-6.35a7.51 7.51 0 004.82 3.32c.37-.33.75-.64 1.14-.94z" fill="#231f20"/><path d="M898.9 194.92h.38z" fill="#231400"/><path d="M927 166.22c-7.78-5.92-17.67-3.73-20.92 7 .79-12.22 16.72-14.86 20.92-7z" fill="#de9b95"/><path d="M895.52 195.53c.13-.14 1.71-1.91 3.47-1.8s1.21 1.4 1.21 1.4a9.32 9.32 0 00-.92-.17h-.38a6.94 6.94 0 00-2.23.21 5.72 5.72 0 00-1.15.36z" fill="#231400"/><path d="M849.6 191.25c-2.83.44-4.49-2.62-4.85-6.6a16.38 16.38 0 01-.08-1.74 37 37 0 011.14-8.93v.05c1.12 6.21 2.35 11.97 3.79 17.22z" fill="#d0ab9a"/><path d="M938.08 162.28s-5.64-44.63-44.8-45.39a45 45 0 00-10.52 1.4l-12.69-32c39-10.18 65.87.29 81.12 30.56 4.78 10.93 6.75 23.49 7.66 36.76 3.61 52.72-7.51 81.51-31.73 90.4 11.72-15.55 15.44-35.88 14.72-58.84l.06-.56c.05-.56.07-1.14.07-1.74a37.3 37.3 0 00-1.13-8.93c.59-1.87 1.11-3.89 1.58-6.07v-3.21c-1.44-.87-2.86-1.65-4.27-2.36l-1.7-.82c.55.26 1.08.52 1.63.8z" fill="#231f20"/><path d="M882 154.72c-8.28-3.1-15.84-5.41-21.66-5.76-4.06.55-7.13 2.18-8.51 5.68 1.62-1.09 4.34-1.69 8.13-1.8a187.37 187.37 0 0120.53 5.48 2.45 2.45 0 001.51-3.6zm54.42 6.78c-13-6-25.18-5.32-36.48 2.5-1.4-1.19-3.62-1.85-6.68-2-3 .11-5.28.77-6.67 2-11.77-8.15-24.5-8.53-38.12-1.72 0 0 4.39-34.7 32.27-43.42.65-.21 1.32-.4 2-.57a45 45 0 0110.52-1.4c39.16.76 44.8 45.39 44.8 45.39-.53-.28-1.06-.54-1.62-.78zm-31.9-6.78a2.45 2.45 0 001.51 3.6 187.37 187.37 0 0120.53-5.48c3.8.11 6.52.71 8.13 1.8-1.37-3.5-4.45-5.13-8.51-5.68-5.8.35-13.37 2.66-21.64 5.76z" fill="#eccbc7"/><path d="M910.23 209.29c-3.2 5.14-8.64 8.42-16.91 9.37-8.28-.95-13.72-4.23-16.92-9.37l16.92 2.65z" fill="#df576b"/><path d="M870.16 167a.82.82 0 10.81.81.81.81 0 00-.81-.81zm-2.82 2.62a2.83 2.83 0 112.82 2.84 2.81 2.81 0 01-2.82-2.89z" fill="#231f20"/><path d="M864 167.45q6.59-3.91 12.15.67a6.24 6.24 0 01-2.15 6.49 18.86 18.86 0 01-8.44-.67 7.36 7.36 0 01-1.56-6.49zm6.13-.69a2.83 2.83 0 102.83 2.81 2.81 2.81 0 00-2.8-2.81z" fill="#3c4c9a"/><path d="M880.54 173.23c-3.24-10.74-13.14-12.93-20.91-7 4.22-7.87 20.13-5.23 20.91 7z" fill="#de9b95"/><path d="M848.92 169.81c-1.13 26.61 36.06 30.49 36.06 0-4.34-14.76-32.46-14-36.06 0zm70.64 23.38c-12.22.52-18.93-9.22-21.65-26.31-1-1.19-2.6-1.54-4.59-1.44-2-.1-3.6.25-4.59 1.44-2.72 17.09-9.43 26.83-21.65 26.31-9.92-.41-17.17-6.44-21.25-19.16v-.05c-.6-1.88-1.12-3.89-1.59-6.07v-3.21c1.45-.87 2.86-1.65 4.28-2.36 13.62-6.81 26.35-6.42 38.13 1.73 1.4-1.2 3.62-1.85 6.68-2 3.06.12 5.28.77 6.69 2 11.28-7.81 23.44-8.49 36.43-2.55l1.7.82c1.41.71 2.83 1.49 4.27 2.36v3.21c-.47 2.18-1 4.2-1.58 6.07s0 0 0 .05c-4.11 12.72-11.35 18.75-21.28 19.16zm18.15-23.38c-3.6-14-31.71-14.76-36.06 0 0 30.49 37.19 26.61 36.06 0z" fill="#231f20"/><path d="M906.05 158.32a2.45 2.45 0 01-1.51-3.6c8.27-3.1 15.84-5.41 21.66-5.76 4.06.55 7.14 2.18 8.51 5.68-1.61-1.09-4.33-1.69-8.13-1.8a187.37 187.37 0 00-20.53 5.48z" fill="#231f20"/><path d="M906.09 173.23c7.86 5.67 19.12 3 20.17-3 3.88-.27 5.83-2.72 6.71-6.35a7.56 7.56 0 01-4.83 3.32c-.37-.34-.75-.65-1.13-.95-4.21-7.89-20.14-5.25-20.92 6.98zm-4.44-3.42c4.35-14.76 32.46-14 36.06 0 1.13 26.61-36.06 30.49-36.06 0z" fill="#eccbc7"/><path d="M893.32 194.47c-1.34.08-4.48-2-7-2.28s-3.5 3.1 0 3a.23.23 0 01.11 0h.2a7.07 7.07 0 014.2.34 1 1 0 01.24.1h.06c.2.09.41.2.61.31h3.16c.19-.11.41-.22.62-.32a5.72 5.72 0 011.12-.39 6.94 6.94 0 012.23-.21h.38a9.32 9.32 0 01.92.17.24.24 0 01.12 0c3.5.13 2.52-3.23 0-3s-5.64 2.36-6.97 2.28zm4.59-27.59c2.72 17.09 9.43 26.83 21.65 26.31 9.93-.41 17.17-6.44 21.25-19.16q-1.65 9.32-3.78 17.22c-4.1 15.09-10.77 22.73-17.3 31.39-7.24 7.75-14.53 13.81-26.41 15-11.89-1.23-19.42-7.48-26.42-15-7-8.66-13.19-16.3-17.3-31.39-1.44-5.27-2.67-11-3.78-17.22 4.08 12.72 11.33 18.75 21.25 19.16 12.22.52 18.93-9.22 21.65-26.31 1-1.19 2.61-1.54 4.59-1.44 2-.1 3.61.25 4.6 1.44zm12.32 42.41c-6.05-1.57-11.88-2.54-16.91-1-5-1.53-10.87-.56-16.92 1 3.2 5.14 8.64 8.42 16.92 9.37 8.27-.95 13.68-4.23 16.91-9.37z" fill="#eccbc7"/><path d="M913.64 169.57a2.83 2.83 0 105.65 0 2.83 2.83 0 00-5.65 0zm7.41 4.39a18.88 18.88 0 01-8.44.67 6.2 6.2 0 01-2.15-6.49q5.56-4.58 12.14-.67a7.38 7.38 0 01-1.55 6.53z" fill="#3c4c9a"/><path d="M886.43 195.13s-.62-1.27 1.22-1.4 3.29 1.61 3.46 1.8a.56.56 0 00-.24-.1 7.07 7.07 0 00-4.2-.34z" fill="#231400"/><path d="M926.26 170.2c-1 6.06-12.31 8.7-20.17 3a41.88 41.88 0 006.52 1.4 18.88 18.88 0 008.44-.67 11.16 11.16 0 005.21-3.73z" fill="#de9b95"/><path d="M915.35 167.76a.82.82 0 10.83-.81.83.83 0 00-.83.81zm-1.71 1.81a2.83 2.83 0 112.83 2.84 2.83 2.83 0 01-2.83-2.84z" fill="#231f20"/><path d="M896.67 195.13h0m2.61-.13h-.38m27.36-24.8c-1 6.06-12.31 8.7-20.17 3a41.88 41.88 0 006.52 1.4 18.88 18.88 0 008.44-.67 11.16 11.16 0 005.21-3.73z" fill="none" stroke="#000" stroke-miterlimit="10" stroke-width=".75"/><path d="M926.26 170.2a24 24 0 00-3.66-2.75q-6.58-3.91-12.14.67a21.92 21.92 0 00-4.37 5.11c3.25-10.74 13.14-12.93 20.92-7 .38.3.76.61 1.13.95a7.56 7.56 0 004.83-3.32c-.88 3.62-2.83 6.07-6.71 6.34zm-15.8-2.08a6.2 6.2 0 002.15 6.49m9.99-7.16a7.38 7.38 0 01-1.55 6.51" fill="none" stroke="#000" stroke-miterlimit="10" stroke-width=".75"/><path d="M919.29 169.57a2.83 2.83 0 11-2.82-2.81 2.83 2.83 0 012.82 2.81z" fill="none" stroke="#000" stroke-miterlimit="10" stroke-width=".75"/><path d="M917 167.76a.82.82 0 11-.8-.81.82.82 0 01.8.81zM845.82 174c1.11 6.21 2.34 11.95 3.78 17.22 4.11 15.09 10.25 22.73 17.3 31.39 7 7.56 14.53 13.81 26.42 15 11.88-1.23 19.17-7.29 26.41-15 6.53-8.66 13.2-16.3 17.3-31.39q2.15-7.91 3.78-17.22" fill="none" stroke="#000" stroke-miterlimit="10" stroke-width=".75"/><path d="M891.07 195.53a1 1 0 00-.24-.1 7.07 7.07 0 00-4.2-.34m13.57.04a9.32 9.32 0 00-.92-.17h-.38a6.94 6.94 0 00-2.23.21h0a5.72 5.72 0 00-1.12.39m-19.15 13.73c6.05-1.57 11.88-2.54 16.92-1 5-1.53 10.86-.56 16.91 1m0 0c-3.2 5.14-8.64 8.42-16.91 9.37-8.28-.95-13.72-4.23-16.92-9.37l16.92 2.65zM937 191.25c2.71.43 4.33-2.34 4.8-6l.06-.56c.05-.56.07-1.14.07-1.74a37.3 37.3 0 00-1.13-8.93m-4.36-12.52c.55.24 1.09.51 1.64.78 0 0-5.64-44.63-44.8-45.39h0a45 45 0 00-10.52 1.4c-.68.17-1.35.36-2 .57-27.88 8.72-32.27 43.42-32.27 43.42 13.62-6.81 26.35-6.43 38.12 1.72 1.39-1.19 3.62-1.85 6.67-2h0c3.06.11 5.28.77 6.68 2 11.3-7.82 23.48-8.49 36.48-2.5z" fill="none" stroke="#000" stroke-miterlimit="10" stroke-width=".75"/><path d="M906.05 158.32a2.45 2.45 0 01-1.51-3.6c8.27-3.1 15.84-5.41 21.66-5.76 4.06.55 7.14 2.18 8.51 5.68-1.61-1.09-4.33-1.69-8.13-1.8a187.37 187.37 0 00-20.53 5.48z" fill="none" stroke="#000" stroke-miterlimit="10" stroke-width=".75"/><path d="M845.81 174v.05c4.08 12.72 11.33 18.75 21.25 19.16 12.22.52 18.93-9.22 21.65-26.31 1-1.19 2.61-1.54 4.59-1.44h0c2-.1 3.6.25 4.59 1.44 2.72 17.09 9.43 26.83 21.65 26.31 9.93-.41 17.17-6.44 21.25-19.16V174v0c.59-1.87 1.11-3.89 1.58-6.07v-3.21c-1.44-.87-2.86-1.65-4.27-2.36l-1.7-.82c-13-5.94-25.15-5.26-36.43 2.55-1.41-1.2-3.63-1.85-6.69-2h0c-3.06.12-5.28.77-6.68 2-11.78-8.15-24.51-8.54-38.13-1.73-1.42.71-2.83 1.49-4.28 2.36v3.21c.47 2.18 1 4.19 1.59 6.07" fill="none" stroke="#000" stroke-miterlimit="10" stroke-width=".75"/><path d="M901.65 169.81c4.35-14.76 32.46-14 36.06 0 1.13 26.61-36.06 30.49-36.06 0zm4.44 3.42c.78-12.28 16.71-14.87 20.92-7m-40.58 28.9a.23.23 0 00-.11 0c-3.5.13-2.53-3.23 0-3s5.66 2.36 7 2.28c1.33.08 4.48-2 7-2.28s3.5 3.1 0 3a.24.24 0 00-.12 0s.63-1.27-1.21-1.4-3.34 1.66-3.47 1.8" fill="none" stroke="#000" stroke-miterlimit="10" stroke-width=".75"/><path d="M891.11 195.53h0a.56.56 0 00-.24-.1 7.07 7.07 0 00-4.2-.34h-.2s-.62-1.27 1.22-1.4 3.29 1.61 3.46 1.8h0c.2.09.41.2.61.31h3.16c.19-.11.41-.22.62-.32M885 169.81c0 30.49-37.19 26.61-36.06 0 3.58-14 31.7-14.76 36.06 0z" fill="none" stroke="#000" stroke-miterlimit="10" stroke-width=".75"/><path d="M860.38 170.2c1 6.06 12.3 8.7 20.16 3a42 42 0 01-6.51 1.4 18.86 18.86 0 01-8.44-.67 11.06 11.06 0 01-5.21-3.73z" fill="none" stroke="#000" stroke-miterlimit="10" stroke-width=".75"/><path d="M860.38 170.2a23.41 23.41 0 013.65-2.75q6.59-3.91 12.15.67a21.9 21.9 0 014.36 5.11c-3.24-10.74-13.14-12.93-20.91-7-.39.3-.77.61-1.14.95a7.51 7.51 0 01-4.82-3.32c.87 3.62 2.83 6.07 6.71 6.34zm15.8-2.08a6.24 6.24 0 01-2.15 6.49M864 167.45a7.36 7.36 0 001.56 6.51" fill="none" stroke="#000" stroke-miterlimit="10" stroke-width=".75"/><path d="M867.34 169.57a2.83 2.83 0 102.82-2.81 2.83 2.83 0 00-2.82 2.81z" fill="none" stroke="#000" stroke-miterlimit="10" stroke-width=".75"/><path d="M869.35 167.76a.81.81 0 10.81-.81.82.82 0 00-.81.81zm11.16-9.44a187.37 187.37 0 00-20.51-5.48c-3.79.11-6.51.71-8.13 1.8 1.38-3.5 4.45-5.13 8.51-5.68 5.82.35 13.38 2.66 21.66 5.76a2.45 2.45 0 01-1.53 3.6zm-30.91 32.93c-2.83.44-4.49-2.62-4.85-6.6a16.38 16.38 0 01-.08-1.74 37 37 0 011.14-8.93v0m34.73-.75c-.78-12.28-16.69-14.87-20.91-7" fill="none" stroke="#000" stroke-miterlimit="10" stroke-width=".75"/><path d="M880.75 118.86l-10.69-32.53c-13.62 4.34-25 14.93-34.67 30.56-4.79 10.93-6.76 23.49-7.66 36.76-3.61 52.72 7.5 81.51 31.73 90.4-11.83-15.67-15.52-36.2-14.73-59.4v-.05m38.02-66.31l-12.69-32c39-10.18 65.87.29 81.12 30.56 4.78 10.93 6.75 23.49 7.66 36.76 3.61 52.72-7.51 81.51-31.73 90.4 11.72-15.55 15.44-35.88 14.72-58.84v-.61" fill="none" stroke="#000" stroke-miterlimit="10" stroke-width=".75"/></svg>
