<svg xmlns="http://www.w3.org/2000/svg" viewBox="0 0 1400 780"><path fill="#e6e6e6" d="M0 0h1400v780H0z"/><path d="M654.14 373.64c-14.73 31.89-38.55 44.12-74.19 43.15 39-10.65 56-19.17 58.85-43.59-43.59 33.22-53.2 36.33-76.17 24.74 49.13-18.24 49.13-18.24 52.2-32.82-21.68 17.2-26.36 18.9-46.79 17.2 31.29-16.95 33.71-19.7 32.54-40.45-10 18.25-22.53 29.23-46.14 30.08 13.89-9.65 27.85-15 28.46-35.4-17 20.82-35.44 29.66-60.63 26.56 13.56-6.34 26.92-10.94 31.16-25.72-41.25 17.52-40 19.38-42.58 13.16 20.82-20.75 23.37-26.56 18-43.27-7.11 16-13 32.37-33.38 33 8.27-36.73 12.95-33.71-19.62-4.84 1.29-13.08 11.74-22.13 1.9-39.56-4.12 19.45-10.38 32.89-29.07 33.54-2.58-33.38 1.7-31.73-16.06 0-9.29-40.93-6.42-35.88-12.19-34.63-4.12 40 1.85 31.93-23 31.93-12.15-29.51-9.37-25.76-13.61-25.11-2.74 35.8 3.84 26.64-25.51 35.52l-8.59-34.51c-8.92 14.49-8.92 14.49-2.83 37.74-22.4 15.38-36.45 11.1-63.49-20.22-3.68 23.57 17.27 29.46 28.82 41.37-24.55 16.87-40.37 14.77-72.54-6.94 12.43 24.94 18.69 23.17 43.76 35.36-26.77 14.89-44.93-.45-64.75-15.34 4 28.54 26.16 30.8 44.44 37.7-11.95 42.14-13.32 39.76-7.34 43 19.9-16.07 39.31-6.74 59.37-1 79.2 22.81 89.41 12.55 99.63 33.26.36.69 2.22.65 4.6 1.29l.84-16.38c27-7.43 26 18.64 40.89 28l-7-31.73c35-8.84 46.83 13.81 56 42.14 9.08-20.26-2.91-33.1-10.54-48.15 32.17-2.91 48.56 16.06 63.3 38.63.12-22-13.2-35.08-28.91-47.27 32.42-3.15 51.23 15.34 66.65 40.08 2.58-27.49-20.14-36.45-39.8-52.72C598.64 436.13 616 457.32 633 486c.89-30.76-18.65-41.54-37.74-55.14 50.41-20.57 61.91-31.26 58.88-57.22zm-384.8 57.56c17.44-40.08 51-63.86 92.92-81.58-28.18 40.33-24.58 76.5 10.09 111.17zm180.31 26.16c33.38-37.9 37.22-74.31 3.88-111.57 49.65 12.75 82.1 49.08 120.12 81.17-39.07 19.5-78.65 27.17-124 30.4z"/><path d="M468.63 400.81c0 82.78-119.24 82.78-119.24 0s119.24-82.81 119.24 0z" fill="#3fa9f5"/><path d="M436.61 398.48c0 37.32-56.42 37.32-56.42 0s56.42-37.33 56.42 0z"/><path d="M1180.91 348.94c-15 32.46-39.28 44.06-74.19 43.15 39.07-10.66 56.07-19.18 58.89-43.6-43.63 33.22-53.2 36.33-76.21 24.75 49.13-18.25 49.13-18.25 52.24-32.78-21.72 17.16-26.36 18.85-46.79 17.16 31.29-17 33.71-19.66 32.5-40.41-10 18.21-22.53 29.18-46.14 30.07 13.88-9.69 27.85-15 28.5-35.44-17 20.83-35.44 29.67-60.67 26.56 13.56-6.34 27-10.94 31.2-25.71-41.25 17.52-40 19.37-42.63 13.16 20.83-20.75 23.38-26.56 18-43.27-7.07 16-13 32.37-33.34 33 8.23-36.74 13-33.71-19.66-4.85 1.33-13.08 11.78-22.12 1.93-39.56-4.15 19.46-10.37 32.9-29.1 33.55-2.58-33.39 1.74-31.73-16 0-9.33-40.89-6.46-35.89-12.19-34.64-4.12 40 1.85 31.93-23.05 31.93-12.15-29.51-9.33-25.75-13.61-25.06-2.74 35.76 3.88 26.6-25.51 35.48l-8.56-34.52c-9 14.5-9 14.5-2.82 37.75-22.4 15.38-36.45 11.1-63.54-20.23-3.68 23.57 17.27 29.45 28.84 41.36-24.55 16.87-40.41 14.77-72.54-7 12.43 25 18.65 23.17 43.71 35.36-25.78 14.28-42.69 1.18-64.74-15.33 4 28.53 26.2 30.79 44.44 37.7-12 42.14-13.32 39.76-7.35 42.95 19.56-15.74 38-7.14 59.38-1 79.24 22.8 89.41 12.55 99.62 33.26.37.68 2.22.64 4.65 1.29l.84-16.39c26.93-7.43 26 18.65 40.85 28l-7-31.73c35-8.84 46.86 13.8 56 42.14 9.08-20.26-2.91-33.1-10.54-48.16 32.21-2.9 48.6 16.07 63.34 38.63.08-22-13.24-35.07-29-47.26 32.42-3.15 51.27 15.33 66.69 40.08 2.54-27.49-20.19-36.45-39.8-52.72 36.2-5 53.8 13.54 72.25 44.65.89-30.76-18.69-41.54-37.78-55.14 50.42-20.53 61.92-31.23 58.89-57.18zm-384.36 57.68c-.4-.12 13.91-48.45 92.48-81.7-28.14 40.33-24.54 76.49 10.13 111.17zm179.87 26c33.38-37.91 37.22-74.32 3.88-111.57 49.69 12.75 82.14 49.08 120.12 81.17-39.03 19.58-78.63 27.21-124 30.44z" opacity=".1"/><path d="M995.42 376.1c0 82.79-119.25 82.79-119.25 0s119.25-82.78 119.25 0z" opacity=".1"/><path d="M963.39 373.77c0 37.33-56.42 37.33-56.42 0s56.42-37.32 56.42 0z" opacity=".1"/><path d="M802.57 380.5c-12.24 53.07-7.35 39.78-20.07 50-6-3.19-4.6-.81 7.35-42.95-18.24-6.91-40.45-9.17-44.44-37.7 43.59 32.63 28.91 11 57.16 30.65zm319.49 25.68c19.09 13.6 38.67 24.38 37.78 55.14-13.36-22.53-26.92-40.41-50.42-44.57-11.76-18.94-15-11.74 14.86-25.43 26.12-3.15 44.44-16.06 56.63-42.38 3.03 25.95-8.47 36.65-58.85 57.24z"/></svg>