<svg xmlns="http://www.w3.org/2000/svg" xmlns:xlink="http://www.w3.org/1999/xlink" viewBox="0 0 700 700"><defs><linearGradient id="b" x1="62" y1="384.31" x2="180.25" y2="384.31" gradientUnits="userSpaceOnUse"><stop offset=".01" stop-color="#1b5156"/><stop offset=".5" stop-color="#206369"/><stop offset="1" stop-color="#45818a"/></linearGradient><linearGradient id="a" x1="182.06" y1="385.1" x2="291.55" y2="385.1" gradientUnits="userSpaceOnUse"><stop offset="0" stop-color="#45818a"/><stop offset=".5" stop-color="#206369"/><stop offset=".99" stop-color="#1b5156"/></linearGradient><linearGradient id="c" x1="516.82" y1="382.02" x2="568.18" y2="382.02" xlink:href="#a"/><linearGradient id="d" x1="462.26" y1="382.29" x2="514.1" y2="382.29" xlink:href="#b"/></defs><path fill="#ccc" d="M0 0h700v700H0z"/><path d="M49.29 558.3c.51 4.36 4.38 18.51 7.14 24.57a144.51 144.51 0 01-7.14-24.57zM58 582.4c1.16-1.2 1-2.07 1.2-4.35-.38 2.64-.76 3.74-1.2 4.35zm2.48-22.8c-.66 14.52-.61 7.38 1.14-7.42a53.66 53.66 0 00-1.16 7.42zm1.64-15.73a5.27 5.27 0 01.48-1.82 3.6 3.6 0 00-.5 1.82zM62 445.55v-.44a2.12 2.12 0 000 .44zm.11 98.45a17.65 17.65 0 01.15 2.5 12 12 0 00-.15-2.5zM63 440.18c.37-1.86.71-3.81 1.11-6.94-.43 3-.81 5.22-1.11 6.94zm1.84-12.74a15.27 15.27 0 10.34-2.05 16.23 16.23 0 00-.35 2.05zm-.74 112.14a4.22 4.22 0 013-1.68c-1.1-.11-2.1.37-3 1.68zm6.69-41.84c.15-.37.39-1 .5-1.3zM69.48 539c2.41 2.24 4.7 4.61 7 7-2.64-2.85-4.96-5.58-7-7zM73 492.25c1.62-3.8 3-7.1 5.73-12.54C77 483.1 75 487.16 73 492.25zm-2.52-79.39a106.29 106.29 0 006.72-12.25c-2.2 4.27-4.6 8.33-6.76 12.25zm11.87 134.38a17.66 17.66 0 00.18-2.1c-.02.64-.09 1.33-.18 2.1zm8.85-226.6c-.51 3.27-.51 2.39.2 1.74a8.68 8.68 0 01-.2-1.74zm.78-5.12c1.13-4.56.64-3.12 1.31-7.94-.41 2.35-.85 4.99-1.29 7.94zm-.16 138.89c.35 0 1.69-4.09 1.79-4.41 1.69-5.2-.22.7-1.79 4.41zm-4.75 10.12c.2-.37 3.42-6.12 3-6.23-.82 1.84-1.82 3.9-3 6.23zm8.23-23a34.53 34.53 0 012-8.36 23 23 0 00-2 8.36zm.39-145.72a56.67 56.67 0 013-8.44c-.28.35-1.29 1.41-3 8.44zM98.85 404a107.53 107.53 0 013-12.76 83.44 83.44 0 00-3 12.76zm23.87-133.95c-3.58.86-19.23 3.45-22.69 10.95 4.84-8.51 25.55-11.66 22.69-10.95zm-22.88 11.26c-.47.94-.15.29.19-.31a3.21 3.21 0 00-.19.31zm3.35 217c-.06.68-.14 1.17.25 1.21-.24-.19-.31-.63-.25-1.22zm2.89-28.46c.22-1.37.46-2.75.74-4.12-.3 1.38-.53 2.74-.74 4.11zm17.74-141c-.33-1.93 1.3 4.52-5 17.78-2.65 5.59-6.48 14.86-10.09 24.55 14.86-36.82 16.05-35.12 15.09-42.36zm-.71 106.11a53.46 53.46 0 002-8.3c-.78 2.99-1.2 5.6-2 8.27zm1.33-116.65a30.78 30.78 0 011.68-4.63 26.55 26.55 0 00-1.68 4.6zm2.56 4.37c.59-4.75 1.72-8.9 3.54-11.17-2.77 3.22-3.38 7.54-3.54 11.14zm2 26.46c2 9.17 5 15.89 7.55 21.72-1.89-4.66-4.35-11.32-7.55-21.72zm.92-80.75c0-.35.25-.64.67-.93-.59.31-.81.54-.72.93zm1.08 1.22c1.28 1 3.79 2.67 8 5.53-2.51-1.73-5.18-3.56-8-5.53zm18.27-12.81c-33.06 19-12.83 7.82.84-.48zm-9.08-64.34a13.53 13.53 0 00-.33 3.87 18.48 18.48 0 01.28-3.87zm-.5 186.17c2.66 7.91 2.73 15.45-4.73 27.67 5.83-9.2 8.67-17.3 4.68-27.67zm2.78-192.06a12.48 12.48 0 011.18-1.45 6.6 6.6 0 00-1.23 1.45zm1.1 16.38c2.25 1.83 6.7 9 12.68 15.8-5.63-6.58-9.88-13.61-12.73-15.75zm1.09-18.95a4.16 4.16 0 001.12-1.92 8 8 0 01-1.12 1.92zm2.58-11.32a47.09 47.09 0 012.25-10 27.48 27.48 0 00-2.25 10zm13.3 59.38c-.1 8.73.05 13.25-1.48 16.53 1.72-3.05 1.6-5.8 1.48-16.53zm4.65-83.37c-2.87.5-4.77.94 1.31-.25-.5.08-.9.16-1.31.25zm2-.38l.48-.09zm-4.91 80.57a34.31 34.31 0 004.3 3c-1.87-1.18-3.32-2.36-4.32-3zm12.15 224.06c2.06-1.37 3.54-2.08 4.38-4.05a21.52 21.52 0 01-4.4 4.05zm5-142.75A87.78 87.78 0 01180 321a79.05 79.05 0 00-.6-10.81zm.27 68.54c0-32.78-.17 31.89.08 65.17.57-7.82-.11-24.71-.11-65.17zm3 67c.11 3.52.33 3.94.72 4-.42-.14-.6-.8-.72-4.04zm2.55-297.06a13.42 13.42 0 00-2.29-.11c3.04.18 6.57.76 2.29.07zm-11.11 82.85c7.26 1.75 15.31-.81 23.63-11.92-6.1 7.5-14.07 13.81-23.63 11.88zm12.71 220.4c2.17 2.58.28.85 12.8 8.64-5.4-3.7-9.93-6.76-12.8-8.68zm3.91-221a28.09 28.09 0 01-5.47 3.1c6.61-2.48 13.26-8.73 5.47-3.16zm4.56-2.25c.44.4.64 1.58.82 3.22-.06-1.89-.14-3.04-.82-3.28zm2.17 13.33a25 25 0 00.82 2.77c-.31-.91-.54-1.77-.82-2.77zm.44-85c-3.05-5.28 1 1.36 3.2 7-.68-1.86-2.46-6.16-3.2-7zm1.24 89.83a12 12 0 004.14 4.81 16.84 16.84 0 01-4.14-4.86zm6.83-68.94c-1.84-4.78-1.22-2.81.44 1.3-.09-.44-.23-.87-.44-1.3zm-.2 28.49c1.8-3.95 1.73-5.17 4.19-6.12.11-.03-2.06-.63-4.15 6.12zm6.2-13.48c0 4.08-.22 5.83-.64 6.62.94-.84.64-2.28.64-6.62zm.6 90.1c1.73-1.17 17.23-12 19.15-13.83-3.63 2.77-10.97 8.07-19.15 13.83zm9.72 115.41c-.15-.82 0 0 0 .06s.04.31 0-.02zm.66 2c-.25-.37.06.14.11.21zm1.11 1.62c-.41-.51-.48-.57.18.22zm1.2 1.36c-.26-.28-.73-.79-1-1.14.5.67 1.65 1.87 1 1.17zm-1.74-2.07c.14.24.36.55-.21-.32a2.92 2.92 0 00.21.35zm6.91-127.23c.78-.55 1.46-1.05 2-1.48zm.67 77a7.12 7.12 0 012.57-4.65 6.69 6.69 0 00-2.57 4.64zm.45-83.36c.48.26.72.46.8.64.03-.3-.32-.44-.8-.65zm10.47 221.72c7.12 5.24 11.7 8.66 14.31 9.81zm16.73 9.84a1.77 1.77 0 00.29-.89 2.17 2.17 0 01-.29.88zm3.3-206.6c-.56-2-.19-.74.38 1.47-.12-.51-.26-1-.38-1.48zm3 13.92c.15.93.3 1.86.44 2.76-.17-.91-.33-1.84-.52-2.77zm13.32 164a77.14 77.14 0 014.34 9.14 71.32 71.32 0 00-4.38-9.1zm4.34 9.14c.12.35.27.76.35 1-.15-.32-.27-.64-.39-.96zm2.43 60.58a23.33 23.33 0 014.21-6.74 15.45 15.45 0 00-4.25 6.78zm16.57 0c-1.9-3.87-4-6.3-6.05-7.42 4.05 2.76 7.89 11.29 6.01 7.43zm5.49 12.07c1.4 3.57 2.59 7.05 3.51 9.87a85.32 85.32 0 00-3.55-9.86zm7.79 8.26c0-1.37.08-2.65.1-3.86-.07 1.2-.12 2.5-.12 3.87z"/><path d="M70.79 497.74c-.21.57-.28.77.17-.43-.06.14-.11.28-.17.43zm61.87-231.52c1-.61 2-1.18 3-1.73-.99.51-1.98 1.11-3 1.73zm64-111.16c.23.3.45.61.66.94a8.4 8.4 0 00-.65-.94zM281 475.8c.35.75.69 1.49 1 2.22-.32-.73-.66-1.47-1-2.22zm1.72 4s-.23-.57-.24-.59c.3.79.52 1.47.22.58zm-60.4-81.35a1.94 1.94 0 000 .22zm1.42 3.16c-.06-.07-.4-.47 0 .05.03-.01.01-.03 0-.05zm-.52-.75c.33.52.46.72.12.17a1 1 0 01-.12-.17zm.66.94c.38.51.48.64-.11-.14a.49.49 0 00.11.14zm-.54-.77c-.43-.52.44.65.4.58a5.45 5.45 0 01-.4-.61z"/><path d="M316.35 533.23c-4.75-9.07-13.18-19-13-21 .54-7.23-2.59-14.18-1.57-21.44.14-.95.42-2.25-.05-2.88-1.7-2.26-4-45.31-8.52-50.95-1.65-2.06-.69-6-1.82-8.71-2.19-5.25-2.39-11.25-6.88-15.6-15.12-14.66-10.74-75-15.11-99.51-9.27-52.17-1.81-23.65-61.76-60.55-9.7-6-9.47-12.3-9.74-27.81 0-1.17 3.55-4.52 4.48-5.47 5.32-5.43 5.63-16.41 11.3-17.32 2.22-.36 5-17.75-.76-19.17-3.87-1-4.47-8.35-5.32-11.1-2.15-6.94-6.92-21.63-15.18-24.56-9.69-3.45-29.5-5.8-36.37 2.18-2.19 2.56-12.43 10.13-11.82 20.91.15 2.69-1.19 5.46-1.23 8.19a7.78 7.78 0 01-2.47 5.67c-6.55 7-2.14 19.72-1.8 19.79 6.74 1.28 19.71 21.41 19.78 22.84.58 11.6 1.38-.24-1.06 21.85-.14 1.28-19.8 11.31-23.25 13.16-18.11 9.71-35.71 5.39-39.65 24.75-13.8 67.63-9.85 96.92-25.9 122.31-9.18 14.49-6.82 23.09-8.42 28.11a16.91 16.91 0 00-1.08 7.55c.43 3-1.46 5.41-1.6 8.22-.25 5.2 1 10.55-1.46 15.55 1.08 10.16-2.13 20.11-1.45 30.25.4 6.12-.74 20-2.19 23.34-7.71 17.93-5.41 20.27-5.18 30.8.29 13.27-2.65 10.41 7.44 36 1.53 3.89 5.62 2 5.73 1.44 3.58-18.69 3.75-52.65 7.42-48.28 2 2.35 4.57 4 6 7 1.94 4 9.8 9.1 11.28 6.29.94-1.78 2.32-4.53 1.6-5.71-1.75-2.82.18-10-8.72-29.49-3.11-6.8-8.94-7.63-7.15-13.13 3.17-9.71 8.16-18.67 11.68-28.23 5-4.76 6.31-11.66 10.22-17.09 8.12-11.25 8.47-41.6 8.84-53.6.4-12.83 15-48.17 20.65-61.27 2.34-5.42 6 16.24 12.66 28.7 11.37 21.18-9.12 30.79-12.93 49.81-3.43 17.14-2.11 7.81-8.7 19.85-.26.46-13.12 19.55-11.62 31.18-3 4.57-.23 9.94-2 14.62-1.87 5-.29 10-1 15-.82 5.6 1.74 10.82 1.49 16.29-.2 4.27.37 8.2 3 11.61.5-.63 1.24-1.18 1.45-1.9.87-2.92-1.32-5.41-1.39-8.19-.13-5.38.07-10.78-.09-16.16-.13-4.26-1.58-2.28 75.41-52.56 1.46-1 3.11-2.21 5.74 0 4.15 3.53 61.08 39.8 69.22 47.47 7.5 2 5.32 7.61 5.68 22.51 0 .5.73 1 1.12 1.47.59-.54 1.48-1 1.69-1.63 0-.09.82-36.94-1.24-48.62-3.22-18.24-16.9-42-20.34-54.09-7-24.5-20-13.31-10.2-40.65 6-16.6 3.33-17.4 4-29.23.19-3.62 4.65-.66 4.39-6.87 0-.36.47-.75.72-1.13a4.82 4.82 0 01.7 1.18c13.16 57 16.45 56.33 14.7 78.39-1.71 21.3 26.34 44.54 29.37 76 1.59 16.52-2.72 18.47-1.39 23.63-2.19 3-.33 6.91-1.71 9.55-2.4 4.57-.58 9-1.1 13.49-.32 2.68 4.27 5.77 5.5 1.41s4.25-7.56 6.12-11.44c3.77-7.79 14.7 23.63 17.66 31.38.38 1 1.86 7.92 4.53 7 1.12-.41 2.58-1.7 2.72-2.78.37-3 2-5.64 1.76-8.94-.27-3.15-1.43-6.77 1.3-9.66.41-6.91.08-13.89-3.13-20.02zM156.26 218.81c-3.48-3.47-10.21-13.87-13.43-16.38a7.75 7.75 0 01-3-6.1c-.83-11.33 7.17-8.83 7.41-23.65.19-10.13 6.34-21.94 17.95-24 15.55-3.24 8.43-.76 17.77-.17 14.6-.32 17.19 12.75 22 26.53 6.43 17.37 7.05 4.84 7.05 17.85 0 5.94.53 6.1-2 7.36-4.54 1.75-1.4 5.86-12.22 19.25-2.33 4.7-19.07 25.76-41.53-.69zm-77.57 260.9c-13.52 26.79-13.41 33.11-6.92 38.15 5.27 4.12 7.45 15 8.94 20.13 1.69 6.54 2.45 1.32 1.17 13.23-3.46.47-3.08-3-4.59-4.49-9.44-9.45-9.92-11.89-14.71-4.68 0 .07-3 31.64-3.57 38.24-.13 1.69-1.52 2.52-2.32 3.17-3-6.36-8.92-26.35-8-33.34 2-9.79.56-10.79 3-13.57-.5-4 6-17.42 5.89-26.94-.17-22 .3-2.87 2.92-52.4.12-2.41 1.4-4.55 1.65-7 34.53 15.21 32.9-3.21 16.54 29.5zm101.06-35.81c0 5-.94 6.17-4.63 8.57-65.71 42.24-72.38 50.89-71.93 45.83.6-6.39-.55-12.75 1.15-19.3 3.39-13 .71-17.93 12.55-33 12.51-15.86 1.6-13.59 18-39.74 10.44-17.1 6.06-24.79 1.59-35.44-12.8-30.52-11.87-53-5.64-59.74.29-.32-.39-1.54-.61-2.34-1.89.6-1.45-.3-2.79 2.23-4.53 8.21-3.58 12.17-3.68 17.49 1.35 16.19-30.8 57.85-26.49 104.67a34.53 34.53 0 00-2 8.36c0 4.15-3 12.94-3.48 12.88-15.31-1-29.82-8.22-29.82-8.86a54.1 54.1 0 011-5.37c3.36-18.21-.47-12.23 7.45-27.32 3.18-6.05 11.47-18.76 12-30.24.33-7.57 4-14.6 3.12-22.28 1.27-1.85 7-75.77 18.94-84 7.3-5 18.94-5.91 20.41-7s3.14 2.34 4.88 3.51c43.69 29.46 41.45 30 45.12 31.29 4.08 1.36 5.13 2.36 5.13 20.28-.02.12-.27 119.45-.27 119.52zm1.83-139.68c-.6.34-50.61-34.59-50.68-34.66-2.05-1.64-1.33-1.61 4.72-5.07 25.92-15.16 24.8-11 24.92-32.43 0-6.06-.12-4.11 6-.17 15.62 9.34 25.65-3.19 27.79-3.19 3.92-2.95-1.38 14.09 9 22.89 3.93 3.94 29.07 16.21 29.07 16.77.29.8-31.49 23.3-50.82 35.86zm85.62 147c-17.06-31.82-3.52-30.22-14.2-66.44-3.8-12.85-12.92-44.64-11.55-59.1.48-5.07-2.64-9.22-3.71-13.9-.1-.45-1.3-.65-2-1-.35.83-1.48.84-.88 2.66 1.71 5.22 4.44 10.27 3.72 16.15-.49 4-1.93 7.72-1.76 11.88s-5.34 4.74-5.69 9.57c-.82 12.06 2 11.24-2 22.42-.71 2-6.63 21.73-6.7 22.16-.77 4.06 1.08 5.9 4 8.91 10.59 11.07 9.64 17.9 20.5 41.66 4.16 9.17 13.84 27.59 12.2 52.16-.62 6.89-22.54-16-70-44.31a10.17 10.17 0 01-2.25-2.21c-.39-.26-3.23-2.15-3.34-2.15-1.52 0-.88-71.5-.88-71.43 0-77.37-3.26-67.71 9-76.67 2-1.46 40.81-29 40.88-29 3.74-2.83 2-3.85 17.23 3.63 7.25 3.55 7.65 2.83 9.94 8.79 2.88 7.48 7.31 28.84 6.78 36.84 2.62 4.22 1.3 8.89 1.4 13.36.22 8.57 2.34 6.75 1.32 21-.94 12.41 1.4 10.8 1.69 29.17 9.06 34.66 5.08 17.57 13.31 32.94 4.37 8.57 4.14 15.5 7.36 25.36.56 1.51-21.42 9-24.37 7.52zm48 101.95c-.13 8.13-.06 9.33-.84 12.15-1.84 6.61-1.92 2.12-3.62-3-4.46-13.69-14-38.64-22.49-27.3a22.75 22.75 0 00-3.28 5.92c-1.4-3-1.33-14.64 2-22.62.38-.95.23-24 .08-24.88-.43-2.46-1.76-2.34-2.4-6.63a30.72 30.72 0 00-1.33-5.49c-15.93-39.78-23.7-18 9.13-33.38.31 2.48.54 5 2 7.15.23.33-.35 0 1.53 19.93.29 3 1.94 5.71 1.54 9a14.67 14.67 0 001.25 9c1.16 2.15-1.21 1.15 1.72 21.35 15.51 24.07 14.95 20.96 14.67 38.77z"/><path d="M90.1 458.3c1.34.39-12 17.92-21.86 46.56-3.2 9.29 3.41 11.87 6.24 16 3 4.62 4.78 11.24 6.12 16.63 1.63 7.34 2.67.76 1.28 13.69-3.38.45-2.61-2.34-5.38-5.3-7.81-7.93-8.8-9.92-12.41-6.31-3.81 4.39-.67 7.14-2.49 12.57-3.69 31.28-1 28.08-4.91 31.28-2.69-5.67-10-29.23-7.63-34.78 1.64-4.06-.41-8.63 2.62-12.13-.5-4 6-17.42 5.89-26.94-.17-22 .3-2.87 2.92-52.4.12-2.41 1.4-4.55 1.65-7a109.31 109.31 0 0027.96 8.13z" fill="#eccbc7"/><path d="M175.12 452.47c-35 22.5-70.07 47.14-71.68 47-.44 0-1.17-35.26 12.15-51.84 14.1-17.55 4-18.1 17.78-38.95 21.79-32.68-7.5-33.44-6.37-86.05.08-3.6 1-8.21 3.54-11.19.76-.89.3-.56-.29-2.7-4.73 1.49-7.53 13.44-6.43 20 1.82 13.7-30.79 58.09-26.53 104.35-1.53 3.73-3.82 21.45-5.47 21.24-15.31-1-29.82-8.22-29.82-8.86 0-.08 3.18-17.69 3.18-20.22 2.72-12.5 16.5-25.93 17.22-42.71.33-7.57 4-14.6 3.12-22.28 1.1-1.59 7.37-74.45 17.34-82.76 7.85-6.55 20.38-7 22-8.23s3.14 2.34 4.88 3.51c45.48 30.67 40.87 29.76 45.12 31.29s5.14 3.43 5.14 20.36c0 128.22 1.93 123.57-4.88 128.04z" fill="url(#b)"/><path d="M253 384.78c-3.8-12.85-12.92-44.64-11.55-59.1.48-5.07-2.64-9.22-3.71-13.9-.1-.45-1.3-.65-2-1-.35.83-1.48.84-.88 2.66 6 18.2 3.8 10 1.94 28.57-.13 1.75-1.84 3.16-3.1 4.38-5.93 5.8.53 10.42-4.7 27.41 0 .07-7.44 22.26-6.59 25.1.71 3.89 7.22 6.74 12.61 18.18 2.2 4.39 3.41 9.31 7.82 19.87 9.36 22.91 16 28.38 16.24 61 0 7.34-14.83-9.64-59.43-37.44-12.49-7.77-10.63-6.06-12.8-8.64-.18 0-1.14-1.85-3.33-2.15-1-1-.89-4-.91-8.52-.52-138.32-2.56-131 6.8-137.93 39.59-29.27 30.35-21.48 40.44-28.72 7-4.93 4.4-5.75 16.21-.1 12.49 5.9 11.87 3.66 16 18.23.17 0 5 20.58 4.39 29.19 2.62 4.22 1.3 8.89 1.4 13.36.25 9.78 2.26 3.71 1.17 23.32-.47 10.21 1.57 9.62 1.84 26.88l5.91 22.57c12.33 13.43 10.36 22.21 14.78 35.76.17.42-10.51 6.63-24.31 7.46-17.24-32.32-3.73-30.84-14.24-66.44z" fill="url(#a)"/><path d="M314.32 565.29c-1.84 6-1.63 3-3.62-3-4.54-13.93-13.93-38.72-22.49-27.3a22.75 22.75 0 00-3.28 5.92c-1.4-3-1.33-14.64 2-22.62.38-.95.23-24 .08-24.88-.43-2.46-1.76-2.34-2.4-6.63a30.72 30.72 0 00-1.33-5.49c-16-40-23.68-18 9.13-33.38.31 2.48.54 5 2 7.15.23.33-.35 0 1.53 19.93.29 3 1.94 5.71 1.54 9a14.67 14.67 0 001.25 9c1.16 2.15-1.21 1.15 1.72 21.35 0 .49 12.88 18.88 14 23.6 1.29 2.54.76 24.15-.13 27.35z" fill="#eccbc7"/><path d="M212 192.9c0 6.41.44 6.14-2 7.36-4.11 1.59-1.16 3.91-11.6 18.41-25.75 35.4-48-10.32-55.6-16.24-4-3.13-4.81-11.79 1.83-18.43 3.91-4.86 1-12.11 4.83-21.29 1.3-5.17 8.43-12.58 15.26-13.94.07 0 11.49-2.23 12.24-1.58 2.55 2.19 5.47 1 8.26 1.44 20.13 3.23 17.17 34.14 25.82 36.8 1.35.38.96 5.81.96 7.47z" fill="#f2beb5"/><path d="M232.38 268.36c0 1.65-49.52 35.14-51.18 36.09-50.22-34.93-49.76-34.35-50.3-34.89-2-1.65-2.12-1.27 10.06-8.13 20-11.25 19.46-9.33 19.58-29.8.05-10.22 4 4.29 21.1 1.81 5.34-.77 12.2-5.41 13.68-4.83s.46 10 2.17 13.38c4.69 16.06 35.07 24.37 34.89 26.37z" fill="#eccbc7"/><path d="M390.53 591.68c-3.1 0-1.28-2.08-5.18-10.81-4.32-9.7-2.08-8.59-3.59-10.36-1.87-2.19.39-1-1.46-5.11s-.35-5.76-.9-14.95c-.85-13.85 7.55-28.87 7.42-37.39 0-.81 3.53-85.14 11.35-96.45a49.31 49.31 0 004-7.51c7.51-16.15 6.73-.26 15.33-63.16 9.09-66.54 12.54-59.65 11.89-66.05 23.78-21.5 9.7-1.6 54.89-26.85 7.28-4.07 7.85-9.3 7.85-18.77 0-7 .92-10.6-15.57-27.13-7.11-7.13-5.24-11.21-6-16.62-.85-6.18 5.9-5 6-13.83 0-2.15 1.11-4.15 1.33-6.09.24-2.17-.82-4.86.29-6.79C490.1 143.29 492.54 145 505.73 145c14.54 0 23.15-2.14 29.87 10.09 10 18.2 5.37 25.71 11.75 27 2.61.51 2.82 6.89 2.71 10.64.63 7.55-2.5 10-4.78 11.79-5.13 4-.67 4.16-8 12.5-2.83 3.22-6.45 7.75-5.54 16.73.37 3.71 3.12 15.29 5.2 16.5 53.43 31.45 56.42 21.39 60.26 33.47 15.15 47.76 6.14 110.61 18 122.94 13.48 14 18 56.13 20.91 84 1.39 13.11 2.59 24.43 4.12 26.08 4 4.27 13.14 18.34 12.78 25.93-.77 16.42 1.28 11.48-.74 22.44-.92 5-.42 10.19-4.66 10.19-6.48 0-7.78-25.62-20-38.12-1.54-1.56-1.48-2.26-7.61 9.75-1.86 3.65-1.89 3.57-4.56 3.57-1.77 0-2.27-1-2.12-2.78.26-2.9-.62-12.64.66-17.16 1.83-6.5-.35-7.69 2.24-9.73-.21-6.67 2.73-13 1.47-19.44-7.3-37-9.27-23.28-27.76-66.22-2.13-4.93-3.37-31.29-3.19-35.81.21-4.82-2.57-6.78-7.56-28.22-6.5-27.94-5.27-25.24-5.93-24.77-8.47 6 .12 10.35-7.72 32.95-10.77 31.11-4.31 5.27 13.71 53.29 11.48 30.58 13 25.88 14.3 34 1.14 7 2.54 4.54 2.11 7.41-1 6.43 1.66 4 1.47 28.6-.17 21.61 1 21.79-2.57 24.13-1.63 1.09-4.28-4.28-3-5.8 1.93-2.38 3-41.72-5.65-61.24-10.54-23.93-13.29-25.49-15.13-37.27-.3-1.92-.28-2-5.19 1.45-1.38 1-41.76 28.65-43 29.8-3.58 3.29-6.26 5.48-10.72 2.61-60.94-39.27-49.46-43.33-54-22-2.23 10.19-18.5 23.7-18.16 41.7 0 .28 0 .18-.12.4-3 4.58-.87 10.21-2.51 15.61-2.66 8.79 2.73 39.58 2.25 40.87-.78 2.13.18 1.9-2.14 1-2.55-1-3.05-.08-4.23-12.73-1.26-13.38-3.8-58.69 16.26-80 2.38-2.53 5.48-9.79 5.53-13.26a8.54 8.54 0 011.13-4.93c-.75-3.83 1.13-6.58 3-9.24 14.57-21.25 15.46-21 6.31-45.09-9.08-23.9-7.38-23.28-7.81-24.36-5.08 11.58-20.64 54.79-20.55 57.29.52 4.21-.07 8.39-.64 12.44-2.21 15.69 1.27 8.47-2.78 29.25-5.15 26.35-12.23 21.7-27.31 63.48a6.49 6.49 0 002 7.68c9.61 7.72 17.59 42.22 9.55 42.22-6.81 0-13.56-13.15-15.35-13.42-2.46 1.84-2.48 2.66-2.58 6.51-.29 11.83-1.56 11.07-2.64 27.07-.68 9.77-1 14.89-6.54 14.89zm103.79-347.44c-1.35 6.87-1.45 7-6.14 10.12-8.56 5.64-23.38 15.27-34.05 17.12-5.79 1-17.31 5.06-19 10.43-11.56 35.85-13.95 83.24-14.8 83.92-1.6 1.22-1.54 2.49-1.43 4.41.3 5.75-.74 2.22-2.4 13.39-5.61 37.89-19.1 17.65-21.33 79.32-.24 6.52-1.58 4.53-1.24 10.2.65 11.13-2.74 17.21-1.15 31.06 1.55 14.36-15 44.53-7.56 57.92.13.25.11.15.08.41-.62 7 5.05 16.28 5.91 20.94 1.57-4.56 1.05-12.15 2.31-19.28.72-4.1 1.27-7.31.62-11.23 2.09-3 1.46-7.8 1.61-8.86.66-4.7 5.05-9.06 8.5-5.76 9.2 8.66 16 23.46 9.25-2.91-7.1-27.61-21.06-13.32-5-47.89 7.18-15.45 11.72-22.32 12.11-23.38 20.49-41-2.74-31.63 26.32-106 10.37-26.51 9.25-23.8 9.77-31.07.82-11.55 1.45-14.39 5.4-18.12 1.28-1.21 2.17-.76 2.93.78 1.67 3.45-3 3-3.18 11.5-.37 14.15-1.2 20-.24 21.2 4.53-.59 48-33.64 51-34.76 8.29-3.14 21.33 13.06 56.08 35.47.72 0 .71-.15.59-1.24-.42-3.76 1.86-1.2 1.47-7.86s2.1-6.13 1.49-7.27c-2.66-3.82-.58-9.07-4-12.12-1-.91-.51-1.41 2-5.38 4.84 7.2 8.35 17.25 5.15 23.95.26 1.25 2.6 7.08 2.59 13.94 2.93 2.08.82 5.55 2.53 7.75 1.56 2 .48 5.59 1.68 8.2.07.16 8.5 32.87 8.58 33.18 4.43 18 .81 26 2.25 33.22 5.24 24 21.55 31.78 28.44 64.8 4.23 19.27-7.25 52.73-2.74 45 13.65-23.34 19.76 8.6 28.46 27.77.59-6.22 2.06-6.15 1.33-15.07-.53-6.48 1.37-7.36-.27-12.24-5.69-16.94-14.78-16.17-15.64-34-.77-16.17-2.61-17.51-1.62-23.57.16-.85-2.47-1.12-1.37-8a8.29 8.29 0 00-.74-4.69c-1.12-3.09-4.64-49.27-16.66-58.09-2.16-1.6-1.08-2.89-4.36-11.42-4.7-12.21-5-35.16-6.24-57.37-4.09-75.4-13.14-60.76-33.82-73.15-35.81-18.33-37.07-18.44-38.18-37.31-.16-2.78-.44-3.29-.6-3.45-1.81.92-9.53 7.11-18.55 7.11-10.08 0-14.37-7.34-15.57-7.34-1 0-.59 3-.27 4.18 1.28 5.52-.37 11.53-.3 11.54zM512.76 313c-.46.08-1.85 1.51-2.81 2.43-5.21 5-10.68 6.45-29.74 20.74-14.22 10-18.62 10.82-17 14.06 4 8 5 17.07 9.66 24.57 2.64 4.28 2.44 8.73 3.53 14.21 1.5 6.88-9.45 20.34-11.8 24.26-2.12 3.52-1.82 3.61 1.45 5.68 9.6 6.09 40.94 28.15 47 32.37.02-.04 1.21-136.85-.29-138.32zm5.77.56c-1.4 8.94-.9 92.27-.4 137.59 45.83-33 49.38-32.78 49.33-34.68-.08-1.41-7-11.07-9.37-13.66a9.7 9.7 0 01-1.77-10c2.47-6.77 3.82-14 7-20.68 2.36-5 1.44-10.83 1.5-16.3-2.5-2-1.52-4.48.45-7 2.07-2.61-10.77-11.34-46.74-35.23zM484.58 162.1c-6.17 21-1.89 19.05-7.25 24.73-2.8 3-2.19 3.56-2.37 7.28a11.17 11.17 0 00.13 3.15c2.06 9.33 2.05 1.07 6.48 9 3 5.41 1.95 1.41 7.64 9.75C497.36 228 508 232 512.09 232c7 0 15.76-8.4 20.17-14 4.14-5.32 5.24-8.73 7.07-12.56 2.93-6.08 7.54-6.78 6.41-11.66-.73-2.89 1.18-5.73-1-6.68-4.6-2-5.25-5.76-6.21-10.59 0-3.12-4.73-23.35-15.53-26.42a17.17 17.17 0 00-5-.7c-7.8-.42-5-1.46-8.18-1.46-4.71 0-14.39 2.6-15.49 3.09-2.99 3.14-8.81 7.87-9.75 11.08z"/><path d="M461.05 331.53c0-8.33-.92-14.56 3.6-19.84.26-.31-.18-1.41-.53-2-.81-1.36-1.36-.23-2.07.27-5.1 3.6-4.08 16.45-5.51 25.67-.65 4.19-23.3 51.54-24.84 75.62-.19 3 1.81 33.53-10.36 53-6.62 10.61-16 30.89-18.38 38.66-.95 3.11-.65 6.64-.68 10 0 2.82 9 5.17 13.17 28.3.55 3 2.31 5.79 1.39 8.92-2 6.89-12.8-18.26-18.07-10.79-5 7.09-.54 9-3.92 13.79 1.14 6.77-1.82 13.21-1.58 20 .13 3.69-.86 7.43-1.4 11.13 0 .26-1.28.95-1.42.06-1.15-7.49-6.61-13.82-5.9-21.81-7.45-13.38 9-45.11 7.48-58.19-1.31-11.35 1.09-22 1.29-25.09.25-3.65-.78-7.6.26-10.95 1.48-4.75.56-9.51 1.38-14.12 4.78-26.91-1-21.72 11-43.92.92-1.7 7.76-8.76 9.57-24 .44-3.68.33-7.83 2.07-10.85 1.93-3.37-1.2-7.45 2.29-10.12.09-.07 2.58-31.63 4.17-35.72 1.28-3.3 1.11-7.4 1.44-11.07.79-8.64 3.56-16.81 4.85-25.3.6-3.95 2.85-7.61 4.11-11.49 3.62-11.18 21.34-4.75 57.09-30.56 1-.72 3.9-12.79 2.63-17.35-.42-1.52-1.26-5.29.24-5.74 2.64-.79 5.08 7.8 19 7.23 7.54-.31 11.07-5.2 16.07-7.32 2.82 9.6-.94 18.89 9.56 25 61.43 35.75 53.43 12.62 62.18 71 1 6.5 0 13 1.26 19.25 2.27 11.31.55 22.66 1.43 33.94 1.24 15.77 5.93 25.51 7.16 30 2.06 7.62 5.26 1.89 10.25 19.26 7.66 26.63 4 25.12 6.28 29.73 1.67 3.39 1 6.56 1.14 9.8.16 2.84 2.17 5.13 1.68 8.22-.39 2.44-1 5.31 1.32 7.47.12.11 0 .48 0 .72-1.11 6.77 1.75 13.22 1.59 20-.43 17.52 7.59 20.43 11 27 9 17.37 3.67 13 5.13 24.33.62 4.85-1.19 9.38-1.56 14.09-.41 5.17-6.75-15-7.23-16.85-1.65-6.16-5.93-10.76-8.7-16.24-1.83-3.63-6.71-3.93-9.5.12-1.63 2.37-2.55 4.19-4.7 7.6-.24-.39-.75-.82-.69-1.15.48-2.75-.62-5.46 1.09-8.39 1.53-2.63.33-6.26 1.56-9.59 1.52-4.07 1.42-8.8 1.67-13.26.64-11.55 1.13-11.51-5.24-30.87-5.93-18.06-11.07-17.58-12.42-24.24-5.76-6-7-14.22-10.16-21.51-4.88-11.39 3.65-15-6.13-46.69-4.91-15.94-10.46-46.39-12.78-53.46-.09-.27 5-8.62-4.36-22.64-1.88 3-2.06 3.08-1.55 3.54 3.7 3.3 1.55 8.57 4.11 12.26a1.52 1.52 0 010 1.42c-3.21 3.58.39 8.61-2.6 12.16-1 1.21 1.08 4-1.73 3.89-.09 0-46.72-32.34-48.9-34.56-6.15-6.25-11.12 4.13-46.15 26.28-14.35 9.09-12.45 13.92-12.45-4.05z" fill="#eccbc7"/><path d="M517.4 312c2.41 1.51 9.21 6.4 11.78 8.24 38.06 27.28 39 26.05 36.5 29.25-1 1.3-3.06 3.94-.17 6-.1 5.71.93 11.65-1.57 17-3.13 6.64-4.45 13.81-7 20.62-2.29 6.27.88 7.8 9.84 20.63 3.69 5.29 1.95 2.36-33 27.45-5.1 3.65-10.9 6.3-15.36 10.86C515.94 454.59 517 314 517.4 312z" fill="url(#c)"/><path d="M513.53 452.55c-7.31-5-19.54-14.08-31.22-21.7-33.67-22-15.58-9.08-6.79-38.83.75-2.54-1-13.23-3.22-16.8-4.78-7.63-5.69-16.71-9.7-24.62-1-1.89.19-3.85 2-5 10.3-6.18 48.5-33.34 49-33.61.62 3.06.74 137.22-.07 140.56z" fill="url(#d)"/><path d="M546.29 193c1.9 6.24-4.27 7.15-6.36 12.79-3.87 10.44-12.86 21.64-24.72 26.08-6.26 2.34-14.8-3.25-20-7.43-4.41-3.54-8-11.32-11.61-14.12-2.82-2.16-2.66-6.66-7-7.62-1.12-.26-1.8-3.47-2.24-5.42-.37-1.63 0-3.41-.09-5.12-.24-6.8 6.2-5.19 6-14.44 0-2 1-4 1.36-6 2-10.31-1.18-7.54 12.24-21.33.66-.69 16.34-4.24 17.63-3.19 4.11 3.35 15.68-2.3 21.54 11.15 9.24 21.17 5.23 25.05 12 28 2.66 1.22.96 4.47 1.25 6.65z" fill="#f2beb5"/><path d="M473.28 189.9c16.22 54 59.08 57 77.68-1.2 0 0-2.76-45.32-14.88-51.67s-33.05-9.66-36.22-4.7c-26.69 41.77-8.73 12.31-26.58 57.57z" fill="#eccbc7"/><path d="M505.88 171.33c-3.73-.26-4.39-3.89-23.17-1.41-.18-1.54-.24-3.37 1.27-4 2.51-1.06 20.79.14 22 2.57.33.61-.06 2.16-.1 2.84zm14.54 0c3.73-.26 4.38-3.89 23.17-1.41.17-1.54.23-3.37-1.28-4-2.5-1.06-20.79.14-22 2.57-.31.61.07 2.16.11 2.84z" fill="#704b3c"/><path d="M510.12 112s5.79-3.31 15.29 0 10.12 1 14.67 3.51 13 7.64 15.28 11.57 9.92 20.86 9.51 25c-.92 9.17-.31 8.33-5.79-11 6.2 23.41 5.08 44.55-8.05 62 0 0-.21-12.6-.21-10.54s-11.57 18.8-11.57 18.8l4.55-11.57c-19.45 19.45 6.93-2.47-6.46-26.63.22-7.46 2-2.91-9.25-19 1 31.86 2-.06-13.22-14.87-12.62 12.61-11.64 49.68-9.5 4.34-49.18 30.16-2.45 89.15-27.27 55.37 2.6 11.16 3.38 9.77-1.86 6.19l6 11.16C465 197.1 469.6 198.64 465.5 189.41c0 0-11.77-15.9-12.19-21.89S452.9 151 455 146.24c24.56-56.57 52.56-33.36 55.12-34.24z" fill="#8c6239"/><path d="M510.12 112c5.85-2.82 12.47-1.09 18.28.91 3 1 6.18.92 9.25 1.54 4.85 1.87 9.21 5 13.38 8.06a19.56 19.56 0 014.36 4.49 124.63 124.63 0 015.34 11.34 69.86 69.86 0 014.07 11.84c.39 2.34-.13 4.72-.4 7.05-.59 2.47-1.86-3.47-2.08-4l-3.39-12.06.31-.09c2.76 10.44 4.38 21.31 3.42 32.14a58.17 58.17 0 01-12 31v-1.08c0-1.83-.2-8.93-.23-10.6v-.11a.29.29 0 000 .09c0-.25-.12.59.77 0v-.1.06a2 2 0 01-.1.62 28.32 28.32 0 01-2.43 4.67c-3.57 5.91-7.56 11.7-11.43 17.41 1-2.55 5-12.79 6-15.54l.86.56c-1.36 1.36-2.7 2.74-4 4.12-.91.9-2.4 2.65-3.4 3.44a.6.6 0 01-.93-.63c5.37-10.8 7.16-22.92.89-33.78 0-1.74.49-3.79.06-5.41a23.21 23.21 0 00-2.81-4.47c-2.15-2.95-4.3-5.93-6.4-8.92l1.2-.4c.09 4.56.45 9.1.48 13.67a.71.71 0 01-1.33.31 3.87 3.87 0 01-.24-.7c-2.42-9.93-5.9-20.26-13.28-27.61h1a31.61 31.61 0 00-6.34 10.43 92.71 92.71 0 00-4.3 15.48c-.11.18-.37.68-1.11.2-.3-.48-.1-.19-.17-.32a.77.77 0 010-.33c.11-1.93.49-7.11.62-9.11q.39-6.31.7-12.65l1 .58a51.59 51.59 0 00-15.79 14.52c-10.25 14.49-8.87 33.33-3.65 49.48a2.46 2.46 0 01.09 1 .58.58 0 01-.55.42.77.77 0 01-.35-.13c-2.91-3.14-5.09-6.86-7.7-10.22l.75-.35c.6 2.81 1.46 5.51 2 8.34a1 1 0 01-.09.67c-.44.63-1.25-.08-1.65-.38-.91-.7-1.8-1.39-2.73-2l.55-.49c.93 1.77 6.46 12.12 7.28 13.66-2.36-2.68-4.86-5.43-7.15-8.16-3.36-4.14-7.07-8.23-8.87-13.36a60.11 60.11 0 00-2.55-7.57c-4.17-6-8.86-12.46-11.54-19.49-.86-2.43-.67-5-.77-7.54 0-5 0-10.18 1.45-15.06a98.66 98.66 0 0115.17-26.1c9.63-11.6 22.56-17 37-10.56 1 .32 2.59 1.28 3.56 1.19zm0 0a4.19 4.19 0 01-1.81-.46l-1.75-.72c-14.38-6.39-27.29-1-36.87 10.62a98.59 98.59 0 00-15.07 26.09c-1.38 4.85-1.41 10-1.38 15 .11 2.49-.06 5.08.8 7.45a42.19 42.19 0 003.29 6.76 146.26 146.26 0 008.36 12.6 59.27 59.27 0 012.63 7.63 26.06 26.06 0 003.86 6.9c3.16 4.29 6.75 8.26 10.3 12.24l-.54.38-6-11.14-.73-1.35 1.28.86c1.19.77 2.32 1.8 3.5 2.5 0 0-.18 0-.22.12-.63-3.28-1.8-7-2.51-10.39 3 3.8 5.6 8 8.73 11.58a.12.12 0 00-.08 0 .4.4 0 00-.39.25 31.5 31.5 0 00-.85-3.12c-8.08-25.52-2.64-49.37 21.46-63.36-.32 7.35-.77 15.22-1.3 22.59v.34c0-.03.13.18-.16-.3-.67-.41-.82-.07-.92 0a.78.78 0 00-.17.21v-.09c2-9.51 4.3-19.7 11.36-26.89 7.25 6.9 10.93 16.55 13.42 26 .07.25.75 3 .81 3.14a.67.67 0 00-.84-.26.67.67 0 00-.36.42v-2c-.19-4.52-.37-9.1-.49-13.63 2.5 3.6 5.07 7.19 7.64 10.74a22.8 22.8 0 013 4.82c.55 2 0 3.74 0 5.68l-.08-.33a31.9 31.9 0 013.73 11.1c1.12 7.78-.91 15.73-4.41 22.64-.1.25-.25.5-.31.69a.45.45 0 000-.28.54.54 0 00-.56-.28h-.12l.19-.16c2.89-2.92 5.9-6.07 8.84-8.94-.57 1.45-4.83 12.17-5.5 13.88l-.84-.45c3.12-4.54 6.23-9.11 9.11-13.8a29.43 29.43 0 002.38-4.46 1 1 0 00.06-.4v-.22c.88-.61.76.22.76 0a.26.26 0 010 .11v2.51l.12 8.28-.67-.22c13.68-17.39 13.82-41.17 8.2-61.71l.3-.08c1 3.3 3.41 13.52 4.75 16.5 0 .18.17-.17.21-.4.24-1.28.32-2.58.46-3.87.48-3.15-.84-6.14-1.8-9.08-.7-2-1.47-3.91-2.27-5.83a124.29 124.29 0 00-5.3-11.34 19 19 0 00-4.32-4.46c-4.15-3.08-8.5-6.2-13.33-8.08-3.06-.62-6.26-.54-9.25-1.56-5.8-2-12.4-3.77-18.26-1z"/><path d="M499.86 213l23.69-.63c-7.5 6.94-16.31 7.04-23.69.63z" fill="#df576b"/><path d="M511.71 210.55c1.49-1.86 5.31-1.13 6.61-.62 8.2 3.22 10 2.41-19 2.41 9.14-4.1 8.18-4.19 12.39-1.79z" fill="#df576b"/><path d="M509.5 186.83c-.62 7.07-10.44 11-5.06 13.18 7.75 3.06 6.36 3 14.94.54 1.46-.42 1.73-1.49 1-2.78-1.17-2.23-2.8-2.08-3.56-6.06-2.16-11.35 4.27-19.17 1.11-15.88-8.44 8.79.33 24.1-5.76 24.54-7.89.57-2.25-7.12-2.67-13.54z" fill="#d88e75"/><path d="M484.3 179.91c5.6 5.46 9.64 4.69 18.08 2.58-9.89-8.29-10.01-6.16-18.08-2.58z" fill="#fff" stroke="#020000" stroke-miterlimit="10" stroke-width=".65"/><path d="M496.62 180.45c0 4.85-7.33 4.85-7.33 0s7.33-4.85 7.33 0z" fill="#704b3c"/><path d="M495.19 180.45a2.24 2.24 0 01-4.47 0 2.24 2.24 0 014.47 0z" fill="#231e20"/><path d="M538.83 179.66c-5.6 5.46-9.64 4.69-18.07 2.59 9.88-8.25 10-6.17 18.07-2.59z" fill="#fff" stroke="#020000" stroke-miterlimit="10" stroke-width=".65"/><path d="M526.51 180.2c0 4.85 7.33 4.85 7.33 0s-7.33-4.85-7.33 0z" fill="#704b3c"/><path d="M528 180.2a2.23 2.23 0 004.46 0 2.23 2.23 0 00-4.46 0z" fill="#231e20"/><path d="M493.76 179.52a.81.81 0 01-1.61 0 .81.81 0 011.61 0zm37.65-.52a.81.81 0 01-1.62 0 .81.81 0 011.62 0z" fill="#fff"/><path d="M140.21 189.9c16.21 54 59.07 57 77.67-1.2 0 0-2.75-45.32-14.87-51.67s-33.06-9.66-36.22-4.7c-26.69 41.77-8.74 12.31-26.58 57.57z" fill="#eccbc7"/><path d="M172.8 171.33c-3.73-.26-4.38-3.89-23.17-1.41-.17-1.54-.23-3.37 1.28-4 2.5-1.06 20.79.14 22 2.57.32.61-.07 2.16-.11 2.84zm14.54 0c3.73-.26 4.38-3.89 23.17-1.41.17-1.54.23-3.37-1.28-4-2.5-1.06-20.79.14-22 2.57-.32.61.07 2.16.11 2.84z" fill="#704b3c"/><path d="M177.05 112s5.78-3.31 15.28 0 10.13 1 14.67 3.51 13 7.64 15.29 11.57 9.91 20.86 9.5 25c-.92 9.17-.31 8.33-5.78-11 6.19 23.41 5.07 44.55-8.06 62 0 0-.21-12.6-.21-10.54s-11.57 18.8-11.57 18.8l4.55-11.57c-19.45 19.45 6.93-2.47-6.45-26.63.21-7.46 2-2.91-9.26-19 1 31.86 2-.06-13.21-14.87-12.63 12.61-11.64 49.68-9.51 4.34-49.18 30.16-2.44 89.15-27.26 55.37 2.59 11.16 3.37 9.77-1.86 6.19l6 11.16c-17.25-19.17-12.64-17.63-16.74-26.86 0 0-11.77-15.9-12.18-21.89s-.42-16.53 1.65-21.28c24.58-56.63 52.59-33.42 55.15-34.3z" fill="#8c6239"/><path d="M177.05 112c5.85-2.82 12.47-1.09 18.27.91 3 1 6.18.92 9.25 1.54 4.86 1.87 9.21 5 13.38 8.06a19.16 19.16 0 014.36 4.49 122 122 0 015.34 11.34 69.89 69.89 0 014.08 11.84c.39 2.34-.14 4.72-.41 7.05-.59 2.47-1.85-3.47-2.08-4l-3.38-12.06.3-.09c2.77 10.44 4.38 21.31 3.42 32.14a58.09 58.09 0 01-12 31v-1.08c0-1.83-.2-8.93-.23-10.6v-.11a.32.32 0 000 .09c0-.25-.12.59.76 0a.77.77 0 110-.1v.06a2 2 0 01-.09.62 29.16 29.16 0 01-2.44 4.67c-3.57 5.91-7.55 11.7-11.43 17.41 1-2.55 5-12.79 6-15.54l.86.56c-1.36 1.36-2.7 2.74-4 4.12-.91.9-2.4 2.65-3.4 3.44a.6.6 0 01-.93-.63c5.38-10.8 7.16-22.92.9-33.78 0-1.74.49-3.79.05-5.41a22.74 22.74 0 00-2.81-4.47c-2.15-2.95-4.3-5.93-6.4-8.92l1.2-.4c.09 4.56.45 9.1.49 13.67a.71.71 0 01-1.33.31 3.87 3.87 0 01-.24-.7c-2.43-9.93-5.91-20.26-13.29-27.61h1a31.42 31.42 0 00-6.36 10.53 91.76 91.76 0 00-4.3 15.48c-.12.18-.37.68-1.12.2-.3-.48-.1-.19-.17-.32a1.34 1.34 0 010-.33c.12-1.93.5-7.11.62-9.11.27-4.21.49-8.43.7-12.65l1 .58a51.44 51.44 0 00-15.78 14.52C146.6 173.11 148 192 153.19 208.1a2.46 2.46 0 01.09 1 .56.56 0 01-.55.42.82.82 0 01-.35-.13c-2.9-3.14-5.09-6.86-7.69-10.22l.75-.35c.59 2.81 1.45 5.51 2 8.34a1.19 1.19 0 01-.09.67c-.45.63-1.26-.08-1.66-.38-.91-.7-1.8-1.39-2.73-2l.55-.49c.94 1.77 6.47 12.12 7.28 13.66-2.35-2.68-4.86-5.43-7.14-8.16-3.36-4.14-7.08-8.23-8.88-13.36a61.71 61.71 0 00-2.54-7.57c-4.18-6-8.87-12.46-11.55-19.49-.85-2.43-.66-5-.77-7.54 0-5 0-10.18 1.46-15.06a98.35 98.35 0 0115.16-26.1c9.63-11.6 22.56-17 37-10.56 1 .32 2.58 1.28 3.56 1.19zm0 0a4.23 4.23 0 01-1.82-.46l-1.75-.72c-14.37-6.39-27.28-1-36.87 10.62a98.59 98.59 0 00-15.07 26.09c-1.37 4.85-1.41 10-1.38 15 .12 2.49 0 5.08.8 7.45a41.42 41.42 0 003.3 6.76 148.53 148.53 0 008.35 12.6 60.88 60.88 0 012.64 7.63 25.79 25.79 0 003.86 6.9c3.16 4.29 6.74 8.26 10.3 12.24l-.55.38-6-11.14-.73-1.35 1.28.86c1.2.77 2.32 1.8 3.5 2.5 0 0-.18 0-.21.12-.64-3.28-1.81-7-2.52-10.39 3 3.8 5.6 8 8.74 11.58a.11.11 0 00-.08 0 .38.38 0 00-.38.25 31.5 31.5 0 00-.85-3.12c-8.09-25.52-2.65-49.37 21.46-63.36-.33 7.35-.78 15.22-1.3 22.59v.43a.29.29 0 000-.09c-.06-.12.13.18-.16-.3-.67-.41-.82-.07-.92 0a1.82 1.82 0 00-.17.21v-.09c2-9.51 4.31-19.7 11.37-26.89 7.24 6.9 10.93 16.55 13.41 26 .07.25.75 3 .81 3.14a.66.66 0 00-.84-.26.64.64 0 00-.35.42v-2c-.19-4.52-.36-9.1-.49-13.63 2.5 3.6 5.07 7.19 7.64 10.74a22.84 22.84 0 013 4.82c.55 2 0 3.74 0 5.68l-.08-.33a31.88 31.88 0 013.72 11.1c1.13 7.78-.91 15.73-4.41 22.64-.09.25-.25.5-.3.69a.53.53 0 00-.05-.28.55.55 0 00-.57-.28h-.07a1.28 1.28 0 00.19-.16c2.89-2.92 5.91-6.07 8.85-8.94-.57 1.45-4.84 12.17-5.51 13.88l-.84-.45c3.13-4.54 6.23-9.11 9.11-13.8a28.56 28.56 0 002.38-4.46 1.24 1.24 0 00.07-.4v-.22c.89-.61.76.22.77 0a.52.52 0 010 .11v2.51l.12 8.28-.67-.22c13.68-17.39 13.82-41.17 8.2-61.71l.31-.08c1 3.3 3.4 13.52 4.74 16.5 0 .18.17-.17.21-.4.25-1.28.32-2.58.46-3.87.48-3.15-.84-6.14-1.8-9.08-.7-2-1.46-3.91-2.27-5.83A124.29 124.29 0 00222.2 127a19 19 0 00-4.32-4.46c-4.15-3.08-8.5-6.2-13.33-8.08-3.06-.62-6.25-.54-9.24-1.56-5.8-2-12.41-3.77-18.26-1z"/><path d="M166.79 213l23.68-.63c-7.47 6.94-16.31 7.04-23.68.63z" fill="#df576b"/><path d="M178.63 210.55c1.49-1.86 5.31-1.13 6.61-.62 8.2 3.22 10 2.41-19 2.41 9.15-4.1 8.18-4.19 12.39-1.79z" fill="#df576b"/><path d="M176.43 186.83c-.63 7.07-10.44 11-5.06 13.18 7.75 3.06 6.35 3 14.94.54 1.46-.42 1.73-1.49 1.05-2.78-1.18-2.23-2.81-2.08-3.56-6.06-2.17-11.35 4.26-19.17 1.11-15.88-8.45 8.79.32 24.1-5.77 24.54-7.94.57-2.3-7.12-2.71-13.54z" fill="#d88e75"/><path d="M151.22 179.91c5.61 5.46 9.65 4.69 18.08 2.58-9.88-8.29-10.01-6.16-18.08-2.58z" fill="#fff" stroke="#020000" stroke-miterlimit="10" stroke-width=".65"/><path d="M163.54 180.45c0 4.85-7.33 4.85-7.33 0s7.33-4.85 7.33 0z" fill="#704b3c"/><path d="M162.11 180.45a2.24 2.24 0 01-4.47 0 2.24 2.24 0 014.47 0z" fill="#231e20"/><path d="M205.75 179.66c-5.6 5.46-9.64 4.69-18.07 2.59 9.88-8.25 10.01-6.17 18.07-2.59z" fill="#fff" stroke="#020000" stroke-miterlimit="10" stroke-width=".65"/><path d="M193.43 180.2c0 4.85 7.34 4.85 7.34 0s-7.34-4.85-7.34 0z" fill="#704b3c"/><path d="M194.87 180.2a2.23 2.23 0 004.46 0 2.23 2.23 0 00-4.46 0z" fill="#231e20"/><path d="M160.68 179.52a.81.81 0 01-1.61 0 .81.81 0 011.61 0zm37.65-.52a.81.81 0 01-1.61 0 .81.81 0 011.61 0z" fill="#fff"/></svg>