<svg xmlns="http://www.w3.org/2000/svg" viewBox="0 0 1400 780"><path fill="#e6e6e6" stroke="#000" stroke-linecap="round" stroke-miterlimit="10" d="M0 0h1400v779.09H0z"/><path d="M454.94 383.36c-.27 28-9.92 48.38-10.75 131.52-.13 14-.17 25.32-6.15 37.37-16.57-44.6-38.72-52.27-45.07-121-5-53.55 0-108.1-14.17-160.35-10.68-39.46-20.59-39.07-18.2-47.53 7.42-.22 99.64-1.35 99.94-.17 2.09 8.13-7.81 17.23-6.34 25.47-13.76 84.33 1.17 93.94.74 134.69z" fill="#f2d0b7"/><path d="M455.09 383.36c.06 12.47-3.13 29.84-4.78 42.3-2 14-3.28 28.19-4.17 42.35-.67 10.31-1.05 21.54-1.3 31.9l-.14 10.64c-.13 14.57.48 30-6.72 43.23l-.53-1.32c-5-13.37-11.83-25.91-19.14-38.19-5.39-9.26-10.7-18.74-14.52-28.81-11.84-30.26-12.87-63.25-14.22-95.3-1.91-49.44-1.3-101-22.21-146.85-2.24-5-5.46-9.15-7.87-14.14a9.45 9.45 0 01-.32-6.21l.22-1.05h1.17c30.5-.5 64.6-1 95.1-.37a36.21 36.21 0 015.17.39l.26.11a1 1 0 01.23.14 1.48 1.48 0 01.47.69L462 224c1.09 9-7.72 16-6.67 24.86-3.67 22.1-6.73 44.7-6.31 67.17.09 22.61 6.64 44.69 6.09 67.34zm-.29 0c.3-22.66-6.31-44.69-6.85-67.3-.81-22.56 1.85-45.3 5.14-67.57v.39a16.21 16.21 0 011.17-8.37c1.95-5.6 6.2-10.92 5-16.95a1.27 1.27 0 00.74.82h-.15c-20.06-.9-47.27.19-67.61.09l-31.64.42 1.39-1.08c-1.06 3.33 1 5.92 2.68 8.75A103 103 0 01370 242a136.46 136.46 0 017.76 20.21c12.75 41.33 12.66 85.11 14 127.85 1.07 28.4 1.88 57.33 10.19 84.69 4 13.67 10.57 26.44 17.77 38.71s14 25.07 19 38.54l-1.15-.06c6.63-12.76 6-27.43 6.34-41.44a691 691 0 016.2-84.91c1.64-12.57 4.82-29.76 4.78-42.27z"/><path d="M552 227.89c-29.49 45.28-39.37 78.42-43.67 158.19-6.5 121-12.84 123-35.12 177.46-8.37 20.4-15.39 46.76-17.21 79.5-3.37.81-7.83 4.1-9.87 4.8-12.1 4.22-33.92-1-36.83-13.42-.6-2.51-.59-5.73-3.38-6.85 8.91-50.42 27.74-61.4 34.65-81.12 7.4-20.78-.2-52.53 9.91-122.89 14.25-99-16.37-58.34 6.64-192 .69-4 1.95-4.88 5.68-4.92q44.58-.51 89.2 1.25z" fill="#f6e0cf"/><path d="M552.08 227.82c-4.63 7.44-9.64 15.54-13.74 23.27a219.06 219.06 0 00-11.22 24.42c-19.17 50.81-16.75 106-21.32 159.34-2.19 26.79-4.37 54-12.39 79.8-5.45 17.15-13.1 33.46-19.77 50.13-10 24.89-15.18 51.57-16.64 78.32l-.05.76c-3.89.76-7.29 3.86-11.12 5.18-10.87 3.18-25.55.58-33.75-7.44a15 15 0 01-4-7.21 32.79 32.79 0 00-.81-3.64 3.61 3.61 0 00-2.7-2.46l.17-.92c3.55-20.77 10.4-41.27 22-59 2.79-4.46 5.73-8.8 8.26-13.3a54.19 54.19 0 006.92-21.8c1.59-18.25.73-36.62 1.79-54.92.48-10.51 1.32-21 2.35-31.45 2.44-23.55 6.92-46.7 6.79-70.24a154 154 0 00-1.71-23.31c-1.57-10.23-3.57-21-3.93-31.32-1.14-26 2.77-52.81 7-78.44l1.29-7.76.65-3.88c.29-1.95.92-4.76 3.15-5.6 2-.78 4.14-.44 6.17-.54h7.86l15.74.07c20.64.25 42.39.79 63 1.93zm-.26.13c-25.74-.61-52.74-.95-78.5-.61l-7.86.11c-2.12.18-5.36-.49-6.63 1.4-1 1.47-1.21 5.45-1.59 7.3-5 33.42-10.84 67.63-5.89 101.3 1.7 10.91 3.87 22.21 4.32 33.27 0 2.83.11 7.07.14 9.91-.49 22.42-4.51 44.55-6.84 66.59-2.2 20.84-3 41.74-3.17 62.69-.36 15.71 0 32.62-8.47 46.49-2.63 4.63-5.59 9-8.38 13.39-11.57 17.45-18.34 37.44-21.95 58l-.71-1.27c3 1 3.55 4.86 4 7.4a12.86 12.86 0 003.4 6.14c7.61 7.45 21.39 9.83 31.48 7 3.72-1.34 6.46-4 10.53-5l-.81 1c1.58-27 6.86-53.84 17.06-78.89 6.72-16.62 14.42-32.88 19.91-49.94 8.06-25.68 10.31-52.69 12.63-79.41 5.39-61.82 2.27-128.15 33.51-183.93 4.11-7.6 9.06-15.74 13.85-22.94z"/><path d="M489 648.52c-.43 2.39-1.2 3.46-4.78 3.46-4.47 0-24-.19-27.13-1.31-2.07-.8-2.05-.11-1.12-8.41.93-16.93 0-3.35 12.05-.42 8.15 2 15.23-3.82 21.07-8.86a43.44 43.44 0 01-.09 15.54z" fill="#3fa9f5"/><path d="M489.19 648.55a4.62 4.62 0 01-1.16 2.58 4.51 4.51 0 01-2.67.94c-1.88.09-3.74.11-5.61.15-3.73 0-7.46.16-11.2.1-2.81 0-5.63-.1-8.43-.34a15.2 15.2 0 01-3.64-.63 2.65 2.65 0 01-1.64-1.1c-.6-1.32-.25-2.74-.22-4 .09-.93.3-3.27.38-4.16a70.09 70.09 0 01.52-7.87 1.8 1.8 0 011-1.37 1.7 1.7 0 011.84.54c5.43 7.2 13 9.53 21.1 5a90.39 90.39 0 0010.43-7.12 52.4 52.4 0 01-.7 17.31zm-.29 0a37.35 37.35 0 00-.7-15.36l1.55.55c-5.26 5.35-12.37 11.1-20.49 9.85-5.39-.73-9.57-4.39-12.61-8.55a.94.94 0 00.73 0 .8.8 0 00.39-.32 65.74 65.74 0 00-.75 7.58c-.13.9-.39 3.26-.52 4.18a10.65 10.65 0 00-.11 2.95 4.42 4.42 0 001.3.53c3.5.78 7.31.84 10.91 1.15 5.56.31 11.17.8 16.74.72a3.31 3.31 0 003.56-3.3z"/><path d="M457.6 633.83l.22.55.15.41-1-2.09c-.1-.22-.14-.3-.15-.34s.26.42.28.44c.1.19.46.86.54 1zm0 0l.37.8s.25.52.19.48-1.66-3.06-1.77-3.23l.54.83a11.43 11.43 0 01.67 1.12z"/><path d="M456.81 633.51a6.82 6.82 0 011 .4c.11.06.5.14.27.18a7.52 7.52 0 01-1.61.06 7.33 7.33 0 01-1.29-.25c-.22-.07.17-.1.3-.15a3.54 3.54 0 011.34-.24z"/><path d="M456 643c-1.26 19.33-9.93 30.61-29.84 33.36-11.64 1.64-24.5-.61-28.07-11.8-3.42-10.89 3.78-14.9 7.83-37 2.8 1.12 2.78 4.37 3.38 6.85 2.91 12.4 24.74 17.64 36.83 13.42 1.98-.69 6.48-3.99 9.87-4.83z" fill="#3fa9f5"/><path d="M456 642.93c-.32 10.11-3.44 20.87-11.8 27.26-10.57 8-33.45 11.48-43.44 1.1a18.15 18.15 0 01-4.57-14.89c.85-5.17 3.12-9.71 4.6-14.61a107.53 107.53 0 003.57-14.49l.32-1.79c4.81 1.49 5.17 4 5.93 8.31 2.92 11.5 20.54 15.5 31 14.29a18 18 0 007.11-2.19c2.35-1.15 4.67-2.62 7.31-3zm-.18.23a61.56 61.56 0 00-8.3 4.66 18.41 18.41 0 01-5.7 1.85c-11.05 1.89-26.28-1-32.59-11.2-1.4-2.18-1.69-5.33-2.36-7.6a2.82 2.82 0 00-1.6-1.92l2-1.11a99.38 99.38 0 01-4 14.8c-1.54 4.71-3.94 9.32-4.85 14.11a16 16 0 003.76 13.16c6.91 7.18 18.47 6.83 27.68 5.07 17.47-3.49 24.35-14.91 25.9-31.82z"/><path d="M489.83 634.7c-.51 1.61-.16 1.29-.7-1.72-5.92 5.11-12.92 10.82-21.07 8.86-3.76-.92-9.06-4.32-10.61-8.09-1.4-3.6 1.88-36.49 15.71-70.21 10.16-5.54 21.4 55.78 16.67 71.16z" fill="#f2d0b7"/><path d="M490 634.74l-.28.9a.2.2 0 010 .08s0 .13-.23 0-.07-.15-.09-.23v-.23l-.05-.46c-.07-.62-.16-1.23-.27-1.84l.22.08c-3.49 2.95-7 6-11.25 7.9a15.39 15.39 0 01-13.55-.06c-3.13-1.62-6.28-3.8-7.65-7.25a15.78 15.78 0 01-.3-3.6c1.09-23 7.22-45.6 15.41-67.05l.17-.42.45-.27c10-4.81 15.85 27.36 16.86 33.89a175.68 175.68 0 011.84 19.27c.12 6.42.46 13-1.23 19.25zm-.28-.09c1.55-6.21.92-12.76.29-19.07s-1.86-12.65-3.15-18.9c-.67-3.12-1.34-6.24-2.12-9.32-1-4-6-24.09-10.89-22.61l.61-.69a227.05 227.05 0 00-9.08 25.78c-3.66 13.13-6.73 26.62-7.5 40.25-.17 2.31.1 4.2 1.76 5.93 9.91 10.58 20.32 5.19 29.43-3.14l.18-.16c.17.92.3 1.85.4 2.78v.08c-.21-.08-.17 0-.19 0l.26-.89z"/><path d="M545.74 44.59s2.83 59.75 4.14 74.54" fill="#80c3fa"/><path d="M545.88 44.58c.77 9.29 2.22 27.94 2.89 37.23a261.11 261.11 0 011.23 37.31h-.29c-.67-3.07-1.15-6.16-1.55-9.26a231.14 231.14 0 01-1.74-28c-.31-11-.75-26.51-.85-37.34z"/><path d="M371.47 40.3c-1.38 5.52-8.36 67.48-11.11 83.13" fill="#80c3fa"/><path d="M371.61 40.33c-1.61 11.74-3.14 29.73-4.5 41.67-1.3 13.93-2.81 27.92-6.61 41.44h-.29a362.07 362.07 0 014.58-41.68c1-6.84 3.58-24.51 4.68-31.12.57-3.45 1.09-6.9 1.86-10.34l.28.07z"/><path d="M367.48 261.18s60.33-39.53 82.64-37.07 90.33 37.07 90.33 37.07c28.73-7.37 11.39-90.34 8.07-138-1.15-16.57 6.92-15.19-18.45-33.14s-66.88-26.23-85.33-24.85-46.13-5.52-58.81 11S364 98.28 359.41 130s-6.92 81.22-5.77 96.52-2.31 29.13 13.84 34.66z" fill="#80c3fa"/><path d="M367.46 261a453.73 453.73 0 0140.9-23.76c10.6-5.26 21.44-10.44 33.08-12.94.73-.16 2.2-.41 2.95-.48a24.75 24.75 0 018.95.37 92.6 92.6 0 0111.48 3.1c11.27 3.67 22.21 8.31 33.08 13 13.66 6.21 31 13.75 42.36 20.11 19-5.26 15.63-44.57 15-60.21-1.47-22.28-4.68-44.42-6.9-66.7-.48-5.63-1.24-11.22-.94-16.9.11-2.7.6-5.5.18-8.1-1.16-5.08-6.37-8.55-10.25-11.78-3.1-2.33-6.93-5.17-10.17-7.25-21.51-13.76-49.33-21.37-74.69-23-5.49-.18-11.27.44-16.74.27-13.57-.08-28-2.26-40.6 3.71-5.06 2.4-8.1 6.69-11.55 11-5 6.27-11.11 12.9-14.63 20-5 9.82-7.2 20.85-8.72 31.75a728.08 728.08 0 00-6.15 83.46c-.12 5.5.37 11.25.4 16.75 0 11.91-.2 22.85 13 27.48zm0 .29c-15.41-4.78-13.58-18.83-14.27-31.92a269.55 269.55 0 01-.4-29.4c1.14-27.93 2.11-56.16 7.87-83.64a75 75 0 015.75-16A77.68 77.68 0 01376 86.19c3.3-3.88 7.31-9.22 10.69-13.09A30 30 0 01402 64.91c11.17-2.54 22.58-1.29 33.8-1.08 5.55.18 11.24-.44 16.8-.2a164.92 164.92 0 0133.32 5.59c17.63 4.77 34.94 11.92 49.49 23.14 4.7 3.71 10.12 7.25 13.25 12.49 2.08 3.65 1.18 8 1 11.91-.31 5.51.4 11.07.85 16.57 2.86 33.33 9.32 66.84 6.32 100.45-1.33 10.64-4.21 24.84-16.14 28.12-24.9-11.79-49.85-24.72-76.12-33.66a92.11 92.11 0 00-11.34-3.14 24.17 24.17 0 00-8.68-.42c-.72.06-2.19.31-2.89.46-11.57 2.41-22.41 7.5-33 12.67a468.23 468.23 0 00-41.13 23.51z"/><path d="M881.13 291.87c-2-2-8-.07-10-22.22 1.68 17.2 5.12 19.35 10 22.22z" fill="#86e0fc"/><path d="M881.05 291.81c-1.93-.87-4-1.73-5.28-3.52-3.87-5.36-4.51-12.22-5.43-18.57l1.6-.15c.26 1.88.61 4.45 1 6.27.82 4 1.49 8.23 3.76 11.67 1.12 1.72 2.87 2.91 4.36 4.3zm.16.12c-9.32-2.83-10.27-14-10.86-22.2l1.59-.15c.68 6.32 1 16.49 6.51 20.54.86.65 2.13.9 2.76 1.81z"/><path d="M912.53 284.58a100.65 100.65 0 00-4.36-14.43c1.37 3.6 3.91 10.61 4.36 14.43z" fill="#86e0fc"/><path d="M912.55 284.68c-1.46-4.82-3.21-9.59-5.13-14.26l1.5-.55a36.26 36.26 0 013.52 10.84 11.52 11.52 0 01.11 4zm0-.2c-.09-.39-.31-.41-.42-.78l-.34-.88a111.52 111.52 0 01-4.33-12.39l1.5-.55a102.9 102.9 0 013.42 12.81 7.55 7.55 0 01.17 1.79z"/><path d="M912.71 285.72c-.06-.52-.23-1.58-.14-.94.05.31.1.62.14.94z" fill="#86e0fc"/><path d="M912.73 285.82c-.12 0-.2-.17-.25-.21l-.34-.39c-.14-.15-.28-.39-.37-.46-1.33.21 2 .18 1.58-.21 0-.06 0-.05 0 0l.05.06a.9.9 0 01.1 1c-.17.36-.69.74-.81.25zm0-.2c-.07-.58-.47-1.07-1-.89-.15.06-.18.17-.12.19s.07 0 .09-.07a.49.49 0 00.06-.23c-.37-.39 2.9-.42 1.58-.21a3.64 3.64 0 01-.43 1.14c0 .11-.11-.09-.2.07z"/><path d="M1032.63 585.06c-1.89 6.36-4.38 10-7.51 14.24-8.43 11.58-22.11 55.46-61.34 73l-56.2 17.59c-59.85-61-87.12-68.64-92.67-109.45 11.62-100.19 11.59-105.32-5.29-149 14.35-144 11.46-104.65 13.47-166.22 34.25-9.61 33.32-10.46 34.67-7.73 9.46 12.13 48.66 93.44 53.28 95.63 16.31-1.61 18.52 23 38.05-13.17 5.76-10.6 17.61-33.84 23.09-44.59 11.91-23.36 8.35-14 .43-8.49-7.57 5.18-13.28 3.73-17.81-3.16 9 13.35 18.42 2.24 29.13-8.47 11.55-17 14.41-12.23 10.68-17.56-2.85-3.9 21 15.44 38.15 26.48.01.16 9.53 268.28-.13 300.9z" fill="#8ae3f6"/><path d="M1032.73 585.09a40.08 40.08 0 01-6.35 12.66c-2.91 3.74-5 8-7.14 12.23a253.71 253.71 0 01-13.86 24.79c-10.25 15.86-24.09 29.94-41.53 37.72l-56.2 17.64h-.13l-.09-.1c-17.07-17.42-35.19-33.75-53.47-49.88C842.72 630 830.89 619.8 823 606.58a70.2 70.2 0 01-8.6-26.05c1.39-12.57 2.88-25.13 4.21-37.71 2.5-27.94 7.34-56.88-.26-84.38-2.54-9.13-6-18-9.4-26.86 1.52-15.6 9-90 10.35-103.9s2.12-27.67 2.38-41.58l.6-20.85v-.56q9.06-2.56 18.11-5.2l8.78-2.56c2.47-.56 5.11-1.82 7.7-1.4a2.73 2.73 0 011.55 1.66l-.08-.14c5.34 7.51 9.43 15.74 13.88 23.77s8.56 16.14 12.8 24.23c6.38 12.12 12.66 24.29 19.33 36.24 2.11 3.63 4.05 7.43 6.67 10.7a4.3 4.3 0 00.36.35l-.49-.09c15.14-1.19 17.93 16.82 30.9-2.12 6-8.71 12.45-22.71 17.54-32.17 1.15-2.21 18.26-35.29 19-36.72.17-.33.35-.69.46-1v-.07a.76.76 0 000 .3c0 .09.31.7.58.72a1 1 0 00.66 0 .61.61 0 00.18-.09l-.35.35c-7.54 8.51-18.24 14.78-26 2.75l1.66-1.11c6.72 10.41 14.37 4.36 21.11-2.14 2-2 4.84-4.86 6.37-6.33 1.65-2.43 3.38-4.82 5.27-7.1a84.55 84.55 0 016.71-7.05c.09-.2.06 0 0-.18a3.22 3.22 0 00-.4-.72l-.59-.88-.31-.44-.19-.27a1.51 1.51 0 01-.26-.7 1.58 1.58 0 010-.31 1 1 0 01.21-.44 1.06 1.06 0 011-.41 10.81 10.81 0 013.13 1.75c11.9 8.44 23.34 17.54 35.53 25.47l.4.26v.46q2.32 75.27 3.32 150.55c.22 43.89 1 87.88-1.72 131.71-.5 6.25-1 12.54-2.54 18.65zm-.19-.06c1.53-6.07 2-12.37 2.47-18.61 2.63-43.83 1.6-87.8 1-131.68q-1.38-75.25-4.18-150.48l.41.72c-9.83-6.35-19.2-13.33-28.62-20.24-3.1-2.2-6.07-4.65-9.35-6.53a.92.92 0 001.06-.72.65.65 0 000-.24 1 1 0 000-.19V257l.12.18c1.4 2 2.72 3.5.42 5.46a69.57 69.57 0 00-11.12 13.19C978 282.18 967 297.06 957.09 288a21.6 21.6 0 01-3.11-3.68l1.66-1.11c6.89 10.95 16.32 4.28 22.88-3a4.33 4.33 0 01.77-.69 1.45 1.45 0 01.22-.09 1.1 1.1 0 01.72 0c1.24.62.35 1.9 0 2.71-6.79 13-20.87 40.3-27.52 53.1-4.34 8.1-8.39 16.87-15.49 23.09-6.51 5.47-11.67.56-17.65-2.55a15.52 15.52 0 00-8.7-1.64 3.86 3.86 0 01-1.13-.88 39.76 39.76 0 01-3.46-5.1c-12.57-21.78-23.51-44.43-35.45-66.54-4.37-7.94-8.45-16.17-13.67-23.56v-.14a2.91 2.91 0 00-.44-.75c0-.07-.11-.07-.17-.1a6.34 6.34 0 00-2.39.25c-3.22.7-9.94 2.81-13.15 3.69q-8.77 2.55-17.59 5l.57-.72-.64 20.84c-.29 13.9-1 27.85-2.47 41.68-1.29 12.77-9 90.14-10.56 103.46 3.36 8.8 6.81 17.73 9.34 26.84 7.61 27.72 2.72 56.74.14 84.81-1.37 12.37-2.85 25.58-4.3 37.48a69.24 69.24 0 008.4 25.74c7.75 13.17 19.44 23.3 30.64 33.52 18.23 16.2 36.31 32.61 53.32 50.1l-.22-.06 56.19-17.54c17.39-7.73 31.19-21.74 41.44-37.55a253 253 0 0013.73-24.74c2.18-4.19 4.25-8.5 7.17-12.25a39.81 39.81 0 006.34-12.59z"/><path d="M900.68 171.88c-10.15 0-10.15-8.11 0-8.11s10.15 8.11 0 8.11z" fill="#f6e0cf"/><path d="M900.68 172c-2.35-.13-5-.23-6.89-1.81a3.19 3.19 0 01-.14-4.84c3.3-3.42 15.31-3.73 15.64 2.49-.39 4.1-5.52 4.25-8.61 4.16zm0-.2c3.7.18 10.08-3.68 4.28-6.34-3.18-1.2-7.68-1.46-10.51.71a2.29 2.29 0 00-.14 3.48c1.57 1.7 4.11 2.18 6.37 2.15z"/><path d="M936.64 208.93c-3.1 1.5-3.19 3.26-12.94 5.24-9.49 1.93-15.77-5.49-16.11-5.91 12.89 5.45 33.94-1.72 29.05.67z" fill="#f6e0cf"/><path d="M936.68 209c-2.35 1.25-4.44 3-7 3.85a47.65 47.65 0 01-5.79 1.73c-7.91 1.77-14.38-2.37-19.17-8.36l3.22 1.27c4.71 1.83 9.89 1.88 14.9 1.79a119.37 119.37 0 0013.48-.92 3.42 3.42 0 011.11 0c.36.31-.51.55-.71.68zm-.09-.18a3.73 3.73 0 00.65-.39c0 .15.06.1 0 .11a21.4 21.4 0 00-2.81.54c-8.81 2.4-18.52 3.67-27.17-.09l.94-1.26c3.68 4.42 9.68 7.05 15.46 6 1.9-.35 4-.74 5.84-1.27 2.66-.62 4.76-2.28 7.08-3.62z"/><path d="M943.49 226.09c-.11.12-.08.07 0 0z" fill="#f6e0cf"/><path d="M943.58 226.05c.08 0 .15.12.12.24s.06.11.08.18.15.15.08.31a.63.63 0 01-.53.16.76.76 0 01-.51-.26.77.77 0 01-.15-.79.42.42 0 010-.12v-.21c-.16-.29.1-.07.39.17l.35-.15c.16.08.31.35.12.47zm-.18.08c-.19.11-.07.39.09.47l.35-.14c.25.26.5.52.28.27v-.18a.56.56 0 000-.12.77.77 0 00-.15-.79.76.76 0 00-.51-.26.7.7 0 00-.46.1c-.09.07 0 0-.06.06s.08.16.15.25.12 0 .11.14.07.22.16.2z"/><path d="M953.12 170.34c-7.53 5-17.78-2.12-12.35-4.84 2.24-1.68 8.3-2.76 9.5-.3a57 57 0 002.85 5.14z" fill="#f6e0cf"/><path d="M953.22 170.36a10.89 10.89 0 01-13.63-.6c-1.12-1-1.55-3-.35-4.14a10.65 10.65 0 019.53-2.6 3.51 3.51 0 012.12 1.58c.62 1.27 1.77 4.41 2.33 5.76zm-.19 0a21.78 21.78 0 01-3.34-4.48c-1-1.56-3.31-1-5-.83a9.22 9.22 0 00-3.53 1.24 1.81 1.81 0 00-1.15 1.07c0 1.94 2.51 3.16 4.23 3.78a11.05 11.05 0 008.77-.78z"/><path d="M953.12 170.34c-7.53 5-17.78-2.12-12.35-4.84 2.24-1.68 8.3-2.76 9.5-.3a57 57 0 002.85 5.14z" fill="#fff"/><path d="M953.22 170.36a10.89 10.89 0 01-13.63-.6c-1.12-1-1.55-3-.35-4.14a10.65 10.65 0 019.53-2.6 3.51 3.51 0 012.12 1.58c.62 1.27 1.77 4.41 2.33 5.76zm-.19 0a21.78 21.78 0 01-3.34-4.48c-1-1.56-3.31-1-5-.83a9.22 9.22 0 00-3.53 1.24 1.81 1.81 0 00-1.15 1.07c0 1.94 2.51 3.16 4.23 3.78a11.05 11.05 0 008.77-.78z"/><path d="M920.52 672.33v106.76h-39.23c-2.17-4.76-44.07-114.42-44.22-114.57-15.16-44.72-14-84-14-84 36.52 23.75 70.87 70.07 97.45 91.81z" fill="#f2d0b7"/><path d="M920.61 672.29c-.25.47.54 106.83.36 107.25h-.45l-39.23.11h-.37l-.13-.33c-6.67-16.4-15.8-40.49-22.35-57.23-6.06-15.75-15.46-40-21.48-55.47a251.28 251.28 0 01-11.17-43.41 248.21 248.21 0 01-3.64-44.56 200.31 200.31 0 0127.84 22c24 21.68 46.32 50.35 70.62 71.69zm-.18.08c-15.09-12.21-34-33-47.71-47-15.53-15.93-31.53-31.74-50.14-44l1.54-.81a266.77 266.77 0 007.9 63.26c1.63 6.92 3.71 13.72 5.88 20.48l-.21-.34c1 2.22 2.08 5.22 2.95 7.48 4.89 13 14.13 37 19.12 50.21 6.48 16.71 15.46 40.85 22 57.27l-.51-.33 39.23.11c-1.16 2.86.25-106.91-.09-106.27z"/><path d="M1031.41 648c-6.77 27-50 131.1-50 131.1h-60.89V672.33c21.16-18.6 53.59-58.81 108.3-89.67.29.28.49 1.06.83.86 8.2-4.86 5.35 50.3 1.76 64.48z" fill="#f6e0cf"/><path d="M1031.5 648c-3.08 11.3-7.17 22.27-11.18 33.26-8.08 22-16.64 43.74-25.29 65.48-4.39 11-8.79 21.93-13.3 32.86-.3.07-60.88.08-61.21.14h-.66v-.67c0-.42-.27-106.79-.27-107.18 8.79-7.92 17-16.54 25.52-24.88 25-25.1 52.67-48 83.84-65.09a3.6 3.6 0 01.67.88c.06.14.22.3.1.2a.54.54 0 00-.24 0c-.08 0-.13.06 0 0l.3-.15a2.36 2.36 0 01.67-.18c9-.83 3.39 58.46 1.11 65.34zm-.19 0c2.77-12.14 5.73-53.27.44-63.41-.52-.75-1.1-1-1.78-.58a1.14 1.14 0 01-.3.11c-.71.13-1-.73-1.25-1l.68.1a363.9 363.9 0 00-56.9 41.22c-17.9 15.32-33.63 32.78-51.06 48.66.75-3.68-.13 106.8.05 106.05l-.67-.66 60.85.14-.48.32c13.47-32.4 26.86-64.84 39.24-97.68 4-11 8.1-22 11.18-33.24z"/><path d="M985.75 611.89c-20.8 17-41.66 38.07-61.08 56.8-1 1-2.11 2-3.17 3a1 1 0 01-.94.24c-2.79-.95-4.82-3.33-7-5.18-3.38-3.18-6.62-6.51-9.84-9.84-19.25-20.06-38-40.65-58.9-59a203.4 203.4 0 00-22.07-17.22c2.69-10.09 5.42-20.16 8-30.27 6-25 12.38-50.45 12.58-76.33a53.27 53.27 0 00-2.07-15.17c-.33-1.69-.59-3.4-.94-5.09a96.43 96.43 0 00-10.71-28.4 13.37 13.37 0 01-1.71-5.05v.2a100.54 100.54 0 01-6.1-24.87c-1.5-12.83 1.16-25.86 6.27-37.64 3.23-7.81 7.42-15.34 9.33-23.59 1.61-6.47.63-13.18-1.13-19.51-3.38-13-8.1-29.4-11.81-42.28l-1-3.52-.51-1.76-.25-.88-.13-.44a1.42 1.42 0 01-.06-.71.82.82 0 01.19-.23.75.75 0 01.52-.18.81.81 0 01.72.6l-1.39.42a.84.84 0 01.1-.65c.08-.11.08-.09.1-.11a9 9 0 012.28-1c8.47-2.73 18.91-5.57 27.5-8 1-.25 2.72-.75 3.73-1l.28-.07h.23a1 1 0 01.3 0 .8.8 0 01.4.2l-.54-.22a1.29 1.29 0 01.76.58l.16.29.23.46.46.91.91 1.83c9 17.89 18.58 36.83 28 54.42 5.18 9.56 10.41 19.11 16.13 28.33a76.3 76.3 0 007 9.86 57.32 57.32 0 009.35 7.51c4.28 2.8 9.86 4.38 14.19.92 6.28-5 9.73-12.71 13.63-19.63 2.41-4.67 8.91-17.18 11.32-21.71 8.76-16.87 16.6-34.62 28.22-49.82a76.52 76.52 0 015.44-6.23 20.4 20.4 0 012.74-2.34s0 .13-.08.19 0 .09 0 .12v-.08a2 2 0 00-.19-.33c-.49-.71-1.18-1.73-1.69-2.44.36-.7-.87 1.46.79-1.6l.09-.17.48.34c7.47 5.25 19.64 13.68 26.9 19l.89.65.44.34.22.17.11.09a1 1 0 00-.5-.15l.87.52a2.64 2.64 0 01.12.4 1.56 1.56 0 01.05.35 30.38 30.38 0 01-.79 4.75c-1.09 4.69-2.1 9.68-3.08 14.33-3.2 16.85-7.73 41.22-1.51 57.43 1.13 3 2.67 5.86 3.85 9a28.57 28.57 0 011.73 9.89 185.73 185.73 0 01-1.33 19.61c-.38 3.25-.82 6.49-1.4 9.72s-1.08 6.68-3 9.58c-3.68 5.32-9.62 9.09-10.73 15.7-2.08 12.58-4.26 26-3 38.7a108 108 0 004.41 18.92 683 683 0 0123.74 94.82.41.41 0 01-.12.28l-.1.09a1.13 1.13 0 01-.2.13l-.38.24-.78.44-1.55.86c-15.54 8.48-30.06 18.73-44.06 29.55zm-.12-.16c14-10.88 28.46-21.19 44-29.75.81-.45 2.1-1.12 2.85-1.64l.06-.06v.06l-3.8-19.18c-4.07-19.12-8.7-38.14-14.54-56.79-3.72-12.51-8.85-24.67-10.56-37.71-1.4-12.9.73-26.34 2.74-39.08a19 19 0 014.55-8.94c3.13-3.8 7.05-6.69 8-11.64a121.73 121.73 0 002.28-14.37 183.19 183.19 0 001.21-19.41 26.63 26.63 0 00-1.68-9.27c-1.12-3-2.69-5.84-3.89-8.95-4.82-12.5-3.41-26.19-2-39.15 1.25-9.74 3.19-19.36 5.32-28.93.39-2.14 1.57-6.61 1.78-8.83v-.22c0-.07 0 0 0 0a.23.23 0 00.07.1l.87.52a1.1 1.1 0 01-.57-.18h-.07l-.08-.06-.11-.08-.21-.17c-3.74-2.8-9.91-7.13-13.78-9.88l-14.37-10.05.57.17c1.68-3 .47-.83.85-1.49.27.37.82 1.18 1.1 1.56 2.7 3.48-.11 3.46-2.13 5.79a73.1 73.1 0 00-5.3 6.07c-9.94 12.9-16.89 27.76-24.34 42.2-1.83 3.67-5.59 10.91-7.53 14.51-4.65 8.6-10.32 20.75-16 28.62-3.18 4.48-8.07 9.27-14.13 8.34-7-1.23-12.56-6.25-17.58-11-9.36-11.8-15.93-25.54-23.25-38.61-7.46-13.91-15.33-29.4-22.47-43.56-1.87-3.74-5.2-10.39-7.07-14.15l-.06-.12v-.05a.44.44 0 00.52.13l-.53-.22a.74.74 0 00.63.21h.02-.13l-.26.06-.52.14c-4.44 1.13-11.44 3.14-15.89 4.37-4.24 1.27-11.61 3.24-15.75 4.72l-.48.19-.21.09h-.06a.69.69 0 00.17-.69l-1.39.42s0 .07.15.23a.66.66 0 00.51.2.69.69 0 00.67-.56.36.36 0 00.06-.28v.11l.12.44c.14.45.62 2.14.76 2.64 3.29 11.5 7.77 27.16 10.9 38.77.85 3.44 2.45 9.08 3.11 12.47a35 35 0 01-.16 14.76c-2 8.39-6.17 15.93-9.44 23.79-5.06 11.62-7.71 24.37-6.25 37a99.7 99.7 0 006 24.68 12.09 12.09 0 001.59 4.65 98.31 98.31 0 019.6 23.7c.88 3.31 1.47 6.68 2.06 10.05a53.91 53.91 0 012.15 15.58c-.23 26-6.7 51.43-12.85 76.53-2.56 10-5.31 20-8 30l-.14-.37a205.52 205.52 0 0121.87 17.23c20.8 18.5 39.56 39.14 58.78 59.22 3.22 3.34 6.45 6.67 9.82 9.84 2.14 1.87 4.16 4.13 6.84 5.11a.66.66 0 00.66-.16l.64-.59c.85-.78 1.7-1.58 2.53-2.38 19.48-18.85 40.31-39.71 61.18-56.73z"/><path d="M1032.83 580.55a24.17 24.17 0 01-1.42 2.41c-.29.4-.32.88-1 1.22-1.15.51-1.9-.24-1.63-1.45.15-.38 1 0 1.2 0 0-.19-.34-.27-.51-.24s-.13 0-.13 0v-.06a32.58 32.58 0 013.36-2 .11.11 0 01.14.15zM828.38 420.4a3.58 3.58 0 01-1.3.09c-.21 0-.52.09-.62-.15a1.3 1.3 0 01.15-1.17 3 3 0 011-.47c.2 0 .18.26.28.42a7.64 7.64 0 01.58 1.1.14.14 0 01-.09.18z"/><path d="M1032.76 580.47c-38.93-133.58-34.45-101.32-25.69-152.76 3-17.91 12.17-15.43 12.17-53.79 0-33.38-13.62-23.85 4.06-96.47 25.36 17.66 11.2 11.43 23 175.81 1.36 18.93-4 33.81-1.35 47.33 3.54 17.79-12.95 80.33-12.19 79.88z" fill="#f6e0cf"/><path d="M1032.67 580.44c-8-27.22-20.05-66-27.74-93.15a139.4 139.4 0 01-4-19.08c-.66-6.42.31-13.11 1.61-19.42s2.57-12.71 3.67-19.09a54.75 54.75 0 012.28-9.52c2.23-6.12 5.77-11.6 7.34-17.94a69.2 69.2 0 001.8-9.46c1.35-12.77 1.71-25.9-1-38.51a132.15 132.15 0 01-2.65-14.4 90.06 90.06 0 01-.09-14.69c1.39-16.21 5-32.13 8.69-47.92l.27-1.14 1 .68a89 89 0 017.83 5.89c8.11 6.59 8.57 17.77 9.17 27.38.61 11.1.85 27.55 1.22 38.85.82 32.1 2.64 64.86 4.72 96.95.44 6.46 1 13 .5 19.51-.49 10.91-3.09 21.63-2 32.53 1.7 8.44.53 17.1-.6 25.53-2.82 19.19-7.45 38.2-12 57zm.18.07c-.35.08-.16-.11-.22-.09v-.24c.4-2.45 1.39-6.73 1.92-9.22 2-9.3 4.15-19.27 5.82-28.54 1.18-6.36 2.26-12.74 3.1-19.14.84-7.14 1.81-14.43.91-21.59a58 58 0 01-.66-17.09c.55-6.48 1.44-12.89 1.73-19.31s-.14-12.84-.62-19.29c-2.35-32.11-4-64.89-4.85-97-.29-11.18-.5-27.73-1-38.8-.41-6.32-.65-12.9-3-18.81s-8-9.63-13.16-13.25l1.24-.47c-4 17.28-8.29 34.69-9.09 52.47a77.35 77.35 0 00.28 9.62 129.55 129.55 0 002.57 14.28c2.74 12.77 2.34 26 .93 38.92a70.62 70.62 0 01-1.88 9.61c-1.58 6.34-5.2 11.94-7.43 18a54.28 54.28 0 00-2.28 9.35c-1.13 6.4-2.45 12.76-3.77 19.1s-2.31 12.81-1.69 19.17a138.44 138.44 0 003.89 19c8.7 31.21 18.39 62.18 27.24 93.4zM835.08 419.15c.92 1.82 2.77 2.88 4.55 3.78 5.53 2.76 11.73 3.27 17.34 5.95a.1.1 0 010 .19c-6.37.55-12.4-2.18-17.81-5.27-1.71-1.16-3.57-2.53-4.24-4.58a.1.1 0 01.19-.07z"/><path d="M996.68 421.9a43.86 43.86 0 006.59-2.37 13 13 0 016.79-1.93.11.11 0 01.07.19 11.26 11.26 0 01-6.33 3.25 26.63 26.63 0 01-7.09 1.06.1.1 0 010-.2z"/><path d="M831.61 646.08c-1-.8-18.81-10.43-23.34-21.08-4.58-10.82-5.4-43.27 1.35-77.09s4.59-41.92-2.7-64.9c-10.3-32.46-47.63-79.89 16.17-217.73 0 0 14.94 52.74 16.28 60.86 2.93 17.52-12 43.36-3.56 99.17 28 118.84-36.81 124.41-4.2 220.77z" fill="#f6e0cf"/><path d="M831.66 646.16a115.5 115.5 0 01-10.6-6.93c-4.95-3.8-10-8.05-12.74-13.77-2.44-5.82-3-12.27-3.47-18.51a193.79 193.79 0 01.08-25.16q.78-12.57 2.8-25c2.68-16.42 7.2-33 4.95-49.72-1.1-8.28-3.78-16.25-6.3-24.23-5.56-15.81-13-31-16.44-47.53-12.62-58.41 8.72-117.57 32.42-170.36l.91-2c5.8 21.19 12.4 42.18 17.09 63.64a44.58 44.58 0 010 10.39c-1.59 12.63-4.43 25.05-5.44 37.72a214.12 214.12 0 001.86 50.4c27.8 117.84-36.73 124.13-5.12 221.08zm-.11-.16c-9.56-26.19-13.25-55.59-5.65-82.91 4.59-18.15 11.32-35.75 14.11-54.3 4-24.2 1.83-49.05-2.93-73-.49-2.3-1.74-7.92-2.24-10.26a217 217 0 01-2.5-40.82c.29-16.23 3.89-32 6.12-48a55.89 55.89 0 00.29-7.47l-.25-2.44a22.66 22.66 0 00-.43-2.44c-4.7-19.75-10.36-39.33-15.76-58.91l1.52.12c-7 15.19-13.51 30.65-19.09 46.43-8.32 23.65-14.71 48.14-16.8 73.17A163.73 163.73 0 00798.27 459c6.07 15.61 12.76 31.19 15.22 47.91 1.12 8.38.46 16.87-.74 25.16-2.69 16.56-6.47 32.91-7.31 49.71a191.13 191.13 0 00-.19 25.1c.54 6.7 1 13.73 4.06 19.8 4.93 8.08 13.16 13.47 21 18.43l.66.41.33.21a1.23 1.23 0 01.22.23zm112.03-419.95c.08 0 .15.12.12.24s.06.11.08.18.15.15.08.31a.63.63 0 01-.53.16.76.76 0 01-.51-.26.77.77 0 01-.15-.79.42.42 0 010-.12v-.21c-.16-.29.1-.07.39.17l.35-.15c.16.08.31.35.12.47zm-.18.08c-.19.11-.07.39.09.47l.35-.14c.25.26.5.52.28.27v-.18a.56.56 0 000-.12.77.77 0 00-.15-.79.76.76 0 00-.51-.26.7.7 0 00-.46.1c-.09.07 0 0-.06.06s.08.16.15.25.12 0 .11.14.07.22.16.2z"/><path d="M943.49 226.09c-.13-.09 0-8.34 0 0z" fill="#f6e0cf"/><path d="M943.58 226.13c0 .06 0 0 0 0s-.12.08-.17.06a5 5 0 01-.28-1 23.57 23.57 0 01-.41-2.35 1.87 1.87 0 010-.71c-.49.08 1-1 1.44-.2.16.29 0 .11.09.18s0 .28.09.47a3.54 3.54 0 01-.73 3.56zm-.18-.08a3.25 3.25 0 01-.81-3.22 3.23 3.23 0 00.06-.33c0-.12 0 0 .05.14s-.06-.12.09.17c.4.83 1.93-.28 1.43-.2v-.1c0-.02 0 0 0 0-.15 1-.38 2.14-.57 3.12v.23s0 .21-.06.16-.11-.05-.16 0 0-.06 0 0z"/><path d="M979.9 280.21c-43 84.34-41.86 91.79-69.15 73-10.57-7.29-48.32-84.28-53.18-95.88.17-.08 6.13-1.31 6.22-1.4 1.4-.22 2.27-.1 6.59-.1.32 12.23.44 31.71 10.71 36.05 16.88 7.12 11.7 33.81 28.43 9.63 0-.6 5.62-5.95 2.92-17.42-3.83-16.09-12-29.58-15.4-55.69 0-.81-.32-.89.16-.53 14.15 10.55 33.66 10.79 46.23-1.71.33-.02 1.06 94.43 36.47 54.05z" fill="#f6e0cf"/><path d="M980 280.13c-3.5 7.19-9.17 18.4-12.77 25.65-4.26 8.51-8.48 17-12.86 25.5s-8.74 17-14.76 24.47c-9.36 11.6-18.62 4.76-28.51-1.81-3-2-5.06-5.22-7.15-8.1-2.73-3.93-5.21-8-7.65-12.1q-21.64-37.44-39.63-76.8l.63-.26a1.69 1.69 0 01.34-.11l1.38-.31c1.36-.31 3.09-.66 4.44-1 .23-.06-.09 0-.14.13 1.16-.56 2.65-.27 3.81-.34h4c.43 10.2 0 21 4.56 30.31a12 12 0 005.84 5.74l1.2.57a22.12 22.12 0 017.85 6.94 100.11 100.11 0 015.26 8.8c2 3.39 3.64 4.1 6.68 1.26a50.57 50.57 0 006.25-7.75l-.16.54a1.8 1.8 0 01.25-.75 18.4 18.4 0 003.27-12.67c-1-7.77-4.09-15.09-6.63-22.54a170.91 170.91 0 01-9.5-37.69c.06-.16-.15.28.12-.66.64-.72.82-.46 1.13-.47s.3.15.32.15a38.18 38.18 0 0022.67 7.87 31.85 31.85 0 0022.67-9.14l.24-.24a1 1 0 011 .39 2.26 2.26 0 01.2 1.09c0 .39.07 1.7.08 2.13 1 19.43 4.46 85.58 35.57 51.2zm-.11.16c-30.68 35.71-36.3-31.55-37.11-51.29l-.07-1.41v-1.27a.81.81 0 00.14.31c.42.52.8.23 1.23.06-12.39 12.76-33.13 12.54-47 2.24-.21-.2-.53-.32-.69-.51.09.05-.08 0 .33.16.31 0 .48.24 1.11-.46.27-.93.07-.49.13-.64s0-.11 0-.09a2.88 2.88 0 01.09.4c1.37 12.11 5 25.16 9.34 37.05 2.12 6 4.33 12 5.87 18.2s1.24 13.15-2.61 18.42l-.13.21v.05a.33.33 0 000-.24l-.17.54a50.82 50.82 0 01-6.58 8 13 13 0 01-2.24 1.63c-3.16 1.83-5.74-.64-7.19-3.32-1.77-3-3.18-6-5.13-8.71a25.34 25.34 0 00-3.23-3.69 24 24 0 00-6.3-3.91 14.14 14.14 0 01-5.39-5.9c-4.56-9.41-4.22-20.2-4.59-30.32l.73.72c-1.74 0-4.79-.18-6.48.07l.4-.2a1.08 1.08 0 01-.51.24l-.21.06-.4.09c-.8.16-1.61.36-2.35.51s-2.32.48-3 .65l.33-.9c7.75 17.32 16.41 34.34 25.18 51.18 4.42 8.42 9 16.79 13.75 25 2.41 4.09 4.87 8.16 7.55 12.07 2.06 2.85 4 5.89 6.87 7.91 9.51 6.29 18.27 13.36 27.46 2.09 6-7.34 10.34-15.93 14.82-24.26s8.7-16.93 13-25.42c3.64-7.16 9.23-18.31 13-25.32z"/><path d="M857 255.81c9.21 0 9.59-.57.61 1.5a13.73 13.73 0 01-.61-1.5z" fill="#f6e0cf"/><path d="M856.88 255.74c1-.17 2.52-.28 3.53-.41 1.21-.11 2.37-.29 3.67-.31a1.23 1.23 0 01.25 0 .73.73 0 01.44.41.8.8 0 01-.2.9 1.27 1.27 0 01-.44.24l-1.3.43a14.76 14.76 0 01-5.79.88 13 13 0 01-.2-2v-.21zm.15.14c.07-.09.05 0 .08 0a9.21 9.21 0 011 1.2l-.73-.38a15.5 15.5 0 015.86-1.48l.39-.06a.72.72 0 00-.33.37.76.76 0 00.26.89.54.54 0 00.24.1c-2.15-.24-4.68-.23-6.86-.62zm51.41-88.06c-.54 5.84-15.92 6.28-16.23 0 .22-6.84 15.8-6.48 16.23 0zm-.2 0c-.5-3.38-5-3-7.56-3-2.26.22-6.37.31-6.87 3 .12 4.52 14.57 5 14.43 0zM936.68 209c-2.35 1.25-4.44 3-7 3.85a47.65 47.65 0 01-5.79 1.73c-7.91 1.77-14.38-2.37-19.17-8.36l3.22 1.27c4.71 1.83 9.89 1.88 14.9 1.79a119.37 119.37 0 0013.48-.92 3.42 3.42 0 011.11 0c.36.31-.51.55-.71.68zm-.09-.18a3.73 3.73 0 00.65-.39c0 .15.06.1 0 .11a21.4 21.4 0 00-2.81.54c-8.81 2.4-18.52 3.67-27.17-.09l.94-1.26c3.68 4.42 9.68 7.05 15.46 6 1.9-.35 4-.74 5.84-1.27 2.66-.62 4.76-2.28 7.08-3.62zm16.63-38.46a10.89 10.89 0 01-13.63-.6c-1.12-1-1.55-3-.35-4.14a10.65 10.65 0 019.53-2.6 3.51 3.51 0 012.12 1.58c.62 1.27 1.77 4.41 2.33 5.76zm-.19 0a21.78 21.78 0 01-3.34-4.48c-1-1.56-3.31-1-5-.83a9.22 9.22 0 00-3.53 1.24 1.81 1.81 0 00-1.15 1.07c0 1.94 2.51 3.16 4.23 3.78a11.05 11.05 0 008.77-.78z"/><path d="M965.14 178.73c-7.45-5.33-9-3.93-12-8.39-3.5 2.3-12.36 2.23-13.43-1.76-1.06-3.81 5.06-5.39 9.42-4.67 1.1.18-7.4-17.42-16.78-25.55-4.31-4.31-20-13.33-25.34-16.43-34.78 29.29-25.54 36.81-28.82 34.35-2.16-2.16-4.89 2.2-6.37 4.88-8.77 15.83-.66 25.14.8 24.89 26.54 6.38 18.42 37.91 24.34 41.61 0 1.26 26.07 18.3 46.47-1.5.24-.23 21.73-15.3 21.73-28.49-.02-8.12 9.44-12.18-.02-18.94zM895 170.61c-6.7-3.58 3.78-9.41 11-5.81 7.88 5.28-5.64 9.27-11 5.81zm41.67 38.32c-3.09 1.5-3.19 3.26-12.94 5.24-9.49 1.93-15.76-5.49-16.11-5.91 12.87 5.45 33.91-1.71 29.02.67z" fill="#f6e0cf"/><path d="M965.09 178.81a47.25 47.25 0 00-6.32-3.83 12.09 12.09 0 01-5.77-4.58h.14a13.78 13.78 0 01-10.66.9c-2.5-.68-4.28-3.74-2.08-5.78s5.49-2.18 8.34-1.88h.34c.07 0-.11 0-.11.07-1.64-5.05-4.75-9.67-7.62-14.15a56.6 56.6 0 00-9.35-11c-7.65-6.45-16.73-11.13-25.32-16.24h.63c-8.68 7.51-17.38 15.33-23.73 25a24.51 24.51 0 00-3.91 9.53.87.87 0 01-.92.57.68.68 0 01-.28-.07 3.69 3.69 0 01-.77-.49c-1-1-2.08.11-2.84 1-4.31 5.74-7.31 13.36-6 20.58.54 2.49 1.55 5.33 3.67 6.81a.2.2 0 00-.13 0c15.39 3.11 20.77 15.8 22.28 30a68.36 68.36 0 001.5 9.43 4.2 4.2 0 001.25 2.13l.49.88c0-.49-.14-.42-.12-.44 3.25 2.72 7.36 4.35 11.36 5.68 11.86 3.81 24.51 1.61 33.57-7.17 8.45-6.39 19.16-14.93 21.84-25.6.37-2.21.21-4.61 1.12-6.73 2.69-6.24 6.38-9.42-.66-14.59zm.11-.16c9.09 6.4.95 10.54.25 18.16 0 12.07-12.85 23-21.63 30-12.06 12.37-30.5 12.34-44.77 3.83a12.58 12.58 0 01-2.84-2.15 1.43 1.43 0 01-.31-.82l.49.88c-2.13-1.53-2.4-4.27-2.84-6.59s-.55-4.34-.82-6.48c-1.49-14.39-6.52-25.37-20.4-28.58a4.22 4.22 0 01-2.16-1.62c-3.47-4.45-3.78-10.65-2.47-15.93.77-3.57 6.35-17.6 10.9-13.63l.44.31a.38.38 0 00-.1 0 .91.91 0 00-.25 0 .62.62 0 00-.16.1s-.08.1-.08.09c2.06-12.41 18.73-26.52 28.19-34.72l.3-.25.34.2c6.54 3.81 13.09 7.64 19.34 11.92a52.94 52.94 0 0115.3 15.92 75.72 75.72 0 017.31 13.63c.09.28.45 1.23-.16 1.19h-.33c-3-.5-10.33.36-8.76 4.85 2 3.91 9.95 3.33 13.18 1.29a11.81 11.81 0 005.71 4.6 46 46 0 016.34 3.85z"/><path d="M894.92 170.7c-4.28-2.26-1.61-5.63 1.79-6.85a12.69 12.69 0 019.68.29c3.12 1.8 4.26 5 .78 7.15-3.76 2.17-8.68 1.58-12.25-.59zm.1-.18c3.41 1.79 7.85.53 11.07-1 2.58-1.36.79-3-.49-4a11.65 11.65 0 00-8.58-.72c-3.21.78-6.15 3.61-2 5.74zM936.68 209c-2.34 1.25-4.44 3-7 3.85a48.34 48.34 0 01-5.8 1.73c-7.92 1.77-14.38-2.38-19.18-8.37l3.23 1.29c4.7 1.82 9.89 1.87 14.9 1.78a119.37 119.37 0 0013.48-.92 3.67 3.67 0 011.1 0c.39.29-.5.56-.7.68zm-.09-.18a3.39 3.39 0 00.65-.39c0 .16.06.1 0 .11a21.44 21.44 0 00-2.81.55c-8.82 2.4-18.52 3.66-27.17-.1l.94-1.27c3.68 4.43 9.68 7.06 15.46 6 1.9-.35 4-.73 5.84-1.27 2.66-.62 4.76-2.28 7.08-3.62zm16.63-38.46c-3.57 2.5-10.8 3-13.76-.75-1.55-2.18-.25-4.47 1.92-5.48a12.34 12.34 0 017.67-1.18 2.07 2.07 0 011.27.58 10.16 10.16 0 011.26 2.73c.44 1.17 1.24 3 1.64 4.1zm-.19 0a23.39 23.39 0 01-3.8-5.26c-.08-.11-.16-.22-.19-.22-2.68-.22-11.56.43-7.83 4.71 3.16 2.55 8.25 2.37 11.85.75z"/><path d="M908.34 167.82c0 5.37-15.33 5.37-15.33 0s15.33-5.36 15.33 0z" fill="#fff"/><path d="M908.44 167.82c-.54 5.84-15.92 6.28-16.23 0 .22-6.84 15.8-6.48 16.23 0zm-.2 0c-.5-3.38-5-3-7.56-3-2.26.22-6.37.31-6.87 3 .12 4.52 14.57 5 14.43 0zm-.42-13.96a28.75 28.75 0 00-11.82 1.22c-3.79 1.39-7.14 3.17-10.84 4.92a.1.1 0 01-.13-.15c3.67-5.37 10.62-6.91 16.74-7a25.54 25.54 0 016.11.81.1.1 0 010 .19zm28.36 3.85c4.27-2.12 11.08-3.81 15-.28a.11.11 0 01-.07.19 34.8 34.8 0 01-7.45-.49 24.29 24.29 0 00-7.44.76.1.1 0 01-.07-.18z"/><path d="M936.64 208.93c-3.1 1.5-3.19 3.26-12.94 5.24-9.49 1.93-15.77-5.49-16.11-5.91 12.89 5.45 33.94-1.72 29.05.67z" fill="#fff"/><path d="M936.68 209c-2.35 1.25-4.44 3-7 3.85a47.65 47.65 0 01-5.79 1.73c-7.91 1.77-14.38-2.37-19.17-8.36l3.22 1.27c4.71 1.83 9.89 1.88 14.9 1.79a119.37 119.37 0 0013.48-.92 3.42 3.42 0 011.11 0c.36.31-.51.55-.71.68zm-.09-.18a3.73 3.73 0 00.65-.39c0 .15.06.1 0 .11a21.4 21.4 0 00-2.81.54c-8.81 2.4-18.52 3.67-27.17-.09l.94-1.26c3.68 4.42 9.68 7.05 15.46 6 1.9-.35 4-.74 5.84-1.27 2.66-.62 4.76-2.28 7.08-3.62zm-13.86-36.93c-.44 3.61-1 7.2-1.53 10.79s-1.17 7.17-1.43 10.72a13.47 13.47 0 00.35 5c.28 1 1.08 1.18 2 .92 2.46-.73 5.22-1.16 7.47-2.32 1.13-.71.58-2.19.89-3.4a.1.1 0 01.2 0l.32 1.4c.53 1.86-.15 3-1.82 3.85a31.16 31.16 0 01-7.3 2.69c-4.46.44-4.1-5.3-3.65-8.24 1-7.27 3-14.22 4.35-21.39a.1.1 0 01.2 0z"/><path d="M903.05 167.82a2.37 2.37 0 01-4.74 0 2.37 2.37 0 014.74 0z" fill="#000502"/><path d="M903.15 167.82a2.82 2.82 0 11-5.64 0c-.19-4.37 6-4.52 5.64 0zm-.2 0c-.08-1.26-1.32-1.56-2.27-1.35-.8.16-1.45.44-1.57 1.35-.27 2.48 4 2.5 3.84 0z"/><path d="M949.49 167.82a2.37 2.37 0 01-4.73 0 2.37 2.37 0 014.73 0z" fill="#000502"/><path d="M949.59 167.82a2.82 2.82 0 11-5.64 0c-.18-4.37 6-4.52 5.64 0zm-.2 0c-.08-1.26-1.32-1.56-2.27-1.35-.8.16-1.44.44-1.57 1.35-.26 2.48 4 2.5 3.84 0z"/><path d="M996.44 260.57c.11.69-.9.81-2.71 2.62C979 277.92 960.79 311.43 949 270c-3.47-12.54-5.36-32.11-5.53-43.91 6.65-3.32 21.64-18.6 21.64-28.41 0-8.12 9.46-12.18 0-18.94-8.86-6.34-9.58-2.8-14.67-13.11-12.56-25.49-18.85-29.51-43.48-43.69-35.47 29.87-24.3 34.33-28.85 34.33-1-.75-2.68-1.72-6.34 4.9-8.86 12.35-1.36 25.26.8 24.89 17.56 4.22 21.65 20.63 22.22 40 6.35 5.28-2.6.79 13.35 44.09 1.55 4.32 3.94 11 4.54 15.57 1.42 10.19-2.68 14.4-2.68 15-12 19.31-13.51 8.6-19.67-1-8.66-13.49-17-1.86-19.41-32.28-.86-12.41.9-13-11.91-65.7-2-8.13 6-62.21 9.77-70.32s20.37-29.64 31.42-39.23c8.73-7.58 29.75 1.36 46 0s13.52 14.88 31.45 29.75 11.82 33.82 11.6 62.21 5.63 33.82 0 62.21c-.88 4.53 7.19 13.2 7.19 14.21z" fill="#a67c52"/><path d="M996.54 260.56c-7 6.55-12.63 14.52-19.39 21.41-3.39 3.35-7.09 6.93-11.91 8-18.62 3-21.63-51-21.94-63.85V226l.11-.06a36.11 36.11 0 007-5.25 61.29 61.29 0 0011.19-13.52 22.25 22.25 0 003.12-8.09 17.92 17.92 0 012.25-8.55c1.81-3.28 3.35-6.72.08-9.67a35.41 35.41 0 00-9.14-5.92 11.79 11.79 0 01-3.72-2.56c-2.05-2.28-3.27-5-4.63-7.63-11.68-24-20.24-29.51-42.85-42.33h.6A191.29 191.29 0 00890.64 138c-4.74 5.25-9.64 10.88-10.73 18.07-.32.79-1.28.81-2 .81-2.18-2.11-4.67 3.11-5.65 4.63a20.76 20.76 0 00-3 19c.68 1.76 1.55 4 3.19 4.94l-.73-.23a25.87 25.87 0 0119.46 16.23c3.21 7.79 4 16.28 4.28 24.6l-.25-.51 1 .83c2.63 2 2 5.59 2.51 8.4a82.63 82.63 0 001.9 9.52c1.59 6.3 3.63 12.49 5.75 18.66 3 9.23 7.81 18.54 7.35 28.56a19.33 19.33 0 01-2.88 9.27l-.05.09a.25.25 0 000-.17l-.12.41c-3 4.43-9.26 15.9-15.05 8.92-3.86-5.07-5.73-11.69-11.15-15.41-2-1.46-4.41-2.38-6.67-4-3.42-2.5-4.94-6.51-5.91-10.41-2.72-11.44-1.6-23.22-4.08-34.69-2.31-12.57-5.39-25.34-8.37-37.82l-.91-3.76a21.53 21.53 0 01-.74-4c-.12-15.63 2.63-31.08 5-46.47 1.48-7.67 2.39-15.58 5.29-22.9 6.27-11.47 14.73-21.5 23.4-31.2a93.46 93.46 0 018.42-8.23c5.59-4.18 13.08-3.06 19.51-2.37 9 1.14 17.78 3.2 26.81 2.56 11.6-1.21 14.92 8.44 20.11 16.54a58.08 58.08 0 009.74 11.8c1.41 1.17 2.94 2.65 4.33 3.91 8.52 7.86 10.81 19.51 10.48 30.63-.41 15.51-2.2 31-.76 46.49.39 5.15 1.05 10.28 1.44 15.45 1 10.34-.37 20.73-2.23 30.87.26 3.87 3 7.11 5 10.22l1.14 1.57a6.86 6.86 0 011 1.71zm-.2 0a21.36 21.36 0 00-2.12-3.17c-2.14-3.15-4.87-6.39-5.15-10.35 1.81-10.18 3.13-20.48 2.08-30.84-.42-5.14-1.11-10.27-1.52-15.44-1.57-15.49 0-31 .31-46.53 0-14.8-2.84-24.16-14.71-33.6-5.9-5.19-10.17-11.91-14.13-18.61-3.45-5.91-7.4-9.89-14.73-9.06a63.5 63.5 0 01-11.78-.3c-7.72-.79-15.29-2.5-23-2.64-3.68 0-7.53.36-10.43 2.67-.93.79-1.91 1.69-2.8 2.55a180.07 180.07 0 00-15.41 17.24c-4.7 6-9.51 12.2-13 19-2.74 7-3.7 14.93-5.13 22.38-2.34 15.2-5.07 30.59-5 46a21.82 21.82 0 00.69 3.64c.58 2.37 2.11 8.87 2.69 11.33 3.33 15.16 7.46 30.33 8.33 45.91a124.69 124.69 0 001.36 15.34c.85 4.73 1.95 10.19 6 13.2 2 1.42 4.45 2.39 6.63 4a22.29 22.29 0 015.48 5.86c1.45 2.21 2.63 4.54 3.9 6.76 1.1 1.85 2.45 4.55 4.65 4.77 2.22-.14 4.07-2.4 5.49-4.08a62.84 62.84 0 004.38-6.28l-.12.41a1.67 1.67 0 01.21-.64 17.91 17.91 0 002.72-8.65c.43-9.81-4.24-18.79-7.19-28-2.11-6.2-4.15-12.43-5.74-18.8a83.26 83.26 0 01-1.92-9.68c-.55-2.61.24-5.76-2.05-7.57-.22-.17-.94-.84-1.13-1-.28-8.26-1-16.74-4.12-24.44a24.56 24.56 0 00-17.57-15.28c-1.52.15-3.71-3.73-4.31-5.75a22 22 0 013.18-20.09c1.2-2 3.91-7.48 7.16-5l-.35-.12c.26 0 .63 0 .74-.17 1-7.23 6.24-13 11-18.3a193.3 193.3 0 0117.1-15.91c17.53 10.1 29.45 16.52 39.25 35.2 3 5 4.91 10.83 8.55 15.33 2 2.14 5 2.95 7.43 4.53a28.05 28.05 0 015.38 4c3.46 3.23 2 6.88 0 10.41a17.32 17.32 0 00-2.23 8.35c-1.58 9.74-13.32 22.29-21.7 27.14l.11-.18c.08 4.81.36 9.62.78 14.42 1.2 12.65 5.81 62.2 27.1 46.08 5.76-4.39 10.26-10.14 15-15.59 3-3.35 5.75-7.06 9.39-9.76.23-.19.45-.38.39-.65z"/><path d="M878.14 156.26c-.93-.43-2.66-.23-6.34 4.9 3.66-6.62 5.35-5.65 6.34-4.9z" fill="#403434"/><path d="M878.23 156.31a.88.88 0 01-.37 0 2.26 2.26 0 00-1.58.52 18.88 18.88 0 00-3.84 4.8l-1.32-.83c1-2.19 2.08-4.64 4.61-5.51a2 2 0 012.5 1zm-.17-.1c-.17-.06-.17.09-.26.06a1.41 1.41 0 00-.27-.05 1.43 1.43 0 00-1.2.36 29.91 29.91 0 00-2.55 3.15c-.46.57-.88 1.19-1.29 1.81l-1.32-.83a16.9 16.9 0 014.81-4.42 2.47 2.47 0 011.95-.24c.14 0 0 .06.13.16z"/><path d="M879.93 153c-.58 4.12-.66 4.05-1.24 3.6.48.22.78-.34 1.24-3.6z" fill="#403434"/><path d="M880 152.93a13.06 13.06 0 01.1 3.54 1.43 1.43 0 01-.38.88 1.15 1.15 0 01-1.48-.07l.81-1.42a.46.46 0 00-.35 0c-.16 0-.24.13-.25.11a4.29 4.29 0 01.85-2.24c.18-.25.36-.68.7-.77zm0 .2a.46.46 0 00.37.53c.06 0 .06.14.1.21a3.28 3.28 0 01-.52 3.16 1.47 1.47 0 01-.64.43 1.19 1.19 0 01-.84-.06l.81-1.42c0 .06.12.13.1.12-.22-.09-.64 0-.69.23.43-.73.67-1.94 1-2.72a1 1 0 00.28-.48z"/><path d="M894.82 226.06s-.34-11.57-3.12-21.14a74 74 0 013.12 21.14z" fill="#403434"/><path d="M894.82 226.16c-.15-.09-.12-.59-.15-.76a101.45 101.45 0 00-3.73-20.26l1.52-.46c.58 1.72 1.14 3.45 1.59 5.21a43.26 43.26 0 011 15.5c0 .09-.06.41-.08.5s0 .06 0 .13a.35.35 0 01-.11.14zm0-.2c-.08-.1-.12 0-.12-.07s-.06-.39-.08-.5c-1.07-6.75-2-13.61-3.68-20.23l1.53-.46a77.62 77.62 0 011.88 10.63c.33 3.27.53 6.77.57 10.06v.5c0 .1 0 0-.1.07z"/><path d="M932.15 138.21c-4.63-3.75-11.48-8.27-22.29-14.61 10.54 6.13 17.26 10.28 22.29 14.61z" fill="#403434"/><path d="M932.23 138.27a254.73 254.73 0 00-22.77-14l.81-1.38a99 99 0 0117 10.65 31.13 31.13 0 015 4.71zm-.15-.12a10.89 10.89 0 00-1-.56c-.58-.37-1.17-.76-1.76-1.12-6.53-4.17-13.39-7.82-19.82-12.18l.81-1.38A211.31 211.31 0 01929.63 136a19.26 19.26 0 012.45 2.14z"/><path d="M943.67 226s-.17.14-.17.1z" fill="#403434"/><path d="M943.75 225.9c.09.06 0 .16 0 .19.09.21.25.48 0 .67a.78.78 0 01-1.08-.69l.44-.73c.13-.86 1.49-.1.61.56zm-.16.12c-.46.36-.45.75-.23 1s.56.13.5-.2l.45-.73a.79.79 0 00-.72-.74c-.27 0-.36.05-.38.18s.23.25.35.36-.06.12 0 .17z"/><path d="M953.12 170.34c-4.81-7-7.06-12.89-11.38-20.89 4.44 6.95 8.68 16.69 11.38 20.89z" fill="#403434"/><path d="M953.18 170.42c-5-6.2-8.15-13.75-12.14-20.59l1.38-.81c4.72 6.5 7.77 14 10.76 21.4zm-.11-.16a24.63 24.63 0 01-3.46-4.8c-3.05-5.08-5.77-10.37-8.54-15.58l1.38-.81c3.54 7.1 6.56 14.37 10.62 21.19z"/><path d="M898.08 235.08a9 9 0 01-.22-1.52c.07.51.14 1.02.22 1.52z" fill="#403434"/><path d="M898.1 235.18c-.11 0-.13-.12-.19-.17s-.34-.45-.46-.6c-.23-.39-.57-.84-.26-1.28a.85.85 0 011-.29l.44.61a1.24 1.24 0 01.12 1.46c-.27.45-.62.56-.68.27zm0-.2c-.14-.8-.56-1.19-.91-1.25s-.4.12-.09-.06l.44.61a.82.82 0 001-.28c.07-.1.14-.31.1-.38a3.36 3.36 0 00-.19.61c-.06.19-.15.54-.21.73s-.09 0-.1 0z"/><path d="M876.36 288.34c-6.56-7.11-6.08-32.53-6-32.53.25 8.92.79 26.06 6 32.53z" fill="#403434"/><path d="M876.43 288.42c-5.93-5.79-6.81-24.15-6.86-32.38a1 1 0 01.33-.84c.34-.29.87-.19 1.24-.26.57 9.23.87 18.6 3 27.62a26.64 26.64 0 002.3 5.86zm-.13-.16a14.12 14.12 0 01-3.27-5.33c-3.3-8.62-3.41-18-3.45-27.1l.8.78a.75.75 0 00.79-.67c0 .5-.06 1.41-.07 1.92a120.61 120.61 0 00.62 14.6c.63 5.44 1.43 11.14 4.58 15.75z"/><path d="M891.45 301.69a21.56 21.56 0 00-10.28-9.8c4.55 2.11 7.31 3.86 10.28 9.8z" fill="#403434"/><path d="M891.5 301.78c-2.63-3.89-6.16-7.51-10.64-9.16l.65-1.45c2.3.95 4.74 2 6.5 3.85a13.51 13.51 0 013.49 6.76zm-.09-.18c-.41-.63-.76-.61-1.21-1.29a26.87 26.87 0 00-9.36-7.7l.65-1.45a21.18 21.18 0 019.24 8.85 6.69 6.69 0 01.68 1.59z"/><path d="M908 269.55c-5.88-15.4-7.5-20.25-.44-1.22.09.41.24.82.44 1.22z" fill="#403434"/><path d="M908 269.64a27.66 27.66 0 01-1.62-3.38c-1.36-3.07-3-6.93-4.26-10v-.1c-.92-.07 1.65-1.51 1.4-.71l.09.13a53 53 0 013.8 10.34 17.71 17.71 0 01.63 3.75zm-.07-.18c-.29-.68-.69-.75-1-1.46a53.93 53.93 0 01-4.64-11.35l-.13-.37v.05l.07.11c-.25.81 2.32-.63 1.4-.69 0 .07.09.28.11.37 1 3 2.27 6.91 3.22 9.94l.55 1.74a7.26 7.26 0 01.42 1.68z"/><path d="M912.13 282.66a120.74 120.74 0 00-4-12.51 103.56 103.56 0 014 12.51z" fill="#403434"/><path d="M912.16 282.76a9.15 9.15 0 01-.63-1.64c-1.21-3.62-2.69-7.16-4.11-10.7l1.5-.55a30.38 30.38 0 013.27 11.13 6.85 6.85 0 010 1.81zm0-.2c-.08-.32-.32-.37-.45-.63-.8-1.69-1.58-3.55-2.26-5.27a41.43 41.43 0 01-2-6.23l1.51-.55c1.15 3.65 2.23 7.38 3 11.13a5.67 5.67 0 01.17 1.55z"/><path d="M910 300.69c-.4.68-.51.77-.51.8-1.2 1.78.02.05.51-.8z" fill="#403434"/><path d="M910.09 300.6c.07.1 0 .28 0 .4s-.08.46-.13.65v.08s0 .06.08-.22v-.14a10.93 10.93 0 01-.31 1.12l-.06.2v-.05a.76.76 0 00.1-.38c.32-.35-1.06-1.15-1.15-.73a.87.87 0 00-.31.25s.08-.4.1-.46c.07-.41.52-.58.91-.65.1 0 .14 0 .3-.07s.4-.14.44 0zm-.11.18c-.09.16.1.34.25.3s.07.16.11.23c.08.4.09.89-.26 1.12l-.33.21c-.2.15-.11.18-.41.34-.09.41-1.46-.39-1.15-.73a.72.72 0 01.06-.29c0-.14.17-.22.27-.3a6.55 6.55 0 01.59-.45l-.09.28c.05-.3.1-.29.2-.36a3.28 3.28 0 00.31-.2c.05 0 .28-.21.3-.19s.1.08.15 0z"/><path d="M910 300.68a21.29 21.29 0 002.9-13.08 20.27 20.27 0 01-2.9 13.08z" fill="#403434"/><path d="M910 300.77a14.41 14.41 0 01.69-1.67 22.26 22.26 0 001.47-11.44l1.59-.13c1 4.55-.19 10.05-3.75 13.24zm.11-.18a1.89 1.89 0 00.13-.8c.24-.79.51-1.62.72-2.41a42 42 0 001.2-9.71l1.59-.13c.15 4.55-.76 9.45-3.64 13z"/><path d="M962.3 289.74c-9.07-1.46-13.13-17.62-14.92-26.59 1.86 8.91 6.04 24.46 14.92 26.59z" fill="#403434"/><path d="M962.4 289.76c-9.85-1.15-13.92-18.33-15.8-26.45l1.57-.32c.59 2.57 1.27 5.11 2.06 7.61 1.59 4.9 3.28 10 6.24 14.19a14 14 0 005.93 5zm-.19 0a14.06 14.06 0 01-1.89-.41 12.92 12.92 0 01-4.26-2.87c-5.86-6.28-7.88-14.94-9.46-23.13l1.57-.32c1.71 8.5 4.57 24 14 26.73z"/><path d="M996.69 261.22c-2.19.31-6.94 7.16-12.76 14.08a82.29 82.29 0 019.8-12.11c1.81-1.81 2.82-1.93 2.71-2.62a2.27 2.27 0 01.25.65z" fill="#403434"/><path d="M996.77 261.28c-1.54.58-2.46 1.94-3.52 3.12-3 3.74-5.73 7.65-8.72 11.4l-1.25-.94a48.8 48.8 0 019.2-11.48 14.65 14.65 0 013-2.19c.36-.21.7-.35.7-.59v-1.24c.15.53.65 1.38.56 1.92zm-.16-.12c-.05.07 0 0-.05 0a1.13 1.13 0 00-.12-.21 1.73 1.73 0 00-.19-.28l.41-.13c.15.54-.35.95-.67 1.26a67.46 67.46 0 00-5.44 6.37c-2 2.51-4.09 4.95-6 7.57l-1.25-.94c3.2-3.55 6.17-7.33 9.49-10.79 1.11-1.05 2.26-2.49 3.79-2.85z"/></svg>