<svg xmlns="http://www.w3.org/2000/svg" viewBox="0 0 1400 780"><path fill="#e6e6e6" stroke="#000" stroke-linecap="round" stroke-miterlimit="10" d="M0 0h1400v779.09H0z"/><path d="M531.37 456.75c-2.51 33.21-3.89 70.67-1.84 70.92 7.79 26.85 4.41 78.56 1.41 129.45l2.79 17.56c-12.67 5.8-23.1 12.93-29.05 22.72-1.5 2.06-13.25 4.09-16.45 4.47-6.69.82-8.27-17.72-3.5-19.62 8.82-.48 17.54-12.76 26.25-25.48-11.5-51.13-19.45-96.31-14.7-120.15-8.21-28.33-14.56-55.07-18.64-79.87zm40.51 240.65c-5.94-9.79-16.37-16.92-29-22.72l2.8-17.56c-3-50.89-6.38-102.6 1.4-129.45 2.06-.25.68-37.71-1.84-70.92h53.74c-4.09 24.8-10.44 51.54-18.65 79.87 4.76 23.84-3.2 69-14.69 120.15 8.71 12.72 17.42 25 26.24 25.48 4.78 1.9 3.18 20.44-3.49 19.62-3.26-.38-15-2.41-16.51-4.47z" fill="#eecdb4"/><path d="M537.7 377.57c6.42 0 59.4-24 59.4-24 6.64 28.65 8.46 63 1.83 103.21H477.64c-6.68-40.46-4.43-74.3 2.28-103.17 0-.03 51.36 23.96 57.78 23.96z" fill="#3b4b99"/><path d="M449 429.21c-5-20-8.16-38.77-7.46-55.09 1.54-10.9 3.28-21.31 5.3-31.07 0 0 18.32 5.94 20 5.83Q465 354.1 463 359.25c-2 5.46-4.15 10.87-6.29 16.25l4.2 24.45c2.7 8 2.91 12.48-1.4 10.67l3.15 3.78c2.06 2.48 1.63 4 .34 5.17 1 3.41.2 5.14-2.09 5.51-1.86 4.84-4.3 5.38-7.35 1.37-.56 3.13-2.23 3.65-4.56 2.76zm43.13-117.02c29.77-5.82 64.22-4.81 92.94.9q.67 3.93 1.52 7.66a204.46 204.46 0 0110.51 32.79c-42.37 12-72.65 13.35-117.18 0A249.44 249.44 0 01490 320.75a77 77 0 002.13-8.56zM635 374.12c.7 16.32-2.44 35.09-7.47 55.09-2.3.89-4 .37-4.55-2.76-3 4-5.49 3.47-7.35-1.37-2.29-.37-3.12-2.1-2.1-5.51-1.28-1.19-1.71-2.69.35-5.17l3.15-3.78c-4.31 1.81-4.11-2.68-1.4-10.67l4.2-24.45q-3.21-8.07-6.3-16.25-1.75-4.65-3.44-9.35c.28.78 19.89-5.43 19.89-5.43 1.91 9.35 3.56 19.28 5.02 29.65z" fill="#eecdb4"/><path d="M618.2 303c4.78 11.79 8.63 25.83 11.8 41.5 0 0-19.61 6.21-19.89 5.43A416.76 416.76 0 01596 302.51q-5.56-27.67-5.83-61.51c-7.83 32.94-8.13 54.23-5.13 72.09 0 0-38.15-22.62-46.78-22.62s-46.16 21.72-46.16 21.72c3.24-16.88 1.9-39.19-5.73-71.19q-.31 33.78-5.85 61.51a408 408 0 01-13.7 46.37c-1.64.11-20-5.83-20-5.83q1.54-7.55 3.33-14.56a198.2 198.2 0 018.21-25.49c-3.53-39.83-1.74-75.67 14-101l26.15-8.27 39.8 15.58 39.78-15.58 26.14 8.27c15.71 25.3 17.51 61.14 13.97 101z" fill="#3b4b99"/><path d="M538.29 78.09c29.93 1.69 44.28 18.71 41.42 51-1 11.12-3.62 20.21-7.47 27.08l-1.15-6-6.85 17.44-1.1-4.82-8 18.06-.16-.63a78.84 78.84 0 01-2-12.66c13-8.23 17.28-21.84 18.12-37.59.28-5.19-2.64-9.65-9.1-13.32v10.79l-9.1-11.7 3 9.86-14-10.78 2.1 11.47-5.71-12.39-5.72 12.39 2.1-11.47-14 10.78 3-9.86-9.1 11.7v-10.79c-6.46 3.67-9.38 8.13-9.1 13.32.85 15.75 5.16 29.36 18.12 37.59a79.64 79.64 0 01-2 12.69l-.15.6-8-18.06-1.1 4.82-6.84-17.44-1.16 6c-3.84-6.87-6.47-16-7.47-27.08-2.87-32.29 11.49-49.31 41.42-51z"/><path d="M597.1 353.54s-53 24-59.4 24-57.78-24-57.78-24c44.53 13.35 74.81 12.01 117.18 0z" fill="#fff"/><path d="M562 116.65c6.46 3.67 9.38 8.13 9.1 13.32-.84 15.75-5.16 29.36-18.12 37.59 0-.31-.06-.61-.08-.92-4.43 4-9.26 6.61-14.58 7.34-5.34-.73-10.16-3.31-14.59-7.34 0 .31-.06.61-.08.92-13-8.23-17.27-21.84-18.12-37.59-.28-5.19 2.64-9.65 9.1-13.32v10.79l9.1-11.7-3 9.86 14-10.78-2.1 11.47 5.72-12.39 5.65 12.39-2.09-11.47 14 10.78-3-9.86 9.1 11.7zm-15 18.13q8 6 16 0c-6-3.9-11.27-3.43-16 0zm-17.5 0c-4.7-3.43-9.94-3.9-16 0q8.04 5.97 16.04 0z" fill="#eecdb4"/><path d="M538.29 290.47c8.63 0 46.78 22.62 46.78 22.62-28.72-5.71-63.17-6.72-92.94-.9 0 0 37.52-21.72 46.16-21.72z" fill="#fff"/><path d="M555.12 180.85c2.26 8.38 6 12 11.29 10.11a84.3 84.3 0 01-56.25 0c5.32 1.88 9-1.73 11.3-10.11l.15.35a82.51 82.51 0 002.09-13.59c4.43 4 9.26 6.61 14.59 7.34 5.33-.73 10.15-3.31 14.58-7.34a83 83 0 002.13 13.61z" fill="#eecdb4"/><path d="M563 134.78q-8 6-16 0c4.73-3.43 10-3.9 16 0zm-6.53.11a1.81 1.81 0 10-1.81 1.79 1.79 1.79 0 001.84-1.79z" fill="#fff"/><path d="M554.69 133.12a1.78 1.78 0 11-1.81 1.77 1.79 1.79 0 011.81-1.77zm.43.84a.29.29 0 00-.29-.3.3.3 0 00-.3.3.3.3 0 00.3.28.29.29 0 00.29-.24z" fill="#553e37"/><path d="M554.83 133.66a.29.29 0 01.29.3.29.29 0 01-.29.28.3.3 0 01-.3-.28.3.3 0 01.3-.3zm-41.27 1.12c6-3.9 11.28-3.43 16 0q-8.01 5.97-16 0zm10.14.11a1.81 1.81 0 10-1.81 1.79 1.79 1.79 0 001.81-1.79z" fill="#fff"/><path d="M521.89 133.12a1.78 1.78 0 11-1.81 1.77 1.79 1.79 0 011.81-1.77zm.16.84a.3.3 0 00-.3-.3.29.29 0 00-.29.3.29.29 0 00.29.28.3.3 0 00.3-.24z" fill="#553e37"/><path d="M545.19 456.75c2.52 33.21 3.9 70.67 1.84 70.92-7.78 26.85-4.41 78.56-1.4 129.45l-2.8 17.56c12.68 5.8 23.11 12.93 29 22.72 1.51 2.06 13.25 4.09 16.46 4.47 6.67.82 8.27-17.72 3.49-19.62-8.82-.48-17.53-12.76-26.24-25.48 11.49-51.13 19.45-96.31 14.69-120.15 8.21-28.33 14.56-55.07 18.65-79.87m.35 0h-.3" fill="none" stroke="#000" stroke-linecap="round" stroke-linejoin="round" stroke-width="1.1"/><path d="M566.41 191l11.66 2.76 26.16 8.24c15.71 25.31 17.51 61.15 14 101 4.78 11.79 8.63 25.83 11.8 41.5 1.89 9.35 3.54 19.28 5 29.65.7 16.32-2.44 35.09-7.47 55.09-2.3.89-4 .37-4.55-2.76-3 4-5.49 3.47-7.35-1.37-2.29-.37-3.12-2.1-2.1-5.51-1.28-1.19-1.71-2.69.35-5.17l3.15-3.78c-4.31 1.81-4.11-2.68-1.4-10.67l4.2-24.45q-3.21-8.07-6.3-16.25-1.75-4.65-3.44-9.35A416.76 416.76 0 01596 302.51q-5.56-27.67-5.83-61.51c-7.83 32.94-8.13 54.23-5.13 72.09q.67 3.93 1.52 7.66a204.46 204.46 0 0110.51 32.79c6.64 28.65 8.46 63 1.83 103.21h-13M463 359.25q2-5.14 3.8-10.37a408 408 0 0013.7-46.37q5.58-27.67 5.85-61.51c7.62 32 9 54.31 5.76 71.19a77 77 0 01-2.15 8.56 249.44 249.44 0 00-10.06 32.83c-6.71 28.87-9 62.71-2.28 103.17h108.26" fill="none" stroke="#000" stroke-linecap="round" stroke-linejoin="round" stroke-width="1.1"/><path d="M510.16 191l-11.67 2.76-26.15 8.24c-15.72 25.31-17.51 61.15-14 101a198.2 198.2 0 00-8.17 25.52m16.65 20.36c-1.64.11-20-5.83-20-5.83m89.13 8.35h3.5M623 426.45s4.79-10.32 5-13.19m-12.36 11.82s7.35-8 8.05-11.13m-10.15 5.62a19.47 19.47 0 006.13-5.62m-2.67-3.33s8.4-5.4 9.33-15.26M521.46 180.85c-2.28 8.38-6 12-11.3 10.11a84.3 84.3 0 0056.25 0c-5.34 1.88-9-1.73-11.29-10.11m-.16-.63l-.02.03m55.17 169.65c.28.78 19.89-5.43 19.89-5.43m-70.71 185.96s7.15 9.63 13.38 3.09m-95.03-76.77c4.08 24.8 10.43 51.54 18.64 79.87-4.75 23.84 3.2 69 14.7 120.15-8.71 12.72-17.43 25-26.25 25.48-4.77 1.9-3.19 20.44 3.5 19.62 3.2-.38 14.95-2.41 16.45-4.47 5.95-9.79 16.38-16.92 29.05-22.72l-2.79-17.56c3-50.89 6.38-102.6-1.41-129.45-2-.25-.67-37.71 1.84-70.92" fill="none" stroke="#000" stroke-linecap="round" stroke-linejoin="round" stroke-width="1.1"/><path d="M463 359.25c-2 5.46-4.15 10.87-6.29 16.25l4.2 24.45c2.7 8 2.91 12.48-1.4 10.67l3.15 3.78c2.06 2.48 1.63 4 .34 5.17 1 3.41.2 5.14-2.09 5.51-1.86 4.84-4.3 5.38-7.35 1.37-.57 3.13-2.25 3.65-4.56 2.76-5-20-8.16-38.77-7.46-55.09 1.54-10.9 3.28-21.31 5.3-31.07q1.54-7.55 3.33-14.56m3.41 97.96s-4.79-10.32-5-13.19m12.35 11.82s-7.35-8-8.05-11.13m10.12 5.62a19.5 19.5 0 01-6.1-5.57m2.63-3.38s-8.4-5.4-9.33-15.26m67.08 135.07s-7.15 9.63-13.38 3.09m81.17-220.43s-38.15-22.62-46.78-22.62-46.16 21.72-46.16 21.72c29.77-5.82 64.22-4.81 92.94.9zm12.03 40.45s-53 24-59.4 24-57.78-24-57.78-24c44.53 13.35 74.81 12.01 117.18 0zm-73.4-185.93c4.43 4 9.26 6.61 14.59 7.34 5.33-.73 10.15-3.31 14.58-7.34" fill="none" stroke="#000" stroke-linecap="round" stroke-linejoin="round" stroke-width="1.1"/><path d="M521.46 180.85l-8-18.06-1.1 4.82-6.84-17.44-1.16 6c-3.84-6.87-6.47-16-7.47-27.08-2.87-32.25 11.5-49.27 41.43-51 29.93 1.69 44.28 18.71 41.42 51-1 11.12-3.62 20.21-7.47 27.08l-1.15-6-6.85 17.44-1.1-4.82-8 18.06-.16.37a83 83 0 01-2.09-13.61l.08-.05c13-8.23 17.28-21.84 18.12-37.59.28-5.19-2.64-9.65-9.1-13.32v10.79l-9.1-11.7 3 9.86-14-10.78 2.08 11.47-5.71-12.39-5.72 12.39 2.1-11.47-14 10.78 3-9.86-9.1 11.7v-10.79c-6.46 3.67-9.38 8.13-9.1 13.32.85 15.75 5.16 29.36 18.12 37.59l.08.05a82.51 82.51 0 01-2.09 13.59z" fill="none" stroke="#000" stroke-linecap="round" stroke-linejoin="round" stroke-width="1.1"/><path d="M547 134.78c4.69-3.43 9.93-3.9 16 0q-8 5.97-16 0z" fill="none" stroke="#000" stroke-linecap="round" stroke-linejoin="round" stroke-width="1.1"/><path d="M556.5 134.89a1.81 1.81 0 11-1.81-1.77 1.81 1.81 0 011.81 1.77zm-18.21 13.81h3.81m-3.81 10.3s5.07.34 7.43-1.72m-7.43 5.53h2.8m-27.53-28.03c6-3.9 11.28-3.43 16 0q-8.01 5.97-16 0z" fill="none" stroke="#000" stroke-linecap="round" stroke-linejoin="round" stroke-width="1.1"/><path d="M520.08 134.89a1.81 1.81 0 101.81-1.77 1.81 1.81 0 00-1.81 1.77zm18.21 13.81h-3.81m3.81 10.3s-5.07.34-7.44-1.72m7.44 5.53h-2.8m9.68-31.47c8.43-2.44 15.77-3.41 20.66-1.15m-34.98 1.15c-8.44-2.44-15.76-3.41-20.65-1.15" fill="none" stroke="#000" stroke-linecap="round" stroke-linejoin="round" stroke-width="1.1"/><path fill="none" stroke="#000" stroke-linecap="round" stroke-linejoin="round" stroke-width=".5" d="M498.49 193.72l39.79 15.58 39.79-15.58"/><path d="M939.06 425.57c-2.28-.39-3.11-2.1-2.09-5.52-1.29-1.18-1.72-2.69.34-5.16l3.15-3.79c-4.31 1.82-4.1-2.68-1.4-10.67l4.21-24.43c-9.2-23.09-18.15-46.69-23.8-73-4-18.39-5.63-39-5.84-61.51-7.19-4.5-11.21-20.32-12.13-47.27 0 0 21.86 4.59 26.15 8.25s17.51 61.15 14 101c7.63 18.83 12.88 43.4 16.8 71.15.69 16.32-2.44 35.09-7.47 55.08-2.31.9-4 .38-4.56-2.75-3.06 4.05-5.49 3.46-7.36-1.38z" fill="#eecdb4"/><path d="M910 321.24c16.7 28.11 20.79 67 15.42 114-3.48 30.74-11 64.95-21.71 101.86 2.69 13.53 1.29 33.93-2.52 58.4-2.9 18.64-7.22 39.64-12.19 61.75 8.71 12.72 17.43 25 26.26 25.48 4.77 1.89 3.18 20.44-3.51 19.62-3.2-.38-14.94-2.41-16.45-4.47-5.95-9.79-16.38-16.92-29-22.72l2.8-17.56c-1.76-29.72-3.64-59.71-3.34-84.88 0-2.31.07-4.57.13-6.8.45-15 1.8-28 4.61-37.77.75-.09 1-5 1-12.9 0-6.47-.3-14.9-.74-24.22-1.68-35.42-5.79-83.53-9-84.06v-.26c1.47-5.25 48.24-85.47 48.24-85.47z" fill="#eecdb4"/><path d="M901.5 194.21c.92 26.95 4.94 42.77 12.13 47.27-9 37.77-13.82 69.57-3.62 79.76 0 0-46.78 80.22-48.3 85.48a6.59 6.59 0 00-.27-.7c-.1-.23-.22-.49-.37-.8s-.31-.64-.49-1-.54-1.07-.86-1.68c-.15-.32-.33-.63-.51-1s-.35-.69-.55-1.05c-.48-.9-1-1.89-1.6-2.95-7.61-14-22.91-40.56-33.22-58.35-.15-.27-.31-.53-.46-.81-.31-.52-.61-1-.91-1.56-.74-1.28-1.46-2.51-2.13-3.68-.28-.46-.53-.92-.8-1.36l-.75-1.3-.71-1.22-4.68-8c10.2-10.19 5.38-42-3.61-79.76 7.21-4.5 11.21-20.34 12.14-47.29l11.66-2.76c2.4 21.6 10.89 36.23 28.12 40.86 17.22-4.63 25.72-19.26 28.12-40.86zm-39.79-116.6c29.94 1.69 44.28 18.71 41.42 51-1 11.12-3.61 20.21-7.47 27.08l-1.14-6-6.85 17.44-1.11-4.82-8.18 18.43a83 83 0 01-2.09-13.61c13-8.23 17.36-21.86 18.2-37.65.28-5.18-2.63-9.64-9.1-13.31V127l-9.1-11.7 3 9.86-14-10.78 2.1 11.47-5.72-12.4-5.67 12.36 2.1-11.47-14 10.78 3-9.86L838 127v-10.83c-6.46 3.67-9.38 8.13-9.1 13.31.85 15.79 5.19 29.42 18.2 37.65a82.3 82.3 0 01-2.1 13.58l-8.18-18.4-1.11 4.82-6.84-17.44-1.15 6c-3.85-6.87-6.48-16-7.48-27.08-2.84-32.29 11.54-49.31 41.47-51z"/><path d="M885.39 116.17c6.47 3.67 9.38 8.13 9.1 13.31-.84 15.79-5.18 29.42-18.2 37.65-4.43 4-9.25 6.61-14.58 7.34-5.32-.73-10.16-3.31-14.59-7.34-13-8.23-17.35-21.86-18.2-37.65-.28-5.18 2.64-9.64 9.1-13.31V127l9.1-11.7-3 9.86 14-10.78-2.12 11.43 5.72-12.4 5.72 12.4-2.1-11.47 14 10.78-3-9.86 9.1 11.7zm-14.93 18.13q8 6 16 0c-6.07-3.9-11.31-3.43-16 0zm-17.5 0c-4.7-3.43-9.94-3.9-16 0q8.04 5.97 16.04 0z" fill="#eecdb4"/><path d="M845 180.71a82.3 82.3 0 002.08-13.58c4.43 4 9.27 6.61 14.59 7.34 5.33-.73 10.15-3.31 14.58-7.34a83 83 0 002.09 13.61c2.26 8.8 6 12.63 11.45 10.71-2.4 21.6-10.9 36.23-28.12 40.86-17.23-4.63-25.72-19.26-28.12-40.86 5.5 1.92 9.24-1.92 11.45-10.74z" fill="#eecdb4"/><path d="M886.45 134.3q-8 6-16 0c4.7-3.43 9.94-3.9 16 0zm-6.53.11a1.81 1.81 0 10-1.81 1.78 1.79 1.79 0 001.81-1.78z" fill="#fff"/><path d="M878.11 132.64a1.78 1.78 0 11-1.81 1.77 1.79 1.79 0 011.81-1.77zm.43.82a.29.29 0 00-.3-.28.29.29 0 00-.28.28.29.29 0 00.28.3.29.29 0 00.3-.3z" fill="#553e37"/><path d="M878.24 133.18a.29.29 0 01.3.28.29.29 0 01-.3.3.29.29 0 01-.28-.3.29.29 0 01.28-.28z" fill="#fff"/><path d="M861.71 406.72c-.05.15-.05.25 0 .26-3.21.53-7.33 48.63-9 84.06-.45 9.32-.71 17.75-.75 24.22 0 7.86.25 12.81 1 12.9 2.82 9.73 4.17 22.73 4.61 37.77.07 2.23.11 4.49.14 6.8.29 25.17-1.59 55.16-3.35 84.88l2.8 17.56c-12.68 5.8-23.11 12.93-29 22.72-1.51 2.06-13.25 4.09-16.46 4.47-6.67.82-8.27-17.73-3.49-19.62 8.82-.48 17.53-12.76 26.25-25.48-5-22.11-9.28-43.11-12.19-61.75-3.82-24.47-5.21-44.87-2.51-58.4C809 500.2 801.47 466 798 435.25c-5.35-47-1.27-85.9 15.42-114l4.68 8 .71 1.22.75 1.3c.26.44.52.9.8 1.36.67 1.17 1.39 2.4 2.13 3.68.3.52.6 1 .91 1.56.15.28.31.54.46.81 10.3 17.79 25.59 44.34 33.22 58.35l1.6 2.95c.19.36.38.71.55 1.05s.35.65.51 1c.32.61.61 1.18.86 1.68s.35.71.49 1 .27.57.37.8a6.59 6.59 0 01.25.71zm-.64-1.5z" fill="#eecdb4"/><path d="M860.58 404.21c.18.37.35.71.49 1-.14-.29-.31-.63-.49-1zm-1.37-2.65c.18.34.36.65.51 1-.16-.35-.33-.66-.51-1zm-.55-1.05c.2.36.38.71.55 1.05-.21-.34-.36-.69-.55-1.05zm-1.6-2.95c.59 1.06 1.12 2.05 1.6 2.95z" fill="#eecdb4"/><path d="M837 134.3c6-3.9 11.28-3.43 16 0q-8 5.97-16 0zm10.14.11a1.81 1.81 0 10-1.82 1.78 1.79 1.79 0 001.8-1.78z" fill="#fff"/><path d="M845.3 132.64a1.78 1.78 0 11-1.8 1.77 1.79 1.79 0 011.8-1.77zm.16.82a.28.28 0 00-.29-.28.29.29 0 00-.29.28.29.29 0 00.29.3.29.29 0 00.29-.3z" fill="#553e37"/><path d="M845.17 133.18a.28.28 0 01.29.28.29.29 0 01-.29.3.29.29 0 01-.29-.3.29.29 0 01.29-.28z" fill="#fff"/><path d="M823.84 339.21c10.31 17.79 25.61 44.34 33.22 58.35-7.63-14.01-22.92-40.56-33.22-58.35zm-1.37-2.37c.3.52.6 1 .91 1.56-.31-.52-.61-1.04-.91-1.56zm-2.93-5.04c.27.44.52.9.8 1.36-.28-.46-.54-.92-.8-1.36zM783 411.1l3.15 3.79c2.07 2.47 1.63 4 .36 5.16 1 3.42.18 5.13-2.11 5.52-1.86 4.84-4.3 5.38-7.35 1.37-.56 3.13-2.25 3.65-4.54 2.75-5-20-8.17-38.76-7.47-55.08 3.92-27.75 9.16-52.32 16.8-71.15-3.54-39.85 7.35-96.18 14-101s26.16-8.25 26.16-8.25c-1 26.95-5 42.79-12.21 47.27C809.58 264 807.9 284.6 804 303c-5.66 26.3-14.61 49.9-23.81 73l4.2 24.45c2.67 7.97 2.87 12.47-1.39 10.65zm35.08-81.82l.71 1.22z" fill="#eecdb4"/><path d="M910 321.24c16.7 28.11 20.79 67 15.42 114-3.48 30.74-11 64.95-21.71 101.86 2.69 13.53 1.29 33.93-2.52 58.4-2.9 18.64-7.22 39.64-12.19 61.75 8.71 12.72 17.43 25 26.26 25.48 4.77 1.89 3.18 20.44-3.51 19.62-3.2-.38-14.94-2.41-16.45-4.47-5.95-9.79-16.38-16.92-29-22.72l2.8-17.56c-1.76-29.72-3.64-59.71-3.34-84.88 0-2.31.07-4.57.13-6.8.45-15 1.8-28 4.61-37.77.75-.09 1-5 1-12.9 0-6.47-.3-14.9-.74-24.22-1.68-35.42-5.79-83.53-9-84.06-.05 0-.05-.11 0-.26" fill="none" stroke="#000" stroke-linecap="round" stroke-linejoin="round" stroke-width="1.1"/><path d="M889.83 191.45l11.67 2.76c.92 26.95 4.94 42.77 12.13 47.27-9 37.77-13.82 69.57-3.62 79.76 0 0-46.78 80.22-48.3 85.48m-48.31-85.48c10.2-10.19 5.38-42-3.61-79.76C817 237 821 221.16 821.93 194.21l11.66-2.76" fill="none" stroke="#000" stroke-linecap="round" stroke-linejoin="round" stroke-width="1.1"/><path d="M901.5 194.21s21.86 4.59 26.15 8.25 17.51 61.15 14 101c7.63 18.83 12.88 43.4 16.8 71.15.69 16.32-2.44 35.09-7.47 55.08-2.31.9-4 .38-4.56-2.75-3 4-5.48 3.47-7.35-1.37-2.28-.39-3.11-2.1-2.09-5.52-1.29-1.18-1.72-2.69.34-5.16l3.15-3.79c-4.31 1.82-4.1-2.68-1.4-10.67l4.2-24.43c-9.2-23.09-18.15-46.69-23.8-73-4-18.39-5.63-39-5.84-61.51m32.78 185.45s4.79-10.34 5-13.2m-12.35 11.83s7.35-8 8.05-11.15M937 420.05a19.35 19.35 0 006.12-5.63m-2.66-3.32s8.4-5.4 9.34-15.26m-71.42-215.1c2.26 8.8 6 12.63 11.45 10.71-2.4 21.6-10.9 36.23-28.12 40.86-17.23-4.63-25.72-19.26-28.12-40.86 5.46 1.92 9.2-1.92 11.45-10.74m2.08-13.58c4.43 4 9.27 6.61 14.59 7.34 5.33-.73 10.15-3.31 14.58-7.34" fill="none" stroke="#000" stroke-linecap="round" stroke-linejoin="round" stroke-width="1.1"/><path d="M845 180.71l-8.18-18.4-1.11 4.82-6.84-17.44-1.15 6c-3.85-6.87-6.48-16-7.48-27.08-2.88-32.25 11.5-49.27 41.43-51 29.94 1.69 44.28 18.71 41.42 51-1 11.12-3.61 20.21-7.47 27.08l-1.14-6-6.85 17.44-1.11-4.82-8.18 18.43a83 83 0 01-2.09-13.61c13-8.23 17.36-21.86 18.2-37.65.28-5.18-2.63-9.64-9.1-13.31V127l-9.1-11.7 3 9.86-14-10.78 2.1 11.47-5.72-12.4-5.63 12.36 2.1-11.47-14 10.78 3-9.86L838 127v-10.83c-6.46 3.67-9.38 8.13-9.1 13.31.85 15.79 5.19 29.42 18.2 37.65a82.3 82.3 0 01-2.1 13.58z" fill="none" stroke="#000" stroke-linecap="round" stroke-linejoin="round" stroke-width="1.1"/><path d="M870.46 134.3c4.69-3.43 9.93-3.9 16 0q-8 5.97-16 0z" fill="none" stroke="#000" stroke-linecap="round" stroke-linejoin="round" stroke-width="1.1"/><ellipse cx="878.11" cy="134.41" rx="1.81" ry="1.78" fill="none" stroke="#000" stroke-linecap="round" stroke-linejoin="round" stroke-width="1.1"/><path fill="none" stroke="#000" stroke-linecap="round" stroke-linejoin="round" stroke-width="1.1" d="M861.71 150.39h3.81m-3.81 10.33s5.07.35 7.43-1.71m-7.43 5.5h2.8M861.71 407c-3.21.53-7.33 48.63-9 84.06-.45 9.32-.71 17.75-.75 24.22 0 7.86.25 12.81 1 12.9 2.82 9.73 4.17 22.73 4.61 37.77.07 2.23.11 4.49.14 6.8.29 25.17-1.59 55.16-3.35 84.88l2.8 17.56c-12.68 5.8-23.11 12.93-29 22.72-1.51 2.06-13.25 4.09-16.46 4.47-6.67.82-8.27-17.73-3.49-19.62 8.82-.48 17.53-12.76 26.25-25.48-5-22.11-9.28-43.11-12.19-61.75-3.82-24.47-5.21-44.87-2.51-58.4C809 500.2 801.47 466 798 435.25c-5.35-47-1.27-85.9 15.42-114l4.68 8 .71 1.22.75 1.3c.27.44.52.9.8 1.36.67 1.17 1.39 2.4 2.13 3.68.3.52.6 1 .91 1.56.15.28.31.54.46.81 10.31 17.79 25.61 44.34 33.22 58.35.59 1.06 1.12 2.05 1.6 2.95.2.36.38.71.55 1.05s.36.65.51 1c.32.61.61 1.18.86 1.68s.35.71.49 1 .27.57.37.8a6.59 6.59 0 01.27.7c.02.17.02.29-.02.29zm0-.02v-.26"/><path d="M821.93 194.21s-19.54 3.44-26.16 8.25-17.52 61.15-14 101c-7.64 18.83-12.88 43.4-16.8 71.15-.7 16.32 2.43 35.09 7.47 55.08 2.29.9 4 .38 4.54-2.75 3 4 5.49 3.47 7.35-1.37 2.29-.39 3.13-2.1 2.11-5.52 1.27-1.18 1.71-2.69-.36-5.16L783 411.1c4.31 1.82 4.11-2.68 1.4-10.67L780.15 376c9.2-23.09 18.15-46.69 23.81-73 3.94-18.39 5.62-39 5.83-61.51M777 426.94s-4.78-10.34-5-13.2m12.35 11.83s-7.35-8-8.05-11.15m10.16 5.63a19.32 19.32 0 01-6.13-5.63m2.67-3.32s-8.4-5.4-9.33-15.26m71.38-215.1l-.01-.03M837 134.3c6-3.9 11.28-3.43 16 0q-8 5.97-16 0z" fill="none" stroke="#000" stroke-linecap="round" stroke-linejoin="round" stroke-width="1.1"/><path d="M843.5 134.41a1.81 1.81 0 101.8-1.77 1.79 1.79 0 00-1.8 1.77zm18.21 15.98h-3.81m3.81 10.33s-5.08.35-7.44-1.71m7.44 5.5h-2.8m23.45 365.71s5.42 11.42 14.94 3.67m-59.75-3.67s-7.8 10.8-13.53 6.37m44.57-405.73c8.44-2.44 15.76-3.41 20.65-1.15m-34.97 1.15c-8.44-2.44-15.76-3.41-20.65-1.15" fill="none" stroke="#000" stroke-linecap="round" stroke-linejoin="round" stroke-width="1.1"/></svg>
