<svg xmlns="http://www.w3.org/2000/svg" xmlns:xlink="http://www.w3.org/1999/xlink" viewBox="0 0 700 700"><defs><linearGradient id="a" x1="498.56" y1="396.62" x2="609.37" y2="396.62" gradientUnits="userSpaceOnUse"><stop offset="0" stop-color="#c1272d"/><stop offset="1"/></linearGradient><linearGradient id="b" x1="385.66" y1="396.93" x2="498.56" y2="396.93" gradientUnits="userSpaceOnUse"><stop offset="0"/><stop offset="1" stop-color="#c1272d"/></linearGradient><linearGradient id="c" x1="201.44" y1="384.78" x2="258.37" y2="384.78" xlink:href="#a"/><linearGradient id="d" x1="144.51" y1="384.78" x2="201.44" y2="384.78" xlink:href="#b"/></defs><path fill="#ccc" d="M0 0h700v700H0z"/><path d="M640.81 551.05c2.23 52.77-8.25 42.91-26.55-5.56-15.15 33.21-14.89 11.17-8-34.58-12-24.9-20.94-46.21-26.37-63.39 0 0 20.07 2.48 29.51-7.51 6.45 23.63 13.86 54.23 16 77.69 2.76 11.58 12.78 20.01 15.41 33.35z" fill="#eccbc7"/><path d="M598.83 403.46c.16 1.05 5 16.22 10.54 36.55-9.44 10-29.51 7.51-29.51 7.51-4.91-15.52-6.93-27.67-5.74-36-32.23-179.62-3.54-61.8-31.49-11.12 24.44 40 39.43 83.87 37.67 130.92l-81.74-68.86V307.13L555 262c12.78 5.61 24.55 10.91 26.51 13.07 4.4 4.73 16.97 126.11 17.32 128.39z" fill="url(#a)"/><path d="M555 262l-56.46 45.17-56.15-44.56c15.51-7 32.41-14.72 34.93-17.19 4.64-4.53 4.77-15.19 5.15-26h32.15c.38 10.85.51 21.51 5.14 26 2.57 2.46 19.66 9.71 35.24 16.58z" fill="#eccbc7"/><path d="M498.56 307.13v155.3l-81.74 68.86c-1.75-46.78 13-90.47 37.67-130.92-27.72-50.28.7-168.26-31.49 11.12 1.2 8.41-.86 20.65-5.83 36.3-23.17 9.14-31.5 0-31.5 0 6.38-24.13 12.46-43.14 12.64-44.33.35-2.28 13.45-125.71 17.29-128.44 1.76-1.24 13.8-6.57 26.82-12.45z" fill="url(#b)"/><path d="M385.67 447.79s8.33 9.14 31.5 0c-5.42 17.13-14.34 38.35-26.28 63.12 6.87 45.75 7.12 67.79-8 34.58-18.31 48.47-28.78 58.33-26.56 5.56 2.67-13.34 12.67-21.77 15.42-33.35 1.92-21 8-47.61 13.91-69.91zm-41.98 103.26c2.23 52.77-8.25 42.91-26.56-5.56-15.14 33.21-14.89 11.17-8-34.58-22.84-47.39-34.63-81.8-32.11-99.42-24.06-134-15.31-100.76-18.63-62.76l-56.93-41.6-56.93 41.59c-3.36-38 5.4-71.18-18.63 62.77 2.51 17.62-9.27 52-32.11 99.42 6.86 45.75 7.12 67.79-8 34.58C67.44 594 57 603.82 59.19 551.05c2.64-13.34 12.66-21.77 15.43-33.35 4-43.65 26.21-112 26.56-114.24S114.62 277.75 118.47 275s57.12-25.11 61.75-29.64 4.76-15.19 5.14-26h32.15c.38 10.85.52 21.51 5.14 26S280 270.23 284.41 275s16.94 126.16 17.29 128.44 22.57 70.59 26.55 114.24c2.75 11.6 12.81 20.03 15.44 33.37z" fill="#eccbc7"/><path d="M201.44 307.13l56.93 41.6c-1.82 20.83-5.7 38.65-12.87 51.64q6.83 11.16 12.62 22.73l-56.67 39.33z" fill="url(#c)"/><path d="M201.44 307.13v155.3l-56.66-39.33q5.75-11.53 12.59-22.73c-7.17-13-11.05-30.81-12.86-51.65z" fill="url(#d)"/><path d="M144.51 348.72c-3.36-38 5.4-71.18-18.63 62.77 2.51 17.62-9.27 52-32.11 99.42 6.86 45.75 7.12 67.79-8 34.58C67.44 594 57 603.82 59.19 551.05c2.64-13.34 12.66-21.77 15.43-33.35 4-43.65 26.21-112 26.56-114.24S114.62 277.75 118.47 275s57.12-25.11 61.75-29.64 4.76-15.19 5.14-26h32.15c.38 10.85.52 21.51 5.14 26S280 270.23 284.41 275s16.94 126.16 17.29 128.44 22.57 70.59 26.55 114.24c2.79 11.58 12.81 20 15.44 33.35 2.23 52.77-8.25 42.91-26.56-5.56-15.14 33.21-14.89 11.17-8-34.58-22.84-47.39-34.63-81.8-32.11-99.42-24.06-134-15.31-100.76-18.63-62.76l-56.93-41.6z" fill="none" stroke="#000" stroke-miterlimit="10" stroke-width=".77"/><path d="M283.18 531.29c1.43-38.31-8.24-74.48-25.06-108.19q-5.77-11.57-12.62-22.73c7.17-13 11.05-30.81 12.87-51.64m-113.86-.01l-.01.01m-24.8 182.56c-1.43-38.14 8.12-74.24 25.08-108.19q5.75-11.53 12.59-22.73c-7.17-13-11.05-30.81-12.86-51.65" fill="none" stroke="#000" stroke-miterlimit="10" stroke-width=".77"/><path fill="none" stroke="#000" stroke-miterlimit="10" stroke-width=".77" d="M201.44 462.43l-56.66-39.33h-.01m113.34 0l-56.67 39.33v-155.3m240.2 41.59l-.01.01m56.93-41.6l-56.15-44.56M555 262l-56.46 45.17v155.3"/><path d="M442.41 262.57c15.51-7 32.41-14.72 34.93-17.19 4.64-4.53 4.77-15.19 5.15-26h32.15c.38 10.85.51 21.51 5.14 26 2.55 2.5 19.64 9.75 35.24 16.57 12.78 5.61 24.55 10.91 26.51 13.07 4.38 4.78 17 126.16 17.3 128.44.16 1.05 5 16.22 10.54 36.55 6.45 23.63 13.86 54.23 16 77.69 2.79 11.58 12.81 20 15.44 33.35 2.23 52.77-8.25 42.91-26.55-5.56-15.15 33.21-14.89 11.17-8-34.58-12-24.9-20.94-46.21-26.37-63.39-4.91-15.52-6.93-27.67-5.74-36-32.23-179.62-3.54-61.8-31.49-11.12 24.44 40 39.43 83.87 37.67 130.92l-81.74-68.86-81.74 68.86c-1.75-46.78 13-90.47 37.67-130.92-27.72-50.28.7-168.26-31.49 11.12 1.2 8.41-.86 20.65-5.83 36.3-5.42 17.13-14.34 38.35-26.28 63.12 6.87 45.75 7.12 67.79-8 34.58-18.31 48.47-28.78 58.33-26.56 5.56 2.64-13.37 12.64-21.8 15.39-33.38 1.92-21 8-47.61 13.91-69.91 6.38-24.13 12.46-43.14 12.64-44.33.35-2.28 13.45-125.71 17.29-128.44 1.76-1.24 13.8-6.57 26.82-12.45zm137.45 184.95s20.07 2.48 29.51-7.52m-223.7 7.79s8.33 9.14 31.5 0" fill="none" stroke="#000" stroke-miterlimit="10" stroke-width=".77"/><path d="M201.11 218.17c6.36-.73 10.55-3.26 13-7.21-4.65-1.21-9.14-2-13-.77-3.88-1.18-8.36-.44-13 .77 2.45 3.95 6.63 6.48 13 7.21zm5.38-20.37c-1.94.2-4.35 1.82-5.38 1.75s-3.45-1.55-5.39-1.75-2.69 2.39 0 2.29h.24a5.47 5.47 0 013.23.26l.19.08a4.16 4.16 0 01.47.24h2.43c.15-.09.32-.17.48-.25a4 4 0 01.86-.29 5.25 5.25 0 011.72-.17h.3a5.89 5.89 0 01.71.13h.08c2.75.1 2-2.49.06-2.29zm14.81.77c7.64-.31 13.21-4.95 16.35-14.74-.85 4.78-1.81 9.2-2.91 13.25-3.16 11.61-8.29 17.49-13.31 24.15-5.57 6-11.18 10.62-20.32 11.57-9.15-1-14.94-5.75-20.33-11.57-5.42-6.66-10.15-12.54-13.31-24.15-1.11-4.05-2.06-8.47-2.91-13.25 3.14 9.79 8.72 14.43 16.36 14.74 9.4.41 14.56-7.09 16.65-20.24a4.12 4.12 0 013.53-1.11 4.11 4.11 0 013.53 1.11c2.1 13.15 7.27 20.67 16.67 20.24z" fill="#eccbc7"/><path d="M196.74 199a3.94 3.94 0 012.67 1.38l-.19-.08a5.46 5.46 0 00-3.22-.3h-.15s-.52-.91.89-1z" fill="#231400"/><path d="M218.92 182.58a2.18 2.18 0 10-2.18-2.18 2.18 2.18 0 002.18 2.18zm4.72-3.81a5.67 5.67 0 01-1.2 5 14.63 14.63 0 01-6.49.51 4.81 4.81 0 01-1.66-5c2.86-2.34 5.97-2.52 9.35-.51z" fill="#3c4c9a"/><path d="M201.11 199.55c1 .07 3.44-1.55 5.38-1.75s2.69 2.39 0 2.29h-.08s.48-1-.94-1.08a3.91 3.91 0 00-2.67 1.38c-.16.08-.33.16-.48.25h-2.43a4.16 4.16 0 00-.47-.24 3.94 3.94 0 00-2.67-1.38c-1.41.1-.93 1.08-.93 1.08h-.09c-2.69.1-1.94-2.49 0-2.29s4.35 1.81 5.38 1.74z" fill="#704b3c"/><path d="M219.32 179a.63.63 0 10-.63.63.63.63 0 00.63-.63zm1.77 1.39a2.18 2.18 0 11-2.17-2.17 2.18 2.18 0 012.17 2.18z" fill="#231f20"/><path d="M183.29 182.58a2.18 2.18 0 10-2.17-2.18 2.19 2.19 0 002.17 2.18zm3 1.71a14.63 14.63 0 01-6.49-.51 5.67 5.67 0 01-1.2-5c3.38-2 6.5-1.83 9.35.51a4.8 4.8 0 01-1.66 5z" fill="#3c4c9a"/><path d="M226.45 180.88c3-.21 4.49-2.09 5.17-4.88a5.8 5.8 0 01-3.72 2.55c-.28-.26-.58-.5-.87-.73-3.24-6-15.49-4-16.09 5.39 6.06 4.37 14.71 2.33 15.51-2.33zm8.81-.29c.88 20.47-27.74 23.45-27.74 0 3.34-11.36 24.98-10.78 27.74 0z" fill="#eccbc7"/><path d="M214.12 211c-2.46 3.95-6.65 6.48-13 7.21-6.37-.73-10.55-3.26-13-7.21l13 2z" fill="#df576b"/><path d="M202.8 200.37a3.91 3.91 0 012.67-1.38c1.42.1.94 1.08.94 1.08a5.89 5.89 0 00-.71-.13h-.3a5.25 5.25 0 00-1.72.17 4 4 0 00-.88.26z" fill="#231400"/><path d="M209.74 169c6.36-2.38 12.19-4.16 16.67-4.43 3.12.43 5.49 1.68 6.54 4.37-1.24-.84-3.33-1.3-6.25-1.38a143.16 143.16 0 00-15.79 4.21 1.88 1.88 0 01-1.17-2.77z" fill="#231f20"/><path d="M199.38 200.37l-.19-.08z" fill="#704b3c"/><path d="M167 180.59c2.77-10.78 24.4-11.36 27.75 0-.05 23.41-28.67 20.47-27.75 0zm24.33 2.62c-.6-9.44-12.85-11.44-16.1-5.39-.29.23-.58.47-.87.73a5.81 5.81 0 01-3.76-2.55c.67 2.79 2.18 4.67 5.16 4.88.81 4.66 9.47 6.7 15.52 2.33z" fill="#eccbc7"/><path d="M163.68 190.66a29.11 29.11 0 01.87-6.87c.85 4.78 1.8 9.2 2.91 13.25-2.18.34-3.45-2-3.73-5.08a11.7 11.7 0 01-.05-1.3z" fill="#d0ab9a"/><path d="M226.45 180.88a17.75 17.75 0 00-2.81-2.11c-3.38-2-6.49-1.83-9.35.51a17.27 17.27 0 00-3.35 3.93c2.49-8.25 10.11-9.94 16.09-5.39.29.23.59.47.87.73a5.8 5.8 0 003.72-2.55c-.68 2.79-2.18 4.67-5.17 4.88z" fill="#231f20"/><path d="M226.45 180.88c-.8 4.66-9.47 6.7-15.51 2.33a30.18 30.18 0 005 1.08 14.63 14.63 0 006.49-.51 8.6 8.6 0 004.02-2.9z" fill="#de9b95"/><path d="M205.4 199.9h.3z" fill="#231400"/><path d="M191.28 183.21c-6.05 4.37-14.71 2.33-15.52-2.33a8.6 8.6 0 004 2.9 14.63 14.63 0 006.49.51 30.5 30.5 0 005.03-1.08z" fill="#de9b95"/><path d="M201.11 210.19c3.87-1.18 8.36-.44 13 .77l-13 2-13-2c4.64-1.21 9.12-1.96 13-.77z" fill="#df576b"/><path d="M227 177.82c-6-4.55-13.6-2.86-16.09 5.39.63-9.44 12.88-11.44 16.09-5.39z" fill="#de9b95"/><path d="M235.55 174.79s-4.34-34.34-34.47-34.92a34.5 34.5 0 00-8.1 1.07l-9.76-24.58c30-7.84 50.68.22 62.41 23.51 3.69 8.41 5.2 18.07 5.9 28.28 2.78 40.57-5.78 62.71-24.42 69.55 9-12 11.89-27.6 11.33-45.27V192c0-.43.05-.88.05-1.34a28.53 28.53 0 00-.87-6.87c.46-1.44.86-3 1.22-4.67v-2.48c-1.11-.66-2.2-1.26-3.29-1.81l-1.31-.63c.47.18.88.39 1.31.59z" fill="#231f20"/><path d="M194.7 180.59c-3.35-11.36-25-10.78-27.75 0-.87 20.47 27.75 23.41 27.75 0zm40.56 0c-2.76-10.78-24.4-11.36-27.74 0 0 23.41 28.62 20.47 27.74 0zm-30.62-2.26a4.11 4.11 0 00-3.53-1.11 4.12 4.12 0 00-3.53 1.11c-2.09 13.15-7.25 20.65-16.65 20.24-7.64-.31-13.22-4.95-16.36-14.74-.46-1.45-.86-3-1.22-4.67v-2.48c1.11-.66 2.2-1.26 3.29-1.81 10.48-5.24 20.28-4.94 29.34 1.33q1.62-1.38 5.14-1.51 3.54.13 5.14 1.51c8.69-6 18-6.53 28-2l1.31.63c1.09.55 2.18 1.15 3.29 1.81v2.48a50.12 50.12 0 01-1.22 4.67c-3.14 9.79-8.71 14.43-16.35 14.74-9.39.47-14.56-7.05-16.65-20.2z" fill="#231f20"/><path d="M192.42 169c-6.37-2.38-12.19-4.16-16.67-4.43-3.13.43-5.49 1.68-6.55 4.37q1.88-1.26 6.26-1.38a143.74 143.74 0 0115.79 4.21 1.89 1.89 0 001.17-2.77zm8.66-29.1c30.13.58 34.47 34.92 34.47 34.92-.43-.2-.84-.41-1.27-.6-10-4.61-19.37-4.09-28.06 1.92a8.36 8.36 0 00-5.14-1.5 8.32 8.32 0 00-5.13 1.5c-9.06-6.26-18.85-6.56-29.33-1.32 0 0 3.38-26.7 24.83-33.41.5-.16 1-.3 1.53-.44a34.5 34.5 0 018.1-1.07zm25.33 24.67c-4.48.27-10.31 2.05-16.67 4.43a1.88 1.88 0 001.17 2.77 143.16 143.16 0 0115.79-4.21c2.92.08 5 .54 6.25 1.38-1.05-2.72-3.42-3.94-6.54-4.4z" fill="#eccbc7"/><path d="M191.25 171.74a143.74 143.74 0 00-15.79-4.21q-4.38.12-6.26 1.38c1.06-2.69 3.42-3.94 6.55-4.37 4.48.27 10.3 2.05 16.67 4.43a1.89 1.89 0 01-1.17 2.77zm-16.07 6.08c6-4.55 13.6-2.86 16.1 5.39a17 17 0 00-3.36-3.93c-2.85-2.34-6-2.52-9.35-.51a18.22 18.22 0 00-2.81 2.11c-3-.21-4.49-2.09-5.16-4.88a5.81 5.81 0 003.71 2.55c.29-.26.58-.5.87-.73z" fill="#231f20"/><path d="M185.47 180.4a2.18 2.18 0 11-2.18-2.17 2.19 2.19 0 012.18 2.17zm-2.18-2a.63.63 0 10.62.62.62.62 0 00-.62-.63z" fill="#231f20"/><path d="M196 200a5.46 5.46 0 013.23.26A5.47 5.47 0 00196 200z" fill="#704b3c"/><path d="M175.18 177.82c3.25-6 15.5-4 16.1 5.39-2.5-8.21-10.11-9.94-16.1-5.39z" fill="#de9b95"/><path d="M238.43 192.43c-.35 2.85-1.61 5-3.69 4.65 1.1-4.05 2.06-8.47 2.91-13.25a28.53 28.53 0 01.87 6.87c0 .46 0 .91-.05 1.34 0 .11-.02.25-.04.39z" fill="#d0ab9a"/><path d="M234.28 174.19c-10-4.57-19.34-4.05-28 2q-1.6-1.38-5.14-1.51-3.53.13-5.14 1.51c-9.06-6.27-18.86-6.57-29.34-1.33-1.09.55-2.18 1.15-3.29 1.81v2.48c.36 1.67.76 3.22 1.22 4.67a29.11 29.11 0 00-.87 6.87 11.7 11.7 0 00.06 1.34c-.61 17.85 2.24 33.64 11.33 45.7-18.64-6.84-27.19-29-24.41-69.55.7-10.21 2.21-19.87 5.89-28.28 7.42-12 16.2-20.18 26.68-23.51l8.23 25c-21.45 6.71-24.83 33.41-24.83 33.41 10.48-5.24 20.27-4.94 29.33 1.32a8.32 8.32 0 015.13-1.5 8.36 8.36 0 015.14 1.5c8.64-6.02 18.01-6.54 28.01-1.93z" fill="#231f20"/><path d="M203.68 200.07h0m2.02-.13h-.3m21.05-19.06c-.8 4.66-9.47 6.7-15.51 2.33a30.18 30.18 0 005 1.08 14.63 14.63 0 006.49-.51 8.6 8.6 0 004.02-2.9z" fill="none" stroke="#000" stroke-miterlimit="10" stroke-width=".58"/><path d="M226.45 180.88a17.75 17.75 0 00-2.81-2.11c-3.38-2-6.49-1.83-9.35.51a17.27 17.27 0 00-3.35 3.93c2.49-8.25 10.11-9.94 16.09-5.39.29.23.59.47.87.73a5.8 5.8 0 003.72-2.55c-.68 2.79-2.18 4.67-5.17 4.88zm-12.16-1.6a4.81 4.81 0 001.66 5m7.69-5.51a5.67 5.67 0 01-1.2 5" fill="none" stroke="#000" stroke-miterlimit="10" stroke-width=".58"/><path d="M221.09 180.4a2.18 2.18 0 11-2.17-2.17 2.18 2.18 0 012.17 2.17z" fill="none" stroke="#000" stroke-miterlimit="10" stroke-width=".58"/><path d="M219.32 179a.63.63 0 11-.63-.62.63.63 0 01.63.62zm-54.76 4.83c.85 4.78 1.8 9.2 2.91 13.25 3.16 11.61 7.89 17.49 13.31 24.15 5.39 5.82 11.18 10.62 20.33 11.57 9.14-1 14.75-5.61 20.32-11.57 5-6.66 10.15-12.54 13.31-24.15 1.1-4.05 2.06-8.47 2.91-13.25" fill="none" stroke="#000" stroke-miterlimit="10" stroke-width=".58"/><path d="M199.38 200.37l-.19-.08A5.47 5.47 0 00196 200m10.41.07a5.89 5.89 0 00-.71-.13h-.3a5.25 5.25 0 00-1.72.17h0a4 4 0 00-.86.29M188.09 211c4.66-1.21 9.14-2 13-.77 3.87-1.18 8.36-.44 13 .77m.03 0c-2.46 3.95-6.65 6.48-13 7.21-6.37-.73-10.55-3.26-13-7.21l13 2zm20.62-13.92c2.08.33 3.34-1.8 3.69-4.65V192c0-.43.05-.88.05-1.34a28.53 28.53 0 00-.87-6.87m-3.33-9.6c.43.19.84.4 1.27.6 0 0-4.34-34.34-34.47-34.92h0a34.5 34.5 0 00-8.1 1.07c-.52.14-1 .28-1.53.44-21.45 6.71-24.83 33.41-24.83 33.41 10.48-5.24 20.27-4.94 29.33 1.32a8.32 8.32 0 015.13-1.5h0a8.36 8.36 0 015.14 1.5c8.69-6.01 18.06-6.53 28.06-1.92z" fill="none" stroke="#000" stroke-miterlimit="10" stroke-width=".58"/><path d="M210.91 171.74a1.88 1.88 0 01-1.17-2.77c6.36-2.38 12.19-4.16 16.67-4.43 3.12.43 5.49 1.68 6.54 4.37-1.24-.84-3.33-1.3-6.25-1.38a143.16 143.16 0 00-15.79 4.21z" fill="none" stroke="#000" stroke-miterlimit="10" stroke-width=".58"/><path d="M164.55 183.79s0 0 0 0c3.14 9.79 8.72 14.43 16.36 14.74 9.4.41 14.56-7.09 16.65-20.24a4.12 4.12 0 013.53-1.11h0a4.11 4.11 0 013.53 1.11c2.09 13.15 7.26 20.65 16.66 20.24 7.64-.31 13.21-4.95 16.35-14.74 0 0 0 0 0 0h0c.46-1.44.86-3 1.22-4.67v-2.48c-1.11-.66-2.2-1.26-3.29-1.81l-1.31-.63c-10-4.57-19.34-4.05-28 2q-1.6-1.38-5.14-1.51h0q-3.53.13-5.14 1.51c-9.06-6.27-18.86-6.57-29.34-1.33-1.09.55-2.18 1.15-3.29 1.81v2.48c.36 1.67.76 3.22 1.22 4.67" fill="none" stroke="#000" stroke-miterlimit="10" stroke-width=".58"/><path d="M207.52 180.59c3.34-11.36 25-10.78 27.74 0 .88 20.47-27.74 23.41-27.74 0zm3.42 2.62c.6-9.44 12.85-11.44 16.09-5.39m-31.22 22.25h-.09c-2.69.1-1.94-2.49 0-2.29s4.36 1.82 5.39 1.75 3.44-1.55 5.38-1.75 2.69 2.39 0 2.29h-.08s.48-1-.94-1.08a3.91 3.91 0 00-2.67 1.38" fill="none" stroke="#000" stroke-miterlimit="10" stroke-width=".58"/><path d="M199.41 200.37h0l-.19-.08A5.46 5.46 0 00196 200h-.15s-.48-1 .93-1.08a3.94 3.94 0 012.67 1.38h0a4.16 4.16 0 01.47.24h2.43c.15-.09.32-.17.48-.25m-8.13-19.7c0 23.45-28.62 20.47-27.75 0 2.77-10.78 24.4-11.36 27.75 0z" fill="none" stroke="#000" stroke-miterlimit="10" stroke-width=".58"/><path d="M175.76 180.88c.81 4.66 9.47 6.7 15.52 2.33a30.5 30.5 0 01-5 1.08 14.63 14.63 0 01-6.49-.51 8.6 8.6 0 01-4.03-2.9z" fill="none" stroke="#000" stroke-miterlimit="10" stroke-width=".58"/><path d="M175.76 180.88a18.22 18.22 0 012.81-2.11c3.38-2 6.5-1.83 9.35.51a17 17 0 013.36 3.93c-2.5-8.25-10.11-9.94-16.1-5.39-.29.23-.58.47-.87.73a5.81 5.81 0 01-3.71-2.55c.67 2.79 2.18 4.67 5.16 4.88zm12.16-1.6a4.8 4.8 0 01-1.66 5m-7.69-5.51a5.67 5.67 0 001.2 5" fill="none" stroke="#000" stroke-miterlimit="10" stroke-width=".58"/><path d="M181.12 180.4a2.18 2.18 0 102.17-2.17 2.18 2.18 0 00-2.17 2.17z" fill="none" stroke="#000" stroke-miterlimit="10" stroke-width=".58"/><path d="M182.67 179a.62.62 0 10.62-.62.62.62 0 00-.62.62zm8.58-7.26a143.74 143.74 0 00-15.79-4.21q-4.38.12-6.26 1.38c1.06-2.69 3.42-3.94 6.55-4.37 4.48.27 10.3 2.05 16.67 4.43a1.89 1.89 0 01-1.17 2.77zm-23.78 25.34c-2.18.34-3.45-2-3.73-5.08a11.7 11.7 0 01-.06-1.34 29.11 29.11 0 01.87-6.87h0m26.73-.58c-.6-9.44-12.85-11.44-16.1-5.39" fill="none" stroke="#000" stroke-miterlimit="10" stroke-width=".58"/><path d="M191.44 141.38l-8.23-25c-10.48 3.33-19.26 11.48-26.68 23.51-3.68 8.41-5.19 18.07-5.89 28.28-2.78 40.57 5.77 62.71 24.41 69.55-9.09-12.06-11.94-27.85-11.33-45.7v0M193 140.94l-9.76-24.58c30-7.84 50.68.22 62.41 23.51 3.69 8.41 5.2 18.07 5.9 28.28 2.78 40.57-5.78 62.71-24.42 69.55 9-12 11.89-27.6 11.33-45.27v-.47" fill="none" stroke="#000" stroke-miterlimit="10" stroke-width=".58"/><path d="M503.85 176.11c8.7-6 18.07-6.53 28.07-1.92-10-4.57-19.35-4.05-28 2-1.08-.92-2.79-1.42-5.15-1.51q-3.53.13-5.14 1.51c-9.06-6.27-18.86-6.57-29.34-1.33-1.08.55-2.17 1.15-3.29 1.81v2.48c.36 1.67.77 3.22 1.23 4.67a28.28 28.28 0 00-.88 6.87 11.7 11.7 0 00.06 1.34c-.61 17.85 2.23 33.64 11.33 45.7-18.64-6.84-27.19-29-24.42-69.55.7-10.21 2.22-19.87 5.9-28.28 7.42-12 16.2-20.18 26.68-23.51l8.22 25c-21.45 6.71-24.83 33.41-24.83 33.41 10.48-5.24 20.28-4.94 29.33 1.32a8.32 8.32 0 015.13-1.5 8.31 8.31 0 015.1 1.49z" fill="#231f20"/><path d="M488.89 171.74a144.44 144.44 0 00-15.8-4.21c-2.92.08-5 .54-6.25 1.38 1.05-2.69 3.42-3.94 6.54-4.37 4.48.27 10.3 2.05 16.67 4.43a1.89 1.89 0 01-1.16 2.77z" fill="#231f20"/><path d="M496.83 200.29l.18.08z" fill="#704b3c"/><path d="M498.74 210.19c3.87-1.18 8.36-.44 13 .77l-13 2-13-2c4.64-1.21 9.13-1.96 13-.77z" fill="#df576b"/><path d="M488.91 183.21c-.6-9.44-12.85-11.44-16.09-5.39-.3.23-.59.47-.87.73a5.8 5.8 0 01-3.72-2.55c.68 2.79 2.18 4.67 5.16 4.88.81 4.66 9.47 6.7 15.52 2.33zm3.42-2.62c0 23.45-28.62 20.47-27.75 0 2.77-10.78 24.42-11.36 27.75 0z" fill="#eccbc7"/><path d="M493.35 200.09c-2.69.1-1.94-2.49 0-2.29s4.36 1.82 5.39 1.75 3.45-1.55 5.39-1.75 2.69 2.39 0 2.29h-.09s.48-1-.94-1.08a3.91 3.91 0 00-2.67 1.38l-.48.25h-2.43a5.06 5.06 0 00-.46-.24 4 4 0 00-2.67-1.38c-1.42.1-.94 1.08-.94 1.08z" fill="#704b3c"/><path d="M488.91 183.21c-6.05 4.37-14.71 2.33-15.52-2.33a8.6 8.6 0 004 2.9 14.69 14.69 0 006.5.51 30.39 30.39 0 005.02-1.08z" fill="#de9b95"/><path d="M511.93 179.28a17 17 0 00-3.36 3.93c2.5-8.25 10.11-9.94 16.09-5.39.3.23.59.47.87.73a5.8 5.8 0 003.72-2.55c-.68 2.79-2.18 4.67-5.17 4.88a17.31 17.31 0 00-2.81-2.11c-3.37-2.01-6.49-1.83-9.34.51z" fill="#231f20"/><path d="M493.59 200a5.5 5.5 0 013.24.26 5.5 5.5 0 00-3.24-.26z" fill="#704b3c"/><path d="M532.37 197.08c1.1-4.05 2.06-8.47 2.91-13.25a28.28 28.28 0 01.88 6.87c0 .46 0 .91-.06 1.34v.43c-.39 2.81-1.65 4.94-3.73 4.61z" fill="#d0ab9a"/><path d="M472.82 177.82c6-4.55 13.59-2.86 16.09 5.39a17 17 0 00-3.36-3.93c-2.85-2.34-6-2.52-9.34-.51a17.81 17.81 0 00-2.82 2.11c-3-.21-4.48-2.09-5.16-4.88a5.8 5.8 0 003.72 2.55c.28-.26.57-.5.87-.73z" fill="#231f20"/><path d="M503 199.9h.29z" fill="#231400"/><path d="M524.66 177.82c-6-4.55-13.59-2.86-16.09 5.39.6-9.44 12.86-11.44 16.09-5.39z" fill="#de9b95"/><path d="M500.43 200.37a3.91 3.91 0 012.67-1.37c1.42.1.94 1.08.94 1.08a5.89 5.89 0 00-.71-.13h-.29a5.19 5.19 0 00-1.72.17 4.15 4.15 0 00-.89.25z" fill="#231400"/><path d="M465.1 197.08c-2.17.34-3.45-2-3.73-5.08a11.7 11.7 0 01-.06-1.34 28.28 28.28 0 01.88-6.87c.86 4.82 1.81 9.21 2.91 13.29z" fill="#d0ab9a"/><path d="M533.18 174.79s-4.34-34.34-34.47-34.92a34.34 34.34 0 00-8.09 1.07l-9.76-24.58c30-7.84 50.67.22 62.41 23.51 3.68 8.41 5.19 18.07 5.89 28.28 2.78 40.57-5.77 62.71-24.41 69.55 9-12 11.88-27.6 11.33-45.27V192c0-.43.06-.88.06-1.34a28.28 28.28 0 00-.88-6.87c.46-1.44.86-3 1.22-4.67v-2.48c-1.11-.66-2.2-1.26-3.29-1.81l-1.3-.63c.45.18.87.39 1.29.59z" fill="#231f20"/><path d="M490.05 169c-6.37-2.38-12.19-4.16-16.67-4.43-3.12.43-5.49 1.68-6.54 4.37 1.24-.84 3.33-1.3 6.25-1.38a144.44 144.44 0 0115.8 4.21 1.89 1.89 0 001.16-2.77zm41.87 5.22c-10-4.61-19.37-4.09-28.07 1.92a8.31 8.31 0 00-5.14-1.5 8.32 8.32 0 00-5.13 1.5c-9.05-6.26-18.85-6.56-29.33-1.32 0 0 3.38-26.7 24.83-33.41.5-.16 1-.3 1.54-.44a34.34 34.34 0 018.09-1.07c30.13.58 34.47 34.92 34.47 34.92-.42-.23-.84-.44-1.26-.63zM507.37 169a1.89 1.89 0 001.17 2.77 143.16 143.16 0 0115.79-4.21c2.92.08 5 .54 6.26 1.38-1.06-2.69-3.42-3.94-6.55-4.37-4.48.24-10.31 2.02-16.67 4.43z" fill="#eccbc7"/><path d="M511.75 211c-2.46 3.95-6.64 6.48-13 7.21-6.37-.73-10.55-3.26-13-7.21l13 2z" fill="#df576b"/><path d="M480.92 178.39a.63.63 0 10.62.62.62.62 0 00-.62-.62zm-2.17 2a2.18 2.18 0 112.17 2.18 2.17 2.17 0 01-2.17-2.17z" fill="#231f20"/><path d="M476.21 178.77c3.37-2 6.49-1.83 9.34.51a4.79 4.79 0 01-1.65 5 14.69 14.69 0 01-6.5-.51 5.67 5.67 0 01-1.19-5zm4.71-.54a2.18 2.18 0 102.18 2.17 2.17 2.17 0 00-2.18-2.17z" fill="#3c4c9a"/><path d="M488.91 183.21c-2.5-8.25-10.11-9.94-16.09-5.39 3.24-6.05 15.49-4.05 16.09 5.39z" fill="#de9b95"/><path d="M464.58 180.59c-.87 20.47 27.75 23.45 27.75 0-3.33-11.36-24.98-10.78-27.75 0zm54.35 18c-9.4.41-14.56-7.09-16.66-20.24a4.11 4.11 0 00-3.53-1.11 4.13 4.13 0 00-3.53 1.11c-2.09 13.15-7.25 20.65-16.65 20.24-7.64-.31-13.22-4.95-16.35-14.74-.46-1.45-.87-3-1.23-4.67v-2.48c1.12-.66 2.21-1.26 3.29-1.81 10.48-5.24 20.28-4.94 29.34 1.33q1.62-1.38 5.14-1.51c2.36.09 4.07.59 5.15 1.51 8.68-6 18-6.53 28-2l1.3.63c1.09.55 2.18 1.15 3.29 1.81v2.48a50.12 50.12 0 01-1.22 4.67c-3.12 9.81-8.7 14.45-16.34 14.76zm14-18c-2.77-10.78-24.41-11.36-27.75 0-.03 23.41 28.59 20.47 27.72 0z" fill="#231f20"/><path d="M508.54 171.74a1.89 1.89 0 01-1.17-2.77c6.36-2.38 12.19-4.16 16.67-4.43 3.13.43 5.49 1.68 6.55 4.37-1.24-.84-3.34-1.3-6.26-1.38a143.16 143.16 0 00-15.79 4.21z" fill="#231f20"/><path d="M508.57 183.21c6.05 4.37 14.71 2.33 15.51-2.33 3-.21 4.49-2.09 5.17-4.88a5.8 5.8 0 01-3.72 2.55c-.28-.26-.57-.5-.87-.73-3.23-6.05-15.49-4.05-16.09 5.39zm-3.42-2.62c3.34-11.36 25-10.78 27.75 0 .87 20.47-27.75 23.41-27.75 0z" fill="#eccbc7"/><path d="M498.74 199.55c-1 .07-3.45-1.55-5.39-1.75s-2.69 2.39 0 2.29h.24a5.5 5.5 0 013.24.26l.18.08h.05a5.06 5.06 0 01.46.24H500l.48-.25a4.15 4.15 0 01.86-.29 5.19 5.19 0 011.72-.17h.29a5.89 5.89 0 01.71.13h.09c2.69.1 1.94-2.49 0-2.29s-4.38 1.82-5.41 1.75zm3.53-21.22c2.1 13.15 7.26 20.65 16.66 20.24 7.64-.31 13.22-4.95 16.35-14.74-.85 4.78-1.81 9.2-2.91 13.25-3.16 11.61-8.29 17.49-13.31 24.15-5.56 6-11.18 10.62-20.32 11.57-9.15-1-14.94-5.75-20.32-11.57-5.43-6.66-10.16-12.54-13.32-24.15-1.11-4.05-2.05-8.47-2.9-13.25 3.13 9.79 8.71 14.43 16.35 14.74 9.4.41 14.56-7.09 16.65-20.24a4.13 4.13 0 013.53-1.11 4.11 4.11 0 013.54 1.11zm9.48 32.67c-4.65-1.21-9.14-2-13-.77-3.87-1.18-8.36-.44-13 .77 2.46 3.95 6.64 6.48 13 7.21 6.36-.77 10.54-3.3 13-7.21z" fill="#eccbc7"/><path d="M514.38 180.4a2.17 2.17 0 102.18-2.17 2.19 2.19 0 00-2.18 2.17zm5.69 3.38a14.63 14.63 0 01-6.49.51 4.79 4.79 0 01-1.65-5c2.85-2.34 6-2.52 9.34-.51a5.64 5.64 0 01-1.2 5z" fill="#3c4c9a"/><path d="M493.44 200.07s-.48-1 .94-1.08a4 4 0 012.67 1.38l-.18-.08a5.5 5.5 0 00-3.24-.26z" fill="#231400"/><path d="M524.08 180.88c-.8 4.66-9.46 6.7-15.51 2.33a30.39 30.39 0 005 1.08 14.63 14.63 0 006.49-.51 8.51 8.51 0 004.02-2.9z" fill="#de9b95"/><path d="M515.7 179a.63.63 0 10.63-.62.63.63 0 00-.63.62zm-1.32 1.39a2.17 2.17 0 112.18 2.18 2.18 2.18 0 01-2.18-2.17z" fill="#231f20"/><path d="M501.32 200.07h0m2.01-.13h-.29m21.04-19.06c-.8 4.66-9.46 6.7-15.51 2.33a30.39 30.39 0 005 1.08 14.63 14.63 0 006.49-.51 8.51 8.51 0 004.02-2.9z" fill="none" stroke="#000" stroke-miterlimit="10" stroke-width=".58"/><path d="M524.08 180.88a17.31 17.31 0 00-2.81-2.11c-3.37-2-6.49-1.83-9.34.51a17 17 0 00-3.36 3.93c2.5-8.25 10.11-9.94 16.09-5.39.3.23.59.47.87.73a5.8 5.8 0 003.72-2.55c-.68 2.79-2.18 4.67-5.17 4.88zm-12.15-1.6a4.79 4.79 0 001.65 5m7.69-5.51a5.64 5.64 0 01-1.2 5" fill="none" stroke="#000" stroke-miterlimit="10" stroke-width=".58"/><path d="M518.72 180.4a2.17 2.17 0 11-2.16-2.17 2.17 2.17 0 012.16 2.17z" fill="none" stroke="#000" stroke-miterlimit="10" stroke-width=".58"/><path d="M517 179a.63.63 0 11-.62-.62.63.63 0 01.62.62zm-54.8 4.83c.85 4.78 1.79 9.2 2.9 13.25 3.16 11.61 7.89 17.49 13.32 24.15 5.38 5.82 11.17 10.62 20.32 11.57 9.14-1 14.76-5.61 20.32-11.57 5-6.66 10.15-12.54 13.31-24.15 1.1-4.05 2.06-8.47 2.91-13.25" fill="none" stroke="#000" stroke-miterlimit="10" stroke-width=".58"/><path d="M497 200.37l-.18-.08a5.5 5.5 0 00-3.24-.26m10.42.04a5.89 5.89 0 00-.71-.13H503a5.19 5.19 0 00-1.72.17h0a4.15 4.15 0 00-.86.29M485.73 211c4.65-1.21 9.14-2 13-.77 3.87-1.18 8.36-.44 13 .77m.02 0c-2.46 3.95-6.64 6.48-13 7.21-6.37-.73-10.55-3.26-13-7.21l13 2zm20.62-13.92c2.08.33 3.34-1.8 3.7-4.65V192c0-.43.06-.88.06-1.34a28.28 28.28 0 00-.88-6.87m-3.33-9.6c.42.19.84.4 1.26.6 0 0-4.34-34.34-34.47-34.92h0a34.34 34.34 0 00-8.09 1.07c-.53.14-1 .28-1.54.44-21.45 6.71-24.83 33.41-24.83 33.41 10.48-5.24 20.28-4.94 29.33 1.32a8.32 8.32 0 015.13-1.5h0a8.31 8.31 0 015.14 1.5c8.7-6.01 18.07-6.53 28.07-1.92z" fill="none" stroke="#000" stroke-miterlimit="10" stroke-width=".58"/><path d="M508.54 171.74a1.89 1.89 0 01-1.17-2.77c6.36-2.38 12.19-4.16 16.67-4.43 3.13.43 5.49 1.68 6.55 4.37-1.24-.84-3.34-1.3-6.26-1.38a143.16 143.16 0 00-15.79 4.21z" fill="none" stroke="#000" stroke-miterlimit="10" stroke-width=".58"/><path d="M462.19 183.79s0 0 0 0c3.13 9.79 8.71 14.43 16.35 14.74 9.4.41 14.56-7.09 16.65-20.24a4.13 4.13 0 013.53-1.11h0a4.11 4.11 0 013.53 1.11c2.1 13.15 7.26 20.65 16.66 20.24 7.64-.31 13.22-4.95 16.35-14.74 0 0 0 0 0 0h0c.46-1.44.86-3 1.22-4.67v-2.48c-1.11-.66-2.2-1.26-3.29-1.81l-1.3-.63c-10-4.57-19.35-4.05-28 2-1.08-.92-2.79-1.42-5.15-1.51h0q-3.53.13-5.14 1.51c-9.06-6.27-18.86-6.57-29.34-1.33-1.08.55-2.17 1.15-3.29 1.81v2.48c.36 1.67.77 3.22 1.23 4.67" fill="none" stroke="#000" stroke-miterlimit="10" stroke-width=".58"/><path d="M505.15 180.59c3.34-11.36 25-10.78 27.75 0 .87 20.47-27.75 23.41-27.75 0zm3.42 2.62c.6-9.44 12.86-11.44 16.09-5.39m-31.22 22.25h-.09c-2.69.1-1.94-2.49 0-2.29s4.36 1.82 5.39 1.75 3.45-1.55 5.39-1.75 2.69 2.39 0 2.29h-.09s.48-1-.94-1.08a3.91 3.91 0 00-2.67 1.38" fill="none" stroke="#000" stroke-miterlimit="10" stroke-width=".58"/><path d="M497.05 200.37h0l-.18-.08a5.5 5.5 0 00-3.24-.26h-.15s-.48-1 .94-1.08a4 4 0 012.67 1.38h0a5.06 5.06 0 01.46.24H500l.48-.25m-8.15-19.73c0 23.45-28.62 20.47-27.75 0 2.77-10.78 24.42-11.36 27.75 0z" fill="none" stroke="#000" stroke-miterlimit="10" stroke-width=".58"/><path d="M473.39 180.88c.81 4.66 9.47 6.7 15.52 2.33a30.39 30.39 0 01-5 1.08 14.69 14.69 0 01-6.5-.51 8.6 8.6 0 01-4.02-2.9z" fill="none" stroke="#000" stroke-miterlimit="10" stroke-width=".58"/><path d="M473.39 180.88a17.81 17.81 0 012.82-2.11c3.37-2 6.49-1.83 9.34.51a17 17 0 013.36 3.93c-2.5-8.25-10.11-9.94-16.09-5.39-.3.23-.59.47-.87.73a5.8 5.8 0 01-3.72-2.55c.68 2.79 2.18 4.67 5.16 4.88zm12.16-1.6a4.79 4.79 0 01-1.65 5m-7.69-5.51a5.67 5.67 0 001.19 5" fill="none" stroke="#000" stroke-miterlimit="10" stroke-width=".58"/><path d="M478.75 180.4a2.18 2.18 0 102.17-2.17 2.18 2.18 0 00-2.17 2.17z" fill="none" stroke="#000" stroke-miterlimit="10" stroke-width=".58"/><path d="M480.3 179a.62.62 0 10.62-.62.62.62 0 00-.62.62zm8.59-7.26a144.44 144.44 0 00-15.8-4.21c-2.92.08-5 .54-6.25 1.38 1.05-2.69 3.42-3.94 6.54-4.37 4.48.27 10.3 2.05 16.67 4.43a1.89 1.89 0 01-1.16 2.77zm-23.79 25.34c-2.17.34-3.45-2-3.73-5.08a11.7 11.7 0 01-.06-1.34 28.28 28.28 0 01.88-6.87h0m26.72-.58c-.6-9.44-12.85-11.44-16.09-5.39" fill="none" stroke="#000" stroke-miterlimit="10" stroke-width=".58"/><path d="M489.07 141.38l-8.22-25c-10.48 3.33-19.26 11.48-26.68 23.51-3.68 8.41-5.2 18.07-5.9 28.28-2.77 40.57 5.78 62.71 24.42 69.55-9.1-12.06-11.94-27.85-11.33-45.7v0m29.25-51.08l-9.76-24.58c30-7.84 50.67.22 62.41 23.51 3.68 8.41 5.19 18.07 5.89 28.28 2.78 40.57-5.77 62.71-24.41 69.55 9-12 11.88-27.6 11.33-45.27v-.47" fill="none" stroke="#000" stroke-miterlimit="10" stroke-width=".58"/></svg>
