<svg xmlns="http://www.w3.org/2000/svg" xmlns:xlink="http://www.w3.org/1999/xlink" viewBox="0 0 1400 780"><defs><linearGradient id="b" x1="331.75" y1="433.86" x2="482.95" y2="433.86" gradientUnits="userSpaceOnUse"><stop offset=".01" stop-color="#1b5156"/><stop offset=".5" stop-color="#206369"/><stop offset="1" stop-color="#45818a"/></linearGradient><linearGradient id="a" x1="485.27" y1="434.87" x2="625.27" y2="434.87" gradientUnits="userSpaceOnUse"><stop offset="0" stop-color="#45818a"/><stop offset=".5" stop-color="#206369"/><stop offset=".99" stop-color="#1b5156"/></linearGradient><linearGradient id="c" x1="913.37" y1="431.34" x2="978.97" y2="431.34" xlink:href="#a"/><linearGradient id="d" x1="843.53" y1="431.29" x2="909.82" y2="431.29" xlink:href="#b"/></defs><path fill="#ccc" d="M0 0h1400v780H0z"/><path d="M315.51 656.34c.65 5.57 5.6 23.66 9.12 31.41a185.1 185.1 0 01-9.12-31.41zm11.11 30.8c1.48-1.53 1.32-2.64 1.53-5.55-.46 3.41-.95 4.78-1.53 5.55zm3.17-29.14c-.84 18.57-.78 9.43 1.45-9.49a68 68 0 00-1.45 9.49zm2.09-20.12a6.63 6.63 0 01.62-2.32 4.6 4.6 0 00-.62 2.32zm-.13-125.72a4.81 4.81 0 00.07-.56 3.73 3.73 0 00-.07.56zm.14 125.94a21.61 21.61 0 01.2 3.19 14.86 14.86 0 00-.2-3.19zM333 505.31c.47-2.39.91-4.87 1.43-8.89-.52 3.85-1.01 6.68-1.43 8.89zm2.37-16.31c-.11 1.12 0 0 .44-2.63a20 20 0 00-.44 2.63zm-.92 143.38a5.4 5.4 0 013.76-2.16c-1.34-.11-2.59.51-3.76 2.18zM343 578.9c.19-.47.49-1.25.64-1.66-.21.54-.43 1.1-.64 1.66zm-1.69 52.71c3.1 2.86 6 5.89 9 8.89-3.42-3.5-6.38-7.03-9-8.89zm4.46-59.73c2.07-4.86 3.82-9.08 7.33-16-2.23 4.3-4.68 9.5-7.33 16zm-3.22-101.51a136.05 136.05 0 008.59-15.67c-2.7 5.46-5.83 10.65-8.59 15.67zm15.23 171.83a22.65 22.65 0 00.23-2.69c-.01.82-.12 1.7-.23 2.69zm11.31-289.74c-.65 4.17-.65 3.06.26 2.22a10.66 10.66 0 01-.26-2.22zm1-6.55c1.45-5.84.82-4 1.69-10.16-.54 3.02-1.1 6.38-1.7 10.16zm-.19 177.59c.45.06 2.15-5.23 2.28-5.65 2.16-6.65-.29.91-2.29 5.65zm-6.08 12.93c.26-.47 4.37-7.81 3.87-8-1.1 2.4-2.37 5.03-3.88 8zM374.33 507a45.25 45.25 0 012.54-10.69 29.59 29.59 0 00-2.54 10.69zm.51-186.32a74.52 74.52 0 013.78-10.79c-.3.47-1.62 1.82-3.78 10.82zm4 138.33a135.1 135.1 0 013.87-16.31 105 105 0 00-3.83 16.3zm30.56-171.23c-4.59 1.09-24.59 4.4-29 14 6.17-10.89 32.65-14.92 29-14zm-29.26 14.39c-.6 1.2-.19.36.25-.41zm4.28 277.45c-.07.87-.18 1.49.32 1.54-.3-.22-.39-.79-.32-1.54zm3.69-36.4c.29-1.75.6-3.51 1-5.26-.43 1.77-.72 3.51-1 5.26zm22.68-180.31c-.41-2.46 1.67 5.78-6.38 22.74-3.39 7.14-8.29 19-12.9 31.39 19-47.04 20.49-44.87 19.28-54.13zm-.9 135.68a67.92 67.92 0 002.54-10.59c-.98 3.83-1.51 7.18-2.54 10.59zm1.71-149.15a38.93 38.93 0 012.14-5.92 33.26 33.26 0 00-2.14 5.92zm3.27 5.58c.76-6.06 2.2-11.38 4.52-14.27-3.54 4.15-4.31 9.67-4.52 14.25zm2.49 33.88c2.51 11.72 6.38 20.31 9.66 27.77-2.36-5.96-5.51-14.48-9.66-27.77zm1.18-103.25c0-.45.31-.82.85-1.19-.64.4-.97.73-.85 1.19zm1.38 1.55c1.64 1.34 4.84 3.43 10.27 7.08-3.19-2.21-6.61-4.56-10.27-7.08zm23.36-16.37c-42.27 24.33-16.41 10 1.07-.62zm-11.61-82.27a17.54 17.54 0 00-.43 4.95 23.83 23.83 0 01.43-4.95zm-.64 238c3.39 10.12 3.49 19.76-6 35.39 7.47-11.73 11.1-22.11 5.97-35.35zM434.58 181a15.19 15.19 0 011.52-1.86 8.61 8.61 0 00-1.52 1.86zm1.42 21c2.88 2.35 8.57 11.55 16.21 20.2-7.14-8.44-12.58-17.43-16.21-20.2zm1.46-24.23a5.29 5.29 0 001.43-2.46 10 10 0 01-1.44 2.43zm3.3-14.47a59.85 59.85 0 012.87-12.75 35.14 35.14 0 00-2.88 12.72zm17 75.93c-.13 11.16.06 16.93-1.89 21.13 2.19-3.93 2.03-7.44 1.88-21.16zm5.95-106.61c-3.67.65-6.1 1.21 1.67-.32-.59.07-1.15.18-1.68.29zm2.53-.48c-1 .19-1.26.25.62-.11zm-6.28 103a44.13 44.13 0 005.5 3.86c-2.38-1.54-4.23-3-5.46-3.88zm15.54 286.5c2.62-1.75 4.52-2.66 5.6-5.19a27 27 0 01-5.61 5.17zm6.38-182.52a114.17 114.17 0 01.74 13.85 103.3 103.3 0 00-.75-13.87zm.34 87.62c0-41.91-.22 40.78.1 83.34.76-10.02-.11-31.62-.11-83.36zm3.88 85.63c.14 4.5.41 5 .92 5.13-.51-.16-.78-1.01-.93-5.15zm3.25-379.83a15.71 15.71 0 00-2.92-.14c3.88.26 8.39 1 2.91.12zm-14.2 105.92c9.27 2.23 19.56-1.05 30.21-15.24-7.81 9.64-18 17.69-30.21 15.24zm16.24 281.8c2.78 3.3.36 1.09 16.37 11-6.9-4.64-12.69-8.54-16.37-11zm5-282.61a36.54 36.54 0 01-7 4c8.46-3.12 16.96-11.11 7.01-4zm5.82-2.87c.56.52.83 2 1 4.12-.02-2.35-.12-3.81-.99-4.12zm2.79 17.11a33.44 33.44 0 001.05 3.54c-.4-1.15-.69-2.3-1.05-3.54zm.58-108.73c-3.92-6.76 1.23 1.73 4.08 9-.88-2.37-3.15-7.87-4.09-9zM507.15 258a15.47 15.47 0 005.28 6.15 21.52 21.52 0 01-5.28-6.15zm8.78-88.08c-2.35-6.13-1.56-3.61.56 1.66-.16-.58-.35-1.09-.56-1.64zm-.26 36.41c2.3-5 2.21-6.6 5.36-7.81.09-.03-2.68-.79-5.36 7.83zm7.92-17.23c0 5.22-.28 7.46-.82 8.46 1.16-1.04.82-2.88.82-8.44zm.73 115.26c2.2-1.49 22-15.36 24.49-17.68-4.65 3.51-14.03 10.32-24.49 17.7zM536.75 452c-.2-1.05 0-.06 0 .07s.04.29 0-.07zm.84 2.54c-.32-.48.08.17.15.27-.06-.14-.1-.23-.15-.32zm1.42 2.08c-.53-.66-.62-.74.23.28zm1.53 1.73c-.33-.36-.93-1-1.3-1.45.67.76 2.13 2.3 1.3 1.4zm-2.22-2.64c.18.3.45.7-.28-.42zM547.16 293c1-.7 1.86-1.34 2.59-1.89zm.86 98.4c.18-2.64 1.69-4.39 3.27-5.94-1.6 1.47-3.11 3.16-3.29 5.91zm.57-106.58c.6.33.92.59 1 .82.05-.41-.39-.58-1-.85zM562 568.29c9.1 6.69 15 11.07 18.3 12.54zm21.4 12.58a2.29 2.29 0 00.36-1.14 2.89 2.89 0 01-.39 1.14zm4.22-264.17c-.72-2.54-.25-.94.48 1.88-.19-.64-.35-1.26-.51-1.88zm3.78 17.81c.2 1.19.38 2.37.56 3.52-.2-1.15-.39-2.33-.59-3.52zm17 209.75a98 98 0 015.6 11.68 90.11 90.11 0 00-5.61-11.68zM614 556c.16.43.34 1 .44 1.22-.18-.45-.33-.86-.44-1.22zm3.1 77.44a29.94 29.94 0 015.39-8.61c-2.13 1.67-3.99 4.59-5.44 8.57zm21.19 0c-2.43-5-5.09-8.06-7.74-9.49 5.19 3.45 10.1 14.36 7.69 9.42zm7 15.43c1.79 4.57 3.32 9 4.49 12.62a109.84 109.84 0 00-4.52-12.69zm10 10.57c.06-1.75.1-3.39.14-5-.12 1.56-.15 3.18-.21 4.93z"/><path d="M343 578.9c-.28.72-.37 1 .22-.55a9 9 0 00-.22.55zm79.1-296l3.78-2.22q-1.81 1.02-3.78 2.19zM504 140.74c.29.38.57.78.85 1.2a10.88 10.88 0 00-.85-1.2zm107.8 410.11c.45 1 .88 1.9 1.28 2.84-.44-.94-.87-1.88-1.33-2.84zM614 556s-.3-.74-.31-.76c.36.98.66 1.86.31.76zm-77.25-104a1.66 1.66 0 000 .27 1.93 1.93 0 010-.27zm1.81 4c-.08-.09-.51-.6.05.06zm-.67-1c.42.67.59.93.15.22zm.85 1.21c.48.65.62.81-.13-.18a.55.55 0 00.13.2zm-.7-1c-.54-.65.57.84.52.75-.19-.21-.35-.47-.56-.72z"/><path d="M657 624.28c-6.07-11.6-16.85-24.25-16.65-26.9.69-9.25-3.3-18.14-2-27.41.17-1.23.54-2.89-.07-3.69-2.69-3.59-1.38-7.65-1.82-11.49s-1.38-7.62-1.81-11.45c-.76-6.61-.45-13.49-2.21-19.8-1.17-4.17-.06-9.32-2-12.2-2.14-3.36-.51-7-3.07-10.21-2.11-2.64-.88-7.66-2.33-11.13-2.77-6.67-3.08-14.39-8.77-19.9-20.42-19.8-14.82-116.54-17.46-118.57-3.13-2.39-1.34-5.75-1.85-8.66-11.86-66.72-2.32-30.24-79-77.43-12.41-7.65-12.11-15.73-12.46-35.56 0-1.49 4.54-5.77 5.72-7 6.81-7 7.2-21 14.46-22.15 2.83-.46 6.35-22.7-1-24.52-5-1.22-5.72-10.67-6.8-14.19-2.76-8.88-8.85-27.65-19.42-31.41-12.38-4.4-37.72-7.4-46.5 2.8-2.81 3.27-15.89 12.95-15.11 26.73.19 3.45-1.53 7-1.57 10.48a10 10 0 01-3.16 7.24c-8.38 8.91-2.74 25.22-2.3 25.3 8.61 1.65 25.19 27.38 25.28 29.21.75 14.83 1.77-.3-1.35 27.94-.17 1.64-25.32 14.46-29.72 16.82-23.16 12.42-45.66 6.89-50.71 31.65-17.64 86.48-12.59 123.93-33.11 156.39-11.73 18.53-8.72 29.53-10.77 35.94-1.05 3.33-1.83 6.49-1.38 9.66.55 3.88-1.86 6.91-2 10.51-.32 6.65 1.23 13.49-1.87 19.89 1.38 13-2.73 25.7-1.86 38.67.52 7.82-.94 25.51-2.8 29.85-9.86 22.91-6.92 25.91-6.62 39.38.37 17-3.39 13.3 9.51 46 2 5 7.19 2.61 7.33 1.84 3.6-18.8.55-17.07 2.16-19.77 3.23-5.45-.24-14.69 5.41-41 .3-1.35.53-2.63 1.92-1 2.53 3 5.84 5.15 7.71 9 2.48 5.06 12.52 11.63 14.42 8 1.2-2.27 3-5.79 2.05-7.29-2.24-3.61.23-12.83-11.15-37.71-4-8.7-11.44-9.76-9.14-16.8 4.05-12.4 10.43-23.86 14.93-36.08 6.35-6.09 8.06-14.92 13.07-21.86 10.38-14.39 10.83-53.18 11.3-68.53.51-16.4 19.15-61.59 26.41-78.34 3-6.94 7.63 20.76 16.19 36.69 14.53 27.08-11.67 39.38-16.53 63.69-4.4 21.91-2.71 10-11.13 25.38-.33.59-16.79 25-14.86 39.87-3.81 5.85-.3 12.7-2.53 18.69-2.39 6.35-.38 12.86-1.3 19.2-1.05 7.16 2.22 13.83 1.9 20.83-.25 5.46.49 10.48 3.78 14.84.64-.81 1.58-1.51 1.86-2.43 1.11-3.74-1.7-6.92-1.78-10.47-.17-6.88.08-13.78-.11-20.66-.17-5.45-2-2.92 96.42-67.21 1.86-1.23 4-2.82 7.33 0 5.31 4.51 78.1 50.89 88.51 60.68 9.59 2.55 6.8 9.74 7.26 28.8 0 .63.94 1.25 1.43 1.87.76-.69 1.89-1.24 2.17-2.08 0-.11 1-47.24-1.58-62.16-4.12-23.34-21.62-53.76-26-69.17-9-31.33-25.55-17-13-52 7.6-21.23 4.24-22.24 5.06-37.37.24-4.62 5.94-.84 5.61-8.78 0-.47.6-1 .92-1.45a6.41 6.41 0 01.9 1.51c16.82 72.83 21 72 18.79 100.23-2.18 27.24 33.67 57 37.55 97.16 2 21.12-3.48 23.62-1.77 30.21-2.81 3.79-.42 8.84-2.2 12.22-3.07 5.84-.73 11.56-1.4 17.25-.41 3.42 5.46 7.37 7 1.8s5.44-9.66 7.84-14.63c4.82-10 18.78 30.21 22.57 40.12.48 1.25 2.38 10.14 5.79 8.93 1.44-.52 3.3-2.17 3.47-3.55.49-3.85 2.62-7.22 2.26-11.43-.35-4-1.83-8.67 1.66-12.35.58-8.76.16-17.64-3.92-25.48zm-204.69-402c-4.45-4.44-13.06-17.75-17.17-20.95a9.91 9.91 0 01-3.87-7.8c-1-14.5 9.17-11.3 9.51-30.24.24-13 8.1-28.06 22.95-30.68 19.89-4.14 10.77-1 22.72-.21 18.67-.41 22 16.29 28.15 33.92 8.23 22.22 9 6.19 9 22.82 0 7.6.68 7.8-2.56 9.42-5.81 2.23-1.79 7.49-15.63 24.61-3.01 5.97-24.41 32.91-53.13-.91zM353.1 555.85c-17.29 34.25-17.15 42.33-8.86 48.77 6.75 5.28 9.53 19.25 11.44 25.75 2.16 8.35 3.13 1.68 1.49 16.91-4.42.6-3.94-3.8-5.86-5.74-12.08-12.08-12.68-15.2-18.81-6 0 .09-3.91 40.45-4.57 48.89-.16 2.16-1.94 3.22-3 4-3.87-8.12-11.41-33.69-10.21-42.63 2.5-12.52.72-13.79 3.81-17.34-.65-5.15 7.62-22.28 7.52-34.45 0-5.64-.91-11.46.2-16.86 1.94-9.46.36-19.12 2.06-28.3 1.36-7.38 1.09-14.57 1.47-21.84.16-3.09 1.8-5.82 2.12-8.92 44.19 19.48 42.1-4.09 21.2 37.76zm129.21-45.79c0 6.35-1.2 7.88-5.92 11-84 54-92.54 65.06-92 58.6.77-8.18-.7-16.31 1.47-24.68 4.34-16.63.91-22.93 16.06-42.15 16-20.28 2-17.37 23-50.8 13.35-21.87 7.75-31.71 2-45.32-16.37-39-15.18-67.81-7.22-76.39.37-.4-.5-2-.78-3-2.41.76-1.85-.38-3.57 2.85-5.78 10.49-4.58 15.56-4.7 22.37 1.73 20.69-39.38 74-33.88 133.83a45.25 45.25 0 00-2.44 10.63c0 5.3-3.83 16.55-4.44 16.47-19.58-1.27-38.14-10.52-38.14-11.34.1-1.64 1.21-6.61 1.27-6.85 4.3-23.29-.6-15.64 9.53-34.94 4.06-7.74 14.67-24 15.3-38.67.41-9.68 5.16-18.67 4-28.48 1.63-2.37 8.94-96.89 24.21-107.39 9.34-6.41 24.22-7.55 26.1-9 2.08-1.52 4 3 6.24 4.49 55.87 37.67 53 38.32 57.69 40 5.23 1.74 6.56 3 6.56 25.93-.02.17-.33 152.78-.34 152.84zm2.34-178.6c-.77.43-64.71-44.22-64.8-44.31-2.62-2.1-1.7-2.07 6-6.5 33.14-19.38 31.72-14 31.87-41.45 0-7.75-.15-5.26 7.7-.22 20 11.93 32.8-4.09 35.53-4.09 5-3.76-1.76 18 11.45 29.28 5 5 37.18 20.74 37.18 21.45.42 1.02-40.21 29.77-64.93 45.84zm109.48 187.92c-8.34-15.53-14.08-31.38-12.13-48.82 1.41-12.6-2.55-24.42-6-36.09-5.46-18.49-12.19-48.25-12.48-49.24a71.5 71.5 0 01-2.28-26.33c.61-6.49-3.38-11.79-4.74-17.78-.13-.57-1.68-.82-2.57-1.22-.45 1.06-1.89 1.07-1.12 3.4 2.19 6.67 5.68 13.13 4.76 20.65-.63 5.06-2.47 9.87-2.26 15.19s-6.83 6.06-7.26 12.23c-1.06 15.43 2.56 14.37-2.59 28.67-.91 2.52-8.48 27.79-8.57 28.33-1 5.2 1.39 7.55 5.06 11.39 13.55 14.17 12.34 22.9 26.21 53.28 5.32 11.73 17.7 35.28 15.6 66.69-.78 8.81-28.82-20.46-89.49-56.66a13.36 13.36 0 01-2.87-2.82c-.5-.33-4.14-2.75-4.27-2.75-2 0-1.12-91.42-1.12-91.33 0-98.93-4.18-86.58 11.54-98 2.56-1.86 52.18-37.09 52.27-37.09 4.77-3.61 2.55-4.92 22 4.64 9.27 4.55 9.78 3.62 12.71 11.25 3.68 9.56 9.35 36.87 8.66 47.1 3.36 5.39 1.67 11.37 1.8 17.08.28 10.95 3 8.63 1.68 26.89-1.19 15.87 1.8 13.81 2.17 37.3 11.57 44.31 6.49 22.46 17 42.12 5.58 10.95 5.29 19.81 9.41 32.42.75 1.82-27.35 11.39-31.12 9.5zm61.32 130.36c-.16 10.39-.07 11.93-1.07 15.54-2.35 8.44-2.45 2.7-4.63-3.86C644 643.92 631.87 612 621 626.51a29.55 29.55 0 00-4.19 7.58c-1.79-3.81-1.7-18.73 2.5-28.93.5-1.21.3-30.73.11-31.8-.56-3.15-2.25-3-3.07-8.49a39.4 39.4 0 00-1.71-7c-20.35-50.87-30.3-23 11.68-42.68.4 3.17.69 6.34 2.59 9.13.29.43-.45.05 2 25.49.36 3.84 2.47 7.3 2 11.45-.48 3.83-.4 7.74 1.6 11.5 1.48 2.75-1.55 1.47 2.19 27.29 19.86 30.89 19.11 26.95 18.75 49.69z"/><path d="M367.68 528.47c1.72.49-15.33 22.91-27.95 59.53-4.08 11.88 4.36 15.19 8 20.52 3.89 5.9 6.12 14.37 7.82 21.26 2.09 9.39 3.42 1 1.64 17.5-4.32.58-3.33-3-6.87-6.78-10-10.13-11.26-12.68-15.88-8.07-4.86 5.62-.85 9.13-3.18 16.08-4.71 40-1.28 35.91-6.27 40-3.45-7.24-12.8-37.37-9.76-44.47 2.1-5.19-.53-11 3.36-15.5-.65-5.15 7.62-22.28 7.52-34.45 0-5.64-.91-11.46.2-16.86 1.94-9.46.36-19.12 2.06-28.3 1.36-7.38 1.09-14.57 1.47-21.84.16-3.09 1.8-5.82 2.12-8.92a139.64 139.64 0 0035.72 10.3z" fill="#eccbc7"/><path d="M476.39 521c-44.76 28.77-89.59 60.27-91.65 60.14-.56 0-1.5-45.08 15.53-66.28 18-22.44 5.17-23.14 22.74-49.8 27.86-41.79-9.59-42.76-8.14-110 .1-4.6 1.26-10.49 4.52-14.3 1-1.14.39-.72-.37-3.46-2.07.65-2-.8-5.28 6.23a34.52 34.52 0 00-2.95 19.39c2.34 17.53-39.36 74.28-33.92 133.43-2.46 6-2.42 12.36-3.94 18.78 0 .09-2.35 8.47-3 8.38-19.58-1.27-38.14-10.52-38.14-11.34 0-.09 4.07-22.61 4.07-25.85 3.48-16 21.1-33.15 22-54.61.41-9.68 5.16-18.67 4-28.48 1.4-2 9.42-95.2 22.17-105.83 10-8.37 26.06-9 28.14-10.52s4 3 6.24 4.49c58.16 39.22 52.26 38.05 57.69 40s6.56 4.28 6.56 25.93c-.03 163.95 2.44 158.04-6.27 163.7z" fill="url(#b)"/><path d="M581.65 480.14c-.82-17.32 4.29-11.89-5.68-45.67-5.46-18.49-12.19-48.25-12.48-49.24a71.5 71.5 0 01-2.28-26.33c.61-6.49-3.38-11.79-4.74-17.78-.13-.57-1.68-.82-2.57-1.22-.45 1.06-1.89 1.07-1.12 3.4 7.64 23.27 4.86 12.75 2.48 36.53-.16 2.24-2.36 4-4 5.6-4.38 4.3-3 6.67-3.24 8.43-1.56 11.93 2.8 8.55-2.76 26.61 0 .09-9.52 28.47-8.42 32.11.9 5 9.22 8.61 16.12 23.24 2.81 5.61 4.35 11.9 10 25.4 12 29.29 20.51 36.29 20.77 78 0 9.38-19-12.32-76-47.87-16-9.93-13.59-7.75-16.37-11-.23 0-1.45-2.36-4.26-2.75-1.33-1.33-1.13-5.15-1.15-10.89-.68-176.86-3.28-167.51 8.69-176.36 50.62-37.45 38.81-27.47 51.71-36.74 8.9-6.31 5.62-7.35 20.72-.12 16 7.53 15.17 4.68 20.48 23.3.22 0 6.35 26.32 5.61 37.33 3.36 5.39 1.67 11.37 1.8 17.08.32 12.5 2.89 4.75 1.49 29.82-.6 13.05 2 12.3 2.36 34.37l7.53 28.82c15.76 17.18 13.25 28.4 18.9 45.72.21.54-13.44 8.48-31.09 9.54-6.7-12.68-11.79-25.26-12.5-39.33z" fill="url(#a)"/><path d="M654.38 665.28c-2.36 7.7-2.09 3.79-4.63-3.86-5.81-17.8-17.81-49.5-28.76-34.91a29.55 29.55 0 00-4.19 7.58c-1.79-3.81-1.7-18.73 2.5-28.93.5-1.21.3-30.73.11-31.8-.56-3.15-2.25-3-3.07-8.49a39.4 39.4 0 00-1.71-7c-20.46-51.14-30.27-23 11.68-42.68.4 3.17.69 6.34 2.59 9.13.29.43-.45.05 2 25.49.36 3.84 2.47 7.3 2 11.45-.48 3.83-.4 7.74 1.6 11.5 1.48 2.75-1.55 1.47 2.19 27.29 0 .63 16.47 24.15 17.92 30.18 1.58 3.31.9 30.95-.23 35.05z" fill="#eccbc7"/><path d="M523.59 189.12c0 8.2.56 7.86-2.56 9.42-5.26 2-1.48 5-14.84 23.53-32.92 45.27-61.36-13.19-71.08-20.76-5.1-4-6.16-15.07 2.34-23.57 5-6.21 1.22-15.48 6.17-27.22 1.66-6.61 10.78-16.09 19.52-17.82.09 0 14.68-2.85 15.65-2 3.25 2.8 7 1.26 10.55 1.84 25.75 4.13 22 43.65 33 47 1.66.52 1.25 7.46 1.25 9.58z" fill="#f2beb5"/><path d="M549.61 285.61c0 2.1-63.31 44.93-65.44 46.14-64.22-44.66-63.63-43.91-64.32-44.6-2.59-2.12-2.71-1.63 12.87-10.4 25.54-14.39 24.87-11.93 25-38.1.07-13.07 5.09 5.48 27 2.31 6.83-1 15.6-6.92 17.49-6.18s.6 12.75 2.77 17.11c6.02 20.53 44.86 31.16 44.63 33.72z" fill="#eccbc7"/><path d="M751.82 699c-4 0-1.64-2.67-6.61-13.82-5.54-12.41-2.67-11-4.6-13.26-2.39-2.8.49-1.26-1.86-6.53-2.27-5.08-.46-7.36-1.15-19.11-1.1-17.71 9.64-36.92 9.48-47.82 0-1 4.52-108.85 14.52-123.31a65.07 65.07 0 005.13-9.61c9.61-20.65 8.61-.33 19.6-80.75 11.63-85.09 16-76.28 15.21-84.46 30.4-27.49 12.4-2.05 70.18-34.33 9.31-5.2 10-11.9 10-24 0-8.92 1.18-13.55-19.9-34.69-9.09-9.11-6.7-14.34-7.65-21.25-1.09-7.9 7.54-6.4 7.68-17.69 0-2.74 1.43-5.3 1.7-7.78.32-2.77-1-6.22.38-8.69 15.17-26.23 18.29-24.07 35.16-24.07 18.59 0 29.6-2.73 38.19 12.9 12.78 23.28 6.86 32.88 15 34.5 3.33.66 3.6 8.81 3.46 13.61.81 9.65-3.19 12.78-6.11 15.07-6.55 5.14-.86 5.31-10.22 16-3.62 4.12-8.24 9.91-7.08 21.39.47 4.75 4 19.55 6.65 21.1 68.32 40.22 72.14 27.35 77.05 42.8 3.3 10.38 7.2 20.55 7.4 31.67 6.82 10.19 2.13 111.5 15.65 125.52 17.24 17.87 22.95 71.77 26.74 107.44 1.77 16.77 3.31 31.25 5.27 33.35 5.06 5.46 16.8 23.45 16.34 33.16-1 21 1.63 14.67-1 28.68a57.58 57.58 0 00-1.13 8.48c-.05 1.54-2.27 4.56-4.82 4.56-8.3 0-9.95-32.76-25.62-48.75-2-2-1.89-2.89-9.72 12.47-2.39 4.68-2.42 4.57-5.84 4.57-2.26 0-2.91-1.3-2.71-3.56.34-3.71-.79-16.16.85-21.94 2.34-8.31-.45-9.83 2.86-12.45-.26-8.52 3.5-16.66 1.88-24.85-9.33-47.27-11.86-29.77-35.5-84.67-2.72-6.3-4.31-40-4.08-45.78.27-6.17-3.28-8.67-9.66-36.08-8.32-35.73-6.74-32.28-7.59-31.68-6 4.21-5.83 10.5-5.18 16.58 1 9.17-1.89 17.5-4.68 25.56-13.78 39.76-5.52 6.73 17.52 68.13 14.68 39.11 16.59 33.09 18.29 43.51 1.45 9 3.25 5.81 2.69 9.48-1.25 8.22 2.13 5.06 1.89 36.57-.22 27.62 1.24 27.86-3.28 30.85-2.09 1.39-5.49-5.47-3.9-7.42 2.46-3 3.78-53.35-7.23-78.3-13.48-30.6-17-32.59-19.35-47.66-.38-2.45-.36-2.59-6.64 1.86-1.76 1.25-53.39 36.63-55 38.1-4.57 4.21-8 7-13.7 3.34-77.92-50.22-63.25-55.4-69.08-28.08-2.77 13-23.57 30.2-23.14 53.2 0 .36 0 .23-.15.52-3.83 5.85-1.12 13-3.21 19.95-2.78 9.17 1.92 47.18 3.13 49.3.52.86.13 1.93-.25 3-1 2.72.22 2.43-2.74 1.23-3.26-1.31-3.9-.1-5.41-16.28-1.61-17.11-4.85-75 20.8-102.29 3-3.23 7-12.51 7.07-16.95 0-2 .07-4.3 1.44-6.3-1-4.9 1.45-8.41 3.78-11.82 18.63-27.17 19.77-26.86 8.07-57.66-11.61-30.55-9.44-29.76-10-31.13-6.51 14.79-26.39 70-26.28 73.24.66 5.38-.09 10.73-.82 15.91-2.83 20.06 1.63 10.83-3.56 37.4-6.43 33.66-15.43 27.72-34.77 81.14a8.3 8.3 0 002.6 9.81c12.3 9.87 22.5 54 12.21 54-8.71 0-17.34-16.83-19.62-17.17-3.15 2.36-3.17 3.4-3.3 8.32-.37 15.13-2 14.16-3.38 34.62-.85 12.57-1.27 19.1-8.35 19.1zm132.71-444.23c-1.72 8.78-1.85 9-7.85 12.94-10.94 7.21-29.9 19.52-43.54 21.89-7.4 1.26-22.13 6.46-24.34 13.34-14.8 45.84-17.8 106.42-18.92 107.3-2 1.56-2 3.18-1.84 5.63.39 7.36-.94 2.84-3.06 17.13-7.18 48.44-24.42 22.56-27.28 101.42-.3 8.33-2 5.79-1.59 13 .84 14.24-3.49 22-1.46 39.71 2 18.36-19.19 56.94-9.67 74.07.17.31.14.18.11.52-.8 8.91 6.45 20.82 7.55 26.77 2-5.84 1.35-15.53 3-24.66.92-5.23 1.63-9.34.79-14.36 2.68-3.8 1.88-10 2.07-11.32.84-6 6.45-11.58 10.86-7.36 11.76 11.07 20.5 30 11.83-3.73-9.07-35.29-26.92-17-6.4-61.23 9.18-19.76 15-28.54 15.48-29.89 26.19-52.39-3.51-40.45 33.65-135.49 13.26-33.91 11.84-30.45 12.49-39.74 1-14.76 1.85-18.4 6.91-23.16 1.64-1.55 2.77-1 3.75 1 2.13 4.41-3.79 3.79-4.07 14.7-.47 18.1-1.54 25.64-.31 27.11 5.8-.75 61.36-43 65.26-44.44 10.6-4 27.27 16.69 71.72 45.35.91-.05.9-.19.74-1.58-.53-4.81 2.38-1.53 1.88-10.05s2.69-7.84 1.91-9.29c-3.4-4.9-.74-11.61-5.1-15.51-1.32-1.17-.66-1.79 2.56-6.88 4.55 6.76 5.14 7.79 5.82 11.11 1.05 5.16 4.3 12.13.77 19.52.34 1.59 3.32 9 3.32 17.82 3.73 2.66 1 7.1 3.23 9.91 2 2.59.61 7.15 2.15 10.49.09.19 10.87 42 11 42.42 5.66 23 1 33.26 2.87 42.47.29 1.3 7.84 25 14.31 31.82.22.23.16.13.23.44 1.5 7.23 8.29 10.64 10.64 17.94.87 2.59 8.38 19.22 11.19 32.66 5.41 24.64-9.27 67.42-3.51 57.56 17.46-29.84 25.27 11 36.4 35.51.74-7.95 2.63-7.86 1.69-19.27-.67-8.28 1.76-9.4-.34-15.64-7.27-21.67-18.9-20.68-20-43.43-1-20.67-3.34-22.38-2.06-30.14.2-1.08-3.17-1.43-1.76-10.18.37-2.26-.12-3.7-1-6-1.43-4-5.93-63-21.3-74.28-2.76-2.05-1.38-3.7-5.57-14.6-6-15.62-6.39-45-8-73.36-5.23-96.4-16.81-77.69-43.25-93.52-45.78-23.44-47.4-23.59-48.81-47.7-.21-3.57-.57-4.22-.77-4.42-2.31 1.17-12.18 9.08-23.72 9.08-12.88 0-18.37-9.38-19.91-9.38-1.3 0-.75 3.78-.34 5.35 1.61 6.93-.5 14.61-.41 14.63zm23.57 88c-.58.11-2.36 1.94-3.59 3.11-6.66 6.34-13.65 8.25-38 26.52-18.18 12.78-23.81 13.84-21.7 18 5.14 10.17 6.35 21.82 12.36 31.42 3.37 5.47 3.11 11.16 4.51 18.17 1.92 8.79-12.09 26-15.09 31-2.71 4.5-2.33 4.62 1.85 7.27 12.28 7.78 52.35 36 60.07 41.39 0-.16 1.49-175.09-.41-176.92zm7.38.72c-1.78 11.44-1.14 118-.51 175.93 58.61-42.22 63.14-41.91 63.08-44.34-.11-1.8-8.92-14.16-12-17.47a12.41 12.41 0 01-2.25-12.83c3.15-8.65 4.88-17.89 8.91-26.44 3-6.39 1.84-13.84 1.91-20.84-3.2-2.58-1.94-5.73.58-8.91 2.69-3.42-13.72-14.59-59.72-45.14zm-43.4-193.71c-7.89 26.83-2.42 24.36-9.27 31.62-3.58 3.79-2.8 4.55-3 9.31a14 14 0 00.17 4c2.63 11.92 2.62 1.36 8.29 11.56 3.83 6.91 2.49 1.8 9.77 12.46 10.41 15.26 24 20.35 29.25 20.35 8.9 0 20.15-10.75 25.79-17.91 5.3-6.79 6.7-11.16 9-16 3.75-7.78 9.64-8.67 8.19-14.91-.92-3.69 1.52-7.33-1.24-8.54-5.87-2.61-6.71-7.37-7.94-13.55 0-4-6-29.85-19.85-33.78a22.44 22.44 0 00-6.44-.89c-10-.54-6.38-1.87-10.47-1.87-6 0-18.4 3.32-19.8 4-3.8 3.96-11.25 10-12.45 14.11z"/><path d="M842 366.38c0-10.65-1.19-18.62 4.59-25.37.34-.39-.22-1.81-.68-2.57-1-1.73-1.73-.29-2.64.35-6.52 4.6-5.22 21-7 32.82-.83 5.36-29.8 65.9-31.76 96.69-.25 3.79 2.31 42.87-13.26 67.81-8.46 13.56-20.47 39.49-23.5 49.42-1.21 4-.82 8.5-.86 12.77 0 3.61 11.44 6.62 16.84 36.2.7 3.8 2.95 7.4 1.77 11.4-2.59 8.81-16.36-23.35-23.1-13.8-6.41 9.07-.69 11.51-5 17.63 1.45 8.66-2.33 16.9-2 25.53.17 4.72-1.09 9.49-1.78 14.23 0 .33-1.64 1.22-1.81.07-1.47-9.58-8.47-17.67-7.55-27.88-9.53-17.11 11.48-57.68 9.56-74.4-1.67-14.52 1.39-28.15 1.66-32.08.31-4.68-1-9.72.32-14 1.89-6.07.72-12.16 1.77-18.06 6.11-34.41-1.32-27.76 14-56.15 1.17-2.18 9.92-11.19 12.24-30.65.56-4.71.42-10 2.64-13.87 2.47-4.31-1.54-9.53 2.93-12.94.11-.08 3.29-40.44 5.33-45.67 1.64-4.23 1.42-9.47 1.85-14.15 1-11.06 4.54-21.5 6.19-32.36.77-5 3.65-9.73 5.25-14.68 4.64-14.31 27.3-6.08 73-39.08 1.27-.92 5-16.35 3.37-22.19-.54-1.94-1.62-6.76.31-7.33 3.37-1 6.5 10 24.28 9.24 9.64-.39 14.15-6.65 20.55-9.36 3.6 12.27-1.21 24.16 12.22 32 14.1 8.2 28.1 16.56 43 23.2 29.69 13.19 27.3 6.46 36.46 67.65 1.24 8.3 0 16.62 1.62 24.61 2.9 14.46.69 29 1.82 43.39 1.58 20.17 7.58 32.63 9.15 38.42 2.64 9.74 6.73 2.41 13.12 24.62 9.78 34.05 5.12 32.12 8 38 2.14 4.34 1.21 8.39 1.46 12.53.21 3.63 2.78 6.56 2.14 10.52-.5 3.11-1.22 6.78 1.7 9.54.15.15.06.62 0 .92-1.43 8.66 2.24 16.91 2 25.52-.54 22.41 9.71 26.14 14.06 34.52 11.54 22.21 4.7 16.63 6.56 31.11.8 6.2-1.52 12-2 18-.52 6.62-8.62-19.22-9.24-21.54-2.11-7.88-7.58-13.76-11.12-20.77-2.35-4.64-8.58-5-12.15.16-2.09 3-3.26 5.35-6 9.72-.32-.5-1-1-.89-1.48.62-3.51-.79-7 1.39-10.73 2-3.36.42-8 2-12.26 1.93-5.2 1.8-11.25 2.12-17 .82-14.76 1.45-14.71-6.69-39.47-7.59-23.09-14.15-22.47-15.89-31-7.36-7.73-9-18.19-13-27.5-6.25-14.57 4.67-19.19-7.84-59.71-2-6.41-2.79-13.1-5.32-19.38-1.3-3.23-.73-7.25-2.17-10.37-1.63-3.52-.29-8.05-2-10.31-2.53-3.25.4-7.73-3.43-10 .08-6.33-1.43-12.36-3.38-18.32a20.36 20.36 0 00.45-14.6c-2.63-7.15 1.1-3.63-6-14.35-2.41 3.86-2.63 3.94-2 4.52 4.73 4.23 2 11 5.26 15.69a1.93 1.93 0 010 1.81c-4.11 4.58.49 11-3.33 15.54-1.32 1.56 1.38 5.06-2.21 5-.11 0-59.73-41.36-62.52-44.19-7.86-8-14.23 5.28-59 33.6-18.3 11.63-15.86 17.8-15.86-5.18z" fill="#eccbc7"/><path d="M913.48 431.28c0-89.82-.21-86.38.57-89.86 3.07 1.93 11.77 8.19 15.05 10.54 48.66 34.88 49.9 33.3 46.67 37.39-1.32 1.67-3.91 5-.22 7.66-.12 7.29 1.2 14.89-2 21.68-4 8.49-5.69 17.66-8.88 26.37a11.58 11.58 0 002.06 11.94c4.14 4.45 7.1 9.59 10.51 14.48 4.73 6.77 2.5 3-42.2 35.09-6.51 4.68-13.93 8.06-19.62 13.89-2.72 2.73-1.94 4.24-1.94-89.18z" fill="url(#c)"/><path d="M909.09 521.12c-9.35-6.34-25-18-39.91-27.75-43.06-28.1-19.93-11.61-8.69-49.65 1-3.24-1.26-16.91-4.12-21.48-6.11-9.75-7.28-21.37-12.39-31.48-1.23-2.42.24-4.92 2.59-6.33 13.17-7.9 62-42.62 62.61-43 .82 3.88.95 175.42-.09 179.69z" fill="url(#d)"/><path d="M951 189.29c2.42 8-5.45 9.14-8.13 16.36-5 13.34-16.44 27.66-31.61 33.34-8 3-18.93-4.16-25.59-9.51C880 225 875.47 215 870.8 211.44c-3.61-2.76-3.41-8.52-8.92-9.75-1.43-.32-2.3-4.43-2.86-6.92-.46-2.09 0-4.36-.11-6.55-.31-8.7 7.92-6.64 7.66-18.47-.06-2.54 1.23-5.09 1.73-7.66 2.58-13.19-1.51-9.65 15.65-27.29.86-.87 20.9-5.41 22.54-4.07 5.27 4.28 20-2.94 27.55 14.25 11.81 27.08 6.69 32 15.36 35.84 3.39 1.49 1.14 5.64 1.6 8.47z" fill="#f2beb5"/><path d="M857.63 185.28s15.85 52.83 48.78 53.18S957 183.75 957 183.75s-3.52-57.95-19-66.07-42.26-12.34-46.31-6c-34.2 53.41-11.24 15.74-34.06 73.6z" fill="#eccbc7"/><path d="M899.31 161.55c-4.77-.34-5.61-5-29.63-1.8-.22-2-.29-4.31 1.64-5.13 3.2-1.36 26.58.17 28.14 3.27.4.81-.1 2.78-.15 3.66zm18.59 0c4.77-.34 5.61-5 29.62-1.8.23-2 .3-4.31-1.63-5.13-3.2-1.36-26.58.17-28.14 3.27-.4.81.1 2.78.15 3.66z" fill="#704b3c"/><path d="M904.74 85.61s7.39-4.22 19.54 0 13 1.32 18.76 4.49 16.64 9.78 19.54 14.8 12.68 26.67 12.16 32c-1.18 11.72-.4 10.64-7.4-14 7.92 29.93 6.49 57-10.3 79.24 0 0-.27-16.11-.27-13.47s-14.79 24-14.79 24l5.81-14.79c-24.87 24.87 8.86-3.16-8.25-34.05.28-9.54 2.61-3.72-11.84-24.34 1.27 40.75 2.56-.08-16.89-19-16.14 16.1-14.88 63.51-12.15 5.51-62.88 38.55-3.13 114-34.86 70.79 3.32 14.28 4.31 12.5-2.38 7.92l7.66 14.29c-22.06-24.5-16.15-22.54-21.4-34.33 0 0-15-20.34-15.58-28s-.53-21.13 2.11-27.21S849 99.61 854.55 94.59s16.91-11.88 21.13-12.68 14.79-1.58 19.28 0c9.64 3.4 6.4 4.93 9.78 3.7z" fill="#8c6239"/><path d="M904.74 85.61c7.48-3.6 15.94-1.39 23.36 1.18 3.84 1.29 7.91 1.17 11.83 2 3.82 1.24 7.13 3.65 10.56 5.69a78.67 78.67 0 016.51 4.58 24.33 24.33 0 015.58 5.74 158 158 0 016.82 14.49c2 4.95 4.1 9.91 5.21 15.15.51 2.66-.15 5.34-.35 8-.64 5.28-2.4-2.89-2.83-4.12-1.43-5.14-2.84-10.29-4.32-15.42l.38-.1a144.9 144.9 0 014 20.35c2.65 20.58-1.24 42.53-14.09 59.22l-.83 1.1v-1.37l-.22-10.59c0-.35-.06-2.83-.08-3.12v.12c0-.31-.16.75 1 0 .05-.24 0-.06 0-.12v.07a2.47 2.47 0 01-.11.79 37.3 37.3 0 01-3.12 6c-4.56 7.55-9.66 14.95-14.61 22.25 1.24-3.25 6.37-16.35 7.72-19.86l1.09.71c-1.73 1.75-3.44 3.5-5.14 5.27l-2.55 2.67a10.48 10.48 0 01-2 1.8.76.76 0 01-1.05-.65 4 4 0 01.52-1.47c6.68-13 8.24-29 .65-41.94-.06-2.23.62-4.85.07-6.93a30 30 0 00-3.6-5.71c-2.74-3.78-5.49-7.58-8.19-11.41l1.54-.51c.12 5.83.57 11.63.62 17.48a.9.9 0 01-1.59.54 2.93 2.93 0 01-.41-1c-3.11-12.7-7.56-25.91-17-35.32h1.28c-3.67 3.71-6.15 8.55-8.14 13.47A108.25 108.25 0 00898 154a1.22 1.22 0 01-.36.75c-.14 0-.33.48-1.2-.06-.37-.61-.12-.24-.21-.41a1.22 1.22 0 010-.17v-.25c0-.95.18-2.62.25-3.57.57-7.82 1.06-16.46 1.44-24.25l1.26.74c-26.42 15.66-34.85 42.64-27.6 71.71.78 3.79 2.22 7.33 2.89 11.15a1 1 0 010 .25.7.7 0 01-.7.53c-.95-.19-1.45-1.31-2-1.93-2.82-3.75-5.49-7.54-8.25-11.3l1-.45c.76 3.59 1.86 7.05 2.55 10.67a1.45 1.45 0 01-.12.85c-.57.81-1.61-.1-2.12-.48-1.16-.9-2.29-1.77-3.48-2.59l.69-.63c1.2 2.26 8.28 15.52 9.32 17.49l-2.4-2.71c-4.53-5.13-9.09-10.24-13.12-15.79a34.27 34.27 0 01-5-9 84.9 84.9 0 00-3.22-9.63c-5.54-8-11.35-15.94-14.82-25.05-1.08-3.11-.82-6.44-1-9.68s.05-6.48.29-9.71a43.94 43.94 0 011.62-9.58 89.05 89.05 0 014.09-8.81c2.94-5.77 6-11.47 9.35-17a84 84 0 015.38-8.08c4.14-5 10-8.31 15.47-11.6 2.83-1.52 5.72-3.21 9-3.62a72.78 72.78 0 019.5-.79 25.16 25.16 0 0114 3.34 13.82 13.82 0 012 1.38 1.14 1.14 0 001.12.28 9.21 9.21 0 001.16-.37zm0 0a9.21 9.21 0 01-1.16.37 1.16 1.16 0 01-1.12-.27 14.14 14.14 0 00-2-1.38 25.17 25.17 0 00-14-3.3 74.37 74.37 0 00-9.66.73c-3.22.42-6.1 2.12-8.92 3.63-5.48 3.29-11.3 6.62-15.4 11.61a85.58 85.58 0 00-5.35 8.08c-4.84 8.37-9.65 16.88-13.35 25.82-1.8 6.2-1.85 12.79-1.82 19.21.16 3.19-.08 6.51 1 9.55a51.9 51.9 0 004.22 8.68 186.52 186.52 0 0010.7 16.15 47.07 47.07 0 011.88 4.87c.53 1.63 1 3.3 1.49 4.9a33.29 33.29 0 004.94 8.81c4 5.49 8.63 10.57 13.17 15.65l-.7.49L861 205l-.94-1.74 1.64 1.11c1.53 1 3 2.3 4.48 3.2a.34.34 0 00-.28.15c-.81-4.19-2.31-8.92-3.22-13.29l1.56 2.1c3.25 4.2 6.13 8.76 9.62 12.71h-.05a.18.18 0 00-.1 0 .5.5 0 00-.49.33c-10.86-33.59-7.16-64.36 25-84.19l1.33-.82-.07 1.57c-.39 9-1 18.75-1.61 27.79v-.03c0-.03.16.23-.21-.38-.86-.53-1-.09-1.18-.06-.21.2-.23.33-.21.28-.06.13 0 0 0-.08 2.49-12 5.59-25.34 14.54-34.39 9.26 8.83 14 21.16 17.15 33.27.09.31 1 3.88 1 4a.86.86 0 00-1.08-.34.82.82 0 00-.45.53c0-.34-.05-2.08-.06-2.56-.24-5.78-.46-11.64-.62-17.43l1.65 2.27c2.67 3.83 5.4 7.62 8.14 11.42 1.39 2 2.91 3.78 3.81 6.17.7 2.37 0 4.85 0 7.25l-.1-.41a40.93 40.93 0 014.75 14.18c1.53 10.3-1.44 20.75-6 29.83a.67.67 0 00-.94-.66c3.82-3.75 7.7-7.9 11.55-11.63-.73 1.87-6.18 15.55-7 17.74l-1.07-.57c4.91-7.28 10.09-14.47 14.22-22.21a4.17 4.17 0 00.56-1.77v-.16c1.14-.78 1 .28 1 0a.53.53 0 010 .18v.51c.08 1.91.13 11.18.19 13.24l-.85-.28c12.84-16.46 16.81-38.17 14.31-58.59a144.76 144.76 0 00-3.82-20.31l.38-.11c1.45 5.14 2.83 10.3 4.23 15.45a32.35 32.35 0 001.84 5.64c.06.24.21-.21.27-.5.31-1.63.4-3.3.58-5 .62-4-1.07-7.85-2.29-11.6-.9-2.51-1.88-5-2.91-7.46a156.4 156.4 0 00-6.77-14.49 24.13 24.13 0 00-5.53-5.7 78.57 78.57 0 00-6.53-4.63c-3.4-2-6.72-4.46-10.52-5.7-3.9-.8-8-.7-11.82-2-7.41-2.59-15.85-4.82-23.34-1.24z"/><path d="M891.62 214.79l30.29-.8c-9.6 8.91-20.86 9.01-30.29.8z" fill="#df576b"/><path d="M906.76 211.7c1.91-2.39 6.8-1.45 8.46-.8C925.7 215 928 214 890.91 214c11.71-5.26 10.47-5.37 15.85-2.3z" fill="#df576b"/><path d="M904 181.36c-.81 9-13.35 14.13-6.47 16.85 9.91 3.92 8.12 3.78 19.1.69 1.86-.53 2.21-1.9 1.34-3.54-1.5-2.86-3.58-2.67-4.55-7.76-2.77-14.51 5.45-24.51 1.42-20.31-10.8 11.25.42 30.83-7.38 31.39-10.19.73-2.98-9.11-3.46-17.32z" fill="#d88e75"/><path d="M871.72 172.52c7.16 7 12.33 6 23.11 3.3-12.63-10.6-12.83-7.89-23.11-3.3z" fill="#fff" stroke="#020000" stroke-miterlimit="10" stroke-width=".84"/><path d="M887.47 173.2c0 6.2-9.37 6.2-9.37 0s9.37-6.2 9.37 0z" fill="#704b3c"/><path d="M885.64 173.2c0 3.78-5.71 3.78-5.71 0s5.71-3.78 5.71 0z" fill="#231e20"/><path d="M941.44 172.2c-7.16 7-12.32 6-23.11 3.3 12.67-10.6 12.8-7.89 23.11-3.3z" fill="#fff" stroke="#020000" stroke-miterlimit="10" stroke-width=".84"/><path d="M925.69 172.88c0 6.21 9.38 6.21 9.38 0s-9.38-6.2-9.38 0z" fill="#704b3c"/><path d="M927.53 172.88c0 3.78 5.71 3.78 5.71 0s-5.71-3.77-5.71 0z" fill="#231e20"/><path d="M883.82 172a1 1 0 01-2.07 0 1 1 0 012.07 0zm48.18-.62a1 1 0 01-2.06 0 1 1 0 012.06 0z" fill="#fff"/><path d="M431.75 185.28s15.85 52.83 48.78 53.18 50.54-54.71 50.54-54.71-3.52-57.95-19-66.07-42.26-12.34-46.31-6c-34.15 53.41-11.19 15.74-34.01 73.6z" fill="#eccbc7"/><path d="M473.43 161.55c-4.77-.34-5.61-5-29.63-1.8-.22-2-.3-4.31 1.64-5.13 3.2-1.36 26.58.17 28.14 3.27.42.81-.1 2.78-.15 3.66zm18.57 0c4.77-.34 5.6-5 29.62-1.8.23-2 .3-4.31-1.63-5.13-3.2-1.36-26.58.17-28.14 3.27-.38.81.15 2.78.15 3.66z" fill="#704b3c"/><path d="M478.86 85.61s7.39-4.22 19.54 0 13 1.32 18.76 4.49 16.64 9.78 19.54 14.8 12.68 26.67 12.15 32c-1.17 11.72-.39 10.64-7.39-14 7.92 29.93 6.48 57-10.3 79.24 0 0-.27-16.11-.27-13.47s-14.79 24-14.79 24l5.81-14.79c-24.87 24.87 8.86-3.16-8.25-34.05.27-9.54 2.61-3.72-11.84-24.34 1.27 40.75 2.56-.08-16.89-19-16.14 16.1-14.88 63.51-12.15 5.51-62.88 38.55-3.13 114-34.86 70.79 3.32 14.28 4.31 12.5-2.38 7.92L443.2 219c-22.06-24.5-16.16-22.54-21.4-34.33 0 0-15.05-20.34-15.58-28s-.53-21.13 2.11-27.21 14.79-29.85 20.34-34.87 16.91-11.88 21.13-12.68 14.79-1.58 19.28 0c9.64 3.4 6.4 4.93 9.78 3.7z" fill="#8c6239"/><path d="M478.86 85.61c7.48-3.6 15.94-1.39 23.36 1.18 3.84 1.29 7.91 1.17 11.83 2 3.81 1.24 7.13 3.65 10.56 5.69a78.67 78.67 0 016.55 4.61 24.33 24.33 0 015.58 5.74 158 158 0 016.82 14.49c2 4.95 4.1 9.91 5.21 15.15.51 2.66-.15 5.34-.35 8-.64 5.28-2.4-2.89-2.83-4.12-1.43-5.14-2.84-10.29-4.32-15.42l.38-.1a144.9 144.9 0 014 20.35c2.65 20.58-1.24 42.53-14.09 59.22l-.83 1.1v-1.37l-.22-10.59c0-.35-.06-2.83-.08-3.12v.12c0-.31-.16.75 1 0 .05-.24 0-.06 0-.12v.07a2.24 2.24 0 01-.12.79 37.25 37.25 0 01-3.11 6c-4.56 7.55-9.66 14.95-14.61 22.25 1.24-3.25 6.37-16.35 7.72-19.86l1.09.71c-1.73 1.75-3.44 3.5-5.14 5.27l-2.55 2.67a10.48 10.48 0 01-2 1.8.76.76 0 01-1.05-.65 4.14 4.14 0 01.51-1.47c6.69-13 8.25-29 .65-41.94-.05-2.23.63-4.85.07-6.93-.76-2-2.34-3.9-3.59-5.71-2.74-3.78-5.49-7.58-8.19-11.41l1.54-.51c.12 5.83.57 11.63.62 17.48a.9.9 0 01-1.59.54 2.93 2.93 0 01-.41-1c-3.11-12.7-7.56-25.91-17-35.32h1.28c-3.67 3.71-6.16 8.55-8.14 13.47a108.25 108.25 0 00-5.34 19.33 1.22 1.22 0 01-.36.75c-.14 0-.33.48-1.2-.06-.38-.61-.12-.24-.21-.41a1.22 1.22 0 010-.17v-.25c0-.95.18-2.62.24-3.57.58-7.82 1.07-16.46 1.45-24.25l1.25.74c-26.41 15.66-34.84 42.64-27.59 71.71.78 3.79 2.22 7.33 2.89 11.15a1 1 0 010 .25.7.7 0 01-.7.53c-.95-.19-1.45-1.31-2-1.93-2.82-3.75-5.49-7.54-8.25-11.3l1-.45c.76 3.59 1.86 7.05 2.55 10.67a1.45 1.45 0 01-.12.85c-.57.81-1.61-.1-2.12-.48-1.17-.9-2.3-1.77-3.49-2.59l.7-.63 9.17 17.44-2.4-2.71c-4.53-5.13-9.09-10.24-13.12-15.79a34.27 34.27 0 01-5-9 84.9 84.9 0 00-3.22-9.63c-5.54-8-11.35-15.94-14.82-25.05-1.09-3.11-.82-6.44-1-9.68s0-6.48.29-9.71a44.53 44.53 0 011.61-9.58 91.47 91.47 0 014.1-8.81c2.94-5.77 6-11.47 9.35-17a84 84 0 015.38-8.08c4.14-5 10-8.31 15.47-11.6 2.83-1.52 5.72-3.21 9-3.62a72.78 72.78 0 019.67-.71 25.18 25.18 0 0114 3.34 14.4 14.4 0 012 1.38 1.14 1.14 0 001.12.28 9.21 9.21 0 001.16-.37zm0 0a9.21 9.21 0 01-1.16.37 1.16 1.16 0 01-1.12-.27 13.68 13.68 0 00-2-1.38 25.11 25.11 0 00-14-3.3 74.37 74.37 0 00-9.66.73c-3.23.42-6.1 2.12-8.92 3.63-5.48 3.29-11.3 6.62-15.4 11.61a85.58 85.58 0 00-5.35 8.08c-4.84 8.37-9.65 16.88-13.36 25.82-1.79 6.2-1.84 12.79-1.81 19.21.16 3.19-.08 6.51 1 9.55a51.85 51.85 0 004.21 8.68A189 189 0 00422 184.49a47.07 47.07 0 011.88 4.87c.53 1.63.95 3.3 1.49 4.9a33.29 33.29 0 004.94 8.81c4 5.49 8.63 10.57 13.17 15.65l-.7.49-7.67-14.21-.94-1.74 1.64 1.11c1.53 1 3 2.3 4.48 3.2a.34.34 0 00-.28.15c-.81-4.19-2.31-8.92-3.22-13.29l1.56 2.1c3.25 4.2 6.13 8.76 9.62 12.71h-.05a.18.18 0 00-.1 0 .5.5 0 00-.49.33c-10.86-33.59-7.16-64.36 25-84.19l1.33-.82-.07 1.57c-.39 9-1 18.75-1.62 27.79v-.04c0-.04.16.23-.21-.38-.86-.53-1-.09-1.18-.06a1.17 1.17 0 00-.22.28c-.05.13 0 0 0-.08 2.49-12 5.59-25.34 14.54-34.39 9.26 8.83 14 21.16 17.15 33.27.09.31 1 3.88 1 4a.84.84 0 00-1.07-.34.82.82 0 00-.45.53c.05-.34-.06-2.08-.06-2.56-.25-5.78-.47-11.64-.62-17.43l1.61 2.31c2.68 3.83 5.41 7.62 8.15 11.42 1.39 2 2.91 3.78 3.81 6.17.7 2.37 0 4.85 0 7.25l-.1-.41a40.93 40.93 0 014.76 14.18c1.53 10.3-1.44 20.75-6 29.83a.67.67 0 00-.94-.66c3.82-3.75 7.7-7.9 11.55-11.63-.73 1.87-6.18 15.55-7 17.74l-1.07-.57c4.91-7.28 10.09-14.47 14.22-22.21a4.17 4.17 0 00.56-1.77v-.16c1.14-.78 1 .28 1 0a.53.53 0 010 .18v.51c.09 1.91.14 11.18.2 13.24l-.85-.28c12.84-16.46 16.81-38.17 14.31-58.59a143.36 143.36 0 00-3.83-20.31l.39-.11c1.45 5.14 2.83 10.3 4.23 15.45a32.35 32.35 0 001.84 5.64c.06.24.21-.21.27-.5.31-1.63.4-3.3.58-5 .62-4-1.07-7.85-2.29-11.6-.9-2.51-1.88-5-2.91-7.46a156.48 156.48 0 00-6.78-14.49 24.08 24.08 0 00-5.52-5.7 78.57 78.57 0 00-6.53-4.63c-3.4-2-6.72-4.46-10.52-5.7-3.9-.8-8-.7-11.82-2-7.41-2.59-15.85-4.82-23.34-1.24z"/><path d="M465.74 214.79L496 214c-9.57 8.9-20.83 9-30.26.79z" fill="#df576b"/><path d="M480.88 211.7c1.91-2.39 6.8-1.45 8.45-.8 10.49 4.1 12.76 3.1-24.33 3.1 11.74-5.26 10.5-5.37 15.88-2.3z" fill="#df576b"/><path d="M478.06 181.36c-.8 9-13.34 14.13-6.47 16.85 9.92 3.92 8.13 3.78 19.11.69 1.86-.53 2.21-1.9 1.34-3.54-1.5-2.86-3.58-2.67-4.55-7.76-2.77-14.51 5.45-24.51 1.42-20.31-10.8 11.25.42 30.83-7.38 31.39-10.14.73-2.93-9.11-3.47-17.32z" fill="#d88e75"/><path d="M445.84 172.52c7.16 7 12.33 6 23.11 3.3-12.63-10.6-12.8-7.89-23.11-3.3z" fill="#fff" stroke="#020000" stroke-miterlimit="10" stroke-width=".84"/><path d="M461.59 173.2c0 6.2-9.38 6.2-9.38 0s9.38-6.2 9.38 0z" fill="#704b3c"/><path d="M459.76 173.2c0 3.78-5.71 3.78-5.71 0s5.71-3.78 5.71 0z" fill="#231e20"/><path d="M515.56 172.2c-7.16 7-12.32 6-23.11 3.3 12.64-10.6 12.8-7.89 23.11-3.3z" fill="#fff" stroke="#020000" stroke-miterlimit="10" stroke-width=".84"/><path d="M499.81 172.88c0 6.21 9.38 6.21 9.38 0s-9.38-6.2-9.38 0z" fill="#704b3c"/><path d="M501.64 172.88c0 3.78 5.71 3.78 5.71 0s-5.71-3.77-5.71 0z" fill="#231e20"/><path d="M457.94 172a1 1 0 01-2.07 0 1 1 0 012.07 0zm48.13-.62a1 1 0 01-2.06 0 1 1 0 012.06 0z" fill="#fff"/></svg>