<svg xmlns="http://www.w3.org/2000/svg" viewBox="0 0 1400 780"><path fill="#bdccd4" d="M0 0h1400v780H0z"/><path d="M627 101.78c-.92 5.84-35.75 53.73-32.23 70.2s4.46 53.22 16 63.27c26.42 23 37.65 18.16 103.32 6.94 0 0 25.68-25.94 33.26-41.1s3.34-43.6-10.33-59.7c-25.13-29.52-28.61-52.03-110.02-39.61z" fill="#fad3b0" stroke="#000" stroke-miterlimit="10"/><path d="M768.76 307s-2.88.19-10.55-2.42c.3-1.15.46-1.79.46-1.79z" fill="none" stroke="#000" stroke-miterlimit="10"/><path d="M905.24 459.3c0 14-23.41 19.68-32.89 31.05s-61.77 66.41-63.09 64.47-23.31 22.69 0 28.37 38.46 15.16 38.46 15.16-8.08 17.92-22 17.48-27.8-1.42-38.59-8.73-29.52-37-22.34-52.22 19.64-30.42 30.46-39.9 31.67-50.72 41.14-55.68c8.43-4.41-19.7-27.63-27.09-33.37l-44.51-53.7 12.1-61.88c97.93 101.5 86.34 95 99.29 108 5.65 5.65 29.06 26.96 29.06 40.95z" fill="#fad3b0" stroke="#000" stroke-miterlimit="10"/><path d="M747.3 467.83c-4.16 90.44 19.77 114.46 17.25 115.43-21.44 6.65-106.1 43.32-189.5 0-.42-.23.1.05 4.34-9 7.88-16.85 8.89-21.39 8.19-72.48-.12-8.74-.46-23.57-1.33-32.28-1.9-18.95-25-21.71-25-53.05 0-28.42 4.2-22 7.39-39.72 0-.86 5.41-20-14.11-54.54-.86-1.52 19.75-9.95 19.75-9.95l6.46-5.74c6.26 12.55 11.66 23.75 15.78 40.65 9.3 37 9 13.28 24.89 42.84 14.29 26.61 23.61 5.61 58.28 9.12s35.43-11.08 50.59-26.89c13.5-14.08 25.51-58.22 28-67.67 14.38 4.89 2.28-1 18.64 5.79-15.48 79.11-9.73 64.59-3 88.77 10.6 38.5-22.3 72.79-26.62 68.72z" fill="#7054b9" stroke="#000" stroke-miterlimit="10"/><path d="M556.29 599.52c-11 7.45-25.23 8.31-38.59 8.74-14 .43-22.05-17.49-22.05-17.49s15.16-9.47 38.47-15.16 1.32-30.31 0-28.37-53.62-53.1-63.1-64.47-32.89-17-32.89-31 23.42-35.27 29.1-41c19.52-19.48 43.77-59.25 86.91-88.44.91-.33 18.72 31.47 14.47 54.4l-34.49 41.62s-36.57 28.42-27.1 33.38 30.32 46.2 41.14 55.67 23.28 24.64 30.47 39.9-11.56 44.9-22.34 52.22zm201.92-294.96c-2.45 9.45-14.46 53.59-28 67.67-15.16 15.81-15.92 30.4-50.59 26.89s-44 17.49-58.28-9.12c-15.87-29.55-15.61-5.94-24.89-42.84-4-16.58-12.65-35.93-15.72-40.54-.23-.4 9.69-8.48 16.85-11.43 2.75-1.13 5.64-3.51 8.78-5.83.27-.28 13.9-.74 20.48-18.7 5.56-15.11-.23-35.92-.23-37 31.77 7.33 38 16.17 80.7-4.16a55.63 55.63 0 00-3.67 16.78c-.72 14 4.36 15.92 4.78 23.32.94 16.1.94 11.36 26.52 24.63a172.22 172.22 0 0023.27 10.33z" fill="#fad3b0" stroke="#000" stroke-miterlimit="10"/><path d="M667.31 376.8a58.49 58.49 0 012.69 22.32m-43.35-165.43a6.35 6.35 0 00.31 1.56c-.1-.52-.2-1.04-.31-1.56zm108.2-71.61c-3.42-5.37-10.56-7.45-14-12.83-2.4-3.78-2.66-8.83-5.81-12-6.09-6.16-18.2-1.17-24.27-7.35-3.45-3.53-3.4-9.33-6.45-13.21-6.42-8.18-23.42-4.81-25.92-14.9-8.36 12.34-25 18.06-31 31.72-1.89 4.31-2.52 9.09-4.46 13.37-2.94 6.52-8.62 11.34-12.78 17.17-8.33 11.7-3 21.08-2.41 19.36 1.69 14.57 12.27 17.26 18.83 50.28 30 6.92 37.32 16.47 80.7-4.16 7.49-19.33 38.1-50.92 27.57-67.45zm-98.42 18.26c-6.23 0-6.23-23.58 0-23.58s6.21 23.58 0 23.58zm65.1 0c-6.21 0-6.21-23.58 0-23.58s6.21 23.58 0 23.58z" fill="none" stroke="#000" stroke-miterlimit="10"/><path d="M641.13 168.55c0 15.67-9.41 15.67-9.41 0s9.41-15.67 9.41 0zm65.1 0c0 15.67-9.4 15.67-9.4 0s9.4-15.67 9.4 0z" fill="none" stroke="#000" stroke-miterlimit="10"/><path d="M785.28 251.27c-1.9 17.41-10.61 21.78-26.23 25-18.78 3.91-40.49 5.86-50.82-10.44C685 229.4 750 185.85 734.85 162.08c-3.42-5.37-10.56-7.45-14-12.83-2.4-3.78-2.66-8.83-5.81-12-6.09-6.16-18.2-1.17-24.27-7.35-3.45-3.53-3.4-9.33-6.45-13.21-6.42-8.18-23.42-4.81-25.92-14.9-8.36 12.34-25 18.06-31 31.72-1.89 4.31-2.52 9.09-4.46 13.37-2.94 6.52-8.62 11.34-12.78 17.17-8.33 11.7-3 21.08-2.41 19.36 1 8.73 7 16.72 11 24.77 5.84 12 8.59 29.27 8.28 27.64 12 62.7-37.47 66.74-54.42 31.73-6.82-14.05-7.78-30.16-12.38-45.08-5.64-18.3-9.17-21.09-2.47-47 1.38-5.31 2.32-95.46 32.72-110.1s92.05-25 104-17 29.29 5.3 33.15 27.41c7.79 44.78 46.15 55.35 50.67 61.51 5.52 7.48 5.71 41.7.27 65.64-2.27 10-1.57 10.82 2.19 19.41a57 57 0 014.52 28.93z" fill="#d37110" stroke="#000" stroke-miterlimit="10"/><path d="M706.23 168.55c0 15.67-9.4 15.67-9.4 0s9.4-15.67 9.4 0zm-65.1 0c0 15.67-9.41 15.67-9.41 0s9.41-15.67 9.41 0z"/><path d="M670 168.55c1.51 2.22 1.93 16.54 4 18.22s2.94 6.32 0 9.27m-20.17 14.31c23.76 12.38 24.73 7.29 34.1 0M714 151c-7.34-10-19.79-10.53-20.64-8.84m-52.23 4.03c-8.6-3.92-20.26 6.82-20.21 7.74m238.17 297.26l-21.39 4.15m-55.03 117.12c2.52 4.42 21.6 33.47 26.59 34.1s8.35.14 6.88 4.42M571.24 568s-23.52 22.1-27.31 26.52c-5.25 6.13-22.43 3.14-10.57 12.65m52.8-144.07c6.4.73 10.82 3.88 17.14 3.25m144 1.48s-11.37.85-14.53 0" fill="none" stroke="#000" stroke-miterlimit="10"/><path d="M671.45 472.6L677 606.11l-16.93-.87c0-1-2.16-132-2.2-132.64zm-25.61 0c0 .52-.94 130.82-.94 131.86l-13.36-.69c0-.93 3.6-130.56 3.6-131.17zm48.99 0l11.72 135.06-14.02-.73-8.81-134.33h11.11zm-69.26 0l-6.04 130.54-10.5-.55 8.08-129.99h8.46zm88.43 0l16.93 136.3-11.57-.6-14.43-135.7H714zm-104.62 0l-10.02 129.52-8.49-.44 11.69-129.08h6.82zm120.49 0c5.94 38.5 21.06 136.66 21.15 137.34l-9.46-.49c-.14-1-19.08-136.21-19.18-136.85zm-133.42 0l-13.22 128.84-6.88-.35 3-26.82c14-30 3.74-33 11.48-101.67zm171.21 138.2c-9.08-.49-7.7.3-8.24-2.91L736.84 472.6h6.06c7.93 44.42 3.46 67.82 18.59 103.76z" fill="#d777f1" stroke="#000" stroke-miterlimit="10"/><path d="M806 780c-7.14 6.53-126.95 0-126.95 0v-73.65L669.62 780H553.11c-12.46-121.32 21-197.25 21.94-196.72 81.31 41.79 157.19 9.18 189.7-.09C787.8 594.35 819.51 767.67 806 780z" fill="#d777f1" stroke="#000" stroke-miterlimit="10"/><path fill="none" stroke="#000" stroke-miterlimit="10" d="M658.87 692.14l20.79 9.47 20.34-9.47"/><path d="M586.52 470.6s49.62 11.44 76.15 10.59c47.62-1.51 37.56 5.22 84.63-10.59z" fill="#7054b9"/></svg>