<svg xmlns="http://www.w3.org/2000/svg" viewBox="0 0 700 700"><path fill="#bdccd4" d="M0 0h700v700H0z"/><path d="M310.88 103.8c-.81 5.11-31.27 47-28.19 61.41s3.9 46.55 14 55.34c23.11 20.15 32.93 15.88 90.36 6.07 0 0 22.47-22.7 29.1-36s2.92-38.14-9-52.22c-21.98-25.77-25.03-45.46-96.27-34.6z" fill="#fad3b0" stroke="#000" stroke-miterlimit="10" stroke-width=".87"/><path d="M434.91 283.29s-2.52.16-9.23-2.12c.55-2.11-1.37-2.31 9.23 2.12z" fill="none" stroke="#000" stroke-miterlimit="10" stroke-width=".87"/><path d="M554.28 416.52c0 12.24-20.47 17.21-28.76 27.15s-54 58.09-55.19 56.4-20.39 19.84 0 24.81S504 538.14 504 538.14s-7.06 15.67-19.27 15.29-24.32-1.24-33.76-7.64-25.82-32.32-19.54-45.67 17.18-26.61 26.64-34.9 27.71-44.37 36-48.7c7.37-3.86-17.24-24.17-23.7-29.19l-38.93-47 10.56-54.1c85.66 88.78 75.51 83.14 86.84 94.47 4.97 4.98 25.44 23.58 25.44 35.82z" fill="#fad3b0" stroke="#000" stroke-miterlimit="10" stroke-width=".87"/><path d="M416.14 424c-3.64 79.1 17.29 100.11 15.09 101-18.75 5.82-92.81 37.89-165.75 0-.37-.2.09 0 3.79-7.88 6.9-14.74 7.78-18.71 7.17-63.4-.11-7.64-.4-20.61-1.17-28.23-1.66-16.58-21.87-19-21.89-46.4 0-24.87 3.67-19.23 6.46-34.75 0-.75 4.73-17.5-12.34-47.7-.75-1.33 17.28-8.7 17.28-8.7l5.65-5c5.48 11 10.19 20.78 13.8 35.56 8.13 32.33 7.88 11.62 21.77 37.47 12.5 23.27 20.65 4.91 51 8s31-9.69 44.25-23.52c11.8-12.32 22.31-50.93 24.45-59.19 12.58 4.28 2-.9 16.31 5.06-13.54 69.2-8.52 56.5-2.65 77.65 9.33 33.57-19.45 63.56-23.22 60.03z" fill="#7054b9" stroke="#000" stroke-miterlimit="10" stroke-width=".87"/><path d="M249.07 539.16c-9.61 6.52-22.07 7.27-33.76 7.65-12.21.37-19.28-15.3-19.28-15.3s13.26-8.28 33.65-13.26 1.15-26.51 0-24.81-46.9-46.44-55.2-56.44-28.76-14.91-28.76-27.15 20.48-30.84 25.45-35.82c17.07-17 38.28-51.83 76-77.36.79-.28 16.37 27.53 12.65 47.59l-30.16 36.4s-32 24.86-23.71 29.19 26.52 40.41 36 48.7 20.36 21.55 26.65 34.9-10.1 39.31-19.53 45.71zm176.61-257.99c-2.14 8.26-12.65 46.87-24.45 59.19C388 354.19 387.3 367 357 363.88s-38.48 15.29-51-8c-13.89-25.85-13.65-5.2-21.77-37.47-3.54-14.5-11.06-31.42-13.75-35.46-.2-.35 8.47-7.41 14.74-10 2.4-1 4.93-3.07 7.68-5.1.24-.24 12.15-.64 17.91-16.35 4.86-13.22-.2-31.41-.2-32.34 27.78 6.41 33.2 14.13 70.59-3.65a48.66 48.66 0 00-3.2 14.7c-.63 12.28 3.8 13.93 4.18 20.4.82 14.08.82 9.93 23.19 21.54a152 152 0 0020.31 9.02z" fill="#fad3b0" stroke="#000" stroke-miterlimit="10" stroke-width=".87"/><path d="M346.18 344.36a51 51 0 012.34 19.52m-37.91-144.7a5.46 5.46 0 00.27 1.37c-.09-.46-.17-.92-.27-1.37zm94.64-62.63c-3-4.7-9.24-6.52-12.21-11.23-2.1-3.3-2.33-7.72-5.08-10.5-5.33-5.39-15.92-1-21.23-6.43-3-3.09-3-8.16-5.64-11.55-5.62-7.16-20.49-4.21-22.68-13-7.31 10.8-21.86 15.8-27.08 27.75-1.66 3.77-2.21 7.95-3.9 11.69-2.58 5.7-7.54 9.92-11.18 15-7.29 10.23-2.64 18.44-2.11 16.93 1.48 12.75 10.73 15.1 16.47 44 26.21 6 32.64 14.39 70.59-3.65 6.49-16.92 33.26-44.56 24.05-59.01zm-86.09 16c-5.44 0-5.44-20.63 0-20.63s5.44 20.6 0 20.6zm56.94 0c-5.43 0-5.43-20.63 0-20.63s5.44 20.6 0 20.6z" fill="none" stroke="#000" stroke-miterlimit="10" stroke-width=".87"/><path d="M323.27 162.2c0 13.71-8.23 13.71-8.23 0s8.23-13.7 8.23 0zm56.95 0c0 13.71-8.23 13.71-8.23 0s8.23-13.7 8.23 0z" fill="none" stroke="#000" stroke-miterlimit="10" stroke-width=".87"/><path d="M449.36 234.56c-1.66 15.23-9.28 19.05-22.94 21.9-16.42 3.42-35.42 5.12-44.42-9.13-20.31-31.91 36.54-70 23.29-90.78-3-4.7-9.24-6.52-12.21-11.23-2.1-3.3-2.33-7.72-5.08-10.5-5.33-5.39-15.92-1-21.23-6.43-3-3.09-3-8.16-5.64-11.55-5.62-7.16-20.49-4.21-22.68-13-7.31 10.8-21.86 15.8-27.08 27.75-1.66 3.77-2.21 7.95-3.9 11.69-2.58 5.7-7.54 9.92-11.18 15-7.29 10.23-2.64 18.44-2.11 16.93.88 7.64 6.16 14.63 9.59 21.67 5.11 10.47 7.52 25.6 7.25 24.18 10.49 54.83-32.78 58.37-47.6 27.75-6-12.29-6.81-26.38-10.83-39.43-4.94-16-8-18.45-2.16-41.07 1.21-4.64 2-83.5 28.62-96.3s80.51-21.84 91-14.83 25.62 4.63 29 24c6.81 39.17 40.37 48.41 44.32 53.8 4.83 6.55 5 36.47.24 57.42-3.82 16.6 8.29 18.76 5.75 42.16z" fill="#d37110" stroke="#000" stroke-miterlimit="10" stroke-width=".87"/><path d="M380.22 162.2c0 13.71-8.23 13.71-8.23 0s8.23-13.7 8.23 0zm-56.95 0c0 13.71-8.23 13.71-8.23 0s8.23-13.7 8.23 0z"/><path d="M348.52 162.21c1.33 1.94 1.7 14.46 3.54 15.93s2.57 5.53 0 8.11m-17.68 12.52c20.78 10.82 21.64 6.37 29.83 0M387 146.84c-6.41-8.79-17.3-9.22-18-7.73m-45.73 3.54c-7.52-3.43-17.72 6-17.67 6.77m208.32 260.01l-18.71 3.62m-48.14 102.44c2.21 3.87 18.89 29.28 23.26 29.83s7.31.13 6 3.87m-214.19-37.57s-20.57 19.38-23.88 23.21c-4.6 5.36-19.62 2.74-9.25 11.06m46.18-126.05c5.6.63 9.47 3.4 15 2.84M416.14 424s-9.95.74-12.71 0" fill="none" stroke="#000" stroke-miterlimit="10" stroke-width=".87"/><path d="M349.79 428.15l4.86 116.78-14.81-.77c0-.88-1.89-115.43-1.93-116zm-22.4 0c0 .46-.81 114.43-.82 115.33l-11.68-.6c0-.81 3.14-114.19 3.14-114.73zm42.86 0l10.25 118.13-12.27-.63-7.7-117.5h9.72zm-60.58 0l-5.29 114.18-9.19-.48 7.07-113.7h7.41zm77.34 0l14.81 119.21-10.12-.52-12.62-118.69h7.93zm-91.5 0l-8.77 113.29-7.42-.39 10.22-112.9h5.97zm105.38 0c5.2 33.67 18.43 119.53 18.5 120.13l-8.27-.43c-.12-.85-16.69-119.14-16.78-119.7zM272.63 540.84l-6-.3 2.66-23.46c12.26-26.28 3.28-28.89 10-88.93 6.87 0 6.6-16.58-6.66 112.69zM434 549c-7.94-.43-6.74.26-7.21-2.55L407 428.15h5.3c6.94 38.85 3 59.32 16.26 90.76z" fill="#d777f1" stroke="#000" stroke-miterlimit="10" stroke-width=".87"/><path d="M467.52 697c-6.25 5.72-111 0-111 0v-64.4l-8.33 64.4h-101.9c-10.9-106.09 18.33-172.51 19.19-172 71.12 36.55 137.49 8 165.92-.08 20.16 9.72 47.9 161.32 36.12 172.08z" fill="#d777f1" stroke="#000" stroke-miterlimit="10" stroke-width=".87"/><path fill="none" stroke="#000" stroke-miterlimit="10" stroke-width=".87" d="M338.79 620.18l18.18 8.28 17.8-8.28"/><path d="M275.51 426.4s43.4 10 66.6 9.27c41.66-1.33 32.86 4.56 74-9.27z" fill="#7054b9"/></svg>