<svg xmlns="http://www.w3.org/2000/svg" viewBox="0 0 1400 780"><path d="M857.51 150.08c0-24.07-22.5-20.54-40.45-35.76-13.07 5.14-78.86-24-210.61-3.58-20.4 3.17-40.58 7.66-58.83 18.13-9 5.14-13.35 12.29-13.33 23.18.73 407.81-6.82 396.32 11.56 407.54 10.89 6.65 22.51 11.89 35.13 13.81 28.06 4.25 56.1 9.68 84.35 11.42 97.9 6 139.68-13.05 151.6-9.93 13-9.85 15.82-8 30.88-16.5 15.4-8.64 8.99.2 9.7-408.31zm-318 396.12c0-387.15-.45-387.18.8-387.19-.03 417.13.41 387.41-.83 387.19zm8.66 9.22c-3.43-4.22-4.6-383.86-1.61-392.48 2.93 3.8 4.58 375.36 1.58 392.48zm12.07 5.67c-5.26-.05-7.5-2-7.15-6.55.1-1.41 0-384.18 0-387.44 5.85.24 7.24 2.73 7.19 7-.18 13.81-.07 383.9-.07 386.99zm23 7.91c-18.78-2.59-19-2.8-19-19.79V171c5.35 1.25 10.53 1 9.15 7.79C587.14 170 583.21 147 583.22 569zm34.15 7.43l-29.55-5.29v-393.5c28.59 5 28 4 29.4 8.83.21.81.13 389.82.13 389.96zm50.08 4.69l-45.12-3.77V183.71l45.12 3.69zM719 581h-46.46V187.74c45.33 0 44.67-1.25 46.29 3.81.27.84.17 377.32.17 389.45zm46-11c0 10.48-1.76 8.12-41.61 11.19V187.4l41.61-3.13zm38.08 1.31l-33.94 6.21V191.16c0-10 1.4-7.77 33.94-13.26zm23.22-19.11c0 13 0 13-12.64 16.38-8.58 2.29-6 43-6-381.25 0-11.86-.7-10.61 18.62-15.77zm4.39 9.79c-.43-394.66-6.2-394.27 7.45-394.51.46 394.58 6.28 393.74-7.47 394.44zm12.83-6.47c0-391.72-.91-391.72 1.63-391.72-.02 391.65.85 391.65-1.65 391.65zm7.22-8.14c0-388.66-.86-388.7 1.54-388.7-.02 388.59.83 388.4-1.56 388.63zm-29.85-379.25c-.81.4-2.51-1-3.23-1.31-64.77 38.63-370.44 5.55-249.73-42.31 1.91-.75 4.44.08 5.29.12 35.38-16.74 155.51-25.87 243.14-2.77a3.06 3.06 0 012.21.54c63.5 22.06 26.56 33.83 2.32 45.73z"/><path d="M818.35 122.36l.22.08a3.06 3.06 0 00-2.21-.54v6.63c1.14.13.64 1.11 1.99-6.17z"/><path d="M603.07 679.88c-.27 4.55-.5 8.25-.8 13.26-2.48-1.53-4.16-2.19-5.35-3.36-7.28-7.16-14.55-14.34-21.54-21.77-1.27-1.35-2.38-5-1.64-5.77 8.68-9.25 17.72-18.16 28.26-28.76.5 6.23.81 10.09 1.17 14.6h173.18c.4-4 .82-8.06 1.13-11.11L806 665.12l-28.32 26.15c-.37-3-.87-7-1.42-11.39z" fill="#3fa9f5"/><path d="M622.33 183.71l45.12 3.69v393.72l-45.12-3.77zm195.33-16.89c-2.68 1.6-5 3.75-7.67 4.46-27.41 7.23-55.43 10.26-83.65 11.4-47.27 1.9-94.41.78-140.62-10.58a166.26 166.26 0 01-37-14.08c-13.32-7-13-16.66-.12-24.65 6-3.71 12.74-6.25 19.32-8.86 1.91-.75 4.44.08 5.29.12 4-1.87 7-4 10.4-4.81 29.39-7.25 59.27-10.43 89.39-11.32 44.67-1.32 89.12.43 132.88 10.62 3.42.8 6.8 1.78 10.44 2.74l2 .5c11.61 4 23.12 7.31 31.77 16.4 4.58 4.81 4.57 11-.54 14.37-9 5.88-19 10.24-28.69 15-.78.4-2.48-1-3.2-1.31zM719 581h-46.46V187.74c14.47 0 28.83-.08 43.18.16 1.1 0 2.65 2.19 3.11 3.65.55 1.73.17 3.76.17 5.66v374.84zm4.37.12V187.4l41.34-3.13c.15 2.85.39 5.34.39 7.83q0 188.91.14 377.83c0 6.07-1.63 8.45-7.81 8.69-11.08.43-22.13 1.58-34.06 2.5zm79.69-403.22v393.34l-33.88 6.21v-8.54q0-188.88-.12-377.75c0-5.81 1.17-8.47 7.54-9 8.67-.68 17.23-2.7 26.46-4.26zM617.37 576.43l-29.55-5.29v-393.5c9 1.59 17.82 3 26.51 4.8 1.22.26 2.44 2.49 2.89 4 .5 1.75.15 3.76.15 5.67v384.32zm208.91-404.94v380.64c0 13 0 13-12.64 16.38-1.57.42-3.17.73-6 1.38V187.26c0-10.62 0-10.63 10.35-13.56 2.26-.63 4.51-1.2 8.29-2.21zM583.22 569c-18.78-2.59-19-2.8-19-19.79V171c5.35 1.25 10.53 1 9.15 7.79 2.28-1.46 4.62-3.84 5.56-3.38 1.83.9 3.13 3.27 4.13 5.29.57 1.14.11 2.8.11 4.22v375.72zm247.45-7.08c-.12-2.2-.31-4.07-.31-5.94q0-189.93-.11-379.86c0-5.42 1.33-8.59 7.87-8.71.13 2.42.36 4.7.36 7q0 189.23.11 378.43c.01 5.35-1.2 8.74-7.92 9.08zM553.07 167.1c5.85.24 7.24 2.73 7.19 7-.16 13.79 0 27.57 0 41.35v345.64c-5.26-.05-7.5-2-7.15-6.55.1-1.41 0-2.85 0-4.27V167.1z" fill="#fff"/><ellipse cx="844.31" cy="359.59" rx="1.16" ry="276.99" fill="#fff"/><path d="M548.14 555.42c-3.43-4.22-4.6-383.86-1.61-392.48 2.96 3.8 4.61 375.36 1.61 392.48zm302.58-8.11v-388.7h1.54v388.55zm-311.24-1.11V159h.8v387.34z" fill="#fff"/><path fill="none" stroke="red" stroke-miterlimit="10" stroke-width="4.29" d="M834.42 584.02v8.57H843"/><path fill="none" stroke="red" stroke-miterlimit="10" stroke-width="4.29" stroke-dasharray="7.27 7.27 7.27 7.27" d="M850.26 592.59h25.43"/><path fill="none" stroke="red" stroke-miterlimit="10" stroke-width="4.29" d="M879.32 592.59h8.57v-8.57"/><path fill="none" stroke="red" stroke-miterlimit="10" stroke-width="4.29" stroke-dasharray="16.77 16.77 16.77 16.77" d="M887.89 567.24v-58.7"/><path fill="none" stroke="red" stroke-miterlimit="10" stroke-width="4.29" stroke-dasharray="16.77 16.77 16.77 16.77 16.77 16.77" d="M887.89 500.15V105.97"/><path fill="none" stroke="red" stroke-miterlimit="10" stroke-width="4.29" d="M887.89 97.58v-8.57h-8.57"/><path fill="none" stroke="red" stroke-miterlimit="10" stroke-width="4.29" stroke-dasharray="7.27 7.27 7.27 7.27" d="M872.06 89.01h-25.43"/><path fill="none" stroke="red" stroke-miterlimit="10" stroke-width="4.29" d="M843 89.01h-8.58v8.57"/><path fill="none" stroke="red" stroke-miterlimit="10" stroke-width="4.29" stroke-dasharray="16.77 16.77 16.77 16.77" d="M834.42 114.35v58.71"/><path fill="none" stroke="red" stroke-miterlimit="10" stroke-width="4.29" stroke-dasharray="16.77 16.77 16.77 16.77 16.77 16.77" d="M834.42 181.45v394.18"/><path fill="none" stroke="red" stroke-miterlimit="10" stroke-width="4.29" d="M512.11 584.02v8.57h8.57"/><path fill="none" stroke="red" stroke-miterlimit="10" stroke-width="4.29" stroke-dasharray="7.27 7.27 7.27 7.27" d="M527.94 592.59h25.43"/><path fill="none" stroke="red" stroke-miterlimit="10" stroke-width="4.29" d="M557 592.59h8.58v-8.57"/><path fill="none" stroke="red" stroke-miterlimit="10" stroke-width="4.29" stroke-dasharray="16.77 16.77 16.77 16.77" d="M565.58 567.24v-58.7"/><path fill="none" stroke="red" stroke-miterlimit="10" stroke-width="4.29" stroke-dasharray="16.77 16.77 16.77 16.77 16.77 16.77" d="M565.58 500.15V105.97"/><path fill="none" stroke="red" stroke-miterlimit="10" stroke-width="4.29" d="M565.58 97.58v-8.57H557"/><path fill="none" stroke="red" stroke-miterlimit="10" stroke-width="4.29" stroke-dasharray="7.27 7.27 7.27 7.27" d="M549.74 89.01h-25.43"/><path fill="none" stroke="red" stroke-miterlimit="10" stroke-width="4.29" d="M520.68 89.01h-8.57v8.57"/><path fill="none" stroke="red" stroke-miterlimit="10" stroke-width="4.29" stroke-dasharray="16.77 16.77 16.77 16.77" d="M512.11 114.35v58.71"/><path fill="none" stroke="red" stroke-miterlimit="10" stroke-width="4.29" stroke-dasharray="16.77 16.77 16.77 16.77 16.77 16.77" d="M512.11 181.45v394.18"/></svg>