<svg xmlns="http://www.w3.org/2000/svg" viewBox="0 0 1400 780"><path fill="#d7d6cb" d="M0 0h1400v780H0z"/><path d="M1115.05 778.83c-14.16 0-31.92-.06-54.4-.12-37-.1-87.44-.25-154.5-.25 27.89-37.25 37.25-59.26 43.5-73.93 4.43-10.41 7.11-16.7 13.75-21.82 11.65-9 11.76-20.92 10.14-32.51a286.53 286.53 0 00-11.95-50c-3.26-9.94-7.13-13.82-13.79-13.82-3.18 0-6.84.84-11.47 1.89a129.75 129.75 0 01-30.94 4h-.57c-15.3-.08-24.33-8.92-24.78-24.28-.16-5.83-.95-11.84-8.41-15.62a8.78 8.78 0 01-5.08-7.59 10.48 10.48 0 015.35-9.17l2.34-1.4c3.28-2 6.67-4 9.88-6.19 3.58-2.47 5.14-5.12 4.62-7.88-1.24-6.65-14.35-10.71-22-12.54-3.23-.77-5.2-1.86-5.87-3.24-1-2 .47-5 2.13-8.57 3.71-7.93 8.79-18.78-9.85-27.85-2.76-1.34-4.35-2.84-4.84-4.56-1.06-3.68 2.34-9.12 7-16.67a166.22 166.22 0 0012.55-23C876 404.83 874 397 871.7 388c-2-8-4.32-17.07.66-36.71 14.21-56 34.38-88.85 100.12-102.06a213.26 213.26 0 0141.94-4.14 252.49 252.49 0 0168.27 9.95c18.9 5.33 36.72 16.53 51.52 32.4 14.37 15.4 25.62 34.83 32.56 56.2a159.85 159.85 0 016.24 72.3 148.56 148.56 0 01-30.78 71.06c-33.58 42.52-47.34 105.68-35.91 164.83 3.36 17.4 13.32 31.39 22.61 42.79 15.06 18.44 25 47 33 69.89 1.24 3.55 2.42 7 3.58 10.19a12.75 12.75 0 00.87 1.81c.12.21.27.49.37.69-3.05 1.51-24.33 1.63-51.7 1.63z" fill="#dfbfd9"/><path d="M1014.42 246.56a251.09 251.09 0 0167.86 9.89c18.64 5.26 36.22 16.31 50.83 32a149.33 149.33 0 0132.23 55.64 158.16 158.16 0 016.18 71.62 147 147 0 01-30.47 70.42c-17.25 21.85-29.61 49.26-35.73 79.27a224.61 224.61 0 00-.47 86.77c3.42 17.74 13.51 31.92 22.92 43.45 14.89 18.24 24.77 46.63 32.71 69.44 1.25 3.58 2.43 7 3.59 10.2a9.78 9.78 0 00.43 1c-6.1 1-26.08 1.07-49.46 1.07-14.16 0-31.92-.06-54.4-.12-36.43-.1-85.93-.24-151.5-.25 26.61-36 35.75-57.43 41.89-71.84 4.33-10.19 7-16.34 13.29-21.22 12.25-9.43 12.39-21.9 10.68-33.9a287.9 287.9 0 00-12-50.28c-2.93-8.91-6.64-14.85-15.22-14.85-3.35 0-7.08.85-11.81 1.93a128.53 128.53 0 01-30.6 3.91h-.57c-14.58-.07-22.85-8.18-23.28-22.82-.17-6-1-12.76-9.23-16.92a7.23 7.23 0 01-4.27-6.3 9 9 0 014.63-7.84l2.34-1.4c3.3-2 6.71-4 10-6.23 5.13-3.53 5.68-7.06 5.25-9.4-1.33-7.11-13.34-11.39-23.19-13.72-2.65-.63-4.42-1.52-4.86-2.43-.65-1.34.77-4.36 2.14-7.28 2-4.25 4.24-9.07 3.55-14.38-.81-6.18-5.43-11.24-14.11-15.46-2.35-1.15-3.68-2.33-4-3.63-.87-3 2.55-8.51 6.89-15.45a168 168 0 0012.64-23.18c8.32-19.3 6.19-27.73 3.93-36.66-2-7.83-4.23-16.7.65-36 8.1-31.92 17.86-52.82 31.65-67.76 15.18-16.47 36.57-27 67.31-33.2a211.91 211.91 0 0141.65-4.11m0-3a213.89 213.89 0 00-42.24 4.17c-63.94 12.85-86.25 43.74-101.34 103.18-10.53 41.49 10.86 36.72-4.43 72.18-11.7 27.14-29.15 38.8-14 46.15 31.33 15.23-8.75 34.38 13.9 39.77 13.54 3.21 28.33 9.88 16.93 17.72-3.92 2.7-8.06 5.09-12.14 7.54-7.85 4.72-8.32 15.25-.18 19.39 6.49 3.29 7.42 8.32 7.6 14.32.47 16.24 10.08 25.66 26.26 25.74h.58c22.09 0 34.41-5.84 42.41-5.84 5.63 0 9.12 2.9 12.37 12.79a287.16 287.16 0 0111.89 49.76c1.61 11.51 1.38 22.68-9.57 31.11-16.68 12.85-9.28 32.27-59.35 98.44 109.08 0 173.78.37 211.9.37 62.17 0 53.68-1 51.85-6.1-8.63-24.1-19.23-59-36.79-80.52-10.12-12.4-19.18-25.91-22.31-42.13-10.66-55.18 0-118.56 35.61-163.61 67.89-86 21.68-211.29-60.3-234.4-22.74-6.41-45.64-10-68.68-10z" fill="#706f6f"/><path d="M1034.42 642.62c-.39-.38-.9-.94-1.34-1.42-3.22-3.53-9.19-10.11-20.81-10.11-1 0-2 0-3.06.15h-.52c-.45 0-1-.07-1.25-.39-.31-.49-.21-1.84.58-3.46a48.45 48.45 0 015.63-8.44c5-6.46 10.2-13.14 3.6-24.43-1.89-3.26-1-6.59 2.25-8.92 14.31-10.07 14.75-27.49 15.13-42.85 0-1.94.1-3.85.18-5.71.23-6-3.26-13.31-9.34-19.64s-12.87-9.91-18.48-9.91a12.12 12.12 0 00-1.36.08c-2.64.3-5.24.85-6.38 2.87-1 1.71-.47 3.74.16 5.31-2.09 4.26-3.72 7.67-5 10.4-3.38 7.05-4.41 9.09-5.23 9.68-.72-5.39-5.41-6.27-8.92-6.94-.46-.09-.92-.17-1.37-.27a11.3 11.3 0 00-2.33-.24 21.83 21.83 0 00-6.88 1.47 22.46 22.46 0 01-5.1 1.29c-3.36.31-6.45.57-9.27.81-15.28 1.3-22.95 2-25.77 5.84a6.94 6.94 0 00-1 5.43c-2.67 1.74-2.33 4.45-2.1 6.31a11.42 11.42 0 01.13 1.86 8 8 0 00-.86 4.33c0 2.64 0 3.64-3 3.64h-1c0-.12-.06-.29-.1-.5-.68-3.62-2.85-5.46-6.44-5.46a15 15 0 00-2 .15 18.34 18.34 0 01-2.32.16 16.1 16.1 0 01-12.48-6.28c-4.12-5-5.8-11.45-5.64-15a28.68 28.68 0 013.49-.22 35.56 35.56 0 018.79 1.19 15.06 15.06 0 003.66.5c3.3 0 5.79-1.45 7-4.08 1.79-3.85.45-9.79-3.19-14.12a67.82 67.82 0 00-12.76-11.47c-5.94-4.37-7.55-5.84-5.26-10.58 1.09-2.28.69-4.69.31-7-.33-2-.64-3.85-.06-5.55a21.33 21.33 0 014.86 2.45c2.13 1.3 4.33 2.65 6.91 3 3 .4 5 1.31 6.14 2.79s1.5 4 1 7.59-.14 6 1.19 7.53a5.17 5.17 0 004.12 1.69 13.73 13.73 0 004.38-.87 8 8 0 005.23 2.17c2.76 0 5.15-1.75 6.4-4.67 4.61-10.77 8.27-14.26 10.94-16.81 2.49-2.39 4.2-4 4.48-9.3a76.5 76.5 0 0113.68-1.37c7.41 0 13.22 1.46 20 3.14a177.77 177.77 0 0018.87 3.9 2.86 2.86 0 002.17 1 3.84 3.84 0 001-.15l5.67 1.15c10.34 2.08 13.83 2.78 15.72 6.29 3.22 5.93 6.37 8.69 9.94 8.69a10.76 10.76 0 003.68-.8 6.07 6.07 0 011.72-.46c.18 0 .58 0 1.17 1.17.12 1 .23 1.9.34 2.78 1.32 10.61 1.76 14.18-3 38a2.28 2.28 0 000 .26c-1.52 57.11-1.63 58-2.51 64.88-.28 2.15-.62 4.83-1.1 9.84-.29 3-.54 5.73-.77 8.19-1.2 10.44-1.84 17.27-2.52 19.44z" fill="#ffd9ee"/><path d="M963.9 476.81c7.23 0 12.69 1.37 19.6 3.1a180.48 180.48 0 0018.54 3.85 4.29 4.29 0 002.86 1.06 4.94 4.94 0 001.07-.12q2.92.62 5.35 1.09c10.41 2.1 13.19 2.76 14.69 5.53 3.51 6.47 7.08 9.48 11.26 9.48a12 12 0 004.18-.89c.28-.1.63-.22.9-.3v.06c.11.88.21 1.71.31 2.5 1.29 10.43 1.73 13.94-3 37.48a3 3 0 00-.05.52c-1.51 57-1.63 57.9-2.5 64.73-.28 2.16-.62 4.85-1.1 9.89-.29 3-.54 5.73-.78 8.19-.69 7.44-1.23 13.16-1.71 16.48-3.51-3.81-9.74-9.87-21.25-9.87-1 0-2.12 0-3.21.15h-.25a6.15 6.15 0 01.56-1.69 47 47 0 015.47-8.18c5.07-6.53 10.82-13.94 3.71-26.11-2-3.48.27-5.84 1.82-6.93 14.92-10.51 15.37-28.33 15.76-44 0-2 .1-3.84.17-5.69.26-6.37-3.39-14.12-9.75-20.74S1013 506 1007 506a12.83 12.83 0 00-1.53.09c-2.89.33-6 1-7.52 3.62a7.26 7.26 0 00-.16 6c-2 4-3.5 7.21-4.75 9.83-1.38 2.87-2.53 5.28-3.39 6.92-2-3.65-6.27-4.46-9.13-5-.45-.09-.9-.17-1.34-.27a12.92 12.92 0 00-2.64-.27 22.91 22.91 0 00-7.35 1.55 22.48 22.48 0 01-4.77 1.22c-3.35.31-6.44.57-9.26.81-16.23 1.38-23.63 2-26.85 6.44a8.07 8.07 0 00-1.41 5.57c-1.32 1.12-2.5 3.17-2 7.25.05.44.11.89.12 1.25a10 10 0 00-.86 4.73 9.28 9.28 0 01-.15 2 3.16 3.16 0 01-1.19.18c-1-3.83-3.7-5.92-7.74-5.92a16.27 16.27 0 00-2.2.16 15.44 15.44 0 01-2.12.15c-4.37 0-8.18-1.93-11.33-5.74a24.29 24.29 0 01-5.27-12.68c.65-.05 1.31-.08 2-.08a34 34 0 018.42 1.15 16.59 16.59 0 004 .54c3.86 0 6.91-1.8 8.37-5 2.06-4.42.66-10.89-3.41-15.71a69.75 69.75 0 00-13-11.72c-5.9-4.34-6.55-5.11-4.8-8.72 1.3-2.7.84-5.48.44-7.93a17.71 17.71 0 01-.36-3.22c1 .46 1.91 1 2.9 1.65 2.26 1.38 4.6 2.81 7.49 3.2 2.57.33 4.3 1.08 5.14 2.2s1.14 3.34.67 6.47c-.6 4-.1 6.82 1.54 8.73a6.62 6.62 0 005.25 2.21 14.15 14.15 0 004.07-.69 9.11 9.11 0 005.54 2 8.58 8.58 0 007.78-5.57c4.49-10.48 8-13.86 10.6-16.32s4.36-4.42 4.84-9.11a74.06 74.06 0 0112.27-1.14m0-3a79.59 79.59 0 00-15.14 1.62c-.12 11.6-6.11 5.23-15.33 26.77a5.58 5.58 0 01-5 3.75 6.92 6.92 0 01-4.87-2.38 14 14 0 01-4.74 1.09c-3.14 0-4.62-2.21-3.82-7.49 1-6.65-.49-11.05-8.39-12.1-4.5-.59-8-4.88-12.8-5.69-2.67 4.5 1.15 9.69-.76 13.66-4.78 9.9 6.47 9.74 18.22 23.68 5.18 6.15 5.31 15.73-2.67 15.73a13.38 13.38 0 01-3.29-.45 37.14 37.14 0 00-9.16-1.24 28.53 28.53 0 00-4.85.41c-1.27 6.6 5.1 24.09 19.48 24.09a18.45 18.45 0 002.52-.18 14.26 14.26 0 011.8-.13c2.43 0 4.34.93 5 4.23.28 1.51.51 1.75 1.19 1.75h1.4c7 0 3.16-6.22 5.34-8.92.43-2.73-1.81-6.19 2.2-7.92-2.19-9.4 6.86-8.85 34.52-11.39 4-.37 7.77-2.75 11.84-2.75a9.28 9.28 0 012 .21c4.23.89 9.33 1.07 9.21 7.47h.46c3 0 2.71-1.11 12.85-21.78-2.21-4.92 0-6.2 4.74-6.73a9.39 9.39 0 011.14-.14c11 0 26.79 16 26.32 28-.67 16.56.77 36.53-14.67 47.4-3.9 2.75-5 6.89-2.68 10.89 8.56 14.66-3.84 20.18-9.29 31.47-1.19 2.45-1.75 6 2 6h.65c1-.1 2-.14 2.93-.14 15.25 0 20.11 11.92 22.45 11.92 1.74 0 2.09-6.57 4.27-29.43 2-21.45 1.64-.31 3.61-74.83 5.28-26.13 4.28-28.2 2.7-41.46-.8-1.73-1.66-2.25-2.63-2.25-1.51 0-3.26 1.26-5.4 1.26-2.34 0-5.16-1.52-8.62-7.91-2.61-4.82-7.53-5.08-22.81-8.28a2.4 2.4 0 01-.94.21 1.48 1.48 0 01-1.34-.87c-18.32-2.57-26.18-7.14-39.66-7.14z" fill="#706f6f"/><path d="M251.29 778.88c-12.53 0-24.87-.14-26.12-1.73-.18-.23.05-1.15.25-2 .12-.49.24-1 .35-1.58 13.27-70.72 55.1-143.13 77.57-182 5.22-9 9.34-16.18 11.46-20.54 21.67-44.55 9.91-68.39-5-98.57q-1.87-3.78-3.79-7.74c-23-47.55-25.54-101.63-6.76-144.65 16-36.56 45.75-62.42 86.18-74.8 14.7-4.5 31.94-6.88 49.86-6.88 40.13 0 75.15 11.46 96.09 31.44 38.57 36.79 42.54 77.45 45.17 104.35 1.13 11.61 2 20.77 5.48 25.89a379.88 379.88 0 0127.53 47.22c3.4 7 4.33 11.67 3 15.06s-5.24 6.23-13 9.21c-16.67 6.45-13.85 17.66-12 25.09.85 3.39 1.59 6.31.48 7.74-.81 1-2.79 1.56-5.9 1.56h-2.15c-7.87 0-13.76 3.88-15 9.89-1 4.78 1.14 11.82 10.48 15.92 2.55 1.12 4.18 3.06 4.35 5.21.16 1.94-.89 3.75-3 5.08-9 5.86-9.14 16.09-9.23 26-.11 12.12-.21 22.59-15.59 25a126.81 126.81 0 01-19.66 1.58 150.53 150.53 0 01-16.35-1c-3.12-.32-5.81-.6-8.17-.6-12.84 0-15.57 8.22-23.79 50.17-3.81 19.44-5.87 40 13.85 58.95 14.92 14.35 26.73 32.06 38.15 49.18 5.21 7.83 10.61 15.92 16.24 23.61a17.31 17.31 0 002.15 2.3l.38.36c-4.07.84-19.34.91-38.58.91-9.64 0-21.46 0-35.91-.07-23.13-.05-51.91-.13-89.35-.13h-.45c-48 0-82.08.27-106.94.47-13.37.01-24.06.1-32.28.1z" fill="#a4c3d5"/><path d="M435.31 239.89a181.47 181.47 0 0152.26 7.41c17.62 5.39 32 13.34 42.8 23.62 38.16 36.4 42.1 76.72 44.7 103.41 1.2 12.28 2.07 21.15 5.74 26.58a378.09 378.09 0 0127.42 47c3.21 6.63 4.12 10.9 2.95 13.86s-4.91 5.58-12.09 8.36c-17.91 6.93-14.77 19.4-12.89 26.86.63 2.49 1.41 5.6.75 6.45-.13.16-1 1-4.72 1h-2.1c-8.61 0-15.08 4.35-16.49 11.08-1.47 7 3 13.93 11.35 17.6 2 .9 3.33 2.37 3.46 4 .11 1.37-.7 2.68-2.28 3.7-9.73 6.3-9.83 17.42-9.92 27.23-.12 13.21-.88 21.42-14.32 23.51a125.1 125.1 0 01-19.44 1.56 151 151 0 01-16.19-1c-3.16-.33-5.88-.61-8.32-.61-14.59 0-17.28 10.65-25.26 51.38-3.89 19.84-6 40.84 14.28 60.32 14.81 14.24 26.57 31.88 37.94 48.93 5.22 7.84 10.63 15.95 16.28 23.67.17.22.34.44.51.64-6.42.49-20.35.54-35.36.54-9.63 0-21.22 0-35.89-.07-23.1-.05-51.86-.12-89.26-.12h-.55c-48.05 0-82.09.26-106.95.46-13.53.1-24.21.19-32.42.19-7.58 0-21.29 0-24.6-1.09.05-.25.12-.52.17-.76.12-.49.26-1 .37-1.66 5.71-30.37 17.64-65 35.48-103 15-31.93 31.2-60 41.92-78.53 5.23-9.07 9.37-16.23 11.51-20.64 22-45.21 10.08-69.34-5-99.89-1.24-2.51-2.51-5.08-3.78-7.72-22.83-47.16-25.34-100.77-6.74-143.4 15.78-36.15 45.25-61.72 85.24-74 14.57-4.46 31.66-6.82 49.43-6.82m0-3c-18.14 0-35.67 2.47-50.3 7-99.86 30.56-120.76 138-80.33 221.54 16.62 34.35 31.89 57.44 8.77 105-10.75 22.11-72.6 114.78-89.15 203-1.1 5.83-4.62 7.06 27 7.06 23 0 64.64-.65 139.37-.65h.55c61.19 0 100.37.19 125.15.19 51.33 0 41-.83 37.27-5.95-18-24.54-32.68-52-54.56-73-18.3-17.59-17.58-36.33-13.42-57.58 8.25-42.1 10.86-49 22.32-49 5.55 0 13.17 1.61 24.51 1.61a128 128 0 0019.9-1.6c29.85-4.64 6.5-38.94 25.41-51.18 5.63-3.64 4.5-10.25-1.61-12.93-15.07-6.61-12-22.93 3.94-22.93h2.09c21.36 0-10.3-23.57 17.94-34.49 15.2-5.88 17.83-11.72 10.76-26.32a384.73 384.73 0 00-27.63-47.41c-10.83-16 4.8-77.39-50.86-130.48-23.42-22.43-61.42-31.93-97.11-31.93z" fill="#706f6f"/><path d="M559.35 484.3c1.44-5-4.17-8.12-3.5-12.93-4-.08-3.35-3.88-4.37-6-7.37-15.19-8.49-11.8-40.17 2-3.15 1.37-6.21 2.6-7.08 6.56-.31 1.41-1.48 3.86-3.44 1.54-3.3-3.91-8-6.59-10-11.64l.13.11c-2.62.57-4-2.42-3.87-2.52-2-.19-1.48-1.48-1.24-1.31-19-5.68-21.22-4-43.75-1.54-34.39 17.77-42.21 8.4-45.82 23.45-.06 5.22 2 10.95-3.17 15-1.28 1-2.9 3.7-4.51.11-3.22-7.17-3.55-12.63-10-11.32-16 3.27.54 22.32 1.06 95.78 6.25 50.73-.79.15 13.34 113.66 3.58 6.13 8.49 12.14 15.88 10.18 21.67-5.74 37.54 9.78 44.15 1.43 4.07-5.13 0-10.33-8.25-25.7.08.1-21.07-16.56-19.26-39 .49-6.06 3-6.55 7.66-4.5q5.5-.18 5.86-5.67c3-9.15-3.69-19.23-1.81-17.17-11.65-6.19-15.09-.42-17.73-4.74-3.68-6-9-11.15-10.5-18.42l.1.15c-19.46-19.35-23.07-100 49.45-58 1-1 2-2.88 3.12-3 17.82-1.24 33.64-15.74 33-2.24 6.75-2.2 4.26 1.91 3.71 23.46-.05 2.27-.35 5.2 2.2 6.2 18.13 7.07 40.19 19 42 8.43 1.3-7.36 6.89-11.59 12.23-15.94-1.24 1.67 5.73-5.5-5.23-25.56 1.52 1.47-11-6.68-19.79-6.4-1.32 0-2.07-.81-1.68-2 3.26-9.81-2.71-8 16.72-14.68 17.6-5.97 17.1-1.65 14.56-17.78z" fill="#d0e6ff" stroke="#706f6f" stroke-linecap="round" stroke-miterlimit="10" stroke-width="3"/><path fill="none" stroke="#706f6f" stroke-linecap="round" stroke-miterlimit="10" stroke-width="5" d="M265.94 103.37v56.26m306.73-56.26v56.26m-306.73-11.17s15.8 14.64 46.24-15 38.54-31.21 68.59-1.93 36.23 29.67 63.59 0 40.46-35.28 69 .47 40.46 27.28 59.34 7.62m-.03-7.76H265.94m592.32-28.58v56.14m0-6.53s5.76 10.38 17.68-21.54 10.39-31.53 21.54 0 9.23 34.73 21.53-.32 10.77-33.9 21.15.32 11.15 32.69 21.92 0 12.3-33.45 21.92 0 9.22 32.3 20.37 0 10.39-36 21.54-.52 8.46 37.82 21.15.52 13.07-30.23 22.68.46 8.46 32 20.38 0 11.92-33.91 21.54-.46 9.22 38.21 21.14.46 14.23-28.14 21.15-.46 10.39 28.07 10.39 28.07v-56.14m0 28.07H858.26"/></svg>