<svg xmlns="http://www.w3.org/2000/svg" viewBox="0 0 700 700"><path fill="#4d4d4f" d="M0 0h700v700H0z"/><path d="M631 441.71s-13.87 82-40.61-84.13-33.85-174.74-60.25-10.79-31.81 166.11-55.84 0-35.54-197.49-60.58 2.65-61.85 168.89-68.72 55.37" fill="none" stroke="#6997b2" stroke-linecap="round" stroke-miterlimit="10" stroke-width="12.37"/><path d="M345 404.81c-17.29-303.47-13.84-235.08-24.36-58s-8.7 195-20.31-1.81-10.15-190.37-19.94 1.81-10.52 183.54-20.67 0-11.61-187.86-20.67 0-8.71 181.38-19.22 0-9.8-202.39-20.31-2.94-8 212.39-19.95 2.94-12.32-169.81-21.38 2.54-8 179.62-19.22 0-11.25-190.42-20.31-2.56-8.7 214.57-20 2.56-13.41-158-19.94-2.56S69 504.42 69 504.42" fill="none" stroke="#b383aa" stroke-linecap="round" stroke-linejoin="round" stroke-width="12.37"/><path fill="none" stroke="#8c8c8c" stroke-linecap="round" stroke-linejoin="round" stroke-width="5.31" d="M68.98 347.81h562.04"/></svg>