<svg xmlns="http://www.w3.org/2000/svg" viewBox="0 0 1400 780"><path fill="#4d4d4f" d="M0 0h1400v780H0z"/><path d="M1145.89 501.21s-22 99.41-64.44-102-53.7-211.89-95.59-13.08-50.48 201.43-88.61 0-56.38-239.48-96.12 3.21-98.17 204.8-109 67.14" fill="none" stroke="#6997b2" stroke-linecap="round" stroke-miterlimit="10" stroke-width="17.16"/><path d="M692.08 456.46c-27.43-368-22-285.06-38.65-70.35s-13.81 236.49-32.22-2.2-16.11-230.83-31.65 2.2-16.68 222.56-32.8 0-18.41-227.8-32.79 0-13.81 219.94-30.5 0-15.53-245.42-32.22-3.57-12.66 257.55-31.65 3.57-19.56-205.89-33.94 3.1-12.66 217.81-30.5 0-17.84-230.9-32.22-3.1-13.81 260.18-31.65 3.1-21.29-191.62-31.65-3.1-15.53 191.14-15.53 191.14" fill="none" stroke="#b383aa" stroke-linecap="round" stroke-linejoin="round" stroke-width="17.16"/><path fill="none" stroke="#8c8c8c" stroke-linecap="round" stroke-linejoin="round" stroke-width="7.36" d="M254.11 387.34h891.78"/></svg>