<svg xmlns="http://www.w3.org/2000/svg" viewBox="0 0 700 700"><path fill="#f0beb4" stroke="#000" stroke-linecap="round" stroke-miterlimit="10" stroke-width=".34" d="M0 0h700v700H0z"/><path d="M413.25 443.55a14.1 14.1 0 00-4.18-2.14 7.89 7.89 0 00-4.14.08c-1.16.26-2.51.68-4.26 1.13 4.33 2.38 6.52 2.23 12.58.93zm-5.07 7.61c1.34.94 3-.45 3-2.22.01 0-4.34 1.27-3 2.22zm8.44-.37c-.7 2.26 1.53 4.69 2.37 3.52s-2.37-3.52-2.37-3.52zm4.5 24.08c1.28-1.79-11.75-33.42-29.69-9.13a2.79 2.79 0 00.44 1.12c-.77 2.52 3.69 2.6 7.54 3.38 7.35 1.46 9.89 9 20.78 5.19v-.06c.33.09.62-.06.93-.5zm16.94-23a6.77 6.77 0 00-3.21-.68 7.86 7.86 0 00-3.2.84c4.94 4.3 10.56 5.93 10.44 5.29a7.68 7.68 0 00-4.03-5.48zm14.05-4.06c3.9 8.36.93 29.69-2 36.37s-5 5.2-6.5 10.77 3.53 14.84 0 16.5-8.16-2.21-8.16-2.21c-1.9 11.35-17 15.17-26.05 43l-.05.18c-14.68-4-27.48-9.93-37.22-20.6l.36-.32c7.08-17.56 3.08-16.33 2.66-25.06-.37-7.61 3.34-13.18 2.22-19.12-1.05-5.58-.14-11.55 1.76-17.1 3.6-10.54 10.81-19.61 15.12-21.87s3.53-2.59 8-7.79a16.27 16.27 0 013.69-3.3c5.4-.42 15.1 5.67 14.3 1.13 0 0-7.29-2.92-9.93-2.67 1.23-.2 2.52-.3 4-.53 4.63-.74 4.82-2.42 7.79-2.42a48.13 48.13 0 0112.89 1.65c7.37 2.04 13.79 6.21 17.12 13.36zm-20.46-2.59c11.58 1.67 11.9 5.82 16.84 14.88-2-8.15-3.41-14.39-11.13-15.86-2.93-.59-5.57-1.56-5.71.95z" fill="#ecc19c"/><path d="M434.94 434.4C469 423 476 506.52 473.57 539.54c-2 26.44-4.61 52.44-3.09 60.32l-1 .29c-5.7-19.26-18.19-25.65-44.14-44.19-5.55-1-10.93-2.17-16.08-3.56l.05-.18c9-27.84 24.15-31.66 26.05-43 0 0 4.64 3.89 8.16 2.21s-1.48-10.94 0-16.5 3.53-4.09 6.5-10.77 5.94-28 2-36.37c-3.24-7.16-9.66-11.33-17.08-13.39z" fill="#251c19"/><path d="M469.53 600.15c5.07 17.13 4.74 44.46 3.74 99.63h-39.53l-10-46.4c-7.83 15.68-33 32.09-7.23 46.4H252.82c55.25-227.73 30.71-134.78 62.62-267.62 3.07-12.74 20.33-54.05 22.55-60.45s12.25-78.5 12.25-78.5c6.06 2 9.88 3.7 28.2 7.15l3.56.64c-12.52 93.9 2.53 38.15-25.05 131.93-7.81 26.54.43 70.09 3.82 80.66a18.11 18.11 0 00.63 1.72 62.73 62.73 0 0010.72 16.48c9.74 10.67 22.54 16.63 37.22 20.6 5.15 1.39 10.53 2.55 16.08 3.56 25.92 18.55 38.41 24.94 44.11 44.2z" fill="#2a2837"/><path d="M404.93 441.49a7.89 7.89 0 014.14-.08c-1.01 1.59-3.64 1.97-4.14.08z" fill="#2f160a"/><path d="M409.07 441.41a14.1 14.1 0 014.18 2.14c-6.06 1.3-8.24 1.4-12.58-.93 1.75-.45 3.1-.87 4.26-1.13.5 1.89 3.13 1.51 4.14-.08z" fill="#f6f4f8"/><path d="M153 141.8c1.65.67 1.8 2.08 1.85 4.36-1.84 4-5.66 3.79-7.51 1.2-.29-3.48 0-5.79 1.93-6.22a6.75 6.75 0 013.73.66z" fill="#4a0f00"/><path d="M161.34 165.92l10.15 3.15s.24 3.72.06 8c-.77 17.71 4.18 21.14 1.37 46-2.73 24.26 5 43.8-1.37 85 0 0-17.07 16.32-27.47 9.64S133 308.06 133 308.06c4.36-22.47 16.22-106.07 15.58-111-.67-5.19-2.08-11-1.57-14.12a4 4 0 01.23-.9c4.71-12.38.8-26.69.13-34.71 1.85 2.59 5.67 2.76 7.51-1.2.04 3.94-.17 10.38 6.46 19.79z" fill="#efc7b0"/><path d="M509.63 406.89c-5.1 1.62-7.25 2-7.74 2.52-.44.44.59.95 2 2.56 3.72-1.15 3.65-3.32 5.74-5.08zm2-8.56c-7.63-2.54-9.67-.24-15 5.75 3.68 1.23.32.54 7.05-4.17a11.36 11.36 0 017.99-1.58zM494 414.1c-1.29-5.56-6.68-5.56-7.41-19.11a32.06 32.06 0 012.64-14.38v-.07c15.38-1.77 22 5.14 42.35 14 8.53 3.71 14.47-.37 20 1.86s8.53 10.39 8.16 17.81c-.75 15 17.83 11.38 14.15 67.74-9 3.7-19.64 4.29-35.3 4.79 0 0 8.91-15.24 8.53-16.62s-.74-11.7-5.93-13c-7.19-1.84-22.4 10.27-26.73-2.78a16 16 0 00-3.18-5.4c3.85-4.22 8.75-10.5 9.45-16.16a13.62 13.62 0 00-5.54-.44c-3.57.32-4.77.91-7.87 4.66a31.93 31.93 0 00-3.67 5 29.23 29.23 0 01-6.06-6.27s-4.83.4-5.2-5.35 2.86-10.71 1.61-16.28zM133 122c1.76.18 18 10.31 18 10.31l-5.32 4.78-.11.09s-13.22-8.49-14.89-10.72A2.74 2.74 0 01133 122z" fill="#e0b79e"/><path d="M573.88 481.94c11.45-4.68 20.39-14.33 34-35.09 1.2-1.84 2.43-3.76 3.71-5.77 15.32-24.09 3.59-164.57 0-216.69h20.58c12.46 61.35 16.87 117.14 30.36 203.67 1.67 10.72 0 105.36-4.18 149.49s-14.19 122.23-14.19 122.23h-126c-4.45 0-21.52-23.43-21.52-23.43s3.36-38.35 9.17-48.77a20 20 0 001.63-4.33c4-14.85 3.11-50.44 1.45-61.72-1.86-12.62-9.65-31.92 10-47.93s19.68-26.87 19.68-26.87c15.67-.5 26.26-1.09 35.31-4.79z" fill="#f6f4f8"/><path d="M147.32 147.36c.67 8 4.58 22.33-.13 34.71a4 4 0 00-.23.9s-3.52-1.09-6.86 3.92-10.16 1.39-15.73-1-3.76-6.54-2.22-9.19 5.14-4.17 7.09-12.52 4.45-5.16 5.62-10.72 1.76-7.66 1.76-7.66l5.56-5.1 3.34-3.52.11-.09 3.62 4c-1.91.48-2.25 2.79-1.93 6.27z" fill="#eaddd4"/><path d="M175.52 140.73c-3.06 14.5 13 30.2-4 28.34l-10.15-3.15c-6.63-9.41-6.42-15.85-6.5-19.76-.05-2.28-.2-3.69-1.85-4.36a6.75 6.75 0 00-3.74-.66l-3.62-4 5.32-4.78 9.2-6.71 6.58-4.79c-.3-3-4.68-4.8-7.77-3.83-1.82.58-3.19 2.12-3 5 0 0-1.32-3.81 1.3-10.6 9.78-25.35 79 18.91 267.57 30.43 72.92 4.46 159.21-39.53 167-42.3s20.6 10.57 20.6 10.57c10.21 20.43 17 8.93 18.37 31.73.51 8.67 4.1 16.83-4.84 20.92-2.58 1.19-6.19 2-11.22 2.46-6.6.55-1.2 2.78-.08 13.92 1 9.71-7 9.68-11.95 9.88-.73 0-1.4.07-2 .14-4.46.55-13.92-3.34-18.38-13.36s3.91-11.69 12.26-19.48 1.11-4.46-5.57-12.81c-6.54-8.17-.28-15.54 0-15.85-.37.18-24.68 12-49 22.43-24.49 10.49-113.56 21.81-136.94 22.36-7.19.17-15.75.08-24.22-.18-19-.57-37.53-2-38.68-3.09-1.67-1.63-9.47-.62-35.63-3.41s-125-40.63-125-38-3.03 8.03-4.06 12.94z" fill="#eaddd4"/><path d="M493.13 366.32c8-5.19 27.26-24.49 41-23.37 29.81 2.41 52.09 12.88 73.75 103.9-13.61 20.76-22.55 30.41-34 35.09 3.68-56.36-14.9-52.73-14.15-67.74.37-7.42-2.6-15.59-8.16-17.81s-11.51 1.85-20-1.86c-20.36-8.85-27-15.76-42.35-14-1.29.15-2.64.35-4.06.62h-.18c1.48-7.15 4.27-12.29 8.15-14.83z" fill="#2e2522"/><path d="M360.74 513.6c12.26-9.25 11.76-28.5 18.09-43.49l.26.09c-1.9 5.55-2.81 11.52-1.76 17.1 1.12 5.94-2.59 11.51-2.22 19.12.42 8.73 4.42 7.5-2.66 25.06l-.36.32a62.73 62.73 0 01-10.72-16.48 18.11 18.11 0 01-.63-1.72z" fill="#251c19"/><path d="M492.56 442.78c-8.64-24.72-10.73-47.2-7.62-61.65h.18c1.42-.27 2.77-.47 4.06-.62v.07a32.06 32.06 0 00-2.64 14.42c.73 13.55 6.12 13.55 7.41 19.11s-1.95 10.49-1.58 16.24 5.2 5.35 5.2 5.35a29.23 29.23 0 006.06 6.27l2 1.66c1.22 1 2.46 2.06 3.6 3.15.72.7 1.41 1.41 2 2.14a16 16 0 013.18 5.4c4.33 13.05 19.54.94 26.73 2.78 5.19 1.32 5.56 11.66 5.93 13s-8.53 16.62-8.53 16.62 0 10.87-19.68 26.87-11.87 35.31-10 47.93c1.66 11.28 2.54 46.87-1.45 61.72C494.49 610 494 562 492.57 563.39c-12.25-81.11 4.3-108.27-.01-120.61z" fill="#2e2522"/><path d="M518.16 699.78h-29.31l7.79-23.43s17.07 23.43 21.52 23.43z" fill="#2c252e"/><path d="M202.17 383.88c4.32 4.41 6 5.44 11.54 7.1a7.79 7.79 0 00-2.46-4.43 9.85 9.85 0 00-3.9-2.14 14.24 14.24 0 00-5.18-.53zm15.31 46.55c-4.3-11.22-9-15.25-25.33-16.42.67 14.15 11.39 18.99 25.33 16.42zM229 401.56c-.49 4.08 7.14 8 11.32 7.72a18 18 0 00-3.15-4.53 9.83 9.83 0 00-3.83-2.37 17.19 17.19 0 00-4.34-.82zm16-3.69c-3.3-2.7-10.21-5.15-12-5.15 0 3.31-.66.86 6.68 5.15 3.09 1.79 7.14 5.38 7.78 6.57.07.3.1.42.09.25a.69.69 0 00-.09-.25c-.24-1.22-1.2-5.57-2.46-6.57zm-41.86-22.27c15.1.88 14.72 13 21.15 9.33-11.7-11.7-10.95-11.1-21.15-9.33zM224 356.67c11.67-1.48 17.29 6.31 24.67 14.85s6 23 2.64 35.26-10 21.52-16.33 29.68-21.9 13.36-21.9 13.36-19.67 3-26-3c-4.88-4.61-6.65-11.89-7-14.05a2.26 2.26 0 000-.42v-.17c-5.65-25.94 7.42-42.51 7.09-42.51 16.26-24.41 18.83-30.67 36.83-33z" fill="#efc7b0"/><path d="M224.29 384.93c-6.43 3.67-6-8.45-21.15-9.33 10.2-1.77 9.45-2.37 21.15 9.33z" fill="#614d46"/><path d="M396.09 467c8.87-3.72 14.23-.73 18.54 7.88a11.77 11.77 0 01-5.94-1.86c-3.41-1.92-7.05-4.87-12.6-6.02z" fill="#765054"/><path d="M248.7 371.52c-7.38-8.54-13-16.33-24.67-14.85-18 2.3-20.6 8.59-36.9 33 .33 0-12.74 16.57-7.09 42.51 0-.16 0 .07.07.59-.07 3.2-3.88 18.58-13 20-8.94 1.38-18.11 3.45-19.41 3.75-1.13-19 5.44-40.2 9.68-56.7 19.05-6.22 10.92 5.51 37.91-34.26 12.8-18.87 31.55-20.15 53.07-12.62 7.42 2.6 8.16 8.91 14.76 15.59s14.93 38.6 13.81 53.07 1.86 55.3 0 70.88c-1.83 15.35-27.45 16.67-28.23 16.7-.05-2.76-.16-5.78-.34-9.28l-20-18.92c-15.72-14-18-18-15.22-31.18 0 0 15.59-5.2 21.9-13.36s13-17.44 16.33-29.68 4.71-26.71-2.67-35.24z" fill="#39211c"/><path d="M233.36 402.38a9.83 9.83 0 013.83 2.37c-1.66 2.44-6 .14-3.83-2.35z" fill="#543e36"/><path d="M228.33 481l20 18.92s-31.55 32.66-37.49 41.57c-6 9.09-9.44 12.65-10.78 23.27h-.25s-2.74 5.43-6.28 12.83c-6.13 12.83-14.64 31.56-15.34 38.15-1.57 14.66 23.27 31.28 26.33 64.37q.34 6.15.73 12.74c-31.54.45-61.82-.57-89-7.76a143.58 143.58 0 01-35.65-14.43c-4.17-2.42-11.15-10.78-18.31-20.69-12.56-17.35-25.71-39.46-25.47-42.77.39-5.2 10.41-28.6 14.86-44.2s44.54-95.37 50.84-108.36 12.62-55.67 13.73-79S133 308.06 133 308.06s.74 3 11.13 9.64 27.47-9.64 27.47-9.64c-4.08 13.6-11.11 59-10.76 72 .13 5-1.38 11.88-3.42 19.79-4.24 16.5-10.81 37.66-9.68 56.7.52 8.84 2.7 17.21 7.53 24.46 5.2 7.79 22.27 15.21 38.22 12.61S228.33 481 228.33 481z" fill="#f2ebe9"/><path d="M248.71 509.2c.47 25.23-4.24 30.05-11.84 190.58h-31.18q-.19-3.54-.4-7-.37-6.59-.73-12.74c-4.28-73.09-6.29-100.81-4.46-115.32 1.34-10.62 4.73-14.18 10.78-23.27 5.94-8.91 37.49-41.57 37.49-41.57.18 3.54.29 6.56.34 9.32z" fill="#ebe3e2"/><path d="M233.06 392.72c1.76 0 8.67 2.45 12 5.15 1.23 1 2.19 5.35 2.49 6.57-.64-1.19-4.69-4.78-7.78-6.57-7.37-4.29-6.71-1.87-6.71-5.15z" fill="#614d46"/><path d="M399.41 470.24c-3.85-.78-8.31-.86-7.54-3.38.44.58 1.08.37 1.91-.25a22.72 22.72 0 012.31.38c5.55 1.16 9.19 4.11 12.6 6a11.77 11.77 0 005.94 1.86c1.33.11 3 .19 5.56.56-10.89 3.81-13.43-3.71-20.78-5.17z" fill="#d77186"/><path d="M213.11 449.82c-2.75 13.18-.5 17.18 15.22 31.18 0 0-18.93 10-34.89 12.61s-33-4.82-38.22-12.61c-4.83-7.25-7-15.62-7.53-24.46 1.3-.3 10.47-2.37 19.41-3.75 9.13-1.41 12.94-16.79 13-20 .37 2.16 2.14 9.44 7 14.05 6.34 5.95 26.01 2.98 26.01 2.98z" fill="#efc7b0"/><path d="M142.18 140.73l-5.56 5.1c-9-11.89-9.39-11.19-9.05-14.05.43-3.31 1.43-2.84 14.61 8.95z" fill="#e0b79e"/><path d="M501.89 409.41c.49-.48 2.64-.9 7.74-2.52-2.09 1.76-2 3.93-5.75 5.08 2.49-2.69-1.01-2.63-1.99-2.56zm3.75 34.21c1.26-5.14 7.26-10.86 15.08-10.87-1.37 4.33-9.25 12.31-11.48 14-1.14-1.07-2.38-2.11-3.6-3.13z" fill="#f6f4f8"/><path d="M192.15 414c16.3 1.17 21 5.2 25.33 16.42-8.22-9.83-12.29-13.11-25.33-16.42z" fill="#b55c6a"/><path d="M437.36 444.21c7.72 1.47 9.09 7.71 11.13 15.86-4.94-9.06-5.26-13.21-16.84-14.88.14-2.51 2.78-1.54 5.71-.98z" fill="#2f160a"/><path d="M205.29 692.82q.21 3.42.4 7H62.31v-33.27c12.07 20.62 30.75 24.46 53.92 18.64v-.13c27.24 7.19 57.52 8.21 89.06 7.76z" fill="#303a5e"/><path d="M419 454.31c-.84 1.17-3.07-1.26-2.37-3.52-.01 0 3.19 2.35 2.37 3.52z" fill="#2f160a"/><path d="M503.69 399.91c-6.73 4.71-3.37 5.4-7.05 4.17 5.36-6 7.4-8.29 15-5.75a11.36 11.36 0 00-7.95 1.58z" fill="#2e2522"/><path d="M414.63 474.87c-4.31-8.61-9.67-11.6-18.54-7.88a22.72 22.72 0 00-2.31-.38c2.87-2.12 8-9.06 14.91-5.1 8.11 4.64 9.85 13.32 11.54 13.86v.06c-2.61-.37-4.23-.43-5.6-.56z" fill="#f6f4f8"/><path d="M391.87 466.86a2.79 2.79 0 01-.44-1.12c17.94-24.29 31 7.34 29.69 9.13-.31.44-.6.59-.89.5-1.69-.54-3.43-9.22-11.54-13.86-6.94-4-12 3-14.91 5.1-.78.62-1.47.83-1.91.25z" fill="#d77186"/><path d="M211.25 386.55c-1.41 2.56-6.69.14-3.91-2.12a9.85 9.85 0 013.91 2.12z" fill="#543e36"/><path d="M159 117c3.09-1 7.47.83 7.77 3.83l-6.58 4.79z" fill="#e0b79e"/><path d="M405.89 437.24a10.54 10.54 0 014-1.47l.33-.07c2.64-.25 9.93 2.67 9.93 2.67.85 4.54-8.86-1.55-14.26-1.13z" fill="#2f160a"/><path d="M492.57 563.39c1.43-1.39 1.92 46.61 14.87 59.86a20 20 0 01-1.63 4.33c-5.83 10.4-9.17 48.77-9.17 48.77l-7.79 23.43h-7.79c8.72-103.5 10.4-135.28 11.51-136.39z" fill="#f6f4f8"/><path d="M614.66 179.1c-1.12-11.14-6.52-13.37.08-13.92 5-.42 8.64-1.27 11.22-2.46l.08.17c1.19 19.5 3.51 42.14 6.13 61.5h-20.58c2.8-16.23 3.21-28.44-8.88-35.4 4.99-.21 12.92-.18 11.95-9.89z" fill="#e0b79e"/><path d="M438.06 451.84c.9 2.31-3 1.23-3.21-.67a6.77 6.77 0 013.21.67z" fill="#2f160a"/><path d="M217.48 430.43c-13.94 2.53-24.66-2.27-25.33-16.42 8.44 13.05 9.97 14.04 25.33 16.42z" fill="#b55c6a"/><path d="M62.31 649.94c7.16 9.91 14.14 18.27 18.31 20.69a143.58 143.58 0 0035.65 14.43v.13c-23.17 5.82-41.85 2-53.92-18.64z" fill="#efc7b0"/><path d="M213.71 391c-5.51-1.66-7.22-2.69-11.54-7.1a14.24 14.24 0 015.18.52c-2.78 2.26 2.5 4.68 3.91 2.12a7.79 7.79 0 012.45 4.46z" fill="#f6f4f8"/><path d="M503.64 441.94a31.93 31.93 0 013.67-5c3.1-3.75 4.3-4.34 7.87-4.66a13.62 13.62 0 015.54.44c-7.82 0-13.82 5.73-15.08 10.87l-2-1.66z" fill="#d77186"/><path d="M240.34 409.28c-4.18.27-11.81-3.64-11.32-7.72a17.19 17.19 0 014.34.82c-2.21 2.49 2.17 4.79 3.83 2.35a18 18 0 013.15 4.55z" fill="#f6f4f8"/><path d="M388.09 191.35c.56-5.29 7-1.95 7 0 0 22.9 1.66 19.75-5 44.53 7.94-22.5 20.46-14.42 14.75-9.74-3.06 2.5-5 8.07-8.35 17.53s-13.64 21.15-13.64 21.15l-4.36 35.52c-18.32-3.45-22.14-5.12-28.2-7.15 11.93-41.07 9-18.62 5-47-1.4-10-.84-17-2.23-25.33s-1.39-16.71 1.12-16.71c4.36 0 6.87 23.61 9.06 19.77 1.26-2.23-1-17.82-2.66-25s1.39-7.51 4.73-7.51c4.68 0 .22 6.45 9.39 30.33 1.57-30.82-3-36 3.78-37.57h.1c1.2 0 2.91 4.44 4.26 12.81 1.39 8.63.28 24.49 1.95 23.66s2.74-24 3.3-29.29z" fill="#ecc19c"/><path d="M408.18 451.16c-1.34-1 3-2.22 3-2.22.01 1.77-1.66 3.16-3 2.22z" fill="#2f160a"/><path d="M511.27 448.91c-.62-.73-1.31-1.44-2-2.14 2.23-1.71 10.11-9.69 11.48-14-.75 5.64-5.63 11.92-9.48 16.14z" fill="#d77186"/><path d="M192.15 414c13 3.3 17.11 6.58 25.33 16.42-15.36-2.37-16.89-3.36-25.33-16.42z" fill="#f6f4f8"/><path d="M503.88 412c-1.41-1.61-2.44-2.12-2-2.56.99-.1 4.49-.16 2 2.56z" fill="#2e2522"/><path d="M438.06 451.84a7.68 7.68 0 014 5.45c.12.64-5.5-1-10.44-5.29a7.86 7.86 0 013.2-.84c.18 1.91 4.18 2.99 3.24.68z" fill="#f6f4f8"/><path d="M236.87 699.78c7.6-160.53 12.31-165.35 11.84-190.58-.05-2.76-.16-5.78-.34-9.28 0 0-31.55 32.66-37.49 41.57-6 9.09-9.44 12.65-10.78 23.27-1.83 14.51.18 42.23 4.46 115.32q.34 6.15.73 12.74.21 3.42.4 7z" fill="none" stroke="#000" stroke-miterlimit="10" stroke-width=".88"/><path d="M248.37 499.92l-20-18.92s-18.93 10-34.89 12.61-33-4.82-38.22-12.61c-4.83-7.25-7-15.62-7.53-24.46-1.13-19 5.44-40.2 9.68-56.7 2-7.91 3.55-14.76 3.42-19.79-.35-13 6.68-58.39 10.76-72 0 0-17.07 16.32-27.47 9.64S133 308.06 133 308.06s-15.58 44.16-16.7 67.54-7.42 66.06-13.73 79S56.13 547.43 51.68 563s-14.47 39-14.84 44.16c-.24 3.31 12.91 25.42 25.47 42.77 7.16 9.91 14.14 18.27 18.31 20.69a143.58 143.58 0 0035.65 14.43c27.2 7.19 57.48 8.21 89 7.76h0m-11.7-115.26c3.54-7.4 6.28-12.83 6.28-12.83" fill="none" stroke="#000" stroke-miterlimit="10" stroke-width=".88"/><path d="M204.64 681c0-.31-.06-.63-.08-.94-3.06-33.09-27.9-49.71-26.33-64.37.7-6.59 9.21-25.32 15.34-38.15m-131.26 72.4v16.61c12.07 20.62 30.75 24.46 53.92 18.64" fill="none" stroke="#000" stroke-miterlimit="10" stroke-width=".88"/><path fill="none" stroke="#000" stroke-miterlimit="10" stroke-width=".88" d="M62.31 666.55v33.23h143.38M71.46 518.16s-2.71 18.5 8.42 27m113.69 32.39h0c-.51.9-15.38 7.34-26.47 4.38m12.98-149.55a2.26 2.26 0 010 .42c-.07 3.2-3.88 18.58-13 20-8.94 1.38-18.11 3.45-19.41 3.75h-.16"/><path d="M228.33 481c-15.72-14-18-18-15.22-31.18 0 0-19.67 3-26-3-4.88-4.61-6.65-11.89-7-14.05-.1-.52-.11-.75-.07-.59" fill="none" stroke="#000" stroke-miterlimit="10" stroke-width=".88"/><path d="M213.11 449.82s15.59-5.2 21.9-13.36 13-17.44 16.33-29.68 4.74-26.73-2.64-35.26-13-16.33-24.67-14.85c-18 2.3-20.6 8.59-36.9 33 .33 0-12.74 16.57-7.09 42.51v.17" fill="none" stroke="#000" stroke-miterlimit="10" stroke-width=".88"/><path d="M248.7 509.2h0c.78 0 26.4-1.35 28.23-16.7 1.86-15.58-1.11-56.41 0-70.88s-7.21-46.39-13.81-53.07-7.34-13-14.76-15.59c-21.52-7.53-40.27-6.25-53.07 12.62-27 39.77-18.86 28-37.91 34.26" fill="none" stroke="#000" stroke-miterlimit="10" stroke-width=".44"/><path d="M192.15 414c.67 14.15 11.39 18.95 25.33 16.42-15.36-2.37-16.89-3.36-25.33-16.42z" fill="none" stroke="#000" stroke-linecap="round" stroke-linejoin="round" stroke-width=".44"/><path d="M217.48 430.43c-4.3-11.22-9-15.25-25.33-16.42 13.04 3.3 17.11 6.58 25.33 16.42z" fill="none" stroke="#000" stroke-linecap="round" stroke-linejoin="round" stroke-width=".44"/><path d="M224.29 384.93c-11.7-11.7-10.95-11.1-21.15-9.33 15.1.88 14.72 13 21.15 9.33zm23.23 19.51a.69.69 0 01.09.25c.01.17-.02.05-.09-.25zm0 0c-.3-1.22-1.26-5.57-2.49-6.57-3.3-2.7-10.21-5.15-12-5.15 0 3.31-.66.86 6.68 5.15 3.12 1.79 7.17 5.38 7.81 6.57zm-14.16-2.06a17.19 17.19 0 00-4.34-.82c-.49 4.08 7.14 8 11.32 7.72a18 18 0 00-3.15-4.53 9.83 9.83 0 00-3.83-2.37zm-26.01-17.98a14.24 14.24 0 00-5.18-.52c4.32 4.41 6 5.44 11.54 7.1a7.79 7.79 0 00-2.46-4.43 9.85 9.85 0 00-3.9-2.14z" fill="none" stroke="#000" stroke-miterlimit="10" stroke-width=".88"/><path d="M203.42 388.54s3.27 3.41 4.86 4.18m8.08-3.9c-.35-.42-2-5.64-6.47-6.33s-4.66-.83-5.08-.76m25.75 18.01c5.8 1 5.87 1.32 11.27 7.45m-13.64-.84a70.9 70.9 0 005.64 4.53M221.3 408c0 .18 3 9.94-3.41 7-3.28-1.5-5.17-.5-6.47-2.61-.55-.9.35-2.57-1.39-2.79s-4-1.11-4.18-2.15c-.88-6.59 4.84-1.18 10-7.73m-22.66 11.85l-2.91 3.13m29.14 13.72s-1.79 2.93-1.94 4.88" fill="none" stroke="#000" stroke-miterlimit="10" stroke-width=".44"/><path d="M171.55 308.06c6.35-41.18-1.36-60.72 1.37-85 2.81-24.88-2.14-28.31-1.37-46 .18-4.27-.06-8-.06-8l-10.15-3.15c-6.63-9.41-6.42-15.85-6.5-19.76-.05-2.28-.2-3.69-1.85-4.36a6.75 6.75 0 00-3.74-.66c-1.91.43-2.22 2.74-1.93 6.22.67 8 4.58 22.33-.13 34.71a4 4 0 00-.23.9c-.51 3.13.9 8.93 1.57 14.12.64 4.9-11.22 88.5-15.58 111M151 132.34s-16.29-10.13-18-10.34a2.74 2.74 0 00-2.32 4.46c1.67 2.23 14.89 10.72 14.89 10.72l.11-.09zm-8.82 8.39c-13.18-11.79-14.18-12.26-14.61-8.95-.34 2.86 0 2.16 9.05 14.05z" fill="none" stroke="#000" stroke-miterlimit="10" stroke-width=".88"/><path d="M136.62 145.83s-.6 2.09-1.76 7.66-3.67 2.36-5.62 10.72-5.57 9.88-7.09 12.52-3.34 6.82 2.22 9.19 12.39 6 15.73 1S147 183 147 183m442.05-55.39h0c-.27.31-6.53 7.68 0 15.85 6.68 8.35 13.91 5 5.57 12.81s-16.71 9.45-12.26 19.48 13.92 13.91 18.38 13.36c.57-.07 1.24-.11 2-.14 5-.2 12.92-.17 11.95-9.88-1.12-11.14-6.52-13.37.08-13.92 5-.42 8.64-1.27 11.22-2.46 8.94-4.09 5.35-12.25 4.84-20.92-1.34-22.8-8.16-11.3-18.37-31.73 0 0-12.81-13.36-20.6-10.57s-94.08 46.76-167 42.3C236.29 130.28 167 86 157.26 111.37c-2.62 6.79-1.3 10.6-1.3 10.6-.19-2.84 1.18-4.38 3-5 3.09-1 7.47.83 7.77 3.83l-6.58 4.79-9.2 6.71" fill="none" stroke="#000" stroke-miterlimit="10" stroke-width=".88"/><path d="M171.49 169.07c17.07 1.86 1-13.84 4-28.34 1-4.91 4-10.34 4-13s98.88 35.21 125 38 34 1.78 35.63 3.41c1.15 1.12 19.65 2.52 38.68 3.09 8.47.26 17 .35 24.22.18 23.38-.55 112.45-11.87 136.94-22.36 24.3-10.4 48.61-22.25 49-22.43m-443.44 9.59l-3.34 3.52m16.77-23.79l.01.07 1.19 8.61m-12.96 21.58l.13.16c1.85 2.59 5.67 2.76 7.51-1.2m318.44 553.62c1-55.17 1.33-82.5-3.74-99.63-5.7-19.26-18.19-25.65-44.14-44.19-5.55-1-10.93-2.17-16.08-3.56-14.68-4-27.48-9.93-37.22-20.6a62.73 62.73 0 01-10.72-16.48 18.11 18.11 0 01-.63-1.72c-3.39-10.57-11.63-54.12-3.82-80.66 27.58-93.78 12.53-38 25.05-131.93l-3.53-.65c-18.32-3.45-22.14-5.12-28.2-7.15 0 0-10 72.09-12.25 78.5s-19.48 47.71-22.55 60.45c-31.91 132.84-7.37 39.89-62.62 267.62h163.66c-25.75-14.31-.6-30.72 7.23-46.4l10 46.4z" fill="none" stroke="#000" stroke-miterlimit="10" stroke-width=".88"/><path d="M405.88 437.24a16.27 16.27 0 00-3.69 3.3c-4.45 5.2-3.71 5.57-8 7.79s-11.52 11.33-15.12 21.87c-1.9 5.55-2.81 11.52-1.76 17.1 1.12 5.94-2.59 11.51-2.22 19.12.42 8.73 4.42 7.5-2.66 25.06m37.8-95.78l-.33.07a10.54 10.54 0 00-4 1.47" fill="none" stroke="#000" stroke-miterlimit="10" stroke-width=".88"/><path d="M435.41 509.2h0s4.64 3.89 8.16 2.21-1.48-10.94 0-16.5 3.53-4.09 6.5-10.77 5.94-28 2-36.37c-3.33-7.15-9.75-11.32-17.17-13.38a48.13 48.13 0 00-12.89-1.65c-3 0-3.16 1.68-7.79 2.42-1.48.23-2.77.33-4 .53m-.86 116.53c9-27.84 24.15-31.66 26.05-43" fill="none" stroke="#000" stroke-miterlimit="10" stroke-width=".88"/><path d="M383.64 479.14s9.83 6.87 15.4 7.05 6.68 1.11 8.72 0m12.47-10.82c.29.09.58-.06.89-.5 1.28-1.79-11.75-33.42-29.69-9.13a2.79 2.79 0 00.44 1.12c.44.58 1.08.37 1.91-.25 2.87-2.12 8-9.06 14.91-5.1 8.11 4.64 9.85 13.32 11.54 13.86z" fill="none" stroke="#000" stroke-miterlimit="10" stroke-width=".44"/><path d="M393.72 466.61h.06a22.72 22.72 0 012.31.38c5.55 1.16 9.19 4.11 12.6 6a11.77 11.77 0 005.94 1.86c1.33.11 3 .19 5.56.56-10.89 3.79-13.43-3.73-20.78-5.19-3.85-.78-8.31-.86-7.54-3.38a1.25 1.25 0 01.09-.25m4.13.41c8.87-3.72 14.23-.73 18.54 7.88" fill="none" stroke="#000" stroke-miterlimit="10" stroke-width=".44"/><path d="M396.06 467h0" fill="none" stroke="#000" stroke-miterlimit="10" stroke-width=".88"/><path d="M424.28 460.07c1 2.93.69 10.63.55 11.45M404.93 452c-2.37.28-10.86 1.84-12.11 4.61" fill="none" stroke="#000" stroke-miterlimit="10" stroke-width=".44"/><path d="M431.65 445.19c11.58 1.67 11.9 5.82 16.84 14.88-2-8.15-3.41-14.39-11.13-15.86-2.93-.56-5.57-1.53-5.71.98zm-21.75-9.42l.33-.07h0c2.64-.25 9.93 2.67 9.93 2.67.8 4.54-8.9-1.55-14.3-1.13h0" fill="none" stroke="#000" stroke-miterlimit="10" stroke-width=".88"/><path d="M404.93 441.49c-1.16.26-2.51.68-4.26 1.13 4.34 2.33 6.52 2.23 12.58.93a14.1 14.1 0 00-4.18-2.14 7.89 7.89 0 00-4.14.08zm33.13 10.35a7.68 7.68 0 014 5.45c.12.64-5.5-1-10.44-5.29a7.86 7.86 0 013.2-.84 6.77 6.77 0 013.24.68z" fill="none" stroke="#000" stroke-linejoin="round" stroke-width=".88"/><path d="M421.2 446.16c.29 1.53 4.19 6.68 2.38 8.91-2.29 2.81-7.07 3.12-10.53-1.68-1-1.35-8.08 1.12-7.17-2.91.7-3.09 5.32-3.19 6.57-6" fill="none" stroke="#000" stroke-miterlimit="10" stroke-width=".44"/><path d="M416.62 450.79s3.2 2.35 2.37 3.52-3.07-1.26-2.37-3.52zm-5.43-1.85s-4.35 1.27-3 2.22 3-.45 3-2.22zm23.66-14.51h.09C469 423 476 506.52 473.57 539.54c-2 26.44-4.61 52.44-3.09 60.32m-91.65-129.75c-6.33 15-5.83 34.24-18.09 43.49m-74.51 98.59s-7.25 6.68 4.45 18.92m117.08 44.67s-20.93 2.65-28.93-3.47m-.39-371.97l4.36-35.52s10.3-11.69 13.64-21.15 5.29-15 8.35-17.53c5.71-4.68-6.81-12.76-14.75 9.74 6.67-24.78 5-21.63 5-44.53 0-1.95-6.4-5.29-7 0s-1.67 28.39-3.34 29.22-.56-15-1.95-23.66c-1.35-8.37-3.06-12.81-4.26-12.81h-.1c-6.73 1.56-2.21 6.75-3.78 37.57-9.17-23.88-4.71-30.33-9.39-30.33-3.34 0-6.4.27-4.73 7.51s3.92 22.82 2.66 25c-2.19 3.84-4.7-19.77-9.06-19.77-2.51 0-2.51 8.36-1.12 16.71s.83 15.31 2.23 25.33c3.95 28.41 6.92 6-5 47m167.96 406.66h126s10-78.1 14.19-122.23 5.85-138.77 4.18-149.49c-13.49-86.53-17.9-142.32-30.36-203.67h-20.58c3.59 52.12 15.32 192.6 0 216.69-1.28 2-2.51 3.93-3.71 5.77-13.61 20.76-22.55 30.41-34 35.09-9 3.7-19.64 4.29-35.3 4.79 0 0 0 10.87-19.68 26.87s-11.87 35.31-10 47.93c1.66 11.28 2.54 46.87-1.45 61.72a20 20 0 01-1.63 4.33c-5.83 10.4-9.17 48.77-9.17 48.77s17.06 23.43 21.51 23.43z" fill="none" stroke="#000" stroke-miterlimit="10" stroke-width=".88"/><path fill="none" stroke="#000" stroke-miterlimit="10" stroke-width=".88" d="M496.64 676.35l-7.79 23.43h29.31"/><path d="M488.85 699.78h-7.79c8.72-103.5 10.4-135.28 11.51-136.39 1.43-1.39 1.92 46.61 14.87 59.86m-14.88-59.87c-12.24-81.1 4.31-108.26 0-120.6-8.64-24.72-10.73-47.2-7.62-61.65 1.52-7.11 4.31-12.27 8.19-14.81 8-5.19 27.26-24.49 41-23.37 29.81 2.41 52.09 12.88 73.75 103.9h0" fill="none" stroke="#000" stroke-miterlimit="10" stroke-width=".88"/><path d="M573.86 482.18v-.24c3.68-56.36-14.9-52.73-14.15-67.74.37-7.42-2.6-15.59-8.16-17.81s-11.51 1.85-20-1.86c-20.36-8.85-27-15.76-42.35-14-1.29.15-2.64.35-4.06.62" fill="none" stroke="#000" stroke-miterlimit="10" stroke-width=".88"/><path d="M538.58 486.73s8.91-15.24 8.53-16.62-.74-11.7-5.93-13c-7.19-1.84-22.4 10.27-26.73-2.78a16 16 0 00-3.18-5.4c-.62-.73-1.31-1.44-2-2.14-1.14-1.09-2.38-2.13-3.6-3.15l-2-1.66a29.23 29.23 0 01-6.06-6.27s-4.83.4-5.2-5.35 2.88-10.67 1.58-16.24-6.68-5.56-7.41-19.11a32.06 32.06 0 012.64-14.38" fill="none" stroke="#000" stroke-miterlimit="10" stroke-width=".88"/><path d="M530.6 450.2s21-16.52 21.71-23.76 0-9.84 0-9.84" fill="none" stroke="#000" stroke-linecap="round" stroke-miterlimit="10" stroke-width=".44"/><path d="M552.64 412c3.54.06 6.79-4.43 4.49-10.16" fill="none" stroke="#000" stroke-miterlimit="10" stroke-width=".44"/><path d="M501.88 409.41c-.44.44.59.95 2 2.56 3.73-1.15 3.66-3.32 5.75-5.08-5.1 1.62-7.25 2-7.74 2.52" fill="none" stroke="#000" stroke-miterlimit="10" stroke-width=".88"/><path d="M505.64 414.1s1.39-.92 3.34-2.5m-8.63-4.71s.84-3.18 5.29-3.18" fill="none" stroke="#000" stroke-miterlimit="10" stroke-width=".44"/><path d="M511.67 398.33a11.36 11.36 0 00-8 1.58c-6.73 4.71-3.37 5.4-7.05 4.17 5.38-5.99 7.38-8.29 15.05-5.75z" fill="none" stroke="#000" stroke-miterlimit="10" stroke-width=".88"/><path d="M511.24 448.94h0c3.85-4.22 8.75-10.5 9.45-16.16-1.37 4.33-9.25 12.31-11.48 14h0m-3.57-3.16c1.26-5.14 7.26-10.86 15.08-10.87a13.62 13.62 0 00-5.54-.44c-3.57.32-4.77.91-7.87 4.66a31.93 31.93 0 00-3.67 5" fill="none" stroke="#000" stroke-linecap="round" stroke-linejoin="round" stroke-width=".44"/><path d="M509.63 423.61c.74-.14 10.3 1.54 11.09 4.32m-23.15 7.76s4-.32 5.43-1.15" fill="none" stroke="#000" stroke-miterlimit="10" stroke-width=".44"/><path d="M632.17 224.39c-2.62-19.36-4.94-42-6.13-61.5m-14.45 61.5c2.8-16.23 3.21-28.44-8.88-35.4M233.35 402.41c-2.21 2.49 2.17 4.79 3.83 2.35m-29.84-20.33c-2.78 2.26 2.5 4.68 3.91 2.12m312.48 196.51c19.3 2.22 54.18-5.57 60.86-11.15M404.93 441.49c.5 1.89 3.13 1.47 4.14-.08" fill="none" stroke="#000" stroke-miterlimit="10" stroke-width=".88"/><path d="M438.06 451.84v0" fill="none" stroke="#000" stroke-linejoin="round" stroke-width=".88"/><path d="M434.85 451.17c.19 1.9 4.11 3 3.21.67m63.6-42.41h.22c1-.07 4.48-.13 2 2.56" fill="none" stroke="#000" stroke-miterlimit="10" stroke-width=".88"/></svg>