<svg xmlns="http://www.w3.org/2000/svg" viewBox="0 0 1400 780"><path fill="#f0beb4" stroke="#000" stroke-linecap="round" stroke-miterlimit="10" stroke-width=".51" d="M0 0h1400v780H0z"/><path d="M804.48 504.63c.15.72-6.23-1.12-11.84-6a8.88 8.88 0 013.63-.95c.22 2.15 4.65 3.37 3.66.77a8.67 8.67 0 014.55 6.18z" fill="#f6f4f8"/><path d="M747.5 515.48c.5.66 1.23.43 2.17-.27a25.38 25.38 0 012.63.42c6.3 1.33 10.44 4.68 14.29 6.84a13.64 13.64 0 006.74 2.11c1.51.12 3.4.21 6.31.63-12.36 4.3-15.24-4.23-23.58-5.9-4.37-.87-9.44-.96-8.56-3.83z" fill="#d77186"/><path d="M575.58 450.16c-4.74.31-13.39-4.13-12.83-8.77a19 19 0 014.92.94c-2.51 2.83 2.46 5.44 4.34 2.67a20.34 20.34 0 013.57 5.16z" fill="#f6f4f8"/><path d="M762.33 486.7a9.06 9.06 0 014.7-.09c-1.13 1.76-4.13 2.24-4.7.09z" fill="#2f160a"/><path d="M792.64 490.89c13.13 1.91 13.5 6.62 19.11 16.9-2.32-9.25-3.87-16.33-12.63-18-3.32-.63-6.32-1.74-6.48 1.1zm0 7.74c5.61 4.88 12 6.72 11.84 6a8.67 8.67 0 00-4.55-6.17 7.54 7.54 0 00-3.66-.78 8.88 8.88 0 00-3.63.95zm-17-1.38c-.79 2.57 1.74 5.33 2.68 4s-2.73-4-2.73-4zm-6.16-2.09s-4.95 1.44-3.42 2.51 3.37-.51 3.37-2.51zm-7.1-8.46c-1.32.3-2.85.76-4.83 1.28 4.92 2.65 7.38 2.54 14.26 1.06a16.19 16.19 0 00-4.73-2.43 9.06 9.06 0 00-4.75.09zm18.36 37.88c1.46-2-13.32-37.92-33.68-10.36a3.39 3.39 0 00.49 1.26c-.88 2.87 4.19 3 8.56 3.83 8.34 1.67 11.22 10.2 23.58 5.9v-.07c.31.1.64-.06 1-.56zM735 598.26a129.48 129.48 0 01-9.53-9.46c8-19.92 3.49-18.52 3-28.43-.42-8.63 3.79-15 2.53-21.69a35.13 35.13 0 011.3-18.52c2.09-5.9 5.16-9.56 5.65-10.95 1.26-3.58 7.37-12.21 12.21-14.74s4-2.94 9.05-8.84a18.3 18.3 0 014.19-3.76c6.11-.49 17.14 6.43 16.23 1.28 0 0-8.27-3.31-11.28-3 1.41-.23 2.88-.34 4.55-.61 5.26-.85 5.47-2.74 8.84-2.74a54.64 54.64 0 0114.6 1.86c8.42 2.34 15.71 7.07 19.5 15.19 4.42 9.47 1.06 33.68-2.31 41.26s-5.69 5.9-7.37 12.21 4 16.85 0 18.74-9.26-2.52-9.26-2.52c-2.16 12.88-19.31 17.21-29.57 48.8-11.54-3.17-25.56-7.99-32.33-14.08z" fill="#ecc19c"/><path d="M771.76 489c-6.88 1.48-9.34 1.59-14.26-1.06 2-.52 3.51-1 4.83-1.28.57 2.15 3.57 1.67 4.7-.09a16.19 16.19 0 014.73 2.43z" fill="#f6f4f8"/><path d="M747 514.22c20.36-27.56 35.14 8.32 33.68 10.36-.36.5-.68.66-1 .56-1.91-.61-3.89-10.46-13.09-15.72-7.88-4.5-13.67 3.39-16.92 5.79-.94.7-1.67.93-2.17.27a3.39 3.39 0 01-.5-1.26z" fill="#d77186"/><path d="M749.67 515.21c3.25-2.4 9-10.29 16.92-5.79 9.2 5.26 11.18 15.11 13.09 15.72v.07c-2.91-.42-4.8-.51-6.31-.63-4.89-9.77-11-13.17-21-9a25.38 25.38 0 00-2.7-.37z" fill="#f6f4f8"/><path d="M883.43 437.74c-8.65-2.89-11-.28-17 6.52 4.18 1.4.36.61 8-4.73 4.16-2.95 9.32-1.69 9-1.79zm-11.1 12.57c-.51.5.66 1.07 2.26 2.9 4.24-1.3 4.16-3.77 6.53-5.76-5.82 1.85-8.26 2.32-8.79 2.86zm-9 5.32c-1.48-6.32-7.58-6.32-8.42-21.68a36.43 36.43 0 013-16.32v-.08c17.47-2 25 5.83 48.05 15.87 9.68 4.21 16.42-.42 22.73 2.11s9.69 11.78 9.27 20.21c-.85 17 20.23 12.91 16 76.86-10.26 4.19-22.28 4.86-40 5.43 0 0 10.1-17.3 9.68-18.85s-.84-13.29-6.73-14.79-16.85 5.35-23.16 3.4-5.06-.2-7.16-6.55a18.27 18.27 0 00-3.61-6.12c4.37-4.8 9.92-11.91 10.71-18.33a15.22 15.22 0 00-6.28-.5c-4.06.35-5.41 1-8.93 5.29a36.62 36.62 0 00-4.16 5.63 33 33 0 01-6.87-7.11s-5.47.46-5.89-6.07 3.24-12.03 1.77-18.4z" fill="#e0b79e"/><path d="M497.54 335.31s-19.37 18.53-31.16 10.95-12.63-10.95-12.63-10.95c4.94-25.48 18.4-120.33 17.68-125.89-.76-5.9-2.37-12.48-1.79-16a5 5 0 01.26-1c1.2-3.16 3.22-15.37 2.37-23.37-.73-7-2.27-10.61-2.36-16.18 2.09 3.1 6.53 3.39 8.66-1.2.1 4.44-.14 11.75 7.38 22.43l11.51 3.58s.28 4.21.07 9.05c-.88 20.1 4.74 24 1.56 52.21-3.09 27.49 5.66 49.65-1.55 96.37zM373.6 723.21c8.13 11.24 16 20.72 20.78 23.47a162.84 162.84 0 0040.44 16.37v.15c-26.3 6.6-47.48 2.24-61.18-21.15z" fill="#efc7b0"/><path d="M468 141.46l6.15-5.51 10.44-7.62 7.45-5.44c-.34-3.39-5.3-5.43-8.8-4.33-2.07.65-3.62 2.4-3.41 5.63 0 0-1.5-4.33 1.48-12 11.1-28.76 89.66 21.46 303.58 34.52 82.73 5.06 180.63-44.84 189.47-48s23.37 12 23.37 12c11.58 23.18 19.32 10.14 20.84 36 .57 9.84 4.66 19.1-5.5 23.75-2.92 1.34-7 2.3-12.72 2.78-7.49.63-1.36 3.16-.1 15.79 1.11 11-7.88 11-13.55 11.21-.83 0-1.59.08-2.23.16-5.05.63-15.79-3.79-20.84-15.16s4.42-13.26 13.9-22.11 1.26-5-6.32-14.52c-7.42-9.28-.31-17.63 0-18-.42.2-28 13.65-55.57 25.45-27.79 11.94-128.84 24.73-155.37 25.36-8.16.19-17.87.09-27.47-.21-21.59-.65-42.58-2.25-43.89-3.52-1.9-1.83-10.74-.69-40.43-3.85s-141.78-46.1-141.86-43.1-3.4 9.15-4.57 14.72-.09 3.91 0 10.54 3.38 8.53 4.49 15.63-9.07 6-9.07 6L486 174.05c-7.52-10.68-7.28-18-7.38-22.43-.06-2.58-.23-4.19-2.1-4.94-1.27-.51-3.23-1.71-4.68-1z" fill="#eaddd4"/><path d="M854.91 434c.84 15.36 6.94 15.36 8.42 21.68s-2.21 11.9-1.79 18.42 5.89 6.07 5.89 6.07a33 33 0 006.87 7.11c.75.63 1.52 1.25 2.28 1.89 1.4 1.16 2.8 2.34 4.09 3.59a29.08 29.08 0 012.31 2.41 18.27 18.27 0 013.61 6.12c2.1 6.35.84 4.6 7.16 6.55s17.26-4.9 23.16-3.4 6.31 13.24 6.73 14.79S914 538 914 538s0 12.33-22.32 30.49-13.47 40.06-11.37 54.37c1.89 12.8 2.88 53.15-1.65 70-14.68-15.1-15.26-69.53-16.87-67.9-13.89-92 4.89-122.84 0-136.83-3-8.43-11.37-34.67-10.53-50a144.22 144.22 0 012.08-19.94c1.62-.31 3.15-.55 4.61-.71v.08a36.43 36.43 0 00-3.04 16.44z" fill="#2e2522"/><path d="M434.8 412c1.26-26.53 18.95-76.64 18.95-76.64s.84 3.37 12.63 10.95 31.16-10.95 31.16-10.95c-4.63 15.44-12.6 67-12.21 81.69.15 5.7-1.56 13.47-3.87 22.45-4.83 18.72-12.28 42.73-11 64.33.59 10 3.06 19.52 8.54 27.74 5.9 8.85 25.26 17.27 43.37 14.32S562 531.52 562 531.52L584.7 553s-35.79 37-42.53 47.16c-6.88 10.31-10.72 14.35-12.25 26.4h-.27s-23.27 46.06-24.53 57.85c-1.78 16.59 26.23 35.33 29.88 72.64q.42 7.14.85 14.8c-35.78.52-70.14-.64-101-8.8a162.84 162.84 0 01-40.44-16.37c-4.74-2.75-12.65-12.23-20.78-23.47-14.25-19.69-29.17-44.77-28.9-48.53.42-5.89 11.79-32.42 16.84-50.1 2.16-7.55 11.67-28.36 22.43-50.89 14.45-30.26 31.15-63.61 35.25-72.06 7.13-14.74 14.29-63.16 15.55-89.63z" fill="#f2ebe9"/><path d="M535 757.05c-4.83-82.66-7.1-114-5-130.49 1.53-12 5.37-16.09 12.25-26.4C548.91 590.05 584.7 553 584.7 553c.2 4 .33 7.38.39 10.52.53 28.63-4.83 34.08-13.45 216.23h-35.37q-.22-4-.46-7.9-.43-7.66-.81-14.8z" fill="#ebe3e2"/><path d="M874.32 487.21a36.62 36.62 0 014.16-5.63c3.52-4.27 4.87-4.94 8.93-5.29a15.22 15.22 0 016.28.5c-8.87 0-15.67 6.5-17.11 12.33-.76-.64-1.53-1.26-2.28-1.89zm8.68 7.91a29.08 29.08 0 00-2.31-2.41c2.52-1.93 11.47-11 13-15.92-.79 6.42-6.34 13.53-10.69 18.33z" fill="#d77186"/><path d="M542.58 424.37c-1.6 2.91-7.59.16-4.43-2.41a11.39 11.39 0 014.43 2.42z" fill="#543e36"/><path d="M470.47 503.78c-1.29-21.6 6.16-45.61 11-64.33 21.62-7.06 12.39 6.25 43-38.87 14.53-21.41 35.8-22.86 60.22-14.32 8.42 2.95 9.26 10.11 16.75 17.69s16.93 43.79 15.67 60.21 2.1 62.73 0 80.42c-2.08 17.41-31.15 18.9-32 18.94-.06-3.14-.19-6.56-.39-10.52L562 531.52c-17.83-15.84-20.38-20.41-17.26-35.36 0 0 17.68-5.9 24.84-15.16s14.73-19.79 18.52-33.69 5.38-30.31-3-40-14.75-18.52-28-16.84c-20.44 2.61-23.37 9.75-41.86 37.48.37 0-14.46 18.79-8 48.23-.05-.19 0 .07.07.66-.08 3.63-4.4 21.09-14.77 22.69-10.19 1.56-20.54 3.91-22.07 4.25z" fill="#39211c"/><path d="M874.59 453.21c2.83-3.06-1.16-3-2.26-2.9.53-.54 3-1 8.79-2.86-2.37 1.99-2.29 4.46-6.53 5.76z" fill="#f6f4f8"/><path d="M567.33 431.37c0 3.75-.76 1 7.58 5.84 3.49 2 8.06 6.08 8.83 7.45.08.34.11.47.1.29a.91.91 0 00-.1-.29c-.34-1.39-1.44-6.31-2.83-7.45-3.74-3.06-11.58-5.84-13.58-5.84zm-4.58 10c-.56 4.64 8.09 9.08 12.83 8.77A20.34 20.34 0 00572 445a11 11 0 00-4.35-2.69 19 19 0 00-4.9-.92zm-30.48-20.05c4.9 5 6.85 6.16 13.11 8.05a8.9 8.9 0 00-2.79-5 11.39 11.39 0 00-4.43-2.42 16.13 16.13 0 00-5.89-.61zm1.11-9.39c17.14 1 16.7 14.75 24 10.58-13.27-13.26-12.38-12.57-24-10.51zm-12.47 43.58c.77 16.05 12.93 21.5 28.74 18.63-4.88-12.72-10.24-17.29-28.74-18.61zm-13.73 20.65c-6.42-29.44 8.41-48.23 8-48.23 18.49-27.73 21.42-34.87 41.86-37.48 13.24-1.68 19.62 7.16 28 16.84s6.78 26.11 3 40-11.34 24.45-18.5 33.71-24.84 15.16-24.84 15.16-22.32 3.37-29.48-3.37c-5.55-5.22-7.55-13.48-8-16a2.83 2.83 0 000-.47.486.486 0 01-.04-.14z" fill="#efc7b0"/><path d="M522.38 545.84c-18.11 2.95-37.47-5.47-43.37-14.32-5.48-8.22-7.95-17.72-8.54-27.74 1.48-.34 11.88-2.69 22-4.25 10.37-1.6 14.69-19.06 14.77-22.69.42 2.47 2.42 10.73 8 16 7.16 6.74 29.48 3.37 29.48 3.37-3.12 14.95-.57 19.52 17.26 35.36.02-.05-21.5 11.32-39.6 14.27z" fill="#efc7b0"/><path d="M478.57 151.62c-2.13 4.59-6.57 4.3-8.66 1.2v-2.55c.17-2.83.89-4.12 1.84-4.58 1.45-.71 3.41.49 4.68 1 1.87.75 2 2.36 2.1 4.94z" fill="#4a0f00"/><path d="M567.33 431.37c2 0 9.84 2.78 13.58 5.84 1.39 1.14 2.49 6.06 2.83 7.45-.77-1.37-5.34-5.42-8.83-7.45-8.34-4.86-7.58-2.09-7.58-5.84z" fill="#614d46"/><path d="M441.48 186.32c1.74-3 5.85-4.74 8.06-14.22s5-5.84 6.37-12.15 2-8.69 2-8.69l6.31-5.8 3.79-4 3.78 4.22c-.95.46-1.67 1.75-1.84 4.58 0 .9-.07 1.74 0 2.55.09 5.57 1.63 9.19 2.36 16.18.85 8-1.17 20.21-2.37 23.37a5 5 0 00-.26 1s-4-1.24-7.79 4.44-11.52 1.58-17.84-1.1-4.3-7.38-2.57-10.38z" fill="#eaddd4"/><path d="M954 532.6c13-5.31 23.14-16.26 38.58-39.82q2-3.12 4.21-6.54c17.38-27.34 4.06-186.72 0-245.85h23.34c14.14 69.6 19.15 132.9 34.45 231.08 1.89 12.16 0 119.53-4.74 169.6s-16.1 138.68-16.1 138.68h-143c-5 0-24.42-26.59-24.42-26.59s3.79-43.53 10.39-55.32a21.86 21.86 0 001.85-4.94c4.53-16.86 3.54-57.21 1.65-70-2.1-14.31-10.94-36.21 11.37-54.37S914 538 914 538c17.73-.54 29.75-1.21 40-5.4z" fill="#f6f4f8"/><path d="M1020.14 240.39H996.8c3.17-18.41 3.64-32.26-10.08-40.18 5.67-.22 14.66-.19 13.55-11.21-1.26-12.63-7.39-15.16.1-15.79 5.7-.48 9.8-1.44 12.72-2.78l.09.18c1.36 22.12 3.99 47.81 6.96 69.78z" fill="#e0b79e"/><path d="M992.59 492.78C977.15 516.34 967 527.29 954 532.6c4.18-64-16.9-59.84-16-76.86.42-8.43-3-17.69-9.27-20.21s-13.05 2.1-22.73-2.11c-23.09-10-30.58-17.87-48.05-15.87-1.46.16-3 .4-4.61.71 1.5-7.44 4.13-13.6 9.1-16.84 9-5.89 30.93-27.79 46.51-26.53 33.78 2.75 59.05 14.63 83.64 117.89z" fill="#2e2522"/><path d="M890.8 779.75h-33.26l8.84-26.59s19.37 26.59 24.42 26.59z" fill="#2c252e"/><path d="M893.69 476.79c-1.55 4.92-10.5 14-13 15.92-1.29-1.25-2.69-2.43-4.09-3.59 1.4-5.83 8.22-12.32 17.09-12.33z" fill="#f6f4f8"/><path d="M883.43 437.74c.32.1-4.84-1.16-9 1.79-7.64 5.34-3.82 6.13-8 4.73 6.02-6.8 8.35-9.41 17-6.52z" fill="#2e2522"/><path d="M878.62 692.9a21.86 21.86 0 01-1.85 4.94c-6.6 11.79-10.39 55.32-10.39 55.32l-8.84 26.59h-8.85c9.91-117.43 11.8-153.48 13.06-154.75 1.61-1.63 2.19 52.8 16.87 67.9z" fill="#f6f4f8"/><path d="M872.33 450.31c1.1-.08 5.09-.16 2.26 2.9-1.59-1.83-2.77-2.4-2.26-2.9z" fill="#2e2522"/><path d="M796.35 478.65C835 465.74 843 560.49 840.2 598c-2.24 30-5.22 59.5-3.51 68.42l-1.09.32c-6.45-21.83-20.63-29.09-50.06-50.11 0 0-8.17-1.5-18.2-4.25 10.26-31.59 27.41-35.92 29.57-48.8 0 0 5.26 4.42 9.26 2.52s-1.69-12.42 0-18.74 4-4.63 7.37-12.21 6.73-31.79 2.31-41.26c-3.79-8.17-11.08-12.89-19.5-15.24z" fill="#251c19"/><path d="M835.6 666.69c5.76 19.44 5.4 50.45 4.25 113.06H795l-11.36-52.65c-8.9 17.8-37.43 36.42-8.21 52.65H589.75c62.68-258.37 34.84-152.91 71-303.63 3.47-14.46 23.05-61.33 25.58-68.59s13.89-89.06 13.89-89.06c6.88 2.29 11.21 4.2 32 8.1l4 .74C722.02 433.85 739.1 370.6 707.8 477c-8.85 30.11.5 79.52 4.34 91.52a17.94 17.94 0 00.72 2c2.23 4.92 6.05 11.1 12.57 18.33a129.48 129.48 0 009.53 9.46c6.76 6.09 20.78 10.91 32.33 14.07 10 2.75 18.2 4.25 18.2 4.25 29.51 20.97 43.66 28.23 50.11 50.06z" fill="#2a2837"/><path d="M799.12 489.79c8.76 1.67 10.31 8.75 12.63 18-5.61-10.28-6-15-19.11-16.9.16-2.84 3.16-1.73 6.48-1.1zm.81 8.67c1 2.6-3.44 1.38-3.66-.77a7.54 7.54 0 013.66.77zm-20.29-15.3c.91 5.15-10.12-1.77-16.23-1.28a12.34 12.34 0 014.55-1.66l.37-.07c3.04-.3 11.31 3.01 11.31 3.01zm-4.05 14.09s3.63 2.67 2.68 4-3.47-1.43-2.68-4z" fill="#2f160a"/><path d="M773.33 524.58a13.64 13.64 0 01-6.74-2.11c-3.85-2.16-8-5.51-14.29-6.84 10.05-4.22 16.14-.82 21.03 8.95z" fill="#cb8c84"/><path d="M769.43 495.16c0 2-1.89 3.58-3.42 2.51s3.42-2.51 3.42-2.51z" fill="#2f160a"/><path d="M745.43 253.42c9-25.52 23.22-16.35 16.74-11-3.48 2.84-5.69 9.16-9.48 19.89s-15.47 24-15.47 24l-5 40.3c-20.79-3.9-25.12-5.81-32-8.1 13.53-46.6 10.17-21.12 5.69-53.37-1.58-11.36-1-19.26-2.53-28.73s-1.58-19 1.26-19c5 0 7.81 26.77 10.28 22.42 1.44-2.52-1.12-20.21-3-28.42s1.58-8.53 5.37-8.53c5.31 0 .25 7.33 10.66 34.43 1.78-35-3.35-40.87 4.28-42.64h.12c1.36 0 3.3 5 4.83 14.54 1.58 9.79.32 27.79 2.21 26.84s3.16-27.16 3.79-33.16 7.9-2.21 7.9 0c.04 26 1.92 22.42-5.65 50.53z" fill="#ecc19c"/><path d="M731 538.68c1.26 6.74-3 13.06-2.53 21.69.49 9.91 5 8.51-3 28.43-6.52-7.23-10.34-13.41-12.57-18.33a17.94 17.94 0 01-.72-2c13.64-10.3 13.36-31.51 20.12-48.36a35.13 35.13 0 00-1.3 18.57z" fill="#251c19"/><path d="M572 445c-1.88 2.77-6.85.16-4.34-2.67A11 11 0 01572 445z" fill="#543e36"/><path d="M557.38 422.53c-7.3 4.17-6.86-9.58-24-10.58 11.62-2.01 10.73-2.7 24 10.58z" fill="#614d46"/><path d="M549.65 474.16c-15.81 2.87-28-2.58-28.74-18.63 9.58 14.8 11.31 15.92 28.74 18.63z" fill="#b55c6a"/><path d="M542.59 424.36a8.9 8.9 0 012.79 5c-6.26-1.89-8.21-3.06-13.11-8.05a16.13 16.13 0 015.89.59c-3.16 2.57 2.83 5.32 4.43 2.41z" fill="#f6f4f8"/><path d="M520.91 455.53c18.5 1.32 23.86 5.89 28.74 18.63-9.32-11.16-13.95-14.89-28.74-18.63z" fill="#b55c6a"/><path d="M520.91 455.53c14.79 3.74 19.42 7.46 28.74 18.63-17.43-2.71-19.16-3.83-28.74-18.63z" fill="#f6f4f8"/><path d="M536.27 779.75H373.6v-37.7c13.7 23.39 34.88 27.75 61.18 21.15v-.15c30.85 8.16 65.21 9.32 101 8.8q.27 3.89.49 7.9z" fill="#303a5e"/><path d="M492.06 122.89l-7.45 5.44-1.35-9.77c3.5-1.1 8.46.94 8.8 4.33zM474.17 136l-6.17 5.46s-15-9.63-16.89-12.15a3.11 3.11 0 012.63-5.06c2 .21 20.43 11.75 20.43 11.75zm-9.95 9.46l-6.31 5.8c-10.23-13.49-10.66-12.7-10.27-15.94.45-3.76 1.61-3.23 16.58 10.14z" fill="#e0b79e"/><path d="M571.64 779.75c8.62-182.15 14-187.6 13.45-216.23-.06-3.14-.19-6.56-.39-10.52 0 0-35.79 37-42.53 47.16-6.88 10.31-10.72 14.35-12.25 26.4-2.06 16.45.21 47.83 5 130.49q.42 7.14.85 14.8.24 3.89.46 7.9z" fill="none" stroke="#000" stroke-miterlimit="10"/><path d="M584.7 553L562 531.52s-21.48 11.37-39.58 14.32-37.47-5.47-43.37-14.32c-5.48-8.22-7.95-17.72-8.54-27.74-1.29-21.6 6.16-45.61 11-64.33 2.31-9 4-16.75 3.87-22.45-.39-14.72 7.58-66.25 12.21-81.69 0 0-19.37 18.53-31.16 10.95s-12.63-10.95-12.63-10.95-17.74 50.11-19 76.69-8.42 74.94-15.58 89.68c-4.1 8.45-20.8 41.8-35.25 72.06-10.76 22.53-20.27 43.34-22.43 50.89-5.05 17.68-16.42 44.21-16.84 50.1-.27 3.76 14.65 28.84 28.9 48.53 8.13 11.24 16 20.72 20.78 23.47a162.84 162.84 0 0040.44 16.37c30.85 8.16 65.21 9.32 101 8.8h0" fill="none" stroke="#000" stroke-miterlimit="10"/><path d="M535.08 758.47l-.12-1.42c-3.61-37.31-31.62-56.1-29.84-72.68 1.26-11.79 24.53-57.85 24.53-57.85M373.6 723.21v18.84c13.7 23.39 34.88 27.75 61.18 21.15" fill="none" stroke="#000" stroke-miterlimit="10"/><path fill="none" stroke="#000" stroke-miterlimit="10" d="M373.6 742.05v37.7h162.67M384 573.69s-3.06 21 9.57 30.68m128.95 36.7c-.47 1-17.4 8.35-30 5m14.7-169.7a2.83 2.83 0 010 .47c-.08 3.63-4.4 21.09-14.77 22.69-10.13 1.56-20.53 3.91-22 4.25h-.18"/><path d="M562 531.52c-17.83-15.84-20.38-20.41-17.26-35.36 0 0-22.32 3.37-29.48-3.37-5.55-5.22-7.55-13.48-8-16-.11-.59-.12-.85-.07-.66" fill="none" stroke="#000" stroke-miterlimit="10"/><path d="M544.7 496.16s17.68-5.9 24.84-15.16 14.73-19.79 18.52-33.69 5.38-30.31-3-40-14.75-18.52-28-16.84c-20.44 2.61-23.37 9.75-41.86 37.48.37 0-14.46 18.79-8 48.23v.19" fill="none" stroke="#000" stroke-miterlimit="10"/><path d="M585.07 563.52h0c.88 0 29.95-1.53 32-18.94 2.1-17.69-1.27-64 0-80.42s-8.18-52.63-15.67-60.21-8.33-14.74-16.75-17.69c-24.42-8.54-45.69-7.09-60.22 14.32-30.62 45.12-21.39 31.81-43 38.87" fill="none" stroke="#000" stroke-miterlimit="10" stroke-width=".5"/><path d="M520.91 455.53c.77 16.05 12.93 21.5 28.74 18.63-17.43-2.71-19.16-3.83-28.74-18.63z" fill="none" stroke="#000" stroke-linecap="round" stroke-linejoin="round" stroke-width=".5"/><path d="M549.65 474.16c-4.88-12.74-10.24-17.31-28.74-18.63 14.79 3.74 19.42 7.47 28.74 18.63z" fill="none" stroke="#000" stroke-linecap="round" stroke-linejoin="round" stroke-width=".5"/><path d="M557.38 422.53c-13.27-13.28-12.42-12.59-24-10.58 17.14 1.05 16.7 14.75 24 10.58zm26.36 22.13a.91.91 0 01.1.29c.01.18-.02.05-.1-.29zm0 0c-.34-1.39-1.44-6.31-2.83-7.45-3.74-3.06-11.58-5.84-13.58-5.84 0 3.75-.76 1 7.58 5.84 3.49 2.03 8.09 6.08 8.83 7.45zm-16.07-2.33a19 19 0 00-4.92-.94c-.56 4.64 8.09 9.08 12.83 8.77A20.34 20.34 0 00572 445a11 11 0 00-4.33-2.67zm-29.51-20.4a16.13 16.13 0 00-5.89-.59c4.9 5 6.85 6.16 13.11 8.05a8.9 8.9 0 00-2.79-5 11.39 11.39 0 00-4.43-2.42z" fill="none" stroke="#000" stroke-miterlimit="10"/><path d="M533.7 426.63s3.71 3.87 5.52 4.74m9.16-4.37c-.4-.48-2.29-6.4-7.34-7.19s-5.28-.95-5.76-.87m29.2 20.4c6.58 1.18 6.67 1.49 12.79 8.45m-15.47-.95c3 2.66 4.68 3.84 6.4 5.13m-14.2-3.23c-.07 1.34 1.54 4.61.64 6.79-.72 1.71-2.61 2-4.5 1.14-3.72-1.7-5.87-.56-7.35-3-.63-1 .4-2.92-1.57-3.16s-4.58-1.26-4.74-2.45c-1-7.48 5.49-1.33 11.37-8.76m-25.75 13.46l-3.31 3.55m33.06 15.57s-2 3.31-2.2 5.52" fill="none" stroke="#000" stroke-miterlimit="10" stroke-width=".5"/><path d="M469.91 152.82c.09 5.57 1.63 9.19 2.36 16.18.85 8-1.17 20.21-2.37 23.37a5 5 0 00-.26 1c-.58 3.54 1 10.12 1.79 16 .72 5.56-12.74 100.41-17.68 125.89m43.79.05c7.21-46.72-1.55-68.88 1.56-96.42 3.18-28.22-2.44-32.11-1.56-52.21.21-4.84-.07-9.05-.07-9.05L486 174.05c-7.52-10.68-7.28-18-7.38-22.43-.06-2.58-.23-4.19-2.1-4.94-1.27-.51-3.23-1.71-4.68-1-.95.46-1.67 1.75-1.84 4.58 0 .9-.07 1.74 0 2.55m4.17-16.81s-18.43-11.49-20.42-11.69a3.11 3.11 0 00-2.63 5.06c1.88 2.47 16.88 12.1 16.88 12.1h0zm-9.95 9.46c-15-13.37-16.13-13.9-16.58-10.14-.39 3.24 0 2.45 10.27 15.94z" fill="none" stroke="#000" stroke-miterlimit="10"/><path d="M457.91 151.26s-.68 2.37-2 8.69-4.16 2.68-6.37 12.15-6.32 11.22-8.06 14.22-3.78 7.73 2.53 10.42 14.05 6.79 17.84 1.1 7.79-4.44 7.79-4.44m517.08 6.81c5.67-.22 14.66-.19 13.55-11.21-1.26-12.63-7.39-15.16.1-15.79 5.7-.48 9.8-1.44 12.72-2.78 10.16-4.65 6.07-13.91 5.5-23.75-1.52-25.86-9.26-12.82-20.84-36 0 0-14.53-15.15-23.37-12s-106.74 53.06-189.47 48C571 133.62 492.43 83.4 481.33 112.16c-3 7.7-1.48 12-1.48 12-.21-3.23 1.34-5 3.41-5.63 3.5-1.1 8.46.94 8.8 4.33l-7.45 5.44-10.44 7.7" fill="none" stroke="#000" stroke-miterlimit="10"/><path d="M971.22 130.59h0c-.3.35-7.41 8.7 0 18 7.58 9.47 15.79 5.68 6.32 14.52s-18.95 10.74-13.9 22.11 15.79 15.79 20.84 15.16c.64-.08 1.4-.12 2.23-.16m-489.24-22.59s10.17 1.11 9.07-6-4.41-9-4.49-15.63-1.18-5 0-10.54 4.5-11.72 4.57-14.72 112.18 39.94 141.86 43.1 38.53 2 40.43 3.85c1.31 1.27 22.3 2.87 43.89 3.52 9.6.3 19.31.4 27.47.21 26.53-.63 127.58-13.47 155.37-25.37 27.57-11.8 55.15-25.25 55.57-25.45m-503.2 10.87l-3.79 3.99m19.03-26.99l.01.09 1.35 9.77M469.9 152.8h0c2.09 3.1 6.53 3.39 8.66-1.2m361.29 628.15c1.15-62.61 1.51-93.62-4.25-113.06-6.45-21.83-20.63-29.09-50.06-50.11 0 0-8.17-1.5-18.2-4.25-11.55-3.16-25.57-8-32.33-14.07a129.48 129.48 0 01-9.53-9.46c-6.52-7.23-10.34-13.41-12.57-18.33a17.94 17.94 0 01-.72-2c-3.84-12-13.19-61.41-4.34-91.52 31.3-106.4 14.22-43.15 28.42-149.69l-4-.74c-20.79-3.9-25.12-5.81-32-8.1 0 0-11.36 81.79-13.89 89.06s-22.11 54.13-25.58 68.59c-36.21 150.72-8.37 45.26-71 303.63h185.63c-29.22-16.23-.69-34.85 8.21-52.65l11.36 52.7z" fill="none" stroke="#000" stroke-miterlimit="10"/><path d="M768.33 480.14l-.37.07a12.34 12.34 0 00-4.55 1.66 18.3 18.3 0 00-4.19 3.76c-5.05 5.9-4.21 6.32-9.05 8.84s-10.95 11.16-12.17 14.74c-.49 1.39-3.56 5.05-5.65 10.95a35.13 35.13 0 00-1.3 18.52c1.26 6.74-3 13.06-2.53 21.69.49 9.91 5 8.51-3 28.43m71.39-25.28h0s5.26 4.42 9.26 2.52-1.69-12.42 0-18.74 4-4.63 7.37-12.21 6.73-31.79 2.31-41.26c-3.79-8.12-11.08-12.85-19.5-15.19a54.64 54.64 0 00-14.6-1.86c-3.37 0-3.58 1.89-8.84 2.74-1.67.27-3.14.38-4.55.61m-1.02 132.2c10.26-31.59 27.41-35.92 29.57-48.8" fill="none" stroke="#000" stroke-miterlimit="10"/><path d="M738.17 529.42s11.16 7.79 17.47 8 7.58 1.26 9.9 0m14.14-12.28c.33.1.65-.06 1-.56 1.46-2-13.32-37.92-33.68-10.36a3.39 3.39 0 00.49 1.26c.5.66 1.23.43 2.17-.27 3.25-2.4 9-10.29 16.92-5.79 9.21 5.26 11.19 15.11 13.1 15.72z" fill="none" stroke="#000" stroke-miterlimit="10" stroke-width=".5"/><path d="M749.6 515.2h.07a25.38 25.38 0 012.63.42c6.3 1.33 10.44 4.68 14.29 6.84a13.64 13.64 0 006.74 2.11c1.51.12 3.4.21 6.31.63-12.36 4.3-15.24-4.23-23.58-5.9-4.37-.87-9.44-1-8.56-3.83a1.9 1.9 0 01.1-.28m4.7.44c10.05-4.22 16.14-.82 21 9" fill="none" stroke="#000" stroke-miterlimit="10" stroke-width=".5"/><path d="M752.27 515.64h0" fill="none" stroke="#000" stroke-miterlimit="10"/><path d="M784.27 507.79c1.11 3.31.79 12.05.64 13m-22.58-22.16c-2.69.32-12.32 2.09-13.74 5.23" fill="none" stroke="#000" stroke-miterlimit="10" stroke-width=".5"/><path d="M792.64 490.89c13.13 1.91 13.5 6.62 19.11 16.9-2.32-9.25-3.87-16.33-12.63-18-3.32-.63-6.32-1.74-6.48 1.1zM768 480.21l.37-.07h0c3-.29 11.28 3 11.28 3 .91 5.15-10.12-1.77-16.23-1.28" fill="none" stroke="#000" stroke-miterlimit="10"/><path d="M762.33 486.7c-1.32.3-2.85.76-4.83 1.28 4.92 2.65 7.38 2.54 14.26 1.06a16.19 16.19 0 00-4.73-2.43 9.06 9.06 0 00-4.7.09zm37.6 11.76a8.67 8.67 0 014.55 6.17c.15.72-6.23-1.12-11.84-6a8.88 8.88 0 013.63-.95 7.54 7.54 0 013.66.78z" fill="none" stroke="#000" stroke-linejoin="round"/><path d="M780.79 492c.33 1.74 4.75 7.58 2.69 10.1-2.59 3.2-8 3.55-11.94-1.89-1.12-1.54-9.17 1.27-8.13-3.32.78-3.49 6-3.6 7.44-6.79" fill="none" stroke="#000" stroke-miterlimit="10" stroke-width=".5"/><path d="M775.59 497.25s3.63 2.67 2.68 4-3.47-1.43-2.68-4zm-6.16-2.09s-4.95 1.44-3.42 2.51 3.42-.51 3.42-2.51zm26.84-16.48h.08C835 465.74 843 560.49 840.2 598c-2.24 30-5.22 59.5-3.51 68.42M732.71 519.18c-.14.32-.27.65-.4 1-6.76 16.85-6.48 38.06-20.12 48.36m-84.55 111.83s-8.21 7.58 5.06 21.47m132.84 50.68s-23.76 3-32.83-3.94m-.44-422.02l5-40.3s11.69-13.26 15.47-24 6-17 9.48-19.89c6.48-5.3-7.73-14.47-16.74 11 7.57-28.11 5.69-24.53 5.69-50.53 0-2.21-7.27-6-7.9 0s-1.89 32.21-3.79 33.16-.63-17.05-2.21-26.84c-1.53-9.51-3.47-14.54-4.83-14.54h-.12c-7.63 1.77-2.5 7.67-4.28 42.64-10.41-27.1-5.35-34.43-10.66-34.43-3.79 0-7.27.32-5.37 8.53s4.45 25.9 3 28.42c-2.47 4.35-5.32-22.42-10.28-22.42-2.84 0-2.84 9.47-1.26 19s1 17.37 2.53 28.73c4.48 32.25 7.84 6.77-5.69 53.37M890.8 779.75h143s11.37-88.61 16.1-138.68 6.63-157.44 4.74-169.6c-15.3-98.18-20.31-161.48-34.45-231.08H996.8c4.06 59.13 17.38 218.51 0 245.85q-2.17 3.42-4.21 6.54C977.15 516.34 967 527.29 954 532.6c-10.26 4.19-22.28 4.86-40 5.43 0 0 0 12.33-22.32 30.49s-13.47 40.06-11.37 54.37c1.89 12.8 2.88 53.15-1.65 70a21.86 21.86 0 01-1.85 4.94c-6.6 11.79-10.39 55.32-10.39 55.32s19.33 26.6 24.38 26.6z" fill="none" stroke="#000" stroke-miterlimit="10"/><path fill="none" stroke="#000" stroke-miterlimit="10" d="M866.38 753.16l-8.84 26.59h33.26m-33.26 0h-8.85c9.91-117.43 11.8-153.48 13.06-154.75 1.61-1.63 2.19 52.8 16.87 67.9h0"/><path d="M861.75 625c-13.89-92 4.89-122.84 0-136.83-3-8.43-11.37-34.67-10.53-50a144.22 144.22 0 012.08-19.94c1.5-7.44 4.13-13.6 9.1-16.84 9-5.89 30.93-27.79 46.51-26.53 33.82 2.75 59.1 14.63 83.68 117.89h0" fill="none" stroke="#000" stroke-miterlimit="10"/><path d="M954 532.87v-.27c4.18-64-16.9-59.84-16-76.86.42-8.43-3-17.69-9.27-20.21s-13.05 2.1-22.73-2.11c-23.09-10-30.58-17.87-48.05-15.87-1.46.16-3 .4-4.61.71" fill="none" stroke="#000" stroke-miterlimit="10"/><path d="M914 538s10.1-17.3 9.68-18.85-.84-13.29-6.73-14.79-16.85 5.35-23.16 3.4-5.06-.2-7.16-6.55a18.27 18.27 0 00-3.61-6.12 29.08 29.08 0 00-2.31-2.41c-1.29-1.25-2.69-2.43-4.09-3.59-.76-.64-1.53-1.26-2.28-1.89a33 33 0 01-6.87-7.11s-5.47.46-5.89-6.07 3.26-12.1 1.79-18.42-7.58-6.32-8.42-21.68a36.43 36.43 0 013-16.32" fill="none" stroke="#000" stroke-miterlimit="10"/><path d="M904.91 496.58s23.78-18.74 24.63-26.95 0-11.16 0-11.16" fill="none" stroke="#000" stroke-linecap="round" stroke-miterlimit="10" stroke-width=".5"/><path d="M929.91 453.21c4 .07 7.71-5 5.1-11.53" fill="none" stroke="#000" stroke-miterlimit="10" stroke-width=".5"/><path d="M874.59 453.21c4.24-1.3 4.16-3.77 6.53-5.76-5.82 1.85-8.26 2.32-8.79 2.86s.67 1.07 2.26 2.9z" fill="none" stroke="#000" stroke-miterlimit="10"/><path d="M876.59 455.63s1.58-1.05 3.79-2.84m-9.79-5.34s.95-3.61 6-3.61" fill="none" stroke="#000" stroke-miterlimit="10" stroke-width=".5"/><path d="M883.43 437.74c.32.1-4.84-1.16-9 1.79-7.64 5.34-3.82 6.13-8 4.73 6.02-6.8 8.35-9.41 17-6.52z" fill="none" stroke="#000" stroke-miterlimit="10"/><path d="M882.94 495.16h0c4.37-4.8 9.92-11.91 10.71-18.33-1.55 4.92-10.5 14-13 15.92m-4.07-3.63c1.44-5.83 8.24-12.32 17.11-12.33a15.22 15.22 0 00-6.28-.5c-4.06.35-5.41 1-8.93 5.29a36.62 36.62 0 00-4.16 5.63" fill="none" stroke="#000" stroke-linecap="round" stroke-linejoin="round" stroke-width=".5"/><path d="M881.12 466.42c.84-.16 11.68 1.74 12.57 4.89m-26.26 8.81s4.53-.36 6.16-1.31" fill="none" stroke="#000" stroke-miterlimit="10" stroke-width=".5"/><path d="M1020.14 240.39c-3-22-5.6-47.66-7-69.78m-16.34 69.78c3.17-18.41 3.64-32.26-10.08-40.18h0M567.66 442.36c-2.51 2.83 2.46 5.44 4.34 2.67M538.15 422c-3.16 2.57 2.83 5.32 4.43 2.41m354.54 222.9c21.89 2.53 61.47-6.31 69-12.63M762.33 486.69h0c.57 2.15 3.57 1.67 4.7-.09" fill="none" stroke="#000" stroke-miterlimit="10"/><path d="M799.93 498.46s0 0 0 0" fill="none" stroke="#000" stroke-linejoin="round"/><path d="M796.27 497.69c.22 2.15 4.65 3.37 3.66.77m72.13-48.13h.27c1.1-.08 5.09-.16 2.26 2.9" fill="none" stroke="#000" stroke-miterlimit="10"/></svg>