<svg xmlns="http://www.w3.org/2000/svg" viewBox="0 0 700 700"><path fill="#d9d7ea" stroke="#141500" stroke-miterlimit="10" stroke-width=".67" d="M0 0h700v700H0z"/><path d="M559.15 600.35c4 2 6.71 13.43 4.7 19.47s-16.1 6.38-21.47 5.38-24.51-15.28-25.47-17.82c-2.61-7 3.3-25.83 3.3-25.83.56-.08 1.1-.12 1.64-.17a49.23 49.23 0 017.79-.1l2.5.16a19 19 0 005.91-.22l.53-.15a9.17 9.17 0 002.06-.89 14.73 14.73 0 002.69-2c2.54.4 4.28 1.42 4.4 3.42.56 8.13 7.4 16.74 11.42 18.75z"/><path d="M550.43 563.42c.44 3.13-2.38 10.43-7.1 14.74a14.73 14.73 0 01-2.69 2 9.37 9.37 0 01-2.06.89l-.53.15a19 19 0 01-5.91.22l-2.5-.16a49.26 49.26 0 00-7.79.1c-.54 0-1.08.09-1.64.17-5.85-55.69-7-16.45-10.06-77.87-.69-13.43-8.74-53-10.08-63.12s-13.42-43-14.09-51c-3-2.76-6.4-2.47-10.08-.67-27 125-23 152.63-25.51 166.5-1.34 7.38-7.39 19.47-9.4 19.47s-21.49-2.68-21.49-2.68c-2.39-11.19.83-26 3.44-30.89 1.14-45-1.78-48.76 4-57.06 6.13-8.73 2-45.66.61-50.36-.8-2.76-.66-39.62-.42-69.54 17.53 11.26 28.75 1.53 19.12-8.34-5.66-5.82-4.38-9.87-1.32-11.89.46.22.92.43 1.39.63 10.55 4.88 18 7.4 27.22 8.12a90.69 90.69 0 0012 .08l2.12-.13v-.17c.21 0 .4 0 .59-.05 1.16 1.13 4 .57 10.49-1.4a129.55 129.55 0 0022.67-7.16l.2-.06 7.13-2.13c1.17 0 1.82.47 1.92 1.66-3.88.39-13.69 2.9-15.92 6.08-2.53 3.59 5.81 6 11.1 10.25s-3 4-7.05 5.29a4.91 4.91 0 00-1.9 1.23c-2.64 2.57-3.9 8.17 1.49 9.73 2.82.83 7.51.54 14.81-1.91 11.05 148.59-4.88 34.5 17.24 189.28z" fill="#06539c"/><path d="M545.18 350.49c-.87 21-6.09 21.71-12 23.68-7.3 2.45-12 2.74-14.81 1.91-5.34-1.56-4.08-7.14-1.49-9.73a4.91 4.91 0 011.9-1.23c4-1.25 12.33-1 7.05-5.29s-13.63-6.66-11.1-10.25c2.23-3.18 12-5.69 15.92-6.08 1.65-.14.28-.56 14.53 6.99z" fill="#edc1a0"/><path d="M538.58 581.07a9.37 9.37 0 002.06-.89 9.17 9.17 0 01-2.06.89zm-.53.15a19 19 0 01-5.91.22 19 19 0 005.91-.22z"/><path d="M533.86 330.62s.91 6.49-3.4 10.71c-.57.18-1.14.34-1.72.51-1.51 0-3.92.88-7.13 2.13l-.2.06c-10.4 3.17-17.64 5.58-22.68 7.13a87.59 87.59 0 01-10.49 1.4 2.12 2.12 0 01-.59-1.12v-9c15.9-.07 30.11-4.85 46.21-11.82z" fill="#053a66"/><path d="M528.74 341.84l-7.13 2.16c3.21-1.28 5.62-2.14 7.13-2.16z" fill="#053a66"/><path d="M487.62 150.5c22.2-1.25 17.71-25.79 18.5 12.79-1 14.67 2.63 7.91-18.8 38.27C467.26 179.87 469 182.8 469 178.5c-.19-7.75.27-27.49.54-35.24a15.07 15.07 0 008.69 6.28 14.83 14.83 0 002.34.56c.4.08.83.14 1.26.19a23.44 23.44 0 002.76.24 28.61 28.61 0 003.03-.03z" fill="#edc1a0"/><path d="M500.07 85.39c19.18 9.87 19.17 63.1-12.45 65.11a28.61 28.61 0 01-3.08 0 23.83 23.83 0 01-2.76-.24c-.43 0-.86-.11-1.26-.19a17.43 17.43 0 01-2.34-.56 15.5 15.5 0 01-8.69-6.28c-3.49-5.15-4.69-12.5-7-20.27-4-13.42-1.34-21.48 7.78-37.6s27.12-1.36 29.8.03z" fill="#cc7e5f"/><path d="M498.73 351.16c-6.5 2-9.33 2.53-10.49 1.4a87.59 87.59 0 0010.49-1.4zm-11.08 1.45v.17l-2.12.13c-4.19.18-8.34.13-12-.08v-.53a80.92 80.92 0 0014.12.31z" fill="#053a66"/><path d="M487.65 351.44v1.17a80.92 80.92 0 01-14.08-.31c.19-8.37-.56-10.68 1.13-11h.07a83.13 83.13 0 009.09 1h.35c.71.05 1.43.07 2.13.07h1.31c0 4.43-.43 7.4 0 9.07z" fill="#053a66"/><path d="M487.65 342.42v9c-.43-1.65 0-4.62 0-9zm0-.02h-1.31zm0 0h-2.42c.77-.01 1.62 0 2.42 0zm-2.42-.05h1.11c-.7 0-1.42 0-2.13-.07h.91zm-.11 0h-1.26zm-2.22-.12q.45 0 1 .06a83.13 83.13 0 01-9.09-1c2.4.38 4.8.67 7.14.83.3.08.63.09.95.11z" fill="#053a66"/><path d="M481.78 150.29a23.83 23.83 0 002.76.24 23.44 23.44 0 01-2.76-.24z" fill="#cc7e5f"/><path d="M481.91 342.15l1 .08c-.33-.02-.66-.03-1-.08z" fill="#e3e0dd"/><path d="M473.56 352.83c3.63.21 7.78.26 12 .08a90.69 90.69 0 01-12-.08z" fill="#053a66"/><path d="M480.52 150.1zm-2.34-.56a17.43 17.43 0 002.34.56 14.83 14.83 0 01-2.34-.56zm-8.69-6.28a15.5 15.5 0 008.69 6.28 15.07 15.07 0 01-8.69-6.28z" fill="#cc7e5f"/><path d="M474.77 341.32c1.1-.16 3.2.46 7.14.83-2.34-.15-4.74-.45-7.14-.83z" fill="#e3e0dd"/><path d="M474.77 341.32h-.07c-2.21-.35-4.45-.77-6.68-1.25q3.38.72 6.75 1.25z" fill="#053a66"/><path d="M474.7 341.32c-1.69.3-.94 2.61-1.13 11a88.72 88.72 0 01-27.23-7.59c-.47-.2-.93-.41-1.39-.63.53-.37 4.86-1.76 2-8.5a1.26 1.26 0 00-.07-.16c.16.3.21 0 1-1.09a161.09 161.09 0 0020.12 5.72c2.25.48 4.49.93 6.7 1.25z" fill="#053a66"/><path d="M473.57 352.3v.53c-9.25-.72-16.67-3.24-27.22-8.12a88.72 88.72 0 0027.22 7.59zm-26.52-18.25l.82.28c-.77 1.06-.82 1.39-1 1.09s-.28-.62-.39-.85a5.88 5.88 0 00-.47-.76l-.06-.11v-.05z" fill="#053a66"/><path d="M447.05 334.05l-1.1-.4c-.03-.11.26.06 1.1.4zm-1.05-.24a5.88 5.88 0 01.47.76c-.18-.36-.34-.57-.47-.76z" fill="#053a66"/><path d="M446 333.65v.05l-.05-.07s-.01 0 .05.02z" fill="#e3e0dd"/><path d="M441 574.84c10 30.06 11.95 20 3.35 32.9-1.34 2-12.08 6.71-18.13 10.07s-21.48 1.69-24.84 0c-2.34-.84-1.34-4.7 0-12.75s12.76-8.06 17.24-11.68.89-21.22.89-21.22 19.49 2.68 21.49 2.68z"/><path d="M484.21 342.32c.71.05 1.43.07 2.13.07h1.31m-12.88-1.07a83.13 83.13 0 009.09 1M468 340.07c2.23.48 4.47.9 6.68 1.25m-5.19-198.06a15.5 15.5 0 008.69 6.28 17.43 17.43 0 002.34.56c.4.08.83.14 1.26.19a23.83 23.83 0 002.76.24" fill="none" stroke="#141500" stroke-miterlimit="10" stroke-width=".89"/><path d="M487.62 150.5c22.2-1.25 17.71-25.79 18.5 12.79-1 14.67 2.63 7.91-18.8 38.27C467.26 179.87 469 182.8 469 178.5c-.19-7.75.27-27.49.54-35.24" fill="none" stroke="#141500" stroke-miterlimit="10" stroke-width=".89"/><path d="M484.54 150.53a23.44 23.44 0 01-2.76-.24c-.43 0-.86-.11-1.26-.19a14.83 14.83 0 01-2.34-.56 15.07 15.07 0 01-8.69-6.28c-3.49-5.15-4.69-12.5-7-20.27-4-13.42-1.34-21.48 7.78-37.6s27.14-1.37 29.82 0c19.18 9.87 19.17 63.1-12.45 65.11a28.61 28.61 0 01-3.1.03zM446 333.7l-.05-.07s0 0 0 0l1.1.4m-.55.54a5.88 5.88 0 00-.47-.76m1.84.52c-.77 1.06-.82 1.39-1 1.09M441 574.84c10 30.06 11.95 20 3.35 32.9-1.34 2-12.08 6.71-18.13 10.07s-21.48 1.69-24.84 0c-2.34-.84-1.34-4.7 0-12.75s12.76-8.06 17.24-11.68.89-21.22.89-21.22m119.07 8.91a9.37 9.37 0 002.06-.89m-8.5 1.26a19 19 0 005.91-.22m-16.2.16a49.23 49.23 0 017.79-.1" fill="none" stroke="#141500" stroke-miterlimit="10" stroke-width=".89"/><path d="M543.33 578.16c2.54.4 4.28 1.42 4.4 3.42.56 8.15 7.4 16.76 11.42 18.77s6.71 13.43 4.7 19.47-16.1 6.38-21.47 5.38-24.51-15.28-25.47-17.82c-2.61-7 3.3-25.83 3.3-25.83m-75.15-249.02a8.84 8.84 0 01.86 1.1m72.46 42.45c-5.34-1.56-4.08-7.14-1.49-9.73m13.77-22.85c1.64-.14.27-.56 14.52 7-.87 21-6.09 21.71-12 23.68" fill="none" stroke="#141500" stroke-miterlimit="10" stroke-width=".89"/><path d="M521.61 344c3.21-1.25 5.62-2.11 7.13-2.13 1.17 0 1.82.47 1.92 1.66-3.88.39-13.69 2.9-15.92 6.08-2.53 3.59 5.81 6 11.1 10.25s-3 4-7.05 5.29a4.91 4.91 0 00-1.9 1.23c-2.64 2.57-3.9 8.17 1.49 9.73 2.82.83 7.51.54 14.81-1.91 11 148.56-4.88 34.47 17.24 189.25.44 3.13-2.38 10.43-7.1 14.74a14.73 14.73 0 01-2.69 2 9.17 9.17 0 01-2.06.89l-.53.15a19 19 0 01-5.91.22l-2.5-.16a49.26 49.26 0 00-7.79.1c-.54 0-1.08.09-1.64.17-5.85-55.69-7-16.45-10.06-77.87-.69-13.43-8.74-53-10.08-63.12s-13.42-43-14.09-51c-3-2.76-6.4-2.47-10.08-.67-27 125-23 152.63-25.51 166.5-1.34 7.38-7.39 19.47-9.4 19.47s-21.49-2.68-21.49-2.68c-2.39-11.19.83-26 3.44-30.89 1.14-45-1.78-48.76 4-57.06 6.13-8.73 2-45.66.61-50.36-.8-2.76-.66-39.62-.42-69.54 17.53 11.26 28.75 1.53 19.12-8.34-5.66-5.82-4.38-9.87-1.32-11.89" fill="none" stroke="#141500" stroke-miterlimit="10" stroke-width=".89"/><path d="M446.34 344.71a88.72 88.72 0 0027.23 7.59 80.92 80.92 0 0014.08.31c.21 0 .4 0 .59-.05a87.59 87.59 0 0010.49-1.4 129.55 129.55 0 0022.68-7.16m-36.18-1.65h2.42m-3.79-.06h1.26" fill="none" stroke="#141500" stroke-miterlimit="10" stroke-width=".89"/><path d="M485.53 352.91c-4.19.18-8.34.13-12-.08v-.53c.19-8.37-.56-10.68 1.13-11h.07c1.1-.16 3.2.46 7.14.83l1 .08" fill="none" stroke="#141500" stroke-miterlimit="10" stroke-width=".89"/><path d="M515.33 118.37c-1.5 6 3.56 7.72.83 12.8-2.1 3.94-4.81 3.56-15.53 19.09-8.64 12.55-23.49 4.07-28.88-4-3.17-4.79-4.08-7.35-6-9.47s-3.63-1.68-4.4-3.8c-1.32-3.71-3.76-7.25-1.05-11.45s2.46-19.69 3.49-21.75c.31-.6 12.73-7.49 12.73-7.49l27.68-.69c13.59 24.03 11.8 18.58 11.13 26.76z" fill="#f2d0b7"/><path d="M515.33 118.37c-1.5 6 3.56 7.72.83 12.8-2.1 3.94-4.81 3.56-15.53 19.09-8.64 12.55-23.49 4.07-28.88-4-3.17-4.79-4.08-7.35-6-9.47s-3.63-1.68-4.4-3.8c-1.32-3.71-3.76-7.25-1.05-11.45s2.46-19.69 3.49-21.75c.31-.6 12.73-7.49 12.73-7.49l27.68-.69c13.59 24.03 11.8 18.58 11.13 26.76z" fill="none" stroke="#141500" stroke-miterlimit="10" stroke-width=".89"/><path d="M478.35 71.71s-11.72 3.44-14.75 6.06-8.08 13.14-7.88 16.57c1.64 27.93 9.7 28.06 9.7 25.26 0-15.08-4.3-14.7 11.92-24.25.93 12.33 9.83 18.35 22 16.37-6-32.76-.83-3.74 6.06-.6 9.8 4.45 8.28 1 6.87 8.08 6.37 2.62 2.35 2.51 6.47-6.06 2.42-5.06 3-21.42 0-27.69C516.58 80.93 506.29 67 498 67.87c-5.86.61-11.51-.6-14.14 2a5.84 5.84 0 01-5.51 1.84z" fill="#232044" stroke="#141500" stroke-miterlimit="10" stroke-width=".89"/><path d="M485.83 130.41s-2.42 8.39 4.65 8.79" fill="none" stroke="#141500" stroke-miterlimit="10" stroke-width=".89"/><path d="M504.22 123.77c0 3.85-3.23 3.85-3.23 0s3.23-3.85 3.23 0zm-26.07 0c0 3.85-3.23 3.85-3.23 0s3.23-3.85 3.23 0z" fill="#232044" stroke="#141500" stroke-miterlimit="10" stroke-width=".89"/><path d="M472.72 119.06c9.92 0 10.12.45 9.52-1.23-2.67-7.51-28.82 1.17-9.52 1.23zm32.21 0c-9.92 0-10.12.45-9.52-1.23 2.67-7.51 28.82 1.17 9.52 1.23z" fill="#301427" stroke="#141500" stroke-miterlimit="10" stroke-width=".89"/><path d="M481.38 143c7.91.14 6.91-1.07 8.11 0 0 0 .91.17 1.29-.25s5.91.07 6.21 0-3.86 4.49-7 4.26-8.15-3.08-8.61-4.01z" fill="#fff" stroke="#141500" stroke-miterlimit="10" stroke-width=".89"/><path d="M532.66 338.28c-2.83 3.39-106.43 17.56-94.89-7.72l38.28-144.43h20.35c40.54 151.12 38.66 136.8 36.26 152.15z" fill="#e3e0dd" stroke="#141500" stroke-miterlimit="10" stroke-width=".89"/><path d="M535.18 233c3.52 10.05 2.52 68.51 3 74 2 22.22.15 25.55-7.54 36.44l14.44 8.44c30.5-64 15.84-80.48 10.72-141.9-2.67-32.08.16-22.16-49.7-50.43 0 0-2.67 16.86-6 19.55-13.4 10.72-6.24 17.62-8.06 37.6-.67 7.38 3.36 71.16 4.7 77.21s5.37 26.18 4 30.21 10.74 9.84 15.44 7.6 18.13-4.24 18.13-4.24c3.75-55.43 2.81-36.29.87-94.48zm-98.24 3.06c-4.36 12.46-2.14 101.6-3.61 106.25l-19.56 5.16c-10.59-92.72-4-56.2 2.52-134.41 2.71-32.55-.28-22.08 53-52.33 0 0-.67 18.76 2.69 21.45 13.39 10.72 6.24 17.62 8.05 37.6.67 7.38-3.36 71.17-4.7 77.21s-5.37 26.18-4 30.21-10.73 9.8-15.43 7.61-18.13-4.25-18.13-4.25c-3.72-55.48-2.77-36.35-.83-94.5z" fill="#34443a" stroke="#141500" stroke-miterlimit="10" stroke-width=".89"/><path d="M445.92 333.63c8.53 12.46-12.22 9.41.35 22.34 9.55 9.79-1.45 19.7-19.12 8.34-7.45-4.84-13.93-6.45-11.32-22.59.74-4.62-.74-4.62 11.66-9.25 8.13-3.1 13.99-4.47 18.43 1.16z" fill="#edc1a0" stroke="#141500" stroke-miterlimit="10" stroke-width=".89"/><path d="M191.45 297.48l57.24 3.76-7.08-40.59-42.27 2.63c-1.08 4.13-.1.01-7.89 34.2z" fill="#fff" stroke="#141500" stroke-miterlimit="10" stroke-width=".89"/><path d="M294.65 606.89c4 2 6.71 13.42 4.7 19.47s-16.1 6.37-21.48 5.37-24.5-15.28-25.46-17.81c-2.62-7 3.3-25.83 3.3-25.83.56-.08 1.1-.13 1.64-.18a50.19 50.19 0 017.78-.09c.9 0 1.73.11 2.51.16a18.67 18.67 0 005.91-.23l.53-.14a10.18 10.18 0 002.06-.89 14.82 14.82 0 002.69-2c2.54.4 4.27 1.42 4.4 3.43.56 8.12 7.4 16.73 11.42 18.74z"/><path d="M298.68 256.42c3.78 36.05-18 104.46-18.08 102.12a.58.58 0 000-.18c0-.49.16-.76.05-1v-.29l-.49-.25-.16-.1c-.86-.59-2.78-1.53-6.84-3.65a.77.77 0 01-.18-.1c-2.69-1.43-4.1-2.18-4.94-2.58a.75.75 0 01-.18-.08 5.2 5.2 0 00-.46-.25 14.89 14.89 0 01-1.93-.55 3 3 0 00-1.5-.52l-.19-.07c-.06 0-.14 0-.21-.08-4.56-1.64-11.53-4.4-12.34-4.64h-.08c-.21-.29-.4-.58-.57-.86a73.91 73.91 0 01-9.31-21.71c0-.11-.05-.2-.08-.31-.07-.36-.13-.71-.21-1.06-1.34-6.68-2.66-15.08-3.65-23.2h-.21a338 338 0 01-.85-41.14c.23-4.53.5-9.56.82-14.87.25-4.45 1.26-21.18 1.48-24.85.77-12.31 1.55-24.09 2.09-32.69.05-.74.1-1.46.14-2.15 0-.35 0-.7.08-1.05.59-2.51.32-5 .7-10.4 0 0 10.07 2 32.9 5.36S290 191.3 294.65 205.4s2.69 38.26 4.03 51.02zm-26.91 53.66c2-.69 5.51-38.75 3.51-42.78 0 0-15.17 35.83-3.51 42.78z" fill="#338ac5"/><path d="M285.93 570c.44 3.12-2.38 10.43-7.1 14.73a14.82 14.82 0 01-2.69 2 10.69 10.69 0 01-2.06.89l-.53.14a18.7 18.7 0 01-5.91.23c-.78-.05-1.61-.12-2.51-.16a50.22 50.22 0 00-7.78.09c-.54.05-1.08.1-1.64.18-5.85-55.7-7-16.46-10.06-77.88-.69-13.43-8.74-53-10.08-63.11s-13.42-43-14.09-51c-2.95-2.76-6.4-2.47-10.08-.67-27 125.05-23 152.63-25.51 166.51-1.34 7.38-7.39 19.46-9.4 19.46S155 578.7 155 578.7c-2.39-11.2.83-26 3.44-30.89 1.14-45-1.78-48.76 4-57.07 6.12-8.72 1.95-45.65.61-50.36-.8-2.75-.66-39.62-.42-69.53a37.54 37.54 0 006.95 3.55c6.54 2.47 11.55 1.69 14-.72a5.18 5.18 0 001.39-2.16 7.31 7.31 0 00-1-6.22 14.92 14.92 0 00-2.19-2.79c-.56-.58-1.05-1.12-1.47-1.65-2-2.55-2.66-4.72-2.42-6.45a.68.68 0 000-.19 9 9 0 012.54-3.61l1.38.64c10.56 4.88 18 7.4 27.22 8.12 2.19.19 4.47.25 6.91.23s4.88 0 7.19-.14c1 1.29 3.79.72 11-1.5h.18a112.61 112.61 0 0017.81-5.54c3.43-1.06 7.24-2.21 11.5-3.45a1.67 1.67 0 01.33 0l1.5.52a2.54 2.54 0 01.65.58c-3.87.38-13.68 2.9-15.91 6.07-2.53 3.59 5.81 6 11.1 10.26s-3 4-7 5.29a4.91 4.91 0 00-1.9 1.23c-2.64 2.56-3.9 8.16 1.49 9.72 2.82.83 7.51.55 14.81-1.91 11.05 148.53-4.88 34.44 17.24 189.27z" fill="#06539c"/><path d="M280.68 357v.29a1.32 1.32 0 00-.48-.54z" fill="#338ac5"/><path d="M280.67 357.31c0 .36 0 .71-.05 1a.58.58 0 010 .18c-1.05 19.56-6.15 20.25-11.91 22.16-7.3 2.46-12 2.74-14.81 1.91-5.35-1.56-4.09-7.14-1.49-9.72a4.91 4.91 0 011.9-1.23c4-1.26 12.33-1 7-5.29s-13.63-6.67-11.1-10.26c2.23-3.17 12-5.69 15.91-6.07a2.51 2.51 0 011.74.22.75.75 0 00.18.08c1.91 1 3.55 1.87 4.94 2.58a.77.77 0 00.18.1c1.7.92 3.94 2.12 6.84 3.65l.16.1a1.32 1.32 0 01.51.59z" fill="#edc1a0"/><path d="M275.28 267.3c2 4-1.5 42.09-3.51 42.78-11.66-6.95 3.51-42.78 3.51-42.78z" fill="#d9d7ea"/><path d="M274.08 587.61a10.69 10.69 0 002.06-.89 10.18 10.18 0 01-2.06.89zm-.53.14a18.67 18.67 0 01-5.91.23 18.7 18.7 0 005.91-.23z"/><path d="M273 352.92c-1.39-.71-3-1.56-4.94-2.58.85.4 2.26 1.15 4.94 2.58zm-9-3.98a3 3 0 011.5.52z" fill="#338ac5"/><path d="M263.81 348.87l-.14.05c-2.52-.13-6.37 1.45-11.5 3.45-7.78 2.39-13.55 4.25-17.81 5.54h-.18a75.53 75.53 0 01-11 1.5l-.1-.14h.1V349c1.32 0 2.63 0 3.89-.11h1a81 81 0 0011.82-1.59c.68-.13 1.37-.27 2-.45.91-.19 1.82-.43 2.71-.67 2.15-.56 4.3-1.19 6.47-1.93h.16c11.94 4.72 4.24 1.82 12.34 4.64.1-.06.18-.05.24-.02z" fill="#06477c"/><path d="M252.17 352.37c5.13-2 9-3.58 11.5-3.45a725.03 725.03 0 00-11.5 3.45z" fill="#06539c"/><path d="M250.61 343.28c.17.28.36.57.57.86h-.08c-.57.12-2.87 1-6.47 1.93-.89.24-1.8.48-2.71.67-.66.15-1.33.31-2 .45a87 87 0 01-11.82 1.59h-1c-2.46.11-5 .11-7.56 0h-.13l-.95-.07-1-.08c-3.94-.36-6-1-7.14-.83q-3.37-.53-6.75-1.24c-5.32-1.13-10.6-2.6-15.53-4.18l-.26-.08c-.7-.24-1.4-.46-2.08-.7s-1.53-.51-2.28-.78c1.89-2.57 2.8-3.53 3.44-4.66a5.2 5.2 0 00.38-.51c.07-.25.15-.51.21-.76.73-2 1.48-5.44 4-14.66h49.49c.08.35.18.7.28 1.06 0 .11 0 .2.08.31 1.61 7.82 2.85 12.13 9.31 21.68z" fill="#fff"/><path d="M251.1 344.15a91.14 91.14 0 01-6.47 1.93c3.6-.95 5.9-1.81 6.47-1.93z" fill="#fff"/><path d="M223.12 157c22.19-1.24 17.71-25.78 18.49 12.79-.22 3.49-.46 7-.7 10.4a14.61 14.61 0 01-1 2.82c-2.62 4.31-9.87 14.75-14 20.7l-3.05 4.32-4.41-4.77L206 189.93l-.07-.08a7.09 7.09 0 01-1.41-2.3v-.06c-.06-2.89-.1-5.88-.1-9v-6.91c0-1.67.08-3.41.13-5.18.11-6.52.29-12.88.42-16.57a15.05 15.05 0 008.69 6.29 13.81 13.81 0 002.34.55c.4.08.83.15 1.26.2.86.12 1.79.2 2.76.24a28.57 28.57 0 003.1-.11z" fill="#edc1a0"/><path d="M241 320.2c.08.35.14.7.21 1.06-.1-.36-.2-.71-.28-1.06zm-.09-139.98c.24-3.45.48-6.91.7-10.4-.38 5.39-.11 7.89-.7 10.4zM241 320.2h-.07a150.67 150.67 0 01-3.79-23.2h.21c1 8.12 2.32 16.52 3.65 23.2z" fill="#338ac5"/><path d="M240.94 320.2h-49.49c2.69-9.84 6.59-24.46 6.63-24.63l39.07 1.43a150.67 150.67 0 003.79 23.2zm-1.06 27c.71-.14 1.38-.3 2-.45-.63.18-1.32.32-2 .45zm.95-165.9c0 .69-.09 1.41-.14 2.15-.78 11.17-1.59 22.09-2.31 32.69h-32.71c-.3-18.41-1-26.5-1.1-27.77l1.37 1.48.07.08c1.7 2.09 5.23 5.72 12.39 13.39l4.41 4.77 3.05-4.32c8.55-12 12.31-17.16 14-20.7a10.23 10.23 0 00.97-1.77z" fill="#fff"/><path d="M240.69 183.45c-.54 8.6-1.32 20.38-2.09 32.69h-.22c.72-10.6 1.53-21.52 2.31-32.69zm-2.31 32.69h.22c-.22 3.67-1.23 20.4-1.48 24.85h-.23q.6-12.09 1.49-24.85z" fill="#338ac5"/><path d="M205.67 216.14h32.71q-.87 12.75-1.49 24.85h-31.38c.53-9 .45-16.84.16-24.64z" fill="#fff"/><path d="M236.89 241h.23c-.32 5.31-.59 10.34-.82 14.87.13-4.87.34-9.87.59-14.87z" fill="#338ac5"/><path d="M205.51 241h31.38c-.25 5-.46 10-.59 14.87-.2 3.86-.38 7.34-.49 10.3h-33c.94-6.18 1.62-11.8 2.1-17a.17.17 0 000-.08c.21-1.87.33-3.45.44-5.44 0-.27 0-.57.05-.86.05-.61.08-1.2.11-1.79z" fill="#fff"/><path d="M235.57 91.93c19.18 9.87 19.17 63.09-12.45 65.1a28.57 28.57 0 01-3.08 0c-1 0-1.88-.12-2.76-.24-.43-.05-.86-.12-1.26-.2a19.12 19.12 0 01-2.34-.55 15.56 15.56 0 01-8.69-6.29c-3.49-5.15-4.69-12.5-7-20.26-4-13.43-1.34-21.48 7.78-37.6s27.12-1.33 29.8.04z" fill="#cc7e5f"/><path d="M225.86 203.77c4.15-6 11.4-16.39 14-20.7-1.69 3.54-5.45 8.68-14 20.7zm2.2 145.02a87 87 0 0011.82-1.59 81 81 0 01-11.82 1.59z" fill="#fff"/><path d="M234.18 358c-7.24 2.22-10 2.79-11 1.5a75.53 75.53 0 0011-1.5z" fill="#06539c"/><path d="M223.15 349v10.37h-.1c-.86-1.5.1-4.88.1-10.37zm0-.06h-1.31 1.31z" fill="#032847"/><path d="M223.15 348.94h-2.42c.81-.02 1.62 0 2.42 0z" fill="#06477c"/><path d="M221.84 348.92h1.31c0 5.54-1 8.92-.1 10.37l-2 .13c-2.19.07-4.34.12-6.41.09-1.8-.08-3.65-.22-5.57-.45.23-8.4-.52-10.82 1-11.21 1.95.29 3.84.53 5.71.69.53.05 1 .1 1.53.13.69.06 1.35.11 2 .13h.36c.75.11 1.47.12 2.17.12z" fill="#032847"/><path d="M220.73 348.89h1.11c-.7 0-1.42 0-2.13-.06h.9z" fill="#032847"/><path d="M220.61 348.89h-1.26.13z" fill="#06477c"/><path d="M218.4 348.76l.95.07c-.67 0-1.33-.07-2-.13l.75.05z" fill="#032847"/><path d="M217.28 156.83c.88.12 1.79.2 2.76.24-.97-.07-1.9-.07-2.76-.24z" fill="#cc7e5f"/><path d="M206 189.93l12.39 13.39c-7.15-7.67-10.68-11.32-12.39-13.39z" fill="#fff"/><path d="M218.4 348.76h-.32l-.67-.07z" fill="#032847"/><path d="M218.08 348.75l-.75-.05c-.51 0-1-.08-1.53-.13-1.83-.18-3.67-.41-5.53-.72 2.4.39 4.8.67 7.14.83z" fill="#032847"/><path d="M214.62 359.54c2.07 0 4.22 0 6.41-.09q-2.66.14-5.07.15z" fill="#06477c"/><path d="M215.8 348.57c.51.05 1 .1 1.53.13-.49-.03-1-.08-1.53-.13z" fill="#032847"/><path d="M216 359.6c-2.44 0-4.72 0-6.91-.23 1.76.09 3.62.15 5.57.17z" fill="#06477c"/><path d="M213.68 156.08a19.12 19.12 0 002.34.55 13.81 13.81 0 01-2.34-.55z" fill="#cc7e5f"/><path d="M215.8 348.57c-1.87-.16-3.76-.4-5.71-.69h.18c1.86.28 3.73.51 5.53.69z" fill="#032847"/><path d="M205 149.79a15.56 15.56 0 008.69 6.29 15.05 15.05 0 01-8.69-6.29z" fill="#cc7e5f"/><path d="M210.27 347.85c1.1-.16 3.2.47 7.14.83-2.34-.16-4.74-.44-7.14-.83zm4.35 11.69c-2 0-3.81-.08-5.57-.17v-.28c1.95.23 3.77.37 5.57.45z" fill="#032847"/><path d="M210.27 347.85h-.07c-2.21-.35-4.45-.76-6.68-1.24q3.38.72 6.75 1.24z" fill="#06477c"/><path d="M210.2 347.85h-.11a137.42 137.42 0 01-22.1-5.45c4.93 1.58 10.21 3.05 15.53 4.18 2.23.51 4.48.92 6.68 1.27z" fill="#06477c"/><path d="M210.09 347.88c-1.56.39-.81 2.81-1 11.21a91.91 91.91 0 01-27.22-7.84l-1.38-.64a4.65 4.65 0 002.85-3.48c.64-1.38.67-3-.65-5.23.14-.19.33-.52.69-1 .75.27 1.51.52 2.28.78.19.08.38.14.59.21l1.49.49.26.08a137.42 137.42 0 0022.09 5.42z" fill="#06477c"/><path d="M209.05 359.09v.28c-9.24-.72-16.66-3.24-27.22-8.12a91.91 91.91 0 0027.22 7.84z" fill="#06477c"/><path d="M205.67 216.35c.29 7.8.37 15.66-.16 24.64.28-7.72.29-16.76.16-24.64z" fill="#338ac5"/><path d="M205.67 216.35c.13 7.88.12 16.92-.19 24.64 0 .65-.06 1.24-.08 1.8 0 .29 0 .59-.05.86-.12 1.77-.27 3.57-.44 5.44a.17.17 0 010 .08c-.36 3.34-1 7.65-2.26 17h.16c-2.63 17.26-7.32 39-15.34 68.7a7.91 7.91 0 01-.59 1.27c-2.54 3.38-3.7 4.36-4.59 4.23l-.56-.24c-.12-.11-.27-.22-.41-.37l-.14-.14a6.53 6.53 0 00-.51-.6c-3.83-4.36-10.21-2.81-16.55-.45-.34.13-.67.26-1 .38-12.39 4.63-10.93 4.63-11.66 9.25-.8.37-13.49-44-15.13-54.9-2-13.42 12.09-72.5 12.76-83.25 2.36-37.89 19.9-40.5 55.61-43.74 0 1.74-.08 3.48-.09 5.18v13.49a10.48 10.48 0 00.06 2.46v.06c.23 10.57.82 19.55 1.14 28.59zm-35.32 93.79c7-17.22 5.57-18.78-6.61-42.3-1.68 25.65-.4 26.72 4.09 44z" fill="#338ac5"/><path d="M205.48 241c0 .6-.06 1.19-.11 1.8.05-.57.08-1.16.11-1.8zm-2.85 25.16c1.27-9.34 1.9-13.65 2.26-17-.48 5.19-1.16 10.81-2.1 17zm1.94-99.8c-.05 1.77-.1 3.51-.13 5.18.05-1.7.09-3.44.13-5.18zm-.12 7.27v1.93c-.02-.64-.02-1.27 0-1.93zm-.02 1.93v2.89c-.02-.93-.02-1.9 0-2.89zm-.02 2.89c0 3.16 0 6.15.1 9a10.48 10.48 0 01-.06-2.46c-.05-1.66-.05-3.93-.04-6.54z" fill="#338ac5"/><path d="M185.65 341.65c.68.24 1.38.46 2.08.7l-1.49-.49c-.24-.07-.4-.13-.59-.21zm.59.21l1.49.49z" fill="#06477c"/><path d="M187.43 334.89c-.06.25-.14.51-.21.76a5.2 5.2 0 01-.38.51 7.91 7.91 0 00.59-1.27z" fill="#338ac5"/><path d="M184 365.3a7.43 7.43 0 011 6.22 5.18 5.18 0 01-1.39 2.16c-2.48 2.4-7.51 3.15-14 .72a37.54 37.54 0 01-6.95-3.55c-7.44-4.84-13.93-6.46-11.32-22.6.73-4.62-.73-4.62 11.66-9.25.35-.12.68-.25 1-.38 12.63-4.56 15.32-.73 17.06 1.05l.33.48.05.06a.64.64 0 00.06.11c.1.16.26.4.46.77.12.22.26.51.4.84 0 .05.05.1.07.16a8.77 8.77 0 01.87 5 13.06 13.06 0 01-2.85 3.48 5.48 5.48 0 00-2.54 3.61.68.68 0 010 .19c-.4 1.64.11 3.66 2.42 6.45.42.53.91 1.07 1.47 1.65a14.92 14.92 0 012.2 2.83z" fill="#edc1a0"/><path d="M183.33 347.1a8.77 8.77 0 00-.87-5c0-.06-.05-.11-.07-.16.08.16.15.15.29-.08 1.32 2.21 1.32 3.86.65 5.24z" fill="#06477c"/><path d="M182.55 340.58l.82.29c-.36.48-.55.81-.69 1a14.86 14.86 0 00-1.15-1.67l.37.14a2.11 2.11 0 00.3.1 2.83 2.83 0 00.35.14z" fill="#06477c"/><path d="M182.55 340.58a2.83 2.83 0 01-.35-.14c.11.05.22.08.35.14zm.13 1.29c-.14.23-.21.24-.29.08a9.8 9.8 0 00-.4-.84 4.84 4.84 0 00-.46-.77.64.64 0 01-.06-.11v-.05h.08a14.86 14.86 0 011.13 1.69z" fill="#06477c"/><path d="M182.2 340.44a2.11 2.11 0 01-.3-.1l-.26-.14z" fill="#338ac5"/><path d="M181.9 340.34l-.37-.14-.05-.05a.54.54 0 01.16.05zm-.37 0a4.84 4.84 0 01.46.77c-.2-.37-.36-.61-.46-.77zm0-.14h-.08z" fill="#06477c"/><path d="M181.48 340.15l-.33-.48.14.14z" fill="#edc1a0"/><path d="M181.45 340.18v.05c0 .05 0-.05-.05-.06z" fill="#06477c"/><path d="M180.56 339.07a6.53 6.53 0 01.51.6c-1.74-1.78-4.43-5.61-17.06-1.05 6.34-2.36 12.72-3.91 16.55.45z" fill="#338ac5"/><path d="M180.48 350.58a13.06 13.06 0 002.85-3.48 4.65 4.65 0 01-2.85 3.48z" fill="#fff"/><path d="M176.49 581.37c10 30.06 11.95 20 3.35 32.9-1.34 2-12.08 6.71-18.13 10.08s-21.48 1.69-24.84 0c-2.35-.85-1.34-4.71 0-12.76s12.76-8.05 17.24-11.67.89-21.22.89-21.22 19.47 2.67 21.49 2.67z"/><path d="M177.91 354.22a5.48 5.48 0 012.54-3.61 9 9 0 00-2.54 3.61zm5.69 19.46c-2.45 2.41-7.46 3.19-14 .72 6.49 2.43 11.52 1.68 14-.72z" fill="#06539c"/><path d="M219.71 348.86c.71.05 1.43.06 2.13.06h1.31m-12.88-1.07c1.86.31 3.7.54 5.53.72.51.05 1 .1 1.53.13.69.06 1.35.11 2 .13m-15.81-2.22c2.23.48 4.47.89 6.68 1.24m-23.96-5.99l1.49.49M205.48 241c.31-7.72.32-16.76.19-24.64m32.93-.22c-.22 3.67-1.23 20.4-1.48 24.85m-14-83.99c22.19-1.24 17.71-25.78 18.49 12.79-.38 5.39-.11 7.89-.7 10.4M205 149.79a15.56 15.56 0 008.69 6.29 19.12 19.12 0 002.34.55c.4.08.83.15 1.26.2.88.12 1.79.2 2.76.24m-15.57 14.47c0-1.7.05-3.44.09-5.18.11-6.52.29-12.88.42-16.57m-.48 37.7a10.48 10.48 0 01-.06-2.46v-11.4m1.49 16.22a7.09 7.09 0 01-1.41-2.3m13.87 15.77c-7.16-7.67-10.69-11.3-12.39-13.39m34.9-9.68a14.61 14.61 0 01-1 2.82c-1.71 3.54-5.47 8.68-14 20.7" fill="none" stroke="#141500" stroke-miterlimit="10" stroke-width=".89"/><path d="M220 157.07c-1 0-1.9-.12-2.76-.24-.43-.05-.86-.12-1.26-.2a13.81 13.81 0 01-2.34-.55 15.05 15.05 0 01-8.69-6.29c-3.49-5.15-4.69-12.5-7-20.26-4-13.43-1.34-21.48 7.78-37.6s27.14-1.37 29.82 0c19.18 9.87 19.17 63.09-12.45 65.1a28.57 28.57 0 01-3.1.04zm21.3 164.5a73.91 73.91 0 009.31 21.71m-9.92-159.83c-.78 11.17-1.59 22.09-2.31 32.69q-.87 12.75-1.49 24.85c-.25 5-.46 10-.59 14.87a338 338 0 00.85 41.14 150.67 150.67 0 003.79 23.2c.08.35.18.7.28 1.06m39.38 37.28c.08 2.34 21.86-66.07 18.08-102.12-1.34-12.76.67-36.93-4-51s2.69-26.86-20.14-30.22-32.9-5.36-32.9-5.36c-.22 3.49-.46 7-.7 10.4v0c0 .35 0 .7-.08 1.05m39.81 176.03c.11.28 0 .55-.05 1m-.43-1.55a1.32 1.32 0 01.48.54m-7.48-4.31c4.06 2.12 6 3.06 6.84 3.65m-11.96-6.31c1.91 1 3.55 1.87 4.94 2.58m-9.2-4.05l.19.07 1.5.52a14.89 14.89 0 001.93.55 5.2 5.2 0 01.46.25m-16.63-6.11c.81.24 7.78 3 12.34 4.64" fill="none" stroke="#141500" stroke-miterlimit="10" stroke-width=".89"/><path d="M271.77 310.08c2-.69 5.51-38.75 3.51-42.78 0 0-15.17 35.83-3.51 42.78zm-66.37-67.29c0-.61.08-1.2.11-1.8.53-9 .45-16.84.16-24.64v-.21c-.32-9-.91-18-1.14-28.59v-.06c-.06-2.89-.1-5.88-.1-9v-6.91c0-1.67.08-3.41.13-5.18h0c-35.71 3.24-53.25 5.85-55.61 43.74-.67 10.75-14.77 69.83-12.76 83.25 1.64 10.94 14.33 55.27 15.13 54.9m53.59-99.2c.17-1.87.32-3.67.44-5.44m-17.9 91.21c8-29.73 12.71-51.44 15.34-68.7.94-6.18 1.62-11.8 2.1-17m-18.05 87a5.2 5.2 0 00.38-.51c.07-.25.15-.51.21-.76m-5.21 5.55c.89.13 2.05-.85 4.59-4.23m-5.58 3.62c.14.15.29.26.41.37l.26.14m-17.9-1.72c12.63-4.56 15.32-.73 17.06 1.05" fill="none" stroke="#141500" stroke-miterlimit="10" stroke-width=".89"/><path d="M170.35 310.14l-2.52 1.74c-4.49-17.32-5.77-18.39-4.09-44 12.18 23.48 13.63 25.04 6.61 42.26zm11.12 30.09s0-.05-.05-.06h.08l.37.14a2.11 2.11 0 00.3.1 2.83 2.83 0 00.35.14m-.52.56a4.84 4.84 0 00-.46-.77m1.83.53c-.36.48-.55.81-.69 1s-.21.24-.29.08m-5.9 239.42c10 30.06 11.95 20 3.35 32.9-1.34 2-12.08 6.71-18.13 10.08s-21.48 1.69-24.84 0c-2.35-.85-1.34-4.71 0-12.76s12.76-8.05 17.24-11.67.89-21.22.89-21.22m119.08 8.91a10.69 10.69 0 002.06-.89m-8.5 1.28a18.7 18.7 0 005.91-.23m-16.2.14a50.19 50.19 0 017.78-.09" fill="none" stroke="#141500" stroke-miterlimit="10" stroke-width=".89"/><path d="M278.83 584.69c2.54.4 4.27 1.42 4.4 3.43.56 8.15 7.4 16.76 11.42 18.77s6.71 13.42 4.7 19.47-16.1 6.37-21.48 5.37-24.5-15.28-25.46-17.81c-2.62-7 3.3-25.83 3.3-25.83m-93.06-217.24c-7.44-4.84-13.93-6.46-11.32-22.6.73-4.62-.73-4.62 11.66-9.25.35-.12.68-.25 1-.38 6.34-2.36 12.72-3.91 16.55.45m3.06 34.61c-2.45 2.41-7.46 3.19-14 .72m14.4-9.1a7.43 7.43 0 011 6.22m-7.12-17.11c-.4 1.64.11 3.66 2.42 6.45m.15-10.25a9 9 0 00-2.54 3.61m3.18-14.53l.14.14.25.32.05.05a14.86 14.86 0 011.15 1.67c1.32 2.2 1.29 3.85.65 5.23a13.06 13.06 0 01-2.85 3.48m.08-11.51a6.53 6.53 0 01.51.6m0 0h0m.35.5l-.33-.48M266.15 350a2.51 2.51 0 011.74.22.75.75 0 00.18.08c.84.4 2.25 1.15 4.94 2.58a.77.77 0 00.18.1c1.7.92 3.94 2.12 6.84 3.65l.16.1.49.25v.29h0c0 .36 0 .71-.05 1a.58.58 0 010 .18c-1.05 19.56-6.15 20.25-11.91 22.16m-14.84 2c-5.35-1.56-4.09-7.14-1.49-9.72m-1.21-28.75h.08c11.94 4.72 4.24 1.82 12.34 4.64.07 0 .15 0 .21.08l-.14.05m-40.52.09c1.32 0 2.63 0 3.89-.11m-3.89 10.57l-.1-.14m29.12-6.95c-7.78 2.39-13.55 4.25-17.81 5.54m-13.63-9.02c.81 0 1.62.05 2.42.05m-3.67-.11l1.13.06M188 342.43c4.93 1.58 10.21 3.05 15.53 4.18q3.38.72 6.75 1.24c2.4.39 4.8.67 7.14.83l.67.07m-32.44-7.1c.68.24 1.38.46 2.08.7" fill="none" stroke="#141500" stroke-miterlimit="10" stroke-width=".89"/><path d="M180.45 350.61s0 0 0 0a4.65 4.65 0 002.85-3.48 8.77 8.77 0 00-.87-5c0-.06-.05-.11-.07-.16a9.8 9.8 0 00-.4-.84c-.2-.37-.36-.61-.46-.77a.64.64 0 01-.06-.11v-.05c0-.05 0 0 0 0a.54.54 0 01.16.05l.56.24h0c.09.05.2.08.33.14l.82.29M221 359.45q-2.66.14-5.07.15c-2.44 0-4.72 0-6.91-.23-9.24-.72-16.66-3.24-27.22-8.12m5.63-16.36s0 0 0 0" fill="none" stroke="#141500" stroke-miterlimit="10" stroke-width=".89"/><path d="M234.36 357.91a112.61 112.61 0 0017.81-5.54c5.13-2 9-3.58 11.5-3.45a1.67 1.67 0 01.33 0 3 3 0 011.5.52 2.54 2.54 0 01.65.58c-3.87.38-13.68 2.9-15.91 6.07-2.53 3.59 5.81 6 11.1 10.26s-3 4-7 5.29a4.91 4.91 0 00-1.9 1.23c-2.64 2.56-3.9 8.16 1.49 9.72 2.82.83 7.51.55 14.81-1.91 11.05 148.56-4.88 34.47 17.24 189.26.44 3.12-2.38 10.43-7.1 14.73a14.82 14.82 0 01-2.69 2 10.18 10.18 0 01-2.06.89l-.53.14a18.67 18.67 0 01-5.91.23c-.78-.05-1.61-.12-2.51-.16a50.22 50.22 0 00-7.78.09c-.54.05-1.08.1-1.64.18-5.85-55.7-7-16.46-10.06-77.88-.69-13.43-8.74-53-10.08-63.11s-13.42-43-14.09-51c-2.95-2.76-6.4-2.47-10.08-.67-27 125.05-23 152.63-25.51 166.51-1.34 7.38-7.39 19.46-9.4 19.46S155 578.7 155 578.7c-2.39-11.2.83-26 3.44-30.89 1.14-45-1.78-48.76 4-57.07 6.12-8.72 1.95-45.65.61-50.36-.8-2.75-.66-39.62-.42-69.53a37.54 37.54 0 006.95 3.55c6.49 2.43 11.52 1.68 14-.72a5.18 5.18 0 001.39-2.16 7.31 7.31 0 00-1-6.22 14.92 14.92 0 00-2.19-2.79c-.56-.58-1.05-1.12-1.47-1.65-2-2.55-2.66-4.72-2.42-6.45a.68.68 0 000-.19 5.48 5.48 0 012.54-3.61l1.38.64a91.91 91.91 0 0027.22 7.84c1.92.23 3.77.37 5.57.45l1.34.06c2.49.07 4.88 0 7.19-.14a75.53 75.53 0 0011-1.5" fill="none" stroke="#141500" stroke-miterlimit="10" stroke-width=".89"/><path d="M219.35 348.83h3.8v10.37h-.1l-2 .13c-2.19.07-4.34.12-6.41.09s-3.81-.08-5.57-.17v-.28c.23-8.4-.52-10.82 1-11.21h.18c1.1-.16 3.2.47 7.14.83l1 .08" fill="none" stroke="#141500" stroke-miterlimit="10" stroke-width=".89"/><path d="M250.83 124.9c-1.5 6 3.56 7.72.83 12.81-2.1 3.94-4.82 3.55-15.53 19.08-8.64 12.55-23.49 4.07-28.88-4-3.17-4.78-4.08-7.35-6-9.47s-3.63-1.67-4.4-3.79c-1.32-3.72-3.76-7.26-1.05-11.45s2.45-19.7 3.49-21.75c.3-.61 12.73-7.5 12.73-7.5l27.68-.68c13.59 24.03 11.83 18.57 11.13 26.75z" fill="#f2d0b7"/><path d="M250.83 124.9c-1.5 6 3.56 7.72.83 12.81-2.1 3.94-4.82 3.55-15.53 19.08-8.64 12.55-23.49 4.07-28.88-4-3.17-4.78-4.08-7.35-6-9.47s-3.63-1.67-4.4-3.79c-1.32-3.72-3.76-7.26-1.05-11.45s2.45-19.7 3.49-21.75c.3-.61 12.73-7.5 12.73-7.5l27.68-.68c13.59 24.03 11.83 18.57 11.13 26.75z" fill="none" stroke="#141500" stroke-miterlimit="10" stroke-width=".89"/><path d="M213.85 78.25s-11.72 3.43-14.75 6.06-8.08 13.13-7.88 16.57c1.64 27.93 9.7 28.05 9.7 25.26 0-15.09-4.3-14.71 11.92-24.25.93 12.32 9.83 18.34 22 16.37-6-32.77-.83-3.74 6.06-.61 9.8 4.45 8.28 1 6.87 8.08 6.37 2.62 2.35 2.51 6.47-6.06 2.42-5 3-21.42 0-27.68-2.19-4.53-12.49-18.44-20.82-17.58-5.86.6-11.51-.61-14.14 2a5.87 5.87 0 01-5.43 1.84z" fill="#232044" stroke="#141500" stroke-miterlimit="10" stroke-width=".89"/><path d="M221.33 137s-2.43 8.38 4.65 8.79" fill="none" stroke="#141500" stroke-miterlimit="10" stroke-width=".89"/><path d="M239.72 130.3c0 3.85-3.24 3.85-3.24 0s3.24-3.85 3.24 0zm-26.07 0c0 3.85-3.23 3.85-3.23 0s3.23-3.85 3.23 0z" fill="#232044" stroke="#141500" stroke-miterlimit="10" stroke-width=".89"/><path d="M208.22 125.59c9.92 0 10.12.46 9.52-1.23-2.67-7.5-28.82 1.17-9.52 1.23zm32.21 0c-9.92 0-10.13.46-9.53-1.23 2.68-7.5 28.83 1.17 9.53 1.23z" fill="#301427" stroke="#141500" stroke-miterlimit="10" stroke-width=".89"/><path d="M216.88 149.58c7.91.13 6.9-1.08 8.11 0 0 0 .91.16 1.29-.25s5.91.07 6.21 0-3.86 4.5-7 4.27-8.15-3.14-8.61-4.02z" fill="#fff" stroke="#141500" stroke-miterlimit="10" stroke-width=".89"/><path d="M222.68 202.77c-5.9 82.78-12.69 147.39-3.8 145.64 2.75-.54 3.51-14.52 6.83-21.55 5.65-6.66-3.03-124.09-3.03-124.09z" fill="#06477c"/><path d="M222.68 202.77c21.52-27.88 28.26-36.58.13 5.32-28.46-30.78-21.61-24.65-.13-5.32z" fill="#06539c" stroke="#141500" stroke-miterlimit="10" stroke-width=".89"/><path d="M271.52 310.47c-.9 2.27-10.95 30.66-12.78 35.6m-90.91-34.19l6.74 22.69" fill="#338ac5" stroke="#141500" stroke-miterlimit="10" stroke-width=".89"/></svg>