<svg xmlns="http://www.w3.org/2000/svg" viewBox="0 0 1400 780"><path fill="#595959" d="M306.07 117.77h135.77v400H306.07z"/><path d="M437.49 122.12v391.3H310.42v-391.3h127.07m8.7-8.7H301.73v408.7h144.46v-408.7z" fill="#ad380b"/><path fill="#595959" d="M173.95 526.47h400v135.77h-400z"/><path d="M569.61 530.81v127.07H178.3V530.81h391.31m8.7-8.69h-408.7v144.46h408.7V522.12z" fill="#ad380b"/><path fill="#595959" d="M826.04 249.89h400v135.77h-400z"/><path d="M1221.7 254.23v127.08H830.39V254.23h391.31m8.69-8.69h-408.7V390h408.7V245.54z" fill="#ad380b"/><path fill="#595959" d="M681.58 117.77h135.77v400H681.58z"/><path d="M813 122.12v391.3H685.93v-391.3H813m8.69-8.7H677.23v408.7h144.46v-408.7z" fill="#ad380b"/></svg>