<svg xmlns="http://www.w3.org/2000/svg" viewBox="0 0 1400 780"><path fill="#d9d7ea" stroke="#141500" stroke-miterlimit="10" d="M0 0h1400v780H0z"/><path d="M458.73 334.83l64.12 4.17-7.92-45.48-47.37 2.95c-1.2 4.66-.11.05-8.83 38.36z" fill="#fff" stroke="#141500" stroke-miterlimit="10"/><path d="M574.34 681.46c4.52 2.25 7.52 15 5.27 21.81s-18 7.15-24.06 6-27.46-17.09-28.55-19.93c-2.93-7.81 3.7-28.94 3.7-28.94.62-.09 1.23-.15 1.84-.2a56.33 56.33 0 018.72-.11l2.8.18a21.11 21.11 0 006.63-.25l.59-.16a10.42 10.42 0 002.3-1 16.08 16.08 0 003-2.27c2.84.45 4.79 1.59 4.93 3.84.67 9.13 8.33 18.78 12.83 21.03z"/><path d="M578.86 288.82c4.24 40.39-20.17 117-20.26 114.4a.62.62 0 000-.19c0-.56.18-.86.06-1.16v-.32l-.55-.29a.78.78 0 01-.18-.11c-1-.66-3.11-1.71-7.66-4.09l-.2-.1c-3-1.61-4.59-2.45-5.54-2.9a.56.56 0 01-.19-.09l-.52-.28a16.41 16.41 0 01-2.16-.61 3.45 3.45 0 00-1.68-.59.94.94 0 00-.22-.07 2.18 2.18 0 00-.23-.09c-5.11-1.84-12.91-4.93-13.83-5.2a.11.11 0 01-.07 0c-.24-.32-.45-.64-.65-1a83.28 83.28 0 01-10.43-24.32c0-.12-.05-.23-.09-.35-.07-.4-.14-.79-.23-1.18-1.5-7.49-3-16.9-4.09-26h-.24a377.8 377.8 0 01-.9-46.08c.25-5.08.55-10.72.91-16.67.28-5 1.41-23.72 1.66-27.83.86-13.79 1.73-27 2.34-36.62.05-.84.11-1.65.16-2.42 0-.39.05-.78.09-1.17.66-2.81.36-5.61.79-11.65 0 0 11.27 2.25 36.85 6s17.29 18.06 22.56 33.86 3 42.83 4.5 57.12zm-30.15 60.11c2.25-.76 6.18-43.41 3.93-47.92 0-.01-16.99 40.14-3.93 47.92z" fill="#338ac5"/><path d="M564.57 640.08c.5 3.51-2.66 11.69-8 16.51a16.08 16.08 0 01-3 2.27 10.63 10.63 0 01-2.3 1l-.59.16a21.14 21.14 0 01-6.63.25l-2.8-.18a56.35 56.35 0 00-8.72.11c-.61 0-1.22.11-1.84.2-6.56-62.4-7.84-18.44-11.27-87.25-.77-15-9.79-59.42-11.29-70.71s-15.05-48.14-15.8-57.16c-3.3-3.09-7.16-2.77-11.29-.75-30.2 140.09-25.76 171-28.58 186.53-1.5 8.27-8.27 21.81-10.52 21.81s-24.08-3-24.08-3c-2.68-12.54.93-29.08 3.86-34.6 1.27-50.38-2-54.63 4.5-63.93 6.86-9.78 2.18-51.15.68-56.42-.9-3.09-.73-44.39-.47-77.91a41.19 41.19 0 007.79 4c7.33 2.77 12.94 1.89 15.69-.81a5.82 5.82 0 001.55-2.42c.7-2 .39-4.4-1.16-7a17.17 17.17 0 00-2.45-3.13 23.47 23.47 0 01-1.64-1.84c-2.27-2.86-3-5.29-2.72-7.23a.85.85 0 000-.22 10 10 0 012.84-4c.52.25 1 .48 1.55.71 11.83 5.47 20.14 8.29 30.5 9.09 2.45.22 5 .29 7.73.27s5.47 0 8.06-.16c1.11 1.45 4.25.8 12.36-1.68l.2-.05a126.21 126.21 0 0019.95-6.22c3.84-1.18 8.11-2.46 12.88-3.86a2.18 2.18 0 01.38 0l1.68.59a2.74 2.74 0 01.73.64c-4.34.43-15.33 3.25-17.83 6.81-2.84 4 6.5 6.7 12.43 11.49s-3.39 4.51-7.89 5.93a5.41 5.41 0 00-2.06 1.38c-3 2.88-4.37 9.15 1.66 10.9 3.17.93 8.42.61 16.6-2.15 12.38 166.44-5.47 38.63 19.31 212.03z" fill="#06539c"/><path d="M558.69 401.53v.32a1.49 1.49 0 00-.54-.61z" fill="#338ac5"/><path d="M558.68 401.85l-.06 1.16a.62.62 0 010 .19c-1.17 21.92-6.89 22.69-13.34 24.83-8.18 2.76-13.43 3.08-16.6 2.15-6-1.75-4.57-8-1.66-10.9a5.41 5.41 0 012.13-1.37c4.5-1.42 13.81-1.15 7.89-5.93s-15.27-7.47-12.43-11.49c2.5-3.56 13.49-6.38 17.83-6.81a2.85 2.85 0 012 .25.56.56 0 00.19.09c2.15 1.14 4 2.09 5.54 2.9l.2.1c1.91 1 4.41 2.38 7.66 4.09a.78.78 0 00.18.11 1.49 1.49 0 01.47.63z" fill="#edc1a0"/><path d="M552.64 301c2.25 4.51-1.68 47.16-3.93 47.92-13.06-7.77 3.93-47.92 3.93-47.92z" fill="#d9d7ea"/><path d="M551.3 659.86a10.63 10.63 0 002.3-1 10.42 10.42 0 01-2.3 1zm-.59.14a21.11 21.11 0 01-6.63.25 21.14 21.14 0 006.63-.25z"/><path d="M550.1 396.94c-1.55-.81-3.39-1.76-5.54-2.9.95.45 2.52 1.29 5.54 2.9zm-10.1-4.47a3.45 3.45 0 011.68.59z" fill="#338ac5"/><path d="M539.79 392.4l-.16.05c-2.82-.14-7.13 1.63-12.88 3.86-8.72 2.68-15.18 4.77-19.95 6.22l-.2.05a85.81 85.81 0 01-12.36 1.68l-.11-.16h.11v-11.61c1.48 0 2.95-.06 4.36-.13l1.14-.05a90.5 90.5 0 0013.26-1.79c.77-.14 1.54-.3 2.29-.5 1-.21 2-.48 3-.75q3.62-.93 7.26-2.16a.16.16 0 00.09 0 .11.11 0 00.07 0c13.38 5.29 4.76 2 13.83 5.2a2.18 2.18 0 01.25.09z" fill="#06477c"/><path d="M526.75 396.31c5.75-2.23 10.06-4 12.88-3.86-4.77 1.4-9.04 2.68-12.88 3.86z" fill="#06539c"/><path d="M525 386.13c.2.32.41.64.65 1a.16.16 0 01-.09 0c-.65.13-3.22 1.09-7.26 2.16-1 .27-2 .54-3 .75-.74.16-1.49.34-2.29.5a97.13 97.13 0 01-13.24 1.79l-1.14.05c-2.75.13-5.57.13-8.47 0h-.14c-.38 0-.73 0-1.07-.07s-.75 0-1.11-.09c-4.41-.41-6.77-1.1-8-.93q-3.78-.58-7.56-1.39c-6-1.27-11.88-2.91-17.4-4.68l-.29-.09-2.34-.78c-.85-.29-1.71-.58-2.55-.88 2.12-2.88 3.14-3.95 3.86-5.22.15-.18.29-.37.43-.57s.16-.57.23-.86c.82-2.22 1.66-6.1 4.49-16.42h55.45c.09.39.19.78.3 1.18 0 .12 0 .23.09.35 1.82 8.67 3.22 13.5 10.45 24.2z" fill="#fff"/><path d="M525.56 387.11q-3.64 1.23-7.26 2.16c4.04-1.07 6.61-2.03 7.26-2.16z" fill="#fff"/><path d="M494.2 177.47c24.87-1.39 19.85-28.88 20.73 14.33q-.37 5.87-.79 11.65a16.67 16.67 0 01-1.16 3.16c-2.93 4.82-11.06 16.52-15.7 23.18l-3.42 4.85-4.94-5.35-13.88-15-.08-.09a8.27 8.27 0 01-1.59-2.57v-.07c-.07-3.24-.11-6.6-.11-10.13v-7.74c0-1.87.09-3.82.14-5.8.12-7.31.32-14.44.46-18.57a16.85 16.85 0 009.74 7 16.18 16.18 0 002.62.63c.45.09.93.16 1.42.21a26.53 26.53 0 003.09.27 30.15 30.15 0 003.47.04z" fill="#edc1a0"/><path d="M514.25 360.28c.09.39.16.78.23 1.18-.11-.4-.21-.79-.3-1.18zm-.11-156.83q.4-5.79.79-11.65c-.43 6.04-.13 8.84-.79 11.65zm.11 156.83h-.07a168.08 168.08 0 01-4.26-26h.24c1.1 9.1 2.59 18.51 4.09 26z" fill="#338ac5"/><path d="M514.18 360.28h-55.45c3-11 7.37-27.41 7.43-27.6l43.76 1.61a168.08 168.08 0 004.26 25.99zM513 390.52c.8-.16 1.55-.34 2.29-.5-.77.2-1.54.36-2.29.5zm1.05-185.86c0 .77-.11 1.58-.16 2.42-.87 12.5-1.79 24.74-2.59 36.62h-36.64c-.34-20.64-1.16-29.69-1.23-31.12l1.53 1.66.08.09c1.91 2.34 5.86 6.41 13.88 15l4.94 5.35 3.42-4.85c9.57-13.46 13.79-19.22 15.7-23.18a11.56 11.56 0 001.07-1.99z" fill="#fff"/><path d="M513.89 207.08c-.61 9.62-1.48 22.83-2.34 36.62h-.25c.8-11.88 1.7-24.12 2.59-36.62z" fill="#338ac5"/><path d="M511.3 243.7h.25c-.25 4.11-1.38 22.85-1.66 27.83h-.25c.45-9.02 1.02-18.31 1.66-27.83z" fill="#338ac5"/><path d="M474.66 243.7h36.64c-.64 9.52-1.21 18.81-1.66 27.83h-35.16c.59-10.06.5-18.86.18-27.6z" fill="#fff"/><path d="M509.64 271.53h.25c-.36 6-.66 11.59-.91 16.67.14-5.43.37-11.01.66-16.67z" fill="#338ac5"/><path d="M474.48 271.53h35.16c-.29 5.66-.52 11.24-.66 16.67-.23 4.32-.43 8.21-.56 11.54h-37c1.05-6.93 1.82-13.22 2.36-19.05a.31.31 0 000-.09c.24-2.09.38-3.85.5-6.09 0-.3 0-.64.06-1 .07-.64.11-1.3.14-1.98z" fill="#fff"/><path d="M508.16 104.54c21.49 11 21.47 70.68-14 72.93a30.15 30.15 0 01-3.44 0 26.92 26.92 0 01-3.09-.27c-.49-.05-1-.12-1.42-.21a21.84 21.84 0 01-2.62-.63 17.37 17.37 0 01-9.74-7c-3.91-5.77-5.25-14-7.86-22.7-4.52-15-1.5-24.06 8.72-42.12s30.44-1.54 33.45 0z" fill="#cc7e5f"/><path d="M497.28 229.83c4.64-6.66 12.77-18.36 15.7-23.18-1.91 3.96-6.13 9.72-15.7 23.18zm2.46 162.48a97.13 97.13 0 0013.26-1.79 90.5 90.5 0 01-13.26 1.79z" fill="#fff"/><path d="M506.6 402.58c-8.11 2.48-11.25 3.13-12.36 1.68a85.81 85.81 0 0012.36-1.68z" fill="#06539c"/><path d="M494.24 392.49v11.61h-.11c-.96-1.63.11-5.41.11-11.61zm0-.02h-1.46 1.46z" fill="#032847"/><path d="M494.24 392.47h-2.72c.92-.02 1.83 0 2.72 0z" fill="#06477c"/><path d="M492.78 392.45h1.46c0 6.2-1.07 10-.11 11.61l-2.27.14c-2.44.09-4.86.14-7.18.11-2-.09-4.09-.25-6.23-.5.25-9.42-.59-12.13 1.16-12.56 2.18.32 4.3.59 6.39.77.59.05 1.17.11 1.72.14.77.07 1.52.13 2.27.14h.39c.81.13 1.62.15 2.4.15z" fill="#032847"/><path d="M491.52 392.42h1.26c-.79 0-1.59 0-2.4-.07h1z" fill="#032847"/><path d="M491.4 392.42h-1.39.14c.41-.04.85-.02 1.25 0z" fill="#06477c"/><path d="M488.92 392.27c.34 0 .69.06 1.07.07-.75 0-1.5-.07-2.27-.14l.84.06z" fill="#032847"/><path d="M487.67 177.24a26.92 26.92 0 003.09.27 26.53 26.53 0 01-3.09-.27z" fill="#cc7e5f"/><path d="M475 214.33l13.88 15c-7.98-8.59-11.88-12.66-13.88-15z" fill="#fff"/><path d="M488.92 392.27h-.36c-.25 0-.5 0-.75-.08.36.03.73.05 1.11.08z" fill="#032847"/><path d="M488.56 392.26l-.84-.06c-.57 0-1.14-.09-1.72-.14-2.05-.2-4.1-.47-6.19-.81 2.69.43 5.37.76 8 .93.25.04.5.06.75.08z" fill="#032847"/><path d="M484.68 404.35c2.32 0 4.74 0 7.18-.11-2 .11-3.87.16-5.68.18z" fill="#06477c"/><path d="M486 392.06c.58.05 1.15.11 1.72.14-.55-.03-1.13-.09-1.72-.14z" fill="#032847"/><path d="M486.25 177c.45.09.93.16 1.42.21-.49-.02-.97-.09-1.42-.21z" fill="#cc7e5f"/><path d="M486.18 404.42c-2.73 0-5.28-.05-7.73-.27 2 .11 4.05.18 6.23.2z" fill="#06477c"/><path d="M483.63 176.4a21.84 21.84 0 002.62.63 16.18 16.18 0 01-2.62-.63z" fill="#cc7e5f"/><path d="M486 392.06c-2.09-.18-4.21-.45-6.39-.77a.83.83 0 01.12 0h.08c2.09.3 4.19.57 6.19.77z" fill="#032847"/><path d="M473.89 169.36a17.37 17.37 0 009.74 7 16.85 16.85 0 01-9.74-7z" fill="#cc7e5f"/><path d="M479.81 391.25c1.23-.17 3.59.52 8 .93-2.63-.18-5.31-.5-8-.93zm4.87 13.1c-2.18 0-4.27-.09-6.23-.2v-.3c2.14.25 4.21.41 6.23.5z" fill="#032847"/><path d="M479.81 391.25h-.08c-2.48-.39-5-.85-7.48-1.39q3.75.81 7.56 1.39z" fill="#06477c"/><path d="M479.73 391.25a.83.83 0 00-.12 0 153.48 153.48 0 01-24.76-6.11c5.52 1.77 11.43 3.41 17.4 4.68 2.5.58 5 1.04 7.48 1.43z" fill="#06477c"/><path d="M479.61 391.29c-1.75.43-.91 3.14-1.16 12.56a103.1 103.1 0 01-30.5-8.79c-.51-.23-1-.46-1.55-.71a5.21 5.21 0 003.19-3.89c.72-1.56.75-3.4-.73-5.86.16-.22.38-.59.77-1.13.84.3 1.7.59 2.55.88.22.09.43.16.66.23l1.68.55.29.09a153.48 153.48 0 0024.8 6.07z" fill="#06477c"/><path d="M478.45 403.85v.3c-10.36-.8-18.67-3.62-30.5-9.09a103.1 103.1 0 0030.5 8.79z" fill="#06477c"/><path d="M474.66 243.93c.32 8.74.41 17.54-.18 27.6.31-8.65.32-18.78.18-27.6z" fill="#338ac5"/><path d="M474.66 243.93c.14 8.82.13 18.95-.21 27.6 0 .73-.07 1.39-.09 2 0 .32 0 .66-.06 1-.14 2-.3 4-.5 6.09a.31.31 0 010 .09c-.42 3.76-1.11 8.58-2.54 19.05h.18c-2.95 19.33-8.2 43.66-17.19 77a9.1 9.1 0 01-.66 1.43c-2.84 3.79-4.15 4.88-5.15 4.74-.28-.13-.48-.22-.62-.27s-.3-.25-.46-.41l-.17-.16a8.14 8.14 0 00-.58-.68c-4.28-4.88-11.43-3.14-18.54-.5l-1.14.43c-13.88 5.18-12.24 5.18-13.06 10.36-.89.41-15.11-49.25-16.95-61.5-2.25-15.05 13.54-81.23 14.29-93.27 2.64-42.45 22.29-45.38 62.31-49-.06 1.94-.09 3.89-.11 5.8v15.11a11.87 11.87 0 00.07 2.76v.07c.27 11.84.93 21.9 1.29 32zM435.09 349c7.86-19.3 6.24-21.05-7.41-47.4-1.88 28.75-.45 29.94 4.59 49.34z" fill="#338ac5"/><path d="M474.45 271.53c0 .68-.07 1.34-.12 2 .05-.61.08-1.27.12-2zm-3.2 28.21c1.43-10.47 2.12-15.29 2.54-19.05-.54 5.83-1.31 12.12-2.36 19.05zm2.18-111.81c0 2-.1 3.93-.14 5.8.05-1.91.08-3.86.14-5.8zm-.14 8.14v2.16c-.02-.71-.02-1.43 0-2.16zm-.02 2.16v3.24c-.02-1.04-.02-2.13 0-3.24zm-.02 3.24c0 3.53 0 6.89.11 10.13a11.87 11.87 0 01-.07-2.76c-.06-1.91-.06-4.44-.04-7.37z" fill="#338ac5"/><path d="M452.22 384.31l2.34.78-1.68-.55c-.23-.07-.44-.14-.66-.23zm.66.23l1.68.55z" fill="#06477c"/><path d="M454.22 376.73c-.07.29-.16.57-.23.86s-.28.39-.43.57a9.1 9.1 0 00.66-1.43z" fill="#338ac5"/><path d="M450.33 410.8a8.31 8.31 0 011.16 7 5.82 5.82 0 01-1.55 2.42c-2.79 2.68-8.42 3.52-15.69.81a41.19 41.19 0 01-7.79-4c-8.34-5.41-15.61-7.23-12.68-25.31.82-5.18-.82-5.18 13.06-10.36l1.14-.43c14.15-5.11 17.17-.82 19.12 1.18l.38.53a.35.35 0 01.05.08l.07.12c.11.18.29.45.52.86.13.25.29.57.45.95a1.47 1.47 0 01.07.17 9.85 9.85 0 011 5.6 14.87 14.87 0 01-3.19 3.89 6.07 6.07 0 00-2.84 4 .85.85 0 010 .22c-.44 1.84.13 4.11 2.72 7.23a23.47 23.47 0 001.64 1.84 17.17 17.17 0 012.36 3.2z" fill="#edc1a0"/><path d="M449.63 390.42a9.85 9.85 0 00-1-5.6 1.47 1.47 0 00-.07-.17c.09.17.16.16.32-.09 1.5 2.44 1.47 4.3.75 5.86zm-.87-7.31l.91.32c-.39.54-.61.91-.77 1.13a15.9 15.9 0 00-1.29-1.88l.42.16a1.6 1.6 0 00.33.11 2.38 2.38 0 00.4.16z" fill="#06477c"/><path d="M448.76 383.11a2.38 2.38 0 01-.4-.16zm.14 1.45c-.16.25-.23.26-.32.09-.16-.38-.32-.7-.45-.95a5 5 0 00-.52-.86l-.07-.12v-.06h.08a15.9 15.9 0 011.28 1.9z" fill="#06477c"/><path d="M448.36 383a1.6 1.6 0 01-.33-.11c-.09 0-.18-.11-.29-.16.14 0 .34.09.62.27z" fill="#338ac5"/><path d="M448 382.84l-.42-.16-.05-.05a.44.44 0 01.18.05c.14.05.23.11.29.16zm-.39 0a5 5 0 01.52.86c-.23-.41-.41-.7-.52-.86zm0-.16h-.08z" fill="#06477c"/><path d="M447.56 382.63s-.05 0 0 0l-.38-.53.17.16c.01.13.12.24.21.37z" fill="#edc1a0"/><path d="M447.53 382.66v.06a.35.35 0 00-.05-.08z" fill="#06477c"/><path d="M446.52 381.41a8.14 8.14 0 01.58.68c-2-2-5-6.29-19.12-1.18 7.11-2.64 14.26-4.38 18.54.5z" fill="#338ac5"/><path d="M446.44 394.31a14.87 14.87 0 003.19-3.89 5.21 5.21 0 01-3.19 3.89z" fill="#fff"/><path d="M442 652.87c11.22 33.68 13.38 22.41 3.75 36.86-1.5 2.27-13.54 7.52-20.31 11.29s-24.06 1.89-27.83 0c-2.63-.95-1.5-5.27 0-14.29s14.29-9 19.31-13.08 1-23.78 1-23.78 21.78 3 24.08 3z"/><path d="M443.56 398.38a6.07 6.07 0 012.84-4 10 10 0 00-2.84 4zm6.38 21.81c-2.75 2.7-8.36 3.58-15.69.81 7.27 2.71 12.9 1.87 15.69-.81z" fill="#06539c"/><path d="M490.38 392.38c.81.05 1.61.07 2.4.07h1.46m-14.43-1.2c2.09.34 4.14.61 6.19.81.58.05 1.15.11 1.72.14.77.07 1.52.13 2.27.14m-17.74-2.48c2.5.54 5 1 7.48 1.39m-26.85-6.71l1.68.55m19.89-113.56c.34-8.65.35-18.78.21-27.6m36.89-.23c-.25 4.11-1.38 22.85-1.66 27.83m-15.69-94.06c24.87-1.39 19.85-28.88 20.73 14.33-.43 6-.13 8.84-.79 11.65m-40.25-34.09a17.37 17.37 0 009.74 7 21.84 21.84 0 002.62.63c.45.09.93.16 1.42.21a26.92 26.92 0 003.09.27m-17.44 16.26c0-1.91.05-3.86.11-5.8.12-7.31.32-14.44.46-18.57m-.53 42.24a11.87 11.87 0 01-.07-2.76c-.06-1.91-.06-4.44 0-7.37v-5.4m1.71 18.17a8.27 8.27 0 01-1.59-2.57m15.51 17.66c-8-8.59-12-12.66-13.88-15m39.1-10.84a16.67 16.67 0 01-1.16 3.16c-1.91 4-6.13 9.72-15.7 23.18" fill="none" stroke="#141500" stroke-miterlimit="10"/><path d="M490.76 177.51a26.53 26.53 0 01-3.09-.27c-.49-.05-1-.12-1.42-.21a16.18 16.18 0 01-2.62-.63 16.85 16.85 0 01-9.74-7c-3.91-5.77-5.25-14-7.86-22.7-4.52-15-1.5-24.06 8.72-42.12s30.4-1.54 33.41 0c21.49 11 21.47 70.68-14 72.93a30.15 30.15 0 01-3.4 0zm23.81 184.3A83.28 83.28 0 00525 386.13m-11.11-179.05c-.87 12.5-1.79 24.74-2.59 36.62-.64 9.52-1.21 18.81-1.66 27.83-.29 5.66-.52 11.24-.66 16.67a377.8 377.8 0 00.94 46.09 168.08 168.08 0 004.26 26c.09.39.19.78.3 1.18m44.12 41.75c.09 2.63 24.5-74 20.26-114.4-1.5-14.29.75-41.37-4.52-57.16s3-30.09-22.56-33.86-36.85-6-36.85-6q-.37 5.87-.79 11.65v0c0 .39 0 .78-.09 1.17m44.63 197.25c.12.3 0 .6-.06 1.16m-.48-1.79a1.49 1.49 0 01.54.61M550.3 397c4.55 2.38 6.7 3.43 7.66 4.09m-13.4-7.09c2.15 1.14 4 2.09 5.54 2.9m-10.31-4.5a.94.94 0 01.22.07l1.68.59a16.41 16.41 0 002.16.61l.52.28m-18.64-6.84c.92.27 8.72 3.36 13.83 5.2" fill="none" stroke="#141500" stroke-miterlimit="10"/><path d="M548.71 348.93c2.25-.76 6.18-43.41 3.93-47.92 0-.01-16.99 40.14-3.93 47.92zm-74.35-75.38c.05-.68.09-1.34.12-2 .59-10.06.5-18.86.18-27.6v-.23c-.36-10.13-1-20.19-1.29-32v-.07c-.07-3.24-.11-6.6-.11-10.13v-7.74c0-1.87.09-3.82.14-5.8h0c-40 3.62-59.67 6.55-62.31 49-.75 12-16.54 78.22-14.29 93.27 1.84 12.25 16.06 61.91 16.95 61.5M473.8 280.6c.2-2.09.36-4.1.5-6.09M454.24 376.7c9-33.3 14.24-57.63 17.19-77 1.05-6.93 1.82-13.22 2.36-19.05m-20.23 97.51c.15-.18.29-.37.43-.57s.16-.57.23-.86m-5.84 6.27c1 .14 2.31-.95 5.15-4.74m-6.25 4.01c.16.16.32.29.46.41s.2.11.29.16M428 380.91c14.15-5.11 17.17-.82 19.12 1.18" fill="none" stroke="#141500" stroke-miterlimit="10"/><path d="M435.09 349l-2.82 2c-5-19.4-6.47-20.59-4.59-49.34C441.33 328 443 329.71 435.09 349zm12.45 33.72a.35.35 0 00-.05-.08h.08l.42.16a1.6 1.6 0 00.33.11 2.38 2.38 0 00.4.16m-.59.63a5 5 0 00-.52-.86m2.06.59c-.39.54-.61.91-.77 1.13s-.23.26-.32.09M442 652.87c11.22 33.68 13.38 22.41 3.75 36.86-1.5 2.27-13.54 7.52-20.31 11.29s-24.06 1.89-27.83 0c-2.63-.95-1.5-5.27 0-14.29s14.29-9 19.31-13.08 1-23.78 1-23.78m133.38 9.99a10.63 10.63 0 002.3-1m-9.52 1.41a21.14 21.14 0 006.63-.25m-18.15.18a56.33 56.33 0 018.72-.11" fill="none" stroke="#141500" stroke-miterlimit="10"/><path d="M556.62 656.59c2.84.45 4.79 1.59 4.93 3.84.63 9.13 8.29 18.78 12.79 21s7.52 15 5.27 21.81-18 7.15-24.06 6-27.46-17.06-28.55-19.9c-2.93-7.81 3.7-28.94 3.7-28.94M426.46 417c-8.34-5.41-15.61-7.23-12.68-25.31.82-5.18-.82-5.18 13.06-10.36l1.14-.43c7.11-2.64 14.26-4.38 18.54.5m3.42 38.79c-2.75 2.7-8.36 3.58-15.69.81m16.08-10.2a8.31 8.31 0 011.16 7m-7.97-19.2c-.44 1.84.13 4.11 2.72 7.23m.16-11.48a10 10 0 00-2.84 4m3.55-16.24l.17.16c.08.12.19.23.28.36l.05.05a15.9 15.9 0 011.29 1.88c1.48 2.46 1.45 4.3.73 5.86a14.87 14.87 0 01-3.19 3.89m.08-12.9a8.14 8.14 0 01.58.68m0 0v0m.39.55l-.38-.53m95.31 11.59a2.85 2.85 0 012 .25.56.56 0 00.19.09c1 .45 2.52 1.29 5.54 2.9l.2.1c1.91 1 4.41 2.38 7.66 4.09a.78.78 0 00.18.11l.55.29v.32l-.06 1.16a.62.62 0 010 .19c-1.17 21.92-6.89 22.69-13.34 24.83m-16.68 2.17c-6-1.75-4.57-8-1.66-10.9m-1.35-32.21h0a.11.11 0 00.07 0c13.38 5.29 4.76 2 13.83 5.2a2.18 2.18 0 01.23.09l-.16.05m-45.38.06c1.48 0 2.95-.06 4.36-.13m-4.36 11.9l-.11-.16m32.62-7.79c-8.72 2.68-15.18 4.77-19.95 6.22m-15.28-10.11c.92 0 1.83.05 2.72.05m-4.11-.13c.43 0 .86.06 1.27.08m-36.55-7.24c5.52 1.77 11.43 3.41 17.4 4.68q3.78.81 7.56 1.39c2.69.43 5.37.76 8 .93.25 0 .5.06.75.08m-36.34-7.95l2.34.78" fill="none" stroke="#141500" stroke-miterlimit="10"/><path d="M446.4 394.35s0 0 0 0a5.21 5.21 0 003.19-3.89 9.85 9.85 0 00-1-5.6 1.47 1.47 0 00-.07-.17c-.16-.38-.32-.7-.45-.95-.23-.41-.41-.68-.52-.86l-.07-.12v-.06c0-.06 0 0 0 0a.44.44 0 01.18.05c.14.05.34.14.62.27h0l.38.16.91.32m42.29 20.74c-2 .11-3.87.16-5.68.18-2.73 0-5.28-.05-7.73-.27-10.36-.8-18.67-3.62-30.5-9.09m6.27-18.33s0 0 0 0" fill="none" stroke="#141500" stroke-miterlimit="10"/><path d="M506.8 402.53a126.21 126.21 0 0019.95-6.22c5.75-2.23 10.06-4 12.88-3.86a2.18 2.18 0 01.38 0 3.45 3.45 0 011.68.59 2.74 2.74 0 01.73.64c-4.34.43-15.33 3.25-17.83 6.81-2.84 4 6.5 6.7 12.43 11.49s-3.39 4.51-7.89 5.93a5.41 5.41 0 00-2.13 1.39c-3 2.88-4.37 9.15 1.66 10.9 3.17.93 8.42.61 16.6-2.15 12.38 166.44-5.47 38.63 19.31 212 .5 3.51-2.66 11.69-8 16.51a16.08 16.08 0 01-3 2.27 10.42 10.42 0 01-2.3 1l-.59.16a21.11 21.11 0 01-6.63.25l-2.8-.18a56.35 56.35 0 00-8.72.11c-.61 0-1.22.11-1.84.2-6.56-62.4-7.84-18.44-11.27-87.25-.77-15-9.79-59.42-11.29-70.71s-15.05-48.14-15.8-57.16c-3.3-3.09-7.16-2.77-11.29-.75-30.2 140.09-25.76 171-28.58 186.53-1.5 8.27-8.27 21.81-10.52 21.81s-24.08-3-24.08-3c-2.68-12.54.93-29.08 3.86-34.6 1.27-50.38-2-54.63 4.5-63.93 6.86-9.78 2.18-51.15.68-56.42-.9-3.09-.73-44.39-.47-77.91a41.19 41.19 0 007.79 4c7.27 2.71 12.9 1.87 15.69-.81a5.82 5.82 0 001.55-2.42c.7-2 .39-4.4-1.16-7a17.17 17.17 0 00-2.45-3.13 23.47 23.47 0 01-1.64-1.84c-2.27-2.86-3-5.29-2.72-7.23a.85.85 0 000-.22 6.07 6.07 0 012.84-4c.52.25 1 .48 1.55.71a103.1 103.1 0 0030.5 8.79c2.14.25 4.21.41 6.23.5l1.5.07c2.79.07 5.47 0 8.06-.16a85.81 85.81 0 0012.36-1.68" fill="none" stroke="#141500" stroke-miterlimit="10"/><path d="M490 392.34h4.23v11.76h-.11l-2.27.14c-2.44.09-4.86.14-7.18.11s-4.27-.09-6.23-.2v-.3c.25-9.42-.59-12.13 1.16-12.56a.83.83 0 01.12 0h.08c1.23-.17 3.59.52 8 .93.36 0 .73.06 1.11.09" fill="none" stroke="#141500" stroke-miterlimit="10"/><path d="M525.25 141.48c-1.68 6.68 4 8.64.93 14.34-2.36 4.42-5.39 4-17.4 21.39-9.68 14.06-26.31 4.55-32.35-4.49-3.56-5.36-4.57-8.23-6.7-10.61s-4.07-1.87-4.93-4.25c-1.48-4.16-4.22-8.13-1.18-12.83s2.75-22.06 3.91-24.36c.34-.68 14.26-8.4 14.26-8.4l31-.77c15.21 26.92 13.21 20.81 12.46 29.98z" fill="#f2d0b7"/><path d="M525.25 141.48c-1.68 6.68 4 8.64.93 14.34-2.36 4.42-5.39 4-17.4 21.39-9.68 14.06-26.31 4.55-32.35-4.49-3.56-5.36-4.57-8.23-6.7-10.61s-4.07-1.87-4.93-4.25c-1.48-4.16-4.22-8.13-1.18-12.83s2.75-22.06 3.91-24.36c.34-.68 14.26-8.4 14.26-8.4l31-.77c15.21 26.92 13.21 20.81 12.46 29.98z" fill="none" stroke="#141500" stroke-miterlimit="10"/><path d="M483.82 89.21S470.69 93.06 467.3 96s-9.06 14.71-8.83 18.56c1.84 31.29 10.87 31.43 10.87 28.3 0-16.9-4.83-16.47 13.35-27.16 1 13.8 11 20.55 24.68 18.33-6.74-36.71-.93-4.19 6.79-.68 11 5 9.28 1.15 7.7 9.06 7.13 2.93 2.63 2.81 7.24-6.79 2.72-5.66 3.4-24 0-31-2.45-5.07-14-20.66-23.32-19.69-6.56.68-12.9-.68-15.84 2.26a6.57 6.57 0 01-6.12 2.02z" fill="#232044" stroke="#141500" stroke-miterlimit="10"/><path d="M492.2 155s-2.72 9.4 5.21 9.85" fill="none" stroke="#141500" stroke-miterlimit="10"/><path d="M512.8 147.53c0 4.31-3.62 4.31-3.62 0s3.62-4.31 3.62 0zm-29.2 0c0 4.31-3.62 4.31-3.62 0s3.62-4.31 3.62 0z" fill="#232044" stroke="#141500" stroke-miterlimit="10"/><path d="M477.51 142.25c11.11 0 11.34.51 10.67-1.38-2.99-8.41-32.29 1.31-10.67 1.38zm36.09 0c-11.12 0-11.34.51-10.67-1.38 2.99-8.41 32.29 1.31 10.67 1.38z" fill="#301427" stroke="#141500" stroke-miterlimit="10"/><path d="M487.22 169.12c8.86.15 7.73-1.2 9.08 0 0 0 1 .19 1.45-.28s6.62.08 7 0-4.33 5-7.9 4.78-9.12-3.51-9.63-4.5z" fill="#fff" stroke="#141500" stroke-miterlimit="10"/><path d="M493.71 228.71c-6.61 92.74-14.22 165.13-4.26 163.17 3.09-.61 3.94-16.27 7.66-24.14 6.33-7.46-3.4-139.03-3.4-139.03z" fill="#06477c"/><path d="M493.71 228.71c24.11-31.23 31.67-41 .15 6-31.86-34.52-24.21-27.65-.15-6z" fill="#06539c" stroke="#141500" stroke-miterlimit="10"/><path d="M990.67 674.14c4.52 2.25 7.52 15 5.27 21.81s-18 7.14-24.06 6-27.46-17.11-28.53-20c-2.93-7.8 3.7-28.94 3.7-28.94.62-.08 1.23-.14 1.84-.19a56.2 56.2 0 018.71-.11c1 .05 1.93.13 2.81.18a21.11 21.11 0 006.63-.25l.59-.16a10.63 10.63 0 002.3-1 17.24 17.24 0 003-2.27c2.84.45 4.79 1.59 4.93 3.84.64 9.19 8.31 18.84 12.81 21.09z"/><path d="M980.9 632.76c.5 3.5-2.66 11.69-7.95 16.51a17.24 17.24 0 01-3 2.27 11.07 11.07 0 01-2.3 1l-.59.16a21.14 21.14 0 01-6.63.25c-.88-.05-1.81-.13-2.81-.18a56.22 56.22 0 00-8.71.11c-.61 0-1.22.11-1.84.19-6.56-62.39-7.85-18.43-11.28-87.24-.76-15.05-9.79-59.42-11.29-70.71S909.44 447 908.69 438c-3.3-3.1-7.16-2.77-11.29-.76-30.21 140.1-25.76 171-28.58 186.54-1.5 8.27-8.27 21.81-10.52 21.81s-24.08-3-24.08-3c-2.68-12.54.92-29.08 3.85-34.6 1.27-50.38-2-54.63 4.51-63.94 6.86-9.77 2.18-51.14.68-56.41-.9-3.09-.74-44.39-.47-77.91 19.63 12.62 32.21 1.72 21.42-9.34-6.34-6.52-4.91-11.06-1.48-13.33.52.25 1 .49 1.55.72 11.83 5.47 20.13 8.29 30.5 9.09a100.31 100.31 0 0013.41.09l2.38-.14v-.2c.23 0 .44 0 .66-.05 1.3 1.27 4.46.64 11.75-1.57 10.72-2.13 19.33-5.63 25.41-8l.23-.07 8-2.38c1.31 0 2 .52 2.15 1.86-4.34.43-15.33 3.25-17.83 6.81-2.84 4 6.5 6.7 12.43 11.48s-3.39 4.52-7.89 5.94a5.34 5.34 0 00-2.13 1.37c-3 2.88-4.38 9.15 1.66 10.9 3.16.93 8.42.61 16.6-2.15 12.39 166.41-5.49 38.6 19.29 212z" fill="#06539c"/><path d="M975 394.21c-1 23.58-6.82 24.33-13.43 26.52-8.18 2.76-13.44 3.08-16.6 2.15-6-1.75-4.57-8-1.66-10.9a5.34 5.34 0 012.13-1.37c4.5-1.42 13.8-1.15 7.89-5.94s-15.27-7.46-12.43-11.48c2.5-3.56 13.49-6.38 17.83-6.81 1.86-.16.32-.62 16.27 7.83z" fill="#edc1a0"/><path d="M967.63 652.54a11.07 11.07 0 002.3-1 10.63 10.63 0 01-2.3 1zm-.63.16a21.11 21.11 0 01-6.63.25 21.14 21.14 0 006.63-.25z"/><path d="M962.34 372s1 7.27-3.81 12c-.64.2-1.28.38-1.93.57-1.69 0-4.39 1-8 2.38l-.23.07c-11.65 3.56-19.76 6.25-25.41 8a97.09 97.09 0 01-11.75 1.57 2.43 2.43 0 01-.66-1.25v-10.17c17.83-.06 33.74-5.42 51.79-13.17z" fill="#053a66"/><path d="M956.6 384.52l-8 2.38c3.61-1.39 6.31-2.36 8-2.38z" fill="#053a66"/><path d="M910.53 170.15c24.87-1.39 19.85-28.88 20.72 14.33-1.12 16.44 3 8.86-21.06 42.88-22.47-24.3-20.58-21-20.58-25.84-.21-8.68.31-30.79.61-39.48a19.14 19.14 0 0012.36 7.67c.45.09.93.16 1.41.21a29.14 29.14 0 003.09.27 30.35 30.35 0 003.45-.04z" fill="#edc1a0"/><path d="M924.48 97.21c21.49 11.06 21.48 70.69-14 72.94a30.35 30.35 0 01-3.45 0 29.61 29.61 0 01-3.09-.27c-.48 0-1-.12-1.41-.21a21.39 21.39 0 01-2.62-.63 17.34 17.34 0 01-9.74-7c-3.91-5.77-5.25-14-7.86-22.7-4.52-15-1.5-24.06 8.72-42.13s30.45-1.53 33.45 0z" fill="#cc7e5f"/><path d="M923 395c-7.29 2.21-10.45 2.84-11.75 1.57A97.09 97.09 0 00923 395zm-12.43 1.58v.2l-2.38.14c-4.7.2-9.34.14-13.41-.09v-.59a90.68 90.68 0 0015.79.34z" fill="#053a66"/><path d="M910.57 395.28v1.3a90.68 90.68 0 01-15.78-.34c.22-9.38-.62-12 1.27-12.31h.07a91.5 91.5 0 0010.19 1.07h.39c.8.05 1.61.07 2.39.07h1.47c0 5.01-.49 8.33 0 10.21z" fill="#053a66"/><path d="M910.57 385.17v10.11c-.49-1.88 0-5.2 0-10.11zm0-.02h-1.47 1.47zm0 0h-2.72c.91-.02 1.82 0 2.72 0zm-2.72-.05h1.25c-.78 0-1.59 0-2.39-.07h1zm-.12 0h-1.39c.46-.04.92-.02 1.39 0zm-2.49-.1c.34 0 .7.06 1.08.07a91.5 91.5 0 01-10.19-1.09c2.7.43 5.38.75 8 .93a10.62 10.62 0 001.11.09z" fill="#053a66"/><path d="M904 169.92a29.61 29.61 0 003.09.27 29.14 29.14 0 01-3.09-.27z" fill="#cc7e5f"/><path d="M904.14 384.86c.35 0 .73.06 1.1.09a10.62 10.62 0 01-1.1-.09z" fill="#e3e0dd"/><path d="M894.78 396.83c4.07.23 8.71.29 13.41.09a100.31 100.31 0 01-13.41-.09z" fill="#053a66"/><path d="M902.58 169.71zm-2.58-.63a21.39 21.39 0 002.62.63 17 17 0 01-2.62-.63zm-9.78-7.08a17.34 17.34 0 009.74 7 16.85 16.85 0 01-9.74-7z" fill="#cc7e5f"/><path d="M896.13 383.93c1.24-.17 3.59.52 8 .93-2.62-.18-5.3-.5-8-.93z" fill="#e3e0dd"/><path d="M896.13 383.93h-.07c-2.48-.39-5-.85-7.48-1.39 2.52.54 5.03 1 7.55 1.39z" fill="#053a66"/><path d="M896.06 383.93c-1.89.34-1 2.93-1.27 12.31a100.07 100.07 0 01-30.51-8.5c-.52-.23-1-.47-1.55-.72.59-.41 5.45-2 2.25-9.52 0-.07-.06-.12-.07-.18.18.34.23 0 1.09-1.21a182.69 182.69 0 0022.58 6.43c2.5.54 5 1 7.48 1.39z" fill="#053a66"/><path d="M894.79 396.24v.59c-10.37-.8-18.67-3.62-30.5-9.09a100.07 100.07 0 0030.5 8.5zm-29.7-20.45l.91.32c-.86 1.18-.91 1.55-1.09 1.21s-.33-.69-.45-.94a6.78 6.78 0 00-.52-.86l-.07-.12v-.06c.39.14.8.31 1.22.45z" fill="#053a66"/><path d="M865.09 375.79c-.42-.14-.83-.31-1.24-.45-.03-.12.29.07 1.24.45zm-1.15-.27a6.78 6.78 0 01.52.86l-.52-.86z" fill="#053a66"/><path d="M863.85 375.34v.06a.35.35 0 010-.08z" fill="#e3e0dd"/><path d="M858.3 645.55c11.22 33.68 13.38 22.41 3.75 36.86-1.5 2.27-13.54 7.52-20.31 11.29s-24.07 1.89-27.84 0c-2.62-1-1.5-5.27 0-14.29s14.3-9 19.32-13.08 1-23.78 1-23.78 21.78 3 24.08 3z"/><path d="M906.71 385.06c.8.05 1.61.07 2.39.07h1.47m-14.44-1.2a91.5 91.5 0 0010.19 1.07m-17.74-2.46c2.5.54 5 1 7.48 1.39M890.22 162a17.34 17.34 0 009.74 7 21.39 21.39 0 002.62.63c.45.09.93.16 1.41.21a29.61 29.61 0 003.09.27" fill="none" stroke="#141500" stroke-miterlimit="10"/><path d="M910.53 170.15c24.87-1.39 19.85-28.88 20.72 14.33-1.12 16.44 3 8.86-21.06 42.88-22.47-24.3-20.58-21-20.58-25.84-.21-8.68.31-30.79.61-39.48" fill="none" stroke="#141500" stroke-miterlimit="10"/><path d="M907.08 170.19a29.14 29.14 0 01-3.09-.27c-.48 0-1-.12-1.41-.21a19.14 19.14 0 01-12.36-7.71c-3.91-5.77-5.25-14-7.86-22.7-4.52-15-1.5-24.06 8.72-42.13s30.4-1.53 33.4 0c21.49 11.06 21.48 70.69-14 72.94a30.35 30.35 0 01-3.4.08zM863.87 375.4a.35.35 0 010-.08h0c.41.14.82.31 1.24.45m-.65.61a6.78 6.78 0 00-.52-.86m2.06.59c-.86 1.18-.91 1.55-1.09 1.21m-6.61 268.23c11.22 33.68 13.38 22.41 3.75 36.86-1.5 2.27-13.54 7.52-20.31 11.29s-24.07 1.89-27.84 0c-2.62-1-1.5-5.27 0-14.29s14.3-9 19.32-13.08 1-23.78 1-23.78m133.41 9.99a11.07 11.07 0 002.3-1m-9.52 1.46a21.14 21.14 0 006.63-.25m-18.15.13a56.2 56.2 0 018.71-.11" fill="none" stroke="#141500" stroke-miterlimit="10"/><path d="M973 649.27c2.84.45 4.79 1.59 4.93 3.84.62 9.13 8.29 18.78 12.79 21s7.52 15 5.27 21.81-18 7.14-24.06 6-27.46-17.11-28.53-20c-2.93-7.8 3.7-28.94 3.7-28.94m-84.25-278.89a10.27 10.27 0 011 1.23M945 422.88c-6-1.75-4.57-8-1.66-10.9m15.41-25.6c1.84-.16.3-.62 16.27 7.83-1 23.58-6.82 24.33-13.43 26.52" fill="none" stroke="#141500" stroke-miterlimit="10"/><path d="M948.62 386.9c3.59-1.39 6.29-2.36 8-2.38 1.31 0 2 .52 2.15 1.86-4.34.43-15.33 3.25-17.83 6.81-2.84 4 6.5 6.7 12.43 11.48s-3.39 4.52-7.89 5.94a5.34 5.34 0 00-2.13 1.37c-3 2.88-4.38 9.15 1.66 10.9 3.16.93 8.42.61 16.6-2.15 12.38 166.44-5.47 38.63 19.31 212 .5 3.5-2.66 11.69-7.95 16.51a17.24 17.24 0 01-3 2.27 10.63 10.63 0 01-2.3 1l-.59.16a21.11 21.11 0 01-6.63.25c-.88-.05-1.81-.13-2.81-.18a56.22 56.22 0 00-8.71.11c-.61 0-1.22.11-1.84.19-6.56-62.39-7.85-18.43-11.28-87.24-.76-15.05-9.79-59.42-11.29-70.71S909.44 447 908.69 438c-3.3-3.1-7.16-2.77-11.29-.76-30.21 140.1-25.76 171-28.58 186.54-1.5 8.27-8.27 21.81-10.52 21.81s-24.08-3-24.08-3c-2.68-12.54.92-29.08 3.85-34.6 1.27-50.38-2-54.63 4.51-63.94 6.86-9.77 2.18-51.14.68-56.41-.9-3.09-.74-44.39-.47-77.91 19.63 12.62 32.21 1.72 21.42-9.34-6.34-6.52-4.91-11.06-1.48-13.33" fill="none" stroke="#141500" stroke-miterlimit="10"/><path d="M864.28 387.74a100.07 100.07 0 0030.51 8.5 90.68 90.68 0 0015.78.34c.23 0 .44 0 .66-.05A97.09 97.09 0 00923 395c10.72-2.13 19.33-5.63 25.41-8m-40.56-1.9h2.72m-4.25-.1h1.39" fill="none" stroke="#141500" stroke-miterlimit="10"/><path d="M908.19 396.92c-4.7.2-9.34.14-13.41-.09v-.59c.22-9.38-.62-12 1.27-12.31h.07c1.24-.17 3.59.52 8 .93.35 0 .73.06 1.1.09" fill="none" stroke="#141500" stroke-miterlimit="10"/><path d="M941.58 134.16c-1.68 6.68 4 8.64.93 14.34-2.36 4.42-5.4 4-17.4 21.39-9.68 14.06-26.32 4.55-32.35-4.49-3.56-5.36-4.58-8.23-6.7-10.61s-4.08-1.87-4.93-4.25c-1.49-4.16-4.22-8.13-1.18-12.83s2.75-22.06 3.91-24.36c.34-.68 14.26-8.4 14.26-8.4l31-.77c15.21 26.92 13.25 20.82 12.46 29.98z" fill="#f2d0b7"/><path d="M941.58 134.16c-1.68 6.68 4 8.64.93 14.34-2.36 4.42-5.4 4-17.4 21.39-9.68 14.06-26.32 4.55-32.35-4.49-3.56-5.36-4.58-8.23-6.7-10.61s-4.08-1.87-4.93-4.25c-1.49-4.16-4.22-8.13-1.18-12.83s2.75-22.06 3.91-24.36c.34-.68 14.26-8.4 14.26-8.4l31-.77c15.21 26.92 13.25 20.82 12.46 29.98z" fill="none" stroke="#141500" stroke-miterlimit="10"/><path d="M900.15 81.89s-13.15 3.85-16.52 6.79-9.06 14.71-8.83 18.56c1.84 31.29 10.86 31.43 10.86 28.3 0-16.9-4.82-16.47 13.36-27.17 1 13.81 11 20.56 24.67 18.34-6.74-36.71-.93-4.19 6.8-.68 11 5 9.28 1.15 7.69 9.06 7.14 2.93 2.64 2.81 7.25-6.79 2.71-5.66 3.39-24 0-31-2.45-5.07-14-20.66-23.32-19.69-6.57.68-12.9-.68-15.85 2.26a6.55 6.55 0 01-6.11 2.02z" fill="#232044" stroke="#141500" stroke-miterlimit="10"/><path d="M908.53 147.65s-2.72 9.4 5.2 9.85" fill="none" stroke="#141500" stroke-miterlimit="10"/><path d="M929.13 140.21c0 4.31-3.62 4.31-3.62 0s3.62-4.31 3.62 0zm-29.21 0c0 4.31-3.62 4.31-3.62 0s3.62-4.31 3.62 0z" fill="#232044" stroke="#141500" stroke-miterlimit="10"/><path d="M893.84 134.93c11.11 0 11.34.51 10.67-1.38-3-8.41-32.29 1.31-10.67 1.38zm36.09 0c-11.12 0-11.35.51-10.68-1.38 3-8.41 32.29 1.31 10.68 1.38z" fill="#301427" stroke="#141500" stroke-miterlimit="10"/><path d="M903.55 161.8c8.86.15 7.73-1.21 9.08 0 0 0 1 .19 1.44-.28s6.63.08 7 0-4.32 5-7.89 4.78-9.12-3.51-9.63-4.5z" fill="#fff" stroke="#141500" stroke-miterlimit="10"/><path d="M961 380.53c-3.17 3.8-119.23 19.68-106.3-8.65l42.88-161.81h22.8c45.41 169.3 43.3 153.27 40.62 170.46z" fill="#e3e0dd" stroke="#141500" stroke-miterlimit="10"/><path d="M963.81 262.63c3.94 11.26 2.83 76.75 3.39 82.92 2.26 24.9.17 28.63-8.45 40.83l16.18 9.45c34.16-71.69 17.75-90.16 12-159-3-35.94.18-24.82-55.69-56.5 0 0-3 18.89-6.74 21.9-15 12-7 19.74-9 42.12-.76 8.28 3.76 79.74 5.26 86.5s6 29.34 4.51 33.85 12 11 17.3 8.52 20.31-4.76 20.31-4.76c4.17-62.12 3.12-40.69.93-105.83zM853.75 266c-4.89 14-2.39 113.82-4 119l-21.91 5.78c-11.87-103.88-4.48-62.95 2.82-150.57 3-36.48-.31-24.74 59.42-58.63 0 0-.75 21 3 24 15 12 7 19.74 9 42.12.75 8.27-3.76 79.73-5.27 86.5s-6 29.33-4.51 33.85-12 11-17.3 8.52-20.31-4.76-20.31-4.76c-4.18-62.09-3.12-40.65-.94-105.81z" fill="#34443a" stroke="#141500" stroke-miterlimit="10"/><path d="M863.82 375.32c9.55 14-13.7 10.54.39 25 10.7 11-1.63 22.06-21.42 9.34-8.35-5.42-15.61-7.23-12.68-25.31.82-5.17-.83-5.17 13.06-10.36 9.1-3.44 15.67-4.99 20.65 1.33z" fill="#edc1a0" stroke="#141500" stroke-miterlimit="10"/><path d="M548.43 349.38c-1 2.54-12.26 34.34-14.32 39.88m-101.84-38.31l7.54 25.42" fill="#338ac5" stroke="#141500" stroke-miterlimit="10"/></svg>