<svg xmlns="http://www.w3.org/2000/svg" viewBox="0 0 1400 780"><path d="M622.25 641c4 2 6.71 13.42 4.7 19.47s-16.1 6.37-21.48 5.37S581 650.58 580 648.06c-2.62-7 3.3-25.84 3.3-25.84.56-.08 1.1-.13 1.64-.18a52.16 52.16 0 018-.08l2.25.15a18.7 18.7 0 005.91-.23l.53-.14a10.43 10.43 0 002.06-.89 14.82 14.82 0 002.69-2c2.54.4 4.27 1.42 4.4 3.43.61 8.12 7.45 16.72 11.47 18.72z"/><path d="M613.53 604.09c.44 3.12-2.38 10.43-7.1 14.73a14.82 14.82 0 01-2.69 2 11 11 0 01-2.06.89l-.53.14a18.72 18.72 0 01-5.91.23L593 622a49.75 49.75 0 00-8 .08c-.54.05-1.08.1-1.64.18-5.85-55.7-7-16.46-10.06-77.88-.69-13.43-8.74-53-10.08-63.11s-13.43-43-14.1-51c-3-2.76-6.39-2.47-10.07-.67C512 554.58 516 582.16 513.48 596c-1.34 7.39-7.38 19.47-9.39 19.47s-21.49-2.67-21.49-2.67c-2.39-11.2.83-26 3.44-30.89 1.13-45-1.78-48.76 4-57.07 6.12-8.72 1.95-45.65.61-50.36-.8-2.75-.66-39.62-.42-69.53 17.53 11.25 28.75 1.53 19.12-8.34-5.66-5.82-4.39-9.87-1.32-11.9 11.3 5.31 19 8 28.6 8.76a89.26 89.26 0 0012 .07c.7 0 1.42-.07 2.12-.12v-.18a3.7 3.7 0 00.59 0c1.18 1.15 4 .58 10.68-1.45a129.22 129.22 0 0022.31-7c2.32-.72 4.83-1.47 7.49-2.25 1.16 0 1.82.46 1.91 1.66-3.87.38-13.68 2.9-15.91 6.07-2.54 3.59 5.8 6 11.1 10.26s-3 4-7.05 5.29A4.91 4.91 0 00580 407c-2.64 2.56-3.9 8.16 1.49 9.72 2.82.83 7.51.55 14.81-1.91 11.04 148.58-4.89 34.51 17.23 189.28z" fill="#0a52a0"/><path d="M608.28 391.15c-.88 21.05-6.09 21.72-12 23.68-7.3 2.46-12 2.74-14.81 1.91-5.35-1.56-4.09-7.14-1.49-9.72a4.91 4.91 0 011.9-1.23c4-1.26 12.33-1 7.05-5.29s-13.64-6.67-11.1-10.26c2.23-3.17 12-5.69 15.91-6.07 1.66-.17.26-.56 14.54 6.98z" fill="#eac19b"/><path d="M601.68 621.74a11 11 0 002.06-.89 10.43 10.43 0 01-2.06.89zm-.53.14a18.7 18.7 0 01-5.91.23 18.72 18.72 0 005.91-.23z"/><path d="M597 371.28s.91 6.49-3.4 10.72c-.57.17-1.15.33-1.72.51-1.58 0-4.11.94-7.49 2.25-10.18 3.11-17.32 5.47-22.31 7a81.25 81.25 0 01-10.68 1.45 2 2 0 01-.59-1.11v-9c15.84-.1 30.04-4.85 46.19-11.82z" fill="#083969"/><path d="M584.35 384.76c3.38-1.31 5.91-2.24 7.49-2.25-2.66.78-5.17 1.49-7.49 2.25z" fill="#083969"/><path d="M550.72 191.16c22.19-1.24 17.71-25.77 18.49 12.79-1 14.67 2.63 7.91-18.8 38.27-20.06-21.69-18.41-18.75-18.41-23.06-.19-7.73.28-27.49.55-35.24a15.05 15.05 0 008.69 6.29 13.81 13.81 0 002.34.55c.4.08.83.15 1.26.2a25.87 25.87 0 002.76.23 26.24 26.24 0 003.12-.03z" fill="#eac19b"/><path d="M563.17 126.06c19.18 9.87 19.17 63.09-12.45 65.1a31.5 31.5 0 01-5.84-.2c-.43-.05-.86-.12-1.26-.2a19.12 19.12 0 01-2.34-.55 15.5 15.5 0 01-8.69-6.29c-3.5-5.15-4.69-12.5-7-20.26-4-13.43-1.34-21.48 7.78-37.6s27.12-1.37 29.8 0z" fill="#c87f5a"/><path d="M562 391.77c-6.63 2-9.5 2.6-10.68 1.45a81.25 81.25 0 0010.68-1.45zm-11.25 1.5v.18c-.7.05-1.42.08-2.12.12-4.2.18-8.34.13-12-.07v-.53a80.87 80.87 0 0014.12.3z" fill="#083969"/><path d="M550.75 392.11v1.16a80.87 80.87 0 01-14.08-.3c.19-8.37-.56-10.68 1.13-11h.06a83.46 83.46 0 009.09 1h.35c.72 0 1.44.06 2.14.06h1.31c0 4.44-.43 7.4 0 9.08z" fill="#083969"/><path d="M550.75 383.08v9c-.43-1.65 0-4.61 0-9zm0-.01h-1.31 1.31zm0 0h-2.43c.82-.02 1.68 0 2.43 0zm-2.43-.07h1.12c-.7 0-1.42 0-2.14-.06h.91zm-.11 0h-1.26zm-2.21-.11l1 .07a83.46 83.46 0 01-9.09-1c2.41.39 4.8.67 7.15.83a8.42 8.42 0 00.94.1z" fill="#083969"/><path d="M544.88 191a26.32 26.32 0 002.76.23 25.87 25.87 0 01-2.76-.23z" fill="#c87f5a"/><path d="M545 382.81l1 .08a8.42 8.42 0 01-1-.08z" fill="#e2dfdc"/><path d="M536.65 393.5c3.64.2 7.78.25 12 .07a89.26 89.26 0 01-12-.07z" fill="#083969"/><path d="M543.62 190.76zm-2.34-.55a19.12 19.12 0 002.34.55 13.81 13.81 0 01-2.34-.55zm-8.69-6.29a15.5 15.5 0 008.69 6.29 15.05 15.05 0 01-8.69-6.29z" fill="#c87f5a"/><path d="M537.86 382c1.1-.16 3.21.46 7.15.83-2.35-.18-4.74-.46-7.15-.83z" fill="#e2dfdc"/><path d="M537.86 382h-.06q-3.33-.53-6.68-1.24 3.38.7 6.74 1.24z" fill="#083969"/><path d="M537.8 382c-1.69.31-.94 2.62-1.13 11a89.46 89.46 0 01-28.62-8.23c.52-.37 4.86-1.75 2-8.5 0-.06-.05-.11-.07-.16.16.31.21 0 1-1.08a165.24 165.24 0 0020.16 5.74q3.33.69 6.66 1.23z" fill="#083969"/><path d="M536.67 393v.53c-9.64-.74-17.3-3.45-28.6-8.76a89.46 89.46 0 0028.6 8.23zm-26.52-18.29l.81.29c-.76 1.05-.81 1.39-1 1.08s-.21-.48-.3-.65a7.85 7.85 0 00-.56-1 .64.64 0 01-.06-.11v-.05z" fill="#083969"/><path d="M510.15 374.71l-1.1-.4c-.05-.11.26.07 1.1.4zm-1.02-.24a7.85 7.85 0 01.56 1c-.24-.47-.45-.81-.56-1z" fill="#083969"/><path d="M509.05 374.31v.05l-.05-.06z" fill="#e2dfdc"/><path d="M504.09 615.5c10 30.06 11.95 20 3.35 32.9-1.34 2-12.09 6.71-18.13 10.08s-21.48 1.69-24.84 0c-2.35-.85-1.34-4.71 0-12.76s12.75-8.05 17.23-11.67.9-21.22.9-21.22 19.47 2.67 21.49 2.67z"/><path d="M547.3 383c.72 0 1.44.06 2.14.06h1.31M537.86 382a83.46 83.46 0 009.09 1m-15.83-2.26q3.35.72 6.68 1.24m-5.21-198.06a15.5 15.5 0 008.69 6.29 19.12 19.12 0 002.34.55c.4.08.83.15 1.26.2a26.32 26.32 0 002.76.23" fill="none" stroke="#141500" stroke-miterlimit="10" stroke-width=".89"/><path d="M550.72 191.16c22.19-1.24 17.71-25.77 18.49 12.79-1 14.67 2.63 7.91-18.8 38.27-20.06-21.69-18.41-18.75-18.41-23.06-.19-7.73.28-27.49.55-35.24" fill="none" stroke="#141500" stroke-miterlimit="10" stroke-width=".89"/><path d="M547.64 191.19a25.87 25.87 0 01-2.76-.23c-.43-.05-.86-.12-1.26-.2a13.81 13.81 0 01-2.34-.55 15.05 15.05 0 01-8.69-6.29c-3.5-5.15-4.69-12.5-7-20.26-4-13.43-1.34-21.48 7.78-37.6s27.14-1.37 29.82 0c19.18 9.87 19.17 63.09-12.45 65.1a26.24 26.24 0 01-3.1.03zm-38.57 183.17l-.05-.06h0l1.1.4m-.43.73a7.85 7.85 0 00-.56-1m1.87.57c-.76 1.05-.81 1.39-1 1.08m-5.91 239.42c10 30.06 11.95 20 3.35 32.9-1.34 2-12.09 6.71-18.13 10.08s-21.48 1.69-24.84 0c-2.35-.85-1.34-4.71 0-12.76s12.75-8.05 17.23-11.67.9-21.22.9-21.22m119.08 8.91a11 11 0 002.06-.89m-8.5 1.26a18.72 18.72 0 005.91-.23M585 622a52.16 52.16 0 018-.08" fill="none" stroke="#141500" stroke-miterlimit="10" stroke-width=".89"/><path d="M606.43 618.82c2.54.4 4.27 1.42 4.4 3.43.56 8.15 7.4 16.76 11.42 18.77s6.71 13.42 4.7 19.47-16.1 6.37-21.48 5.37S581 650.58 580 648.06c-2.62-7 3.3-25.84 3.3-25.84M508.16 373.2a9.05 9.05 0 01.86 1.1m72.46 42.44c-5.35-1.56-4.09-7.14-1.49-9.72m13.76-22.85c1.65-.15.27-.56 14.53 7-.88 21.05-6.09 21.72-12 23.68" fill="none" stroke="#141500" stroke-miterlimit="10" stroke-width=".89"/><path d="M562 391.77a129.22 129.22 0 0022.31-7c3.38-1.31 5.91-2.24 7.49-2.25 1.16 0 1.82.46 1.91 1.66-3.87.38-13.68 2.9-15.91 6.07-2.54 3.59 5.8 6 11.1 10.26s-3 4-7.05 5.29A4.91 4.91 0 00580 407c-2.64 2.56-3.9 8.16 1.49 9.72 2.82.83 7.51.55 14.81-1.91 11.05 148.56-4.88 34.49 17.24 189.26.44 3.12-2.38 10.43-7.1 14.73a14.82 14.82 0 01-2.69 2 10.43 10.43 0 01-2.06.89l-.53.14a18.7 18.7 0 01-5.91.23L593 622a49.75 49.75 0 00-8 .08c-.54.05-1.08.1-1.64.18-5.85-55.7-7-16.46-10.06-77.88-.69-13.43-8.74-53-10.08-63.11s-13.43-43-14.1-51c-3-2.76-6.39-2.47-10.07-.67C512 554.58 516 582.16 513.48 596c-1.34 7.39-7.38 19.47-9.39 19.47s-21.49-2.67-21.49-2.67c-2.39-11.2.83-26 3.44-30.89 1.13-45-1.78-48.76 4-57.07 6.12-8.72 1.95-45.65.61-50.36-.8-2.75-.66-39.62-.42-69.53 17.53 11.25 28.75 1.53 19.12-8.34-5.66-5.82-4.39-9.87-1.32-11.9a89.46 89.46 0 0028.64 8.29 80.87 80.87 0 0014.08.3 3.7 3.7 0 00.59 0 81.25 81.25 0 0010.66-1.53M548.32 383h2.43m-3.75 0h1.26" fill="none" stroke="#141500" stroke-miterlimit="10" stroke-width=".89"/><path d="M548.63 393.57c-4.2.18-8.34.13-12-.07v-.53c.19-8.37-.56-10.68 1.13-11h.06c1.1-.16 3.21.46 7.15.83l1 .08" fill="none" stroke="#141500" stroke-miterlimit="10" stroke-width=".89"/><path d="M578.43 159c-1.5 6 3.56 7.72.83 12.81-2.11 3.94-4.82 3.55-15.53 19.1-8.64 12.53-23.49 4.05-28.88-4-3.17-4.78-4.08-7.35-6-9.47s-3.63-1.67-4.4-3.8c-1.32-3.69-3.76-7.25-1.05-11.44s2.45-19.7 3.47-21.74c.32-.6 12.74-7.51 12.74-7.51l27.69-.68c13.59 24.04 11.83 18.58 11.13 26.73z" fill="#f0cfb3"/><path d="M578.43 159c-1.5 6 3.56 7.72.83 12.81-2.11 3.94-4.82 3.55-15.53 19.1-8.64 12.53-23.49 4.05-28.88-4-3.17-4.78-4.08-7.35-6-9.47s-3.63-1.67-4.4-3.8c-1.32-3.69-3.76-7.25-1.05-11.44s2.45-19.7 3.47-21.74c.32-.6 12.74-7.51 12.74-7.51l27.69-.68c13.59 24.04 11.83 18.58 11.13 26.73z" fill="none" stroke="#141500" stroke-miterlimit="10" stroke-width=".89"/><path d="M541.45 112.38s-11.72 3.43-14.75 6.06-8.08 13.13-7.88 16.57c1.64 27.93 9.7 28.05 9.7 25.26 0-15.09-4.3-14.71 11.92-24.25.93 12.32 9.83 18.35 22 16.37-6-32.77-.84-3.74 6.06-.61 9.79 4.45 8.28 1 6.87 8.08 6.37 2.62 2.35 2.51 6.46-6.06 2.43-5.05 3-21.42 0-27.68-2.18-4.53-12.48-18.44-20.81-17.58-5.86.6-11.52-.61-14.14 2a5.84 5.84 0 01-5.43 1.84z" fill="#221f46" stroke="#141500" stroke-miterlimit="10" stroke-width=".89"/><path d="M548.93 171.08s-2.43 8.38 4.64 8.79" fill="none" stroke="#141500" stroke-miterlimit="10" stroke-width=".89"/><path d="M567.32 164.43c0 3.85-3.24 3.85-3.24 0s3.24-3.84 3.24 0zm-26.07 0c0 3.85-3.23 3.85-3.23 0s3.23-3.84 3.23 0z" fill="#221f46" stroke="#141500" stroke-miterlimit="10" stroke-width=".89"/><path d="M535.81 159.72c9.92 0 10.13.46 9.53-1.23-2.67-7.49-28.82 1.17-9.53 1.23zm32.19 0c-9.92 0-10.13.46-9.53-1.23 2.7-7.49 28.85 1.17 9.53 1.23z" fill="#2f1428" stroke="#141500" stroke-miterlimit="10" stroke-width=".89"/><path d="M544.48 183.71c7.91.13 6.9-1.08 8.11 0 0 0 .91.16 1.29-.25s5.91.07 6.21 0-3.86 4.5-7.05 4.27-8.1-3.14-8.56-4.02z" fill="#fff" stroke="#141500" stroke-miterlimit="10" stroke-width=".89"/><path d="M595.76 378.94c-2.83 3.4-106.43 17.57-94.89-7.72l38.27-144.43h20.36c40.5 151.12 38.65 136.81 36.26 152.15z" fill="#e2dfdc" stroke="#141500" stroke-miterlimit="10" stroke-width=".89"/><path d="M598.27 273.7c3.52 10.06 2.53 68.52 3 74 2 22.22.15 25.56-7.55 36.45l14.45 8.43c30.49-64 15.84-80.47 10.72-141.89-2.67-32.09.16-22.16-49.71-50.44 0 0-2.66 16.87-6 19.55-13.39 10.72-6.24 17.62-8.05 37.6-.67 7.39 3.36 71.17 4.7 77.21s5.37 26.19 4 30.21 10.74 9.84 15.44 7.61 18.13-4.25 18.13-4.25c3.76-55.46 2.82-36.32.87-94.48zM500 276.72c-4.36 12.46-2.13 101.6-3.6 106.25l-19.56 5.16c-10.6-92.72-4-56.19 2.52-134.4 2.71-32.56-.28-22.08 53-52.33 0 0-.67 18.76 2.68 21.45 13.4 10.71 6.24 17.61 8.06 37.59.67 7.39-3.36 71.17-4.7 77.21s-5.37 26.19-4 30.22-10.74 9.83-15.44 7.6-18.13-4.25-18.13-4.25c-3.68-55.48-2.74-36.34-.83-94.5z" fill="#354439" stroke="#141500" stroke-miterlimit="10" stroke-width=".89"/><path d="M509 374.3c8.52 12.46-12.23 9.41.35 22.34 9.55 9.79-1.45 19.69-19.12 8.34-7.45-4.84-13.93-6.46-11.32-22.6.74-4.61-.74-4.62 11.66-9.25 8.14-3.13 14.01-4.51 18.43 1.17z" fill="#eac19b" stroke="#141500" stroke-miterlimit="10" stroke-width=".89"/><g opacity=".15"><path d="M931.55 646.22c4 2 6.71 13.43 4.71 19.47s-16.11 6.38-21.48 5.37-24.51-15.27-25.47-17.79c-2.61-7 3.3-25.85 3.3-25.85.56-.08 1.1-.13 1.65-.17a52 52 0 018-.08c.78 0 1.53.11 2.25.14a19.07 19.07 0 005.92-.22l.52-.15a9.17 9.17 0 002.06-.89 14.73 14.73 0 002.69-2c2.54.39 4.28 1.41 4.4 3.42.59 8.13 7.43 16.74 11.45 18.75z"/><path d="M922.83 609.29c.45 3.13-2.38 10.43-7.1 14.74a14.73 14.73 0 01-2.69 2 9.37 9.37 0 01-2.06.89l-.52.15a19.1 19.1 0 01-5.92.22c-.72 0-1.47-.1-2.25-.14a47.43 47.43 0 00-8 .08c-.55 0-1.09.09-1.65.17-5.85-55.7-7-16.45-10.06-77.88-.68-13.42-8.74-53-10.08-63.11s-13.42-43-14.09-51c-3-2.76-6.4-2.48-10.08-.67-27 125-23 152.63-25.51 166.5-1.34 7.38-7.39 19.47-9.39 19.47S791.9 618 791.9 618c-2.39-11.19.83-26 3.45-30.89 1.13-45-1.79-48.76 4-57.07 6.13-8.72 1.95-45.65.61-50.35-.8-2.76-.65-39.63-.41-69.54 17.52 11.26 28.74 1.53 19.11-8.34C813 396 814.29 392 817.35 390c11.31 5.31 19 8 28.61 8.75a90.69 90.69 0 0012 .08l2.12-.13v-.17c.21 0 .4 0 .59-.05 1.18 1.15 4.05.57 10.69-1.45a128.83 128.83 0 0022.31-7q3.5-1.08 7.49-2.25c1.17 0 1.82.47 1.92 1.66-3.88.38-13.68 2.9-15.92 6.08-2.53 3.58 5.81 6 11.1 10.25s-3 4-7 5.29a4.88 4.88 0 00-1.89 1.23c-2.65 2.57-3.91 8.17 1.48 9.73 2.82.83 7.51.54 14.81-1.92 10.98 148.5-4.95 34.43 17.17 189.19z" fill="#0a52a0"/><path d="M917.58 396.36c-.87 21-6.09 21.71-12 23.67-7.3 2.46-12 2.75-14.81 1.92-5.34-1.56-4.08-7.15-1.48-9.73a4.88 4.88 0 011.89-1.23c4-1.26 12.33-1 7-5.29s-13.63-6.67-11.1-10.25c2.24-3.18 12-5.7 15.92-6.08 1.7-.14.33-.56 14.58 6.99z" fill="#eac19b"/><path d="M911 626.94a9.37 9.37 0 002.06-.89 9.17 9.17 0 01-2.06.89zm-.54.15a19.07 19.07 0 01-5.92.22 19.1 19.1 0 005.92-.22z"/><path d="M906.26 376.49s.91 6.49-3.39 10.71l-1.73.51c-1.57 0-4.11.94-7.49 2.25-10.17 3.11-17.32 5.47-22.31 7a83.38 83.38 0 01-10.69 1.45 2.15 2.15 0 01-.59-1.12v-9c15.94-.05 30.1-4.83 46.2-11.8z" fill="#083969"/><path d="M893.65 390c3.38-1.31 5.92-2.23 7.49-2.25q-3.99 1.13-7.49 2.25z" fill="#083969"/><path d="M860 196.37c22.2-1.25 17.72-25.77 18.5 12.79-1 14.67 2.63 7.9-18.8 38.27-20.06-21.69-18.37-18.76-18.37-23.06-.19-7.74.27-27.49.54-35.24a17 17 0 0011 6.84c.4.08.83.14 1.26.19a23.63 23.63 0 002.76.24 28.59 28.59 0 003.11-.03z" fill="#eac19b"/><path d="M872.47 131.26c19.19 9.87 19.17 63.1-12.45 65.11a28.59 28.59 0 01-3.08 0 23.83 23.83 0 01-2.76-.24c-.43 0-.86-.11-1.26-.19a19.55 19.55 0 01-2.34-.56 15.55 15.55 0 01-8.69-6.28c-3.49-5.15-4.69-12.5-7-20.27-4-13.42-1.34-21.48 7.79-37.6s27.11-1.34 29.79.03z" fill="#c87f5a"/><path d="M871.33 397c-6.64 2-9.51 2.6-10.69 1.45a83.38 83.38 0 0010.69-1.45zm-11.28 1.48v.17l-2.12.13c-4.19.18-8.34.13-12-.08v-.53a80.93 80.93 0 0014.12.31z" fill="#083969"/><path d="M860.05 397.31v1.17a80.93 80.93 0 01-14.08-.31c.19-8.37-.56-10.68 1.13-11h.07a83.39 83.39 0 009.09 1h.35c.72.05 1.43.07 2.13.07h1.31c0 4.43-.43 7.4 0 9.07z" fill="#083969"/><path d="M860.05 388.29v9c-.43-1.65 0-4.62 0-9zm0-.02h-1.31zm0 0h-2.42c.81-.01 1.62 0 2.42 0zm-2.42-.05h1.11c-.7 0-1.41 0-2.13-.07h.91zm-.11 0h-1.26zm-2.22-.12c.3 0 .62 0 1 .06a83.39 83.39 0 01-9.09-1c2.41.38 4.8.67 7.14.83.3.07.65.09.95.11z" fill="#083969"/><path d="M854.18 196.16a23.83 23.83 0 002.76.24 23.63 23.63 0 01-2.76-.24z" fill="#c87f5a"/><path d="M854.31 388c.32 0 .66 0 1 .08-.31 0-.66-.02-1-.08z" fill="#e2dfdc"/><path d="M846 398.7c3.63.21 7.78.26 12 .08a90.69 90.69 0 01-12-.08z" fill="#083969"/><path d="M852.92 196c.4.08.83.14 1.26.19-.43-.08-.86-.14-1.26-.19zm-2.34-.59a19.55 19.55 0 002.34.56 15.1 15.1 0 01-2.34-.56zm-8.69-6.28a15.55 15.55 0 008.69 6.28 15.07 15.07 0 01-8.69-6.28z" fill="#c87f5a"/><path d="M847.17 387.19c1.1-.16 3.2.46 7.14.83-2.31-.16-4.73-.45-7.14-.83z" fill="#e2dfdc"/><path d="M847.17 387.19h-.07q-3.32-.53-6.68-1.25 3.38.72 6.75 1.25z" fill="#083969"/><path d="M847.1 387.19c-1.69.3-.94 2.61-1.13 11a89.68 89.68 0 01-28.62-8.19c.53-.37 4.86-1.76 2-8.5 0-.07-.05-.11-.06-.16.15.3.2 0 1-1.09a162.81 162.81 0 0020.15 5.74q3.34.67 6.66 1.2z" fill="#083969"/><path d="M846 398.17v.53c-9.65-.73-17.3-3.44-28.61-8.75a89.68 89.68 0 0028.61 8.22zm-26.55-18.25l.82.28c-.77 1.06-.82 1.39-1 1.09s-.21-.48-.31-.66a7.32 7.32 0 00-.56-.95l-.06-.11v-.05z" fill="#083969"/><path d="M819.45 379.92l-1.1-.4c-.03-.11.26.06 1.1.4zm-1.02-.24a7.32 7.32 0 01.56.95c-.24-.46-.44-.76-.56-.95z" fill="#083969"/><path d="M818.35 379.52v.05-.07s-.01 0 0 .02z" fill="#e2dfdc"/><path d="M813.4 620.71c10 30.06 11.94 20 3.34 32.89-1.34 2-12.08 6.72-18.13 10.08s-21.47 1.69-24.84 0c-2.34-.84-1.34-4.7 0-12.75s12.76-8.06 17.24-11.68.89-21.22.89-21.22 19.47 2.68 21.5 2.68z"/><path d="M856.61 388.19c.72.05 1.43.07 2.13.07h1.31m-12.88-1.07a83.39 83.39 0 009.09 1m-15.84-2.25q3.36.72 6.68 1.25m-5.21-198.06a15.55 15.55 0 008.69 6.28 19.55 19.55 0 002.34.56c.4.08.83.14 1.26.19a23.83 23.83 0 002.76.24" fill="none" stroke="#141500" stroke-miterlimit="10" stroke-width=".89"/><path d="M860 196.37c22.2-1.25 17.72-25.77 18.5 12.79-1 14.67 2.63 7.9-18.8 38.27-20.06-21.69-18.37-18.76-18.37-23.06-.19-7.74.27-27.49.54-35.24" fill="none" stroke="#141500" stroke-miterlimit="10" stroke-width=".89"/><path d="M856.94 196.4a23.63 23.63 0 01-2.76-.24c-.43 0-.86-.11-1.26-.19a17 17 0 01-11-6.84c-3.49-5.15-4.69-12.5-7-20.27-4-13.42-1.34-21.48 7.79-37.6s27.13-1.37 29.81 0c19.19 9.87 19.17 63.1-12.45 65.11a28.59 28.59 0 01-3.13.03zm-38.57 183.17v-.07s0 0 0 0l1.1.4m-.47.73a7.32 7.32 0 00-.56-.95m1.83.52c-.77 1.06-.82 1.39-1 1.09m-5.87 239.42c10 30.06 11.94 20 3.34 32.89-1.34 2-12.08 6.72-18.13 10.08s-21.47 1.69-24.84 0c-2.34-.84-1.34-4.7 0-12.75s12.76-8.06 17.24-11.68.89-21.22.89-21.22m119.1 8.91a9.37 9.37 0 002.06-.89m-8.52 1.26a19.1 19.1 0 005.92-.22m-16.2.16a52 52 0 018-.08" fill="none" stroke="#141500" stroke-miterlimit="10" stroke-width=".89"/><path d="M915.73 624c2.54.39 4.28 1.41 4.4 3.42.56 8.15 7.4 16.76 11.42 18.77s6.71 13.43 4.71 19.47-16.11 6.38-21.48 5.37-24.51-15.27-25.47-17.79c-2.61-7 3.3-25.85 3.3-25.85M817.46 378.4a8.84 8.84 0 01.86 1.1m72.46 42.5c-5.34-1.56-4.08-7.15-1.48-9.73m13.76-22.9c1.64-.14.27-.56 14.52 7-.87 21-6.09 21.71-12 23.67" fill="none" stroke="#141500" stroke-miterlimit="10" stroke-width=".89"/><path d="M871.34 397a128.83 128.83 0 0022.31-7c3.38-1.31 5.92-2.23 7.49-2.25 1.17 0 1.82.47 1.92 1.66-3.88.38-13.68 2.9-15.92 6.08-2.53 3.58 5.81 6 11.1 10.25s-3 4-7 5.29a4.88 4.88 0 00-1.89 1.23c-2.65 2.57-3.91 8.17 1.48 9.73 2.82.83 7.51.54 14.81-1.92 11 148.57-4.88 34.5 17.24 189.26.45 3.13-2.38 10.43-7.1 14.74a14.73 14.73 0 01-2.69 2 9.17 9.17 0 01-2.06.89l-.52.15a19.07 19.07 0 01-5.92.22c-.72 0-1.47-.1-2.25-.14a47.43 47.43 0 00-8 .08c-.55 0-1.09.09-1.65.17-5.85-55.7-7-16.45-10.06-77.88-.68-13.42-8.74-53-10.08-63.11s-13.42-43-14.09-51c-3-2.76-6.4-2.48-10.08-.67-27 125-23 152.63-25.51 166.5-1.34 7.38-7.39 19.47-9.39 19.47S791.9 618 791.9 618c-2.39-11.19.83-26 3.45-30.89 1.13-45-1.79-48.76 4-57.07 6.13-8.72 1.95-45.65.61-50.35-.8-2.76-.65-39.63-.41-69.54 17.52 11.26 28.74 1.53 19.11-8.34C813 396 814.29 392 817.35 390a89.68 89.68 0 0028.65 8.17 80.93 80.93 0 0014.08.31c.21 0 .4 0 .59-.05a83.38 83.38 0 0010.66-1.43m-13.7-8.78h2.42m-3.79-.06h1.26" fill="none" stroke="#141500" stroke-miterlimit="10" stroke-width=".89"/><path d="M857.93 398.78c-4.19.18-8.34.13-12-.08v-.53c.19-8.37-.56-10.68 1.13-11h.07c1.1-.16 3.2.46 7.14.83.32 0 .66 0 1 .08" fill="none" stroke="#141500" stroke-miterlimit="10" stroke-width=".89"/><path d="M887.73 164.24c-1.5 6 3.56 7.72.83 12.8-2.1 3.94-4.81 3.56-15.53 19.1-8.64 12.54-23.49 4.05-28.88-4-3.17-4.79-4.08-7.35-6-9.48s-3.63-1.67-4.4-3.79c-1.32-3.7-3.76-7.26-1-11.45s2.46-19.69 3.48-21.73c.32-.61 12.74-7.51 12.74-7.51l27.68-.69c13.54 24.02 11.79 18.57 11.08 26.75z" fill="#f0cfb3"/><path d="M887.73 164.24c-1.5 6 3.56 7.72.83 12.8-2.1 3.94-4.81 3.56-15.53 19.1-8.64 12.54-23.49 4.05-28.88-4-3.17-4.79-4.08-7.35-6-9.48s-3.63-1.67-4.4-3.79c-1.32-3.7-3.76-7.26-1-11.45s2.46-19.69 3.48-21.73c.32-.61 12.74-7.51 12.74-7.51l27.68-.69c13.54 24.02 11.79 18.57 11.08 26.75z" fill="none" stroke="#141500" stroke-miterlimit="10" stroke-width=".89"/><path d="M850.75 117.58S839 121 836 123.64s-8.08 13.14-7.88 16.57c1.65 27.93 9.7 28.06 9.7 25.26 0-15.08-4.3-14.7 11.92-24.25.93 12.33 9.83 18.35 22 16.37-6-32.76-.83-3.74 6.06-.6 9.8 4.45 8.28 1 6.87 8.08 6.37 2.62 2.35 2.51 6.47-6.06 2.42-5.06 3-21.42 0-27.69-2.19-4.52-12.48-18.44-20.81-17.58-5.86.61-11.52-.6-14.15 2a5.84 5.84 0 01-5.43 1.84z" fill="#221f46" stroke="#141500" stroke-miterlimit="10" stroke-width=".89"/><path d="M858.23 176.28s-2.42 8.39 4.65 8.79" fill="none" stroke="#141500" stroke-miterlimit="10" stroke-width=".89"/><path d="M876.62 169.64c0 3.85-3.23 3.85-3.23 0s3.23-3.85 3.23 0zm-26.07 0c0 3.85-3.23 3.85-3.23 0s3.23-3.85 3.23 0z" fill="#221f46" stroke="#141500" stroke-miterlimit="10" stroke-width=".89"/><path d="M845.12 164.93c9.92 0 10.12.45 9.52-1.23-2.64-7.51-28.82 1.16-9.52 1.23zm32.21 0c-9.92 0-10.12.45-9.52-1.23 2.67-7.51 28.82 1.16 9.52 1.23z" fill="#2f1428" stroke="#141500" stroke-miterlimit="10" stroke-width=".89"/><path d="M853.79 188.91c7.91.14 6.9-1.07 8.1 0 0 0 .91.17 1.29-.25s5.91.07 6.22 0-3.87 4.49-7 4.26-8.16-3.12-8.61-4.01z" fill="#fff" stroke="#141500" stroke-miterlimit="10" stroke-width=".89"/><path d="M905.06 384.15c-2.83 3.39-106.42 17.56-94.88-7.72L848.45 232h20.36c40.53 151.12 38.65 136.8 36.25 152.15z" fill="#e2dfdc" stroke="#141500" stroke-miterlimit="10" stroke-width=".89"/><path d="M907.58 278.91c3.52 10 2.52 68.51 3 74 2 22.22.15 25.55-7.54 36.44l14.44 8.44c30.5-64 15.84-80.48 10.72-141.9-2.67-32.08.16-22.16-49.7-50.43 0 0-2.66 16.86-6 19.55-13.4 10.72-6.24 17.62-8.06 37.6-.67 7.38 3.36 71.16 4.7 77.21s5.37 26.18 4 30.21 10.74 9.84 15.44 7.6 18.13-4.24 18.13-4.24c3.76-55.46 2.81-36.33.87-94.48zm-98.24 3.02c-4.36 12.46-2.14 101.6-3.61 106.25l-19.56 5.16c-10.59-92.72-4-56.2 2.52-134.41 2.71-32.55-.28-22.08 53-52.32 0 0-.67 18.76 2.69 21.44 13.39 10.72 6.24 17.62 8.05 37.6.67 7.38-3.35 71.17-4.7 77.21s-5.37 26.18-4 30.21-10.74 9.84-15.44 7.61-18.12-4.25-18.12-4.25c-3.72-55.43-2.78-36.35-.83-94.5z" fill="#354439" stroke="#141500" stroke-miterlimit="10" stroke-width=".89"/><path d="M818.32 379.5c8.53 12.46-12.22 9.41.35 22.34 9.55 9.79-1.45 19.7-19.12 8.34-7.45-4.84-13.93-6.45-11.32-22.59.74-4.62-.74-4.62 11.66-9.25 8.11-3.1 13.99-4.51 18.43 1.16z" fill="#eac19b" stroke="#141500" stroke-miterlimit="10" stroke-width=".89"/></g><path fill="none" stroke="#ff1d25" stroke-miterlimit="10" stroke-width="19.04" d="M857.7 232v133.62"/><path d="M810.18 376.43q47 9.9 96.08.06" fill="none" stroke="#ff1d25" stroke-miterlimit="10" stroke-width="20"/><path fill="none" stroke="#ff931e" stroke-linecap="round" stroke-linejoin="round" stroke-width="4" d="M871.81 221l-.03 4"/><path fill="none" stroke="#ff931e" stroke-linecap="round" stroke-linejoin="round" stroke-width="4" stroke-dasharray="7.7 7.7" d="M871.73 232.7l-1.07 165.61"/><path fill="none" stroke="#ff931e" stroke-linecap="round" stroke-linejoin="round" stroke-width="4" d="M870.64 402.16l-.03 4M906.72 221l-.02 4"/><path fill="none" stroke="#ff931e" stroke-linecap="round" stroke-linejoin="round" stroke-width="4" stroke-dasharray="7.7 7.7" d="M906.65 232.7l-1.07 165.61"/><path fill="none" stroke="#ff931e" stroke-linecap="round" stroke-linejoin="round" stroke-width="4" d="M905.55 402.16l-.02 4M810.77 219l-.02 4"/><path fill="none" stroke="#ff931e" stroke-linecap="round" stroke-linejoin="round" stroke-width="4" stroke-dasharray="7.7 7.7" d="M810.7 230.7l-1.07 165.62"/><path fill="none" stroke="#ff931e" stroke-linecap="round" stroke-linejoin="round" stroke-width="4" d="M809.6 400.17l-.02 4M842.97 221l-.02 4"/><path fill="none" stroke="#ff931e" stroke-linecap="round" stroke-linejoin="round" stroke-width="4" stroke-dasharray="7.7 7.7" d="M842.9 232.7l-1.07 165.61"/><path fill="none" stroke="#ff931e" stroke-linecap="round" stroke-linejoin="round" stroke-width="4" d="M841.81 402.16l-.03 4"/></svg>