<svg xmlns="http://www.w3.org/2000/svg" viewBox="0 0 700 700"><path fill="#cccec3" d="M0 0h700v700H0z"/><path fill="#bc5f5a" d="M647.69 609.27v25.26l-17.79 1.27-351.23 25.1-108.56-112.89-5.55-5.77v-20.88l114.45 113.17 368.68-25.26z"/><path fill="#ca6f6c" d="M647.69 609.27l-368.68 25.26-114.45-113.17 318.59-23.07 164.54 110.98z"/><path fill="#e5e5e5" d="M629.9 635.8v.02l-11.05 63.76H227.7l-48.69-61.38-8.9-90.19L278.67 660.9l351.23-25.1z"/><path fill="none" stroke="#000" stroke-miterlimit="10" stroke-width=".82" d="M164.56 521.36l114.45 113.17 368.68-25.26-164.54-110.98-318.59 23.07z"/><path fill="none" stroke="#000" stroke-miterlimit="10" stroke-width=".82" d="M647.69 609.27v25.26l-17.79 1.27-351.23 25.1-108.56-112.89-5.55-5.77v-20.88m454.29 178.22l11.05-63.76"/><path fill="none" stroke="#000" stroke-miterlimit="10" stroke-width=".82" d="M170.11 548.01l8.9 90.19 48.69 61.38"/><path fill="none" stroke="#000" stroke-linecap="round" stroke-width=".82" d="M227.7 699.58h391.15"/><path d="M54.1 699.58h151.52c3.31-23.07 6.95-62.26 7.22-74.2.16-6.75-10.93-107.81-13.31-117.75-12.82 10.87-24 13.17-33.18 14.2-13.64 1.53-26.53 3.77-39.71-1.78-14.3-6-22.63-13.84-29.95-12.42s-30.95 5-36.28 7.45a30.44 30.44 0 01-8.65 2.83C61.54 580 65.12 591 57.42 629.64 54 646.57 59 676.4 54.1 699.58z" fill="#5f9dc4" stroke="#000" stroke-miterlimit="10" stroke-width=".82"/><path d="M428.59 258c9.68 25.34 3.35 30.39-17.72 89.11-6.5 18.11 3.21 36.14 3.33 37.75-22.52 18.07-34 29.37-49.6 6.58-2.65-3.9-3.66-14-7.39-30.5s14.72-71.31 14.72-71.31c25.84-19.8 24.97-17.98 56.66-31.63z" fill="#179780" stroke="#000" stroke-miterlimit="10" stroke-width=".82"/><path d="M399.72 464.3s-29-11.21-35-14.74-21.58-18.25-24.41-21.56-20.24-34.13-20.78-35.09c.09.11.63.49 2.05-2.69 3.18-7.09-.64-3-2.74-6.67 6.13-.64 4.86-.83 4-3.26-1-2.84-5.5-2.66-5.5-2.66v-54.31L346 333.74l14.78-38.26 11.18-5.88s-18.45 54.82-14.72 71.31 4.74 26.6 7.39 30.5c15.66 22.92 27.13 11.45 49.6-6.58 1.31 14.49-3.77 15.92-1.93 22.88 0 .08-11.68 4.31-14.21 6.05-2.34 1.59-4.66.88-2.5 5s6.82 10.83 6.82 10.83c10-10.69 9.63-10.33 15.18-13.14 6.81 8.37 6.54 8.25 6.54 19.34-.03 14.39-14.29 22.63-24.41 28.51z" fill="#6e4e28" stroke="#000" stroke-miterlimit="10" stroke-width=".82"/><path d="M360.53 204.06c4.07-4.33 37.48 6.1 43.1 10 6.49 4.52 19 28.19 25 43.89-60 25.9-33.34 19.37-67.84 37.51-31.92-36.57-34.13-36.58-52.47-46.29 1.25-1.33 7.58-3.19 1.79-5.05s-18.52.53-20 2.39-4.31 4.61-4.49 4.78c8.76-17.81 12.31-16.4 55.16-40.73 1.85-1.05 5.6-3.81 19.75-6.5zm57.03 212.35c-5.49 2.79-5 2.23-15.18 13.14-10.48-15.2-11.64-13.77 9.89-21.84.8 3.03 2.92 5.8 5.29 8.7z" fill="#179780" stroke="#000" stroke-miterlimit="10" stroke-width=".82"/><path d="M399.72 464.3c-13.09 5.54-15.45-2.68-27-5.15-7.48-1.59-23.8-14.53-28-18.51-3.86-3.68-25-38.21-27.79-42.84-1.1-5.88-5.61-5 2.5-5 .08.08 17.91 31.65 20.8 35.11s18.48 18.08 24.46 21.61 35.03 14.78 35.03 14.78z" fill="#cccfd6" stroke="#000" stroke-miterlimit="10" stroke-width=".82"/><path d="M391.45 208.93c-21.8-7.12-25.33-5.92-30.9-4.88 2.26-.92-12.44-9.11-19.82 6.53-5.39 3-17.8 10-27.41 15.29 14.8-47.32 21-33.09 27.91-37.6 16.94-11.09 7.41-12.37 37.94-9.31 12.53 1.26 12.94 16.37 12.28 29.97z" fill="#6e4e28" stroke="#000" stroke-miterlimit="10" stroke-width=".82"/><path d="M360.75 295.48L346 333.74c-63.87-23.25-1.29-1.59-65.32-24.36l1.25-19.78c10.61-22.24 5.82-10 25.88-20.72 3.49-1.87 3-6.13-1.49-6.92s-20.48 3.45-20.48 3.45 5.5-9 9.24-10.64 12-4.25 13.23-5.58c17.92 9.5 20.39 9.57 52.44 46.29z" fill="#179780" stroke="#000" stroke-miterlimit="10" stroke-width=".82"/><path d="M331.49 457.56c3.57 12.51 3.63 7.63-1.16 21.46-16.62 7.38-15.72-10.29-14.95-29.46 14.12 5.81 11.73 4 13.28 8z" fill="#462b0e" stroke="#000" stroke-miterlimit="10" stroke-width=".82"/><path d="M334.32 425.56l-7.19 10.14-.43-22.2c2.45 3.93 5.1 8.14 7.62 12.06zm-7.05 17.12c5.07 17.86 5.17 14.88 1.39 14.88-1.54-4.01-1.12-1.07-1.39-14.88z" fill="#dd7c00" stroke="#000" stroke-miterlimit="10" stroke-width=".82"/><path d="M330.33 479l-1.67 6.53s-14.07-.32-16.18-9.28-4.12-26.34-2.79-30.59 1.24-29.8 2.79-33.7c1.42-3.61 1.73-13 .36-19.14h1.86a20.88 20.88 0 012.31 5c.29 1.53-3.28 65.44-1 75.9 2.34 10.62 14.32 5.28 14.32 5.28z" fill="#cccfd6" stroke="#000" stroke-miterlimit="10" stroke-width=".82"/><path d="M302.37 479s-4.33 1.06-9.65 2.13-9.65-21.82-9.65-21.82c0-40 2.12-63.33 1.33-70.66-5.31-48.93-7.38-21.38-3.75-79.29L310.36 320c0 .75-.6 30.09.45 55.15.64 16.65 5.1 28.16 1.67 36.88-1.55 3.9-1.45 29.44-2.79 33.7s.67 21.64 2.79 30.59 16.18 9.28 16.18 9.28c-3.47 11.41.61 6.42-13.31 7.65-3.99.31-12.98-14.25-12.98-14.25z" fill="#6e4e28" stroke="#000" stroke-miterlimit="10" stroke-width=".82"/><path d="M327.5 454.55l-12.12-5c0-.09 1.65-51.68 1.63-51.76 12.36 20.35 9.5 6.33 10.49 56.76z" fill="#e1dfd2" stroke="#000" stroke-miterlimit="10" stroke-width=".82"/><path d="M322.84 380.24c.63 1.8 3.75 3.34-11.49 3.74-.24-2.72-.42-5.8-.54-8.88l6.53 2.48s4.5-.18 5.5 2.66z" fill="#777674" stroke="#000" stroke-miterlimit="10" stroke-width=".82"/><path d="M321.58 390.17c-1.54 3.43-1 2.67-6.88 2.67-1.64 0-2.46 1.05-3.35-8.86 0 0 4.15-.11 7.49-.48 2.16 3.71 5.94-.5 2.74 6.67z" fill="#777674" stroke="#000" stroke-miterlimit="10" stroke-width=".82"/><path d="M317.34 323.32v54.26l-6.53-2.48c-1.05-25.06-.43-54.4-.45-55.15z" fill="#cccfd6" stroke="#000" stroke-miterlimit="10" stroke-width=".82"/><path d="M285.57 251.31c.18-.17 3-3 4.49-4.78s14.23-4.26 20-2.39c8 2.56-8.14 7.71-15 10.63-3.74 1.61-9.24 10.64-9.24 10.64s16-4.25 20.48-3.45 5 5.05 1.49 6.92-7.24 4.25-14.23 5.31-11.66 15.33-11.66 15.41c-2.64 5.47-8.87 8.28-13.81 9.6-7 17.88-9.48 21.06-52.92 72.35-40.77 12.7-40.78 9.05-57.57 9.05 0 0-24.8-6.92-14.82-27.14 14.35-29 12.94-25.55 53.74-21.74 2.94.27 1 1.47 24.2-19.22 48.76-43.5 53.42-82.5 80.07-87.25 3.7-.65 2.27 5-.23 7.7-5.9 6.47-7.5 3.12-14.99 18.36z" fill="#fadcc2" stroke="#000" stroke-miterlimit="10" stroke-width=".82"/><path d="M283.07 435.75v23.58c-7.8 14.74-9.52 49.95-14.65 59.06-3 5.31-11 15.25-17 16.9s-13.65-5.91-19.3-9.45c-11.76-7.37 6.36-96.29-17-154.29 15.84-18.71 21.57-25.79 21.65-25.79-.93 12.46 5 38.52 7.64 50.26 5.8 25.92-4.77 57.41-1.61 97.89 2.83 36.05 16 29.71 19.58-.35 2.38-19.86 20.69-57.81 20.69-57.81z" fill="#714e30" stroke="#000" stroke-miterlimit="10" stroke-width=".82"/><path d="M275.58 141.55c17.91 13.26-6.13 61.89-7.48 61.56 1.62-7.36 2.84-16.47-4-32.3-2-4.62-17.31-16.32-17.31-16.32-11.89-1-12.21.26-18-8.51-13.75 0-15.89-6-40.27-8.87-6.4 13.65-5.23 16.34-26.3 20.58-10 33.43-34.57 24.9-27.42 59.94 0 0-4.86-3.91-6.52-7-1.81-3.37-13.13-15.19-20.84-7.76-.08-.09-5.87-17.93-5.34-22.8s2.55-17.17 2.64-17.71c-.35.49-10.52 15-12.31 19.38 1.06-4.72 5-23.9 7.37-27.73 2.85-4.61 24.15-32.28 29.31-35.47s25-7.09 28.46-7.09 2.16-4.26-3-6.56-10.15-3.55-13-2.67-.83-8.84 23 1.07c2.91-10.18 7.39-14 16.81-17.55-13.38 21.19-9.63 22-8 18.62 0 0 20.47-17.38 41.94-11.71 27.91 7.38 49.63 10.48 67.23 50.9z" fill="#423d39" stroke="#000" stroke-miterlimit="10" stroke-width=".82"/><path d="M281.9 368.89c-7.28 1.57-29.89 6.21-31.28 6.21-.34 0 .67-16.32 2-22.34s12-21.11 12-21.11c12-1.7 8.73-1.14 14.81-2.48-.32 16.03-2.26 14.99 2.47 39.72z" fill="#fadcc2" stroke="#000" stroke-miterlimit="10" stroke-width=".82"/><path d="M272.08 322.26a9.09 9.09 0 012.5 8l-10 1.42s-10.66 15.08-12 21.11-2.33 22.34-2 22.34 19-3.55 19-3.55c-1 6.36-5.57 9-11.15 11.53h-16.81c-7.49-35.88-3.87-37.32-4.8-37.32 0-.09 17-20.31 20.79-25.81 1.44-2.09 1.42-2.31 1.5-2.31 5.56-.12 7.44-.76 12.97 4.59z" fill="#7a696f" stroke="#000" stroke-miterlimit="10" stroke-width=".82"/><path d="M272.42 231.81c.33 6-8.23 19.85-8.23 19.85-.4-18.5-3.1-17.18-.09-33.68a18.63 18.63 0 014.21 1.06c1.54.71 3.77 6.74 4.11 12.77z" fill="#fadcc2" stroke="#000" stroke-miterlimit="10" stroke-width=".82"/><path d="M264.1 170.81c14.33 33.14-5.93 43.6-1 66 1 4.55 1.17 16.56 1.17 21.2-.67 0-12.45 6.51-17.81 15.81-5.66 9.81-14.31 20.17-14.65 24.59a18.79 18.79 0 01-8.65 2.95c-25 1.8-31.21 11.75-72.55-13.47C135 276.64 131.57 270 127 246.35c0 0-6.65 1.06-11.31-1.77s-19-21.28-11.32-37.24c4.53-9.4 12.06-8.56 19.58-1.8 5.26 4.74 4.27 6.75 10.91 12.09-7.15-35.07 17.45-26.46 27.42-59.94 21.33-4.29 20-7.21 26.3-20.58 23.93 2.77 26.82 8.87 40.27 8.87 5.86 8.92 6.22 7.55 18 8.51-.06 0 15.25 11.7 17.25 16.32zm-8 16.67c6.26-2-2.49-7.46-7.74-7.46-3 0-13.22 4.8-13.22 4.8l1.74 4.52c10.86-3.98 15.59-7.87 19.23-1.86zm-7.24 7.73c-4.24-1.89-10.6-.55-12 .25-6 .8-5.25 30.42-5.25 30.42l16.49 5.36c.26.06 11.77-31.16.77-36.03zM203.58 180l1.39-5s-6.77-4.25-19.18-8.15c-16.4-5.16-28 13.57-10.55 6.38 10.31-4.23 28.34 6.77 28.34 6.77zm-5.05 41.86c1.11-9 4.31-39.55-4.32-39.86-3.62-.13-11.61.27-14.23 2.66-10.8 9.85-8.85 8.49-10 18a31.24 31.24 0 00-.08 12.78z" fill="#fadcc2"/><path d="M264.27 258v3.32c-25 35.31-23.67 33.2-34.46 43 .36-.39 1.71-2.1 2-5.93.34-4.42 9-14.78 14.65-24.59 5.07-8.8 16.88-15.8 17.81-15.8z" fill="#714e30" stroke="#000" stroke-miterlimit="10" stroke-width=".82"/><path d="M256.11 187.48c-3.48-5.74-7.08-2.59-19.22 1.86l-1.74-4.52s10.22-4.8 13.22-4.8c5.28-.02 13.99 5.46 7.74 7.46z" fill="#423d39" stroke="#000" stroke-miterlimit="10" stroke-width=".82"/><path d="M249.65 226.4c1.11-6.54 2.06-18 1.72-23.23-.5-7.71-8.49-8.51-14.48-7.71 1.38-.8 7.74-2.14 12-.25 8.27 3.67 4 22.26.76 31.19z" fill="#8d8c92"/><path d="M251.37 203.17c.48 7.51-1.74 28.48-3.24 28.07l-16.49-5.36s-.74-29.62 5.25-30.42 13.98 0 14.48 7.71zM245.26 219c0-11-11.39-11-11.39 0s11.39 11 11.39 0z" fill="#fff" stroke="#000" stroke-miterlimit="10" stroke-width=".82"/><path d="M239.56 210.64c7.54 0 7.54 16.65 0 16.65s-7.56-16.65 0-16.65zm.89 6.14c0-4-3.56-4-3.56 0s3.56 4.01 3.56 0z" fill="#060606" stroke="#000" stroke-miterlimit="10" stroke-width=".82"/><path d="M238.67 213.74c2.35 0 2.35 6.07 0 6.07s-2.35-6.07 0-6.07z" fill="#fbfbfb" stroke="#000" stroke-miterlimit="10" stroke-width=".82"/><path d="M206.52 309.38l14.2 3.12c-32.09 28.66-26.52 24.39-14.2-3.12zm-6.41 130.27c-4.33 50.39 8.45 70.13-.58 67 0 0-14.64 12.42-29.62 13.83s-28.85 4.66-43.27-1.41-22.64-13.8-29.95-12.39-30.95 5-36.28 7.45a30.72 30.72 0 01-8.65 2.87c-.94-6 .67-69.87 4.66-111.9s18.47-69.7 25-83c5.8-11.88 13.33-14.11 62.41-26.6 0 0 19 22.87 24.12 24.47s5.33 9.58 5.33 9.58c-15.33 0-16.87-3.59-30.46 23.93-10 20.22 14.82 27.14 14.82 27.14 16.71 0 16.75 3.67 57.57-9.05l3 7.45s-7.49 26.07-13 35.11c-3.93 6.43-4.89 25.3-5.1 25.52z" fill="#7a696f" stroke="#000" stroke-miterlimit="10" stroke-width=".82"/><path d="M220.67 301.88c-5.59 1.84-14.15 7.5-14.15 7.5l-10 22.34-23.28-2.19s-.17-8-5.33-9.58-24.12-24.47-24.12-24.47c5.65-2 4-.4 6.82-7.63 30.13 18.38 39.98 19.15 70.06 14.03z" fill="#fadcc2" stroke="#000" stroke-miterlimit="10" stroke-width=".82"/><path d="M205 175.06l-1.39 5s-18-11-28.34-6.73c-17.42 7.19-5.85-11.54 10.55-6.38 12.38 3.86 19.18 8.11 19.18 8.11z" fill="#423d39" stroke="#000" stroke-miterlimit="10" stroke-width=".82"/><path d="M198.53 221.88l-28.62-6.38c-5.08-24.66 19.78-39.3 28.62-28 3.32 4.21.67 28.96 0 34.38zm0-10.39c0-11-12.74-11-12.74 0s12.74 11.01 12.74 0z" fill="#fff" stroke="#000" stroke-miterlimit="10" stroke-width=".82"/><path d="M199 188.18c-2-4.24-10.28-7-19.39-.7-10.67 7.42-10.36 24.05-8.95 9.31.55-5.58 6.75-9.72 9.37-12.11s10.61-2.79 14.23-2.66 4.61 5.75 4.74 6.16z" fill="#8d8c92"/><path d="M192.16 203.17c8.43 0 8.43 16.64 0 16.64s-8.43-16.64 0-16.64zm.55 5.62c0-4.09-4.12-4.09-4.12 0s4.12 4.09 4.12 0z" fill="#060606" stroke="#000" stroke-miterlimit="10" stroke-width=".82"/><path d="M190.65 205.7c2.72 0 2.72 6.18 0 6.18s-2.73-6.18 0-6.18z" fill="#fbfbfb" stroke="#000" stroke-miterlimit="10" stroke-width=".82"/><path d="M89.71 518.39s-19 19.15-28.29 21.63m94.18-14.18c-.27 4.24-1.86 26.91-4 30.5m14.98-32.99c-5 24.07-7.76 20.14-13 23.9m19.66-16.45s-7 10.64-10.65 12.06m13.98 4.39c-18.3 18-27.53 9.14-38.94 14.76m-2.25 135.91c5.85-84.06 12.67-122.44 22.22-139.1m-3.66 6.39s10-3.91 14-3.2m31.59-55.33c9 3.1-3.73-16.71.58-67 2.94-34.21 4.54-13.57 18.06-60.65l-3-7.45c-40.77 12.7-40.78 9.05-57.57 9.05 0 0-24.8-6.92-14.82-27.14 13.59-27.52 15.13-23.93 30.46-23.93 0 0-.17-8-5.33-9.58s-24.12-24.47-24.12-24.47C94.58 308 87.15 310.25 81.38 322.08c-6.49 13.29-21 41-25 83S50.82 511 51.76 517" fill="none" stroke="#000" stroke-miterlimit="10" stroke-width=".82"/><path d="M195.21 492.32s-26 14.89-50.43 9-24.46-17-38.93-22.34-30.29-10.64-30.29-10.64m38.77-65.93s9.06 64.37 20.5 74.48m41.74 2.13l23.55-39.37M157.6 380.6s-3.83 9-17.31 8-7.49-10.63-21-12.77-21.47-5.84-23-6.91M167.91 320c-23.81-2.59-25.6-3-43.33-7.45m90.59 59c42.61-50.31 45.72-54 52.92-72.35 5.19-1.38 11.18-4.11 13.81-9.6 10.66-22.22 5.82-10 25.88-20.72 3.49-1.87 3-6.13-1.49-6.92s-20.48 3.45-20.48 3.45 5.5-9 9.24-10.64c6.6-2.8 23.12-8 15-10.63-5.78-1.87-18.52.53-20 2.39s-4.41 4.7-4.5 4.79c7.5-15.25 9-11.87 15-18.37 2.51-2.72 3.91-8.35.23-7.7-24.31 4.31-39.74 50.65-71 79.05" fill="none" stroke="#000" stroke-miterlimit="10" stroke-width=".82"/><path d="M218.17 379s11 42.52 10 70.56-1.66 72.73 4 76.28 13.31 11.12 19.3 9.45 14-11.59 17-16.9c5.31-9.42 6.58-43.81 14.65-59.06v-23.58s-18.31 37.95-20.64 57.81c-3.57 30.41-16.77 36.11-19.58.35-3.16-40.57 7.46-71.73 1.61-97.89-2.63-11.8-8.57-37.8-7.64-50.26" fill="none" stroke="#000" stroke-miterlimit="10" stroke-width=".82"/><path d="M241.62 383.08h16.82s8.32-3.72 9.65-7.09c2.37-6-1.41-3.81 13.81-7.1-8.19-42.87 3.75-41.09-7.32-38.66a9.09 9.09 0 00-2.5-8c-6-5.77-7.89-4.62-13-4.62" fill="none" stroke="#000" stroke-miterlimit="10" stroke-width=".82"/><path d="M274.58 330.23l-10 1.42s-10.66 15.08-12 21.11-2.33 22.34-2 22.34 19-3.55 19-3.55m12.32-81.95l-2.49 39.57m3.66 106.58c2.37-48.81 1.75-45.15-1.17-66.86" fill="none" stroke="#000" stroke-miterlimit="10" stroke-width=".82"/><path d="M283.07 459.33s4.32 22.88 9.65 21.82 9.65-2.13 9.65-2.13 9 14.54 13 14.18c13.9-1.23 9.84 3.75 13.31-7.65 0 0-14.07-.32-16.18-9.28s-4.12-26.34-2.79-30.59 1.24-29.8 2.79-33.7c3.52-9-1-19.54-1.67-36.88-1-25.06-.43-54.4-.45-55.15l-29.71-10.57m13.38 159l8.32 10.64" fill="none" stroke="#000" stroke-miterlimit="10" stroke-width=".82"/><path d="M328.66 485.55l1.67-6.53s-12 5.32-14.31-5.32c-2.25-10.26 1.19-74.82 1-75.9a20.88 20.88 0 00-2.31-5h-1.86m-2.49-72.85l6.98 3.37v54.26l-6.53-2.48" fill="none" stroke="#000" stroke-miterlimit="10" stroke-width=".82"/><path d="M317 397.8c2.83 4.65 23.94 39.17 27.79 42.84 4.16 4 20.48 16.92 28 18.51 12.45 2.67 13.52 10.83 27 5.15 0 0-29-11.21-35-14.74s-21.65-18.25-24.48-21.56-20.24-34.13-20.78-35.09m-2.19-15.33s4.5-.18 5.5 2.66c.63 1.8 3.75 3.34-11.49 3.74" fill="none" stroke="#000" stroke-miterlimit="10" stroke-width=".82"/><path d="M314.7 392.84c5.91 0 5.38.69 6.88-2.67 3.18-7.09-.64-3-2.74-6.67m80.88 80.8c11.34-6.6 24.38-14.79 24.38-28.55 0-11.09.29-11-6.54-19.34-11.88-14.57-1.06-13.6-3.44-32.43-12.39-23.94-3.06-37.2 17.47-94.1 7.87-21.77-19.93-70.21-28-75.8-6.35-4.43-31.27-10.91-36.2-10.91a43.75 43.75 0 00-6.88.88" fill="none" stroke="#000" stroke-miterlimit="10" stroke-width=".82"/><path d="M391.45 208.93c.66-13.59.22-28.71-12.28-30-30.55-3.06-21-1.78-37.94 9.31-3.25 2.13-8.16-.26-12.57 3.72s-5.4 11.18-8.15 15.44c-3 4.62-7.07 18.32-7.2 18.45" fill="none" stroke="#000" stroke-miterlimit="10" stroke-width=".82"/><path d="M340.73 210.58c4.24-9 13.42-10.89 17.22-8.91 1.08.57 3.68 2.09 2.51 2.4-16.11 3.06-13 2.87-59.92 28.9m16.8 90.35L346 333.74l14.78-38.26 11.18-5.88s-18.45 54.82-14.72 71.31 4.74 26.6 7.39 30.5c15.66 22.92 27.13 11.45 49.6-6.58m-1.96 22.88c0 .08-11.68 4.31-14.21 6.05-2.34 1.59-4.66.88-2.5 5s6.82 10.83 6.82 10.83c10-10.69 9.63-10.33 15.18-13.14m-1.2 36.55s-32.11-3-45.09-17.2-18-24.12-18-24.12M346 333.74c-11.83 55.48 0 46.66 0 59.19m14.75-97.45c-31.92-36.57-34.13-36.58-52.47-46.29m63.65 40.41c25.84-19.77 25-18 56.66-31.63M330.33 479c4.79-13.83 4.73-8.95 1.16-21.46-3.56 0-2.53.78-4-3l-12.12-5m11.33-36.04l.8 41.05m-.4-18.8l7.22-10.19m-2.83 32l-4.23-14.9M220.72 312.5l-14.2-3.12-10 22.33m24.15-29.83h0zm-14.15 7.5c17.76-11.75 18.39-6.12 25.29-11m-88.02-2.9c5.65-2 4-.4 6.82-7.63C135 276.64 131.57 270 127 246.35c-21.1 3.37-31.49-32-19.5-43.53 7.46-7.15 18.76 3.88 20.84 7.76 1.66 3.14 6.52 7 6.52 7-7.15-35.07 17.45-26.46 27.42-59.94 21.33-4.29 20-7.21 26.3-20.58 23.93 2.77 26.82 8.87 40.27 8.87 5.86 8.92 6.22 7.55 18 8.51C264.44 168 276.57 179.35 264.1 218c-3.39 18.54.35 13 .17 43.31" fill="none" stroke="#000" stroke-miterlimit="10" stroke-width=".82"/><path d="M264.19 251.66s8.56-13.82 8.23-19.85-2.57-12.06-4.11-12.77a18.63 18.63 0 00-4.21-1.04m0 40s-12 6-17.64 15.81-14.31 20.19-14.65 24.56c-.42 5.49 1.4 3.49-33.11 33.55l-25.46-2.39m47.48-61.19c-9.35-8.19-15.25-4-31.51-5.38m19.41 5.38s-6.76-1.42-7.76 0m7.76 27.14s-4.76 5.14-10.09 5.14m27.63-67.39s-4.66-4.61-13.65-3.9m-42.6-13.83l28.62 6.38s3.38-27.31.43-33.68c-5.57-12.02-34.63.18-29.05 27.3zm7.32 6.38s-3-5.32-16.31-3.9M203.58 180s-18-11-28.34-6.73c-17.42 7.19-5.85-11.54 10.55-6.38 12.41 3.9 19.18 8.15 19.18 8.15zm33.31 9.34l-1.74-4.52s10.22-4.8 13.22-4.8c5.28 0 14 5.46 7.74 7.46-3.48-5.74-7.11-2.59-19.22 1.86zm14.48 13.83c-.5-7.71-8.49-8.51-14.48-7.71s-5.25 30.42-5.25 30.42l16.49 5.36c1.5.41 3.73-20.43 3.24-28.07zm-7.24 30.06s6.37-1.59 9.48 0M92.45 181.72a4.11 4.11 0 00-.26.83c-.05.45.04.11.26-.83zm0 0v0z" fill="none" stroke="#000" stroke-miterlimit="10" stroke-width=".82"/><path d="M104.78 162.29c0 .09-10.42 14.76-12.32 19.4 1.06-4.72 5-23.9 7.37-27.73 2.85-4.61 24.15-32.28 29.31-35.47s25-7.09 28.46-7.09 2.16-4.26-3-6.56-10.15-3.55-13-2.67-.83-8.84 23 1.07c2.91-10.18 7.39-14 16.81-17.55-.18.19-9.65 15.39-9.65 18.62s1.66 0 1.66 0 20.47-17.38 41.94-11.71c27.91 7.38 49.63 10.48 67.23 50.9-17.32-4.84 3.44-3.14-.67 22.45-3.18 19.82-13.63 36.33-13.63 37.22m-21.63-73.69s-12.19 14.9-17.84 16.5m17.97 8.51a91 91 0 0010-5.85m18.79-7.09s-3.83-7.8-7.65-12.07m-95.69-2.3s6.49 9.4 16.31 9.93m-26.3 20.58s-8.31-.54-11.31-1.78M130.47 166s-12.29 29.46-6.55 39.59" fill="none" stroke="#000" stroke-miterlimit="10" stroke-width=".82"/><path d="M113.33 147.4l-8.55 14.89c-3 18.7-4.45 18.88 2.68 40.52m91.07 8.68c0 11-12.74 11-12.74 0s12.74-11 12.74 0zm46.73 7.51c0 11-11.39 11-11.39 0s11.39-11 11.39 0z" fill="none" stroke="#000" stroke-miterlimit="10" stroke-width=".82"/><path d="M192.71 208.79c0 4.09-4.12 4.09-4.12 0s4.12-4.09 4.12 0zm47.74 7.99c0 4-3.56 4-3.56 0s3.56-4.02 3.56 0z" fill="none" stroke="#000" stroke-miterlimit="10" stroke-width=".82"/><path d="M492.08 502.72l-44.93 78.79s-14.31-20.57-28-22.33-19.47-1.07-19.47-1.07c-1.06-9.44-8.57-15-14.9-21.71l2.4-13.4c14.53 16.67 14 20.85 15.67 29.79.08 0 23.62-4.61 27.95 0s16.31 18.44 16.31 18.44c48.03-80.31 41.56-72.34 44.97-68.51z" fill="#c4c2bb" stroke="#000" stroke-miterlimit="10" stroke-width=".82"/><path d="M402.92 552.78c-.08 0 0 0-1.7-8.51-1.33-6.73-14-21.27-14-21.27l1.56-8.73 26.08 10.86 4.33-10.46c-21.52-51.86-21.38-49.56-19.47-50.37 8.67-5 12.35-8 12.48-8 23.73 12.64 24.85 17 29.29 27.17 0 0 17.64-.27 24 2.06s20.31 9.43 21 10.49c.35.56 1.9 2.38 3.28 4l-42.55 71.21s-12-13.83-16.31-18.44-27.05-.18-27.99-.01z" fill="#e1dfd2" stroke="#000" stroke-miterlimit="10" stroke-width=".82"/><path d="M419.19 514.67l-71.56-30.33-16.14-54.79 2.83-4c4.71 7.32 8.94 13.61 10.48 15.08 4.16 4 20.48 16.92 28 18.51 12.58 2.69 12.37 10.05 25.72 5.61z" fill="#fe7088" stroke="#000" stroke-miterlimit="10" stroke-width=".82"/><path d="M342.47 495c-18.92-63.83-17.61-56.1-11-65.43l16.14 54.79 71.56 30.33-4.33 10.46z" fill="#e1dfd2" stroke="#000" stroke-miterlimit="10" stroke-width=".82"/><path fill="#94b973" stroke="#000" stroke-miterlimit="10" stroke-width=".82" d="M388.78 514.27l-9.86 55.19-48.21-62.95 8.35-23.02 3.41 11.49 46.31 19.29z"/><path d="M330.71 506.51l48.21 63-10.65 5.32-46.69-61.71c3.94-16.46 5.55-24.81 12.74-45.58l4.75 16z" fill="#e1dfd2" stroke="#000" stroke-miterlimit="10" stroke-width=".82"/><path fill="none" stroke="#000" stroke-miterlimit="10" stroke-width=".82" d="M398.48 464.76l20.71 49.91-4.33 10.46-72.39-30.15-8.15-27.49"/><path fill="none" stroke="#000" stroke-miterlimit="10" stroke-width=".82" d="M331.49 429.55l16.14 54.79 71.56 30.33m-30.41-.4l-9.86 55.19-48.21-62.95 8.35-23.02"/><path fill="none" stroke="#000" stroke-miterlimit="10" stroke-width=".82" d="M326.33 493.21l-4.75 19.86 46.69 61.71 10.65-5.32m33.28-113.14c.11 0 20.71 10.78 24.3 17.38s5 9.79 5 9.79 17.64-.27 24 2.06 20.31 9.43 21 10.49 4.87 5.79 5.66 6.68l-44.93 78.79s-14.31-20.57-28-22.33-19.47-1.07-19.47-1.07c-1.06-9.44-8.57-15-14.9-21.71"/><path d="M402.92 552.78c.94-.17 23.68-4.5 27.92 0s16.31 18.44 16.31 18.44L489.7 500" fill="none" stroke="#000" stroke-miterlimit="10" stroke-width=".82"/><path d="M440.49 489.3c-3.64 7.95-30 63.49-37.6 63.49-1.71-8.94-1.14-13.12-15.67-29.79" fill="none" stroke="#000" stroke-miterlimit="10" stroke-width=".82"/></svg>