<svg xmlns="http://www.w3.org/2000/svg" viewBox="0 0 1400 780"><path fill="#cccec3" d="M0 0h1400v780H0z"/><path fill="#e5e5e5" d="M488.14 604.68L621.59 734.9l431.75-28.96v.02l-13.59 73.55H558.94l-59.86-70.8-10.94-104.03z"/><path fill="#bc5f5a" d="M1075.21 675.34v29.14l-21.87 1.46-431.75 28.96-133.45-130.22-6.82-6.66v-24.08l140.69 130.54 453.2-29.14z"/><path fill="#ca6f6c" d="M1075.21 675.34l-453.2 29.14-140.69-130.54 391.63-26.61 202.26 128.01z"/><path fill="none" stroke="#000" stroke-miterlimit="10" stroke-width=".97" d="M481.32 573.94l140.69 130.54 453.2-29.14-202.26-128.01-391.63 26.61z"/><path fill="none" stroke="#000" stroke-miterlimit="10" stroke-width=".97" d="M1075.21 675.34v29.14l-21.87 1.46-431.75 28.96-133.45-130.22-6.82-6.66v-24.08m558.43 205.57l13.59-73.55m-565.2-101.28l10.94 104.03 59.86 70.8"/><path fill="none" stroke="#000" stroke-linecap="round" stroke-width=".97" d="M558.94 779.51h480.81"/><path d="M345.54 779.51h186.24c4.08-26.61 8.55-71.81 8.88-85.58.42-16.77-12.68-99.41-12.27-108.83s-4.09-27-4.09-27c-15.75 12.54-29.49 15.2-40.79 16.38-16.77 1.76-32.61 4.35-48.8-2.06-17.59-6.95-27.82-15.95-36.82-14.32s-38.05 5.73-44.6 8.59a39 39 0 01-10.63 3.31c12 71.62 16.42 84.35 6.95 128.87-4.16 19.49 1.92 53.91-4.07 80.64z" fill="#5f9dc4" stroke="#000" stroke-miterlimit="10" stroke-width=".97"/><path d="M805.88 270.11c11.89 29.24 4.12 35.06-21.79 102.8-8 20.88 3.95 41.68 4.09 43.55-27.68 20.84-41.82 33.87-61 7.58-3.26-4.49-4.5-16.15-9.08-35.18s18.09-82.26 18.09-82.26c31.81-22.8 30.73-20.7 69.69-36.49z" fill="#179780" stroke="#000" stroke-miterlimit="10" stroke-width=".97"/><path d="M790.85 495c-4 3.73-15.69 10.5-20.46 13.1 0 0-35.6-12.93-43-17s-26.59-21.05-30.07-24.94-24.88-39.36-25.55-40.46c.12.12.78.56 2.53-3.1 3.9-8.19-.79-3.47-3.38-7.7a31.23 31.23 0 003.38-.49c3.78-.81 2.77 0 1.54-3.27s-6.75-3.07-6.75-3.07V345.5l35.19 12 18.16-44.13 13.75-6.78s-22.68 63.24-18.09 82.26 5.9 30.7 9.12 35.15c19.25 26.44 33.34 13.21 61-7.58 1.62 16.71-4.62 18.36-2.37 26.38 0 .1-14.35 5-17.47 7-2.86 1.84-5.72 1-3.07 5.72s8.35 12.48 8.35 12.48c12.28-12.33 11.84-11.91 18.66-15.16 8.37 9.66 8 9.53 8 22.31.04 5.66-4.57 15.28-9.47 19.85z" fill="#6e4e28" stroke="#000" stroke-miterlimit="10" stroke-width=".97"/><path d="M722.22 207.93c5-5 46.06 7 53 11.56 8 5.21 23.32 32.52 30.69 50.62-73.76 29.89-41 22.35-83.4 43.27C683.25 271.2 680.54 271.19 658 260c1.54-1.54 9.32-3.68 2.21-5.83s-22.77.61-24.6 2.76-5.3 5.31-5.52 5.52c10.76-20.55 15.13-18.92 67.8-47 2.32-1.23 6.93-4.45 24.33-7.52zm70.1 244.94c-6.75 3.22-6.13 2.58-18.66 15.16 0 0-5.73-7.78-8.39-12.49s.21-3.88 3.07-5.72 17.47-7 17.47-7c.98 3.52 3.6 6.71 6.51 10.05z" fill="#179780" stroke="#000" stroke-miterlimit="10" stroke-width=".97"/><path d="M770.39 508.12c-16.1 6.39-19-3.1-33.14-5.94-9.2-1.83-29.26-16.77-34.37-21.35-4.75-4.25-30.7-44.07-34.16-49.42-1.35-6.78-6.9-5.72 3.07-5.72.1.09 22 36.51 25.57 40.49s22.71 20.87 30.07 24.94 42.96 17 42.96 17z" fill="#cccfd6" stroke="#000" stroke-miterlimit="10" stroke-width=".97"/><path d="M760.22 213.54c-26.8-8.2-31.14-6.82-38-5.62.33-.13 1-.69-3.2-2.74-5-2.44-8.89.49-13.19 1.73s-8 8.54-8 8.54c-6.62 3.53-21.87 11.49-33.69 17.64.17-.49 5.51-16.45 8.83-21.27s4.61-13.2 10-17.81 11.46-1.83 15.45-4.29c20.82-12.8 9.1-14.26 46.64-10.74 15.47 1.45 15.94 18.88 15.16 34.56z" fill="#6e4e28" stroke="#000" stroke-miterlimit="10" stroke-width=".97"/><path d="M722.48 313.38l-18.16 44.13c-78.52-26.81-1.59-1.82-80.3-28.09l1.54-22.82c13-25.65 7.15-11.57 31.81-23.9 4.29-2.15 3.68-7.07-1.84-8s-25.16 4-25.16 4 6.75-10.42 11.35-12.27 14.73-4.9 16.26-6.44c22.07 11.01 25.11 11.01 64.5 53.39z" fill="#179780" stroke="#000" stroke-miterlimit="10" stroke-width=".97"/><path d="M686.52 500.35c4.38 14.42 4.46 8.79-1.43 24.75-20.43 8.51-19.33-11.87-18.38-34 17.36 6.7 14.43 4.59 16.33 9.23z" fill="#462b0e" stroke="#000" stroke-miterlimit="10" stroke-width=".97"/><path d="M690 463.43l-8.84 11.69-.54-25.6c3.02 4.54 6.28 9.39 9.38 13.91zm-8.67 19.75c6.23 20.6 6.35 17.17 1.71 17.17-1.9-4.63-1.38-1.24-1.71-17.17z" fill="#dd7c00" stroke="#000" stroke-miterlimit="10" stroke-width=".97"/><path d="M685.09 525.1l-2.09 7.54s-17.3-.37-19.9-10.71-5-30.39-3.42-35.29 1.52-34.37 3.42-38.87c1.75-4.17 2.14-15 .45-22.08h2.29s2.43 3.67 2.84 5.72c.35 1.77-4 75.49-1.23 87.55 2.91 12.28 17.64 6.14 17.64 6.14z" fill="#cccfd6" stroke="#000" stroke-miterlimit="10" stroke-width=".97"/><path d="M650.72 525.1s-5.32 1.22-11.86 2.45S627 502.39 627 502.39c0-46.14 2.61-73.05 1.63-81.51-6.52-56.44-9.07-24.66-4.61-91.46l36.52 12.19c0 .87-.73 34.71.56 63.61.79 19.22 6.27 32.49 2 42.55-1.9 4.5-1.78 34-3.42 38.87s.82 25 3.42 35.29 19.9 10.71 19.9 10.71c-4.27 13.15.75 7.4-16.36 8.82-4.87.41-15.92-16.36-15.92-16.36z" fill="#6e4e28" stroke="#000" stroke-miterlimit="10" stroke-width=".97"/><path d="M681.61 496.87l-14.9-5.75c0-.1 2-59.61 2-59.71 15.2 23.46 11.68 7.29 12.9 65.46z" fill="#e1dfd2" stroke="#000" stroke-miterlimit="10" stroke-width=".97"/><path d="M675.88 411.16c.78 2.07 4.61 3.85-14.12 4.31-.3-3.13-.51-6.69-.66-10.25l8 2.87s5.56-.2 6.78 3.07z" fill="#777674" stroke="#000" stroke-miterlimit="10" stroke-width=".97"/><path d="M674.34 422.62c-1.89 3.95-1.25 3.07-8.46 3.07-2 0-3 1.22-4.12-10.22 0 0 5.1-.12 9.2-.55 2.62 4.28 7.31-.55 3.38 7.7z" fill="#777674" stroke="#000" stroke-miterlimit="10" stroke-width=".97"/><path d="M669.13 345.5v62.59l-8-2.87c-1.29-28.9-.53-62.74-.56-63.61z" fill="#cccfd6" stroke="#000" stroke-miterlimit="10" stroke-width=".97"/><path d="M630.07 262.44c.22-.21 3.73-3.44 5.52-5.52s17.49-4.91 24.6-2.76c9.81 3-10 8.9-18.47 12.27-4.6 1.85-11.35 12.27-11.35 12.27s19.64-4.9 25.16-4 6.13 5.83 1.84 8-8.9 4.9-17.49 6.13-14.32 17.68-14.32 17.77c-3.25 6.31-10.91 9.56-17 11.08-8.56 20.62-11.63 24.32-65.03 83.45-50.12 14.65-50.12 10.44-70.77 10.44 0 0-30.48-8-18.21-31.3 17.63-33.51 15.9-29.48 66.05-25.09 3.62.32 1.27 1.7 29.75-22.16 59.95-50.13 65.67-95.2 98.43-100.64 4.54-.76 2.79 5.77-.28 8.88-7.26 7.46-9.22 3.6-18.43 21.18z" fill="#fadcc2" stroke="#000" stroke-miterlimit="10" stroke-width=".97"/><path d="M627 475.18v27.21c-9.59 17-11.71 57.61-18 68.12-3.68 6.13-13.49 17.59-20.86 19.5s-16.78-6.82-23.73-10.91-6.14-55.64-4.91-88c.89-23.34-7.21-69.59-16-90 19.5-21.54 26.5-29.72 26.64-29.72-1.14 14.38 6.18 44.44 9.39 58 7.13 29.9-5.85 66.22-2 112.91 3.47 41.59 19.73 34.27 24.07-.4 2.89-22.89 25.4-66.71 25.4-66.71z" fill="#714e30" stroke="#000" stroke-miterlimit="10" stroke-width=".97"/><path d="M617.78 135.82c22 15.31-7.52 71.4-9.19 71 2-8.49 3.5-19-4.91-37.26-2.46-5.33-21.28-18.82-21.28-18.82-14.61-1.12-15 .29-22.09-9.83-16.91 0-19.53-7-49.5-10.22-7.88 15.74-6.43 18.84-32.33 23.73-4.68 14.74-16.76 28.41-28.23 37.22-10.64 8.18-5.48 31.92-5.48 31.92s-6-4.51-8-8.13c-2.23-3.89-16.14-17.52-25.63-8.95-.09-.1-7.21-20.68-6.56-26.29s3.14-19.81 3.25-20.44c-.43.57-12.93 17.33-15.14 22.36 1.3-5.45 6.15-27.56 9.07-32 3.5-5.32 29.68-37.23 36-40.91s30.68-8.18 35-8.18 2.66-4.91-3.69-7.57-12.47-4.09-15.95-3.07-1-10.21 28.23 1.23c3.56-11.75 9.08-16.14 20.65-20.25-16.44 24.45-11.84 25.32-9.81 21.48 0 0 25.16-20.05 51.55-13.51 34.31 8.52 61 12.09 82.64 58.72z" fill="#423d39" stroke="#000" stroke-miterlimit="10" stroke-width=".97"/><path d="M625.56 398.06c-8.95 1.82-36.74 7.16-38.46 7.16-.41 0 .83-18.82 2.46-25.77s14.73-24.34 14.73-24.34c14.73-2 10.73-1.32 18.21-2.86-.37 18.49-2.75 17.29 3.06 45.81z" fill="#fadcc2" stroke="#000" stroke-miterlimit="10" stroke-width=".97"/><path d="M613.49 344.27a10.08 10.08 0 013.07 9.2l-12.27 1.64s-13.1 17.39-14.73 24.34-2.87 25.77-2.46 25.77 23.32-4.09 23.32-4.09c-1.21 7.34-6.85 10.43-13.7 13.3H576c-9.21-41.39-4.76-43.05-5.9-43.05 0-.1 20.89-23.42 25.56-29.77 1.77-2.41 1.74-2.66 1.84-2.66 6.88-.11 9.18-.84 15.99 5.32z" fill="#7a696f" stroke="#000" stroke-miterlimit="10" stroke-width=".97"/><path d="M613.9 239.94c.41 7-10.12 22.9-10.12 22.9-.49-21.34-3.81-19.82-.1-38.85a24.59 24.59 0 015.17 1.22c1.9.79 4.64 7.79 5.05 14.73z" fill="#fadcc2" stroke="#000" stroke-miterlimit="10" stroke-width=".97"/><path d="M603.68 169.58c17.61 38.22-7.29 50.29-1.24 76.09 1.24 5.24 1.44 19.1 1.44 24.44-.82 0-15.29 7.52-21.89 18.24-7 11.32-17.59 23.27-18 28.37a24 24 0 01-10.63 3.41c-30.73 2.07-38.36 13.55-89.18-15.55-19.18-12.93-23.41-20.58-29.07-47.86 0 0-8.18 1.22-13.9-2.05s-23.32-24.55-13.91-42.95c5.55-10.84 14.82-9.88 24.05-2.08 6.47 5.47 5.26 7.79 13.42 13.94 0 0-5.16-23.74 5.48-31.92 10.9-8.38 23.44-22.13 28.23-37.22 26.21-4.95 24.62-8.31 32.33-23.73 29.41 3.19 33 10.22 49.5 10.22 7.2 10.3 7.64 8.72 22.09 9.83 0 0 18.82 13.49 21.28 18.82zm-9.83 19.23c7.7-2.32-3.06-8.6-9.51-8.6-3.68 0-16.26 5.53-16.26 5.53l2.15 5.21c13.34-4.59 19.15-9.07 23.62-2.14zm-8.9 8.92c-5.21-2.18-13-.64-14.72.28-7.36.92-6.45 35.09-6.45 35.09l20.22 6.18c.33.08 14.48-35.94 1-41.55zm-55.67-17.52l1.71-5.73s-8.32-4.9-23.58-9.4c-20.16-6-34.38 15.65-13 7.35 12.71-4.9 34.87 7.78 34.87 7.78zm-6.2 48.28c1.36-10.44 5.29-45.62-5.32-46-4.45-.16-14.27.31-17.49 3.07-13.28 11.36-10.88 9.8-12.28 20.8a34 34 0 00-.1 14.74z" fill="#fadcc2"/><path d="M603.88 270.11v3.84c-30.78 40.72-29.08 38.29-42.35 49.62.44-.46 2.09-2.43 2.45-6.85.42-5.1 11-17.05 18-28.37 6.24-10.13 20.76-18.24 21.9-18.24z" fill="#714e30" stroke="#000" stroke-miterlimit="10" stroke-width=".97"/><path d="M593.85 188.81c-4.27-6.62-8.7-3-23.62 2.14l-2.15-5.21s12.58-5.53 16.26-5.53c6.5 0 17.2 6.29 9.51 8.6z" fill="#423d39" stroke="#000" stroke-miterlimit="10" stroke-width=".97"/><path d="M585.91 233.7c1.37-7.54 2.53-20.7 2.11-26.79-.61-8.9-10.43-9.83-17.79-8.9 1.69-.92 9.51-2.46 14.72-.28 10.2 4.27 4.94 25.67.96 35.97z" fill="#8d8c92"/><path d="M588 206.91c.6 8.66-2.13 32.85-4 32.37l-20.26-6.18s-.91-34.17 6.45-35.09 17.22-.01 17.81 8.9zm-7.51 18.22c0-12.71-14-12.71-14 0s14.02 12.7 14.02 0z" fill="#fff" stroke="#000" stroke-miterlimit="10" stroke-width=".97"/><path d="M573.52 215.53c9.25 0 9.25 19.2 0 19.2s-9.27-19.2 0-19.2zm1.08 7.07c0-4.63-4.37-4.63-4.37 0s4.37 4.63 4.37 0z" fill="#060606" stroke="#000" stroke-miterlimit="10" stroke-width=".97"/><path d="M572.42 219.1c2.89 0 2.89 7 0 7s-2.9-7 0-7z" fill="#fbfbfb" stroke="#000" stroke-miterlimit="10" stroke-width=".97"/><path d="M532.89 329.42l17.46 3.6c-39.45 33.05-32.6 28.13-17.46-3.6zM525 479.69c-5.32 58.12 10.39 80.89-.72 77.32 0 0-18 14.32-36.41 16s-35.46 5.38-53.18-1.63-27.82-16-36.82-14.32-38.05 5.73-44.6 8.58a39.32 39.32 0 01-10.63 3.28c-1.16-6.9.82-80.59 5.72-129.08s22.71-80.39 30.69-95.72c7.12-13.71 16.39-16.28 76.71-30.69 0 0 23.32 26.38 29.66 28.23s6.58 11 6.58 11c-18.84 0-20.73-4.14-37.43 27.61-12.27 23.32 18.21 31.3 18.21 31.3 20.54 0 20.59 4.23 70.77-10.44l3.68 8.59s-9.2 30.07-16 40.51c-4.77 7.44-5.95 29.2-6.23 29.46z" fill="#7a696f" stroke="#000" stroke-miterlimit="10" stroke-width=".97"/><path d="M550.29 320.77c-6.87 2.12-17.4 8.65-17.4 8.65l-12.29 25.76-28.6-2.52s-.2-9.21-6.54-11.05-29.66-28.23-29.66-28.23c7-2.32 5-.45 8.39-8.8 37.02 21.21 49.12 22.12 86.1 16.19z" fill="#fadcc2" stroke="#000" stroke-miterlimit="10" stroke-width=".97"/><path d="M531 174.48l-1.71 5.73s-22.16-12.68-34.84-7.78c-21.41 8.3-7.19-13.31 13-7.35 15.22 4.5 23.55 9.4 23.55 9.4z" fill="#423d39" stroke="#000" stroke-miterlimit="10" stroke-width=".97"/><path d="M523.08 228.49l-35.19-7.37c-6.24-28.44 24.32-45.32 35.19-32.31 4.07 4.87.82 33.42 0 39.68zm0-12c0-12.69-15.67-12.69-15.67 0s15.67 12.71 15.67.01z" fill="#fff" stroke="#000" stroke-miterlimit="10" stroke-width=".97"/><path d="M523.59 189.61c-2.44-4.88-12.64-8.11-23.83-.8-13.13 8.55-12.74 27.74-11 10.73.67-6.43 8.29-11.2 11.51-14s13-3.23 17.49-3.07c4.24.19 5.74 6.68 5.83 7.14z" fill="#8d8c92"/><path d="M515.25 206.91c10.36 0 10.36 19.19 0 19.19s-10.37-19.19 0-19.19zm.67 6.48c0-4.72-5.07-4.72-5.07 0s5.07 4.72 5.07 0z" fill="#060606" stroke="#000" stroke-miterlimit="10" stroke-width=".97"/><path d="M513.39 209.82c3.34 0 3.34 7.14 0 7.14s-3.39-7.14 0-7.14z" fill="#fbfbfb" stroke="#000" stroke-miterlimit="10" stroke-width=".97"/><path d="M389.3 570.51s-23.32 22.09-34.78 25M470.3 579.1c-.33 4.89-2.28 31-4.91 35.18m18.41-38.05c-6.16 27.77-9.54 23.24-15.95 27.57M492 584.82s-8.58 12.29-13.08 13.92m17.16 5.06c-22.49 20.82-33.84 10.54-47.87 17m-2.76 156.8c7.19-97 15.57-141.24 27.31-160.45m-4.5 7.37s12.27-4.51 17.18-3.69M524.3 557c11.1 3.57-4.59-19.28.72-77.32 3.61-39.47 5.58-15.66 22.19-70l-3.68-8.59c-50.12 14.65-50.12 10.44-70.77 10.44 0 0-30.48-8-18.21-31.3 16.7-31.75 18.59-27.61 37.43-27.61 0 0-.2-9.21-6.54-11.05s-29.66-28.23-29.66-28.23c-60.49 14.45-69.62 17-76.71 30.69-8 15.33-25.78 47.25-30.69 95.72S341.5 562 342.66 568.87" fill="none" stroke="#000" stroke-miterlimit="10" stroke-width=".97"/><path d="M519 540.44s-31.91 17.18-62 10.43-30.08-19.63-47.87-25.77-37.23-12.28-37.23-12.28m47.67-76.1s11.13 74.26 25.2 85.92m51.31 2.46l28.95-45.42m-52.27-68.11s-4.71 10.43-21.27 9.2-9.21-12.27-25.78-14.77-26.39-6.74-28.23-8m87.96-56.39c-29.27-3-31.47-3.46-53.27-8.59m111.36 68.11c52.38-58 56.2-62.26 65.05-83.45 6.38-1.6 13.74-4.74 17-11.08 13.1-25.62 7.15-11.57 31.81-23.9 4.29-2.15 3.68-7.07-1.84-8s-25.16 4-25.16 4 6.75-10.42 11.35-12.27c8.12-3.24 28.42-9.27 18.47-12.27-7.11-2.15-22.77.61-24.6 2.76s-5.42 5.42-5.53 5.53c9.22-17.6 11.08-13.69 18.44-21.19 3.08-3.15 4.81-9.64.28-8.88-29.89 5-48.85 58.42-87.25 91.19" fill="none" stroke="#000" stroke-miterlimit="10" stroke-width=".97"/><path d="M547.21 409.72s13.51 49 12.28 81.4-2 83.89 4.91 88 16.36 12.84 23.73 10.91 17.18-13.37 20.86-19.5c6.52-10.87 8.09-50.53 18-68.12v-27.23s-22.5 43.82-25.36 66.69c-4.39 35.08-20.62 41.66-24.07.4-3.89-46.8 9.16-82.74 2-112.91-3.22-13.62-10.53-43.6-9.39-58" fill="none" stroke="#000" stroke-miterlimit="10" stroke-width=".97"/><path d="M576 414.43h20.68s10.23-4.29 11.86-8.18c2.91-6.92-1.73-4.39 17-8.19-10.07-49.45 4.61-47.39-9-44.59a10.08 10.08 0 00-3.07-9.2c-7.35-6.65-9.7-5.32-16-5.32" fill="none" stroke="#000" stroke-miterlimit="10" stroke-width=".97"/><path d="M616.56 353.47l-12.27 1.64s-13.1 17.39-14.73 24.34-2.87 25.77-2.46 25.77 23.32-4.09 23.32-4.09m15.14-94.53l-3.06 45.65m4.5 122.93c2.91-56.3 2.14-52.08-1.44-77.12" fill="none" stroke="#000" stroke-miterlimit="10" stroke-width=".97"/><path d="M627 502.39s5.31 26.39 11.86 25.16 11.86-2.45 11.86-2.45 11 16.77 16 16.36c17.08-1.42 12.09 4.32 16.36-8.82 0 0-17.3-.37-19.9-10.71s-5-30.39-3.42-35.29 1.52-34.37 3.42-38.87c4.34-10.34-1.18-22.54-2-42.55-1.24-28.9-.53-62.74-.56-63.61L624 329.42m16.49 183.4l10.23 12.28" fill="none" stroke="#000" stroke-miterlimit="10" stroke-width=".97"/><path d="M683 532.64l2.05-7.54s-14.73 6.14-17.6-6.14c-2.75-11.84 1.48-86.31 1.23-87.55-.41-2.05-2.84-5.72-2.84-5.72h-2.29m-3.01-84.08l8.59 3.89v62.59l-8.03-2.87m7.62 26.19c3.47 5.37 29.42 45.19 34.16 49.42 5.11 4.58 25.17 19.52 34.37 21.35 15.3 3.07 16.62 12.49 33.14 5.94 0 0-35.6-12.93-43-17s-26.59-21.05-30.07-24.94-24.88-39.36-25.55-40.46" fill="none" stroke="#000" stroke-miterlimit="10" stroke-width=".97"/><path d="M669.13 408.09s5.53-.2 6.75 3.07c.78 2.07 4.61 3.85-14.12 4.31" fill="none" stroke="#000" stroke-miterlimit="10" stroke-width=".97"/><path d="M665.88 425.69c7.27 0 6.61.8 8.46-3.07 3.9-8.19-.79-3.47-3.38-7.7m99.43 93.2c13.94-7.62 30-17.06 30-32.94 0-12.78.35-12.66-8-22.31-14.6-16.8-1.3-15.68-4.23-37.4 0 0-12-21.7-4-42.56s23.94-62 25.47-66c9.68-25.12-24.49-81-34.37-87.44-7.8-5.1-38.43-12.58-44.49-12.58a57.26 57.26 0 00-8.46 1" fill="none" stroke="#000" stroke-miterlimit="10" stroke-width=".97"/><path d="M760.22 213.54c.81-15.67.27-33.11-15.09-34.56-37.55-3.53-25.83-2-46.64 10.74-4 2.46-10-.3-15.45 4.29s-6.64 12.9-10 17.81c-3.66 5.33-8.69 21.13-8.84 21.28" fill="none" stroke="#000" stroke-miterlimit="10" stroke-width=".97"/><path d="M697.87 215.45s3.68-7.32 8-8.54 8.22-4.17 13.19-1.73c1.33.65 4.52 2.41 3.09 2.77-19.81 3.53-16 3.3-73.66 33.33m20.64 104.22l35.19 12 18.16-44.13 13.75-6.78s-22.68 63.24-18.09 82.26 5.86 30.7 9.08 35.15c19.25 26.44 33.34 13.21 61-7.58m-2.41 26.42c0 .1-14.35 5-17.47 7-2.86 1.84-5.72 1-3.07 5.72s8.39 12.44 8.39 12.44c12.28-12.33 11.84-11.91 18.66-15.16M790.85 495s-39.48-3.48-55.44-19.84-22.09-27.82-22.09-27.82m-9-89.83c-14.54 64 0 53.83 0 68.28m18.16-112.41C683.25 271.2 680.54 271.19 658 260m78.23 46.6c31.76-22.8 30.69-20.7 69.65-36.49M685.09 525.1c5.89-16 5.81-10.33 1.43-24.75-4.38 0-3.11.9-4.91-3.48l-14.9-5.75m13.91-41.6l.99 47.35m-.49-21.69l8.88-11.75m-3.48 36.92l-5.2-17.19M550.35 333.02l-17.46-3.6-12.29 25.76m29.69-34.41h0zm-17.4 8.65c21.84-13.55 22.62-7.06 31.09-12.7m-108.2-3.34c7-2.32 5-.45 8.39-8.8-19.17-12.93-23.4-20.58-29.06-47.86-25.94 3.88-38.72-37-24-50.22 9.18-8.25 23.06 4.48 25.63 8.95 2 3.62 8 8.13 8 8.13s-5.16-23.74 5.48-31.92c10.9-8.38 23.44-22.13 28.23-37.22 26.21-4.95 24.62-8.31 32.33-23.73 29.41 3.19 33 10.22 49.5 10.22 7.2 10.3 7.64 8.72 22.09 9.83 0 0 18.82 13.49 21.28 18.82 9.64 20.93 7.33 33.1 0 54.41-4.17 21.38.43 15 .2 50" fill="none" stroke="#000" stroke-miterlimit="10" stroke-width=".97"/><path d="M603.78 262.84s10.53-15.94 10.12-22.9-3.15-13.91-5-14.73a24.59 24.59 0 00-5.17-1.22m-.05 46.12S589 277 582 288.35s-17.59 23.27-18 28.37c-.51 6.33 1.72 4-40.7 38.7l-31.3-2.76m58.35-70.57c-11.49-9.46-18.74-4.67-38.73-6.21m23.86 6.21s-8.31-1.65-9.54 0m9.54 31.29s-5.85 5.93-12.4 5.93M557 241.58s-5.74-5.32-16.78-4.5M488 206.49a33.39 33.39 0 00-.08 14.63l35.19 7.37s4.15-31.5.52-38.85c-5-10.11-30.27-5.88-35.61 16.74m8.87 22.11s-3.68-6.14-20-4.5m52.39-43.78s-22.16-12.68-34.84-7.78c-21.41 8.3-7.19-13.31 13-7.35 15.26 4.5 23.58 9.4 23.58 9.4zM570.23 191l-2.15-5.21s12.58-5.53 16.26-5.53c6.5 0 17.2 6.29 9.51 8.6-4.27-6.67-8.7-3.05-23.62 2.14zM588 206.91c-.61-8.9-10.43-9.82-17.79-8.9s-6.45 35.09-6.45 35.09l20.24 6.18c1.89.47 4.63-23.56 4-32.37zm-8.88 34.67s7.83-1.84 11.66 0m-198.11-59.42a4.26 4.26 0 00-.31 1c-.07.5.05.09.31-1zm0 0v0z" fill="none" stroke="#000" stroke-miterlimit="10" stroke-width=".97"/><path d="M407.83 159.75c0 .1-12.8 17-15.15 22.38 1.3-5.45 6.15-27.56 9.07-32 3.5-5.32 29.68-37.23 36-40.91s30.68-8.18 35-8.18 2.66-4.91-3.69-7.57-12.47-4.09-15.95-3.07-1-10.21 28.23 1.23c3.56-11.75 9.08-16.14 20.65-20.25-.21.22-11.86 17.76-11.86 21.48 0 3.88 2.05 0 2.05 0s25.16-20.05 51.55-13.51c34.31 8.52 61 12.09 82.64 58.72-21.29-5.58 4.23-3.63-.82 25.89-3.91 22.87-16.76 41.91-16.76 42.94m-26.56-84.99s-15 17.19-21.92 19m22.09 9.85a112.67 112.67 0 0012.27-6.76m23.11-8.18s-4.7-9-9.4-13.91m-117.62-2.65s8 10.84 20.05 11.45m-32.33 23.73s-10.22-.61-13.91-2.05M439.41 164s-15.1 34-8.06 45.67" fill="none" stroke="#000" stroke-miterlimit="10" stroke-width=".97"/><path d="M418.34 142.58l-10.51 17.17c-3.71 21.57-5.47 21.78 3.29 46.74m111.96 10.01c0 12.7-15.67 12.7-15.67 0s15.67-12.69 15.67 0zm57.43 8.63c0 12.7-14 12.7-14 0s14-12.71 14 0z" fill="none" stroke="#000" stroke-miterlimit="10" stroke-width=".97"/><path d="M515.92 213.39c0 4.72-5.07 4.72-5.07 0s5.07-4.72 5.07 0zm58.68 9.21c0 4.63-4.37 4.63-4.37 0s4.37-4.6 4.37 0z" fill="none" stroke="#000" stroke-miterlimit="10" stroke-width=".97"/><path d="M883.92 552.44l-55.23 90.89s-17.59-23.73-34.37-25.77-23.93-1.23-23.93-1.23c-1.3-10.89-10.54-17.3-18.31-25l2.92-15.5c17.86 19.23 17.16 24 19.26 34.36.1 0 29-5.31 34.36 0s20.05 21.27 20.05 21.27c59.01-92.64 51.06-83.46 55.25-79.02z" fill="#c4c2bb" stroke="#000" stroke-miterlimit="10" stroke-width=".97"/><path d="M774.32 610.18c-.1 0 0 0-2.09-9.81-1.63-7.77-17.23-24.54-17.23-24.54l2-10.07 32 12.52 5.32-12.06c-26.45-59.82-26.28-57.16-23.93-58.1 10.66-5.82 15.18-9.21 15.34-9.21 29.17 14.59 30.55 19.62 36 31.35 0 0 21.67-.32 29.45 2.38s25 10.87 25.77 12.09c.43.64 2.34 2.74 4 4.59l-52.31 82.14s-14.73-16-20.05-21.27-33.12-.19-34.27-.01z" fill="#e1dfd2" stroke="#000" stroke-miterlimit="10" stroke-width=".97"/><path d="M794.32 566.22l-88-35-19.8-63.22 3.48-4.6c5.79 8.44 11 15.71 12.88 17.4 5.11 4.58 25.17 19.52 34.37 21.35 15.46 3.11 15.2 11.59 31.62 6.47z" fill="#fe7088" stroke="#000" stroke-miterlimit="10" stroke-width=".97"/><path d="M700 543.51c-23.27-73.62-21.65-64.71-13.5-75.48l19.84 63.21 88 35-5.34 12.04z" fill="#e1dfd2" stroke="#000" stroke-miterlimit="10" stroke-width=".97"/><path fill="#94b973" stroke="#000" stroke-miterlimit="10" stroke-width=".97" d="M756.95 565.76l-12.13 63.66-59.26-72.61 10.27-26.56 4.19 13.26 56.93 22.25z"/><path d="M685.56 556.81l59.26 72.61-13.09 6.13-57.39-71.18c4.83-19 6.82-28.62 15.66-52.57l5.83 18.46z" fill="#e1dfd2" stroke="#000" stroke-miterlimit="10" stroke-width=".97"/><path fill="none" stroke="#000" stroke-miterlimit="10" stroke-width=".97" d="M768.87 508.65l25.46 57.57-5.33 12.06-88.98-34.77L690 511.8"/><path fill="none" stroke="#000" stroke-miterlimit="10" stroke-width=".97" d="M686.52 468.03l19.84 63.21 87.97 34.98m-37.38-.46l-12.13 63.66-59.26-72.61 10.27-26.56"/><path fill="none" stroke="#000" stroke-miterlimit="10" stroke-width=".97" d="M680.17 541.47l-5.83 22.9 57.39 71.18 13.09-6.13m40.91-130.51c.14 0 25.46 12.44 29.86 20.05 4.5 7.77 6.15 11.3 6.15 11.3s21.67-.32 29.45 2.38 25 10.87 25.77 12.09 6 6.69 7 7.71l-55.23 90.89s-17.59-23.73-34.37-25.77-23.93-1.23-23.93-1.23c-1.3-10.89-10.54-17.3-18.31-25"/><path d="M774.32 610.18c1.15-.2 29.11-5.19 34.32 0s20.05 21.27 20.05 21.27L881 549.32" fill="none" stroke="#000" stroke-miterlimit="10" stroke-width=".97"/><path d="M820.5 537c-4.47 9.17-36.85 73.23-46.22 73.23-2.1-10.31-1.4-15.13-19.26-34.36" fill="none" stroke="#000" stroke-miterlimit="10" stroke-width=".97"/></svg>