<svg xmlns="http://www.w3.org/2000/svg" viewBox="0 0 1400 779.2"><path fill="#44c1f2" stroke="#fcb006" stroke-miterlimit="10" stroke-width="1.75" d="M0-.8h1400v780H0z"/><path d="M697.35 272.24c0 27.76-41.68 27.76-41.68 0s41.68-27.76 41.68 0z" fill="#f2ec19" stroke="#fcb006" stroke-miterlimit="10" stroke-width=".68"/><path d="M666.71 262h4.55a4.32 4.32 0 013.33 1.2 5 5 0 011.11 3.51v9.65a5 5 0 01-1.11 3.52 4.32 4.32 0 01-3.33 1.2h-4.55zm4.49 16.35a1.46 1.46 0 001.13-.43 2.11 2.11 0 00.39-1.42v-9.9a2.1 2.1 0 00-.39-1.42 1.46 1.46 0 00-1.13-.44h-1.51v13.63zm7.41 1.79a5 5 0 01-1.13-3.51v-1.56h2.82v1.69c0 1.26.51 1.89 1.54 1.89a1.39 1.39 0 001.15-.48 2.72 2.72 0 00.4-1.68v-1.55a3 3 0 00-.46-1.87 1.85 1.85 0 00-1.49-.56h-1v-2.72h1.09a1.79 1.79 0 001.34-.47 2.18 2.18 0 00.44-1.55v-1.39a2.17 2.17 0 00-.4-1.45 1.36 1.36 0 00-1.08-.46q-1.44 0-1.44 1.77v1.26h-2.82v-1a5 5 0 011.13-3.52 4.9 4.9 0 016.48 0 5 5 0 011.11 3.5v.68a5.26 5.26 0 01-.51 2.5 3 3 0 01-1.6 1.35V271a3 3 0 011.68 1.42 5.41 5.41 0 01.51 2.51v1.69a5 5 0 01-1.12 3.5 5.11 5.11 0 01-6.63 0z" fill="#fcb006" stroke="#fcb006" stroke-miterlimit="10" stroke-width=".68"/><path d="M565.2 488.51l159.25-276c-42.54-32.21-79.63-100.08-31.85-127.4s119.18-26.82 132.71 31.85c41.42-17.38 80-22.23 111.48 3.53 39.29 27.1 44.13 62.59 23 104.4q-45.87 85.71-134.48 19.47L648.36 554c58.33 14.18 83.18 50.39 54.09 122.1-28.61 36.9-65.74 45.12-112.45 21.21-16.35-15.9-25.52-33.39-24.77-53.08C506 661.93 460 654 436 603.53c-33.34-74.19 43.93-160.3 129.2-115.02z" fill="#dfdec2" stroke="#000f10" stroke-miterlimit="10" stroke-width="8.4"/><circle cx="738.62" cy="293.55" r="37.73" fill="#feffe2" stroke="#b6fbff" stroke-miterlimit="10" stroke-width="11.03"/><path d="M723 304.82a8.82 8.82 0 01-.73-6.51l3.73-18.05a8.85 8.85 0 013.26-5.68 9 9 0 0111.57 2.4 8.86 8.86 0 01.73 6.51l-.74 3.55-5-1 .8-3.89q.64-3.12-2-3.66t-3.27 2.51l-3.89 18.77c-.43 2 .24 3.25 2 3.61s2.85-.47 3.28-2.52l1.06-5.14 5 1-1 4.75a8.83 8.83 0 01-3.26 5.69 9 9 0 01-11.56-2.4zm24.16-19.52l5.36 1.11-1.12 26-4-.82.32-5.15v.07l-4.5-.93-1.74 4.78-3.67-.76zM748 303l.82-12.82h-.08l-4.31 12.09z"/><circle cx="759.23" cy="158.38" r="48.27" fill="#feffe2" stroke="#b6fbff" stroke-miterlimit="10" stroke-width="14.11"/><path d="M741.61 175.61c-1.64-2-2.37-4.66-2.19-8.09l1.22-23.52q.27-5.13 3-7.82t7.69-2.43c3.3.17 5.76 1.24 7.4 3.21s2.36 4.67 2.19 8.09l-.24 4.63-6.52-.34.27-5.07q.21-4.06-3.23-4.25c-2.3-.11-3.52 1.18-3.66 3.9l-1.27 24.48q-.21 4 3.24 4.19c2.3.11 3.51-1.16 3.65-3.83l.35-6.7 6.51.33-.32 6.2c-.18 3.43-1.18 6-3 7.82s-4.4 2.6-7.69 2.43-5.77-1.26-7.4-3.23zm26.76-29.38l7 .36 3.63 33.15-5.17-.26-.6-6.58v.1l-5.87-.3-1.28 6.39-4.79-.25zm4.5 22.27l-1.46-16.37h-.1l-3.09 16.13z"/><circle cx="572.61" cy="567.01" r="31.52" fill="#feffe2" stroke="#b6fbff" stroke-miterlimit="10" stroke-width="9.21"/><path d="M558.31 574.44a7.39 7.39 0 01.17-5.47l5.23-14.48a7.45 7.45 0 013.37-4.31 7.51 7.51 0 019.28 3.35 7.39 7.39 0 01-.17 5.47l-1 2.85-4-1.45 1.12-3.12c.61-1.67.2-2.76-1.21-3.27s-2.42.07-3 1.74l-5.44 15.06q-.9 2.46 1.22 3.23t3-1.7l1.49-4.12 4 1.45-1.37 3.81a7.37 7.37 0 01-3.37 4.31 7.53 7.53 0 01-9.28-3.35zm22.3-13.28l4.31 1.56-4 21.41-3.2-1.13.88-4.23v.06l-3.61-1.3-2 3.74-3-1.06zm-1.42 14.77l2.2-10.5h-.06l-5 9.49z"/><circle cx="653.93" cy="620.94" r="40.62" fill="#feffe2" stroke="#b6fbff" stroke-miterlimit="10" stroke-width="11.87"/><path d="M642.8 638.46a9.51 9.51 0 01-3.33-6.22L636 612.7a9.44 9.44 0 011-7 9.69 9.69 0 0112.52-2.22 9.57 9.57 0 013.33 6.22l.68 3.84-5.41 1-.74-4.21c-.4-2.25-1.56-3.21-3.46-2.87s-2.66 1.63-2.26 3.88l3.6 20.32q.59 3.33 3.45 2.82t2.27-3.83l-1-5.56 5.41-1 .91 5.15a9.54 9.54 0 01-1 7 9.69 9.69 0 01-12.52 2.22zm16.37-29.17l5.81-1 9.28 26.5-4.29.76-1.74-5.28v.08l-4.87.86.16 5.48-4 .7zm7.91 17.41l-4.3-13.14h-.07l.52 13.82z" fill="#151000" stroke="#faffe9" stroke-miterlimit="10" stroke-width=".75"/><circle cx="490.88" cy="567.01" r="40.62" fill="#feffe2" stroke="#b6fbff" stroke-miterlimit="10" stroke-width="11.87"/><path d="M480.79 585.14a9.47 9.47 0 01-3.67-6l-4.58-19.31a9.58 9.58 0 01.59-7 9.69 9.69 0 0112.38-2.93 9.51 9.51 0 013.67 6l.9 3.8-5.34 1.26-1-4.16c-.53-2.22-1.73-3.11-3.62-2.67s-2.56 1.78-2 4l4.75 20.08q.78 3.28 3.6 2.62t2.05-4l-1.3-5.49 5.34-1.27 1.2 5.09a9.51 9.51 0 01-.58 7 9.7 9.7 0 01-12.38 2.93zm14.69-30.05l5.74-1.36L512 579.66l-4.24 1-2-5.17v.07l-4.81 1.14.48 5.46-3.93.93zm8.89 16.91l-5-12.88h-.08l1.3 13.77z" fill="#151000" stroke="#faffe9" stroke-miterlimit="10" stroke-width=".75"/><ellipse cx="636.71" cy="485.48" rx="33.93" ry="33.8" transform="rotate(-80.43 636.69 485.484)" fill="#feffe2" stroke="#b6fbff" stroke-miterlimit="10" stroke-width="9.9"/><path d="M623 496.19a8 8 0 01-.87-5.82l2.8-16.37a8 8 0 012.72-5.22 8 8 0 0110.44 1.76 8 8 0 01.87 5.82l-.55 3.22-4.5-.76.59-3.52c.32-1.89-.31-3-1.9-3.23s-2.54.54-2.86 2.42l-2.87 17q-.47 2.78 1.92 3.18c1.58.27 2.54-.52 2.85-2.38l.78-4.65 4.51.76-.73 4.3a8 8 0 01-2.73 5.22 8.06 8.06 0 01-10.47-1.73zm21-18.36l4.83.81-.14 23.45-3.57-.61.11-4.64v.07l-4.06-.69-1.4 4.36-3.32-.56zm1.32 15.91l.31-11.55h-.07l-3.46 11z"/><circle cx="590.13" cy="281.1" r="31.52" fill="#f2ec19" stroke="#fcb006" stroke-miterlimit="10" stroke-width="1.02"/><path d="M575.3 265.74h6.88a6.57 6.57 0 015 1.81 7.47 7.47 0 011.68 5.28v14.49a7.47 7.47 0 01-1.68 5.28 6.54 6.54 0 01-5 1.81h-6.88zm6.8 24.57a2.2 2.2 0 001.7-.65 3.12 3.12 0 00.59-2.13v-14.91a3.12 3.12 0 00-.59-2.13 2.2 2.2 0 00-1.7-.65h-2.29v20.47zm11.2 2.69a7.53 7.53 0 01-1.7-5.28v-2.33h4.26v2.54c0 1.88.78 2.82 2.33 2.82a2.11 2.11 0 001.74-.72 4 4 0 00.6-2.51v-2.34a4.43 4.43 0 00-.7-2.8 2.75 2.75 0 00-2.25-.84h-1.52v-4.1h1.64a2.73 2.73 0 002-.69 3.31 3.31 0 00.67-2.34v-2.11a3.2 3.2 0 00-.61-2.17 2.07 2.07 0 00-1.64-.7c-1.45 0-2.17.89-2.17 2.66V274h-4.26v-1.51a7.53 7.53 0 011.7-5.28 7.46 7.46 0 019.81 0 7.49 7.49 0 011.68 5.26v1a7.74 7.74 0 01-.78 3.75 4.41 4.41 0 01-2.42 2v.08a4.45 4.45 0 012.54 2.13 8 8 0 01.78 3.76v2.54a7.43 7.43 0 01-1.7 5.26 7.75 7.75 0 01-10 0z" fill="#fcb006" stroke="#fcb006" stroke-miterlimit="10" stroke-width="1.02"/><circle cx="595.26" cy="381.47" r="48.27" fill="#f2ec19" stroke="#fcb006" stroke-miterlimit="10" stroke-width="1.57"/><path d="M572.56 358h10.54c3.42 0 6 .92 7.71 2.76s2.57 4.53 2.57 8.08V391c0 3.56-.86 6.25-2.57 8.09s-4.29 2.76-7.71 2.76h-10.54zM583 395.58a3.31 3.31 0 002.6-1 4.77 4.77 0 00.91-3.26v-22.83a4.77 4.77 0 00-.91-3.26 3.31 3.31 0 00-2.6-1h-3.51v31.35zm17.12 4.08c-1.73-1.89-2.6-4.58-2.6-8.09V388H604v3.89c0 2.88 1.19 4.33 3.57 4.33a3.28 3.28 0 002.67-1.1 6.22 6.22 0 00.91-3.86v-3.57a6.79 6.79 0 00-1.07-4.3 4.26 4.26 0 00-3.45-1.28h-2.32v-6.27h2.51a4.16 4.16 0 003.11-1.07 5 5 0 001-3.57V368a4.91 4.91 0 00-.94-3.32 3.19 3.19 0 00-2.51-1.07c-2.22 0-3.32 1.36-3.32 4.08v2.88h-6.52v-2.32c0-3.51.86-6.21 2.6-8.09s4.23-2.82 7.49-2.82 5.81.93 7.53 2.79 2.57 4.55 2.57 8.06v1.57a11.91 11.91 0 01-1.19 5.73 6.78 6.78 0 01-3.7 3.11v.12a6.93 6.93 0 013.88 3.26 12.26 12.26 0 011.2 5.77v3.89q0 5.26-2.61 8.06t-7.68 2.79q-5-.01-7.61-2.83z" fill="#fcb006" stroke="#fcb006" stroke-miterlimit="10" stroke-width="1.57"/><ellipse cx="739.5" cy="459.61" rx="45.11" ry="45.41" fill="#f2ec19" stroke="#fcb006" stroke-miterlimit="10" stroke-width="1.47"/><path d="M718.28 437.48h9.85c3.2 0 5.61.87 7.21 2.6s2.4 4.27 2.4 7.61v20.89q0 5-2.4 7.61c-1.6 1.73-4 2.59-7.21 2.59h-9.85zm9.73 35.4a3.08 3.08 0 002.43-.94 4.51 4.51 0 00.85-3.07V447.4a4.51 4.51 0 00-.85-3.07 3.08 3.08 0 00-2.43-.95h-3.28v29.5zm15.99 3.84q-2.43-2.66-2.43-7.61v-3.36h6.09v3.65c0 2.72 1.12 4.07 3.34 4.07a3 3 0 002.5-1 5.9 5.9 0 00.84-3.63v-3.36a6.43 6.43 0 00-1-4 3.94 3.94 0 00-3.22-1.21H748v-5.9h2.34a3.84 3.84 0 002.9-1 4.75 4.75 0 001-3.37v-3a4.63 4.63 0 00-.88-3.12 3 3 0 00-2.34-1c-2.08 0-3.11 1.28-3.11 3.84v2.71h-6.1v-2.18q0-4.95 2.44-7.61t7-2.66q4.63 0 7 2.63c1.6 1.75 2.41 4.28 2.41 7.58v1.48a11.22 11.22 0 01-1.12 5.39 6.34 6.34 0 01-3.46 2.93v.01a6.51 6.51 0 013.64 3.07 11.71 11.71 0 011.11 5.43v3.66q0 4.95-2.43 7.58c-1.62 1.75-4 2.62-7.18 2.62s-5.56-.87-7.22-2.64z" fill="#fcb006" stroke="#fcb006" stroke-miterlimit="10" stroke-width="1.47"/><ellipse cx="842.06" cy="424.81" rx="34.56" ry="34.8" fill="#f2ec19" stroke="#fcb006" stroke-miterlimit="10" stroke-width="1.13"/><path d="M825.81 407.86h7.54a7.19 7.19 0 015.52 2 8.29 8.29 0 011.84 5.83v16a8.29 8.29 0 01-1.84 5.83 7.19 7.19 0 01-5.52 2h-7.54zm7.45 27.14a2.37 2.37 0 001.86-.73 3.42 3.42 0 00.65-2.35v-16.46a3.42 3.42 0 00-.65-2.35 2.37 2.37 0 00-1.86-.73h-2.51V435zm12.28 2.92a8.33 8.33 0 01-1.86-5.83v-2.57h4.67v2.8c0 2.08.85 3.12 2.56 3.12a2.34 2.34 0 001.9-.79 4.44 4.44 0 00.66-2.78v-2.58a4.9 4.9 0 00-.77-3.1 3 3 0 00-2.47-.92h-1.66v-4.52h1.8a3 3 0 002.22-.77 3.66 3.66 0 00.74-2.58v-2.3a3.56 3.56 0 00-.67-2.4 2.29 2.29 0 00-1.8-.77c-1.59 0-2.38 1-2.38 2.94V417h-4.67v-1.67a8.33 8.33 0 011.86-5.83 8.16 8.16 0 0110.76 0 8.3 8.3 0 011.84 5.81v1.13a8.62 8.62 0 01-.85 4.14 4.92 4.92 0 01-2.65 2.24v.09a5 5 0 012.78 2.35 8.89 8.89 0 01.86 4.16v2.8a8.26 8.26 0 01-1.87 5.81 8.48 8.48 0 01-11 0z" fill="#fcb006" stroke="#fcb006" stroke-miterlimit="10" stroke-width="1.13"/><path d="M842.06 341.49c0 35.07-52.66 35.07-52.66 0s52.66-35.07 52.66 0z" fill="#f2ec19" stroke="#fcb006" stroke-miterlimit="10" stroke-width=".86"/><path d="M803.35 328.58h5.74a5.46 5.46 0 014.21 1.52 6.29 6.29 0 011.4 4.44v12.19a6.29 6.29 0 01-1.4 4.44 5.46 5.46 0 01-4.21 1.52h-5.74zm5.65 20.66a1.81 1.81 0 001.42-.55 2.64 2.64 0 00.49-1.79v-12.53a2.62 2.62 0 00-.49-1.79A1.82 1.82 0 00809 332h-1.92v17.22zm9.38 2.24A6.32 6.32 0 01817 347v-2h3.56v2.13c0 1.58.65 2.38 2 2.38a1.74 1.74 0 001.45-.61 3.38 3.38 0 00.5-2.11v-2a3.79 3.79 0 00-.58-2.36 2.31 2.31 0 00-1.88-.7h-1.27v-3.45h1.37a2.24 2.24 0 001.69-.58 2.77 2.77 0 00.57-2v-1.76a2.7 2.7 0 00-.52-1.83 1.73 1.73 0 00-1.37-.58c-1.2 0-1.81.75-1.81 2.24v1.58h-3.56v-1.27a6.36 6.36 0 011.42-4.44 5.25 5.25 0 014.09-1.55 5.31 5.31 0 014.11 1.53 6.34 6.34 0 011.4 4.42v.86a6.66 6.66 0 01-.65 3.16 3.68 3.68 0 01-2 1.7v.24a3.76 3.76 0 012.12 1.79 6.84 6.84 0 01.65 3.17v2.13a6.27 6.27 0 01-1.42 4.43 6.47 6.47 0 01-8.38 0z" fill="#fcb006" stroke="#fcb006" stroke-miterlimit="10" stroke-width=".86"/><circle cx="894.1" cy="160.22" r="38.32" fill="#feffe2" stroke="#b6fbff" stroke-miterlimit="10" stroke-width="11.2"/><path d="M883.38 176.62a9 9 0 01-3.08-5.9l-3.06-18.46a9 9 0 011-6.58 9.14 9.14 0 0111.83-2 9 9 0 013.08 5.9l.6 3.63-5.11.85-.66-4q-.53-3.19-3.23-2.74t-2.16 3.68l3.18 19.2q.53 3.15 3.22 2.7t2.18-3.59l-.87-5.26 5.11-.85.81 4.87a9 9 0 01-1 6.57 9.14 9.14 0 01-11.83 2zm15.75-27.33l5.49-.91 8.47 25.08-4.05.68-1.59-5v.07l-4.61.76.1 5.17-3.75.63zm7.28 16.5l-3.92-12.44h-.07l.34 13z"/></svg>