<svg xmlns="http://www.w3.org/2000/svg" viewBox="0 0 700 700"><path fill="#44c1f2" stroke="#fcb006" stroke-miterlimit="10" stroke-width="1.18" d="M0 0h700v700H0z"/><path d="M347.46 242.65c0 25.48-38.26 25.48-38.26 0s38.26-25.48 38.26 0z" fill="#f2ec19" stroke="#fcb006" stroke-miterlimit="10" stroke-width=".62"/><path d="M319.33 233.27h4.18a4 4 0 013.05 1.1 4.6 4.6 0 011 3.23v8.86a4.58 4.58 0 01-1 3.22 3.94 3.94 0 01-3.05 1.1h-4.18zm4.13 15a1.31 1.31 0 001-.4 1.92 1.92 0 00.36-1.3v-9.11a1.92 1.92 0 00-.36-1.3 1.35 1.35 0 00-1-.4h-1.4v12.51zm6.79 1.64a4.61 4.61 0 01-1-3.23v-1.43h2.59v1.56c0 1.15.47 1.72 1.41 1.72a1.27 1.27 0 001.06-.44 2.45 2.45 0 00.36-1.53v-1.43a2.71 2.71 0 00-.42-1.71 1.67 1.67 0 00-1.37-.52h-.92v-2.5h1a1.64 1.64 0 001.23-.42 2 2 0 00.41-1.43v-1.28a2 2 0 00-.37-1.32 1.24 1.24 0 00-1-.43c-.88 0-1.32.54-1.32 1.63v1.15h-2.61v-.93a4.58 4.58 0 011-3.22 4.51 4.51 0 015.95 0 4.63 4.63 0 011 3.22v.63a4.82 4.82 0 01-.47 2.29 2.7 2.7 0 01-1.47 1.24v.05a2.75 2.75 0 011.54 1.3 4.88 4.88 0 01.47 2.3v1.56a4.54 4.54 0 01-1 3.21 4.72 4.72 0 01-6.09 0z" fill="#fcb006" stroke="#fcb006" stroke-miterlimit="10" stroke-width=".62"/><path d="M226.17 441.15L372.33 187.8C333.28 158.24 299.25 96 343.1 70.87s109.37-24.61 121.8 29.24c38-16 73.38-20.4 102.31 3.24 36.06 24.87 40.5 57.45 21.11 95.82Q546.23 277.83 464.9 217L302.5 501.23c53.52 13 76.33 46.24 49.63 112.06-26.25 33.84-60.33 41.43-103.23 19.49-15-14.6-23.42-30.65-22.73-48.72-54.36 16.25-96.56 9-118.55-37.35C77 478.61 147.9 399.59 226.17 441.15z" fill="#dfdec2" stroke="#000f10" stroke-miterlimit="10" stroke-width="7.71"/><circle cx="385.33" cy="262.21" r="34.63" fill="#feffe2" stroke="#b6fbff" stroke-miterlimit="10" stroke-width="10.12"/><path d="M371 272.55a8.13 8.13 0 01-.66-6l3.41-16.55a8.09 8.09 0 013-5.21 8.28 8.28 0 0110.62 2.2 8.13 8.13 0 01.67 6l-.68 3.26-4.58-1 .74-3.57c.4-1.9-.21-3-1.83-3.36s-2.62.45-3 2.36l-3.57 17.22q-.58 2.82 1.84 3.33c1.61.33 2.62-.44 3-2.32l1-4.71 4.58.95-.91 4.36a8.12 8.12 0 01-3 5.21 8.28 8.28 0 01-10.62-2.2zm22.17-17.91l4.92 1-1 23.91-3.63-.76.29-4.73v.07l-4.13-.86-1.6 4.39-3.37-.7zm.76 16.28l.75-11.76h-.06l-4 11.1z"/><circle cx="404.25" cy="138.15" r="44.3" fill="#feffe2" stroke="#b6fbff" stroke-miterlimit="10" stroke-width="12.95"/><path d="M388.07 154c-1.5-1.81-2.17-4.28-2-7.43l1.11-21.61q.26-4.71 2.77-7.17c1.68-1.64 4-2.39 7.06-2.23s5.29 1.14 6.79 3 2.17 4.28 2 7.42l-.22 4.25-6-.31.24-4.65q.19-3.73-3-3.9c-2.11-.11-3.22 1.08-3.35 3.57l-1.17 22.47q-.18 3.67 3 3.84t3.36-3.51l.31-6.15 6 .31-.29 5.69c-.16 3.14-1.09 5.53-2.77 7.17s-4 2.39-7.06 2.23-5.28-1.22-6.78-2.99zm24.56-27l6.43.33 3.35 30.43-4.74-.25-.55-6v.08l-5.39-.27-1.16 5.86-4.4-.23zm4.13 20.44l-1.34-15h-.08l-2.84 14.81z"/><circle cx="232.97" cy="513.18" r="28.93" fill="#feffe2" stroke="#b6fbff" stroke-miterlimit="10" stroke-width="8.46"/><path d="M219.85 520a6.75 6.75 0 01.15-5l4.8-13.29a6.81 6.81 0 013.09-4 6.91 6.91 0 018.52 3.08 6.75 6.75 0 01-.16 5l-.94 2.61-3.68-1.33 1-2.86q.83-2.29-1.11-3c-1.3-.47-2.23.06-2.78 1.6l-5 13.81c-.55 1.51-.17 2.5 1.12 3s2.22 0 2.76-1.56l1.38-3.76 3.68 1.33-1.27 3.5a6.72 6.72 0 01-3.09 4 6.91 6.91 0 01-8.51-3.07zm20.46-12.18l3.95 1.43-3.68 19.65-2.92-1.06.8-3.87-3.32-1.2-1.84 3.44-2.71-1zM239 521.38l2-9.64h-.06l-4.58 8.71z"/><circle cx="307.6" cy="562.68" r="37.28" fill="#feffe2" stroke="#b6fbff" stroke-miterlimit="10" stroke-width="10.9"/><path d="M297.39 578.76a8.71 8.71 0 01-3.06-5.7l-3.17-17.94a8.71 8.71 0 01.9-6.4 8.9 8.9 0 0111.5-2 8.75 8.75 0 013.05 5.7l.62 3.53-5 .88-.68-3.86c-.37-2.06-1.42-2.94-3.17-2.63s-2.44 1.5-2.08 3.56l3.31 18.65c.36 2 1.41 2.9 3.16 2.59s2.45-1.49 2.08-3.52l-.9-5.1 5-.88.84 4.72a8.74 8.74 0 01-.91 6.41 8.9 8.9 0 01-11.49 2zM312.42 552l5.33-1 8.51 24.32-3.93.69-1.6-4.84v.07l-4.47.79.16 5-3.65.65zm7.26 16l-3.95-12.06h-.07l.48 12.68z" fill="#151000" stroke="#faffe9" stroke-miterlimit="10" stroke-width=".69"/><circle cx="157.96" cy="513.18" r="37.28" fill="#feffe2" stroke="#b6fbff" stroke-miterlimit="10" stroke-width="10.9"/><path d="M148.7 529.83a8.73 8.73 0 01-3.37-5.52l-4.2-17.72a8.74 8.74 0 01.54-6.45 8.9 8.9 0 0111.33-2.69 8.73 8.73 0 013.4 5.55l.83 3.49-4.9 1.16-.91-3.82q-.72-3.06-3.32-2.45c-1.72.41-2.35 1.64-1.86 3.68l4.36 18.43q.72 3 3.31 2.4c1.72-.41 2.35-1.62 1.87-3.63l-1.19-5 4.9-1.16 1.11 4.66a8.74 8.74 0 01-.54 6.45 8.9 8.9 0 01-11.36 2.69zm13.48-27.58l5.27-1.24 9.88 23.79-3.89.92-1.87-4.72v.07l-4.42 1.05.44 5-3.59.88zm8.16 15.54L165.71 506h-.07l1.2 12.63z" fill="#151000" stroke="#faffe9" stroke-miterlimit="10" stroke-width=".69"/><ellipse cx="291.8" cy="438.36" rx="31.14" ry="31.02" transform="rotate(-80.43 291.784 438.354)" fill="#feffe2" stroke="#b6fbff" stroke-miterlimit="10" stroke-width="9.08"/><path d="M279.25 448.19a7.28 7.28 0 01-.79-5.34l2.52-15a7.34 7.34 0 012.51-4.79 7.38 7.38 0 019.58 1.62 7.33 7.33 0 01.79 5.34l-.5 3-4.13-.7.55-3.23c.29-1.72-.3-2.71-1.75-3s-2.34.5-2.63 2.23l-2.63 15.59c-.28 1.7.3 2.68 1.76 2.92s2.33-.48 2.62-2.18l.71-4.27 4.14.7-.67 3.95a7.31 7.31 0 01-2.5 4.78 7.39 7.39 0 01-9.58-1.61zm19.27-16.85l4.44.75-.13 21.51-3.28-.55.11-4.26v.06l-3.73-.63-1.29 4-3-.51zm1.22 14.6l.28-10.59H300l-3.17 10.11z"/><circle cx="249.05" cy="250.78" r="28.93" fill="#f2ec19" stroke="#fcb006" stroke-miterlimit="10" stroke-width=".94"/><path d="M235.44 236.69h6.32a6 6 0 014.62 1.65 6.87 6.87 0 011.54 4.85v13.31a6.83 6.83 0 01-1.54 4.84 6 6 0 01-4.62 1.66h-6.32zm6.24 22.55a2 2 0 001.56-.6 2.89 2.89 0 00.55-2V243a2.87 2.87 0 00-.55-1.95 2 2 0 00-1.56-.6h-2.1v18.79zm10.32 2.44a6.9 6.9 0 01-1.56-4.85v-2.14h3.91V257c0 1.73.71 2.59 2.14 2.59a2 2 0 001.6-.65 3.73 3.73 0 00.54-2.31v-2.13a4 4 0 00-.64-2.57 2.53 2.53 0 00-2.06-.77h-1.43v-3.76h1.5a2.45 2.45 0 001.86-.64 3 3 0 00.62-2.14v-1.92a3 3 0 00-.56-2 1.94 1.94 0 00-1.51-.64c-1.33 0-2 .82-2 2.45v1.72h-3.91v-1.39a6.87 6.87 0 011.56-4.84 6.87 6.87 0 019 0 6.85 6.85 0 011.54 4.83v.94a7.17 7.17 0 01-.71 3.43 4 4 0 01-2.22 1.86v.08a4.11 4.11 0 012.33 2 7.37 7.37 0 01.72 3.46v2.33a6.81 6.81 0 01-1.56 4.83 7.15 7.15 0 01-9.21 0z" fill="#fcb006" stroke="#fcb006" stroke-miterlimit="10" stroke-width=".94"/><circle cx="253.76" cy="342.9" r="44.3" fill="#f2ec19" stroke="#fcb006" stroke-miterlimit="10" stroke-width="1.44"/><path d="M232.93 321.32h9.66q4.72 0 7.08 2.54c1.58 1.68 2.36 4.16 2.36 7.42v20.37c0 3.26-.78 5.74-2.36 7.43s-3.93 2.53-7.08 2.53h-9.66zm9.55 34.53a3 3 0 002.39-.92 4.41 4.41 0 00.83-3V331a4.41 4.41 0 00-.83-3 3.07 3.07 0 00-2.39-.92h-3.22v28.77zm15.74 3.74c-1.59-1.72-2.39-4.2-2.39-7.42v-3.28h6v3.57c0 2.64 1.09 4 3.28 4a3 3 0 002.44-1 5.63 5.63 0 00.84-3.54v-3.32a6.23 6.23 0 00-1-3.94 3.88 3.88 0 00-3.17-1.18h-2.12v-5.75h2.31a3.79 3.79 0 002.84-1 4.61 4.61 0 00.95-3.28v-2.94a4.5 4.5 0 00-.86-3 2.93 2.93 0 00-2.3-1c-2 0-3.05 1.25-3.05 3.74v2.65h-6v-2.13c0-3.22.8-5.7 2.39-7.42s3.89-2.59 6.88-2.59 5.33.85 6.9 2.56 2.36 4.17 2.36 7.39v1.44a10.93 10.93 0 01-1.09 5.27 6.23 6.23 0 01-3.4 2.85v.11a6.37 6.37 0 013.57 3 11.32 11.32 0 011.1 5.3v3.57c0 3.22-.8 5.69-2.39 7.39s-3.94 2.56-7.05 2.56-5.45-.88-7.04-2.61z" fill="#fcb006" stroke="#fcb006" stroke-miterlimit="10" stroke-width="1.44"/><ellipse cx="386.14" cy="414.62" rx="41.4" ry="41.68" fill="#f2ec19" stroke="#fcb006" stroke-miterlimit="10" stroke-width="1.35"/><path d="M366.67 394.31h9c2.94 0 5.15.8 6.62 2.38s2.21 3.92 2.21 7v19.17q0 4.61-2.21 7t-6.62 2.39h-9zm8.93 32.49a2.83 2.83 0 002.23-.87 4.12 4.12 0 00.78-2.81v-19.71a4.17 4.17 0 00-.78-2.82 2.86 2.86 0 00-2.23-.86h-3v27.07zm14.71 3.52q-2.24-2.43-2.23-7v-3.09h5.59v3.36q0 3.74 3.06 3.73a2.77 2.77 0 002.29-.95 5.35 5.35 0 00.78-3.33V420a5.88 5.88 0 00-.91-3.71 3.63 3.63 0 00-3-1.11h-2v-5.42h2.15a3.51 3.51 0 002.66-.92 4.36 4.36 0 00.89-3.08V403a4.28 4.28 0 00-.81-2.87 2.72 2.72 0 00-2.15-.92c-1.9 0-2.85 1.18-2.85 3.52v2.5h-5.59v-2q0-4.54 2.23-7a8.26 8.26 0 016.43-2.44q4.25 0 6.45 2.41c1.47 1.61 2.21 3.92 2.21 7v1.35a10.36 10.36 0 01-1 5 5.83 5.83 0 01-3.17 2.68v.1a6 6 0 013.34 2.82 10.7 10.7 0 011 5v3.36c0 3-.75 5.35-2.23 7s-3.69 2.41-6.59 2.41-5.07-.92-6.55-2.6z" fill="#fcb006" stroke="#fcb006" stroke-miterlimit="10" stroke-width="1.35"/><ellipse cx="480.27" cy="382.68" rx="31.72" ry="31.93" fill="#f2ec19" stroke="#fcb006" stroke-miterlimit="10" stroke-width="1.03"/><path d="M465.35 367.13h6.92a6.55 6.55 0 015.07 1.82 7.6 7.6 0 011.66 5.35V389a7.58 7.58 0 01-1.69 5.35 6.55 6.55 0 01-5.07 1.83h-6.92zm6.84 24.87a2.17 2.17 0 001.71-.67 3.16 3.16 0 00.6-2.15V374.1a3.17 3.17 0 00-.6-2.16 2.2 2.2 0 00-1.71-.67h-2.31V392zm11.27 2.71a7.62 7.62 0 01-1.71-5.35V387H486v2.57c0 1.91.78 2.86 2.35 2.86a2.14 2.14 0 001.75-.72 4.11 4.11 0 00.6-2.55v-2.37a4.54 4.54 0 00-.7-2.79 2.78 2.78 0 00-2.27-.85h-1.53V379h1.65a2.7 2.7 0 002-.71 3.3 3.3 0 00.68-2.36v-2.12a3.32 3.32 0 00-.61-2.2 2.1 2.1 0 00-1.65-.7q-2.19 0-2.19 2.7v1.9h-4.28v-1.53a7.64 7.64 0 011.71-5.35 6.32 6.32 0 014.92-1.87 6.39 6.39 0 014.95 1.85 7.64 7.64 0 011.69 5.33v1a7.92 7.92 0 01-.79 3.8 4.39 4.39 0 01-2.43 2v.09a4.57 4.57 0 012.56 2.16 8.17 8.17 0 01.78 3.81v2.57a7.58 7.58 0 01-1.71 5.34 7.8 7.8 0 01-10.1 0z" fill="#fcb006" stroke="#fcb006" stroke-miterlimit="10" stroke-width="1.03"/><path d="M480.27 306.21c0 32.19-48.33 32.19-48.33 0s48.33-32.21 48.33 0z" fill="#f2ec19" stroke="#fcb006" stroke-miterlimit="10" stroke-width=".79"/><path d="M444.74 294.36H450a5 5 0 013.87 1.39 5.85 5.85 0 011.28 4.08V311a5.81 5.81 0 01-1.28 4.07 5 5 0 01-3.87 1.4h-5.27zm5.21 19a1.63 1.63 0 001.3-.5 2.4 2.4 0 00.46-1.64v-11.55a2.36 2.36 0 00-.46-1.64 1.64 1.64 0 00-1.3-.51h-1.76v15.8zm8.59 2.02a5.83 5.83 0 01-1.31-4.08v-1.8h3.27v2c0 1.45.6 2.18 1.79 2.18a1.62 1.62 0 001.33-.55 3.1 3.1 0 00.46-1.95v-1.8a3.38 3.38 0 00-.54-2.16 2.1 2.1 0 00-1.72-.65h-1.16v-3.16h1.25a2.08 2.08 0 001.56-.54A2.58 2.58 0 00464 301v-1.61a2.48 2.48 0 00-.47-1.68 1.56 1.56 0 00-1.25-.53c-1.11 0-1.67.68-1.67 2.05v1.45h-3.26v-1.17a5.8 5.8 0 011.3-4.07 5.72 5.72 0 017.52 0 5.8 5.8 0 011.29 4.06v.79a6 6 0 01-.6 2.89 3.4 3.4 0 01-1.85 1.57v.06a3.5 3.5 0 011.95 1.65 6.28 6.28 0 01.59 2.9v2a5.74 5.74 0 01-1.3 4.06 5.93 5.93 0 01-7.69 0z" fill="#fcb006" stroke="#fcb006" stroke-miterlimit="10" stroke-width=".79"/><circle cx="528.03" cy="139.84" r="35.17" fill="#feffe2" stroke="#b6fbff" stroke-miterlimit="10" stroke-width="10.28"/><path d="M518.19 154.9a8.27 8.27 0 01-2.82-5.42l-2.81-16.95a8.24 8.24 0 01.92-6 8.39 8.39 0 0110.86-1.8 8.24 8.24 0 012.82 5.41l.56 3.34-4.69.78-.61-3.66q-.48-2.92-3-2.52c-1.65.28-2.32 1.39-2 3.35l2.97 17.57c.31 1.92 1.3 2.75 3 2.47s2.32-1.37 2-3.29l-.8-4.82 4.69-.78.74 4.46a8.23 8.23 0 01-.92 6 8.41 8.41 0 01-10.86 1.81zm14.46-25.09l5-.84 7.78 23-3.72.61-1.42-4.58v.06l-4.23.7.09 4.75-3.45.57zm6.68 15.19l-3.6-11.43h-.07l.32 12z"/></svg>