<svg xmlns="http://www.w3.org/2000/svg" viewBox="0 0 700 700"><path fill="#cbe5ff" stroke="#141200" stroke-miterlimit="10" d="M-350-40h1400v780H-350z"/><path d="M303.32 357.78s-34.66-8.52-35.09-8.81-9.25-8.23-9.25-9.25v-19.35l43 4.34c1.9 4.29 1.34-.05 1.34 33.07z" fill="#fae6ba" stroke="#040014" stroke-miterlimit="10" stroke-width="1.83"/><path d="M352.18 544.34c-8.15-.37-8.05.6-15 3.54-20.37 8.63-57.73-3-85.8 6.15-9.74 3.15-19.81 8.77-29.59 5.75-5.66-1.75-10.28-6.24-16.08-7.43-7.54-1.55-23.09 1.75-14.49-16.6 13.67-29.17 2.62-63 4.12-93.76.89-18.21 6-36.15 5.42-54.37-.38-11.88-3-24.62 2.7-35.05 8.68-15.86 35.9-19.88 48.92-17 14.42 3.21 29.37 18.31 44.85 12.45 9.69-3.66 12.06-12 28-9.45 22.73 3.58 41.63 24.11 43.32 47l-4.68-13.23c11.5 4.2 32.12 23.41 35.3 34.27 1.86 6.37 1.13 9.84-1.89 47.48-.16 1.95-.59 2.62-2.58 3a31.68 31.68 0 01-27.2-7.92c-.39 67 4.34 57.28 13.57 71.68 3.36 5.24 7.82 19.36 1.36 23.94-5.65 4.1-23.52-.14-30.25-.45z" fill="#f2e1e3" stroke="#020100" stroke-miterlimit="10" stroke-width="1.83"/><path d="M361.88 364.44l5.66 84.81c10.73 11.42 22.5 14 31.41 6.56l1-45.42c-12.15-18.25-26.32-43.65-38.07-45.95z" fill="#f0b5e2" stroke="#0a0b00" stroke-miterlimit="10" stroke-width="1.83"/><path d="M381.54 290.48C358.35 313.91 331.9 329 298 328.17c-24.23-.62-48-3.2-71.05-10.83l-41.6-39 9.25-94.16 140.92-88.37 70.8 56.61c0 45.83 3.27 100.98-24.78 138.06z" fill="#fae8b1" stroke="#000305" stroke-miterlimit="10" stroke-width="1.83"/><path d="M439.21 401.32l-90.11-82c14.9-25.43 41.31-43.32 73.65-57.5L482.54 367c-10.54 16.66-25.23 27.82-43.33 34.32z" fill="#ecffff" stroke="#030800" stroke-miterlimit="10" stroke-width="1.83"/><path d="M473.53 353c-23.25-7.9-49.07-17.14-62.8-20.07-12.28-13.25-31.46-7.72-48.18-20.88-4.5 1.23-8.7 7.08-11.66 5.2-.31 2.25-.81.89 89.11 82.32 15.57-6.1 30-17.06 43.62-31.26-.52-6.31-4.4-11.23-10.09-15.31z" fill="#fffffe"/><path d="M246.57 435.47c55-1.36 106.35-9.28 153.4-25.08 8.16 2.53 15 .37 21-5 11-29.53-3.1-25.42 45.05-47.36 3.81-4.81 4.61-10.93 3.47-17.91L448.17 328c-32.14-3.79-42.62 24.51-56 49.68-125 28.9-96.94 23.87-138.94 27.72z" fill="#f9e6bc" stroke="#020005" stroke-miterlimit="10" stroke-width="1.83"/><path d="M207.86 310.69c-60.59-37.88-85-107.35-35.81-189.46 37.82-36.81 81.6-57.47 134.59-53.15C351 74.91 384.18 91 400.26 121.23c15.43 18.24 15.85 42.38 12.09 68.16-10.09-29.57-11.11-23.61-21.09-18.48 6.49-10.71 1-21.27-9.23-31.78 1.78 8.27 1.78 16-.29 23.11-4.42-9.59-12.53-17.15-22.53-23.68 3 12.23 1 21-4.91 27.15-3.62-13.4-10-23.59-20.51-28.89 6.1 17.34 3.88 32.93-5.2 47.08.09-22.06-6.32-38.83-24.26-46.21-4.68 1.8-7.93 4.4-8.66 8.38-4.84-.27-8.85 2.39-12.42 6.64a113.11 113.11 0 00-7.51 32.93c-8-2.68-14.5-8.19-19.64-16.18-11.05 7-11.37 19.44-7.22 34.08-8 1.6-13-6-16.47-18.48-7.24 12.19-6.93 26-2 40.72-7.21-.71-13-3.81-15.88-11.55-2.6 12.17-.5 25.9 4 40.43-5-7.73-11.12-13.19-19.93-13-15.85 18.08 1 36.52 22.82 46.79 10.55 8.78 18 18.15 18.19 28.88-12.92-3.72-26.05-7.57-31.75-6.64z" fill="#ffef80" stroke="#110c00" stroke-miterlimit="10" stroke-width="1.83"/><path d="M373.84 214.81c0 27.52 24.65 27.52 24.65 0s-24.65-27.52-24.65 0z" fill="#000a11"/><path d="M292.2 222.89c0 27.52 24.65 27.52 24.65 0s-24.65-27.52-24.65 0z" fill="#030017"/><path d="M294.37 214.81c0 10.7 12.27 10.7 12.27 0s-12.27-10.7-12.27 0z" fill="#fffeff"/><path fill="gray" d="M396.95 179.76l-30.81-12.32"/><path d="M396.85 180c-5.26-1.23-10.94-2.8-16.12-4.38-2.65-.81-5.47-1.17-7.91-2.57a22.62 22.62 0 01-6.78-5.38l.2-.51a21.66 21.66 0 0112.46 2.36c2.08 1.24 5.18 2.81 7.37 3.91 3.58 1.9 7.5 4 11 6.06l-.2.51z" fill="#110800"/><path d="M267.17 189c2.69-.77 42-17.32 42-17.32" fill="gray"/><path d="M267.07 188.65c5.66-3.16 14.29-8 20-10.9 1.68-.87 3.31-1.87 5-2.83a29.93 29.93 0 0110.87-3.43 25.59 25.59 0 016.09-.15l.29.67a30.42 30.42 0 01-14.45 9.6c-3.23.8-7.75 2.24-10.95 3.27-5.37 1.56-11.12 3.34-16.62 4.48l-.2-.71z" fill="#110800"/><path d="M363.06 227.52c5.42 9.78 8.26 18.86 3.08 25.8" fill="gray"/><path d="M363.22 227.43c4.79 6.8 12.39 19.82 3.07 26l-.3-.22c.09-.64.25-1.19.36-1.75 1-5.91 1-11.7-1.07-17.42-.67-2.17-1.53-4.29-2.38-6.44l.32-.17z" fill="#110800"/><path d="M375.41 206.72c0 10.7 12.27 10.7 12.27 0s-12.27-10.72-12.27 0z" fill="#fffeff"/><path d="M422.75 261.82c-18.28 27.42-43.08 46.26-73.65 57.48M482.54 367c-15.75 12.76-30.46 23.88-43.33 34.37" fill="#ecffff" stroke="#030800" stroke-miterlimit="10" stroke-width="1.83"/><path d="M223.48 430.38c-9.1-14.38-18.92-32.67-22.73-42.76-14.71-39 36.86-100.53 105.89 9.15-37.35 42.92-36.69 43.74-44.75 46.69a32.33 32.33 0 01-38.41-13.08z" fill="#f0b5e2" stroke="#0a0b00" stroke-miterlimit="10" stroke-width="1.83"/><path d="M397.32 454.17c-10.11-12.56-6.41-27.38 2.65-43.78 23 5.28 32.19-13 69.3-58.75 3-10.73-15.25-23.8-17.64-23.94-5.53-14.32 9.65-18.65 24.84-16.42 14.5 9.41 17.68 24.05 13.29 42.16-27.82 56.22-31.53 73.21-67 98.78z" fill="#f8e6b9" stroke="#060800" stroke-miterlimit="10" stroke-width="1.83"/><path d="M330 279.76s.28-8.63.59-9.28 3.08-1.69 11.44-.44c6.91 1 10.08-.64 13.89 3.37 4.83 5.09 11.32 2.9 15.18 7.22 1.55 1.73-3.47 3.28-5.9 4.32a5 5 0 01-3.42-.1c.47-2.99-31.31-8.08-31.78-5.09z" fill="#fcffed"/><path d="M365.71 284.43c3.27 2.86-3.74 14.44-11.12 16.39-10.17 2.7-30.85-19.93-27.49-23.29.24-1.32 38.84 5.58 38.61 6.9z" fill="#fcffea" stroke="#141200" stroke-miterlimit="10" stroke-width="1.83"/><path d="M459.71 630a253.55 253.55 0 0094.5-4.36s.57-128.45-6.56-142.25-22.31-19.9-23.76-22.38-2.94-9.2-2.28-12.41 15-12.06.23-17c0 0-40.59 1.15-43.69 2-22.11 6.22-.37 13.43.75 16.26 5.83 14.74-17.76 20.37-23.52 43-4.84 14.14 2.18 84.07 4.33 137.14z" fill="#fff" stroke="#03000b" stroke-miterlimit="10" stroke-width="2.42"/><path fill="#fff" stroke="#03000b" stroke-miterlimit="10" stroke-width="2.42" d="M454.518 526.572l95.788-4.416 2.548 55.26-95.788 4.418z"/><path d="M466 535.73l8.36-.39 4.91 25.46h.1l2.54-25.8 8.36-.38 1.65 35.81-5.54.26-1.25-27.12H485l-3 27.31-4.9.23-5.51-26.92h-.11l1.25 27.12-5.11.23zm28.64-1.32l5.86-.27 1.65 35.86-5.86.27zm10.23-.47l5.86-.27 1.41 30.7 9.64-.45.22 5.08-15.5.71zm18.32-.85l5.86-.27.7 15.1 6.76-15.44 5.86-.27-6.37 13.47 8.12 22.32-6.12.28-5.69-15.73-2.14 4.66.53 11.41-5.86.27z"/></svg>