<svg xmlns="http://www.w3.org/2000/svg" viewBox="0 0 1400 780"><path fill="#cbe5ff" stroke="#141200" stroke-miterlimit="10" d="M0 0h1400v780H0z"/><path d="M442.81 448.58s-34.66-8.52-35.09-8.81-9.24-8.23-9.24-9.25v-19.35l43 4.34c1.89 4.28 1.33-.05 1.33 33.07z" fill="#fae6ba" stroke="#040014" stroke-miterlimit="10" stroke-width="1.83"/><path d="M491.67 635.14c-8.14-.37-8.05.6-15 3.54-20.36 8.63-57.73-2.95-85.8 6.15-9.74 3.15-19.81 8.77-29.59 5.75-5.66-1.75-10.27-6.24-16.08-7.43-7.54-1.55-23.09 1.75-14.49-16.6 13.67-29.17 2.62-63 4.12-93.76.89-18.21 6-36.15 5.42-54.37-.37-11.88-3-24.62 2.71-35.05 8.67-15.86 35.89-19.88 48.91-17 14.42 3.21 29.37 18.31 44.85 12.45 9.69-3.66 12.06-12 28.06-9.45 22.72 3.58 41.62 24.11 43.32 47.05l-4.69-13.23c11.5 4.2 32.13 23.41 35.3 34.27 1.86 6.37 1.13 9.84-1.89 47.48-.16 1.95-.59 2.62-2.58 3a31.7 31.7 0 01-27.2-7.91c-.39 67 4.34 57.27 13.57 71.67 3.37 5.24 7.82 19.36 1.36 23.94-5.7 4.05-23.56-.19-30.3-.5z" fill="#f2e1e3" stroke="#020100" stroke-miterlimit="10" stroke-width="1.83"/><path d="M501.37 455.24l5.63 84.82c10.73 11.41 22.5 14 31.41 6.55l1-45.42c-12.12-18.25-26.29-43.65-38.04-45.95z" fill="#f0b5e2" stroke="#0a0b00" stroke-miterlimit="10" stroke-width="1.83"/><path d="M521 381.28c-23.19 23.43-49.65 38.56-83.57 37.69-24.22-.62-48-3.2-71.05-10.83l-41.59-39 9.28-94.14 141-88.38 70.79 56.61c-.05 45.82 3.22 100.97-24.86 138.05z" fill="#fae8b1" stroke="#000305" stroke-miterlimit="10" stroke-width="1.83"/><path d="M578.7 492.12l-90.11-82c14.86-25.41 41.31-43.35 73.65-57.48L622 457.75c-10.53 16.71-25.2 27.87-43.3 34.37z" fill="#ecffff" stroke="#030800" stroke-miterlimit="10" stroke-width="1.83"/><path d="M613 443.79c-23.24-7.9-49.06-17.14-62.8-20.07-12.26-13.25-31.44-7.72-48.2-20.88-4.5 1.23-8.7 7.08-11.66 5.2-.31 2.25-.81.89 89.11 82.32 15.58-6.1 30-17.06 43.62-31.26-.48-6.34-4.36-11.22-10.07-15.31z" fill="#fffffe"/><path d="M386.06 526.27c55-1.36 106.35-9.28 153.4-25.08 8.17 2.53 15 .37 21-5 11-29.53-3.1-25.42 45.06-47.36 3.8-4.81 4.61-10.93 3.46-17.91l-21.37-12.13c-32.14-3.79-42.61 24.51-56 49.68-125 28.9-96.95 23.87-138.95 27.72z" fill="#f9e6bc" stroke="#020005" stroke-miterlimit="10" stroke-width="1.83"/><path d="M347.35 401.49c-60.59-37.88-85-107.35-35.81-189.46 37.82-36.81 81.6-57.47 134.59-53.15 44.38 6.83 77.54 22.93 93.62 53.15 15.43 18.24 15.85 42.38 12.09 68.16-10.09-29.57-11.11-23.61-21.09-18.48 6.49-10.71 1-21.27-9.23-31.78 1.78 8.27 1.78 16-.29 23.11-4.42-9.59-12.53-17.15-22.53-23.68 3 12.23 1 21-4.91 27.15-3.62-13.4-10-23.59-20.51-28.89 6.11 17.34 3.88 32.93-5.2 47.08.09-22.06-6.32-38.83-24.26-46.21-4.68 1.8-7.93 4.4-8.66 8.38-4.84-.27-8.85 2.39-12.42 6.64a113.11 113.11 0 00-7.51 32.93c-8-2.68-14.5-8.19-19.64-16.18-11 7-11.37 19.44-7.22 34.08-8 1.6-13-6-16.47-18.48-7.24 12.19-6.93 26-2 40.72-7.21-.71-13-3.81-15.88-11.55-2.6 12.17-.49 25.9 4 40.43-5-7.73-11.12-13.19-19.93-13-15.85 18.08 1 36.52 22.82 46.79 10.55 8.78 18 18.15 18.19 28.88-12.92-3.72-26.05-7.57-31.75-6.64z" fill="#ffef80" stroke="#110c00" stroke-miterlimit="10" stroke-width="1.83"/><path d="M513.33 305.61c0 27.52 24.65 27.52 24.65 0s-24.65-27.52-24.65 0z" fill="#000a11"/><path d="M431.69 313.69c0 27.52 24.65 27.52 24.65 0s-24.65-27.52-24.65 0z" fill="#030017"/><path d="M433.86 305.61c0 10.7 12.27 10.7 12.27 0s-12.27-10.7-12.27 0z" fill="#fffeff"/><path fill="gray" d="M536.44 270.56l-30.81-12.32"/><path d="M536.34 270.82c-5.26-1.23-10.94-2.8-16.12-4.38-2.65-.81-5.47-1.17-7.91-2.57a22.62 22.62 0 01-6.78-5.38l.2-.51a21.66 21.66 0 0112.46 2.36c2.09 1.24 5.18 2.81 7.37 3.91 3.58 1.9 7.5 4 11 6.06l-.2.51z" fill="#110800"/><path d="M406.66 279.8c2.7-.77 42-17.32 42-17.32" fill="gray"/><path d="M406.56 279.45c5.66-3.15 14.29-8 20-10.9 1.68-.87 3.32-1.87 5-2.83a29.82 29.82 0 0110.86-3.43 25.59 25.59 0 016.09-.15l.29.67a30.38 30.38 0 01-14.45 9.6c-3.22.8-7.75 2.24-10.95 3.27-5.37 1.56-11.12 3.34-16.62 4.48l-.2-.71z" fill="#110800"/><path d="M502.55 318.32c5.42 9.78 8.26 18.86 3.08 25.8" fill="gray"/><path d="M502.71 318.23c4.79 6.8 12.39 19.82 3.07 26l-.3-.22c.09-.64.25-1.19.36-1.75 1.05-5.91 1-11.7-1.07-17.42-.67-2.17-1.53-4.29-2.38-6.44l.32-.17z" fill="#110800"/><path d="M514.9 297.52c0 10.7 12.27 10.7 12.27 0s-12.27-10.7-12.27 0z" fill="#fffeff"/><path d="M562.24 352.62C544 380 519.17 398.88 488.59 410.1M622 457.75c-15.75 12.76-30.46 23.88-43.33 34.37" fill="#ecffff" stroke="#030800" stroke-miterlimit="10" stroke-width="1.83"/><path d="M363 521.18c-9.1-14.38-18.92-32.67-22.73-42.76-14.71-39 36.87-100.53 105.89 9.15-37.34 42.92-36.69 43.74-44.75 46.69A32.33 32.33 0 01363 521.18z" fill="#f0b5e2" stroke="#0a0b00" stroke-miterlimit="10" stroke-width="1.83"/><path d="M536.81 545c-10.11-12.56-6.41-27.38 2.65-43.78 23 5.28 32.19-13 69.3-58.75 3-10.73-15.25-23.8-17.64-23.94-5.53-14.32 9.65-18.65 24.84-16.42 14.5 9.41 17.68 24.05 13.29 42.16-27.82 56.22-31.53 73.21-67 98.78z" fill="#f8e6b9" stroke="#060800" stroke-miterlimit="10" stroke-width="1.83"/><path d="M469.48 370.56s.28-8.63.59-9.28 3.08-1.69 11.44-.44c6.91 1 10.08-.64 13.89 3.37 4.83 5.09 11.32 2.9 15.18 7.22 1.55 1.73-3.47 3.28-5.9 4.32a5 5 0 01-3.42-.1c.48-2.99-31.26-8.08-31.78-5.09z" fill="#fcffed"/><path d="M505.2 375.23c3.27 2.86-3.74 14.44-11.12 16.39-10.17 2.7-30.85-19.93-27.49-23.29.24-1.33 38.84 5.58 38.61 6.9z" fill="#fcffea" stroke="#141200" stroke-miterlimit="10" stroke-width="1.83"/><path d="M599.2 720.75a253.55 253.55 0 0094.5-4.36s.57-128.45-6.56-142.25-22.31-19.9-23.75-22.38-2.95-9.2-2.29-12.41 15-12.06.24-17c0 0-40.6 1.15-43.7 2-22.11 6.22-.37 13.43.75 16.26 5.83 14.74-17.76 20.37-23.52 43-4.87 14.14 2.18 84.12 4.33 137.14z" fill="#fff" stroke="#03000b" stroke-miterlimit="10" stroke-width="2.42"/><path fill="#fff" stroke="#03000b" stroke-miterlimit="10" stroke-width="2.42" d="M594.002 617.371l95.788-4.417 2.548 55.262-95.788 4.416z"/><path d="M605.48 626.53l8.36-.39 4.91 25.47h.11l2.54-25.81 8.37-.38 1.65 35.82-5.54.25-1.25-27.12h-.11l-3 27.31-4.9.23L611.1 635h-.1l1.25 27.12-5.11.24zm28.65-1.32l5.86-.27 1.65 35.81-5.86.27zm10.23-.47l5.86-.27 1.41 30.7 9.64-.45.24 5.12-15.5.71zm18.32-.85l5.86-.27.7 15.1 6.76-15.44 5.86-.27-6.38 13.47 8.13 22.34-6.12.28-5.69-15.73-2.13 4.63.52 11.41-5.86.27z"/><path d="M855.55 399l-54.3-15c43.12-18 14.39-4.46 142.88-68.93l-3.08 33.5c-20.05 19.5-3.57 8.81-85.5 50.43z" fill="#f4d88f" stroke="#000e11" stroke-miterlimit="10" stroke-width="1.83"/><path d="M814 467.57c-18.13 4.57-35.6 4.66-52.37 0l-21.22-114.38q44.08-12.51 88.19 1.93z" fill="#e1ffff" stroke="#050500" stroke-miterlimit="10" stroke-width="1.83"/><path d="M1014.79 328v-9.82c-56-12.17-18.13-19.77-80.87 2.88l7.51-31.77 91.27-28.08v63.9c-15.25 3.43-10.97 2.89-17.91 2.89z" fill="#870400" stroke="#000" stroke-miterlimit="10" stroke-width="1.83"/><path fill="#f4d88f" stroke="#081100" stroke-miterlimit="10" stroke-width="1.83" d="M944.13 320.46v-23.49h33.12v11.74l-33.12 11.75z"/><path d="M1025.23 269.73c-31.72 25.12-68.52 33.43-112.65 18.49C872 274.46 854.74 237.49 860 177.88l27.73-71.62 155.38 93.58z" fill="#f5d98f" stroke="#000" stroke-miterlimit="10" stroke-width="1.83"/><path d="M1005 318.15c23.6-29.17 28.33-61.95 17.91-97.63l-9 8.67c-3.8-17.76-10.56-29.25-19.35-36.39 0 12.91 5.23 5.5-34.66-21.38l-4 13.87c-13.21-5.77-23.65-19.49-31.77-39.86 0 0-.73 21.87-4 24.26-7.08 5.11-26.83-52.63-26.57-45.06.57 17.23-22.36 50.44-26 46.21l-2.89 17.91c-31-49.05 40.85-113.16 96.47-130.55 20.42-4.38 38.65 1.19 55.46 13.29 56.53 3.81 86.91 41.31 98.2 103.4-3.91 40.09-12.09 77-24.84 110.51l-4.62-14c-8.33 38.49-29.21 66.84-60.66 86.64l1.74-19.64L998 358l29.46-45.63z" fill="#a60600" stroke="#000" stroke-miterlimit="10" stroke-width="1.83"/><path d="M988.22 300.24c48.06 33.53 57.11 163.7 56 229.33 2.42 1-10 29.91-13.86 34.66-11.86 14.41-148.36 2.37-146.69-17.91-9.79-12.09-10.54-29.59-4-51.41 18.34-34.37 38.64-107.62 41-129.19s7.08-24.09 11.36-35.1a19.81 19.81 0 0110-11.69c15.73-7.88 31.22-14.49 46.19-18.69z" fill="#f949c9" stroke="#000005" stroke-miterlimit="10" stroke-width="1.83"/><path d="M1008.44 375.14a242.11 242.11 0 01-87.8 46.6c-41.81 6.75-80.59 9.3-112.84 5.39-19.45-2.36-17.88-21.77-5.39-35.43 8-2.19 8.09-11.55 18.48-13.09s56.14 10.85 67.78 9.24c46.58-10.22 46.28-4.64 97.82-48.91 21.62-4.65 34.45 18.28 21.95 36.2z" fill="#f4db98" stroke="#101100" stroke-miterlimit="10" stroke-width="1.83"/><path d="M894.21 265.29s-2.8-8.17-2.75-8.88 2.29-2.67 10.55-4.47c6.83-1.48 9.19-4.18 14.18-1.78 6.32 3.05 11.62-1.3 16.75 1.37 2.07 1.07-2.08 4.3-4 6.13a5.07 5.07 0 01-3.23 1.13c-.59-2.97-32.11 3.54-31.5 6.5z" fill="#fcffed"/><path d="M933.34 259.61c3.79 2.12-7 16.22-13.86 19.64-9.4 4.72-28.21-7-25.42-13.09 8.71-6.44 21.69-8.73 39.28-6.55z" fill="#fcffea" stroke="#141200" stroke-miterlimit="10" stroke-width="1.83"/><path d="M953.63 212.69c3.56-23.56-18.9-27-22.47-3.4s18.9 26.96 22.47 3.4zM940.56 199c7 0 7 11.74 0 11.74s-7-11.74 0-11.74zm-56.2-14.92c-15-1.07-17.54 34.85-2.55 35.92s17.55-34.85 2.55-35.92zm-3.3 11.19c1.7-7.59 12-5.26 10.33 2.32s-12.04 5.26-10.33-2.32z" fill="#0b0200"/><path d="M892.52 197c0 10.39-11.62 10.39-11.62 0s11.62-10.4 11.62 0zm53.86 7.83c0 10.38-11.63 10.38-11.63 0s11.63-10.38 11.63 0z" fill="#fbffea" stroke="#000" stroke-miterlimit="10" stroke-width="1.83"/><path d="M960.82 207.36c-10.7-3.49-11.22-2.52 0-3.48z" fill="#0b0200"/><path d="M960.82 207.36a49.23 49.23 0 01-7.36-1.38 3.22 3.22 0 01-1.51-.7.89.89 0 01-.23-.73 1 1 0 01.38-.66 5.25 5.25 0 012.3-.45c2.28-.14 4.74-.19 7-.1a33.9 33.9 0 01-.6 4zm0 0c-.15-1.39-.45-2.48-.56-3.48l.61.56a53.86 53.86 0 01-6.34.81c-.32 0-1.21.08-1.51.15a.81.81 0 00.17-1.36 49.52 49.52 0 017.63 3.32z"/><path d="M957.35 194c2.69 3.79 3.71 2.32-6.48 5.47" fill="#0b0200"/><path d="M957.35 194a18.84 18.84 0 011.87 1.43 2.34 2.34 0 01.6.79c1 2.55-7.27 3.4-9 3.25a19 19 0 017-2.94l.57-.17c.05 0 .09 0 0 0s0 .27 0 .26a5.47 5.47 0 00-.54-1.17 8.34 8.34 0 01-.57-1.49z"/><path d="M954.25 191.24c-9.89 5.37-9.54 6.41-2.53-2.4z" fill="#0b0200"/><path d="M954.25 191.24a51 51 0 01-6.06 4.39 3.28 3.28 0 01-1.54.63 1 1 0 01-.7-.34 1 1 0 01-.21-.73 5.42 5.42 0 011.25-2c1.47-1.75 3.12-3.57 4.76-5.16a33.93 33.93 0 012.5 3.2zm0 0c-1.11-.85-2.11-1.39-2.91-2l.82-.06a51.1 51.1 0 01-3.76 5.16c-.2.26-.77.94-.93 1.2a.78.78 0 00-.15-.77.83.83 0 00-.72-.29 50.23 50.23 0 017.65-3.25z"/><path d="M879.68 177c1.54 11.16 2.64 11.19-3.13 1.52z" fill="#0b0200"/><path d="M879.68 177a50.56 50.56 0 012 7.23 3.28 3.28 0 010 1.66 1 1 0 01-.56.53 1 1 0 01-.76-.06 5.29 5.29 0 01-1.42-1.87c-1.11-2-2.24-4.18-3.15-6.27a35.47 35.47 0 013.87-1.22zm0 0c-1.18.75-2 1.49-2.88 2l.23-.79a52.83 52.83 0 013.51 5.34c.17.28.6 1.05.79 1.29a.78.78 0 00-.78-.13.82.82 0 00-.52.57 50.7 50.7 0 01-.35-8.31z"/><path d="M869.18 185.94c2.24-4.06.46-4.34 7.75 3.44" fill="#0b0200"/><path d="M869.18 185.94a17.54 17.54 0 01.47-2.29c.12-.52.56-1.34 1.35-1.27a1.57 1.57 0 01.71.24 15.56 15.56 0 013.71 4c2 3.08 1.84 3.29-1.07 1a35.86 35.86 0 01-3.52-3.67c0-.05-.08-.06 0-.06s.26-.09.23-.11a6.51 6.51 0 00-.81 1 7.46 7.46 0 01-1.09 1.16z"/><path d="M868.06 189.94c9.16 6.55 9.94 5.77-1 3.32z" fill="#0b0200"/><path d="M868.06 189.94a50.3 50.3 0 016.6 3.53 3.3 3.3 0 011.24 1.11 1 1 0 010 .78 1 1 0 01-.57.51 5.38 5.38 0 01-2.33-.26c-2.22-.56-4.57-1.25-6.72-2a34.74 34.74 0 011.78-3.65zm0 0c-.28 1.37-.32 2.51-.52 3.49l-.41-.71a51.79 51.79 0 016.29 1.12c.32.07 1.18.28 1.48.31a.79.79 0 00-.63.48.83.83 0 00.06.77 50 50 0 01-6.27-5.46z"/><path d="M891.55 225.91c-6.08 5.63-7.2 10.55-2.49 14.64" fill="#0b0200"/><path d="M891.55 225.91c-3.24 4.88-6.84 9.09-2.49 14.64-7-3.69-3.12-11.79 2.49-14.64z"/><path d="M828.6 355.12q-47.57 16.94-88.19 0M814 467.57c-20-8.3-37.69-9.16-52.37 0" fill="#e1ffff" stroke="#050500" stroke-miterlimit="10" stroke-width="1.83"/></svg>