<svg xmlns="http://www.w3.org/2000/svg" viewBox="0 0 1400 780"><path fill="#e0fbff" d="M0 0h1400v780H0z"/><path d="M627.39 138.18c-.44-6.55 1.41-13.2 4.19-19.14 12.65-27 50.2-8 51.14 16.48.5 12.4-7.32 8.36-26.25 7.21-6.62-.4-22.47-4.28-29.08-4.55z" fill="#afa58f"/><path d="M674.91 144.27c-2.54 13.47-17.09 30.8-27.26 21.63-1.4-1.26-12.14-4.91-12.3-4.83-18-37.6-5.35-17.13 39.56-16.8z" fill="#fbc7a1"/><path d="M547.92 167.11c-22 21.6-9.2 24.18-25.06 17.06-2.84-6.38-10.32-27.87-6.09-34.11 3.69-5.44 9.46-9.74 15-13.48 1.37-.92 4.66.34 9.06 2.4 28.77 13.35 29.73 10.19 29.73 10.73a131.53 131.53 0 00-22.64 17.4z" fill="#ed3c39"/><path d="M894.66 482.67c1.8 5.28-.71 9.47-1.15 9.47-3.2-4-2 1.36-50.15-4.3 8.59-10.1-3.77-14.95-1.59-16.56 5-1.08 27.15-21.69 43.27-1.82l.16-.08c3.54 6.91 7.25 6.85 9.46 13.29z" fill="#fcca04"/><path d="M794.17 586.88c-32.62-71.46-31.77-69.68-16-76.42 30.69-13.12 51.81-13.29 63.58-20.84 4.43-4.78 11 3 46.13.85 4.34-.26 7 1.4 6.46 5.69-5.49 40.43-38.74 47-85.2 45.18-2.42-.1-4.76-2-7.16-3.07 7 21.48 27.3 66.8 23.26 70.57-2.49 2.33-12.25 3.95-13.08 4.5-2.54-3.68-6.79-1.83-17.99-26.46z" fill="#6dcef6"/><path d="M782.89 440.27c23.67 5.76 32.05-7.86 34.23-5.68 11.83 21.8 13.45 20.81 12.43 21.47-29.57 2.38-4.18 6.72-64.94-7.88-9.29-2.21-2-6.64-3.33-9.79.12-.03 17.89.98 21.61 1.88z" fill="#fbb715"/><path d="M656.52 106.44c-11-2.35-21 2-26.2 15.52-19.52 7.57-15.45-.16-20-3.19 5.69-.67 9.52-2.6 9.81-9.56.17-4.38 7-21.51 19.6-19.86 10.46 1.38 19.18 6.29 16.79 17.09z" fill="#afa58f"/><path d="M755.87 370c26.13 26.16 23.37 31.43 68.46 31.43a111.84 111.84 0 0120.15-7.43c1.72-.47 9.15 6 11.13 8 12.52 44.43 13.1 51.93 14.49 58.92-12.57-1-24.79 9.58-28.33 10.35-2.16 1.6-25.3-37.34-25.46-37.5 5.92-4.71 2.47-3.91-19.86-13.56-38.71-16.72-32.49-17-56.54-51.57 8.41-6.2 8.41-6.21 15.96 1.36z" fill="#fcca04"/><path d="M601.72 127.38c2.22 23.57-28.36 34.81-27.94 38.62a114.58 114.58 0 01-25.86 1.11 131.53 131.53 0 0122.65-17.4c0-.54-1 2.62-29.73-10.73-4.4-2.06-7.69-3.32-9.06-2.4-12.71-5.32-26.35-12.68-39.17-17.75-17.82-7.06-9.19-14.76-9-21.88.25 0-.29 2.16 5.84 5.87 5.93 6.39 9.57 3.44 15.15 4.59 15.54 3.21 31.36 5 46.86 8.31 15.78 3.35 31.17 10.2 47 11.07a12.94 12.94 0 013.26.59z" fill="#289c4b"/><path d="M624.41 251.49c11.9 12.08-21.52 47.39-28.67 80.28a12.94 12.94 0 00-4.61.21c-4.78 1-10.25-6.54-15.58-6.73 11.52-20.53 7.78-11.34 19.68-55.75-20.51 10.29-16.65 10.19-69.22 26.21-5 1.54-9.09-.15-11.3 1.77a72.63 72.63 0 01-7-9.63c15.12-7.18 37.39-21.54 52.5-28.72-48.33-12.37-60.3-35.52-39.88-70.82 11.74 15.7 31.52 21.28 48.83 25 23.73 5.08 38.6 21.27 55.25 38.18z" fill="#3988c9"/><path d="M908.52 657.14c-27.77-72.31-53-109-54.92-118.55 23.64-5 37.64-16.63 40.76-42.43.16 0 7.6 40.62 7.57 49.29-.06 18.62 4.89 35.89 11.66 52.54 12.53 30.76 13 47.17 21.11 73.57-3.23 1 0 .27-23.74 4.69-3.26-1.14 3.54-3.51-2.44-19.11z" fill="#2e3191"/><path d="M622.68 143.59c-1.34 5.24 4 17.91 11.57 22.15.65.37 1.91-.35 2.93-.67a58.65 58.65 0 013.59 10.45c-1.23 1-4.15 19-23.38 25.39a31.12 31.12 0 01-19 0c-3 2.24-7.52 4.85-11.14 8.19-7.69-2.67-18.4-8.6-26.28-9.4-9.41-1-17.71-4.26-26.19-7.59-2.17-.86-3.6-1.33-2.75-3.81s6.7-12.17 15.87-21.19c27.59 1.65 54.67-4.13 65-29.49 4.67 5.8 6.79 5.15 9.78 5.97z" fill="#289c4b"/><path d="M876.11 442.52c-5.82-19.1-13.61-39-31.14-48.67a82.18 82.18 0 0123-2.26c1.61.06 3.17 3.84 4.77 4.4 22.19 0 25.14 19.93 33.68 26.93-.12.16 5.08 25.78 6.15 30 1 4.07 2.77 7.94 3.89 12 5 18.1-11.75 14.13-21.84 17.75-2.14-6.24-4.07-4.79-3.28-6.21a8.09 8.09 0 005.32.69c16.88-3 10.37-11.09 3.18-36.19-2.95-10.34-14.84-2.36-23.73 1.56z" fill="#ec1c24"/><path d="M627.84 142c1.46 8.08 5.78 14.92 9.34 23.11-10.25 3.17-21.63-28.84-9.34-23.11z" fill="#289c4b"/><path d="M934.7 671.56c7.8 25.21 9.51 20.87 4.89 21.42-61.56 7.34-46.83 3.18-36.17-7.53 7-7.1 5.36-10 7.54-9.2 23.77-4.42 20.5-3.69 23.74-4.69z"/><path d="M928.33 455.38c1.89 5.83-6.19 9.54-11.83 9.54-1.12-4.06-2.86-7.93-3.89-12-1.08-4.24-6.27-29.84-6.15-30 6.54 5.45 11.15-.83 21.87 32.46z" fill="#fbb715"/><path d="M617.39 200.91c19-6.22 22.3-24.53 23.38-25.39 2.83 13.48-9.49 27.59-23.38 25.39z" fill="#ed3c39"/><path d="M670.68 276.39c-25-25.28-54.4-75.11-53.29-75.48 16.72 2.65 22.08-14.18 22.5-14 11.76 38.9 12.21 46.85 22.91 56.31 20.36 18.01 17.53 23.15 7.88 33.17z" fill="#289c4b"/><path d="M604.36 349.1c-27-3.86-38.45-7-28.81-23.85 5.33.19 10.8 7.75 15.58 6.73 9.39-2 11.74 5.39 16.74 9.41 4.41 3.53-1.09 7.71-3.51 7.71z" fill="#7f725b"/><path d="M569.19 213.29c-17.31-3.7-37.09-9.28-48.83-25 3.21-5.57 1.07-4.78 11.69 0-.88 2.47.58 2.95 2.75 3.81 8.48 3.33 16.78 6.63 26.19 7.59 7.88.8 18.59 6.73 26.28 9.4a18.07 18.07 0 00-5.56 8.18 70.47 70.47 0 00-12.52-3.98z" fill="#289c4b"/><path d="M739.91 368.65c-2.2-1.94-4.44-3.83-6.59-5.74 3.19-1.07 4.27-5.41 7.45-6.48l6.28 7.82c-1.7.38-3.73 1.88-7.14 4.4z" fill="#fcca04"/><path d="M507.74 287.85a74.84 74.84 0 0010.63 13.62c-3.53 14.15-1.47 9-5.86 16.68-1.85-1.59-4.59-2.84-5.39-4.85-7.72-19.65-8.81-25.45.62-25.45z" fill="#7f725b"/><path d="M876.11 442.52c8.93-3.92 20.78-11.9 23.77-1.56 7.19 25.1 13.7 33.14-3.18 36.19-11.46 2.09-15.19-16.91-20.59-34.63zM751.93 444c1.36-1.79 1.49-5.11 5.16-6.52 3.2-1.23 5.66.62 3.6 4.34-2.27 4.06 2.31 3.56-8.76 2.18z" fill="#fbb715"/><path d="M733.32 362.91c-7.71-6.78-14.34-13.7-14-24 5.52 6 7.45 5.66 14.37 9.47.38.21 1.53-1 2.33-1.5 1 3.19 3.71 6.38 4.77 9.57-3.2 1.05-4.28 5.39-7.47 6.46z" fill="#fbc7a1"/><path d="M670.68 276.39c4.08-4.24 6.83-7.62 7.31-11.32l7.6 8.9c-9.39 10.27-4.96 12.53-14.91 2.42z" fill="#289c4b"/><path d="M730.59 440.73c14.64-7.66 26.11-4.44 26.5-3.28-8.19 3.05 1.59 15.23-26.5 3.28z" fill="#fbc7a1"/><path d="M790.33 634.82c3.4-9.34 13.55-16 22-21.58 13.33-3.33 12.87-4.48 13-4.37 3.65 8.06 10.07 18-.25 20.2-6.67 1.38-34.7 5.93-34.75 5.75z"/><path d="M690.7 302.94c-.16-.1-6.33-12.94-12.76-19.53 1.33-1.33 5.33-6.9 7.65-9.44 15.67 14 19.29 15.26 9.85 17.07 3.65 8.26 2.91 3.95 4 16.74-2.94-1.59-5.89-3.12-8.74-4.84z" fill="#fbc7a1"/><path d="M855.69 369.34a23.87 23.87 0 00-3.59-19.75c9.91-9.92 16.66-12.9 24.33-1.71 6.7 9.81-3.33 30.06-3.64 30.89-6.63-4.52-10.46-4.92-17.1-9.43z" fill="#ffedbd"/><path d="M870.1 460.93c-1.39-7-2-14.49-14.49-58.92 10.61 10.86 16.19 26.38 20.5 40.51 13.83 45.4 11.8 19.86-6.01 18.41z" fill="#ec1c24"/><path d="M481.63 109.93c-1.75-2.25-8.23-6.33-8.23-6.33a32.39 32.39 0 01-3 2.41c-.85-4.05.05-12.81 4.77-18.35 15.66 6.59 4.34 14.5 6.46 22.27z" fill="#fbc7a1"/><path d="M847.11 382.15c.53-13.69-35.06-32.7-35.06-33 1.05-14.72 30.84-13.7 40.05.48 12.07 18.55-4.83 32.64-4.99 32.52z" fill="#ffedbd"/><path d="M612.94 137.62c-10.15 24.87-39.11 28.86-39.18 28.23 14.49-12.9 29.74-19.62 28-38.47 5.24 1.62 8.05 6.33 11.18 10.24z" fill="#ed3c39"/><path d="M814.05 388c-23.16-8.07-.43-29.63-1.81-36.34a10 10 0 01-.19-2.53c37.8 20.71 34.52 32.6 35.21 33.13-4.12 5.55-2.78 9.88-2.78 11.71a99.19 99.19 0 00-20.15 7.45c-1.05-6.58-3.12-10.91-10.28-13.42z" fill="#fbc7a1"/><path d="M604.36 349.1c26.73 2.53 29.84 1.35 33.81 1.82 28.16 3.19 6.38 16.38 29.57 32.42 30.1 20.8 12.72 39.69 34.81 51.33 8.93 4.71 17.51 10.07 26.3 15.06 14.15 8-12.28 18.3 12.75 44.65 9.11 9.58 10.83 14.62 2.29 29.51-13.81 24.1-31.69 39.65-9.45 55 16.55 11.45 34.86 15.19 44.93 43.24C791.54 656 819 636.8 842 668.1c22.18 30.16 51.16 16.9 61 16.9M470.37 106c2.25 5.21 8.6 12.12 9.44 16 24.69 112.86-36.88 94.37-9.28 130.66 9.09 12 21.09 26.11 30.9 37.54m393.02 205.98c1.34 15.69 7.53 33.59 7.48 49.27-.06 18.62 4.89 35.89 11.66 52.54 15.57 38.23 12.44 54.21 28.67 94.86" fill="none" stroke="#000" stroke-linecap="round" stroke-linejoin="round" stroke-width="1.6"/><path d="M853.7 539.07c18.69 40.31 63.62 115.9 56.16 136.79-2.93 8.22-10.67 13-16.76 19.1 11.09 5.08 40.1-2.44 49.16-2.11 5 .19 7.81 3.11 9.49 8.86 1.56 5.37 5.07 10.16 7.72 15.21M520.36 188.31c16.51 22.07 46.35 22.53 61.35 29 17.21 7.41 29.76 21 42.7 34.19 11.9 12.08-21.52 47.39-28.67 80.28M489.45 102.82c5.93 6.39 9.57 3.44 15.15 4.59 15.54 3.21 31.36 5 46.86 8.31 15.78 3.35 31.17 10.2 47 11.07 12.41.68 13.26 16.18 23.88 16.7m117.57 225.16c24.05 34.62 17.83 34.85 56.54 51.57 22.33 9.65 25.78 8.85 19.86 13.56-10 8-21.15 9.47-33.42 6.49-6.74-1.63-14.66-.84-21.55-1.9M639.89 186.91c11.76 38.9 12.21 46.85 22.91 56.31 20.51 18.14 17.4 23.28 7.88 33.17" fill="none" stroke="#000" stroke-linecap="round" stroke-linejoin="round" stroke-width="1.6"/><path d="M757.07 437.4c-8.33-3.65-18.62-.78-26.48 3.33 7.58 3.23 12.86 7.14 20.42 4 1.6-.66 2-3.7 3.35-5.3 2.39-2.87 6.1-3 6.92-1.05 1.33 3.16-6 7.57 3.33 9.79 60.76 14.6 35.37 10.26 64.94 7.88M595.23 269.5c-20.51 10.29-16.65 10.19-69.22 26.21-3.23 1-6.86.64-10.31.91M906.37 423c2.12 9 4 20.88 6.24 29.88 1 4.07 2.77 7.94 3.89 12 4.31 15.69-7.16 14.88-21.22 17.53M855.61 402c12.26 43.5 12.82 50.57 14.53 59.16" fill="none" stroke="#000" stroke-linecap="round" stroke-linejoin="round" stroke-width="1.6"/><path d="M577.73 325.33c4.5 2.39 9.58 7.47 13.4 6.65 9.39-2 11.74 5.39 16.74 9.41 4.41 3.53-1.09 7.71-3.51 7.71-25.67-3.67-38.56-6.64-28.81-23.85 11.6-20.48 7.77-11.34 19.68-55.75 3-11.05-6.81-26.38-24.66-30M507 287.85c-10.48.36-5.36 11.39.17 25.45.8 2 3.54 3.26 5.39 4.85 4.39-7.69 2.33-2.53 5.86-16.68M864 396.31c5.7 1.45 1.1.38 8.74-.32 19.86-1.82 26.11 20.68 33.68 26.93 6.58 5.43 11.15-.83 21.87 32.46 1.89 5.83-6.19 9.54-11.83 9.54" fill="none" stroke="#000" stroke-linecap="round" stroke-linejoin="round" stroke-width="1.6"/><path d="M845 393.84a44.6 44.6 0 0110.61 8.16c25.33 25.95 22.08 78.61 41.09 75.14 16.88-3 10.37-11.09 3.18-36.19-3.54-12.26-21 1.58-23.8 1.58M475.14 87.66c21.82 9.17-8.55 20.87 17.47 31.17 12.82 5.07 26.46 12.43 39.17 17.75m-8.92 47.59c-25.33 40.53-9.3 63 37.38 75-15.11 7.18-37.38 21.54-52.5 28.72 11 18.26 29 28.74 46.36 40.35 4.4 2.94 11.43 1.92 17.27 2.71m41.57-193.33c-10.41 25.51-37.73 31.12-65 29.49m53.78-39.78c0 20.59-10.72 23.17-28 38.52m101.19-21.58c-2.54 13.47-17.09 30.8-27.26 21.63-2.54-2.29-9.19-3.08-12.11-4.93M885 469.46c-16.12-19.86-38.26.74-43.27 1.82" fill="none" stroke="#000" stroke-linecap="round" stroke-linejoin="round" stroke-width="1.6"/><path d="M628 142c-9.62-6.41-5.85 17 6.25 23.72.7.39 2.09-.46 3.12-.72m-54.87-22.31c-28.31 15.72-60.06 44.51-47.7 49.42 8.48 3.33 16.78 6.63 26.19 7.59 7.88.8 18.59 6.73 26.28 9.4" fill="none" stroke="#000" stroke-linecap="round" stroke-linejoin="round" stroke-width="1.6"/><path d="M570.57 149.7c-15.87-1.1-35-15.7-38.79-13.12-5.55 3.74-11.32 8-15 13.48-4.23 6.24 3.25 27.73 6.09 34.11l9.19 4.13m9.08-49.59l-23.84 20.73m326.06 328.4c46 5.42 55.08-1.34 50.18 11.39-5.11 13.26-2 45.3-84.38 42.11-2.42-.1-4.76-2-7.16-3.07 6.11 18.87 16.67 41.6 22.08 60.66 2.89 10.14 5.45 10-11.77 14.31-8.41 5.61-19.62 13.8-23 23.13 4.56-3.07 12.88-2.54 35.75-7.3 10.32-2.16 3.9-12.14.25-20.2M872.79 396c-1.06 0-3.23-4.34-4.78-4.4-15.32-.68-30.26 3.23-43.68 9.83-1.05-6.58-3.12-10.91-10.28-13.42-23.16-8.07-.43-29.63-1.81-36.34-3.43-16.67 29.76-17.59 39.86-2.08 6.73 10.36 5.49 22.12-2.44 29.91-4.14 4.08-6.22 8.73-5.18 14.45" fill="none" stroke="#000" stroke-linecap="round" stroke-linejoin="round" stroke-width="1.6"/><path d="M817.12 434.59c25.23 46.48 37 41.67 24.65 55-11.77 7.55-32.89 7.72-63.58 20.84-15.79 6.74-16.64 5 16 76.42 3.29 7.22 7.69 14 11.92 20.72 1.22 2 3.6 3.25 5.47 4.84m120.85 59.85l-21.47 3.99m-55.27-306.91c6.64 4.51 10.47 4.91 17.1 9.43.31-.83 10.34-21.08 3.64-30.89-7.67-11.19-14.42-8.21-24.33 1.71M545.93 167.42c-7.48-1.87-3.78-4.45-14.33 7.18l4.77 2.39M678 283.4c2.16-2.35 5.11-6.66 7.64-9.43 15.67 14 19.29 15.26 9.85 17.07 3.65 8.26 2.91 3.95 4 16.74-2.91-1.59-5.86-3.12-8.71-4.84-.05 0-7.36-14.68-13.74-20.49-22.39-20.41-51.59-64.2-60.26-81.54m10.59-62.73c5.14 0 22.52 4.15 29.1 4.55 18.93 1.15 26.75 5.18 26.25-7.21-.94-24.44-38.49-43.52-51.14-16.52-11.68 25 3.8 35.68 9 55.56 3.58 13.71-8.95 28.56-23.17 26.31" fill="none" stroke="#000" stroke-linecap="round" stroke-linejoin="round" stroke-width="1.6"/><path d="M656.55 106.29c.25-2.12 1.27-4.06.57-5.8-3.06-7.71-10-10.16-17.37-11.14-12.57-1.65-19.43 15.48-19.6 19.86-.29 7-4.12 8.89-9.81 9.56 4.53 3 .46 10.76 20 3.19h0m10.45 53.54c-.64.64-5.58 20.48-24 25.6-19.86 5.52-13-7.18-29.54 8a18.14 18.14 0 00-5.56 8.18m-96.21-104.1l4-10.36s-5.68-3.42-5.86-5.82m340.71 304.42c-45.09 0-42.33-5.27-68.46-31.43-4.5-4.5-6.31-6.31-8.82-5.74-10.26 2.33-2 9-13.73-1.34-7.69-6.8-14.34-13.7-14-24 5.52 6 7.45 5.66 14.37 9.47.38.21 1.53-1 2.33-1.5 1 3.19 3.71 6.38 4.77 9.57m150.33 120.48c4 4 5.9 10.72 2.41 15.21M685.59 273.97l-7.64-8.93" fill="none" stroke="#000" stroke-linecap="round" stroke-linejoin="round" stroke-width="1.6"/><path d="M747.07 364.27l-6.3-7.84c-3.18 1.07-4.26 5.41-7.45 6.48m18.61 81.06l7.9 1.01M812 349.06c6.63 3.32 35.59 21.51 35.14 33.09M441.74 62.94c11.15 4.85 24.05 6.64 31.71 17.63 1.29 1.85 1.16 4.7 1.69 7.09-4.72 5.54-5.62 14.3-4.77 18.35a32.39 32.39 0 003-2.41c1.87 1.18 7.44 4.86 8.52 6.79" fill="none" stroke="#000" stroke-linecap="round" stroke-linejoin="round" stroke-width="1.6"/></svg>