<svg xmlns="http://www.w3.org/2000/svg" viewBox="0 0 700 700"><path fill="#e0fbff" d="M0 0h700v700H0z"/><path d="M282.12 116.6c-.4-6.07 1.31-12.24 3.89-17.75 11.72-25 46.54-7.37 47.41 15.28.47 11.5-6.79 7.75-24.34 6.68-6.14-.36-20.81-3.96-26.96-4.21z" fill="#afa58f"/><path d="M326.18 122.25c-2.35 12.48-15.84 28.55-25.28 20.05-1.29-1.17-11.25-4.55-11.4-4.48-16.69-34.82-4.99-15.88 36.68-15.57z" fill="#fbc7a1"/><path d="M208.45 143.43c-20.36 20-8.54 22.41-23.23 15.8-2.64-5.91-9.57-25.83-5.65-31.61 3.41-5.05 8.77-9 13.91-12.5 1.28-.86 4.32.31 8.4 2.22 26.68 12.38 27.57 9.45 27.57 10a120.93 120.93 0 00-21 16.09z" fill="#ed3c39"/><path d="M529.91 436c1.67 4.89-.66 8.78-1.06 8.78-3-3.67-1.91 1.26-46.5-4 8-9.36-3.5-13.85-1.48-15.35 4.64-1 25.17-20.11 40.12-1.69l.15-.07c3.28 6.4 6.72 6.33 8.77 12.33z" fill="#fcca04"/><path d="M436.75 532.59c-30.24-66.25-29.46-64.6-14.82-70.85 28.45-12.16 48-12.32 58.94-19.31 4.11-4.44 10.21 2.77 42.77.78 4-.24 6.53 1.3 6 5.28-5.09 37.48-35.91 43.55-79 41.88-2.25-.09-4.42-1.85-6.64-2.84 6.44 19.91 25.3 61.93 21.56 65.42-2.31 2.16-11.36 3.66-12.13 4.17-2.36-3.41-6.3-1.7-16.68-24.53z" fill="#6dcef6"/><path d="M426.29 396.67c21.95 5.33 29.71-7.29 31.71-5.26 11 20.2 12.46 19.29 11.52 19.9-27.42 2.2-3.88 6.23-60.21-7.3-8.61-2.06-1.86-6.16-3.09-9.08.14-.03 16.62.91 20.07 1.74z" fill="#fbb715"/><path d="M309.13 87.17C298.92 85 289.64 89 284.84 101.56c-18.1 7-14.33-.15-18.53-3 5.28-.62 8.83-2.41 9.1-8.85.16-4.07 6.52-20 18.17-18.42 9.68 1.32 17.77 5.87 15.55 15.88z" fill="#afa58f"/><path d="M401.24 331.51c24.22 24.26 21.67 29.14 63.47 29.14a104.48 104.48 0 0118.68-6.91c1.6-.43 8.48 5.57 10.32 7.45 11.61 41.2 12.14 48.15 13.43 54.63-11.66-1-23 8.89-26.27 9.6-2 1.48-23.45-34.62-23.6-34.77 5.49-4.36 2.29-3.62-18.41-12.57-35.89-15.5-30.12-15.72-52.42-47.81 7.8-5.76 7.79-5.76 14.8 1.24z" fill="#fcca04"/><path d="M258.33 106.59c2.05 21.85-26.3 32.27-25.91 35.8a106.73 106.73 0 01-24 1 120.93 120.93 0 0121-16.14c0-.5-.89 2.43-27.57-10-4.08-1.91-7.12-3.08-8.4-2.22-11.78-4.94-24.43-11.76-36.32-16.46-16.52-6.54-8.51-13.69-8.34-20.29.24 0-.27 2 5.42 5.45 5.5 5.93 8.87 3.19 14 4.25 14.41 3 29.08 4.65 43.45 7.71 14.63 3.1 28.9 9.46 43.57 10.26a11.74 11.74 0 013.1.64z" fill="#289c4b"/><path d="M279.36 221.65c11 11.2-19.95 43.94-26.58 74.43a11.93 11.93 0 00-4.27.19c-4.44 1-9.51-6.06-14.45-6.24 10.68-19 7.22-10.51 18.25-51.68-19 9.54-15.44 9.45-64.18 24.3-4.65 1.42-8.43-.14-10.47 1.64a65.87 65.87 0 01-6.46-8.93c14-6.66 34.66-20 48.67-26.62-44.81-11.48-55.9-32.94-37-65.66 10.89 14.55 29.23 19.73 45.27 23.16 21.99 4.76 35.79 19.76 51.22 35.41z" fill="#3988c9"/><path d="M542.76 597.73c-25.75-67-49.15-101.07-50.91-109.91 21.91-4.64 34.89-15.42 37.78-39.33.15 0 7 37.66 7 45.69 0 17.26 4.53 33.28 10.81 48.72 11.61 28.51 12 43.72 19.57 68.2-3 .93 0 .25-22 4.35-3.01-1.06 3.3-3.25-2.25-17.72z" fill="#2e3191"/><path d="M277.76 121.61c-1.24 4.87 3.68 16.61 10.72 20.54.61.34 1.78-.32 2.72-.62a54.66 54.66 0 013.33 9.69c-1.14.9-3.85 17.65-21.68 23.54a29 29 0 01-17.6 0c-2.81 2.07-7 4.5-10.32 7.59-7.13-2.47-17.06-8-24.37-8.71-8.72-.89-16.41-3.95-24.28-7-2-.8-3.34-1.24-2.55-3.54s6.22-11.28 14.72-19.63c25.58 1.52 50.68-3.83 60.27-27.35 4.28 5.34 6.28 4.74 9.04 5.49z" fill="#289c4b"/><path d="M512.71 398.76c-5.39-17.71-12.61-36.19-28.86-45.12a75.86 75.86 0 0121.35-2.1c1.49.06 2.94 3.56 4.42 4.08 20.58 0 23.32 18.47 31.23 25-.11.15 4.71 23.91 5.7 27.82s2.57 7.36 3.61 11.12c4.6 16.78-10.9 13.1-20.25 16.46-2-5.79-3.77-4.44-3-5.75a7.58 7.58 0 004.93.63c15.65-2.82 9.62-10.28 3-33.55-2.84-9.63-13.84-2.23-22.13 1.41z" fill="#ec1c24"/><path d="M282.54 120.1c1.35 7.5 5.36 13.84 8.66 21.43-9.51 2.97-20.06-26.7-8.66-21.43z" fill="#289c4b"/><path d="M567 611.1c7.23 23.38 8.82 19.35 4.54 19.86-57.08 6.81-43.42 2.94-33.54-7 6.47-6.59 5-9.24 7-8.53 22.06-4.08 19-3.43 22-4.33z"/><path d="M561.13 410.68c1.74 5.41-5.74 8.84-11 8.84-1-3.76-2.65-7.35-3.61-11.12-1-3.93-5.81-27.67-5.7-27.82 6.11 5.06 10.37-.77 20.31 30.1z" fill="#fbb715"/><path d="M272.85 174.76c17.6-5.77 20.67-22.75 21.68-23.54 2.62 12.47-8.8 25.58-21.68 23.54z" fill="#ed3c39"/><path d="M322.26 244.74c-23.23-23.44-50.43-69.64-49.41-70 15.5 2.45 20.47-13.15 20.87-13C304.62 197.85 305 205.21 315 214c18.83 16.68 16.2 21.45 7.26 30.74z" fill="#289c4b"/><path d="M260.77 312.14c-25-3.57-35.65-6.46-26.71-22.11 4.94.18 10 7.19 14.45 6.24 8.7-1.81 10.88 5 15.51 8.73 4.1 3.27-1.02 7.14-3.25 7.14z" fill="#7f725b"/><path d="M228.16 186.24c-16-3.43-34.38-8.61-45.27-23.16 3-5.16 1-4.42 10.84 0-.81 2.3.54 2.74 2.55 3.54 7.87 3.09 15.56 6.15 24.28 7 7.31.74 17.24 6.24 24.37 8.71a16.79 16.79 0 00-5.16 7.58 66.6 66.6 0 00-11.61-3.67z" fill="#289c4b"/><path d="M386.44 330.27c-2-1.8-4.11-3.55-6.11-5.32 3-1 4-5 6.91-6l5.82 7.24c-1.58.36-3.46 1.75-6.62 4.08z" fill="#fcca04"/><path d="M171.2 255.36a68.32 68.32 0 009.85 12.64c-3.27 13.11-1.36 8.34-5.43 15.46-1.72-1.48-4.26-2.63-5-4.49-7.16-18.24-8.17-23.61.58-23.61z" fill="#7f725b"/><path d="M512.71 398.76c8.28-3.64 19.27-11 22-1.45 6.67 23.27 12.7 30.73-3 33.55-10.53 1.94-13.99-15.68-19-32.1zm-115.12 1.34c1.26-1.66 1.38-4.74 4.77-6.05 3-1.14 5.25.58 3.35 4-2.11 3.82 2.15 3.36-8.12 2.05z" fill="#fbb715"/><path d="M380.33 325c-7.14-6.29-13.29-12.7-13-22.27 5.12 5.53 6.91 5.25 13.33 8.78.35.2 1.42-.9 2.15-1.39 1 3 3.45 5.92 4.43 8.88-2.95.94-3.95 5-6.91 6z" fill="#fbc7a1"/><path d="M322.26 244.74c3.78-3.93 6.33-7.07 6.77-10.5l7.05 8.25c-8.7 9.51-4.6 11.62-13.82 2.25z" fill="#289c4b"/><path d="M377.8 397.1c13.57-7.1 24.21-4.12 24.56-3.05-7.59 2.83 1.48 14.12-24.56 3.05z" fill="#fbc7a1"/><path d="M433.18 577c3.16-8.66 12.57-14.8 20.38-20 12.36-3.09 11.93-4.16 12-4 3.38 7.47 9.33 16.73-.24 18.72-6.1 1.28-32.09 5.47-32.14 5.28z"/><path d="M340.82 269.35c-.15-.09-5.87-12-11.83-18.1 1.23-1.24 4.94-6.41 7.09-8.76 14.53 13 17.88 14.15 9.13 15.82 3.39 7.66 2.7 3.67 3.68 15.53-2.69-1.48-5.43-2.84-8.07-4.49z" fill="#fbc7a1"/><path d="M493.78 330.91a22.12 22.12 0 00-3.32-18.31c9.18-9.2 15.44-12 22.55-1.58 6.21 9.09-3.09 27.86-3.37 28.63-6.15-4.19-9.7-4.56-15.86-8.74z" fill="#ffedbd"/><path d="M507.14 415.82c-1.29-6.48-1.82-13.43-13.43-54.63 9.83 10.08 15 24.46 19 37.57 12.83 42.09 10.95 18.4-5.57 17.06z" fill="#ec1c24"/><path d="M147 90.41c-1.63-2.08-7.63-5.87-7.63-5.87a28.74 28.74 0 01-2.81 2.23c-.78-3.75 0-11.87 4.42-17 14.54 6.11 4.02 13.44 6.02 20.64z" fill="#fbc7a1"/><path d="M485.83 342.78c.49-12.68-32.51-30.31-32.51-30.62 1-13.65 28.6-12.71 37.14.44 11.19 17.23-4.46 30.3-4.63 30.18z" fill="#ffedbd"/><path d="M268.72 116.08c-9.41 23.06-36.25 26.76-36.31 26.18 13.42-12 27.56-18.19 25.92-35.67 4.91 1.52 7.5 5.87 10.39 9.49z" fill="#ed3c39"/><path d="M455.17 348.21c-21.47-7.48-.39-27.47-1.67-33.69a9.43 9.43 0 01-.18-2.35c35.05 19.2 32 30.23 32.64 30.72-3.81 5.15-2.57 9.16-2.57 10.85a92.35 92.35 0 00-18.68 6.91c-.98-6.1-2.9-10.12-9.54-12.44z" fill="#fbc7a1"/><path d="M260.77 312.14c24.78 2.35 27.67 1.26 31.35 1.69 26.1 3 5.91 15.19 27.42 30.06 27.9 19.29 11.78 36.8 32.26 47.59 8.29 4.36 16.24 9.33 24.39 14 13.12 7.44-11.39 17 11.82 41.39 8.44 8.89 10 13.56 2.12 27.36-12.8 22.34-29.38 36.76-8.76 51 15.35 10.62 32.32 14.08 41.65 40.09 11.29 31.4 36.74 13.59 58.08 42.61 20.55 28 47.42 15.69 56.55 15.69M136.55 86.77c2.08 4.84 8 11.24 8.75 14.81 22.9 104.62-34.19 87.48-8.6 121.12 8.43 11.11 19.55 24.21 28.64 34.82M529.72 448.5c1.24 14.55 7 31.15 6.93 45.68 0 17.26 4.53 33.28 10.81 48.72 14.43 35.43 11.54 50.25 26.54 87.94" fill="none" stroke="#000" stroke-linecap="round" stroke-linejoin="round" stroke-width="1.48"/><path d="M491.94 488.27c17.33 37.37 59 107.45 52.06 126.82-2.71 7.62-9.89 12-15.54 17.7 10.29 4.72 37.18-2.26 45.58-1.95 4.69.17 7.25 2.88 8.8 8.21 1.45 5 4.7 9.42 7.16 14.11M182.89 163.08c15.31 20.46 43 20.88 56.88 26.87 16 6.87 27.59 19.52 39.59 31.7 11 11.2-19.95 43.94-26.58 74.43M154.24 83.82c5.5 5.93 8.87 3.19 14 4.25 14.41 3 29.08 4.65 43.45 7.71 14.63 3.1 28.9 9.46 43.57 10.26 11.5.63 12.28 15 22.14 15.48m109.04 208.75c22.3 32.09 16.53 32.31 52.42 47.81 20.7 8.95 23.9 8.21 18.41 12.57-9.27 7.38-19.61 8.79-31 6-6.25-1.51-13.59-.78-20-1.76M293.72 161.78C304.62 197.85 305 205.21 315 214c19 16.82 16.13 21.59 7.31 30.76" fill="none" stroke="#000" stroke-linecap="round" stroke-linejoin="round" stroke-width="1.48"/><path d="M402.35 394c-7.72-3.39-17.26-.73-24.55 3.09 7 3 11.92 6.62 18.93 3.71 1.48-.61 1.87-3.42 3.11-4.91 2.22-2.66 5.66-2.78 6.41-1 1.24 2.92-5.53 7 3.09 9.08 56.33 13.53 32.79 9.5 60.21 7.3M252.31 238.35c-19 9.54-15.44 9.45-64.18 24.3-3 .91-6.36.59-9.55.84M540.77 380.7c2 8.38 3.66 19.36 5.78 27.7 1 3.77 2.57 7.36 3.61 11.12 4 14.55-6.64 13.8-19.67 16.25m-36.78-74.58c11.36 40.34 11.88 46.89 13.47 54.85" fill="none" stroke="#000" stroke-linecap="round" stroke-linejoin="round" stroke-width="1.48"/><path d="M236.09 290.11c4.17 2.22 8.87 6.92 12.42 6.16 8.7-1.81 10.88 5 15.51 8.73 4.1 3.27-1 7.14-3.25 7.14C237 308.74 225 306 234.06 290c10.75-19 7.21-10.51 18.25-51.68 2.75-10.25-6.31-24.46-22.86-27.82m-58.99 44.86c-9.71.33-5 10.56.16 23.6.74 1.86 3.28 3 5 4.49 4.07-7.12 2.16-2.35 5.43-15.46m320.47 87.93c5.28 1.34 1 .35 8.1-.3 18.42-1.69 24.22 19.17 31.23 25 6.1 5 10.34-.77 20.28 30.1 1.74 5.41-5.74 8.84-11 8.84" fill="none" stroke="#000" stroke-linecap="round" stroke-linejoin="round" stroke-width="1.48"/><path d="M483.83 353.62a41.4 41.4 0 019.88 7.57c23.48 24.07 20.46 72.89 38.09 69.67 15.65-2.82 9.62-10.28 3-33.55-3.28-11.37-19.46 1.46-22.07 1.46M141 69.77c20.23 8.49-7.92 19.34 16.19 28.89 11.89 4.7 24.54 11.52 36.32 16.46m-8.29 44.11c-23.49 37.59-8.63 58.42 34.65 69.51-14 6.65-34.65 20-48.67 26.62 10.18 16.93 26.84 26.64 43 37.41 4.08 2.72 10.6 1.77 16 2.51m38.52-179.2c-9.65 23.65-35 28.85-60.27 27.35m49.88-36.89c0 19.09-9.95 21.48-25.92 35.72m93.77-20.01c-2.35 12.48-15.84 28.55-25.28 20.05-2.35-2.13-8.51-2.85-11.22-4.57m231.32 286c-14.94-18.41-35.47.68-40.12 1.69" fill="none" stroke="#000" stroke-linecap="round" stroke-linejoin="round" stroke-width="1.48"/><path d="M282.68 120.16c-8.91-5.94-5.41 15.73 5.8 22 .65.37 1.94-.42 2.9-.66m-50.87-20.71c-26.25 14.57-55.68 41.26-44.23 45.81 7.87 3.09 15.56 6.15 24.28 7 7.31.74 17.24 6.24 24.37 8.71" fill="none" stroke="#000" stroke-linecap="round" stroke-linejoin="round" stroke-width="1.48"/><path d="M229.45 127.28c-14.72-1-32.41-14.55-36-12.16-5.14 3.47-10.5 7.45-13.91 12.5-3.92 5.78 3 25.7 5.65 31.61l8.51 3.83m8.46-45.97l-22.1 19.22m302.29 304.46c42.67 5 51.07-1.24 46.53 10.56-4.74 12.3-1.84 42-78.23 39-2.25-.09-4.42-1.85-6.64-2.84 5.66 17.49 15.45 38.57 20.46 56.24 2.69 9.4 5.06 9.27-10.91 13.26-7.79 5.2-18.19 12.79-21.34 21.45 4.23-2.86 11.94-2.36 33.14-6.78 9.57-2 3.62-11.25.24-18.72m44.04-197.32c-1 0-3-4-4.44-4.08-14.2-.63-28.05 3-40.49 9.11-1-6.1-2.9-10.12-9.54-12.44-21.47-7.48-.39-27.47-1.67-33.69-3.18-15.49 27.62-16.3 37-1.92 6.23 9.6 5.08 20.51-2.27 27.73-3.84 3.78-5.76 8.09-4.8 13.4" fill="none" stroke="#000" stroke-linecap="round" stroke-linejoin="round" stroke-width="1.48"/><path d="M458 391.41c23.39 43.09 34.31 38.63 22.84 51-10.91 7-30.49 7.15-58.94 19.31-14.64 6.25-15.42 4.6 14.82 70.85 3 6.7 7.12 12.95 11 19.21 1.14 1.85 3.35 3 5.08 4.49m112.13 55.48l-19.91 3.7m-51.24-284.54c6.16 4.18 9.71 4.55 15.86 8.74.28-.77 9.58-19.54 3.37-28.63-7.11-10.38-13.37-7.62-22.55 1.58M206.6 143.71c-6.94-1.73-3.5-4.13-13.28 6.65l4.42 2.22M329 251.23c2-2.17 4.73-6.17 7.08-8.74 14.53 13 17.88 14.15 9.13 15.82 3.39 7.66 2.7 3.67 3.68 15.53-2.69-1.48-5.43-2.89-8.07-4.49-.05 0-6.83-13.61-12.74-19-20.75-18.92-47.83-59.53-55.87-75.6m9.9-58.15c4.76 0 20.87 3.85 27 4.21 17.55 1.07 24.81 4.81 24.34-6.68-.9-22.65-35.71-40.33-47.45-15.28-10.83 23.15 3.52 33.09 8.33 51.51 3.31 12.72-8.3 26.49-21.49 24.4" fill="none" stroke="#000" stroke-linecap="round" stroke-linejoin="round" stroke-width="1.48"/><path d="M309.16 87c.23-2 1.18-3.77.53-5.38-2.84-7.15-9.27-9.42-16.11-10.33-11.65-1.53-18 14.35-18.17 18.42-.27 6.44-3.82 8.23-9.1 8.85 4.2 2.81.43 10 18.53 3h.05m9.65 49.64c-.58.59-5.17 19-22.22 23.73-18.42 5.12-12-6.65-27.39 7.42a16.87 16.87 0 00-5.16 7.58m-89.22-96.5l3.69-9.61s-5.24-3.17-5.4-5.45m315.87 282.28c-41.8 0-39.25-4.88-63.47-29.14-4.17-4.17-5.85-5.85-8.18-5.32-9.51 2.16-1.86 8.37-12.73-1.24-7.13-6.3-13.29-12.7-13-22.27 5.12 5.53 6.91 5.25 13.33 8.78.35.2 1.42-.9 2.15-1.39 1 3 3.45 5.92 4.43 8.88m139.39 111.7c3.67 3.75 5.46 10 2.23 14.11M336.08 242.49l-7.08-8.28" fill="none" stroke="#000" stroke-linecap="round" stroke-linejoin="round" stroke-width="1.48"/><path d="M393.08 326.21l-5.84-7.21c-2.95 1-3.95 5-6.91 6m17.26 75.1l7.32.93m48.34-88.92c6.14 3.07 33 19.94 32.58 30.67M110 46.84c10.34 4.5 22.31 6.16 29.4 16.35 1.2 1.71 1.08 4.36 1.57 6.58-4.38 5.13-5.2 13.25-4.42 17a28.74 28.74 0 002.81-2.23c1.73 1.09 6.9 4.51 7.9 6.3" fill="none" stroke="#000" stroke-linecap="round" stroke-linejoin="round" stroke-width="1.48"/></svg>