<svg xmlns="http://www.w3.org/2000/svg" viewBox="0 0 1400 780"><path d="M113 526.4c-1.72 16.58 61.79 46.1 96.11 66.38s91 3.69 147.61 0c440.53-28.69 445.26 16.57 571.56-33.2 76.44-30.1 105.65 0 236.87 0 39.48 0 48.07-29.51 77.24-36.88s44.62-45 44.62-45c-63.21 0-116.43 10.1-132.16 2.6-15.45-7.39-49.77 3.68-63.51 0-10.8-2.9-25.88-1.24-31.79-.39-13 11.57-25.12 20.42-33.43 22.52C997 509.8 216 531.93 216 531.93s-4.56-6.15-5.13-25.83c-.02 0-96.14 3.7-97.87 20.3z" fill="#b3d2e6"/><path d="M1059.56 479.9c32.68-29 71.28-75.22 71.28-75.22 0-26.77-169.69-10-920.58 63.32l.59 38.1c.57 19.68 5.13 25.83 5.13 25.83s781-22.13 810.15-29.51c8.31-2.1 20.41-10.95 33.43-22.52zm-776.63 1.76c-66.12-3.94-68.29 7.59-63.07-9.21.2-.69 746.77-70.85 785.11-70.85 73.35 0 127.11-4 91 10.45 0 0-207.11 32-262 34.43s-527.87 36.57-551.04 35.18z" fill="#d39971"/><path d="M219.86 472.45c-5.22 16.8-3.05 5.27 63.07 9.21 23.17 1.39 496-32.73 551-35.18s262-34.43 262-34.43c36.15-14.45-17.61-10.45-91-10.45-38.3 0-784.87 70.16-785.07 70.85z" fill="#ad7449"/><path d="M1057 480.29s.92-.16 2.53-.39c5.91-.85 21-2.51 31.79.39 13.74 3.68 48.06-7.39 63.51 0 15.73 7.5 69-2.6 132.16-2.6 0 0-15.43 37.64-44.62 45s-37.76 36.88-77.24 36.88c-131.22 0-160.43-30.1-236.87 0-126.3 49.77-131 4.51-571.56 33.2-56.63 3.69-113.27 20.28-147.61 0S111.29 543 113 526.4s97.84-20.3 97.84-20.3c.57 19.68 5.13 25.83 5.13 25.83s781-22.13 810.15-29.51c8.31-2.1 20.41-10.95 33.43-22.52 32.68-29 71.28-75.22 71.28-75.22 0-26.77-169.69-10-920.58 63.32l.59 38.1" fill="none" stroke="#000" stroke-miterlimit="10" stroke-width=".7"/><path d="M1095.93 412.05s-207.11 32-262 34.43-527.8 36.57-551 35.18c-66.12-3.94-68.29 7.59-63.07-9.21.2-.69 746.77-70.85 785.11-70.85 73.35 0 127.11-4 90.96 10.45z" fill="none" stroke="#000" stroke-miterlimit="10" stroke-width=".7"/><path d="M340.6 284.87c-5.83-1.33-9.32 1.25-14.85 3.12s-2.64 2.25-7.91 7.35-4.28 8.91-6.17 16 8.19 22.18 8.19 22.18c7.53-8.67-8.82-15.92 5.26-18 4-.61 3.07 1.88 3.29 4.49s1.9 5.32 2.9 5.29c2.92-.1-3.27-12.82 3.45-16.51 7.24-4 21.11 1.1 24.66 1.4 2.82.24 7.8-4.61 3.41-17.64-1.97-5.83-17.94-6.68-22.23-7.68z" fill="#954b40"/><path d="M348.91 316.66c-4.75-.41-6.68-.64-10.53 1.14.5 2.57-.57 2.21 4.2 1.45 6.86-1.09 6.5 2.59 6.33-2.59z" fill="#964e42"/><path d="M367 385.78l5.9-23.25-13.52-4.3c2.63 1.77 2.13 4.31 2.6 12.46.22 3.63.61 8.36 1.55 14.63z" fill="#f3e3d4"/><path d="M396.9 484.06q4.59-7.1 10-15.41c-1.12-2.39-2.09-4.33-2.95-5.89l-10.7 16.68c1.02 1.26 2.15 2.74 3.65 4.62z" fill="#ffb288"/><path d="M359.13 323c-.09-2.85-2.66-2.76-2.56.09s2.66 2.79 2.56-.09z" fill="#6a2d28"/><path d="M340.75 378.28a210.75 210.75 0 01-16.91-14c-4.45-4.19-8.15-8.29-8.61-10.74-.52-2.75 4.82-9.85 2.67-10.23s-15.4 1.67-20.5 3.22-8.11 7.88-5.69 9.42 7.57 2.06 4.84 3.76c8.26 4 13.47 9.47 17.6 14.36 5 5.88 8.35 10.82 13.57 10.92 3.28.01 7.37-1.84 13.03-6.71z" fill="#ea6d2a"/><path d="M345.29 323.5c-.09-2.85-2.66-2.76-2.56.08s2.66 2.76 2.56-.08z" fill="#6a2d28"/><path d="M362 370.73c-.47-8.15 0-10.69-2.6-12.46-1.51-1-4.07-1.76-8.45-3.16-1.9-.6-6.83-3.25-7.95-3.21h-.11c-.19.06-.07 5.62-.14 11.63 0 4.08-.15 8.36-.49 11.28 10.94.79 12.22-.03 19.74-4.08z" fill="#ea6d2a"/><path d="M567.63 259.66c15.94-20-3.27-41.86-3.27-41.86-29.46-4.67-25.15-3.34-50.48 34.74-9.06 13.61-15.07 46.18-16.26 64.31 0 0 3.6 2.07 6.46 2.15a3 3 0 003-1.39c2-3.54 14.3-8.09 27.63-14.4s16.98-23.58 32.92-43.55z" fill="#8a985a"/><path d="M406.9 468.65q-5.4 8.33-10 15.41l.77.94c2.69 3.28 6.53-1.76 7.63-3s3.7-8.8 3.7-8.8c-.76-1.69-1.47-3.2-2.1-4.55zm47.47-59.07c2.5-2.54 2.83-9.62.75-11.68l-1.42-1.42-9 13.91c4.3.79 8.3.61 9.67-.81z" fill="#ffb288"/><path d="M453.7 396.48c14.42-22.22 31.09-47.88 50.38-77.47-2.86-.08-6.46-2.15-6.46-2.15l-48.41 75.42a60.75 60.75 0 014.49 4.2z" fill="#c3c4c6"/><path d="M298 484.05c10.87 4.49 41.54 7.58 43.19-9.85-29.11 6.46-69.44-8.22-71.65-10.94a23.67 23.67 0 01-4.9-16.53s-2.74 36.4-1.78 39.12 6.45 4.4 16.85-1.18 12.81-2.88 18.29-.62z" fill="#f3e3d4"/><path d="M389.56 389c7.65 1.11 40.75 10.16 42 13.95.76 2.35 3.64 4.33 7.13 5.73l10.54-16.42c-6.6-5.33-14.76-6.55-76.28-29.74L367 385.78z" fill="#ffb288"/><path d="M393.25 479.44l-35.8 55.76c1.47 1.09 1.36 3.46 3.23 2 2.89-2.23 10.53-13.62 36.22-53.18-1.5-1.84-2.63-3.32-3.65-4.58z" fill="#c3c4c6"/><path d="M340.75 378.28c.73.52 1.19-1 1.49-3.45.34-2.92.46-7.2.49-11.28-.54.21-11.28 4.28-18.81.64l-.08.09a210.75 210.75 0 0016.91 14z" fill="#f4e5d0"/><path d="M341.22 474.2a50.44 50.44 0 007.63-2.32l6.24-12.42c-33.61-9.4-28.09-2.49-47.56-34.39l-2.7 1.95s-11-19.47-13.71-24.68c-4.58-8.68 2.14-33.36 22.86-28.1l.17-.17c-4.13-4.89-9.34-10.41-17.6-14.36-14.17 8.84-31 77.78-31.85 86.64v.38a23.67 23.67 0 004.9 16.53c2.18 2.74 42.51 17.4 71.62 10.94z" fill="#ea6d2a"/><path d="M314 374.24c-20.72-5.26-27.44 19.42-22.86 28.1 2.75 5.21 13.71 24.68 13.71 24.68l2.7-1.95 21.82-15.73c2.09-9.27 3.56-17-1.63-24.35-5.22-.1-8.6-5-13.57-10.92z" fill="#f3e3d4"/><path d="M344.25 433.53l-3.5-55.25c-5.66 4.87-9.72 6.76-13 6.71 5.19 7.32 3.72 15.08 1.63 24.35 8.62 15.66 10.51 20.52 14.87 24.19z" fill="#ea6d2a"/><path d="M317.77 556.32c-2.51 2.16-13.14 19.92-9.22 19.07s7.8-.74 18.61-1.49 10 4.28 14.67 5.8 12 .28 12.95-3.81c4.4-19.68 3.42-29.38 6.57-37.82l-.67-.83c-1.87 1.42-1.76-1-3.23-2-26.3 12.68-14.93-.24-39.68 21.08z" fill="#8a985a"/><path d="M449.21 392.27l-10.54 16.42a32.86 32.86 0 006 1.7l9-13.91a60.75 60.75 0 00-4.46-4.21z" fill="#ffb288"/><path d="M360.1 317.52c-4-.54-8.59-.32-6.45 1.82l6.59-.22c-.05-.54-.09-1.12-.14-1.6z" fill="#964e42"/><path d="M345.69 340.06c3.91 3.35 8.27 2 11-1.14-5.45-3.48-9.8-1.47-11 1.14z" fill="#fff5e4"/><path d="M315.23 353.54c.46 2.45 4.16 6.55 8.61 10.74l.08-.09c7.53 3.64 18.27-.43 18.81-.64.07-6-.05-11.57.14-11.63h.11l.12-.82c-18.41-3.05-16-17.37-23.24-17.52 0 9.64.15 9.45-2 9.75 2.19.36-3.15 7.46-2.63 10.21z" fill="#fbb285"/><path d="M340.75 378.28l3.5 55.25c3 2.55 7.28 4.53 15.85 9.15 0-.18 5.52-43.46 3.43-57.32-.94-6.27-1.33-11-1.55-14.63-7.5 4-8.78 4.87-19.71 4.1-.33 2.49-.79 3.97-1.52 3.45z" fill="#ea6d2a"/><path d="M438.67 408.69L404 462.76c.86 1.56 1.83 3.5 2.95 5.89 10.19-15.71 22.61-34.89 37.76-58.26a32.86 32.86 0 01-6.04-1.7z" fill="#c3c4c6"/><path d="M344.25 433.53c-4.36-3.67-6.23-8.54-14.9-24.19l-21.82 15.73c19.47 31.9 14 25 47.56 34.39 30.63 13.15 33.18 13.89 38.16 20l10.75-16.7c-4.11-7.5-5.93-6.43-13.22-5.21-5.45.93-12.83-4.46-30.63-14.87-8.62-4.62-12.86-6.6-15.9-9.15z" fill="#ffb288"/><path d="M356.68 338.92c-2.72 3.13-7.08 4.49-11 1.14 1.21-2.61 5.56-4.62 11-1.14zm2.45-15.92c.1 2.85-2.47 2.93-2.56.09s2.43-2.91 2.56-.09zm-16.4.55c-.1-2.84 2.47-2.93 2.56-.08s-2.47 2.96-2.56.11zm-4.35-5.78c3.85-1.78 5.78-1.55 10.53-1.14.17 5.18.53 1.5-6.33 2.59-4.77.78-3.7 1.15-4.2-1.42zm21.72-.28c-.34-4.17-.68-7.3-.68-7.3-3.55-.3-17.42-5.37-24.66-1.4-6.72 3.69-.53 16.41-3.45 16.51-1 0-2.66-2.69-2.9-5.29s.69-5.1-3.29-4.49c-14.08 2.09 2.27 9.34-5.26 18 7.26.15 4.83 14.47 23.24 17.52a50.69 50.69 0 0010.85.46c4.29-.21 5-9 6.37-14.75.77-3.22.39-11.27-.08-17.67l-6.59.22c-2.14-2.1 2.5-2.3 6.45-1.78z" fill="#ffb38f"/><path d="M497.62 316.85c1.19-18.13 7.2-50.7 16.26-64.31 25.33-38.08 21-39.41 50.48-34.74 0 0 19.21 21.88 3.27 41.86s-19.65 37.23-33 43.55S509 314.07 507 317.61a3 3 0 01-3 1.39c-2.78-.08-6.38-2.15-6.38-2.15zM361.35 538.07c-3.15 8.44-2.17 18.14-6.57 37.82-.91 4.09-8.31 5.33-12.95 3.81s-3.86-6.54-14.67-5.8-14.68.66-18.61 1.49 6.71-16.91 9.22-19.07c24.75-21.34 13.38-8.4 39.68-21.12m-15.18-160.37c10.93.77 12.21-.05 19.71-4.1l.21-.11M314 374.24c-20.72-5.26-27.44 19.42-22.86 28.1 2.75 5.21 13.71 24.68 13.71 24.68l2.7-1.95 21.82-15.73c2.09-9.27 3.56-17-1.63-24.35 0 0 0-.06-.05-.09m-20.16 40.17c19.47 31.9 14 25 47.56 34.39" fill="none" stroke="#000" stroke-miterlimit="10" stroke-width=".7"/><path d="M296.55 359.71c8.26 4 13.47 9.47 17.6 14.36 5 5.88 8.35 10.82 13.57 10.92 3.31.05 7.37-1.84 13-6.71l3.5 55.25v.13m-1.48-70.11h0c-.54.21-11.28 4.28-18.81.64m35.48-5.96l13.52 4.3-5.9 23.25-3.49-.42m-22.31 88.75v.09c-1.65 17.43-32.32 14.34-43.19 9.85-5.51-2.26-7.89-5-18.29.62s-15.9 3.93-16.85 1.18 1.78-39.12 1.78-39.12m55.18-113.17s-10.1-15-8.19-22.18.91-10.95 6.17-16 2.4-5.47 7.91-7.35 9-4.45 14.85-3.12c4.29 1 20.26 1.85 22.23 7.71 4.39 13-.59 17.88-3.41 17.64-3.55-.3-17.42-5.37-24.66-1.4-6.72 3.69-.53 16.41-3.45 16.51-1 0-2.66-2.69-2.9-5.29s.69-5.1-3.29-4.49c-14.12 2.05 2.27 9.3-5.26 17.97z" fill="none" stroke="#000" stroke-miterlimit="10" stroke-width=".7"/><path d="M359.42 310.22s.34 3.13.68 7.3c0 .52.09 1.06.14 1.6.47 6.4.85 14.45.08 17.67-1.37 5.75-2.08 14.54-6.37 14.75a50.69 50.69 0 01-10.85-.46c-18.41-3.05-16-17.37-23.24-17.52 0 9.64.15 9.45-2 9.75" fill="none" stroke="#000" stroke-miterlimit="10" stroke-width=".7"/><path d="M356.68 338.92c-5.44-3.48-9.79-1.47-11 1.14 3.92 3.35 8.32 1.99 11-1.14zM353.2 325c1.29 4.19 2.81 10.26-.7 8.95m-9.77-10.37c.09 2.85 2.66 2.76 2.56-.08s-2.66-2.76-2.56.08zm13.84-.46c.09 2.84 2.66 2.76 2.56-.09s-2.66-2.76-2.56.09zm3.53-5.6c-4-.54-8.59-.32-6.45 1.82l6.59-.22m-11.33-2.46c.17 5.18.53 1.5-6.33 2.59-4.77.76-3.7 1.12-4.2-1.45 3.85-1.8 5.78-1.55 10.53-1.14zm24.02 45.87c61.52 23.19 69.68 24.41 76.28 29.74a60.75 60.75 0 014.49 4.21l1.42 1.42c2.08 2.06 1.75 9.14-.75 11.68-1.4 1.43-5.42 1.6-9.71.81a32.86 32.86 0 01-6-1.7c-3.49-1.4-6.37-3.38-7.13-5.73-1.23-3.79-34.33-12.84-42-13.95L367 385.78" fill="none" stroke="#000" stroke-miterlimit="10" stroke-width=".7"/><path d="M360.1 442.68c17.8 10.41 25.18 15.8 30.63 14.87 7.29-1.22 9.11-2.29 13.22 5.21.86 1.56 1.83 3.5 2.95 5.89.63 1.35 1.34 2.86 2.1 4.51 0 0-2.6 7.54-3.7 8.8s-4.94 6.32-7.63 3l-.77-.94c-1.5-1.88-2.63-3.36-3.65-4.62-5-6.09-7.53-6.83-38.16-20l-6.24 12.42a50.44 50.44 0 01-7.63 2.32c-29.11 6.46-69.44-8.22-71.65-10.94a23.67 23.67 0 01-4.9-16.53v-.38c.84-8.86 17.68-77.8 31.85-86.64 2.73-1.7-2.44-2.22-4.84-3.76s.59-7.86 5.69-9.42 18.34-3.61 20.5-3.22-3.19 7.48-2.67 10.23c.46 2.45 4.16 6.55 8.61 10.74a210.75 210.75 0 0016.91 14c.73.52 1.19-1 1.49-3.45.34-2.92.46-7.2.49-11.28.07-6-.05-11.57.14-11.63h.11c1.12 0 6 2.61 7.95 3.21 4.38 1.4 6.94 2.14 8.45 3.16 2.63 1.77 2.13 4.31 2.6 12.46.22 3.63.61 8.36 1.55 14.63 2.09 13.86-3.41 57.14-3.43 57.32-8.57-4.62-12.81-6.6-15.85-9.15-4.36-3.67-6.23-8.54-14.9-24.19" fill="none" stroke="#000" stroke-miterlimit="10" stroke-width=".7"/><path d="M628.7 389.18l-31.48 53.2a24.76 24.76 0 013.63 5.18c9.46-15.83 20.51-34.33 33.42-55.9a21.29 21.29 0 01-5.57-2.48z" fill="#c3c4c6"/><path d="M531 309.41c-.2-2.85 1.46-3 1.66-.11s-1.49 2.97-1.66.11zm16.78-1.18c.2 2.86-1.48 3-1.68.12s1.45-2.97 1.65-.12zm4.31 14c1.17-5.78-1.87-26.52-1.87-26.52-3.55-.18-17.6-4.74-24.69-.5-6.59 3.93.07 16.41-2.85 16.62-1 .07-2.75-2.59-3.09-5.19s.5-5.11-3.45-4.36c-14 2.6 2.61 9.25-4.61 18.19 7.27-.12 5.37 14.29 23.87 16.66a51 51 0 0010.86.07c4.25-.34 4.64-9.15 5.8-14.94z" fill="#feb580"/><path d="M546.07 308.35c.2 2.86 1.88 2.74 1.68-.12s-1.88-2.73-1.68.12z" fill="#622b0d"/><path d="M555.7 428.08c0-.18 3.93-43.63 1.34-57.41-1.17-6.22-1.73-10.94-2.08-14.56-7.36 4.32-8.6 5.19-19.55 4.81-.21 2.5-.62 4-1.36 3.5l5.51 55.08c3.09 2.5 7.44 4.28 16.14 8.58z" fill="#ea6d2a"/><path d="M649 379.86c-2-1.9-3.56-3.33-5-4.5q-5 8.43-9.76 16.3c5.78 1.76 12.59 1.94 14.43-.09 2.43-2.63 2.51-9.72.33-11.71z" fill="#ffb288"/><path d="M502.52 412.4l21.23-16.51c1.76-9.35 2.94-17.16-2.51-24.28-5.22.09-8.78-4.73-14-10.42l-.16.17c-20.9-4.5-26.72 20.41-21.82 28.92 2.93 5.11 14.6 24.16 14.6 24.16z" fill="#f3e3d4"/><path d="M638.87 372l-10.17 17.18a21.29 21.29 0 005.57 2.48q4.71-7.89 9.76-16.3a23.93 23.93 0 00-5.16-3.36z" fill="#ffb288"/><path d="M495.18 471.69c11 4.08 41.78 6.06 42.8-11.43-28.85 7.52-69.69-5.68-72-8.31a23.75 23.75 0 01-5.49-16.34s-1.41 36.47-.35 39.16 6.6 4.16 16.79-1.8 12.65-3.35 18.25-1.28z" fill="#f3e3d4"/><path d="M560.55 371l22.63 2.4c7.69.84 41.1 8.67 42.46 12.41a7.37 7.37 0 003.06 3.4L638.87 372c-7.35-3.59-22-7.26-73.27-24.48z" fill="#ffb288"/><path d="M551.91 343.75c-1.56-1-4.13-1.61-8.57-2.85-1.91-.52-6.94-3-8.06-2.91a.2.2 0 00-.11 0c-.19.07.14 5.62.29 11.63.12 4.07.15 8.36-.08 11.29 11 .38 12.19-.49 19.55-4.81-.74-8.1-.33-10.68-3.02-12.35z" fill="#ea6d2a"/><path d="M516.61 351.05A209 209 0 00534 364.43c.74.49 1.15-1 1.36-3.5.23-2.93.2-7.22.08-11.29-.53.22-11.12 4.69-18.78 1.32z" fill="#f4e5d0"/><path d="M502.29 559.64c-2.42 2.25-12.39 20.37-8.5 19.39s7.76-1 18.54-2.18 10.19 3.91 14.88 5.28 12-.16 12.8-4.28c3.67-19.83 2.34-29.48 5.17-38l-.7-.81c-1.8 1.5-1.78-.89-3.29-1.91-25.82 13.63-14.92.28-38.9 22.51z" fill="#8a985a"/><path d="M532.63 309.3c-.2-2.86-1.86-2.74-1.66.11s1.86 2.74 1.66-.11z" fill="#622b0d"/><path d="M539.53 419.51L534 364.43c-5.49 5.07-9.47 7.11-12.78 7.18 5.45 7.12 4.27 14.93 2.51 24.28C533 411.21 535 416 539.53 419.51z" fill="#ea6d2a"/><path d="M544.48 539c3.23-2.67 12.29-17.68 46.33-74.65a28.88 28.88 0 00-4.14-4.14l-45.48 76.88c1.51 1.02 1.49 3.41 3.29 1.91z" fill="#c3c4c6"/><path d="M600.85 447.56q-5.36 8.94-10 16.79c1.08 1.27 2.33 2.78 4 4.65 2.81 3.18 6.47-2 7.52-3.31s3.38-8.93 3.38-8.93c-2.04-3.9-3.6-6.91-4.9-9.2z" fill="#ffb288"/><path d="M516.68 351c7.66 3.37 18.25-1.1 18.78-1.32-.15-6-.48-11.56-.29-11.63a.2.2 0 01.11 0l.09-.83c-18.5-2.37-16.6-16.78-23.87-16.66.35 9.63.5 9.43-1.59 9.82 2.16.3-2.92 7.59-2.3 10.31.55 2.44 4.4 6.4 9 10.42z" fill="#fbb285"/><path d="M673.31 313.77L638.87 372a23.93 23.93 0 015.16 3.36c10.73-17.91 22.62-37.73 35.8-59.66-2.83.01-6.52-1.93-6.52-1.93z" fill="#c3c4c6"/><path d="M687.22 248.91c-8.56 13.94-13.39 46.71-13.91 64.86 0 0 3.66 1.94 6.52 1.92a3 3 0 002.92-1.5c1.82-3.61 14-8.61 27.07-15.41s16.17-24.17 31.37-44.72-4.81-41.71-4.81-41.71c-29.59-3.58-25.25-2.41-49.16 36.56z" fill="#8a985a"/><path d="M534 364.43a209 209 0 01-17.41-13.38c-4.6-4-8.45-8-9-10.42-.62-2.72 4.46-10 2.3-10.31s-15.33 2.23-20.38 4-7.81 8.17-5.34 9.62 7.64 1.78 5 3.58c8.4 3.65 13.8 9 18.11 13.71 5.18 5.69 8.74 10.51 14 10.42 3.27-.11 7.25-2.15 12.72-7.22z" fill="#ea6d2a"/><path d="M502.52 412.4c20.62 31.17 14.85 24.46 48.79 32.63 24.05 9.3 31 11.79 35.36 15.18l10.55-17.83c-2.65-2.56-5-1.66-10.37-.55s-13-4-31.15-13.75c-8.74-4.3-13.05-6.12-16.17-8.57-4.5-3.5-6.54-8.3-15.78-23.62z" fill="#ffb288"/><path d="M586.67 460.21a28.88 28.88 0 014.14 4.14q4.7-7.86 10-16.79a24.76 24.76 0 00-3.63-5.18z" fill="#ffb288"/><path d="M519.56 306.67c.34 2.6 2.09 5.26 3.09 5.19 2.92-.21-3.74-12.69 2.85-16.62 7.09-4.24 21.14.32 24.69.5 2.83.14 7.63-4.9 2.77-17.76-2.19-5.79-18.17-6.05-22.5-6.89-5.88-1.12-9.27 1.59-14.72 3.65s-2.56 2.35-7.64 7.64-4 9.06-5.58 16.26 9 21.86 9 21.86c7.22-8.94-9.39-15.59 4.61-18.19 3.93-.75 3.11 1.77 3.43 4.36z" fill="#855b5d"/><path d="M551.91 343.75c2.69 1.67 2.28 4.23 3.05 12.36.35 3.62.91 8.34 2.08 14.56l3.51.3 5.05-23.45-13.67-3.81z" fill="#f3e3d4"/><path d="M489.17 347.48c-13.84 9.36-28.16 78.86-28.68 87.75v.38A23.75 23.75 0 00466 452c2.32 2.63 43.16 15.83 72 8.31a49.59 49.59 0 007.54-2.59l5.77-12.72c-33.94-8.17-28.17-1.46-48.79-32.63l-2.62 2s-11.67-19.05-14.6-24.16c-4.9-8.51.92-33.42 21.82-28.92l.16-.17c-4.28-4.66-9.71-9.99-18.11-13.64z" fill="#ea6d2a"/><path d="M535.41 360.92c11 .38 12.19-.49 19.55-4.81l.21-.12m-48.05 5.37c-20.9-4.5-26.72 20.41-21.82 28.92 2.93 5.11 14.6 24.16 14.6 24.16l2.62-2 21.23-16.51c1.76-9.35 2.94-17.16-2.51-24.28a.24.24 0 00-.06-.08" fill="none" stroke="#000" stroke-miterlimit="10" stroke-width=".7"/><path d="M555.7 428.08c18.16 9.76 25.74 14.87 31.15 13.75s7.72-2 10.37.55a24.76 24.76 0 013.63 5.18c1.3 2.29 2.86 5.3 4.83 9.2 0 0-2.33 7.63-3.38 8.93s-4.71 6.49-7.52 3.31c-1.64-1.87-2.89-3.38-4-4.65a28.88 28.88 0 00-4.14-4.14c-4.32-3.39-11.31-5.88-35.36-15.18l-5.79 12.64a49.59 49.59 0 01-7.54 2.59c-28.85 7.52-69.69-5.68-72-8.31a23.75 23.75 0 01-5.49-16.34v-.38c.52-8.89 14.84-78.39 28.68-87.75 2.66-1.8-2.52-2.12-5-3.58s.3-7.88 5.34-9.62 18.2-4.28 20.38-4-2.92 7.59-2.3 10.31c.55 2.44 4.4 6.4 9 10.42A209 209 0 00534 364.43c.74.49 1.15-1 1.36-3.5.23-2.93.2-7.22.08-11.29-.15-6-.48-11.56-.29-11.63a.2.2 0 01.11 0c1.12-.08 6.15 2.39 8.06 2.91 4.44 1.24 7 1.89 8.57 2.85 2.69 1.67 2.28 4.23 3.05 12.36.35 3.62.91 8.34 2.08 14.56 2.59 13.78-1.33 57.23-1.34 57.41-8.74-4.3-13.05-6.12-16.17-8.57-4.5-3.5-6.54-8.3-15.78-23.62m-21.21 16.49c20.62 31.17 14.85 24.46 48.79 32.63" fill="none" stroke="#000" stroke-miterlimit="10" stroke-width=".7"/><path d="M489.17 347.48c8.4 3.65 13.8 9 18.11 13.71 5.18 5.69 8.74 10.51 14 10.42 3.31-.07 7.29-2.11 12.78-7.18l5.51 55.08v.13m-4.1-70h0c-.53.22-11.12 4.69-18.78 1.32m35.24-7.25l13.67 3.81-5.05 23.45-3.51-.3m8.56-23.15c51.27 17.22 65.92 20.89 73.27 24.48a23.93 23.93 0 015.16 3.36c1.43 1.17 2.94 2.6 5 4.5s2.08 9.08-.32 11.71c-1.84 2-8.65 1.85-14.43.09a21.29 21.29 0 01-5.57-2.48 7.37 7.37 0 01-3.06-3.4c-1.36-3.74-34.77-11.57-42.46-12.41L560.55 371M538 460.18v.08c-1 17.49-31.78 15.51-42.8 11.43-5.6-2.07-8.07-4.67-18.26 1.28s-15.74 4.51-16.79 1.8.35-39.16.35-39.16m51-115.11s-10.63-14.66-9-21.86.5-11 5.58-16.26 2.2-5.56 7.64-7.64 8.84-4.77 14.72-3.65c4.33.84 20.31 1.1 22.5 6.89 4.86 12.86.06 17.9-2.77 17.76-3.55-.18-17.6-4.74-24.69-.5-6.59 3.93.07 16.41-2.85 16.62-1 .07-2.75-2.59-3.09-5.19s.5-5.11-3.45-4.36c-13.98 2.6 2.63 9.25-4.59 18.19z" fill="none" stroke="#000" stroke-miterlimit="10" stroke-width=".7"/><path d="M550.19 295.74s3 20.74 1.87 26.52-1.55 14.6-5.83 15a51 51 0 01-10.86-.07c-18.5-2.37-16.6-16.78-23.87-16.66.35 9.63.5 9.43-1.59 9.82" fill="none" stroke="#000" stroke-miterlimit="10" stroke-width=".7"/><path fill="none" stroke="#000" stroke-linecap="round" stroke-linejoin="round" stroke-width=".7" d="M547.02 325.54l-11.55.81m6.39-16.62c3.68 4.35 2.33 7.36 1.63 10.36l-2.72-.89m-5.16-15.19l-9.55.67m22.94-2.39c-.75.21-3.78 0-5 .35m-13 6.77c.2 2.86 1.86 2.74 1.66-.11s-1.89-2.74-1.66.11zm15.07-1.06c.2 2.86 1.88 2.74 1.68-.12s-1.88-2.73-1.68.12z"/><path d="M590.81 464.35c-34 57-43.1 72-46.33 74.65" fill="none" stroke="#000" stroke-miterlimit="10" stroke-width=".7"/><path d="M673.31 313.77c.52-18.15 5.35-50.92 13.91-64.86 23.91-39 19.57-40.14 49.16-36.56 0 0 20 21.18 4.81 41.71s-18.28 37.94-31.37 44.72-25.25 11.8-27.07 15.41a3 3 0 01-2.92 1.5c-2.83.02-6.52-1.92-6.52-1.92zM545.18 539.81c-2.83 8.56-1.5 18.21-5.17 38-.77 4.12-8.12 5.63-12.8 4.28s-4.12-6.41-14.88-5.28-14.64 1.21-18.54 2.18 6.08-17.14 8.5-19.39c24-22.23 13.08-8.88 38.9-22.55" fill="none" stroke="#000" stroke-linecap="round" stroke-linejoin="round" stroke-width=".7"/><path d="M759.09 295.4c.16 2.72 1.88 2.62 1.72-.1s-1.87-2.61-1.72.1z" fill="#6f1c00"/><path d="M675.47 437c2.27 2.66 42.94 16.38 71.89 9.23a51.22 51.22 0 007.57-2.49l6-12.57c-33.83-8.6-28.15-1.82-48.37-33.25l-2.64 2s-11.42-19.2-14.29-24.34c-4.8-8.57 1.35-33.41 22.19-28.64l.16-.17c-4.25-4.78-9.58-10.18-17.93-13.94-14 9.18-29.17 78.49-29.8 87.37v.39a23.69 23.69 0 005.22 16.41z" fill="#ea6d2a"/><path d="M746.12 324c-20.35-6.52-16.11-17.82-23.44-17.81.22 9.64.37 9.44-1.73 9.79 2.16.33-3 7.56-2.43 10.29.52 2.44 4.32 6.45 8.87 10.53l.07-.09c7.62 3.47 18.26-.86 18.79-1.08-.07-6.03-.32-11.63-.13-11.63zm60.94 105.4l-10.74 17.65a30.68 30.68 0 014 4.24q4.75-7.73 10.22-16.61a26.84 26.84 0 00-3.48-5.28z" fill="#e68950"/><path d="M750.9 559.56c3.94-19.78 2.73-29.45 5.67-38l-.69-.82c-1.83 1.48-1.78-.91-3.28-1.95-26 13.34-14.92.13-39.17 22-2.46 2.22-12.67 20.22-8.76 19.28s7.79-.94 18.56-1.94 10.16 4 14.83 5.46 12.03.08 12.84-4.03z" fill="#8a985a"/><path d="M728.17 305.7c.13 2.13 2.27 2 2.15-.13s-2.27-2.01-2.15.13z" fill="#fff1ce"/><path d="M744.62 350.38c.74.5 1.17-1 1.41-3.49.27-2.93.29-7.21.22-11.29-.53.22-11.17 4.55-18.79 1.08l-.07.09a210.62 210.62 0 0017.23 13.61z" fill="#f4e5d0"/><path d="M810.57 434.68c9.63-15.68 20.95-34.06 34.28-55.68a22.76 22.76 0 01-5.59-2.47l-32.2 52.87a26.84 26.84 0 013.51 5.28z" fill="#c3c4c6"/><path d="M854.73 362.93q-5.12 8.32-9.88 16.07c5.68 1.73 12.25 1.94 14.1 0 2.44-2.6 2.6-9.69.47-11.7-1.91-1.84-3.34-3.23-4.69-4.37z" fill="#e68950"/><path d="M734 381.7c1.87-9.32 3.15-17.12-2.2-24.31-5.23 0-8.72-4.84-13.83-10.6l-.16.17c-20.84-4.77-27 20.07-22.19 28.64 2.87 5.14 14.29 24.34 14.29 24.34l2.64-2z" fill="#f3e3d4"/><path d="M956.23 238.37C971.7 218 952 196.6 952 196.6c-29.54-4-25.21-2.73-49.62 35.93-8.74 13.83-14 46.54-14.74 64.68 0 0 3.63 2 6.49 2a3 3 0 002.94-1.46c1.86-3.59 14.11-8.43 27.27-15.05s16.43-23.98 31.89-44.33z" fill="#8a985a"/><path d="M704.41 457.13c11 4.22 41.7 6.6 43-10.88-29 7.15-69.62-6.57-71.89-9.23a23.69 23.69 0 01-5.29-16.41s-1.88 36.44-.85 39.15 6.54 4.24 16.81-1.58 12.66-3.18 18.22-1.05z" fill="#f3e3d4"/><path d="M743.2 297.22c-.14-2.55 1.66-2.66 1.81-.11s-1.66 2.64-1.81.11zm14.15 12.65c-3.66 5.53-5.45 5.26-9.28.53zm3.46-14.57c.16 2.72-1.56 2.82-1.72.1s1.57-2.81 1.72-.1zm-22.18-2.87c3.11-2.9 3.81-4.46 9.93-3.3l.07 1.11c-3.32.13-7.45.01-10 2.19zm23.44-3l-.39-7.56c-3.55-.22-17.55-5-24.68-.82-.3-2.6-5.53 6.25-9.49 6.95-14 2.41 2.43 9.35-4.83 18.13 7.33 0 3.09 11.29 23.44 17.81a.15.15 0 01.1 0c9-2.32 13.34-5 15.1-12.11 1.21-4.89 1.22-11.91.75-22.37zm-31.75 16.11c.12 2.13-2 2.26-2.15.13s2.03-2.24 2.15-.1z" fill="#e68950"/><path d="M762.78 329.93c2.67 1.7 2.23 4.26 2.89 12.4.3 3.62.8 8.34 1.9 14.58l3.5.34 5.35-23.38-6.32-1.87-7.3-2.14z" fill="#f3e3d4"/><path d="M811.6 452.51c1.07-1.29 3.49-8.89 3.49-8.89-1.83-3.74-3.28-6.67-4.52-8.94q-5.46 8.9-10.22 16.61c1 1.23 2.19 2.67 3.69 4.43 2.77 3.22 6.5-1.91 7.56-3.21z" fill="#e68950"/><path d="M849.68 359.45a23.51 23.51 0 015.05 3.48c11.68-18.94 24.75-40.09 39.35-63.71-2.86 0-6.49-2-6.49-2z" fill="#c3c4c6"/><path d="M743.2 297.22c.15 2.53 1.95 2.43 1.81-.11s-1.95-2.44-1.81.11z" fill="#6f1c00"/><path d="M731.76 357.39c5.35 7.19 4.07 15 2.2 24.31 9 15.43 11 20.26 15.47 23.82l-4.81-55.14c-5.55 5-9.56 6.98-12.86 7.01z" fill="#ea6d2a"/><path d="M796.32 447.05l10.74-17.65c-2.71-2.93-5.07-2-10.6-1s-12.94-4.15-31-14.14c-8.68-4.42-13-6.29-16.06-8.78-4.4-3.48-6.4-8.35-15.4-23.78l-21.45 16.24c20.22 31.43 14.54 24.65 48.37 33.25 24.41 9.81 31.14 12.3 35.4 15.86z" fill="#e68950"/><path d="M762.78 329.93c-1.54-1-4.11-1.67-8.53-3-1.91-.55-6.9-3.09-8-3a.15.15 0 00-.1 0c-.19.07.06 5.63.13 11.63.07 4.08 0 8.36-.22 11.29 10.94.51 12.2-.34 19.61-4.56-.67-8.1-.22-10.66-2.89-12.36z" fill="#ea6d2a"/><path d="M746 346.89c-.24 2.5-.67 4-1.41 3.49l4.81 55.14c3.09 2.49 7.38 4.36 16.06 8.78 0-.18 4.49-43.58 2.08-57.39-1.1-6.24-1.6-11-1.9-14.58-7.41 4.22-8.67 5.07-19.61 4.56z" fill="#ea6d2a"/><path d="M754.25 327c4.42 1.29 7 2 8.53 3v-.05l7.3 2.14c1.31-5.51-7.81-18.78-8.78-20.18-1.76 7.15-6.06 9.79-15.1 12.11 1.15-.14 6.14 2.4 8.05 2.98z" fill="#593233"/><path d="M748.56 289.13c-6.12-1.16-6.82.4-9.93 3.3 2.55-2.18 6.68-2.06 10-2.19z" fill="#6f1c00"/><path d="M854.73 362.93a23.51 23.51 0 00-5.05-3.48l-10.42 17.08a22.76 22.76 0 005.59 2.47q4.76-7.75 9.88-16.07z" fill="#e68950"/><path d="M752.6 518.82c1.5 1 1.45 3.43 3.28 1.95 3.18-2.57 12-16.72 44.47-69.48a30.68 30.68 0 00-4-4.24z" fill="#c3c4c6"/><path d="M849.68 359.45c-7.22-3.74-21.49-7.44-73.26-25.58l-5.35 23.38 22.6 2.7c7.67.93 41 9.19 42.3 12.95a7.65 7.65 0 003.29 3.63z" fill="#e68950"/><path d="M748.07 310.4c3.83 4.73 5.62 5 9.28-.53z" fill="#fff1ce"/><path d="M742.27 257c-5.87-1.2-9.3 1.47-14.77 3.46s-2.59 2.32-7.74 7.54-4.07 9-5.79 16.18 8.71 22 8.71 22c7.26-8.78-9.13-15.72 4.83-18.13 4-.7 9.19-9.55 9.49-6.95 7.13-4.14 21.13.6 24.68.82 2.83.17 7.68-4.8 3-17.72-2.12-5.84-18.1-6.31-22.41-7.2z" fill="#593233"/><path d="M727.39 336.77c-4.55-4.08-8.35-8.09-8.87-10.53-.58-2.73 4.59-10 2.43-10.29s-15.36 2-20.42 3.71-7.92 8.07-5.47 9.55 7.62 1.88 4.94 3.64c8.35 3.76 13.68 9.16 17.93 13.94 5.11 5.76 8.6 10.62 13.83 10.6 3.3 0 7.31-2 12.86-7a210.62 210.62 0 01-17.23-13.62z" fill="#ea6d2a"/><path d="M724.82 301.11c2.23 4.14 7.4 1.8 7.1.13m14.14 45.65c10.94.51 12.2-.34 19.61-4.56l.21-.12M717.77 347c-20.84-4.77-27 20.07-22.19 28.64 2.87 5.14 14.29 24.34 14.29 24.34l2.64-2L734 381.7c1.87-9.32 3.15-17.12-2.2-24.31l-.06-.08" fill="none" stroke="#000" stroke-miterlimit="10" stroke-width=".7"/><path d="M746.22 324c1.13-.07 6.12 2.47 8 3 4.42 1.29 7 2 8.53 3 2.67 1.7 2.23 4.26 2.89 12.4.3 3.62.8 8.34 1.9 14.58 2.41 13.81-2.07 57.21-2.08 57.39-8.68-4.42-13-6.29-16.06-8.78-4.4-3.59-6.4-8.46-15.4-23.89" fill="none" stroke="#000" stroke-miterlimit="10" stroke-width=".7"/><path d="M765.49 414.3c18 10 25.55 15.2 31 14.14s7.89-2 10.6 1a26.84 26.84 0 013.51 5.28c1.24 2.27 2.69 5.2 4.52 8.94 0 0-2.42 7.6-3.49 8.89s-4.79 6.43-7.56 3.21c-1.5-1.76-2.67-3.2-3.69-4.43a30.68 30.68 0 00-4-4.24c-4.26-3.56-11-6.05-35.44-15.86l-6 12.57a51.22 51.22 0 01-7.57 2.49c-29 7.15-69.62-6.57-71.89-9.23a23.69 23.69 0 01-5.29-16.41v-.39c.63-8.88 15.84-78.19 29.8-87.37 2.68-1.76-2.5-2.15-4.94-3.64s.41-7.87 5.47-9.55 18.26-4.09 20.48-3.7-3 7.56-2.43 10.29c.52 2.44 4.32 6.45 8.87 10.53a210.62 210.62 0 0017.23 13.61c.74.5 1.17-1 1.41-3.49.27-2.93.29-7.21.22-11.29-.07-6-.32-11.56-.13-11.63m-33.66 73.92c20.22 31.43 14.54 24.65 48.37 33.25" fill="none" stroke="#000" stroke-miterlimit="10" stroke-width=".7"/><path d="M700 332.85c8.35 3.76 13.68 9.16 17.93 13.94 5.11 5.76 8.6 10.62 13.83 10.6 3.3 0 7.31-2 12.86-7l4.81 55.14v.14m-3.16-70.07h0c-.53.22-11.17 4.55-18.79 1.08m35.32-6.8l7.3 2.14 6.32 1.85-5.35 23.38-3.5-.34m8.85-23.04c51.77 18.14 66 21.84 73.26 25.58a23.51 23.51 0 015.05 3.48c1.35 1.14 2.78 2.53 4.69 4.35 2.13 2 2 9.1-.47 11.7-1.85 2-8.42 1.75-14.1 0a22.76 22.76 0 01-5.59-2.47 7.65 7.65 0 01-3.26-3.61c-1.32-3.76-34.63-12-42.3-12.95l-22.6-2.7m-23.74 88.91v.09c-1.25 17.48-32 15.1-43 10.88-5.56-2.14-8-4.78-18.27 1.05s-15.8 4.3-16.81 1.58.85-39.15.85-39.15m91.55-138.71c-3.55-.22-17.55-5-24.68-.82-.3-2.6-5.53 6.25-9.49 6.95-14 2.41 2.43 9.35-4.83 18.13 0 0-10.45-14.8-8.71-22s.65-11 5.79-16.18 2.27-5.53 7.74-7.54 8.9-4.66 14.77-3.46c4.31.89 20.29 1.36 22.4 7.18 4.69 12.94-.16 17.91-2.99 17.74z" fill="none" stroke="#000" stroke-miterlimit="10" stroke-width=".7"/><path d="M761.68 281.9l.39 7.56c.47 10.46.46 17.48-.75 22.38-1.76 7.15-6.06 9.79-15.1 12.11a.15.15 0 00-.1 0c-20.35-6.52-16.11-17.82-23.44-17.81.22 9.64.37 9.44-1.73 9.79" fill="none" stroke="#000" stroke-miterlimit="10" stroke-width=".7"/><path d="M761.23 311.71l.09.13c1 1.4 10.09 14.67 8.78 20.18" fill="none" stroke="#000" stroke-miterlimit="10" stroke-width=".7"/><path d="M757.35 309.87l-9.28.53c3.83 4.73 5.62 5 9.28-.53zm-4.25-15.15c9 13 1.4 12 .36 10.9m-14.87-13.15s0 0 0 0v0m.04-.04c2.55-2.18 6.68-2.06 10-2.19l-.07-1.11c-6.12-1.13-6.82.4-9.93 3.3zm23.37-4.61c-5.53.84-8.37 2.09.12 1.64h0m-18.92 7.76c.15 2.53 1.95 2.43 1.81-.11s-1.95-2.44-1.81.11zm15.89-1.82c.16 2.72 1.88 2.62 1.72-.1s-1.87-2.61-1.72.1zm-30.92 10.3c.13 2.13 2.27 2 2.15-.13s-2.27-2.01-2.15.13z" fill="none" stroke="#000" stroke-linecap="round" stroke-linejoin="round" stroke-width=".7"/><path d="M800.35 451.29c-32.46 52.76-41.29 66.91-44.47 69.48" fill="none" stroke="#000" stroke-miterlimit="10" stroke-width=".7"/><path d="M887.59 297.21c.75-18.14 6-50.85 14.74-64.68 24.41-38.66 20.08-39.89 49.62-35.93 0 0 19.75 21.43 4.28 41.77s-18.77 37.7-31.94 44.33-25.41 11.46-27.29 15.05a3 3 0 01-2.94 1.46c-2.84-.01-6.47-2-6.47-2zM756.57 521.59c-2.94 8.52-1.73 18.19-5.67 38-.81 4.11-8.18 5.52-12.84 4.11s-4-6.46-14.83-5.46-14.65 1-18.56 1.94 6.3-17.06 8.76-19.28c24.25-21.92 13.19-8.71 39.17-22" fill="none" stroke="#000" stroke-linecap="round" stroke-linejoin="round" stroke-width=".7"/><path d="M1083.48 216.86c-8.11 14.19-11.88 47.11-11.82 65.27 0 0 3.74 1.82 6.59 1.7a3 3 0 002.86-1.6c1.7-3.65 13.71-9 26.58-16.26s15.37-24.69 29.9-45.7-6.13-41.53-6.13-41.53c-29.71-2.63-25.33-1.62-47.98 38.12z" fill="#8a985a"/><path d="M946.77 509.57c1.55 1 1.6 3.36 3.37 1.8 3.16-2.82 12-18.49 45.26-78.52a43.12 43.12 0 00-4.17-4.23zm57.97-93.57c9.11-16.42 19.73-35.58 32.16-57.93a25.4 25.4 0 01-5.86-2l-29.94 54.54a38.9 38.9 0 013.64 5.39z" fill="#c3c4c6"/><path d="M907.5 331.55c-21-3.83-26 21.25-20.88 29.6 3.1 5 15.37 23.68 15.37 23.68l2.55-2.13 20.7-17.18c1.45-9.39 2.38-17.24-3.29-24.18-5.22.25-8.93-4.44-14.29-10z" fill="#f3e3d4"/><path d="M909.29 300.43c-1.48-.17-7.94 1.14-13.51 2.59-2.65.68-5.1 1.42-6.72 2-5 1.91-7.55 8.42-5 9.8s7.69 1.52 5.09 3.41c8.51 3.38 14.08 8.53 18.54 13.12 5.36 5.53 9.07 10.22 14.29 10 3.3-.18 7.21-2.34 12.54-7.59a209.52 209.52 0 01-17.83-12.81c-4.73-3.88-8.7-7.71-9.33-10.13-.73-2.71 4.1-10.16 1.93-10.39z" fill="#ea6d2a"/><path d="M901.24 247.5c.78.68.39 1-1.82 4.81-5.91 10.16-2.82 17.76 0 26.11 2.67 8-4 11.36-3.59 24.6 5.57-1.45 12-2.76 13.51-2.59 2.09-.45 1.94-.25 1.28-9.86a4.6 4.6 0 012.92.74l.18-.3c2.92-11.95-5.57-8.58-3.74-20.47.59-3.92 3.91-1.16 5.1-.67 1.66.68-.12 16.9 3.26 15 0 0 3 .62 2.48-1.18-1.62-6.16 7.69-12.21 15-19.15 4.27-4.06 3.1-18 12.69.08 8.9 20.74 7.39 22.54 4.51-5.56-2.5-24.31-41.93-24.75-42.54-20-3.63-6.94.26-5-7-6.39-3.67-.71-4.54 2-6.82 5s-.87 4.11 0 6.49 3.78 2.64 4.58 3.34z" fill="#613022"/><path d="M864.17 446.4c1.14 2.68 6.73 4 16.73-2.33s12.55-3.75 18.21-1.87c11.14 3.73 41.95 4.72 42.41-12.79-28.6 8.44-69.84-3.44-72.23-6a23.71 23.71 0 01-6-16.16s-.29 36.5.88 39.15z" fill="#f3e3d4"/><path d="M900.74 553c3.86-1.11 7.72-1.29 18.46-2.77s10.31 3.58 15 4.78 12-.54 12.66-4.68c3-19.94 1.39-29.53 4-38.19l-.72-.78c-1.77 1.56-1.82-.83-3.37-1.8-25.37 14.49-14.9.8-38.14 23.78-2.36 2.33-11.75 20.77-7.89 19.66z" fill="#8a985a"/><path d="M1004.74 416q-5 8.94-9.34 16.84c.9 1 1.93 2.13 3.17 3.47 2.92 3.09 6.4-2.2 7.41-3.55s3.09-9 3.09-9c-1.71-3.15-3.07-5.7-4.33-7.76z" fill="#ffb288"/><path d="M937.14 273.78c-4.18-3.61-5.38.14-7.56.77z" fill="#773209"/><path d="M995.4 432.85q4.38-7.89 9.34-16.84a38.9 38.9 0 00-3.64-5.38l-9.87 18a43.12 43.12 0 014.17 4.22z" fill="#ffb288"/><path d="M1040.7 338.51a27.08 27.08 0 015.17 3.48c9.75-17.54 20.51-36.86 32.38-58.14-2.85.12-6.59-1.7-6.59-1.7z" fill="#c3c4c6"/><path d="M916.73 320.84c7.76 3.12 18.2-1.68 18.72-1.92-.34-6-.84-11.54-.66-11.61-17.16-4.67-17.45-13.4-21.3-16a4.6 4.6 0 00-2.92-.74c.66 9.61.81 9.41-1.28 9.86 2.17.23-2.66 7.68-2 10.38.63 2.42 4.6 6.25 9.33 10.13z" fill="#ffaf7e"/><path d="M946.61 278.37c-.27-2.69 1.86-2.91 2.14-.22s-1.86 2.91-2.14.22zm-36.68-7.83c-1.83 11.89 6.66 8.52 3.74 20.47l-.18.3c3.85 2.6 4.14 11.33 21.3 16a.2.2 0 01.11 0c16.39-5 16.77-10.4 13.55-42.7-9.59-18.08-8.42-4.14-12.69-.08-7.3 6.94-16.61 13-15 19.15.47 1.8-2.48 1.18-2.48 1.18-3.38 1.94-1.6-14.28-3.26-15-1.18-.48-4.5-3.24-5.09.68zm27.21 3.24l-7.56.77c2.18-.63 3.42-4.38 7.56-.77zm7.61-.16c.64-1.33 4-3.11 4.41-1.07zm-12 6c-.27-2.69 1.86-2.91 2.14-.22s-1.89 2.88-2.18.19z" fill="#ffaf7e"/><path d="M934.49 333.75l7.27 54.88c3.2 2.34 7.57 4 16.44 8 0-.17 2.53-43.73-.5-57.42-1.37-6.18-2.09-10.88-2.55-14.49-7.21 4.56-8.43 5.46-19.39 5.44-.15 2.55-.52 4.06-1.27 3.59z" fill="#ea6d2a"/><path d="M941.76 388.63l-7.27-54.88c-5.33 5.25-9.24 7.41-12.54 7.59 5.67 6.94 4.74 14.79 3.29 24.18 9.76 15.02 11.91 19.75 16.52 23.11z" fill="#ea6d2a"/><path d="M934.85 279.37c-.28-2.69-2.41-2.47-2.14.22s2.41 2.47 2.14-.22z" fill="#773209"/><path d="M935.45 318.92c-.52.24-11 5-18.72 1.92l-.07.1a209.52 209.52 0 0017.83 12.81c.75.47 1.12-1 1.24-3.54.14-2.94-.03-7.21-.28-11.29z" fill="#f4e5d0"/><path d="M948.75 278.15c-.28-2.69-2.41-2.47-2.14.22s2.39 2.47 2.14-.22z" fill="#773209"/><path d="M889.12 318.25C875.59 328 863.5 398 863.27 406.87v.38a23.71 23.71 0 006 16.16c2.39 2.56 43.63 14.44 72.23 6a49.47 49.47 0 007.45-2.84l5.38-12.82c-34.18-7.07-28.2-.55-49.81-31.05l-2.52 2.13s-12.27-18.67-15.37-23.68c-5.17-8.35-.15-33.43 20.88-29.6l.16-.18c-4.47-4.59-10.04-9.74-18.55-13.12z" fill="#ea6d2a"/><path d="M1040.7 338.51c-7.13-3.58-20.52-6.24-75.19-22.68l-4.3 23.6 22.7 1.68c7.71.59 41.35 7.35 42.84 11 .62 1.57 2.22 2.89 4.29 3.94z" fill="#ffb288"/><path d="M965.51 315.83l-13.78-3.36c2.75 1.58 2.42 4.16 3.45 12.25.46 3.61 1.18 8.31 2.55 14.49l3.51.18z" fill="#f3e3d4"/><path d="M954.35 413.75c26.33 9.22 32.44 11.13 36.88 14.87l9.87-18c-3.18-3.7-5.41-2.63-11.33-1.22-5.37 1.3-13.11-3.57-31.57-12.74-8.87-4-13.24-5.7-16.44-8-4.61-3.36-6.8-8.09-16.52-23.11l-20.7 17.18c21.61 30.47 15.63 23.95 49.81 31.02zm95.65-56.56c2.32-2.7 2.16-9.79 0-11.7-1.62-1.39-2.9-2.54-4.06-3.5q-4.65 8.31-9 16.09c5.46 1.23 11.39 1.04 13.06-.89zm-19-1.1a25.4 25.4 0 005.86 2q4.33-7.77 9-16.09a27.08 27.08 0 00-5.17-3.48z" fill="#ffb288"/><path d="M935.45 318.92c.25 4.07.42 8.35.28 11.29 11 0 12.18-.88 19.39-5.44-1-8.09-.7-10.67-3.45-12.25-1.58-.91-4.18-1.48-8.65-2.57-1.93-.47-7-2.78-8.15-2.66a.2.2 0 00-.11 0c-.15.09.35 5.63.69 11.63z" fill="#ea6d2a"/><path d="M935.76 330.2c11 0 12.18-.88 19.39-5.44l.2-.12m-47.85 6.91c-21-3.83-26 21.25-20.88 29.6 3.1 5 15.37 23.68 15.37 23.68l2.55-2.13 20.7-17.18c1.45-9.39 2.38-17.24-3.29-24.18l-.07-.08" fill="none" stroke="#000" stroke-miterlimit="10" stroke-width=".7"/><path d="M934.9 307.28c1.12-.12 6.22 2.19 8.15 2.66 4.47 1.09 7.07 1.66 8.65 2.57 2.75 1.58 2.42 4.16 3.45 12.25.46 3.61 1.18 8.31 2.55 14.49 3 13.69.51 57.25.5 57.42-8.87-4-13.24-5.7-16.44-8-4.61-3.36-6.8-8.09-16.52-23.11" fill="none" stroke="#000" stroke-miterlimit="10" stroke-width=".7"/><path d="M958.2 396.67c18.46 9.17 26.2 14 31.57 12.74 5.92-1.41 8.15-2.48 11.33 1.22a38.9 38.9 0 013.64 5.38c1.21 2.05 2.62 4.6 4.33 7.73 0 0-2.08 7.7-3.09 9s-4.49 6.64-7.41 3.55c-1.24-1.34-2.27-2.48-3.17-3.47a43.12 43.12 0 00-4.17-4.23c-4.44-3.74-10.55-5.65-36.88-14.87L949 426.57a49.47 49.47 0 01-7.45 2.84c-28.6 8.44-69.84-3.44-72.23-6a23.71 23.71 0 01-6-16.16v-.38c.23-8.9 12.32-78.83 25.85-88.62 2.6-1.89-2.59-2-5.09-3.41s.05-7.89 5-9.8c1.62-.6 4.07-1.34 6.72-2 5.57-1.45 12-2.76 13.51-2.59 2.17.23-2.66 7.68-2 10.38.63 2.42 4.6 6.25 9.33 10.13a209.52 209.52 0 0017.83 12.81c.75.47 1.12-1 1.24-3.54.14-2.94 0-7.22-.28-11.29-.34-6-.84-11.54-.66-11.61m-30.23 75.37c21.61 30.5 15.63 24 49.81 31.05" fill="none" stroke="#000" stroke-miterlimit="10" stroke-width=".7"/><path d="M889.12 318.25c8.51 3.38 14.08 8.53 18.54 13.12 5.36 5.53 9.07 10.22 14.29 10 3.3-.18 7.21-2.34 12.54-7.59l7.27 54.88v.13m-6.3-69.87h0c-.52.24-11 5-18.72 1.92m34.99-8.38l13.78 3.37-4.3 23.6-3.51-.18" fill="none" stroke="#000" stroke-miterlimit="10" stroke-width=".7"/><path d="M965.51 315.83c54.67 16.44 68.06 19.1 75.19 22.68a27.08 27.08 0 015.17 3.48c1.16 1 2.44 2.11 4.06 3.5 2.21 1.91 2.37 9 0 11.7-1.65 1.93-7.58 2.12-13.08.89a25.4 25.4 0 01-5.86-2c-2.07-1-3.67-2.37-4.29-3.94-1.49-3.69-35.13-10.45-42.84-11l-22.7-1.68m-19.64 89.86a.27.27 0 010 .09c-.46 17.51-31.27 16.52-42.41 12.79-5.66-1.88-8.21-4.41-18.21 1.87s-15.59 5-16.73 2.33-.9-39.15-.9-39.15" fill="none" stroke="#000" stroke-miterlimit="10" stroke-width=".7"/><path d="M948.45 264.58c-9.59-18.08-8.42-4.14-12.69-.08-7.3 6.94-16.61 13-15 19.15.47 1.8-2.48 1.18-2.48 1.18-3.38 1.94-1.6-14.28-3.26-15-1.19-.49-4.51-3.25-5.1.67-1.83 11.89 6.66 8.52 3.74 20.47" fill="none" stroke="#000" stroke-linecap="round" stroke-linejoin="round" stroke-width=".7"/><path d="M895.78 303c-.38-13.24 6.26-16.57 3.59-24.6-2.77-8.35-5.86-15.95 0-26.11 2.21-3.78 2.6-4.13 1.82-4.81s-3.85-1-4.67-3.4-2.23-3.47 0-6.49 3.15-5.73 6.82-5c7.24 1.39 3.35-.55 7 6.39.61-4.71 40-4.27 42.54 20 2.88 28.1 4.39 26.3-4.51 5.56 3.22 32.3 2.84 37.7-13.55 42.7a.2.2 0 00-.11 0c-17.16-4.67-17.45-13.4-21.3-16a4.6 4.6 0 00-2.92-.74c.66 9.61.81 9.41-1.28 9.86m37.05-4.96c-3.58 2.77-5.94 1.78-8.8 1.05m5.86-20c3.39 13.47 4.16 13.69.39 13.65m-14.14-15.54l.01-.01" fill="none" stroke="#000" stroke-linecap="round" stroke-linejoin="round" stroke-width=".7"/><path d="M929.58 274.55l7.56-.77c-4.14-3.61-5.38.14-7.56.77zm19.58-2c-.44-2-3.77-.26-4.41 1.07zm-16.45 7.04c.28 2.69 2.41 2.47 2.14-.22s-2.41-2.47-2.14.22zm13.9-1.22c.28 2.69 2.42 2.47 2.14-.22s-2.41-2.47-2.14.22zm125.05 3.76c-.06-18.16 3.71-51.08 11.82-65.27 22.65-39.74 18.27-40.75 48-38.12 0 0 20.67 20.52 6.13 41.53s-17 38.49-29.9 45.7-24.88 12.61-26.58 16.26a3 3 0 01-2.86 1.6c-2.87.17-6.61-1.7-6.61-1.7zm-120.8 230.02c-2.57 8.66-.93 18.25-4 38.19-.64 4.14-7.94 5.9-12.66 4.68s-4.31-6.27-15-4.78-14.6 1.66-18.46 2.77 5.53-17.34 7.89-19.66c23.24-23 12.77-9.29 38.14-23.78" fill="none" stroke="#000" stroke-linecap="round" stroke-linejoin="round" stroke-width=".7"/></svg>