<svg xmlns="http://www.w3.org/2000/svg" viewBox="0 0 1400 780"><path fill="#fcc2af" stroke="#000" stroke-miterlimit="10" d="M0 0h1400v780H0z"/><path d="M925.36 202.78l-17.75 30.09c-4.35-9.08-10.33-22.53-17-30.05 9.79-10.86 7.47-5.63 9.27-23.56 3 .54 9.6 1.63 12.54 1 5.84-.51 4.89-3.13 3.58 5.29.79 6.99 5.38 11.94 9.36 17.23z" fill="#fcc2af"/><path d="M925.41 202.78L907.83 233l-.24.4c-5.15-10.41-9.7-21.41-17.31-30.31l-.24-.27.24-.27c2.15-2.48 4.6-4.78 6.59-7.36s1.51-6.17 1.9-9.37c.19-2.38.4-4.77.64-7.15 5.55 1 11.31 2 16.82.39 1-.23 1.28.49 1.12 1.28-.31 1.62-.78 3.92-1 5.15.64 6.71 5.26 12 9.06 17.29zm-.1 0c-4.11-5.09-8.94-10.47-9.73-17.25.22-1.89.79-3.91.94-5.74 0 .06.15.12.1.1a26.2 26.2 0 01-10.58.8c-2.11-.23-4.2-.56-6.28-.94l.59-.44c-.53 4.44-.55 8.8-1.33 13.23-.41 2.29-2.07 4.11-3.61 5.72s-3 3.2-4.53 4.83v-.54a77.14 77.14 0 019.41 14.61c2.68 5.12 5.08 10.38 7.55 15.6h-.45l17.92-30z"/><path d="M413.59 546c0-6.21-.49-10.12 1.2-8.52 2.88 2.72 2.61 4.4 3.34-.86 1.13-8.06 10.48.35 6.95-7.24 4.48-1.24 7.37-3.64 8.34-5.16s-4.55-6.86-4.37-8.25c4.33 2.61 6.15 5.78 9.65 3.16 2.41-1.8 5.23-3.85 2.73-7.66-.13-.19-4.23-13.38-6.82-12.31.91 5.38-1.41 1 8.06 11.19 1.68 1.79 2.8 1.59 4.95.28 3.58-2.18 2.15-5.78 3.12-8.56 5.49.44 8.2-1.33 8.62-6-8.05 4-6.8 3.05-1.2-4-2.85-.8-5.18-2.29-7-1.82-4.41 1.12-2.76 5.53-3.35 8.18-2.42.39-5 .1-6.49 1.21-2.35 1.72-3.69 1.42-2.78 4-6.19 3.71-6.19 3.71-9.53 9.94l-7.4-21.53c-1.9 2.85-.76 4-4-8.39-6.84-26.36-6.43-43.91-6.67-74.18 5.77-1.35 4.64-5.85 4.13-10.18 3.94 1.28 7.24 1.16 9.34-2.36.43-.72-.06-2-.14-3.22-5.54 3.89-7.06 5.41-1.55-2.4-5.47-6.86-11.67 2.63-10.23-2.34 3.89-13.49 8.32-26.78 16.24-38.54 1-1.55 3.36-2.23 5.08-3.31l14.13 7.18-1.27 9.34c-7.22-3.07-12.18 5.9-6.53 9.67 1.87 1.24 4.69 1 7.1 1.49-2.49 7.56-4.43 15.35-7.62 22.6-3.45 7.84-13.23 7.71-19.78 13.53 21.38-2 22.94-8.49 33.6-44.82 6.13-3 4.65-1.79 4.95-4.8-.79.08-1.83-.12-2.31.31-1.79 1.59-3.54 2-5-.08-1.73-2.36-.19-3.84 1.81-5 11.76 3.1 23.38 7 35.31 9.11 32.78 5.81 68.93-6.79 83.59-20.9 3.43 2.43 1.19-.75 15.1 23.62-6.23 3.45-5.47 3.59-6.66 2l4.55-3.14c-3-6.7-8.62-4.77-9.63.16-.35 1.68.5 3.6.9 5.86-3.67-2.82-6.83-1.61-9.75.64-4.22-2.8-3-3-5.46.1l11.42 11c5.11-2.15 5.46-6.25 4.52-11.43 5.09 2.78 8.36.54 11.33-2.66 23 44.19 2.19 94.91-11.62 130.09-1 .37-2.72.47-3 1.16-5.92 13.92-.84 11-13.23 12.83-1-1.85-.4-.21 2.1-3.88 1.49-2.19-1.12-2.83-1.31-2.58-1.48 2-3.45 4-4.09 6.27-.68 2.45 1.29 4 3.86 4.41-2 11.29-.46 8.56-6.37 12.66-1-1.28-1-.6 3.89-6.61-2.76-.74-5-2.1-6.84-1.68-4.49 1-3.41 5.33-4 9.07-3.8-4-7.7 5.25-12-.78-.44 1.59-.71 3.21 0 4 2.53 2.91 9.63 11.09 11.83 8 7.06-10-.62-6.1 12.7-11.28 2.22-2.15 1.47.34 3.12-8.68 5.37 1.36 7.85-.9 7.9-7.17l5.56-14.94c9.83 18.07 13.17 43.2 6.48 64-19.29 60-17.6 52.33-21.82 59-13.16 5.1-26.15 4.58-39-1.22-22.26-77.47-22-66.44-11.68-111.89 2.64-11.62-6.24-8.3-7.31-39.2-.52-14.92 2.51-20.11-12.48 29.39-7.12 7.61-12.56 18.44-11.25 22.37l7.64-11.48c5.44 28.19 11.23 43.93 1.31 77.46-10.86 36.68-9.53 32-12 36.31l-19 4.46-.46-3.43c5.35 2.22 6.91.73 10-5.07-6.13 2.36-8.7 3-8-2.61.13-1 1.05-2 1.62-3 6.15 4.24 9.82 8 9.17 1.62l5.77-2.59c-2.38-1.46-4.87-1.35-6.28-2.53s-1.62-3.62-2.84-6.7c-3.15 15 .34 4.55-8.79 3.36.7 3.64-.21 1.93 3 6.84-4.09-.12-2.49-2-6.81 8.28-11.08-1.06-4.15 7.66-10.16 5.27-9.74-2.76-4.66.81-10.44-16.5-17.11-50.85-17.1-39.26-19.69-67.94zm87.24-92.34c-5.66 0-4 1-6.94-5.18-5.2 9.2-.6 3.17-9.15 1.29.22 1 .1 2.36.71 3 8.72 9.74 8.29 7.78 11.58 8.6.46-1.36.64-.65-1.45-3.91 2.7-1.23 7.21 3.18 7.56-3.06 3.14-12.06-3.3-29.25-12.95-32.85 12.37 19.71 9.61 19.01 10.64 32.09zm56.76-71.74c-4-22.13-3.32-21.92-5.37-21.79-1.05 4.34-2.05.33 4.2 27 .11.48 1.26.72 1.92 1.07-2.13 5-7.38-4.32-9.12-3.27-3.52 2.12 2.33 3 .43 6.07-4.61 7.58 3.81 17 11.87 4.27 9.06.16 18.23.88 25.87-4.87l-19.58 1.71c1-4.46 3.28-5.93-1.15-10.17-3.04-2.94-6.05-1.01-9.07-.04zM532.1 552.58c19.58 1.29 4.88-16.15.69-10.93-1.78 2.22-2.75 5.08-4.13 7.88-3-2.73-1.33-1.83-6.47-3.95 1 5.13.71 3.85 1.26 5.07-2.94 5-2.72 8.21.65 10.28 3.56 2.18 6.47.87 10.47-4.84zm-72-183.44c13.64 11.37 59.37 16.74 76.59 9.35l-26.24 2.28c4.22-12 4.4-11.13 3.15-12.32-.82.94-1.94 1.76-2.39 2.85-.74 1.79-.73 3.94-1.66 5.59-2.32 4.13-5 2.12-16.71.67-4.28-.53-3-2.95-2.37-9.46-2.28-.19-1.66-.52-2.75 8.73zM481.35 465c-1.12.29-7.34-1.52-8.64 4.61-1.33 6.31 9.36 12.58 11.58 1.68 1.41-6.88 9.5-.25 8.29-9-6.94 3.78-6.91.8-6.3-6-4.05 2.11-2.99-.42-4.93 8.71zm45.41 100.11l-.3-1.34c-3.87-1.87-7.69-3.86-11.64-5.55-3.14-1.35-5.15.9-4 3.6a103.1 103.1 0 004.86 9.76c.39.69 1.5 1 2.27 1.47 1.5-9.05-.51-5.46 8.81-7.91zm26.67-160.58l.05-1c-4.1-2.17-8.15-4.45-12.34-6.44-1.93-.91-4.58 1.15-3.84 3 1.87 4.58 4.18 9 6.32 13.45l1.15-.26c1.58-7.99-1.06-6.28 8.66-8.72zm-63.84-21.74l-1.49.08c-5.18 29.31 2.35 31.52 11 34.43-6.93-7.43-10.61-7.41-9.66-14 .56-3.93 1.56-15.82.15-20.48zm-29.26 99.39c-1.56-2.4.57-.16 2-6.49a9.1 9.1 0 00-2.61.52c-2.53 1.34-3.13 6-2.41 7.22 3 5.17 17.29-4 6.21 6.32.66.55 1.68 1.64 1.87 1.52 1.75-1.19 3.89-2.3 4.85-4 .6-1.07 1.74-6.65-5.13-6.53-1.57.03-3.17.94-4.78 1.47zm-31.72-93.94c1.17.52 2.61 1.5 2.91 1.22 1.67-1.53 3.75-3.13 4.43-5.13 1.16-3.4-1.72-5.75-5.4-4.95-8.35 1.81-5.29 0-3.06-3.58.55-.87.42-2.46-1.1-2.31-4.17.42-7.61 12.36 1.22 10.07a49.25 49.25 0 015-.78c.84 1.6 1.07.8-4 5.49zm42.74 83.84c-7-.84-7-.84-5.83 4.44 5.21 3.92 9.85 8.94 12.14 3.16.11-.26-1-1.45-1.48-1.43-4.31.18-4.65-2.87-4.83-6.14zm-27.83-94.82c-3.76-1.17-8.28-1.35-7.16-6.5l-5.4-1.13c-3.18 6.12 3.51 6.82 5.82 9.43 2.81 3.24 4.57 1.84 6.74-1.77zm.73 161.56c1-7-3.16-15-8.88-16.76zm21 .57l6.49-17.29c-5.28 2.6-8.03 9.9-6.53 17.32zm36.24-133.59c1.62 0 1.14.06 1.14-21-1.63.05-1.14-.03-1.14 21zM513 504.05c-1.86 1.32-1.41.78 7.36 13.28-1.27-5.19-2.46-10.4-7.36-13.28zm43.27 108.86c2.21.79 1.5.7 7.69-16.47-2.16-.77-1.47-.67-7.71 16.47zm-29-89.77l4.32 10.37c1.41-5.51.03-9.25-4.38-10.37z" fill="#015e91"/><path d="M413.54 546c0-2.53-.16-5 0-7.57.07-.46.05-1.06.49-1.34a.56.56 0 01.49.09 33.52 33.52 0 012.62 2.72c.47.45.6-1.07.67-1.36.3-1.78.28-4 1.94-5.19a5.66 5.66 0 013.69-.59c1.4.12 2.81.26 2.27-1.61a13.27 13.27 0 00-.7-1.81 20.12 20.12 0 004.55-1.88 12.09 12.09 0 003.7-3.11 1.09 1.09 0 00.14-1.1 13.41 13.41 0 00-1.86-3.13l-1.44-2a4.78 4.78 0 01-1.1-2.2v-.1l.09.06c1.26.75 2.42 1.65 3.6 2.52s2.45 1.77 3.91 1.57 2.57-1.32 3.69-2.19a4.84 4.84 0 002.05-3.64 4.74 4.74 0 00-.59-2.06c-1-1.92-1.48-4.13-2.39-6.12-1-2.28-1.86-4.86-3.75-6.57a1 1 0 00-1-.21v-.07c.29 1.15.06 2.52.65 3.55.75.94 1.71 1.74 2.56 2.61 1.75 1.72 3.44 3.51 5.12 5.28a2.67 2.67 0 003.25.68 7.18 7.18 0 002.89-2.14 6.56 6.56 0 001-3.44 14.55 14.55 0 01.52-3.7h.06c4.43.48 8.28-1 8.53-5.92l.12.08c-9.75 5.14-5.13.9-1.3-4.12v.13c-2.06-.52-3.94-1.7-6.07-1.9a3.92 3.92 0 00-3.47 1.92c-1 2-.31 4.18-.73 6.28v.06c-1 .17-2.09.22-3.13.3a7 7 0 00-4.23 1.48l-1.33.78a1.54 1.54 0 00-.84 1.12 4.12 4.12 0 00.3 1.53c-3 1.79-6.27 3.56-7.87 6.86-.62 1.07-1.2 2.18-1.79 3.27l-.07-.2-7.4-21.53h.18c-.4.57-.67 1.19-1.07 1.76a.66.66 0 01-.18.14.25.25 0 01-.25-.09 14.07 14.07 0 01-.88-3l-1.18-5.27a192.69 192.69 0 01-5.89-32.31c-1.35-14.57-1.16-29.21-1.32-43.81v-.11h.11c2-.43 3.93-1.69 4.3-3.82s-.09-4.3-.31-6.43a15.11 15.11 0 003.56.78 5.81 5.81 0 005.71-2.85 2 2 0 00.2-1.57c-.09-.56-.22-1.13-.26-1.72l.25.12c-1.29.81-3.21 2.42-4.55 3.1-1.92.68.76-2.66 1-3.15l1.79-2.57v.2a5.86 5.86 0 00-8.3-1.46l-.86.42-.46.19a.82.82 0 01-.59 0 .56.56 0 01-.27-.56 6.34 6.34 0 01.31-1.45c3.7-12.83 8-25.71 15.31-37a7.17 7.17 0 012.61-2.85c1.11-.66 2.31-1.14 3.37-1.8l.09-.06.11.05 14.09 7.19.13.06v.15l-1.26 9.34v.28l-.26-.11c-3.82-1.82-8.72.77-8.65 5.17a4.88 4.88 0 001.4 3.34c2.16 2.2 5.36 1.68 8.2 2.27-1.29 3.9-2.42 7.86-3.66 11.79a99.12 99.12 0 01-4.17 11.36 12.19 12.19 0 01-3.9 4.67c-4.91 3.54-11.29 4.62-15.8 8.69l-.19-.45c6.86-.63 14.3-1.9 19-7.34a33.73 33.73 0 004.87-8.14c4.1-9.42 6.41-19.67 9.61-29.33l3.48-1.68c.54-.29 1.23-.57 1.26-1s0-1.27.06-1.91l.31.3c-.78.1-1.49-.12-2.11.21a4.77 4.77 0 01-3 1.43 3.74 3.74 0 01-3.22-4.26c.38-1.35 1.61-2.1 2.71-2.77h.12c20 5.53 40.21 12.44 61.25 10.13 20-1.9 42.12-8.24 57.35-21.88l.19-.18.22.15 1.46 1c1.47 1.1 2.29 2.82 3.23 4.32 2.24 3.94 8.19 14.25 10.51 18.41l.16.28-.29.17-3.41 1.94c-.79.32-2.15 1.64-3 .79-.35-.42-.56-.7-.85-1.09l.29-.2 4.55-3.14-.12.42c-.91-2.12-2.69-4.32-5.15-4.09a4.91 4.91 0 00-3.78 3.95c-.47 2 .55 3.9.85 6l.14.85c-1.53-1.23-3.38-2.32-5.4-2.05a10 10 0 00-4.82 2.32 31.63 31.63 0 00-3.41-2.23.38.38 0 00-.18.08c-.61.61-1 1.38-1.61 2.05v-.47l11.46 10.93-.38-.07c4.79-1.77 5.28-6.55 4.31-11.05l-.13-.72.65.34c4.12 2.47 8 .86 10.89-2.58l.35-.38.24.45c21.8 41.79 4.78 89.8-11.56 130.41l-.07.17-.17.06c-.79.34-2.12.36-2.72.86-.29.58-.83 2-1.11 2.66-.95 2.37-1.64 4.81-2.51 7.21a3.36 3.36 0 01-1.66 1.95c-2.77 1-5.82.82-8.68 1.39l-.13-.25-.35-.65a1.16 1.16 0 01-.15-.53.78.78 0 01.34-.59 8.46 8.46 0 001-.94c.88-1 2.88-3.19.46-3.59 0 0 .19-.13.14-.11-.16.22-.59.79-.78 1-2.7 3.2-6 7.81.29 9l.41.07-.07.41-.62 3.73c-.49 2.44-.32 5.68-2.76 7.11-1.18.79-2.34 1.51-3.48 2.32l-.25-.32-.31-.43a1.29 1.29 0 01-.27-.71c.3-1.24 1.15-1.86 1.85-2.79L558 525l.22.66c-1.49-.39-2.88-1-4.27-1.43a4.34 4.34 0 00-4 .41c-2.46 1.75-1.56 5.39-2.12 8.08l-.13.83-.59-.61c-3.5-3.62-7.58 5.46-12.09-.83l.76-.13c-.3 1.34-.92 3 .25 4 2.06 2.19 7.47 8.87 10.38 7.95a1.94 1.94 0 00.65-.72l.65-1a24.78 24.78 0 002.87-5.7c.42-1.08 1.7-1.5 2.55-1.89l2.2-.85 4.39-1.69-.15.1c.48-.57 1.28-.87 1.63-1.51a13.3 13.3 0 00.52-2.23l.84-4.71.09-.45a8.21 8.21 0 005 .11c2.54-1.19 2.69-4.42 2.81-6.9l5.55-14.94.34-.91c10.48 19.24 13.46 42.72 7.38 63.83-3.22 10.29-6.57 20.5-9.93 30.72-2.59 7.66-5 15.38-8.13 22.85-1 2.56-2.79 4.81-4.27 7.08a50.33 50.33 0 01-19.94 3.57 51.73 51.73 0 01-19.74-4.83s-7.27-25-7.3-25.11c-2.39-8.3-4.87-16.58-7.07-25-2.43-9.36-4.77-19.09-4-28.91a110.59 110.59 0 012.63-16c1.19-5.47 2.71-11.92 3.95-17.39l.28-1.55c.9-4.41-1.58-8.12-3.21-12a54.48 54.48 0 01-3.27-12.63c-1.23-7.54-1.06-15.32-1.24-22.86a.35.35 0 00.26.16c.25 0 .2 0 .27-.08v.06c-4.46 13-7.84 26.41-12 39.52-4.62 5.09-8.69 11-10.84 17.53a8.64 8.64 0 00-.4 4.51l-.69-.1 7.65-11.47.5-.76.18.9c5.45 26.51 10.23 45.12 2.7 72.29-2.23 8.35-5.83 19.69-8.28 28-1.52 4.66-2.56 9.64-5.35 13.72-.1 0-19 4.43-19.08 4.48l-.26.06v-.27c-.05-.47-.48-3.47-.51-3.83 3.61 1.58 6.25 1.82 8.45-2 .58-.91 1.1-1.86 1.62-2.82l.28.32c-2.46.79-7.9 3.77-8.36-.48a8.57 8.57 0 01.21-2.94 24.62 24.62 0 011.62-2.67c2.43 1.59 4.62 3.55 7.19 4.86.49.22 1.07.39 1.42.13.76-.77.46-2.17.42-3.2h.13l5.77-2.59v.35c-2-1.39-4.63-1.12-6.51-2.75-1.58-1.9-1.7-4.42-2.68-6.58h.35l-.84 4.15-.42 2.08c-.19.62-.14 1.38-.63 1.86a.26.26 0 01-.27 0c-.62-.54-.9-1.28-1.43-1.83a8.27 8.27 0 00-5.4-2.79l.18-.19c.12.62.22 1.25.31 1.88.25 1.89 1.73 3.28 2.63 4.91l.17.26c-.61 0-1.24-.06-1.85-.16a2.31 2.31 0 00-1.39.06 7.33 7.33 0 00-1.41 2.58l-2.33 5.68v.1h-.11c-2.09-.11-4.74-.35-6.17 1.46a9 9 0 00-1 3.16 1.31 1.31 0 01-1.34 1c-1.55-.22-2.91-.87-4.46-1.16-1.33-.38-3.16-.51-3.87-1.9a24.61 24.61 0 01-1.11-4.23 107.72 107.72 0 00-3.21-11.12c-3.68-11-7.54-21.93-11.67-32.77-1.35-3.62-2.78-7.22-3.91-10.92-2.26-7.43-2.7-15.22-3.46-22.9zm.1 0c.77 7.67 1.23 15.46 3.5 22.87s5.4 14.48 8 21.76c3.82 10.95 8.13 21.77 10.91 33 .54 1.78.4 4.16 2 5.11 1.77.69 3.74 1 5.57 1.55.71.27 1.61.64 2.29.2.84-1.06.45-2.74 1.4-3.89 1.53-1.93 4.25-1.73 6.43-1.59l-.15.09 2.31-5.68c1.39-3.42 1.35-3 4.65-2.71l-.14.25c-.69-1.07-1.4-2.11-2.06-3.2s-.67-2.62-1-3.93a9.14 9.14 0 017.1 4.62c0 .21.18-.25.25-.56s.16-.68.23-1c.22-1.17 1-5 1.24-6.24l.12-.6c1.08 2.26 1.27 5.07 2.84 7a6.92 6.92 0 003.11 1.36 12.41 12.41 0 013.33 1.33l.31.19-.33.15-5.77 2.59.12-.2c0 1.17.37 2.48-.59 3.43a1.93 1.93 0 01-1.82-.09c-2.56-1.28-4.72-3.21-7.08-4.76l.3-.07c-.64 1.13-1.63 2-1.62 3.29a8.91 8.91 0 000 1.86 2.12 2.12 0 00.69 1.53c1 .62 2.4.16 3.5-.14 1.39-.42 2.77-1 4.14-1.5-2.45 4.66-4.39 8.62-10.55 5.72l.32-.25.47 3.43-.3-.2 19-4.49-.16.13a29.39 29.39 0 001.79-3.15c1.38-3.36 2.34-6.9 3.43-10.38l4.17-14c6.05-19 10.05-37.41 6.73-57.36-1.43-9.61-3.69-19.11-5.54-28.68l.68.13-7.63 11.49-.45.68a8.63 8.63 0 01.15-5.74c2.17-6.69 6.25-12.62 10.92-17.81 3.39-11.48 7.34-25 11-37.12.33-.8.91-3.69 2-2.51a14.45 14.45 0 01.23 3.87c0 10.67.45 21.7 4.42 31.71.79 2 1.82 3.87 2.63 5.94 1.31 3.13.82 6.65 0 9.83-.46 2.07-1.69 7.37-2.17 9.48-5.08 21.52-6 29.11-.12 50.82 3.9 14.65 10.07 35.09 14.28 49.83l-.26-.3a48.56 48.56 0 0038.54 1.25l-.22.19c1.49-2.28 3.12-4.3 4.12-6.84 3.11-7.42 5.53-15.13 8.11-22.76 3.36-10.21 6.72-20.44 9.94-30.69a80.56 80.56 0 002.51-31.78 84.51 84.51 0 00-9.34-30.52l.8-.05-5.56 14.93c.11 5-2.06 9.2-8.41 7.44l.53-.34-.85 4.71c-.21 1-.25 2.22-1 3-.5.43-1 .75-1.44 1.21h-.08l-4.4 1.68c-1.15.49-3.21 1.07-4 1.9-.69 1.12-1.13 3-1.94 4.18-.53 1-1.28 2.05-1.91 3-1.3 2.36-4.1.74-5.65-.48a52.15 52.15 0 01-7.11-7.14c-.93-1.28-.36-3 0-4.37l.23-.85c1.54 2.34 3.11 3.48 5.88 1.9 1.49-.72 3.22-2 5.07-1.48a3.83 3.83 0 011.58 1l-.72.22c.37-2.18.05-4.6.93-6.75.93-2.36 4-3.28 6.21-2.4 1.68.53 3.21 1.2 4.87 1.59l-.41.5-2.65 3.2c-.48.72-1.43 1.49-1.66 2.26 0 0 .2.36.42.64l-.57-.09c1.43-1.11 3.33-1.83 4.39-3.27.79-1.61.83-3.59 1.18-5.38l.63-3.74.35.48c-6.06-1.11-4.82-5.6-1.71-9.2.4-.53 1.28-1.57 1.66-2.12a.67.67 0 01.3-.2h.17a1.9 1.9 0 011.92 2.47 9.68 9.68 0 01-2.84 3.5c-.08.06-.08.11 0 0s0 .06.07.15l.34.62-.42-.21c2-.3 4.06-.52 6.06-.77a4.79 4.79 0 002.6-.85 7.15 7.15 0 001.18-2.58c.85-2.64 1.79-5.34 2.88-7.91a2.82 2.82 0 01.42-.8c1-.79 2-.67 3-1.06l-.24.24c12.25-31 24.87-63.83 21.25-97.76a91 91 0 00-9.58-32l.58.08c-2.13 2.42-5.26 4.66-8.67 3.88a11.38 11.38 0 01-3.09-1.16l.52-.38c1 4.83.43 9.87-4.74 11.82l-.21.1-.17-.16-11.45-10.93-.23-.22c.43-.54.86-1.11 1.27-1.67.31-.4.66-1 1.29-1 1.41.37 2.33 1.53 3.56 2.21h-.4c2.88-2.44 7-3.34 10.17-.63l-.54.33c-.33-2.18-1.54-4.57-.66-6.87 2.08-5.64 7.89-4.71 10 .65l.12.26-.23.16-4.55 3.13.08-.47c.28.29.41.77.77.83a1.2 1.2 0 00.35-.09c2.68-1.38 2.85-1.59 5.11-2.84l-.13.45-7-12.28c-1.77-3-3.4-6.2-5.39-9.07A5.69 5.69 0 00573 346l-1.46-1h.4a59.65 59.65 0 01-12.82 9c-23 12.22-50.58 16.49-76.12 10.91-9.88-2.26-21.11-5.52-30-8.15a4.69 4.69 0 00-2.36 2.37 3.25 3.25 0 001.25 2.92 2.36 2.36 0 003 .09c.54-.32 1-.88 1.59-1 .83-.14 1.48 0 2.2-.13a20.92 20.92 0 00-.11 2.29 1.13 1.13 0 01-.25.57 5 5 0 01-1.31.84l-3.48 1.67.14-.17c-3 9.8-5.49 19.77-9.52 29.23a34.73 34.73 0 01-5 8.27c-4.77 5.55-12.46 6.88-19.36 7.5l-.78.07.59-.52c4.6-4.14 10.92-5.17 15.84-8.7a11.7 11.7 0 003.75-4.48 101.14 101.14 0 004.17-11.3c1.21-3.83 2.33-7.7 3.59-11.53l.18.3c-2.45-.52-5.45-.1-7.56-1.84a5.49 5.49 0 01-1.32-7.26 6.59 6.59 0 018.44-2.49l-.3.17 1.27-9.33.12.21-14.13-7.19h.2c-1.11.69-2.3 1.16-3.37 1.8a6.74 6.74 0 00-2.49 2.72 83.11 83.11 0 00-3.85 6.58 114.14 114.14 0 00-6.14 13.96c-2 5.36-3.69 10.85-5.29 16.35-.11.32-.44 1.38-.23 1.6.15.06.51-.09.77-.22 3.57-2 6.95-2.31 9.64 1.24a44.94 44.94 0 00-3.46 5.3c-.05.13 0 .21-.07.13a9.63 9.63 0 002.22-1.35l2.56-1.81.22-.16a17.1 17.1 0 00.27 2 2.32 2.32 0 01-.23 1.77 6.34 6.34 0 01-2.55 2.4c-2.16 1.07-4.68.55-6.86-.14l.19-.16c.12 1 .28 2.08.37 3.13.2 2.05.06 4.52-1.73 5.89a7.43 7.43 0 01-2.89 1.31l.11-.14c.16 21.87-.25 44 4.57 65.43.76 3.57 1.65 7.11 2.55 10.65l1.29 5.33a16.5 16.5 0 00.83 2.91c.05.05.05 0 .14-.05.42-.6.72-1.31 1.16-1.91l.07.19 7.38 21.53h-.17c.56-1 1.11-2.07 1.7-3.1a12.67 12.67 0 014.86-5c1-.63 2-1.23 3-1.83v.1c-.83-2.23.25-2.56 2-3.57a7.14 7.14 0 014.32-1.5c1-.09 2-.13 3-.29l-.07.06c.48-2.58-.66-6.35 2.29-7.81 2.73-1.48 5.54.79 8.19 1.39h.12l-.07.09-2.2 2.71a19.42 19.42 0 00-2.27 3.18c0 .13-.07.27 0 .29a1.53 1.53 0 00.79-.12 52.69 52.69 0 004.88-2.28 8.92 8.92 0 01-.75 3.09c-1.35 3-5.06 3.38-8 3.11l.08-.05a15 15 0 00-.5 3.61 6.77 6.77 0 01-1.05 3.52 7.26 7.26 0 01-2.95 2.18 2.82 2.82 0 01-3.41-.71c-1.69-1.78-3.37-3.56-5.12-5.28-.85-.88-1.79-1.65-2.58-2.63-.64-1.08-.36-2.47-.68-3.66 2.65-.8 5.64 8.84 6.48 10.94a7.85 7.85 0 00.84 2 4 4 0 010 4.22 12.49 12.49 0 01-3.21 3 3.79 3.79 0 01-4.17.46c-1.95-1-3.54-2.6-5.44-3.7h.09a5 5 0 001.08 2.11c1.08 1.59 2.65 3.32 3.31 5.13a1.22 1.22 0 01-.15 1.21c-2 2.61-5.16 4.1-8.26 5v-.08a6.45 6.45 0 01.78 2.73c-.15 1.15-1.69.82-2.49.8-5.12-.63-5 2.65-5.7 6.61-.07.22-.11.57-.4.6a.47.47 0 01-.25-.1 35.4 35.4 0 00-2.61-2.72.43.43 0 00-.4-.08c-.37.25-.37.83-.43 1.25-.15 2.5 0 5 0 7.55z"/><path d="M500.86 453.68l-2.55.08c-.81 0-1.86.11-2.36-.69-.88-1.45-1.39-3.05-2.16-4.56h.2c-.56 1-1.82 3.36-2.38 4.34-.2.34-.68 1.06-1.12.53a8.34 8.34 0 00-2.73-2.39 12.61 12.61 0 00-3.06-1.06l.24-.23c.15.77.14 1.53.32 2.22s.88 1.23 1.26 1.71a52.46 52.46 0 006.41 6.24 4.6 4.6 0 001.93.86c.7.13 1.49.17 2.24.36l-.35.19c.11-.35.32-.75.27-.91a4.09 4.09 0 00-.48-.87c-.16-.22-1.31-2-1.42-2.17a4.36 4.36 0 013-.27c1.38.21 3.36 1.1 4.18-.41a6.15 6.15 0 00.51-2.31 27.62 27.62 0 00.62-9.29c-1-8.72-4.88-19.26-13.39-23l.59-.73c4.3 7.35 9.91 14.84 10.06 23.7.06 2.89 0 5.73.19 8.67zm-.07-.07c-.33-2.8-.41-5.73-.6-8.58-.43-8.75-6.14-15.92-10.42-23.19l-.79-1.28c6.84 2.19 11 8.66 13.26 15.09 2.06 5.91 2.82 13 1.26 18.79a5 5 0 01-1 3.13c-2 1.68-4.63-.66-6.75.19l.14-.45a20 20 0 011.75 3c.08.52-.26 1-.39 1.47-1.51-.4-3.33-.33-4.6-1.42a59 59 0 01-7.18-7.22c-.86-.84-.65-2.27-.88-3.31l-.06-.3a13.51 13.51 0 013.44 1.2 7.69 7.69 0 012.52 2.19c.15.2.38.46.45.39a2.09 2.09 0 00.46-.56c.56-.94 1.87-3.32 2.43-4.3l.11-.2c.78 1.56 1.31 3.28 2.18 4.77.45.74 1.42.66 2.23.65s1.68-.05 2.48 0zM557.56 382c-1.22-6.2-2.37-13.85-3.71-20-.25-.88-.44-1.94-1.62-1.66l.15-.13c-.28 1.24-.86 2.37-.75 3.6a87.89 87.89 0 002.15 10.95c.69 2.93 2.1 9 2.79 11.82 0 .07.11.54.15.58.47.44 1.34.56 2 1-2.17 5.18-6.38-1.54-8.89-2.8-.42-.2-.53.05-.87.26-.82.6-.6 1.07 0 1.74.83.83 1.75 2 1.28 3.27-1.87 3-2.43 7.57.77 9.86 4.09 2.45 8.07-2.13 10.09-5.37l.14-.22h.26c6.66.06 13.46.57 19.8-1.7a22.1 22.1 0 005.76-3.1l.35.89-19.61 1.54h-.44c.34-1.85 1.24-3.61 1.57-5.43.34-2.45-1.93-4.78-3.9-6-2.48-1.26-5 .22-7.5.92zm.06-.09c5.08-2.24 8.09-2.65 11.37 2.57 1.47 2.52-.43 5.23-.87 7.75l-.34-.4 19.57-1.88 1.75-.17a26 26 0 01-14.1 5.77 96.67 96.67 0 01-13.5.18l.41-.21c-2 3-4.66 6.3-8.6 6.4-4.18 0-6.16-5-5.08-8.53.53-2.53 2.72-3.32.23-5.67a2.42 2.42 0 01-.74-1.35c0-.88.74-1.4 1.46-1.79a1.2 1.2 0 01.89.06c1.7.91 2.71 2.37 4.16 3.52s3 2 3.83-.08l.13.38c-.56-.36-1.86-.46-2.08-1.35l-.1-.46-.21-.91c-.54-2.32-1.95-8.54-2.49-10.93a86.45 86.45 0 01-2.05-11.06c-.09-1.31.53-2.54.82-3.79a3.25 3.25 0 01.88 0c.83.2 1 1.23 1.17 1.89 1.09 5.13 2.54 14.75 3.48 20zm-25.56 170.64c3.61.12 10.49 0 9.7-5.15-.7-3.06-4-6.63-7.32-6.39a2.39 2.39 0 00-1.57 1c-1.7 2.26-2.6 5-3.88 7.64l-.22.45c-1.08-.87-2-2.12-3.21-2.73s-2.36-.94-3.54-1.43l.6-.49.53 2.57a7.91 7.91 0 00.74 2.39l.11.21-.13.24c-1.33 2.47-2.94 5.6-1.18 8.13a6.09 6.09 0 004.92 2.44c3-.42 5-3.24 6.79-5.5v.24c-.83-1.26-1.58-2.51-2.34-3.66zm.08.05c.92 1.24 1.83 2.35 2.69 3.48l-.09.13c-3.19 5.07-7.74 9-12.85 3.41-2.13-2.85-.43-6.54 1.13-9.22v.45a8.32 8.32 0 01-.76-2.61l-.48-2.58-.16-.82.76.33c1.18.51 2.35 1 3.55 1.52s2 1.7 3 2.57l-.59.1c1.3-2.53 2.25-5.32 4.07-7.68 4.91-6.17 19.45 12.64-.25 10.92zM460.1 369.17c15.29 11.6 58.65 16.22 76.41 9l.17.66-26.23 2.37-.67.06.23-.63 2.2-6.24 1.09-3.1a4.42 4.42 0 00.41-2 4.07 4.07 0 00-.48-.49h.69c-1.09 1.2-2.31 2.09-2.62 3.71-.61 3.15-1.57 7.49-5.74 7.37s-8-1.25-12.06-1.68c-3.62-.26-4.62-1.75-4.09-5.29.2-1.63.44-3.21.6-4.81l.39.47c-.89 0-1.28-.35-1.44.73-.36 1.87-.71 6.08-1 8l-.39-.11c-7.78-2.25-19.78-5.79-27.49-8zm-.09-.05c7.69 2.08 20 5.27 27.77 7.38l-.44.29c.3-2.18.42-6.32 1-8.4.39-1.1 1.76-.68 2.54-.71-.13 1.77-.38 3.55-.56 5.28-.14 1.54-.31 3.33 1.07 3.75 3 .76 6.36.92 9.43 1.57 6.55 1.24 8.25.88 9.51-6.07.3-1.7 1.76-2.94 2.86-4.08l.34-.39a8.69 8.69 0 011 1.07c.46 1-.12 1.89-.34 2.78l-1.13 3.11-2.24 6.21-.45-.56 26.25-2.2 2.21-.19-2.05.84c-17.6 7.17-61.91 2.33-76.77-9.68zm21.38 95.94c-1.87.14-3.78-.25-5.53.58a5.34 5.34 0 00-3 4.27 6.47 6.47 0 006.45 7 4.89 4.89 0 003.87-3.19c.84-1.72.63-3.87 2.15-5.27a5.23 5.23 0 012.74-1.2c3.63-.37 4.55-1.13 4-4.87l.74.37a17.64 17.64 0 01-3.18 1.44c-3.62 1.2-4.27-1.57-4.05-4.49.06-1.15.17-2.28.29-3.41l.58.39a22.86 22.86 0 01-2.56 1c-.76.23-.93 1.16-1.18 2l-1.33 5.32zm-.07-.07l.43-2.67c.34-1.58.28-3.35 1.22-4.74.9-.8 2.16-1 3.13-1.57l.63-.34c-.1 1.36-.21 2.75-.24 4.1a7 7 0 00.43 3.08c.95 1.78 4.7-.68 6.08-1.28a11.27 11.27 0 01.06 3.67c-.35 2.41-3 2.69-4.86 2.88a3.73 3.73 0 00-3.52 3.18c-.55 2.76-2.16 6-5.33 6.23-6.51.19-9.84-9.08-3.58-12.11 1.74-.75 3.76-.42 5.55-.43zm45.39 100.12l-.32-1.29-7.68-3.61c-2.12-.7-5.53-3.4-7.44-1.35-.87 1.09-.36 2.47.21 3.64s1.2 2.54 1.85 3.79c.88 1.69 1.83 3.41 2.78 5.06.5.6 1.26.73 2.06 1.24l-.77.36.57-3.51a7.8 7.8 0 01.73-2.73c.57-.89 1.87-.81 2.74-.92 1.7-.14 3.55-.43 5.23-.73zm.09.06c-8.86 3-7-1.32-8.47 8.75-1-.78-2.74-1-3.31-2.45-1.52-2.81-2.93-5.69-4.18-8.62-1.19-2.13-.91-5.17 2.08-5.29 2.2.1 4 1.49 6 2.32l7.56 3.86.27 1.38zm26.59-160.64v-1 .06l-7.73-4c-1.29-.65-2.59-1.28-3.89-1.9a3.47 3.47 0 00-1.92-.54c-1.19.1-2.59 1.24-2.37 2.49 1.85 4.67 4.39 9.07 6.54 13.62l-.58-.28 1.16-.26-.39.4c.54-2.08.41-4.29 1.27-6.28 1-1.38 3-1.33 4.34-1.71l3.51-.64zm.08.07c-2.1.78-4.82 1.18-6.76 2.18-.85.49-.78 1.81-.94 3s-.28 2.4-.5 3.59l-.06.33-.33.07-1.55.37c-1.93-4-3.9-8.09-5.65-12.22a19.27 19.27 0 01-.81-2.09 2.56 2.56 0 01.87-2.24 3.41 3.41 0 014.32-.31c1.29.64 2.57 1.33 3.85 2l7.6 4.21-.07 1.05zm-63.9-21.74l-1.47.1h.06l-.75 5c-.72 7-1.75 14.58 1 21.28a11.62 11.62 0 006.05 5.94 44.67 44.67 0 004.74 1.75l-.43.68c-2.21-2.35-4.66-4.35-7.08-6.49a8.09 8.09 0 01-2.76-4.21 13.9 13.9 0 01.16-5c.65-6.28 1.55-12.82.47-19.09zm.05-.08c1.69 6.32.94 12.87.45 19.28-.57 3.42-.48 6 2.32 8.32 2.11 1.89 5.12 4.57 7 6.66l1.15 1.24-1.59-.56c-4-1.31-8.46-3.06-10.52-7.06a16.29 16.29 0 01-1.06-2.37c-2.39-8.2-.67-17.15.67-25.4v-.05h.05l1.52-.06zm-29.31 99.48c-.25-.42-.63-.8-.57-1.3.36-.67 1-1.12 1.33-1.85a14.68 14.68 0 001.16-3.42l.17.18c-1.19.2-2.41.15-3.21 1a7 7 0 00-1.66 6.3 3.27 3.27 0 002.66 1.6c2.34.34 4.7-.57 7.06-.55 2.88.57-2.6 5-3.36 5.88v-.71c.55.45 1.09 1 1.63 1.41h-.05a.34.34 0 00-.17 0 .31.31 0 00-.13.06l.15-.11c2.44-1.6 5.6-3.22 4.88-6.62-.31-2-2.23-2.91-4.09-3.06-2-.36-3.79.64-5.8 1.18zm0-.1a20.75 20.75 0 014.25-1.63c2.57-.37 5.94.48 6.49 3.43.93 3.91-2.37 5.92-5.2 7.63a.7.7 0 01-.84.12c-.87-.59-1.41-1.31-2.19-1.93 1.51-1.51 3.49-2.86 4.47-4.76l-.18-.05c-3.19-.06-8.12 2-10.13-1.59a7.3 7.3 0 011.91-6.81c.89-.91 2.26-.87 3.41-1h.23a15 15 0 01-1.32 3.67 5.71 5.71 0 01-1.14 1.44c-.58.4 0 1.07.23 1.51zm-31.65-93.9c.89.25 1.83 1.13 2.78 1.17 1.64-1.55 3.66-3 4.37-5.24a3.46 3.46 0 00-3-4.61c-2.54-.37-5.09 1.36-7.66.7-.45-.16-.49-.82-.28-1.17.67-1.32 1.65-2.3 2.36-3.55s-.36-2.06-1.61-1.33c-2.35 1.52-3.94 5.75-2.33 8.22.91 1.18 2.84 1 4.23.71a46.25 46.25 0 015.34-.72c.16.39.35.63.52 1.11a1.14 1.14 0 01-.39 1.11c-1.32 1.26-2.89 2.46-4.3 3.6zm-.1 0c.74-.8 1.89-1.91 2.68-2.69.43-.52 1.54-1.22 1.51-1.86a7.18 7.18 0 00-.43-.76l.35.17c-1.12.21-2.25.34-3.34.53-1.74.3-3.44 1.05-5.23.5-2-.5-2.77-2.92-2.48-4.68.33-2.63 2.29-6.84 5.52-6.31a1.63 1.63 0 011 1.79c-.14 1.22-1.14 2.11-1.79 3.08a5.08 5.08 0 00-1 1.59v.05c2.43.45 4.9-1.05 7.42-.63a3.89 3.89 0 013.29 5.24c-.77 2.23-2.76 3.63-4.43 5.14a.48.48 0 01-.44.18 17.58 17.58 0 01-2.72-1.34z"/><path d="M471.31 472.14c-1.52-.07-3.81-.48-5.28-.19-1.81.32-.38 3.34-.25 4.53l-.1-.15c1.79 1.3 3.49 2.72 5.29 3.95s4.47 2.69 5.75.2c.17-.3.3-.64.46-1v.19a3.11 3.11 0 00-1-1c-4.21.15-5.18-3.08-4.89-6.63zm.07-.07c.39 3.11 1 6.1 4.79 5.71a1.35 1.35 0 01.66.2 3.11 3.11 0 011.34 1.54.68.68 0 010 .39c-.56 1.41-1.6 2.81-3.23 2.89a8.16 8.16 0 01-4.37-1.9c-1.84-1.34-3.5-2.83-5.27-4.2-.23-1.38-.74-2.76-.46-4.18a1.33 1.33 0 011.15-.9 23 23 0 015.42.45zm-27.91-94.76c-3.74-.94-8.49-1.41-7.38-6.58l.21.33-5.42-1 .4-.19c-2.23 4.38 1 5.62 4.3 7.65a8.91 8.91 0 012.08 1.88c2.41 2.7 4.28-.06 5.81-2.05zm.1 0c-1.89 4.07-4.17 5.55-7.51 1.82-3.7-2.66-8.37-4-5.42-9.59l.11-.25.28.06 5.38 1.21.27.06c-1.41 5.11 3.27 5.46 6.89 6.69zm.67 161.49c.55-6.36-2.57-14.13-9-16.31l.49-.59c3.06 5.29 5.8 11.4 8.5 16.9zm0 .1c-3.08-5.24-7.11-12.1-9.7-17.51 7.21 2 10.85 10.52 9.7 17.51zm20.98.47c1.86-5.09 4.29-12.23 6.12-17.38l.53.49c-5.82 3.23-7.22 10.76-6.65 16.89zm0 .1c-2.12-6.7.28-15.38 7.22-18.12-2.12 5.38-5.17 12.81-7.22 18.12zm36.31-133.7c.48 0 .77-.13.88-.68a23.55 23.55 0 00.13-4l-.12-5.41-.19-10.83.4.4c-.2 0-.43 0-.43.08-.44 1.3-.18 2.86-.25 4.26V395c-.05 3.49-.14 7.3-.42 10.8zm-.07.07c-.26-3-.41-7.8-.51-10.86.11-3.32-.46-6.75.41-10 .35-.7 1.12-.54 1.67-.61v.44l-.11 10.83-.08 5.41a24.08 24.08 0 01-.28 4.07.88.88 0 01-1.1.71zM513 504.1a3.61 3.61 0 00-.71.64.89.89 0 00.05.89 45.54 45.54 0 003.5 4.94l4.84 6.53-.73.33c-1.3-4.88-2.62-10.25-7-13.33zm0-.1c5.94 2.62 7 9.71 8.22 15.34l-1.2-1.77c-2.25-3.38-4.61-6.68-6.85-10.07-.41-.8-1.49-1.9-1-2.84a3.14 3.14 0 01.83-.66zm43.3 108.89c.34.07.74.27 1.09.15a1.62 1.62 0 00.73-.83c1-2.18 1.61-4.52 2.38-6.78l3.07-9.12.24.51c-.86-.32-1-.25-1.4.54-2 5.12-3.71 10.54-6.11 15.53zm-.09 0c.67-2.61 2-6.63 2.8-9.22a55.61 55.61 0 012.61-6.77 2.18 2.18 0 011-1.07c.7-.23 1.22.15 1.83.33l-.14.38-3.35 9a70.51 70.51 0 01-2.68 6.71 1.64 1.64 0 01-.86.88 1.88 1.88 0 01-1.22-.25zm-28.96-89.72c1.33 3 3.27 7.15 4.63 10.2h-.72c1.08-4.08.45-8.65-3.91-10.24zm-.08-.06c3.66.14 5.94 3.88 5.39 7.29a23.7 23.7 0 01-1 4.32c-1.34-3.47-3.08-8.2-4.41-11.61z"/><path d="M433.81 347.16l6.08-11.05c5.34-4.65 10.37-9.5 10.74-17.89 15 8.77 22.46 1.62 67.4 4.33 1.14-6.57-17-7-29-4.91-5.36.94-35.46 11.8-44.76-12.86-4.57-12.14.2-21.44 2.2-32.82-9.49 5.8-13.91 31.07-.15 43.45 1.51 1.36.27 3-4.62 12.93-6.42-10.5-12.88-17.93-29.84-19.65-.13-2-.9-4.25-.27-6 8.23-22.67 21.37-49.82 45-54.82 19.68 13.9 35.19 23.42 58.47 17.2 12.31-3.29 24.57-7 27.64-22 25.38 3.93 46.03 19.13 56.3 56.73 3.6 13.21-22.11-3.54-35.39 23.67-6.63-8.54 9.37-10.65 7.2-28.85-1.3-10.89-7.52-24.7-15.4-29.82.6 4.68 4.9 9.52 6.91 16.6 10.11 35.44-5.35 33.91-24.46 39.06l.32 1.25c6.23 3.11 12.45 1 18.32-.66 2.76 4.19 5.19 8 7.81 11.75 1.26 1.79 2.77.49 4.78 5.1 1 2.25 1.8 4.58 2.68 6.88C563.32 352.9 553 357.29 542 361c-27.2 9.14-59.44 10.94-108.19-13.84z" fill="#fdc441"/><path d="M579.72 107.27c7.39 26.16 5.24 22 7.45 28.74 2.84 8.69 16.41 22.54 0 44.07-6.34 8.3-14.86 10.66-17 25.57-4.09 29.1-17.54 22.66-40.29 24.89-2.88-10.46-2.64-7.49-1.46-13.39 11.67-7.57 5.89-19.78 14.38-22.43 12.41-3.88 13.71-22.75 2.14-21.78-6.46.54-5.23-3.38-6.32-7.8-5.5-22.22-20-32.2-42.84-32.4-15-.13-32.33 7.7-34.61 28.39-.44 4-2.05 7.88-3.15 11.92-11.54-5.09-13.51 8-7.59 14.47a40.57 40.57 0 0110.16 21.69c-2.87-.87-4.39-.38-3.33 3.09.55 1.8 7.88 8.12 9.76 7.81.84-.14 1.48-1.49 2.21-2.29 4.06 2.15 4.42.7 3.74 15.36-5.61.29-11.27.16-16.81.95-14.66 2.1-24.27-10.07-23.11-22.17 1.84-19.15-19.15-14.85-13.39-39.12 2.9-12.23 8.66-16.47 4.23-33.52-3.07-11.78-2.43-23.19 5.23-33.39.55 1.17.84 2.62 1.71 3.44 1.5 1.42 3.35 3.36 5.07 3.38a8.2 8.2 0 005.75-3c1-1.32.55-3.84.73-5.81 5.12.29 3.15 1.72 8.39-4-8.61.39-8.43-.37-7.32-4.12 1.2-4.08 1.05-3.43 3.61-4.66 0 1 4.56 11.93 7.42 4.48.17-.45-.81-1.34-1.08-1.75 8.86-2.82 10.64-2.71-1.5-4.52 25.65-13.06 40.76-24.05 66.31-13.47 26.59 11 37.22-5.25 58.46 25.25-3.28.15-7.12-1.08-9 3a22.65 22.65 0 00-1.1 5c-9.9 2.75-7.09 2.53-12.49 1.5 1.15 4.15-1.24.91 9.6 13.17 4.93-3.29 7.28-6.52 5.71-11.49 6.01.96 9.14-.74 10.33-5.06zm-29.3 21c-7.35-1.21-11.62-4.08-10-12.23s1.43-16.37-6.88-15.74c-10.61.79-13.26 8.75-17 11.34-27.19-9.93-49.59 7.47-54.11 27 2.48-3 4.53-6.25 7.37-8.61 17.3-14.4 38.15-13.3 56.17-3.23 2.6 1.45 4.39 4.36 6.56 6.59-4.85 4.57-5.15 1 3.72 18.69l3.17-2.84c4.55 4.69 9.34 2.3 19.59-2.38 5.74-2.62 7.06-9 2.81-13.26a30.52 30.52 0 00-3.45-2.6c.79-1.16 2-2.24 2.26-3.5 1.62-9.28-7.43-13.33-11.54-3.42-.44 1.08.83 2.81 1.33 4.23zm-91.53 93.58c1.64 1.33 1.47.7-2.88 6.05.78.44 1.73 1.43 2.59 1.36 2.17-.18 5.39-5.39 4.69-7.43-1.65-4.76-5.18-3-10.71-2.3 1.11-2.41 2.27-4.4 1.93-5.53-.09-.31-1.16-.69-1.24-.6-1.55 1.95-4 3.83-4.27 6-.37 2.76 2.21 4.28 5.1 3.91a28.6 28.6 0 004.79-1.42z" fill="#664333"/><path d="M579.72 107.22c.73 2.46 2.12 7.42 2.78 9.89.89 3.29 1.76 6.59 2.53 9.91s1.29 6.7 2.56 9.87c2.67 6.22 6.54 12.1 7.38 19s-1.06 13.76-4.59 19.57a42.93 42.93 0 01-6.18 8.14c-3.58 3.63-7.69 6.79-10.31 11.23s-3.36 9.55-4.19 14.59c-1.27 6.55-3.43 13.9-9.55 17.51a23.71 23.71 0 01-9.83 2.75c-6.8.58-13.63.35-20.41 1.06h-.16v-.16l-1.92-6.58c-.89-2.31 0-4.65.41-6.93a18.62 18.62 0 004.45-4c2.52-3.13 3.47-7.08 4.39-10.92 2.12-9.78 7.12-5.75 12.21-12.06 4.18-4.6 5.52-15.38-2.28-16.81-2-.29-4.09.41-6-.58-2.77-1.67-1.84-5.8-2.93-8.4-2-7.61-5.49-15.11-11.29-20.57a38.39 38.39 0 00-21.18-9.85c-15.26-2.81-33.83 1.23-41 16.35a35.66 35.66 0 00-3.16 11.36c-.55 4.16-2.17 8-3.2 12-10.68-5.21-13.66 6.62-7.7 13.6a41.58 41.58 0 0110.5 22.61l-.57-.16a4.88 4.88 0 00-2.54-.27c-1.09.31-.55 2.41-.15 3.23a25.14 25.14 0 008.4 7c.42.12.75.25 1 .06.67-.44 1.22-1.57 1.94-2.29l.27.13 1.94 1c2.3 1 2.25 4.05 2.28 6.08 0 3-.15 6-.28 9h-.36c-6.12.24-12.16.3-18.23 1.08l-1.33.11h-1.33c-11.1-.12-19.92-10.26-19.53-21.17.18-3.47.44-6.89-1-10.12s-3.78-5.63-6.25-8.06c-3.91-3.57-7.06-8.36-7.09-13.83-.48-8.9 4.17-17 6.2-25.33 2.45-10.45-3.46-20.44-2.7-30.93a34.68 34.68 0 017.51-20.33c.84 1.49.93 3.16 2.22 4.27l1 1a6.73 6.73 0 003.32 2 7.43 7.43 0 005.62-2.93c.86-1.69.24-4 .54-5.85h.47c1.19 0 2.57.39 3.71.35 1.06-.32 1.76-1.53 2.57-2.31l1.72-1.91.38.82c-2.42 0-5 .45-7.32-.44-1.61-.73-.94-2.83-.57-4 .52-1.44.63-3.2 1.91-4.23.95-.6 1.78-.8 2.66-1.32l.09.77c.39 1.68 3.61 9 5.78 5.64a7.53 7.53 0 00.67-1.36c0 .06 0 .07 0 0a2.09 2.09 0 00-.39-.6c-.19-.23-.38-.43-.62-.76l-.38-.54.65-.2 4-1.23a14.74 14.74 0 002.86-1.09.29.29 0 000 .29 23.64 23.64 0 00-4.15-.92c-.58-.06-4.88-.79-5.52-.86l1.25-.59c14.8-7.2 30.93-18.15 48-17.64a49.8 49.8 0 0116.83 3.58c2.7 1 5.3 2.1 8.06 2.87C532.84 80.42 541.53 80 550 81c11.87 1.29 20.45 10.71 26.85 20l.26.38h-.46c-7.38-.37-8.86.28-9.85 7.79v.13h-.13l-6.18 1.75c-2.09.83-4.31.16-6.4-.29l.21-.23c.37 1.33.36 2.72 1.35 3.78 1.79 2.21 6.25 7.15 8.17 9.35h-.17c4-2.47 7.53-6.39 5.69-11.35v-.14h.14c4.59.78 8.85 0 10.27-5zm0 .1c-1 5-6 5.94-10.3 5.12l.1-.12c1.88 5.07-1.67 9.07-5.72 11.63l-.09.06-.08-.08c-2-2.27-6.44-7.06-8.24-9.32-1.08-1.1-1.07-2.78-1.52-4.18 1.15.2 2.31.49 3.44.69a6.83 6.83 0 003.08-.38l6.17-1.79-.16.18c.24-1.24.33-2.53.67-3.79a5.38 5.38 0 015.77-4.46c1.3 0 2.58.1 3.83.05l-.2.39c-6.38-9.18-14.78-18.45-26.52-19.69-8.46-1-17.29-.57-25.56-3.17-2.76-.76-5.44-1.9-8.11-2.87a49.16 49.16 0 00-16.6-3.47c-16.87-.45-32.94 10.51-47.56 17.69l-.14-.88 4.11.63c1.49.31 3.18.35 4.63 1.14 1.32 1.42-2.35 2.08-3.2 2.45l-4 1.24.26-.74c.4.61 1.32 1.2 1.15 2.15-.53 1.21-1 2.56-2.54 2.92-2.29.13-3.43-2.26-4.41-3.85a13.3 13.3 0 01-1.44-3.68l.71.44c-.65.33-1.42.6-1.91.92-.88.78-1.11 2.53-1.52 3.7-.19.91-.84 2.13-.11 2.8 2.14.9 4.7.42 7 .44h1.16l-.78.86-1.71 1.9c-1 .93-1.7 2.26-3.15 2.61a4.88 4.88 0 01-1.41-.07c-.85-.12-1.67-.21-2.5-.27l.5-.43c-.14 3.33.57 5.86-2.87 7.85-4.07 2.53-6.15 1.16-9.21-1.91-1.15-.91-1.55-2.66-2.09-3.85l.81.09c-6.43 8.26-8.14 19.28-6 29.39.67 3.37 1.7 6.75 2.11 10.25a31.17 31.17 0 01-.3 10.55c-2 8.42-6.64 16.24-6.2 25.1.12 12.47 13.95 14.61 14.41 26.82.13 1.76-.09 3.57-.13 5.25a20.26 20.26 0 002.31 9.86c4.14 8.15 12.7 11.72 21.55 10.14 5.2-.62 10.47-.54 15.68-.8l-.38.38c0-4.16.87-8.72-.25-12.72-.48-1.18-2-1.56-3.27-2.28l.47-.08c-.66.69-1 1.62-1.91 2.21s-2.15-.21-3-.68a31.47 31.47 0 01-4.53-3.48c-1.35-1.3-3.12-2.72-3.4-4.67-.7-3.21 1.76-3.36 4-2.61l-.48.42a43.86 43.86 0 00-3.46-11.62 39.17 39.17 0 00-6.68-10.11 13 13 0 01-2.83-5.57c-1.81-7.85 3.44-12.86 11-9.28l-.47.22c1.05-3.87 2.59-7.58 3.1-11.49.85-8 4.31-15.88 10.64-21 7.81-6.53 18.38-8.63 28.32-7.88 10 .58 20.16 3.6 27.45 10.71 5.15 4.85 8.45 11.29 10.6 17.95l.81 2.89c.85 2.35.51 5 1.67 7.17 1.54 2.18 4.52 1.07 6.8 1.43 8.22 1.5 7 12.75 2.57 17.62a15.35 15.35 0 01-7.53 4.85c-2.88 1.13-3.93 4.21-4.63 7-.92 3.86-1.92 7.91-4.48 11.07a15.87 15.87 0 01-4.39 3.89c-.45 2.24-1.27 4.41-.42 6.67l1.86 6.63-.2-.14c6.78-.7 13.63-.46 20.41-1 7.11-.47 13.28-3.4 16.19-10.24 3.07-6.19 3-13.24 5-19.73a25.16 25.16 0 015.2-8.78c2.28-2.55 4.94-4.72 7.31-7.15 6.94-7.25 12.14-17.25 10.75-27.52-.83-6.87-4.67-12.72-7.33-19-1.27-3.18-1.78-6.58-2.55-9.89-1.53-6.62-3.44-13.24-5.18-19.73z"/><path d="M550.46 128.34c-5-.58-10.66-3-10.44-8.88-.06-2.52.75-5 1-7.47.29-3.51.49-8-2.55-10.38-4-2.58-10.35-.42-13.89 2.19-3.1 2.22-4.9 5.7-7.88 8-16.91-5.95-34.76-2.35-46.4 11.85a37.47 37.47 0 00-7.49 15.06l-.61-.31c2.66-3.16 4.93-7 8.41-9.45l2-1.55c12.72-9.31 29-10.87 43.66-5.55a65.34 65.34 0 019.28 4.15 12.7 12.7 0 014.05 3.24c1.26 1.41 2.36 2.86 3.66 4.16-1 1.05-2.38 1.92-3.32 3a1.29 1.29 0 00-.23 1 19.85 19.85 0 002 4.81c1.67 3.21 3.36 6.43 5 9.68l-.77-.15 3.18-2.83.35-.3c2.45 3 6 3.28 9.46 2.06a93.21 93.21 0 009.59-4 9.38 9.38 0 004-3 7.32 7.32 0 00-.3-9.22 18.87 18.87 0 00-4-3.23l-.22-.16c.73-1.13 1.81-2.05 2.27-3.19a9.39 9.39 0 00-.83-7c-2.38-3.75-6.68-2.69-8.82.66a9.68 9.68 0 00-.94 1.58c-.24.56-.68 1.07-.55 1.68.21 1.21 1 2.2 1.36 3.47zm-.08-.06c-.45-1.31-1.88-2.87-1.31-4.34a12.68 12.68 0 012.51-3.93 5 5 0 018.2.7 9.71 9.71 0 011 7.39 17 17 0 01-2.14 3.1l-.07-.38a18.86 18.86 0 014.11 3.3 8.14 8.14 0 01-1.51 11.95 68 68 0 01-12 5.42 12.5 12.5 0 01-5.32.7 8.39 8.39 0 01-4.76-2.58h.66l-3.16 2.86-.48.43-.3-.58c-2-4.06-4.2-8-6.19-12.12-1-2-1.64-3.84.54-5.39.71-.59 1.38-1.16 2-1.76v.7c-2.39-2.45-4.12-5.46-7.11-6.85a66.66 66.66 0 00-9.13-4.1c-9.4-3.38-19.84-4.2-29.48-1.33a46.38 46.38 0 00-17.33 9.68c-2.72 2.63-4.81 6-7.37 8.86 3.45-17.65 20.09-31.25 38-31.46a46.12 46.12 0 0116.85 2.92h-.19a14.7 14.7 0 002.63-2.6c2.39-2.9 5-5.83 8.56-7.3 6.74-2.73 13.64-2.18 13.74 6.63.27 3.8-1.06 7.46-1.14 11.21-.2 5.86 5.31 8 10.18 8.83zm-91.48 93.56c.52.39 1.34.87.86 1.6-1.09 1.63-2.45 3-3.63 4.6l-.05-.24c.47.27.87.6 1.29.87a1.83 1.83 0 002.56-.25c1.66-1.55 3.39-4.1 3.08-6.42a4.79 4.79 0 00-1.58-2.36c-2.68-1.48-5.89.16-8.8.36l-.76.1c.55-1.27 1.2-2.56 1.72-3.81a4.4 4.4 0 00.46-2.06c.07.1 0 0-.13-.06a2.12 2.12 0 00-.6-.23.43.43 0 00.3-.15v.05c-1.2 1.53-3 3-3.84 4.68-1.07 2.06.36 4.14 2.56 4.46s4.39-.61 6.57-1.14zm0 .1c-2 .77-4.19 2-6.65 1.69a3.85 3.85 0 01-3.33-5.5 11 11 0 012.07-2.89c.39-.39 1.35-1.49 1.71-1.88.16-.21.35-.46.63-.45a2.66 2.66 0 011.12.38 1.31 1.31 0 01.52.49 1.06 1.06 0 01.09.35c.1 2.07-1.33 3.82-2.07 5.62l-.45-.61c3-.13 6.45-1.79 9.3 0a5.39 5.39 0 011.76 2.72 5 5 0 01-.6 3.14c-.94 1.82-2.18 3.93-4.29 4.48-1.24.12-2-1-3-1.49l.12-.14c1.21-1.51 2.62-2.9 3.74-4.47.47-.64-.36-1.06-.75-1.43z"/><path d="M563.59 323.47c6.59-13.5 18.32-18.15 33.35-18.07 8.38 34.4 4.74 21.91 13.23 34.59 17.28 25.79 7.38 51.76 4.94 67.6-.72 4.72 4.86 15.88 6.11 24 2.51 16.34-9.94 27.75-21.51 37.94-5.51 4.86-6.63-.29-8.56-6 15.08-60.18 5.15-79.69-16.73-116.86-.51-.88-1.76-1.32-2.67-2-3.5-9.13-2.31-6.35-4.64-10.06-.6-3.1.38-.03-3.52-11.14z" fill="#cd8671"/><path d="M563.54 323.47c6.31-13.53 19.17-18.41 33.4-18.2h.1v.1c1.77 7 3.88 16.53 5.87 23.3a15.49 15.49 0 001.08 2.76c1.53 2.55 3.84 4.61 5.43 7.14.46.61 1.27 1.87 1.65 2.53a49.56 49.56 0 013 5.23c8.19 15.36 7.2 33.55 3.54 50-.77 3.92-1.71 7.87-2.22 11.77 0 3.95 1.67 7.74 2.82 11.48 2.65 7.51 5.15 15.76 2.63 23.68-3.24 10.81-12 18.66-20.11 25.95a16.51 16.51 0 01-2.41 1.92c-2.36 1.53-4.36.71-5.52-1.71a50.18 50.18 0 01-2.17-5.82v-.15c4.82-20.25 9.13-41.25 6.26-62.11-2.34-18.31-11.29-34.84-20.46-50.59l-2-3.41c-.49-1.27-1.83-1.65-2.94-2.46-1.15-3-2.57-7.56-4.59-10.15a24.62 24.62 0 00-1.52-5.7l-1.92-5.6zm.1 0c1.08 3.29 3.23 8 3.58 11.16a20.31 20.31 0 012.71 4.88l2 5.18-.08-.1a14.07 14.07 0 012.49 1.67c.39.47 2.18 3.67 2.56 4.26 9.34 15.77 18.43 32.28 20.92 50.73 1.57 10.45 1.16 21.09-.17 31.52a255.49 255.49 0 01-6.07 30.68 47.53 47.53 0 002 5.56 3.59 3.59 0 001.76 1.9c1.17.41 2.66-.59 3.6-1.38 11.17-9.58 24.65-22 21.77-38.19a81 81 0 00-3.23-11.5c-1.16-3.84-2.85-7.68-2.81-11.76 1.92-11.86 5.37-23.5 5.1-35.6a58.47 58.47 0 00-7.57-28.6 61.67 61.67 0 00-6.83-9.81 12.47 12.47 0 01-2.11-3.16c-1.68-4.47-2.55-9.19-3.73-13.8l-2.8-11.69.13.11c-14.13-.28-27 4.54-33.3 17.94z"/><path d="M411.82 308.69c16.17 1.64 22.92 8.34 29.84 19.65-2.22 9.79-.55 5.56-7.85 18.82-1.72 1.08-4.05 1.76-5.08 3.31-7.92 11.76-12.35 25-16.24 38.54-1.19 4.11-4.15 57.75 3.92 90.65-2-.83-4.4-1.18-5.84-2.56-9.43-9-14.8-20.26-16.65-33.05-.4-2.79.88-5.92 1.78-8.77 5.28-16.6-9.46-35.4-1.11-73.49 2.15-9.81 12.4-22 12.35-26.68-.1-9.11.99-18.03 4.88-26.42z" fill="#cd8671"/><path d="M411.79 308.64c14.25 1.24 23 7.46 30 19.72l-1.08 5a17.1 17.1 0 01-1.76 4.85q-2.49 4.56-5 9.07c-1.81 1.17-4.1 1.67-5.25 3.6l-1.18 1.82a113.22 113.22 0 00-10.8 23.64c-.93 2.75-1.8 5.51-2.64 8.28l-1.22 4.18a31.06 31.06 0 00-.59 4.25c-1.74 28.79-1.63 58.21 4.58 86.48l.19.8-.75-.32c-1.71-.72-3.68-1-5.41-2.17a43.42 43.42 0 01-4.1-4.16A55.75 55.75 0 01394.12 448a23.35 23.35 0 01-.74-5.83 24.87 24.87 0 011.41-5.68l.44-1.36a29.75 29.75 0 00.87-4.13c1.16-11.46-3.11-22.62-4-34a108.63 108.63 0 01.9-28.8l1.09-5.67c1.56-7.59 6.24-14.06 9.92-20.73a28.61 28.61 0 002.4-5.15c.55-1.77.17-3.78.35-5.65a56.66 56.66 0 015-22.36zm0 .09c-3.79 8.28-4.8 17.56-4.68 26.59-.24 2.45-1.59 4.63-2.68 6.74-3.61 6.68-8.18 13.07-9.69 20.62a108.37 108.37 0 00-1.69 34.17c.82 7.63 2.5 15.09 3.63 22.69.7 4.73 1 9.74-.2 14.46-.59 2.72-2 5.49-2.16 8.24.39 7.5 3 14.94 6.51 21.57a52.47 52.47 0 0010.46 13.37c1.46 1 3.41 1.34 5.23 2.1l-.57.48c-6.12-28.42-6.16-57.84-4.31-86.73a29.59 29.59 0 01.62-4.35l1.24-4.18c.84-2.77 1.72-5.54 2.66-8.29a113.84 113.84 0 0111-23.68c.69-1 1.61-2.81 2.74-3.43 1.15-.77 2.89-1.53 3.76-2 2.28-4.57 5.64-8.71 6.77-13.75l1.1-5c-7.19-12-15.1-18.14-29.69-19.58z"/><path d="M542.63 243.09c-3.08 15-15.33 18.71-27.64 22-23.2 6.2-38.86-3.34-58.47-17.2 14.91-8.64 11.39-5.26 16.46-14.71.58-12.35.6-8.58-.66-13.73 29.55 10.86 21.26 10.72 56.11-2.3l-.94 4.68c4.37 15.88-.14 12.17 15.14 21.26z" fill="#cc846f"/><path d="M542.67 243.07c-2.69 14.47-15.16 19-27.86 22.25-22.75 6.47-40.63-4.35-58.5-17.13l-.47-.33.5-.28 5-2.84c2.4-1.44 5.08-2.6 7.15-4.46 1.89-2.06 2.74-4.9 4.16-7.3l-.05.18c0-2.3.57-8.1.23-10.27-.34-1.3-.84-2.81-1.12-4.19l.82.3c4.92 1.72 15.93 6.27 20.86 7.29 7.32 1.7 14.35-1.88 21.12-4.26q7.2-2.75 14.43-5.42l-.12.61-1 4.67c.77 2.48 1.66 7 2.32 10.08.5 3.67 3.64 5.68 6.57 7.43l6 3.67zm-.09 0l-6-3.47c-2-1.24-4.17-2.31-5.58-4.26-1.19-1.73-1.62-4.69-2.1-6.71-.46-2.32-1.16-4.61-1.69-6.9l.91-4.69.46.39q-6.9 2.66-13.77 5.38c-6.86 2.57-14.14 6.2-21.64 4.42-7.12-1.73-14.08-4.92-21-7.37l.62-.56c.26 1.13.62 2.15.91 3.36.37 2.42-.25 8-.28 10.5v.18c-1.47 2.47-2.35 5.33-4.35 7.47-2.19 2-4.88 3.08-7.35 4.55l-5 2.81v-.62c13.48 9.59 28.33 19.71 45.55 19.18 8.39-.31 16.66-2.58 24.46-5.58 8.12-3.12 14.18-9.42 15.84-18.08z"/><path d="M559.69 659c4.47 10.48 9.83 18.06 3.46 24.66-22.49 23.29-28 29.13-36.69 18.25-19.46-24.48-16.85-20.63-6.89-43.75 1.83 1.43 3.79 2.72 5.47 4.31 10 9.41 22.68 9.45 31.24-1.69.72-.88 2.25-1.16 3.41-1.78z" fill="#046095"/><path d="M559.7 659c2.52 6.52 8.79 15 5.57 22-.93 2.1-3.48 4.27-5 6-3.59 3.73-7.16 7.47-10.88 11.08-5.16 4.6-12.94 13.5-20.06 7.45a39.75 39.75 0 01-5.19-5.85c-3.21-4.06-6.52-8-9.4-12.39a18.56 18.56 0 01-3.16-7.22 15.24 15.24 0 011.26-7.8c2-5 4.42-9.83 6.52-14.81a85.59 85.59 0 017.33 5.93 22.15 22.15 0 0012.94 5.61c5.83.44 11.44-2.51 15.27-6.78l1-1.09c.89-1.29 2.47-1.54 3.84-2.14zm0 .09c-1.22.66-2.82.91-3.62 2.2l-.93 1.14c-3.76 4.54-9.53 7.59-15.53 7.26s-11.41-3.53-15.7-7.54c-1.47-1.23-3.07-2.33-4.62-3.54l.76-.2c-2 4.74-4.37 9.39-6.25 14.17-2.29 5.2-1.49 9.61 1.71 14.21 2.77 4.3 6.07 8.32 9.24 12.39 2.39 2.89 4.54 6.47 8.3 7.53 5.85 1.27 11.93-5.5 16-9.05 3.73-3.57 7.34-7.27 11-11 1.49-1.67 4-3.78 5-5.83 3.23-6.93-3-15.28-5.31-21.77z"/><path d="M559.69 659c-1.16.58-2.7.86-3.41 1.78C547.72 672 535 671.92 525 662.51c-1.68-1.59-3.64-2.88-5.47-4.31.31-33.89-.21-24.11 2.63-34.65 12.82 5.8 25.81 6.32 39 1.22 3.99 19.41 2.34 21.23-1.47 34.23z" fill="#cb8570"/><path d="M559.72 659.07c-1.33.68-2.85.87-3.71 2.18a24.51 24.51 0 01-4.12 4.15c-6.81 5.64-16.21 5.18-23.29.26-3.2-2.31-5.94-5-9.2-7.24l-.11-.08v-.14l.07-17.49c0-2.92 0-5.82.22-8.77s1.56-5.64 2.22-8.5l.12-.47.45.2a49.35 49.35 0 0039.15 1c1.1 5.91 2.32 11.86 2.24 17.91s-2.33 11.42-4 17zm-.07-.06c1.44-5.56 3.54-11.15 3.5-17s-1.27-11.52-2.43-17.18l.62.33a48.75 48.75 0 01-39.34-1.24l.57-.27c-.4 1.41-.81 2.82-1.29 4.21-1.56 4.12-1.07 8.53-1.25 12.86l-.21 17.49-.11-.23c3.18 2.21 6 5 9.12 7.3 6.91 4.92 16.15 5.44 22.9 0a24.21 24.21 0 004.14-4.08c.83-1.27 2.49-1.57 3.75-2.15z"/><path d="M476 657.69c4.7 7.24 16.93 21.77 1.51 38.75-9.11 10-12.89 14.49-18.13 10.31-19.79-15.81-27.37-19.16-24.27-30.53 1.61-5.87 1-9.62 2.75-15.25 4.62 6.3 4.43 6.57 5.78 7.66a19.73 19.73 0 0030.93-8.78 10.5 10.5 0 011.43-2.16z" fill="#046095"/><path d="M476 657.64c5.14 7.22 10.47 15.57 8.93 24.82a18.94 18.94 0 01-.92 3.76 10.1 10.1 0 01-.69 1.81 32.1 32.1 0 01-5.25 8.12c-2.54 2.91-5.1 5.77-7.87 8.49s-6.79 5.64-10.47 2.76c-2.09-1.55-7-5.46-9.16-7.09a126.45 126.45 0 01-11.89-9.87 16.49 16.49 0 01-4.25-6.59 14.37 14.37 0 01.24-7.86c1.39-5 1.1-10.23 2.71-15.17l.3-.94c1.42 1.94 2.84 3.89 4.2 5.87a11.71 11.71 0 004.32 4.1 19.45 19.45 0 0022.75-2.1 20 20 0 003.92-4.71c1.16-1.77 1.59-3.85 3.13-5.4zm0 .1c-1.4 1.68-1.78 3.62-2.86 5.45a20 20 0 01-30 5.62c-2.27-2.28-3.66-5.06-5.66-7.55l.88-.14c-1.59 4.8-1.26 10.07-2.71 15.13-1.68 5.26-.22 9.79 3.67 13.6a123.77 123.77 0 0011.68 9.88c2.11 1.63 7 5.59 9.08 7.13 3.4 2.71 7.15-.14 9.7-2.64 2.76-2.66 5.36-5.53 7.9-8.4a31.44 31.44 0 005.25-8 9.28 9.28 0 00.69-1.77 18.26 18.26 0 00.94-3.7c1.65-9.11-3.69-17.46-8.58-24.66z"/><path d="M476 657.69a10.5 10.5 0 00-1.43 2.16 19.73 19.73 0 01-30.93 8.78c-1.33-1.08-1.24-1.47-5.78-7.66 4.87-9.18-5-10.9-1.44-22.84 3-10-4.14-10.89 7.18-7.69 7.76 3.09 30-3.27 32.79-3.93.93 23.77.83 15.73-.39 31.18z" fill="#cb8570"/><path d="M476 657.71c-1.43 1.59-1.87 3.66-3 5.45a19.82 19.82 0 01-3.89 4.86c-6.61 6.08-17.37 6.92-24.66 1.55a10.28 10.28 0 01-3.28-3.38q-1.78-2.55-3.63-5.05l-.11-.14.09-.17a9.49 9.49 0 00.1-9.29c-1.48-3-2.75-6.32-2.37-9.74a29.26 29.26 0 011-4.94 17.16 17.16 0 00.12-7.31 1.22 1.22 0 01.21-.92.85.85 0 01.53-.27c1.18-.09 5.32 1.37 6.52 1.63 5.19 1.59 11 .48 16.31-.3 5.66-1 11.19-2.36 16.77-3.73v.53c.14 5.21.34 10.4.44 15.62s-.78 10.39-1.23 15.6zm-.09 0c.21-3.88.6-7.79.78-11.67 0-6.5-.52-13-.77-19.49l.53.41c-2.66.7-5.37 1.45-8.08 2.08-7.47 1.56-15.21 3.48-22.88 2.42-1.48-.35-5.25-1.5-6.84-2a6.39 6.39 0 00-1.37-.27 20.13 20.13 0 01-.21 7.84 29.81 29.81 0 00-1 4.82 13.8 13.8 0 00.41 4.83c.84 3.2 3.13 6 3 9.53a11.61 11.61 0 01-1.41 4.89v-.31c1.23 1.67 2.43 3.37 3.6 5.08a9.74 9.74 0 003.13 3.28c7.1 5.33 17.66 4.59 24.22-1.31a19.65 19.65 0 003.89-4.77c1.11-1.75 1.57-3.87 3-5.4z"/><path d="M928.46 292c14.09 21.17 28.24 42 32.54 76 7.3 57.1-5.25 111.4-10 141.3-6.42 40.05-3.93 29-8.51 39.65-20.83 7.48-23.51 4.23-41.6-.69-2.29-4.2-5.19-8.19-6.77-12.64-53.81-151.46-34.48-193.43-8.91-241.62 24.13 10.77 26.88 6.07 43.25-2z" fill="#fdc133"/><path d="M928.47 291.91c16.63 24.21 29 46.11 32.68 75.78 6.77 49.94-2.58 99.88-11 149l-2.56 16.46c-.71 4.08-1 8.47-3 12.16-.64 1.29-1.22 2.6-1.79 3.92h-.15c-6.74 2.33-13.71 4.78-21 4.4s-14-3.34-21-5.09c-2.7-4.84-6-9.53-7.63-14.93-16.15-46.84-31.68-95-33.56-144.92-1.1-36.74 8.12-63.16 25.61-94.88l.11-.2.21.09c3.52 1.52 7 3.08 10.67 4.26 14.21 5.06 20.24-.07 32.49-6.11zm0 .1c-12.24 6.3-18.36 11.32-32.6 6.4a108.59 108.59 0 01-10.74-4.2l.31-.1c-10.42 19.39-19.81 39.72-23.11 61.66-3.52 21.8-2.15 44.12 1.16 65.87 4.29 27.26 11.5 54 19.78 80.32 3.28 10.55 6.85 21 10.49 31.43 1.56 5.36 4.76 9.85 7.45 14.68 5.38.94 13.78 4.64 20.44 4.86a34.86 34.86 0 0010.5-1.16c3.45-.85 6.83-2 10.19-3.16l-.21.2c1-2.55 2.59-4.94 3.29-7.59 1.14-5.15 3.15-19.15 4.06-24.63 8.55-49.07 18-98.94 11.37-148.86C957.17 338 945 316.32 928.45 292z"/><path d="M993.66 345.61l-10 5.65c-5.5 2.46-5 1-24.4-47.17-12-29.78-18.69-48-20-50L928.46 292c-6.69 3.35-21.13 15.32-42 2.6-3.66-2.21-5.23-7.66-14.19-43-9.57 27.08-23.56 63.8-30.67 82.21-12.2 31.57-12.08 27.33-15.71 30.89l-8-7.84c42-145.12 50.4-148.21 72.65-154 6.7 7.52 12.68 21 17 30.05l17.75-30.09c24.81-.91 33.56 51 67 137.23a41.51 41.51 0 011.37 5.56z" fill="#8cdae7"/><path d="M993.7 345.63l-10 5.68c-2.77 1.46-4.19.48-5.66-2-5.93-11.15-13.46-32.37-18.51-44.25-5.84-14.42-12-30.09-17.68-44.6-.76-1.8-1.77-4.58-2.71-6.25l.31-.05c-.11.13-10.66 38-10.87 38-6.54 3.71-13.27 7.73-21 8.24-7.66.68-15.19-1.87-21.63-5.89a7.17 7.17 0 01-2-2.15c-3.19-5.83-4.45-12.49-6.31-18.82-1.94-7.29-3.8-14.61-5.66-21.93h.55c-6.83 19.3-14 38.48-21.22 57.63-5.49 14.34-10.76 28.77-16.75 42.91-1.62 3.5-3 7.22-5.5 10.21-1 1.11-2.25 1.75-3.17 2.79l-.28-.27-8-7.83-.17-.16c8.21-28.3 16.53-56.57 25.9-84.52 6.85-18.47 18.2-58.31 36.54-66.54a58.51 58.51 0 0110.81-3.57 54.23 54.23 0 015.37 7.26c4.62 7.36 8.21 15.31 11.95 23.11h-.88L925 202.56l.13-.21a17 17 0 0110.13 2.84c14.94 9.93 25.09 46.11 31.61 63.34 6.69 19.29 13.29 38.6 20.39 57.74l3.58 9.56a41.19 41.19 0 012.88 9.8zm-.09 0a42.74 42.74 0 00-3-9.7l-3.61-9.57c-7.26-19.08-14-38.37-20.7-57.64-6.51-17-16.82-53.08-31.52-62.83a16.09 16.09 0 00-9.41-2.67l.36-.22L908 233.12l-.48.81-.4-.84c-3.73-7.81-7.28-15.7-11.88-23a54.08 54.08 0 00-5.06-6.92l.48.15a55.32 55.32 0 00-10.35 3.42c-18 8.06-29.36 47.76-36.13 66-9.41 27.2-17.77 57.75-26 83.83l8 7.85h-.54c.94-.95 2.09-1.6 2.89-2.49 2.44-2.9 3.79-6.58 5.38-10 2-4.69 3.92-9.45 5.79-14.21 11.3-28.96 22.3-57.97 32.67-87.19 3.49 13 6.15 26.38 10.82 39.06a10.12 10.12 0 003.08 4.49c12 7.73 24.9 7.8 37.15.46 1.65-.91 3.25-1.9 5-2.77l-.11.13 10.83-37.84.12-.39a60 60 0 012.93 6.66c5.7 14.54 11.77 30.2 17.59 44.64 5 11.91 12.47 33 18.41 44.27a6.18 6.18 0 002.26 2.46c1.05.5 2.23-.07 3.22-.49l10-5.62z"/><path d="M884.21 152.28c-.77-.27-1.91-.31-2.25-.85-5.67-8.82-11.63-17.46-13-28.33-2.34-19.1 9.48-42.1 28.78-30.32 10.84-9.4 28-7.06 38.39 4.65 7.09 8 11.75 32.41 1.51 51-1.35 2.44-3.92 4.21-5.94 6.29 0-2.09.08-4.19 0-6.28-.54-10.61-7.07-19.2-16.52-21.36-6.36-1.45-12.87-2.3-17.44-7.48-8.99 14.85-14.34 20.83-13.53 32.68z" fill="#032746"/><path d="M884.24 152.32c-.71-.24-2.13-.25-2.48-1.09-5.42-8.34-11.23-16.95-12.75-27-1.51-10.66.61-22.83 8.45-30.69a14.85 14.85 0 0115.43-3.36 26.18 26.18 0 015 2.34h-.34c11.44-10 29.19-6.36 38.73 4.49 5 6 6.73 14 7.51 21.61.79 10.86-.75 22.64-7 31.8-1.77 2-3.83 3.53-5.56 5.45-.11-4.88.33-9.9-1.42-14.56-2.15-6.32-7.17-11.73-13.67-13.58-2.14-.62-4.42-1-6.63-1.58-4.45-1-9-2.85-12-6.41h.52c-5.9 10.19-14.76 20-13.75 32.58zm-.06-.08c-1.4-12.47 7.47-22.64 13.25-32.84l.23-.37c3 3.61 7.53 5.39 12 6.4s9.2 1.67 12.94 4.52c5.75 4.05 9.05 11 9.48 17.88.1 2.3 0 4.57.08 6.86l-.85-.34c2.31-2.38 5.06-4.13 6.36-7.22 4.52-8.66 6-18.71 5.22-28.4a51.56 51.56 0 00-2.57-12.73c-5.13-16.85-29-24.93-42.55-12.88-6.33-4.11-14.29-4.83-20 .77-7.77 7.7-9.92 19.76-8.49 30.3 1.33 9.08 6.21 17.08 11.09 24.67l1.48 2.3c.39.86 1.61.73 2.32 1.07z"/><path d="M900.84 548.26c25.83 7 17.1 5.27 33.13 3.74 1.72 24.7 6 72.89 4.42 97.61-13.66 3.18-8.07 3.92-20.11.51-1.37-15.03-10.28-39.43-17.44-101.86z" fill="#fdc3af"/><path d="M900.81 548.22c6.48 1.56 14 4.22 20.55 5 4.22 0 8.38-1.12 12.59-1.39h.16v.17c2.24 32.59 5.94 65.23 4.66 98-3.52.77-6.81 1.89-10.35 2.74-1.79.37-3.59-.22-5.29-.68l-5-1.43-.31-.09c-.73-7.49-3.37-18.14-4.94-25.62a672.68 672.68 0 01-12.1-76.64zm.07.08c3.27 25.54 7.41 51.23 13 76.34 1.56 7.43 4.17 17.93 4.88 25.43l-.35-.41 5 1.46c1.66.45 3.3 1 4.89.69 3.29-.78 6.67-1.89 10-2.6l-.31.37c.49-8.11.41-16.26.21-24.4-.67-24.43-2.72-48.79-4.38-73.17l.17.14c-4.23.25-8.39 1.39-12.63 1.32-6.55-.87-14-3.51-20.47-5.17z"/><path d="M920.55 177.27c-5 4.33-14.18 3.18-20.7 2-7.82-4.08-15.66-22.53-15.66-31.2.56-9.31 6-15.94 13.52-28.49 5.56 6.31 14.74 6.42 19.18 8 19.63 6.12 18.56 36.71 3.66 49.69z" fill="#fcc2af"/><path d="M920.58 177.31c-5.83 4.57-14 3.11-20.75 2.06a20.14 20.14 0 01-6.18-5.84 54.67 54.67 0 01-9.65-23.41c-.6-5.75 1.84-11.34 4.54-16.25 2.88-5.12 6.12-10 9.07-15l.38.43c4.56 5.16 11.59 6 18 7.45a20.79 20.79 0 0114.36 13.51 35.91 35.91 0 01-9.78 37.06zm-.06-.08c10.84-9.89 14.34-28.29 6.78-41.06a19.45 19.45 0 00-11.56-8.47c-6.41-1.47-13.75-2.53-18.35-7.85l.68-.07c-4.24 7.29-9.6 14.05-12.37 22.06-3 8.16.6 16.72 4 24.22 2.47 4.93 5.4 10.16 10.23 13.11 6.58 1.05 14.84 2.58 20.62-1.94z"/><path d="M918.28 650.12c11.39 3.22 5.39 2.92 20.11-.51 0 7.67.78 54-7.39 54-2.37 0-3.5-3.64-4-6-10-49.61-8.65-46.13-9.69-42.68-4.88 16.21-12 31.31-22.27 44.83-1.4 1.85-3.85 2.91-5.81 4.34-.28-9.27-2.08-.49 13.3-57.44 4.94 2.75 9.83 5.52 15.75 3.46z" fill="#066395"/><path d="M918.28 650.07c2.53.66 5 1.57 7.49 2.13 2.59.35 5.06-.91 7.56-1.44 1.67-.45 3.35-.86 5-1.26h.14v.15c.06 7 .07 14.06-.14 21.08a183.09 183.09 0 01-1.63 21c-.6 3.48-1.14 7-2.91 10.17-.94 1.76-3.07 2.87-4.71 1.22a10 10 0 01-2.26-4.87c-2.41-11.75-6.72-33.48-9-44.62a.35.35 0 00.21 0c.18-.11.1-.1.11-.07-.11.3-.2.8-.31 1.22a141.69 141.69 0 01-20.42 42.75l-1.57 2.13c-1.68 2.52-4.78 3.69-7 5.48-.07-2.59-.5-5.86 0-8.4 1.45-7.3 3.7-14.35 5.61-21.52l7.91-28.52.08-.28c4.76 2.76 10.27 5.69 15.86 3.67zm0 .1c-5.45 2.12-11.11-.6-15.84-3.22l.33-.15-7.6 28.6c-1.26 4.77-2.54 9.53-3.75 14.31-.82 3.56-2 7.09-1.86 10.75l.19 3.7-.79-.39c2.17-1.58 4.57-2.49 6.07-4.73l1.56-2.11a143.46 143.46 0 0020.46-42.37 12.47 12.47 0 01.36-1.34.61.61 0 01.3-.33.43.43 0 01.28 0 .51.51 0 01.33.25 20 20 0 01.95 3.63c2 10.32 6.09 31.07 8.14 41.37 2.12 8.7 6.29 5.51 7.79-1.33 2-8.53 2.4-17.36 2.79-26.11.26-7 .29-14 .28-21.07l.13.11c-1.68.39-3.36.79-5 1.23-2.51.51-5 1.78-7.63 1.4-2.53-.58-5-1.5-7.46-2.18z"/><path d="M817.93 356.79l8 7.84a160.66 160.66 0 01-23.58 43.81c-2.88-19.75 6.22-35.74 15.58-51.65z" fill="#fdc3af"/><path d="M817.92 356.74l8.11 7.8h.05a159.84 159.84 0 01-23.39 44.1l-.6.82-.15-1c-3.15-18.79 6.1-36.44 16-51.76zm0 .1c-8.8 15.66-18 33-15.17 51.54l-.75-.19a167 167 0 0023.83-43.47l-7.91-7.88z"/><path d="M983.65 351.26l10-5.65c9.39 19.93 15.79 29.86 14.1 44.72-3.62-2.85-1.21.77-23.09-35.74a14.19 14.19 0 01-1.01-3.33z" fill="#fbc3b0"/><path d="M983.6 351.24l10-5.75.13-.07.06.13c6.59 14.26 16.67 29.22 14.34 45.63l-.64-.5c-3.32-2.11-5.11-5.89-7.19-9.11-4-6.57-7.91-13.22-11.75-19.9l-2.87-5a13.09 13.09 0 01-2.07-5.41zm.1 0a13.16 13.16 0 002.32 5.16l3.07 4.9c2 3.26 4 6.56 6.06 9.84s4 6.59 6 9.87 3.65 6.77 6.91 8.93l-.72.3c1-7.87-.76-15.76-3.81-23-2.62-6.37-7-15.25-10-21.59l.2.06-10 5.55z"/><path d="M918.28 650.12c-5.92 2.06-10.81-.71-15.72-3.38 7.05-64.48 3.53-56 10.15-24.57 4.04 19.12 4.45 15.62 5.57 27.95z" fill="#fc9e7e"/><path d="M918.33 650.15c-5.53 2.15-11.16-.65-15.94-3.31 0 0 2.5-25.43 2.49-25.46l1.19-12.68c.33-3.19.54-6.37 1.1-9.54a3 3 0 01.4-1.13c1.09-1 1.39 1.39 1.55 2 1.57 8.37 2.88 16.71 4.69 25 1.65 8.34 4.31 16.49 4.52 25.08zm-.09-.06c-.71-8.47-3.55-16.55-5.33-24.83-1.94-8.27-3.26-16.71-4.67-25a8.62 8.62 0 00-.44-1.61.33.33 0 00.43 0c-.87 3.22-1 6.81-1.41 10.17l-1.31 12.67c-1 8.17-1.69 17.65-2.87 25.16 4.66 2.7 10.16 5.45 15.6 3.49z"/><path d="M934 552l8.47-3c-5.63 58.19-3.92 68.87-8.47 3z" fill="#fca080"/><path d="M933.92 552l8.48-3.13.18-.07v.19c-1 11.25-2 23.77-2.87 35.1-.42 4.27-.53 8.6-1.36 12.85a1.26 1.26 0 01-.24.5.54.54 0 01-.81 0 3.67 3.67 0 01-.46-1.46c-.46-2.93-.67-5.86-.91-8.8-.9-11.74-1.53-23.39-2-35.19zm.09 0c1.16 11.18 2.07 23.77 2.89 35.07.28 2.51.42 7.28 1 9.69 0 0 .05.08 0 0h-.07a.39.39 0 00-.44 0c.94-4.09 1.07-8.56 1.55-12.81 1-11.33 2.16-23.81 3.34-35.06l.16.12L934 552z"/><path d="M916.94 179.31a18.47 18.47 0 01-4.55.93c3.61-.38 4.61-1.24 4.55-.93z" fill="#fca080"/><path d="M421.1 499.38l4.77 13.42c-4.53-1.15-4.55-1.13-3.47 3.4.89 3.72-4 2.47 1.11 12.38-10.69-3.84-9.63.42-2.41-29.2z" fill="#015e91"/><path d="M421.1 499.33l5 13.4.14.37c-4.17-.88-4.81-1.8-3.53 3a4.26 4.26 0 01.09 1.42c-.21 1.31-1.29 2.34-1.28 3.65 0 2.9 1.59 5.55 2.83 8.11-2.37-.92-4.87-1.39-7.21-2.45s-2.17-4.2-1.74-6.36c1.51-7.08 3.7-14.22 5.73-21.15zm0 .1c-.87 4.86-2.65 12.13-3.8 17-.5 2.62-1.66 5.72-1 8.28.38 1.14 1.87 1.61 3.19 2.08s2.77.9 4.15 1.41l-.5.57c-1.11-2.39-2.43-4.9-2.32-7.64a5.75 5.75 0 01.92-2.57c1-1.56 0-3.24-.16-4.91-.5-2.88 2.87-1.34 4.33-1l-.25.27-4.56-13.44z"/><path d="M425.87 512.8c-5.49-15.47-4.54-12-5.63-18.69 1.81-2.7.23-5.29 8.75 19.5.11 4.05.69 3.91-3.12-.81zm53.61 11.42c-1.31-3.93 4.13-14.76 11.25-22.37-4.49 13.54-2.07 8.55-11.25 22.37zm97.03-22.49c-6.57 17.65-5 16-7.25 11.88 5-13.94 3.36-11.27 7.23-12.65z" fill="#023b6d"/><path d="M579 105.78c-5.91 4.54-5.22 4.68-6.6 3.07 6.72-6.36 5.35-5.85 6.6-3.07z" fill="#664333"/><path d="M579.08 105.79c-1.17 1-3.61 3.24-4.84 4.06a1.11 1.11 0 01-1.32 0c-.44-.37-.65-.7-1-1l.27-.26c1.83-1.74 3.27-3.86 5.54-5.09a.71.71 0 01.58.05c.37.27.39.65.5 1l.28 1.24zm-.1 0c-.39-.41-.62-1.27-1-1.64v.06c-1.75 1.6-3.07 3.08-5.28 4.93v-.52a7.74 7.74 0 00.62.75.25.25 0 00.23.1 8.62 8.62 0 002-1.28c1-.72 2.37-1.73 3.36-2.4z"/><path d="M579.61 106.68l-.66-1z" fill="#664333"/><path d="M579.57 106.71a10.2 10.2 0 01-1-.76l.66-.46c.5.2.54.65.37 1.16l-.08.06zm0 0c-.54 0-.94-.23-1-.76l.15-1.76a20.65 20.65 0 01.88 2.46l-.08.06z"/><path d="M460.06 369.14l27.62 7.69c1.09-9.25.47-8.92 2.75-8.73-.6 6.5-1.91 8.93 2.37 9.46 18.59 2.3 14 4.25 18.37-6.26.45-1.09 1.57-1.91 2.39-2.85 1.25 1.19 1.07.27-3.15 12.32l26.24-2.28c-17.22 7.39-62.95 2.02-76.59-9.35zm-6.62-2.99C442.66 402.9 441.08 409 419.84 411c6.55-5.82 16.33-5.69 19.78-13.53 7.48-17.02 4.51-21.83 13.82-31.32zm36.15 16.67c1.47 4.76.34 16.95-.17 20.53-.95 6.54 2.7 6.51 9.66 14-14.63-4.94-13.7-9.27-13.25-30.19 0-1.32 2-2.92 2.27-4.24zm13.55 71.6l-2.31-.78c-1-13.16 1.72-12.39-10.64-32.07 9.65 3.6 16.09 20.79 12.95 32.85zm55.2-66.22c-.66-.35-1.81-.59-1.92-1.07-6.25-26.69-5.25-22.68-4.2-27 2.83-.21 5.89 26.16 6.12 28.07zm3.18 7.07c-3.61-1.78-3.27-1-2-3.16 10.44 0 4.46.33 27.87-1.71-7.64 5.75-16.81 5.03-25.87 4.87zM444.25 538.85l-8.88-16.76c5.72 1.72 9.89 9.8 8.88 16.76zm20.96.57c-1.5-7.44 1.25-14.72 6.49-17.29zm36.28-133.62c0-21-.48-20.95 1.14-21 0 21.05.48 20.97-1.14 21zm59.32 113.37c3.37.17 2.76-.77 2.24 4.67-1.65 9-.89 6.52-3.12 8.68-1-4.93-1.14-2.03.88-13.35z" fill="#023b6d"/><path d="M560.77 519.13h1.8c.27 0 .66 0 .89.31a1.92 1.92 0 01.13.93c-.14 2.46-.64 5.85-1.05 8.26-.22 1-.19 2.21-1 3a24.34 24.34 0 00-1.91 1.74c-.25-1.41-.71-2.64-.93-4.14-.08-2.88 1-5.68 1.56-8.47l.47-1.65zm.07.08c-.1 3.27-1 6.73-1.08 9.94.11 1 .43 2.17.6 3.28l-.73-.23c.5-.55 1.3-.84 1.67-1.48.53-1.38 1.16-5.41 1.52-6.92.06-1.31.63-2.92.43-4.26-.46-.46-1.77-.17-2.41-.33z"/><path d="M513 504.05c4.92 2.88 6.11 8.09 7.36 13.28-8.78-12.5-9.24-11.96-7.36-13.28zm43.25 108.86c6.24-17.14 5.56-17.23 7.69-16.47-6.19 17.17-5.48 17.26-7.69 16.47zm-29.04-89.77c4.41 1.12 5.83 4.87 4.32 10.37z" fill="#023b6d"/><path d="M444.77 630.9l-1.17-.46z" fill="#0d6598"/><path d="M444.75 631a11.23 11.23 0 01-1.3-.14l.3-.75c.55-.09.86.26 1 .79v.1zm0 0c-.5.26-1 .3-1.3-.14l-.95-1.58 1.25.83a12.94 12.94 0 011 .79v.1z"/><path d="M439.89 336.11c2.88-12.69.55-4.16 6.86-18.28 1.74-3.91-13-6.13-7.89-33.53.89-4.79 2.57-9.28 7.57-12.34a45.29 45.29 0 01-1.16 6.31c-8.09 24.8 2.15 39.21 18.67 42.32 14.47 2.72 30.7-8.58 49.89-2.49 2.43.77 4.67 1.7 4.2 4.45-7.72-.47-15.08-1.27-22.43-1.25-17.49.05-31.21 4.94-45-3.08-.34 8.39-5.37 13.24-10.71 17.89zm123.7-12.64c4.54 12.93 6.8 18.71-7.11-2.42-5.87 1.69-12.09 3.77-18.32.66-2.21-8.72 47.47 9.41 17.51-54.83-5-10.77 28.81 22.94 8.51 47.74-2.76 3.38-3.03 5.72-.59 8.85z" fill="#e7a215"/><path d="M528.43 217.15c-24.12 9-28.55 13.06-40.83 8-21-8.72-13.62-2.57-27-15.9a40.57 40.57 0 00-10.16-21.69c-5.9-6.42-4-19.59 7.59-14.47 1.1-4 2.71-7.92 3.15-11.92 2.28-20.69 19.57-28.52 34.61-28.39 22.88.2 37.34 10.18 42.84 32.4 1.06 4.27-.25 8.35 6.32 7.8 11.4-1 10.48 17.83-2.14 21.78-8.53 2.62-2.71 14.82-14.38 22.39z" fill="#cc846f"/><path d="M528.45 217.2c-5.85 2.18-11.62 4.54-17.44 6.8-5.42 2-11.2 4.19-17.08 3.15a53.68 53.68 0 01-10-3.37c-4.33-1.83-8.89-3-13.16-4.92-4-2.48-6.93-6.32-10.37-9.49a48.06 48.06 0 00-3.57-11.77 39.24 39.24 0 00-6.8-10.07 13 13 0 01-2.83-5.54c-1.07-3.9.12-9.57 4.78-10.3a11.08 11.08 0 016.15 1.05l-.46.22c1.05-3.87 2.57-7.59 3.07-11.49a36.41 36.41 0 013.26-11.59c3.48-7.35 10.29-12.77 17.92-15.35 6.68-2.37 13.89-2.62 20.88-1.85 13 1 25.91 8.12 31.78 20.16a51.09 51.09 0 014.24 11.27c.64 1.92.64 4 1.07 5.87a3.05 3.05 0 001.47 2.11c1.73.91 3.83.22 5.76.55 3.21.39 5.57 3.34 6 6.41 1.11 7.22-4 14.32-11 16.13-2.9 1.12-4 4.21-4.7 7-1.24 5.93-3.51 11.75-9 15zm-.05-.09c5.36-3.27 7.58-9.09 8.73-15 .66-2.85 1.85-6.15 4.84-7.31 6.69-1.8 11.64-8.75 10.48-15.67a6.6 6.6 0 00-5.46-5.78c-2-.28-4.1.43-6-.57-3-1.73-1.92-5.8-3-8.46a57.07 57.07 0 00-3-8.38c-4.89-12.07-16.52-20.28-29.35-21.91-7.79-1.25-15.94-1.3-23.42 1.3s-14.11 7.71-17.53 14.87a35.24 35.24 0 00-3.18 11.34c-.54 4-2.1 7.76-3.14 11.58l-.1.37a11 11 0 00-6.12-1.19c-4.3.7-5.26 5.91-4.31 9.53a12.19 12.19 0 002.68 5.3 40.27 40.27 0 016.84 10.22 41.55 41.55 0 013.4 11.65c3.38 3.16 6.29 7 10.22 9.49 4.21 2 8.8 3.16 13.08 5 3.26 1.31 6.45 2.8 9.91 3.42 5.84 1.05 11.57-1.08 17-3.1 5.82-2.23 11.6-4.58 17.44-6.74z"/><path d="M518.11 110.6c7.18-10.67 21.17-14.59 22.71-4.9 1.49 9.3-5.29 19.37 6.89 22.15 4.58 1.05 10.78 2.46 14.1 5.79 4.25 4.28 2.93 10.64-2.81 13.26-11.18 5.1-15.32 6.78-19.59 2.38-2.15-6.18-6.68-18.66-13.45-22.44-18-10.07-38.87-11.17-56.17 3.23-2.84 2.36-4.89 5.66-7.37 8.61 4.52-19.53 26.92-36.93 54.11-27 4 4.55 9.24 7.1 14.67 9.54-1.34-4.3-1.3-3.49-13.09-10.62zm18.55 11.53c-1.37 1-3.83 1.92-4.13 3.28-.53 2.39-.44 5.5 3 6.21z" fill="#f9bf3f"/><path d="M518.06 110.61c3.77-5.5 9.71-10.4 16.63-10.54a6.09 6.09 0 015.58 3.39c1.75 4.28.56 9 .25 13.47-.6 4.92.74 9 5.93 10.38 4.32 1.12 8.89 1.9 12.88 4.19 7.33 3.94 6.79 13.07-1.06 16-2.06.93-4.11 1.87-6.22 2.72-3.09 1.18-6.74 2.69-10 1.28a8.58 8.58 0 01-2.89-2.15c-2.76-7.47-5.56-15.67-11.66-21a47.26 47.26 0 00-10.89-5.35c-15.44-5.92-33-3.78-45.79 6.93-3.74 2.8-6.15 7.17-9.36 10.67a39.86 39.86 0 0121.61-28.08c10.41-5.19 23-5.22 33.69-1 3.83 4.48 9.25 7.13 14.53 9.55l-.29.26a7.1 7.1 0 00-1.94-3.7c-3.27-2.58-7.52-4.68-11-7zm.09 0l7.49 4.34c1.8 1.14 4 2.12 5 4.17a24.24 24.24 0 01.91 2.5l-.43-.18c-5.18-2.22-11.42-5.41-14.7-9.45a45.31 45.31 0 00-16.65-2.77 39.66 39.66 0 00-29.38 14.61 37.48 37.48 0 00-7.49 15l-.86-.43c2.63-3.1 4.81-6.77 8.16-9.23 15.2-12.48 35.12-13 52.35-4.47l2.74 1.42c4.71 2.36 7.53 7.21 9.81 11.7a96 96 0 014.6 11.4c1.06 1.09 3.56 2.67 5.73 2.31 4.43-.53 8.57-2.76 12.57-4.53a9.74 9.74 0 005-4.08c2.45-4 0-9-4-11.06-3.89-2.26-8.39-3.06-12.77-4.21-5.38-1.47-6.75-5.7-6.12-10.78.33-4.4 1.54-9.09-.16-13.33-2.12-4.55-8.13-3.6-11.85-1.74a26.25 26.25 0 00-10.05 8.76z"/><path d="M536.64 122.17c-1.16 1.1-3.33 1.66-3.88 3.3-.54 2.44 0 5.34 2.91 5.7l-.55.4a83.83 83.83 0 011.52-9.4zm.05-.08a70.71 70.71 0 01-.74 10.09c-3.6-.56-4.53-3.64-3.66-6.81.75-1.85 2.87-2.22 4.4-3.28z"/><path d="M518.11 110.6c11.9 7.19 11.78 6.41 13.09 10.62-5.43-2.44-10.7-5-14.67-9.54z" fill="#e7a215"/><path d="M518.1 110.55l7.59 4.29c1.82 1.14 4.09 2.13 5.1 4.19.44.94.71 1.93 1.05 2.89l-.79-.35c-5.51-2.29-11.18-5-14.82-9.94.63-.38 1.28-.76 1.87-1.08zm0 .1l-1.47 1.2v-.3a42.22 42.22 0 0010.73 7.39c1.3.67 2.62 1.31 4 1.94l-.52.46a7 7 0 00-1.84-3.64 29 29 0 00-3.52-2.45l-7.33-4.6z"/><path d="M587.64 370.05l-.84-1.64z" fill="#015e91"/><path d="M587.6 370.07c-.41-.48-.8-1-1.16-1.48l.71-.36a1.73 1.73 0 01.54 1.8h-.09zm0 0a1.72 1.72 0 01-1.16-1.48v-2.42l.71 2.06q.3.87.54 1.8h-.09z"/><path d="M536.66 122.13l-1.09 9.49c-3.48-.71-3.57-3.82-3-6.21.26-1.36 2.72-2.26 4.09-3.28z" fill="#e7a215"/><path d="M536.69 122.09c-.31 3.27-.48 6.62-.8 9.94-3.55-.35-4.72-3.59-3.84-6.72.76-2 3-2.3 4.64-3.22zm-.05.08c-1 1.21-3.09 1.82-3.64 3.35-.5 2.41-.21 5.21 2.65 5.76l-.42.3c.43-3.13 1-6.23 1.41-9.41z"/><path d="M532.43 535.3c-4 6.73-6.07 6.17-11.35 8.23-12.53 4.88-16 21.33-9.9 28.16 4.25 4.73 15.68 4.61 18.09 3.46 1.69-.81 2.36-1.89 9.82-10.72 34.57-40.9 42.09-41.62 26.08-63.38-.74-1-19.56 12.51-21.26 13.93-5.91 4.96-7.48 13.64-11.48 20.32zM415.2 520.67c-1.74 12.54-3.59 19.38.33 22.92 3.33 3 8.94 1.19 11.82-2.23s4-7.93 6-12c9-18.65 32.17-23.92 46-38.33 6-6.28 7.81-18.82 11.82-23.2 3.18-3.48 15-5.71 12.41-12.53-1.35-3.57-6.36-3.68-9.45-5.91 1.74-.75.67-3.75-1.2-4.05-5.06-.8-9.22 5.76-28.92 22.38-18.48 15.62-45.5 29.04-48.81 52.95zm173.17-147.92c1.16 9.88-12.33 14.38-17.49 18-11 7.66-16.75 24.37-25.91 24.66-7.1.22-19.31-14.43-14.84-19.71 2.58-3.05 6.83-4 10.29-6 10.11-5.83 12.45-19.77 38.72-28.31 2.59-.84 2.35-1.12 3.89 1.28 2.02 3.16 4.89 6.23 5.34 10.08zm-174.5 39.42c15.25-18.5 16.56-16 23.62-23.21 5.07-5.18 7.72-11.16 17.05-17.46 12-8.09 6.72-14.19-6-17.56-4.69-1.24-10.17 11.18-21.93 18.11-7.2 4.25-6.33 3.1-13.15 16-7.8 14.74-3.36 29.42 2.44 24.22a5.53 5.53 0 001.63-4.21zm54.93 192.02c-7.29-1.68-11.7 2.23-16 7.46-4.05 4.93-8.29 10.29-8.85 16.65-.38 4.38 2.48 3.46 7.31 3.49 19.11.13 37.64-22.96 17.54-27.6z" fill="#015e91"/><path d="M579.39 107.05c1.55 3.86.93 5.39-1.47 8-17.46 18.84-13.36 17.84-27.83 13.34-5.53-1.72-9.15-37.7 22.85-30.31 3.23.73 5.33 6.16 6.45 8.97zM539.77 153c-6 2.93-8.55-11.59-11.33-14.89-3.28-3.91 2.47-6.87 4.47-4.23 3.81 5.04 8.2 18.49 6.86 19.12z" fill="#664333"/><path d="M539.79 153.07c-5.9 2.57-8.64-10.11-10.93-13.7a10.17 10.17 0 00-.87-1.27c-2.38-2.75.41-6.29 3.71-5.51 1.19.27 1.89 1.39 2.51 2.34a44.75 44.75 0 015.6 15 12 12 0 01.27 2.39.92.92 0 01-.29.77zm0-.09c.33-.35.16-1 .13-1.47-.65-3.64-2.26-7-3.69-10.43a48.35 48.35 0 00-2.82-5.62c-.51-.79-.94-1.73-1.91-2a3.09 3.09 0 00-2.64.54 2.49 2.49 0 00-.28 3.7 10 10 0 01.89 1.37c2.25 3.54 4.49 16.52 10.32 13.92z"/><path d="M468.86 217.37c2.22 3.68-2.39 5.74-4.45 8.14-1.46 1.7-2.74 5.3-7.66 3.81-2.24-.68-11.63-7.69-7.77-13.57 1.31-2 3.65-3 5.14-4.87.89-1.09 2-3.7 5.57-3.17.63.09.63.43 1 1 2.01 3.37 6.09 5.23 8.17 8.66zM452.38 89.16c-19.36 5.16-28.56 24.45-26.89 25.09 11.87 2.61 5.79 3.37 27.58-4.41L464 89.78z" fill="#664333"/><path d="M542.64 243c22.4 4.62 43.08 17.62 50.54 40.2a70.24 70.24 0 013.71 22.17 91.23 91.23 0 00-4.65-21.83c-8-23.12-27-34.89-49.6-40.54zm-86.1 4.94c-18.72 7.85-32.3 22.87-39.14 41.86a134.38 134.38 0 00-5.53 18.9 85.07 85.07 0 014.6-19.25c6.56-18.68 21.59-34.7 40.07-41.51z"/></svg>