<svg xmlns="http://www.w3.org/2000/svg" viewBox="0 0 1400 780"><path fill="#fcc2af" d="M0 0h1400v780H0z"/><path d="M901.87 218.8l-15.74 26.69c-3.86-8.05-9.17-20-15.11-26.65 8.68-9.63 6.63-5 8.22-20.9 2.64.49 8.51 1.45 11.13.87 5.18-.45 4.34-2.77 3.17 4.69.73 6.22 4.8 10.61 8.33 15.3z" fill="#fbc0ad" stroke="#000" stroke-linecap="round" stroke-miterlimit="10" stroke-width=".75"/><path d="M904.62 297.9c12.49 18.82 25 37.27 28.89 67.46 6.45 50.64-4.69 98.8-8.94 125.32-5.7 35.52-3.49 25.74-7.55 35.17-18.48 6.64-20.85 3.75-36.9-.61-2-3.73-4.61-7.26-6-11.22-47.67-134.34-30.53-171.56-7.86-214.32 21.4 9.57 23.84 5.4 38.36-1.8z" fill="#fcbf33" stroke="#000" stroke-linecap="round" stroke-miterlimit="10" stroke-width=".75"/><path d="M962.45 345.49l-8.88 5c-4.88 2.18-4.43.89-21.64-41.84-10.64-26.41-16.58-42.61-17.73-44.33l-9.58 33.57c-5.94 3-18.75 13.59-37.21 2.31-3.25-2-4.64-6.79-12.59-38.17-8.48 24-20.89 56.59-27.2 72.92-10.82 28-10.71 24.24-13.93 27.4l-7.11-6.95C843.85 226.69 851.29 224 871 218.84c5.94 6.67 11.25 18.6 15.11 26.65l15.74-26.69c22-.8 29.77 45.27 59.4 121.72a37.08 37.08 0 011.2 4.97z" fill="#8ad8e5" stroke="#000" stroke-linecap="round" stroke-miterlimit="10" stroke-width=".75"/><path d="M865.37 174c-.68-.24-1.69-.27-2-.75-5-7.82-10.31-15.49-11.51-25.13-2.09-16.91 8.4-37.37 25.51-26.89 9.62-8.34 24.81-6.26 34 4.12 6.29 7.08 10.42 28.75 1.34 45.21-1.2 2.17-3.48 3.74-5.26 5.58 0-1.85.06-3.71 0-5.57-.48-9.41-6.27-17-14.66-19-5.63-1.28-11.41-2-15.47-6.63-7.92 13.26-12.67 18.56-11.95 29.06z" fill="#032846" stroke="#000" stroke-linecap="round" stroke-miterlimit="10" stroke-width=".75"/><path d="M880.12 525.24c22.91 6.23 15.17 4.67 29.38 3.31 1.53 21.91 5.34 64.66 3.93 86.58-12.12 2.82-7.16 3.48-17.84.45-1.22-13.33-9.12-34.97-15.47-90.34z" fill="#fbc1ae" stroke="#000" stroke-linecap="round" stroke-miterlimit="10" stroke-width=".75"/><path d="M897.6 196.18c-4.43 3.82-12.6 2.82-18.36 1.76-6.93-3.62-13.89-20-13.89-27.67.5-8.26 5.32-14.14 12-25.27 4.94 5.59 13.08 5.69 17 7.06 17.42 5.47 16.47 32.61 3.25 44.12z" fill="#fbc0ad" stroke="#000" stroke-linecap="round" stroke-miterlimit="10" stroke-width=".75"/><path d="M895.59 615.58c10.1 2.86 4.78 2.59 17.84-.45 0 6.81.69 47.94-6.55 48-2.11 0-3.12-3.24-3.53-5.3-8.88-44-7.67-40.92-8.59-37.86-4.2 13.94-13.13 35.05-24.91 43.61-.25-8.22-1.85-.43 11.8-50.94 4.35 2.36 8.69 4.77 13.94 2.94z" fill="#0f6393" stroke="#000" stroke-linecap="round" stroke-miterlimit="10" stroke-width=".75"/><path d="M806.58 355.41l7.11 6.95a142.46 142.46 0 01-20.92 38.86c-2.56-17.52 5.51-31.7 13.81-45.81z" fill="#fbc1ae" stroke="#000" stroke-linecap="round" stroke-miterlimit="10" stroke-width=".75"/><path d="M953.57 350.5l8.88-5c8.33 17.67 14 26.48 12.51 39.67-3.21-2.53-1.08.68-20.48-31.7a13.42 13.42 0 01-.91-2.97z" fill="#f9c1ae" stroke="#000" stroke-linecap="round" stroke-miterlimit="10" stroke-width=".75"/><path d="M895.59 615.58c-5.25 1.83-9.59-.62-13.94-3 6.25-57.2 3.13-49.66 9-21.8 3.58 16.98 3.94 13.86 4.94 24.8z" fill="#fa9c7d" stroke="#000" stroke-linecap="round" stroke-miterlimit="10" stroke-width=".75"/><path d="M909.5 528.55l7.52-2.7c-4.97 51.66-3.45 61.15-7.52 2.7z" fill="#fa9e80" stroke="#000" stroke-linecap="round" stroke-miterlimit="10" stroke-width=".75"/><path d="M894.4 198a16.28 16.28 0 01-4 .82c3.17-.34 4.04-1.08 4-.82z" fill="#fa9e80"/><path d="M491.63 153.69c17.37-30.32 63.16-16.42 73.9 12 30.78-7.22 22.57-15.93-1.9-25.26 2.13-26.12-6.28-28-22.42-12-25.21-6.32-39.79 3.15-49.58 25.26zm-36 12.95c-9.93-31.87.53-49.81 24.64-58.42 28.36-16.71 52.62-18.68 73.59-8.85 30-1.17 43.75 12.29 48.93 33.48 14.77 30.69 15.36 56.7-8.84 74.52-4.74 22.74-21.13 33.22-40.09 32.84a48.47 48.47 0 01-2.54-10.1l11-21.79c15.46-11.6 17-19.31 0-21.79-7-47.68-67.58-53.37-76.74 0-15-.86-9.47 9.4 0 21.79 2.51 10.2 7.29 17.39 14.21 21.79 1.07 5.11.7 9.37-.82 12.95-24.44 6.41-36.83-3.47-37.39-29.37-13.28-11.08-14.41-27.12-5.95-47.05z" fill="#664333"/><path d="M515.92 380.62a77.09 77.09 0 0017.73 1.38l4.16-12.45c17.46-1.73 33.09-9.77 55.19-22.38 17.57 13.45 20.82 68.7 14.77 109.58-2.28 15.45-5.89 28.85-10.56 37.16 11.68 39 10.78 77.7-15.16 115.79-2.1-2.76-23 3.91-36.21-1.05-15.73-44.82-22.63-83.88-11.15-110.95-4.48-7.75-6.2-22.32-7.16-38.74 3-14.1-6.32-32.63-6.32-32.63v-10.96c-10.52-5.66-5.87-23.39-6.24-30z" fill="#0d5e90"/><path d="M633.11 409.48c12.15 24.34-13.47 57.16-18 57.16s-7.34-9.9-7.34-9.9c6.05-40.88 2.8-96.13-14.77-109.58a103.9 103.9 0 01-7.58-21.37c9.74-10.38 20.1-16.47 31.58-14.84 0 0 3.4 21.51 4.74 21.48 17.1 20.57 18.95 54 11.37 77.05z" fill="#cc8571"/><path d="M536.16 659.58c-1-2.31 6.45-19.26 7.58-17.89 12.08 11.41 24.37 11 36.84 0 2.15 0 8.45 13.84 6.3 17.68-2.65 4.72-25.83 28.69-28.21 27-1.88 2.74-21.09-23.62-22.51-26.79z" fill="#0d6094"/><path d="M447.94 474.93c-9.63-51.36-9.94-96.42 14.11-125C484.36 360 501.2 366 515.48 368.5v12a3.43 3.43 0 00.44.09l-.95 4.76c.37 6.6-4.28 24.33 6.24 30v10.95s9.28 18.53 6.32 32.63c-3.45 18.28-7.67 34.17-13.9 43.79 7 38 5.63 74.39-10.31 108-12 4.51-24.72 5-37.9 2.32-17-44.12-26-85.9-14.1-121.48q-1.83-8.39-3.38-16.63z" fill="#0d5e90"/><path d="M515.48 368.5a80.51 80.51 0 0022.33 1l-4.16 12.5a77.09 77.09 0 01-17.73-1.37 3.43 3.43 0 01-.44-.09z" fill="#0d5e90"/><path d="M485.63 208.32c-9.47-12.39-15-22.65 0-21.79 9.16-53.37 69.79-47.68 76.74 0 17 2.48 15.46 10.19 0 21.79l-11 21.79c-17.57 10.27-34.75 10.79-51.48 0-6.97-4.4-11.75-11.59-14.26-21.79z" fill="#cb836f"/><path d="M466.48 644.85q-1.59-11.07-1.06-31.79c13.18 2.64 25.86 2.19 37.9-2.32 3.74 9.82 3.5 20.15.21 30.87-9 14.68-21.44 15.39-37.05 3.24z" fill="#ca8470"/><path d="M565.53 251.27c-24.31 30.87-52.11 27.13-81.79 4.74 7.27-3 12.81-7.08 15.28-12.95 1.52-3.58 1.89-7.84.82-12.95 16.73 10.79 33.91 10.27 51.48 0a48.47 48.47 0 002.54 10.1c2.68 6.91 6.71 10.22 11.67 11.06z" fill="#cb836f"/><path d="M462.05 349.9c-24.05 28.61-23.74 73.67-14.11 125-15.81-9.88-23.27-25.36-19.15-48.61-6.45-33.09-5.82-62.93 9.57-86-.24-10.6 1.39-19.69 6.22-26.21 11.51 3.17 20.42 9 25.9 18.32-1.65 7.46-4.08 13.81-8.43 17.5z" fill="#cc8571"/><path d="M463.53 665.9l3-21c15.61 12.15 28 11.44 37-3.24a27.09 27.09 0 018.47 18.77c-3.77 10.72-9.61 20.15-21.05 26.1-12.06-3.41-20.8-10.74-27.42-20.63z" fill="#0d6094"/><path d="M470.48 332.43c-5.48-9.32-14.39-15.15-25.9-18.32-1.84-27.4 16.27-44 39.16-58.1 29.68 22.39 57.48 26.13 81.79-4.74 35.27 9.67 50 31 51.47 59.68-11.48-1.63-21.84 4.46-31.58 14.84a103.9 103.9 0 007.58 21.37c-22.1 12.61-37.73 20.65-55.19 22.38a80.51 80.51 0 01-22.33-1C501.2 366 484.36 360 462.05 349.9c4.35-3.69 6.78-10.04 8.43-17.47z" fill="#fcc341"/><path d="M543.74 641.69c-.67-12.87-.45-24.54 2.1-33.05 13.25 5 34.11-1.71 36.21 1.05s3.4 31-1.45 32c-12.49 11.05-24.78 11.41-36.86 0z" fill="#ca8470"/><path d="M565.53 165.69c-10.74-28.42-56.53-42.32-73.9-12 9.79-22.11 24.32-31.58 49.58-25.26 16.14-16 24.55-14.12 22.42 12 24.47 9.33 32.68 18.04 1.9 25.26z" fill="#f8be40"/><path d="M580.58 641.69c-12.47 11-24.76 11.41-36.84 0-1.13-1.37-8.62 15.58-7.58 17.89 1.42 3.17 20.63 29.53 22.53 26.74 2.38 1.74 25.56-22.23 28.21-27 2.15-3.84-4.15-17.68-6.3-17.68" fill="none" stroke="#000" stroke-miterlimit="10"/><path d="M543.74 641.69c-.67-12.87-.45-24.54 2.1-33.05 13.25 5 34.11-1.71 36.21 1.05s3.4 31-1.45 32h0" fill="none" stroke="#000" stroke-miterlimit="10"/><path d="M582.05 609.69C608 571.6 608.89 532.9 597.21 493.9c4.67-8.31 8.28-21.71 10.56-37.16 6.05-40.88 2.8-96.13-14.77-109.58-22.1 12.61-37.73 20.65-55.19 22.38a80.51 80.51 0 01-22.33-1C501.2 366 484.36 360 462.05 349.9c-24.05 28.61-23.74 73.67-14.11 125q1.55 8.22 3.38 16.65c-11.93 35.58-2.89 77.36 14.1 121.48 13.18 2.64 25.86 2.19 37.9-2.32 15.94-33.61 17.26-70 10.31-108 6.23-9.62 10.45-25.51 13.9-43.79 1 16.42 2.68 31 7.16 38.74-11.48 27.07-4.58 66.13 11.15 111M450.9 409.48s19.61-6.94 25.26-29.05m98.95-14.32s-4.63 23.41 26.94 25.81" fill="none" stroke="#000" stroke-miterlimit="10"/><path d="M514.9 384.64c0 .23.05.48.07.74.37 6.6-4.28 24.33 6.24 30m0 10.94s9.28 18.53 6.32 32.63m-41.26-89.89a94.38 94.38 0 0029.21 11.47 3.43 3.43 0 00.44.09 77.09 77.09 0 0017.73 1.38c13.45-.51 25.73-4.41 37.25-9.23" fill="none" stroke="#000" stroke-miterlimit="10"/><path fill="none" stroke="#000" stroke-miterlimit="10" d="M537.81 369.54l-4.16 12.45-.02.06m-18.15-13.55v12.03m12.63 4.11v20M593 347.16a103.9 103.9 0 01-7.58-21.37c9.74-10.38 20.1-16.47 31.58-14.84-1.5-28.72-16.2-50-51.47-59.68-24.31 30.87-52.11 27.13-81.79 4.74-22.89 14.06-41 30.7-39.16 58.1 11.51 3.17 20.42 9 25.9 18.32-1.65 7.43-4.08 13.78-8.43 17.47"/><path d="M474.58 280.32c-7 20.23-4.24 31.79 3.4 38.25 14.44 12.18 46.3 6.17 62.92 6m37.26-50.88q15.66 33.38 2.75 44.86-6.09 5.43-18.54 6" fill="none" stroke="#000" stroke-miterlimit="10"/><path d="M470.48 332.43a13.4 13.4 0 007.5-13.86v0m102.93-.02l4.51 7.24M617 311s3.4 21.51 4.74 21.48c17.1 20.52 19 54 11.37 77.05 12.15 24.34-13.47 57.16-18 57.16s-7.34-9.9-7.34-9.9m-159.83 18.14c-15.81-9.88-23.27-25.36-19.15-48.61-6.45-33.09-5.82-62.93 9.57-86-.24-10.6 1.39-19.69 6.22-26.21M483.74 256c7.27-3 12.81-7.08 15.28-12.95 1.52-3.58 1.89-7.84.82-12.95 16.73 10.79 33.91 10.27 51.48 0a48.47 48.47 0 002.54 10.1c2.68 6.91 6.71 10.22 11.67 11.06" fill="none" stroke="#000" stroke-miterlimit="10"/><path d="M551.32 230.11l11-21.79c15.46-11.6 17-19.31 0-21.79-7-47.68-67.58-53.37-76.74 0-15-.86-9.47 9.4 0 21.79 2.51 10.2 7.29 17.39 14.21 21.79" fill="none" stroke="#000" stroke-miterlimit="10"/><path d="M553.86 240.21c19 .38 35.35-10.1 40.09-32.84 24.2-17.82 23.61-43.83 8.84-74.52-5.18-21.19-18.94-34.65-48.93-33.48-21-9.83-45.23-7.86-73.59 8.85-24.11 8.61-34.57 26.55-24.64 58.42-8.46 19.93-7.33 36 6 47.05.56 25.9 12.95 35.78 37.39 29.37h0" fill="none" stroke="#000" stroke-miterlimit="10"/><path d="M565.53 165.69c-10.74-28.42-56.53-42.32-73.9-12 9.79-22.11 24.32-31.58 49.58-25.26 16.14-16 24.55-14.12 22.42 12 24.47 9.33 32.68 18.04 1.9 25.26zm-99.05 479.16l-3 21c6.62 9.89 15.36 17.22 27.37 20.63 11.44-5.95 17.28-15.38 21.05-26.1a27.09 27.09 0 00-8.42-18.82c-8.95 14.73-21.39 15.44-37 3.29zm36.84-34.11c3.74 9.82 3.5 20.15.21 30.87m-38.11-28.55q-.53 20.7 1.06 31.79" fill="none" stroke="#000" stroke-miterlimit="10"/></svg>
