<svg xmlns="http://www.w3.org/2000/svg" viewBox="0 0 700 700"><path fill="#fcc2af" stroke="#000" stroke-miterlimit="10" stroke-width=".67" d="M0 0h700v700H0z"/><path d="M504.88 184l-15.74 26.69c-3.86-8.06-9.16-20-15.11-26.66 8.68-9.62 6.63-5 8.23-20.89 2.63.48 8.51 1.45 11.12.87 5.18-.46 4.34-2.78 3.18 4.69.72 6.2 4.79 10.59 8.32 15.3z" fill="#fcc2af"/><path d="M504.93 184l-15.6 26.8-.21.36c-4.56-9.24-8.61-19-15.35-26.89l-.21-.24.21-.23c1.91-2.21 4.08-4.24 5.85-6.53s1.33-5.48 1.68-8.31c.16-2.12.36-4.23.56-6.34 3.75.6 7.65 1.46 11.43 1 1.35-.05 2.55-.5 3.89-.67a.65.65 0 01.56.37 1.57 1.57 0 010 .79c-.28 1.44-.69 3.48-.89 4.57.57 6 4.67 10.65 8 15.34zm-.09 0c-3.65-4.52-7.93-9.28-8.63-15.3.2-1.67.7-3.46.84-5.09 0 0 .13.1.08.09a24.47 24.47 0 01-6.55.91 59.14 59.14 0 01-8.4-1l.52-.39c-.47 3.94-.49 7.8-1.18 11.74-.37 2-1.84 3.64-3.2 5.07s-2.7 2.84-4 4.28v-.47a68.64 68.64 0 018.35 12.95c2.38 4.55 4.51 9.21 6.69 13.84H489L504.84 184z"/><path d="M141 488.39c0-5.51-.44-9 1.06-7.56 2.55 2.42 2.31 3.9 3-.76 1-7.15 9.29.31 6.15-6.42 4-1.1 6.54-3.23 7.4-4.57s-4-6.1-3.87-7.33c3.84 2.32 5.45 5.13 8.56 2.81 2.14-1.6 4.64-3.42 2.42-6.79-.11-.18-3.75-11.88-6.05-10.93.81 4.78-1.25.91 7.15 9.93 1.49 1.59 2.48 1.41 4.39.24 3.17-1.93 1.91-5.12 2.77-7.59 4.87.4 7.27-1.18 7.64-5.31-7.13 3.58-6 2.71-1.06-3.54-2.53-.72-4.6-2-6.23-1.62-3.91 1-2.44 4.91-3 7.26-2.14.34-4.4.09-5.75 1.07-2.09 1.52-3.27 1.25-2.47 3.58-5.49 3.29-5.49 3.29-8.46 8.82l-6.55-19.1c-1.69 2.53-.68 3.56-3.54-7.44-6.07-23.38-5.7-38.94-5.92-65.8 5.13-1.19 4.12-5.19 3.67-9 3.5 1.14 6.42 1 8.29-2.09.38-.64-.06-1.77-.13-2.86-4.91 3.45-6.26 4.81-1.37-2.12-4.86-6.08-10.35 2.33-9.08-2.08 3.45-12 7.38-23.75 14.4-34.19.92-1.37 3-2 4.52-2.93l12.53 6.37-1.13 8.29c-6.41-2.73-10.81 5.23-5.79 8.57 1.66 1.1 4.16.94 6.29 1.32-2.2 6.7-3.92 13.62-6.75 20-3.06 7-11.74 6.85-17.55 12 19-1.75 20.35-7.53 29.8-39.75 5.44-2.66 4.13-1.6 4.39-4.27-.69.08-1.62-.1-2 .28-1.59 1.41-3.14 1.75-4.47-.07-1.54-2.1-.18-3.4 1.6-4.44 10.43 2.75 20.74 6.2 31.32 8.08 29.07 5.15 61.14-6 74.14-18.54 3 2.16 1.06-.66 13.39 20.95-5.52 3.06-4.85 3.18-5.9 1.78l4-2.78c-2.67-5.94-7.64-4.23-8.54.14-.31 1.49.44 3.19.8 5.2-3.25-2.5-6.06-1.43-8.65.56-3.75-2.48-2.67-2.63-4.84.1l10.16 9.69c4.54-1.91 4.85-5.54 4-10.14 4.52 2.47 7.42.48 10.05-2.36 20.43 39.2 1.95 84.19-10.3 115.39-.92.33-2.41.41-2.67 1-5.25 12.35-.75 9.76-11.74 11.39-.88-1.65-.36-.19 1.86-3.44 1.32-1.94-1-2.52-1.16-2.3-1.31 1.8-3.06 3.53-3.63 5.57s1.15 3.58 3.42 3.91c-1.78 10-.4 7.59-5.65 11.23-.84-1.13-.89-.53 3.46-5.87-2.45-.65-4.44-1.86-6.07-1.48-4 .91-3 4.73-3.56 8-3.38-3.57-6.83 4.66-10.69-.7-.38 1.42-.63 2.86 0 3.56 2.25 2.58 8.54 9.83 10.49 7.07 6.26-8.88-.55-5.41 11.27-10 2-1.91 1.3.3 2.76-7.7 4.77 1.2 7-.79 7-6.36l4.93-13.25c8.72 16 11.68 38.32 5.75 56.77-17.11 53.2-15.61 46.41-19.35 52.37a43.07 43.07 0 01-34.57-1.09c-19.74-68.71-19.49-58.93-10.36-99.24 2.34-10.31-5.53-7.36-6.48-34.77-.46-13.23 2.22-17.84-11.08 26.06-6.31 6.76-11.14 16.36-10 19.85l6.77-10.19c4.83 25 10 39 1.17 68.71-9.64 32.53-8.46 28.37-10.68 32.2l-16.82 4-.41-3c4.75 2 6.13.65 8.85-4.5-5.43 2.09-7.71 2.71-7.09-2.31a8.14 8.14 0 011.44-2.63c5.45 3.75 8.71 7.09 8.13 1.43l5.12-2.3c-2.11-1.29-4.32-1.19-5.57-2.24s-1.44-3.21-2.52-5.94c-2.79 13.3.3 4-7.8 3 .62 3.23-.19 1.71 2.64 6.07-3.63-.12-2.21-1.82-6 7.34-9.82-.94-3.67 6.8-9 4.67-8.64-2.44-4.14.72-9.27-14.63-15.14-45.14-15.12-34.86-17.38-60.31zm77.37-81.9c-5 0-3.55.92-6.15-4.6-4.62 8.16-.53 2.81-8.11 1.15.19.91.08 2.09.62 2.69 7.74 8.64 7.36 6.9 10.27 7.63.41-1.2.57-.57-1.28-3.47 2.39-1.09 6.39 2.82 6.71-2.71 2.78-10.7-2.93-25.94-11.49-29.14 10.93 17.47 8.48 16.85 9.39 28.45zm50.35-63.63c-3.53-19.63-2.95-19.45-4.76-19.33-.93 3.84-1.82.29 3.73 24 .09.42 1.11.63 1.69.94-1.88 4.47-6.54-3.83-8.08-2.9-3.13 1.89 2.06 2.62.38 5.39-4.09 6.72 3.38 15.06 10.53 3.78 8 .14 16.16.78 22.95-4.32l-17.38 1.52c.87-4 2.92-5.26-1-9-2.78-2.63-5.42-.94-8.1-.08zm-22.65 151.38c17.37 1.14 4.33-14.32.61-9.69-1.57 2-2.43 4.5-3.66 7-2.65-2.43-1.18-1.63-5.74-3.51.91 4.55.63 3.42 1.12 4.5-2.6 4.47-2.41 7.29.57 9.12 3.16 1.93 5.75.77 9.29-4.29zm-63.9-162.7c12.1 10.08 52.66 14.85 67.94 8.29l-23.28 2c3.75-10.68 3.9-9.87 2.8-10.93-4.13 4.76-1.88 4.45-3.59 7.49-2.07 3.66-4.46 1.88-14.83.59-3.79-.47-2.63-2.62-2.1-8.38-2-.18-1.47-.47-2.43 7.74zm18.89 85c-1 .25-6.51-1.35-7.66 4.09s8.29 11.16 10.27 1.49c1.25-6.11 8.42-.23 7.35-8-6.16 3.35-6.13.71-5.59-5.31-3.59 1.9-2.65-.35-4.37 7.78zm40.27 88.79l-.26-1.18c-3.43-1.67-6.82-3.43-10.32-4.93-2.79-1.2-4.57.8-3.56 3.2a91.66 91.66 0 004.31 8.65c.34.62 1.33.88 2 1.31 1.35-8.02-.44-4.82 7.83-7zM265 363v-.91c-3.63-1.91-7.22-3.94-10.94-5.7-1.71-.81-4.06 1-3.41 2.62 1.67 4.06 3.71 8 5.61 11.93l1-.23c1.45-7.11-.89-5.6 7.74-7.71zm-56.62-19.29l-1.32.07c-4.6 26 2.08 28 9.73 30.54-6.14-6.59-9.41-6.57-8.57-12.4.5-3.57 1.43-14.12.15-18.25zm-26 88.16c-1.38-2.13.51-.14 1.81-5.76a8.1 8.1 0 00-2.31.46c-2.24 1.19-2.78 5.32-2.14 6.41 2.67 4.58 15.34-3.52 5.51 5.6.59.49 1.49 1.46 1.65 1.35 1.56-1.06 3.46-2 4.31-3.57.53-.95 1.54-5.9-4.55-5.79-1.4-.02-2.82.79-4.25 1.26zm-28.13-83.32c1 .45 2.31 1.32 2.58 1.08 1.49-1.36 3.32-2.78 3.93-4.56 1-3-1.53-5.09-4.79-4.39-7.41 1.61-4.69 0-2.71-3.17.48-.77.37-2.18-1-2.05-3.7.37-6.75 11 1.08 8.94a41.21 41.21 0 014.45-.7c.79 1.35.99.65-3.51 4.81zm37.9 74.36c-6.22-.74-6.22-.74-5.17 3.93 4.63 3.48 8.74 7.94 10.78 2.81.09-.23-.86-1.29-1.31-1.27-3.8.1-4.11-2.61-4.27-5.51zm-24.68-84.1c-3.33-1-7.34-1.2-6.35-5.77l-4.79-1c-2.82 5.43 3.12 6 5.16 8.37 2.51 2.8 4.09 1.59 6.01-1.64zm.65 143.29c.9-6.17-2.8-13.33-7.87-14.86zm18.6.51l5.75-15.34c-4.62 2.25-7.06 8.73-5.72 15.3zm32.18-118.52c1.43 0 1 .06 1-18.61-1.4-.01-.97-.08-.97 18.57zm10.19 87.14c-1.66 1.18-1.25.7 6.52 11.79-1.08-4.64-2.14-9.27-6.49-11.83zm38.37 96.56c2 .71 1.33.62 6.83-14.6-1.87-.72-1.29-.64-6.8 14.56zm-25.75-79.62l3.83 9.2c1.36-4.92.11-8.25-3.8-9.24z" fill="#015e91"/><path d="M140.91 488.39c0-2.24-.14-4.47 0-6.71.06-.4 0-.93.43-1.18a.45.45 0 01.44.08 26.47 26.47 0 012.32 2.42c.25.23.37-.14.43-.39.46-2.28.34-5.8 3.47-6 1.1-.15 2.26.22 3.33 0a.64.64 0 00.45-.57 5.73 5.73 0 00-.71-2.43 14 14 0 007.32-4.42 1 1 0 00.12-1 23.93 23.93 0 00-2.93-4.52 3.87 3.87 0 01-1-2.06c1.15.69 2.21 1.5 3.28 2.29s2.17 1.57 3.47 1.4 2.27-1.17 3.26-1.95a4.26 4.26 0 001.82-3.21 4.35 4.35 0 00-.53-1.82c-1.36-2.91-2.12-6.14-3.73-9a7.47 7.47 0 00-1.71-2.3.9.9 0 00-.84-.18l.05-.08c.26 1 0 2.24.57 3.15s1.52 1.53 2.27 2.31c1.56 1.52 3 3.11 4.54 4.68a3 3 0 001.34.82c1.48.22 3.19-1 4.08-2.11 1.31-1.84.66-4.23 1.35-6.29v-.06h.07c3.91.43 7.32-.84 7.54-5.23l.14.09c-8.65 4.57-4.62.78-1.18-3.68v.15c-1.82-.47-3.49-1.51-5.37-1.68a3.45 3.45 0 00-3.06 1.68c-.87 1.77-.25 3.75-.65 5.64-1.79.33-3.74.07-5.41.84-.73.44-1.55 1-2.31 1.43a1.3 1.3 0 00-.73 1 3.67 3.67 0 00.27 1.37 28.65 28.65 0 00-5.2 3.56 27.41 27.41 0 00-3.41 5.49l-.08-.24-6.57-19.1h.22a11.89 11.89 0 00-.62 1c-.15.22-.23.52-.51.66a.25.25 0 01-.26-.09 12.23 12.23 0 01-.78-2.67l-1.15-4.72a171.31 171.31 0 01-5.23-28.67c-1.2-13-1-26-1.16-39 3.29-.61 4.41-3 4-6.13-.09-1-.24-2-.36-3l.24.07c2.78 1 6.41 1 8-1.89a1.7 1.7 0 00.17-1.36c-.08-.5-.19-1-.23-1.53l.26.12-2.26 1.61a16.33 16.33 0 01-1.78 1.14.77.77 0 01-.43.11c-.15 0-.24-.23-.22-.3.55-1.65 2.17-3.45 3.09-4.92v.21a6 6 0 00-2.58-2 4.91 4.91 0 00-3.21.05 14.77 14.77 0 00-2.3 1c-1.55.81-1.27-.6-.93-1.61l.47-1.63c2.55-8.67 5.45-17.31 9.69-25.32q1.58-3 3.43-5.87a6.26 6.26 0 012.32-2.52c1-.61 2.11-1 3.08-1.66l.09.05 12.54 6.37.12.06v.14l-1.12 8.28v.27a5.47 5.47 0 00-7.23 1.94 4.46 4.46 0 001.07 5.91c1.88 1.51 4.47 1.08 6.77 1.59-2.28 6.86-4 13.92-7 20.53-3.29 6.91-12.31 7-17.47 11.85l-.17-.39c10.84-1 16.73-3.35 21.18-13.73 3.56-8.38 5.8-17.27 8.44-26l.09-.05 3.09-1.49c.47-.25 1.09-.5 1.12-.89s0-1.12 0-1.69l.27.27c-.58.06-1.13 0-1.59.07s-.82.64-1.26.85c-1.67 1.2-3.52.21-4.3-1.48a2.41 2.41 0 01-.23-1.73 4.48 4.48 0 012.32-2.41l.09-.05h.1c17.73 4.9 35.66 11 54.33 9 17.87-1.71 37.49-7.32 51-19.56a9.85 9.85 0 012.66 2.17c1.81 2.59 3.23 5.39 4.83 8.1l6.19 10.89.14.26-.25.15-3 1.72c-.7.28-1.91 1.45-2.69.7-.31-.38-.5-.62-.76-1l.26-.17 4-2.79-.1.37c-.81-1.88-2.39-3.83-4.57-3.62s-3.44 2.52-3.47 4.51a40.14 40.14 0 00.87 4.28l.13.76-.61-.47c-2.64-2.18-5.8-1.53-8.28.57l-.18.13-.18-.12c-.85-.57-1.75-1.25-2.59-1.77-.23-.1-.28-.12-.42 0-.53.55-.92 1.22-1.42 1.82v-.41l10.16 9.68-.33-.06c4.57-1.71 4.63-6.25 3.71-10.43 4 2.46 7.28 1.41 10.23-2l.31-.33a81.38 81.38 0 018.8 29c3.25 30.22-7.95 59.43-18.84 87l-.06.15c-.74.34-2 .35-2.56.82a9.2 9.2 0 00-.48 1.11c-.88 2.06-1.59 4.21-2.28 6.34-.33 1-.7 2.47-1.87 3-2.46.85-5.16.72-7.69 1.22 0-.07-.38-.69-.43-.8a1.19 1.19 0 01-.14-.47.73.73 0 01.31-.52c1-.81 3.83-3.61 1.32-4l.13-.09-.69.9c-2.63 3.08-5.33 7.13.61 8.05-.37 2.09-.78 4.92-1.17 7-.27 2.67-3.13 3.6-5 5l-.21-.28-.28-.38a1.14 1.14 0 01-.24-.63 6.68 6.68 0 011.64-2.48l2.34-2.83.19.59c-1.31-.35-2.55-.89-3.78-1.27a3.8 3.8 0 00-3.5.37c-2.29 1.66-1.34 5.29-2 7.81l-.54-.45c-2.57-2.53-5.18 2-8.15 1.19a4.71 4.71 0 01-2.57-1.93l.67-.12c-.21 1-.7 2.25-.11 3.2 1 1.17 2.05 2.34 3.13 3.45a19.56 19.56 0 004.75 3.82 2 2 0 001.66.17 1.74 1.74 0 00.57-.64l.58-.86c1.49-2.07 1.82-3.6 2.87-5.57 1.06-1.05 2.62-1.36 3.89-1.92l3.89-1.49-.13.08c.42-.45 1.18-.84 1.44-1.34.45-1.15.93-4.85 1.22-6.15l.07-.4a10.09 10.09 0 003.16.4c3.24-.14 3.76-3.83 3.79-6.42l5.08-12.94.3-.81c9.3 17.07 11.94 37.89 6.55 56.62-2.85 9.12-5.83 18.18-8.81 27.25-1.5 4.53-3 9-4.62 13.56s-3.35 9-6.3 12.87c-11 4.81-24.22 4.17-35.1-.93l-.17-.08-.06-.19c-3.78-13.24-9.2-31.14-12.69-44.21-2.16-8.31-4.23-16.94-3.51-25.65.76-9.48 3.52-19 5.51-28.25.16-.69.47-2.07.57-2.78.8-3.91-1.4-7.2-2.84-10.68-4-10-3.82-21-4-31.47a.34.34 0 00.24.14c.21 0 .18 0 .23-.07v.05c-3.95 11.5-6.93 23.37-10.63 35a47.92 47.92 0 00-9.19 14.31c-.59 1.66-1.25 3.6-.8 5.32l-.62-.08 6.79-10.18.45-.67.15.79c4.83 23.47 9.07 40.09 2.4 64.13-2 7.4-5.17 17.46-7.34 24.88-1.4 4.09-2.22 8.73-4.84 12.19L179.89 564l-.23.06v-.24c0-.42-.42-3.08-.46-3.4 1.76.73 4 1.6 5.66.36 1.51-1.15 2.36-3 3.28-4.62l.24.28c-2.17.7-7 3.34-7.41-.42a5.3 5.3 0 01.59-3.4c.35-.55.74-1 1-1.58 2.15 1.41 4.09 3.15 6.37 4.31 2 1 1.74-1.43 1.63-2.72l.12-.05 5.11-2.29v.3a10.76 10.76 0 00-2.86-1.14 6.38 6.38 0 01-2.91-1.3 7.21 7.21 0 01-1.38-2.87c-.32-1-.62-2-1-3h.31l-.75 3.72-.37 1.85c-.16.55-.12 1.22-.56 1.65a.26.26 0 01-.24 0 19.77 19.77 0 01-1.26-1.62 7.37 7.37 0 00-4.8-2.48l.16-.17c.11.55.2 1.11.27 1.67.23 1.68 1.54 2.91 2.34 4.35l.15.23c-.54 0-1.1-.05-1.63-.13a2 2 0 00-1.24.05 6.53 6.53 0 00-1.26 2.29l-2 5v.09h-.1c-1.85-.09-4.2-.31-5.47 1.3a7.74 7.74 0 00-.89 2.8 1.15 1.15 0 01-1.19.93c-1.38-.19-2.58-.77-4-1-1.18-.33-2.8-.45-3.43-1.68-3.58-14.56-9-28.63-14.18-42.68-1.2-3.22-2.47-6.4-3.47-9.69-2-6.59-2.39-13.5-3.07-20.32zm.09 0c.69 6.8 1.09 13.72 3.1 20.28s4.8 12.85 7.09 19.31c3.39 9.71 7.21 19.31 9.68 29.3.48 1.55.34 3.66 1.81 4.53 1.57.62 3.32.88 4.94 1.38.63.24 1.43.56 2 .18.75-1 .4-2.43 1.25-3.46 1.35-1.71 3.76-1.53 5.7-1.41l-.14.08 2-5c1.24-3 1.2-2.65 4.12-2.39l-.12.21c-.61-.94-1.24-1.86-1.83-2.83s-.59-2.33-.87-3.49a8.14 8.14 0 016.3 4.1c0 .19.16-.22.22-.5s.14-.6.2-.91c.27-1.39.92-4.62 1.21-6.06l.2.51c.83 1.86 1 4.14 2.31 5.72a6.16 6.16 0 002.77 1.2 11 11 0 013.22 1.35l-.29.13-5.12 2.3.11-.18c0 1 .33 2.2-.53 3-1 .56-2.09-.36-2.95-.82-1.7-1.11-3.28-2.35-4.94-3.48l.27-.06c-.57 1-1.45 1.81-1.44 2.92-.79 5.4 3.9 2.73 6.86 1.75l.5-.2c-1.42 2.56-3 6.43-6.53 5.91a11.7 11.7 0 01-2.83-.83l.29-.23.41 3-.26-.18 16.82-4c1.88-3 3.31-7.94 4.48-11.89l3.71-12.42c2.45-8.27 5-16.55 6.14-25.12a87.5 87.5 0 00-.18-25.75c-1.27-8.53-3.28-17-4.91-25.44l.6.12-6.76 10.19-.4.6a6.37 6.37 0 01-.22-3.68c1.59-6.54 5.62-12.24 10-17.21 3.19-10.63 6.67-23.13 10.23-34.3.18-.44.46-1.4 1.14-1a.59.59 0 01.12.14 12.82 12.82 0 01.2 3.43 110.08 110.08 0 001 17.13 47.14 47.14 0 002.87 11c1.49 3.48 3.77 7.15 2.92 11.14-.13.7-.4 2.15-.58 2.85-1.23 5.35-2.65 11.46-3.81 16.81a76.05 76.05 0 00-1.83 14.15c-.15 7.62 1.7 15.12 3.6 22.52s4.14 14.75 6.26 22.11l6.41 22.09-.23-.27a44.86 44.86 0 0017 4.14 43.65 43.65 0 0017.23-3.05l-.2.17a33.75 33.75 0 003.65-6.06c6.11-15.51 10.84-31.58 16-47.41 5.26-18.21 2.79-38.55-6.05-55.26l.7-.05-4.93 13.25c.1 4.45-1.82 8.15-7.46 6.59l.47-.3-.75 4.18a5.41 5.41 0 01-.91 2.71c-.44.38-.88.66-1.27 1.07h-.07l-3.9 1.5c-1 .43-2.85.94-3.57 1.68-.61 1-1 2.64-1.72 3.71-.47.91-1.13 1.81-1.69 2.67-1.15 2.1-3.64.66-5-.42a44 44 0 01-6-5.93 2.54 2.54 0 01-.78-2.15 15.18 15.18 0 01.59-2.85l.48.6c3.45 5 6.95-3.07 10.65.66l-.64.2c.48-2.5-.28-6 2.21-7.66 2.69-1.9 5.73.42 8.44.95l-.36.45-2.13 2.89c-.42.64-1.27 1.32-1.47 2 0 .05.17.32.37.57l-.51-.09c1.27-1 2.95-1.62 3.9-2.89.7-1.43.73-3.19 1.05-4.77l.55-3.32.31.42c-1.76-.22-3.89-1.38-3.85-3.43.21-2.7 2.35-4.55 3.81-6.61a.62.62 0 01.26-.18h.16a1.68 1.68 0 011.7 2.19A8.67 8.67 0 01271 460c-.07.05-.07.09 0 0a1 1 0 00.06.14l.3.55-.38-.19c9.88-1.34 7 .32 10.53-8.85l.51-1.26.25-.63a2.17 2.17 0 01.38-.71c.9-.7 1.75-.59 2.68-.94l-.21.21c3.65-9.29 7.31-18.57 10.44-28 9.42-27.86 14.21-60-.09-87.08l.51.07c-2.79 3.28-6.49 4.73-10.43 2.41l.46-.33c.9 4.25.39 8.76-4.2 10.49l-.19.08-.15-.15-10.16-9.69-.2-.19c.38-.48.76-1 1.13-1.48s.58-.86 1.14-.86a5.19 5.19 0 011.86 1.06c.43.31.86.61 1.3.9h-.35a9 9 0 014.4-2 6.5 6.5 0 014.62 1.48l-.49.29c-.23-1.76-1.22-3.64-.74-5.53 1.45-5.41 7-5.11 9 0l.1.22-.2.14-4 2.78.07-.42c.18.23.35.5.5.65a.21.21 0 00.19.09 7.15 7.15 0 001.81-.87l3-1.73-.11.4-6.19-10.89c-1.87-2.94-3.31-6.72-5.82-9.09l-1.29-.88h.36c-13.71 12.23-33.23 17.81-51.22 19.53-18.7 2.05-36.76-4.11-54.5-9h.19c-.89.53-1.84 1.17-2.09 2.1a2.87 2.87 0 001.11 2.59c1.15 1.14 2.65.24 3.64-.64.64-.4 1.48-.19 2.09-.27h.32a16.53 16.53 0 00-.1 2c-.13.74-.85.95-1.38 1.25l-3.09 1.49c-.8 3.5-2.57 8.79-3.77 12.91-1.88 5.92-3.66 12.06-6.93 17.41a17.52 17.52 0 01-6 6.07c-4.25 2.39-9.15 3-13.88 3.43l.52-.46c5.18-4.87 14.05-4.88 17.38-11.69 2.93-6.5 4.63-13.49 6.87-20.25l.17.27c-2.17-.46-4.84-.08-6.71-1.63a4.88 4.88 0 01-1.18-6.45 5.86 5.86 0 017.5-2.21l-.28.16 1.13-8.28.11.2-12.53-6.38h.23c-1 .6-2 1-3 1.59a6 6 0 00-2.19 2.41 91.84 91.84 0 00-8.89 18.2c-1.77 4.76-3.27 9.63-4.69 14.51 0 .31-.41 1.18-.21 1.4a1.47 1.47 0 00.66-.2c3.12-1.77 6.12-2.07 8.51 1l.08.09-.08.11a40.65 40.65 0 00-3 4.61c-.06.11 0 .16-.08.08a.58.58 0 00.22-.08c1.24-.68 3-2.08 4.23-2.89 0 1.07.7 2.4 0 3.39-1.68 3.07-5.47 3.09-8.38 2l.21-.17a18.4 18.4 0 01.24 5.59c-.32 2-2.19 3.21-4 3.6l.12-.15c.13 13-.06 25.93 1.13 38.84 1 12.09 3.9 24 7 35.69a.82.82 0 00.11.23c.41-.46.62-1.11 1-1.6l.14-.21.08.23 6.55 19.1h-.21a25.66 25.66 0 013.34-5.31 27.33 27.33 0 015.16-3.55v.13c-.75-2 .21-2.31 1.76-3.2a6.34 6.34 0 013.83-1.34c.91-.07 1.82-.11 2.71-.25l-.08.07c.42-2.28-.58-5.65 2-6.94 2.43-1.32 4.93.7 7.29 1.23h.14l-.09.12c-1.13 1.57-3.07 3.53-4 5.24-.33.73 1.84-.37 2.11-.48 1-.46 2-.95 2.94-1.43-.18 4.59-3.64 6-7.76 5.55l.09-.06c-.87 3.59.3 6.47-4 8.27a2.52 2.52 0 01-3.05-.64c-1.5-1.58-3-3.16-4.54-4.68-.76-.78-1.59-1.47-2.29-2.33s-.32-2.19-.6-3.27c2.71-.81 5.39 9.58 6.52 11.48s.3 4-1.33 5.21c-1 .79-2 1.77-3.33 2-2.71.11-4.5-2.52-6.74-3.65l.09-.05a2.06 2.06 0 00.36 1c1.08 1.79 2.78 3.49 3.53 5.45a1.07 1.07 0 01-.13 1.08 14 14 0 01-7.33 4.44v-.07a5.63 5.63 0 01.7 2.42c-.13 1-1.5.73-2.21.71-3.86-.5-4.57 1.67-4.89 5a4.06 4.06 0 01-.32 1.23.26.26 0 01-.21.13c-.6-.24-.89-.92-1.35-1.34s-.94-1.28-1.54-1.24c-.32.22-.32.74-.38 1.11-.13 2.22 0 4.47 0 6.7z"/><path d="M218.37 406.52l-2.27.07c-.72 0-1.64.1-2.09-.61-.79-1.29-1.23-2.71-1.92-4h.18c-.5.91-1.61 3-2.12 3.85-.17.31-.6.94-1 .48a7.4 7.4 0 00-2.43-2.13 11.14 11.14 0 00-2.71-.93l.21-.21c.14.68.13 1.36.29 2s.77 1.09 1.11 1.51a45.8 45.8 0 005.69 5.54 4.19 4.19 0 001.71.77c.62.11 1.32.14 2 .32l-.3.17c.09-.32.28-.67.23-.82a3.16 3.16 0 00-.42-.77c-.14-.2-1.16-1.78-1.26-1.93 1.56-.83 3.23.05 4.77.15a1.48 1.48 0 001.58-.75 5.21 5.21 0 00.45-2 24.34 24.34 0 00.56-8.25c-.89-7.79-4.29-17-11.89-20.41l.53-.65c3.82 6.52 8.79 13.17 8.92 21 .06 2.57 0 5.08.18 7.69zm-.07-.06c-.29-2.48-.36-5.08-.53-7.61-.38-7.76-5.45-14.12-9.25-20.57l-.7-1.14 1.23.49c5.43 2.24 8.65 7.62 10.54 12.9s2.5 11.48 1.12 16.67a4.5 4.5 0 01-.93 2.78c-1.75 1.48-4.11-.59-6 .16l.12-.4 1.1 1.66c.26.37.69 1.08.39 1.59 0 .11-.21.57-.26.68-1.33-.36-3-.29-4.07-1.26a51.35 51.35 0 01-6.37-6.4c-.77-.75-.58-2-.78-2.94l-.05-.26a11.44 11.44 0 013 1.06 6.76 6.76 0 012.24 1.94c.13.18.33.41.4.35a8.15 8.15 0 001.13-1.76l1.43-2.56.1-.17c.69 1.38 1.16 2.91 1.93 4.23.4.66 1.27.58 2 .58s1.49-.05 2.2 0zm50.36-63.56c-1.09-5.5-2.11-12.29-3.29-17.75-.22-.78-.4-1.72-1.44-1.47l.13-.11a10.09 10.09 0 00-.66 3.18 77.25 77.25 0 001.9 9.72c.62 2.6 1.87 7.94 2.48 10.48a4 4 0 00.13.52c.41.39 1.19.5 1.78.85-1.93 4.6-5.66-1.37-7.89-2.49-.37-.17-.47.05-.78.24-.72.53-.53.95 0 1.54a3.47 3.47 0 011.23 2.21c-.06 1.22-1.07 2.18-1.26 3.39-.81 2.77.62 6.65 3.88 6.67 3.09-.11 5.33-2.95 6.91-5.39l.12-.2h.24c5.91.05 11.93.5 17.55-1.51a19.92 19.92 0 005.12-2.75l.3.79-17.38 1.39h-.42c.29-1.69 1.13-3.28 1.41-4.85.3-2.17-1.7-4.24-3.46-5.32-2.19-1.13-4.43.19-6.64.81zm0-.08c4.49-2 7.21-2.33 10.1 2.28 1.31 2.22-.37 4.64-.75 6.88l-.34-.38 17.41-1.6 1.55-.15a22.71 22.71 0 01-6.6 3.82c-5.72 2.06-11.94 1.64-17.87 1.5l.36-.19c-2 3.19-6 7.45-10.06 4.92-2.86-2.06-2.86-6.3-1.11-9.07 1.14-1.74-1.11-2.42-1.42-4 0-.78.66-1.24 1.3-1.59a1 1 0 01.79.06c2.11 1.09 3.3 3.56 5.61 4.19.68.14 1.19-.45 1.47-1.14l.12.33a12.54 12.54 0 01-1.54-.71c-.29-.18-.32-.61-.39-.89-.59-2.52-1.81-7.93-2.4-10.51a77.54 77.54 0 01-1.82-9.8 11.55 11.55 0 01.73-3.37 3 3 0 01.79 0c.73.18.84 1.09 1 1.68 1 4.55 2.25 13.08 3.08 17.74zM246 494.22c3.21.1 9.31 0 8.61-4.58-.64-2.73-3.53-5.85-6.49-5.66a2.16 2.16 0 00-1.4.92c-1.58 2.12-2.4 4.76-3.63 7.18a18 18 0 00-2.85-2.42c-1-.44-2.09-.84-3.14-1.27l.53-.43.48 2.27a6.62 6.62 0 00.65 2.12l.1.19a11.9 11.9 0 00-1.85 5.12c-.13 2.56 2.65 4.59 5.05 4.47 2.67-.38 4.41-2.87 6-4.88v.22l-2.06-3.25zm.08 0c.81 1.1 1.62 2.09 2.38 3.09l-.07.11c-2.81 4.48-6.91 8-11.41 3-1.9-2.52-.34-5.88 1-8.18v.4a7.54 7.54 0 01-.67-2.32c-.1-.5-.48-2.53-.57-3 1.27.57 2.54 1 3.82 1.64a13.48 13.48 0 012.66 2.27l-.52.1c1.15-2.25 2-4.72 3.61-6.82 4.48-5.45 17.16 11.26-.22 9.69zm-63.87-162.66c13.66 10.32 51.92 14.39 67.78 8l.14.58-23.26 2.1-.59.06.2-.56 2-5.53 1-2.76a3.89 3.89 0 00.36-1.78 2.81 2.81 0 00-.43-.43h.62c-1.42 1.67-2.66 3.16-2.76 5.4-1.29 5.25-4.7 4.7-9 3.91-2-.35-4.29-.71-6.35-1-3.2-.22-4.09-1.56-3.61-4.69.17-1.44.39-2.84.53-4.26l.34.41c-.78 0-1.13-.3-1.28.65-.3 1.45-.59 5.23-.82 6.76v.36l-.35-.1c-7.21-2.08-17.22-5.06-24.38-7.1zm-.08 0l24.63 6.54-.39.26.45-4.53a14.06 14.06 0 01.45-2.92 1.09 1.09 0 01.58-.6 5.88 5.88 0 011.67 0c-.11 1.56-.33 3.14-.5 4.67-.11 1.36-.27 2.95.95 3.33a27.6 27.6 0 004.1.7c1.42.21 2.83.45 4.24.69 3.78.63 6.9 1.48 8-3.19a8.43 8.43 0 01.46-2.18 16.82 16.82 0 012.82-4 7.64 7.64 0 01.89 1 1.47 1.47 0 01.12 1 41.43 41.43 0 01-1.43 4.24l-2 5.51-.39-.5 23.28-2 2-.17-1.82.75c-15.69 6.35-54.83 2.08-68.09-8.59zm18.96 85.06c-1.65.12-3.35-.22-4.9.51-5.14 2.6-2.28 10.24 3.05 10a4.3 4.3 0 003.43-2.83c.75-1.52.56-3.43 1.91-4.67s3.29-1 4.8-1.53 1.41-2.33 1.2-3.86l.65.33c-2.31 1.32-6.23 3-6.41-1.15a30.44 30.44 0 01.26-4.58l.51.35a20.85 20.85 0 01-2.27.89c-.67.2-.83 1-1 1.79l-1.18 4.72zm-.06-.06a54.13 54.13 0 011.11-6c.46-1.28 2.16-1.35 3.13-2l.56-.3c-.09 1.21-.19 2.44-.21 3.63a6.22 6.22 0 00.38 2.73c.87 1.59 4.15-.6 5.39-1.13a9.57 9.57 0 01.05 3.25c-.3 2.15-2.62 2.39-4.3 2.56a3.31 3.31 0 00-3.13 2.82c-.48 2.45-1.91 5.34-4.73 5.53-5.76.18-8.73-8.07-3.17-10.74 1.58-.68 3.35-.39 4.92-.38zm40.27 88.8l-.29-1.15-6.81-3.19c-1.9-.62-4.87-3-6.6-1.2-.77 1-.32 2.19.19 3.22s1.06 2.26 1.64 3.37c.78 1.5 1.63 3 2.46 4.49.44.53 1.13.65 1.83 1.1l-.68.31.5-3.1a7.13 7.13 0 01.65-2.43c.85-1.1 2.83-.68 4-1 .91-.1 2.17-.32 3.09-.47zm.07.05c-7.84 2.66-6.21-1.15-7.51 7.77-.9-.7-2.43-.93-2.94-2.18-1.34-2.5-2.6-5.05-3.71-7.65-1.05-1.86-.79-4.6 1.85-4.69 1.95.09 3.58 1.32 5.33 2.06l6.71 3.42.24 1.23zM265 362.93v-.88.06l-6.86-3.53q-1.71-.85-3.45-1.68a3 3 0 00-1.7-.48c-1.05.09-2.3 1.09-2.1 2.2 1.64 4.15 3.89 8.05 5.8 12.08l-.52-.25 1-.22-.34.35c.47-1.84.36-3.8 1.12-5.57.87-1.22 2.62-1.18 3.85-1.52l3.11-.56zm.07.06c-.76.24-2.31.71-3.08.92a13 13 0 00-2.91 1c-.76.43-.69 1.6-.83 2.63s-.25 2.14-.45 3.19l-.05.29-.29.07-1.38.32c-1.71-3.58-3.46-7.17-5-10.83a17.93 17.93 0 01-.72-1.86 2.24 2.24 0 01.77-2 2.89 2.89 0 012.94-.7c1.49.67 2.88 1.45 4.31 2.21l6.74 3.73L265 363zm-56.73-19.28l-1.29.09v-.05l-.67 4.48c-.63 6.22-1.55 12.94.9 18.87a10.26 10.26 0 005.37 5.28 42 42 0 004.2 1.55l-.39.6c-1.95-2.09-4.12-3.86-6.27-5.76a7.11 7.11 0 01-2.45-3.74 12.12 12.12 0 01.15-4.39c.57-5.58 1.37-11.38.4-16.93zm.06-.08c1.49 5.61.83 11.42.39 17.11a12.12 12.12 0 00-.11 4.1 6.57 6.57 0 002.17 3.28c1.88 1.67 4.54 4.05 6.21 5.91l1 1.09-1.41-.49c-3.23-1.07-6.68-2.37-8.74-5.26a15.11 15.11 0 01-2.11-5.33c-.93-5.25-.3-10.62.41-15.84l.76-4.47 1.36-.05zm-26 88.24c-.31-.45-.82-1.07-.28-1.51a8.47 8.47 0 002-4.32l.15.16c-1.05.18-2.14.13-2.85.91a6.23 6.23 0 00-1.47 5.59 2.92 2.92 0 002.36 1.42c2.08.3 4.17-.51 6.26-.49 2.56.51-2.3 4.4-3 5.21v-.62c.49.39 1 .92 1.45 1.24a.37.37 0 00-.31.06l.14-.1c2.15-1.4 5-2.89 4.33-5.87-.27-1.76-2-2.58-3.63-2.72-1.76-.32-3.36.57-5.14 1.05zm0-.09a18.73 18.73 0 013.76-1.44c2.29-.33 5.27.42 5.76 3 .84 3.44-2.12 5.27-4.61 6.77a.64.64 0 01-.75.1c-.77-.52-1.25-1.16-1.94-1.71 1.34-1.33 3.09-2.54 4-4.22a16.66 16.66 0 00-3.18.3c-3.82.57-7.25-.38-5.86-5 .43-1.49 1.38-3.23 3.07-3.51.6-.11 1.18-.11 1.76-.22a9 9 0 01-2.18 4.54c-.51.35 0 .94.21 1.33zm-28.08-83.28c.79.22 1.62 1 2.47 1 1.45-1.37 3.24-2.69 3.87-4.64a3.06 3.06 0 00-2.66-4.06c-2.25-.33-4.51 1.2-6.79.62-.39-.14-.43-.74-.25-1 .6-1.17 1.47-2 2.1-3.15s-.33-1.82-1.43-1.17c-2.09 1.34-3.49 5.09-2.07 7.28.81 1.05 2.52.92 3.75.63a42.78 42.78 0 014.74-.64 9.27 9.27 0 01.46 1c.16 1-1 1.51-1.61 2.11-.75.6-1.78 1.49-2.55 2.07zm-.08 0c.65-.71 1.67-1.69 2.37-2.38.39-.47 1.36-1.07 1.34-1.66a7.44 7.44 0 00-.38-.67l.31.16c-1.48.27-3 .38-4.4.78s-3.53.57-4.65-.83c-1.87-2.64-.17-7 2.4-8.54 1.16-.68 2.83-.29 2.66 1.34s-1.95 2.67-2.46 4.14c.06.12.4.12.63.13 2 0 3.93-.94 6-.64A3.45 3.45 0 01161 345c-.69 2-2.45 3.21-3.93 4.55-.09.1-.26.21-.39.16a14.19 14.19 0 01-2.41-1.19z"/><path d="M192.15 422.9a23 23 0 00-4.68-.18c-1.6.29-.34 3-.22 4l-.09-.14c2.14 1.27 7.15 6.73 9.42 4.22a7.52 7.52 0 00.78-1.38v.17c0-.03 0-.08-.09-.14a2.85 2.85 0 00-.76-.7c-3.73.13-4.6-2.74-4.34-5.88zm.07-.06c.34 2.75.89 5.4 4.24 5.06a1.53 1.53 0 01.95.43c.37.37 1 .84.8 1.46 0 .06-.1.21-.12.27-2.61 5.76-8.28-1.05-11.22-3.06l-.08-.06c-.16-.81-.34-1.61-.44-2.45s0-2 1.06-2.05a20 20 0 014.81.4zm-24.76-84.06c-3.32-.83-7.53-1.25-6.55-5.83l.19.29-4.81-.93.35-.16c-2 3.84.87 5 3.83 6.78a8.16 8.16 0 011.84 1.67c2.13 2.39 3.79-.05 5.15-1.82zm.08 0c-1.13 2.58-3.19 5-5.8 2.44a8.71 8.71 0 00-1.77-1.5c-3.31-1.82-6.17-3.72-3.89-7.84l.1-.22.24.06 4.78 1.07.24.05c-1.28 4.5 2.92 4.87 6.1 5.94zm.6 143.22c.49-5.64-2.28-12.54-8-14.47l.43-.52c2.72 4.69 5.15 10.11 7.54 15zm0 .09c-2.74-4.64-6.31-10.73-8.61-15.53 6.39 1.78 9.63 9.33 8.61 15.53zm18.61.44c1.65-4.52 3.8-10.85 5.43-15.42l.47.44c-5.16 2.86-6.4 9.54-5.9 15zm0 .08c-1.88-5.93.25-13.64 6.41-16.07-1.89 4.78-4.59 11.36-6.41 16.07zM219 364c.41 0 .69-.12.78-.59a22.52 22.52 0 00.12-3.58l-.12-4.8-.17-9.61.37.36c-.48.06-.38 0-.5.36a26.91 26.91 0 00-.11 3.49c0 4.6 0 9.8-.37 14.37zm-.06.07c-.24-2.69-.37-6.92-.45-9.64s-.27-5.67.22-8.49a1.19 1.19 0 01.47-.73c.5-.25.73-.09 1.15-.17v.38l-.09 9.61-.07 4.8a21.76 21.76 0 01-.25 3.61.78.78 0 01-1 .63zm10.18 87.17c-.48.37-1 .69-.58 1.36a40.31 40.31 0 003.1 4.38l4.29 5.79-.64.29c-1.16-4.32-2.33-9.09-6.17-11.82zm0-.09c5.26 2.32 6.22 8.59 7.28 13.57l-1-1.53-4.06-5.94a38.48 38.48 0 01-2.91-4.58c-.36-.73.13-1.16.74-1.52zm38.41 96.59a2 2 0 001 .13 1.41 1.41 0 00.65-.74c.88-1.93 1.43-4 2.11-6L274 533l.22.45c-.34-.12-.67-.21-.78-.14a7 7 0 00-1.22 2.55 126.1 126.1 0 01-4.67 11.85zm-.08 0c.6-2.33 1.74-5.83 2.49-8.18a48.57 48.57 0 012.32-6 1.91 1.91 0 01.89-1 2 2 0 011.29.17l.34.11-.13.35-3 8a62.17 62.17 0 01-2.38 6 1.52 1.52 0 01-.76.78 1.76 1.76 0 01-1.09-.23zm-25.68-79.58c1.38 3.15 2.81 6.11 4.11 9h-.64c1-3.62.4-7.67-3.47-9.08zm-.07-.06c3.24.13 5.27 3.45 4.78 6.47a21.45 21.45 0 01-.86 3.81c-1.38-3.45-2.64-7-3.92-10.28z"/><path d="M158.9 312l5.39-9.8c4.73-4.12 9.2-8.42 9.52-15.87 13.34 7.78 19.92 1.43 59.78 3.84 1-5.82-15.05-6.23-25.75-4.35-4.76.83-31.46 10.47-39.7-11.41-4.06-10.76.17-19 1.94-29.11-8.41 5.14-12.33 27.56-.13 38.54 1.34 1.2.24 2.63-4.1 11.46-5.69-9.31-11.42-15.9-26.47-17.42-.11-1.78-.79-3.77-.24-5.3 7.3-20.11 19-44.19 39.89-48.63 17.46 12.33 31.22 20.77 51.87 15.26 10.91-2.92 21.78-6.18 24.51-19.52 22.57 3.47 40.9 17 50 50.3 3.2 11.72-19.61-3.14-31.39 21-5.88-7.58 8.31-9.45 6.39-25.59-1.15-9.66-6.67-21.91-13.66-26.45.53 4.15 4.34 8.44 6.13 14.72 9 31.44-4.75 30.08-21.7 34.64l.28 1.12c5.53 2.76 11.05.91 16.25-.58 2.45 3.71 4.61 7.12 6.93 10.41 1.12 1.59 2.46.44 4.25 4.52.87 2 1.59 4.07 2.37 6.11C266.83 323.8 223 344.62 158.9 312z" fill="#fdc441"/><path d="M288.31 99.27c6.55 23.2 4.65 19.47 6.61 25.48 2.52 7.72 14.56 20 0 39.1-5.62 7.36-13.18 9.45-15 22.67-3.62 25.82-15.55 20.1-35.73 22.08-2.55-9.27-2.34-6.64-1.3-11.87 10.36-6.72 5.23-17.55 12.76-19.9 11-3.44 12.16-20.18 1.9-19.32-5.73.48-4.64-3-5.61-6.92-4.88-19.71-17.7-28.56-38-28.73-13.33-.12-28.67 6.82-30.69 25.18-.39 3.55-1.82 7-2.8 10.57-10.23-4.51-12 7.11-6.73 12.84a36 36 0 019 19.23c-2.54-.76-3.89-.34-3 2.75.49 1.59 7 7.2 8.65 6.92.75-.12 1.32-1.32 2-2 3.6 1.9 3.92.62 3.31 13.62-5 .26-10 .15-14.91.85-13 1.86-21.52-8.94-20.49-19.67 1.63-17-17-13.17-11.88-34.7 2.57-10.85 7.68-14.61 3.75-29.72-2.72-10.46-2.15-20.57 4.64-29.62.49 1 .74 2.32 1.52 3 1.33 1.25 3 3 4.5 3a7.32 7.32 0 005.1-2.62c.91-1.18.48-3.4.64-5.15 4.54.26 2.8 1.52 7.44-3.57-7.63.35-7.47-.33-6.49-3.66 1.07-3.62.94-3 3.21-4.13 0 .89 4 10.58 6.57 4 .15-.4-.72-1.19-1-1.56 7.86-2.5 9.44-2.4-1.32-4 22.75-11.58 36.15-21.33 58.81-12 23.59 9.77 33-4.65 51.85 22.4-7 .33-7.25-1-8.92 7.09-8.78 2.44-6.29 2.25-11.08 1.33 1 3.68-1.1.81 8.52 11.68 4.37-2.92 6.45-5.78 5.06-10.19 5.27.87 8.06-.63 9.11-4.46zm-26 18.65c-6.52-1.07-10.3-3.61-8.85-10.84s1.27-14.52-6.11-14c-9.4.7-11.76 7.76-15.1 10.06-24.11-8.81-44 6.62-48 23.94 2.2-2.61 4-5.54 6.53-7.63 15.35-12.77 33.84-11.8 49.82-2.87 2.31 1.29 3.9 3.87 5.82 5.85-4.29 4-4.57.91 3.3 16.58l2.82-2.53c4 4.17 8.28 2 17.37-2.11 5.09-2.32 6.26-8 2.49-11.75a25 25 0 00-3.06-2.31c.7-1 1.81-2 2-3.11 1.44-8.23-6.59-11.82-10.23-3-.35.93.77 2.47 1.21 3.72zm-81.18 83c1.45 1.18 1.3.62-2.56 5.36.69.39 1.53 1.28 2.3 1.21 1.93-.16 4.78-4.78 4.16-6.58-1.47-4.23-4.6-2.66-9.5-2 1-2.14 2-3.9 1.72-4.9-.09-.28-1-.62-1.11-.53-1.37 1.72-3.53 3.39-3.78 5.3-.33 2.45 1.95 3.8 4.52 3.47a26.52 26.52 0 004.26-1.32z" fill="#664333"/><path d="M288.31 99.22c.65 2.18 1.88 6.58 2.47 8.77 1.78 5.78 2.54 11.84 4.51 17.54 2.37 5.52 5.8 10.74 6.54 16.85 1.26 9.16-3.36 18.09-9.54 24.58-8.65 8-11.31 10.88-12.87 22.9-1.87 10.24-5.87 17.26-17.19 18-6.08.52-12.18.31-18.25 1v-.14l-1.66-5.88c-.78-2 0-4.14.37-6.15a16.24 16.24 0 003.94-3.54c2.24-2.78 3.08-6.28 3.9-9.69 1.84-8.63 6.35-5.13 10.83-10.69 3.12-3.72 4.7-10.68.34-14-2.26-1.78-5.2-.25-7.66-1.42a3.29 3.29 0 01-1.58-2.24 46.22 46.22 0 00-4.77-15c-4.73-9.59-14.57-15.77-25.05-17.15-10.29-1.71-21.73-.6-30 6.3-5.51 4.48-8.47 11.31-9.21 18.28-.47 3.57-1.84 6.88-2.76 10.27l-.09.34-.32-.14c-6.21-3-10.39 1.1-8.88 7.53a10.72 10.72 0 002.38 4.67 35.7 35.7 0 016.1 9.06 40 40 0 013.14 10.36l.08.51a5.52 5.52 0 00-2.76-.37c-.62.15-.64 1-.48 1.78a3.63 3.63 0 001.07 2 27.94 27.94 0 005.66 4.75c.67.39 1.54.88 2 .6.59-.39 1.07-1.39 1.72-2 1.12.63 2.9 1.14 3.45 2.46 1.11 3.78.28 8.05.28 11.93-3.2.17-6.4.19-9.58.36-2.71.1-5.37.52-8.08.71a18.5 18.5 0 01-10.12-2.75 18.77 18.77 0 01-8.39-16c.78-7.34-1-11.21-6.42-16.13-8.42-7.35-7-16.43-3.63-26a69.33 69.33 0 002.85-8.76 27.13 27.13 0 00.25-9.08c-.37-3-1.26-6-1.88-9-2-9.16-.4-19.22 5.43-26.72l.42-.56c.76 1.32.83 2.81 2 3.79s2.31 2.4 3.86 2.63a6.6 6.6 0 005-2.6 4.64 4.64 0 00.41-2.23 26.93 26.93 0 01.07-3c1.2 0 2.55.35 3.7.34.95-.29 1.57-1.36 2.29-2l1.52-1.69.34.72c-2-.1-7.45 1-7.42-2a19.85 19.85 0 011.37-4.86c.55-1.22 2.1-1.47 3.11-2.08l.08.68c.5 1.94 3.59 8.71 5.5 4.34l.15-.36.06-.15s0 .06 0 0a1.86 1.86 0 00-.34-.53 7.62 7.62 0 01-.55-.68l-.35-.48.58-.18a60.12 60.12 0 006-2h.06a.24.24 0 000 .25c-2.3-.79-6-1.1-8.57-1.57 8.53-4.18 19.66-10.77 28.63-13.73a41.78 41.78 0 0130 .66c2.11.74 5 2 7.15 2.53a62 62 0 0015 2.27c4.43.24 9 .47 13.2 2 7.93 2.91 13.46 9.75 18.24 16.38l.24.34c-7.48.2-7.6-.64-9.18 7h-.12l-5.48 1.56a6.51 6.51 0 01-2.88.32c-1-.17-1.86-.41-2.8-.58l.19-.2c.16.59.28 1.21.39 1.8.5 1.73 2.1 2.94 3.19 4.34l4.87 5.5h-.16c2.49-1.67 5.19-3.84 5.45-7a8.27 8.27 0 00-.44-3.15h.13c3.94.74 8 0 9.11-4.47zm0 .09c-.89 4.4-5.3 5.26-9.14 4.54l.09-.1a8.3 8.3 0 01.43 3.09c-.24 3.26-3 5.52-5.5 7.22l-.08.06-.11-.12-4.9-5.48c-1.13-1.43-2.77-2.63-3.29-4.45-.13-.7-.27-1.37-.46-2l.25.05c1.87.37 3.66 1 5.52.22l5.48-1.58-.15.15a29.22 29.22 0 011.31-5c.6-1.9 2.66-2.27 4.41-2.22 1.14 0 2.27 0 3.39-.09l-.17.35c-4.77-6.56-10.2-13.29-18-16.14-4.19-1.49-8.65-1.69-13.06-1.92a63.07 63.07 0 01-15.09-2.25c-2.11-.64-5.11-1.64-7.24-2.48a41 41 0 00-29.53-.57c-8.38 2.71-19.4 9.24-27.36 13.19L175 83a58.5 58.5 0 017.34 1.34 1.23 1.23 0 01.59.43c.56 1.16-2.27 1.64-3 2l-3.51 1.1.23-.66c.36.55 1.17 1.07 1 1.91-.65 1.88-2.2 3.56-4.1 1.88a12.32 12.32 0 01-3.33-6l.63.4a18 18 0 00-1.69.81 2.76 2.76 0 00-.8 1.43 20 20 0 00-.94 3.63c-.16 1 1.46 1.08 2.65 1.15 1.58 0 3.27 0 4.88-.1l-2.21 2.44c-.85.83-1.5 2-2.78 2.32-1.26.07-2.27-.27-3.48-.3l.45-.38c-.18 1.7.31 3.46-.57 5.13a7.31 7.31 0 01-5.78 3 6.58 6.58 0 01-3.45-2l-.92-.87c-1-.78-1.38-2.37-1.85-3.41l.72.07a29.77 29.77 0 00-6.05 17c-.65 9.31 4.58 18.22 2.35 27.57a67.8 67.8 0 01-2.89 8.85c-3.28 9.25-4.78 18 3.43 25.17 2.18 2.15 4.5 4.42 5.71 7.41s1.1 6.24.92 9.28a17.89 17.89 0 002 8.75 17.07 17.07 0 0015.7 9.32c2.67-.19 5.38-.61 8.06-.71l9.26-.33-.33.34c.11-2.56.25-5.11.24-7.65a10.49 10.49 0 00-.46-3.64c-.43-1-1.79-1.38-2.9-2l.41-.07c-.66.65-1.21 2.21-2.5 2.13-2.31-.57-4.11-2.39-5.89-3.86-1.19-1.16-2.77-2.41-3-4.15a2.54 2.54 0 01.25-2.08c.88-1 2.36-.47 3.33-.23l-.43.37a36 36 0 00-9-19.23 11.06 11.06 0 01-2.36-10.56c1.42-4.28 6.1-4.38 9.56-2.7l-.41.2c.93-3.43 2.3-6.72 2.75-10.19 1.51-15.77 13.91-25.19 29.23-25.71 14.4-.56 29.28 4.5 36 18.13a46.6 46.6 0 014.79 15.15c.31 1.87 2.11 2.52 3.82 2.41 9.5-1.22 9.79 10.21 5 15.65a13.53 13.53 0 01-6.67 4.29c-2.56 1-3.49 3.74-4.11 6.23-.82 3.43-1.7 7-4 9.82a14.1 14.1 0 01-3.9 3.45c-.4 2-1.12 3.91-.37 5.92l1.65 5.88-.18-.13c6-.62 12.09-.41 18.11-.91 11.12-.66 15.11-7.57 17-17.71 1.59-12.1 4.32-15 13-23 6.16-6.43 10.77-15.3 9.54-24.41-.74-6.09-4.14-11.29-6.5-16.82a60.07 60.07 0 01-2.27-8.77c-1.36-5.87-3-11.74-4.59-17.5z"/><path d="M262.36 118c-4.4-.5-9.48-2.74-9.26-7.88 0-2.23.67-4.4.84-6.62.26-3.11.43-7.07-2.26-9.2-2.8-1.86-6.57-.87-9.48.27-4.32 1.66-6.45 6-9.84 8.81-15-5.18-30.83-2.06-41.12 10.53a33.41 33.41 0 00-6.67 13.33l-.54-.27c2.36-2.8 4.37-6.18 7.46-8.38l1.79-1.38c11.22-8.24 25.77-9.64 38.73-4.92 4.12 1.68 8.79 3.13 11.82 6.55 1.11 1.25 2.09 2.55 3.24 3.69-.92.94-2.1 1.71-2.94 2.67a1.14 1.14 0 00-.21.85 17.35 17.35 0 001.8 4.26c1.48 2.85 3 5.71 4.41 8.59l-.68-.13 2.83-2.51.3-.27c2.14 2.62 5.34 2.91 8.39 1.83a84.32 84.32 0 008.51-3.52 8.44 8.44 0 003.52-2.7c3.17-4.43.37-8.64-3.79-11l-.19-.14a20 20 0 002-2.83 8.3 8.3 0 00-.74-6.18c-2-3.3-6-2.38-7.82.58a9 9 0 00-.83 1.4c-.21.5-.6 1-.49 1.49a30.09 30.09 0 001.21 3.08zm-.07 0c-.41-1.18-1.67-2.53-1.17-3.85a13.21 13.21 0 011.18-2.19c3.15-4.94 8.84-3.1 9.41 2.51a11 11 0 01-.24 3.37 15.34 15.34 0 01-1.9 2.75l-.06-.34c4.41 2.49 7.34 7.09 4 11.82a9 9 0 01-3.75 2.89c-4.23 1.76-8.47 4.56-13.27 4.25a7.52 7.52 0 01-4.23-2.29h.59c-.24.24-3.07 2.75-3.23 2.91l-.26-.51-4.42-8.57a17.35 17.35 0 01-1.89-4.6 2.09 2.09 0 01.37-1.43 33.53 33.53 0 012.73-2.49v.62c-2.12-2.18-3.65-4.84-6.3-6.07-15.47-8.59-33.75-9.08-47.92 2.36-3.39 2.44-5.45 6.16-8.24 9.27a34.44 34.44 0 017.14-14.83C200.87 101 218.05 97.43 232.16 103c2.6-2 4.26-5.16 7-7.1 3.31-2.38 8.94-4.27 12.66-1.88 1.87 1.39 2.36 3.89 2.44 6.08.24 3.37-.94 6.61-1 9.94-.21 5.16 4.74 7.16 9 7.83zm-81.14 82.88c.34.3.83.5.89 1-.11.74-.77 1.26-1.17 1.84l-2.19 2.68v-.2c.74.38 1.44 1.24 2.3 1.13 1.63-.49 2.69-2.34 3.41-3.82a4.09 4.09 0 00.43-2.47 4.27 4.27 0 00-1.4-2.09 3.75 3.75 0 00-2.42-.52c-2 .16-4 .71-6.06.93.49-1.13 1.06-2.27 1.52-3.38a3.77 3.77 0 00.41-1.83c.07.09 0 0-.11 0a1.91 1.91 0 00-.53-.2.43.43 0 00.29-.13c-1.06 1.35-2.65 2.64-3.41 4.15a2.74 2.74 0 002.28 4c2 .39 3.89-.55 5.83-1zm0 .09c-1.81.69-3.72 1.79-5.9 1.5-4.51-.79-3.83-4.9-1.12-7.44.35-.35 1.2-1.32 1.51-1.67s.36-.44.68-.38c2 .34 1.51 2 .91 3.31-.42 1-.89 1.84-1.32 2.74l-.4-.54c1.8-.18 3.56-.61 5.45-.73a4 4 0 014.36 3.1c.46 2.28-2.08 6.28-4.3 6.8-1.11.1-1.77-.9-2.63-1.33l.1-.12 2.26-2.63c.34-.54 1.58-1.41 1-2.06-.2-.2-.44-.37-.63-.55z"/><path d="M274 291c5.85-12 16.25-16.1 29.58-16 7.43 30.51 4.21 19.44 11.74 30.68 15.33 22.88 6.54 45.91 4.38 60-.64 4.19 4.31 14.09 5.42 21.32 2.22 14.5-8.82 24.62-19.08 33.66-4.89 4.3-5.88-.27-7.59-5.29 13.37-53.37 4.55-70.73-14.84-103.7-.46-.77-1.56-1.17-2.37-1.74-3.11-8.1-2-5.64-4.12-8.92-.53-2.85.35-.12-3.12-10.01z" fill="#cd8671"/><path d="M274 291c5.53-11.95 17.07-16.36 29.62-16.15h.1v.1l2.53 10.35c1.16 4.26 1.84 8.72 3.63 12.76 1.36 2.26 3.41 4.08 4.82 6.34l.76 1.09c.42.7 1.66 2.7 2.09 3.43a53.21 53.21 0 012.44 4.76c6 13.16 5 28.19 2 42-.68 3.48-1.51 7-2 10.43 0 3.47 1.48 6.89 2.5 10.2 4.26 11.47 5.08 20.17-2.52 30.56-3.95 5.42-9 9.94-14 14.34l-.53.43-.59.38c-4.43 2.83-5.7-3.62-6.78-6.56v-.24c4.28-18 8.1-36.6 5.55-55.09-2.07-16.25-10-30.91-18.14-44.88l-1.75-3c-.42-1.16-1.72-1.44-2.63-2.24-.57-1.42-2-5.53-2.71-6.86l-1.39-2.08c-.4-3.12-2.12-7-3.06-10zm.09 0c.95 2.93 2.86 7.08 3.18 9.91l1.36 2.06c.82 1.37 2.18 5.33 2.84 6.86l-.07-.09a12.29 12.29 0 012.2 1.48c.35.41 1.94 3.26 2.27 3.78 8.29 14 16.35 28.63 18.57 45a102.27 102.27 0 01-.16 28 226.71 226.71 0 01-5.38 27.21 41.21 41.21 0 001.81 4.94 3.25 3.25 0 001.56 1.69c.84.32 1.93-.3 2.7-.83 7.68-6.66 16.1-13.84 19.21-23.87 2.2-6.91 0-14-2.27-20.61-1-3.4-2.52-6.8-2.49-10.42.47-3.59 1.31-7 2-10.51 3.27-14.55 4.2-30.52-3-44.09a42.07 42.07 0 00-2.61-4.62c-.33-.56-1.06-1.7-1.44-2.23-1.6-2.66-4.26-4.66-5.37-7.66-2.08-6.49-3.87-15.32-5.55-22l.11.09c-12.5-.26-23.94 4.06-29.53 15.91z"/><path d="M139.38 277.92c14.35 1.45 20.34 7.4 26.47 17.42-2 8.69-.48 4.94-6.95 16.7-1.54 1-3.6 1.56-4.52 2.93-7 10.44-10.95 22.23-14.4 34.19-1 3.65-3.68 51.22 3.47 80.41-1.74-.74-3.89-1.05-5.17-2.28A49.23 49.23 0 01123.51 398c-.36-2.47.78-5.25 1.58-7.77 4.68-14.74-8.39-31.41-1-65.2 1.9-8.7 11-19.46 11-23.66-.09-8.13.84-16.01 4.29-23.45z" fill="#cd8671"/><path d="M139.36 277.88c12.58 1.06 20.43 6.66 26.6 17.49l-1 4.46c-1 4.5-4 8.29-6 12.34-1.61 1-3.64 1.48-4.66 3.19l-1 1.62c-5.45 8.74-9 18.49-11.92 28.32l-1.09 3.7a27.16 27.16 0 00-.52 3.77c-1.55 25.54-1.44 51.63 4.06 76.71l.17.71c-1.75-.85-3.69-1-5.46-2.21A47.09 47.09 0 01129 415.9c-3.18-6-5.63-12.74-5.94-19.59.2-2.64 1.39-4.95 1.94-7.46 1.06-4.07.77-8.33.16-12.49-1-6.69-2.54-13.35-3.2-20.15a96.66 96.66 0 011.73-30.53c1.65-8.47 7.88-15.09 10.93-23 .48-1.57.15-3.36.31-5a50.27 50.27 0 014.46-19.83zm0 .07c-3.37 7.35-4.26 15.58-4.15 23.59-.22 2.17-1.42 4.1-2.38 6-3.21 5.92-7.26 11.59-8.6 18.29a95.83 95.83 0 00-1.49 30.31c.7 6.74 2.21 13.36 3.22 20.12.61 4.2.91 8.64-.19 12.82-.52 2.42-1.73 4.88-1.91 7.32.34 6.65 2.69 13.25 5.77 19.13a46.67 46.67 0 009.37 11.83c1.3.91 3 1.19 4.64 1.87l-.5.43c-5.44-25.22-5.47-51.31-3.83-76.93a28.47 28.47 0 01.55-3.86l1.1-3.71c.75-2.46 1.53-4.91 2.36-7.35a98.13 98.13 0 0110.77-22.63c.94-1.67 3.45-2.45 4.71-3.21 2-4.05 5-7.73 6-12.2l1-4.45c-6.33-10.62-13.47-16.12-26.33-17.37z"/><path d="M255.41 219.73c-2.73 13.33-13.59 16.6-24.51 19.52-20.58 5.5-34.47-3-51.87-15.26 9.28-5.37 18.24-8 14-25.22 26.21 9.63 18.85 9.51 49.76-2l-.83 4.15c3.9 14.08-.1 10.72 13.45 18.81z" fill="#cc846f"/><path d="M255.45 219.72c-2.33 12.76-13.51 16.92-24.72 19.73-20.37 5.79-36.32-4-52.29-15.48 12.94-6.95 17.81-10.27 14-25.87 2.89 1 13.31 5.06 16.1 5.89.77.26 2.33.68 3.12.84 6.51 1.51 12.68-1.66 18.74-3.77q6.38-2.44 12.8-4.81l-.12.54-.85 4.14c.68 2.2 1.47 6.21 2.06 8.94.44 3.26 3.22 5 5.83 6.59l5.3 3.26zm-.08 0l-5.37-3.05c-2.73-1.52-5.63-3.33-6.13-6.69-.64-3-1.43-6.24-2.18-9.16l.8-4.15.41.34q-6.12 2.36-12.21 4.77c-6.09 2.28-12.54 5.5-19.2 3.92l-1.62-.38c-5.77-1.74-11.34-4.1-17-6.16l.56-.49c2.18 9 1.48 16.62-7.19 21.6-2.31 1.44-4.74 2.65-7.07 4v-.54c15.67 11.34 31.41 21 51.43 15.41 11.21-2.75 22.21-6.71 24.72-19.39z"/><path d="M270.54 588.67c4 9.3 8.72 16 3.08 21.87-20 20.66-24.87 25.85-32.55 16.19-17.26-21.71-14.95-18.3-6.11-38.8 1.62 1.27 3.36 2.41 4.85 3.82 8.86 8.34 20.11 8.38 27.71-1.5.63-.82 2-1.07 3.02-1.58z" fill="#046095"/><path d="M270.55 588.63l2.9 6.27c1.8 4.05 4.14 8.87 2 13.24-.83 1.87-3.08 3.79-4.43 5.29-3.17 3.31-6.34 6.63-9.64 9.82s-6.67 6.57-11.12 8.14c-5 1.67-8.61-3.29-11.28-6.71-2.84-3.61-5.79-7.13-8.33-11-3-4.16-3.81-8.56-1.69-13.33 1.69-4.3 3.76-8.37 5.55-12.61l.23-.52c1.5 1.2 3.09 2.25 4.57 3.53 6.12 6.27 15.33 9.35 23.06 4.07a21.57 21.57 0 004.74-4.31c.79-1.14 2.19-1.36 3.4-1.89zm0 .08c-1.08.58-2.49.81-3.2 1.95a22.16 22.16 0 01-3.63 3.74c-8 6.52-18.06 3.75-24.9-3-1.3-1.09-2.72-2.07-4.1-3.14l.68-.17c-1.79 4.2-3.88 8.32-5.55 12.56a12.94 12.94 0 00-1.11 6.49 15.4 15.4 0 002.63 6.11c2.46 3.82 5.38 7.38 8.19 11 2.61 3.3 5.77 8.09 10.61 6.57 4.29-1.46 7.65-4.92 10.95-7.93s6.52-6.44 9.73-9.72l2.4-2.46c6.65-6.37-.22-15.27-2.7-22z"/><path d="M270.54 588.67c-1 .51-2.39.76-3 1.58-7.6 9.88-18.85 9.84-27.71 1.5-1.49-1.41-3.23-2.55-4.85-3.82.28-30.06-.19-21.39 2.33-30.74a43.07 43.07 0 0034.57 1.09c3.51 17.21 2.05 18.82-1.34 30.39z" fill="#cb8570"/><path d="M270.57 588.7c-1.18.6-2.52.77-3.29 1.93a27.62 27.62 0 01-2.65 2.86c-6.18 5.72-14.86 5.77-21.66 1-2.84-2-5.27-4.44-8.16-6.42l-.1-.07v-.12l.06-15.51c0-2.59 0-5.17.19-7.78s1.39-5 2-7.55l.12-.42.39.18a43.65 43.65 0 0034.73.86c1 5.25 2.1 10.52 2 15.9s-2.08 10.12-3.6 15.09zm-.06-.06c1.28-4.92 3.14-9.89 3.09-15s-1.13-10.22-2.15-15.24l.56.31a43.38 43.38 0 01-34.87-1.15l.51-.24c-.36 1.25-.72 2.5-1.15 3.73-1.38 3.65-.94 7.57-1.11 11.41l-.18 15.51-.1-.2c2.82 2 5.33 4.44 8.08 6.48 5.63 4 13.48 4.82 19.28.72a21.3 21.3 0 004.71-4.38c.74-1.13 2.21-1.39 3.33-1.91z"/><path d="M196.31 587.47c4.17 6.43 15 19.31 1.35 34.37-8.09 8.91-11.44 12.86-16.09 9.15-17.55-14-24.28-17-21.52-27.08 1.42-5.21.88-8.54 2.43-13.53 4.1 5.59 3.93 5.83 5.13 6.8a17.5 17.5 0 0027.39-7.79 9.67 9.67 0 011.31-1.92z" fill="#046095"/><path d="M196.31 587.43c4.56 6.4 9.29 13.81 7.92 22a17 17 0 01-.81 3.34 8.94 8.94 0 01-.62 1.61c-1.55 3.69-4.24 6.84-6.92 9.75-3.44 3.35-8.58 11.29-14 7.42-1.85-1.38-6.22-4.84-8.12-6.28a112.63 112.63 0 01-10.55-8.76 14.77 14.77 0 01-3.77-5.85 12.79 12.79 0 01.21-7c1.25-4.3.95-9 2.41-13.45l.27-.82c1.26 1.71 2.51 3.44 3.72 5.19a10.44 10.44 0 003.83 3.64 17.25 17.25 0 0020.18-1.86 17.69 17.69 0 003.48-4.18c1-1.51 1.36-3.42 2.77-4.79zm0 .09c-1.19 1.41-1.61 3.26-2.54 4.83a17.72 17.72 0 01-26.63 5c-2-2-3.25-4.49-5-6.7l.78-.13c-1.41 4.26-1.12 8.94-2.4 13.42-1.5 4.63-.19 8.73 3.25 12.06a109.68 109.68 0 0010.41 8.77l5.37 4.23c1.73 1.27 3.39 3.22 5.68 3.08s4-1.87 5.6-3.33a101.49 101.49 0 009.17-10.1c.49-.87 1.39-2 1.79-2.88.25-.54.87-1.76 1.09-2.29a22.47 22.47 0 001.1-4.09c1.46-8.08-3.28-15.49-7.62-21.87z"/><path d="M196.31 587.47a9.67 9.67 0 00-1.27 1.92 17.5 17.5 0 01-27.43 7.79c-1.18-1-1.1-1.31-5.13-6.8 4.33-8.14-4.43-9.67-1.28-20.26 2.66-8.91-3.67-9.66 6.38-6.82 6.88 2.74 26.6-2.9 29.08-3.49.83 21.09.74 13.96-.35 27.66z" fill="#cb8570"/><path d="M196.35 587.49c-1.27 1.41-1.66 3.25-2.63 4.83a17.55 17.55 0 01-3.45 4.32 17.74 17.74 0 01-23 .55c-2-2-3.25-4.48-5-6.65l-.09-.13.07-.15a8.42 8.42 0 00.09-8.24c-1.31-2.65-2.44-5.61-2.1-8.64s1.6-5.69 1.29-8.67c.08-1-1.07-3.41.74-3.26.76.07 4.6 1.24 5.42 1.45 4.61 1.42 9.76.43 14.47-.26 5-.86 9.93-2.1 14.88-3.33v.49c.1 6.91.85 13.9 0 20.79l-.74 6.9zm-.08 0c.21-4.59.88-9.19.65-13.79l-.65-13.84.48.37c-4.75 1.28-9.57 2.49-14.44 3.31s-10.17 1.69-14.85.18c-.67-.16-4.62-1.43-5.26-1.47h-.2c.08 0 0 .1 0 .25a16 16 0 01-.18 6.71 24.57 24.57 0 00-.92 4.28 12.06 12.06 0 00.36 4.27c.74 2.85 2.78 5.37 2.71 8.46a10.24 10.24 0 01-1.26 4.33v-.27c1.68 2.13 3 4.66 4.87 6.61a17.41 17.41 0 0022.58-.36 17.7 17.7 0 004.67-6.69 8.37 8.37 0 011.46-2.33z"/><path d="M507.64 263.08c12.49 18.81 25 37.27 28.89 67.46 6.44 50.63-4.69 98.8-8.95 125.32-5.7 35.52-3.49 25.73-7.55 35.16-18.47 6.64-20.84 3.76-36.89-.61-2-3.72-4.61-7.26-6-11.21-47.68-134.34-30.54-171.57-7.86-214.32 21.4 9.56 23.83 5.4 38.36-1.8z" fill="#fdc133"/><path d="M507.65 263c14.59 21.14 25.82 41.27 29 67.21 4.41 34.32 1.06 69.09-4.86 103-2.48 14.05-5.08 29.57-7.2 43.75-.64 3.62-.88 7.51-2.7 10.79a83.81 83.81 0 00-1.59 3.47h-.13c-9.85 3.6-17.67 5.55-28 2.06-3.05-.88-6.07-1.8-9.13-2.62h-.14l-.07-.14c-1.76-3.21-3.91-6.26-5.4-9.64-2.19-5.74-4.1-11.56-6.08-17.37-9.35-27.89-17.61-56.23-22.22-85.33-6.87-43.6-1.89-75 19.95-113.46l.09-.18.19.08c3.12 1.35 6.23 2.73 9.47 3.77 12.53 4.5 18-.07 28.82-5.41zm0 .08c-10.78 5.57-16.36 10.05-28.91 5.68a98.43 98.43 0 01-9.53-3.72l.28-.1c-21.8 39.09-26.21 69-19.48 113.13 3.79 24.18 10.16 47.91 17.53 71.25 2.92 9.35 6.09 18.62 9.32 27.87a32.88 32.88 0 002.91 6.66c1.19 2.13 2.53 4.19 3.71 6.35l-.22-.17c6.09 1.54 12.06 4.07 18.35 4.49s12.44-1.81 18.35-3.83l-.19.17c.9-2.27 2.29-4.39 2.92-6.73 3-16.6 5.46-34.46 8.59-51 6-33.89 9.4-68.6 5.1-102.9-3.11-26-14.24-45.93-28.73-67.16z"/><path d="M565.46 310.67l-8.87 5c-4.88 2.18-4.44.88-21.65-41.84-10.64-26.42-16.57-42.61-17.73-44.33l-9.57 33.57c-5.94 3-18.75 13.59-37.22 2.31-3.24-2-4.63-6.8-12.58-38.17-8.49 24-20.9 56.59-27.2 72.92-10.83 28-10.72 24.24-13.94 27.4l-7.1-7C446.87 191.86 454.3 189.12 474 184c6 6.67 11.25 18.6 15.11 26.66L504.88 184c22-.81 29.77 45.26 59.4 121.72a35.61 35.61 0 011.18 4.95z" fill="#8cdae7"/><path d="M565.5 310.68l-8.89 5.05c-.9.4-2 .89-3 .44a5.6 5.6 0 01-2.07-2.22 50.18 50.18 0 01-2.7-5.45c-1.63-3.71-3.14-7.48-4.66-11.23-7.11-17.64-15.63-38.91-22.5-56.48-1.4-3.24-3-8.13-4.64-11.2h.27l-9.54 33.58c-8.93 5.57-18 9.62-28.7 6.38a36.5 36.5 0 01-9.17-4.18c-2.75-2.18-3.47-5.8-4.59-8.92-2.92-9.62-5.25-19.4-7.77-29.13h.49c-10.77 29.89-21.67 59.75-33.68 89.18-1.44 3.1-2.64 6.39-4.88 9.05-.91 1-2 1.55-2.81 2.48l-.25-.24-7.11-6.95-.15-.14.06-.2c7.27-25 14.63-50.05 22.92-74.76 6.1-16.43 16.11-51.67 32.41-59a51.11 51.11 0 019.59-3.18 48.88 48.88 0 014.76 6.44c4.1 6.53 7.29 13.58 10.6 20.51h-.78l15.79-26.66.11-.18a15.14 15.14 0 019 2.51c13.3 8.91 22.21 40.84 28 56.19 5.93 17.11 11.78 34.24 18.08 51.22l3.17 8.47a36.62 36.62 0 012.56 8.69zm-.08 0a37.79 37.79 0 00-2.62-8.6l-3.24-8.46c-6.43-16.92-12.38-34-18.36-51.12-5.82-15.18-14.84-47-28-55.73a14.27 14.27 0 00-8.35-2.37l.32-.19-15.7 26.71-.42.72-.36-.75c-3.31-6.92-6.46-13.92-10.53-20.43a48.45 48.45 0 00-4.49-6.13l.42.13a49.41 49.41 0 00-9.18 3c-16 7.17-26 42.34-32 58.5-8.35 24.13-15.77 51.23-23.08 74.36l7.1 7h-.48c.83-.84 1.85-1.41 2.57-2.21 2.15-2.56 3.36-5.82 4.76-8.86 1.81-4.15 3.48-8.37 5.14-12.59 9.95-25.65 19.72-51.38 28.95-77.29 3.1 11.56 5.46 23.39 9.6 34.64a9 9 0 002.73 4c5.58 3.52 12.22 5.75 18.88 5.19s12.67-4 18.46-7.24c-.34.67 9.59-33.59 9.52-33.44l.1-.35c1.73 3.18 3.42 8.19 4.82 11.57 4.26 11 9 23.05 13.38 33.93 4.45 10.56 11.06 29.28 16.33 39.27a5.52 5.52 0 002 2.17c.93.45 2-.05 2.86-.43l8.86-5z"/><path d="M468.39 139.19c-.69-.24-1.7-.27-2-.76-5-7.82-10.32-15.49-11.51-25.12-2.1-16.92 8.39-37.38 25.5-26.9 9.62-8.33 24.82-6.26 34 4.13 6.3 7.07 10.43 28.74 1.34 45.21-1.19 2.16-3.47 3.73-5.26 5.58 0-1.86.07-3.72 0-5.57-.48-9.42-6.27-17-14.66-18.95-5.63-1.29-11.41-2-15.46-6.64-7.92 13.2-12.67 18.5-11.95 29.02z" fill="#032746"/><path d="M468.42 139.22c-.64-.21-1.9-.22-2.21-1-4.81-7.4-10-15-11.31-23.94-1.34-9.46.54-20.26 7.5-27.22a13.15 13.15 0 0113.69-3 22.53 22.53 0 014.42 2.07h-.29c9.18-8.09 23.69-6.14 32.26 1.91 8.55 7.63 9.78 22.18 8.46 32.93-.88 5.76-2.48 11.72-5.92 16.51-1.57 1.79-3.4 3.13-4.93 4.84-.09-4.33.29-8.79-1.26-12.92a18.64 18.64 0 00-12.13-12.05c-1.89-.54-3.91-.89-5.87-1.39-3.95-.93-8-2.53-10.69-5.69h.46c-5.23 9-13.08 17.78-12.18 28.9zm-.06-.07c-1.24-11.06 6.62-20.08 11.75-29.13l.2-.33c2.69 3.21 6.68 4.79 10.68 5.68s8.16 1.48 11.48 4a21 21 0 018.41 15.86c.09 2 0 4.06.07 6.09l-.76-.31c1.39-1.42 2.94-2.6 4.16-4 7.24-11.07 7.87-26.48 3.8-38.85-4.55-15-25.76-22.12-37.74-11.43-5.57-3.64-12.72-4.28-17.73.68-6.89 6.83-8.8 17.54-7.53 26.88 1.18 8 5.51 15.15 9.84 21.88l1.31 2c.35.77 1.43.65 2.06 1z"/><path d="M483.14 490.41c22.91 6.24 15.16 4.68 29.38 3.32 1.52 21.91 5.33 64.65 3.92 86.57-12.12 2.83-7.15 3.48-17.83.46-1.22-13.33-9.13-34.97-15.47-90.35z" fill="#fdc3af"/><path d="M483.11 490.38c5.75 1.38 12.41 3.74 18.23 4.44 3.74 0 7.43-1 11.16-1.23h.14v.15c2 28.9 5.27 57.86 4.14 86.88-3.13.68-6 1.67-9.18 2.43a10.27 10.27 0 01-4.69-.6l-4.43-1.27-.27-.08c-.65-6.64-3-16.09-4.38-22.73a596 596 0 01-10.73-68zm.06.07c2.9 22.65 6.57 45.43 11.53 67.71 1.39 6.59 3.7 15.91 4.33 22.56l-.31-.37 4.42 1.3a9.56 9.56 0 004.33.61c2.92-.69 5.92-1.68 8.89-2.31l-.28.33c.43-7.19.36-14.42.19-21.64-.6-21.67-2.42-43.28-3.89-64.9l.15.12c-3.75.22-7.44 1.23-11.2 1.17-5.81-.77-12.46-3.11-18.16-4.58z"/><path d="M500.62 161.35c-4.44 3.84-12.58 2.82-18.36 1.77-6.94-3.62-13.89-20-13.89-27.68.49-8.26 5.31-14.14 12-25.27 4.93 5.6 13.07 5.7 17 7.06 17.41 5.47 16.46 32.61 3.25 44.12z" fill="#fcc2af"/><path d="M500.65 161.39c-5.18 4.05-12.39 2.76-18.41 1.82a17.68 17.68 0 01-5.48-5.17 48.6 48.6 0 01-8.54-20.77c-.53-5.09 1.63-10.05 4-14.42 2.55-4.53 5.42-8.83 8-13.3l.35.38c4 4.57 10.27 5.28 15.94 6.61a18.54 18.54 0 017.9 4.36c10.71 10.78 6.9 31-3.83 40.49zm-.06-.07c10.48-9.47 13.62-29.2 3.28-39.78-4.33-4.42-10.6-4.46-16.18-6.31a17.49 17.49 0 01-7.61-4.81l.6-.06c-3.76 6.47-8.51 12.47-11 19.57-2.63 7.24.53 14.83 3.52 21.48 2.19 4.37 4.79 9 9.07 11.62 5.84.94 13.16 2.3 18.29-1.71z"/><path d="M498.61 580.76c10.09 2.86 4.78 2.59 17.83-.46 0 6.81.69 47.94-6.55 48-2.11 0-3.11-3.23-3.53-5.3-8.87-44-7.67-40.91-8.59-37.86-4.2 13.95-13.12 35-24.9 43.61-.26-8.21-1.85-.43 11.79-50.93 4.34 2.31 8.69 4.77 13.95 2.94z" fill="#066395"/><path d="M498.61 580.71c2.24.59 4.39 1.4 6.64 1.9 2.29.31 4.49-.81 6.7-1.28 1.52-.41 3.06-.78 4.59-1.15.05 6.26.07 12.54-.13 18.81a161.57 161.57 0 01-1.41 18.63c-.52 3.09-1 6.24-2.55 9-2.83 4.33-5.59.25-6.2-3.14-2.29-10.62-5.64-29.2-8.15-39.71 0 0 0 .06.15.08a.32.32 0 00.25-.08v.13l-.06.27c-4.61 15.42-12.66 35.54-25.9 45.36-.07-2.31-.45-5.21 0-7.47 1.28-6.47 3.28-12.73 5-19.09l7-25.29.07-.25c4.23 2.45 9.12 5 14.08 3.25zm0 .09c-4.83 1.89-9.85-.53-14.05-2.86l.3-.12-6.74 25.36c-1.13 4.23-2.26 8.46-3.33 12.69-.73 3.16-1.76 6.29-1.65 9.54l.17 3.28-.7-.34c12.49-9.72 20.55-29.41 25.07-44.32a1.93 1.93 0 01.27-.7.42.42 0 01.38-.14c.27 0 .31.22.39.36 2.5 10.59 5.74 29.18 8 39.84 1.9 7.71 5.62 4.73 6.91-1.28 1.8-7.56 2.12-15.39 2.47-23.13.23-6.22.25-12.45.24-18.68l.12.1c-1.49.35-3 .71-4.47 1.1-2.22.45-4.45 1.57-6.76 1.24-2.24-.51-4.42-1.34-6.62-1.94z"/><path d="M409.6 320.58l7.1 7a142.46 142.46 0 01-20.92 38.86c-2.56-17.56 5.51-31.74 13.82-45.86z" fill="#fdc3af"/><path d="M409.59 320.54l7.19 6.92h.05A131.14 131.14 0 01408 347.9a157.41 157.41 0 01-12.43 19.44l-.13-.89c-2.8-16.67 5.4-32.33 14.17-45.91zm0 .09c-7.8 13.89-16 29.24-13.45 45.71l-.66-.17a147.89 147.89 0 0021.13-38.55l-7-7z"/><path d="M556.59 315.68l8.87-5c8.33 17.67 14 26.48 12.51 39.66-3.21-2.53-1.07.69-20.48-31.7a12.66 12.66 0 01-.9-2.96z" fill="#fbc3b0"/><path d="M556.54 315.66l8.86-5.1.11-.06.06.11c5.73 12.45 14.53 25.47 12.79 39.77l-.07.71-.57-.44c-2.94-1.88-4.53-5.24-6.38-8.09-3.57-5.83-7-11.73-10.42-17.65l-2.54-4.45a11.63 11.63 0 01-1.84-4.8zm.09 0a11.72 11.72 0 002.06 4.58l2.72 4.35 5.37 8.72c1.8 2.91 3.53 5.85 5.31 8.76s3.24 6 6.13 7.92l-.64.27a34.55 34.55 0 00-.31-10.4c-1.94-10-7.8-19.9-11.92-29.17h.17l-8.89 4.92z"/><path d="M498.61 580.76c-5.26 1.83-9.59-.63-13.95-3 6.26-57.2 3.13-49.66 9-21.8 3.58 16.97 3.95 13.86 4.95 24.8z" fill="#fc9e7e"/><path d="M498.65 580.78c-4.91 1.91-9.9-.57-14.14-2.93 0 0 2.22-22.56 2.21-22.58l1-11.25c.3-2.83.48-5.65 1-8.46a2.61 2.61 0 01.35-1c1-.86 1.23 1.23 1.38 1.78 1.39 7.43 2.55 14.82 4.16 22.2s3.82 14.63 4 22.24zm-.08 0c-.62-7.5-3.15-14.68-4.73-22s-2.84-14.89-4.14-22.28a12.94 12.94 0 00-.33-1.3c0-.07-.14-.21 0-.09a.35.35 0 00.24 0c.09-.06.06 0 .08-.06s0 0 0 .05c-1.16 5.37-1.69 14.65-2.39 20.21-.85 7.25-1.5 15.66-2.55 22.32 4.14 2.4 9 4.83 13.84 3.09z"/><path d="M512.52 493.73L520 491c-4.93 51.68-3.41 61.15-7.48 2.73z" fill="#fca080"/><path d="M512.48 493.7l7.52-2.78.15-.05c0 .05-1.73 20.82-1.73 20.91-.54 6.15-1 14.73-1.82 20.77-.13.55-.15 1.89-1 1.56-.44-.34-.4-.91-.53-1.39-.84-6-1.1-12.12-1.53-18.19-.4-6.94-.79-13.83-1-20.83zm.07.05c.72 6.85 1.27 13.81 1.81 20.72l.76 10.38c.24 2.22.4 6.59.92 8.62a.33.33 0 00-.45 0c.83-3.63.94-7.6 1.37-11.37.9-10.05 1.92-21.12 3-31.1l.14.11-7.52 2.63z"/><path d="M497.42 163.16a16.46 16.46 0 01-4 .83c3.16-.34 4.03-1.07 4-.83z" fill="#fca080"/><path d="M147.62 447.05l4.23 11.95c-4-1-4-1-3.08 3 .79 3.29-3.55 2.19 1 11-9.5-3.45-8.56.3-2.15-25.95z" fill="#015e91"/><path d="M147.62 447l4.38 11.9.12.33c-3.69-.78-4.27-1.59-3.13 2.67a3.77 3.77 0 01.08 1.25c-.18 1.16-1.14 2.08-1.13 3.24 0 2.58 1.4 4.93 2.5 7.19-1.48-.53-3-1-4.52-1.45-2.34-.64-3.93-1.69-3.66-4.38.46-4.54 2-8.86 3.15-13.26.61-2.17 1.51-5.36 2.18-7.48zm0 .09c-.76 4.32-2.34 10.75-3.36 15.08-.45 2.32-1.48 5.07-.89 7.34.34 1 1.66 1.43 2.83 1.85s2.46.8 3.68 1.25l-.44.5c-1-2.12-2.16-4.34-2.06-6.77a5.16 5.16 0 01.82-2.28c.89-1.38 0-2.88-.15-4.36-.44-2.53 2.54-1.2 3.85-.93l-.23.25-4-11.93z"/><path d="M151.85 459c-4.87-13.72-4-10.67-5-16.58 1.6-2.4.2-4.69 7.75 17.3.11 3.55.63 3.43-2.75-.72zm47.55 10.09c-1.17-3.49 3.66-13.09 10-19.85-4 12.02-1.86 7.59-10 19.85zm86.06-19.95c-5.82 15.65-4.43 14.16-6.43 10.54 4.41-12.37 3-10 6.42-11.22z" fill="#023b6d"/><path d="M287.69 97.94c-5.23 4-4.62 4.15-5.84 2.72 5.93-5.66 4.71-5.21 5.84-2.72z" fill="#664333"/><path d="M287.74 98c-1 .85-3.2 2.88-4.29 3.6-.94.67-1.5-.32-2.07-.89l.24-.24c1.62-1.54 2.9-3.42 4.92-4.5a.65.65 0 01.51 0c.48.36.52 1.45.69 2zm-.09 0c-.35-.43-.62-1.21-.88-1.45-1.42 1.41-3.09 3.07-4.69 4.43v-.46a7.08 7.08 0 00.55.66.24.24 0 00.2.09 7.36 7.36 0 001.82-1.14c.73-.54 2.23-1.61 3-2.13z"/><path d="M288.22 98.74l-.59-.85z" fill="#664333"/><path d="M288.18 98.77a8 8 0 01-.84-.68l.58-.4c.44.18.48.57.33 1h-.07zm0 0c-.48 0-.84-.21-.84-.68l.13-1.55a18.86 18.86 0 01.78 2.18h-.07z"/><path d="M182.17 331.54l24.51 6.82c1-8.21.41-7.92 2.43-7.74-.53 5.76-1.69 7.91 2.1 8.38 16.49 2.05 12.43 3.77 16.3-5.54a10.89 10.89 0 012.12-2.54c1.11 1.06 1 .25-2.8 10.93l23.28-2c-15.28 6.54-55.84 1.77-67.94-8.31zm-5.87-2.65c-9.56 32.59-11 38-29.8 39.75 5.81-5.16 14.49-5.05 17.55-12 6.63-15.07 4-19.34 12.25-27.75zm32.07 14.78c1.3 4.22.3 15-.16 18.21-.84 5.8 2.4 5.78 8.57 12.4-13-4.38-12.15-8.22-11.75-26.78 0-1.17 1.81-2.59 2-3.76zm12.02 63.51l-2.06-.69c-.91-11.68 1.53-11-9.43-28.45 8.56 3.2 14.27 18.44 11.49 29.14zm48.95-58.74c-.58-.31-1.6-.52-1.69-.94-5.55-23.68-4.66-20.13-3.73-24 2.51-.14 5.22 23.25 5.42 24.94zm2.83 6.27c-3.2-1.58-2.9-.93-1.78-2.8 9.26 0 4 .3 24.73-1.52-6.79 5.1-14.92 4.46-22.95 4.32zM168.15 482.06l-7.87-14.86c5.07 1.53 8.77 8.69 7.87 14.86zm18.6.51c-1.34-6.6 1.1-13.05 5.75-15.34zm32.18-118.52c0-18.66-.43-18.58 1-18.61 0 18.66.43 18.56-1 18.61zm52.6 100.56c3 .15 2.46-.68 2 4.14-1.46 8-.79 5.79-2.76 7.7-.9-4.37-1.02-1.8.76-11.84z" fill="#023b6d"/><path d="M271.51 464.58h1.59c.24 0 .58 0 .79.28.32 1.29-.17 2.65-.16 4a63.89 63.89 0 01-1.14 6.35c-.3.7-1.08 1-1.56 1.59l-.51.5c-.22-1.26-.62-2.35-.82-3.68-.07-2.56.85-5 1.39-7.51l.42-1.46zm.05.07c-.09 2.89-.91 6-1 8.81.1.9.38 1.92.54 2.91l-.65-.2c.42-.46 1.21-.81 1.48-1.32a11.79 11.79 0 00.51-2s.85-4.23.84-4.15c0-.5.6-3.37.39-3.79-.46-.42-1.56-.15-2.15-.29z"/><path d="M229.12 451.19c4.35 2.56 5.41 7.19 6.52 11.79-7.77-11.09-8.18-10.61-6.52-11.79zm38.37 96.56c5.54-15.19 4.93-15.28 6.83-14.6-5.5 15.22-4.86 15.31-6.83 14.6zm-25.75-79.62c3.91 1 5.16 4.32 3.83 9.2z" fill="#023b6d"/><path d="M168.61 563.71l-1-.41z" fill="#0d6598"/><path d="M168.59 563.75a10.92 10.92 0 01-1.15-.12l.27-.66c.48-.09.76.22.92.7v.08zm0 0c-.44.24-.85.27-1.15-.12l-.84-1.4a20.67 20.67 0 012 1.44v.08z"/><path d="M164.29 302.24c2.55-11.26.48-3.69 6.07-16.21 1.55-3.47-11.51-5.44-7-29.75.79-4.24 2.28-8.23 6.71-10.94a40 40 0 01-1 5.6c-7.18 22 1.9 34.78 16.56 37.53 12.83 2.42 27.22-7.6 44.24-2.21 2.16.68 4.15 1.52 3.73 3.95-6.84-.41-13.37-1.13-19.89-1.11-15.52 0-27.68 4.39-39.89-2.73-.33 7.45-4.82 11.75-9.53 15.87zM274 291c4 11.47 6 16.6-6.31-2.14-5.2 1.49-10.72 3.34-16.25.58-1.95-7.74 42.11 8.35 15.54-48.63-4.46-9.56 25.55 20.35 7.54 42.34-2.44 3.02-2.68 5.1-.52 7.85z" fill="#e7a215"/><path d="M242.81 196.73c-21.39 8-25.32 11.58-36.21 7.06-18.64-7.74-12.08-2.28-23.95-14.11a36 36 0 00-9-19.23c-5.23-5.7-3.57-17.38 6.73-12.84 1-3.59 2.41-7 2.8-10.57 2-18.36 17.36-25.3 30.69-25.18 20.3.17 33.12 9 38 28.73.94 3.79-.22 7.41 5.61 6.92 10.11-.85 9.3 15.82-1.9 19.32-7.58 2.36-2.41 13.17-12.77 19.9z" fill="#cc846f"/><path d="M242.83 196.77c-5.19 1.93-10.3 4-15.46 6s-10.66 4-16.17 2.58a53.42 53.42 0 01-7.82-2.78c-3.84-1.62-7.89-2.63-11.68-4.36-3.56-2.2-6.15-5.6-9.2-8.41a42.48 42.48 0 00-3.17-10.45 34.72 34.72 0 00-6-8.93 11.34 11.34 0 01-2.51-4.91c-1-3.46.1-8.49 4.24-9.14a9.71 9.71 0 015.45.94l-.41.19c.93-3.43 2.28-6.73 2.73-10.19a32.07 32.07 0 012.85-10.28 27.08 27.08 0 0115.9-13.62c6.77-2.38 14.14-2.37 21.16-1.29 10.63 1.39 20.74 7.76 25.54 17.53a45.4 45.4 0 013.77 10c.56 1.7.57 3.59.95 5.21a2.69 2.69 0 001.3 1.87c1.53.8 3.39.19 5.1.48a6.48 6.48 0 015.29 5.69c1 6.41-3.56 12.71-9.71 14.31-2.57 1-3.55 3.73-4.17 6.23-1 5.18-3.18 10.49-8 13.3zm0-.08c4.71-2.85 6.75-8.12 7.74-13.29.59-2.53 1.64-5.45 4.29-6.49 5.94-1.59 10.33-7.75 9.3-13.89a5.85 5.85 0 00-4.84-5.13c-1.73-.25-3.64.39-5.34-.5-2.61-1.54-1.7-5.15-2.7-7.51a49.14 49.14 0 00-2.63-7.42c-4.33-10.72-14.65-18-26-19.45-6.9-1.1-14.13-1.15-20.77 1.16a26.27 26.27 0 00-15.54 13.19 31.26 31.26 0 00-2.83 10.06c-.48 3.58-1.86 6.88-2.78 10.27l-.09.33a9.63 9.63 0 00-5.43-1.05c-3.81.61-4.67 5.24-3.82 8.45a10.94 10.94 0 002.37 4.69 35.3 35.3 0 016.07 9.07 37.1 37.1 0 013 10.35c3 2.81 5.57 6.23 9.06 8.42 3.73 1.74 7.8 2.8 11.6 4.44a52.42 52.42 0 007.78 2.81c5.48 1.39 11-.62 16.08-2.53s10.29-4.07 15.47-6z"/><path d="M233.66 102.22c6.37-9.46 18.78-12.94 20.15-4.35 1.31 8.25-4.69 17.18 6.1 19.65 4.07.93 9.57 2.18 12.51 5.14 3.77 3.79 2.6 9.43-2.49 11.75-9.92 4.53-13.59 6-17.37 2.11-1.91-5.47-5.93-16.54-11.94-19.9-16-8.93-34.47-9.9-49.82 2.87-2.51 2.09-4.33 5-6.53 7.63 4-17.32 23.88-32.75 48-23.94 3.53 4 8.2 6.29 13 8.46-1.18-3.81-1.15-3.1-11.61-9.42zm16.46 10.23c-1.22.9-3.4 1.69-3.67 2.91-.46 2.12-.39 4.87 2.7 5.5z" fill="#f9bf3f"/><path d="M233.62 102.23c3.36-4.89 8.61-9.23 14.75-9.35a5.37 5.37 0 014.94 3c1.55 3.79.5 8 .24 11.94-.53 4.39.64 7.93 5.26 9.19 3.82 1 7.88 1.69 11.42 3.74 6.5 3.5 6 11.59-1 14.21-1.82.83-3.65 1.67-5.51 2.42-2.74 1-6 2.38-8.9 1.13a7.42 7.42 0 01-2.57-1.91c-2.45-6.62-4.94-13.89-10.34-18.67-11.88-7.73-28-10.35-41.12-4.25a41.44 41.44 0 00-9.12 5.65c-2.88 2.12-4.75 5.27-7.12 8.07l-1.19 1.41.43-1.8c3.54-15.11 18-26.56 33.54-26.67a42.15 42.15 0 0115 2.6c3.4 4 8.23 6.36 12.93 8.52l-.25.23a6.42 6.42 0 00-1.72-3.29 25.13 25.13 0 00-3.16-2.16c-1.95-1.17-4.69-2.83-6.6-4zm.08 0l6.64 3.85a25.11 25.11 0 013.24 2.13 6.78 6.78 0 011.88 3.4l.12.39-.38-.17c-4.77-2.08-9.64-4.46-13.14-8.46A43.71 43.71 0 00217.4 101a35.05 35.05 0 00-26 12.93 33.18 33.18 0 00-6.66 13.26l-.77-.38c2.33-2.75 4.27-6 7.24-8.19 13.44-11.06 31.19-11.52 46.43-4a27.76 27.76 0 014.76 2.76c5.55 5 8 12.22 10.46 19 .92 1 3.17 2.39 5.07 2.06 3.93-.43 7.58-2.41 11.19-4 3.7-1.27 6.53-5.35 4.86-9.2-2.77-6-10.35-6.4-16-8.21l-1.38-.64c-.36-.22-.91-.62-1.26-.88a6.84 6.84 0 01-2.13-4.77c-.32-4.93 1.78-10.09-.09-14.85-1.86-4-7.21-3.19-10.51-1.54a23.23 23.23 0 00-8.91 7.77z"/><path d="M250.1 112.48c-1 .9-2.64 1.42-3.34 2.63-.69 2.14-.15 5.07 2.48 5.35l-.49.36a78.54 78.54 0 011.35-8.34zm0-.07a65.14 65.14 0 01-.65 9c-3.2-.5-4-3.23-3.25-6 .67-1.64 2.54-2 3.9-2.91z"/><path d="M233.66 102.22c10.56 6.38 10.45 5.68 11.62 9.42-4.82-2.17-9.49-4.42-13-8.46z" fill="#e7a215"/><path d="M233.66 102.17l6.73 3.81c1.61 1 3.63 1.89 4.52 3.72a27.07 27.07 0 01.93 2.56 64 64 0 01-7.78-3.75 21.81 21.81 0 01-6.06-5.38l.16-.1 1.5-.86zm0 .09l-1.3 1.06v-.26c3.69 3.69 8.36 6 13 8.27l-.47.41a6 6 0 00-1.66-3.22 26.71 26.71 0 00-3.12-2.18l-6.51-4.08z"/><path d="M295.34 332.34l-.75-1.45z" fill="#015e91"/><path d="M295.3 332.37c-.37-.43-.71-.87-1-1.32l.63-.32a1.52 1.52 0 01.48 1.59l-.08.05zm0 0a1.55 1.55 0 01-1-1.32v-2.15l.63 1.83q.27.78.48 1.59l-.08.05z"/><path d="M250.12 112.45l-1 8.41c-3.09-.63-3.16-3.38-2.7-5.5.3-1.22 2.48-2.01 3.7-2.91z" fill="#e7a215"/><path d="M250.14 112.41c-.27 2.8-.41 5.81-.71 8.82-3.14-.31-4.19-3.2-3.4-6 .68-1.75 2.62-2 4.11-2.86zm0 .07c-.9 1.08-2.75 1.61-3.23 3-.44 2.14-.19 4.63 2.35 5.11l-.38.27c.37-2.69.88-5.44 1.26-8.35z"/><path d="M246.36 478.92c-3.57 6-5.38 5.47-10.06 7.3-11.11 4.33-14.22 18.91-8.78 25 3.77 4.2 13.9 4.09 16 3.07 1.49-.72 2.08-1.68 8.7-9.51 30.66-36.27 37.34-36.91 23.13-56.21-.65-.9-17.35 11.09-18.85 12.35-5.22 4.38-6.59 12.08-10.14 18zm-103.98-12.98c-1.54 11.12-3.18 17.19.3 20.33 2.95 2.65 7.92 1.06 10.48-2s3.56-7 5.29-10.61c8-16.55 28.53-21.22 40.84-34 5.35-5.57 6.92-16.68 10.48-20.57 2.82-3.09 13.29-5.07 11-11.12-1.19-3.16-5.64-3.26-8.38-5.24 1.54-.66.6-3.33-1.06-3.59-4.49-.71-8.18 5.11-25.66 19.85-16.38 13.84-40.35 25.75-43.29 46.95zM296 334.74c1 8.76-10.93 12.76-15.51 16-9.73 6.79-14.86 21.61-23 21.87-6.3.2-17.13-12.8-13.16-17.48 2.29-2.71 6.06-3.52 9.12-5.29 9-5.17 11-17.54 34.35-25.11 2.29-.75 2.08-1 3.45 1.14 1.75 2.73 4.33 5.46 4.75 8.87zM141.2 369.7c13.53-16.41 14.7-14.18 21-20.58 4.49-4.6 6.84-9.9 15.12-15.49 10.64-7.18 6-12.59-5.3-15.57-4.16-1.11-9 9.91-19.45 16.06-6.39 3.77-5.61 2.74-11.66 14.18-6.92 13.08-3 26.1 2.16 21.49a4.93 4.93 0 001.45-3.74zM189.92 540c-6.46-1.49-10.37 2-14.18 6.61-3.59 4.38-7.35 9.13-7.84 14.78-.34 3.88 2.2 3.06 6.48 3.09 16.94.13 33.38-20.35 15.54-24.48z" fill="#015e91"/><path d="M288 99.07c1.37 3.42.82 4.78-1.31 7.07C271.23 122.86 274.86 122 262 118c-4.91-1.53-8.12-33.44 20.26-26.88 2.9.64 4.74 5.45 5.74 7.95zm-35.13 40.78c-5.3 2.6-7.58-10.27-10-13.2-2.91-3.47 2.19-6.09 4-3.76 3.3 4.44 7.19 16.38 6 16.96z" fill="#664333"/><path d="M252.89 139.89c-5.23 2.27-7.66-9-9.69-12.15-.44-.85-1.24-1.5-1.47-2.49-.65-2.23 1.91-4.1 4-3.53 1.05.24 1.68 1.24 2.22 2.08a39.62 39.62 0 015 13.28 10.13 10.13 0 01.24 2.12.84.84 0 01-.26.69zm0-.08c1.24-1.4-5.41-17.21-7.34-17.32-1.52-.48-3.65.87-3.16 2.61.19.89 1 1.53 1.36 2.36 2 3.14 4 14.66 9.14 12.35z"/><path d="M190 196.92c2 3.26-2.12 5.09-3.94 7.22-1.3 1.51-2.44 4.7-6.8 3.38-2-.61-10.32-6.82-6.89-12 1.16-1.76 3.23-2.7 4.56-4.33.79-1 1.81-3.28 4.93-2.81.57.09.56.38.86.87 1.8 2.98 5.41 4.63 7.28 7.67zM175.36 83.2c-17.17 4.58-25.33 21.69-23.85 22.25 10.53 2.32 5.14 3 24.47-3.91l9.66-17.79z" fill="#664333"/><path d="M255.42 219.69c20.3 4.33 37.8 15.31 44.83 35.66a62.47 62.47 0 013.29 19.65 77 77 0 00-6-23.95c-8.27-18.11-23.76-26.61-42.16-31.37zM179.05 224c-16.6 7-28.65 20.29-34.71 37.14a120.54 120.54 0 00-4.91 16.75 75 75 0 014.08-17.06c5.82-16.57 19.15-30.78 35.54-36.83z"/></svg>