<svg xmlns="http://www.w3.org/2000/svg" viewBox="0 0 700 700"><path fill="#fcc2af" d="M0 0h700v700H0z"/><path d="M514.17 186.48l-15 25.49c-3.69-7.69-8.75-19.09-14.43-25.46 8.29-9.2 6.33-4.77 7.85-20 2.52.46 8.13 1.38 10.63.83 4.95-.43 4.14-2.65 3 4.48.69 5.98 4.58 10.18 7.95 14.66z" fill="#fbc0ad" stroke="#000" stroke-linecap="round" stroke-miterlimit="10" stroke-width=".72"/><path d="M516.8 262c11.93 18 23.92 35.6 27.59 64.44 6.16 48.36-4.48 94.37-8.54 119.7-5.45 33.93-3.33 24.58-7.21 33.59-17.65 6.34-19.92 3.59-35.24-.58-1.95-3.56-4.41-6.94-5.75-10.71-45.53-128.32-29.16-163.88-7.5-204.72 20.45 9.17 22.77 5.19 36.65-1.72z" fill="#fcbf33" stroke="#000" stroke-linecap="round" stroke-miterlimit="10" stroke-width=".72"/><path d="M572 307.49l-8.48 4.78c-4.66 2.09-4.23.85-20.67-40-10.17-25.23-15.83-40.7-16.94-42.35L516.8 262c-5.68 2.84-17.91 13-35.55 2.2-3.1-1.87-4.43-6.48-12-36.45-8.11 22.94-20 54-26 69.65-10.34 26.75-10.24 23.15-13.31 26.17l-6.79-6.57c35.6-122.95 42.7-125.57 61.55-130.45 5.68 6.37 10.74 17.77 14.43 25.46l15-25.49c21-.77 28.43 43.23 56.74 116.26a35.32 35.32 0 011.13 4.71z" fill="#8ad8e5" stroke="#000" stroke-linecap="round" stroke-miterlimit="10" stroke-width=".72"/><path d="M479.31 143.69c-.66-.23-1.62-.26-1.92-.72-4.8-7.47-9.85-14.79-11-24-2-16.16 8-35.7 24.36-25.69 9.2-8 23.71-6 32.53 3.94 6 6.76 10 27.46 1.28 43.18-1.14 2.08-3.32 3.58-5 5.34 0-1.78.07-3.55 0-5.32-.46-9-6-16.28-14-18.11-5.38-1.22-10.9-1.94-14.77-6.33-7.64 12.6-12.17 17.67-11.48 27.71z" fill="#032846" stroke="#000" stroke-linecap="round" stroke-miterlimit="10" stroke-width=".72"/><path d="M493.4 479.18c21.88 5.95 14.48 4.46 28.06 3.16 1.46 20.93 5.1 61.76 3.75 82.7-11.58 2.7-6.84 3.32-17 .43-1.21-12.73-8.75-33.4-14.81-86.29z" fill="#fbc1ae" stroke="#000" stroke-linecap="round" stroke-miterlimit="10" stroke-width=".72"/><path d="M510.09 164.86c-4.23 3.67-12 2.69-17.54 1.69-6.62-3.46-13.26-19.09-13.26-26.43.47-7.89 5.07-13.51 11.45-24.14 4.72 5.34 12.49 5.44 16.25 6.74 16.63 5.28 15.72 31.15 3.1 42.14z" fill="#fbc0ad" stroke="#000" stroke-linecap="round" stroke-miterlimit="10" stroke-width=".72"/><path d="M508.17 565.47c9.65 2.73 4.57 2.48 17-.43 0 6.5.66 45.79-6.26 45.8-2 0-3-3.09-3.37-5.07-8.48-42-7.33-39.07-8.2-36.16-4 13.32-12.54 33.48-23.8 41.66-.24-7.85-1.76-.41 11.27-48.66 4.19 2.26 8.34 4.61 13.36 2.86z" fill="#0f6393" stroke="#000" stroke-linecap="round" stroke-miterlimit="10" stroke-width=".72"/><path d="M423.15 317l6.79 6.64a136.21 136.21 0 01-20 37.12c-2.43-16.76 5.28-30.32 13.21-43.76z" fill="#fbc1ae" stroke="#000" stroke-linecap="round" stroke-miterlimit="10" stroke-width=".72"/><path d="M563.55 312.27l8.48-4.78c8 16.88 13.38 25.29 12 37.89-3.07-2.42-1 .65-19.56-30.28a12.27 12.27 0 01-.92-2.83z" fill="#f9c1ae" stroke="#000" stroke-linecap="round" stroke-miterlimit="10" stroke-width=".72"/><path d="M508.17 565.47c-5 1.75-9.16-.6-13.32-2.86 6-54.63 3-47.43 8.6-20.82 3.42 16.21 3.77 13.21 4.72 23.68z" fill="#fa9c7d" stroke="#000" stroke-linecap="round" stroke-miterlimit="10" stroke-width=".72"/><path d="M521.46 482.34l7.18-2.58c-4.75 49.35-3.29 58.39-7.18 2.58z" fill="#fa9e80" stroke="#000" stroke-linecap="round" stroke-miterlimit="10" stroke-width=".72"/><path d="M507 166.59a15.39 15.39 0 01-3.85.79c3.09-.32 3.92-1.02 3.85-.79z" fill="#fa9e80"/><path d="M179.63 124.28c16.59-29 60.33-15.68 70.59 11.47 29.4-6.9 21.55-15.22-1.82-24.13 2-25-6-26.72-21.42-11.46-24.12-6.04-37.98 3.01-47.35 24.12zm-34.39 12.37c-9.48-30.44.51-47.57 23.54-55.8C195.86 64.89 219 63 239.07 72.4c28.64-1.12 41.79 11.74 46.74 32 14.1 29.31 14.67 54.16-8.45 71.18-4.53 21.72-20.18 31.73-38.29 31.37a46.36 46.36 0 01-2.43-9.65l10.56-20.81c14.76-11.08 16.27-18.45 0-20.82-6.64-45.54-64.55-51-73.3 0-14.34-.82-9.05 9 0 20.82 2.39 9.74 7 16.61 13.57 20.81 1 4.88.67 8.95-.78 12.37-23.35 6.12-35.18-3.32-35.72-28.05-12.73-10.62-13.81-25.93-5.73-44.97z" fill="#664333"/><path d="M202.83 341a73.42 73.42 0 0016.93 1.31l4-11.89c16.67-1.65 31.6-9.33 52.71-21.38 16.79 12.85 19.89 65.63 14.11 104.67-2.18 14.76-5.62 27.56-10.08 35.5 11.15 37.25 10.29 74.22-14.49 110.6-2-2.64-21.93 3.73-34.58-1-15-42.82-21.62-80.12-10.65-106-4.28-7.4-5.93-21.32-6.84-37 2.83-13.46-6-31.16-6-31.16v-10.41c-10-5.41-5.61-22.34-6-28.65z" fill="#0d5e90"/><path d="M314.77 368.61c11.6 23.25-12.87 54.6-17.2 54.6s-7-9.46-7-9.46c5.78-39 2.68-91.82-14.11-104.67a99.72 99.72 0 01-7.24-20.41c9.31-9.91 19.2-15.73 30.17-14.17 0 0 3.25 20.54 4.53 20.51 16.32 19.6 18.08 51.58 10.85 73.6z" fill="#cc8571"/><path d="M222.16 607.5c-1-2.2 6.16-18.39 7.24-17.09 11.54 10.9 23.28 10.56 35.19 0 2.05 0 8.07 13.22 6 16.89-2.49 4.51-24.59 27.41-26.91 25.7-1.81 2.71-20.16-22.47-21.52-25.5z" fill="#0d6094"/><path d="M137.89 431.13c-9.19-49.06-9.49-92.1 13.48-119.43 21.31 9.64 37.4 15.37 51 17.77V341a2.07 2.07 0 00.42.08l-.91 4.55c.35 6.31-4.09 23.24 6 28.65v10.42s8.87 17.7 6 31.16c-3.3 17.47-7.33 32.64-13.28 41.83 6.64 36.29 5.38 71.06-9.85 103.16-11.5 4.31-23.61 4.74-36.2 2.22-16.23-42.14-24.86-82.05-13.47-116q-1.7-8.07-3.19-15.94z" fill="#0d5e90"/><path d="M202.41 329.47a77.07 77.07 0 0021.33 1l-4 11.89a73.42 73.42 0 01-16.91-1.36 2.07 2.07 0 01-.42-.08z" fill="#0d5e90"/><path d="M173.9 176.47c-9.05-11.84-14.34-21.64 0-20.82 8.75-51 66.66-45.54 73.3 0 16.27 2.37 14.76 9.74 0 20.82l-10.56 20.81c-16.78 9.81-33.19 10.31-49.17 0-6.61-4.2-11.18-11.07-13.57-20.81z" fill="#cb836f"/><path d="M155.6 593.43q-1.51-10.57-1-30.36c12.59 2.52 24.7 2.09 36.2-2.22 3.58 9.38 3.35 19.25.2 29.49-8.6 14.02-20.49 14.66-35.4 3.09z" fill="#ca8470"/><path d="M250.22 217.49C227 247 200.44 243.41 172.09 222c6.94-2.9 12.24-6.76 14.6-12.37 1.45-3.42 1.8-7.49.78-12.37 16 10.31 32.39 9.81 49.17 0a46.36 46.36 0 002.43 9.65c2.56 6.62 6.41 9.78 11.15 10.58z" fill="#cb836f"/><path d="M151.37 311.7c-23 27.33-22.67 70.37-13.48 119.43-15.1-9.44-22.22-24.23-18.29-46.43-6.16-31.61-5.56-60.11 9.14-82.15-.23-10.12 1.33-18.81 5.95-25 11 3 19.5 8.59 24.73 17.49-1.57 7.07-3.89 13.14-8.05 16.66z" fill="#cc8571"/><path d="M152.79 613.54l2.81-20.11c14.91 11.61 26.8 10.93 35.39-3.09a25.86 25.86 0 018 18c-3.6 10.23-9.18 19.24-20.11 24.93-11.42-3.27-19.77-10.27-26.09-19.73z" fill="#0d6094"/><path d="M159.42 295c-5.23-8.9-13.74-14.47-24.73-17.49-1.76-26.18 15.54-42.07 37.4-55.5 28.35 21.39 54.9 25 78.13-4.53 33.68 9.24 47.73 29.57 49.16 57-11-1.56-20.86 4.26-30.17 14.17a99.72 99.72 0 007.24 20.41c-21.11 12.05-36 19.73-52.71 21.38a77.07 77.07 0 01-21.33-1c-13.64-2.4-29.73-8.13-51-17.77 4.12-3.49 6.44-9.56 8.01-16.67z" fill="#fcc341"/><path d="M229.4 590.41c-.64-12.29-.43-23.44 2-31.56 12.65 4.73 32.58-1.64 34.58 1s3.25 29.59-1.38 30.56c-11.92 10.59-23.66 10.9-35.2 0z" fill="#ca8470"/><path d="M250.22 135.75c-10.26-27.15-54-40.43-70.59-11.47 9.37-21.11 23.23-30.16 47.37-24.12 15.42-15.26 23.45-13.49 21.42 11.46 23.35 8.91 31.2 17.23 1.8 24.13z" fill="#f8be40"/><path d="M264.59 590.41c-11.91 10.56-23.65 10.9-35.19 0-1.08-1.3-8.23 14.89-7.24 17.09 1.36 3 19.71 28.21 21.52 25.54 2.27 1.67 24.42-21.23 26.95-25.74 2.05-3.67-4-16.89-6-16.89" fill="none" stroke="#000" stroke-miterlimit="10" stroke-width=".96"/><path d="M229.4 590.41c-.64-12.29-.43-23.44 2-31.56 12.65 4.73 32.58-1.64 34.58 1s3.25 29.59-1.38 30.56h0" fill="none" stroke="#000" stroke-miterlimit="10" stroke-width=".96"/><path d="M266 559.85c24.78-36.38 25.64-73.35 14.49-110.6 4.46-7.94 7.9-20.74 10.08-35.5 5.78-39 2.68-91.82-14.11-104.67-21.11 12.05-36 19.73-52.71 21.38a77.07 77.07 0 01-21.33-1c-13.64-2.4-29.73-8.13-51-17.77-23 27.33-22.67 70.37-13.48 119.43q1.49 7.85 3.23 15.9c-11.39 34-2.76 73.9 13.47 116 12.59 2.52 24.7 2.09 36.2-2.22 15.23-32.1 16.49-66.87 9.85-103.16 6-9.19 10-24.36 13.28-41.83.91 15.69 2.56 29.61 6.84 37-11 25.86-4.38 63.16 10.65 106m-90.74-190.2a41.29 41.29 0 0024.13-27.75m94.52-13.68s-4.43 22.37 25.73 24.66" fill="none" stroke="#000" stroke-miterlimit="10" stroke-width=".96"/><path d="M201.85 344.88c0 .22.05.46.07.71.35 6.31-4.09 23.24 6 28.65m-.04 10.46s8.87 17.7 6 31.16M174.51 330a90.12 90.12 0 0027.9 11 2.07 2.07 0 00.42.08 73.42 73.42 0 0016.93 1.31c12.85-.48 24.58-4.21 35.58-8.81" fill="none" stroke="#000" stroke-miterlimit="10" stroke-width=".96"/><path fill="none" stroke="#000" stroke-miterlimit="10" stroke-width=".96" d="M223.74 330.46l-3.98 11.89-.01.06m-17.34-12.94v11.49m12.06 3.92v19.11m61.98-54.91a99.72 99.72 0 01-7.24-20.41c9.31-9.91 19.2-15.73 30.17-14.17-1.43-27.44-15.48-47.77-49.16-57-23.22 29.5-49.78 25.91-78.13 4.5-21.86 13.43-39.16 29.32-37.4 55.5 11 3 19.5 8.59 24.73 17.49-1.57 7.1-3.89 13.17-8 16.69"/><path d="M163.34 245.24c-6.69 19.32-4.05 30.36 3.25 36.54 13.79 11.63 44.22 5.89 60.1 5.69m35.59-48.56q15 31.88 2.63 42.85-5.82 5.17-17.71 5.71" fill="none" stroke="#000" stroke-miterlimit="10" stroke-width=".96"/><path d="M159.42 295a12.78 12.78 0 007.17-13.23v0m98.32-.01l4.3 6.91m30.17-14.17s3.25 20.5 4.53 20.5c16.33 19.6 18.1 51.58 10.86 73.6 11.6 23.25-12.87 54.6-17.2 54.6s-7-9.46-7-9.46m-152.68 17.39c-15.1-9.44-22.22-24.23-18.29-46.43-6.16-31.61-5.56-60.11 9.14-82.15-.23-10.12 1.33-18.81 5.95-25m37.4-55.55c6.94-2.9 12.24-6.76 14.6-12.37 1.45-3.42 1.8-7.49.78-12.37 16 10.31 32.39 9.81 49.17 0a46.36 46.36 0 002.43 9.65c2.56 6.6 6.41 9.76 11.15 10.56" fill="none" stroke="#000" stroke-miterlimit="10" stroke-width=".96"/><path d="M236.64 197.28l10.56-20.81c14.76-11.08 16.27-18.45 0-20.82-6.64-45.54-64.55-51-73.3 0-14.34-.82-9.05 9 0 20.82 2.39 9.74 7 16.61 13.57 20.81" fill="none" stroke="#000" stroke-miterlimit="10" stroke-width=".96"/><path d="M239.07 206.93c18.11.36 33.76-9.65 38.29-31.37 23.12-17 22.55-41.87 8.45-71.18-4.95-20.24-18.1-33.1-46.74-32-20-9.39-43.21-7.51-70.29 8.45-23 8.23-33 25.36-23.54 55.8-8.08 19-7 34.36 5.73 44.95.54 24.73 12.37 34.17 35.72 28.05h0" fill="none" stroke="#000" stroke-miterlimit="10" stroke-width=".96"/><path d="M250.22 135.75c-10.26-27.15-54-40.43-70.59-11.47 9.37-21.11 23.23-30.16 47.37-24.12 15.42-15.26 23.45-13.49 21.42 11.46 23.35 8.91 31.2 17.23 1.8 24.13zM155.6 593.43l-2.81 20.11c6.32 9.45 14.67 16.45 26.14 19.71 10.93-5.69 16.51-14.7 20.11-24.93a25.86 25.86 0 00-8-18c-8.64 14.04-20.53 14.68-35.44 3.11zm35.19-32.58c3.58 9.38 3.35 19.25.2 29.49m-36.4-27.27q-.5 19.77 1 30.36" fill="none" stroke="#000" stroke-miterlimit="10" stroke-width=".96"/></svg>
