<svg xmlns="http://www.w3.org/2000/svg" xmlns:xlink="http://www.w3.org/1999/xlink" viewBox="0 0 700 700"><defs><linearGradient id="a" x1="379.37" y1="492.04" x2="409.16" y2="492.04" gradientTransform="rotate(35.9 819.325 33.692)" gradientUnits="userSpaceOnUse"><stop offset="0" stop-color="#94cfed"/><stop offset=".5" stop-color="#fefeff" stop-opacity=".5"/><stop offset="1" stop-color="#91cee1"/></linearGradient><linearGradient id="b" x1="415.33" y1="466.09" x2="445.12" y2="466.09" xlink:href="#a"/></defs><path fill="#f4e0a4" d="M.03 0H700v699.97H.03z"/><path d="M209 181c0 9.26 38.86 9.26 38.86 0S209 171.79 209 181z" fill="#e9e9ea"/><path d="M526.11 386.33c-3.91-1.62-3.42 2.95-8.07 1.33-2.22-.77-2.16.75-4.11 5.72-6.26 15.9-22 19.36-25.13 5.73-.39-1.69.38-9.76-6.71-15.18-4.12-3.16-4-6.41-2.4-9.6 4.25-8.37 7.6-7.43 11.78-6.12 12.47 3.91 13.58 5.06 15.79 2.85.64-.63 1.94-1.45 2.47-1.2 3.22 1.51 5.47-1.54 8.46-1.15 2.25.31 11.58-22.93 19.59-16.06s1.08 14.13 5.3 21.24c4.58 7.73 4.92 21.55-16.97 12.44z" fill="#6a2829" stroke="#000" stroke-miterlimit="10" stroke-width=".4"/><path d="M515.42 387.59c-2.31-4.67-3.76-11.83-4.51-16.54a4.21 4.21 0 00.62 0 9.11 9.11 0 003.38-.86 7.69 7.69 0 012.75-.74 3 3 0 01.42 0h.15a1.5 1.5 0 00.83-.28 128.1 128.1 0 013.94 16.4 6.45 6.45 0 00-1 .72 3.17 3.17 0 01-2.08.91 5 5 0 01-1.56-.3 3.58 3.58 0 00-1.18-.24 2 2 0 00-1.76.93z" fill="#6a2829"/><path d="M517.66 370.3h.9a134.61 134.61 0 013.54 14.85c-.25.17-.46.34-.66.49a2.39 2.39 0 01-1.58.74 3.87 3.87 0 01-1.29-.26 4.4 4.4 0 00-1.45-.28 2.71 2.71 0 00-1.44.39 67.16 67.16 0 01-3.82-14.35 10.45 10.45 0 003.35-.91 7.21 7.21 0 012.45-.68m1.74-2.53c-.49.59-.88.94-1.17.94h-.53c-2.12 0-4 1.6-6.13 1.6a4.23 4.23 0 01-1.62-.33c.84 5.56 2.57 14.46 5.53 19.38.51-1.28.91-1.86 1.68-1.86a3 3 0 01.92.19 5.54 5.54 0 001.82.35c2 0 2.64-1.55 4-1.94-.89-4.95-2.63-13.3-4.51-18.3z"/><path d="M520.51 471.25c4.93-1.25 7.89-2.63 8.83-2.47 2.9.64 5.29 16.7 2.87 18.3-20.65 13.77-59.33 2-67.68 1.31-9.67-.79-12.28-6.54-14.62-12s3.12-10.72 6-13.6c23.36 7.04 40.61 14.48 64.6 8.46z" fill="#f7e9de"/><path d="M457.49 463.25c0-10.26-.31-12 13.31-13.54 16.17 8.36 13 15.23 45.55 21-1.14 1.78-.36 1.75-5 2-21.54 1.29-21.28.45-53.86-9.46z" fill="#dbac8e"/><path d="M553.78 457.65a12.42 12.42 0 014.57-4c3.13-1.31 2.61-2.87 5.74-2.35s6.28.26 6.28 2.61 1.82 3.4 0 5.49c-2.27 2.59 3.69 5.38.81 11-1.07 2.07-8.18 8.55-8.33 9.42-.18-4.11-2-14.3-3.2-15.78s-3.32-4.56-5.87-6.39z" fill="#e2baa0"/><path d="M516.35 470.68c6.49-10.21 8.23-13.12 11.69-13.65 4.08-.63 7.7-.63 11.15 1.42 3.24 1.92 4 .23 5 4.32.25 1 9.67 32.52 9.67 51.23 0 .14-.75 64.31.05 68.4 2.27 11.75 2.44 11.42 2 11.79-10.92 8.47-16.85 5.14-29.23-4.15-1.06-.79.86-6.91 1.31-8.62.52-2.1 1.82-35.54 2.61-39.73s3.91-15.93 3.91-22.21c0-5.18-.06-50.19-5.22-50.7-.41-.11-.42 0-9.66 2.39-.95-.1-2.06-.27-3.28-.49z" fill="#ecd2c1"/><path d="M539.19 458.45c8-4.27 11.51-5.84 20.46 5.54 3.43 4.36 4.44 38.91 4.44 42.43 0 18.76 8 71.66 8.41 72.92.78 4.66 1.5 1.66-16.24 14.66-3.9-21.42-2.36.07-2.36-80 0-18.89-9.52-50.64-9.67-51.23-1.02-4.09-1.8-2.42-5.04-4.32z" fill="#fbebde"/><path d="M515.36 472.28c7.4-1.16 4.76-1.06 4.32-1.11-5.48 1.41-4.7 1.65-3.33-.49-32.55-5.74-29.38-12.61-45.55-21-13.46 1.49-13.31 3.15-13.31 13.54 22.74 6.94 36.03 12.49 57.87 9.06z" fill="none" stroke="#000" stroke-miterlimit="10" stroke-width=".62"/><path d="M457.49 463.25l-1.59-.48c-2.87 2.88-8.31 8.11-6 13.6s4.95 11.23 14.62 12c8.75.7 46.74 12.65 67.68-1.31.66-.44 1.91-7.36 0-12.89-3.3-7.65-.3-5.8-11.66-2.94" fill="none" stroke="#000" stroke-miterlimit="10" stroke-width=".62"/><path d="M526.6 587.23c.24-1.6 1.16-4.73 1.44-5.81.52-2.1 1.82-35.54 2.61-39.73s3.91-15.93 3.91-22.21c0-4.13.05-50.18-5.22-50.7-1.23-.32-7.12 3-13 1.9 6.49-10.21 8.23-13.12 11.69-13.65 4.08-.63 7.71-.65 11.15 1.42m23.67 21.32c0 38.25 8.91 97.34 9.65 99.57M556.26 594c-3.9-21.42-2.36.07-2.36-80 0-18.89-9.52-50.64-9.67-51.23-1-4.09-1.8-2.42-5-4.32 5.34-2.83 9.65-5 14.59-.8" fill="none" stroke="#000" stroke-miterlimit="10" stroke-width=".62"/><path d="M553.78 457.65a12.42 12.42 0 014.57-4c3.13-1.31 2.61-2.87 5.74-2.35s6.28.26 6.28 2.61 1.82 3.4 0 5.49c-2.27 2.59 3.69 5.38.81 11-1.07 2.07-8.18 8.55-8.33 9.42-.18-4.11-2-14.3-3.2-15.78s-3.32-4.56-5.87-6.39zm18.72 121.69c.13.44 2.14 7.23 2.3 7.59-.32.18-9.18 11-11.75 13.83s-12 3.39-20.39 3.39-18.29-7.84-18.29-7.84c3.8-15 1.3-7.06 2.36-6.27 15.37 11.53 18.89 11.47 29.53 3.92 17.91-12.71 17.02-9.96 16.24-14.62z" fill="none" stroke="#000" stroke-miterlimit="10" stroke-width=".62"/><path d="M520.11 259c4.24-8.77 28.14-5.89 37.8-2.82 4.68 1.49 6.58 4.26 6.58 9.14 0 31.71-38.89 33.7-44.44 7.52-.58-2.76-.62-5.64-1-8.45-.45-3.13-7.06-4.77-12.32-2.07-3.7 1.9.87 9.91-6.94 20.39-11.24 15.09-41.85 9-39.95-18.78a7.87 7.87 0 015.62-7.43c10.39-3.43 34.6-6.4 38.67 2.47 10.07-2.07 5.87-2.1 15.98.03zm5.19-.61c-2.28.27-3 1.18-2.51 3.31zm-60 1.12c-2.16.14-2.8 1-2 2.72z"/><path d="M480.69 180.05c-3.79 3.22-4.24 2.67-8.5 2.67 0 0-5.67-5.33-5-11.68.87-8.24-1.29-35.61.67-36.4 1.67-.67 6.34-.67 8.34 0 7.01 2.36 3.96-.39 4.49 45.41zm75.7-43.14c1.91.77-.19 28.32.66 36.4.67 6.35-5 11.69-5 11.69-4.47 0-4.71.54-8.5-2.68.25-21.56-.21-38.79.15-42.07.44-3.89 9.73-4.52 12.69-3.34z" fill="#262829"/><path d="M487.89 75.88l3.33 6.35c-18.15 9.59-21.1 31.11-23.36 52.41h-6.69c.77-30.76 6.17-43.88 26.72-58.76zm75.17 61.03c-7.91 0-6.62.46-6.82-1.38-2.37-21.7-5.6-41.74-23.23-51l3.34-6.34c21 15.18 25.96 28.33 26.71 58.72z" fill="#bdbbaf"/><path d="M536.35 78.15L533 84.49c-12.48-8-26.51-8.26-41.79-2.26l-3.33-6.35c17.45-8.28 33.66-7.99 48.47 2.27zm-80.18 66.51l4.08-1.63c-3.59 35.14 4.52 35.75-4.08 30zm111.9 2.27c0 31.6 1.73 27.23-4 31.08 3.03-36.55-3.83-32.91 4-31.08z" fill="#ae1e20"/><path d="M564 178c-.46 5.57.65 7-12 7 0 0 5.67-5.34 5-11.69-.86-8.24 1.3-35.61-.66-36.4h6.68c2.61 21.78 2.45 23.92.98 41.09zm-102.83-43.36h6.69c-1.91.77.18 28.31-.67 36.4-.67 6.35 5 11.68 5 11.68-12.62 0-11.51-1.42-12-7-1.41-17.03-1.59-19.2.98-41.08z" fill="#82221c"/><path d="M461.17 134.64c.77-30.76 6.17-43.88 26.72-58.76l3.33 6.35c-18.15 9.59-21.1 31.11-23.36 52.41 2.55-1 12.21-.83 12.68 3.34.36 3.27-.1 20.87.15 42.07-3.77 3.21-4.2 2.67-8.5 2.67" fill="none" stroke="#000" stroke-miterlimit="10" stroke-width="1.06"/><path d="M460.25 143c1.22-10.11-1-8.39 7.61-8.39-1.91.77.18 28.31-.67 36.4-.67 6.35 5 11.68 5 11.68-12.62 0-11.51-1.42-12-7" fill="none" stroke="#000" stroke-miterlimit="10" stroke-width="1.06"/><path d="M460.25 143c-3.59 35.14 4.52 35.75-4.08 30v-28.34zm76.1-64.85c21 15.22 26 28.37 26.71 58.76" fill="none" stroke="#000" stroke-miterlimit="10" stroke-width="1.06"/><path d="M552.05 185c-4.27 0-4.71.54-8.5-2.68.53-45.8-2.51-43 4.49-45.41 2-.67 6.68-.67 8.35 0-2.23-20.91-5.21-42.83-23.39-52.42" fill="none" stroke="#000" stroke-miterlimit="10" stroke-width="1.06"/><path d="M564 178c-.46 5.57.65 7-12 7 0 0 5.67-5.34 5-11.69-.86-8.24 1.3-35.61-.66-36.4h6.68c.28 2.44.71 6.34 1 9.08" fill="none" stroke="#000" stroke-miterlimit="10" stroke-width="1.06"/><path d="M568.07 146.93c0 31.6 1.73 27.23-4 31.08 3.03-36.55-3.83-32.91 4-31.08zm-76.85-64.7c15.28-6 29.31-5.76 41.79 2.26l3.34-6.34c-14.81-10.26-31-10.55-48.46-2.27" fill="none" stroke="#000" stroke-miterlimit="10" stroke-width="1.06"/><path d="M244.68 147.49c-1 .1 1-2 3.09-4.47.68-.78 6.3-2.79 9.07-1.42 3.11 1.55 3.91 3.41 6.61 5.73 1.08.93 1.88-.1 2.1 0 0 .08.32.62.24.71-4.79 1.76-9.69-13.51-21.11-.55zm-49.52-1.59c2 2.14 4.12-3.1 9-5.15 3.39-1.46 8.7 1.62 9 2 2.31 3 3.69 4.79 2.81 4.66-9.45-12.16-17-1.21-18.46-.86-2.92.61-3.92-.37-2.35-.65z" stroke="#000" stroke-miterlimit="10" stroke-width=".62"/><path d="M205.62 135.43c-10.39 1.2-10.71 8.91-10.84 2.95 2.8-.81 3.92-4.13 10.84-2.95z" fill="#f7d1bc" stroke="#000" stroke-miterlimit="10" stroke-width=".62"/><path d="M197.16 207.8c2.35 0 3.13-.78 5.48-2s3.53-.39 7.45-2.74 4.7 0 6.4 0c1 0 2.39 1 3.27 1.84 5 1.22.15 6.39-5 6.78-7.55 2.83-2.12 14.5-1.17 26.65.37 4.87 2 13.88 2.11 14.71-3-9.54-3.19-6.61-18.46-23.54-9.71-10.72-7.41-21.7-.08-21.7zm43.5-1.17c14 0 5.89-2.76 17.85-4.58 6.87-1.05 4.1 2.62 10 4.58s3.91 1.17 6.11 4.7 2.12 6.27.95 10.58c-13.27 8.28-19.48 21.55-30.75 33.9-.5-8.59 6-22 4.87-37.95-.6-8.49-9.03-3.03-9.03-11.23z" fill="#c4c9cf" stroke="#000" stroke-miterlimit="10" stroke-width=".62"/><path d="M215.18 137a17.34 17.34 0 00-9.56-1.6c-6.88-1.17-8.07 2.15-10.84 2.95-.27-5.74 9.25-7.93 14.12-5.89a21.86 21.86 0 016.28 4.54zm26.44 1.52c-5.18-4.69 19.87-12.57 27.44 1.73-10.38-3.7-18.31-8.25-27.44-1.73z" fill="#5f4f3f" stroke="#000" stroke-miterlimit="10" stroke-width=".62"/><path d="M205.46 153.34c0-3.18 2.83-3.89 3.44-.88-.48-1.68-2-1.19-1.69.52s1.78 1.62 1.78.08c.26 3.94-3.53 4.18-3.53.28zm48.94-2.81c-2.34 0-2.34 5.62 0 5.62s2.35-5.62 0-5.62zm.7 3.93c-1.18.14-1.46-2.67-.31-2.78s1.47 2.66.31 2.78z" fill="#000004" stroke="#000" stroke-miterlimit="10" stroke-width=".62"/><path d="M207.23 147.57c-4.69 0-4.69 11.23 0 11.23s4.69-11.23 0-11.23zm0 8.58c-2.34 0-2.34-5.62 0-5.62s2.27 5.62 0 5.62zm47.17-8.58c-4.69 0-4.69 11.23 0 11.23s4.69-11.23 0-11.23zm0 8.58c-2.34 0-2.34-5.62 0-5.62s2.35 5.62 0 5.62z" fill="#97928c" stroke="#000" stroke-miterlimit="10" stroke-width=".62"/><path d="M269 151.8c-1-19.06-27.61-22.73-33.79-4.77a20.47 20.47 0 00-11.17 0 17.4 17.4 0 00-18.45-11.58c-21.57 2.49-19.69 34.64 2 34.64a17.39 17.39 0 0017.12-20.4 14.59 14.59 0 019.8 0A17.38 17.38 0 10269 151.8zm-46.66 2.08c-.56 7.2-7.13 13.44-13.81 13.44-4.59 2.29-18.29-5.38-15.59-17.95 3.68-18.25 31.16-14.02 29.43 4.51zm44.1-1.21c0 13.65-17.78 19.88-26.17 9.52-2.08-1.56-4.1-8.35-3.61-9.32-2.02-18.42 29.81-21.87 29.81-.2z" fill="#383641" stroke="#000" stroke-miterlimit="10" stroke-width=".62"/><path d="M178.71 330.78c6.79 4.26-.46 2.6 36.87 6.61l.91-81.64c1.32 1.33 13 7.74 28.33-2-1.85 35.78-1.46 0 .42 80.13 24.56 7.47 21 1.55 28.22 1.59 2.93 0 2.19 5.8 1.42 8.61-.39-1.49-15.51 3.63-23.11 4.17-70.61 5-64-3.4-76.57-6.53-.63 6.89-1.43 1.13 3.51-10.94z" fill="#6a2829" stroke="#000" stroke-miterlimit="10" stroke-width=".62"/><path d="M207.54 137.56c-20 0-19.24 29.79 0 29.79 19.7 0 19.7-29.79 0-29.79zm-.31 21.24c-4.69 0-4.69-11.23 0-11.23s4.69 11.23 0 11.23zm8.65-11.43c-9.45-12.16-17-1.2-18.46-.86-2.83.66-3.83-.33-2.26-.61 3.2 3.42 8.12-13.79 20.09-.21.46.52 1.36 1.78.63 1.68zm49.48.74c-3.39.28-3.72-2.32-7.15-4.53-2.34-1.52-7.89-2.48-13.53 3.91-1 .09.84-1.85 3.09-4.47.68-.78 6.3-2.79 9.07-1.42 4.62 2.31 6.56 7.75 8.62 5.68.47.08-3.56-9.72-13.89-9.72-9.34 0-15.63 8.57-14.88 15.31-1.54 3.07 5.37 16.85 17.56 14.24 13.89-2.53 13.08-19.17 11.11-19zm-11 10.69c-4.69 0-4.69-11.23 0-11.23s4.73 11.23.04 11.23z" fill="#f7d1bc" stroke="#000" stroke-miterlimit="10" stroke-width=".62"/><path d="M269.6 137.77c.23 2.19 1 1.66-.9 1.85-8.4-13.59-32-5.57-27.08-1.1a17.46 17.46 0 00-6.38 8.51 20.47 20.47 0 00-11.17 0 17.49 17.49 0 00-8.89-10 21.86 21.86 0 00-6.28-4.54c-4.07-1.71-12.81-.49-14.09 4.71.7-8.42 6.86-1.5 8.12-10.39.42-3 0-1.88 4.24-2.64s4.25-2.65 6-3.59 5.09-.57 6.79-1.71c1.44-1 6.83-9.52 13.53-5.36 0 0 2.18-2.57 8.56-4.08s5.09 0 7.64 4.08 2.55 1.21 8.49 1.59 3 3.77 2.55 11.33 1.7 1.9 8.49 3.78-.05 3.41.38 7.56z" fill="#f7d1bc" stroke="#000" stroke-miterlimit="10" stroke-width=".62"/><path d="M277.67 153.27c-1.7-2.28 4.23-3.36-.85-8.69-4.14-4.3-6-3.36-6.83-5.09-1.65.17-1.37-.07-.93.76-13.46-4.8-14.24-5.3-16.29-5.12-5.92.52 16.28-1.54 16.28 17.56 0 24.84-38.92 21.84-34.49-3a14.59 14.59 0 00-9.8 0c3.67 19.38-24.62 29.26-33 10-.54 1.79-5.73.8-7.57.41 6.62 14.29 6.77 30 37.14 37.92 4.15 4.13 43.19-.82 56.86-26.18-.86.42-1.45.32-1.76-.78-1.73-6.06 4.49-13.44 1.24-17.79zM214.12 180c-3.58-1.3-.78-.18 2.06-.75 18-3.07 12.63-.43 19.29.21 1.69.17 1.52.13 1.69.21 3.32 1.58 2.6.36 7.52.79-12.99 3.25-17.98 4.13-30.56-.46z" fill="#f7d1bc" stroke="#000" stroke-miterlimit="10" stroke-width=".62"/><path d="M278.65 147.16c-11.53 6.65-9.48 6.74-9.95 2 0-.15 6.43-3.35 8.47-4.25a7.91 7.91 0 011.48 2.25z" fill="#383641" stroke="#000" stroke-miterlimit="10" stroke-width=".62"/><path d="M210.87 217.86c1.49-12.68 13.23.82 12-19.45 4.23 1.13 17.29-.42 17.29-.57.5-.06.58-1.12.45 7-.08 4.68-.61 4.84 3.15 6.92 3.53 2 5.49.52 5.88 6.14 1.08 15.44-4.36 26.36-4.86 35.9-2.41 1.53-9 5.39-14.22 5.39-6.53 0-12.54-1.83-14.11-3.4-1.85-7.63-5.71-36.79-5.58-37.93zM126.6 407.32c-3.1 1-.77-20.42 1.56-23 14.55-15.95 13.57-17 18.24-45.28 7.24 4.44 10.29 9.41 13.91 10.25 3.83.87 2.58.31-1.57 12.8-4.92 14.75-1.31 11.73-1.31 18.92 0 3.56.26 10.09 1 11.92 6 14-5.75 6.48-5.75 1.3 0-1.56 1.05-5.48-2.35-5.22-4.89.37-9.93 13.39-9.93 18.29 0 2.09.43 9.41-1.36 10.46s-6.22 3.13-6 1.56.5-8.3.5-8.3c-2.87-2.93-4.7-4.32-5.21-6.86.09.02-.17 2.64-1.73 3.16zm163.02-.26c-.57-1-.22-3.66 1.09-7.84 2.47-7.91-8.76-11.92 1.3-23 3.25-3.56-4.7-22.26-4.7-23.92 3.43-8.07 9.7-8.23 18.45-7.73.4 7.6 1.64 27.45 3.67 29.56 2.52 2.62 10.81 15.42 10.28 19.08s.79 11.24 0 12.28-4.33 3.95-4.25 3.95c-8.14 7.14-8.55 6.46-8.55 11 0 2.65-2.61.48-4.82 0s.38-7.1-.15-9.45.53-10.19 0-14.37-2.87-6-4.69-4.19-.27 4.19 0 8.11-7.07 7.57-7.63 6.52z" fill="#f7d1bc" stroke="#000" stroke-miterlimit="10" stroke-width=".62"/><path d="M279.81 349.31c-1.48-2.09 1-4.46 1-4.46-.86-2.36-1.54-5.68-.82-8.27.58 1.63 2.33.35 3.39-.08 14.78-5.91 9-4.2 25.79-6 2.68-.29 2.39 2.64 1.65 5.22-1.31 4.6 4.29 9.66-1.4 9.13-4.05-.37-9.73-.7-13.75 0-6.2 1.08-8.21 7.45-8.37 7.45-1 2.46-1.82-.64-3.66-.12s-2.34-.78-3.83-2.87zm-134.4-10.71c-4.93 0-8.13.59-5.22-5.23 1.77-3.55 1.56-2.35 0-7.32 1.93-5.18 4.87-6.13 4.44-5.22 18.62 7 14.52 3.6 25.87 16.56 6.08 6.93.09 4.2 1.05 7.46 0 9.58-3.66 7.29-8.62 5.33-10-4-7.61-5.37-14.38-9.75-1.12-.73-4.17-2.67-3.14-1.83z" fill="#1b2026" stroke="#000" stroke-miterlimit="10" stroke-width=".62"/><path d="M153 303.84c1.83-3.4-.52-9.67 1.31-12.8 12.24-21.07 7.88-59.34 23.29-69.5a29.41 29.41 0 018.08-3.66c9.86 14.73 3.84 21.3-1.06 31.34-3.61 23.48 2 34.77-1.65 38.94-3.21 3.64-1.36 25.16-8.66 40.21-4.32 8.95-3.49 9.4-4 8.84-10.5-12.76-8.67-10-25.72-16.38 1.48-3.02 6.81-14.05 8.41-16.99zm122-13.07c-2.41-12.06 3.33-14.5 1.31-44.95 1-5.15 3.57-13.7 7.05-17.77 4.72-5.48 4.7-1.56 6.79 0 5.95 4.46 4.8 34.43 12.29 58 1.83 5.75 3.92 8.36 2.88 12s1 5.75 2.87 12.28c1.72 6.17 1.17 20.11 1 20.13-16.78 1.8-11 .09-25.79 6-1.58.63-3.64 2.22-3.58-1.57s-1.39-12 0-18.55-3.74-20.34-4.82-25.57z" fill="#393c45" stroke="#000" stroke-miterlimit="10" stroke-width=".62"/><path d="M175.2 326.57c5.44-10.28 4.88-35.14 7.76-38.41 3.72-4.24-2-15.29 1.65-38.94 4.74-9.72 10.17-16.43 2.61-29.07a25.27 25.27 0 00-1.57-2.29c5.65-1.68 4.71-1.32 5.44-1.83-.52 13.72 24.65 27.15 24.65 37.08 1.1 2.2.78.07-.16 84.28-37.34-4-30.08-2.35-36.87-6.61-4.88-3.06-4.89-1.61-3.51-4.21zm70.01-71.2c11.36-12.75 14.27-20.77 26.66-30.76 6.84-5.5 6.09-3.55 9.95-2.7 2.7.6 4.19 2.9 4.19 3.69-5.17 3.06-8.54 14.34-9.67 20.22.26 3.92 1.3 18.82 0 23.78-6.3 23.87 6 35 3.47 46.78-1.1 5.18-.4 11.35-.1 15.63l-4.58 4.62c-1.72-3.74-8.06 2.85-16.56.76-11.79-2.89-5.07-1-13.33-3.5-1.24-52.68-2.68-70.41-.03-78.52z" fill="#383b44" stroke="#000" stroke-miterlimit="10" stroke-width=".62"/><path d="M175.2 341.73c2.09.52 13.33 6.53 19.86 7.06 68.68 5.47 78.68-9.05 79.82-4.7 7.39 27.94-.33 27.37 4.33 57.74 1.35 8.81 1.17 8-7.34 10.68-53.27 16.7-88.12 1.33-88.12.42-14-6.24-9.32-7.53-10.9-20.77-1.13-9.5 1.49-41.07 2.35-50.43z" fill="#565a65" stroke="#000" stroke-miterlimit="10" stroke-width=".62"/><path d="M286.53 640.42c-13.5-2.13-4.33-20.49-1.83-34.23.52-2.88-1.83-16.46-2.09-18.55 4.25-2.3 18.2-5 18.29-5a10 10 0 016.53 1.83c2.52 10.69-3.21 1 10.46 33.45a31.11 31.11 0 012.11 14.4c-.52 9.47-10.53 9-19.07 10.19-5.78.78-9.44-1.3-14.4-2.09z" fill="#6a6e79" stroke="#000" stroke-miterlimit="10" stroke-width=".62"/><path d="M191.15 636c1-12 6.91-15.19 13.84-27.7 1.31-2.35 2.1-6.27 3.93-8.36 3-3.45 2.75-15.6 7.23-14.87 8.93 1.46 15.77-3.9 17.06 1.28a4.82 4.82 0 010 3.14c.65 3.88 3.61 19.76 2.1 23.17-1.31 3-3.4 2.17-3.4 5.57s1.57 13.07-.26 15.94-3.13 8.19-6.53 8.54c-3.68.37-25.39 5.33-30.32 0-2.09-2.29-3.92-3.59-3.65-6.71z" fill="#696d78" stroke="#000" stroke-miterlimit="10" stroke-width=".62"/><path d="M183.75 412.93c10.24 4.58 21.34 7.54 40.31 7.5 0 5.15-.14 14.63-.51 18-6.16 55 6.64 69.92 4.7 98.52-1.06 16 .82 34.1 2.12 47.07-1.65.21-11.53 1.43-14.22 1-38.21-125.64-3.85-69.73-32.4-172.09zm47.14 7.32c15.53-.87 31.84-4.87 41-7.74-5.71 61.08-6.73 49.79.28 63.28 13.79 26.48 16.24 44.23 29.5 106.81-.93 0-14.3 2.88-16.42 3.78-49.13-144.31-46.17-90.89-54.36-166.13z" fill="#333" stroke="#000" stroke-miterlimit="10" stroke-width=".62"/><path d="M224.2 185.94c2.88 1.45 4.62 1 7.94.5m19.79-25.62c.39 0 2-2.35 4.71-2.35h3.53m-50.83 3.14a12.27 12.27 0 00-6.94-2.91m63.39-10.7c-3.13 3.12-9.37-13.86-21.11-.53-1 .1 1-2 3.09-4.47.68-.78 6.3-2.79 9.07-1.42 3.11 1.55 3.91 3.41 6.61 5.73 1.08.93 1.88-.1 2.1 0m-49.67.06c-9.45-12.16-17-1.21-18.46-.86-2.83.65-3.83-.33-2.26-.61 3.2 3.42 8.12-13.79 20.09-.21.46.52 1.36 1.78.63 1.68zm85.77 435.23a11.28 11.28 0 015.78 1.9c2.42 10.24-3.07 1.33 10.46 33.45a31.11 31.11 0 012.11 14.37c-.52 9.47-10.53 9-19.07 10.19-5.75.78-9.41-1.3-14.37-2.09-13.5-2.13-4.33-20.49-1.83-34.23.52-2.88-1.83-16.46-2.09-18.55 0 0 1.24-.68 2.62-1.26M230.37 584c2.87-.34 3.55 4 2.84 5.46.65 3.88 3.61 19.76 2.1 23.17-1.31 3-3.4 2.17-3.4 5.57s1.57 13.07-.26 15.94-3.13 8.19-6.53 8.54c-3.68.37-25.39 5.33-30.32 0-2.09-2.27-3.92-3.57-3.65-6.71 1-12 6.91-15.19 13.84-27.7 1.31-2.35 2.1-6.27 3.93-8.36 3-3.46 2.79-15.68 7.23-14.87" fill="none" stroke="#000" stroke-miterlimit="10" stroke-width=".62"/><path d="M224.06 420.43c-.1 16.59-2.42 47.71-2.6 48.82-1.2 7.22 6.79 28.93 6.79 89.64 0 3.57 1.52 19.17 2.12 25.12-1.65.21-11.53 1.43-14.22 1-15.94-52.44-21.09-72.48-21.09-127.29 0-4.12-9.85-39.58-11.31-44.83m88.12-.38c-5.71 61.08-6.73 49.79.28 63.28 13.79 26.48 16.24 44.23 29.5 106.81-.93 0-14.3 2.88-16.42 3.78-49.11-144.31-46.15-90.89-54.34-166.13" fill="none" stroke="#000" stroke-miterlimit="10" stroke-width=".62"/><path d="M274.88 344.09c5.67 21.43 2.76 25.11 2.76 34.49 0 20.94 3.52 28.64 1.57 31.09-1.08 1.35-29.57 10.73-55.15 10.76-26 0-40.31-7.36-40.31-7.5-9.35-4.17-14.5-2.65-8.82-68.1m112.38 7.47c-1 2.46-1.82-.64-3.66-.12s-2.35-.78-3.84-2.87 1-4.46 1-4.46c-.86-2.36-1.54-5.68-.82-8.27m29.27-6.08c4.5-.46-.42 5.93 2.35 11.12 2.24 4.2-2.94 3.11-5.85 2.95" fill="none" stroke="#000" stroke-miterlimit="10" stroke-width=".62"/><path d="M286 225.6c2.2-1.33 2.57 1.25 4.17 2.45 5.95 4.46 4.8 34.43 12.29 58 1.83 5.75 3.92 8.36 2.88 12s1 5.75 2.87 12.28c1.72 6.17 1.17 20.11 1 20.13-16.78 1.8-11 .09-25.79 6-4.16 1.66-3.32 1-3.68-4.49m35.72 77.47c-8.11 7.1-8.55 6.44-8.55 11 0 2.65-2.61.48-4.82 0s.38-7.1-.15-9.45.53-10.19 0-14.37-2.87-6-4.69-4.19-.27 4.19 0 8.11-7.06 7.58-7.62 6.53-.22-3.66 1.09-7.84c2.47-7.91-8.76-11.92 1.3-23 2.62-2.87.27-5.74 0-8.09-.18-1.63-3-10.51-4.7-15.83 0-.62 3.17-6.55 8.37-7.45a47.68 47.68 0 0110.08-.28c.4 7.6 1.64 27.45 3.67 29.56 2.52 2.62 10.81 15.42 10.28 19.08s.79 11.24 0 12.28a50.54 50.54 0 01-4.26 3.94zm-9.59-15.19c2 4.27 1.9 3.48 1.9 22.11m4.28-23.94c-1.56 11.85 2.19 7.24-1.48 19.86m5.49-19.86c0 17-.6 7.7-.6 17M146.4 339.06c-1.05-.65-.4-.46-4.64-.46-5.83 0-.26-6.61-.26-8.37-1.22-3.88-2.13-4 .78-8.1a4.16 4.16 0 012.54-1.7m25.68 16.96c6 7 .09 4.2 1.05 7.46 0 9.58-3.66 7.29-8.62 5.33" fill="none" stroke="#000" stroke-miterlimit="10" stroke-width=".62"/><path d="M162.93 350.18c-10.64 29.91-5.5 21.22-5.5 30.85 0 3.56.26 10.09 1 11.92 6 14-5.75 6.48-5.75 1.3 0-1.56 1.05-5.48-2.35-5.22s-3.66 3.13-5.75 5.49c-6.3 7.08-2.7 21.59-5.54 23.26-1.78 1-6.22 3.13-6 1.56s.5-8.3.5-8.3c-2.87-2.93-4.7-4.32-5.21-6.86 0 0-.26 2.62-1.82 3.14-3.1 1-.77-20.42 1.56-23 14.55-15.95 13.57-17 18.24-45.28 10.42 6.35 5.61 6.77 16.62 11.14zm24.54-129.61c-.06-.09-.32-.56-.5-.82m1.79 3.25c-.08-.18-.17-.36-.26-.54m.73 1.54l-.18-.41m.69 1.73l-.06-.15m.95 10.95a18.2 18.2 0 00-.72-10.32m-11.2 104.98a40.31 40.31 0 00-4.41-2.41" fill="none" stroke="#000" stroke-miterlimit="10" stroke-width=".62"/><path d="M275.13 336.63c.89 1.95.2 5.81-.25 7.46-.32-1.23-15.79 3.65-23.11 4.17-70.61 5-64-3.4-76.57-6.53-.63 6.88-1.43 1.12 3.51-11 6.79 4.26-.46 2.6 36.87 6.61l.91-81.64" fill="none" stroke="#000" stroke-miterlimit="10" stroke-width=".62"/><path d="M275.56 221.91c3.15-2 2.74-.78 6.26 0a5.35 5.35 0 014.18 3.69c0 .28-6.34 2.88-9.67 20.22 2 29.93-3.6 33.49-1.31 44.95 1.05 5.23 6.17 19.08 4.78 25.61-1.1 5.18-.4 11.35-.1 15.63-7.18 7.26-3.13 3.49-6.25 3.47-7.25 0-3.62 5.89-28.22-1.59-1.17-49.6-2.55-71.53-.39-77.54m.37-.98c-.42 1.26-.37 1.12-.4.44m-59.18-37.94c.16 0 6.53 9.51 5.15 17.48m24.95 17.73c-2.33-7.36-3.67-8-6.5-10.91-19.17-19.61-18.14-18.86-18.14-29.27 0-3.14 3.71-5.1 6.07-5.1s3.13-.78 5.48-2 3.53-.39 7.45-2.74 4.7 0 6.4 0c1 0 2.39 1 3.27 1.84 2.88.71 2.5 1.44 1.43 3.44-1 1.81-2.36 3-5.93 3.3m28.18-14.56c1.2 0 17-6.92 23.88-11.81 5.24-3.72 8.29-8.75 10.83-13.46m-94-11.74c8.14 17.57 6.86 29.83 39 38.41m.56.13l.43.11" fill="none" stroke="#000" stroke-miterlimit="10" stroke-width=".62"/><path d="M240.66 206.63c13.44 0 6.41-2.84 17.85-4.58 6.87-1.05 4.1 2.62 10 4.58s3.91 1.17 6.11 4.7 2.12 6.27.95 10.58c-17.8 11.1-31.2 40.66-30.74 31.85" fill="none" stroke="#000" stroke-miterlimit="10" stroke-width=".62"/><path d="M240.67 197.56c1.11 11.09-2.37 11.11 3.13 14.16 3.53 2 5.49.52 5.88 6.14 1.08 15.44-4.36 26.36-4.86 35.9-2.41 1.53-9 5.39-14.22 5.39-6.53 0-12.54-1.83-14.11-3.4-1.8-7.21-5.78-36.45-5.62-37.89 1.46-12.48 13.2.33 12-19.45 4.23 1.13 17.29-.42 17.29-.57m-17.25.57l-.76-.19m-31.59 18.18c-4 1.19-5.09 1.49-5.18 1.54 1.28 0 4.19 6.59 4.82 8.79 2.57 8.83-.24 11.51-5.59 22.49-3.61 23.48 2 34.77-1.65 38.94-3.21 3.64-1.38 25.15-8.66 40.21-4.33 8.95-3.49 9.4-4 8.84-10.5-12.76-8.67-10-25.72-16.38 1.44-3 6.77-14.05 8.36-17 1.83-3.4-.52-9.67 1.31-12.8 12.27-21.12 7.16-58.75 23.58-69.69 2.8-1.87 7.18-3.52 7.5-3.41" fill="none" stroke="#000" stroke-miterlimit="10" stroke-width=".62"/><path d="M243.44 197.08c-5.17 1.91-2.6-.23-1 .14a2.6 2.6 0 001-.14zm-48.63-59.88c1.28-5.2 10-6.42 14.09-4.71a21.86 21.86 0 016.28 4.54m-9.56-1.6c-6.88-1.17-8.07 2.15-10.84 2.95m46.84.14c-2.83-2.56 6.3-9.16 18.54-5.46 5.62 1.7 8.91 6.66 8.9 7.19-13.95-5-14.7-5.6-17.32-4.93m-18.61 34.78c-5.48 3.1-9.06.86-10.93-4.71 2.67-5.06 4.9-7.49 2.75-14.23a12.62 12.62 0 00-2-4.06m-15.72 11.7c-4.69 0-4.69-11.23 0-11.23s4.69 11.23 0 11.23zm47.17 0c-4.69 0-4.69-11.23 0-11.23s4.69 11.23 0 11.23z" fill="none" stroke="#000" stroke-miterlimit="10" stroke-width=".62"/><path d="M256.18 153.34c0 3.72-3.55 3.72-3.55 0s3.55-3.71 3.55 0zm-48.95 2.81c-2.34 0-2.34-5.62 0-5.62s2.23 5.62 0 5.62z" fill="none" stroke="#000" stroke-miterlimit="10" stroke-width=".31"/><path d="M208.36 154.18c-1.15.23-1.71-2.51-.57-2.75s1.68 2.57.57 2.75zm47.46-1.18c.22 1.88-1.56 2-1.75.2s1.55-2.07 1.75-.2z" fill="none" stroke="#000" stroke-miterlimit="10" stroke-width=".16"/><path d="M191.72 159.66c8.27 18.93 36.79 9.76 33-10a14.59 14.59 0 019.8 0c-4.44 24.86 34.49 27.81 34.49 3 0-19.52-27.45-24.12-33.81-5.66a20.47 20.47 0 00-11.17 0 17.39 17.39 0 00-29.22-6.07" fill="none" stroke="#000" stroke-miterlimit="10" stroke-width=".72"/><path d="M207.54 137.56c19.71 0 19.71 29.79 0 29.79s-19.71-29.79 0-29.79zm44.03 29.79c-19.71 0-19.71-29.79 0-29.79s19.71 29.79 0 29.79z" fill="none" stroke="#000" stroke-miterlimit="10" stroke-width=".72"/><path d="M305.7 148.36c-3 3.78-3 3.78-1.7 6.8s-3.4 1.89-5.1 4.16 0 5.28-2.55 5.66-5.94 0-11 2.27c-5.42 2.41-12.34 12-7.64-6.05 1.27-4.91 1.7-5.66 0-7.93s4.26-3.33-.85-8.69-6.79-2.64-7.22-6.81 6.37-5.66-.43-7.56-8.91 3.78-8.49-3.78 3.4-11-2.55-11.33-5.94 2.5-8.49-1.59-1.28-5.6-7.64-4.08-8.56 4.08-8.56 4.08c-6.68-4.15-12.11 4.42-13.53 5.36-1.7 1.14-5.1.76-6.79 1.71s-1.7 2.83-6 3.59-3.82-.38-4.24 2.64-1.28 4.92-4.25 5.3c-5 .63-3.69 7.91-3.83 8.83a17.36 17.36 0 00-3.13 18.72c-.76 2.53-13.5-.13-12.58-2.61-4.25-.38-8.06 1.89-9.34-4.91s1.28-6-3-11.72-7.64-4.53-6.36-12.09c1.47-8.75 3.08-37.21 15.28-45.36 5.1-3.4 11.47-3.78 14.45-10.58s2.12-7.56 7.21-9.45 13.17-2.26 20.81-5.29c12.5-4.94 12.45-.4 27.18-2.07 17.72-2 18.3 2 26.34 4.34 3.82 1.13.42 4.91 9.76 6s8.07-1.13 10.62 3.78 7.22 12.85 9.34 15.5 1.28 8.69 5.52 12.09c5 4 5.58 9.74 4.68 11.34 4.81 7.49-.25 12.8 2.12 17 1.7 3-1.58 4.53.05 7.56 4.89 8.98.88 3.81-8.09 15.17z" fill="#4d4339" stroke="#000" stroke-miterlimit="10" stroke-width=".95"/><path d="M194.78 138.38c-.24.07 0-.91 0-1.15a8.84 8.84 0 000 1.15z" fill="none" stroke="#000" stroke-miterlimit="10" stroke-width=".95"/><path d="M212.24 179.05a.3.3 0 01-.1-.07m.13.1c1.2.87 4.63 1.7 5.95 2.46s5.88 1.17 7.84 1.37c6.48.63 11.21-.61 18.62-2.49-4.92-.43-4.17.8-7.52-.79-.17-.08 0 0-1.69-.21-3.93-.38-5.58-3.48-17.44-.62-1.42.34-4.39 1.05-5.76.28zm0 0h0z" fill="none" stroke="#000" stroke-miterlimit="10" stroke-width=".62"/><path d="M219.31 161.44c-11.54 16-35.69-1.46-24.16-17.44s35.69 1.46 24.16 17.44z" stroke="#000" stroke-miterlimit="10" stroke-width=".72" opacity=".81" fill="url(#a)"/><path d="M263.65 161.44C252.12 177.42 228 160 239.5 144s35.69 1.46 24.15 17.44z" stroke="#000" stroke-miterlimit="10" stroke-width=".72" opacity=".81" fill="url(#b)"/><path d="M140.89 385.11c-10.48 23.16-5.06 20.14-7.26 25.93m0-25.48c0 .09-2.36 9.9-1.3 15.81.65 3.66 1 5.1 1.3 5.36m-3.39-21.17c-4 12.24-2.25 13.77-1.7 17.19" fill="none" stroke="#000" stroke-miterlimit="10" stroke-width=".62"/></svg>