<svg xmlns="http://www.w3.org/2000/svg" viewBox="0 0 1400 780"><path fill="#ceb2a6" d="M0-.62h1400V780H0z"/><path fill="#b29587" d="M961.19 562.41v42.77H665.97l3.94-42.77h291.28z"/><path fill="#f9db9b" d="M961.19 543.7v18.71H669.91l1.74-18.71h289.54z"/><path d="M961.19 121.78v10.39H819.82c.18-3.37-1.64-6.83-5.6-10.39z" fill="#f9db9b" stroke="#120900" stroke-miterlimit="10"/><path d="M881.52 442.09c-37.61 3.12-44.82-.82-84.07 3.23-13.39 1.39-40.64-9.24-40.64-9.24 5.57-137.81 6.86-112.73 2.31-213.38a45.66 45.66 0 01-9.66-2.26c-.1 0-2.63-22.6-4.75-35.83 0-7.48 14-14.08 22.15-15.92.16-.05 0-.07 1 .79.14.14 1.73 1.48 2.9 2.43 28.87 23.62 43.7 25 74.23-5.56 0 0 23.1 18 25.4 27.25s-3.69 16.17-3.69 16.17c-.62 4.92 1.75 2.69-11.55 8.67-4.64 0-6.48-24.85 26.37 223.65z" fill="#fff"/><path d="M844.92 166.46c-.33.34-1.44 1.44-3.12 3-30.22-16.48-20.16-13.74-44.57-13.74l-26.43 16.19c-1-.84-2.67-2.2-3.83-3.25-.13 0-2.84 1.51 30.33-16.4l8.24.08c-.06-2.57-.2-7-.2-7 10-6 15.4-15.58 6.63-23.55-6.14-5.59-10.62-4.85-4.35-4.85 16 10 16.11 19.31 1.15 28.21v7.35c13.97-.01 5.36-2.8 36.15 13.96z" fill="#5a6a84" stroke="#120900" stroke-miterlimit="10"/><path d="M812 121.78c3.93 3.57 4.87 7.14 4.27 10.39H701.35c.18-3.37-1.64-6.83-5.6-10.39z" fill="#f9db9b" stroke="#120900" stroke-miterlimit="10"/><path d="M759.12 304.67c-6.17 4.44-13.85 4.43-22.17 2.55-6.16-101.64-5.24-113.12-2.77 34.64a230.71 230.71 0 01-91.92 0l4.46-84.32c32.72 21.09 31.19 21.92 37.12 18.27 11.35-15.33 10.15-19.95 37.4-96.53 6-4 8.82-6.23 11.73-9.91 12 8.65 10.72 8.91 11.74 15.24 0 2.25 3.75 22.46 14.41 120.06z" fill="#758351" stroke="#120900" stroke-miterlimit="10"/><path d="M734.18 167.73c-5.82 8.68-12 9-13.75 13.82-26.33 73.91-25.22 78.92-36.59 94.26-6 3.68-4 3.05-40.08-20.18 6.72-9.93 8.89-11.86 10-22.31-5.24-5.4-10.56-7.84 22.17 11.08 40.57-77.44 36.19-59.76 37.59-78.86.48-6.16.55-5.08 1.25-4.68 0 .17 2.52 7.08 4.12 5.49 5.62-5.57 12.9-4.17 15.29 1.38z" fill="#f89170" stroke="#120900" stroke-miterlimit="10"/><path d="M714.15 160.46c0 .3-.31 1.59-.58 5.08-18.51-11.78-10.4-9.82-34.81-9.82-16.62 10.66-16.51 10.66-16.68 10.57-7.67-4.25-9.94-1 16.75-14l8.24.08c-.07-2.57-.2-7-.2-7 10-6 15.4-15.58 6.63-23.55-6.14-5.59-10.62-4.85-4.35-4.85 16.05 10 16.11 19.31 1.15 28.21v7.35c13.2-.04 7.81-1.63 23.85 7.93z" fill="#5a6a84" stroke="#120900" stroke-miterlimit="10"/><path d="M713.4 170c0 9.84-3.5 11.69-12.62 28.08-26-2.68-28.35-7.79-49.74-31.77-2.61.62-6.86 2.93 5.54-3.23 30.42 19.07 37.59 10.8 56.82 6.92z" fill="#5e6a39" stroke="#120900" stroke-miterlimit="10"/><path d="M700.78 198.12c-7.84 14.18-18 33.3-24.8 46.28-41.83-24.19-17.91-9.53-39.26-28.17a26 26 0 00-5.26-3.25c2.46-17.66 4.52-31.65 5.26-34.59 1.57-6.24 8.74-10.71 14.32-12 20.77 23.24 23.61 29.03 49.74 31.73z" fill="#758351" stroke="#120900" stroke-miterlimit="10"/><path d="M693.5 121.78c3.93 3.57 4.87 7.14 4.27 10.39H622a79.7 79.7 0 00-2.66-10.39z" fill="#f9db9b" stroke="#120900" stroke-miterlimit="10"/><path d="M673.67 686.88c14 4.27 12.38 9.1 0 8.62-8.94-.35-24.81 1.06-28-2.15-4.07-4.07-2.47-22.54-2.47-13.55 24.87 10.5 25.73 10.04 30.47 7.08z" fill="#b2846d"/><path d="M686.14 519.22c-2.48.83-15.79 2.5-16.11 2.5-4.86-.38-46.38 13.72-53.16 14.29-17.06 1.45-11.14-8.78-78.06-.62-13.58 1.64-34.51-.15-35.57-13.79 32.93-141.1 21.19-148.6 45.26-202.83a38.07 38.07 0 002-5.64 119.81 119.81 0 0075.19-.83c4.52 12.83-2.69 1.18 60.45 206.92z" fill="#6f5147" stroke="#120900" stroke-miterlimit="10"/><path d="M673.64 686.87a17.31 17.31 0 01-3.66 1.86c-4.11 1-22.88-7.29-26.79-8.93v-150c11.37-4.11 22.43-9 30.48-7.7-.84 9.06-13.55 143.69-13.55 152.73 0 6.68 7.44 10.8 13.52 12.04z" fill="#ff936f" stroke="#120900" stroke-miterlimit="10"/><path d="M653.81 233.32c-1.18 10.64-3.1 12.15-12.47 25.87l-15.24-5.08c-7.34 21.31-9 26.67-3.38 47.95a528.75 528.75 0 01-70.57 2.32c1.85-14.08.48-17.94 1.27-18 14 14.43 48.45 7.35 53.28-5.92 4.74-8.53 3.06-21.48 13.4-41.1 6.19-11.79 8.8-8 4.57-29.24 11.27 4.15 11.33 4.88 29.14 23.2z" fill="#6f5147" stroke="#120900" stroke-miterlimit="10"/><path d="M646.72 257.54l-10.46 54.76h-10.62c-6.64-21.14-5.56-14.66.05-57l.41-1.22 15.24 5.08c3.06-4.45 1.66-4.04 5.38-1.62z" fill="#758351" stroke="#120900" stroke-miterlimit="10"/><path fill="#b29587" d="M643.19 562.41v42.77h-84.4l3.92-42.77h80.48z"/><path fill="#f9db9b" d="M643.19 543.7v18.71h-80.48l1.75-18.71h78.73z"/><path d="M625.64 214.84c4.79 22.57-7.69 15-14.32 49.42-3.48 18.08-6.25 24.8-27.25 29.56-13.66 3.11-26.18-2.67-30.9-7.73-3-3.22-5.59-7.65-8.43-11.87-10.44-15.54-21.41-11.32-10.09-43.67 5.83-16.62-11.47-30.26 2.79-71.06 19.27-55.15 13-59.24 31.39-71.2 9.23-6 21.71-3.69 32.33 0s12.47 14.78 15.58 19.86c1.29 2.11.34 7.23.34 7.44-3.68 24.44-13.09 24.2-4.64 56.49 4.99 19.02 4.36.77 13.2 42.76z" fill="#2d2824" stroke="#120900" stroke-miterlimit="10"/><path d="M622.72 302.06c1.52 5.77 2.92 10.24 2.92 10.24a119.81 119.81 0 01-75.19.83 70.5 70.5 0 001.7-8.75 528.75 528.75 0 0070.57-2.32z" fill="#b2846d"/><path d="M612.44 172.08c-8.48-32.39 1-32.07 4.64-56.49 7.97 20.2 8.37 37.41-4.64 56.49z" fill="#ff936f" stroke="#120900" stroke-miterlimit="10"/><path d="M566.48 686.88c13.87 4.24 12.52 9.1 0 8.62-8.94-.35-24.82 1.06-28-2.15-4.06-4.06-2.46-22.54-2.46-13.55 23.98 10.13 25.48 10.2 30.46 7.08z" fill="#b2846d"/><path d="M566.44 686.87a16.91 16.91 0 01-3.65 1.86c-4.13 1-23-7.32-26.79-8.93 0-144.42-1.51-143.89 2.81-144.41 11.94-1.46 20.39-2.34 26.7-2.86-14.06 151.92-18.91 150.27.93 154.34z" fill="#ff936f" stroke="#120900" stroke-miterlimit="10"/><path d="M553.18 286.38a136 136 0 01-.6 14.19c-57.38 18.83-59.68 21.23-63.19 1.49-.88-4.9 25.38-43.38 28.19-47.47.07 3.61 1.69 7.52 6.45 11.52 6.18 5.2 10.12 8.14 12.86 9.61l-8.71 14.41z" fill="#f89170" stroke="#120900" stroke-miterlimit="10"/><path d="M549.22 287l-21 3.15 8.71-14.41c3.36 1.8 6 1.83 7.85-1.5 5.84 8.76 4.94 6.31 4.44 12.76z" fill="#83a3d9" stroke="#120900" stroke-miterlimit="10"/><path d="M438.81 121.78h110.68c-.86 3.35-1.86 6.85-2.93 10.39H438.81z" fill="#f9db9b" stroke="#120900" stroke-miterlimit="10"/><path d="M548.05 302l-1.7 21.87c-21 52.22-14.45 67.34-32.6 152l-20.2-5.65 8.09-154.44c6.2-.78 40.47-11.78 46.41-13.78z" fill="#83a3d9" stroke="#120900" stroke-miterlimit="10"/><path d="M544.74 274.22c-3.42 6.11-9.63 1.21-20.71-8.11-12.15-10.22-6.06-20.81 11.08-43.41l.84-.13a24.29 24.29 0 01-1.3 8c-11.31 32.3-.32 28.16 10.09 43.65z" fill="#6f5147" stroke="#120900" stroke-miterlimit="10"/><path d="M539.18 154.49c-.6 1.73-1.19 3.4-1.74 5-35.48 19-32.25 16-31.89 24.1.16 3.39 1.54 4.46 4.47 5.08 8.05 1.72 7.39-2.48 7.39 3.24-14.4 0-15.37-4.8-15.56-13.52-.12-5.82 27.61-19.34 37.33-23.9z" fill="#566e8a" stroke="#120900" stroke-miterlimit="10"/><path fill="#b29587" d="M439.5 562.41H536v42.77h-96.5z"/><path fill="#f9db9b" d="M439.5 543.7H536v18.71h-96.5z"/><path d="M533.26 207.46c.11.41 4.39 14.86 1.85 15.24-5.34 7-17.7 23.31-17.53 31.89 0 0-6.86 10-13.82 20.82l4.1-78.12c11.16-.46 9.55-1.76 9.55 3.7 6.84 0 5.43 1.12 5.43-4.32 14.28-.6 7.08-2.54 10.42 10.79z" fill="#83a3d9" stroke="#120900" stroke-miterlimit="10"/><path d="M531.69 191.91c-10.61 0-8.85 1-8.85-3 9.93-.19 8.7-1.37 8.85 3z" fill="#566e8a" stroke="#120900" stroke-miterlimit="10"/><path d="M522.84 196.67c0 5.44 1.41 4.32-5.43 4.32v-13.7c6.59 0 5.43-2.09 5.43 9.38z" fill="#2f271c" stroke="#120900" stroke-miterlimit="10"/><path d="M666 605.18c-6.8 74.76-9.56 75.13 3.61 80.42m-26.42-8.27v-72.15m30.45 81.69l.03.01m-.03-.01a24.94 24.94 0 01-4-1.27z" fill="none" stroke="#120900" stroke-miterlimit="10" stroke-width=".73"/><path d="M673.67 686.88c14 4.27 12.38 9.1 0 8.62-8.94-.35-24.81 1.06-28-2.15-4.07-4.07-2.47-22.54-2.47-13.55 24.87 10.5 25.73 10.04 30.47 7.08zm-107.23-.01l.04.01m-7.69-81.7c-6.81 74.76-9.56 75.13 3.59 80.42m3.13-153.07l-1.05 11.17m-28.46 0v-8.01m0 141.64v-72.15m30.44 81.69a24.94 24.94 0 01-4.05-1.27z" fill="none" stroke="#120900" stroke-miterlimit="10" stroke-width=".73"/><path d="M566.48 686.88c13.87 4.24 12.52 9.1 0 8.62-8.94-.35-24.82 1.06-28-2.15-4.06-4.06-2.46-22.54-2.46-13.55 23.98 10.13 25.48 10.2 30.46 7.08zm-20.13-362.97c2.38-5.91 2.93-6.43 4.1-10.78m92.74 230.57v-13.86c40.13-14.53-16.91 5.38-26.32 6.17-17.06 1.45-11.14-8.78-78.06-.62-13.58 1.64-34.51-.15-35.57-13.79 9.14-39.17 8.28-35.24 10.51-45.69" fill="none" stroke="#120900" stroke-miterlimit="10" stroke-width=".73"/><path d="M670 521.72c-15.76 2.23-15.56 5-6.51.42 1.35-.66 4.19-.6 6.51-.42zm-57.56-349.64c4.86 18.52 5.41 4 12.23 38m-75.18-88.3c4.21-16.38 5.29-24.36 19.34-33.49 9.23-6 21.71-3.69 32.33 0s12.47 14.78 15.58 19.86c1.29 2.11.34 7.23.34 7.44m-77.9 38.9c0-.21 3.78-10.49 7.38-22.32m6.86 154.18a37.21 37.21 0 01-3.78-4.7m-17.72-85.36c-1.32-19.62 1-23.93 5.52-36.8" fill="none" stroke="#120900" stroke-miterlimit="10" stroke-width=".73"/><path d="M622 132.17c2.33 13.13-.42 26.57-9.51 39.91-6.37-24.34-2.5-30.05.49-39.91 5.59-18.55 3.09-20.58 6.36-10.39m-66.17 164.31c.07.94 13 11.8 30.9 7.73 21.42-4.85 23.86-11.92 27.25-29.56 7.36-38.25 19.64-22.58 13.35-54.17 1.36.5 4.12 1.58 6.79 2.89m-79.31 91.4c.17-1.28.32-2.56.43-3.81m73.11-45.22c-8.07 25-7.48 26.53-5 38m50.96 250.35l2-21.56s-1.61-.25-3.64-.42c.32 0 13.63-1.67 16.11-2.5C623 313.48 630.21 325.13 625.64 312.3a119.81 119.81 0 01-75.19.83 70.5 70.5 0 001.7-8.75 528.75 528.75 0 0070.57-2.32m91.43-141.6c.88.52.67.3.67.4M713.4 170c0-1.57.07-3.11.17-4.5m-69.81 90.13c6.72-9.93 8.89-11.86 10-22.31l-3.85-4m71.24-64.68c6-3.74 11.16-1.27 13 3.09 0 0-.45.67-1.21 1.64" fill="none" stroke="#120900" stroke-miterlimit="10" stroke-width=".73"/><path d="M646.72 257.54l-10.46 54.76h-10.62c-6.64-21.14-5.56-14.66.05-57l.41-1.22 15.24 5.08c3.06-4.45 1.66-4.04 5.38-1.62zm102.74-37.1c4.47 36.75 9.66 84.23 9.66 84.23-6.17 4.44-13.85 4.43-22.17 2.55-6.16-101.64-5.24-113.12-2.77 34.64a230.71 230.71 0 01-91.92 0l4.46-84.32c32.72 21.09 31.19 21.92 37.12 18.27 11.35-15.33 10.15-19.95 37.4-96.53 6-4 8.82-6.23 11.73-9.91 12 8.65 10.72 8.91 11.74 15.24" fill="none" stroke="#120900" stroke-miterlimit="10" stroke-width=".73"/><path d="M700.78 198.12c-7.84 14.18-18 33.3-24.8 46.28-41.83-24.19-17.91-9.53-39.26-28.17a26 26 0 00-5.26-3.25c5.16-37 3.55-39.7 16.73-45.69" fill="none" stroke="#120900" stroke-miterlimit="10" stroke-width=".73"/><path d="M662.19 166.35c26.76 14.57 30.93 7.74 51.21 3.69 0 9.84-3.5 11.69-12.62 28.08-26-2.68-28.35-7.79-49.74-31.77-2.61.62-6.86 2.93 5.54-3.23m.42.22c1 .63 3 1.78 5.13 2.95m31.37-44.51c-6.14-5.59-10.62-4.85-4.35-4.85a46.19 46.19 0 016.6 4.85" fill="none" stroke="#120900" stroke-miterlimit="10" stroke-width=".73"/><path d="M701.35 132.17c-.25 4.48-4 8.8-11.05 13v7.35c13.2 0 7.81-1.59 23.85 8 0 .3-.31 1.59-.58 5.08-18.51-11.78-10.4-9.82-34.81-9.82-16.62 10.66-16.51 10.66-16.68 10.57a61.83 61.83 0 01-5.38-3.1c-.19-.11-1.85.77 22.13-10.93l8.24.08c-.07-2.57-.2-7-.2-7s9.52-5.72 10.9-13.16" fill="none" stroke="#120900" stroke-miterlimit="10" stroke-width=".73"/><path d="M721.15 164.64c-2.6 1.6-3.25 4.61-6.33-3.78z" fill="#5a6a84" stroke="#120900" stroke-miterlimit="10"/><path d="M819.82 132.17c-.24 4.48-4 8.8-11.05 13v7.35c14 0 5.36-2.79 36.15 14M812 121.78c-6.14-5.59-10.62-4.85-4.35-4.85a46.19 46.19 0 016.6 4.85" fill="none" stroke="#120900" stroke-miterlimit="10" stroke-width=".73"/><path d="M766.86 168.69c35.4-19.1 27.7-16.45 38.68-16.35-.06-2.57-.2-7-.2-7s9.52-5.72 10.9-13.16" fill="none" stroke="#120900" stroke-miterlimit="10" stroke-width=".73"/><path d="M841.8 169.46c-30.22-16.48-20.16-13.74-44.57-13.74l-26.43 16.19" fill="none" stroke="#120900" stroke-miterlimit="10" stroke-width=".73"/><path d="M844.92 166.46c.34-.34 23.29 18.25 25.51 27.14 2.31 9.23-3.69 16.17-3.69 16.17l-.46 3.69c-13 5.84-10 5-14.32 5l29.56 223.65c-37.61 3.12-44.82-.82-84.07 3.23-13.39 1.39-40.64-9.24-40.64-9.24 5.57-137.81 6.86-112.73 2.31-213.38a45.66 45.66 0 01-9.66-2.26c-.1 0-2.63-22.6-4.75-35.83 0-7.48 14-14.08 22.15-15.92.16-.05 0-.07 1 .79.14.14 1.73 1.48 2.9 2.43 28.95 23.52 43.73 24.97 74.16-5.47zM549.22 287l4-.6a136 136 0 01-.6 14.19c-1.38.46-2.9.95-4.53 1.47m-46.45 13.76c-10.91 1.51-11.38-8.83-12.25-13.76-.68-3.76 14.37-26.49 14.37-26.65M536 222.57c-.05 10.19-13.35 31.21-.38 41.23a43.18 43.18 0 019.17 10.42m-7.9 1.5c-2.74-1.47-6.68-4.41-12.86-9.61-4.76-4-6.38-7.91-6.45-11.52" fill="none" stroke="#120900" stroke-miterlimit="10" stroke-width=".73"/><path d="M522.84 196.67c14.28-.6 7.08-2.54 10.42 10.79.11.41 4.39 14.86 1.85 15.24-5.34 7-17.7 23.31-17.53 31.89 0 0-6.86 10-13.82 20.82l4.1-78.12 9.55-.39m31.81 90.1l-21 3.15 8.71-14.41c3.36 1.8 6 1.83 7.85-1.5 5.84 8.76 4.94 6.31 4.44 12.76zm-1.17 15l-1.7 21.87c-21 52.22-14.45 67.34-32.6 152l-20.2-5.65 8.09-154.44c6.2-.78 40.47-11.78 46.41-13.78zm1.44-180.22c-.86 3.35-1.86 6.85-2.93 10.39H438.81v-10.39zm148.28 10.39H622a79.7 79.7 0 00-2.66-10.39h74.16c3.93 3.57 4.87 7.14 4.27 10.39zm118.47 0H701.35c.18-3.37-1.64-6.83-5.6-10.39H812c3.9 3.57 4.84 7.14 4.24 10.39zm-2.02-10.39h147v10.39h-141.4c.18-3.37-1.64-6.83-5.6-10.39zM536 562.41v42.77h-96.5v-42.77m203.69 0v42.77h-84.4l3.92-42.77m398.48 0v42.77H665.97l3.94-42.77" fill="none" stroke="#120900" stroke-miterlimit="10" stroke-width=".73"/><path fill="none" stroke="#120900" stroke-miterlimit="10" stroke-width=".73" d="M439.5 543.7H536v18.71h-96.5zm124.96 0h78.73v18.71h-80.48l1.75-18.71zm107.19 0h289.54v18.71H669.91l1.74-18.71zM522.84 188.89c9.94-.17 8.74-1.35 8.85 3h-8.85m-5.43.02c-14.4 0-15.37-4.8-15.56-13.52-.12-5.82 27.61-19.34 37.33-23.9-.6 1.73-1.19 3.4-1.74 5-35.48 19-32.25 16-31.89 24.1.27 5.89 5.36 5.37 11.86 5.36"/><path d="M517.41 189c0-2.22-1.09-1.66 5.43-1.66V201c-7.2 0-5.43 2.44-5.43-12zm45.41 207.19c1.74 43.45.27 49.23-5.08 113.33m33.72-107.62c3.86 73.42 5.7 72.37 13.4 111.77m14.31-80.36c-2.34 14.13 7.93 44.28 15.71 70.21m18.93-12.01l-13.85-48.04" fill="none" stroke="#120900" stroke-miterlimit="10" stroke-width=".73"/><path d="M596 106.45c2.92 1.27 9.34-1.08 9.23-4.57 6 .59 10.35-.25 4.42-2.56 10.06-9.32 1.6-7.4-4.28-3.09.3-1.88.89-4.92-.58-3.72-2 1.68-2.37 3.59-2.5 6-2.92-1.66-7.65-.22-8.46 4.89a6.34 6.34 0 00-6.78-.1c-.75.43-.51.68 2 1.59 1.72.63 2.25.16.56.93-4.45 2-6.23 6.61-4.84 6.46s5.72-.49 8-3.39c.11.17-.66 4.79.64 3.78 4.92-3.82-.22-9.26 6.86-13.57m.31 6.2c2.82-1.56 3.61-4.25 2.7-6.16m-2.76 2.27a3.55 3.55 0 00-2.13 2.14m2.23-.83a4 4 0 01-3.36 2.94m9.11-6.42a23.82 23.82 0 013.63-3.52m-20.8 12.75a7.48 7.48 0 004.76-3m-4.22-1.89c.84.29 1.7.55 2.57.77m2.45 4.34a8.89 8.89 0 00-1.09 1.92m13.72-9.9a3 3 0 002 .21M604 95.58a1.77 1.77 0 00-.64 1.67" fill="#fff" stroke="#000" stroke-miterlimit="10" stroke-width=".5"/><path d="M562.86 111.79c1.69 2.7 8.31 4.41 10.2 1.47 4.6 3.89 8.66 5.67 5.09.41 13.58-2 5.52-5.18-1.76-5 1.3-1.37 3.52-3.54 1.63-3.39-2.65.21-4 1.6-5.46 3.5-1.45-3-6.16-4.53-9.73-.78a6.32 6.32 0 00-5.52-3.93c-.87-.08-.82.27.71 2.43 1.06 1.49 1.76 1.41-.06 1.08-4.82-.87-8.89 1.9-7.65 2.57s5 2.84 8.55 1.78c0 .2-3.27 3.57-1.62 3.47 6.21-.35 5.07-7.74 13.35-7.27m-3.32 5.3c3.21.31 5.38-1.46 5.72-3.55m-3.56.31a3.54 3.54 0 00-3 .56m2.35.57a4 4 0 01-4.44.52m11.14-.11a23 23 0 014.95-.87m-24.33-1.28a7.57 7.57 0 005.65.19m-2.43-3.92q.79 1.09 1.68 2.1m-.44 4.96a9.61 9.61 0 00-2 1m16.92-.39a3.07 3.07 0 001.52 1.3m-1.37-7.44a1.78 1.78 0 00-1.48 1" fill="#fff" stroke="#000" stroke-miterlimit="10" stroke-width=".5"/></svg>