<svg xmlns="http://www.w3.org/2000/svg" viewBox="0 0 700 700"><path fill="#ceb2a6" d="M0 0h700v700H0z"/><path fill="#b29587" d="M584.89 505.04v38.47H319.4l3.54-38.47h261.95z"/><path fill="#f9db9b" d="M584.89 488.22v16.82H322.94l1.57-16.82h260.38z"/><path d="M584.89 108.79v9.34H457.75c.16-3-1.47-6.14-5-9.34z" fill="#f9db9b" stroke="#120900" stroke-miterlimit="10" stroke-width=".9"/><path d="M513.24 396.84c-33.82 2.81-40.31-.74-75.6 2.9-12 1.25-36.55-8.3-36.55-8.3 5-123.93 6.17-101.38 2.07-191.9a40.82 40.82 0 01-8.68-2c-.09 0-2.36-20.32-4.27-32.22 0-6.73 12.56-12.66 19.92-14.32.14 0 .05-.06.93.71.13.13 1.56 1.33 2.61 2.19 26 21.24 39.3 22.45 66.76-5 14.76 11.52 31.13 25.64 19.52 39-.56 4.43 1.57 2.43-10.39 7.8-4.21.01-5.86-22.33 23.68 201.14z" fill="#fff"/><path d="M480.33 149c-.31.3-1.3 1.29-2.81 2.69-27.18-14.82-18.13-12.35-40.08-12.35l-23.77 14.56c-.93-.75-2.41-2-3.44-2.92-.13 0-2.56 1.35 27.27-14.75l7.41.07c-.06-2.31-.17-6.3-.17-6.3 8.94-5.38 13.84-14 5.95-21.18-5.51-5-9.55-4.36-3.91-4.36 14.43 8.95 14.49 17.37 1 25.37v6.61c12.6-.03 4.86-2.54 32.55 12.56z" fill="#5a6a84" stroke="#120900" stroke-miterlimit="10" stroke-width=".9"/><path d="M450.69 108.79c3.54 3.21 4.38 6.42 3.84 9.34H351.21c.16-3-1.47-6.14-5-9.34z" fill="#f9db9b" stroke="#120900" stroke-miterlimit="10" stroke-width=".9"/><path d="M403.16 273.26c-5.54 4-12.45 4-19.93 2.29-5.54-91.4-4.71-101.72-2.49 31.16a207.63 207.63 0 01-82.66 0l4-75.83c29.42 19 28 19.71 33.38 16.43 10.21-13.79 9.12-17.94 33.63-86.81 5.42-3.61 7.94-5.6 10.55-8.91 10.81 7.77 9.64 8 10.56 13.7.01 2.02 3.38 20.2 12.96 107.97z" fill="#758351" stroke="#120900" stroke-miterlimit="10" stroke-width=".9"/><path d="M380.74 150.11c-5.23 7.81-10.82 8.09-12.37 12.43-23.68 66.47-22.68 71-32.9 84.77-5.39 3.31-3.64 2.74-36.05-18.15 6.05-8.93 8-10.67 9-20.06-4.71-4.86-9.49-7.06 19.94 10 36.48-69.64 32.54-53.74 33.81-70.91.9-11.72 1.9 3.63 4.82.72 5.01-5.05 11.6-3.79 13.75 1.2z" fill="#f89170" stroke="#120900" stroke-miterlimit="10" stroke-width=".9"/><path d="M362.73 143.58c0 .27-.28 1.43-.52 4.57-16.65-10.61-9.36-8.84-31.31-8.84-14.95 9.59-14.85 9.59-15 9.51-6.9-3.82-8.9-.91 15.1-12.62l7.41.07c-.06-2.31-.17-6.3-.17-6.3 8.94-5.38 13.84-14 5.95-21.18-5.51-5-9.55-4.36-3.91-4.36 14.43 8.95 14.49 17.37 1 25.37v6.61c11.87 0 7.02-1.41 21.45 7.17z" fill="#5a6a84" stroke="#120900" stroke-miterlimit="10" stroke-width=".9"/><path d="M362.05 152.19c0 8.84-3.14 10.51-11.35 25.25-23.36-2.41-25.49-7-44.73-28.57-2.34.56-6.17 2.63 5-2.91 27.38 17.12 33.79 9.68 51.08 6.23z" fill="#5e6a39" stroke="#120900" stroke-miterlimit="10" stroke-width=".9"/><path d="M350.7 177.44c-7.05 12.75-16.18 29.95-22.3 41.62-37.62-21.75-16.11-8.57-35.31-25.33a22.93 22.93 0 00-4.73-2.92c2.21-15.88 4.07-28.47 4.73-31.12 1.41-5.61 7.86-9.63 12.88-10.82 18.68 20.94 21.23 26.13 44.73 28.57z" fill="#758351" stroke="#120900" stroke-miterlimit="10" stroke-width=".9"/><path d="M344.15 108.79c3.54 3.21 4.38 6.42 3.84 9.34h-68.18a71.24 71.24 0 00-2.39-9.34z" fill="#f9db9b" stroke="#120900" stroke-miterlimit="10" stroke-width=".9"/><path d="M326.32 617c12.57 3.84 11.14 8.18 0 7.75-8-.31-22.31.95-25.19-1.94-3.66-3.65-2.22-20.26-2.22-12.18 22.37 9.43 23.15 9.01 27.41 6.37z" fill="#b2846d"/><path d="M337.54 466.2c-2.23.75-14.21 2.25-14.49 2.25-4.37-.34-41.71 12.34-47.81 12.85-15.34 1.31-10-7.89-70.2-.56-12.21 1.48-31-.13-32-12.4 29.61-126.89 19.05-133.64 40.7-182.4a35 35 0 001.75-5.07 107.71 107.71 0 0067.62-.75c4.13 11.54-2.32 1.07 54.43 186.08z" fill="#6f5147" stroke="#120900" stroke-miterlimit="10" stroke-width=".9"/><path d="M326.29 617a15.12 15.12 0 01-3.29 1.67c-3.69.92-20.58-6.55-24.09-8V475.76c10.23-3.71 20.17-8.08 27.41-6.93-.76 8.14-12.18 129.22-12.18 137.35 0 5.97 6.69 9.67 12.15 10.82z" fill="#ff936f" stroke="#120900" stroke-miterlimit="10" stroke-width=".9"/><path d="M308.46 209.1c-1.06 9.56-2.78 10.92-11.21 23.26l-13.71-4.57c-6.59 19.17-8 24-3 43.12A474.72 474.72 0 01217 273c1.66-12.66.43-16.13 1.14-16.22 12.62 13 43.57 6.61 47.92-5.32 4.26-7.67 2.75-19.32 12-37 5.58-10.6 7.92-7.18 4.12-26.3 10.21 3.84 10.28 4.42 26.28 20.94z" fill="#6f5147" stroke="#120900" stroke-miterlimit="10" stroke-width=".9"/><path d="M302.09 230.88l-9.41 49.24h-9.55c-6-19-5-13.18.05-51.23l.36-1.1 13.71 4.57c2.75-4.02 1.46-3.66 4.84-1.48z" fill="#758351" stroke="#120900" stroke-miterlimit="10" stroke-width=".9"/><path fill="#b29587" d="M298.91 505.04v38.47h-75.9l3.53-38.47h72.37z"/><path fill="#f9db9b" d="M298.91 488.22v16.82h-72.37l1.57-16.82h70.8z"/><path d="M283.13 192.48c4.3 20.3-6.91 13.46-12.88 44.44-3.13 16.26-5.62 22.31-24.51 26.59-12.28 2.79-23.54-2.4-27.78-7-2.71-2.89-5-6.88-7.59-10.68-9.39-14-19.25-10.17-9.07-39.26 5.25-15-10.31-27.22 2.51-63.91 14.57-41.7 14.73-78.84 57.3-64 9.56 3.32 11.22 13.29 14 17.86 1.15 1.9.3 6.5.3 6.69-3.31 22-11.77 21.77-4.17 50.8 4.51 17.12 3.94.7 11.89 38.47z" fill="#2d2824" stroke="#120900" stroke-miterlimit="10" stroke-width=".9"/><path d="M280.5 270.91c1.37 5.2 2.63 9.21 2.63 9.21a107.71 107.71 0 01-67.62.75A62.23 62.23 0 00217 273a474.72 474.72 0 0063.5-2.09z" fill="#b2846d"/><path d="M271.26 154c-7.62-29.12.86-28.83 4.17-50.8 7.17 18.19 7.57 33.66-4.17 50.8z" fill="#ff936f" stroke="#120900" stroke-miterlimit="10" stroke-width=".9"/><path d="M229.93 617c12.47 3.81 11.26 8.19 0 7.75-8-.31-22.32.95-25.2-1.94-3.65-3.65-2.22-20.27-2.22-12.18 21.6 9.09 22.94 9.14 27.42 6.37z" fill="#b2846d"/><path d="M229.89 617a15.12 15.12 0 01-3.29 1.67c-3.71.93-20.64-6.58-24.09-8 0-129.88-1.35-129.4 2.53-129.87 10.74-1.31 18.34-2.1 24-2.57-12.63 136.57-16.99 135.08.85 138.77z" fill="#ff936f" stroke="#120900" stroke-miterlimit="10" stroke-width=".9"/><path d="M218 256.81a121.54 121.54 0 01-.53 12.77c-51.6 16.92-53.67 19.09-56.83 1.33-.79-4.41 22.82-39 25.35-42.69.06 3.25 1.52 6.77 5.8 10.37 5.56 4.67 9.1 7.32 11.57 8.64l-7.84 13z" fill="#f89170" stroke="#120900" stroke-miterlimit="10" stroke-width=".9"/><path d="M214.4 257.35l-18.92 2.83 7.84-13c3 1.61 5.37 1.65 7.05-1.36 5.29 7.92 4.49 5.75 4.03 11.53z" fill="#83a3d9" stroke="#120900" stroke-miterlimit="10" stroke-width=".9"/><path d="M115.11 108.79h99.54c-.78 3-1.67 6.16-2.64 9.34h-96.9z" fill="#f9db9b" stroke="#120900" stroke-miterlimit="10" stroke-width=".9"/><path d="M213.35 270.9l-1.53 19.66c-18.85 47-13 60.56-29.31 136.69l-18.17-5.07 7.28-138.89c5.57-.72 36.38-10.67 41.73-12.39z" fill="#83a3d9" stroke="#120900" stroke-miterlimit="10" stroke-width=".9"/><path d="M210.37 245.87c-3.07 5.5-8.65 1.09-18.62-7.28-10.93-9.2-5.45-18.72 10-39.05l.76-.11a22.13 22.13 0 01-1.18 7.18c-10.2 29.06-.33 25.39 9.04 39.26z" fill="#6f5147" stroke="#120900" stroke-miterlimit="10" stroke-width=".9"/><path d="M205.38 138.2c-.54 1.56-1.07 3.06-1.57 4.5-31.91 17.08-29 14.36-28.67 21.68.13 3 1.38 4 4 4.56 7.24 1.55 6.65-2.23 6.65 2.91-13 0-13.82-4.31-14-12.16-.09-5.22 24.85-17.38 33.59-21.49z" fill="#566e8a" stroke="#120900" stroke-miterlimit="10" stroke-width=".9"/><path fill="#b29587" d="M115.74 505.04h86.78v38.47h-86.78z"/><path fill="#f9db9b" d="M115.74 488.22h86.78v16.82h-86.78z"/><path d="M200.05 185.84c.1.37 3.95 13.36 1.67 13.7-4.8 6.33-15.92 21-15.77 28.68 0 0-6.17 9-12.42 18.73l3.68-70.26c10-.41 8.59-1.58 8.59 3.33 6.15 0 4.88 1 4.88-3.88 12.84-.54 6.37-2.28 9.37 9.7z" fill="#83a3d9" stroke="#120900" stroke-miterlimit="10" stroke-width=".9"/><path d="M198.64 171.85c-9.55 0-8 .91-8-2.71 8.97-.14 7.86-1.21 8 2.71z" fill="#566e8a" stroke="#120900" stroke-miterlimit="10" stroke-width=".9"/><path d="M190.68 176.14c0 4.89 1.27 3.88-4.88 3.88V167.7c5.96 0 4.88-1.88 4.88 8.44z" fill="#2f271c" stroke="#120900" stroke-miterlimit="10" stroke-width=".9"/><path d="M319.4 543.51c-6.12 67.23-8.6 67.57 3.24 72.32m-23.73-7.44v-64.88m27.38 73.46l.03.01m-.03.02a23.94 23.94 0 01-3.65-1.14z" fill="none" stroke="#120900" stroke-miterlimit="10" stroke-width=".66"/><path d="M326.32 617c12.57 3.84 11.14 8.18 0 7.75-8-.31-22.31.95-25.19-1.94-3.66-3.65-2.22-20.26-2.22-12.18 22.37 9.43 23.15 9.01 27.41 6.37zm-96.43-.03l.04.01M223 543.51c-6.12 67.23-8.6 67.56 3.24 72.32m2.81-137.66l-.94 10.05m-25.6 0v-7.21m0 127.38v-64.88M229.89 617a23.63 23.63 0 01-3.64-1.14z" fill="none" stroke="#120900" stroke-miterlimit="10" stroke-width=".66"/><path d="M229.93 617c12.47 3.81 11.26 8.19 0 7.75-8-.31-22.32.95-25.2-1.94-3.65-3.65-2.22-20.27-2.22-12.18 21.6 9.09 22.94 9.14 27.42 6.37zm-18.11-326.44c2.15-5.32 2.64-5.78 3.69-9.69m83.4 207.35v-12.46c36.09-13.07-15.2 4.83-23.67 5.54-15.34 1.31-10-7.89-70.2-.56-12.21 1.48-31-.13-32-12.4 8.22-35.22 7.44-31.69 9.45-41.09" fill="none" stroke="#120900" stroke-miterlimit="10" stroke-width=".66"/><path d="M323.05 468.45c-14.17 2-14 4.52-5.86.38 1.19-.6 3.75-.54 5.86-.38zM271.26 154c4.37 16.65 4.86 3.56 11 34.18m-67.61-79.39c3.78-14.73 4.75-21.9 17.39-30.12 8.3-5.4 19.52-3.32 29.07 0s11.22 13.29 14 17.86c1.15 1.9.3 6.5.3 6.69m-70.03 34.98c0-.18 3.4-9.43 6.63-20.07m6.17 138.65a33 33 0 01-3.4-4.22m-15.93-76.77c-1.19-17.64.92-21.52 5-33.09" fill="none" stroke="#120900" stroke-miterlimit="10" stroke-width=".66"/><path d="M279.81 118.13c2.09 11.81-.37 23.89-8.55 35.89-5.73-21.89-2.25-27 .44-35.89 5-16.68 2.78-18.51 5.72-9.34M218 256.55c.06.84 11.7 10.61 27.78 7 19.27-4.37 21.46-10.73 24.51-26.59 6.62-34.4 17.66-20.31 12-48.72 1.22.46 3.7 1.42 6.1 2.61M217 273q.22-1.74.39-3.42m65.78-40.67c-7.25 22.44-6.72 23.86-4.53 34.2m45.87 225.11l1.81-19.39s-1.45-.23-3.27-.38c.28 0 12.26-1.5 14.49-2.25-56.75-185-50.3-174.54-54.41-186.08a107.71 107.71 0 01-67.62.75A62.23 62.23 0 00217 273a474.72 474.72 0 0063.46-2.09m82.27-127.33c.78.46.59.26.59.36m-1.27 8.25c0-1.41.06-2.79.16-4m-62.79 80.97c6.05-8.93 8-10.67 9-20.06l-3.42-3.57m64-58.2c5.37-3.36 10-1.14 11.72 2.78 0 0-.4.6-1.09 1.48" fill="none" stroke="#120900" stroke-miterlimit="10" stroke-width=".66"/><path d="M302.09 230.88l-9.41 49.24h-9.55c-6-19-5-13.18.05-51.23l.36-1.1 13.71 4.57c2.75-4.02 1.46-3.66 4.84-1.48z" fill="none" stroke="#120900" stroke-miterlimit="10" stroke-width=".66"/><path d="M394.48 197.51c4 33.05 8.68 75.75 8.68 75.75-5.54 4-12.45 4-19.93 2.29-5.54-91.4-4.71-101.72-2.49 31.16a207.63 207.63 0 01-82.66 0l4-75.83c29.42 19 28 19.71 33.38 16.43 10.21-13.79 9.12-17.94 33.63-86.81 5.42-3.61 7.94-5.6 10.55-8.91 10.81 7.77 9.64 8 10.56 13.7" fill="none" stroke="#120900" stroke-miterlimit="10" stroke-width=".66"/><path d="M350.7 177.44c-7.05 12.75-16.18 29.95-22.3 41.62-37.62-21.75-16.11-8.57-35.31-25.33a22.93 22.93 0 00-4.73-2.92c4.64-33.29 3.19-35.71 15.05-41.1" fill="none" stroke="#120900" stroke-miterlimit="10" stroke-width=".66"/><path d="M316 148.87c24.07 13.1 27.81 7 46.05 3.32 0 8.84-3.14 10.51-11.35 25.25-23.36-2.41-25.49-7-44.73-28.57-2.34.56-6.17 2.63 5-2.91m.31.2c.94.57 2.71 1.61 4.62 2.66m28.25-40.03c-5.51-5-9.55-4.36-3.91-4.36a41.28 41.28 0 015.94 4.36" fill="none" stroke="#120900" stroke-miterlimit="10" stroke-width=".66"/><path d="M351.21 118.13c-.22 4-3.62 7.91-9.93 11.67v6.61c11.87 0 7-1.43 21.45 7.17 0 .27-.28 1.43-.52 4.57-16.65-10.61-9.36-8.84-31.31-8.84-14.95 9.59-14.85 9.59-15 9.51-4.72-2.62-4.66-2.68-4.84-2.79s-1.66.69 19.9-9.83l7.41.07c-.06-2.31-.17-6.3-.17-6.3s8.55-5.14 9.79-11.84" fill="none" stroke="#120900" stroke-miterlimit="10" stroke-width=".66"/><path d="M369 147.33c-2.34 1.44-2.92 4.15-5.7-3.39z" fill="#5a6a84" stroke="#120900" stroke-miterlimit="10" stroke-width=".9"/><path d="M457.75 118.13c-.22 4-3.62 7.91-9.93 11.67v6.61c12.56 0 4.82-2.51 32.51 12.56m-29.64-40.18c-5.51-5-9.55-4.36-3.91-4.36a41.28 41.28 0 015.94 4.36" fill="none" stroke="#120900" stroke-miterlimit="10" stroke-width=".66"/><path d="M410.13 151c31.83-17.17 24.9-14.79 34.78-14.7-.06-2.31-.17-6.3-.17-6.3s8.55-5.14 9.79-11.84" fill="none" stroke="#120900" stroke-miterlimit="10" stroke-width=".66"/><path d="M477.52 151.66c-27.18-14.82-18.13-12.35-40.08-12.35l-23.77 14.56" fill="none" stroke="#120900" stroke-miterlimit="10" stroke-width=".66"/><path d="M480.33 149c.3-.3 20.94 16.41 22.94 24.4 2.07 8.31-3.32 14.54-3.32 14.54l-.42 3.33c-11.7 5.25-9 4.47-12.88 4.47l26.59 201.13c-33.82 2.81-40.31-.74-75.6 2.9-12 1.25-36.55-8.3-36.55-8.3 5-123.93 6.17-101.38 2.07-191.9a40.82 40.82 0 01-8.68-2c-.09 0-2.36-20.32-4.27-32.22 0-6.73 12.56-12.66 19.92-14.32.14 0 .05-.06.93.71.13.13 1.56 1.33 2.61 2.19 26 21.07 39.33 22.41 66.66-4.93zM214.4 257.35l3.56-.54a121.54 121.54 0 01-.53 12.77l-4.08 1.32m-41.73 12.39c-9.81 1.36-10.24-8-11-12.38-.61-3.38 12.93-23.81 12.93-24m28.93-47.48c-.06 9.16-12 28.06-.35 37.08a38.72 38.72 0 018.24 9.36m-7.05 1.36c-2.47-1.32-6-4-11.57-8.64-4.28-3.6-5.74-7.12-5.8-10.37" fill="none" stroke="#120900" stroke-miterlimit="10" stroke-width=".66"/><path d="M190.68 176.14c12.84-.54 6.37-2.28 9.37 9.7.1.37 3.95 13.36 1.67 13.7-4.8 6.33-15.92 21-15.77 28.68 0 0-6.17 9-12.42 18.73l3.68-70.26 8.59-.35m28.6 81.01l-18.92 2.83 7.84-13c3 1.61 5.37 1.65 7.05-1.36 5.29 7.92 4.49 5.75 4.03 11.53zm-1.05 13.55l-1.53 19.66c-18.85 47-13 60.56-29.31 136.69l-18.17-5.07 7.28-138.89c5.57-.72 36.38-10.67 41.73-12.39zm1.3-162.11c-.78 3-1.67 6.16-2.64 9.34h-96.9v-9.34zM348 118.13h-68.19a71.24 71.24 0 00-2.39-9.34h66.73c3.54 3.21 4.38 6.42 3.85 9.34zm106.53 0H351.21c.16-3-1.47-6.14-5-9.34h104.48c3.54 3.21 4.38 6.42 3.84 9.34zm-1.81-9.34h132.17v9.34H457.75c.16-3.02-1.47-6.13-5.03-9.34zM202.51 505.04v38.47h-86.77v-38.47m183.17 0v38.47h-75.9l3.53-38.47m358.35 0v38.47H319.4l3.54-38.47" fill="none" stroke="#120900" stroke-miterlimit="10" stroke-width=".66"/><path fill="none" stroke="#120900" stroke-miterlimit="10" stroke-width=".66" d="M115.74 488.22h86.78v16.82h-86.78zm112.37 0h70.8v16.82h-72.37l1.57-16.82zm96.4 0h260.38v16.82H322.94l1.57-16.82zM190.68 169.14c8.94-.16 7.86-1.21 8 2.71h-8m-4.88 0c-13 0-13.82-4.31-14-12.16-.11-5.22 24.83-17.38 33.57-21.49-.54 1.56-1.07 3.06-1.57 4.5-31.91 17.08-29 14.36-28.67 21.68.24 5.29 4.81 4.82 10.66 4.81"/><path d="M185.8 169.19c0-2-1-1.49 4.88-1.49V180c-6.48 0-4.88 2.22-4.88-10.81zm40.84 186.37c1.56 39.08.24 44.28-4.57 101.92m30.32-96.78c3.48 66 5.12 65.08 12.05 100.52M277.31 389c-2.11 12.71 7.13 39.82 14.13 63.13m17.02-10.85l-12.45-43.2" fill="none" stroke="#120900" stroke-miterlimit="10" stroke-width=".66"/><path d="M256.49 95c2.63 1.13 8.4-1 8.3-4.12 5.39.53 9.31-.22 4-2.3 9.05-8.38 1.44-6.65-3.85-2.78.27-1.68.8-4.42-.52-3.35-1.85 1.51-2.14 3.23-2.25 5.38-2.63-1.5-6.88-.2-7.61 4.39a5.71 5.71 0 00-6.09-.09c-.68.39-.47.61 1.77 1.43 1.54.57 2 .15.5.84-4 1.82-5.61 6-4.35 5.8s5.14-.43 7.24-3c.09.15-.6 4.31.57 3.4 4.42-3.44-.2-8.33 6.17-12.2m.23 5.6c2.53-1.4 3.23-3.83 2.42-5.54m-2.48 2.01a3.19 3.19 0 00-1.92 1.93m2.01-.76a3.62 3.62 0 01-3 2.65m8.17-5.77a21.45 21.45 0 013.2-3.17m-18.64 11.47a6.78 6.78 0 004.28-2.74m-3.8-1.66c.76.26 1.53.49 2.32.69m2.2 3.89a7.72 7.72 0 00-1 1.72m12.36-8.88a2.67 2.67 0 001.78.19m-4.81-4.8a1.61 1.61 0 00-.58 1.5" fill="#fff" stroke="#000" stroke-miterlimit="10" stroke-width=".45"/><path d="M226.67 99.8c1.52 2.43 7.48 4 9.17 1.33 4.14 3.5 7.79 5.1 4.58.36 12.21-1.76 5-4.66-1.59-4.47 1.18-1.24 3.17-3.19 1.47-3-2.38.19-3.59 1.44-4.9 3.14-1.31-2.72-5.55-4.07-8.76-.7a5.69 5.69 0 00-5-3.53c-.78-.07-.73.24.64 2.18 1 1.34 1.59 1.27-.06 1-4.33-.78-8 1.71-6.88 2.31s4.48 2.55 7.69 1.6c0 .18-2.93 3.21-1.45 3.12 5.59-.32 4.56-7 12-6.54m-2.94 4.68c2.88.28 4.84-1.31 5.14-3.19m-3.2.28a3.14 3.14 0 00-2.67.5m2.09.52a3.62 3.62 0 01-4 .46m10-.1a21 21 0 014.45-.78m-21.86-1.16a6.77 6.77 0 005.08.18m-2.18-3.52c.48.65 1 1.27 1.51 1.88m-.4 4.47a8 8 0 00-1.79.86m15.19-.32a2.75 2.75 0 001.37 1.17m-1.22-6.69a1.59 1.59 0 00-1.33.91" fill="#fff" stroke="#000" stroke-miterlimit="10" stroke-width=".45"/></svg>