<svg xmlns="http://www.w3.org/2000/svg" viewBox="0 0 1400 780"><path fill="#fff5ec" d="M0 0h1400v780H0z"/><path d="M941.74 549.68q-.88 2.88-1.7 5.67c.53-1.86 1.1-3.74 1.7-5.67zm-1.74 5.71c-4.13 14.32-6.84 26.74-10.54 37.38 3.72-10.64 6.42-23.05 10.54-37.38zm-10.53 37.41h0zm-.98 2.7c.33-.88.66-1.79 1-2.7-.33.91-.66 1.82-1 2.7zm-.01.04a80.26 80.26 0 01-2.73 6.46c.98-2.07 1.88-4.22 2.73-6.46zm-3.97 8.94c-.38.76-.79 1.49-1.21 2.22.42-.7.82-1.47 1.21-2.22z" fill="#fffffd" stroke="#000" stroke-miterlimit="10" stroke-width="1.15"/><path d="M915.13 469.45l-.73.05zm-4.2.49c1-.16 2.06-.31 3.2-.4-1.13.11-2.2.25-3.2.4zm-13.04-4.65c.76.77 1.49 1.62 2.18 2.46-.8-.94-1.51-1.75-2.18-2.46zm-5.3 7.71c.11-.35.2-.69.28-1.05a10.19 10.19 0 01-.28 1.05zm-.45 1.23c.05-.1.09-.21.14-.31-.04.08-.09.21-.14.31zm.8-4.89c-2.23-.51-5-2.29-8.13-5" fill="#de99ac" stroke="#000" stroke-miterlimit="10" stroke-width="1.15"/><path d="M892.87 472c-.21 1.72-1 3.65-3.42 6.22a13.14 13.14 0 003.42-6.22z" fill="#de99ac" stroke="#000" stroke-miterlimit="10" stroke-width="1.15"/><path d="M888.54 479.09a18.46 18.46 0 003.15-3.95 15.58 15.58 0 01-3.15 3.95z" fill="#de99ac" stroke="#000" stroke-miterlimit="10" stroke-width="1.15"/><path d="M886.67 593s10.18 2.05 14.76 0 15.27-10.68 18.84-21.88 16.28-96.71 16.28-96.71l17.31 13.24s-5.1 41.73-6.62 45.8c-16.38 43.6-13.85 73-40.12 90.48-3.34 2.22-.23 2-20.45-.71-3.29-7.85-6.88-12.44 0-30.22z" fill="#fffffd" stroke="#000" stroke-miterlimit="10" stroke-width="1.15"/><path d="M888.54 479.09l-.25.24z" fill="#de99ac" stroke="#000" stroke-miterlimit="10" stroke-width="1.15"/><path d="M876.64 487.72a72.07 72.07 0 0011.52-8.22c-4.77 4.79-21.01 14.04-11.52 8.22z" fill="#fbd2be" stroke="#000" stroke-miterlimit="10" stroke-width="1.15"/><path d="M871.18 490.94c.69-.41 1.18-.69.63-.35-.1.06-.45.27-.63.35zm-5.42 3.58a10.34 10.34 0 012.22-1.65 13.22 13.22 0 00-2.22 1.65zm.02 4.04c-.09-.08.07 0-.19-.92a2.81 2.81 0 01.19.92zm-.43-1.68c0-.06 0-.11-.05-.15a1.31 1.31 0 01.05.15z" fill="#de99ac" stroke="#000" stroke-miterlimit="10" stroke-width="1.15"/><path d="M865.3 496.73s.06.19.06.21c.08.38-.06-.32-.06-.21zm-.08-.2c0-.06-.07-.13-.1-.18s.07.13.1.18zm-.22-.42a1 1 0 01.14.24c-.06-.08-.14-.16-.14-.24zm-1.31-1.46a7.94 7.94 0 00-6.13-1.25 7.11 7.11 0 016.13 1.25zm-12.59 3.2c-1.82 2.39-3.28 5.1-5.68 6.43 2.33-1.61 4.68-5.28 5.68-6.43z" fill="#de99ac" stroke="#000" stroke-miterlimit="10" stroke-width="1.15"/><path d="M865.8 498.73v-.08a.22.22 0 010 .08zm-.44-1.79a1.66 1.66 0 00-.06-.21c0-.1.14.6.06.21zm.13.41c.2.76.46 2.06.22.65-.08-.2-.19-.55-.22-.65zm1.84 30c-9.1-14.21-23.2-19.72-29-22.83 12.39 5.73 13.63-21.08 26.91-7.8 0-2.13-.9-1.86 6.29-6 21.86-12.53 9.16-28 20.77-28 .66 0 3.34-.14 8.36 5.8 6.09 6.1 15.48-5.08 35.84 5.94 0 0-12.72 85.52-16.28 96.71S906 591 901.43 593s-14.76 0-14.76 0c5.6-5.1.51-22.39-.51-30s-9.67-21.37-18.83-35.67z" fill="#de99ac" stroke="#000" stroke-miterlimit="10" stroke-width="1.15"/><path d="M838.38 504.5c-3.94-1.31-5.67-5.67-6.68-9.7-.83-3.32 20.41 4.42 23.41-4.58-1.06-2.12-1.14-6.44 1.39-8.85 13.86 10.34 13.82 10.05 15.92 8.85 4.67-2.66-5.52 3-6.66 4.3-1.68 2.09.73 3.08-1.35.83-1.68-2.8-8.71-3.73-13.44 2.67-3.97 5.36-6.57 9.27-12.59 6.48z" fill="#de99ac" stroke="#000" stroke-miterlimit="10" stroke-width="1.15"/><path d="M812.62 616.67c-.33.1-.47.17-.14 0a.33.33 0 00.14 0z" fill="#fffffd" stroke="#000" stroke-miterlimit="10" stroke-width="1.15"/><path d="M806.06 422.15c0-15.17.16-3.48 0 7.57.05-4.81 0-6.72 0-7.57zm-.06-2.72v0zm0-4.7v-.41.41z" fill="#fbd2be" stroke="#000" stroke-miterlimit="10" stroke-width="1.15"/><path d="M806.06 422.36c0 16.69-.21 19.56 0-2.71v2.71z" fill="#de99ac" stroke="#000" stroke-miterlimit="10" stroke-width="1.15"/><path d="M806 438.16c.31-15.83 0-24 0-25 0-4.06.32 8.61 0 25z" fill="#fbd2be" stroke="#000" stroke-miterlimit="10" stroke-width="1.15"/><path d="M806 414.07a1.15 1.15 0 010 .19v-.19zm0-.94v.47zm0 .47v.26zm-.1 28.17v-1.78c.03.59.02 1.19 0 1.78z" fill="#fbd2be" stroke="#000" stroke-miterlimit="10" stroke-width="1.15"/><path d="M805.79 443.17c.24-15.42.48-19.51.11-1.4-.03 1.38-.12 2.04-.11 1.4z" fill="#fbd2be" stroke="#000" stroke-miterlimit="10" stroke-width="1.15"/><path d="M806.32 618.75l-1.13.37z" fill="#fffffd" stroke="#000" stroke-miterlimit="10" stroke-width="1.15"/><path d="M805.85 443.46c0 .52 0 .82-.06-.18zm.23-13.65c-.41 41.43.18-29.49 0-.09a.14.14 0 010 .09zm-.29 13.45c0-.1-.16-17.19 0-.09z" fill="#fbd2be" stroke="#000" stroke-miterlimit="10" stroke-width="1.15"/><path d="M803.68 390.82A130.71 130.71 0 01806 416.4c.09 11.09.3-10.74-2.32-25.58zm.09 172.38l1.69-2.41c-.12.57-.77 1.21-1.69 2.41z" fill="#de99ac" stroke="#000" stroke-miterlimit="10" stroke-width="1.15"/><path d="M802.06 384.25a41.1 41.1 0 011.61 6.52c-1.25-5.96-2.86-9.7-1.61-6.52zm-2.62-19.85c6.2 4 14.45 12.86 23.44 23.75-9.03-10.86-17.28-19.7-23.44-23.75z" fill="#fbd2be" stroke="#000" stroke-miterlimit="10" stroke-width="1.15"/><path d="M799.19 376.2c2.33 4.44 6.07 18.06 2.87 8.05 1.86 4.93-.74-2.86-2.87-8.05zm1.23 165.87c-3.83 56.87 5.32-98.13 5.42-98.13-.91 31.47-3.49 69.65-5.42 98.13zm-1.26-165.94v.07z" fill="#fbd2be" stroke="#000" stroke-miterlimit="10" stroke-width="1.15"/><path d="M801.6 383.06c-1.17-3.63-2.84-7.64-2.68-7.39 4.72 11.75 2.68 8 2.68 7.39z" fill="#fbd2be" stroke="#000" stroke-miterlimit="10" stroke-width="1.15"/><path d="M799.16 376.13c4.72 14.16 4.71 11.87-.24-.46z" fill="#fbd2be" stroke="#000" stroke-miterlimit="10" stroke-width="1.15"/><path d="M798.9 563.77c.76-10.65.65-9.62.77-9.5-.31 5.56-.45 8.2-.77 9.5z" fill="#de99ac" stroke="#000" stroke-miterlimit="10" stroke-width="1.15"/><path d="M797.73 565.1c1.44-.37 1.41-1.42 1.94-10.83 4.54 4.57 6 5.51 5.79 6.52-2.1 2.98-.84 2.78-7.73 4.31z" fill="#de99ac" stroke="#000" stroke-miterlimit="10" stroke-width="1.15"/><path d="M798.85 375.56c-1-2.44-.82-2 .07.11z" fill="#fbd2be" stroke="#000" stroke-miterlimit="10" stroke-width="1.15"/><path d="M798.85 375.56c3.92 10 3.76 10.53-.86-1.53.27.46.56.97.86 1.53z" fill="#de99ac" stroke="#000" stroke-miterlimit="10" stroke-width="1.15"/><path d="M797.94 373.26v0z" fill="#fbd2be" stroke="#000" stroke-miterlimit="10" stroke-width="1.15"/><path d="M797.76 621.57a44.599 44.599 0 000 0z" fill="#fffffd" stroke="#000" stroke-miterlimit="10" stroke-width="1.15"/><path d="M796.55 369.79c2.21 5.5 3.6 9 1.4 3.49-.03-.03-1.38-3.45-1.4-3.49z" fill="#fbd2be" stroke="#000" stroke-miterlimit="10" stroke-width="1.15"/><path d="M796.69 370.15c.24.58.46 1.16.69 1.71-.24-.56-.46-1.13-.69-1.71zm-.14-.36c.22.53.17.42 0 0z" fill="#fbd2be" stroke="#000" stroke-miterlimit="10" stroke-width="1.15"/><path d="M798 374c-2.46-6.54-1.68-4.89.86 1.53-.31-.53-.6-1.04-.86-1.53zm-1.85-5.25c.07.19.14.36.21.53z" fill="#fbd2be" stroke="#000" stroke-miterlimit="10" stroke-width="1.15"/><path d="M796.55 369.81c-1-2.5-.81-2.11-.19-.53.23.59.19.43.19.53zm-1.22-3.22c.33.87.23.64-.09-.24zm-.43-1.18h0c-.03-.15-.07-.14 0 0z" fill="#fbd2be" stroke="#000" stroke-miterlimit="10" stroke-width="1.15"/><path d="M794.76 365c0 .1.07.2.1.29a2.47 2.47 0 01-.1-.29z" fill="#fbd2be" stroke="#000" stroke-miterlimit="10" stroke-width="1.15"/><path d="M796.57 370.21c-1.88-5.11-2.94-8.17-1-3.07 1.07 2.97.96 2.42 1 3.07z" fill="#fbd2be" stroke="#000" stroke-miterlimit="10" stroke-width="1.15"/><path d="M794.36 363.88c.25.74.41 1.18.17.51-.05-.14-.05-.12-.17-.51zm-.08-.23c.09.28.18.23.08.23z" fill="#fbd2be" stroke="#000" stroke-miterlimit="10" stroke-width="1.15"/><path d="M794.36 363.88c.15.48.12.31 0 0z" fill="#de99ac" stroke="#000" stroke-miterlimit="10" stroke-width="1.15"/><path d="M799.44 364.4c6.16 4.05 14.41 12.89 23.44 23.75-8.99-10.89-17.24-19.73-23.44-23.75zm-5.66-2.34c20.38 1.59 79.48 102.73 99.16 107.28.15 8.44-9.06 14-16.3 18.38-7.07 4.33-4.65 5.21-20.14-6.35-50.72-37.79-50.23-36.78-50.65-37.91 1.66-58.09-4.62-59.46-12.07-81.4z" fill="#fbd2be" stroke="#000" stroke-miterlimit="10" stroke-width="1.15"/><path d="M794.12 363.16h0c-.02-.1-.12-.26 0 0zm0 0c.16.54.25.71 0 0z" fill="#fbd2be" stroke="#000" stroke-miterlimit="10" stroke-width="1.15"/><path d="M794.12 363.16c-1.54-4.88 2.84 7.77 1.73 4.84-.27-.72-1.37-3.71-1.73-4.84z" fill="#fbd2be" stroke="#000" stroke-miterlimit="10" stroke-width="1.15"/><path d="M789.67 566.49a67.48 67.48 0 0013.44-2.84 51.67 51.67 0 01-13.44 2.84z" fill="#de99ac" stroke="#000" stroke-miterlimit="10" stroke-width="1.15"/><path d="M787.92 566.54a57 57 0 009.17-1.29 38.56 38.56 0 01-9.17 1.29z" fill="#de99ac" stroke="#000" stroke-miterlimit="10" stroke-width="1.15"/><path d="M789.38 566.51c-1.31.07-3 .06-1.46 0z" fill="#de99ac" stroke="#000" stroke-miterlimit="10" stroke-width="1.15"/><path d="M793.75 362.05c-4.27-13-7.26-21.9-9.26-32 3.91 16.73 9.45 32 9.26 32zm-10.01 204.23c-7.68-1.5 12.1 1.72.09 0zm-1.67-337.58l.61-22.58c-.12 6.23-.35 13.99-.61 22.58zm-3.02-36.87l1-.36zm-1.05.35l1.06-.35z" fill="#fbd2be" stroke="#000" stroke-miterlimit="10" stroke-width="1.15"/><path d="M781.77 565.8a31.36 31.36 0 01-7.38-3 46.62 46.62 0 007.38 3z" fill="#de99ac" stroke="#000" stroke-miterlimit="10" stroke-width="1.15"/><path d="M775.18 563.2a32.75 32.75 0 006.68 2.62c5.14 1.37-1.81.03-6.68-2.62z" fill="#de99ac" stroke="#000" stroke-miterlimit="10" stroke-width="1.15"/><path d="M774.39 562.76c1.38.76.79.46-.54-.27z" fill="#de99ac" stroke="#000" stroke-miterlimit="10" stroke-width="1.15"/><path d="M771.88 193.91l-1.59.38zm1.8 368.5c-2.49-1.25-4.77-2.48-6.6-3.24a58.67 58.67 0 016.6 3.24z" fill="#fbd2be" stroke="#000" stroke-miterlimit="10" stroke-width="1.15"/><path d="M766.82 559.06l-.49-.18z" fill="#de99ac" stroke="#000" stroke-miterlimit="10" stroke-width="1.15"/><path d="M766.12 558.8c.1 0 .17.06-.07 0z" fill="#fbd2be" stroke="#000" stroke-miterlimit="10" stroke-width="1.15"/><path d="M766.05 558.79c-1.57-.43-1-.37.28.09a1.8 1.8 0 00-.28-.09z" fill="#de99ac" stroke="#000" stroke-miterlimit="10" stroke-width="1.15"/><path d="M765.29 541.68v.31c.02-.1.01-.21 0-.31z" fill="#fbd2be" stroke="#000" stroke-miterlimit="10" stroke-width="1.15"/><path d="M765.08 539.68v.2c0 .06.01-.14 0-.2z" fill="#ffd6c0" stroke="#000" stroke-miterlimit="10" stroke-width="1.15"/><path d="M765.07 558.5a3.56 3.56 0 00-.52-.07s.25-.01.52.07z" fill="#fbd2be" stroke="#000" stroke-miterlimit="10" stroke-width="1.15"/><path d="M764.55 558.43a4.38 4.38 0 01.54.07c2.17.6.07.05-.54-.07z" fill="#de99ac" stroke="#000" stroke-miterlimit="10" stroke-width="1.15"/><path d="M764.3 558.42c.73 0-.4.07-.5.06a1.63 1.63 0 01.5-.06z" fill="#de99ac" stroke="#000" stroke-miterlimit="10" stroke-width="1.15"/><path d="M764.46 533.8c0 .5.11 1 .16 1.53-.05-.52-.11-1.03-.16-1.53z" fill="#ffd6c0" stroke="#000" stroke-miterlimit="10" stroke-width="1.15"/><path d="M763.7 558.16v.23c0 .08.01-.12 0-.23z" fill="#de99ac" stroke="#000" stroke-miterlimit="10" stroke-width="1.15"/><path d="M763.7 558.16c-.06-.57-.16.2.6.26-.66 0-.55.24-.6-.26z" fill="#fbd2be" stroke="#000" stroke-miterlimit="10" stroke-width="1.15"/><path d="M763.67 557.7c-.08-.81-.07-.68-.08-.82-.06-1.08-.03-.37.08.82z" fill="#de99ac" stroke="#000" stroke-miterlimit="10" stroke-width="1.15"/><path d="M763.67 557.7v-.46c-.04.15-.02.3 0 .46z" fill="#de99ac" stroke="#000" stroke-miterlimit="10" stroke-width="1.15"/><path fill="#ffd6c0" stroke="#000" stroke-miterlimit="10" stroke-width="1.15" d="M763.09 520.65l.77 7.41"/><path d="M763.34 554.32c.09.7.15 1.28.19 1.75-.06-.62-.12-1.2-.19-1.75zm-.05-.47c0 .17 0 .32.05.47a8.38 8.38 0 01-.05-.47z" fill="#fbd2be" stroke="#000" stroke-miterlimit="10" stroke-width="1.15"/><path d="M763.34 554.32c.68 5.08.2 1.24-.3-2.16.09.48.29 2.06.3 2.16z" fill="#de99ac" stroke="#000" stroke-miterlimit="10" stroke-width="1.15"/><path d="M763.12 552.67c0-.18 0-.35-.08-.51.03.16.05.33.08.51zm-.24-1.42c0-.17-.07-.33-.1-.48.04.15.07.31.1.48z" fill="#de99ac" stroke="#000" stroke-miterlimit="10" stroke-width="1.15"/><path d="M762.53 515.27c.1.92.19 1.84.28 2.78-.09-.94-.19-1.86-.28-2.78z" fill="#ffd6c0" stroke="#000" stroke-miterlimit="10" stroke-width="1.15"/><path d="M762.66 550.2a18.016 18.016 0 000 0zm-.4-1.46l-.12-.39z" fill="#de99ac" stroke="#000" stroke-miterlimit="10" stroke-width="1.15"/><path d="M762.5 515c-.18-1.66-.35-3.3-.51-4.91z" fill="#ffd6c0" stroke="#000" stroke-miterlimit="10" stroke-width="1.15"/><path d="M759.41 545.05c-.15 0-.31-.1-.68-.16.53.11.94.25.68.16z" fill="#fbd2be" stroke="#000" stroke-miterlimit="10" stroke-width="1.15"/><path d="M759.32 545c-1-.21-3.56-.3-1.48-.23a5.15 5.15 0 011.48.23zm-7.96-.7l.42.11z" fill="#de99ac" stroke="#000" stroke-miterlimit="10" stroke-width="1.15"/><path d="M751.34 399.05c-.09-1.08-.16-1.28 0-.2-.01.15 0 .05 0 .2z" fill="#ffd6c0" stroke="#000" stroke-miterlimit="10" stroke-width="1.15"/><path d="M751.25 398.1c-1.36-13.82-.37-6.86.08.75-.01-.1-.08-.66-.08-.75z" fill="#fbd2be" stroke="#000" stroke-miterlimit="10" stroke-width="1.15"/><path d="M751.25 398.1c-.84-8-2.15-17.08-.84-8 .27 2.27.53 4.9.84 8z" fill="#fbd2be" stroke="#000" stroke-miterlimit="10" stroke-width="1.15"/><path d="M739.4 536.62c-3.61-7.57 5.8-7.61 10.79-9.27 2.42-.81 10.48 16.12 10.48 16.12 4.7 0 3.76-.08 4.83.22 1.62 15.31 1.68 14.36 1.34 15.34-4.82-1.61-2.43 1.23-3.87-7.28-.65-3.86-1.19-6.88-5.13-7-6.37-.09-7.47-.95-7.94-.95-12.21-3.97-8.76-3.54-10.5-7.18zm8.44 6.51l.18.06z" fill="#de99ac" stroke="#000" stroke-miterlimit="10" stroke-width="1.15"/><path d="M746.3 372.56c2.18 5.73 3.08 8.75 4.11 17.57a83.15 83.15 0 00-4.11-17.57z" fill="#fbd2be" stroke="#000" stroke-miterlimit="10" stroke-width="1.15"/><path d="M749 12.58c-1.28.79-2.55 1.56-3.79 2.28 1.19-.73 2.46-1.49 3.79-2.28z" fill="#c0d1d9" stroke="#000" stroke-miterlimit="10" stroke-width="1.15"/><path d="M749.9 543.85c-2.27-.6-13.63-5-2.06-.72.61.23 1.54.55 2.06.72z" fill="#de99ac" stroke="#000" stroke-miterlimit="10" stroke-width="1.15"/><path d="M746.12 372.08h0z" fill="#ffd6c0" stroke="#000" stroke-miterlimit="10" stroke-width="1.15"/><path d="M742 540.78l.64.27c-.09 0-.64-.19-.64-.27z" fill="#de99ac" stroke="#000" stroke-miterlimit="10" stroke-width="1.15"/><path d="M744.42 367.59c-5.55-15 .23.55.25.65z" fill="#fbd2be" stroke="#000" stroke-miterlimit="10" stroke-width="1.15"/><path d="M741 540.32l1 .46a8.19 8.19 0 01-1-.46z" fill="#de99ac" stroke="#000" stroke-miterlimit="10" stroke-width="1.15"/><path d="M740.22 539.08c.06.25.12.51.17.78a3 3 0 01-.17-.78z" fill="#fbd2be" stroke="#000" stroke-miterlimit="10" stroke-width="1.15"/><path d="M739.4 536.62a8.61 8.61 0 01.82 2.45 14.06 14.06 0 00-.82-2.45z" fill="#ffd6c0" stroke="#000" stroke-miterlimit="10" stroke-width="1.15"/><path d="M737.47 350.62c3.38 8.3 4.07 9.07 6.95 17-4.37-10.9-4.76-11.57-6.95-17z" fill="#de99ac" stroke="#000" stroke-miterlimit="10" stroke-width="1.15"/><path d="M737.1 349.7c.13.31.25.61.37.92-.13-.31-.25-.62-.37-.92z" fill="#fbd2be" stroke="#000" stroke-miterlimit="10" stroke-width="1.15"/><path d="M738.51 18.52c-.86.45-1.7.87-2.54 1.28.84-.42 1.68-.8 2.54-1.28z" fill="#c0d1d9" stroke="#000" stroke-miterlimit="10" stroke-width="1.15"/><path d="M692.16 203.86c20.94-1.38 68.18-5.25 87.92-12.39 3.21-1.16 3.19-5.47 2 37.57-2.29 81.49-1.38 94.81 12 134 5 14.76 9.61 24.09 9.61 27.8 6.51 36.9-4.28 173.84-5.95 174.28-4.2 1.12-11.81 2-16 .7-2.7-.84-15.1-6.27-14.71-7.4-17.72-167.77-14.75-169.53-20.92-186.29 0-3.56-15.9-32.5-19.44-61.64-1.38-11.62-12.67-41.76-34.51-106.63z" fill="#fbd2be" stroke="#000" stroke-miterlimit="10" stroke-width="1.15"/><path d="M731.71 334.59c2.48 7.79 17.67 46 4.86 13.8a184.87 184.87 0 01-4.86-13.8z" fill="#ffd6c0" stroke="#000" stroke-miterlimit="10" stroke-width="1.15"/><path d="M734.68 20.42c-1.15.55-2.3 1.08-3.43 1.57 1.13-.49 2.27-.99 3.43-1.57z" fill="#c0d1d9" stroke="#000" stroke-miterlimit="10" stroke-width="1.15"/><path d="M727.94 319.57c-5.18-28.56-5.22-24.85-3.68-20.28 0 .94 1.68 3.38 2.42 11 0 10.25 6.13 28.58 9.89 38.12a143.43 143.43 0 01-8.63-28.84z" fill="#de99ac" stroke="#000" stroke-miterlimit="10" stroke-width="1.15"/><path d="M726.7 310.47v.4c.02-.13.02-.27 0-.4z" fill="#ffd6c0" stroke="#000" stroke-miterlimit="10" stroke-width="1.15"/><path d="M726.68 310.27c-.7-7.13-4.77-17.95-.34-4.8.08 1.63.2 3.23.34 4.8z" fill="#fbd2be" stroke="#000" stroke-miterlimit="10" stroke-width="1.15"/><path d="M722.33 293.34c1.87 5.63 2.79 8.53.91 2.91-.07-.2-.43-1.4-.91-2.91z" fill="#fbd2be" stroke="#000" stroke-miterlimit="10" stroke-width="1.15"/><path d="M690.56 633.73c-3.19-7.27-.86-10.48-.86-10.48 17.39-4.68 29.87-18.54 32.29-22.57s16.11-28.2 17.22-32.23c.94-3.45 3-19.31 1.23-28.35 22.95 10.87 19.61-3.7 23.28 18.29 0 .2 0 0 .83 0 10.37 2 13.94 13.4 38.56 5.22.64-.21.2.13 2.64-3.26 1.92 18.08-4.58 2.76 8.91 55.61-63.38 20.94-113.99 40.86-124.1 17.77z" fill="#de99ac" stroke="#000" stroke-miterlimit="10" stroke-width="1.15"/><path d="M745.63 637.74c-5.28 1.51-26.9 7.69-32.36 7.15 9.6-.07 50.65-12.38 32.36-7.15z" fill="#de99ac" stroke="#000" stroke-miterlimit="10" stroke-width="1.15"/><path d="M713.55 644.9c4.71.16 17.24-2.91 32.08-7.16-26 7.65-28.41 7.44-32.08 7.16z" fill="#fffffd" stroke="#000" stroke-miterlimit="10" stroke-width="1.15"/><path d="M722.29 293.22c-3.08-9.36-8.55-25.39-18.38-54.53 10.48 30.95 15.63 45.87 18.38 54.53z" fill="#ffd6c0" stroke="#000" stroke-miterlimit="10" stroke-width="1.15"/><path d="M692.15 203.84c8-.53 19.84-1.38 32.57-2.66-13.09 1.32-32.52 2.76-32.57 2.66z" fill="#fbd2be" stroke="#000" stroke-miterlimit="10" stroke-width="1.15"/><path d="M703.89 238.63q-1-2.81-1.95-5.77c.67 1.99 1.33 3.9 1.95 5.77zm-3.32-9.8c.44 1.26.86 2.51 1.27 3.73-.42-1.22-.84-2.47-1.27-3.73z" fill="#ffd6c0" stroke="#000" stroke-miterlimit="10" stroke-width="1.15"/><path d="M684.54 645.15c11.18.27 24.67-.09 27.93-.23-15.86.84-33.17.08-27.93.23z" fill="#fffffd" stroke="#000" stroke-miterlimit="10" stroke-width="1.15"/><path d="M699.63 226c-.26-.76-.37-1-1.2-3.54-.94-2.8.22.68 1.2 3.54z" fill="#ffd6c0" stroke="#000" stroke-miterlimit="10" stroke-width="1.15"/><path d="M712.47 644.92c-3.27.14-16.76.76-27.93.23 12.67.58 31.78-.39 27.93-.23zm-20.06-8.32a19.75 19.75 0 006.12 4.49 19 19 0 01-6.12-4.49zm-.41-.55l.44.55c-.19-.18-.34-.37-.44-.55z" fill="#fffffd" stroke="#000" stroke-miterlimit="10" stroke-width="1.15"/><path d="M692.15 203.84c.06.12-13 .79-13.09.79s0 .05 13.09-.79z" fill="#c0d1d9" stroke="#000" stroke-miterlimit="10" stroke-width="1.15"/><path d="M691.56 635.49c.13.19.26.38.41.56a4.21 4.21 0 01-.41-.56zm-.37-.57c.11.19.24.39.37.57a5 5 0 01-.37-.57z" fill="#fffffd" stroke="#000" stroke-miterlimit="10" stroke-width="1.15"/><path d="M657.12 29.59V1.11h108.42C716 38.68 691.82 29.59 657.12 29.59z" fill="#eeb0bf" stroke="#000" stroke-miterlimit="10" stroke-width="1.15"/><path d="M679.06 204.63c4-.21 8.4-.46 13.1-.77 38.64 114.82 30.84 88.43 35.78 115.71 5.12 29.88 22.1 49.51 23.43 80.05 0 0-44.88-28-48.44-33.08s-11-6.11-12.37-18.83c-11.85-110.05-10.7-91.71-11.5-143.08z" fill="#ffd6c0" stroke="#000" stroke-miterlimit="10" stroke-width="1.15"/><path d="M686.08 306.25c.13 1.23.26 2.49.41 3.77-.15-1.28-.28-2.54-.41-3.77z" fill="#ffd6c0" stroke="#000" stroke-miterlimit="10" stroke-width="1.15"/><path d="M664 633.73c.41-5.61 25.74-10.48 25.74-10.48-3.28 4.47.14 19.92 23.48 21.64-20.95 0-49.22 4-49.22-11.16z" fill="#fffffd" stroke="#000" stroke-miterlimit="10" stroke-width="1.15"/><path d="M685.18 298q.32 2.94.66 6.09-.34-3.17-.66-6.09zm-1.01-9.26c.08.68.16 1.37.23 2.07-.07-.7-.15-1.38-.23-2.07zm-.41-3.93c.08.71.15 1.43.23 2.17-.08-.74-.16-1.46-.23-2.17zm-.4-3.64c.07.67.15 1.37.23 2.08-.08-.7-.16-1.4-.23-2.08zm-.5-4.67c.14 1.28.28 2.6.43 4-.16-1.4-.29-2.72-.43-4zm-.35-3.29c.1.94.21 1.91.31 2.89-.11-.98-.22-1.95-.31-2.89zm-.42-3.95c.13 1.23.26 2.5.41 3.82-.15-1.32-.28-2.59-.41-3.82z" fill="#ffd6c0" stroke="#000" stroke-miterlimit="10" stroke-width="1.15"/><path d="M680.8 644.93c5.56.42 3.75.07.91.07z" fill="#fffffd" stroke="#000" stroke-miterlimit="10" stroke-width="1.15"/><path d="M681.8 266.51c.09.86.18 1.76.28 2.68-.08-.92-.19-1.81-.28-2.68z" fill="#ffd6c0" stroke="#000" stroke-miterlimit="10" stroke-width="1.15"/><path d="M681.78 645l1.81.1c-.59-.01-1.22-.05-1.81-.1z" fill="#fffffd" stroke="#000" stroke-miterlimit="10" stroke-width="1.15"/><path d="M681.11 259.93c.07.74.16 1.5.24 2.29-.08-.79-.17-1.55-.24-2.29zm-.54-5.32l.45 4.53zm-.26-2.68c.07.71.14 1.44.21 2.21-.08-.77-.14-1.51-.21-2.21z" fill="#ffd6c0" stroke="#000" stroke-miterlimit="10" stroke-width="1.15"/><path d="M681.71 645c-1.89-.12-4.86-.41-2.77-.23.63.05 1.06.1 2.77.23zm-4.31-.39l.83.09zm-1.81-.25l-.56-.08zm-1.01-.17h0zm-.23-.04h.22a.85.85 0 01-.22 0zm-.07-.01l-.64-.12zm-.67-.14l-.61-.14zm-2.32-.61h0zm-.9-.39h0z" fill="#fffffd" stroke="#000" stroke-miterlimit="10" stroke-width="1.15"/><path d="M667.19 654.17c-3-5.23-3.79-12.57-3.23-20.39 0 2.32 2.39 9.08 11.63 10.58 36.18 5.91 60.54-2.52 136.08-27.37 4.12-1.65 3-2.94 3 16.74-27.77 7.93-133.78 44.08-147.48 20.44z" fill="#fffffd" stroke="#000" stroke-miterlimit="10" stroke-width="1.15"/><path d="M657.12 29.59c36.14 0 59 9 108.42-28.48 29 54 30.27 47.55 57 165.4-35 23.74-44.89 34.4-155.75 38.69-4.61-97.83-8.18-62.51-9.67-175.61z" fill="#c0d1d9" stroke="#000" stroke-miterlimit="10" stroke-width="1.15"/><path d="M651 652.91l-.18-.2a1.71 1.71 0 01.18.2zm-1.74-1.33c.2.12.41.23.6.36zm-3.66-1.33c-.62-.16-1.29-.32-2-.46.71.13 1.4.3 2 .46zm-3.03-.67q.54.09 1 .21c-.29-.08-.65-.15-1-.21zm-.57-.1h-.15zm-2.21-.35l1.12.17zm0 0l-1.15-.16zm-4.06-.48l1.17.12zm-1.13-.1l1.13.1zm-1.77-.14l1.15.09zm-1.7-.11l1.13.07zm-2.68-.14l1 .05zm-.52-.02l-1.92-.07zm13.94 1.32c-2.41-.38-34.17-3.17-9-1.05 2.66.23 5.7.45 9 1.05z" fill="#cdba9c" stroke="#000" stroke-miterlimit="10" stroke-width="1.15"/><path d="M609.71 644.19c.94-1.9 7.34-10 7.34-10.07 2.89-3.13 19.89 3.22 23.78 4.84 7.64 3.18 6.62 11.59 6.62 11.59-24.9-6.25-12.22 1.89-37.74-6.36z" fill="#f2f2f2" stroke="#000" stroke-miterlimit="10" stroke-width="1.15"/><path d="M611.57 641.49c-.84 1.22-1.5 2.19-1.75 2.54.25-.37.9-1.33 1.75-2.54z" fill="#e2cead" stroke="#000" stroke-miterlimit="10" stroke-width="1.15"/><path d="M608.9 66.13c.08.58.16 1.16.24 1.76-.08-.6-.14-1.18-.24-1.76zm-1.82-61.94v-.62c.01.21 0 .43 0 .62zm-1.32 36.56a103.777 103.777 0 000 0zm-.46-26.98v.26a2.38 2.38 0 010-.26zm-.11 20.72c.07.83.14 1.69.22 2.58-.08-.89-.16-1.75-.22-2.58zm.05-20.38c-.08.45-.16.93-.24 1.45.07-.56.15-1 .24-1.45zM605 32c.06.76.12 1.55.18 2.38-.07-.79-.13-1.58-.18-2.38zm0-16.4c-.42 3.15-.58 7.74 0 15.86-.61-8.18-.44-12.74 0-15.86z" fill="#cdd2b2" stroke="#000" stroke-miterlimit="10" stroke-width="1.15"/><path d="M557.61 608.1c34.92 23.59 39.83 27.59 59.81 25.63-1.77 1.77-7.63 10.3-7.71 10.46-.1 0-30.51-6.65-51.66-28.19-4.54-4.61-3.72-3.62-.44-7.9z" fill="#e6e6e6" stroke="#000" stroke-miterlimit="10" stroke-width="1.15"/><path d="M452.8 33.67c54.89-8.78 52.28-3.27 156.89 38.33-23.56 235.58-22 291.38-29.43 312.39-6.11 17.31-27 130.31-22.65 149.65 3.41 15.22 1.9 75.38 0 74.1l-2.89 3.77c-1.16-2.43-35.48-3.74-36.57-3.77-58.4-1.23-46.69 1.27-58.23-5.57-2.87-1.7 9.53-174.69 28.22-234.46 10-31.92-11.5-215.47-16-233.62-5.35-21.38-21.38-72.53-19.09-81.69s-.25-19.13-.25-19.13z" fill="#3e91bd" stroke="#000" stroke-miterlimit="10" stroke-width="1.15"/><path d="M449.2 1.07c190.67 0 156-4.42 156 13-2.2 11.59 2.5 43.62 4.5 57.77-104.81-41.51-102.18-46.92-156.9-38.17l-6.65-3.05z" fill="#cdd2b2" stroke="#000" stroke-miterlimit="10" stroke-width="1.15"/><path d="M465.15 614.79c.48-1.81 3.55-7.64.76-8.8 4.52 1.87 86.61 1.27 88.81 5.88a18.22 18.22 0 003.33 4.13c16.91 17.21 32.41 22.72 64 32 0 0-6.62 8.14-7.12 11.19s-58.54 6.19-68.71 5.38c-16-1.28-56.13-8.56-66.53-10.75-21.44-4.5-25.1.55-14.54-39.03z" fill="#e6e6e6" stroke="#000" stroke-miterlimit="10" stroke-width="1.15"/><path d="M460.93 633.68c0 .17-.07.33-.1.5.03-.18.06-.32.1-.5zm-.19.98q0 .3-.09.57a5.62 5.62 0 01.09-.57zm-.6 3.47c.15-.94.31-1.91.51-2.9-.32 1.82-.45 2.77-.51 2.9z" fill="#e2cead" stroke="#000" stroke-miterlimit="10" stroke-width="1.15"/><path d="M459.92 602.53l6 3.46a60.85 60.85 0 01-6-3.46z" fill="#3e91bd" stroke="#000" stroke-miterlimit="10" stroke-width="1.15"/><path d="M597.57 681.14c-76.4-1.74-76.2 4.76-141-12.27 0-7.24-.6-13.51 3-20.66 0-.1 41.84 12.79 86.61 16.37 10.17.81 68.2-2.33 68.71-5.38S622 648 622 648c5.65 0 24.92.55 28.83 4.7 4 3.59.82 20.06-1.34 22.3-1.02 1.06-51.92 6.14-51.92 6.14z" fill="#f2f2f2" stroke="#000" stroke-miterlimit="10" stroke-width="1.15"/><path d="M460.11 638.15v0z" fill="#e2cead" stroke="#000" stroke-miterlimit="10" stroke-width="1.15"/><path d="M459.9 639.67a.91.91 0 010 .23zm-.24 1.78c.07-.5.13-1 .21-1.55-.06.47-.13.99-.21 1.55zm-.1 6.76a1.17 1.17 0 00-.05.11.27.27 0 01.05-.11zm-.05-.68v.16zm.12-5.77c-.05.39-.09.79-.13 1.19.03-.38.08-.78.13-1.19zm-.17 5.5c0 .09 0 .19.05.27-.02-.08-.03-.17-.05-.27zm-.06-3.08c0-.39.06-.8.1-1.23-.04.41-.07.83-.1 1.23z" fill="#cdba9c" stroke="#000" stroke-miterlimit="10" stroke-width="1.15"/><path d="M459.38 646.44a2.11 2.11 0 000 .26 2.11 2.11 0 010-.26z" fill="#e2cead" stroke="#000" stroke-miterlimit="10" stroke-width="1.15"/><path d="M457.06 655.94a36.57 36.57 0 012.38-7.45 49.76 49.76 0 00-2.38 7.45z" fill="#cdba9c" stroke="#000" stroke-miterlimit="10" stroke-width="1.15"/><path d="M764.55 558.43s-18.74 57.15-39.06 63.14m140.29-123.01s28.33 45.55 27.16 60" fill="#de99ac" stroke="#000" stroke-miterlimit="10" stroke-width="1.15"/></svg>