<svg xmlns="http://www.w3.org/2000/svg" viewBox="0 0 700 700"><path fill="#fff5ec" d="M0 0h700v700H0z"/><path d="M560.14 478q-.78 2.5-1.48 4.94c.47-1.64.96-3.28 1.48-4.94zm-1.49 5c-3.59 12.45-5.95 23.25-9.17 32.51 3.21-9.3 5.57-20.1 9.17-32.51zm-9.18 32.49v0h0zm-.85 2.35c.28-.77.57-1.56.85-2.35-.28.79-.56 1.58-.85 2.35zm-.02.03c-.73 2-1.51 3.82-2.37 5.62q1.28-2.7 2.37-5.62zm-3.45 7.78c-.33.66-.69 1.3-1 1.94.31-.59.66-1.29 1-1.94z" fill="#fffffd" stroke="#000" stroke-miterlimit="10"/><path d="M537 408.18l-.63.05zm-3.66.43c.86-.14 1.79-.27 2.78-.35-.99.1-1.91.23-2.78.35zM522 404.57c.66.67 1.29 1.41 1.89 2.13a53.39 53.39 0 00-1.89-2.13zm-4.61 6.74a9.32 9.32 0 00.23-.91 7.58 7.58 0 01-.23.91zm-.39 1.04a2.36 2.36 0 00.12-.28 1.39 1.39 0 01-.12.28zm.69-4.26c-1.94-.45-4.34-2-7.08-4.36" fill="#de99ac" stroke="#000" stroke-miterlimit="10"/><path d="M517.63 410.39c-.18 1.5-.83 3.17-3 5.41a11.48 11.48 0 003-5.41z" fill="#de99ac" stroke="#000" stroke-miterlimit="10"/><path d="M513.86 416.58a16.07 16.07 0 002.74-3.45 13.75 13.75 0 01-2.74 3.45z" fill="#de99ac" stroke="#000" stroke-miterlimit="10"/><path d="M512.23 515.69s8.86 1.78 12.85 0 13.27-9.29 16.38-19 14.17-84.13 14.17-84.13l15 11.51s-4.43 36.31-5.76 39.85c-14.25 37.92-12 63.47-34.89 78.7-2.91 1.94-.21 1.72-17.8-.61-2.81-6.89-5.93-10.88.05-26.32z" fill="#fffffd" stroke="#000" stroke-miterlimit="10"/><path d="M513.86 416.58l-.22.21z" fill="#de99ac" stroke="#000" stroke-miterlimit="10"/><path d="M503.5 424.08a62.48 62.48 0 0010-7.15c-4.12 4.17-18.24 12.21-10 7.15z" fill="#fbd2be" stroke="#000" stroke-miterlimit="10"/><path d="M498.76 426.88c.6-.35 1-.6.55-.3-.09.05-.4.23-.55.3zM494 430a9.39 9.39 0 011.94-1.43A12.1 12.1 0 00494 430zm.06 3.51c-.07-.07.06 0-.17-.8a2 2 0 01.17.8zm-.38-1.46a.74.74 0 000-.14.43.43 0 010 .14z" fill="#de99ac" stroke="#000" stroke-miterlimit="10"/><path d="M493.64 431.91a1.39 1.39 0 01.06.19c.06.33-.06-.28-.06-.19zm-.07-.16c0-.06-.05-.12-.08-.17zm-.2-.37a1.51 1.51 0 01.12.2zm-1.13-1.27a6.9 6.9 0 00-5.33-1.09 6.21 6.21 0 015.33 1.09zm-10.95 2.79c-1.58 2.07-2.85 4.43-4.94 5.59 2.03-1.4 4.07-4.58 4.94-5.59z" fill="#de99ac" stroke="#000" stroke-miterlimit="10"/><path d="M494.08 433.66v-.07a.15.15 0 010 .07zm-.38-1.56l-.06-.19c-.01-.03.13.53.06.19zm.11.36c.18.66.4 1.79.19.56-.07-.17-.16-.47-.19-.56zm1.6 26.07c-7.92-12.36-20.19-17.15-25.18-19.85 10.77 5 11.86-18.34 23.4-6.79 0-1.85-.78-1.61 5.48-5.2 19-10.9 8-24.37 18.07-24.37.57 0 2.9-.13 7.27 5 5.29 5.3 13.46-4.41 31.18 5.17 0 0-11.07 74.39-14.17 84.13s-12.4 17.25-16.38 19-12.85 0-12.85 0c4.88-4.44.44-19.48-.44-26.12s-8.41-18.5-16.38-30.97z" fill="#de99ac" stroke="#000" stroke-miterlimit="10"/><path d="M470.23 438.68c-3.43-1.14-4.94-4.94-5.82-8.44-.72-2.89 17.76 3.85 20.37-4-.92-1.85-1-5.61 1.21-7.7 12.05 9 12 8.74 13.85 7.7 4.06-2.32-4.81 2.65-5.8 3.73-1.45 1.82.64 2.69-1.17.73-1.46-2.44-7.58-3.25-11.69 2.32-3.45 4.68-5.72 8.08-10.95 5.66z" fill="#de99ac" stroke="#000" stroke-miterlimit="10"/><path d="M447.82 536.26c-.29.08-.41.14-.13 0a.5.5 0 00.13 0z" fill="#fffffd" stroke="#000" stroke-miterlimit="10"/><path d="M442.11 367c0-13.2.14-3 0 6.59.04-4.15 0-5.77 0-6.59zm-.04-2.33v2.37c0-2.25-.01-2.04 0-2.37zm0-4.09v-.35c0 .09-.01.21 0 .35z" fill="#fbd2be" stroke="#000" stroke-miterlimit="10"/><path d="M442.11 367.22c0 14.52-.18 17 0-2.35v2.35z" fill="#de99ac" stroke="#000" stroke-miterlimit="10"/><path d="M442 381c.27-13.77 0-20.85 0-21.78.05-3.53.34 7.49 0 21.78z" fill="#fbd2be" stroke="#000" stroke-miterlimit="10"/><path d="M442.05 360a.86.86 0 010 .17c.01-.05 0-.1 0-.17zm-.05-.81v.41zm0 .41v.23zm0 24.51v-1.55 1.55zm-.12 1.22c.21-13.42.41-17 .09-1.22-.03 1.2-.1 1.78-.09 1.22z" fill="#fbd2be" stroke="#000" stroke-miterlimit="10"/><path d="M442.34 538.07l-1 .32z" fill="#fffffd" stroke="#000" stroke-miterlimit="10"/><path d="M441.93 385.58c0 .45 0 .71-.05-.16a.75.75 0 00.05.16zm.2-11.88c-.36 36 .16-25.65 0-.07a.08.08 0 010 .07zm-.25 11.7c0-.09-.14-14.95 0-.07z" fill="#fbd2be" stroke="#000" stroke-miterlimit="10"/><path d="M440 339.78a114.45 114.45 0 012 22.25c.14 9.66.32-9.34-2-22.25zm.12 149.96l1.47-2.09c-.11.49-.67 1-1.47 2.09z" fill="#de99ac" stroke="#000" stroke-miterlimit="10"/><path d="M438.63 334.07a34.57 34.57 0 011.4 5.67c-1.09-5.19-2.48-8.44-1.4-5.67zm-2.28-17.27c5.39 3.5 12.57 11.19 20.4 20.66-7.86-9.46-15.04-17.13-20.4-20.66z" fill="#fbd2be" stroke="#000" stroke-miterlimit="10"/><path d="M436.13 327.07c2 3.86 5.29 15.71 2.5 7 1.62 4.29-.63-2.49-2.5-7zm1.08 144.29c-3.34 49.47 4.62-85.36 4.71-85.36-.79 27.37-3.04 60.59-4.71 85.36zM436.11 327v0z" fill="#fbd2be" stroke="#000" stroke-miterlimit="10"/><path d="M438.23 333c-1-3.15-2.47-6.64-2.33-6.42 4.1 10.25 2.33 6.99 2.33 6.42z" fill="#fbd2be" stroke="#000" stroke-miterlimit="10"/><path d="M436.11 327c4.1 12.32 4.1 10.33-.21-.39z" fill="#fbd2be" stroke="#000" stroke-miterlimit="10"/><path d="M435.88 490.23c.66-9.26.56-8.37.68-8.25a66.61 66.61 0 01-.68 8.25z" fill="#de99ac" stroke="#000" stroke-miterlimit="10"/><path d="M434.87 491.4c1.25-.33 1.22-1.25 1.69-9.42 3.94 4 5.22 4.78 5 5.67-1.8 2.59-.71 2.41-6.69 3.75z" fill="#de99ac" stroke="#000" stroke-miterlimit="10"/><path d="M435.84 326.51c-.84-2.12-.71-1.77.06.1z" fill="#fbd2be" stroke="#000" stroke-miterlimit="10"/><path d="M435.84 326.51c3.41 8.67 3.27 9.16-.75-1.33.23.4.48.82.75 1.33z" fill="#de99ac" stroke="#000" stroke-miterlimit="10"/><path d="M435.05 324.51v0z" fill="#fbd2be" stroke="#000" stroke-miterlimit="10"/><path d="M434.89 540.51c-.47.15-.95.3-1.43.47.48-.17.96-.32 1.43-.47z" fill="#fffffd" stroke="#000" stroke-miterlimit="10"/><path d="M433.84 321.49c1.92 4.79 3.13 7.82 1.21 3-.05.01-1.2-2.97-1.21-3z" fill="#fbd2be" stroke="#000" stroke-miterlimit="10"/><path d="M434 321.81c.2.5.4 1 .6 1.48-.25-.49-.44-.98-.6-1.48zm-.16-.32c.19.47.15.36 0 0z" fill="#fbd2be" stroke="#000" stroke-miterlimit="10"/><path d="M435.09 325.18c-2.14-5.69-1.46-4.25.75 1.33-.27-.51-.52-.93-.75-1.33zm-1.6-4.59l.18.46zm.35.92c-.85-2.18-.71-1.84-.17-.46.2.51.17.38.17.46zm-1.06-2.8c.29.76.2.55-.08-.21zm-.38-1.03h0c-.02-.13-.06-.12 0 0z" fill="#fbd2be" stroke="#000" stroke-miterlimit="10"/><path d="M432.28 317.34l.09.25c-.04-.09-.06-.17-.09-.25zm1.58 4.52c-1.64-4.45-2.56-7.11-.91-2.67.97 2.58.87 2.1.91 2.67z" fill="#fbd2be" stroke="#000" stroke-miterlimit="10"/><path d="M431.93 316.35c.22.64.36 1 .15.45-.08-.13-.08-.11-.15-.45zm-.06-.2c.07.25.15.2.06.2z" fill="#fbd2be" stroke="#000" stroke-miterlimit="10"/><path d="M431.93 316.35c.13.42.11.27 0 0z" fill="#de99ac" stroke="#000" stroke-miterlimit="10"/><path d="M436.35 316.8c5.36 3.53 12.54 11.21 20.4 20.66-7.83-9.46-15.01-17.16-20.4-20.66zm-4.92-2c17.73 1.38 69.14 89.37 86.26 93.32.13 7.35-7.89 12.16-14.19 16-6.15 3.77-4 4.53-17.51-5.52-44.12-32.88-43.69-32-44.06-33 1.45-50.6-4.02-51.71-10.5-70.83z" fill="#fbd2be" stroke="#000" stroke-miterlimit="10"/><path d="M431.72 315.72h0c-.01-.08-.07-.22 0 0zm0 0c.14.47.22.62 0 0z" fill="#fbd2be" stroke="#000" stroke-miterlimit="10"/><path d="M431.72 315.72c-1.34-4.24 2.47 6.77 1.51 4.22-.23-.63-1.23-3.23-1.51-4.22z" fill="#fbd2be" stroke="#000" stroke-miterlimit="10"/><path d="M427.86 492.6a59.51 59.51 0 0011.69-2.46 45 45 0 01-11.69 2.46z" fill="#de99ac" stroke="#000" stroke-miterlimit="10"/><path d="M426.33 492.65a49.47 49.47 0 008-1.13 33 33 0 01-8 1.13z" fill="#de99ac" stroke="#000" stroke-miterlimit="10"/><path d="M427.6 492.62c-1.14.06-2.57.05-1.27 0z" fill="#de99ac" stroke="#000" stroke-miterlimit="10"/><path d="M431.4 314.76c-3.71-11.28-6.31-19.05-8-27.8 3.35 14.51 8.17 27.8 8 27.8zm-8.7 177.66c-6.69-1.3 10.52 1.5.07 0zm-1.46-293.67l.53-19.63c-.1 5.42-.3 12.17-.53 19.63zm-2.62-32.07l.89-.31c-.28.11-.59.21-.89.31zm-.93.32l.93-.31z" fill="#fbd2be" stroke="#000" stroke-miterlimit="10"/><path d="M421 492a27.3 27.3 0 01-6.42-2.64A41.31 41.31 0 00421 492z" fill="#de99ac" stroke="#000" stroke-miterlimit="10"/><path d="M415.25 489.74a28.17 28.17 0 005.81 2.28c4.48 1.19-1.58.03-5.81-2.28zm-.69-.38c1.2.66.69.4-.47-.23z" fill="#de99ac" stroke="#000" stroke-miterlimit="10"/><path d="M412.38 168.49l-1.38.34zM414 489.05c-2.17-1.08-4.15-2.15-5.74-2.82a52.79 52.79 0 015.74 2.82z" fill="#fbd2be" stroke="#000" stroke-miterlimit="10"/><path d="M408 486.14l-.42-.16z" fill="#de99ac" stroke="#000" stroke-miterlimit="10"/><path d="M407.37 485.92h-.07z" fill="#fbd2be" stroke="#000" stroke-miterlimit="10"/><path d="M407.3 485.9c-1.36-.37-.85-.32.25.08a2.41 2.41 0 00-.25-.08z" fill="#de99ac" stroke="#000" stroke-miterlimit="10"/><path d="M406.65 471a2.48 2.48 0 000 .27 2.48 2.48 0 010-.27z" fill="#fbd2be" stroke="#000" stroke-miterlimit="10"/><path d="M406.46 469.28v.18c0 .06.01-.12 0-.18z" fill="#ffd6c0" stroke="#000" stroke-miterlimit="10"/><path d="M406.45 485.65l-.45-.06s.22 0 .45.06z" fill="#fbd2be" stroke="#000" stroke-miterlimit="10"/><path d="M406 485.59a3.09 3.09 0 01.47.07c1.89.51.06.03-.47-.07z" fill="#de99ac" stroke="#000" stroke-miterlimit="10"/><path d="M405.79 485.58c.63 0-.35.06-.44.06a1.23 1.23 0 01.44-.06z" fill="#de99ac" stroke="#000" stroke-miterlimit="10"/><path d="M405.92 464.16c.05.44.1.89.14 1.33-.06-.44-.06-.89-.14-1.33z" fill="#ffd6c0" stroke="#000" stroke-miterlimit="10"/><path d="M405.26 485.35a1.48 1.48 0 010 .21 2 2 0 000-.21z" fill="#de99ac" stroke="#000" stroke-miterlimit="10"/><path d="M405.26 485.35c-.05-.49-.14.18.53.23-.58 0-.49.21-.53-.23z" fill="#fbd2be" stroke="#000" stroke-miterlimit="10"/><path d="M405.23 485c-.07-.71-.05-.6-.07-.71-.04-.99-.02-.37.07.71z" fill="#de99ac" stroke="#000" stroke-miterlimit="10"/><path d="M405.23 485v-.4c-.03.09-.01.21 0 .4z" fill="#de99ac" stroke="#000" stroke-miterlimit="10"/><path fill="#ffd6c0" stroke="#000" stroke-miterlimit="10" d="M404.73 452.73l.67 6.44"/><path d="M405 482c.08.6.13 1.11.16 1.52A8.1 8.1 0 01405 482zm-.1-.39c0 .14 0 .27.05.41-.02-.14-.03-.28-.05-.41z" fill="#fbd2be" stroke="#000" stroke-miterlimit="10"/><path d="M405 482c.59 4.42.17 1.07-.26-1.88.03.43.2 1.81.26 1.88zm-.24-1.42c0-.15-.05-.3-.07-.44.02.14.04.29.07.44zm-.21-1.23q0-.23-.09-.42c.04.13.06.27.09.42z" fill="#de99ac" stroke="#000" stroke-miterlimit="10"/><path d="M404.24 448.05c.09.79.17 1.6.25 2.41-.08-.81-.17-1.62-.25-2.41z" fill="#ffd6c0" stroke="#000" stroke-miterlimit="10"/><path d="M404.36 478.44a13.926 13.926 0 000 0zm-.36-1.28c0-.11-.07-.23-.11-.34.05.12.11.23.11.34z" fill="#de99ac" stroke="#000" stroke-miterlimit="10"/><path d="M404.22 447.77c-.16-1.44-.31-2.87-.45-4.27z" fill="#ffd6c0" stroke="#000" stroke-miterlimit="10"/><path d="M401.53 474a3.16 3.16 0 00-.59-.15c.46.01.82.15.59.15z" fill="#fbd2be" stroke="#000" stroke-miterlimit="10"/><path d="M401.45 473.93c-.87-.18-3.09-.26-1.29-.19a4.52 4.52 0 011.29.19zm-6.92-.63l.36.09z" fill="#de99ac" stroke="#000" stroke-miterlimit="10"/><path d="M394.51 347c-.08-.95-.14-1.12 0-.18-.01.08 0 0 0 .18z" fill="#ffd6c0" stroke="#000" stroke-miterlimit="10"/><path d="M394.43 346.12c-1.18-12-.32-6 .07.65-.01-.08-.07-.57-.07-.65z" fill="#fbd2be" stroke="#000" stroke-miterlimit="10"/><path d="M394.43 346.12c-.73-6.91-1.87-14.86-.73-6.93.23 1.95.46 4.21.73 6.93z" fill="#fbd2be" stroke="#000" stroke-miterlimit="10"/><path d="M384.12 466.62c-3.13-6.59 5.05-6.62 9.39-8.07 2.1-.7 9.11 14 9.11 14 4.09 0 3.28-.06 4.21.2 1.41 13.32 1.46 12.49 1.16 13.34-4.19-1.4-2.11 1.07-3.36-6.33-.57-3.36-1-6-4.47-6-5.53-.09-6.5-.84-6.91-.84-10.62-3.51-7.62-3.14-9.13-6.3zm7.34 5.66l.17.06z" fill="#de99ac" stroke="#000" stroke-miterlimit="10"/><path d="M390.13 323.9c1.89 5 2.67 7.62 3.57 15.29a72.57 72.57 0 00-3.57-15.29z" fill="#fbd2be" stroke="#000" stroke-miterlimit="10"/><path d="M392.43 10.75c-1.11.69-2.21 1.36-3.3 2 1.09-.65 2.19-1.31 3.3-2z" fill="#c0d1d9" stroke="#000" stroke-miterlimit="10"/><path d="M393.25 472.9c-2-.51-11.85-4.36-1.79-.62.54.2 1.35.48 1.79.62z" fill="#de99ac" stroke="#000" stroke-miterlimit="10"/><path d="M390 323.48v0h0z" fill="#ffd6c0" stroke="#000" stroke-miterlimit="10"/><path d="M386.37 470.23l.57.24c-.07 0-.57-.17-.57-.24z" fill="#de99ac" stroke="#000" stroke-miterlimit="10"/><path d="M388.49 319.58c-4.83-13.06.2.48.22.57s-.2-.53-.22-.57z" fill="#fbd2be" stroke="#000" stroke-miterlimit="10"/><path d="M385.47 469.84l.9.39a7.32 7.32 0 01-.9-.39z" fill="#de99ac" stroke="#000" stroke-miterlimit="10"/><path d="M384.83 468.76c.06.22.11.44.16.67a2.19 2.19 0 01-.16-.67z" fill="#fbd2be" stroke="#000" stroke-miterlimit="10"/><path d="M384.12 466.62a7 7 0 01.71 2.13 11.55 11.55 0 00-.71-2.13z" fill="#ffd6c0" stroke="#000" stroke-miterlimit="10"/><path d="M382.44 304.81c2.95 7.23 3.54 7.9 6.05 14.77-3.8-9.46-4.14-10.04-6.05-14.77z" fill="#de99ac" stroke="#000" stroke-miterlimit="10"/><path d="M382.12 304c.11.26.22.53.32.79-.11-.24-.22-.51-.32-.79z" fill="#fbd2be" stroke="#000" stroke-miterlimit="10"/><path d="M383.35 15.92L381.14 17z" fill="#c0d1d9" stroke="#000" stroke-miterlimit="10"/><path d="M343 177.15c18.22-1.21 59.31-4.57 76.48-10.78 2.8-1 2.78-4.76 1.73 32.69-2 70.88-1.2 82.46 10.44 116.54 4.39 12.84 8.36 21 8.36 24.18 5.67 32.11-3.72 151.23-5.17 151.62-3.66 1-10.28 1.73-13.89.6-2.35-.73-13.13-5.46-12.8-6.43-15.38-145.95-12.8-147.48-18.15-162.06 0-3.09-13.83-28.27-16.9-53.62-1.25-10.09-11.1-36.31-30.1-92.74z" fill="#fbd2be" stroke="#000" stroke-miterlimit="10"/><path d="M377.44 290.87c2.15 6.78 15.36 40 4.22 12-1.44-3.62-2.9-7.66-4.22-12z" fill="#ffd6c0" stroke="#000" stroke-miterlimit="10"/><path d="M380 17.58a99.275 99.275 0 010 0z" fill="#c0d1d9" stroke="#000" stroke-miterlimit="10"/><path d="M374.16 277.8c-4.51-24.84-4.55-21.62-3.21-17.64 0 .82 1.46 2.94 2.11 9.55 0 8.92 5.33 24.87 8.6 33.16a124.35 124.35 0 01-7.5-25.07z" fill="#de99ac" stroke="#000" stroke-miterlimit="10"/><path d="M373.08 269.89v.35z" fill="#ffd6c0" stroke="#000" stroke-miterlimit="10"/><path d="M373.06 269.71c-.61-6.2-4.15-15.61-.3-4.17.07 1.46.18 2.81.3 4.17z" fill="#fbd2be" stroke="#000" stroke-miterlimit="10"/><path d="M369.28 255c1.62 4.9 2.42 7.43.78 2.54-.06-.19-.36-1.24-.78-2.54z" fill="#fbd2be" stroke="#000" stroke-miterlimit="10"/><path d="M341.63 551.09c-2.77-6.32-.74-9.11-.74-9.11 15.12-4.08 26-16.13 28.08-19.63s14-24.54 15-28c.82-3 2.61-16.8 1.07-24.67 20 9.46 17.06-3.21 20.24 15.92 0 .17 0 0 .73 0 9 1.69 12.12 11.66 33.55 4.55.55-.19.17.1 2.29-2.84 1.67 15.73-4 2.39 7.75 48.37-55.14 18.17-99.17 35.5-107.97 15.41z" fill="#de99ac" stroke="#000" stroke-miterlimit="10"/><path d="M389.54 554.58c-4.59 1.32-23.4 6.7-28.14 6.22 8.34-.06 44.05-10.8 28.14-6.22z" fill="#de99ac" stroke="#000" stroke-miterlimit="10"/><path d="M361.63 560.82c4.11.14 15-2.54 27.91-6.24-22.61 6.66-24.71 6.47-27.91 6.24z" fill="#fffffd" stroke="#000" stroke-miterlimit="10"/><path d="M369.24 254.88c-2.68-8.14-7.44-22.08-16-47.43 9.13 26.92 13.6 39.9 16 47.43z" fill="#ffd6c0" stroke="#000" stroke-miterlimit="10"/><path d="M343 177.13c7-.46 17.26-1.2 28.33-2.32-11.33 1.19-28.26 2.41-28.33 2.32z" fill="#fbd2be" stroke="#000" stroke-miterlimit="10"/><path d="M353.23 207.4l-1.7-5q.89 2.6 1.7 5zm-2.88-8.53c.38 1.1.74 2.18 1.1 3.25-.37-1.07-.74-2.12-1.1-3.25z" fill="#ffd6c0" stroke="#000" stroke-miterlimit="10"/><path d="M336.4 561c9.72.23 21.46-.07 24.3-.2-13.8.76-28.86.13-24.3.2z" fill="#fffffd" stroke="#000" stroke-miterlimit="10"/><path d="M349.53 196.43c-.23-.65-.33-.9-1-3.07-.86-2.47.15.56 1 3.07z" fill="#ffd6c0" stroke="#000" stroke-miterlimit="10"/><path d="M360.7 560.83c-2.84.12-14.59.66-24.3.2 11.02.51 27.6-.34 24.3-.2zm-17.45-7.24a17.34 17.34 0 005.32 3.91 16.6 16.6 0 01-5.32-3.91zm-.39-.48c.13.16.25.32.39.48a5.48 5.48 0 01-.39-.48z" fill="#fffffd" stroke="#000" stroke-miterlimit="10"/><path d="M343 177.13c.05.1-11.29.69-11.39.69s.03.04 11.39-.69z" fill="#c0d1d9" stroke="#000" stroke-miterlimit="10"/><path d="M342.5 552.63c.12.17.23.33.36.48a4.29 4.29 0 01-.36-.48zm-.32-.5c.1.17.21.34.32.5a5.29 5.29 0 01-.32-.5z" fill="#fffffd" stroke="#000" stroke-miterlimit="10"/><path d="M312.55 25.55V.77h94.31c-43.06 32.68-64.12 24.78-94.31 24.78z" fill="#eeb0bf" stroke="#000" stroke-miterlimit="10"/><path d="M331.63 177.82c3.48-.18 7.31-.41 11.4-.67 33.61 99.88 26.82 76.93 31.13 100.65 4.45 26 19.22 43.08 20.37 69.64 0 0-39-24.35-42.14-28.77s-9.56-5.32-10.76-16.39c-10.3-95.73-9.3-79.75-10-124.46z" fill="#ffd6c0" stroke="#000" stroke-miterlimit="10"/><path d="M337.74 266.22c.11 1.07.23 2.16.35 3.28-.09-1.12-.24-2.21-.35-3.28z" fill="#ffd6c0" stroke="#000" stroke-miterlimit="10"/><path d="M318.5 551.09c.36-4.88 22.39-9.11 22.39-9.11-2.86 3.89.12 17.33 20.42 18.82-18.19 0-42.81 3.48-42.81-9.71z" fill="#fffffd" stroke="#000" stroke-miterlimit="10"/><path d="M337 259c.18 1.71.37 3.47.57 5.3-.24-1.81-.43-3.57-.57-5.3zm-.92-8c.07.59.13 1.19.2 1.8-.07-.62-.13-1.22-.2-1.8zm-.36-3.43c.07.61.13 1.25.2 1.88-.07-.63-.14-1.27-.2-1.88zm-.35-3.17c.07.59.14 1.19.2 1.81-.07-.61-.13-1.21-.2-1.81zm-.43-4.06c.12 1.11.24 2.26.37 3.45-.13-1.19-.25-2.34-.37-3.45zm-.31-2.86c.09.81.18 1.65.27 2.51-.09-.86-.19-1.7-.27-2.51zm-.36-3.48c.11 1.07.23 2.18.35 3.33-.12-1.11-.24-2.22-.35-3.33z" fill="#ffd6c0" stroke="#000" stroke-miterlimit="10"/><path d="M333.14 560.84c4.84.37 3.27.06.8.06z" fill="#fffffd" stroke="#000" stroke-miterlimit="10"/><path d="M334 231.65c.08.75.16 1.53.25 2.33-.08-.8-.16-1.58-.25-2.33z" fill="#ffd6c0" stroke="#000" stroke-miterlimit="10"/><path d="M334 560.91l1.57.09c-.57 0-1.06-.06-1.57-.09z" fill="#fffffd" stroke="#000" stroke-miterlimit="10"/><path d="M333.42 225.93c.06.64.13 1.3.2 2-.07-.7-.14-1.36-.2-2zm-.42-4.63c.12 1.23.25 2.54.39 3.94zm-.28-2.3c.06.62.12 1.26.19 1.93-.07-.71-.13-1.36-.19-1.93z" fill="#ffd6c0" stroke="#000" stroke-miterlimit="10"/><path d="M333.94 560.9c-1.65-.11-4.23-.36-2.41-.2zm-3.75-.34l.72.08zm-1.57-.21l-.5-.08zm-.88-.15h0zm-.2-.04h.19zm-.07-.01l-.55-.11zm-.58-.15l-.53-.12zm-2.02-.5h0zm-.78-.31h0z" fill="#fffffd" stroke="#000" stroke-miterlimit="10"/><path d="M321.31 568.88c-2.62-4.55-3.3-10.94-2.81-17.74 0 2 2.08 7.89 10.12 9.21 31.46 5.14 52.66-2.2 118.37-23.82 3.59-1.43 2.6-2.55 2.6 14.56-24.15 6.91-116.36 38.35-128.28 17.79z" fill="#fffffd" stroke="#000" stroke-miterlimit="10"/><path d="M312.55 25.55c31.44 0 51.31 7.86 94.31-24.78 25.23 46.95 26.33 41.37 49.58 143.89C426 165.31 417.39 174.58 321 178.31c-4.06-85.1-7.16-54.37-8.45-152.76z" fill="#c0d1d9" stroke="#000" stroke-miterlimit="10"/><path d="M307.23 567.78a1.25 1.25 0 00-.16-.17 1.29 1.29 0 01.16.17zm-1.52-1.15a4 4 0 01.52.31 6.49 6.49 0 00-.52-.31zm-3.18-1.16c-.55-.15-1.13-.28-1.72-.41.59.12 1.19.26 1.72.41zm-2.64-.59l.92.18zm-.48-.08h-.13zm-1.94-.31l1 .15zm0 0l-1-.13zm-3.53-.42l1 .11zM293 564c.33 0 .65.07 1 .09-.39-.04-.72-.09-1-.09zm-1.58-.14l1 .08zm-1.48-.09l1 .06zm-2.34-.12h.92zm-.44-.02l-1.68-.06z" fill="#cdba9c" stroke="#000" stroke-miterlimit="10"/><path d="M299.28 564.78c-2.09-.33-29.73-2.76-7.86-.92 2.35.2 4.99.4 7.86.92z" fill="#cdba9c" stroke="#000" stroke-miterlimit="10"/><path d="M271.3 560.19c.83-1.64 6.39-8.67 6.39-8.75 2.51-2.72 17.3 2.8 20.69 4.21 6.64 2.76 5.75 10.08 5.75 10.08-21.66-5.44-10.62 1.64-32.83-5.54z" fill="#f2f2f2" stroke="#000" stroke-miterlimit="10"/><path d="M272.92 557.84c-.72 1.07-1.3 1.91-1.52 2.22.21-.32.78-1.16 1.52-2.22z" fill="#e2cead" stroke="#000" stroke-miterlimit="10"/><path d="M270.6 57.34l.21 1.53zM269 3.45v-.53.53zm-1.13 31.81c.06.64.13 1.3.2 2-.07-.7-.14-1.36-.2-2zm-.4-23.47v.23a1.57 1.57 0 010-.23zm-.1 18.02c.07.72.13 1.47.19 2.25-.07-.78-.13-1.53-.19-2.25zm.04-17.73a28.107 28.107 0 000 0zm-.2 15.6c.05.66.1 1.35.16 2.07-.07-.75-.12-1.41-.16-2.07zm-.01-14.3a71 71 0 000 13.79c-.52-7.11-.37-11.08 0-13.79z" fill="#cdd2b2" stroke="#000" stroke-miterlimit="10"/><path d="M226 528.8c30.38 20.52 34.65 24 52 22.29-1.54 1.55-6.64 9-6.71 9.1s-26.53-5.78-44.94-24.52c-3.94-4.01-3.22-3.15-.35-6.87z" fill="#e6e6e6" stroke="#000" stroke-miterlimit="10"/><path d="M134.8 29.1c47.76-7.64 45.49-2.85 136.48 33.31-20.49 204.93-19.13 253.47-25.59 271.75-5.31 15.06-23.48 113.35-19.71 130.18 3 13.24 1.66 65.57 0 64.46l-2.51 3.28c-1-2.12-30.86-3.26-31.81-3.28-50.81-1.07-40.66 1.11-50.66-4.8-2.5-1.48 8.29-152 24.55-204 8.67-27.77-10-187.44-14-203.22C147 98.17 133 53.67 135 45.7s-.2-16.6-.2-16.6z" fill="#3e91bd" stroke="#000" stroke-miterlimit="10"/><path d="M131.68.74c165.86 0 135.73-3.84 135.73 11.34-2 10 2.15 37.92 3.89 50.22-91.18-36.1-88.9-40.81-136.5-33.2l-5.8-2.66z" fill="#cdd2b2" stroke="#000" stroke-miterlimit="10"/><path d="M145.55 534.62c.42-1.57 3.09-6.65.66-7.66 3.93 1.63 75.35 1.11 77.26 5.12a16.17 16.17 0 002.89 3.59c14.71 15 28.2 19.76 55.64 27.84 0 0-5.76 7.08-6.2 9.74s-50.92 5.39-59.77 4.68c-13.92-1.12-48.83-7.45-57.87-9.35-18.61-3.93-21.8.47-12.61-33.96z" fill="#e6e6e6" stroke="#000" stroke-miterlimit="10"/><path d="M141.88 551.05l-.09.43c.03-.14.05-.28.09-.43zm-.16.85c0 .18-.06.34-.09.5a4.37 4.37 0 01.09-.5zm-.53 3.02c.13-.81.27-1.66.44-2.52-.27 1.6-.38 2.38-.44 2.52z" fill="#e2cead" stroke="#000" stroke-miterlimit="10"/><path d="M141 524l5.21 3a51.4 51.4 0 01-5.21-3z" fill="#3e91bd" stroke="#000" stroke-miterlimit="10"/><path d="M260.75 592.34c-66.47-1.52-66.29 4.14-122.65-10.68 0-6.29-.52-11.75 2.59-18 0-.09 36.39 11.12 75.34 14.24 8.85.71 59.33-2 59.77-4.68s6.2-9.74 6.2-9.74c4.91 0 21.68.49 25.07 4.1 3.51 3.12.71 17.44-1.16 19.4-.91.94-45.16 5.36-45.16 5.36z" fill="#f2f2f2" stroke="#000" stroke-miterlimit="10"/><path d="M141.17 554.94v0z" fill="#e2cead" stroke="#000" stroke-miterlimit="10"/><path d="M141 556.27v.19a1.48 1.48 0 010-.19zm-.22 1.54c.05-.43.11-.89.18-1.35q-.09.62-.18 1.35zm-.09 5.88l-.05.1a.31.31 0 01.05-.1zm-.05-.59a.89.89 0 010 .14.89.89 0 000-.14zm.11-5.02c0 .34-.08.69-.11 1 .03-.29.07-.64.11-1zm-.15 4.79a2.23 2.23 0 010 .23 2.23 2.23 0 000-.23zm-.05-2.69c0-.33 0-.69.09-1.06-.04.36-.07.71-.09 1.06z" fill="#cdba9c" stroke="#000" stroke-miterlimit="10"/><path d="M140.53 562.15a1.64 1.64 0 000 .23 1.64 1.64 0 010-.23z" fill="#e2cead" stroke="#000" stroke-miterlimit="10"/><path d="M138.51 570.42a31.83 31.83 0 012.07-6.49 45.89 45.89 0 00-2.07 6.49z" fill="#cdba9c" stroke="#000" stroke-miterlimit="10"/><path d="M406 485.59s-16.3 49.72-34 54.92m122.06-107s24.65 39.62 23.63 52.23" fill="#de99ac" stroke="#000" stroke-miterlimit="10"/></svg>