<svg xmlns="http://www.w3.org/2000/svg" viewBox="0 0 1400 780"><path fill="#f5e0cd" d="M0 0h1400v780H0z"/><path d="M280.69 534.8c-1.74-.13-1.67 0-1.84-.1 0-.11-.28-.15 1.84.1z" fill="#b08874"/><path d="M278.43 534.56q.06-2.74 0-5.25c.14.9 1.03 5.37 0 5.25z" fill="#f5e0cd"/><path d="M278.43 534.56c.44.05.42 0 .42.14z" fill="#f5e0cd"/><path d="M1122.79 535.3c-5.53-50.24-79.41-36.67-125.28-40.74-28.51-2.56-55.36-11.75-81.86-22.05-2.43-.94-3.77-2.27-3.65-5.1.48-11.8-13.09-12.26-18.34-6.86-2.25 2.31-3.56 2.07-33.46-11.64-4.49-2.05 1.07-9.65-6.72-13.64-9.78-5-13.54 4.46-17.56 2.71-27.36-11.88-27.7-11.9-27-15.77 2-11.16-11.79-14.51-16.92-8.93-3.67 4-3.68 1.78-27.13-10.47-7-3.66 2.68-9.64-8.27-15-4.9-2.42-9.22-1.49-13.06 2.2-1.14-.57-2.15-1-3.06-1.54-23.16-14.71-23.84-13.91-22.8-18.52 2-8.65-9.51-14.94-15.55-10.35-3.21 2.44-2.6 1.44-25-15.83-5.29-4.07 5-7.14-4.56-15.68-8.35-7.51-11.18 2.57-16.2-2.32-21.54-21-23-20.41-19.8-24.56s2.45-8.1-1.46-12.45c-5.11-5.68-9.94-2.71-14.43-.38-7.3-8.87-14.36-17.65-20-27.32 5.89-5.87 6.53-8.87 3.41-14.22-3.22-5.51-6-6.37-14-4.21-3.88-5.16-27.46-47.89-33.94-80.88-1.53-7.77-4.37-9.22-11.89-6.52-45.88 16.53-45.69 38.93-60.38 38.9H317.29c-5.17.08-4.4 4.25-4.44 9.78-1.17 197.19-24.32 170.48-34.61 247.09h2c6-49.93 23.44-58.46 30.38-133 10.67-114.64-3.18-114.43 12.37-114.42h155.95c6.34 0 6.34.07 8.44 6 114.12 323 474 337.75 473.27 345.1-74.32 6.53-73.73 2.1-74.28 7 56.31-2.6 117.73-5.2 172.12-21.2 33.89-10 44.75-22.07 50.78-26.58 11.93 10 11.12 21.35 13.2 48.19.51 6.47-2 11.36-7.4 15.39-50.44 37.84-172 42.57-238.24 45-5.89.22-6.13-.07-6.15-5.76-.14-52-2-54.18 4.39-54.57-10.63.46-16.67.52-7.16.52.69 15.18.08 14.21.37 26 .15 5.76.5 5.06-51.84 5.22-55.33.16-96.68.12-151.28-2.14-269.27-11.14-405.74 4-383.61-57-2.42-.21-2.55-.13-2.7-.18-.49 50.45-4.14 60.74 12.82 66 43.84 13.7 99.57 16.83 145.5 17.44 251.78 3.4 592.6 30.31 680.95-39.89 7.96-6.12 8.13-11.41 4.67-42.82zM901.44 460c5.43-.17 7.9 1.55 8 6.59.82 37.9 1.7 40.93-8.27 40.51-8.22-.35-6.67-5.61-6.66-23.66.02-18.99-1.34-23.21 6.93-23.44zm7.92 48.88c1.08 9.56-15.73 10.2-15.24 0zm3.15-2.15c-.63-6.41-.76-6.16.52-6.32 10.29 12.93-9 29.67-21.19 17.45-4.94-4.94-5.33-12.83 0-17.67-.18 1.76-.29 3.53-.55 5.27-2.6 17.7 22.8 17.1 21.22 1.23zm-54.82-55.55c39.06 14.3 36 15.07 33.67 24.72-4.83-1.31-.23.57-29.58-10.69-6.1-2.38-6.41-2.05-4.09-14.07zm-9.49-14.55c10.24.92 6.56 9.14 7.18 9.2-4.29 39.07-2.67 45.1-12 44-10.29-1.17-7.71-5-2.63-46.59.66-5.19 2.85-7.05 7.45-6.65zm-12.33 62.1c6.66 5.78 18.71 1.21 17.79-10.1-.11-1.43 0-2.89 0-4.93 4.74 4.61 3.8 12.31-1.35 17-13.84 12.61-32.88-8.68-18.44-19.85-1.55 7.56-3.87 12.74 2 17.84zm-1.22-8.11l16 2.12c.43 2-1.63 3.64-3.77 4.91-6.36 3.68-13.33-2.59-12.23-7.07zm1.35-49.57c2.59 1.24 1.87 2.67.75 13.87-37.57-15.44-33.37-11.45-29.26-27.07 10.16 4.67 19.36 8.88 28.51 13.2zm-33.54-26.93c3.35 1.32 4.94 3.79 4 7.27-11.34 44.6-10.76 45.89-16.61 46.35-6.86-.09-9.95-4-8.29-10.35 10.72-40.77 10.04-47.58 20.91-43.27zm-24.06 60.73c7 7.29 18 3.16 18.9-7.36a46.17 46.17 0 01.93-4.72c3.9 5 1.79 12.5-4 16.48-16 11-31.06-14.43-15.28-22.29-2.54 6.97-5.68 12.51-.54 17.89zm15.1-3.73c-3.32 9.66-17.57 4.1-14.88-4.53zm-8-54.41c5.07 2.56 3.06 5.08.06 15.08-17-8.11-13.18-6.82-27.57-14.05-4.82-2.42-2.42-4.73 2-14.17 7.87 3.27 12.28 6.43 25.56 13.14zm-30.41-26.84c4.7 2.12 5.91 4.83 3.81 9.63-18.17 41.48-15.56 35.37-20.32 40.42-7.68.24-11.65-5.08-9.2-10.7 17.1-39.14 17.1-43.22 25.76-39.35zm-30.46 42.3c-6.73 8.53-.33 19.19 9.23 18.18 7.61-.81 8.66-6.47 11.12-13.29 6.41 14.68-18.53 24.48-25.35 7.71-2.73-6.71.08-14 7.57-17.42a34.49 34.49 0 01-2.52 4.82zm14.53 11.61c-3.87 8.9-18.3 2.35-14-6.72zm.5-52.79c4.07 2.48 2.29 3.9-2.43 14.11a24.08 24.08 0 01-3.34-1.4c-26.16-16.82-26.94-15.95-24.39-20.23 6.5-10.87 3.31-8.94 30.21 7.53zm-37.64-27.66c4.42-6.72 13.3-.81 13.49 5.32a31.79 31.79 0 01-1.9 4c-21.78 34.05-22.41 38.83-31 32.44-6.7-4.98-4.03-6.09 19.46-41.76zm-26.17 34.3c-8.15 8.51-2.13 19 6.83 19 7.95 0 9.22-4.92 12.9-11.56 5.26 12.82-19.47 23.19-26 5.59-5.21-14.42 15.42-22.52 6.32-13.03zm12.51 13.72c-3.87 7.25-17.5.68-12.76-8.74zm6.64-50.57c5.22 3.62 2.06 5.66-3.67 14-26.37-22.65-26.73-22-25-24.24 8.32-10.7 4.82-6.3 28.67 10.24zm-33.74-30.59c5.56-6 12.73.44 13 6.42a22.8 22.8 0 01-2.48 4c-25.71 28.47-26.88 32.15-33.68 26-7.47-6.61-2.83-8.13 23.13-36.42zm-34.62 38.65c1.34 8.51 12.91 12.84 19.69 3.78 1-1.29 2.12-2.43 3.52-4 .61 6.26-5.15 11.73-12 12.2-18.12 1.25-19.95-27.77-1.64-27.18-5.91 4.81-10.92 6.96-9.6 15.2zm4.15-6.85l11 11.21c-8.57 6.05-16.79-4.58-11.03-11.2zm27.45-32.38l-7.06 7.65c-4-3.46-.55.48-21.28-24.47-1.46-1.75-2.63-3.39-.19-5.45 5.1-4.34 12.84 12.44 28.5 22.27zm-33.64-40.3c3.35-2.68 6.32-1.8 9.47 2.09 2.82 3.48 2.94 6.6-.29 9.32-4.33 3.68-25.12 21.49-30.28 23.87-4.19-.49-6.16-3.09-7.65-6-2.72-5.2.87-7.01 28.72-29.28zm-31.91 42.46c7.12 2.81 10.7-2 16-6.86-1 15.46-26.53 14.38-26.15-4.27.13-6.15 7-13.8 14.25-12.3-1.69 1.28-2.74 2.44-4 3-9.93 4.49-8.89 17-.13 20.43zm7.85-3.42c-8.17 6.13-17.19-6.43-9.44-12.34zm1.1-80.75c3.31 5.22 2 8-2.94 10.92-29.93 17.88-25.33 15.23-30.22 17.4-6.47-.33-11.24-9.78-5.36-13.36 32.8-20.02 33.77-22.38 38.49-14.96zm-46.2 33.28c6.31 4.06 11.67-.31 17.51-3.93-4.4 15.77-29.78 8.46-25.4-9 2.46-9.81 14.45-12.19 15.58-8.68-1.47.53-2.91 1.14-4.4 1.59-10.18 3.14-11.23 14.94-3.32 20.02zm8.13-2c-6.75 4.95-16.33-8.05-7-13.77zm-19.09-121.12c6.56-2.36 7.9-1.71 9.34 4.92 7.18 33 18.74 51.4 21.19 58.19-1.83 1.51-.66.94-3-2.08-26.33-34.11-73.75-19.58-77.47-26.68 11.66-11.38 23.46-24.81 49.94-34.35zm419.63 393.4C744.83 521.22 560.4 412.43 489 206.58c-1.86-5.38-1.91-5.41-8-5.42-165.27-.33-165.18.64-165.25-2.5-.08-3.49-12.54-2.38 168.86-2.26 5.63 0 5.67.08 7.65 5.9 57.66 169.19 194 275.89 367.93 323.46 58.11 15.89 98 19.87 131.05 24.21-9.16 3.79-18.16 2.41-27.13 1.19zM493.92 197.21c6.31-1.64 30-.24 43.38 2.64 27.44 6 34.47 23.55 47 42.48 2.93 4.42-1.18 4.79-8.35 9.53-4.15 2.75-8.16 4.37-13.66 3.55-8.91-1.35-16 4.9-17.62 14-3.21 18 24.08 27.05 31.52 8.43 2.09-5.23 3.89-5.34 19-14.18l18.49 31.12c-15 12.36-11.27 10.18-17.5 10.39-7.41.23-14 5.35-15.62 12.21-5.39 22.7 28.19 28.59 31.82 7.93 1.22-6.92 7.39-9 11.73-12.92 1.62-1.43 3.81 2 24.69 27.55-9 9.8-8.1 9.92-13.21 10.45-19.81 2.06-19.51 30.23-.62 32.78a16.49 16.49 0 0018.07-12.47c2.21-8.69 3.86-11.34 10.45-16.35 12.93 11 18 15.45 23.47 19.85 4.59 3.73 1.06 5.24-2 10.79a10.84 10.84 0 01-7 5.4 16.11 16.11 0 00-10.74 20.56c5.74 17.75 31.73 13.73 32-4.61.11-7.86 1.22-10.5 7.22-16.87a29.35 29.35 0 013.08 1.53c25.84 16.65 27.64 16.2 24.8 21.13-3.38 5.93-2.43 9.75-9.26 13-17.2 8.21-7.41 35.9 12.31 30.29 7.77-2.21 13.76-10.5 11.45-18.15s2.12-12.5 4.61-18.73c8.65 3.82 16.14 8.5 27.14 13.69 6.6 3.1 3 6.43 1.87 12.44a15.71 15.71 0 01-6.51 10.53c-6.79 5-7.87 14.62-3.24 21.62 11.06 16.73 36.53 2 29.18-14-3.2-7-.15-12.42 1.57-19 1.8.59 3.26.93 4.61 1.52 27.55 12 29.19 11.37 28 16.69-1.31 5.69.9 11.25-5.64 17.75-13 12.93 5.69 35.76 21.91 24.09 6.89-5 9.4-14.17 4.79-21.3-3.52-5.44-2.34-10.41-1.11-16.37 9.77 2.76 15.77 5.83 31.42 11.36 3.41 1.2 5 2.91 4.86 6.67-.19 5.35-.08 10.22-4.13 15-5.24 6.16-3.11 16.42 3.2 21.62 15.2 12.52 35.35-8.14 23.44-22.62a10.83 10.83 0 01-2.14-10.75c3.47 0 31.48 8.83 44.77 17 17.43 10.7 29.2 24.1 35.13 42.81C592.13 509.62 492.63 220 493.92 197.21zm503 352.73a19.13 19.13 0 01-1.4-2.74c-13.56-43.09-51.34-51.32-75-60.55-8.41-3.29-9.93-2.14-7.75-12.1 10.33 3 32.34 10.25 58.42 18.28 6.26 1.93 3.63-1.15 26.16 52.63a19.78 19.78 0 01.83 4.2zm9.07-.6c-2.67.42-4.51.09-5.75-3-12.72-31.67-19-45.2-20.8-51.4 82.38 7.87 98.71-3 126.88 16.54-22.53 24.52-67.38 32.65-100.32 37.86zm-142.58 73.43c-154.41 1.33-153.6.08-242.32-3.7-136.11-5.81-257.46 2.76-328.23-20.48-14.59-4.79-11.77-16.09-11.77-26.69 79.46 19.82 137.19 21.49 231.58 20.46 53.16-.59 249.19 11.56 351 6.73 6.74-.32 3.89 4.08 4.64 18.9.18 3.74-1.43 4.74-4.9 4.78z" fill="#b08874"/><path d="M816.44 594c-55.33.16-96.68.12-151.28-2.14-269.27-11.14-405.74 4-383.61-57 51.22 21.54 161.61 21.29 216.57 21.32 128.54.09 141.54 15.93 365.08 6.52h4.71c.69 15.18.08 14.21.37 26 .15 5.81.5 5.11-51.84 5.3z" fill="#9c7761"/><path d="M275.78 495.91a7.88 7.88 0 01-.08-1.56c.02.53.05 1.04.08 1.56z" fill="#c9b09a"/><path d="M1115.07 577.48c-50.44 37.84-172 42.57-238.24 45-5.89.22-6.13-.07-6.15-5.76-.15-55.6-2.81-54.23 7-54.69 59-2.76 123.8-4.82 180.83-21.6 33.89-10 44.75-22.07 50.78-26.58 11.93 10 11.12 21.35 13.2 48.19.51 6.52-2.05 11.41-7.42 15.44z" fill="#9c7761"/><path d="M979.42 495c82.38 7.87 98.71-3 126.88 16.54-22.51 24.54-67.36 32.63-100.33 37.84-2.67.42-4.51.09-5.75-3-12.72-31.69-19-45.22-20.8-51.38zm18.78 54.66l-1.3.28a19.13 19.13 0 01-1.4-2.74c-13.56-43.09-51.34-51.32-75-60.55-8.41-3.29-9.93-2.14-7.75-12.1 10.33 3 32.34 10.25 58.42 18.28 6.26 1.93 3.63-1.15 26.16 52.63a19.78 19.78 0 01.87 4.2z" fill="#b08874"/><path d="M957.41 504.4c17.43 10.7 29.2 24.1 35.13 42.81-400.41-37.59-499.91-327.21-498.62-350 6.31-1.64 30-.24 43.38 2.64 27.44 6 34.47 23.55 47 42.48 2.93 4.42-1.18 4.79-8.35 9.53-4.15 2.75-8.16 4.37-13.66 3.55-8.91-1.35-16 4.9-17.62 14-3.21 18 24.08 27.05 31.52 8.43 2.09-5.23 3.89-5.34 19-14.18l18.49 31.12c-15 12.36-11.28 10.18-17.5 10.39-7.41.23-14 5.35-15.62 12.21-5.39 22.7 28.19 28.59 31.82 7.93 1.22-6.92 7.39-9 11.73-12.92 1.62-1.43 3.81 2 24.69 27.55-9 9.8-8.1 9.92-13.21 10.45-19.81 2.06-19.51 30.23-.62 32.78a16.49 16.49 0 0018.07-12.47c2.21-8.69 3.86-11.34 10.45-16.35 12.93 11 18 15.45 23.47 19.85 4.59 3.73 1.06 5.24-2 10.79a10.84 10.84 0 01-7 5.4 16.11 16.11 0 00-10.74 20.56c5.74 17.75 31.73 13.73 32-4.61.11-7.86 1.22-10.5 7.22-16.87a29.35 29.35 0 013.08 1.53c25.84 16.65 27.64 16.2 24.8 21.13-3.38 5.93-2.43 9.75-9.26 13-17.2 8.21-7.41 35.9 12.31 30.29 7.77-2.21 13.76-10.5 11.45-18.15s2.12-12.5 4.61-18.73c8.65 3.82 16.14 8.5 27.14 13.69 6.6 3.1 3 6.43 1.87 12.44a15.71 15.71 0 01-6.51 10.53c-6.79 5-7.87 14.62-3.24 21.62 11.06 16.73 36.53 2 29.18-14-3.2-7-.15-12.42 1.57-19 1.8.59 3.26.93 4.61 1.52 27.55 12 29.19 11.37 28 16.69-1.31 5.69.9 11.25-5.64 17.75-13 12.93 5.69 35.76 21.91 24.09 6.89-5 9.4-14.17 4.79-21.3-3.52-5.44-2.34-10.41-1.11-16.37 9.77 2.76 15.77 5.83 31.42 11.36 3.41 1.2 5 2.91 4.86 6.67-.19 5.35-.08 10.22-4.13 15-5.24 6.16-3.11 16.42 3.2 21.62 15.2 12.52 35.35-8.14 23.44-22.62a10.83 10.83 0 01-2.14-10.75c3.46-.07 31.47 8.76 44.76 16.92z" fill="#b08874"/><path d="M886.64 559.3c.09-.71-67.28-7.31-147.43-24.42C665.86 519.22 681 512 588.12 483.53 508 459 322.49 451.24 280.26 451c6-49.93 23.44-58.46 30.38-133 10.67-114.64-3.18-114.43 12.37-114.42h155.93c6.34 0 6.34.07 8.44 6 114.12 323 474 337.75 473.27 345.1-24.13 2.14-49 3.63-74.01 4.62z" fill="#b08874"/><path d="M909.45 466.55c.82 37.9 1.7 40.93-8.27 40.51-8.22-.35-6.67-5.61-6.66-23.66 0-18.95-1.35-23.17 6.92-23.44 5.43-.17 7.9 1.55 8.01 6.59z" fill="#b08874"/><path d="M857.69 451.14c39.06 14.3 36 15.07 33.67 24.72-4.83-1.31-.23.57-29.58-10.69-6.1-2.34-6.41-2.01-4.09-14.03z" fill="#b08874"/><path d="M868.3 618c.19 3.74-1.42 4.74-4.89 4.78-154.41 1.33-153.6.08-242.32-3.7-136.11-5.81-257.46 2.76-328.23-20.48-14.59-4.79-11.77-16.09-11.77-26.69 79.46 19.82 137.19 21.49 231.58 20.46 53.16-.59 249.19 11.56 351 6.73 6.73-.33 3.88 4.07 4.63 18.9z" fill="#9c7761"/><path d="M848.2 436.59c10.24.92 6.56 9.14 7.18 9.2-4.29 39.07-2.67 45.1-12 44-10.29-1.17-7.71-5-2.63-46.59.66-5.15 2.85-7.01 7.45-6.61zm-12.2 4.46c2.59 1.24 1.87 2.67.75 13.87-37.57-15.44-33.37-11.45-29.26-27.07 10.16 4.67 19.36 8.88 28.51 13.2z" fill="#b08874"/><path d="M802.47 414.12c3.35 1.32 4.94 3.79 4 7.27-11.34 44.6-10.76 45.89-16.61 46.35-6.86-.09-9.94-4-8.29-10.35 10.71-40.77 10.03-47.58 20.9-43.27zm-16.92 2.59c5.07 2.56 3.06 5.08.06 15.08-17-8.11-13.18-6.82-27.57-14.05-4.82-2.42-2.42-4.73 2-14.17 7.82 3.27 12.23 6.43 25.51 13.14zm-30.41-26.84c4.7 2.12 5.91 4.83 3.81 9.63-18.17 41.48-15.56 35.37-20.32 40.42-7.68.24-11.65-5.08-9.2-10.7 17.05-39.14 17.05-43.22 25.71-39.35zM739.71 391c4.07 2.48 2.29 3.9-2.43 14.11a24.08 24.08 0 01-3.34-1.4c-26.16-16.82-26.94-15.95-24.39-20.23 6.45-10.88 3.26-8.95 30.16 7.52zm-24.15-22.35a31.79 31.79 0 01-1.9 4c-21.78 34.05-22.41 38.83-31 32.44-6.7-5-4-6.08 19.46-41.74 4.37-6.74 13.25-.83 13.44 5.3zM695 360.78c5.22 3.62 2.06 5.66-3.67 14-26.37-22.65-26.73-22-25-24.24 8.32-10.7 4.82-6.3 28.67 10.24zm-20.77-24.17a22.8 22.8 0 01-2.48 4c-25.71 28.47-26.88 32.15-33.68 26-7.44-6.68-2.8-8.18 23.16-36.47 5.56-5.99 12.77.49 13 6.47zm-16.02-7l-7.06 7.65c-4-3.46-.55.48-21.28-24.47-1.46-1.75-2.63-3.39-.19-5.45 5.13-4.34 12.87 12.44 28.53 22.27zM634 291.4c2.82 3.48 2.94 6.6-.29 9.32-4.33 3.68-25.12 21.49-30.28 23.87-4.19-.49-6.16-3.09-7.65-6-2.69-5.22.9-7 28.75-29.3 3.39-2.66 6.36-1.78 9.47 2.11zm-32.39-43.8c3.31 5.22 2 8-2.94 10.92-29.93 17.88-25.33 15.23-30.22 17.4-6.47-.33-11.24-9.78-5.36-13.36 32.83-20.02 33.8-22.38 38.52-14.96zM575 220.87c-1.83 1.51-.66.94-3-2.08-26.33-34.11-73.75-19.58-77.47-26.68 11.65-11.38 23.47-24.81 49.93-34.35 6.56-2.36 7.9-1.71 9.34 4.92 7.2 32.97 18.76 51.4 21.2 58.19z" fill="#b08874"/><path d="M278.24 451a289.47 289.47 0 00-2.6 41.76c-.74-18.95 2.48-41.76 2.6-41.76z" fill="#f5e0cd"/><path d="M275.7 494.26c-.25-4.47.17-19.91.37-19.91-.38 7.12-.46 13.8-.37 19.91z" fill="#c9b09a"/><path d="M278.43 529.31c-2.11-13.78-2.93-33.26-2.65-33.4.69 12.27 2.44 21.09 2.65 33.4z" fill="#b08874"/><path d="M886.66 559.1c-.44 3.25.77 2.51-4.75 2.79-226.67 11.33-259.06-5.6-383.79-5.69-55.06 0-165.36.21-216.57-21.32-3.86-.33-2.15.76-3.12-5.57-.21-12.28-2-21.13-2.65-33.4 11.46-1.88 88.61 19.92 103 12.93 53.55-25.92-59.24-29.37-100.33-34.25a20.9 20.9 0 00-2.41-.24c.38-7.36 1.07-15.2 2.17-23.37 55 0 234.47 9.47 309.88 32.55C681 512 665.86 519.22 739.21 534.88s147.45 24.22 147.45 24.22z" fill="#f5e0cd" stroke="#77562f" stroke-miterlimit="10" stroke-width=".93"/><path d="M278.24 451c-.8 0-5.53 41.09.19 78.33.14 6.33-.75 5.27 2.26 5.49m-5.05-42.08a25.59 25.59 0 00.09 3.18m3.12 38.69l-.42-.05" fill="#f5e0cd" stroke="#77562f" stroke-miterlimit="10" stroke-width=".93"/></svg>