<svg xmlns="http://www.w3.org/2000/svg" viewBox="0 0 1400 780"><path fill="#fffdd3" d="M0 0h1400v447.14H0z"/><path d="M1400 780H0V351.3s28.34 45.13 111.2 43.16 137.65-57.7 232.28-78.11 273.88 35.4 349.77 34.95 389-29.56 520.42 0 186.33 0 186.33 0z" fill="#88c6ff"/><path d="M169.55 609.82c1.67 2.5 37.32-3.9 55.71-5S430 610.33 430 610.33l-4.18-59.84s-190 15.32-196.38 15-8.92-3.9-16.72-3.35-45.12 22.17-43.17 47.68zM181.39 451c12.64 4.2 7.61-9.86 250.28 34.26l10-59.33s-183.22-10.44-196.38-12.53-10-4.18-21.52-4.18S167 446.28 181.39 451z" fill="#87abc1"/><path d="M430 623.19c78.33 7.29 158.64 2.5 240.67-12.8-19.29-62.47-32.37-124.53-37.61-186.09l-186.63-15c-19.87 26.64-27 55.72-20.61 86.91l69.36 24.23-69.36 14.21c-6.22 27.54-5.97 56.78 4.18 88.54z" fill="#1c2c45"/><path fill="#87a9c2" d="M432.5 447.28l197.22 12.12v-10.31l-193.32-10.3-3.9 8.49zm12.91-26.88l-3.71 8.5 188.02 12.11v-10.3L445.41 420.4z"/><path d="M692.12 447.14c20.44 6.21-2.22 80.86-22.67 74.65-5.9 9.54-11.93-2.91-16.67 3.35-3.64 4.8-6.53-6.69-8-6.69-7.24 0-5-22.84-5-22.84-2.93 30-18.33 32.76-12.26-4.46 0 0-5 20.06-12.23 17.83s9.45-39.55 11.68-50.7-.56-31.75-.56-31.75z" fill="#79aac0"/><path d="M669 610.39c72.64-18.19 137.5-43.18 185.51-82.89a1912.9 1912.9 0 00277-21.3c65.09 19 57.45 4 38-4.46 24.66 3.63 32.92-6.92 1.67-12.26 26.65 5.24 26.89-11.32.56-12.81C929.26 528.8 784.31 474 671.5 441l-2.5 29.67c27.16 20.11 22.25 27-3.07 21.6 4.49 28.45-6 31.05-13.37 4.45-8.91 31.2-10.43 8.76 16.44 113.67z" fill="#87abc1"/><path fill="#ffbf98" d="M806.6 413.71l15.88-13.64 42.34 42.06-9.98 10.5-48.24-38.92z"/><path d="M1161.52 461.7c11.22-22.72.29-28-19.12-.73-103.7 8.45-202.94 16-262 15.14a49.51 49.51 0 01-25.49-23.4l7.94-8.35C821.61 454.79 755 327 702.42 303.55c-29.94-3.9-47.64 6.27-56.54 26.74-14.08 32.37-21.35 64.39-19.5 96.24 363.56 157.2 653.15 28.66 535.14 35.17z" fill="#ffdcc0"/><path d="M673.18 422.21c19.52-3.71 37.56-7.87 52.64-12.95-3.28-21.16-16.05-36.36-35.1-47.63-10.72 14.3-15.72 35.51-17.54 60.58z" fill="#88c6ff"/><path d="M1009.66 439.85c-11.87 12.07-21.48 11.42-34 0-26 15.12-63.86 16.38-81.34 12.77-21.33.7-70.73-35.55-81.9-68.77-5.22-15.54.39-64.21 2.79-72s13.37-30.73 13.37-30.73c-1.06 2-18.54-30.08 14-35.09l143.65 9.47 61.28 106.13z" fill="#ffdcc0"/><path d="M893.23 242.13l-13.37 23.95c46.44 17.67 86.08-38.37 31.2 21.17 9.59 16.15 40.62 11.24 72.43 5.57-4.18 26.08-8.64 51.27-17.28 64.07l10.59 18.94c8.6-15.49 24.42-26.33 43.45-35.1l-27.15 43.6c-3.87 5.42 5.77 23.39 8.77 19.56l49.58-57-104.73-127.61z" fill="#ffc801"/><path d="M1004.66 441c63.74-13.43 98.11-67.32 99.16-154.32-10.34-78.56-85.42-130.94-130.92-133.14s-109.22 43.24-144.29 98.6c51.93-5.66 110.23-2.4 137.6 41.79 31.85 42.78 42.79 92.44 38.45 147.07z" fill="#353945"/><path d="M1037 433.21l-12.26 10.59-39.55-27.3c-35.33 24.73-90.54-17.14-73.54-65.18l-13.37-14.49c-20 6.75-39-1.47-57.38-22.28-11.92-17.83-14.14-43.39-5.16-55.71 16.84-23.1 97.56 7.13 74.79 65.74l12.26 16.15c23.7-9.64 43.9-3.68 60.73 17.27 10.92 11.68 12.36 28.83 9.47 48.47z" fill="#fb4e3e"/><path d="M891.7 278.69c-11.13-12.67-34.05-19.43-43.45-12.12s-6.79 31.26 6.06 45.54c36.52 34.76 68.81 2.33 37.39-33.42z" fill="#90c8ff"/><path d="M868.62 264.81l-14.42 47.11c4.6 6.86 11.72 10.49 20.27 12.94l14-49.5c-5.15-6.21-11.85-8.43-19.85-10.55z" fill="#fff"/><path d="M970.43 362.92c-11.13-12.67-34.06-19.43-43.43-12.12s-6.78 31.27 6.06 45.54c36.49 34.76 68.78 2.34 37.37-33.42z" fill="#90c8ff"/><path d="M947.34 349l-14.41 47.11c4.6 6.87 11.72 10.49 20.26 12.94l14-49.5c-5.14-6.17-11.84-8.39-19.85-10.55z" fill="#fff"/><path d="M887.52 353.27c-15.51-9.46-17.93-2-12.22 10.86m-11.38 35.94c4.91-10.49-2.13-18-12.85-15.88-6.87 12.19 3.22 20.36 12.85 15.88z" fill="none" stroke="#f8ab75" stroke-linecap="round" stroke-linejoin="round" stroke-width="7.94"/><path d="M673.18 422.21L669 470.67s18.66 17.63 18.1 20.48c-1.17 6-19.65.31-21.17 1.12-3 1.57 1.27 20.47-2.23 22.84s-9.51-15.12-11.14-18.39c-1.49-3-6.68 23.4-6.68 23.4 2.62 10.26.19 12.51 8.91-10.86 14.3 42.45 13.32-9.77 17.58-11.66 2.51-1.12 14.73.66 14.73.66s2.51-.42 5.57-4.6-18-23.33-19.49-27c-.66-1.66.05-11 1-20.72 2.98-29.27 4.49-24.79-1-23.73z" fill="#64aac0"/><path d="M674.21 445.92l-3-1.13 1.95-22.58c5.13-.99 4.41-5.62 1.05 23.71z" fill="#eccdc5"/><path d="M560.36 324.86c.64-14.18-2.21-28.29-6.68-42.62-5-15.91-13.92-25.56-29.25-26.74-20.32 6.31 4.62 50.18 35.93 69.36zm-74.03 1.95c-6.48-16.2-17.53-30.14-30.92-43.39-14.79-14.63-31.7-19.91-52.69-11.78-13.25 10.92-2.54 25.19 24.78 41.79 21.77 7.57 41.8 12.69 58.83 13.38zm680.83 26.81c16.61-5.36 31.27-15.44 45.4-27.89 15.6-13.76 22-30.28 15.34-51.77-10-14-25-4.25-43.38 21.88-9.08 21.16-15.52 40.84-17.36 57.78z" fill="#88c6ff"/><path fill="#c14e3e" d="M252.23 414.15l-22.04 39.9 27.03 2.14 13.31-40.67-18.3-1.37zm-6.77 150.4l-9.21 40.46 23.77.62 2.59-42.81-17.15 1.73z"/><path d="M973.9 305.05c92.13-103 118.52-69.38 102-92-37.3 18.27-73.62 50-105.92 86.28zm-11.3-16.46c81.48-104.7 115.37-80.59 93.59-96.88-36 20.79-68.31 53.16-98.05 91.58zm-14.14-14.99c77.32-110.41 110.21-81.59 86.59-97.39-34.87 22.57-64.22 53.74-92 93.6z" fill="#faf9f7"/></svg>