<svg xmlns="http://www.w3.org/2000/svg" viewBox="0 0 700 700"><path fill="#fffdd3" d="M0 0h700v393.55H0z"/><path d="M700 336.77V700H0V314c37.12 6.23 70 11.06 93.14 10.93 81.15-.42 246.27-16.3 405.32-11.51 123.37 3.66 120.65 19.24 201.54 23.35z" fill="#88c6ff"/><path d="M169.75 562.34C112.18 573.08 55.57 578 0 576.47v-91.79L13.08 482 0 477.43v-92.21l136.18 11c4.82 57.72 19.91 125.11 33.57 166.12z" fill="#1c2c45"/><path fill="#87a9c2" d="M133.19 418.34v9.2L0 419.36v-8.13l133.19 7.11zm0-16.42v9.2L0 402.54v-8.07l133.19 7.45z"/><path d="M188.9 416.59c18.25 5.54-2 72.19-20.24 66.65-5.27 8.52-10.65-2.6-14.88 3-3.25 4.28-5.83-6-7.16-6-6.47 0-4.48-20.39-4.48-20.39-2.61 26.8-16.36 29.25-10.94-4 0 0-4.44 17.9-10.92 15.91s8.44-35.31 10.42-45.26-.49-28.35-.49-28.35z" fill="#79aac0"/><path d="M168.26 562.34c64.85-16.24 122.76-38.55 165.62-74a1706.83 1706.83 0 00247.32-19c58.12 16.95 51.29 3.61 33.95-4 22 3.24 29.39-6.18 1.49-10.94 23.79 4.68 24-10.12.5-11.44-216.53 46.53-345.93-2.39-446.65-31.84l-2.23 26.48c24.24 17.95 19.86 24.08-2.74 19.28 4 25.4-5.34 27.72-11.94 4-7.95 27.83-9.31 7.8 14.68 101.46z" fill="#87abc1"/><path fill="#ffbf98" d="M291.11 386.75l14.17-12.18 37.8 37.55-8.9 9.37-43.07-34.74z"/><path d="M608 429.59c10-20.28.26-25-17.06-.65-92.63 7.54-181.23 14.26-233.94 13.52a44.25 44.25 0 01-22.76-20.89l7.09-7.46c-36.82 9.31-96.25-104.81-143.23-125.71-26.73-3.48-42.54 5.59-50.48 23.87-12.57 28.9-19.07 57.49-17.41 85.92 324.57 140.34 583.11 25.59 477.79 31.4z" fill="#ffdcc0"/><path d="M172 394.34c17.42-3.32 33.53-7 47-11.57-2.93-18.88-14.33-32.46-31.34-42.52C178.09 353 173.61 372 172 394.34z" fill="#88c6ff"/><path d="M472.39 410.09c-10.6 10.77-19.17 10.19-30.33 0-23.23 13.49-57 14.62-72.62 11.4-19 .62-63.14-31.74-73.11-61.4-4.66-13.87.34-57.33 2.49-64.28s11.93-27.43 11.93-27.43c-.94 1.78-16.55-26.86 12.51-31.34l128.25 8.46 54.71 94.75z" fill="#ffdcc0"/><path d="M368.45 233.56L356.51 255c41.46 15.78 76.85-34.26 27.85 18.9 8.57 14.41 36.26 10 64.66 5-3.72 23.28-7.71 45.77-15.42 57.2l9.45 16.91c7.69-13.83 21.81-23.51 38.8-31.33l-24.25 38.84c-3.45 4.83 5.16 20.88 7.84 17.46l44.26-50.91-93.5-113.9z" fill="#ffc801"/><path d="M467.92 411.12c56.91-12 87.6-60.1 88.54-137.77-9.23-70.14-76.27-116.9-116.89-118.87s-97.5 38.61-128.82 88c46.37-5 98.42-2.14 122.85 37.31 28.4 38.21 38.16 82.55 34.32 131.33z" fill="#353945"/><path d="M496.77 404.16l-10.94 9.45-35.31-24.37c-31.54 22.07-80.83-15.3-65.66-58.19l-11.93-12.94c-17.83 6-34.87-1.31-51.23-19.89-10.64-15.92-12.62-38.73-4.6-49.74 15-20.62 87.09 6.37 66.77 58.69l10.94 14.43C416 313 434 318.31 449 337c9.76 10.42 11.05 25.73 8.46 43.27z" fill="#fb4e3e"/><path d="M367.08 266.2c-9.93-11.31-30.4-17.34-38.79-10.82s-6.06 27.92 5.41 40.62c32.6 31.07 61.43 2.13 33.38-29.8z" fill="#90c8ff"/><path d="M346.47 253.81l-12.87 42.06c4.11 6.13 10.46 9.37 18.09 11.56l12.5-44.2c-4.59-5.54-10.57-7.52-17.72-9.42z" fill="#fff"/><path d="M437.37 341.4c-9.94-11.31-30.41-17.34-38.8-10.82s-6.06 27.92 5.41 40.66c32.6 31.04 61.43 2.09 33.39-29.84z" fill="#90c8ff"/><path d="M416.76 329l-12.87 42.06c4.11 6.13 10.46 9.37 18.09 11.56l12.5-44.2c-4.59-5.53-10.57-7.51-17.72-9.42z" fill="#fff"/><path d="M363.35 332.79c-13.85-8.45-16-1.8-10.91 9.7m-10.17 32.08c4.39-9.36-1.89-16-11.47-14.18-6.13 10.89 2.89 18.18 11.47 14.18z" fill="none" stroke="#f8ab75" stroke-linecap="round" stroke-linejoin="round" stroke-width="7.09"/><path d="M172 394.34l-3.73 43.26s16.65 15.74 16.16 18.29c-1 5.39-17.54.27-18.9 1-2.65 1.41 1.14 18.28-2 20.39s-8.5-13.5-9.95-16.41c-1.33-2.68-6 20.89-6 20.89 2.34 9.15.16 11.17 7.95-9.7 12.77 37.9 11.9-8.72 15.7-10.41 2.24-1 13.15.59 13.15.59s2.24-.37 5-4.1S173.29 437.3 172 434c-.59-1.48 0-9.8.92-18.49 2.62-26.12 3.97-22.12-.92-21.17z" fill="#64aac0"/><path d="M172.91 415.51l-2.66-1 1.75-20.17c4.55-.88 3.91-5.02.91 21.17z" fill="#eccdc5"/><path d="M71.27 307.43c.57-12.67-2-25.27-6-38.06-4.44-14.2-12.42-22.81-26.11-23.87-18.11 5.63 4.16 44.8 32.11 61.93zm532.28-7.36c14.83-4.79 27.92-13.78 40.53-24.9 13.94-12.29 19.66-27 13.7-46.22-8.92-12.47-22.28-3.79-38.73 19.53-8.05 18.93-13.85 36.46-15.5 51.59z" fill="#88c6ff"/><path d="M440.47 289.74c82.24-91.93 105.81-61.94 91.08-82.13-33.3 16.31-65.72 44.63-94.56 77zM430.38 275c72.74-93.47 103-71.94 83.55-86.49-32.1 18.56-61 47.46-87.54 81.76zm-12.63-13.34c69-98.57 98.39-72.84 77.31-86.94-31.13 20.14-57.33 48-82.12 83.56z" fill="#faf9f7"/></svg>