<svg xmlns="http://www.w3.org/2000/svg" viewBox="0 0 700 700"><path fill="#a1cee4" d="M0-2.52h700v350.05H0z"/><path fill="#07669a" d="M466.3 266.99L350 143.88 217.95 275.97l71.95 91.97 119.7 5.08 61.97-82.58-5.27-23.45z"/><path d="M464.2 260l-9.51 7-10.61-9-45.53 42.68-67.87-67.39-46.42 43.13-32.71-30.1L223.92 271l81 91.7 81.93-2.91 81.29-82.43c-.02-14.67 1-10.9-3.94-17.36z" fill="#0a4766"/><path fill="#59410a" d="M700 702.52l-350-355.7L0 702.52h700z"/><path fill="#fff" d="M330.68 702.52h37.14L350 346.82l-19.32 355.7z"/><path fill="#ffb311" d="M700 643.27L350 346.82l350 355.7v-59.25zM0 702.52l350-355.7L0 646.64v55.88z"/><path fill="#ffc141" d="M0 666.41l350-319.59H0v319.59z"/><path d="M39.57 559c.1-.06 51.7-32.38 54.58-36.47 49.31-70.17 46.28-68 53.74-70.19l49.87-14.41a17.81 17.81 0 0012-22L204.68 398l134-47.18-177.76 25.57L0 350.78v101.09l19.66 40.44c2.74 52.84 2.19 50.44 3.75 53.05 4.88 8.17 8.66 18.22 16.16 13.64z" fill="#fecf66"/><path d="M68.52 445.36s18.56-21.57 46-18.87 54.83-.24 54.83-.24c-81-16.68-49.23-11.08-139.71-24z" fill="#ffc141"/><path fill="#148bcc" d="M569.42 284.96l-59.24-62.46-123.35 125.87H599.7l-30.28-63.41z"/><path d="M558.37 272.38L539.8 290.8l-9.12-9.21-11.22 12.35L494.7 267l-29.17 29.59-14.15-14.79-63.22 64.66h196.73c-21.66-75.74-15.89-62.62-26.52-74.08z" fill="#07669a"/><path fill="#43a3d6" d="M501.34 346.82h196.73l-98.37-100.5-98.36 100.5z"/><path fill="#148bcc" d="M698.07 346.82l-27.85-29.06-5.31 6.74-8.4-10.79-15.91 16.56-8.84-8.92-11.06 11.68-32.27-34.59-8.84 8.53-11.5-10.33-26.96 27.86-10.45-10.34-30.23 32.66h197.62zm-399.88 0L149.64 195.1 0 346.82h298.19z"/><path fill="#07669a" d="M297.52 346.82l-93.5-95.11-23.21 24.26-19.9-20.22-41.11 40.44-34.49-34.37-85.31 85h297.52z"/><path fill="#ffc141" d="M700 666.41L350 346.82h350v319.59z"/><path d="M669.88 556.6c-4.71 7.88-7.82 3.94-60.27-30.47-3.18-2.09-1 .32-48.61-67.47-4.45-6.33-4.55-5.11-58.76-20.78a17.81 17.81 0 01-12-22l5.08-17.88-134-47.18 177.72 25.61L700 350.78v101.09l-19.66 40.44c-3.16 60.9-.05 46.87-10.46 64.29z" fill="#fecf66"/><path d="M672.5 149.27c-152.72 0-148.35-1.45-152.72 3-6.34 6.42-1.86 17.5 7.12 17.5h16.67a10.65 10.65 0 0110.53 10.7c0 22.65-40.4 4.21-50.6 14.57-6.53 6.64-1.88 18 7.34 18 151.78 0 147.46 1.41 151.91-3.11 6.53-6.64 1.86-18-7.34-18-30.72-.09-44.21 3.54-44.21-10.39 0-7.51 5.31-11.63 10.52-11.63 55.73 0 53.74 1.09 57.91-3.16 6.37-6.4 1.86-17.48-7.13-17.48zM435.18 84.12c152.72 0 148.35 1.44 152.72-3 6.34-6.41 1.86-17.5-7.12-17.5h-16.67a10.63 10.63 0 01-10.52-10.69c0-22.65 40.39-4.21 50.59-14.58 6.53-6.64 1.88-18-7.34-18-151.78 0-147.46-1.42-151.9 3.1-6.54 6.65-1.87 18 7.33 18 30.72.1 44.21-3.53 44.21 10.4 0 7.51-5.31 11.62-10.52 11.62-55.73 0-53.74-1.08-57.91 3.17-6.33 6.36-1.86 17.48 7.13 17.48zM40.51 169.71c138.1 0 134.13 1.44 138.09-3 5.73-6.41 1.67-17.5-6.44-17.5h-15.08c-5.23 0-9.51-4.81-9.51-10.69 0-22.69 36.5-4.19 45.74-14.58 5.88-6.6 1.75-18-6.63-18-137.42 0-133.33-1.42-137.35 3.1-5.88 6.61-1.75 18 6.63 18 26.47.08 19.15-.3 30.46-.3 12.92 0 12.35 22.31 0 22.31-50.26 0-48.58-1.09-52.36 3.17-5.73 6.41-1.67 17.49 6.45 17.49zm417.4-20.44h-43.18c-13.83 0-13.53-22.92 0-22.92h43.18c13.83 0 13.53 22.92 0 22.92zM366.13 44.58c-12.53 0-27.49 2.82-27.49-9.21 0-8 4-11.46 9.21-11.46 12.53 0 27.49-2.81 27.49 9.21 0 7.96-4.04 11.46-9.21 11.46zm316.14 218.36c-12.73 0-26.64 2.49-26.64-9.61 0-8.37 4.28-12 9.61-12 12.74 0 26.64-2.49 26.64 9.61 0 8.41-4.28 12-9.61 12zm-393.89-93.15h-52.45c-12.42 0-12.06-20.52 0-20.52h52.45c12.42 0 12.07 20.52 0 20.52zm-139.2-82.08H102.8c-14.1 0-13.79-23.36 0-23.36h46.38c14.1 0 13.82 23.36 0 23.36zM60.59 64.35h-20.4a8.83 8.83 0 01-8.81-8.81c0-13.82 9.05-11 29.21-11 11.97.04 11.62 19.81 0 19.81z" fill="#d1e9f5"/></svg>