<svg xmlns="http://www.w3.org/2000/svg" viewBox="0 0 1400 780"><path d="M-.56 0v555.37L299 314.16 446.68 434 700 232.73l223.28 187.73 5.3-3.09 7.86 8.13 84.17-67.77c111.26 93.16 96.53 79.35 111.9 92.47l67.3-54.61c199.23 161.67 195.5 159.78 200.75 159.78V0zm856.79 109.91c8.34-6.75 4.11-5 115.91-5 27.39 0 28.63-35.48 0-35.48-27 0-6.54.62-67.43.48-18.28 0-27.84-18-14.68-28.64 9.07-7.32.06-4.93 304-4.93 18.28 0 27.84 18 14.69 28.64-8.46 6.82-11.35 4.93-80.21 4.93-27.6 0-28.42 35.24 0 35.24h33.37c17.84 0 27 17.56 14.26 27.82-8.86 7.17 0 4.79-305.7 4.79-17.79-.03-26.96-17.59-14.21-27.85zm-653.29-3.6h97.36c24.55 0 24.55 37.14 0 37.14h-97.36c-24.56 0-24.56-37.14 0-37.14zM78 74.88h44.67c20.78 0 20.78 31.43 0 31.43H78c-20.82 0-20.82-31.43 0-31.43zM386.38 201c-7.37 6.58-9.09 4.94-72.53 4.94-24.94 0-25.7 35.24 0 35.24H344c16.09 0 24.45 17.54 12.9 27.82-8 7.15-.27 4.79-276.41 4.79-16.08 0-24.45-17.55-12.89-27.82 7.56-6.77 3.78-5 104.81-5 24.67 0 25.93-35.48 0-35.48-22.73 0-7.6.62-61 .48-16.49 0-25.19-18-13.28-28.64 8-7.15 0-4.93 274.93-4.93 16.53-.02 25.23 17.98 13.32 28.6zm192.28 72.91h-109c-21.56 0-21.56-32.62 0-32.62h109c21.56.01 21.56 32.63 0 32.63zm155.62-199h-40.59C672 74.88 672 42 693.69 42h40.59c21.72 0 21.72 32.88 0 32.88zM918.22 241.3h-90.89c-24.08 0-24.08-36.42 0-36.42h90.89c24.08 0 24.08 36.42 0 36.42zm103.72 101.43c-18.28 0-27.84-18-14.69-28.64 8.46-6.82 11.35-4.93 80.21-4.93 27.6 0 28.42-35.24 0-35.24h-33.37c-17.84 0-27-17.57-14.26-27.82 8.85-7.18 0-4.8 305.7-4.8 17.84 0 27 17.57 14.26 27.83-8.34 6.75-4.12 5-115.92 5-27.38 0-28.62 35.48 0 35.48 27 0 6.55-.62 67.44-.48 18.28 0 27.84 18 14.68 28.64-9.07 7.35-.06 4.96-304.05 4.96zM1367.17 422h-38.28c-22.66 0-22.66-34.29 0-34.29h38.28c22.67.02 22.67 34.29 0 34.29z" fill="#a1cee4"/><path d="M502.94 395.59l65.48 47.85 92.92-68.57L797.17 482l91.15-67.86 21.23 14.28 13.73-8L700 232.73 446.68 434c1.48 1.19.66 1 56.26-38.41z" fill="#07669a"/><path d="M888.32 414.16L797.17 482 661.34 374.87l-92.92 68.57-65.48-47.85-55.31 39.17 148.66 120.61h178.83c161-130.24 50.91-41 161.32-129.87l-7.86-8.13-19 11.07z" fill="#0a4766"/><path fill="#59410a" d="M700 555.37L714.17 780H978.3L700 555.37zm0 0L421.7 780h262.94L700 555.37z"/><path fill="#fff" d="M700 555.37L684.64 780h29.53L700 555.37z"/><path d="M978.3 780h31.44c-399.57-289.78-415.52-310-31.44 0z" fill="#ffb311"/><path d="M390.26 780h31.44c384.13-310.06 368.18-289.82-31.44 0z" fill="#ffb311"/><path fill="#ffc141" d="M-.56 780h35.28L-.56 722.37V780zM700 555.37H-.56v6.29l322.09 40.71 355.73-40.71-268.13 75 10.18 28.47c5.37 15-5.41 30.72-24 35L295.45 723c-15.35 3.52-16.55 8.72-59.24 57h154z"/><path d="M295.45 723l99.82-22.92c18.63-4.27 29.41-20 24-35l-10.18-28.47 268.13-75-355.69 40.76L-.56 561.66v160.71L34.72 780h201.49c43.99-49.71 44.58-53.6 59.24-57zm-158.87-11l-77.87-68.56c181.1 20.57 117.52 11.68 279.63 38.2 0 0-54.86 4.66-109.73.37S136.58 712 136.58 712z" fill="#fecf66"/><path d="M338.34 681.64c-162.11-26.52-98.55-17.64-279.63-38.2L136.58 712s37.17-34.28 92-30 109.76-.36 109.76-.36z" fill="#ffc141"/><path d="M776.37 555c225.58.35 224.33.54 225.58 0zm126.87-102.77l28 23.25 58.4-47.04 49.56 42.86 22.45-19.64 18.25 14.64 36.26-28.57-95.55-80-117.37 94.5z" fill="#148bcc"/><path d="M775.12 555.37c2-.54.33.4 84.54-68.06z" fill="#148bcc"/><path fill="#07669a" d="M1061.65 451.66l-22.45 19.64-49.56-42.86-58.4 47.04-28.32-23.52-126.54 103.06h225.57l59.7-51.58 2.67 2.1 68.19-55.34-15.44-13.18-37.17 29.28-18.25-14.64z"/><path fill="#43a3d6" d="M1064.32 505.54l18.24 14.33 53.98-44.28 23 16.42 17.7-13.57 64.6 55 22.12-18.57 17.7 14.18 31.86-26.32 16.81 17.14 10.09-10.18-140.61-114.1-135.49 109.95z"/><path fill="#148bcc" d="M1313.52 502.73l-31.86 26.32-17.7-14.18-22.12 18.57-64.6-55-17.7 13.57-23-16.42-53.98 44.28-20.91-16.43-60.51 51.93h395.56l-55.75-46.21-10.62 10.71-16.81-17.14zM239.23 474.87l82.3-64.28 39.82 32.14 46.46-38.57c314.45 254.05 206.4 165.74-108.85-90C-3.51 557.74-129.5 657.4 170.21 420.23z"/><path fill="#07669a" d="M594.97 555.37L407.81 404.16l-46.46 38.57-39.82-32.14-82.3 64.28-69.02-54.64L-.56 555.37h595.53z"/><path fill="#ffc141" d="M1400.56 780v-57.63L1365.28 780h35.28zM700 555.37L1009.74 780h154l-41.45-46.84c-8.92-10.09-9.2-8.15-117.61-33-18.63-4.27-29.41-20-24-35l10.18-28.47-268.13-75 355.73 40.71 322.09-40.71v-6.29z"/><path d="M722.74 561.66l268.13 75-10.18 28.47c-5.37 15 5.41 30.72 24 35l99.86 22.87c15.35 3.52 16.55 8.72 59.24 57h201.49l35.28-57.63V561.66l-322.09 40.71z" fill="#fecf66"/><path d="M1311.31 309.16s-48.54-.23-50.28 0c-51.67 6.85-44.78-35-17.16-35h101.66c9.8 0 20.2-6.87 20.2-16.55 0-9-9.09-16.31-20.2-16.31h-291.44c-26.73 0-26.73 32.62 0 32.62h33.37c27.6 0 28.42 35.24 0 35.24h-65.52c-27.61 0-27.43 33.57 0 33.57h289.37c27.51 0 27.51-33.57 0-33.57zM870.49 137.73c305.51 0 296.89 2.34 305.7-4.79 12.76-10.26 3.57-27.82-14.26-27.82h-33.37c-28.55 0-27.51-35.24 0-35.24 70.18 0 72.06 1.64 80.21-4.93 13.15-10.62 3.6-28.64-14.69-28.64-304.08 0-295.2-2.21-304 4.93-13.16 10.62-3.61 28.59 14.68 28.64 58.94.14 41.48-.48 67.43-.48 28.67 0 27.32 35.48 0 35.48-110.17 0-107.53-1.76-115.91 5-12.81 10.29-3.62 27.85 14.21 27.85zM373.1 172.38c-274.76 0-266.87-2.26-274.93 4.93C86.26 187.94 95 205.9 111.45 206c53.36.14 37.48-.48 61-.48 25.93 0 24.65 35.48 0 35.48-100.1 0-97.21-1.78-104.81 5-11.56 10.27-3.19 27.82 12.89 27.82C357 273.8 349 276.09 356.92 269c11.55-10.28 3.19-27.82-12.9-27.82h-30.17c-25.74 0-24.88-35.24 0-35.24 63.46 0 65.16 1.64 72.53-4.94 11.91-10.62 3.21-28.62-13.28-28.62zm545.12 32.5h-90.89c-24.08 0-24.08 36.42 0 36.42h90.89c24.08 0 24.08-36.42 0-36.42zM734.28 42h-40.59c-21.72 0-21.72 32.86 0 32.86h40.59C756 74.88 756 42 734.28 42zm632.89 345.73h-38.28c-22.66 0-22.66 34.29 0 34.29h38.28c22.67-.02 22.67-34.29 0-34.29zM578.66 241.3h-109c-21.56 0-21.56 32.62 0 32.62h109c21.56 0 21.56-32.62 0-32.62zm-375.72-97.85h97.36c24.55 0 24.55-37.14 0-37.14h-97.36c-24.56 0-24.56 37.14 0 37.14zM78 106.31h44.67c20.78 0 20.78-31.43 0-31.43H78c-20.82 0-20.82 31.43 0 31.43z" fill="#d1e9f5"/></svg>