<svg xmlns="http://www.w3.org/2000/svg" xmlns:xlink="http://www.w3.org/1999/xlink" viewBox="0 0 570 667.16"><defs><linearGradient id="a" x1="159.98" y1="134.48" x2="413.09" y2="511.61" gradientUnits="userSpaceOnUse"><stop offset="0" stop-color="#90d608"/><stop offset="1" stop-color="#4b8b00"/></linearGradient></defs><path d="M296.91,654.66c-7.71,0-15.67-.15-23.37-.3s-15.83-.31-23.7-.31c-31.3,0-57.75-12.31-76.5-35.62C156.35,597.32,147,568,147,535.86V328.69a7.73,7.73,0,0,0-7.13-5.24h0c-4.08,0-44.47-.18-63.08-.18h-4.3c-28.64,0-49.43-10.26-57-28.17-5.59-13.17-6.08-35.27,23.35-65.74C85.42,181.08,170.08,93.7,213.17,50.92,239.93,24.35,262.09,12.5,285,12.5c22.74,0,45.4,12.24,71.29,38.52,13.13,13.31,30.31,30.88,48.5,49.47,43.71,44.68,98.1,100.28,130.14,131.67,20,19.62,27.21,41.48,19.7,60-7.74,19.05-29.75,30-60.4,30.15-14.76,0-57.85.57-62.68.63-3.22.32-8.41,1.93-9.38,8.82V535.86c0,48.63-12.67,81.21-38.74,99.6C359.52,652.33,327.72,654.66,296.91,654.66Z" fill="url(#a)"/><path d="M285,25c19.7,0,39.41,11.48,62.39,34.79,44.68,45.34,133.32,136.75,178.8,181.3,33.49,32.81,21.87,68.51-32,68.7-15.81.06-63.23.63-63.23.63s-19.25,1-21.29,20.57V535.86c0,96.63-51.6,106.3-112.77,106.3-15.31,0-31.22-.61-47.07-.61-57.57,0-90.34-47.32-90.34-105.69V327C156,311.3,140.23,311,140.23,311s-43.69-.18-63.45-.18H72.47C27.66,310.77,5,282.29,47.78,238c43.29-44.81,130-134.35,174.2-178.25C245.21,36.72,265.1,25,285,25m0-25c-14.27,0-28.17,3.91-42.5,11.94-12.1,6.79-24.58,16.63-38.15,30.11C161.19,84.91,76.46,172.36,29.8,220.68,17.35,233.56,8.7,246.39,4.08,258.81-2.73,277.09.24,291.29,3.93,300c5.23,12.32,15.3,22.09,29.1,28.26,11.18,5,24.45,7.52,39.44,7.52h4.31c15.27,0,45.26.11,57.72.16V535.86c0,35,10.33,67.08,29.1,90.41a106,106,0,0,0,37,29.52,112.93,112.93,0,0,0,49.2,10.76c7.75,0,15.74.16,23.46.31s15.78.3,23.61.3c32.87,0,67-2.6,93.74-21.49,29.63-20.9,44-56.82,44-109.81V335.38c11.15-.13,46.54-.54,59.61-.59,16.83-.06,31.41-3,43.34-8.75,13.61-6.55,23.5-16.65,28.59-29.2,5-12.24,5-26,.21-39.67-4.18-11.83-11.83-23.25-22.74-33.94-31.94-31.29-86.29-86.84-130-131.48-18.2-18.6-35.39-36.17-48.53-49.51C336.81,13.42,311.32,0,285,0Z" fill="#4b8b00"/><path d="M328.3,185.21a43.78,43.78,0,1,1-43.77-43.78A43.78,43.78,0,0,1,328.3,185.21Z" fill="#f2f2f2" stroke="#465133" stroke-miterlimit="10" stroke-width="10"/><path d="M260,593.45c-11.4,0-22.95-7.84-22.95-22.82,0-47.49,0-82.12-.06-107.47,0-35.55,0-53,.1-62.11a18.06,18.06,0,0,1-5,.68c-9.07,0-18.46-6.84-18.46-18.28V258.61A18.31,18.31,0,0,1,232,240.32H338a18.31,18.31,0,0,1,18.29,18.29V383.45a17.93,17.93,0,0,1-5.78,13.37,18.92,18.92,0,0,1-12.65,4.92h0a18.11,18.11,0,0,1-4.66-.61c.13,8.88.11,26.34.09,62.48,0,25.28-.05,59.79-.05,107,0,15-11.56,22.82-23,22.82s-23-7.84-23-22.82V400.2c0-.57,0-1.68-1.93-1.68,0,0-2.42,0-2.42,1.68V570.63C283,585.61,271.42,593.45,260,593.45Z" fill="#f2f2f2"/><path d="M338,245.32a13.29,13.29,0,0,1,13.29,13.29V383.45a13.25,13.25,0,0,1-13.43,13.29,12.94,12.94,0,0,1-10.31-5.08c1.07,3.75.69,0,.69,179,0,11.88-9,17.82-18,17.82s-18-5.94-18-17.82V400.2c-.08-4.57-3.47-6.68-6.93-6.68-3.67,0-7.42,2.37-7.42,6.68V570.63c0,11.88-9,17.82-18,17.82s-17.95-5.94-17.95-17.82c0-179.74-.51-175.4.93-179.73a12.9,12.9,0,0,1-10.85,5.84,13.24,13.24,0,0,1-13.46-13.29V258.61A13.3,13.3,0,0,1,232,245.32H338m0-10H232a23.32,23.32,0,0,0-23.3,23.29V383.45a22.88,22.88,0,0,0,7.45,17.1A23.69,23.69,0,0,0,232,406.73c-.07,10-.05,26.94,0,56.44,0,25.31.06,60,.06,107.46a27.3,27.3,0,0,0,9,20.86,29.3,29.3,0,0,0,37.92,0,25.94,25.94,0,0,0,6.17-8.13,25.83,25.83,0,0,0,6.17,8.14,29.36,29.36,0,0,0,37.94,0,27.31,27.31,0,0,0,9-20.87c0-47.26,0-81.82,0-107.06,0-29.39,0-46.54,0-56.83a24,24,0,0,0,15.65-6.24,22.89,22.89,0,0,0,7.39-17.05V258.61A23.32,23.32,0,0,0,338,235.32Z" fill="#465133"/><path d="M232,401.56a2,2,0,0,1,0-4,11.64,11.64,0,0,0,11.63-11.62V281.73a2,2,0,0,1,4,0V385.94A15.64,15.64,0,0,1,232,401.56Z" fill="#465133"/><path d="M338,401.56a15.64,15.64,0,0,1-15.63-15.62V281.73a2,2,0,0,1,4,0V385.94A11.64,11.64,0,0,0,338,397.56,2,2,0,0,1,338,401.56Z" fill="#465133"/></svg>
