<svg id="Layer_2" data-name="Layer 2" xmlns="http://www.w3.org/2000/svg" xmlns:xlink="http://www.w3.org/1999/xlink" width="136.63" height="158.085" viewBox="0 0 136.63 158.085"><defs><style>.cls-1{fill:none;}.cls-2{fill:#4b8b00;}.cls-3{clip-path:url(#clip-path);}.cls-4{fill:#4c8c00;}.cls-5{fill:#4d8d00;}.cls-6{fill:#4e8e00;}.cls-7{fill:#4f8f00;}.cls-8{fill:#509001;}.cls-9{fill:#519101;}.cls-10{fill:#529201;}.cls-11{fill:#529301;}.cls-12{fill:#539401;}.cls-13{fill:#549501;}.cls-14{fill:#559601;}.cls-15{fill:#569701;}.cls-16{fill:#579801;}.cls-17{fill:#589902;}.cls-18{fill:#599a02;}.cls-19{fill:#5a9b02;}.cls-20{fill:#5b9c02;}.cls-21{fill:#5c9d02;}.cls-22{fill:#5d9e02;}.cls-23{fill:#5e9f02;}.cls-24{fill:#5fa002;}.cls-25{fill:#60a102;}.cls-26{fill:#60a202;}.cls-27{fill:#61a303;}.cls-28{fill:#62a403;}.cls-29{fill:#63a503;}.cls-30{fill:#64a603;}.cls-31{fill:#65a703;}.cls-32{fill:#66a803;}.cls-33{fill:#67a903;}.cls-34{fill:#68aa03;}.cls-35{fill:#69ab03;}.cls-36{fill:#6aac04;}.cls-37{fill:#6bad04;}.cls-38{fill:#6cae04;}.cls-39{fill:#6daf04;}.cls-40{fill:#6eb104;}.cls-41{fill:#6eb204;}.cls-42{fill:#6fb304;}.cls-43{fill:#70b404;}.cls-44{fill:#71b504;}.cls-45{fill:#72b605;}.cls-46{fill:#73b705;}.cls-47{fill:#74b805;}.cls-48{fill:#75b905;}.cls-49{fill:#76ba05;}.cls-50{fill:#77bb05;}.cls-51{fill:#78bc05;}.cls-52{fill:#79bd05;}.cls-53{fill:#7abe05;}.cls-54{fill:#7bbf06;}.cls-55{fill:#7bc006;}.cls-56{fill:#7cc106;}.cls-57{fill:#7dc206;}.cls-58{fill:#7ec306;}.cls-59{fill:#7fc406;}.cls-60{fill:#80c506;}.cls-61{fill:#81c606;}.cls-62{fill:#82c706;}.cls-63{fill:#83c806;}.cls-64{fill:#84c907;}.cls-65{fill:#85ca07;}.cls-66{fill:#86cb07;}.cls-67{fill:#87cc07;}.cls-68{fill:#88cd07;}.cls-69{fill:#89ce07;}.cls-70{fill:#89cf07;}.cls-71{fill:#8ad007;}.cls-72{fill:#8bd107;}.cls-73{fill:#8cd208;}.cls-74{fill:#8dd308;}.cls-75{fill:#8ed408;}.cls-76{fill:#8fd508;}.cls-77{fill:#90d608;}.cls-78{fill:#465133;}.cls-79{fill:#f2f2f2;}</style><clipPath id="clip-path"><path class="cls-1" d="M124.5,59.638C113.9,49.262,93.258,27.971,82.851,17.41,72.088,6.489,64.4,6.722,53.637,17.41c-10.3,10.225-30.491,31.08-40.574,41.519-9.969,10.321-4.672,16.959,5.8,16.94,3.934-.008,15.735.04,15.735.04a4.817,4.817,0,0,1,4.488,3.746V128.3c0,13.6,7.634,24.617,21.043,24.617H76.314c16.234,0,21.043-11.021,21.043-24.617V80.578a5.3,5.3,0,0,1,4.959-4.791s11.045-.134,14.727-.147C129.59,75.6,132.3,67.281,124.5,59.638Z"/></clipPath></defs><title>logo</title><path class="cls-2" d="M132.241,58.136C120.584,45.894,97.057,21.617,85.41,9.366c-11.592-12.193-22.318-12.779-34.671,0C39.167,21.337,15.926,46.131,4.48,58.534-4.071,67.8.2,80.913,12.359,81.055c7.585.09,16.808-.021,16.808-.021a4.561,4.561,0,0,1,3.258.952,4.489,4.489,0,0,1,1.28,3.273v47.933A24.893,24.893,0,0,0,58.6,158.085H77.746c13.748,0,25.479-9.458,24.893-24.893V85.278a4.923,4.923,0,0,1,1.231-3.129,4.445,4.445,0,0,1,3.219-1.02s12.623.047,16.83.04C137.139,81.146,140.284,66.582,132.241,58.136Z"/><g class="cls-3"><polygon class="cls-2" points="85.849 6.489 3.094 62.029 3.094 6.489 85.849 6.489"/><polygon class="cls-2" points="88.272 6.489 3.094 63.656 3.094 62.029 85.849 6.489 88.272 6.489"/><polygon class="cls-4" points="90.696 6.489 3.094 65.282 3.094 63.656 88.272 6.489 90.696 6.489"/><polygon class="cls-5" points="92.059 6.489 92.388 6.98 3.094 66.909 3.094 65.282 90.696 6.489 92.059 6.489"/><polygon class="cls-6" points="92.388 6.98 93.141 8.101 3.094 68.535 3.094 66.909 92.388 6.98"/><polygon class="cls-7" points="93.141 8.101 93.893 9.223 3.094 70.161 3.094 68.535 93.141 8.101"/><polygon class="cls-8" points="93.893 9.223 94.646 10.344 3.094 71.788 3.094 70.161 93.893 9.223"/><polygon class="cls-9" points="94.646 10.344 95.398 11.465 3.094 73.414 3.094 71.788 94.646 10.344"/><polygon class="cls-10" points="95.398 11.465 96.151 12.587 3.094 75.041 3.094 73.414 95.398 11.465"/><polygon class="cls-11" points="96.151 12.587 96.904 13.708 3.094 76.667 3.094 75.041 96.151 12.587"/><polygon class="cls-12" points="96.904 13.708 97.656 14.829 3.094 78.294 3.094 76.667 96.904 13.708"/><polygon class="cls-13" points="97.656 14.829 98.409 15.951 3.094 79.92 3.094 78.294 97.656 14.829"/><polygon class="cls-14" points="98.409 15.951 99.161 17.072 3.094 81.546 3.094 79.92 98.409 15.951"/><polygon class="cls-15" points="99.161 17.072 99.914 18.193 3.094 83.173 3.094 81.546 99.161 17.072"/><polygon class="cls-16" points="99.914 18.193 100.666 19.315 3.094 84.799 3.094 83.173 99.914 18.193"/><polygon class="cls-17" points="100.666 19.315 101.419 20.436 3.094 86.426 3.094 84.799 100.666 19.315"/><polygon class="cls-18" points="101.419 20.436 102.172 21.557 3.094 88.052 3.094 86.426 101.419 20.436"/><polygon class="cls-19" points="102.172 21.557 102.924 22.679 3.361 89.5 3.094 89.103 3.094 88.052 102.172 21.557"/><rect class="cls-20" x="-6.436" y="55.975" width="119.908" height="1.35" transform="translate(-22.489 39.436) rotate(-33.867)"/><rect class="cls-21" x="-5.683" y="57.096" width="119.908" height="1.35" transform="translate(-22.986 40.046) rotate(-33.867)"/><rect class="cls-22" x="-4.93" y="58.217" width="119.908" height="1.35" transform="translate(-23.483 40.655) rotate(-33.867)"/><rect class="cls-23" x="-4.178" y="59.339" width="119.908" height="1.35" transform="translate(-23.98 41.265) rotate(-33.867)"/><rect class="cls-24" x="-3.425" y="60.46" width="119.908" height="1.35" transform="translate(-24.478 41.875) rotate(-33.867)"/><rect class="cls-25" x="-2.673" y="61.581" width="119.908" height="1.35" transform="translate(-24.975 42.484) rotate(-33.867)"/><rect class="cls-26" x="-1.92" y="62.703" width="119.908" height="1.35" transform="translate(-25.472 43.094) rotate(-33.867)"/><rect class="cls-27" x="-1.167" y="63.824" width="119.908" height="1.35" transform="translate(-25.969 43.704) rotate(-33.867)"/><rect class="cls-28" x="-0.415" y="64.945" width="119.908" height="1.35" transform="translate(-26.466 44.313) rotate(-33.867)"/><rect class="cls-29" x="0.338" y="66.067" width="119.908" height="1.35" transform="translate(-26.964 44.923) rotate(-33.867)"/><rect class="cls-30" x="1.09" y="67.188" width="119.908" height="1.35" transform="translate(-27.461 45.533) rotate(-33.867)"/><rect class="cls-31" x="1.843" y="68.309" width="119.908" height="1.35" transform="translate(-27.958 46.142) rotate(-33.867)"/><rect class="cls-32" x="2.595" y="69.431" width="119.908" height="1.35" transform="translate(-28.455 46.752) rotate(-33.867)"/><rect class="cls-33" x="3.348" y="70.552" width="119.908" height="1.35" transform="translate(-28.953 47.361) rotate(-33.867)"/><rect class="cls-34" x="4.101" y="71.674" width="119.908" height="1.35" transform="translate(-29.45 47.971) rotate(-33.867)"/><rect class="cls-35" x="4.853" y="72.795" width="119.908" height="1.35" transform="translate(-29.947 48.581) rotate(-33.867)"/><rect class="cls-36" x="5.606" y="73.916" width="119.908" height="1.35" transform="translate(-30.444 49.19) rotate(-33.867)"/><rect class="cls-37" x="6.358" y="75.038" width="119.908" height="1.35" transform="translate(-30.941 49.8) rotate(-33.867)"/><rect class="cls-38" x="7.111" y="76.159" width="119.908" height="1.35" transform="translate(-31.439 50.41) rotate(-33.867)"/><rect class="cls-39" x="7.863" y="77.28" width="119.908" height="1.35" transform="translate(-31.936 51.019) rotate(-33.867)"/><rect class="cls-40" x="8.616" y="78.402" width="119.908" height="1.35" transform="translate(-32.433 51.629) rotate(-33.867)"/><rect class="cls-41" x="9.369" y="79.523" width="119.908" height="1.35" transform="translate(-32.93 52.239) rotate(-33.867)"/><rect class="cls-42" x="10.121" y="80.644" width="119.908" height="1.35" transform="translate(-33.427 52.848) rotate(-33.867)"/><rect class="cls-43" x="10.874" y="81.766" width="119.908" height="1.35" transform="translate(-33.925 53.458) rotate(-33.867)"/><rect class="cls-44" x="11.626" y="82.887" width="119.908" height="1.35" transform="translate(-34.422 54.068) rotate(-33.867)"/><rect class="cls-45" x="12.379" y="84.008" width="119.908" height="1.35" transform="translate(-34.919 54.677) rotate(-33.867)"/><rect class="cls-46" x="13.132" y="85.13" width="119.908" height="1.35" transform="translate(-35.416 55.287) rotate(-33.867)"/><rect class="cls-47" x="13.884" y="86.251" width="119.908" height="1.35" transform="translate(-35.913 55.896) rotate(-33.867)"/><rect class="cls-48" x="14.637" y="87.372" width="119.908" height="1.35" transform="translate(-36.411 56.506) rotate(-33.867)"/><rect class="cls-49" x="15.389" y="88.494" width="119.908" height="1.35" transform="translate(-36.908 57.116) rotate(-33.867)"/><rect class="cls-50" x="16.142" y="89.615" width="119.908" height="1.35" transform="translate(-37.405 57.725) rotate(-33.867)"/><rect class="cls-51" x="16.894" y="90.736" width="119.908" height="1.35" transform="translate(-37.902 58.335) rotate(-33.867)"/><rect class="cls-52" x="17.647" y="91.858" width="119.908" height="1.35" transform="translate(-38.399 58.945) rotate(-33.867)"/><rect class="cls-53" x="18.4" y="92.979" width="119.908" height="1.35" transform="translate(-38.897 59.554) rotate(-33.867)"/><rect class="cls-54" x="19.152" y="94.1" width="119.908" height="1.35" transform="translate(-39.394 60.164) rotate(-33.867)"/><rect class="cls-55" x="19.905" y="95.222" width="119.908" height="1.35" transform="translate(-39.891 60.774) rotate(-33.867)"/><rect class="cls-56" x="20.657" y="96.343" width="119.908" height="1.35" transform="translate(-40.388 61.383) rotate(-33.867)"/><rect class="cls-57" x="21.41" y="97.464" width="119.908" height="1.35" transform="translate(-40.885 61.993) rotate(-33.867)"/><rect class="cls-58" x="22.162" y="98.586" width="119.908" height="1.35" transform="translate(-41.383 62.603) rotate(-33.867)"/><polygon class="cls-59" points="132.275 66.411 132.298 66.445 132.298 68.022 33.464 134.354 32.711 133.232 132.275 66.411"/><polygon class="cls-60" points="132.298 69.648 34.216 135.475 33.464 134.354 132.298 68.022 132.298 69.648"/><polygon class="cls-61" points="132.298 71.275 34.969 136.596 34.216 135.475 132.298 69.648 132.298 71.275"/><polygon class="cls-62" points="132.298 72.901 35.721 137.718 34.969 136.596 132.298 71.275 132.298 72.901"/><polygon class="cls-63" points="132.298 74.528 36.474 138.839 35.721 137.718 132.298 72.901 132.298 74.528"/><polygon class="cls-64" points="132.298 76.154 37.227 139.96 36.474 138.839 132.298 74.528 132.298 76.154"/><polygon class="cls-65" points="132.298 77.781 37.979 141.082 37.227 139.96 132.298 76.154 132.298 77.781"/><polygon class="cls-66" points="132.298 79.407 38.732 142.203 37.979 141.082 132.298 77.781 132.298 79.407"/><polygon class="cls-67" points="132.298 81.033 39.484 143.324 38.732 142.203 132.298 79.407 132.298 81.033"/><polygon class="cls-68" points="132.298 82.66 40.237 144.446 39.484 143.324 132.298 81.033 132.298 82.66"/><polygon class="cls-69" points="132.298 84.286 40.989 145.567 40.237 144.446 132.298 82.66 132.298 84.286"/><polygon class="cls-70" points="132.298 85.913 41.742 146.688 40.989 145.567 132.298 84.286 132.298 85.913"/><polygon class="cls-71" points="132.298 87.539 42.495 147.81 41.742 146.688 132.298 85.913 132.298 87.539"/><polygon class="cls-72" points="132.298 89.166 43.247 148.931 42.495 147.81 132.298 87.539 132.298 89.166"/><polygon class="cls-73" points="132.298 90.792 44 150.052 43.247 148.931 132.298 89.166 132.298 90.792"/><polygon class="cls-74" points="132.298 92.418 44.752 151.174 44 150.052 132.298 90.792 132.298 92.418"/><polygon class="cls-75" points="132.298 94.045 45.505 152.295 44.752 151.174 132.298 92.418 132.298 94.045"/><polygon class="cls-76" points="132.298 95.671 47.007 152.913 45.92 152.913 45.505 152.295 132.298 94.045 132.298 95.671"/><polygon class="cls-77" points="132.298 97.298 49.43 152.913 47.007 152.913 132.298 95.671 132.298 97.298"/><polygon class="cls-77" points="49.43 152.913 132.298 97.298 132.298 152.913 49.43 152.913"/></g><path class="cls-78" d="M81.69,57.646H72.819a13.466,13.466,0,1,0-8.949,0h-8.7c-2.995,0-5.194,1.815-5.194,4.4V92.383a5.647,5.647,0,0,0,4.2,5.86,1.813,1.813,0,0,1,1.485,1.947l.028,37.069c.005,3.318,3.155,6.142,6.864,6.112,3.945-.031,4.679-1.372,5.777-2.723a6.4,6.4,0,0,0,5.645,2.7c4.112-.039,7.153-2.7,7.114-6.066l-.073-37.153c.036-1.211.444-1.519,1.178-1.764a6.3,6.3,0,0,0,4.473-5.978V61.851C86.659,59.981,84.883,57.646,81.69,57.646Z"/><path class="cls-79" d="M68.205,55.421a10.2,10.2,0,1,0-10.2-10.2A10.2,10.2,0,0,0,68.205,55.421Z"/><path class="cls-79" d="M80.663,60.623h-24.7a3.1,3.1,0,0,0-3.1,3.1V92.8a3.1,3.1,0,0,0,5.661,1.735,4.137,4.137,0,0,0-.216,1.308V136.4a4.183,4.183,0,0,0,8.366,0l-.01-39.7a1.632,1.632,0,0,1,1.722-1.559A1.574,1.574,0,0,1,70.015,96.7l.01,39.7a4.183,4.183,0,0,0,8.366,0V95.839a4.143,4.143,0,0,0-.16-1.131A3.095,3.095,0,0,0,83.76,92.8V63.719A3.1,3.1,0,0,0,80.663,60.623Z"/><path class="cls-78" d="M59.151,68.637a.466.466,0,0,0-.466.466V93.375a2.71,2.71,0,0,1-2.707,2.708.466.466,0,1,0,0,.932,3.643,3.643,0,0,0,3.639-3.64V69.1A.466.466,0,0,0,59.151,68.637Z"/><path class="cls-78" d="M80.653,96.083a2.711,2.711,0,0,1-2.708-2.708V69.1a.466.466,0,0,0-.932,0V93.375a3.644,3.644,0,0,0,3.64,3.64.466.466,0,0,0,0-.932Z"/></svg>