<svg xmlns="http://www.w3.org/2000/svg" viewBox="0 0 1400 780"><path fill="#e6e6e6" d="M0 0h700v664.49H0z"/><path fill="#3fa9f5" d="M700 0h700v666.95H700z"/><path fill="#659465" opacity=".79" d="M700 636.19h700V780H700z"/><path fill="#c2ae9f" d="M0 636.19h700V780H0z"/><path d="M217.12 237l-17.57 81-107-53.74-2.84 2.39c93.53 63.34 109.28 67.74 109 78-.88 31.8-2.9 63.59-4.68 95.38-.09 1.54-1.35 3.05-3.11 6.83l-91.56-38.9-2.35 2.44c26.44 14.4 52.45 29.23 79.52 43 11.63 5.92 16.49 12.18 15.76 22.52-3.56 50.34-6 100.72-9.27 151.07-.88 13.47 2.81 10.36 64.79 10.36 2-20-7-137.61-7.85-148.65-2-24.13 19.81-17.74 57.51-45.2l-57.77 22.74c-3.81-80.12-6.19-69.92 7.76-79 27.39-17.78 55-35.41 80.47-55.08l-92.2 46.13L223.24 237z" fill="#9a9a9a"/><path d="M140.83 649.31H272l-5.37-44.82H164.1l31-26.61-34.92 1.68L209.09 542l-31.53-5.53 67.57-47.71-8.8-10.61-24.94-3.94C259.45 453 253.83 407 275.22 376.3c4.29-6.14 6.94-13.42 13.66-26.76L330.13 449l37.35-46.12-39.31 8.95 73.79-83-22.91 1.17 51.25-95.75 51.51 95h-22.3l72.34 81.56c-35.66-7.12-29-7.63-35.92-1.64l80.47 84.47-39.42 2 74 56.92-55.15-5.56 52.68 41.29-179.81 8.89v52.13h216.67v28.59H140.83zm145.49-36.87v35.67H409.6l-7.6-41.35z" fill="#c2ae9f"/><path d="M1103.06 262.16c18.87 10.41 19.38 18.52 40.35 30.08 2-34 9.84-76.55 11.74-108.71.91 0 30.21 12.78 31.12 12.78 2.61 49.16 6.64 96.9 9.36 148.11 24.82-13.72 22.77-16.36 45.52-28.94 0-7.73 29.6.22 30.19.76-7.54 6.07-29.61 26.88-37.38 32.76-18.17 13.73-44.25 27.25-43.74 36.23 11.09 196.76 1.37 182.69 4.58 229.18.52 7.58 1.49 15.17 1.43 22.75 0 2-3.11 5.53-4.88 5.57-19.38.41-38.78.25-59.36.25 6.41-96.06 1.3-104.33 5.57-146.77.59-5.88-15.07-9.11-20.93-12.5-31.54-18.24-74.83-43.62-106.09-62.15-3.56-2.12 26.11-17.95 23.35-21 39.42 13.56 50.42 29.14 89.1 47.3 1.28-11.66 21-6.6 11-7.55-18.94-1.81-3.29-102.57 15.66-100.76 1.9-17 3.19-3.83-70.8-59.07.77-.75 23.45-17.56 24.21-18.32z" fill="#784b42"/><path d="M1195.86 536.18c-1.27-16.88-7.93-115.44-10.34-148.82-.36-5 1.82-8.43 6.42-11.87 72.24-53.92 60.77-45.77 68.53-58.29-21.17 3.91-2.18-4.66-76.37 35.66-4.37-53-2.61-105.26-11.06-157l-4.72-.61c-1.57 3.14-4.23 6.21-4.54 9.43-7.93 83.82-6.09 79.11-6.09 95.38-4.53 1.62-.68 1.77-14-5.32-49.9-26.49-37.18-20.64-51.89-21.75 1.29 2.93 1.53 6.66 4 8.67 16.78 13.39 33.78 26.62 51.28 39.43 11 8.07 8.16.29-5 140.38-.41 4.28-3.43 0-32.36-13.28-84.55-38.85-68.87-31.5-86.81-32.89 2.82 3.66 4.6 8.35 8.61 10.82 106.68 65.65 109.82 61.2 107.25 74.44-5.86 30.14 3.35 39.4-13.52 37.86-84.64-7.75-127.46-51.61-136.3-112.74C969.08 288.42 1128.67 76 1157.21 47c79.06 82.71 183.19 269.91 163.77 383.24-11.91 69.5-52.18 95.76-125.12 105.94z" fill="#659465"/><path d="M973.8 618.67l15.61-32.23-28.19-45.2c-56.55 5.86-30.76 7.46-115.6-9.38-27 22.39-15.79 11.18-49.56 50.81 0 0-21.42 2.72-22 3.77s2.45 17.93 2.45 17.93c30.14 12.94 12.39 5.88 74.31 29.11 78.6 0 50.59 3.85 122.98-14.81z" fill="#c09240"/><path d="M789.26 571.26c-5.2-8.48-14-19.44-2.15-26.16 10.55-6 18.49-.44 27.62 5 1.93-6.48.82-3.5 1.15-7.91 1.92-25.22 21.8-29.51 44.78-18.94 8.21 3.77 3.91 4.32 12.31-5.39 13.39-15.48 39.6-20.19 49.84-4.45 4.33 6.66 6.69 14.1 10.18 21.74 7.63-4 15-11.46 26.66-6.32 11.19 4.9 10.54 13.06 8.6 22.39 32.79-10.89 25.26 15.86 25.26 26.36 8.69.41 17.11.62 15.17 10.26-16.25 80.92-264.61 69.35-248.85-5.25 3.47-16.47 15.81-13.43 29.43-11.33zm74.9 47.29c-.36-12.42-23.68-11.12-23 .62.75 11.42 23.34 11.26 23-.62zM966.69 605c-.11-11.76-22.82-11.7-23-.06-.27 12.06 23.12 12.06 23 .06zm-2.39-47.23c-.24-11.39-22.95-11.71-22.93.1.02 12.59 23.18 11.59 22.93-.06zM793 586.44c-15.24.09-14.91 17.62-.17 17.92 14.9.31 16-18 .17-17.92zm115.1-3.67c.83-12.29-22.36-12.71-22.86-.94s22.04 12.62 22.82.94zm-57.61-43.4c-15.22.3-14.74 18.43.87 17.88 15.15-.54 13.94-18.17-.91-17.88z" fill="#659465"/><path fill="#8e5021" d="M983.85 513.96l2.75 120.23h6.89l3.21-116.1-12.85-4.13zm105.09 126.2l-2.75-117.03h11.65l-3.85 117.03h-5.05z"/><path d="M938.38 351.68c12.26-9.17 19.7-20.14 20.7-33.52-20.47 4.09-36.49 2.44-45.24-8.54-.09-7.21 2-11.82 6.55-13.47 0 0 6.77-3.35 6.92.78s-12.39 15.92 10.09 16c21.32 0 49.52-4.67 54.06-7.52s6.56-19.2 6.56-19.2c2.17-3.4 4.58-3.88 7.27-1.12l-4.73 17c27.2 1.64 16.67-26.07 24.17-27.35 4.75-.81 3.75 16.61 3.75 16.61 20.41-10.06 8-28 15.45-26.94 4.28.6 8.29 12.9-.76 26.49-10.18 15.28-75.66 30-77.15 27.07-.24 14.66-9.65 28.25-23.58 41.33z" fill="#503228"/><path d="M977.77 349.49c15.19-6.75 25.69-16.55 30-30.42-22.67-.57-39.25-6.12-45.91-19.79 1.64-7.63 4.95-12 10.17-12.65 0 0 8-1.92 7.15 2.48S962.2 303 986 308.35c22.59 5.12 53.61 6.87 59.1 4.95s11.55-18.7 11.55-18.7c3.11-3.06 5.78-3 8 .55l-9.07 16.77c28.44 8.22 23.89-23.52 32.16-23.09 5.22.28 0 18.42 0 18.42 24.17-5.78 15.08-27.64 22.82-24.74 4.39 1.65 5.7 15.58-7.15 27.76-14.41 13.73-87.41 13.64-88.26 10.17-3.76 15.41-17 27.51-34.88 38z" fill="#7f422d"/><path d="M1151.35 427.68c-11.33-.16-16.46 8.68-14.68 27.54-10.07-13.8-30.12-16.33-56-12.29-19.78 1-97.68 1.21-108.3-4.23-9-4.59-8-34.25-6.43-55.07l-14.68 6.42a245.06 245.06 0 009.18 61.49s-5.39 28.54 6.8 50.86c.94-1.78 1.14-12.67 19.81-10.93 18.68 16.23 73.36 29.37 114.5 18.13 14.61-7.24 28.51-13 38.32-10.33v4.34c12.29-19.79 13.32-52.71 11.48-75.93z" fill="#ab5f2d"/><path d="M1101.56 509.6c-41 11.2-95.73-1.83-114.5-18.13-18.18-1.7-18.54 8.51-19.81 10.93 6.62 12.12 18.42 22.42 39.09 25.32 45.41 6.39 110.46 13.07 133.54-24.11v-4.34c-9.81-2.7-23.71 3.09-38.32 10.33z" fill="#c38353"/><path d="M1016.43 355.86c-11.39-3-23.74-1.06-36.94 5.28 1.78-39.61-54.22-9.37-88-20.18 8.46 30.6-12.43 38.75-49.75 34.36 4.63 10 11.63 18.63 19.4 22.07 51.09 22.58 121 4.55 119.32-28.22 14.78-1.35 27.15-5.39 35.97-13.31z" fill="#ab5f2d"/><path d="M891.44 341c-13.89-4.43-23.36-15.07-43.66-9-15 4.52-14.18 25.91-6.09 43.32 37.31 4.39 58.21-3.76 49.75-34.32z" fill="#7c4234"/><path d="M957.35 352.42c0-9.87-14.92-9.87-14.92 0s14.92 9.87 14.92 0z" fill="#fff2e1"/><path d="M948.28 351c0-4 6-4 6 0s-6 3.91-6 0z" fill="#460e00"/><path d="M938.07 351c0-9.87-14.91-9.87-14.91 0s14.91 9.83 14.91 0z" fill="#fff2e1"/><path d="M929 349.51c0-3.94 6-3.94 6 0s-6 3.95-6 0z" fill="#460e00"/><path d="M943 387.11c-15.33 8.39-32.64 11.58-51.86 9.8-7.75 1.47-10-10.26-2.21-11.72 18.26 4.77 35.57 1.74 51.85-9.8 7.72-1.47 9.94 10.26 2.22 11.72z" fill="#fff2e1"/><path fill="#ab5f2e" d="M1023.32 496.52v143.64h-5.51l-8.26-143.64h13.77zm95.45 143.64h7.8l2.3-150.53h-17.44l7.34 150.53z"/><path d="M986.6 634.19l-5.5 9.64h18.35c-7.16-11.58-4.18-9.64-12.85-9.64zm101.74 4.81l-5.51 9.64h18.36c-7.19-11.57-4.19-9.64-12.85-9.64z" fill="#4e2a1e"/><path d="M1017.67 639l-5.51 9.64h18.36c-7.17-11.57-4.18-9.64-12.85-9.64zm101.42 1.16l-5.51 9.63h18.36c-7.17-11.57-4.18-9.63-12.85-9.63z" fill="#784331"/><path fill="#9e6a4b" d="M503.83 554.49l-2.76 84.36h-6.88l-3.21-81.46 12.85-2.9zm-105.09 88.54l2.75-82.1h-11.65l3.85 82.1h5.05z"/><path d="M523 398.33c-6.77-5.05-10.87-11.1-11.42-18.48 11.29 2.26 20.12 1.35 24.95-4.71.1-8.55-7.35-9.24-7.43-7s6.83 8.78-5.56 8.8c-11.76 0-27.31-2.57-29.82-4.15-3.85-2.41-2.39-16.56-7.62-11.2l2.61 9.35c-14.86.9-9.28-14.38-13.33-15.08-2.62-.44-2.07 9.16-2.07 9.16-11.09-5.46-4.58-15.4-8.51-14.85-2.37.33-4.58 7.11.42 14.61 5.61 8.42 41.71 16.54 42.53 14.92.14 8.08 5.32 15.58 13 22.79z" fill="#503228"/><path d="M513.34 401.8c-8.78-3.9-14.86-9.56-17.33-17.59 13.12-.33 22.7-3.54 26.55-11.44-.94-4.42-2.86-6.94-5.88-7.32 0 0-4.61-1.11-4.13 1.43s9.8 8-4 11.13c-13.06 3-31 4-34.18 2.86-4.89-1.71-6.8-17.74-11.28-10.49l5.24 9.7c-16.2 4.68-14-13.6-18.6-13.36-3 .16 0 10.66 0 10.66-13.82-3.31-8.85-15.94-13.19-14.31-2.55.95-3.3 9 4.13 16.05 8.35 7.92 50.53 7.89 51 5.89 2.18 8.91 9.83 15.9 20.18 22z" fill="#231f20"/><path d="M310.73 487c2.49-5.72 23.42-1.28 20.93 4.44 21.47-29.42 63.86-7.71 136.21-14.25 56.2-5.08 67.86 13.8 61.72-68.76l17 7.45A284.67 284.67 0 01536 487.17s6.25 33.08-7.89 59c-1.09-2.07-1.32-14.7-23-12.68-21.66 18.82-85.06 34.06-132.76 21-16.93-8.39-33.05-15.1-44.43-12v5c-15.02-24.17-12.35-62.18-17.19-60.49z" fill="#a16a4b"/><path d="M372.36 554.48c47.5 13 111-2.11 132.76-21 21.08-2 21.5 9.87 23 12.68-7.68 14.05-21.36 26-45.32 29.36-53.48 7.52-128.23 14.91-154.84-28v-5c11.35-3.14 27.47 3.57 44.4 11.96z" fill="#e6c7af"/><path d="M485.12 407.94c11.39-3 6.58-9.34 19.78-3-.78-17.24 10.11-17.4 26.61-16.36 13.59 1.74 47.72 5.31 61.43.93-8.46 30.59 6.94 38.75 44.25 34.36-23.41 50.39-135.39 35.34-133.19-6.15-14.85-1.35-10.06-1.87-18.88-9.78z" fill="#a16a4b"/><path d="M592.94 389.51c13.9-4.44 17-8.67 37.26-2.56 15 4.53 15.08 19.51 7 36.92-37.32 4.39-52.72-3.77-44.26-34.36z" fill="#231f20"/><path d="M527 404c0-9.87 14.91-9.87 14.91 0S527 413.85 527 404z" fill="#fff2e1"/><path d="M539.54 402.5c0-3.95-6-3.95-6 0s6 3.94 6 0z" fill="#460e00"/><path d="M546.31 402.54c0-9.87 14.92-9.87 14.92 0s-14.92 9.86-14.92 0z" fill="#fff2e1"/><path d="M558.36 401.08c0-3.94-6-3.94-6 0s6 3.92 6 0z" fill="#460e00"/><path d="M581.69 435.15c-12.56-5.3-26.25-6.43-41-3.54-6.13-.53-6.93 8.74-.8 9.27 13.8-5.13 27.48-4.13 41 3.55 6.11.57 6.93-8.75.8-9.28z" fill="#fff2e1"/><path fill="#a16a4b" d="M464.36 542.25v100.78h5.51l8.26-100.78h-13.77zm-95.45 100.78h-7.81l-2.29-105.61h17.44l-7.34 105.61z"/><path d="M501.07 638.85l5.51 6.76h-18.36c7.16-8.12 4.18-6.76 12.85-6.76zm-101.73 3.38l5.5 6.76h-18.35c7.15-8.11 4.18-6.76 12.85-6.76z" fill="#4e2a1e"/><path d="M470 642.23l5.5 6.76h-18.34c7.16-8.11 4.18-6.76 12.84-6.76zm-101.41.77l5.5 6.76h-18.35c7.16-8.08 4.18-6.76 12.85-6.76z" fill="#784331"/></svg>