<svg xmlns="http://www.w3.org/2000/svg" viewBox="0 0 1400 780"><path fill="none" d="M-1.26-.06H.03v780h-1.29zm305.84 414.5v-23.69q-.09 11.75 0 23.69z"/><path d="M526.61 301.62c3.45-.92 3.56-6.22 1.12-8.84s-6.15-3.52-9.32-5.17c-9.53-4.95-13.78-18-9-27.62a47.69 47.69 0 0026.1 28.8 48.91 48.91 0 01-5.6 17.09A65.13 65.13 0 01573 332c-6.86-52.73-4-50.31-18.8-56.23a122 122 0 01-47.84-34.48 49.67 49.67 0 0145.5 18.86c-41.1-52.82-46.55-62.87-60.39-64.75-7.74-1.06-15.45 2.31-23.26 2.12s-16.68-7.22-13.66-14.42c51.82 2.84 24.65 6.24 6.37-12.42q-15.19 20.49-31.48 40.15c5.86-4.83 10.82-8.74 13.53-10.76-14.1 27.84 19.42 48.1 83.64 101.55zm641.22 327.79c-6.63 7.32-14.86 13.54-25.65 21.27 10.69-7.61 18.82-13.68 25.65-21.27zM981.87 230.58c3.2-13.8-2.31-30.85 5.26-41.72a29.82 29.82 0 01-13.32 2.61c-33.43-1-15.43-10.82-94.76 59.25l42.88-7.11c1.3 9.31-7.94 17-17.13 19.06s-18.81.44-28.1 1.92-19.16 7.76-19.54 17.15c2.44.82 5 1.53 7.57 2.14l1.81-.2c16.06-15.2 39-19.7 69.14-13a117.47 117.47 0 0121.41-7.68c10.46-9.74 21.65-18.88 24.78-32.42zm68.77-20.58c9.14-7.51 7.66-5.85 6.94-8q-3.57 2.43-7.17 4.69a14.52 14.52 0 00.23 3.31zm163.92 456c1.87-4.84 3.6-9.46 5.22-13.9-7.31 19.49-15.11 37-21.11 47 5.4-8.61 10.51-19.19 15.89-33.1zm34.85 8.39c-.35 1.07-.71 2.15-1.07 3.23.36-1.08.72-2.16 1.07-3.23zm-68.02 76.03c13-23.18 27.81-55.52 40.12-88-12.33 32.49-27.21 64.83-40.14 88zm-142.72-535.04c-.33-.36-.64-.68-.94-1l-1.47.9c.74.08 1.58.11 2.41.1zm-82.36 554.89c6.17-12.45 15.31-22.8 33-36.16-17.67 13.34-26.79 23.59-33 36.16zm268.44-25.94c8.41-22.53 16.45-45.17 23.59-66.71-6.92 20.9-15 43.66-23.67 66.72zm-68.22-417.04c2 8.92-.32 14.78-6.61 17.95 10.84 40.52 12.23 81.81 5 123.81 3.38 19.06 7.52 21.26 7.54 23.21v-.08a50.52 50.52 0 0015.45 17.61c19.32 2.61 34.51 9 46.09 18.75 9.72 26.94 14.13 21.18 8.59 22-1.37.21-2.57 2.44-3.83 6.21 1.73-4.12 3.74-6.66 6.19-6.15q2.77 4.24 6 8.18a34.51 34.51 0 01.66 7.2c.65-12-1.67-6.87 8.89 3.13q2.48 2.35 5.13 4.57c-.13-93.74-2.53-198.56-11.57-291.38-17.96 24.85-43.73 42.83-87.53 44.99zm-102.47-79.74l1.78.18-2.4-1.35a2.44 2.44 0 01.62 1.17zm191.51 332.2c-.15.94-.3 1.89-.47 2.86.17-.97.32-1.92.47-2.86zm-203.15-333.43l3 .34a14.11 14.11 0 01-.27-1.46c-1.01.42-1.9.8-2.73 1.12zm179.93 413.91l-.24.64zm-175.77-431.97a13.59 13.59 0 01-5.48.85c-2.35 5.43-2.3 1.67-2.3 9.29-3 .61-6.46-2.48-9-.68a11.67 11.67 0 00-1.95 2.49c-2.17 2.73-7.26 2.27-8.7-.91s1.94-7.4 5.31-6.49a7.75 7.75 0 01-1.48-3.53c-.3-4.75 4.86-2.05 5.07-2 3.32 1 6.15-2.45 7.9-5.42-5.67-1-11.74 2.57-16.81 5a86.45 86.45 0 00-9.17 8.27c4.53 6 10.06 8.28 26.44 10.42 4.21-4.43 13.35-12.67 10.17-17.29zM1067 727.42c25.5-29.58 55.74-44.49 68.34-53.52-11.27 8.1-42.26 23.1-68.34 53.52zm-184.1-53.85c-.46.54-.91 1.1-1.36 1.66.46-.57.9-1.12 1.36-1.66zM518.17 162.52c6-27.57 6.62-56.54 17.26-82.66s35.57-49.7 63.65-46.37C588 56 542 34 542.68 138.92a44.23 44.23 0 0028.24-27.37c5.25 9.24-1.7 20.81-10 27.46-14.77 11.88-32.39 18-23.28 48.18l52.91-69c49.79-64.95 11.54-73.4 22.21-105.19 1.48-4.42 3.52-7.88 8-13h-60.83a850.21 850.21 0 01-72 132.24 336.17 336.17 0 0130.24 30.28zM1087 763.69l.82-.12c4.27-20.64 10.84-34.62 18.94-45.06-7.9 9.51-14.36 21.32-18.23 37-.61 2.29-1.11 5.04-1.53 8.18zm46.84-6.59c1.21-.93 2.4-1.83 3.58-2.72l-3.68 2.73zm-193.21-73.32C906.46 702.4 897.79 718 896.75 732c1.05-14 9.74-29.61 43.88-48.22zM879 678.54q-.88 1.23-1.74 2.52.9-1.29 1.74-2.52zm5-6.22l.16-.17zm166.1-44.99c-25.5 12.26-59.22 29.18-104.33 53.66 45.13-24.49 78.86-41.41 104.36-53.67zm105.47-126.03c1.44-1.85 2.7-3.49 3.73-4.84-1 1.06-2.21 2.42-3.75 4.22zm-89.3 226.95l-.9 1.06zm-307.2-231.9c-.33-1.33-.65-2.66-1-4l-3.56 1.22a8.44 8.44 0 013-4.08q-1.44-7-2.3-14.28a19.32 19.32 0 01-2.67.07c-14.31 20.39-24.2 43.39-30.1 68.74q2.94 2 6 3.62c16.46-12.56 26.04-31.32 30.63-51.29zM880.92 676c-.53.69-1 1.38-1.57 2.1.52-.71 1.04-1.4 1.57-2.1zm282.83.08c-9.75 6.92-20.54 12.92-30.91 19.82 9.8-6.26 20.33-11.97 30.91-19.82zm8.25 52.5c8.77-7.08 16-14.13 22.72-23.5a138.07 138.07 0 01-22.72 23.5z" fill="#91a5a4"/><path d="M1167.83 629.41c26.76-29.51 29.44-73.33 39-95.51-9.61 22.23-12.46 66.25-39 95.51zM419.51 382.72c.1-1.06-.12-1.45-1.35-1.7a10.2 10.2 0 01-2.34-.75c.17 1.89.33 3.77.5 5.64 3.68 1.58 2.68 1.94 3.19-3.19zm1.09 15.35c-1.24.41-2.36.27-3.18.78.17 2 .33 4 .48 5.95 2.1-2.35 3.9-4.98 2.7-6.73zm798.91 193.51c1.18-3.56 2.29-8.39 3.44-13.49a298.13 298.13 0 01-9.83 30.77q3.29-8.04 6.39-17.28zM605.16 255c-2.67 3.37-7.94 3.87-11.57 1.86a71.5 71.5 0 013.87 28.14c6.53-10.19 8.82-22.73 11.8-34.7a4.74 4.74 0 00-.77.46c-1.49 1.05-2.21 2.81-3.33 4.24zM811.35 40.71c-.33-13.6-1.24-27.07-5.33-40l-2 46c.66-2.67 1.28-4.9 1.76-6.42a6.78 6.78 0 005.57.42zM599.39 242.4c-4.46-7.06-1.95-10.59.88-11 3.53-.46 9.51 7.89 18.68-7.66-13.16-2.27-27.58 9.81-37.28 11.92a76.31 76.31 0 018.4 13c1.09-3.98 5.2-7.37 9.32-6.26zm588.24-137.23a30 30 0 00-17.39 25.83 34.82 34.82 0 01-11.66-12.16c-7.54 1.34-10.5 12.91-4.52 17.7-4.64.16-7.69-5-12.14-6.35-2.9-.88-6 0-9 .35-12.35 1.52-25.23-6.39-29.44-18.09-5.88 9-3.63 22.31 4.87 28.86 7.12 5.47 17.87 6.82 22 14.78 5.44 10.44-4.88 24.27.89 34.53-1.37 6.1-11.77 3.28-13.39-2.76s1.33-12.3 1.59-18.54c.44-10.54-8-20.7-18.48-22.18-9 24.76-22.63 39.45-37.32 50.5 3.44-.4 6.65-2.66 8-2.91 4.78-.93 5.3 4.72-.63 6.46.93 2.87 1.85 2.81 2.77 5.69-5.14.06-10 2.52-12.3 6.68 2.48-1 15.35-7.41 18-7s5.17 2.79 4.72 5.41a6.1 6.1 0 00-4.79 3.13 8.18 8.18 0 016.39 3.58c-7.27 2-11.88 1.74-2.89 6.89 5.68 3.26 3 10.28-4.42 2.63-6-6.16-4.84-9-22.53-7.59 10.54 8.63 8.18 7.56 13.08 5.5 1.35-.57 5.33-.31 4.63 1a5.93 5.93 0 01-5.91 2.9c.81 4.24 7.72 5.77 7.4 10.08-.2 2.62-5 7.42-12.68-1.46l-.35 2.31c-9.3-2-6.85-8.1-4.24-8.45a15.17 15.17 0 01-5.46-7.94c-5.33 9.54 5.19 15.42 6.9 17.81a5.7 5.7 0 01.57 5.85c9.47.92 20.88 2 34.73 3.44-56.06 17.75-85-3.27-99.66 10.18 13.43 2.64 26.58 8.68 39.42 18.39 25.7-4 47.74-1.32 65 10a38.9 38.9 0 016.21-4c8-6.23 21.23-8.09 28.62-2.48l.07.06c29.75-21.22 51.86-51.11 66.73-89.19l12.41 33.06 17.13-18.9 4.45 10.63 1.52-.25c-6.29-43.5-14.54-82.52-25.33-114.09q-50.16-2.52-101.61-2.59c4.87 21.46 38.87 10.06 78.04 2.7zM675.76 329.18a211.39 211.39 0 0036.85-31c-2-4.54-5.3-9.76-11.15-16.35-11.46 14.62-22.27 29.6-25.7 47.35zm17.14-102.87c-.54-1.51-1.06-3.06-1.55-4.63l-1.06.29a6.88 6.88 0 002.61 4.34zm11.41 51.89a153.46 153.46 0 0113.25 14.56c3.74-4.23 7.3-8.63 10.69-13.15-4.42-4.56-9-9.45-13.44-14.9-3.39 4.53-6.95 9-10.5 13.49z" fill="#91a5a4"/><path d="M419.42 377.28a2.21 2.21 0 013.36-2.86l.36 2.5c.71-4.37 6.51-2.75 5.25.38-.63 1.57-6.56 3.65-5.41 10 7.69-6.32 2.59-1.58 4.32-8.27 2.91 2.61 6.8-.47 8-.71 2.81-.54 3.11 2.78-.37 3.8.54 1.69 1.08 1.65 1.62 3.34a8.26 8.26 0 00-7.22 3.93c1.46-.58 9-4.36 10.57-4.12s3 1.64 2.77 3.18a3.58 3.58 0 00-2.82 1.84 4.8 4.8 0 013.76 2.1c-4.28 1.18-7 1-1.7 4 3.32 1.9 1.78 6.06-2.6 1.54-3.52-3.65-2.87-5.31-13.23-4.46 6.19 5.08 4.8 4.45 7.68 3.23.8-.33 3.14-.18 2.72.57a3.49 3.49 0 01-3.47 1.71c.48 2.49 4.54 3.39 4.35 5.92-.12 1.54-2.92 4.36-7.45-.86l-.2 1.36c-5.47-1.17-4-4.76-2.5-5a8.92 8.92 0 01-3.21-4.66c-3.13 5.6 3.05 9.06 4.06 10.46s1 3.42-.4 4.13l-3-1.72c2 2.17-4 5.69-4.89-.69l-1.53.64a1870.16 1870.16 0 014.44 228 14 14 0 017.05 1.36c2.07-2 4.41-2.91 6.84-1.84a32.88 32.88 0 01-2.9 5.07c4.25 5.43 4.5 15.23-2 27.3 8.55 9.39 12.71 21.81 8.27 40.15 23.28-14.8 46.52-22.23 69.73-18.56 4.84-6.55 7.84-15.51 9.45-26.31 9-7 14.28-7.49 18.65-5.92l3.21-3.68c-6.57-6.61-15.6-11.47-25.59-15.63 10.5 1.73 20.28 4.73 28.3 10.91-1.1-8 6.36-14.65 16.73-20.8-17.55-17.48-42.15-33.61-72.64-48.61 3.63-4.54 42.74 14.7 67.42 31.78 4.21-8.19 20-11.29 21.22-14.07.2-16.11 3.35-31 16-41.92 6.89 11.56 15.77 19.69 27.77 22.44a262.46 262.46 0 0139.36-2.87 79.82 79.82 0 01-17-15.8l-4.06 1.55c-.21-2.74-.37-5.45-.49-8.15-12.31-20.44-12.73-46.25-22.23-87.55-3.34-14.51-7.67-18.84-23.4-22.84a553.22 553.22 0 00-74-13.55 90.7 90.7 0 0162.9 4.13 59.35 59.35 0 00-19-38.13 77.18 77.18 0 0145.92 45.33c1.56-12.07 1-38-6.06-47-4.21-5.35-7.75-5.9-58.58-26.19-18.28-7.3-14.2-12-23.42-21.26-9-8.95-35.11-13-32.24-30.07 39.45 24.64 53.51 26.89 62.2 29-29.09-18.56-55.09-28.59-63.82-29.67-9.21-1.15-18.31 2.11-27.42 3.89a87.89 87.89 0 01-49.92-5.24c2.51 21.61 4.66 42.26 6.49 62.07a17.21 17.21 0 014 1.4zm68.08 120c1-.64 3.84.18 3.84-1.58 0-.88-1.22-1.46-1.07-2.33.54-3.21 5 4.14 14.46 4.05-3.23-3.57-4.52-1.94-5.61-1.7-2 .45-4.09-2.81-.91-5.53a5.8 5.8 0 01-5-4.84c4.82-.5 6.75 3.06 8 3.41 3 .84 4.23-2.26 3.24 3.8 4.49 1.79 3.34 2.5 3.85-2.92.09-1.06-.12-1.45-1.35-1.7-6.91-1.37-8.49-8.3 1.26-3.74a2.21 2.21 0 013.35-2.86l.36 2.5c.71-4.37 6.51-2.75 5.25.38-.63 1.57-6.56 3.65-5.4 10 7.68-6.32 2.58-1.58 4.32-8.27 2.91 2.61 6.8-.47 8-.71 2.81-.55 3.12 2.77-.37 3.8.55 1.69 1.09 1.65 1.63 3.34a8.27 8.27 0 00-7.23 3.93c1.46-.58 9-4.36 10.57-4.12s3 1.63 2.78 3.18a3.54 3.54 0 00-2.82 1.84 4.76 4.76 0 013.75 2.1c-4.27 1.18-7 1-1.7 4.05 3.33 1.9 1.78 6.06-2.59 1.54-3.53-3.65-2.87-5.31-13.24-4.46 6.19 5.07 4.81 4.45 7.69 3.23.79-.33 3.13-.18 2.72.57a3.5 3.5 0 01-3.47 1.71c.47 2.49 4.53 3.39 4.34 5.92-.11 1.54-2.92 4.36-7.45-.86l-.2 1.36c-5.47-1.17-4-4.76-2.49-5a8.86 8.86 0 01-3.21-4.66c-3.13 5.6 3.05 9.06 4.06 10.46s1 3.42-.41 4.12l-3-1.71c2 2.17-4 5.69-4.88-.69-16 6.81 4.23-5 .85-9.95-2.54.85-4.57-.67-4.57 6-2.82.57-3.48-2.62-6.41 1.06a3.17 3.17 0 01-5.11-.53c-.85-1.87 1.13-4.34 3.11-3.81-1.5-2.39-1.45-4.31 2.12-3.24 3.3 1 9.43-7.61-4.32-.73-2.21 1.11-3.08 2.29-5.47 1.69a4.51 4.51 0 012.76-3.89c-5.67-.11-5.16-3.49-4.03-4.24zm-27.84 126.38c.76-.47 2.87.14 2.87-1.17 0-.66-.91-1.1-.8-1.74.4-2.4 3.72 3.09 10.79 3-2.41-2.66-3.38-1.45-4.19-1.27-1.52.34-3.05-2.09-.68-4.13a4.31 4.31 0 01-3.76-3.61c3.6-.37 5 2.28 6 2.55 2.23.62 3.16-1.69 2.42 2.84 3.34 1.33 2.49 1.86 2.87-2.19.07-.78-.09-1.08-1-1.26-5.15-1-6.33-6.19.94-2.79a1.65 1.65 0 012.51-2.14l.26 1.87c.53-3.27 4.86-2.06 3.92.28-.47 1.17-4.89 2.72-4 7.48l3.31-2.73a5.93 5.93 0 01-.09-3.44c2.17 1.94 5.07-.36 6-.53 2.09-.41 2.32 2.07-.28 2.83.4 1.26.81 1.23 1.21 2.49a6.18 6.18 0 00-5.39 2.93c1.77-.7 10.83-5.8 10-.7a2.72 2.72 0 00-2.11 1.37 3.57 3.57 0 012.8 1.57c-3.17.88-5.21.76-1.26 3 2.48 1.43 1.32 4.53-1.94 1.16-2.71-2.81-2.21-4-9.87-3.33 4.64 3.81 3.6 3.31 5.73 2.41.59-.25 2.34-.13 2 .43a2.61 2.61 0 01-2.59 1.27c.35 1.86 3.38 2.53 3.24 4.41-.08 1.15-2.18 3.26-5.56-.63l-.15 1c-4-.86-3.05-3.54-1.86-3.71a6.62 6.62 0 01-2.39-3.48c-3.14 5.61 7.06 8.71 2.72 10.89l-2.33-1.23c1.48 1.61-3 4.23-3.64-.52-12.36 5.25 3.21-3.69.64-7.42-3 1-3.42 0-3.42 4.44-2.1.42-2.59-2-4.78.79a2.36 2.36 0 01-3.81-.4 2.14 2.14 0 012.32-2.84c-1.11-1.77-1.1-3.22 1.58-2.42 2.46.74 7-5.68-3.22-.54-7.19 3.59-3.25-1.15-2-1.64-4.24-.06-3.85-2.62-3.01-3.15zM637 234.65a34.67 34.67 0 01-3.41 1c-3.28 8.3-6.33 16.62-8.39 22.41 7.85-7.81 16.54-16.51 11.8-23.41zm546.16 356.02l-.08.06zM963 8.76c-9 10.1-12.22 21.56-12.42 33.77 16.73-5.78 29.65-10.94 41.09-11.49 10.39-.51 20.5 1.88 30.58 4.69 4.63-7.74 9.75-16 15.47-24.86a117.8 117.8 0 01-3.5 28.24c7.54 2.06 15.11 3.81 22.85 4.25a97.82 97.82 0 0019-1.13c-.94-8-1.93-16.49-3-25.62a15.93 15.93 0 015.38 17.55c14.35-21.45 41-34.06 66.65-31.61a271.42 271.42 0 00-17.77 32.83c21.74-.17 45 5.82 69.41 29.08-7.71-22.7-13.93-43.69-18-64.52H956.91a51.33 51.33 0 01-3.51 15.63zM628.35 265.82l6.81.82a21.74 21.74 0 01-.64-3.16c-2.03.86-4.09 1.63-6.17 2.34zM824.93 33.11c13.82-4.87 29 10.06 21.9 26.22 8.77.23 17 .08 24.8-.36a278.11 278.11 0 00-17.17-29.87c17.71-3 27.37 12.59 33.54 28.44a269.24 269.24 0 0049.82-10.79c-.6-13.33-.92-28.75-.67-46.81h-2.95c0 23.72-35.9 23.72-35.9 0h-92.24v.79c11.37 7.19 16.21 19.43 18.87 32.38zm357.71 558.02l-.52.44zM954.81 773.47l-.28.63z" fill="#91a5a4"/><path d="M594.62 379.4A287.89 287.89 0 00565 355c5.48 7.86 11.29 19.41 29.62 24.4zm35.24-338.73A197.17 197.17 0 00673.56 14c-10.06 21.8-32.47 35.38-45.09 55.8-18.19 29.42-14.75 70.6-39.47 94.81-8.77 8.59-41.47 26.19-30.3 47.32 2 3.88 10.78 9.87 19.45 19.57a13 13 0 017-7c-16.76-.24-14.76-10.22-11.55-12.22 2.95-1.84 11.12.52 11.11-4.57 0-2.54-3.53-4.24-3.1-6.75 1.56-9.32 14.46 12 41.91 11.73-9.4-10.37-13.14-5.62-16.26-4.93-5.84 1.29-11.94-8-2.65-16a16.76 16.76 0 01-14.59-14c14-1.44 19.52 8.84 23.27 9.89s9.28-1.85 10.93 1.69l-1.52 9.31 10 4c1.4-15.12 2.63-16.31-2.76-17.38-15.15-3-17.49-10.69-15.11-15.62a52 52 0 0118.77 4.79c-4.82-6.32 4.23-14 9.72-8.3l1 7.25c2.08-12.79 18.8-7.81 15.22 1.09-1.83 4.56-19 10.59-15.67 29.05 2.69-2.21 4.83-4 6.53-5.34a70.18 70.18 0 005.09-9.12c-.37-1.71-.4-4.49.9-9.51a12.06 12.06 0 002.52 1.75c5.07-12.11 9.66-24.51 20.25-31.68l11.94 3.47a37.76 37.76 0 00-22.39 28.9c4.8-1.27 9-4.08 10.91-4.45 3-.58 6.74 1.2 6.6 4.21a12.18 12.18 0 01-7.67 6.79c1.57 4.89 3.14 4.79 4.7 9.68-8.75.11-17 4.3-20.92 11.38 4.22-1.68 26.13-12.62 30.62-11.93s8.8 4.74 8 9.21a10.35 10.35 0 00-8.16 5.32 13.92 13.92 0 0110.88 6.09l-8.56 2.37q9.95 8.61 19.2 18c6.69-6.74 13.65-13.21 20.91-19.34-.87 11.07-4.84 21-10.36 30.49a345 345 0 0131.34 40.31C752.66 193.44 747.38 78 739-.06h-38c-2.78 15.48-26.34 15.48-29.12 0h-37.09c-6.3 15.14-8.79 28.11-4.93 40.73zm103.36 123.57c0 9.81-14.84 9.81-14.84 0s14.84-9.81 14.84 0zM711.4 122.5c0 9.81-14.85 9.81-14.85 0s14.85-9.82 14.85 0zm284.21 56.09a12.27 12.27 0 01-4.9 8.1 50.54 50.54 0 019.66 32.29l13.73-10.72c.22-1 .69-1.26 1.42-1.12l7.48-5.83a9.75 9.75 0 01-4-6.47 12.86 12.86 0 019.19 2.43l4.25-3.33c-9.7-19.88 2.26-47.1 23.47-53.44a57.42 57.42 0 00.66 39.86l24.6-16.7c8.65-5.87 9.28-3.32 2.22-61.15q-38.78.4-78.27 2.13c-12 21.09-27.21 45.81-45.62 76.8zM1251.45 668c-.24.77-.49 1.54-.73 2.31.28-.74.49-1.51.73-2.31zM893.7 112q-20.9 1.81-42 4c9.8 16.67 23.92 39.2 44.72 73.11 12.23-13.54 7.88-44.71-2.72-77.11zm-76.42 149.14a143.55 143.55 0 01-19.93-25.47q-.39 17.6-.52 34.65a27.43 27.43 0 0020.45-9.18zM879.14 216l-5.62-10a17.68 17.68 0 01.19 2.47c0 19.33-29.25 19.33-29.25 0 0-14.13 15.62-17.92 24-11.39-24.23-42.92-36.5-64.36-43.43-78.22q-11.22 1.26-22.48 2.61-2.76 39.51-4.12 77c19 21.82 27.35 67.07 30.88 93A299.94 299.94 0 01879.14 216zm27.69-55.26c13.81 4 28.25-7.23 33.26-20.69 3.5-9.41 3.69-18.76 2.67-31.89q-19.23 1.32-38.63 3c3.52 16.38 5.12 32.99 2.7 49.58zM490 299.13a108.09 108.09 0 01-55.56-37.41c-9.29 8.83-21.51 9.85-31.1 6.93q1.94 14.76 3.67 29a288.52 288.52 0 0082.99 1.48zm692.11 292.45c-2.44 2-5.49 3.66-9.73 6.06 4.23-2.39 7.28-4.06 9.73-6.06zM959.16 147.89c11.29-9.23 16.83-21.54 26.48-42.32q-11.88.62-23.83 1.35c2.3 14.25 2.65 28.18-2.65 40.97zm291.29 523.29l-.87 2.68zm-494.2-337.25c4.71-20.69-7.35-33.3-22.84-49.05a43 43 0 01-5.88 19.83 275.7 275.7 0 0028.72 29.22zm308.51 377.78c-27.55 24.75-42.5 44.77-50.61 62.2 8.18-17.48 23.14-37.52 50.61-62.2zM737.07 415.73a19.27 19.27 0 017.27-1.76 66 66 0 0115-33.87q-.32-9.71-.66-20.18c-10.76-14.86-31.63-21.55-39.12-38.39a41.2 41.2 0 01-1.6-4.19c-10.9 11.43-25.32 20-35.57 26.17-12.67 7.59-16.64 11.66-20 26.53a168.59 168.59 0 00.2 75c7.56 3.77 15.32-5.14 17.85-13.19s4.67-18 12.68-20.72a181.28 181.28 0 00-8.34 40.05C696 444.53 709.57 439 726 434.79c.59-8.29 3.66-15.6 11.07-19.06zm516.27 246.14l-.06.2zM807.43 304.59q2.27-7.92 3.87-16c2.16-10.83-7.85-10.95-14.5-12.93q-.13 22.55.14 44.13a124.29 124.29 0 019.33-14.26c.38-.33.78-.62 1.16-.94zm444.98 360.34c-.14.47-.29 1-.44 1.42.15-.47.3-.95.44-1.42z" fill="#91a5a4"/><path d="M691.26 234.46c-10.14-10.46-8.26-15.39-38.35-12.92 17.89 14.66 13.89 12.89 22.27 9.36 2.29-1 9.07-.52 7.87 1.65a10.07 10.07 0 01-10.05 4.94c1.38 7.22 13.15 9.82 12.6 17.15-.33 4.4-8.42 12.69-21.59-2.48l-.58 3.93c-15.85-3.38-11.67-13.78-7.23-14.38a25.89 25.89 0 01-9.29-13.51c-9.08 16.23 8.84 26.24 11.75 30.31 2.65 3.7 2.9 9.9-1.17 11.94l-8.81-5c4.34 4.75-4.58 11.74-10.24 6.83a4.34 4.34 0 01-1.09 1.27c-4.54 3.52-15.11 1.36-10.29 22.31a227.35 227.35 0 011.85 92.5 331.67 331.67 0 0159.17-119.9l-1.6-1.44c.72.26 1.41.53 2.1.81q7.36-9.44 15.41-18.34c-2-3.24-3.89-6.66-5.66-10.3a18.51 18.51 0 01-7.07-4.73zm264.93 536.06c-.27.54-.53 1.09-.79 1.64.26-.55.52-1.1.79-1.64z" fill="#91a5a4"/><path d="M424.63 408.71l3 1.72c1.4-.71 1.31-2.85.4-4.13s-7.19-4.86-4.06-10.46a8.92 8.92 0 003.21 4.66c-1.53.21-3 3.8 2.5 5l.2-1.36c4.53 5.22 7.33 2.4 7.45.86.19-2.53-3.87-3.43-4.35-5.92a3.49 3.49 0 003.47-1.71c.42-.75-1.92-.9-2.72-.57-2.88 1.22-1.49 1.85-7.68-3.23 10.36-.85 9.71.81 13.23 4.46 4.38 4.52 5.92.36 2.6-1.54-5.27-3-2.58-2.87 1.7-4a4.8 4.8 0 00-3.76-2.1 3.58 3.58 0 012.82-1.84c.26-1.54-1.22-2.94-2.77-3.18s-9.11 3.54-10.57 4.12a8.26 8.26 0 017.22-3.93c-.54-1.69-1.08-1.65-1.62-3.34 3.48-1 3.18-4.34.37-3.8-1.21.24-5.1 3.32-8 .71-1.73 6.69 3.37 1.95-4.32 8.27-1.15-6.37 4.78-8.45 5.41-10 1.26-3.13-4.54-4.75-5.25-.38l-.36-2.5a2.21 2.21 0 00-3.36 2.86 17.21 17.21 0 00-4-1.4c.13 1.47.26 2.93.4 4.39a10.2 10.2 0 002.34.75c1.23.25 1.45.64 1.35 1.7-.47 5.13.52 4.77-3.19 3.19q.57 6.52 1.1 12.94c.82-.51 1.94-.37 3.18-.78 1.2 1.75-.61 4.38-2.7 6.73.11 1.29.21 2.57.31 3.86l1.53-.64c.89 6.28 6.89 2.76 4.92.59z" fill="#e5e5e5"/><path d="M1042.63 545.21l-6.56-4.72-15.89 15.34-5.32-12.39-5.86 28.33-6.5-17.71c-10.63 6.74-19.57 21.05-27.18 41.33l-9.46-34.24c-11.32 5.58-16.32 21.56-18.31 42.5-11.62-4-22.75-18.68-33.68-37.78l-7.1 29.52-26.59-24.8c-6.9 7-6.74 15.46 1.19 25.39-24.3 3.81-44.37-1.5-59.09-18.3a77.78 77.78 0 01-8.44 14.77c0 .25.05.49.07.74q56.13 31.41 146 20.9l-1.55 1.19c36.44-8.81 68.96-24.06 84.27-70.07z" fill="#fefefe"/><path d="M811.3 288.58q-1.6 8.09-3.87 16c16-13.07 36-18.33 57.3-20.71-2.6-.61-5.13-1.32-7.57-2.14.38-9.39 10.26-15.68 19.54-17.15s18.92.11 28.1-1.92 18.43-9.75 17.13-19.06l-42.88 7.11c79.33-70.07 61.33-60.29 94.76-59.25a29.82 29.82 0 0013.32-2.61c-7.57 10.87-2.06 27.92-5.26 41.72-3.13 13.54-14.32 22.68-24.78 32.42a86.53 86.53 0 0137.85-1.25c14.68-13.45 43.6 7.57 99.66-10.18-13.85-1.43-25.26-2.52-34.73-3.44a3.21 3.21 0 01-1.25 1.17l-2.78-1.57-1.78-.18c.71 3.37-6.73 7-8.66-.89l-3-.34c-9.44 3.85-9.08 2.6-6-.72-16.38-2.14-21.91-4.42-26.44-10.42a86.45 86.45 0 019.17-8.27c-3 1.46-5.71 2.54-7.74 2a7.64 7.64 0 014.7-6.62c-9.85-.14-8.67-6-6.79-7.18s6.54.3 6.53-2.68c0-1.5-2.07-2.5-1.82-4a1.32 1.32 0 01.05-.23L1000.37 219a50.54 50.54 0 00-9.66-32.29 12.27 12.27 0 004.9-8.1l-36.12 2.85c18.41-31 33.64-55.71 45.62-76.8q-9.71.44-19.47.93c-9.65 20.78-15.19 33.09-26.48 42.32 5.3-12.79 5-26.72 2.65-41q-9.51.58-19 1.24c1 13.13.83 22.48-2.67 31.89-5 13.46-19.45 24.66-33.26 20.69 2.42-16.59.82-33.2-2.7-49.63-3.48.29-7 .58-10.43.89 10.6 32.4 14.95 63.57 2.77 77.11-20.8-33.91-34.92-56.44-44.72-73.11q-13.31 1.36-26.69 2.87c6.93 13.86 19.2 35.3 43.43 78.22a13.36 13.36 0 015 8.92l5.62 10a299.94 299.94 0 00-49.8 75.49c-3.53-26-11.88-71.22-30.88-93q-.71 18.9-1.11 37.24a143.55 143.55 0 0019.93 25.47 27.43 27.43 0 01-20.45 9.18v5.33c6.6 1.92 16.61 2.04 14.45 12.87zM937.82 46.75c4.51-1.4 8.77-2.83 12.8-4.22.2-12.21 3.38-23.67 12.38-33.77l-9.64 6.81a51.33 51.33 0 003.55-15.63h-19.76c-.25 18.06.07 33.48.67 46.81zM758.66 359.92c-.71-21.4-1.52-45-2.43-69.86a345 345 0 00-31.34-40.31 161.94 161.94 0 01-10.08 15c4.44 5.45 9 10.34 13.44 14.9q2.12-2.81 4.13-5.68a42.7 42.7 0 011 10.95c15.49 15.75 27.55 28.36 22.84 49.05a275.7 275.7 0 01-28.72-29.22 65.57 65.57 0 01-9.59 12.63 41.2 41.2 0 001.6 4.19c7.49 16.8 28.39 23.49 39.15 38.35z" fill="#547473"/><path d="M1037.73 214.4c-4.84-4.79-6.88-2.3-8.61-1.92-3.43.76-7-4.72-1.56-9.41a9.44 9.44 0 01-4.56-1.76l-7.48 5.83c2.81.54 9.47 7.38 20.74 8.16zm-342.59 6.22l-3.79 1.06c.49 1.57 1 3.12 1.55 4.63a37.66 37.66 0 005.88 3.67c3.51 2 6.86 6.6 4.29 9.73a9.93 9.93 0 01-4.75-.48c1.77 3.64 3.67 7.06 5.66 10.3q5.06-5.59 10.36-10.93-9.24-9.36-19.2-17.98zm386.02-56.96l-24.6 16.7a57.42 57.42 0 01-.66-39.86c-21.21 6.34-33.17 33.56-23.47 53.44l-4.25 3.33c2.06 1.46 3.41 3.08 4.48 3.38 2.22.62 5.45-1.09 6.42 1l-.89 5.47c7.63 3 5.69 4.25 6.54-5 .17-1.79-.2-2.46-2.29-2.88-8.9-1.76-10.28-6.29-8.88-9.18a30.81 30.81 0 0111 2.81c-2.83-3.71 2.48-8.24 5.71-4.87l.6 4.26c1.21-7.45 11.09-4.69 8.95.64-1 2.38-9 5.45-9.44 13.72q3.6-2.26 7.17-4.69c-.31-.94-.48-2.6.41-6.05a6.89 6.89 0 005.66 1.71c14.69-11 28.34-25.74 37.32-50.5 10.45 1.48 18.92 11.64 18.48 22.18-.26 6.24-3.22 12.5-1.59 18.54s12 8.86 13.39 2.76c-5.77-10.26 4.55-24.09-.89-34.53-4.15-8-14.9-9.31-22-14.78-8.5-6.55-10.75-19.89-4.87-28.86 4.21 11.7 17.09 19.61 29.44 18.09 3-.37 6.11-1.23 9-.35 4.45 1.35 7.5 6.51 12.14 6.35-6-4.79-3-16.36 4.52-17.7a34.82 34.82 0 0011.68 12.21 30 30 0 0117.39-25.79c-39.17 7.36-73.17 18.76-78.07-2.77q-13.05 0-26.18.11c7.06 57.79 6.43 55.24-2.22 61.11zm64.02-161.11c-25.7-2.45-52.3 10.16-66.65 31.61a15.93 15.93 0 00-5.38-17.55c1 9.13 2 17.65 3 25.62 15.8-2.22 33-6.71 51.29-6.85a271.42 271.42 0 0117.74-32.83zM704.31 278.2l-2.85 3.62c5.85 6.59 9.13 11.81 11.15 16.35q2.52-2.66 4.95-5.41a153.46 153.46 0 00-13.25-14.56zM822.58 34.13a17.22 17.22 0 012.35-1c-2.66-12.97-7.5-25.21-18.93-32.4 4.09 12.89 5 26.36 5.33 40 3.76-1.2 7.54-4.64 11.25-6.6zm31.88-5.03A278.11 278.11 0 01871.63 59q8.57-.49 16.37-1.43c-6.17-15.88-15.83-31.46-33.54-28.47zM688.07 268.5l.5-.63c-.69-.28-1.38-.55-2.1-.81zm349.69-257.63a841.828 841.828 0 00-15.47 24.86c4 1.11 8 2.29 12 3.38a117.8 117.8 0 003.47-28.24z" fill="#547473"/><path d="M1127.41 35.38c-18.3.14-35.49 4.63-51.29 6.85a97.82 97.82 0 01-19 1.13c-7.74-.44-15.31-2.19-22.85-4.25-4-1.09-8-2.27-12-3.38-10.08-2.81-20.19-5.2-30.58-4.69-11.44.55-24.36 5.71-41.09 11.49-4 1.39-8.29 2.82-12.8 4.22A269.24 269.24 0 01888 57.54q-7.82.93-16.37 1.43c-7.78.44-16 .59-24.8.36 7.1-16.16-8.08-31.09-21.9-26.22a17.22 17.22 0 00-2.35 1c-3.71 2-7.49 5.4-11.23 6.58a6.78 6.78 0 01-5.56-.4c-.48 1.52-1.1 3.75-1.76 6.42l-1.45 33.59c145-7.37 280.36-11.39 396.68-8.74-.83-2.39-1.64-4.75-2.44-7.1-24.38-23.26-47.67-29.25-69.41-29.08z" fill="#fefefe"/><path d="M668.71 182a37.76 37.76 0 0122.42-28.86l-11.94-3.47c-10.59 7.17-15.18 19.57-20.25 31.68a13.34 13.34 0 009.77.65zm-13.19 7.06a70.18 70.18 0 01-5.09 9.12c8.81-7.18 5.97-5.02 5.09-9.12z" fill="#547473"/><path d="M590.57 118.17l-52.91 69c-9.11-30.23 8.51-36.3 23.28-48.18 8.28-6.65 15.23-18.22 10-27.46a44.23 44.23 0 01-28.24 27.37C542 34 588 56 599.08 33.49c-28-3.33-53 20.24-63.65 46.37s-11.28 55.14-17.26 82.66a336.17 336.17 0 00-30.29-30.34q-13 19.57-27 38.46c18.28 18.66 45.45 15.26-6.37 12.42-3 7.2 5.85 14.23 13.66 14.42s15.52-3.18 23.26-2.12c13.84 1.88 19.29 11.93 60.39 64.75a49.67 49.67 0 00-45.5-18.86 122 122 0 0047.84 34.48c14.84 5.92 11.94 3.5 18.8 56.23a65.13 65.13 0 00-43-26.08 48.91 48.91 0 005.6-17.09 47.69 47.69 0 01-26.1-28.8c-4.79 9.61-.54 22.67 9 27.62 3.17 1.65 6.88 2.55 9.32 5.17s2.33 7.92-1.12 8.84c-64.22-53.45-97.74-73.71-83.69-101.59-2.71 2-7.67 5.93-13.53 10.76q-14.3 17.21-29.34 33.78 1.68 12.23 3.24 24.08c9.59 2.92 21.81 1.9 31.1-6.93A108.09 108.09 0 00490 299.13a288.52 288.52 0 01-83-1.51q1 8.19 1.92 16.19a87.89 87.89 0 0049.92 5.24c9.11-1.78 18.21-5 27.42-3.89C495 316.24 521 326.27 550 344.82c-8.69-2.07-22.75-4.32-62.2-29-2.8 17.12 23.31 21.18 32.27 30.11 9.22 9.22 5.14 14 23.42 21.26 50.83 20.29 54.37 20.84 58.58 26.19 7.08 9 7.62 34.94 6.06 47a77.18 77.18 0 00-45.92-45.33 59.35 59.35 0 0119 38.13 90.7 90.7 0 00-62.9-4.13 553.22 553.22 0 0174 13.55c15.73 4 20.06 8.33 23.4 22.84 9.5 41.3 9.92 67.11 22.23 87.55-1.82-42 7.8-78.68 46.79-101.83a181.28 181.28 0 018.34-40.05c-8 2.69-10.15 12.66-12.68 20.72s-10.29 17-17.85 13.19a168.59 168.59 0 01-.2-75c3.36-14.87 7.33-18.94 20-26.53 10.25-6.15 24.67-14.74 35.57-26.17a65.57 65.57 0 009.59-12.63 41.79 41.79 0 004.85-30.78q-2 2.88-4.13 5.68c-3.39 4.52-7 8.92-10.69 13.15q-2.43 2.76-4.95 5.41a211.39 211.39 0 01-36.85 31c3.43-17.75 14.22-32.73 25.7-47.36l2.85-3.62c3.55-4.49 7.11-9 10.5-13.49a161.94 161.94 0 0010.08-15c5.52-9.45 9.49-19.42 10.36-30.49-7.26 6.13-14.22 12.6-20.91 19.34q-5.31 5.41-10.31 11-8 8.88-15.41 18.34l-.5.63a331.67 331.67 0 00-59.19 119.9 227.35 227.35 0 00-1.85-92.5c-4.82-20.95 5.75-18.79 10.29-22.31a4.34 4.34 0 001.09-1.27 11.32 11.32 0 01-3.27-5.68l-6.81-.82a87 87 0 01-12.7 3.25c1.61-3.18 5.47-7 9.55-11 2.06-5.79 5.11-14.11 8.39-22.41a24.24 24.24 0 01-5.92.47c-4 9.28-3.93 2.84-3.93 15.82-4.85 1-10.29-3.61-14.48-1.61-3 12-5.27 24.51-11.8 34.7a71.5 71.5 0 00-3.87-28.16 7.44 7.44 0 01-3.23-3.4 7 7 0 01-.29-4.76 76.31 76.31 0 00-8.4-13 9.89 9.89 0 01-4.51.1 12.1 12.1 0 011-4.27c-8.67-9.7-17.4-15.69-19.45-19.57-11.17-21.13 21.53-38.73 30.3-47.32 24.72-24.21 21.28-65.39 39.47-94.81 12.62-20.42 35-34 45.09-55.8a197.17 197.17 0 01-43.7 26.64c-3.87-12.64-1.38-25.61 4.92-40.75h-14c-4.48 5.15-6.52 8.61-8 13-10.7 31.85 27.55 40.3-22.22 105.23zm4 261.23c-18.33-5-24.14-16.54-29.61-24.41a287.89 287.89 0 0129.66 24.41zm159.99 114.16l3.56-1.22c-.21-.95-.41-1.9-.6-2.86a8.44 8.44 0 00-2.96 4.08zm4.51 2.79c-4.59 20-14.17 38.73-30.59 51.28q-3.09-1.65-6-3.62a247.83 247.83 0 00-4.6 25.99c.26.93.21 1.58-.24 1.82.07-.61.16-1.21.24-1.82-1.75-6.21-17.61-25.14-20.92-21.79-1.25 1.26-10.64 23.61-10.64 23.61l-8.86-10-11.82 5.31-2.36-15.35-20.76 7.9a79.82 79.82 0 0017 15.8c43.83.33 75 13.93 97.73 36.52h21.18a239 239 0 0022.2-21.17l-3.69-22.52c-18.48-21.45-31.29-45.31-37.87-71.96zm54.36 96.59l.43.25c0-.25 0-.49-.07-.74zm-54.77-233.02q.35 10.47.66 20.18c6.86-8.35 15.53-15.49 25.09-22a101.32 101.32 0 0112.53-38.28q-.26-21.58-.14-44.13v-5.33q.13-17.07.52-34.65.4-18.33 1.11-37.24 1.39-37.43 4.12-76.95 11.26-1.35 22.48-2.61 13.38-1.5 26.69-2.87 21.06-2.18 42-4c3.48-.31 6.95-.6 10.43-.89q19.39-1.62 38.63-3 9.54-.66 19-1.24 11.94-.73 23.83-1.35 9.76-.51 19.47-.93 39.5-1.73 78.27-2.13 13.14-.14 26.18-.11 51.45.07 101.61 2.59c-.71-2.06-1.42-4.11-2.15-6.11-3.44-9.44-6.7-18.52-9.76-27.32-116.32-2.65-251.71 1.37-396.68 8.74L804 46.73l2-46v-.79h-67c8.35 78.07 13.63 193.5 17.2 290.12.94 24.85 1.8 48.46 2.46 69.86z" fill="#547473"/><path d="M1270.26 646.17c-.06 1.36-.13 2.72-.19 4.08.07-1.45.14-2.81.19-4.08zm-10.37 93.22c1.41-8.84 2.69-17.7 3.84-26.31q-1.92 13.2-4.13 26.35zM422.65 636.7a25.16 25.16 0 00-11.09 3.56c-6.06-6.43-12.41-10.07-19.09-10.64-.29-5-.7-9.57-1.09-10.52-4 1-4.92 5.66-4.38 10.74a32.29 32.29 0 00-13.85 6.29c-5.58-2-10.08-1.83-13.71.06-1.64-4.55-3.26-8.62-3.88-9.4-3.95 2.28-3 7.84-.52 13a29 29 0 00-4.94 9.31c-4.74-2.67-9.1-4.46-12.13-3.08l-23.53-34.22q-.7-8.47-1.37-16.91c23.55-7 41.54-23.19 52.55-50.74 2.54-6.35 1.43-13.84-5.78-19.64v-.06l-1.39-1-52.07-36.33q-1.56-37.11-1.84-72.72v-23.65q.21-28 1.38-54.75a1059.73 1059.73 0 0094.15-91.43q1.69 12.23 3.24 24.08 1.94 14.76 3.66 29 1 8.19 1.93 16.19a2598.522 2598.522 0 016.88 66.47l.51 5.64q.57 6.52 1.1 12.93l.48 6 .3 3.85c6.97 88.96 7.2 160.83 4.48 227.97zm776.61-565.14c3.06 8.8 6.32 17.88 9.76 27.32.73 2 1.44 4.05 2.15 6.11 10.79 31.57 19 70.59 25.33 114.09 3.08-.51 9.94-1.66 11.76-2.11 2.36-.59-1.77 13.58-1.77 13.58h24.22c-7.51 18.45-15.6 36.45-26.71 51.74 9 92.82 11.44 197.64 11.57 291.38l.08.06c9 7.54 9.31 4.39 20.88 25.12a208.41 208.41 0 019.47 19.25c-1.27-143.53-1.51-277.08 4.94-338.6q14.88-141.85 5.94-279.56h-118.03c4 20.83 10.26 41.82 18 64.52.77 2.35 1.58 4.71 2.41 7.1z" fill="#443321"/><path d="M338 646c-1.85.84-3.2 2.87-3.82 6.62-5.94-13.07-14.09-17.9-24.2-15.47-5-5.89-12.6-10.63-15.18-10.18-.65.11 4.23 6.36 9.23 12.32a63.08 63.08 0 00-13.57 9.2c-9.61-.12-16.8 1.06-21.49 3.58-4.41-3.88-9.3-6.55-11.26-6.21-.55.1 2.89 4.63 7 9.64-2.08 2.62-2.78 6-2.05 10.11-10.46 5.45-15.76 11.94-17 19.24-4.25-.9-8-1-9.26-.09-.43.3 3.79 2.61 9 5.22.39 5.84 3 12.11 7.23 18.73-4.43 4.85-7 9.39-7.55 13.61-7 2.26-13.66 6.82-14.28 9.2-.16.63 7.39-1.18 14.81-3.24 1.73 5.05 6.78 9.56 15.29 13.49 27.35 9.4 37.46 23.89 50.44 38.14H0v-93.12c57.33 10.67 99.79-4.79 135.06-32.87 70.89 12.29 116.61-11.27 148.32-54.8a108.16 108.16 0 0029.66-4.22q.68 8.43 1.37 16.91zm-76.42-290l-.14.13h.06zm43 34.75q.19-28 1.38-54.75-41 35.26-85.26 66.55c4.15-3.64 8-7.3 11.52-11-8.77 6.58-18.76 14.15-30.06 22.86l104.25 72.73q-1.56-37.11-1.83-72.72-.09-11.92 0-23.67zm709.57 383.16c-.95 2.05-1.81 4.05-2.58 6q1.17-3 2.59-6zm210.52-29.57c-4.44 11.86-9 23.8-13.64 35.6h.09c4.59-11.72 9.16-23.65 13.63-35.61zm-60.32 32.36c4.9-5.91 10.74-15 17-26.28-6.29 11.3-12.13 20.41-17 26.28zm-37.6-14.07c.77-.63 1.57-1.27 2.41-1.92q2.38-1.86 4.68-3.61h-.1c-2.45 1.9-4.74 3.7-6.99 5.53zm-39.75 1.06c-.68 4.6-1.27 10-1.92 16.25q1.14-8.82 2.7-16.37zm204-484.19c-6.45 61.52-6.21 195.07-4.94 338.6 1.62 3.8 3.23 7.84 4.77 12.14 20.64 57.64 6.81 64.59 6.81 90.3 0 16.4 4.86 37.13 9.07 59.4H1400v-780h-103.1q9.1 137.61-5.9 279.56zm-37.25 493.73c-.13.74-.26 1.46-.39 2.18 2.39-11.53 4.58-23.76 6.53-36h-.29c-1.88 11.3-3.86 22.59-5.85 33.82zm-907.19-78.07c.91 24.11 5.87 44.23 15.66 59.62a72.63 72.63 0 0123-24.49q-23.61-10.78-38.66-35.13z" fill="#6f553c"/><path d="M261.58 356l-.08.11c33-7.7 30.94-9.73-29.28 35.44-3.57 3.68-7.37 7.34-11.52 11Q264.8 371.29 306 336a1063.79 1063.79 0 0094.14-91.43q15-16.57 29.29-33.78 16.28-19.65 31.48-40.15 14-18.88 27-38.46a850.21 850.21 0 0072-132.24h-22.7C486.82 115 397.85 233.46 261.58 356z" fill="#b8b6b7"/><path d="M181.85 367a395.42 395.42 0 0079.59-10.85l.14-.13C397.85 233.46 486.82 115 537.23-.06h-58.12C414.78 146.83 307.85 266.5 181.85 367z" fill="#ccc"/><path d="M0 672.18c43.53 8.64 88-1.48 133.29-26 52.92-6.22 103-24.76 148.33-63 40.12-8.75 66.34-28.16 76.83-59.65.48.33.93.68 1.36 1v-.07l-53.46-37.29-104.19-72.74-3.64 2.8C127 433 61.69 417.86 2.88 369.87v-47.82c62.34 35.7 122.1 45.32 170.29 45.1C292.06 252.48 385.85 131.08 443.22-.06h-65.29c-69 99.86-170.57 182.57-276.2 251.53C203.91 170 287.45 86.4 344.69-.06H0v672.24z" fill="#ccc"/><path d="M365.62 544.16c-11 27.55-29 43.7-52.55 50.74a108.16 108.16 0 01-29.66 4.22c-31.71 43.53-77.43 67.09-148.32 54.8C99.82 682 57.36 697.46 0 686.79v-14.61c43.53 8.64 88-1.47 133.29-26 52.93-6.22 103-24.76 148.33-63 40.12-8.75 66.34-28.16 76.83-59.65.48.34.93.68 1.36 1 7.24 5.79 8.35 13.28 5.81 19.63z" fill="#b8b6b7"/><path d="M1129.43 586.56c-10.41 10.38-28.55 16.34-79.33 40.77 50.76-24.4 68.9-30.33 79.33-40.77zm18.2-75.94c-58 77.29-110.08 105.08-153.85 119.14 32.56-10.23 69.65-27.91 110.26-67.9 15.66-15.42 39.76-45.45 51.53-60.56v-.62c-2.08 2.42-4.69 5.62-7.94 9.94zm82.9-301.92l-17.13 18.9-12.4-33.06c-14.87 38.08-37 68-66.73 89.19 9.13 7 15.26 25.21 19.52 35.29a49.91 49.91 0 012.75 8.27c43.8-2.16 69.57-20.14 87.51-45 11.07-15.33 19.16-33.28 26.67-51.74h-24.22s4.13-14.17 1.77-13.58c-1.82.45-8.68 1.6-11.76 2.11l-1.52.25zM642.52 559.6l20.76-7.9 2.36 15.35 11.82-5.31 8.86 10s9.39-22.35 10.64-23.61c3.31-3.35 19.17 15.58 20.92 21.79a247.83 247.83 0 014.57-25.92c5.9-25.35 15.79-48.35 30.1-68.74a30.93 30.93 0 01-3.27-.31c-9.17-1.3-10-1.31-11.38-2.08-4.71-2.62-12.95-22.15-11.87-38.09-16.46 4.22-30.08 9.74-41.27 16.38C645.77 474.32 636.15 511 638 553c.12 2.7.28 5.41.49 8.15zm487.19 26.67l.18-.18z"/><path d="M759.6 421.16c1.95 3.64 2 17.41 1.62 28.09a40.86 40.86 0 012.57 13.88c.08 8.11-2.86 11.53-8.57 12.07q.85 7.28 2.3 14.28c.19 1 .39 1.91.6 2.86.3 1.35.62 2.68 1 4 6.58 26.64 19.39 50.51 37.85 71.88l3.69 22.52c1.11-1.2 2.21-2.4 3.3-3.63 3.08 2 6.26 4 9.52 5.82l.36-.49a77.78 77.78 0 008.44-14.77C837 594.48 857 599.79 881.32 596c-7.93-9.93-8.09-18.35-1.19-25.39l26.59 24.8 7.1-29.52c10.93 19.1 22.06 33.78 33.68 37.78 2-20.94 7-36.92 18.31-42.5l9.46 34.24c7.61-20.28 16.55-34.59 27.18-41.33l6.5 17.71 5.91-28.33 5.32 12.39 15.89-15.34 6.56 4.72c-15.31 46-47.83 61.26-84.32 70.07l-33.5 25.7c25.88-3.3 52.23-8.69 74.09-19.61 54.37-27.15 156-152.31 156-152.31 7.25-42 5.86-83.29-5-123.81-3.3 1.66-7.66 2.59-13.06 2.83-16.64.75-20.29-4.18-23.65-11.88-12.83-29.4-15.81-34.24-13.93-41.22a17 17 0 016.29-8.82 38.9 38.9 0 00-6.21 4c-17.26-11.35-39.3-14-65-10-12.84-9.71-26-15.75-39.42-18.39a86.53 86.53 0 00-37.83 1.21 117.47 117.47 0 00-21.41 7.69c-30.15-6.71-53.08-2.21-69.14 13l-1.81.2c-21.35 2.38-41.26 7.64-57.3 20.71-.38.32-.78.61-1.16.93a124.29 124.29 0 00-9.33 14.26 101.32 101.32 0 00-12.53 38.28c-9.56 6.55-18.23 13.69-25.09 22a66 66 0 00-15 33.87c6.77-.27 12.99 2.93 15.28 7.22zm51.24-73.26a28.22 28.22 0 002.77-5.78c5.38-12.49 20.49-19.91 33.68-16.54a46.62 46.62 0 01.53 17.26c6.06-1.9 13.19 3.37 13.16 9.72 8.8 1.92 14.48-10.37 23.35-11.94 6.17-1.09 13.28 3.16 18.39-.47 1.92-1.37 7.22-11 19.8-2.29 4.66 3.23 8.66 7.69 14.05 9.46 7.7-24.63 6.73-27.94 15-23.87 22.81 11.28 22.7-6.47 31.69-8.67 5.81-1.43 11.94 4.56 17.43 2.2 4.26-1.84 6.19-8.13 10.83-8.16 5.7-.05 15.34 16.24 20.46-13.63 2-11.55 8.69-11.78 17.15-4.67 37.38 31.42 53.45 40.74 47 53.72a26.7 26.7 0 01-27.61-14.79c-6 4.68-4.94 14.93-10.82 18.25-9 5.07-26.22-7.08-29.82-7.08-7.52 0-11.68 18.28-31.21 12.73a112.57 112.57 0 01-5.57 37.9c-12.71-6.19-14.8-26.57-28.5-30.09a28.52 28.52 0 01-21.45 23c-9.86 18.91-6.84 24.51-36.2-8.47-5.1 4.26-7.22 11-11.17 16.4s-12 9.17-17.06 4.81c-4.32-3.73-4.77-12.17-10.45-12.74-5.14-.52-7 4-24.41 29.56-7.63 11.19-16.88 8.1-14-5.13 14.22-65.49 3.69 1-35.43 11.9-4.38-13.21 13.34-24.76 12.45-38.64a224.45 224.45 0 00-22.21 13.91c-1.91-31.95 25.25-43.9 28.17-47.86zM717.88 570c-.08.61-.17 1.21-.24 1.82.45-.29.5-.94.24-1.82z"/><path d="M541 654.27l-3.25 3.73c3.41 1.23 6.29 3.74 10 5.48a37.53 37.53 0 00-6.75-9.21zm70.87 21.36a322 322 0 00-15.66 43 354.54 354.54 0 0115.66-43z" fill="#fff" stroke="#000" stroke-miterlimit="10" stroke-width="2.81"/><path d="M586.47 763.94L564 749.34c-29.36-3.56-48.57-35.76-54.36-59.82-23.2-3.62-46.45 3.72-69.73 18.36 4.44-18.14.27-30.42-8.27-39.71 6.48-11.94 6.24-21.64 2-27-4.11 6.36-11.15 16.13-11.44 15.29-1-2.86 2.43-13.73 7.5-18.48a14.1 14.1 0 00-7.05-1.35 25.44 25.44 0 00-11.09 3.52c-6.06-6.36-12.41-10-19.09-10.52.4 7 .54 14.73-.05 14.33-2-1.3-4.77-8-5.42-14.11a32.45 32.45 0 00-13.85 6.22c-5.58-2-10.08-1.81-13.71.06 2.42 6.65 4.89 14.36 4.2 14.14-2.08-.64-6.11-5.41-8.6-10.57a28.51 28.51 0 00-4.94 9.21c-4.74-2.64-9.1-4.41-12.13-3-1.85.83-3.2 2.84-3.82 6.55-5.94-12.93-14.09-17.71-24.2-15.3 3.5 4.11 5.67 8.79 3.77 12.62-1.06-.64-5.43-5.46-9.72-10.51a63.39 63.39 0 00-13.57 9.1c-9.61-.12-16.8 1.05-21.49 3.54 5.49 4.78 10.24 11.43 7.7 16.56-1.25-.75-7.07-7.29-11.94-13.16-2.08 2.59-2.78 5.91-2.05 10-10.46 5.39-15.76 11.81-17 19 7.9 1.65 17.69 6.15 17.49 12.85-1.56-.19-10.58-4.24-17.73-7.78.39 5.78 3 12 7.23 18.53-4.43 4.8-7 9.29-7.55 13.46 5.65-1.81 11.5-2.11 14.47 1.45-1 .7-7.43 2.67-13.94 4.45 1.73 5 6.78 9.46 15.29 13.34 27.35 9.3 37.46 23.63 50.44 37.73h296.1a130.9 130.9 0 01-20.98-14.4zm-242-94.24c-4.33 0-21-13.31-14.81-20 2.05 1.4 16.05 20 14.82 20zm17.73 83.73c-9.77-15.22-14.74-35.13-15.65-59q15 24.09 38.71 34.75a72.15 72.15 0 00-23.05 24.25z" fill="#fff" stroke="#000" stroke-miterlimit="10" stroke-width="2.79"/><path d="M757.23 611.92c-22.68-22.59-53.9-36.19-97.73-36.52a262.46 262.46 0 00-39.36 2.87c-12-2.75-20.88-10.88-27.77-22.44-12.6 10.93-15.75 25.81-16 41.92-1.24 2.78-17 5.88-21.22 14.07 11.45 7.93 19.79 15.39 20 19.79-.51 4.37-3.42 5.56-8.28 4.18-2.06-2.38-4.26-4.72-6.56-7-10.37 6.15-17.83 12.77-16.73 20.8a42.59 42.59 0 017.42 7.21c1.08 2.18-.07 4.39-3.25 6.63 3.93 1.85 8.8 2.82 16.25.44l28.36 8.26-.19.53c1.39-.94 4.42.23 19.69 3 65.08-6.77 121.78-26.21 166.54-63.71z" fill="#fff" stroke="#000" stroke-miterlimit="10" stroke-width="2.81"/><path d="M884.14 672.15zM924.81 641l33.5-25.69 1.55-1.19q-89.9 10.54-146-20.9l-.43-.25c-3.26-1.84-6.44-3.77-9.52-5.82-1.09 1.23-2.19 2.43-3.3 3.63a239 239 0 01-22.2 21.17c-44.76 37.5-101.46 56.94-166.54 63.71a354.54 354.54 0 00-15.66 43 332.24 332.24 0 00-9.75 46.76 131.6 131.6 0 0021 14.53h78.38c52.28-43.09 117.78-117.89 142.9-126.7 20.12-7.07 57.58-7.37 96.07-12.25z" fill="#990100"/><path d="M1181.37 750.42c12.93-23.14 27.81-55.48 40.14-88l.6-1.58.24-.64c10.47-27.85 19-55.63 22.75-77.62.17-1 .32-1.92.47-2.86.6-3.89 2-8.61 4.91-10.65-10.56-10-8.24-15.08-8.89-3.13.06 19.48-10.25 55.33-21.81 86.15-1.62 4.44-3.35 9.06-5.22 13.9-5.38 13.89-10.49 24.47-15.89 33.13-.91 1.53-1.79 2.91-2.61 4.08-.44.62-.89 1.24-1.34 1.85-6.68 9.37-14 16.42-22.72 23.5-11.49 9.63-23.83 17.91-34.58 25.8-1.18.89-2.37 1.79-3.58 2.72q-2.29 1.75-4.68 3.61c-.84.65-1.64 1.29-2.41 1.92-6.84 5.67-12.34 11.32-15.54 17.31h50.42c.89-1.05 1.8-2.13 2.72-3.24 4.87-5.84 10.71-14.95 17.02-26.25z" fill="#fccc82"/><path d="M1088.5 755.46c3.87-15.63 10.33-27.44 18.23-37 7.57-9.78 16.49-16.46 26.11-22.61 10.37-6.94 21.15-12.93 30.91-19.82 17.27-12.8 34.69-31.31 49.37-67.22a298.13 298.13 0 009.83-30.77c1.73-7.65 3.54-15.89 5.84-21.35 1.26-3.77 2.46-6 3.83-6.21 5.54-.81 1.13 5-8.59-22-11.58-9.72-26.77-16.14-46.09-18.75a50.52 50.52 0 01-15.45-17.61v.08c0 .9-.88 1.75-3.14 4.2-1 1.35-2.29 3-3.73 4.84-11.77 15.11-35.87 45.14-51.53 60.56-40.61 40-77.7 57.67-110.26 67.9-47.14 15.15-84.65 14.37-109.61 42.35l-.16.17-1.08 1.25c-.46.54-.91 1.09-1.36 1.66l-.62.78c-.53.69-1 1.38-1.57 2.1-.11.14-.21.29-.31.43q-.88 1.23-1.74 2.52c-6.25 9.43-9.92 20.32-15.56 30.12-19.79 34.41-58.85 49.51-94.57 68.76h125.54a23.44 23.44 0 004.88-6.73c5.66-13.05-2-26.22-.92-41.26 1-14 9.71-29.55 43.88-48.17l5.14-2.79c45.11-24.48 78.83-41.4 104.33-53.66 50.78-24.43 68.92-30.39 79.33-40.77l.28-.29.18-.18c4.59-4.75 7.69-10.47 11.57-19.24 7-15.88 12.67-39.42 23.39-53 6.27-7.91 6.61-3.29 15.39 1.18 1.69.86 22.46 7.66 22.64 5.24a211.73 211.73 0 01-12.22 57.25c-2.46 6.76-4.52 10.35-7.5 13.12l-.08.06c-.14.14-.29.27-.44.4l-.52.44c-2.45 2-5.5 3.67-9.73 6.06-25.94 14.67-44.78 39-67.21 58.57-35.06 30.68-78.72 49.8-115.88 77.9-17.67 13.36-26.81 23.71-33 36.16l-.12.25c-.27.54-.53 1.09-.79 1.64s-.39.87-.59 1.31l-.28.63c-.81 1.88-1.58 3.82-2.32 5.84h59.36c.77-2 1.63-4 2.58-6 8.11-17.43 23.06-37.45 50.61-62.2 36.3-32.6 60.21-48.78 77.42-61 10.79-7.73 19-13.95 25.65-21.27 26.54-29.26 29.39-73.28 39-95.51 2.2-5.11 4.75-9.07 8-11.44 12.67 18-11.58 61.26-19.69 77.66-14.16 28.63-33.66 55-59.82 73.78-12.6 9-42.84 23.94-68.34 53.52l-.7.83-.9 1.06a164.21 164.21 0 00-28.92 50.63h48.6c.65-6.22 1.24-11.65 1.92-16.25.45-3.06.95-5.81 1.53-8.15zm165.25 17.77c2-11.25 4-22.52 5.85-33.8q2.19-13.15 4.13-26.35c3.37-25.25 5.57-48.37 6.34-62.83.06-1.36.13-2.72.19-4.08.3-8-4.42-45.24 6.31-47.32-11.57-20.73-11.85-17.58-20.88-25.12 10 33.45 6.09 59.71-2.35 88.14l-.06.2c-.29.95-.57 1.9-.87 2.86-.14.47-.29 1-.44 1.42s-.34 1.12-.52 1.68c-.24.77-.49 1.54-.73 2.31l-.27.84-.87 2.68-.17.53c-.35 1.07-.71 2.15-1.07 3.23-7.14 21.54-15.18 44.18-23.59 66.71-4.47 12-9 23.89-13.63 35.61h41.28l1-4.53c.09-.72.22-1.41.35-2.18zm37.04-142.99c2.91 67.15-2.65 113.65-11.35 149.7h27.23c-4.21-22.27-9.07-43-9.07-59.4 0-25.71 13.83-32.66-6.81-90.3z" fill="#fccc82"/><path d="M1065.37 729.31l.9-1.06.7-.83c26.11-30.42 57.1-45.46 68.34-53.52 26.16-18.75 45.66-45.15 59.82-73.78 8.11-16.4 32.36-59.64 19.69-77.66-3.29 2.37-5.84 6.33-8 11.44-9.51 22.18-12.19 66-39 95.51-6.86 7.57-15 13.66-25.65 21.27-17.21 12.25-41.12 28.43-77.42 61-27.47 24.68-42.43 44.72-50.57 62.2q-1.43 3.06-2.59 6h24.85a164.21 164.21 0 0128.93-50.57z" fill="#ffb562"/><path d="M1126.75 762.63c2.2-1.83 4.54-3.67 7-5.52l3.68-2.73c10.75-7.89 23.09-16.17 34.58-25.8a138.07 138.07 0 0022.72-23.5c.45-.61.9-1.23 1.34-1.85.82-1.17 1.54-2.65 2.61-4.08 7.21-9.62 17.07-27 23-47 9.43-31.54 19.93-66.67 19.87-86.15 0-2.75.8-5.17.36-7.2-2.12-2.63-5.12-5.35-7-8.18-3.43-1.25-6.92 1.36-7.78 6.15-1.06 5.82-2.52 13.7-4.25 21.35-1.15 5.1-3.72 9.93-4.91 13.49-2.06 6.17-2.73 11.92-4.92 17.28-14.68 35.91-32.1 54.42-49.37 67.22-10.58 7.85-21.11 13.56-30.91 19.82-9.62 6.15-17.77 13.48-26.11 22.61-8.85 9.67-18.9 22.85-21.64 45.06-.63 5.11.76 10.49 0 16.37h26.12c3.27-5.97 8.77-11.67 15.61-17.34zm-171.94 10.84c.2-.44.39-.88.59-1.31s.52-1.1.79-1.64l.12-.25c6.21-12.57 15.33-22.82 33-36.16 37.16-28.1 80.82-47.22 115.88-77.9 22.43-19.62 41.27-43.9 67.21-58.57 4.24-2.4 7.29-4.07 9.73-6.06l.52-.44c.15-.13.3-.26.44-.4l.08-.06c3-2.77 5-6.36 7.5-13.12a211.73 211.73 0 0012.22-57.25c-.18 2.42-21-4.38-22.64-5.24-8.78-4.47-9.12-9.09-15.39-1.18-10.72 13.55-16.38 37.09-23.39 53-3.88 8.77-7 14.49-11.57 19.24l-.18.18-.28.29c-10.42 10.41-28.57 16.37-79.3 40.76-25.5 12.26-59.23 29.18-104.36 53.67l-5.14 2.79C906.49 702.39 897.8 718 896.75 732c-1.13 15 6.58 28.21.92 41.26a23.44 23.44 0 01-4.88 6.73h59.42c.74-2 1.51-4 2.32-5.84z" fill="#ffb562"/><path d="M861.74 711.18c5.64-9.8 9.31-20.69 15.56-30.12q.86-1.29 1.74-2.52c.1-.14.2-.29.31-.43.52-.72 1-1.41 1.57-2.1l.62-.78c.45-.56.9-1.12 1.36-1.66l1.08-1.25.16-.17c25-28 62.47-27.2 109.61-42.35 43.77-14.06 95.83-41.85 153.85-119.14 3.25-4.32 5.86-7.52 7.92-9.94 1.54-1.8 2.77-3.16 3.75-4.22 2.26-2.45 3.15-3.3 3.14-4.2 0-1.95-4.16-4.15-7.54-23.21 0 0-101.63 125.16-156 152.31-21.87 10.88-48.18 16.27-74.06 19.6-38.49 4.91-75.95 5.21-96.08 12.27-25.12 8.81-90.62 83.61-142.9 126.7h81.34c35.72-19.28 74.83-34.38 94.57-68.79z" fill="#ffb562"/><path d="M1290.79 630.24c-1.54-4.3-3.15-8.34-4.77-12.14a208.41 208.41 0 00-9.45-19.25c-10.73 2.08-6 39.34-6.31 47.32 0 1.27-.12 2.63-.19 4.08-.77 14.46-3 37.58-6.34 62.83-1.15 8.61-3.31 17.47-4.72 26.31-2 12.26-3.26 24.49-5.65 36l-1 4.53h27c8.78-36.03 14.34-82.53 11.43-149.68z" fill="#fbb361"/><path d="M1248.34 677.62c.36-1.08.72-2.16 1.07-3.23l.17-.53.87-2.68.27-.84c.24-.77.49-1.54.73-2.31.18-.56.35-1.12.52-1.68s.3-1 .44-1.42c.3-1 .58-1.91.87-2.86l.06-.2c8.44-28.43 12.35-54.69 2.35-88.14l-.08-.06q-2.65-2.22-5.13-4.57c-2.89 2-4.31 6.76-4.91 10.65-.15.94-.3 1.89-.47 2.86-3.76 22-12.28 49.77-22.75 77.62l-.24.64-.6 1.58c-12.31 32.45-27.16 64.79-40.12 88-6.3 11.26-12.14 20.37-17 26.28-.92 1.11-1.83 2.19-2.72 3.24H1211c4.62-11.8 9.2-23.74 13.64-35.6 8.66-23.09 16.78-45.85 23.7-66.75z" fill="#feb767"/><path d="M804.88 381.82c.89 13.88-16.83 25.43-12.45 38.64 39.12-10.92 49.65-77.39 35.43-11.9-2.87 13.23 6.38 16.32 14 5.13 17.44-25.57 19.27-30.08 24.41-29.56 5.68.57 6.13 9 10.45 12.74 5 4.36 13.11.54 17.06-4.81s6.07-12.14 11.17-16.4c29.36 33 26.34 27.38 36.2 8.47a28.52 28.52 0 0021.45-23c13.7 3.52 15.79 23.9 28.5 30.09a112.57 112.57 0 005.57-37.9c19.53 5.55 23.69-12.73 31.21-12.73 3.6 0 20.85 12.15 29.82 7.08 5.88-3.32 4.8-13.57 10.82-18.25a26.7 26.7 0 0027.61 14.79c6.41-13-9.66-22.3-47-53.72-8.46-7.11-15.17-6.88-17.15 4.67-5.12 29.87-14.76 13.58-20.46 13.63-4.64 0-6.57 6.32-10.83 8.16-5.49 2.36-11.62-3.63-17.43-2.2-9 2.2-8.88 20-31.69 8.67-8.24-4.07-7.27-.76-15 23.87-5.39-1.77-9.39-6.23-14.05-9.46-12.58-8.73-17.88.92-19.8 2.29-5.11 3.63-12.22-.62-18.39.47-8.87 1.57-14.55 13.86-23.35 11.94 0-6.35-7.1-11.62-13.16-9.72a46.62 46.62 0 00-.53-17.26c-13.19-3.37-28.3 4.05-33.68 16.54a28.22 28.22 0 01-2.77 5.78c-2.92 4-30.08 15.91-28.17 47.83a224.45 224.45 0 0122.21-13.88z" fill="#43250d"/><path d="M1156.53 327.29a49.91 49.91 0 00-2.75-8.27c-4.26-10.08-10.39-28.29-19.52-35.29l-.07-.06c-7.39-5.61-20.6-3.75-28.62 2.48a17 17 0 00-6.29 8.82c-1.88 7 1.1 11.82 13.93 41.22 3.36 7.7 7 12.63 23.65 11.88 5.4-.24 9.76-1.17 13.06-2.83 6.29-3.17 8.63-9.03 6.61-17.95zM755.22 475.2c5.71-.54 8.65-4 8.57-12.07a40.86 40.86 0 00-2.57-13.88c.36-10.68.33-24.45-1.62-28.09-2.29-4.29-8.51-7.49-15.26-7.19a19.27 19.27 0 00-7.27 1.76c-7.41 3.46-10.48 10.77-11 19.06-1.08 15.94 7.16 35.47 11.87 38.09 1.39.77 2.21.78 11.38 2.08a30.93 30.93 0 003.27.31 19.32 19.32 0 002.63-.07z" fill="#680001"/><path d="M592.18 672.66l.19-.53-28.37-8.26c-7.45 2.38-12.32 1.41-16.25-.44-3.7-1.74-6.58-4.25-10-5.48-4.37-1.57-9.63-1-18.65 5.92-1.61 10.8-4.61 19.76-9.45 26.31 5.79 24.31 25 56.87 54.36 60.47 5-29 13.3-54.91 26.75-76a6.56 6.56 0 011.42-1.99z" fill="#fece9e"/><path d="M592.18 672.66a6.56 6.56 0 00-1.42 1.94c-13.45 21.14-21.74 47.07-26.75 76l22.45 14.76a332.24 332.24 0 019.75-46.76 322 322 0 0115.66-43c-15.27-2.71-18.3-3.88-19.69-2.94z"/><path d="M259.53 723.81c-1 .71-7.43 2.7-13.94 4.5-7.42 2.06-15 3.87-14.81 3.24.62-2.38 7.3-6.94 14.28-9.2 5.65-1.83 11.5-2.14 14.47 1.46zm3.58-25.94c-1.56-.19-10.58-4.29-17.73-7.86-5.23-2.61-9.45-4.92-9-5.22 1.29-.88 5-.81 9.26.09 7.88 1.67 17.67 6.22 17.47 12.99zm13.53-29.03c-1.25-.76-7.07-7.37-11.94-13.31-4.13-5-7.57-9.54-7-9.64 2-.34 6.85 2.33 11.26 6.21 5.47 4.83 10.22 11.55 7.68 16.74zm37.08-18.9c-1.06-.64-5.43-5.52-9.72-10.62-5-6-9.88-12.21-9.23-12.32 2.58-.45 10.21 4.29 15.18 10.18 3.5 4.16 5.67 8.89 3.77 12.76zm30.76 20.2c1.23 0-12.77-18.81-14.81-20.19-6.2 6.74 10.49 20.2 14.81 20.19zM355 639.8c2.49 5.22 6.52 10 8.59 10.69.7.22-1.76-7.57-4.19-14.3-1.64-4.55-3.26-8.62-3.88-9.4-3.91 2.28-2.95 7.84-.52 13.01zm32-9.96c.66 6.18 3.46 12.95 5.43 14.27.6.4.46-7.45.05-14.49-.28-5-.7-9.57-1.09-10.52-4.02.97-4.93 5.66-4.39 10.74zm42.7 8.22c-5.07 4.81-8.5 15.79-7.5 18.69.29.84 7.32-9 11.44-15.46a32.88 32.88 0 002.9-5.07c-2.43-1.07-4.77-.13-6.84 1.84zm145.54-6.45c-.25-4.4-8.59-11.86-20-19.79-24.68-17.08-63.79-36.32-67.42-31.78 30.49 14.93 55.09 31.09 72.62 48.71 2.3 2.32 4.5 4.66 6.56 7 4.82 1.42 7.73.25 8.24-4.14zm-27.49 31.83c3.18-2.24 4.33-4.45 3.25-6.63a42.59 42.59 0 00-7.34-7.25c-8-6.18-17.8-9.18-28.3-10.91 10 4.16 19 9 25.59 15.63a37.53 37.53 0 016.78 9.16z" fill="#020202"/><path d="M844.46 208.48c0 19.33 29.25 19.33 29.25 0a17.68 17.68 0 00-.19-2.47 13.36 13.36 0 00-5-8.92c-8.44-6.53-24.06-2.74-24.06 11.39z" fill="#fefefe"/><path d="M648.67 265.49l8.81 5c4.07-2 3.82-8.24 1.17-11.94-2.91-4.07-20.83-14.08-11.75-30.31a25.89 25.89 0 009.29 13.51c-4.44.6-8.62 11 7.23 14.38l.58-3.93c13.17 15.17 21.26 6.88 21.59 2.48.55-7.33-11.22-9.93-12.6-17.15a10.07 10.07 0 0010.06-4.94c1.2-2.17-5.58-2.61-7.87-1.65-8.38 3.53-4.38 5.3-22.27-9.36 30.11-2.47 28.21 2.44 38.35 12.92a18.51 18.51 0 007.06 4.77 9.93 9.93 0 004.75.48c2.57-3.13-.78-7.71-4.29-9.73a37.66 37.66 0 01-5.88-3.67 6.88 6.88 0 01-2.61-4.34l1.06-.29 3.79-1.06 8.56-2.37a13.92 13.92 0 00-10.88-6.09 10.35 10.35 0 018.16-5.32c.77-4.47-3.54-8.53-8-9.21s-26.4 10.25-30.62 11.93c3.88-7.08 12.17-11.27 20.92-11.38-1.56-4.89-3.13-4.79-4.7-9.68a12.18 12.18 0 007.67-6.79c.14-3-3.64-4.79-6.6-4.21-1.9.37-6.11 3.18-10.91 4.45a13.34 13.34 0 01-9.77-.65 12.06 12.06 0 01-2.52-1.75c-1.3 5-1.27 7.8-.9 9.51.88 4.1 3.72 1.95-5.09 9.12-1.7 1.39-3.84 3.13-6.53 5.34-3.34-18.46 13.84-24.49 15.67-29.05 3.58-8.9-13.14-13.88-15.22-1.09l-1-7.25c-5.49-5.74-14.54 2-9.72 8.3a52 52 0 00-18.77-4.79c-2.38 4.93 0 12.62 15.11 15.62 5.39 1.07 4.16 2.26 2.76 17.38l-10-4 1.52-9.31c-1.65-3.54-7.16-.64-10.93-1.69S604 176.32 590 177.76a16.76 16.76 0 0014.59 14c-9.29 8-3.19 17.31 2.65 16 3.12-.69 6.86-5.44 16.26 4.93-27.45.28-40.35-21.05-41.91-11.73-.43 2.51 3.1 4.21 3.1 6.75 0 5.09-8.16 2.73-11.11 4.57-3.21 2-5.21 12 11.55 12.22a13 13 0 00-7 7 12.1 12.1 0 00-1 4.27 9.89 9.89 0 004.51-.1c9.7-2.11 24.12-14.19 37.28-11.92-9.17 15.55-15.15 7.2-18.68 7.66-2.83.37-5.34 3.9-.88 11-4.12-1.11-8.23 2.28-9.32 6.28a7 7 0 00.29 4.76 7.44 7.44 0 003.23 3.4c3.63 2 8.9 1.51 11.57-1.86 1.12-1.41 1.86-3.17 3.33-4.22a4.74 4.74 0 01.77-.46c4.19-2 9.63 2.58 14.48 1.61 0-13-.08-6.54 3.93-15.82a24.24 24.24 0 005.92-.47 34.67 34.67 0 003.41-1c4.74 6.9-4 15.6-11.8 23.38-4.08 4.06-7.94 7.86-9.55 11a87 87 0 0012.7-3.25c2.08-.71 4.14-1.48 6.17-2.34a21.74 21.74 0 00.64 3.16 11.32 11.32 0 003.27 5.68c5.69 4.97 14.6-2.02 10.27-6.77zM491.49 501.46a4.51 4.51 0 00-2.76 3.89c2.39.6 3.26-.58 5.47-1.69 13.75-6.88 7.62 1.72 4.32.73-3.57-1.07-3.62.85-2.12 3.24-2-.53-4 1.94-3.11 3.81a3.17 3.17 0 005.11.53c2.93-3.68 3.59-.49 6.41-1.06 0-6.62 2-5.1 4.57-6 3.38 4.9-16.89 16.76-.85 9.95.86 6.38 6.86 2.86 4.88.69l3 1.71c1.41-.7 1.32-2.84.41-4.12s-7.19-4.86-4.06-10.46a8.86 8.86 0 003.21 4.66c-1.54.21-3 3.8 2.49 5l.2-1.36c4.53 5.22 7.34 2.4 7.45.86.19-2.53-3.87-3.43-4.34-5.92a3.5 3.5 0 003.47-1.71c.41-.75-1.93-.9-2.72-.57-2.88 1.22-1.5 1.84-7.69-3.23 10.37-.85 9.71.81 13.24 4.46 4.37 4.52 5.92.36 2.59-1.54-5.27-3-2.57-2.87 1.7-4.05a4.76 4.76 0 00-3.75-2.1 3.54 3.54 0 012.82-1.84c.26-1.55-1.23-2.94-2.78-3.18s-9.11 3.54-10.57 4.12a8.27 8.27 0 017.23-3.93c-.54-1.69-1.08-1.65-1.63-3.34 3.49-1 3.18-4.35.37-3.8-1.2.24-5.09 3.32-8 .71-1.74 6.69 3.36 1.95-4.32 8.27-1.16-6.37 4.77-8.45 5.4-10 1.26-3.13-4.54-4.75-5.25-.38l-.36-2.5a2.21 2.21 0 00-3.35 2.86c-9.75-4.56-8.17 2.37-1.26 3.74 1.23.25 1.44.64 1.35 1.7-.51 5.42.64 4.71-3.85 2.92 1-6.06-.26-3-3.24-3.8-1.29-.35-3.22-3.91-8-3.41a5.8 5.8 0 005 4.84c-3.18 2.72-1.13 6 .91 5.53 1.09-.24 2.38-1.87 5.61 1.7-9.47.09-13.92-7.26-14.46-4.05-.15.87 1.07 1.45 1.07 2.33 0 1.76-2.82.94-3.84 1.58s-1.6 4.13 4.03 4.21zm-28.85 125.35c-1.23.49-5.17 5.23 2 1.64 10.26-5.14 5.68 1.28 3.22.54-2.68-.8-2.69.65-1.58 2.42a2.14 2.14 0 00-2.32 2.84 2.36 2.36 0 003.81.4c2.19-2.75 2.68-.37 4.78-.79 0-4.42.44-3.45 3.42-4.44 2.57 3.73-13 12.67-.64 7.42.64 4.75 5.12 2.13 3.64.52l2.27 1.28c4.34-2.18-5.86-5.28-2.72-10.89a6.62 6.62 0 002.39 3.48c-1.19.17-2.15 2.85 1.86 3.71l.15-1c3.38 3.89 5.48 1.78 5.56.63.14-1.88-2.89-2.55-3.24-4.41a2.61 2.61 0 002.59-1.27c.31-.56-1.44-.68-2-.43-2.13.9-1.09 1.4-5.73-2.41 7.66-.63 7.16.52 9.87 3.33 3.26 3.37 4.42.27 1.94-1.16-3.95-2.26-1.91-2.14 1.26-3a3.57 3.57 0 00-2.8-1.57 2.72 2.72 0 012.11-1.37c.87-5.1-8.19 0-10 .7a6.18 6.18 0 015.42-2.98c-.4-1.26-.81-1.23-1.21-2.49 2.6-.76 2.37-3.24.28-2.83-.91.17-3.81 2.47-6 .53a5.93 5.93 0 00.09 3.44l-3.31 2.73c-.86-4.76 3.56-6.31 4-7.48.94-2.34-3.39-3.55-3.92-.28l-.26-1.87a1.65 1.65 0 00-2.51 2.14c-7.27-3.4-6.09 1.77-.94 2.79.92.18 1.08.48 1 1.26-.38 4 .47 3.52-2.87 2.19.74-4.53-.19-2.22-2.42-2.84-1-.27-2.4-2.92-6-2.55a4.31 4.31 0 003.76 3.61c-2.37 2-.84 4.47.68 4.13.81-.18 1.78-1.39 4.19 1.27-7.07.07-10.39-5.42-10.79-3-.11.64.8 1.08.8 1.74 0 1.31-2.11.7-2.87 1.17s-1.17 3.09 3.04 3.15z" fill="#e5e5e5"/><path d="M934.2-.06h-35.9c0 23.72 35.9 23.72 35.9 0zM701-.06h-29.09c2.78 15.48 26.34 15.48 29.09 0zm10.4 122.56c0-9.82-14.85-9.82-14.85 0s14.85 9.81 14.85 0zm21.82 41.74c0-9.81-14.84-9.81-14.84 0s14.84 9.81 14.84 0z" fill="#fefefe"/><path d="M1059.3 242.28c-1.71-2.39-12.23-8.27-6.9-17.81a15.17 15.17 0 005.46 7.94c-2.61.35-5.06 6.46 4.24 8.45l.35-2.31c7.71 8.88 12.48 4.08 12.68 1.46.32-4.31-6.59-5.84-7.4-10.08a5.93 5.93 0 005.91-2.9c.7-1.28-3.28-1.54-4.63-1-4.9 2.06-2.54 3.13-13.08-5.5 17.69-1.45 16.58 1.43 22.53 7.59 7.4 7.65 10.1.63 4.42-2.63-9-5.15-4.38-4.88 2.89-6.89a8.18 8.18 0 00-6.39-3.58 6.1 6.1 0 014.79-3.13c.45-2.62-2.08-5-4.72-5.41s-15.51 6-18 7c2.28-4.16 7.16-6.62 12.3-6.68-.92-2.88-1.84-2.82-2.77-5.69 5.93-1.74 5.41-7.39.63-6.46-1.32.25-4.53 2.51-8 2.91a6.89 6.89 0 01-5.66-1.71c-.89 3.45-.72 5.11-.41 6.05.72 2.18 2.2.52-6.94 8a14.52 14.52 0 01-.23-3.34c.4-8.27 8.48-11.34 9.44-13.72 2.14-5.33-7.74-8.09-8.95-.64l-.6-4.26c-3.23-3.37-8.54 1.16-5.71 4.87a30.81 30.81 0 00-11-2.81c-1.4 2.89 0 7.42 8.88 9.18 2.09.42 2.46 1.09 2.29 2.88-.85 9.23 1.09 8-6.54 5l.89-5.47c-1-2.08-4.2-.37-6.42-1-1.07-.3-2.42-1.92-4.48-3.38a12.86 12.86 0 00-9.19-2.43 9.75 9.75 0 004 6.47 9.44 9.44 0 004.56 1.76c-5.46 4.69-1.87 10.17 1.56 9.41 1.73-.38 3.77-2.87 8.61 1.92.3.3.61.62.94 1-.83 0-1.63 0-2.41-.08-11.27-.78-17.93-7.62-20.74-8.16-.73-.14-1.2.16-1.42 1.12a1.32 1.32 0 00-.05.23c-.25 1.47 1.82 2.47 1.82 4 0 3-4.79 1.6-6.53 2.68s-3.06 7 6.79 7.18a7.64 7.64 0 00-4.7 6.62c2 .51 4.71-.57 7.74-2 5.07-2.46 11.14-6 16.81-5-1.75 3-4.58 6.41-7.9 5.42-.21-.07-5.37-2.77-5.07 2a7.75 7.75 0 001.48 3.53c-3.37-.91-6.75 3.31-5.31 6.49s6.53 3.64 8.7.91a11.67 11.67 0 011.95-2.49c2.51-1.8 5.94 1.29 9 .68 0-7.62 0-3.86 2.3-9.29a13.59 13.59 0 005.48-.85c3.18 4.62-6 12.86-10.14 17.34-3.1 3.32-3.46 4.57 6 .72.83-.33 1.72-.7 2.71-1.12a14.11 14.11 0 00.27 1.46c1.93 7.87 9.37 4.26 8.66.89a2.44 2.44 0 00-.62-1.17l2.4 1.35 2.78 1.57a3.21 3.21 0 001.25-1.17 5.7 5.7 0 00-.6-5.92z" fill="#e5e5e5"/><path d="M173.17 367.15c2.93 0 5.83-.06 8.68-.15 126-100.5 232.93-220.17 297.26-367.06h-35.89c-57.37 131.14-151.16 252.54-270.05 367.21zm-71.44-115.68c105.63-69 207.2-151.67 276.2-251.53h-33.24C287.45 86.4 203.91 170 101.73 251.47z" fill="#b8b6b7"/><path d="M261.5 356.13h-.06A395.42 395.42 0 01181.85 367c-2.85.09-5.75.14-8.68.15-48.19.22-107.95-9.4-170.29-45.1v47.82C61.69 417.86 127 433 198.52 417.23l3.64-2.8c11.3-8.71 21.29-16.28 30.06-22.86 60.22-45.17 62.29-43.14 29.28-35.44z" fill="#a0cdca" stroke="#b7bcbb" stroke-miterlimit="10" stroke-width="4.19"/></svg>