<svg xmlns="http://www.w3.org/2000/svg" viewBox="0 0 700 700"><path fill="#91a5a4" d="M175.95 37.97h460.77v521.9H175.95z"/><path d="M214.13 336.85a4.13 4.13 0 013.61-2c-.27-.84-.54-.83-.81-1.67 1.73-.51 1.58-2.17.18-1.9-.6.12-2.54 1.66-4 .36-.87 3.34 1.68 1-2.16 4.13-.57-3.18 2.38-4.22 2.7-5 .63-1.56-2.27-2.37-2.62-.19l-.18-1.24a1.1 1.1 0 00-1.67 1.42c-4.87-2.27-4.08 1.19-.63 1.87.61.12.72.32.67.85-.25 2.7.32 2.35-1.92 1.46.5-3-.13-1.48-1.62-1.9-.64-.18-1.6-1.95-4-1.7a2.88 2.88 0 002.51 2.41c-1.58 1.36-.56 3 .46 2.76.54-.12 1.18-.93 2.79.85-4.72.05-6.94-3.62-7.21-2-.07.43.53.73.53 1.17 0 .87-1.4.47-1.91.78s-.82 2.07 2 2.11a2.25 2.25 0 00-1.38 1.94c1.19.3 1.63-.29 2.73-.84 6.86-3.44 3.8.85 2.15.36s-1.8.42-1 1.62a1.44 1.44 0 00-1.56 1.9 1.58 1.58 0 002.55.26c1.47-1.83 1.8-.24 3.2-.52 0-3.31 1-2.55 2.28-3 1.69 2.45-8.42 8.37-.42 5 .43 3.18 3.42 1.43 2.43.34l1.52.86c.7-.35.66-1.42.2-2.06s-3.59-2.42-2-5.22a4.46 4.46 0 001.6 2.33c-.77.1-1.49 1.89 1.24 2.48l.1-.68c2.26 2.6 3.66 1.2 3.72.43.09-1.27-1.93-1.71-2.17-3a1.73 1.73 0 001.73-.85c.21-.37-1-.45-1.35-.28-1.44.6-.75.91-3.84-1.62 5.17-.42 4.84.41 6.6 2.23 2.18 2.26 3 .18 1.3-.77-2.63-1.51-1.29-1.43.84-2a2.35 2.35 0 00-1.87-1.05 1.78 1.78 0 011.41-.92 1.54 1.54 0 00-1.39-1.59c-.84-.1-4.61 1.79-5.34 2.08z" fill="#e5e5e5"/><path d="M401.46 426.56v21.06c74.23 9.38 52.81 8.54 96.76 5l23.43-23.78v-27.51z" fill="#fefefe"/><path d="M546 268c-32.82-3.37-38.26-3-42.19-8.18 13.1-13.75 35.21-15.94 45.37-44a11.12 11.12 0 019.17 11.18c-.13 3.12-1.61 6.25-.8 9.26s6 4.42 6.69 1.38c-2.88-5.13 2.26-12-.45-17.24-2.07-4-7.43-4.65-11-7.38a11.14 11.14 0 01-2.43-14.41 14.23 14.23 0 0014.68 9c1.5-.18 3.05-.61 4.5-.17 2.21.67 3.74 3.25 6.05 3.17-3-2.39-1.51-8.17 2.26-8.84a17.32 17.32 0 005.81 6.07 15 15 0 018.7-12.84c-24 4.52-44.16 12.09-38.19-11.62a136.42 136.42 0 0117-39.61 36.62 36.62 0 00-33.24 15.78 7.94 7.94 0 00-2.69-8.76c8.37 73.17 9.82 69.45 4 73.41L527 232.48a28.66 28.66 0 01-.33-19.89c-10.58 3.16-16.54 16.75-11.7 26.68l-16 12.49a25.18 25.18 0 00-5.19-16.62c-5.81 5.22-2.27 14.81-4 22.41-2.57 11.09-15.92 16.25-20.78 26.54 4.75-1.06-23.43 5.08-41.43-1 .19-4.69 5.12-7.83 9.75-8.57s9.44.06 14-.95 9.19-4.87 8.54-9.52l-21.39 3.55c39.57-35 30.59-30.1 47.27-29.58 4.62.15 10.24-1.85 10.87-6.43l-18 1.42c25.72-43.32 39-62.12 39-85.15-28.16 43.66-27.87 59.13-39.2 68.41 9.07-21.91-15-50.5 1.94-69.46l-4.82 3.4a25.64 25.64 0 00-25.67-34.91 69.06 69.06 0 0124.53 25.08l-6.92-.38c-.91 47.64 6.05 59.91 1.43 72.35-2.5 6.72-9.7 12.31-16.59 10.33 2.34-16.05-2.85-32.15-8-47.55-3-9-7.83-19.92-18.16-18.17 12.88 19 32.94 66.56 21 79.88-24.35-39.73-30.38-48.17-33.14-61-2.17-10.12-1.1-26.2-12-33.06 4.77 15 .89 31.59 4.81 46.85 2.51 9.75 5.65 14.37 31.67 60.62A149.76 149.76 0 00413.64 288c-2.28-16.88-8.64-50-25.49-52.54a72.52 72.52 0 0019.48 37.39 13.66 13.66 0 01-13 4.29c-.44 5.22 11.61 1.3 10 9.41a100.72 100.72 0 01-11.58 30.77 171.35 171.35 0 00-49.06-67c8.86 33.64 37.9 38.1 33.18 58.86-19.18-16.79-22.36-28.9-34.8-33.38 17.28 15.35 12.97 19.2 16.51 27.2 3.89 8.75 15 12 20.15 20.1 4 6.22 4.34 15.19 10.7 18.93a159 159 0 0163.61-34.65c33.07-9.07 32.26-10.5 39.94-29.61 6.07-15.17 20.3.53 52.72-9.77z" fill="#547473"/><path d="M527.25 164.09c-11.09-.62-21.52-6.69-32.62-6.15-14 .68-32.41 15.16-72.26 14.12 3.75-8.52-4.93-16.37-12.1-12.58-2.77 1.47-5.63 4.61-8.37 3.09-1.27 4-4.54 18.22-1.94 21.32 2.77 3.29 20.09 3.32 24.3 3.36 87.61.92 83.69-4.19 119.41-5.36 35.27-1.16 71.17 10.59 54.47-6.09-27.14-27.11-51.63-10.64-70.89-11.71z" fill="#fefefe"/><path d="M381.11 387.22l4.52 76.78 22-8.65c-4.68-48.29-15.31-137.5-7.29-252.27 71-8.55 139.06-11.5 203.84-8.23L600 178.21c-58.42-1.41-126.61.6-199.66 4.32l5.3-122.68h-31s-15.16 21-8.74 61c9.72 60.58 12.68 220.5 14.34 250.14.89 15.93-3.38 34.56-16.82 44.84-17.21-9.24-28.87-33.27-17.65-68.15-4 1.34-5.06 6.32-6.32 10.34s-5.13 8.47-8.91 6.59a84.19 84.19 0 01-.09-37.44c1.67-7.42 3.65-9.46 10-13.25 10.25-6.15 28.85-17.21 24.94-34.73A105.56 105.56 0 01337 306.78c4-20.7 28-33.86 29.68-54.87a165.76 165.76 0 00-53.05 84.43 113.64 113.64 0 00-.92-46.17c-2.4-10.46 2.87-9.39 5.13-11.14 1.09-.84 1.34-3 0-3.34l-7.31-.88c1-3.07 9.81-28.13 12.95-29.52 3.65-1.62 8.91 5 9.84-10.53a18.79 18.79 0 0111.34-15.89l-5.95-1.73c-9.31 6.3-9.33 20.71-17.73 28.18-2.93 2.6-6.68 4.15-9.59 6.78-8.83 8-7 22.59-13.45 32.62 1.24-22.87-17.08-32.2-19.33-36.46-5.57-10.55 10.73-19.33 15.11-23.63 12.33-12.08 10.61-32.64 19.69-47.33 6.29-10.19 17.47-17 22.48-27.85a98.37 98.37 0 01-21.79 13.3c-3.91-12.75 5.2-26.18 16.63-47.95 3.49-6.65 5.34-4.63 8.58-6.54 1.49-.87 2.38-3.21 1-4.24l-7.14.28-1.3-5.49a45.59 45.59 0 00-7 20.81 8 8 0 01-6.62-8.72 13.38 13.38 0 008 14.47c-15.86 16-19 18.49-20.71 23.55-5.32 15.89 13.75 20.1-11.07 52.52l-26.31 34.46c-4.54-15.1 4.25-18.13 11.61-24.06 4.13-3.32 7.6-9.1 5-13.71a22.08 22.08 0 01-14.09 13.67c-.33-52.37 22.62-41.39 28.14-52.64-14-1.66-26.44 10.1-31.75 23.15s-5.63 27.51-8.61 41.27a168 168 0 00-27.19-24.89c-6.43 4.46-8.84 13.52-6.35 20.94 6.07 18.09 33.39 15.94 1.78 14.2-1.5 3.6 2.92 7.11 6.82 7.2s7.74-1.59 11.6-1.06c6.9.94 9.62 6 30.12 32.33a24.8 24.8 0 00-22.69-9.42 60.7 60.7 0 0023.86 17.22c7.4 2.95 5.95 1.74 9.38 28.07a32.53 32.53 0 00-21.47-13 24.55 24.55 0 002.8-8.53 23.82 23.82 0 01-13-14.38 10.76 10.76 0 004.44 13.74c1.58.82 3.43 1.27 4.65 2.58s1.16 3.95-.56 4.41c-32-26.68-48.75-36.79-41.74-50.72-5.11 3.82-26.16 21.05-27.3 25.61-1.75 7 13.67 14.13 23.07 5.19a53.9 53.9 0 0027.71 18.68 143.67 143.67 0 01-56.54-4.08 44.25 44.25 0 0041 14c4.55-.89 9.09-2.51 13.68-1.94 6.52.81 32.6 11.75 54 32.07-11.7-3.18-13.17-11.72-17.15-14.93-5.69-4.6-7.65 1-36.12-16.79-1.43 8.53 11.61 10.54 16.08 15s2.56 7 11.68 10.62c25.35 10.13 27.12 10.4 29.22 13.07 3.53 4.49 3.8 17.44 3 23.47a38.5 38.5 0 00-22.9-22.63 29.58 29.58 0 019.47 19 45.13 45.13 0 00-31.37-2.06 275.2 275.2 0 0136.92 6.76c7.85 2 10 4.16 11.68 11.4 8 34.76 3.11 47.54 35.45 62.56 29.42 13.65 38 19.24 46.71 15.22 13.53-6.27 22.81-42 .41-63-3.87-3.63-11.55-5.71-13.33-.71z" fill="#547473"/><path d="M603 191.81c-16.95-46.62-25.66-75.62-7.59-129.08H306.48L195.92 239.56c23.7 156 15.21 222.92 8.76 313.74l-52.78-52V239.56L318.09 22.05H672.4v549.22l-47.07-42.81c.75-76.68 6.38-257.75-22.33-336.65zM0 622.4h699.97V700H0z" fill="#443321"/><path d="M309.49 29.2c149 13.5 250.3-19.66 324.31 15.29 15.62 76.89 18.61 156.21 10.1 237.51-4.09 39-2.8 136.09-1.9 227.68l-403.73 56.74-81.44-118.54c-5.74-68.65-7.4-132.52 0-185.77L0 325.32V622.4h700V0H311.66z" fill="#6f553c"/><path d="M311.66 0h-18.57c-1.52 109-62.37 214-148.76 303.5-13.19 13.68-19.59 27-34.26 39.91C220.63 264.93 305.83 148.18 311.66 0z" fill="#b8b6b7"/><path d="M141 434c18.91-3.05 31.46-13.26 38.46-29.68l-81.77-57.17q5.28-3.75 10.46-7.53C250.57 219.38 301.46 107.12 293.09 0H0v478.25c22.24 4.29 44.49-.91 66.74-12.95 29.67-.3 54.57-10.46 74.26-31.3z" fill="#ccc"/><path d="M67.37 468.9c35.36 6.13 58.16-5.63 74-27.36 19.1-.25 33.39-8.37 41-27.44 1.34-3.35.64-7.36-3.56-10.32-5.23 15.73-18.31 25.42-38.32 29.78-22.64 19.1-47.59 28.36-74 31.46C43.91 477.28 21.71 482.33 0 478v7.29c28.6 5.35 49.77-2.37 67.37-16.39z" fill="#b8b6b7"/><path d="M576 376.61a142.39 142.39 0 00-3.24-64.55l3.24-6.19c36-1.42 47.87-24 57.77-48.33h-12.06s2.06-7.07.89-6.78-6.63 1.18-6.63 1.18l-2.22-5.31-8.54 9.44-6.21-16.51c-7.62 19.53-19 34.75-34.48 45.39-5.57-2.29-11-1.76-16.21 2.36-8.61-5.67-19.61-7-32.42-5-15.55-11.77-32-12.78-49.22-4.72-15-3.35-26.48-1.1-34.49 6.49-11.24 1.16-21.74 3.84-30.06 10.9a53 53 0 00-10.9 26.23c-10.28 7-18.48 15.45-20 28.29-4.32.66-7.43 3.19-8 9.73-39.62 9.71-47 34.33-44.8 63.37l12.38-4.72 1.18 7.66 5.89-2.65 4.42 5s4.69-11.16 5.31-11.79c1.9-1.92 12.06 10.84 10.31 11.79 2.23-18.94 8.18-35.68 18.57-49.81 1.84 18.3 9.05 34.22 21 48l2.9 17.69c4.06-3 7.26-7.39 9.73-13 7.34 8.39 17.35 11 29.47 9.13-3.95-5-4-9.15-.59-12.67l13.26 12.38 3.54-14.74c5.46 9.54 11 16.87 16.8 18.87 1-10.46 3.49-18.44 9.14-21.22l4.71 17.09c3.8-10.12 8.26-17.27 13.56-20.63l3.24 8.84 2.95-14.15 2.65 6.19 7.93-7.66 3.27 2.36c-16.5 49.65-73.12 27.57-103.15 56.29l160.62-23z"/><path d="M390.33 447.93h-12.65c-14.44-14.39-35.82-21.48-68.38-16.8-6-1.37-10.41-5.43-13.85-11.2-6.28 5.46-7.86 12.88-8 20.93-.62 1.39-8.54 2.95-10.61 7.07s4.42 7.37 4.42 7.37c-6.37 3.53-11.22 7.31-10 12.08L254.19 487c-11.57-1.83-23.17 1.88-34.78 9.27 2.22-9.16.14-15.36-4.12-20 6.47-12.06-.49-19.58-10-14.15-5.81-6.16-12.16-7.21-19.16-2.06-6-2.14-9.51.68-11.5 6.48-3.81-2.15-7.14-3.16-8 1.77-4.68-10.32-12.13-10.36-21.81-2.06-10.14-.14-14.89 2.64-13.86 8.54-10.39 5.42-10.57 12.89-5 21.52-6.14 6.73-5 12.28 4.13 16.5 20.16 6.94 21.53 19.43 36.55 28.88a58.9 58.9 0 01.59 33l41 32.13 68.06-8.82 57.77-45.69-1.47-26.41zm-209.67 71.33c-4.89-7.69-7.36-17.74-7.81-29.77a43.86 43.86 0 0019.3 17.51 36.21 36.21 0 00-11.49 12.26z" fill="#fff" stroke="#000" stroke-miterlimit="10" stroke-width="1.4"/><path d="M478.75 449q-48.93 5.73-77.79-13.47c-23.85 27-56.81 40.13-95.78 44.19a162.46 162.46 0 00-12.68 44.82c10 8.47 21.74 13.35 34.78 15.62l39.2-5z" fill="#990100"/><path d="M562.27 572.39c-.54-25.3 4.69-25.53 18.48-42.2 11.94-14.44 35.8-68.08 40.5-98.32.31-1.94 1-4.29 2.45-5.31-10.56-10 4.71-10.15-17.92 48.38-10.65 27.56-19.29 29.11-42.59 47.27-9.61 7.49-10.88 11.61-11.38 21.67-2.21 45.07.43 61.25-.84 68.49 4.19-1.3 8.26-2.47 12.19-3.46-2.78-5.29-.79-32.02-.89-36.52z" fill="#fccc82"/><path d="M542.91 519.59c6.48-26.18 27.46-30.93 41.6-42.73 25.15-21 26.14-59 30.28-59.57 2.77-.41.57 2.47-4.28-11-5.78-4.86-13.35-8.06-23-9.37a25.38 25.38 0 01-7.71-8.78c-.39.72-18.61 24.4-29.15 34.78-52.26 51.51-92.82 28.89-113.09 59.51-3.12 4.71-4.95 10.14-7.76 15-12.66 22-41.12 28.2-61.6 43.21-9.23 6.77-17 15.51-27 21.17-8.9 5.07-19.14 7.41-28.1 12.38-23.82 13.18-47.64 57.72-54.48 51.49a27.24 27.24 0 01-1.62 2.53c12.12 4.55 35.57 14.71 56.38 23 5.07-6.22 6.64-14.88 9.12-22.69 11-34.59 44.2-58.13 78.92-68.7-38.6 45.26-19.24 53.62-16.8 92.85.6 9.66-6.36 9-15 9.37-27.63 1.27-43.64-5.34-28.86-.78 30.38 9.38 114.43-13.31 126.44-23 12.29-2.55 6.37-.88.83-2.35 17-11 16.9-26.62 21.39-38.2 2.7-6.94 7-13.2 9.24-20.31 7.91-25.44-10.77-41 32.33-79.71 28.56-25.67 42.72-31.49 51.41-41.08 16.28-18 14.69-47.09 23.44-53.4 6.32 9-5.78 30.59-9.82 38.77-7.07 14.3-16.79 27.47-29.84 36.84-9.83 7.05-41.2 21.27-51.34 59.51-7.27 27.4 1.11 79.93-28.8 95.31 10.56-2.94 20.8-6.32 30.64-9.71 24.96-51.93 22.96-91.13 26.23-104.34zm51-88.81c-2.31 6.35-4 7.1-9.12 10-12.94 7.33-22.34 19.45-33.53 29.25-17.48 15.31-39.26 24.86-57.79 38.88-14.85 11.24-17.62 18.21-21.59 33.13-10.56 39.67-13.36 52.38-17.65 58-10.15 13.28-24.47 21.7-37.3 48.43-7.23-9-22.25-38.38-18.65-49.31C400 593.69 405 589.89 408 585c2.54-4.06 3.75-8.8 5.36-13.31 10.51-29.3 30.66-34.76 34.34-43.23 5.46-12.6-14-25.34 21.43-44.64 90.73-49.49 91.63-39.06 100.16-58.38 3.5-7.92 6.33-19.68 11.67-26.44 3.13-3.95 3.3-1.65 7.68.59.84.43 11.2 3.82 11.29 2.62a106.06 106.06 0 01-6.06 28.57zm10.23 143.95c8.7-14.44 15.16-12.12 21.19-46.27 3.71-21 7.43-42.1 8.24-63.43.15-4-2.2-22.58 3.15-23.62-5.77-10.35-5.91-8.78-10.42-12.54 5.93 19.84 2 34.84-3.66 51.86-17.44 52.65-45.72 118.51-53.31 126.76 19.54-4 22.68.08 17.2-3.23 9.62-6.49 11.62-19.59 17.61-29.53zm43.07-72.57c0-12.84 6.89-16.31-3.4-45.08 4.19 96.95-27 107.83-29.32 155.5-1.62-.06-3.24-.19-4.85-.39 12.24 6.65 20.54 15.24 30.05 10.22 15.07-8 14.37-40.89 15-61.89s-7.48-43.33-7.48-58.36z" fill="#fccc82"/><path d="M499.06 621.34c15.76-24.32 8.67-55.83 15.86-83 10.25-38.65 42.64-53.28 51.34-59.51 13-9.37 22.77-22.54 29.84-36.84 4-8.18 16.14-29.77 9.82-38.77-8.78 6.32-7 35.27-23.44 53.4-8.93 9.85-22.05 14.69-51.41 41.08-43.06 38.72-24.52 54.58-32.33 79.71-2.21 7.11-6.54 13.37-9.24 20.31-4.5 11.6-4.42 27.28-21.39 38.28a23.44 23.44 0 006.4.74c10.83-2.61 16.72-3.31 24.55-15.4z" fill="#ffb562"/><path d="M553.7 532.93c5.26-12.23 30.11-21.27 42.86-39.41 7.94-11.3 25.32-58.63 22.38-72.12a63.879 63.879 0 01-3-4.08c-3.92-.82-5.56 14-7.72 20.46-22.42 67.28-61.64 33.09-67.62 99.38A254.83 254.83 0 01516.76 624c12.08-4.16 23.54-8.31 34.21-11.62 1.03-5.99-1.9-68.69 2.73-79.45zM463.07 575c.06-.22.12-.43.17-.65.15-.58.09-.47-.17.65z" fill="#ffb562"/><path d="M588.67 399.58c-4.38-2.24-4.55-4.54-7.68-.59-5.34 6.76-8.17 18.52-11.67 26.44-8.54 19.35-9.51 8.93-100.16 58.38-35.37 19.29-16 32.08-21.43 44.64-3.43 7.9-24 14.37-34.34 43.23-1.61 4.51-2.82 9.25-5.36 13.31-3.06 4.9-8 8.7-9.79 14.18-3.6 10.93 11.42 40.36 18.65 49.31 12.69-26.43 27.58-35.72 37.3-48.43 4.22-5.52 7-17.91 17.65-58 4-15.17 6.86-22 21.59-33.13 18.53-14 40.31-23.57 57.79-38.88 11.19-9.8 20.59-21.92 33.53-29.25 5.21-2.94 6.82-3.7 9.12-10A106.06 106.06 0 00600 402.2c-.13 1.2-10.49-2.2-11.33-2.62zM369.7 662.09c20.38-.94 15.83-3.3 10.23-42-3-20.81-3.05-31.15 21.53-60.19-34.72 10.57-67.95 34.11-78.92 68.7-2.48 7.81-4.05 16.47-9.12 22.69 19.31 7.71 27.97 12.1 56.28 10.8z" fill="#ffb562"/><path d="M258.74 622.4c1.06.66.54 2.24-.08 3.34 6.7 6.11 31.14-38.57 54.48-51.49 9-5 19.2-7.31 28.1-12.38 9.95-5.66 17.74-14.4 27-21.17 20.48-15 48.94-21.19 61.6-43.21 2.81-4.9 4.64-10.33 7.76-15 22.73-34.33 71.71-.93 134.84-85.09 11.56-15.48 6.85-2.4 3.56-20.79 0 0-50.69 62.48-77.81 76s-68.08 10-84.88 15.91-69.84 71.07-94.61 77.81S301.05 549 285.14 557s-19.14 23.85-31.83 31.81-52.47 10-64.55 15-19.45 18.57-19.45 18.57c35.39 24.12 63.6-3.2 87.73 5.86a27.24 27.24 0 001.62-2.53c-1.05-.92-1.28-2.89.08-3.31z" fill="#ffb562"/><path d="M643.81 457.08a104.93 104.93 0 00-7.09-15.67c-5.35 1-3 19.64-3.15 23.62-.71 18.67-7.77 77.8-17.66 93.65-3.52 5.63-8.34 10.36-11.77 16.05-6 9.94-8 23-17.61 29.53 5 3 9.42.49 23.11 7.93 1.61.2 3.23.33 4.85.39 2.37-47.81 33.51-58.47 29.32-155.5z" fill="#fbb361"/><path d="M622.64 480.73c5.77-17.41 9.56-32.13 3.66-51.86-.89-.75-1.76-1.52-2.6-2.31-1.44 1-2.14 3.37-2.45 5.31-4.67 30-28.42 83.72-40.5 98.32-13.54 16.36-19 16.62-18.48 42.2.1 4.5-1.89 31.23.89 36.52 2.09-.52 4.15-1 6.17-1.42 8.08-8.79 37.16-78 53.31-126.76z" fill="#feb767"/><path d="M258.74 622.4c-1.94.59-.34 3.83 0 3.13.6-1.01.98-2.53 0-3.13z" fill="#ffb562"/><path d="M533 306.92a13.32 13.32 0 0013.77 7.38c3.2-6.48-4.82-11.13-23.46-26.82-4.22-3.55-7.57-3.44-8.56 2.33-2.55 14.91-7.36 6.78-10.2 6.8-2.31 0-3.28 3.16-5.4 4.08-2.74 1.18-5.8-1.81-8.69-1.1-4.49 1.1-4.43 10-15.81 4.33-4.11-2-3.63-.38-7.47 11.92-2.69-.89-4.68-3.11-7-4.73-6.27-4.36-8.92.46-9.87 1.15-2.55 1.81-6.1-.31-9.17.23-4.43.79-7.26 6.92-11.65 6a5.3 5.3 0 00-6.57-4.85 23.31 23.31 0 00-.26-8.61 14.87 14.87 0 00-16.8 8.25 13.71 13.71 0 01-1.38 2.89c-1.46 2-15 7.94-14.05 23.88a111.24 111.24 0 0111.08-6.95c.44 6.93-8.4 12.7-6.21 19.29 19.51-5.45 24.76-38.63 17.67-5.94-1.43 6.6 3.18 8.15 7 2.56 8.7-12.77 9.62-15 12.18-14.76 2.83.29 3.06 4.5 5.21 6.37 2.51 2.17 6.54.26 8.51-2.41s3-6.06 5.57-8.19c14.65 16.47 13.14 13.67 18.06 4.23a14.22 14.22 0 0010.7-11.47c6.83 1.76 7.87 11.94 14.21 15a56 56 0 002.78-18.92c9.74 2.77 11.82-6.36 15.57-6.36 1.8 0 10.4 6.07 14.88 3.54 2.85-1.67 2.36-6.79 5.36-9.12z" fill="#43250d"/><path d="M548.29 289.7c-.94 3.48.55 5.9 7 20.58 1.67 3.84 3.49 6.3 11.79 5.93 9.28-.41 12.5-4.88 8.44-14.5-2.13-5-5.19-14.17-9.77-17.65-5.14-3.87-15.75-.62-17.46 5.64zm-169.43 63c-1.55-2.9-6.71-4.83-11.24-2.71-10.79 5-3.15 26.55.42 28.53.69.38 1.1.39 5.67 1 4.8.68 7.29-.63 7.24-5.91a20.4 20.4 0 00-1.35-7.12c-1.22 20.07 1.45-9.7-.74-13.79z" fill="#680001"/><path d="M258.91 473.87c-.81 5.39-2.31 9.86-4.72 13.13 2.89 12.14 12.47 28.39 27.11 30.19L295.45 478l-14.15-4.12c-11.69 3.72-10.65-9.08-22.39-.01z" fill="#fece9e"/><path d="M305.18 479.74c-10.46-1.88-9.41-2.28-10.53-.51-6.71 10.55-10.85 23.5-13.35 38l11.2 7.37a162.44 162.44 0 0112.68-44.86z"/><path d="M215.07 535.85c-.61 0 6.43 12 7.45 12.85 3.03-4.24-5.23-12.87-7.45-12.85zm-10.39 17.45c-.33.51 13.53 1.21 14.83.84-1.88-4.86-13.62-2.71-14.83-.84zm-89.58-45.65c-.16.6 13.22-3.1 14.34-3.86-3.31-4.02-13.78 1.71-14.34 3.86zm2.78-23.34c-.51.35 12 6.37 13.34 6.53.15-5.2-11.5-7.78-13.34-6.53zm10.64-19.42c-.61.11 8.3 10.76 9.45 11.46 2.29-4.68-7.26-11.84-9.45-11.46zm18.48-9.43c-.6.1 8.3 10.76 9.46 11.46 2.3-4.68-7.25-11.84-9.46-11.46zM171.81 477c.61 0-6.37-9.39-7.39-10.08-3.09 3.36 5.23 10.08 7.39 10.08zm9.55-9.81c.58.18-3.26-10.87-4-11.83-3.98 2.28 1.94 11.18 4 11.83zm14.36-3.19c.51.34-.06-11.34-.52-12.48-4.44 1.07-1.27 11.28.52 12.48zm14.85 6.31c.2.58 6.83-9.06 7.16-10.24-4.19-1.84-7.86 8.2-7.16 10.24zm76.33-12.55c-.38-6.93-41-29.06-43.62-25.74 17.22 8.43 30.67 17.65 39.5 27.83 2.42.69 3.87.09 4.12-2.09zm-12.08 12.58c-4.47-5.64-10.8-7.92-17.78-9.07 7 2.94 13.13 6.55 16.15 12.38 1.6-1.12 2.17-2.22 1.63-3.31z" fill="#020202"/><path d="M123.75 536.67c-6.13-5.56-5.72-8.55-17.46-10.13C18.35 514.7.18 563.41 19.63 580c15.7 13.42 60.63-3 79.64 5.08 7.79 3.31 18 14.45 43.41 26.06 26.32 12 39.69 7.75 67.31-9.14 1.41-.87 2.9-1.82 3.58-3.33 3.17-7.11-38.47-28-45-36-4.73-5.75-9.18-14.66-15.81-18.41-9.29-5.16-19.87.74-29.01-7.59z"/><path d="M477.06 109.59c0-11.85-17.9-11.85-17.9 0s17.9 11.84 17.9 0zm76-4.59c0-13.47-20.37-13.47-20.37 0s20.37 13.51 20.37 0zM435.78 246.52c0-9.65-14.59-9.65-14.59 0s14.59 9.66 14.59 0z" fill="#fefefe"/><path d="M330.34 247.06c1.94-3.53 6.08-5.63 10.44-5.68-.78-2.44-1.56-2.39-2.34-4.83a6.1 6.1 0 003.82-3.39c.07-1.5-1.82-2.39-3.29-2.1-1.74.34-7.37 4.79-11.57 1-2.51 9.68 4.87 2.81-6.25 12-1.66-9.22 6.91-12.23 7.82-14.51 1.78-4.44-6.55-6.93-7.59-.54l-.52-3.62c-2.74-2.86-7.25 1-4.85 4.14a25.93 25.93 0 00-9.36-2.39c-1.18 2.46 0 6.3 7.54 7.8 2.69.54 2.07 1.13 1.37 8.68l-5-2 .75-4.65c-.82-1.77-3.57-.32-5.45-.85s-4.64-5.65-11.61-4.93a8.38 8.38 0 007.28 7c-4.63 4-1.59 8.64 1.32 8 1.56-.35 3.42-2.72 8.11 2.46-13.69.14-20.12-10.51-20.9-5.86-.21 1.26 1.55 2.1 1.55 3.38 0 2.54-4.08 1.36-5.55 2.28s-2.59 6 5.76 6.1a6.52 6.52 0 00-4 5.62c4.62 1.16 13.17-7.33 20.85-6-4.57 7.76-7.56 3.59-9.32 3.82-1.41.19-2.66 1.95-.44 5.48-2.86-.78-5.73 2.81-4.5 5.51s5.54 3.09 7.38.77a9.86 9.86 0 011.66-2.11c2.13-1.53 5 1.09 7.61.58 0-6.49 0-3.27 2-7.91a11.68 11.68 0 004.65-.71c3.6 5.23-8.3 12.55-10.65 17.18a43.34 43.34 0 009.41-2.79c1.25 9.23 9.92 4.14 7.06 1l4.4 2.48c2-1 1.9-4.11.58-6-1.45-2-10.39-7-5.86-15.13a12.93 12.93 0 004.63 6.74c-2.21.3-4.29 5.49 3.61 7.18l.29-2c6.57 7.57 10.6 3.43 10.77 1.24.27-3.66-5.6-5-6.29-8.56a5 5 0 005-2.47c.6-1.08-2.78-1.31-3.93-.82-4.18 1.76-2.18 2.64-11.11-4.67 15-1.24 14.08 1.21 19.13 6.44 1.56 1.61 3.68 3 5.89 2.62 1.29-1.56-.38-3.85-2.14-4.85s-4-2-4.23-4l6.73-1.79a7 7 0 00-5.43-3 5.17 5.17 0 014.08-2.66c.38-2.23-1.77-4.25-4-4.59s-13.2 5.07-15.31 5.91zm-71.92 143.15a4.12 4.12 0 013.6-2c-.27-.84-.54-.83-.81-1.67 1.74-.51 1.59-2.17.19-1.89-.61.11-2.55 1.65-4 .35-.86 3.34 1.68 1-2.15 4.13-.58-3.18 2.38-4.22 2.69-5 .63-1.56-2.26-2.37-2.62-.18l-.17-1.25a1.11 1.11 0 00-1.68 1.43c-4.86-2.28-4.07 1.18-.63 1.86.62.13.72.32.68.85-.25 2.71.32 2.36-1.92 1.46.49-3-.13-1.48-1.62-1.9-.64-.17-1.6-1.95-4-1.7a2.89 2.89 0 002.51 2.41c-1.58 1.37-.56 3 .46 2.77.54-.12 1.19-.93 2.8.85-4.73 0-7-3.63-7.22-2-.07.44.54.73.54 1.17 0 .87-1.41.47-1.91.78s-.83 2.07 2 2.11a2.24 2.24 0 00-1.37 1.94c1.19.3 1.62-.29 2.72-.84 6.86-3.44 3.8.86 2.16.36s-1.81.43-1.06 1.62a1.43 1.43 0 00-1.55 1.9 1.58 1.58 0 002.55.27c1.46-1.84 1.79-.25 3.2-.53 0-3.31 1-2.55 2.28-3 1.68 2.45-8.43 8.37-.43 5 .43 3.19 3.42 1.43 2.44.35l1.51.85c.7-.35.66-1.42.21-2.06s-3.59-2.42-2-5.22a4.52 4.52 0 001.6 2.33c-.76.1-1.48 1.89 1.25 2.48l.1-.68c2.26 2.6 3.66 1.2 3.71.43.1-1.26-1.93-1.71-2.17-3a1.74 1.74 0 001.74-.85c.2-.37-1-.45-1.36-.28-1.44.6-.75.92-3.83-1.61 5.17-.43 4.84.4 6.6 2.22 2.18 2.26 3 .18 1.29-.77-2.63-1.51-1.28-1.43.85-2a2.39 2.39 0 00-1.87-1 1.77 1.77 0 011.4-.92 1.54 1.54 0 00-1.38-1.59c-.83-.19-4.6 1.73-5.33 2.02zm-17.76 63.23a3 3 0 012.68-1.46c-.2-.63-.4-.62-.6-1.25 1.29-.38 1.18-1.61.14-1.41-.45.09-1.9 1.24-3 .26a3 3 0 000 1.72l-1.65 1.36c-.43-2.37 1.78-3.14 2-3.73.47-1.17-1.69-1.77-2-.14l-.14-.93a.82.82 0 00-1.25 1.06c-3.63-1.69-3 .89-.47 1.4.46.09.54.24.51.63-.19 2 .24 1.76-1.43 1.09.36-2.26-.1-1.1-1.21-1.42-.48-.13-1.2-1.45-3-1.27a2.13 2.13 0 001.87 1.8c-1.18 1-.42 2.23.34 2.06.41-.09.89-.69 2.09.64-3.52 0-5.18-2.71-5.38-1.51-.06.32.4.54.4.87 0 .65-1.05.35-1.43.59s-.61 1.54 1.48 1.57c-.61.24-2.57 2.61 1 .82 5.12-2.57 2.84.64 1.61.27s-1.35.32-.79 1.2a1.07 1.07 0 00-1.16 1.42 1.18 1.18 0 001.9.2c1.09-1.37 1.34-.18 2.39-.39 0-2.21.22-1.72 1.7-2.22 1.28 1.86-6.48 6.32-.32 3.7.32 2.37 2.56 1.07 1.82.26l1.13.64c2.17-1.09-2.92-2.63-1.36-5.43a3.26 3.26 0 001.2 1.73c-.6.09-1.08 1.43.93 1.85l.07-.5c1.69 1.94 2.73.89 2.77.32.07-.94-1.44-1.28-1.61-2.21a1.3 1.3 0 001.29-.63c.15-.28-.72-.34-1-.21-1.07.44-.55.69-2.87-1.21 3.83-.31 3.58.26 4.93 1.66 1.63 1.69 2.2.14 1-.57-2-1.13-1-1.07.63-1.51a1.79 1.79 0 00-1.4-.78 1.35 1.35 0 011.05-.69c.54-2.55-3.98 0-4.86.35z" fill="#e5e5e5"/><path d="M466 142.41c0-11.84-17.9-11.84-17.9 0s17.9 11.85 17.9 0zm-116.21-1.54c0-9.8-14.81-9.8-14.81 0s14.81 9.79 14.81 0zm5.03 62.73c0-4.9-7.41-4.9-7.41 0s7.41 4.9 7.41 0zm10.89 20.84c0-4.9-7.41-4.9-7.41 0s7.41 4.9 7.41 0zm74.53-109.93c0-10.23-15.46-10.23-15.46 0s15.46 10.23 15.46 0zm81.99 20.08c0-8.73-13.2-8.73-13.2 0s13.2 8.73 13.2 0z" fill="#fefefe"/><path d="M529.43 249a7 7 0 016.13-3.34c-.46-1.43-.92-1.4-1.38-2.84 3-.87 2.7-3.69.31-3.22-1 .2-4.32 2.82-6.79.6-1.48 5.69 2.86 1.65-3.67 7-1-5.42 4.05-7.18 4.59-8.52 1.07-2.66-3.86-4-4.46-.32l-.3-2.13a1.88 1.88 0 00-2.85 2.44 15.26 15.26 0 00-5.5-1.41c-.7 1.45 0 3.7 4.43 4.58 1 .21 1.22.55 1.14 1.44-.42 4.61.54 4-3.26 2.49l.44-2.73c-.48-1-2.09-.19-3.2-.5s-2.73-3.32-6.82-2.9a4.91 4.91 0 004.28 4.11c-2.73 2.34-.94 5.08.77 4.7.92-.2 2-1.59 4.77 1.45-8 .08-11.83-6.17-12.28-3.44-.13.73.91 1.23.91 2 0 1.49-2.4.8-3.26 1.34s-1.53 3.51 3.38 3.58a3.83 3.83 0 00-2.34 3.31c2.71.68 7.73-4.31 12.25-3.53-.88 1.49-2.29 3.2-3.94 2.71-.11 0-2.68-1.38-2.54 1a3.9 3.9 0 00.74 1.77 2.44 2.44 0 00-2.64 3.24 2.68 2.68 0 004.33.45 6 6 0 011-1.24c1.25-.9 3 .64 4.47.34 0-3.8 0-1.93 1.15-4.64a6.92 6.92 0 002.73-.42c2.87 4.17-14.34 14.24-.72 8.45.73 5.43 5.82 2.43 4.14.59l2.56 1.49c1.19-.6 1.11-2.42.34-3.5s-6.11-4.13-3.45-8.89a7.59 7.59 0 002.73 4c-1.3.18-2.53 3.22 2.12 4.22l.17-1.15c3.84 4.43 6.22 2 6.32.72.16-2.15-3.29-2.91-3.69-5a3 3 0 003-1.45c.35-.63-1.64-.76-2.31-.48-2.45 1-1.27 1.56-6.53-2.74 8.83-.73 8.27.71 11.24 3.78 3.7 3.82 5 .32 2.21-1.31-4.49-2.57-2.19-2.43 1.44-3.44a4.11 4.11 0 00-3.19-1.79 3 3 0 012.39-1.56c.23-1.31-1-2.5-2.35-2.7s-7.78 2.94-9.01 3.39z" fill="#e5e5e5"/><path d="M271.06 0H252.5c-1.76 130.54-74.21 242.1-184.95 343.41C178.12 261.85 265.24 154 271.06 0z" fill="#b8b6b7"/><path d="M232.53.48L214 2c6.23 95.36-59.15 182.8-163.3 266C146.91 205.14 236.33 119.43 232.53.48z" fill="#b8b6b7"/><path d="M1.43 303.22v23.87c29.33 24 61.92 31.53 97.57 23.65 98.08-75.84 7.58 12.75-97.57-47.52z" fill="#a0cdca" stroke="#b7bcbb" stroke-miterlimit="10" stroke-width="2.09"/></svg>