<svg xmlns="http://www.w3.org/2000/svg" viewBox="0 0 700 700"><path fill="#f7f1dc" d="M0 0h700v700H0z"/><path d="M456.26 331.79c7.76-5.7-2.59-9.71-2.59-9.71V322c6.14.66 10.6 1.22 14 1.81 0 0 9.62 5 1.16 9.41-4.62-.64-8.76-1.11-12.57-1.43z" fill="#ffdec3"/><path d="M468.82 333.18c8.46-4.42-1.16-9.41-1.16-9.41a31.06 31.06 0 018 2.22 25.4 25.4 0 016.13 4.45c-1.73 2.37-2.88 4.1-2.88 4.1-3.59-.54-6.91-.96-10.09-1.36z" fill="#ffdec3"/><path d="M274.14 355.87l3.25-57.79c35.47 12.16 8.84 9.75 148.07 6.74 12.9-7.11 20.57-12.09 30.18-14.37.85 0 15.64 1.61 22.87 11.21 9.29 12.29 7.25 10 16.31 13.33a4 4 0 01-.82 2.16.25.25 0 01-.11.12c-1.19.83-9.34-2-12.09-3.53s-9.62-8.13-16.36-9.51-12.83 1.77-14.03 6.77 2.58 4.16 6.74 6.13c7.2 3.39 26.77-5.56 28.71 7l-1.58 1.87s-8.49.23-9.58 0a31.06 31.06 0 00-8-2.22c-3.38-.59-7.84-1.15-14-1.81-6.4-.67-14.66-1.45-25.43-2.48-8.33-.79-46.35 3.95-59 5.54s-32.08 30.85-32.08 30.85c-20.19 2.76-45.33 5.74-63.05-.01z" fill="#ffdec3"/><path d="M247.83 246.36a6.84 6.84 0 001 4.18 7.36 7.36 0 01-1.21-2.36c-.43-1.8-.55-2.18.21-1.82z" fill="#fff"/><path d="M494.85 314c-8.1-5.85-7.28-12.65-20.86-24.77.84.05 1.69.1 2.57.18 3.88.31 6.84.59 9.1.9 0 0 6.44 7.14 6.74 11 0 5.9 2.19 9.69 2.45 12.69z" fill="#ffdec3"/><path d="M263.5 217.91c2.29-4-2.51-6.73-4.8-2.77s2.51 6.75 4.8 2.77zm-68.94 81c-17.42-2.39-56.24-43.58-56.24-43.58L170 211.74s24.13-4.75 24.34-6.33-10.87-19 1-22.18 17.44 4.77 17.44 4.77c26.79 16.76 34.76-11 48.32-13.45 8.71-1.6 12-7.14 16.29 0 5.32 8.79 6.41 16.1 5.38 22.36-2.35 14.59-16.14 23.49-14.54 32.3s2.37 4.75 3.69 8.7-2.37 5.56-4.75 5.82c-1.5.16-4.93 3.21-7.27 5.44-10.34-5.72-17.38-11.93-18.31-4.42-.4 3.17 8.88 15.38 8.88 15.38l3.09-4.49c1 5.51-12.62 20.61-16 21.09-3.7.53-19-6.86-23.24-9.51a4.28 4.28 0 00-2.13-.68c-3.26-.1-5.78 3.86-5.78 3.86l-4 5.55a46.68 46.68 0 0111.09 16.63c4.04 10.26-1.5 8.68-18.94 6.31z" fill="#ffddc5"/><path d="M257.65 251.38c.28-.31 1.15-1.18 2.25-2.24l.67.37c-1.91 1.24-2.32 1.88-2.92 1.87z" fill="#ffddc5"/><path d="M235.75 421.66l29.31-56.24.2-.07c8.68 5.68 17.52 10.79 43.37 26.4l28.51-35.88s19.42-29.27 32.08-30.87 50.7-6.33 59-5.54c10.77 1 19 1.81 25.43 2.48v.12s10.35 4 2.59 9.71c-21.84-1.86-33 1.24-62.08 15 0 0 15.3 3.16 4 12.31-9.21 1-16.48-1.94-22.19-8-48.78 103.71-36.17 108.41-114.87 85.64z" fill="#ffdec3"/><path d="M241.59 244.72c.93-7.51 8-1.3 18.31 4.42-1.1 1.06-2 1.93-2.25 2.24-.74 0-1.77-1.07-6.33-3.2l-.23-.12-2.84-1.5-.2-.1-.22-.13c-.76-.37-.64 0-.19 1.82a7.36 7.36 0 001.21 2.36.15.15 0 01.05.07 13.83 13.83 0 004.73 4.6.45.45 0 00.14.1l-.21.3-3.09 4.49s-9.28-12.18-8.88-15.35z" fill="#ffddc5"/><path d="M494.85 314a8.68 8.68 0 010 1c-9.06-3.32-7-1-16.31-13.33-7.23-9.6-22-11.18-22.87-11.21A62.33 62.33 0 01474 289.2c13.57 12.12 12.75 18.92 20.85 24.8zm-9.19-23.72c9.31 1.32 6.74 3.33 6.74 11-.3-3.86-6.74-11-6.74-11z" fill="#ffdec3"/><path d="M294.9 151.27c5.8 8.46 8.45 15.32 8.45 25.62 0 9.83-18.86 19.16-20.58 20 1-6.26-.06-13.57-5.38-22.36-4.32-7.14-7.58-1.6-16.29 0-13.56 2.47-21.53 30.2-48.32 13.47 0 0-5.54-7.91-17.43-4.74s-.79 20.6-1 22.18-24.35 6.3-24.35 6.3c-16.49-30.15-14.44-33.66-7.65-69.45 4.75-25.08 38.28-36.17 55.71-38.28s43.56 14.26 59.33 26.14 11.7 12.68 17.51 21.12z" fill="#d6936e"/><path d="M265.26 365.35l-.2.07-29.31 56.24 25.35 15.06s0 114.86-9.51 132.28c-5.67 12.64-139.84.44-137.83-9.51 27.44-137.21-13.62-144 0-225.75 7.91-47.53 24.56-78.43 24.56-78.43s38.82 41.19 56.24 43.58 23 3.95 19-6.35a46.68 46.68 0 00-11.09-16.63l4-5.55 70.95 27.72-3.25 57.79-.36 6.38z" fill="#fff"/><path d="M258.7 215.14c2.29-4 7.09-1.19 4.8 2.77s-7.1 1.21-4.8-2.77z" fill="#666"/><path d="M257.65 251.38l-.12.11-6.44-3.43.23.12c4.56 2.13 5.59 3.17 6.33 3.2z" fill="#fff"/><path d="M251.59 569c3.85 0-.37 122-7.92 129.91h-120.4c-2.78-20.59-25.35-93.46-9.51-139.42-2.01 9.95 132.16 22.15 137.83 9.51z" fill="#a8bac3"/><path d="M248.9 250.61a27.34 27.34 0 004.73 4.6 13.83 13.83 0 01-4.73-4.6zm-.65-4.05l2.84 1.5c-1.33-.62-2.24-1.16-2.84-1.5zm-.42-.23l.22.13a1.07 1.07 0 00-.22-.1z" fill="#ffddc5"/><path d="M113.76 559.49c-15.84 46 6.73 118.83 9.51 139.42h120.4C251.22 691 255.44 569 251.59 569c-5.67 12.64-139.84.44-137.83-9.51zm0 0c27.44-137.21-13.62-144 0-225.75 7.91-47.53 24.56-78.43 24.56-78.43s38.82 41.19 56.24 43.58 23 3.95 19-6.35a46.68 46.68 0 00-11.09-16.63l4-5.55 70.95 27.72-3.25 57.79-.36 6.38-8.52 3.1-.2.07-29.31 56.24 25.35 15.06s0 114.86-9.51 132.28" fill="none" stroke="#666" stroke-miterlimit="10" stroke-width="2.17"/><path fill="none" stroke="#666" stroke-miterlimit="10" stroke-width="2.17" d="M235.75 421.66l-11.88 14.27-68.92-39.61m80.8-86.35l20.47 49.15m199.42-68.67c-9.61 2.28-17.28 7.26-30.18 14.37-139.23 3-112.6 5.42-148.07-6.74M494 317.15a4 4 0 00.82-2.16 8.68 8.68 0 000-1c-.26-3-2.45-6.76-2.45-12.71 0-7.65 2.57-9.66-6.74-11-2.26-.31-5.22-.59-9.1-.9-.88-.08-1.73-.13-2.57-.18a62.33 62.33 0 00-18.32 1.25m37.68 27.49a4.53 4.53 0 00.6-.67m-7.06 6.81l.58-.66m-89.29 35.7c11.33-9.15-4-12.31-4-12.31 29.05-13.78 40.24-16.88 62.08-15 3.81.32 7.95.79 12.56 1.39 3.14.4 6.5.86 10.13 1.36 0 0 1.15-1.73 2.88-4.1 1-1.35 2.18-2.91 3.45-4.47M261.1 436.72c78.7 22.77 66.09 18.07 114.86-85.56 5.71 6 13 8.92 22.19 8m-124.02-3.29h0c17.72 5.75 42.83 2.77 63 0l-28.51 35.88c-25.85-15.61-34.69-20.72-43.37-26.4-9.75-6.39-19.29-13.52-52.48-37.16m95.86 63.56s10.3 8.27 10.83 12.49"/><path d="M467.66 323.77s9.62 5 1.16 9.41l-.16.09m-14.99-11.19s10.35 4 2.59 9.71l-.27.2M212.22 266.5c-3.26-.1-5.78 3.86-5.78 3.86" fill="none" stroke="#666" stroke-miterlimit="10" stroke-width="2.17"/><path d="M253.49 255.31a2.64 2.64 0 01.07.3c1 5.51-12.62 20.61-16 21.09-3.7.53-19-6.86-23.24-9.51a4.28 4.28 0 00-2.13-.68m-73.87-11.2L170 211.74s24.13-4.75 24.34-6.33-10.87-19 1-22.18 17.44 4.77 17.44 4.77c26.79 16.76 34.76-11 48.32-13.45 8.71-1.6 12-7.14 16.29 0 5.32 8.79 6.41 16.1 5.38 22.36-2.35 14.59-16.14 23.49-14.54 32.3s2.37 4.75 3.69 8.7-2.37 5.56-4.75 5.82c-1.5.16-4.93 3.21-7.27 5.44-1.1 1.06-2 1.93-2.25 2.24m-55.17 24.5s-8.35 7.12-8.14 8.72" fill="none" stroke="#666" stroke-miterlimit="10" stroke-width="2.17"/><path d="M212.23 266.51h0a148.34 148.34 0 01-16.35-18.32m5.8-57.83c1.8 1.38 3.58 6.13 3 7.92m-10.34 7.13s2 3.76 5.37 4.75m75.85-5.16a14.63 14.63 0 00-14.46-6.73M475.7 326c1.09.21 9.58 0 9.58 0l1.58-1.89c-1.94-12.55-21.51-3.6-28.71-7-4.16-2-7.93-1.18-6.74-6.13s7.33-8.12 14.06-6.73 13.51 7.91 16.36 9.51 10.9 4.36 12.09 3.53a.25.25 0 00.11-.12M475.6 326h.08m-20.04-35.55h0c.85 0 15.64 1.61 22.87 11.21 9.29 12.29 7.25 10 16.31 13.33M474 289.2c13.58 12.12 12.76 18.92 20.86 24.77m-9.2-23.69s6.44 7.14 6.74 11m-243.5-50.67a27.34 27.34 0 004.73 4.6m-4.73-4.6a13.83 13.83 0 004.73 4.6m-5.58-8.75l-.22-.13v0a6.84 6.84 0 001 4.18m8.7.98l-6.44-3.43-2.84-1.5" fill="none" stroke="#666" stroke-miterlimit="10" stroke-width="2.17"/><path d="M282.64 196.94l.13-.06c1.72-.83 20.58-10.16 20.58-20 0-10.3-2.65-17.16-8.45-25.62s-1.76-9.24-17.51-21.12-41.91-28.25-59.33-26.14-51 13.2-55.71 38.28c-6.79 35.79-8.84 39.3 7.65 69.45m167.14 144.14s19.42-29.27 32.08-30.87 50.7-6.33 59-5.54c10.77 1 19 1.81 25.43 2.48 6.14.66 10.6 1.22 14 1.81a31.06 31.06 0 018 2.22h0a25.4 25.4 0 016.13 4.45" fill="none" stroke="#666" stroke-miterlimit="10" stroke-width="2.17"/><path d="M415.68 387.68c-3 8.16-3.48 22.33-2.57 15.87a123.9 123.9 0 012.57-15.87z" fill="#f5e0cd"/><path d="M485.93 542.68c17.24 15.72 6.43 58.25 6.43 58.25.95 83.07-3.09 89.1-3.26 98h36.15c2-49.25 40.54-90.06-12.25-170.92-5.49-8.41-17.35-14.06-18-19.77-3.18-28.52 5.72-1.62 19.07-17.55 2.33-2.78 1.44-5.48 2.52-8.93 1.94-6.22 4.24-3.26 5.8-9.61 3.93-16-.39-17.2 6.47-18.63 18-3.76-10.58-14.31-3.11-36.35.24-.7-1-22.58-1.52-25.27-4.89 2.43-11.77 2.79-16.89 2.95 3.84-.15 9.66-4.13 11.92-7.22l-1.58-.46C501.12 399.3 500 385 472.07 417.92a16.4 16.4 0 00-1 3c-1.81 7.76-4.22 5.75-2.34 13.82-7-8.26-3.49-19.16-9.52-20.58-14.36-3.37-25.43 16.93-4.72 33.76-2.14 3.07-21.06 12.44-25.31 11.8-5.52-18.37-10.25-27.23-13.24-34.06 3.64 13.9 10.35 29.2 19 45.36 0 0 7.45 26.81-3.24 39.74-8.09 9.78-13 34.3-15.21 44.1-9 39.79 8.74 100.28 12.1 144.07h22.61c0-1.45-.08-3-.14-4.62-11.89-60.75-3.19-89.54-16.34-100.44m80.19-162.73a4.08 4.08 0 01.56-5.15c1.29-1.12.44 6.53-.56 5.14zm5.79-17.28c2.56 3.65-8.82-3.05-17.68 4.69 8.98-8.48 17.23-5.35 17.68-4.7z" fill="#f5e0cd" stroke="#666" stroke-linecap="round" stroke-linejoin="round" stroke-width="2.03"/><path d="M515.47 426a4.08 4.08 0 00-.56 5.15c1 1.37 1.85-6.28.56-5.15z" fill="#666"/><path d="M520.7 413.85c-.45-.65-8.69-3.78-17.68 4.69 8.86-7.74 20.24-1.04 17.68-4.69z" fill="#524740"/><path d="M454.48 447.91c-20.71-16.83-9.64-37.13 4.72-33.76 6 1.42 2.5 12.32 9.52 20.58-1.88-8.07.53-6.06 2.34-13.82a16.4 16.4 0 011-3C500 385 501.12 399.3 517.7 387.16l1.58.46c-2.26 3.09-8.08 7.07-11.92 7.22 6.49-.21 16.09-.74 20.51-5.55.15-.19.68 2.1.8 1.95 9.66-3.95 12.57-21.24-40.79-42-18.5-7.19-33-2.17-49.95 8.12-21.84 13.24-23 33.37-24.82 46.16-2.91 20.73 5 19.36 16.06 56.16 4.25.67 23.17-8.68 25.31-11.77z" fill="#917960" stroke="#666" stroke-miterlimit="10" stroke-width="1.68"/><path d="M434.72 593.86c13.15 10.9 4.45 39.69 16.34 100.44.06 1.64.1 3.17.14 4.62h37.9c.17-8.89 4.21-14.92 3.26-98 0 0 10.81-42.53-6.43-58.25" fill="#f5e0cd" stroke="#666" stroke-linecap="round" stroke-linejoin="round" stroke-width="2.03"/><path d="M384.58 343.68v355.24h27.54V343.29c-12.91.25-22.05.78-27.54.39zm27.54-39.18v-68.07h-27.24c.33 9.89.45 33.82.44 68.25 12.45-.04 20.98-.25 26.8-.18z" fill="#81d0d3" stroke="#666" stroke-miterlimit="10" stroke-width=".84"/><path d="M412.12 346.6h180.37v-13.3c0-6.27.55-4-168.55-24 0-6.09-5.41-4.77-38.62-4.66-2.52 0-9.16-.71-9.16 4.66 0 42.47-8.74 38.16 35.96 37.3zm-30.51-123.23h33.38v13.07h-33.38z" fill="#81d0d3" stroke="#666" stroke-miterlimit="10" stroke-width=".84"/><path d="M464.05 449.18a10.59 10.59 0 01-10.08-.54m62.61-22.58c-1.66 7.41-.32 6.74-5 1.68 1.75-.74 2.66-2.08 7.18-3.36" fill="none" stroke="#666" stroke-linecap="round" stroke-linejoin="round" stroke-width="2.03"/><path d="M515.55 431.13a4.09 4.09 0 01.57-5.15c1.28-1.11.44 6.54-.57 5.15z" fill="#666" stroke="#666" stroke-linecap="round" stroke-linejoin="round" stroke-width="1.15" fill-rule="evenodd"/><path d="M511.72 470.42a29 29 0 009.42-.08m-63.32-29.78c-13.41-4.11-6.38-25.31-.14-18.27M497 528c15-.8 8.3 5 16.18 4.54" fill="none" stroke="#666" stroke-linecap="round" stroke-linejoin="round" stroke-width="2.03"/></svg>