<svg xmlns="http://www.w3.org/2000/svg" viewBox="0 0 1400 780"><path fill="#f7f1dc" d="M0 0h1400v778.72H0z"/><path d="M872 321.55a8.14 8.14 0 010 1.21c-10.75-3.95-8.34-1.24-19.36-15.83-8.6-11.4-26.16-13.28-27.17-13.32 6.14-1.46 13-2 21.76-1.47 16.15 14.38 15.17 22.46 24.77 29.41z" fill="#ffdec3"/><path d="M872 322.76a5 5 0 01-1 2.56.4.4 0 01-.14.15c-1.41 1-11.1-2.4-14.36-4.2s-11.42-9.65-19.42-11.29-15.28 2.12-16.7 8 3 4.93 8 7.27c8.55 4 31.79-6.6 34.09 8.31l-1.87 2.23s-10.09.29-11.38 0a37.3 37.3 0 00-9.53-2.63c-4-.7-9.29-1.37-16.59-2.15-7.62-.8-17.42-1.74-30.21-3-9.89-.94-55 4.7-70.1 6.59s-38.1 36.63-38.1 36.63c-24 3.29-53.78 6.83-74.82 0l3.86-68.63c42.12 14.44 10.5 11.58 175.85 8 15.31-8.45 24.43-14.36 35.84-17.07 1 0 18.57 1.92 27.17 13.32 11.09 14.67 8.68 11.96 19.41 15.91zm-2.88-16.31c0 7.09 2.59 11.57 2.9 15.1-9.62-6.95-8.64-15-24.77-29.41 1 .06 2 .11 3.06.2 4.6.38 8.11.7 10.8 1.08 0 0 7.65 8.47 8.01 13.03z" fill="#ffdec3"/><path d="M861.11 293.42c11.06 1.56 8 3.94 8 13-.35-4.53-8-13-8-13zm-11.85 42.4c2.74 1.28 4.6 2.94 7.28 5.29-2 2.82-3.42 4.87-3.42 4.87-4.31-.59-8.3-1.14-12-1.62 10-5.24-1.39-11.17-1.39-11.17a37.3 37.3 0 019.53 2.63z" fill="#ffdec3"/><path d="M839.73 333.19s11.42 5.93 1.39 11.17c-5.49-.7-10.4-1.27-14.93-1.65 9.22-6.77-3.07-11.53-3.07-11.53v-.14c7.32.78 12.6 1.45 16.61 2.15z" fill="#ffdec3"/><path d="M650.87 413.92l33.86-42.61s23.06-34.76 38.1-36.63 60.21-7.53 70.1-6.59c12.79 1.21 22.59 2.15 30.21 3v.14s12.29 4.76 3.07 11.53c-25.93-2.21-39.22 1.47-73.72 17.84 0 0 18.17 3.75 4.71 14.61-10.93 1.15-19.57-2.29-26.35-9.44-57.91 123.07-42.94 128.65-136.41 101.6l-30.11-17.87 34.81-66.79.24-.09c10.29 6.71 20.79 12.76 51.49 31.3z" fill="#ffdec3"/><path d="M634.56 128.33c6.9 10 10 18.19 10 30.42 0 11.67-22.4 22.76-24.44 23.74 1.22-7.43-.08-16.12-6.39-26.56-5.13-8.47-9-1.89-19.35 0-16.11 2.92-25.56 35.88-57.38 16 0 0-6.58-9.39-20.71-5.63s-.93 24.46-1.19 26.34-28.91 7.52-28.91 7.52c-19.59-35.81-17.14-40-9.09-82.48 5.65-29.79 45.47-42.95 66.17-45.46s51.73 16.92 70.5 31.03 13.89 15.06 20.79 25.08z" fill="#d6936e"/><path d="M536.37 265.17c-3.87-.11-6.87 4.59-6.87 4.59l-4.69 6.59A55.58 55.58 0 01538 296.1c4.7 12.23-1.89 10.35-22.58 7.53s-66.8-51.74-66.8-51.74l37.63-51.75s28.66-5.64 28.91-7.52-12.91-22.58 1.19-26.34 20.65 5.63 20.65 5.63c31.82 19.9 41.27-13.06 57.38-16 10.35-1.89 14.22-8.47 19.35 0 6.31 10.44 7.61 19.13 6.39 26.56-2.79 17.32-19.17 27.9-17.27 38.36s2.82 5.64 4.38 10.33-2.81 6.6-5.64 6.91c-1.78.2-5.86 3.82-8.63 6.47-2.77-1.51-11.92-6.54-14.8-8.43-3.42-2.24-6.47-.58-7 3.17s10.55 18.28 10.55 18.28l3.66-5.33c1.24 6.53-15 24.47-18.94 25-4.4.63-22.58-8.14-27.6-11.29a4.81 4.81 0 00-2.54-.8zm60.91-57.7c2.71-4.71-3-8-5.71-3.29s2.98 8.01 5.71 3.29z" fill="#ffddc5"/><path d="M599.36 382.57l-.24.09-34.81 66.79 30.11 17.87s0 136.41-11.29 157.1c-6.74 15-166.07.53-163.69-11.29 32.59-162.95-16.18-171 0-268.1 9.4-56.45 29.16-93.14 29.16-93.14s46.11 48.91 66.8 51.74 27.28 4.7 22.58-7.53a55.58 55.58 0 00-13.17-19.75l4.69-6.59 84.27 32.92-3.86 68.63-.43 7.58z" fill="#fff"/><path d="M591.57 204.18c2.73-4.71 8.42-1.42 5.71 3.29s-8.43 1.43-5.71-3.29z" fill="#666"/><path d="M593 244.56l.79.43c-2.26 1.48-2.76 2.24-3.47 2.22.34-.36 1.37-1.4 2.68-2.65z" fill="#ffddc5"/><path d="M585.46 252.25l-3.66 5.33s-11-14.51-10.55-18.28 3.53-5.41 7-3.17c2.88 1.89 12 6.92 14.8 8.43a89.718 89.718 0 00-2.68 2.65c-.88 0-2.1-1.27-7.51-3.8l-.28-.13-3.37-1.79-.24-.12-.26-.15c-.9-.43-.76 0-.23 2.16a8.54 8.54 0 001.45 2.8.47.47 0 01.06.09 16.41 16.41 0 005.61 5.47 1 1 0 00.17.12z" fill="#ffddc5"/><path d="M590.32 247.21l-.13.13-7.66-4.06.28.13c5.41 2.53 6.63 3.77 7.51 3.8z" fill="#fff"/><path d="M583.13 624.42c4.57 0-.44 144.88-9.4 154.29h-143c-3.29-24.46-30.1-111-11.29-165.58-2.38 11.87 156.95 26.31 163.69 11.29z" fill="#a8bac3"/><path d="M579.94 246.3a32.93 32.93 0 005.61 5.47 16.41 16.41 0 01-5.61-5.47zm-.78-4.81l3.37 1.79c-1.53-.75-2.65-1.39-3.37-1.79zm-.5-.27l.26.15a2.06 2.06 0 00-.26-.12z" fill="#ffddc5"/><path d="M578.66 241.25a8 8 0 001.22 5 8.54 8.54 0 01-1.45-2.8c-.53-2.17-.67-2.63.23-2.2z" fill="#fff"/><path d="M419.44 613.13c-18.81 54.58 8 141.12 11.29 165.58h143c9-9.41 14-154.29 9.4-154.29-6.74 15.02-166.07.58-163.69-11.29z" fill="none" stroke="#666" stroke-miterlimit="10" stroke-width="2.58"/><path d="M419.44 613.13c32.59-162.95-16.18-171 0-268.1 9.4-56.45 29.16-93.14 29.16-93.14s46.11 48.91 66.8 51.74 27.28 4.7 22.58-7.53a55.58 55.58 0 00-13.17-19.75l4.69-6.59 84.27 32.92-3.86 68.63-.43 7.58-10.12 3.68-.24.09-34.81 66.79 30.11 17.87s0 136.41-11.29 157.1" fill="none" stroke="#666" stroke-miterlimit="10" stroke-width="2.58"/><path fill="none" stroke="#666" stroke-miterlimit="10" stroke-width="2.58" d="M564.31 449.45l-14.1 16.93-81.85-47.04m95.95-102.54l24.31 58.36m236.84-81.55c-11.41 2.71-20.53 8.62-35.84 17.07-165.35 3.58-133.73 6.44-175.85-8m257.29 22.64a5 5 0 001-2.56 8.14 8.14 0 000-1.21c-.31-3.53-2.9-8-2.9-15.1 0-9.09 3-11.47-8-13-2.69-.38-6.2-.7-10.8-1.08-1-.09-2.06-.14-3.06-.2-8.8-.51-15.62 0-21.76 1.47m44.67 32.62a5.62 5.62 0 00.71-.79m-8.39 8.09l.69-.79m-106.04 42.39c13.46-10.86-4.71-14.61-4.71-14.61 34.5-16.37 47.79-20.05 73.72-17.84 4.53.38 9.44 1 14.93 1.65 3.72.48 7.71 1 12 1.62 0 0 1.37-2.05 3.42-4.87 1.19-1.61 2.59-3.45 4.1-5.32M594.42 467.32c93.47 27.05 78.5 21.47 136.41-101.6 6.78 7.15 15.42 10.59 26.35 9.44m-147.29-3.85h0c21 6.83 50.87 3.29 74.82 0l-33.86 42.61c-30.7-18.54-41.2-24.59-51.51-31.35-11.55-7.57-22.89-16.06-62.34-44.14m113.87 75.49s12.23 9.82 12.85 14.84"/><path d="M839.73 333.19s11.42 5.93 1.39 11.17a1.86 1.86 0 01-.2.1m-17.8-13.28s12.29 4.76 3.07 11.53a3.09 3.09 0 01-.31.23m-289.51-77.77c-3.87-.11-6.87 4.59-6.87 4.59m55.89-17.87a1.91 1.91 0 01.07.36c1.24 6.53-15 24.47-18.94 25-4.4.63-22.58-8.14-27.6-11.29a4.81 4.81 0 00-2.54-.8m-87.78-13.27l37.63-51.75s28.66-5.64 28.91-7.52-12.91-22.58 1.19-26.34 20.67 5.63 20.67 5.63c31.82 19.9 41.27-13.06 57.38-16 10.35-1.89 14.22-8.47 19.35 0 6.31 10.44 7.61 19.13 6.39 26.56-2.79 17.32-19.17 27.9-17.27 38.36s2.82 5.64 4.38 10.33-2.81 6.6-5.64 6.91c-1.78.2-5.86 3.82-8.63 6.47a89.718 89.718 0 00-2.68 2.65m-65.47 29.16s-9.92 8.46-9.67 10.35" fill="none" stroke="#666" stroke-miterlimit="10" stroke-width="2.58"/><path d="M536.38 265.19v0A175.22 175.22 0 01517 243.41m6.86-68.67c2.13 1.64 4.24 7.29 3.53 9.42m-12.25 8.46s2.37 4.47 6.38 5.64m90.07-6.12a17.35 17.35 0 00-17.17-8m254.86 151.68c1.29.26 11.38 0 11.38 0l1.87-2.23c-2.3-14.91-25.54-4.28-34.09-8.31-5-2.34-9.41-1.4-8-7.27s8.7-9.65 16.7-8 16 9.4 19.42 11.29 13 5.18 14.36 4.2a.4.4 0 00.14-.15m-21.9 10.44h.1m-23.8-42.18h0c1 0 18.57 1.92 27.17 13.32 11 14.59 8.61 11.88 19.36 15.83m-24.74-30.62c16.13 14.38 15.15 22.46 24.77 29.41m-10.91-28.13s7.65 8.47 8 13M579.94 246.3a32.93 32.93 0 005.61 5.47m-5.61-5.47a16.41 16.41 0 005.61 5.47m-6.63-10.4l-.26-.15v0a8 8 0 001.22 5m10.31 1.12l-7.66-4.06-3.37-1.79" fill="none" stroke="#666" stroke-miterlimit="10" stroke-width="2.58"/><path d="M620 182.56a.64.64 0 01.15-.07c2-1 24.44-12.07 24.44-23.74 0-12.23-3.14-20.38-10-30.42s-2.09-11-20.79-25.08S564 69.69 543.31 72.2s-60.52 15.67-66.17 45.46c-8.05 42.5-10.5 46.67 9.09 82.48m198.5 171.17s23.06-34.76 38.1-36.63 60.21-7.53 70.1-6.59c12.79 1.21 22.59 2.15 30.21 3 7.3.78 12.58 1.45 16.59 2.15a37.3 37.3 0 019.53 2.63h0c2.74 1.28 4.6 2.94 7.28 5.29" fill="none" stroke="#666" stroke-miterlimit="10" stroke-width="2.58"/><path d="M778 409.08c-3.59 9.69-4.13 26.53-3 18.85.57-4.42 1-11.22 3-18.85z" fill="#f5e0cd"/><path d="M861.43 593.17c20.47 18.66 7.64 69.18 7.64 69.18 1.12 98.64-3.67 105.81-3.88 116.37h42.94a135.23 135.23 0 014.57-29.64c24.3-91.35 15.12-120.9-19.12-173.35-6.52-10-20.6-16.69-21.36-23.47-3.77-33.88 6.8-1.93 22.66-20.85 2.77-3.31 1.71-6.51 3-10.6 2.3-7.39 5-3.88 6.88-11.41 4.67-19-.45-20.43 7.68-22.13 21.41-4.47-12.56-17-3.68-43.18.28-.82-1.24-26.81-1.8-30-5.82 2.88-14 3.3-20.07 3.5 4.57-.18 11.47-4.91 14.16-8.58l-1.87-.54c-19.69 14.41-21-2.57-54.19 36.53a19.48 19.48 0 00-1.21 3.55c-2.14 9.22-5 6.84-2.78 16.42-8.33-9.81-4.14-22.76-11.3-24.44-17.06-4-30.21 20.1-5.61 40.08-2.54 3.65-25 14.77-30.06 14-6.55-21.82-12.17-32.34-15.73-40.45 4.33 16.51 12.3 34.67 22.56 53.87 0 0 8.85 31.84-3.85 47.19-9.6 11.61-15.44 40.74-18.06 52.38-10.64 47.25 10.38 119.09 14.37 171.1h26.88c-.05-1.72-.1-3.54-.17-5.49-14.13-72.15-3.79-106.34-19.41-119.29m95.23-193.26a4.85 4.85 0 01.68-6.11c1.52-1.29.47 7.78-.69 6.13zm6.89-20.51c3 4.33-10.48-3.63-21 5.56 10.66-10.03 20.45-6.31 20.99-5.54z" fill="#f5e0cd" stroke="#666" stroke-linecap="round" stroke-linejoin="round" stroke-width="2.41"/><path d="M896.52 454.57a4.85 4.85 0 00-.68 6.11c1.16 1.65 2.21-7.42.68-6.11z" fill="#666"/><path d="M902.73 440.17c-.54-.77-10.33-4.49-21 5.56 10.52-9.19 24.04-1.23 21-5.56z" fill="#524740"/><path d="M824.08 480.61c-24.6-20-11.45-44.09 5.61-40.08 7.16 1.68 3 14.63 11.3 24.44-2.23-9.58.64-7.2 2.78-16.42A19.48 19.48 0 01845 445c33.18-39.1 34.5-22.12 54.19-36.53l1.81.53c-2.69 3.67-9.59 8.4-14.16 8.58 7.71-.25 19.1-.88 24.36-6.59.18-.22.81 2.49 1 2.31 11.47-4.69 14.93-25.22-48.44-49.84-22-8.54-39.19-2.58-59.33 9.64-25.93 15.73-27.34 39.64-29.47 54.82-3.45 24.62 5.95 23 19.07 66.7 5.04.76 27.51-10.36 30.05-14.01z" fill="#917960" stroke="#666" stroke-miterlimit="10" stroke-width="2"/><path d="M800.61 653.94c15.62 12.95 5.28 47.14 19.41 119.29.07 1.95.12 3.77.17 5.49h45c.21-10.56 5-17.73 3.88-116.37 0 0 12.83-50.52-7.64-69.18" fill="#f5e0cd" stroke="#666" stroke-linecap="round" stroke-linejoin="round" stroke-width="2.41"/><path d="M741.06 356.83v421.89h32.71V356.37c-15.33.29-26.19.93-32.71.46zm32.71-46.53v-80.83h-32.34c.38 11.74.53 40.16.52 81 14.78-.01 24.92-.25 31.82-.17z" fill="#81d0d3" stroke="#666" stroke-miterlimit="10"/><path d="M773.77 360.3H988v-15.8c0-7.44.65-4.73-200.18-28.45 0-7.23-6.43-5.67-45.86-5.54-3 0-10.88-.84-10.88 5.54-.01 50.39-10.39 45.28 42.69 44.25zm-36.23-146.35h39.65v15.52h-39.65z" fill="#81d0d3" stroke="#666" stroke-miterlimit="10"/><path d="M835.44 482.13a12.61 12.61 0 01-12-.65m74.39-26.81c-2 8.8-.38 8-5.87 2 2.07-.88 3.16-2.47 8.52-4" fill="none" stroke="#666" stroke-linecap="round" stroke-linejoin="round" stroke-width="2.41"/><path d="M896.61 460.68a4.86 4.86 0 01.67-6.11c1.53-1.31.52 7.76-.67 6.11z" fill="#666" stroke="#666" stroke-linecap="round" stroke-linejoin="round" stroke-width="1.37" fill-rule="evenodd"/><path d="M892.05 507.35a34.19 34.19 0 0011.2-.1m-75.2-35.37c-15.93-4.87-7.58-30.05-.17-21.69m46.65 125.54c17.81-.94 9.86 5.91 19.21 5.4" fill="none" stroke="#666" stroke-linecap="round" stroke-linejoin="round" stroke-width="2.41"/></svg>