<svg xmlns="http://www.w3.org/2000/svg" viewBox="0 0 1400 780"><path fill="#ece09c" stroke="#666" stroke-linecap="round" stroke-linejoin="round" stroke-width="1.18" d="M0 0h1400v780H0z"/><path d="M858.52 581.87L803 631.73l69.47-26.16a135 135 0 10-14-23.7z" fill="#d4eded" stroke="#666" stroke-linecap="round" stroke-linejoin="round" stroke-width="1.05"/><path d="M610.31 247.65l70.31-63.17-88 33.15a171 171 0 1017.71 30z" fill="#f7f2da" stroke="#666" stroke-linecap="round" stroke-linejoin="round" stroke-width="1.18"/><path d="M831.16 710.4c0-20.22 3.21-9-16.06-51.47H685.26c-29.45 42.46-24.56 30.07-24.56 51.94h170.46" fill="#81d0d3" stroke="#666" stroke-linecap="round" stroke-linejoin="round" stroke-width="1.18" fill-rule="evenodd"/><path fill="#81d0d3" stroke="#666" stroke-linecap="round" stroke-linejoin="round" stroke-width="1.18" d="M830.69 694.35H660.7"/><path d="M454.33 273.63c6.36-6 12.19-3.77 12.51-3.31 2.16 3.04-5.94-2.42-12.51 3.31z" fill="#f4e7d4" stroke="#666" stroke-linecap="round" stroke-linejoin="round" stroke-width="1.43"/><path d="M402 302.51a124.58 124.58 0 01-5.72-13.59c-5.71-17.27-6.17-15.36-1.67-6.21.04.12 7.3 19.59 7.39 19.8zm-11.09-28.76c-1.94-6.93-1.79-13 1.14-20.48-.97 5.24-2.45 15.31-1.14 20.48z" fill="#f4e7d4"/><path d="M466.84 270.32c2.13 3.06-5.91-2.45-12.51 3.31 5.83-5.49 11.9-4.17 12.51-3.31z" fill="#524740"/><path d="M457.4 256.87c2.72-.11 6.84-2.93 8.43-5.12l-1.11-.32c-9.88 7.23-12.87.2-31.45 20.79a5.39 5.39 0 00-1.57 3.1c-1.29 5.48-3 4.07-1.65 9.78-4.92-5.8-2.48-13.57-6.73-14.57-9.85-2.31-18.41 11.66-3.35 23.89-1.69 2.43-17.43 9.9-18 8.09-8.84-28.55-14.69-23.51-9.93-49.24 3.7-20 30.38-36.89 51.56-28.66 37.77 14.67 35.71 26.91 28.87 29.7-.09.11-.46-1.51-.57-1.38-3.13 3.42-9.9 3.78-14.5 3.94z" fill="#917960" stroke="#666" stroke-linecap="round" stroke-linejoin="round" stroke-width="1.43"/><path d="M442.23 361.5c12.2 11.12 4.55 41.22 4.55 41.22s.14 12.18.13 24.72h-34.52c-.32-9.36-.1-24.5-6.4-29.73 6.3 5.23 6.08 20.37 6.4 29.73H395c-3.47-20.74-4.93-44-1.94-57.33 1.57-6.94 5-24.3 10.76-31.21 7.57-9.16 2.3-28.13 2.3-28.13s-1.84-3.45-4-8c3.08.39 16.36-6.19 17.86-8.35-5.32-4.32-9.05-12.3-8.14-16.16 1.23-5.23 6.24-9 11.49-7.73 4.25 1 1.78 8.74 6.73 14.57-2.7-11.62 15.33-26.71 22.77-28.68 11.67-3.08 10.59-5.37 13-4.67-1.59 2.19-5.71 5-8.43 5.12 4.38-.15 8.77-.49 12-2.1.32 1.82 1.25 17.36 1.07 17.89-3.32 9.74 1.64 13.26 5.94 20.35 2.79 6.5-7.06 3.87-6.84 8.3-.72 15.48-4 12.15-5.59 17.07-.76 2.43-.12 4.34-1.78 6.31-5.79 6.93-9.64 2.35-12.81 2.73-3 .34-1.09 6.09-.69 9.7.84 7.51 12.87 2.69 28.34 43.76 4.86 12.89 4.82 28.49 1.8 46.56h-31.93c0-12.54-.13-24.72-.13-24.72s7.65-30.1-4.55-41.22z" fill="#f5e0cd" stroke="#666" stroke-linecap="round" stroke-linejoin="round" stroke-width="1.18"/><path d="M461 310.35a20.52 20.52 0 006.68-.05m-4.13-31.3c-1.17 5.21-.2 4.8-3.5 1.19a22 22 0 015.08-2.38" fill="none" stroke="#666" stroke-linecap="round" stroke-linejoin="round" stroke-width="1.44"/><path d="M462.82 282.6a2.89 2.89 0 01.4-3.64c.91-.78.31 4.63-.4 3.64z" fill="#666" stroke="#666" stroke-linecap="round" stroke-linejoin="round" stroke-width=".81" fill-rule="evenodd"/><path d="M422 289.28c-9.49-2.91-4.51-17.92-.1-12.93m5.68 18.44a7.51 7.51 0 01-7.14-.39" fill="none" stroke="#666" stroke-linecap="round" stroke-linejoin="round" stroke-width="1.44"/><path d="M451.45 351.17l4.05-.22c4.06-.21 2.68 3.69 7.4 3.43" fill="none" stroke="#666" stroke-linecap="round" stroke-linejoin="round" stroke-width="1.43"/><path fill="none" stroke="#e71d26" stroke-miterlimit="10" stroke-width="1.43" d="M335.46 283.05h237.9m-237.9 144.39h237.9"/><path d="M456.07 274.45c5.23-4.93 10-3.1 10.29-2.73 1.49 2.13-5.13-1.72-10.29 2.73z" fill="#524740" stroke="#524740" stroke-linecap="round" stroke-linejoin="round" stroke-width=".67" fill-rule="evenodd"/><path d="M775.63 394.13s-6.29 14.95-6.12 42.09c.2 33.17-13.66 70.5-12.56 78.84 1 7.62-.22 22.67-2.94 27-3.34 5.25-17.52 97.27-7.18 108.43 2.54 2.74 10.14 5.86 14.44 9.06 9.71 7.23 19.48 3.39 21.89 7 3.94 5.94.46 5.56-6.55 7.13s-18.41 5.06-23.94 1.22-15 2-23.27 1.88c-23.21-.38-20.85-3.86-14-25.21 6.66-20.64-7.75-63-.8-94.55 4.74-21.53 3.67-35 2.72-43.88-1.25-11.51 3.93-77.47-3.36-85.2z" fill="#f5e0cd" stroke="#666" stroke-linecap="round" stroke-linejoin="round" stroke-width="1.18" fill-rule="evenodd"/><path d="M725.68 681.92c-13.73-.24-22.54.92-14.23-24.85 7-21.64-8.38-64.73-2-93.89a195.7 195.7 0 004-51.79c-1.83-23.29 2.44-71.44-1.77-80.27-8.24-17.32-1.76-41-2.15-53.46-.2-6.45 3.66-13.76 5.89-17.36 12.23-19.76-11.06-76.07-3.74-108.6 1.28-5.7 4.15-20 8.85-25.67 6.23-7.53 1.89-23.14 1.89-23.14-17.55-32.85-21.49-59.53 16.7-67.2 12.54-2.52 18.41.9 25.64 6.52s10.17 11 10.11 20.21c0 3.56.79 8.11.45 9.12-4.36 12.83 12.3 19 1.8 21.16-4 .84-1.48 1.54-3.76 10.85-.91 3.7-2.25 2-3.38 5.6-.63 2-.11 3.57-1.46 5.19-7.78 9.28-13-6.38-11.11 10.22.37 3.33 7.27 6.61 10.47 11.51 16.78 25.71 21.29 40.2 9.37 85-4.79 18-.7 29.27-.07 44.37.25 5.92-2 16.52-2.36 28.72-1 30.7-9.44 16.13-9.33 47.58.13 33.18-13.66 70.5-12.55 78.84 2.77 20.93-5.23 2.94-13.27 97.66-2.52 29.69.48 34.52 3.16 37.73 23.52 28.16 34 17.16 39.87 25.54 2.91 4.15-1.52 6.39-8.6 7.54-34.18 5.57-34.86-6.9-48.42-7.13z" fill="#f5e0cd" stroke="#666" stroke-linecap="round" stroke-linejoin="round" stroke-width="1.18" fill-rule="evenodd"/><path d="M770.88 689.05c2.14-1.65-2.43-3.15-4.91-4.19m8.9 4.14c1.42-.78 2.1-4.21-3.68-5.61m7.06 4.13c2.31-.56.35-5.4-4.42-6.42m-7.76 8.28a5.86 5.86 0 00-4.84-3.14m23.88-15.49c.39-1.88-1.78-3.23-3.65-3.78s-4.94 0-5.43-1.84" fill="#f5e0cd" stroke="#666" stroke-linecap="round" stroke-linejoin="round" stroke-width="1.18"/><path d="M769.6 176.72c-1 4.32-.19 3.93-2.88 1 1-.43 1.55-1.21 4.18-2" fill="none" stroke="#666" stroke-linecap="round" stroke-linejoin="round" stroke-width="1.18"/><path d="M769 179.67a2.39 2.39 0 01.33-3c.75-.67.26 3.81-.33 3z" fill="#666" stroke="#666" stroke-linecap="round" stroke-linejoin="round" stroke-width=".67" fill-rule="evenodd"/><path d="M762.08 172.34c5.23-4.93 10-3.1 10.29-2.72 1.49 2.12-5.13-1.78-10.29 2.72z" fill="#524740" stroke="#524740" stroke-linecap="round" stroke-linejoin="round" stroke-width=".67" fill-rule="evenodd"/><path d="M766.77 202.55a17 17 0 005.49-.05m-36.87-17.34c-7.81-2.39-3.71-14.73-.08-10.63m4.69 15.16a6.17 6.17 0 01-5.87-.31m24.04 46.69c8.74-.46 4.84 2.9 9.42 2.65" fill="none" stroke="#666" stroke-linecap="round" stroke-linejoin="round" stroke-width="1.18"/><path d="M776.55 155.32c-2.59 2.8-8.12 3.1-11.95 3.23 2.24-.09 5.63-2.41 6.94-4.21l-.91-.27c-9.65 7.07-10.3-1.25-26.57 17.91a9.71 9.71 0 00-.59 1.75c-1.05 4.51-2.45 3.34-1.36 8-4.08-4.81-2-11.15-5.54-12-8.36-2-14.81 9.86-2.75 19.65-1.24 1.79-12.26 7.24-14.74 6.87-6.43-21.44-11-20.62-9.35-32.7.78-5.54 1.07-18.75 14.45-26.87 9.88-6 18.31-8.91 29.09-4.73 31.06 12.07 29.37 22.14 23.74 24.44-.07.15-.38-1.18-.46-1.07z" fill="#917960" stroke="#666" stroke-linecap="round" stroke-linejoin="round" stroke-width="1.18"/><path d="M777.41 362.48c2.09 3.25 2.38 3.78 1 8.65-.42 4.86 1.74 14.52.21 20.66-2.65 10.55-.15 17.09-2.57 43.67.26.5-1.19.39-5.31.39-1.23 4.58.14 4.3-63.94 2.16 2.75-7.79.4-54.88 1.58-63.54.59-4.33 6.49-15.53 7.08-17.11.94-2.5.3-5.88 2.37-6.31v2.16c25.35 8.86 33.1 8.71 59.4 12.2z" fill="#ef9d9c" stroke="#666" stroke-linecap="round" stroke-linejoin="round" stroke-width="1.18" fill-rule="evenodd"/><path d="M770.46 438c.8-25 2.39-22.21 2.6-24.83.24-3-2.93-2.06.77-2.94-.67-2.6 4.42-9 .1-10 1.5-.51 2.05-2.37 2-3.95-.07-2.95-2.13-4.48.68-6.09M754.59 404a26 26 0 0017.88-1.61M742 399.22c5-1.4 18.35 1 24 1.82m4.53 35.2c-.78-8.24-1.62-15-.83-21" fill="#ef9d9c" stroke="#666" stroke-linecap="round" stroke-linejoin="round" stroke-width="1.18"/><path d="M722.31 274.41c7.66 6.35 2.59 23.11 9.52 58.48.47 13.15-.31 15.08-.07 20.89 1.19 29.73 5.73 43.75 6.49 59 .85 16.95-4.32 17.73 2.18 37.42 2.37 7.18.75 9.83 1.17 12.17.91 5.08 2.94 0 3.34 1.18.88 2.53 1.74 4.08 2.95 4.72.62.32 3.3-.26 4-.83 4.49-3.78 4.7-20.7 4.7-26.51s-3.34-12.78-4.52-19.86c-1.92-11.51 5.63-54.41 2.16-82-1.13-8.94 2.33-2.92 1.67-60.52 0 0 6.29-24.76-3.74-33.91" fill="#f5e0cd" stroke="#666" stroke-linecap="round" stroke-linejoin="round" stroke-width="1.18" fill-rule="evenodd"/><path d="M743 464.13c4.92.43 2.29-15.7 1.78-19.05m2.77 23.04c4.68-.52.13-15.46 2.11-21.66m3.55 18.54c1.18-5.5.42-13.88.62-18.66" fill="#f5e0cd" stroke="#666" stroke-linecap="round" stroke-linejoin="round" stroke-width="1.18"/><path d="M697.33 681c6.28 0 11.62 1.1 11.62-3.34V73.46H694c2.15 0-4.59 607.54 3.33 607.54z" fill="#81d0d3" stroke="#666" stroke-linecap="round" stroke-linejoin="round" stroke-width="1.18"/><path d="M689.46 115.73c0 24.85-5.53 20.16 25.9 20.16h91.36v-7.17c0-3.4.3-2.16-91.36-13 0-3.43-3.15-2.53-23.09-2.53a2.69 2.69 0 00-2.81 2.54zm2.96-46.6h18.1v7.08h-18.1z" fill="#81d0d3" stroke="#666" stroke-linecap="round" stroke-linejoin="round" stroke-width="1.18"/><path d="M960.22 520.53c-8.51 24.81 18.9 45.86 18.8 72.75-.08 19.39-20.65 27.23-34.2 17.68-17-12-19.56-44.37-35.33-74.75-12-23.05-9-40-11-44.23-4.6-9.54-1-13.68 1.94-12.4 2.65 1.16 5.53 13.24 5.53 13.24-3.34-13.27-10.5-22-2.88-23.9 4.22-1.05 4.85 6.85 9.26 18.5 0-6.81-11.92-25.23-3.26-27.87 4.88-1.5 7.69 12.88 11 20.42a88.88 88.88 0 01-2.81-10.79c-.86-5-3.22-7.87-3.84-11s.8-6 3.05-6.67c8.66-2.67 8.39 14.71 15.9 26.8-2.66-16.12-6.62-11.42-8.26-22.74-1.13-7.76 9.13-15.14 17.86-6.34 5.44 5.49 1.59 11.86 10.19 24 10.37 14.77 15.01 27.02 8.05 47.3zm-27.96-19.29c4.32 9.34 13.26 10.53 19.74 7.3m-36.77 14.96c9.47-4.38 13.3-14.24 12.23-20.8m72.15 17.83c8.51 24.81-18.9 45.86-18.8 72.75.08 19.39 20.65 27.23 34.21 17.68 17-12 19.55-44.37 35.32-74.75 12-23.05 9-40 11-44.23 4.63-9.6.9-13.65-1.94-12.4-2.65 1.16-5.53 13.24-5.53 13.24 3.34-13.27 10.5-22 2.88-23.9-4.22-1.05-4.85 6.85-9.26 18.5 0-6.81 11.92-25.23 3.26-27.87-4.88-1.5-7.69 12.88-11 20.42a88.88 88.88 0 002.81-10.79c.86-5 3.23-7.87 3.84-11s-.8-6-3.05-6.67c-8.66-2.67-8.39 14.71-15.9 26.8 2.66-16.13 6.62-11.41 8.26-22.74 1.13-7.76-9.13-15.14-17.86-6.34-5.44 5.49-1.59 11.86-10.19 24-10.46 14.85-14.96 27.18-8.05 47.3zm27.96-19.29c-4.32 9.34-13.26 10.53-19.74 7.3m36.77 14.96c-9.47-4.38-13.3-14.24-12.23-20.8" fill="#f4e7d4" stroke="#666" stroke-linecap="round" stroke-linejoin="round" stroke-width="1.05"/></svg>