<svg xmlns="http://www.w3.org/2000/svg" xmlns:xlink="http://www.w3.org/1999/xlink" viewBox="0 0 700 700"><defs><linearGradient id="b" x1="-54.38" y1="184.77" x2="793.29" y2="184.77" gradientUnits="userSpaceOnUse"><stop offset="0" stop-color="#736255"/><stop offset="1" stop-color="#51463d"/></linearGradient><linearGradient id="c" x1="585.13" y1="432.81" x2="793.29" y2="432.81" gradientUnits="userSpaceOnUse"><stop offset="0" stop-color="#84725b"/><stop offset="1" stop-color="#a7957d"/></linearGradient><linearGradient id="a" x1="-102.06" y1="415.67" x2="98.65" y2="415.67" gradientUnits="userSpaceOnUse"><stop offset="0" stop-color="#a7957d"/><stop offset="1" stop-color="#84725b"/></linearGradient><radialGradient id="d" cx="341.89" cy="534.74" r="230.99" xlink:href="#a"/></defs><path stroke="#000" stroke-miterlimit="10" fill="url(#b)" d="M0 131.34l98.65 238.13h486.48L700 165.62V.06H0v131.28z"/><path stroke="#000" stroke-miterlimit="10" fill="url(#c)" d="M585.13 700H700V165.62L585.13 369.47V700z"/><path stroke="#000" stroke-miterlimit="10" fill="url(#a)" d="M0 131.34V700h98.65V369.47L0 131.34z"/><path stroke="#000" stroke-miterlimit="10" fill="url(#d)" d="M98.65 369.47h486.48V700H98.65z"/><path d="M457.52 433.54l2.06 68.62H252.37l1.18-68.61.59-34.12c-.78-36.36 1.65-35.39-7.25-3.24l-14.12-6.33-8.3-3.71 30.11-81c70.15 83 137.76 83.48 202.79 0l31 81.91-9.87 3.7-11.45 4.24-9.58-25.58v29.17l-1 .37z" fill="#ff7d0f"/><path d="M457.47 398.62l9.58-3.59 11.45-4.29s9.17 30.84-.25 36.15c-11.85 6.68-6.48 5-20.73 6.65l-1-34.55z" fill="#eeac7a"/><path fill="#e26003" d="M467.05 395.03l-9.58 3.59v-29.17l9.58 25.58z"/><path d="M448.5 211c19.63 16.52 25.74 42.09 14.42 78.69-67.15 86.49-138.24 89.84-213.8 0-12.08-39.22-5.69-66.82 16.9-83.55 18.51-13.72 47.92-20.15 87-19.69 42.71.55 75.85 8.02 95.48 24.55z" fill="#a44c00"/><path d="M462.91 289.72q-2.3 7.39-5.54 15.41c-65 83.48-132.64 83-202.79 0q-3.2-8-5.47-15.42c75.56 89.85 146.65 86.5 213.8.01z" fill="#8d3c01"/><path fill="#ba4f00" d="M448.07 514.57v67.29h-88.11v-67.29h88.11z"/><path fill="#9f4000" d="M448.07 502.16v12.41H262.11v-12.41h185.96z"/><path d="M426.37 655.36H430c-.7 23 1.66 46.16-3.58 43.84h-50c0-8.3-.79-19.35 2.66-21.89l-.44-21.95h47.81z" fill="#ad9d97"/><path fill="#eeac7a" d="M381.65 592.95h44.72v62.41h-44.72z"/><path fill="#dd854b" d="M381.65 581.86h44.72v11.08h-44.72z"/><path d="M386.09 177.39c0-4.69 7.08-4.69 7.08 0s-7.08 4.68-7.08 0z" fill="#822b06"/><path d="M366 163.52c30.51 3.06 59.94 19.29 82.55 47.5-19.68-16.55-52.82-24.02-95.55-24.55-39-.46-68.45 6-87 19.69 23.21-26 50.94-39.87 78.88-42.65a107.39 107.39 0 0121.12.01zm27.22 13.87c0-4.69-7.08-4.69-7.08 0s7.03 4.68 7.03 0zm-66.75 0c0-4.84-7.31-4.84-7.31 0s7.26 4.83 7.26 0z" fill="#eeac7a"/><path fill="#ba4f00" d="M359.96 514.57v27.44h-10.18v39.85h-87.67v-67.29h97.85z"/><path d="M366 163.52a107.39 107.39 0 00-21.06 0c7.37-12.17 14.36-11.52 21.06 0z" fill="#f2ab80"/><path d="M328.71 677.31c3.45 2.54 2.66 13.59 2.66 21.89h-50c-5.25 2.32-2.87-20.82-3.58-43.84h51.4z" fill="#ad9d97"/><path fill="#eeac7a" d="M282.2 592.95h44.72v62.41H282.2z"/><path fill="#dd854b" d="M282.2 581.86h44.72v11.08H282.2z"/><path d="M319.11 177.39c0-4.84 7.31-4.84 7.31 0s-7.31 4.83-7.31 0z" fill="#822b06"/><path d="M254.14 399.43l-.59 34.12c-14.32-1.7-8.92 0-20.78-6.66-9.43-5.31 0-37 0-37l14.12 6.33z" fill="#eeac7a"/><path d="M254.14 399.43l-7.25-3.24c8.9-32.19 6.47-33.12 7.25 3.24z" fill="#e26003"/><path d="M381.65 655.36h-3.09l.44 21.95c-3.45 2.54-2.66 13.59-2.66 21.89h50c5.24 2.32 2.88-20.82 3.58-43.84h-48.3zm-54.72 0h2.23l-.45 21.95c3.45 2.54 2.66 13.59 2.66 21.89h-50c-5.25 2.32-2.87-20.82-3.58-43.84h49.17zm99.45 0v-73.5h-44.73v73.5m-54.72 0v-73.5H282.2v73.5m44.73-73.5h22.85v-39.85h10.18v39.85h21.69" fill="none" stroke="#000" stroke-miterlimit="10" stroke-width=".87"/><path fill="none" stroke="#000" stroke-miterlimit="10" stroke-width=".87" d="M426.38 581.86h21.69v-79.7H262.11v79.7h20.09m165.87-79.7h11.51l-2.06-68.62-1-34.55 1-.37 9.58-3.59 11.45-4.29 9.87-3.7-31-81.91c-65 83.48-132.64 83-202.79 0l-30.11 81 8.3 3.71 14.12 6.33 7.25 3.24-.59 34.12-1.18 68.61h9.74"/><path d="M232.77 389.86s-9.43 31.72 0 37c11.86 6.69 6.46 5 20.78 6.66m224.95-42.78s9.17 30.84-.25 36.15c-11.85 6.68-6.48 5-20.73 6.65h0m5.39-143.82q-2.3 7.39-5.54 15.41m-202.79 0q-3.2-8-5.47-15.42c-12.08-39.22-5.69-66.82 16.9-83.55 18.51-13.72 47.92-20.15 87-19.69 42.76.49 75.9 8 95.53 24.55s25.74 42.09 14.42 78.69" fill="none" stroke="#000" stroke-miterlimit="10" stroke-width=".87"/><path d="M264.05 208.38c.65-.75 1.3-1.49 2-2.22 23.21-26 50.94-39.87 78.88-42.65a107.39 107.39 0 0121.06 0c30.51 3.06 59.94 19.29 82.55 47.5.59.72 1.16 1.44 1.72 2.18" fill="none" stroke="#000" stroke-miterlimit="10" stroke-width=".87"/><path d="M344.88 163.53s0 0 0 0c7.42-12.16 14.41-11.49 21.06 0h0m27.23 13.86c0 4.68-7.08 4.68-7.08 0s7.08-4.69 7.08 0zm-66.75 0c0 4.83-7.31 4.83-7.31 0s7.31-4.84 7.31 0zm136.49 112.33l.01-.01" fill="none" stroke="#000" stroke-miterlimit="10" stroke-width=".87"/></svg>