<svg xmlns="http://www.w3.org/2000/svg" viewBox="0 0 700 700"><path fill="#f5e0cd" d="M0 0h700v700H0z"/><path d="M479.13 158.45c-2.26 2.55-11.35 28.71 17.61 24.18s61-17.29 61-17.29l21.66-26.64c-24.62 9.44-52.51 22.37-80.59 17.23-6.81-1.25-13.3-.01-19.68 2.52z" fill="#dad0c7"/><path d="M541.9 173.83q26.7-10.72 31.05-29.19c-8 11.93-20.23 19.29-35.33 23.59z" fill="#d1c3ba"/><path d="M377.05 520.08c-74.19-57.81-139-115-173-170L188 358.31l182.87 194.1 20-21.64q-7-5.34-13.82-10.69" fill="#cfc1b8"/><path d="M360.58 544c-58.82-18.94-115.07-97.14-176.65-172.9l-13 13.24 33.57 41.89C324.86 550.3 315.87 539 379.13 572.92c-7.7-9.12-12.37-19.55-18.28-29z" fill="#dad0c7"/><path d="M574.05 142.36c-2.2 8-5.22 11.92-12.76 18.49s-8.66 7.53-15.7 8.94l-35.78 20.52C388.51 477.05 386.32 493.48 355.27 512c-16.93 13.76-4.83 22-17.8 38 9.47 5.94 18.24 13.27 29.16 18.09l3.83.15C428 455.05 401.35 514.86 490 295.9l44.5-87.9c27.52 21.3 50.33 42.42 63.52 63.17 42.19-54.85 50.16-109.1 31-162.87z" fill="#dad0c7"/><path d="M361.72 591.73c9.79-3.81 12.95 2.14 20.26-5.55S471.6 377 521.2 246.64c0 0 24-26.26 30-28.47s14.89-6.3 7.58-20.8c-5.24-8.37-10.94-17.67-23.32-15.25s-.81 14.68-4.67 27.47S499 261.65 499 261.65l-26.92 52.77s-56.63 165.18-68.5 186.11-32.85 62.62-42.41 64.91" fill="#ccbcaf"/><path d="M373.11 567.61C326 557.18 149.9 373.45 174.51 380.07l-10.39 6.71c-3.75 3.53 184.23 203.84 197.67 205" fill="#ccbcaf"/><path d="M432.67 315.23l1.89 2.52c21.58-13.31 102.3-62.23 87.17-43.54-24.09 24.63-48 46.11-71.77 64.05l2.77 3.69c33.13-24 66.53-53.57 100.17-88 19.98-24.66-91.84 43.57-120.23 61.28z" fill="#eb7979"/><path d="M434.56 317.75l1.73 2.3c16-9.74 69-41.7 57.88-27.86a545 545 0 01-46.57 42.92l2.36 3.15c23.75-17.94 47.68-39.42 71.77-64.05 15.13-18.69-65.59 30.23-87.17 43.54z" fill="#f36466"/><path d="M436.29 320.05l1 1.33c12.23-7.52 49.49-30.56 41.22-19.82-31.24 33.33-34.09 29.32-30.91 33.55a545 545 0 0046.57-42.92c11.18-13.87-41.8 18.1-57.88 27.86z" fill="#eb7979"/><path d="M437.29 321.38L446 333a441.62 441.62 0 0032.48-31.47c8.32-10.73-28.94 12.31-41.19 19.85z" fill="#f57f7f"/><path d="M490.87 162.91c-15.49 15.56-26.7 36.56-34.84 60.48l21.43-11.72L504 167.61c-2.58-5.05-6.57-7.34-13.13-4.7z" fill="#fec1c0"/><path d="M540.21 175.34c.08-12.24-8-18.55-24.52-18.79-10.86 24.14-26.06 44.15-43.82 61.74l18.37 14.22c14.05-24.73 30.23-44.82 49.97-57.17zm-203.9 322.74c13.52-16.57 26.37-35.75 38.63-57.25l-19.75-4.1c-5.15 18.94-17.28 30.65-33.93 37.68-.09 10.85 4.55 18.96 15.05 23.67z" fill="#fec1c0"/><path d="M350.41 447.57c-2.12-11.49 4-26.51 2.3-37.68-6.18-39.35-17.56-71.16-9-89.67 12.09-37 33.71-64 63.47-82.48 33.63-13.46 65.67-25.75 83.93-39.38 12.4-3.92 18.47-.18 13.66 9.64-11.19 18.8-21.79 47.57-26.52 84.17-16.43 87.69-62.38 83-115.6 166.65-6.34 2.97-10.39-1.16-12.24-11.25z" fill="#eb4545"/><path d="M357.64 436.4c-1.92-10.43 3.68-24.06 2.09-34.18-5.61-35.69-15.93-64.56-8.15-81.34 11-33.57 30.57-58.07 57.57-74.83 30.51-12.2 59.1-24.43 75.66-36.8 11.25-3.55 14-.34 9.66 8.58-10.15 17-16.56 44.4-20.85 77.6C458.71 375 417 370.7 368.75 446.6c-5.75 2.69-9.42-1.06-11.11-10.2z" fill="#f36466"/><path d="M362.16 428.56c-1.8-9.55 3.15-22 1.64-31.26-5.31-32.7-14.82-59.19-7.92-74.5 9.65-30.63 27.16-52.91 51.4-68.06 27.43-11 53.13-21.94 68-33.14 10.12-3.17 12.65-.21 8.78 7.91-9 15.54-14.63 40.52-18.26 70.87-12.89 72.7-50.51 68.47-93.52 137.6-5.2 2.42-8.53-.98-10.12-9.42z" fill="#eb7979"/><path d="M369.44 410.63c-1.55-8.21 2.69-18.89 1.39-26.86-4.57-28.09-12.75-50.84-6.83-64 8.27-26.31 23.28-45.44 44.07-58.44 23.54-9.39 45.59-18.82 58.32-28.43 8.68-2.72 10.86-.18 7.54 6.8-7.75 13.34-12.53 34.79-15.64 60.86C447.28 363 415 359.4 378.11 418.72c-4.44 2.08-7.31-.89-8.67-8.09z" fill="#f89899"/><path d="M379.1 394.45c-1.37-7 2.1-16.06.94-22.86C376 347.62 369 328.17 373.8 317c6.7-22.35 19.11-38.52 36.4-49.42 19.61-7.82 38-15.67 48.56-23.75 7.24-2.25 9.08-.06 6.36 5.86-6.37 11.3-10.2 29.53-12.58 51.71-8.71 53.1-35.76 49.74-66.12 100-3.7 1.75-6.12-.8-7.32-6.95z" fill="#f57f7f"/><path d="M373.32 397.84c-1.17-5.55 1.9-13.14.92-18.54-3.46-19-9.55-34.18-5.26-43.58 15.14-47.2 48.62-45.17 74.77-65.91 6.36-2.39 8-.77 5.56 4.22-5.63 9.64-9.06 24.68-11.23 42.78-7.84 43.55-31.56 43.06-58.37 86.07-3.25 1.7-5.36-.17-6.39-5.04z" fill="#fe9a9c"/><path d="M553.2 253.66c9.56-7.81 20.27-14.94 28-18.55.81-5.08-1.18-7.83-6.94-7.46L548.13 250c-.2 3.61 1.02 5.4 5.07 3.66z" fill="#fec1c0"/><path d="M354.19 537c7.22 2.91 16.24-20.79 9-23.7s-16.19 20.76-9 23.7zm125.93-365.42c3.72 1.5 8.58-11.26 4.86-12.77s-8.58 11.27-4.86 12.77z" fill="#efeae6"/><path d="M215.31 337.88c18-33.75 13.71-59.7-20.5-75.22l-.82 2.6c-5.74-4-13-4.78-21.23-3.56 4.59-9.11 5.83-18.23 3.54-27.35-15.88-14.2-38.55-15.75-63.76-5.42-36.81 15.09-60.65 80.71-48 111 7.74 8.07 34 56.48 91.17 46.55 12.06 15.41 24.37 27.61 37.56 28.43l47.54-50.87z" fill="#2c7dbf"/><path d="M139.69 398.07l34.18 37.65 19.43-20.78c-13.19-.82-25.5-13-37.56-28.43-35 6.08-91.17-46.55-91.17-46.55 9.6 22.97 35.07 42.24 75.12 58.11z" fill="#13519e"/><path d="M168.43 379.94c19.53-12.65 37.07-25.79 45.3-41.29l10.56 9.13c-14.59 14.4-34.06 24.35-55.86 32.16z" fill="#1355a3"/><path d="M167.13 336.46l9.48-25.46c-18.77 10.54-29.82 6.46-35.92-7l4.22 12.08c-1.32 3.09-5.89 8-10.11 12.64l13.2-7.53c5.93 2.48 12.14 1.86 18.5-.45z" fill="#0e4899"/><path d="M172.76 261.7c8.24-1.22 15.49-.41 21.23 3.56l.82-2.6c-3.1-1.4-4.48-15.76-18.51-28.31 2.29 9.12 1.05 18.24-3.54 27.35z" fill="#1a5ca6"/><path d="M128.81 238.91c-3.65-3.61-22.55 2.93-37.19 18.32s-19 34.16-15.31 37.77 13.25-13.32 27.88-28.7 28.27-23.79 24.62-27.39zM158.49 274c-2.05-1-8.66 3.25-12.13 10.51s-2.23 14.82-.18 15.85 3.24-6.33 6.72-13.59 7.64-11.77 5.59-12.77z" fill="#4ba2d8"/><path d="M440.23 234.13c-13.09-7.62-56.17 14-79.41 55.73s-16.13 88.55-3 96.17 16.06-49 39.29-90.79 56.22-53.49 43.12-61.11z" fill="#fff" opacity=".39"/><path d="M373.84 317.53c-4.69-1-15.63 9.79-18.65 24.81s3.61 28.59 8.3 29.62 3.05-13.2 6.07-28.21 8.96-25.19 4.28-26.22zM442 504.28c3.95 1.32 21.83-30.79 34.6-71.6s15.08-74.86 11.13-76.18-11.63 36-24.4 76.8S438 503 442 504.28z" fill="#fff" opacity=".41"/><path d="M477.57 408c1.66.31 6.22-8.33 8.11-19.23s.17-19.94-1.49-20.26-1.81 9.62-3.69 20.53-4.59 18.6-2.93 18.96zm32.3-122.37c1.15 1.26 9.92-2.91 17.84-10.5s11.82-15.84 10.66-17.09-7.1 6.61-15 14.2-14.66 12.14-13.5 13.39z" fill="#fff" opacity=".41"/><path d="M406.75 539.77c26.77-95.93 55.07-181.36 86.75-243.69 4.26-3.93 7.09-3.66 7.77 2.85C500 412.77 474.38 497.63 415.52 543c-4.71 2.46-8.4 2.89-8.77-3.23z" fill="#eb7979"/><path d="M416.61 520.14c21.16-75.81 43.52-143.32 68.55-192.57 3.38-3.11 5.61-2.9 6.15 2.25-1 90-21.25 157-67.77 192.89-3.72 1.93-6.63 2.29-6.93-2.57z" fill="#f36466"/><path d="M423.84 508.63c16.58-60.33 34.14-114 53.86-153.22 2.66-2.46 4.43-2.29 4.87 1.81-.57 71.65-16.47 125-53.23 153.47-2.94 1.53-5.25 1.8-5.5-2.06z" fill="#eb7979"/><path d="M431.16 497.61C441.67 456 473.88 349.34 476.92 372c.93 58.36-11.21 102.43-41.16 127.05-2.41 1.38-4.32 1.69-4.6-1.44z" fill="#f57f7f"/><path d="M393 573.69c11.32-6.85 20.4-20.61 28.25-38.17l-13.39.32c-4.5 11.58-12.59 19.93-23.36 25.88.22 7.89 2.62 12.52 8.5 11.97zM502.08 261.5c-4.39 9.43-7.45 20.68-8.58 34.58a12.24 12.24 0 007.73 6.41 152.07 152.07 0 0116.56-34.93c-4.42-7.38-9.69-9.18-15.71-6.06z" fill="#fec1c0"/></svg>