<svg xmlns="http://www.w3.org/2000/svg" viewBox="0 0 1400 780"><path fill="#d7d6cb" d="M0 0h1400v780H0z"/><path fill="none" stroke="#4e4eaf" stroke-linecap="round" stroke-linejoin="round" stroke-width="3" d="M823.3 455.53L701.62 717.08m116.37-376.54L701.62 515.66m112.07-299.12l-112.07 89.81m0 90.79l113.62-128.83m-3.73-163.18l-109.89 21.54m109.91 10.44c-146.42 57.39-146.73 57.51.17-.07m-110.08 98.58l109.89-65.38M701.62 62.63h109.89"/><path fill="none" stroke="#af4e4e" stroke-linecap="round" stroke-linejoin="round" d="M588.54 62.92v6"/><path fill="none" stroke="#af4e4e" stroke-linecap="round" stroke-linejoin="round" stroke-dasharray="11.73 11.73" d="M588.54 80.64v463.22"/><path fill="none" stroke="#af4e4e" stroke-linecap="round" stroke-linejoin="round" d="M588.54 549.72v6m222.89-492.8v6"/><path fill="none" stroke="#af4e4e" stroke-linecap="round" stroke-linejoin="round" stroke-dasharray="11.73 11.73" d="M811.43 80.64v463.22"/><path fill="none" stroke="#af4e4e" stroke-linecap="round" stroke-linejoin="round" d="M811.43 549.72v6"/><path fill="none" stroke="#4e4eaf" stroke-linecap="round" stroke-linejoin="round" stroke-width="3" d="M575.96 453.71l122.66 263.66M581.58 339.82l117.04 176.12m-112.43-299.4l112.43 90.09m0 90.8l-114.31-129.6m4.42-162.41l109.89 21.53M588.71 137.4c146.41 57.38 146.73 57.51-.17-.07m110.08 98.58l-111.68-66.44M698.62 62.92H588.73"/><path d="M811.51 63.06c0 211 14.37 429 14.37 429" fill="none" stroke="#ed1c24" stroke-linecap="round" stroke-linejoin="round" stroke-width="3"/><path d="M840.28 63.06c0 211 38 429 38 429s-1-14.64 8.47-38.35" fill="none" stroke="#ed1c24" stroke-linecap="round" stroke-linejoin="round"/><path d="M588 63.06c0 211-14.37 429-14.37 429" fill="none" stroke="#fd0000" stroke-linecap="round" stroke-linejoin="round" stroke-width="3"/><path d="M811.7 195.28q-17.73 4.91-21.64-9.8m21.37-28.25q-17.73 4.89-21.63-9.81m21.9-26.94q-17.73 4.9-21.64-9.81m21.37 137.56q-17.73 4.91-21.63-9.81m26.83 62.75q-17.73 4.9-21.63-9.8M818.69 384q-17.73 4.9-21.63-9.81M586.55 195.28q17.73 4.91 21.64-9.8m-21.37-28.25q17.73 4.89 21.64-9.81m-21.91-26.94q17.73 4.9 21.64-9.81m-21.37 137.56q17.73 4.91 21.64-9.81m-26.84 62.75q17.73 4.9 21.63-9.8M579.56 384q17.73 4.9 21.63-9.81" fill="none" stroke="#af4e4e" stroke-linecap="round" stroke-linejoin="round"/><path d="M878.23 492.06s-5-24.17-14.37-31.75M559.72 63.06c0 211-38 429-38 429s1-14.64-8.47-38.35m8.52 38.35s5-24.17 14.37-31.75" fill="none" stroke="#ed1c24" stroke-linecap="round" stroke-linejoin="round"/></svg>