<svg xmlns="http://www.w3.org/2000/svg" viewBox="0 0 1400 780"><path fill="#d7d6cb" d="M0 0h1400v780H0z"/><path fill="none" stroke="#00f" stroke-linecap="round" stroke-linejoin="round" d="M839.25 424.35L700.78 722.01M839.25 411.5L700.78 619.88m0-60.09l138.47-157.01-138.47 110.97m0-35.86l138.47-82.38h0l-138.47 27.14m138.47-67L700.78 57.99M839.25 368.5L700.78 160.12m0 60.09l138.47 157.01-138.47-110.97m0 35.86l138.47 82.38h0l-138.47-27.14m138.47 32.83H700.78m-140.03 34.17l138.47 297.66M560.75 411.5l138.47 208.38m0-60.09L560.75 402.78l138.47 110.97m0-35.86l-138.47-82.38h0l138.47 27.14m-138.47-67L699.22 57.99M560.75 368.5l138.47-208.38m0 60.09L560.75 377.22l138.47-110.97m0 35.86l-138.47 82.38h0l138.47-27.14m-138.47 32.83h138.47"/><path fill="none" stroke="red" stroke-linecap="round" stroke-linejoin="round" stroke-width="3.45" d="M756.5 173.02v433.96M645.47 173.02v433.96"/></svg>