<svg xmlns="http://www.w3.org/2000/svg" viewBox="0 0 1400 780"><path fill="#d7d6cb" stroke="#000" stroke-linecap="round" stroke-miterlimit="10" stroke-width="1.5" d="M0 0h1400v780H0z"/><path fill="#fefefe" d="M818.07 208.18l1-9.3 73.88 224.09-51.83 19.55-36.92-104.97 2.11-19.71 2.47-22.93 2.43-22.73 2.24-20.83 2.27-21.24 2.35-21.93zM807 607q.28 5.76.6 11.54a74.66 74.66 0 01-24.6 10.61l-.05-.19L807 607z"/><path d="M761.85 632.33a185.22 185.22 0 01-23 0l66.41-60.59Q806 589.29 807 607l-24.1 22 .05.19a122.46 122.46 0 01-21.1 3.14z" fill="#fefefe"/><path d="M805.28 571.78l-66.41 60.59c-5.06-.28-10.22-.75-15.44-1.39 2.2.27 4.39.5 6.57.71q.53-6.13 1-12.3h.13l73.32-66.89q.42 9.61.83 19.28z" fill="#fefefe"/><path d="M804.49 552.51l-73.32 66.89H731q.88-10.53 1.79-21.14l71-64.74q.34 9.48.7 18.99z" fill="#fefefe"/><path d="M803.81 533.51l-71 64.74q1.19-14.25 2.48-28.69l67.71-61.8q.37 12.79.81 25.75zm15.26-334.63l-1 9.3-39.73-43.55c11.83 4.05 24.03 11.45 40.73 34.25z" fill="#fefefe"/><path d="M818.07 208.18l-2.35 21.93-1.28-.14-50.22-55.05h-.47q.06-8-.14-14.35l-3.08-1c6.18 1.83 12 3 17.81 5zM803 507.76l-67.74 61.8 1.72-20.14 65.6-59.85q.22 9.05.42 18.19z" fill="#fefefe"/><path d="M815.72 230.11l-2.27 21.24-50.15-55c.25-7.88.41-15.06.45-21.46h.47L814.44 230zm-13.1 259.46L737 549.42l1.83-21.35 63.45-57.88q.15 9.65.34 19.38z" fill="#fefefe"/><path d="M813.45 251.35l-2.24 20.83-48.82-53.5c.39-7.94.69-15.39.92-22.3zm-11.16 218.84l-63.45 57.88q.92-10.7 1.82-21.35h.2l61.23-55.86q.07 9.62.2 19.33zm8.92-198.01l-2.43 22.73-47.67-52.24q.74-12.61 1.27-24z" fill="#fefefe"/><path d="M802.1 450.87l-61.23 55.86h-.2q1-11.75 2-23.41L802 429.16q0 10.79.1 21.71zm6.68-155.96l-2.47 22.93-46.58-52.59q.76-11.72 1.39-22.58z" fill="#fefefe"/><path d="M802.05 429.16l-59.36 54.15q1.08-12.85 2.16-25.57l57.4-52.36q-.18 11.81-.2 23.78zm4.26-111.32l-2.11 19.71-52.55 47.94-.85-.07q.74-9 1.42-17.77l.68.05z" fill="#fefefe"/><path d="M759.73 265.25l46.58 52.59-53.41 49.86-.68-.05q.81-10.14 1.58-20h.49L788 316.91l-29.55-32.4q.67-9.88 1.28-19.26zm42.49 140.13l-57.4 52.36q1-11.83 2-23.54l.52.05 55.28-50.43q-.26 10.7-.4 21.56z" fill="#fefefe"/><path d="M802.6 383.82l-55.28 50.43-.52-.05q.94-11.46 1.88-22.74l.81.06 53.56-48.85h.14q-.34 10.5-.59 21.15z" fill="#fefefe"/><path d="M803.19 362.68h-.14l-53.56 48.85-.81-.06q1.1-13.18 2.12-26l.85.07 52.55-47.94q-.6 12.4-1.01 25.08zm-44.74-78.17l29.55 32.4-33.71 30.76h-.49q.93-12.18 1.82-23.91h.21l10.36-9.45-9.13-10q.74-10.08 1.39-19.75z" fill="#fefefe"/><path d="M766.19 314.28l-10.36 9.45h-.21q.75-9.9 1.43-19.46z" fill="#fefefe"/><path d="M732.83 598.25q-.9 10.61-1.79 21.14-.52 6.17-1 12.3c-2.18-.21-4.37-.44-6.57-.71l-1.35-.16q-3.45-.44-6.93-1l1.75-20.67c14.63-172.34 31.7-361.1 32.18-438.29 0-5.85 0-11.05-.19-15.56l.54.23a86 86 0 0011.1 4l3.08 1q.2 6.35.14 14.35c0 6.4-.2 13.58-.45 21.46-.23 6.91-.53 14.36-.92 22.3q-.54 11.35-1.27 24-.63 10.86-1.39 22.58-.6 9.38-1.28 19.26-.66 9.66-1.39 19.75-.69 9.56-1.43 19.46-.87 11.73-1.82 23.91-.76 9.87-1.58 20-.69 8.79-1.42 17.77-1 12.85-2.12 26-.93 11.28-1.88 22.74-1 11.69-2 23.54-1.07 12.7-2.16 25.57-1 11.65-2 23.41-.92 10.65-1.82 21.35L737 549.42q-.87 10.07-1.72 20.14-1.28 14.38-2.45 28.69z" fill="#fefefe"/><path d="M749.08 170.9c-.48 77.19-17.55 266-32.18 438.29l-28.53-1.3c1.21-173 1.49-362.49 8.08-439.41 15.61 5.16 36.59 6.12 52.62 2.42z" fill="#d1d3d2"/><path d="M749.08 170.9c-16 3.7-37 2.74-52.62-2.42.5-5.82 1-11 1.61-15.48a116.06 116.06 0 0050.83 2.34c.16 4.51.22 9.71.18 15.56z" fill="#fefefe"/><path d="M673.69 566.73q.06-10.1.13-20.21.07-10.71.13-21.42t.14-21.44q.09-11.78.15-23.49l.2-25.66q.07-11.88.18-23.62.11-11.5.21-22.82.12-13.23.27-26.12.09-9 .21-17.83.12-10.17.26-20.08.18-12.21.38-24 .16-9.93.36-19.5.2-10.11.42-19.8.22-9.9.49-19.29.31-11.73.69-22.62c.28-8.41.59-16.43.93-24 .34-7.93.72-15.38 1.12-22.29.47-7.86 1-15 1.51-21.41q.69-8 1.46-14.27l3.15-.67a87.64 87.64 0 0011.43-3l.55-.19c-.58 4.48-1.11 9.66-1.61 15.48-6.59 76.92-6.87 266.44-8.08 439.41q-.06 10.41-.15 20.74c-2.34.13-4.67.24-7 .31h-1.35c-2.22.07-4.42.1-6.61.11q0-6.17.09-12.35.07-10.56.15-21.21.1-14.31.19-28.76z" fill="#fefefe"/><path d="M673.27 629.09c2.19 0 4.39 0 6.61-.11-5.26.16-10.44.15-15.51 0l-60.58-66.41q1.29-9.59 2.55-19.12l66.89 73.32h.13q-.04 6.16-.09 12.32z" fill="#fefefe"/><path d="M673.36 616.74h-.13l-66.89-73.32q1.24-9.45 2.42-18.86l64.74 71q-.06 10.61-.14 21.18zm.15-21.21l-64.74-71q1.62-12.85 3.12-25.57l61.8 67.74-.18 28.83z" fill="#fefefe"/><path d="M673.69 566.73L611.89 499q1.08-9.08 2.09-18.07l59.85 65.6-.14 20.2z" fill="#fefefe"/><path d="M673.82 546.52L614 480.92q1.1-9.69 2.1-19.27L674 525.1q-.11 10.7-.18 21.42zm.18-21.42l-57.88-63.45q1-9.66 1.95-19.23l55.86 61.23h.2q-.13 10.71-.13 21.45z" fill="#fefefe"/><path d="M674.09 503.66h-.2L618 442.43q1.1-10.86 2-21.61l54.15 59.36q.02 11.69-.06 23.48zm.15-23.49l-54.15-59.36q1.08-11.93 2-23.7l52.37 57.4q-.12 12.75-.22 25.66z" fill="#fefefe"/><path d="M674.44 454.51l-52.37-57.4q.85-10.82 1.6-21.5l50.43 55.28h.52l-.18 23.62z" fill="#fefefe"/><path d="M674.62 430.89h-.52l-50.43-55.28q.72-10.62 1.34-21.1h.15L674 408.06h.82l-.2 22.83z" fill="#fefefe"/><path d="M674.83 408.07H674l-48.85-53.54H625q.75-12.67 1.3-25.12l47.94 52.55h.85q-.09 12.88-.26 26.11zM641.5 626.81a121.33 121.33 0 01-20.73-5.1l.07-.19-22-24.06q2.54-17.57 4.91-34.92L664.37 629a183.78 183.78 0 01-22.87-2.19z" fill="#fefefe"/><path d="M675.1 382h-.85l-47.94-52.55-.31-21.25 48.64 55.91h.68q-.11 8.83-.22 17.89z" fill="#fefefe"/><path d="M675.31 364.12h-.68L626 308.2l51.22-46.73q-.27 9.39-.49 19.29l-32.39 29.56L675.08 344h.49q-.13 9.94-.26 20.12z" fill="#fefefe"/><path d="M675.57 344h-.49l-30.75-33.72 32.39-29.56q-.22 9.67-.42 19.8l-10 9.14 9.45 10.36h.25q-.26 11.8-.43 23.98zm10.51-187.8l-3.15.67q-.78 6.3-1.46 14.27h-.46l-55 50.22h-1.29l-.33-22.06 43.55-39.73c5.96-1.46 11.82-2.12 18.14-3.37z" fill="#fefefe"/><path d="M676 320.06h-.21l-9.45-10.36 10-9.14q-.22 9.57-.34 19.5zm5-148.95h.46c-.54 6.38-1 13.55-1.51 21.41l-55 50.16-.32-21.36h1.29zm-3.78 90.36L626 308.2l-.34-21.69 52.25-47.66q-.37 10.88-.69 22.62z" fill="#fefefe"/><path d="M677.91 238.85l-52.25 47.66-.34-22.85 53.51-48.82c-.33 7.58-.64 15.6-.92 24.01z" fill="#fefefe"/><path d="M625 242.71l55-50.16c-.4 6.91-.78 14.36-1.12 22.29l-53.51 48.82zm42.89-83.15l-43.55 39.73-.15-9.35c18.72-21.17 31.55-27.42 43.7-30.38zm-47.05 461.96l-.07.19a74.53 74.53 0 01-23.55-12.82q.84-5.73 1.66-11.43z" fill="#fefefe"/><path fill="#fefefe" d="M625.65 286.51l.34 21.69.32 21.19-46.37 101.16-49.83-24.22 94.08-216.39.15 9.35.33 22.06.32 21.36.32 20.95.34 22.85z"/><path d="M722.08 630.82l1.35.16c5.22.64 10.38 1.11 15.44 1.39a185.22 185.22 0 0023 0 122.46 122.46 0 0021.1-3.18 74.66 74.66 0 0024.63-10.61q-.32-5.79-.6-11.54-.93-17.71-1.7-35.22-.42-9.66-.79-19.27t-.68-19q-.45-12.94-.77-25.75-.24-9.15-.42-18.19-.21-9.74-.33-19.38t-.19-19.32q-.08-10.92-.05-21.71 0-12 .17-23.78.13-10.86.38-21.56t.59-21.14q.42-12.68 1-25.13l36.92 105L893 423l-73.93-224.12c-16.7-22.8-28.9-30.2-40.73-34.25-5.86-2-11.63-3.19-17.81-5a86 86 0 01-11.1-4" fill="none" stroke="#000" stroke-linecap="round" stroke-miterlimit="10" stroke-width="1.37"/><path d="M763.75 174.92q.06-8-.14-14.35l-3.08-1c-6-1.92-9.77-3.47-11.1-4l-.54-.23c.17 4.51.23 9.71.19 15.56-.48 77.19-17.55 266-32.18 438.29q-.89 10.38-1.75 20.67 3.48.52 6.93 1l1.35.16c2.2.27 4.39.5 6.57.71q.53-6.13 1-12.3.88-10.53 1.79-21.14 1.21-14.29 2.5-28.73l1.72-20.14 1.83-21.35q.92-10.7 1.82-21.35 1-11.75 2-23.41 1.08-12.85 2.16-25.57 1-11.83 2-23.54.94-11.46 1.88-22.74 1.1-13.18 2.12-26 .74-9 1.42-17.77.81-10.14 1.58-20 .93-12.18 1.82-23.91.75-9.9 1.43-19.46.74-10.08 1.39-19.75.67-9.88 1.28-19.26.76-11.72 1.39-22.58.74-12.61 1.27-24c.39-7.94.69-15.39.92-22.3.23-7.93.39-15.11.43-21.51zm-12.1 210.57l52.55-47.94 2.11-19.71 2.47-22.93 2.43-22.73 2.24-20.83 2.27-21.24 2.35-21.93 1-9.3m-16.02 163.79l-53.56 48.85m53.11-27.7l-55.28 50.43" fill="none" stroke="#000" stroke-linecap="round" stroke-miterlimit="10" stroke-width="1.37"/><path fill="none" stroke="#000" stroke-linecap="round" stroke-miterlimit="10" stroke-width="1.37" d="M802.22 405.38l-57.4 52.36-.47.43m57.69-29.01l-59.36 54.15m59.41-32.44l-61.23 55.86m61.43-36.54l-63.45 57.88-.55.5m64.32-39l-65.6 59.85m66.02-41.66l-67.75 61.8-.33.31m68.85-36.36l-70.96 64.74-.46.41m72.11-46.15l-73.32 66.89m74.11-47.62l-66.41 60.59-.65.59m67.99-41.11l-44.36 40.48-.38.35m45.5-25.68l-24.07 21.96m-21.79-386.29l47.67 52.24.16.18m-46.55-76.41l48.82 53.5.05.06m-48.02-75.93l.06.07 50.15 54.97.01.02m-49.24-76.45l50.22 55.05m-36.26-65.51l.16.17 39.73 43.55.15.16m-58.49 56.91l46.58 52.59-53.41 49.86"/><path fill="none" stroke="#000" stroke-linecap="round" stroke-miterlimit="10" stroke-width="1.37" d="M758.45 284.51l29.55 32.4-33.71 30.76"/><path fill="none" stroke="#000" stroke-linecap="round" stroke-miterlimit="10" stroke-width="1.37" d="M757.06 304.26l9.13 10.02-10.36 9.45m-74.6 305.21h-1.35c-5.26.16-10.44.15-15.51 0a183.78 183.78 0 01-22.87-2.14 121.33 121.33 0 01-20.73-5.1 74.53 74.53 0 01-23.55-12.82q.84-5.73 1.66-11.43 2.54-17.57 4.91-34.92 1.29-9.59 2.55-19.12t2.42-18.86q1.62-12.85 3.12-25.57 1.08-9.08 2.09-18.07 1.1-9.69 2.1-19.27t1.93-19.22q1.1-10.86 2-21.61 1.08-11.93 2-23.7.85-10.82 1.6-21.5t1.34-21.1q.75-12.67 1.3-25.12l-46.3 101.15-49.83-24.21 94.08-216.39c18.72-21.17 31.55-27.42 43.7-30.38 6-1.45 11.87-2.11 18.19-3.36a87.64 87.64 0 0011.43-3"/><path d="M681.47 171.14q.69-8 1.46-14.27l3.15-.67c6.15-1.37 10-2.57 11.43-3l.55-.19c-.58 4.48-1.11 9.66-1.61 15.48-6.59 76.92-6.87 266.44-8.08 439.41q-.06 10.41-.15 20.74c-2.34.13-4.67.24-7 .31h-1.35c-2.22.07-4.42.1-6.61.11q0-6.17.09-12.35.07-10.56.15-21.21l.18-28.8q.06-10.1.13-20.21.07-10.71.13-21.42t.14-21.44q.09-11.78.15-23.49l.2-25.66q.07-11.88.18-23.62.11-11.5.21-22.82.12-13.23.27-26.12.09-9 .21-17.83.12-10.17.26-20.08.18-12.21.38-24 .16-9.93.36-19.5.2-10.11.42-19.8.22-9.9.49-19.29.31-11.73.69-22.62c.28-8.41.59-16.43.93-24 .34-7.93.72-15.38 1.12-22.29.48-7.82.98-14.99 1.52-21.37zm67.61-.24c-16 3.7-37 2.74-52.62-2.42m-22.21 213.46l-47.94-52.55-.32-21.19-.34-21.69-.34-22.85-.32-20.95-.32-21.36-.33-22.06-.15-9.35m.97 164.58l48.85 53.54m-50.34-32.45l50.43 55.28" fill="none" stroke="#000" stroke-linecap="round" stroke-miterlimit="10" stroke-width="1.37"/><path fill="none" stroke="#000" stroke-linecap="round" stroke-miterlimit="10" stroke-width="1.37" d="M622.07 397.11l52.36 57.4.44.48m-54.8-34.18l54.15 59.36m-56.19-37.74l55.86 61.23m-57.82-42.01l57.88 63.45.5.54m-60.48-44.72l59.85 65.6m-61.93-47.53l61.8 67.74.31.34m-65.23-42.51l64.74 70.96.41.46m-67.58-52.56l66.89 73.32m-69.44-54.2l60.58 66.41.59.65m-63.93-47.16l40.47 44.37.34.38m-42.96-29.73l21.96 24.06m57.06-382.67l-52.25 47.66-.17.17m53.34-71.84l-53.51 48.82-.05.05m54.76-71.21l-.06.06-54.97 50.15-.01.01m56.03-71.61l-55.05 50.22m42.11-61.92l-.18.15-43.55 39.73-.17.15m53.04 62.03l-51.22 46.73 48.64 55.91"/><path fill="none" stroke="#000" stroke-linecap="round" stroke-miterlimit="10" stroke-width="1.37" d="M676.72 280.76l-32.39 29.56 30.75 33.72"/><path fill="none" stroke="#000" stroke-linecap="round" stroke-miterlimit="10" stroke-width="1.37" d="M676.3 300.56l-10.01 9.14 9.45 10.36m41.16 289.13l-28.53-1.3M698.06 153a116.06 116.06 0 0050.83 2.34"/><path d="M1021 395c16.15.48 25.64-4.44 27-16l12.11 13.78a43.06 43.06 0 01-16.66 13 57.28 57.28 0 01-44.49.68 43.14 43.14 0 01-17.05-12.47l11.69-14.14c1.67 11.46 11.31 16.15 27.4 15.15z" fill="#9a9697"/><path d="M1060.11 392.75c23.2 8.63 35 6.88 44.94 27.39l-.21.1-14 21.55c.47 76.3 6.46 116.17-11.27 130.92-8.82 2.1-20.63 3.61-33.53 4.51l-.43-28.28-.71-47-.66-43.35-.7-46.27-.1-6.52v-.07a43.06 43.06 0 0016.67-12.98zM919.3 639.51a51 51 0 01-4.29-8l2.59-.46c-3.34-40.42 4.44-111 20.5-204L936 427c.59-1.54 1.18-3 1.78-4.32l.21.1 14.61 21.1c1.8 75.17-2.8 116.43 15.24 130.53l3.23 20.84c2 .59 3.94 1.12 5.91 1.61a115.5 115.5 0 01-25.36 45.81z" fill="#fdfdfd"/><path d="M1133.92 628.79a51 51 0 01-3.8 7.53l-32.25 4.13a115.86 115.86 0 01-26.74-45q2.94-.82 5.87-1.79l2.6-20.93c17.73-14.75 11.74-54.62 11.27-130.92l14-21.55.21-.1c.56 1.17 1.12 2.4 1.67 3.71l-1.82.65c18.87 92.48 28.79 162.79 26.67 203.29zM1001.1 549.6l22.69 28.54c-7.53.12-15.06 0-22.26-.25z" fill="#fdfdfd"/><path d="M1001.1 549.6l.43 28.28c-12.92-.51-24.78-1.66-33.65-3.49-18-14.1-13.44-55.36-15.24-130.53L938 422.77l-.21-.1c9.33-20.8 21.16-19.41 44.09-28.74A43.14 43.14 0 00999 406.4v6.6l.7 46.27.66 43.36zM915 631.49c-5-11.58-7-26.4-6.69-43.56C920.67 493.86 927.49 449.53 936 427h2.06c-16.06 93-23.8 163.61-20.46 204zm191.72-207.64c9.34 22.09 17.5 66.15 32.82 160.58.79 17.45-.78 32.54-5.62 44.36l-2.35-1c2.12-40.5-7.8-110.81-26.67-203.29z" fill="#fdfdfd"/><path d="M1079.6 572.71l-2.6 20.93q-2.93 1-5.87 1.79a130.81 130.81 0 01-47 4.35 130.76 130.76 0 01-47.13-2.93c-2-.49-3.94-1-5.91-1.61l-3.23-20.84c8.87 1.83 20.73 3 33.65 3.49 7.2.29 14.73.37 22.26.25 7.53-.11 15.06-.42 22.25-.92 12.98-.9 24.76-2.41 33.58-4.51z" fill="#9a9697"/><path fill="#fdfdfd" d="M1044.93 501.93l-21.8 31.31-22.74-30.63-.66-43.36 22.68 26.62 21.86-27.29.66 43.35zm-21.11 76.21l21.82-29.21.43 28.28c-7.19.51-14.72.79-22.25.93z"/><path d="M1105.78 665.11a41.85 41.85 0 0124.71-4.26c-5.37 4.15-13.76 5.39-24.71 4.26zm-81.96-86.97zm-79.31 89.41c-10.91 1.45-19.35.45-24.84-3.55a41.9 41.9 0 0124.84 3.55z" fill="#9a9697"/><path d="M1048 379c-1.33 11.57-10.82 16.49-27 16-16.12 1-25.76-3.67-27.43-15.19z" fill="#ddd"/><path d="M1023.13 533.23l21.8-31.3.71 47-21.82 29.21-22.72-28.54-.71-47zm21.14-74.65l-21.86 27.29-22.68-26.62-.7-46.27 22.67 25.9 21.87-26.57.7 46.27z" fill="#fdfdfd"/><path d="M919.67 664l-.37-24.53 32.36 3.15-7.15 24.89a41.9 41.9 0 00-24.84-3.51zm178.2-23.55l32.25-4.13.37 24.53a41.85 41.85 0 00-24.71 4.26z" fill="#9a9697"/><path d="M999 406.4a57.28 57.28 0 0044.49-.68v.07l.1 6.52-21.87 26.57L999 413l-.1-6.52z" fill="#fdfdfd"/><path d="M1079.6 572.71l-2.6 20.93q-2.93 1-5.87 1.79a130.81 130.81 0 01-47 4.35 130.76 130.76 0 01-47.13-2.93c-2-.49-3.94-1-5.91-1.61l-3.23-20.84c8.87 1.83 20.73 3 33.65 3.49 7.2.29 14.73.37 22.26.25h0c7.53-.11 15.06-.42 22.25-.92 12.98-.9 24.76-2.41 33.58-4.51zm0 0c17.73-14.75 11.74-54.62 11.27-130.92q-.07-12 .07-25.22" fill="none" stroke="#000" stroke-linecap="round" stroke-linejoin="round" stroke-width=".96"/><path d="M1060.11 392.75c23.2 8.63 35 6.88 44.94 27.39.56 1.17 1.12 2.4 1.67 3.71 9.34 22.09 17.5 66.15 32.82 160.58.79 17.45-.78 32.54-5.62 44.36a51 51 0 01-3.8 7.53l.37 24.53c-5.37 4.12-13.76 5.39-24.71 4.26l-7.91-24.66a115.86 115.86 0 01-26.74-45m58.99 40.87l-32.25 4.13" fill="none" stroke="#000" stroke-linecap="round" stroke-linejoin="round" stroke-width=".96"/><path fill="none" stroke="#000" stroke-linecap="round" stroke-linejoin="round" stroke-width="1.76" d="M1023.79 578.14l-22.69-28.54-.71-46.99 22.74 30.63 21.8-31.31.71 47-21.81 29.21m19.74-165.83l.7 46.27-21.86 27.29-22.68-26.62-.7-46.27 22.67 25.9 21.87-26.57z"/><path fill="none" stroke="#000" stroke-linecap="round" stroke-linejoin="round" stroke-width=".96" d="M1104.84 420.24l-13.97 21.55-.04.05"/><path d="M1104.9 424.5c18.87 92.48 28.79 162.79 26.67 203.29" fill="none" stroke="#000" stroke-linecap="round" stroke-linejoin="round" stroke-width=".47"/><path d="M1048 379l12.11 13.78a43.06 43.06 0 01-16.66 13 57.28 57.28 0 01-44.49.68 43.14 43.14 0 01-17.05-12.47l11.69-14.14" fill="none" stroke="#000" stroke-linecap="round" stroke-linejoin="round" stroke-width=".96"/><path d="M1048 379c-1.33 11.57-10.82 16.49-27 16-16.12 1-25.76-3.67-27.43-15.19zm82.49 281.85a41.85 41.85 0 00-24.71 4.26m-137.9-90.71c-18-14.1-13.44-55.36-15.24-130.53-.19-8-.45-16.4-.83-25.19" fill="none" stroke="#000" stroke-linecap="round" stroke-linejoin="round" stroke-width=".96"/><path d="M981.91 393.93c-22.93 9.33-34.76 7.94-44.09 28.74-.6 1.35-1.19 2.78-1.78 4.32-8.55 22.54-15.37 66.87-27.72 160.94-.26 17.16 1.7 32 6.69 43.56a51 51 0 004.29 8l.37 24.53c5.49 4 13.93 5 24.84 3.51l7.15-24.89A115.5 115.5 0 00977 596.85m-57.7 42.66l32.36 3.15" fill="none" stroke="#000" stroke-linecap="round" stroke-linejoin="round" stroke-width=".96"/><path fill="none" stroke="#000" stroke-linecap="round" stroke-linejoin="round" stroke-width=".96" d="M938.03 422.77l14.61 21.1.04.07"/><path d="M938.1 427c-16.1 93-23.84 163.61-20.5 204" fill="none" stroke="#000" stroke-linecap="round" stroke-linejoin="round" stroke-width=".47"/><path d="M919.67 664a41.9 41.9 0 0124.84 3.51" fill="none" stroke="#000" stroke-linecap="round" stroke-linejoin="round" stroke-width=".96"/><path fill="none" stroke="#000" stroke-linecap="round" stroke-linejoin="round" stroke-width="1.76" d="M1043.57 412.31l-.1-6.52m-44.44 7.19l-.1-6.52m.8 52.79l.66 43.36m43.88-44.03l.66 43.35m.71 47l.43 28.28m-44.97-27.61l.43 28.28"/><path d="M988.5 254.78c0-5.65.1-13.78.17-26.43.01 12.02-.01 20.27-.17 26.43z" fill="#818286"/><path d="M988.68 174.57c-.07 23.66 0 40.89 0 53.78-.07 12.65-.13 20.78-.17 26.43-.43 16.81-1.94 18.07-6.9 38.08l-28.32-4.67c3.88-45.68 8.72-98.5 17.07-134l17.87 20.42zm110.79 39.61l-1.38-41.2h.57l17.25-20.98c10.41 39.19 17 99 21 133.47l-28.19 5.53c-5-18-6.78-20.65-7.78-33.43-.22-6.95-.64-18.64-1.47-43.39z" fill="#818286"/><path d="M1098.09 173l-.32-9.49-.09-2.79-53.93 34.16-55-32.57q0 6.41-.05 12.28h-.46l-17.87-20.42a182.37 182.37 0 015.4-18.9c6.9-8.38 15.38-14.51 26.22-17.26a24.83 24.83 0 005.47 6.63l.5.43c.17.14.34.28.52.41l.52.41c.53.41 1.08.8 1.65 1.18l.57.37.58.37.59.35.91.52 1.24.66.63.31.65.31.32.15c15.45 7.07 38.12 6.74 53.35-.78l.32-.16.63-.32.63-.34c.41-.22.82-.45 1.22-.69s.6-.36.89-.55l.58-.37.57-.38.56-.39c.55-.39 1.09-.8 1.61-1.22l.52-.43.5-.43.49-.44a25 25 0 005.27-6.79c10.91 2.44 19.57 8.31 26.71 16.49a182.24 182.24 0 015.94 18.75L1098.66 173z" fill="#d2d3d5"/><path d="M1100.94 257.56c-.64-8.14-1-20.38-1.61-43.29l.14-.09c.83 24.75 1.25 36.44 1.47 43.38z" fill="#818286"/><path d="M1101.12 289.14a245.79 245.79 0 01-55.28 49.51 246 246 0 01-56.69-47.88l-.27-9.1c19 20.31 38 37.24 56.84 48.36 18.54-11.67 37-29.14 55.4-50z" fill="#707175"/><path d="M1044.55 250.08l-55.83-34.28v-53.51l55 32.57 53.93-34.16.09 2.79c.7 21.2 1.18 37.73 1.56 50.78z" fill="#fff"/><path d="M1011.2 127.42l-.57-.37c-.57-.38-1.12-.77-1.65-1.18l-.52-.41c-.18-.13-.35-.27-.52-.41l-.5-.43A24.83 24.83 0 011002 118l4.62-4.86a18.94 18.94 0 002 4.76c5.69 9.5 19.12 11.13 34.18 11.11 15.07-.42 28.45-2.44 33.85-12.1a18.82 18.82 0 001.87-4.82l4.76 4.72a25 25 0 01-5.27 6.79l-.49.44-.5.43-.52.43c-.52.42-1.06.83-1.61 1.22l-.56.39-.57.38-.58.37c-.29.19-.59.37-.89.55s-.81.47-1.22.69l-.63.34-.63.32-.32.16c-15.23 7.52-37.9 7.85-53.35.78l-.32-.15-.65-.31-.63-.31-1.24-.66-.91-.52-.59-.35z" fill="#707175"/><path d="M1101.12 280c-18.41 20.86-36.86 38.33-55.4 50-18.88-11.12-37.84-28-56.84-48.36-.42-14.1-.47-13.06-.38-26.89.16-6.16.18-14.41.17-26.43 0-3.76 0-7.93.05-12.55l55.83 34.28 54.78-35.81c.65 22.91 1 35.15 1.61 43.29.29 9.4.19 10.1.18 22.47z" fill="#818286"/><path d="M1077.5 124l.49-.44z" fill="#d2d3d5"/><path d="M1011.78 127.79l.59.35zm87.69 86.39l-.14.09c-.38-13.05-.86-29.58-1.56-50.78l.32 9.49zm-29.05-85.35l.63-.34zm-55.9.49l.63.31zm57.75-1.52c.3-.18.6-.36.89-.55-.29.19-.59.37-.89.55zm-59.9.34l.91.52zm57.1 1.17c-15.23 7.52-37.9 7.85-53.35.78 15.45 7.07 38.12 6.74 53.35-.78zm.32-.16l.63-.32zm-61.33-3.69l.52.41zm-1.02-.84l.5.43zm65.72 2.63l.58-.37zm-62.53-.2l.57.37zm4.52 2.58l.65.31z" fill="#818286"/><path d="M1074.31 126.5l.56-.39zm2.17-1.61l.52-.43z" fill="#d2d3d5"/><path d="M1136.89 285.51l2.47 21.87c-6.51 3.81-15 5.38-24.47 5.72l-6.17-22.1zm-130.3-172.38l71.91-1a18.82 18.82 0 01-1.87 4.82l-68 1a18.94 18.94 0 01-2.04-4.82z" fill="#707175"/><path d="M1008.6 117.89l68-1c-5.4 9.66-18.78 11.68-33.85 12.1-15.03.01-28.46-1.6-34.15-11.1z" fill="#818286"/><path d="M981.6 292.86l-5.52 22.27c-9.52-.07-18-1.39-24.62-5l1.82-21.93z" fill="#707175"/><path d="M1100.94 257.57c.29 9.36.19 10.06.18 22.46m-1.65-65.85c.83 24.75 1.25 36.44 1.47 43.38m-112.06 24.11c-.42-14.1-.47-13.06-.38-26.89 0-5.65.1-13.78.17-26.43 0-3.76 0-7.93.05-12.55" fill="none" stroke="#000" stroke-miterlimit="10" stroke-width=".76"/><path d="M1101.12 280v9.11a245.79 245.79 0 01-55.28 49.51 246 246 0 01-56.69-47.88l-.27-9.1c19 20.31 38 37.24 56.84 48.36 18.54-11.64 36.99-29.11 55.4-50z" fill="none" stroke="#000" stroke-miterlimit="10" stroke-width=".75"/><path d="M1083.26 116.8c10.91 2.44 19.57 8.31 26.71 16.49a182.24 182.24 0 015.94 18.75c10.41 39.19 17 99 21 133.47M1077.5 124l.49-.44m-1.51 1.33l.52-.43m-2.69 2.04l.56-.39m-2.6 1.69c.3-.18.6-.36.89-.55l.58-.37m-3.95 2.27l.63-.32.63-.34m-54.93 1.6c15.45 7.07 38.12 6.74 53.35-.78m-54.95.01l.63.31.65.31m-4.02-2.15l.59.35.91.52m-2.65-1.61l.57.37m-2.74-1.96l.52.41m-1.54-1.25l.5.43m-54.66 163.14c3.88-45.68 8.72-98.5 17.07-134a182.37 182.37 0 015.4-18.9c6.9-8.38 15.38-14.51 26.22-17.26" fill="none" stroke="#000" stroke-miterlimit="10" stroke-width=".76"/><path d="M988.73 162.29q0 6.41-.05 12.28c-.07 23.66 0 40.89 0 53.78 0 12 0 20.27-.17 26.43-.43 16.81-1.94 18.07-6.9 38.08m127.11-1.86c-5-18-6.78-20.65-7.78-33.43h0c-.64-8.14-1-20.38-1.61-43.29-.38-13.05-.86-29.58-1.56-50.78m39.12 122.01l2.47 21.87c-6.51 3.81-15 5.38-24.47 5.72l-6.17-22.1z" fill="none" stroke="#000" stroke-miterlimit="10" stroke-width=".76"/><path fill="none" stroke="#000" stroke-miterlimit="10" stroke-width=".76" d="M1099.47 214.18l-.14.09-54.78 35.8-55.82-34.27v-53.51l55.01 32.57 53.94-34.16.09 2.79.32 9.49 1.38 41.2zm-1.79-53.48l-.62-18.4m18.87 9.71l-.02.03-17.25 20.92m-15.4-56.16a25 25 0 01-5.27 6.79l-.49.44-.5.43-.52.43c-.52.42-1.06.83-1.61 1.22l-.56.39-.57.38-.58.37c-.29.19-.59.37-.89.55s-.81.47-1.22.69l-.63.34-.63.32-.32.16c-15.23 7.52-37.9 7.85-53.35.78l-.32-.15-.65-.31-.63-.31-1.24-.66-.91-.52-.59-.35-.58-.37-.57-.37c-.57-.38-1.12-.77-1.65-1.18l-.52-.41c-.18-.13-.35-.27-.52-.41l-.5-.43A24.83 24.83 0 011002 118l4.62-4.86a18.94 18.94 0 002 4.76c5.69 9.5 19.12 11.13 34.18 11.11 15.07-.42 28.45-2.44 33.85-12.1a18.82 18.82 0 001.87-4.82zM981.6 292.86l-5.52 22.27c-9.52-.07-18-1.39-24.62-5l1.82-21.93zm7.32-148.98l-.19 18.41m-18.38-8.15v.01l17.87 20.42m18.37-61.44l71.91-1.05m-1.87 4.82l-68.03.99"/><path d="M387.5 167.66a57.72 57.72 0 01-12.07 6.88 62.43 62.43 0 0012.07-6.88z" fill="#868686"/><path d="M433.17 281.11c-.15-1.87-.31-3.74-.47-5.63l29.11-22.54a861.48 861.48 0 013.46 16.49c17.58 55.06 21.92 80.81 24.77 106.71-8.42 1.19-19.18 5.83-32.36 13.18l-20.66-48c-.84-19.93-2.22-40.53-3.85-60.21z" fill="#fff"/><path d="M311.58 380.55q-1.83-9.35-3.52-19.11c20.62 2.72 42.4 1.71 65.07-2.18 23-.86 44.5-4.36 64.12-11.27q.35 9.9.49 19.43a217.19 217.19 0 01-62.6 11.24 216.91 216.91 0 01-63.56 1.89z" fill="#868686"/><path d="M432.7 275.48c-1.25-14.59-2.71-29.58-4.23-44-.21-2-.35-3.65-.47-5.13l22.05-19c4.59 15.06 8.45 30.57 11.76 45.6z" fill="#d3d3d3"/><path d="M407.82 192.33c12.18 14.8 16.61 19.12 18.44 23.14 1.23 2.71 1.28 5.29 1.74 10.86.12 1.48.26 3.17.47 5.13l-63.06 53.68-72.73-39.54c-.2-2-.41-3.64-.6-5.11-.72-5.58-1.23-8.1-.59-11 .94-4.27 4.38-9.38 13.31-26.44l55.61 34z" fill="#fff"/><path d="M428 226.33c-.46-5.57-.51-8.15-1.74-10.86l.46-.18c-1.45-13.07-2.81-24.58-4.3-36.74l11.62-11 1.77.94a333.81 333.81 0 0114.24 38.82z" fill="#fff"/><path d="M314.15 162.06l.32.26.29.24.89.68c.3.22.6.44.91.65l.31.22c.73.49 1.48 1 2.25 1.4l.33.19.67.37c1 .55 2.06 1.06 3.13 1.52 17.72 7.72 43.42 5 59.17-6.16l.32-.22c.53-.39 1-.78 1.55-1.18l.6-.49c.39-.32.78-.66 1.16-1l.56-.51.82-.79a35.08 35.08 0 002.77-3.1l.19-.24c.49-.64 1-1.29 1.39-2l.22-.34.17-.28c.17-.26.33-.53.49-.8s.17-.3.25-.45.19-.35.28-.52a27.57 27.57 0 001.63-3.69l6.47 4.28a40.77 40.77 0 01-13.8 17.52 62.43 62.43 0 01-12.06 6.89h-.06a75 75 0 01-36.71 5.3h-.09a64.12 64.12 0 01-19-5.14 40.7 40.7 0 01-17.11-14.3l5.45-5.53a28.71 28.71 0 006 6.94z" fill="#868686"/><path d="M433.17 281.11c1.63 19.68 3 40.28 3.83 60.18q.13 3.38.25 6.7c-19.62 6.91-41.14 10.41-64.12 11.27-22.67 3.89-44.45 4.9-65.07 2.18-.39-2.2-.76-4.4-1.13-6.61-3.33-19.77-6.18-39.94-8.66-59.68L370.5 334z" fill="#fff"/><path d="M287.66 192.57L274 184.24l28.45-23.8a40.7 40.7 0 0017.11 14.3l-14.76 28.31zm140.81 38.89c1.52 14.44 3 29.43 4.23 44 .16 1.89.32 3.76.47 5.63L370.5 334l-72.23-38.88q-.34-2.77-.69-5.6c-1.64-13.43-3.23-27.71-4.9-44l72.73 39.54z" fill="#d3d3d3"/><path d="M313.9 161.85l.25.21zm76.51-7.95l-.19.24z" fill="#868686"/><path d="M297.58 289.55l-33.13-16.06c.13-15.38.72-31.36 2.1-47.05l25.53 14.05c.19 1.47.4 3.15.6 5.11 1.67 16.24 3.26 30.52 4.9 43.95zm85.18-128.34c.53-.39 1-.78 1.55-1.18-.51.4-1.02.79-1.55 1.18z" fill="#d3d3d3"/><path d="M304.8 203.05c-8.93 17.06-12.37 22.17-13.31 26.44l-.49-.07c-1.27-13.06-2.29-24.61-3.34-36.85z" fill="#fff"/><path d="M320.13 166.07zm62.31-4.64c-15.75 11.2-41.45 13.88-59.17 6.16 17.73 7.71 43.42 5.04 59.17-6.16zm-62.99 4.27l.67.37zm68.06 1.97a40.77 40.77 0 0013.8-17.52L434 167.58l-11.62 11-14.6 13.78zm-73.61-5.82a28.71 28.71 0 01-6-6.94l86.91-9a27.57 27.57 0 01-1.63 3.69c-.09.17-.18.35-.28.52s-.16.3-.25.45-.32.54-.49.8l-.17.28-.22.34c-.43.66-.9 1.31-1.39 2l-.19.24-76.07 7.92zm.57.47l.29.24z" fill="#d3d3d3"/><path d="M291.49 229.49c-.64 2.9-.13 5.42.59 11l-25.53-14.05a335.5 335.5 0 015.95-40.91l1.53-1.29 13.63 8.33c1 12.24 2.07 23.79 3.34 36.85z" fill="#fff"/><path d="M315.65 163.24c.3.22.6.44.91.65-.31-.21-.56-.43-.91-.65zm1.22.87c.73.49 1.48 1 2.25 1.4-.77-.44-1.52-.91-2.25-1.4z" fill="#d3d3d3"/><path d="M319.59 174.73a64.12 64.12 0 0019 5.14 60.51 60.51 0 01-19-5.13z" fill="#868686"/><path d="M384.31 160l.6-.49zm1.76-1.46l.56-.51zm-3.63 2.89c-15.75 11.2-41.45 13.87-59.17 6.16-1.07-.47-2.12-1-3.13-1.52l-.67-.37-.33-.19c-.77-.44-1.52-.91-2.25-1.4l-.31-.22c-.31-.21-.61-.43-.91-.65l-.89-.68-.29-.24-.32-.26 76.07-7.92a35.08 35.08 0 01-2.77 3.1l-.82.79-.56.51c-.38.34-.77.68-1.16 1l-.6.49c-.51.4-1 .79-1.55 1.18z" fill="#d3d3d3"/><path d="M360.41 237.07l-55.61-34 14.79-28.31a60.51 60.51 0 0019 5.13h.09a72.51 72.51 0 0036.71-5.3h.06a57.72 57.72 0 0012.07-6.88l20.31 24.66zM386.63 158l.82-.79zm-71.87 4.56l.89.68z" fill="#d3d3d3"/><path d="M490 376.14c.8 7.25 1.49 14.51 2.31 22.43-1.28-1.14-26.17 9.42-26.18 10.53l-8.51-19.78c13.18-7.35 23.94-12 32.36-13.18z" fill="#868686"/><path d="M466.17 409.1c0-1.11 24.9-11.67 26.18-10.53-5.47 5.07-15.35 8.03-26.18 10.53zm-159.24-54.27l-10.34 51.26c-14.4-4.48-25.9-6.81-34.37-6.23-2.62-27-3.57-52.53 2.24-109.53-.06-5.5-.07-11.13 0-16.84l33.13 16.06q.35 2.82.69 5.6c2.47 19.74 5.32 39.91 8.65 59.68z" fill="#fff"/><path d="M296.59 406.09l-4.25 21.1c-.23-1.08-26.77-6.28-27.79-4.9-.83-8-1.64-15.27-2.33-22.43 8.47-.58 19.97 1.75 34.37 6.23z" fill="#868686"/><path d="M264.55 422.29c1-1.38 27.56 3.82 27.79 4.9-11.13-.19-21.34-1.07-27.79-4.9z" fill="#fff"/><path d="M401.31 150.15L434 167.58l1.77.94a333.81 333.81 0 0114.24 38.82c4.59 15.06 8.45 30.57 11.76 45.6a861.48 861.48 0 013.46 16.49c17.58 55.06 21.92 80.81 24.77 106.71.8 7.25 1.49 14.51 2.31 22.43-5.47 5.07-15.33 8-26.18 10.53l-8.51-19.78-20.66-48h0" fill="none" stroke="#000" stroke-miterlimit="10" stroke-width=".74"/><path d="M407.82 192.33c12.18 14.8 16.61 19.12 18.44 23.14 1.23 2.71 1.28 5.29 1.74 10.86.12 1.48.26 3.17.47 5.13M292.68 245.6c-.2-2-.41-3.64-.6-5.11-.72-5.58-1.23-8.1-.59-11 .94-4.27 4.38-9.38 13.31-26.44m127.9 72.43c.16 1.89.32 3.76.47 5.63" fill="none" stroke="#000" stroke-miterlimit="10" stroke-width=".74"/><path d="M298.27 295.15q-.34-2.77-.69-5.6c-1.64-13.43-3.23-27.71-4.9-44l72.73 39.54 63.06-53.68c1.52 14.44 3 29.43 4.23 44m-124.64 86.03c-.39-2.2-.76-4.4-1.13-6.61-3.33-19.77-6.18-39.94-8.66-59.68L370.5 334l62.67-52.92c1.63 19.68 3 40.28 3.83 60.18q.13 3.38.25 6.7m0 .04q.35 9.9.49 19.43a217.19 217.19 0 01-62.6 11.24 216.91 216.91 0 01-63.56 1.89q-1.83-9.35-3.52-19.11c20.62 2.72 42.4 1.71 65.07-2.18 22.98-.87 44.5-4.37 64.12-11.27zm-10.53-132.71c-1.45-13.07-2.81-24.58-4.3-36.74-.2-1.66-.4-3.34-.61-5M490 376.14c-8.42 1.19-19.18 5.83-32.36 13.18m34.71 9.25c-1.28-1.14-26.17 9.42-26.18 10.53m-71.33-263.23l6.47 4.28a40.77 40.77 0 01-13.8 17.52 57.72 57.72 0 01-12.07 6.88m17.49-24.47c.1-.17.19-.35.28-.52m-1.02 1.77c.17-.26.33-.53.49-.8m-.88 1.47l.22-.34m-1.8 2.48l.19-.24m-3.78 4.1l.82-.79m-1.38 1.33l.56-.51m-2.32 1.97l.6-.49m-2.15 1.7c.53-.39 1-.78 1.55-1.18m-61.04 7.56c17.72 7.71 43.42 5 59.17-6.16m-62.31 4.64c1 .55 2.06 1.05 3.13 1.52m-3.81-1.89l.67.37m-3.25-1.96c.73.49 1.48 1 2.25 1.4m-3.47-2.27c.3.22.6.44.91.65m-1.8-1.33l.89.68m-1.18-.92l.29.24m-.86-.71l.25.21" fill="none" stroke="#000" stroke-miterlimit="10" stroke-width=".74"/><path d="M338.58 179.87a60.51 60.51 0 01-19-5.13 40.7 40.7 0 01-17.11-14.3l5.45-5.53m67.46 19.67a75 75 0 01-36.71 5.3" fill="none" stroke="#000" stroke-miterlimit="10" stroke-width=".74"/><path d="M314.15 162.06l-.25-.21a28.71 28.71 0 01-6-6.94l86.91-9a27.57 27.57 0 01-1.63 3.69c-.09.17-.18.35-.28.52s-.16.3-.25.45-.32.54-.49.8l-.17.28-.22.34c-.43.66-.9 1.31-1.39 2l-.19.24" fill="none" stroke="#000" stroke-miterlimit="10" stroke-width=".74"/><path d="M390.22 154.14a35.08 35.08 0 01-2.77 3.1l-.82.79h0l-.56.51c-.38.34-.77.68-1.16 1l-.6.49h0c-.51.4-1 .79-1.55 1.18l-.32.22c-15.75 11.2-41.45 13.88-59.17 6.16h0c-1.07-.46-2.12-1-3.13-1.52h0l-.67-.37-.33-.19c-.77-.44-1.52-.91-2.25-1.4l-.31-.22c-.31-.21-.61-.43-.91-.65h0l-.89-.68h0l-.29-.24-.32-.26" fill="none" stroke="#000" stroke-miterlimit="10" stroke-width=".74"/><path fill="none" stroke="#000" stroke-miterlimit="10" stroke-width=".74" d="M390.54 154.11l-.32.03h0l-76.07 7.92h0l-.32.03m120.21 5.49l-11.62 10.97-14.6 13.78m20.11 34.05l.07-.05 22.06-18.99h0m-17.36 68.14h0l29.11-22.54m-74.3-85.27l20.31 24.66-47.41 44.74-55.61-34.02 14.78-28.31"/><path d="M338.58 179.87h.09a72.51 72.51 0 0036.71-5.3h.06m-68.51 180.26l-10.34 51.26-4.25 21.1c-11.13-.2-21.39-1.07-27.79-4.9-.83-8-1.64-15.27-2.33-22.43-2.62-27-3.57-52.53 2.24-109.53-.06-5.5-.07-11.13 0-16.84.13-15.38.72-31.36 2.1-47.05a335.5 335.5 0 015.95-40.91l1.53-1.29 28.45-23.8" fill="none" stroke="#000" stroke-miterlimit="10" stroke-width=".74"/><path d="M291 229.42c-1.27-13.06-2.29-24.61-3.34-36.85-.14-1.66-.28-3.34-.43-5m-25.01 212.29c8.47-.58 20 1.75 34.37 6.23m-32.04 16.2c1-1.38 27.56 3.82 27.79 4.9" fill="none" stroke="#000" stroke-miterlimit="10" stroke-width=".74"/><path fill="none" stroke="#000" stroke-miterlimit="10" stroke-width=".74" d="M274.04 184.24l13.62 8.33 17.14 10.48m-12.67 37.47l-.05-.03-25.52-14.05h-.01m31.03 63.11l-33.13-16.06"/><path d="M457.54 581.53a140.18 140.18 0 01-3.3 17.51c-7-5.31-17.85-8.32-31.39-9.75q.73-4.29 1.42-8.61.74-4.56 1.42-9.13c12.95 1.45 23.92 4.54 31.85 9.98z" fill="#e1e1e3"/><path d="M427.88 556.11c0-.17.05-.34.07-.52 12.45 1.2 23.26 3.33 30.72 7.39a150.5 150.5 0 01-1.13 18.55c-7.93-5.44-18.9-8.49-31.85-10q1.16-7.66 2.19-15.42z" fill="#e1e1e3"/><path d="M458.67 562.32v.66c-7.46-4.06-18.27-6.19-30.72-7.39q1.13-8.37 2.1-16.82h.13c12.93 2 23.7 4.81 30.48 8.94q-.76 7.17-1.99 14.61z" fill="#e1e1e3"/><path d="M461.7 530.48c0 5.56-.41 11.32-1 17.24-6.78-4.13-17.55-6.9-30.48-8.94h-.13c.4-3.46.79-6.94 1.16-10.42.14-1.31.27-2.62.41-3.94a66 66 0 0130.04 6.06z" fill="#e1e1e3"/><path d="M460 509.59a107.09 107.09 0 011.7 20.89 66 66 0 00-30.08-6.07q.93-9.13 1.72-18.36zM454.24 599a139 139 0 01-5.79 17.69c-7.58-5.2-17-8.75-28.68-10.4l.66-3.48q1.26-6.75 2.42-13.56c13.54 1.47 24.4 4.48 31.39 9.75z" fill="#e1e1e3"/><path d="M460 509.59l-26.66-3.54c.21-2.46.41-4.94.61-7.42.22-2.78.43-5.58.63-8.37l22.35 1.57q0 3-.11 6.11a73.33 73.33 0 013.18 11.65z" fill="#e1e1e3"/><path d="M456.93 491.83l-22.35-1.57.42-6.06c.1-1.45.19-2.9.28-4.35l5-8.93 14.94 2a106.35 106.35 0 011.71 18.91zm-8.48 124.9a147.74 147.74 0 01-11.78 23 107.33 107.33 0 01-27-7.64c-1.25-2.74-1.6-5.25-.73-7.48 2.42-.08 4.82-.19 7.19-.35q1.91-8.94 3.63-18c11.65 1.74 21.11 5.27 28.69 10.47zm6.74-143.83l-14.94-2 3.4-6.11 5.85-10.51a85.62 85.62 0 015.69 18.62z" fill="#e1e1e3"/><path fill="#fff" d="M449.5 454.3l-5.85 10.51-64.63 29.94-.04-.01 2.95-22.3.08.01 57.59-25.16 9.9 7.01z"/><path d="M379 494.75l64.63-29.94-3.4 6.11-5 8.93c-.09 1.45-.18 2.9-.28 4.35h-.29q-3 4.95-5.8 10.18L376 517.05l3-22.3zm51.05 44.02q-1 8.44-2.1 16.82c0 .18 0 .35-.07.52l-18.62-12q3.69-13 8.3-24.91l13.65 9.1c-.37 3.53-.76 7.01-1.16 10.47zm-20.79 5.39l18.62 12q-1 7.75-2.19 15.44-.69 4.58-1.42 9.13l-20.63-13.63q2.48-11.85 5.62-22.94z" fill="#fff"/><path d="M431.21 528.35l-13.65-9.1a230.47 230.47 0 0111.35-24.89l5 4.27c-.2 2.48-.4 5-.61 7.42q-.78 9.23-1.72 18.36c-.1 1.32-.23 2.59-.37 3.94zm-27.57 38.75l20.63 13.58q-.69 4.32-1.42 8.61-1.16 6.81-2.42 13.56L399.56 590q1.76-11.8 4.08-22.9z" fill="#fff"/><path d="M420.43 602.85l-.66 3.48q-1.72 9-3.63 18l-19.35-12q1.14-11.43 2.77-22.3zM434 498.63l-5-4.27q2.77-5.24 5.8-10.18h.29l-.42 6.06c-.29 2.81-.5 5.61-.67 8.39zm-13.78-65.05l19.38 13.71-57.59 25.16-.08-.01 3.05-22.96.11.01 35.13-15.91z" fill="#fff"/><path d="M409 624.66c-4.35.14-8.77.14-13.26 0q.48-6.28 1.1-12.42l19.35 12c-2.42.23-4.82.34-7.19.42zm-33-107.61l52.87-22.69a230.47 230.47 0 00-11.35 24.89l-44.29 18.53L376 517zm-2.73 20.73l44.29-18.53q-4.62 11.91-8.3 24.91L370.2 561zM370.2 561l39.06-16.79q-3.15 11.08-5.62 22.94l-36.21 14.77z" fill="#fff"/><path d="M367.43 581.87l36.21-14.77q-2.33 11.1-4.08 22.86h-.06l-35.2 15.59zm28.26 42.81q-11.25-.3-23.08-1.55l24.18-10.87q-.63 6.14-1.1 12.42z" fill="#fff"/><path d="M396.79 612.26l-24.18 10.87q-5.19-.54-10.48-1.25l2.17-16.38 35.2-15.59h.06q-1.63 10.93-2.77 22.35zm23.43-178.68l-35.13 15.91-.11-.01 2.26-17.09.03-.22 26.31-3.29 6.64 4.7z" fill="#fff"/><path fill="#686a69" d="M364.3 605.51l-2.17 16.38-6.71-.89 2.16-16.38 3.14-23.64 2.77-20.92 3.07-23.17 2.75-20.74 2.95-22.3 2.96-22.3 3.04-22.97 2.26-17.08 6.72.89-2.26 17.09-3.05 22.96-2.95 22.3-2.96 22.3-2.75 20.74-3.07 23.17-2.77 20.92-3.13 23.64z"/><path d="M357.59 604.62L355.41 621c-3.53-.47-7-1-10.44-1.52l-20.51-16.8q1.88-11.32 3.13-22.25h.07z" fill="#fff"/><path d="M360.72 581l-3.13 23.64-29.93-24.24h-.07q1.38-11.8 2-23.13z" fill="#fff"/><path d="M363.49 560.06L360.72 581l-31.11-23.69q.69-12.09.54-23.62zm3.07-23.17l-3.07 23.17-33.34-26.39q-.16-13.5-1.52-26.2z" fill="#fff"/><path d="M369.31 516.15l-2.75 20.74-37.93-29.42a227.78 227.78 0 00-4.47-27l45.14 35.67z" fill="#fff"/><path d="M372.26 493.85l-2.95 22.3-45.14-35.67q-1.32-5.78-2.94-11.34l-.29-.06c.28-1.42.57-2.85.86-4.27l-2.47-9.92-1.69-6.78 54.61 45.74z" fill="#fff"/><path fill="#fff" d="M375.22 471.55l-2.96 22.3h-.05l-54.59-45.74-2.92-11.67 11.4-4.19 49.04 39.29.08.01z"/><path fill="#fff" d="M378.26 448.58l-3.04 22.97-.08-.01-49.04-39.29 22.28-8.19 29.77 24.51.11.01z"/><path fill="#fff" d="M380.52 431.5l-2.26 17.08-.11-.01-29.77-24.51 7.62-2.81 24.55 10.03-.03.22zM345 619.47c-7.83-1.26-15.4-2.75-22.68-4.52q1.17-6.21 2.17-12.29zm-17.41-39.05q-1.26 10.92-3.13 22.25l-21.82 6.6q.48-9.12 1.17-18.3l.27-3.54zm0 0l-23.51 7c.37-4.56.76-9.13 1.2-13.72q.41-4.34.87-8.69l23.46-7.73q-.61 11.34-2.02 23.14z"/><path d="M309.49 611.48c-2.32-.71-4.6-1.44-6.85-2.21l21.82-6.6q-1 6.09-2.17 12.29a227.59 227.59 0 01-12.8-3.48zm20.12-54.19L306.15 565q.48-4.57 1-9.18.9-7.71 1.91-15.47l21.09-6.7q.17 11.56-.54 23.64z" fill="#fff"/><path d="M330.15 533.67l-21.09 6.7c0-.18 0-.35.07-.52q1.1-8.37 2.35-16.79.78-5.17 1.6-10.37l15.54-5.22q1.38 12.71 1.53 26.2zm-1.53-26.2l-15.54 5.22.63-3.9q1.47-9.06 3.12-18.17.66-3.66 1.34-7.33l6-2.81a227.78 227.78 0 014.45 26.99z" fill="#fff"/><path d="M309.49 611.48c.25 2.38-.73 4.72-2.66 7a107.33 107.33 0 01-28 .35 146.64 146.64 0 01-5.37-25.32c8.67-3 18.73-4 30.39-2.57q-.69 9.18-1.17 18.3c2.21.76 4.49 1.53 6.81 2.24z" fill="#e1e1e3"/><path d="M324.15 480.48l-6 2.81c.52-2.75 1-5.5 1.58-8.25.38-2 .77-4 1.17-6l.29.06q1.64 5.61 2.96 11.38z" fill="#fff"/><path d="M319.31 454.89l2.47 9.92c-.29 1.42-.58 2.85-.86 4.27-.4 2-.79 4-1.17 6l-22-4.3a105.61 105.61 0 016.61-17.83l14.93 2z" fill="#e1e1e3"/><path d="M297.76 470.74l22 4.3c-.54 2.75-1.06 5.5-1.58 8.25q-.68 3.68-1.34 7.33l-26.66-3.54a72.33 72.33 0 016.1-10.41c.45-2.01.94-3.98 1.48-5.93zM303.81 591c-11.66-1.44-21.72-.48-30.39 2.57a139 139 0 01-1-18.6c8.13-3.29 19.41-3.37 32.85-1.23-.44 4.59-.83 9.16-1.2 13.72zm-13.64-103.92l26.66 3.54q-1.63 9.11-3.12 18.17a66 66 0 00-30.62-2 107.16 107.16 0 017.08-19.71z" fill="#e1e1e3"/><path d="M306.15 565q-.47 4.35-.87 8.69c-13.44-2.14-24.72-2.06-32.85 1.23a142.75 142.75 0 011.37-17.76c9.07-3.19 20.46-3.27 33.34-1.34q-.51 4.62-.99 9.18zm6.93-52.31q-.82 5.19-1.6 10.37h-.12c-13-1.4-24.14-1.53-31.76.68.93-5.87 2.08-11.53 3.49-16.91a66 66 0 0130.62 2z" fill="#e1e1e3"/><path d="M311.36 523h.12q-1.25 8.41-2.35 16.79c-12.33-2.09-23.33-2.85-31.59-.87l.18-.64c.51-5 1.13-9.88 1.88-14.62 7.62-2.15 18.74-2.02 31.76-.66z" fill="#e1e1e3"/><path d="M309.06 540.37q-1 7.75-1.91 15.47c-12.88-1.93-24.27-1.85-33.34 1.34a151.6 151.6 0 013.74-18.2c8.26-2 19.26-1.22 31.59.87-.04.15-.06.34-.08.52zm8.55-92.26l1.69 6.78-14.93-2a85.65 85.65 0 0110.33-16.47z" fill="#e1e1e3"/><path d="M443.65 464.81l-3.4 6.11-5 8.93c-.09 1.45-.18 2.9-.28 4.35l-.42 6.06c-.2 2.79-.41 5.59-.63 8.37-.2 2.48-.4 5-.61 7.42q-.78 9.23-1.72 18.36c-.14 1.32-.27 2.63-.41 3.94-.37 3.48-.76 7-1.16 10.42q-1 8.44-2.1 16.82c0 .18 0 .35-.07.52q-1 7.75-2.19 15.44-.69 4.58-1.42 9.13-.69 4.32-1.42 8.61-1.16 6.81-2.42 13.56l-.66 3.48q-1.72 9-3.63 18a209.795 209.795 0 01-20.45.35q-11.25-.3-23.08-1.55-5.19-.54-10.48-1.25m25.14-189.49l.03-.22 26.31-3.29 6.64 4.7 19.38 13.71 9.9 7.01-5.85 10.51" fill="none" stroke="#000" stroke-linecap="round" stroke-miterlimit="10" stroke-width=".8"/><path d="M449.5 454.3a85.62 85.62 0 015.69 18.6 106.35 106.35 0 011.74 18.93q0 3-.11 6.11a73.33 73.33 0 013.18 11.65 107.09 107.09 0 011.7 20.89c0 5.56-.41 11.32-1 17.24q-.77 7.15-2 14.6v.66a150.5 150.5 0 01-1.13 18.55 140.18 140.18 0 01-9.09 35.2 147.74 147.74 0 01-11.78 23 107.33 107.33 0 01-27-7.64c-1.25-2.74-1.6-5.25-.73-7.48h0m.29-80.45q-3.15 11.08-5.62 22.94-2.33 11.1-4.08 22.86-1.63 10.88-2.77 22.3-.63 6.13-1.1 12.42m39.02-140.5q-3 4.95-5.8 10.18a230.47 230.47 0 00-11.35 24.89q-4.62 11.91-8.3 24.91" fill="none" stroke="#000" stroke-linecap="round" stroke-miterlimit="10" stroke-width=".8"/><path fill="none" stroke="#000" stroke-linecap="round" stroke-miterlimit="10" stroke-width=".8" d="M372.61 623.13l24.18-10.87 19.35 12.04m4.29-21.45l-20.87-12.89-.06-.04-35.2 15.59-.12.06m60.09-24.9l-20.63-13.57-36.21 14.77-.15.06m60.6-25.82h0l-18.62-11.95h0l-39.06 16.79-.05.02m61.06-32.62l-13.65-9.1-44.29 18.53-.01.01m60.69-39.16l-5.04-4.27h0l-52.87 22.68m67.61-52.23h0l-64.63 29.94m60.58-47.46l-57.59 25.16m38.21-38.87l-35.13 15.91m55.16 21.43l14.94 1.98m1.74 18.93l-22.35-1.57M460 509.59l-26.66-3.54m28.36 24.43a66 66 0 00-30.08-6.07m29.08 23.33h0c-6.78-4.13-17.55-6.9-30.48-8.94m28.46 24.2h0c-7.46-4.06-18.27-6.19-30.72-7.39m29.58 25.92c-7.93-5.44-18.9-8.49-31.85-10M454.24 599c-7-5.31-17.85-8.32-31.39-9.75m25.6 27.48h0c-7.58-5.2-17-8.75-28.68-10.4M319.31 454.89l2.47 9.92c-.29 1.42-.58 2.85-.86 4.27-.4 2-.79 4-1.17 6-.54 2.75-1.06 5.5-1.58 8.25q-.68 3.68-1.34 7.33-1.63 9.11-3.12 18.17l-.63 3.9q-.82 5.19-1.6 10.37-1.25 8.41-2.35 16.79c0 .17-.05.34-.07.52q-1 7.75-1.91 15.47-.52 4.6-1 9.18-.47 4.35-.87 8.69c-.44 4.59-.83 9.16-1.2 13.72l-.27 3.54q-.69 9.18-1.17 18.3c2.25.77 4.53 1.5 6.85 2.21 4.16 1.27 8.43 2.42 12.8 3.48 7.28 1.77 14.85 3.26 22.68 4.52 3.43.55 6.91 1 10.44 1.52m25.11-189.54l.03-.22L356 421.25l-7.62 2.81-22.28 8.19-11.4 4.19 2.92 11.67 1.69 6.78"/><path d="M314.7 436.44a85.65 85.65 0 00-10.33 16.47 105.61 105.61 0 00-6.61 17.83c-.54 1.95-1 3.92-1.49 5.93a72.33 72.33 0 00-6.1 10.41 107.16 107.16 0 00-7.08 19.73c-1.41 5.38-2.56 11-3.49 16.91-.75 4.74-1.37 9.63-1.88 14.62l-.18.64a151.6 151.6 0 00-3.74 18.2 142.75 142.75 0 00-1.37 17.76 139 139 0 001 18.6 146.64 146.64 0 005.37 25.32 107.33 107.33 0 0028-.35c1.93-2.31 2.91-4.65 2.66-7h0m19.17-104.04q1.35 12.71 1.52 26.2.17 11.54-.54 23.62-.64 11.33-2 23.13-1.26 10.92-3.13 22.25-1 6.09-2.17 12.29m-1.1-145.82q1.62 5.57 2.94 11.34a227.78 227.78 0 014.47 27" fill="none" stroke="#000" stroke-linecap="round" stroke-miterlimit="10" stroke-width=".8"/><path fill="none" stroke="#000" stroke-linecap="round" stroke-miterlimit="10" stroke-width=".8" d="M344.97 619.47l-20.51-16.8h0l-21.82 6.59m1.44-21.83l23.51-7.01.07-.02 29.92 24.22.11.09m-51.54-39.69h0l23.46-7.73 31.11 23.69.12.1m-51.78-40.71h0l21.09-6.7 33.34 26.39.05.04m-50.46-47.4h0l15.54-5.23h.01l37.93 29.42.01.01m-48.4-53.61l5.98-2.81h0l45.14 35.67m-51.68-68.04l54.61 45.74m-46.13-61.6l49.05 39.29m-26.76-47.48l29.77 24.51m-58.84 6.32h0l-14.94-1.98m-6.61 17.83l21.99 4.3m-29.58 12.04l26.66 3.54m-33.74 16.19a66 66 0 0130.62 2m-34.15 14.93h0c7.62-2.21 18.74-2.08 31.76-.68M277.54 539c8.26-2 19.26-1.22 31.59.87m-35.32 17.31c9.07-3.19 20.46-3.27 33.34-1.34m-34.72 19.1c8.13-3.29 19.41-3.37 32.85-1.23m-31.86 19.83c8.67-3 18.73-4 30.39-2.57"/><path fill="none" stroke="#000" stroke-linecap="round" stroke-miterlimit="10" stroke-width=".8" d="M380.52 431.5l-2.26 17.08-3.04 22.97-2.96 22.3-2.95 22.3-2.75 20.74-3.07 23.17-2.77 20.92-3.14 23.64-2.16 16.38 6.71.89 2.17-16.38 3.13-23.64 2.77-20.92 3.07-23.17 2.75-20.74 2.96-22.3 2.95-22.3 3.05-22.96 2.26-17.09-6.72-.89z"/></svg>