<svg xmlns="http://www.w3.org/2000/svg" viewBox="0 0 700 700"><path fill="#d7d6cb" stroke="#000" stroke-linecap="round" stroke-miterlimit="10" d="M2.19 2.19H700V700H2.19z"/><path d="M424 403l-46.7-45.94q.24-9.16.37-18.18l45 44.25h.44q.43 9.87.89 19.87zm105.36-47.15q.42 9.94.94 20l-47.51 48.29q.33-10.87.66-21.63zm-56.25-208.09c.34 3.79.62 8.17.86 13.09-13.32 3.85-31 4-44.41.36.16-4.92.38-9.31.66-13.1a97.8 97.8 0 0042.89-.35z" fill="#fefefe"/><path d="M474 160.85c3.11 65-2.69 224.78-7.18 370.56h-24.11c-6.84-145.64-15.21-305.16-13.16-370.2 13.38 3.63 31.09 3.49 44.41-.36z" fill="#d1d3d2"/><path d="M474 160.85c-.24-4.92-.52-9.3-.86-13.09l.46.17a72.54 72.54 0 009.53 2.9l2.64.67c.29 3.55.55 7.59.77 12.07.25 5.39.45 11.45.59 18.09.12 5.83.2 12.12.24 18.81 0 6.39.05 13.16 0 20.26q0 9.18-.14 19.08-.09 7.92-.21 16.27c-.07 5.44-.17 11-.27 16.69q-.15 8.07-.32 16.45-.21 9.91-.45 20.21c-.12 5.56-.27 11.21-.41 16.92q-.19 7.44-.39 15-.29 10.88-.61 22-.26 9.53-.55 19.24-.28 9.87-.59 19.9-.33 10.75-.66 21.63-.31 9.85-.62 19.79-.27 9-.57 18.07l-.58 18.1q-.27 8.52-.53 17-.39 12.15-.76 24.26-.29 9-.55 17.88c-.11 3.48-.21 6.94-.32 10.4-1.84-.07-3.7-.17-5.57-.3-.37 0-.76 0-1.14-.07-1.95-.14-3.9-.3-5.87-.49q.25-8.65.53-17.39c4.49-145.74 10.29-305.49 7.21-370.52zm-96 160.22l43.57 42.86h.68q.42 9.53.87 19.23h-.44l-45-44.25q.13-9 .18-17.83z" fill="#fefefe"/><path d="M531.32 394.15l-49 49.82h-.17q.32-9.93.62-19.79l47.51-48.29q.47 9.08 1 18.27zM484 382.64q.28-9.7.55-19.24h.69l42.87-43.56h.12q.18 8.85.46 17.82l-44.25 45z" fill="#fefefe"/><path d="M482.31 444l49-49.82q.48 8.1 1 16.27L481.57 462q.29-9.06.57-18.07zm-55.5 18.47l-51.61-50.79q.42-8.18.77-16.27l49.81 49h.22q.38 9.01.81 18.06zM376.58 282l41-41.67q.2 7.92.46 16.27L392.11 283l27.43 27h.46c.22 5.55.45 11.2.69 16.91h-.57zm107.87 100.65l44.25-45q.28 9 .66 18.17l-45.94 46.69q.3-10 .59-19.9zm13.87-228.4l35.43 34.86-1 18.57-1.09-.06-44.76-44.07h-.39c-.22-4.48-.48-8.52-.77-12.07l-2.64-.67c5.29 1.28 10.19 2.01 15.22 3.44z" fill="#fefefe"/><path d="M429.55 161.21c-2.05 65 6.32 224.56 13.16 370.2q.41 8.83.82 17.57c-2 .22-3.92.42-5.87.59l-1.14.09c-1.87.16-3.72.29-5.56.39-.16-3.46-.32-6.92-.49-10.4q-.41-8.89-.83-17.87-.57-12.07-1.16-24.25c-.27-5.67-.53-11.34-.81-17q-.42-9-.86-18t-.81-18.11q-.48-9.93-.94-19.79-.51-10.86-1-21.61-.47-10-.91-19.89-.45-9.7-.87-19.23-.5-11.13-1-22-.31-7.59-.63-15c-.24-5.71-.47-11.36-.69-16.91q-.4-10.29-.77-20.21-.31-8.37-.59-16.44c-.19-5.68-.38-11.24-.54-16.68s-.33-11-.46-16.27q-.27-9.9-.45-19.07c-.15-7.1-.25-13.87-.31-20.26-.07-6.69-.09-13-.07-18.81 0-6.64.13-12.7.31-18.1q.21-6.74.57-12.08l2.62-.71a74.46 74.46 0 009.49-3.05l.46-.18c-.29 3.77-.51 8.16-.67 13.08zm57.05 128.01l8.29-8.43-8.14-8c.1-5.68.2-11.25.27-16.69l26.35 25.9-27 27.42H486q.25-10.29.45-20.21z" fill="#fefefe"/><path d="M419.54 310l-27.43-27L418 256.64c.16 5.44.35 11 .54 16.68l-8 8.15 8.43 8.3h.18q.36 9.92.77 20.21zm-2.87-145.88L372.6 208.9l-1.08.08-1.28-18.55L405.1 155c5-1.51 9.9-2.32 15.16-3.66l-2.62.71q-.36 5.34-.57 12.08zm70.55 75.69L528.83 282l-42.7 44.41h-.57c.14-5.71.29-11.36.41-16.92h.42l27-27.42L487 256.08q.12-8.35.21-16.27z" fill="#fefefe"/><path fill="#fefefe" d="M533.75 189.11l.42-7.88 72.37 185.31-42.74 18.82-35.85-86.71.88-16.69 1.03-19.41 1.02-19.24.94-17.65.95-17.98.98-18.57zm8.77 336.27c.34 3.23.69 6.45 1 9.68a62.58 62.58 0 01-20.25 10.06v-.16l19.26-19.58z"/><path d="M505.68 548.75a153 153 0 01-19.34 1.08l53.16-54q1.44 14.7 3 29.57L523.26 545v.16a102.77 102.77 0 01-17.58 3.59zm33.82-52.94l-53.16 54q-6.42 0-13.07-.47c1.87.13 3.73.23 5.57.3.11-3.46.21-6.92.32-10.4h.11L538 479.62q.71 8.06 1.5 16.19z" fill="#fefefe"/><path d="M538 479.62l-58.68 59.64h-.11q.27-8.89.55-17.88l56.8-57.73q.65 7.97 1.44 15.97zm-1.48-15.97l-56.8 57.73q.38-12.09.76-24.26L534.69 442q.86 10.77 1.83 21.65zm-2.35-282.42l-.42 7.88-35.43-34.86c10.15 2.87 20.75 8.55 35.85 26.98z" fill="#fefefe"/><path d="M534.7 442l-54.22 55.11q.27-8.52.53-17l52.51-53.37c.38 5.05.77 10.14 1.18 15.26zm-1.93-234.32l-.95 18-44.72-44c-.14-6.64-.34-12.7-.59-18.09h.39l44.78 44.07zm.75 219.03L481 480.08l.57-18.05 50.79-51.61q.56 8.1 1.16 16.29z" fill="#fefefe"/><path d="M531.82 225.66l-.94 17.64-43.53-42.83c0-6.69-.12-13-.24-18.81z" fill="#fefefe"/><path d="M530.88 243.3l-1 19.25-42.5-41.82v-20.26z" fill="#fefefe"/><path d="M529.86 262.55l-1 19.41-41.61-42.15q.11-9.9.14-19.08zM528.83 282l-.83 16.65-42.12 42.75h-.71q.19-7.59.39-15h.57z" fill="#fefefe"/><path d="M528.24 319.86h-.12l-42.87 43.56h-.69q.33-11.14.61-22h.71L528 298.65q0 10.52.24 21.21zm-33.35-39.07l-8.29 8.43h-.18q.18-8.37.32-16.45zM431 550.05c1.84-.1 3.69-.23 5.56-.39q-6.63.55-13.06.68l-54-53.16q.66-8.13 1.28-16.21l59.65 58.69h.1c.11 3.47.27 6.93.47 10.39z" fill="#fefefe"/><path d="M430.47 539.65h-.1L370.72 481q.61-8 1.18-16l57.73 56.8q.43 8.95.84 17.85zm-.83-17.87L371.91 465q.78-10.89 1.47-21.67l55.1 54.22q.59 12.15 1.16 24.23zm-1.16-24.25l-55.1-54.22q.5-7.69.93-15.31l53.36 52.51c.33 5.68.54 11.35.81 17.02z" fill="#fefefe"/><path d="M427.67 480.51L374.31 428q.48-8.21.9-16.32l51.61 50.79q.43 9.02.85 18.04zM426 444.42h-.17l-49.81-49q.42-9.21.73-18.29l48.25 47.5q.49 9.86 1 19.79z" fill="#fefefe"/><path d="M425 424.63l-48.29-47.51q.36-10.1.61-20L424 403q.51 10.76 1 21.63zm-2.77-60.73h-.68L378 321.07h-.12q0-10.69-.05-21.2l42.75 42.06h.71q.45 10.83.94 21.97zm-18.12 185.67a102.62 102.62 0 01-17.68-3.34v-.17L366.9 526.8q1.35-14.89 2.55-29.62l54 53.16a154.49 154.49 0 01-19.34-.77z" fill="#fefefe"/><path d="M421.27 341.9h-.71l-42.75-42.06-1.23-17.84 43.49 44.86h.57q.36 7.44.63 15.04zm-2.09-52.14H419l-8.43-8.3 8-8.15q.31 8.08.61 16.45zm-2.51-125.64h.4c-.18 5.4-.27 11.46-.31 18.1l-44 44.72-1.24-18 1.08-.08z" fill="#fefefe"/><path d="M417.59 240.37l-41 41.67-1.27-18.24 41.82-42.5q.17 9.16.45 19.07z" fill="#fefefe"/><path d="M417.14 221.3l-41.82 42.5-1.32-19.23L416.82 201c.07 6.43.18 13.2.32 20.3z" fill="#fefefe"/><path d="M372.76 227l44-44.72c0 5.83 0 12.12.07 18.81L374 244.57zm32.34-72l-34.86 35.43-.55-7.87C384.49 163.88 395 158 405.1 155zm-18.63 391.06v.17A63.13 63.13 0 01366 536.5c.3-3.24.6-6.47.88-9.7z" fill="#fefefe"/><path fill="#fefefe" d="M375.31 263.8l1.27 18.24 1.23 17.83-34.45 87.27-43.04-18.13 69.37-186.45.55 7.87 1.28 18.55 1.24 17.97 1.23 17.62 1.32 19.23z"/><path d="M472.13 549.29c.38 0 .77.06 1.14.07q6.64.46 13.07.47a153 153 0 0019.34-1.08 102.77 102.77 0 0017.63-3.63 62.58 62.58 0 0020.25-10.06c-.35-3.23-.7-6.45-1-9.68q-1.57-14.86-3-29.57-.79-8.13-1.54-16.19t-1.44-16q-1-10.87-1.82-21.64c-.41-5.13-.8-10.22-1.18-15.3q-.62-8.19-1.16-16.29t-1-16.27q-.57-9.19-1-18.27-.52-10.08-.94-20-.37-9.15-.66-18.17t-.46-17.82q-.22-10.69-.29-21.21l35.85 86.71 42.74-18.82-72.49-185.31c-15.1-18.43-25.7-24.11-35.85-27-5-1.43-9.93-2.16-15.22-3.42a72.54 72.54 0 01-9.53-2.9" fill="none" stroke="#000" stroke-linecap="round" stroke-miterlimit="10" stroke-width="1.16"/><path d="M486.51 163.57c-.22-4.48-.48-8.52-.77-12.07l-2.64-.67c-5.14-1.35-8.38-2.48-9.53-2.9l-.46-.17c.34 3.79.62 8.17.86 13.09 3.11 65-2.69 224.78-7.18 370.56q-.27 8.73-.53 17.39c2 .19 3.92.35 5.87.49.39 0 .77.06 1.14.07 1.87.13 3.73.23 5.57.3.11-3.46.21-6.92.32-10.4q.27-8.89.55-17.88.38-12.09.76-24.26.27-8.52.53-17l.57-18.05q.29-9.06.57-18.07.32-9.93.62-19.79.33-10.87.66-21.63.3-10 .59-19.9.28-9.7.55-19.24.33-11.14.61-22 .19-7.59.39-15c.14-5.71.29-11.36.41-16.92q.25-10.29.45-20.21.18-8.37.32-16.45c.1-5.68.2-11.25.27-16.69s.15-11 .21-16.27q.11-9.9.14-19.08v-20.26c0-6.69-.12-13-.24-18.81-.12-6.75-.36-12.75-.61-18.18zm-.63 177.83l42.07-42.75.88-16.69 1.03-19.41 1.02-19.24.94-17.65.95-17.98.98-18.57.42-7.88m-6.05 138.63l-42.87 43.56m43.45-25.74l-44.25 44.97" fill="none" stroke="#000" stroke-linecap="round" stroke-miterlimit="10" stroke-width="1.16"/><path fill="none" stroke="#000" stroke-linecap="round" stroke-miterlimit="10" stroke-width="1.16" d="M529.37 355.85l-45.95 46.69-.38.39m47.25-27.05l-47.51 48.29m48.54-30.02l-49.01 49.82m50.06-33.55l-50.8 51.61-.43.44m52.37-35.76L481 480.08m53.7-38.07l-54.23 55.11-.27.27m56.31-33.74l-56.8 57.73-.36.37m58.6-42.13l-58.68 59.64m60.23-43.45l-53.16 54.02-.52.53m55.37-37.7l-35.51 36.09-.3.32m37.14-23.69l-19.26 19.58m-35.9-324.23l42.5 41.82.15.14m-42.66-62.22l43.53 42.84.04.04m-43.87-61.74l.05.05 44.72 44 .01.02m-44.93-62.13l44.78 44.07m-33.5-53.51l.14.14 35.43 34.86.13.13m-46.66 50.57l41.61 42.15-42.7 44.41"/><path fill="none" stroke="#000" stroke-linecap="round" stroke-miterlimit="10" stroke-width="1.16" d="M487.02 256.08l26.35 25.94-26.98 27.42"/><path fill="none" stroke="#000" stroke-linecap="round" stroke-miterlimit="10" stroke-width="1.16" d="M486.75 272.77l8.14 8.02-8.29 8.43m-48.94 260.35l-1.14.09q-6.63.55-13.06.68a154.49 154.49 0 01-19.35-.77 102.62 102.62 0 01-17.68-3.34A63.13 63.13 0 01366 536.5c.3-3.24.6-6.47.88-9.7q1.35-14.89 2.55-29.62.66-8.13 1.28-16.21t1.18-16q.78-10.89 1.47-21.67.5-7.69.93-15.31.48-8.21.9-16.32t.77-16.27q.42-9.21.73-18.29.36-10.1.61-20 .24-9.16.37-18.18t.18-17.83q0-10.69-.05-21.2l-34.45 87.27-43-18.13 69.37-186.45C384.49 163.88 395 158 405.1 155c5-1.51 9.9-2.32 15.16-3.66a74.46 74.46 0 009.49-3.05"/><path d="M417.07 164.13q.21-6.74.57-12.08l2.62-.71c5.12-1.43 8.35-2.62 9.49-3.05l.46-.18c-.28 3.79-.5 8.18-.66 13.1-2.05 65 6.32 224.56 13.16 370.2q.41 8.83.82 17.57c-2 .22-3.92.42-5.87.59l-1.14.09c-1.87.16-3.72.29-5.56.39-.16-3.46-.32-6.92-.49-10.4q-.41-8.89-.83-17.87-.57-12.07-1.16-24.25c-.27-5.67-.53-11.34-.81-17q-.42-9-.86-18t-.81-18.11q-.48-9.93-.94-19.79-.51-10.86-1-21.61-.47-10-.91-19.89-.45-9.7-.87-19.23-.5-11.13-1-22-.31-7.59-.63-15c-.24-5.71-.47-11.36-.69-16.91q-.4-10.29-.77-20.21-.31-8.37-.59-16.44c-.19-5.68-.38-11.24-.54-16.68s-.33-11-.46-16.27q-.27-9.9-.45-19.07c-.15-7.1-.25-13.87-.31-20.26-.07-6.69-.09-13-.07-18.81.03-6.66.12-12.72.3-18.12zm56.93-3.28c-13.32 3.85-31 4-44.41.36m-9.03 180.72l-42.75-42.06-1.23-17.83-1.27-18.24-1.32-19.23-1.23-17.62-1.24-17.97-1.28-18.55-.55-7.87m8.29 138.51l43.57 42.86m-43.87-25.03l44.98 44.25" fill="none" stroke="#000" stroke-linecap="round" stroke-miterlimit="10" stroke-width="1.16"/><path fill="none" stroke="#000" stroke-linecap="round" stroke-miterlimit="10" stroke-width="1.16" d="M377.31 357.08l46.7 45.94.39.38m-47.69-26.28L425 424.63m-49.02-29.22l49.81 49.02m-50.6-32.75l51.62 50.79.44.43M374.31 428l53.36 52.51m-54.29-37.2l55.1 54.23.28.26m-56.85-32.82l57.73 56.8.36.36m-59.28-41.17l59.65 58.69m-60.93-42.48l54.02 53.16.53.52m-55.97-36.8l36.09 35.51.31.31M366.9 526.8l19.57 19.26m30.66-324.76l-41.82 42.5-.14.14m41.65-62.9l-42.83 43.53-.05.05m42.87-62.44l-.05.05-44 44.72-.01.01m43.92-62.84L372.6 208.9m32.64-54.04l-.13.14-34.87 35.43-.13.13m47.47 49.81l-41 41.67 43.49 44.86"/><path fill="none" stroke="#000" stroke-linecap="round" stroke-miterlimit="10" stroke-width="1.16" d="M418.04 256.64L392.11 283l27.43 26.98"/><path fill="none" stroke="#000" stroke-linecap="round" stroke-miterlimit="10" stroke-width="1.16" d="M418.59 273.32l-8.02 8.15 8.43 8.3m47.79 241.64h-24.08m-12.5-383.3a97.8 97.8 0 0042.9-.35"/><path d="M124.87 486.53c0-4.85.09-11.83.14-22.7-.01 10.33-.01 17.41-.14 22.7z" fill="#818286"/><path d="M125 417.65c-.06 20.31 0 35.11 0 46.18-.05 10.87-.1 17.85-.14 22.7-.36 14.47-1.65 15.47-5.86 32.7l-24.32-4c3.32-39.23 7.43-84.6 14.61-115.12l15.34 17.54z" fill="#818286"/><path d="M201.3 374.24l.42-.38z" fill="#d2d3d5"/><path d="M220.17 451.66L219 416.28h.49l14.82-18c8.94 33.66 14.64 85 18 114.63l-24.19 4.72c-4.31-15.44-5.83-17.74-6.69-28.71-.18-5.92-.55-16.01-1.26-37.26zm-75.31-74.19l.51.3z" fill="#818286"/><path d="M218.71 408.13l.27 8.15 1.19 35.38-.12.08c-.32-11.21-.73-25.4-1.34-43.61z" fill="#818286"/><path d="M252.31 512.92l2.12 18.78c-5.6 3.27-12.85 4.62-21 4.92l-5.3-19z" fill="#707175"/><path d="M195.22 378.36l.54-.29zm-48 .42l.54.27zm49.59-1.3l.77-.47z" fill="#818286"/><path d="M219 416.28l-.27-8.15-.08-2.4-46.32 29.34-47.25-28v10.55h-.39l-15.34-17.54a156.76 156.76 0 014.63-16.24c5.93-7.19 13.21-12.45 22.52-14.82a21.23 21.23 0 004.7 5.7l.43.36.44.36.45.35c.46.35.93.69 1.41 1l.49.32.5.32.51.3.78.45c.35.19.7.38 1.07.56l.54.27.55.27.28.13c13.27 6.07 32.73 5.79 45.81-.67l.28-.14.54-.28.54-.29c.36-.19.71-.39 1.05-.59l.77-.47.49-.32.49-.33.38-.32c.48-.34.94-.69 1.39-1l.44-.37.43-.37.42-.38a21.09 21.09 0 004.53-5.83c9.37 2.1 16.8 7.14 22.94 14.16a159.35 159.35 0 015.1 16.1l-14.82 18z" fill="#d2d3d5"/><path d="M119 519.23l-4.75 19.12c-8.17-.05-15.46-1.19-21.14-4.3l1.57-18.83z" fill="#707175"/><path d="M145.37 377.77l.78.45zm76.06 111.15c-.55-7-.82-17.51-1.38-37.18l.12-.08c.71 21.25 1.08 31.34 1.26 37.26zM142.13 369l58.43-.85c-4.65 8.29-16.14 10-29.07 10.39-12.94-.01-24.49-1.41-29.36-9.54z" fill="#818286"/><path d="M221.59 516a211.33 211.33 0 01-47.47 42.52 211.45 211.45 0 01-48.69-41.12l-.24-7.82c16.33 17.45 32.61 32 48.82 41.53 15.92-10 31.77-25 47.58-42.93z" fill="#707175"/><path d="M194.4 378.78c-13.08 6.46-32.54 6.74-45.81.67 13.27 6.07 32.73 5.79 45.81-.67zm.28-.14l.54-.28zM142 375.47l.45.35z" fill="#818286"/><path d="M202.16 364a16.21 16.21 0 01-1.6 4.14l-58.43.85a15.87 15.87 0 01-1.72-4.09z" fill="#707175"/><path d="M173 482.49l-47.95-29.44V407.1l47.25 28 46.32-29.34.08 2.4c.61 18.21 1 32.4 1.34 43.61z" fill="#fff"/><path d="M141.14 374.75l.43.36zm56.44 2.25l.49-.32z" fill="#818286"/><path d="M144.36 377.15l-.49-.32c-.48-.32-1-.66-1.41-1l-.45-.35-.44-.36-.43-.36a21.23 21.23 0 01-4.7-5.7l4-4.17a15.87 15.87 0 001.72 4.09c4.88 8.16 16.42 9.56 29.36 9.54 12.93-.36 24.42-2.1 29.07-10.39a16.21 16.21 0 001.6-4.14l4.09 4a21.09 21.09 0 01-4.53 5.83l-.42.38-.43.37-.44.37c-.45.36-.91.71-1.39 1l-.48.33-.49.33-.49.32-.77.47c-.34.2-.69.4-1.05.59l-.54.29-.54.28-.28.14c-13.08 6.46-32.54 6.74-45.81.67l-.28-.13-.55-.27-.54-.27c-.37-.18-.72-.37-1.07-.56l-.78-.45-.51-.3z" fill="#707175"/><path d="M143.87 376.83l.49.32zm3.89 2.22l.55.27z" fill="#818286"/><path d="M198.56 376.36l.44-.36zm1.87-1.36l.44-.37z" fill="#d2d3d5"/><path d="M221.59 508.22c-15.81 17.91-31.66 32.91-47.58 42.93-16.21-9.55-32.49-24.08-48.82-41.53-.36-12.11-.39-11.22-.32-23.09.14-5.29.15-12.37.14-22.7v-10.78L173 482.49l47-30.75c.56 19.67.83 30.19 1.38 37.18.3 8.08.22 8.64.21 19.3z" fill="#818286"/><path d="M221.43 488.93c.25 8 .17 8.63.16 19.29m-1.42-56.56c.71 21.25 1.08 31.3 1.26 37.26m-96.24 20.7c-.36-12.11-.39-11.22-.32-23.09 0-4.85.09-11.83.14-22.7v-10.78" fill="none" stroke="#000" stroke-miterlimit="10" stroke-width=".65"/><path d="M221.59 508.22V516a211.33 211.33 0 01-47.47 42.52 211.45 211.45 0 01-48.69-41.12l-.24-7.82c16.33 17.45 32.61 32 48.82 41.53 15.92-9.98 31.77-24.98 47.58-42.89z" fill="none" stroke="#000" stroke-miterlimit="10" stroke-width=".64"/><path d="M206.25 368c9.37 2.1 16.8 7.14 22.94 14.16a159.35 159.35 0 015.1 16.1c8.94 33.66 14.64 85 18 114.63M201.3 374.24l.42-.38m-1.29 1.14l.44-.37m-2.31 1.73l.44-.36m-2.19 1.48l.77-.47.49-.32m-3.39 1.95l.54-.28.54-.29m-47.17 1.38c13.27 6.07 32.73 5.79 45.81-.67m-47.18 0l.54.27.55.27m-3.45-1.85l.51.3.78.45m-2.28-1.39l.49.32m-2.36-1.68l.45.35m-1.31-1.07l.43.36M94.63 515.22c3.37-39.22 7.48-84.59 14.66-115.11a156.76 156.76 0 014.63-16.24c5.93-7.19 13.21-12.45 22.52-14.82" fill="none" stroke="#000" stroke-miterlimit="10" stroke-width=".65"/><path d="M125.06 407.1v10.55c-.06 20.31 0 35.11 0 46.18 0 10.33 0 17.41-.14 22.7-.42 14.47-1.71 15.47-5.92 32.7m109.12-1.59c-4.31-15.44-5.83-17.74-6.69-28.71h0c-.55-7-.82-17.51-1.38-37.18-.32-11.21-.73-25.4-1.34-43.61m33.6 104.78l2.12 18.78c-5.6 3.27-12.85 4.62-21 4.92l-5.3-19z" fill="none" stroke="#000" stroke-miterlimit="10" stroke-width=".65"/><path fill="none" stroke="#000" stroke-miterlimit="10" stroke-width=".65" d="M220.17 451.66l-.12.08-47.04 30.75-47.95-29.44V407.1l47.25 27.97 46.32-29.34.08 2.4.27 8.15 1.19 35.38zm-1.54-45.93l-.53-15.8m16.2 8.34l-.01.02-14.82 17.97M206.25 368a21.09 21.09 0 01-4.53 5.83l-.42.38-.43.37-.44.37c-.45.36-.91.71-1.39 1l-.48.33-.49.33-.49.32-.77.47c-.34.2-.69.4-1.05.59l-.54.29-.54.28-.28.14c-13.08 6.46-32.54 6.74-45.81.67l-.28-.13-.55-.27-.54-.27c-.37-.18-.72-.37-1.07-.56l-.78-.45-.51-.3-.5-.32-.49-.32c-.48-.32-1-.66-1.41-1l-.45-.35-.44-.36-.43-.36a21.23 21.23 0 01-4.7-5.7l4-4.17a15.87 15.87 0 001.72 4.09c4.88 8.16 16.42 9.56 29.36 9.54 12.93-.36 24.42-2.1 29.07-10.39a16.21 16.21 0 001.6-4.14zM119 519.23l-4.75 19.12c-8.17-.05-15.46-1.19-21.14-4.3l1.57-18.83zm6.23-127.94l-.17 15.81m-15.78-7l.01.01 15.34 17.53m15.78-52.76l61.75-.9m-1.6 4.14l-58.43.85"/><path d="M113.81 176.63l-10.28-6.29 21.47-18a30.69 30.69 0 0012.91 10.79l-11.17 21.37z" fill="#d3d3d3"/><path d="M152.24 167.05a45.73 45.73 0 01-14.33-3.88 48.47 48.47 0 0014.33 3.88zm74.84 141.53c-24.63 8.25-69.42 12.92-95.22 9.91q-1.37-7-2.65-14.42c15.56 2.05 32 1.29 49.1-1.64 17.35-.66 33.58-3.3 48.39-8.51q.3 7.47.38 14.66z" fill="#868686"/><path d="M194.7 141.38a21.23 21.23 0 01-1.63 3.52c-.09.16-.19.32-.29.48a21.44 21.44 0 01-1.42 2.05l-.15.2-57.41 6-.17-.15c-.46-.39-.91-.8-1.33-1.22-.08-.07-.15-.15-.22-.22l-.17-.17-.3-.32c-.15-.16-.3-.33-.44-.5l-.29-.33a21.85 21.85 0 01-1.77-2.48z" fill="#d3d3d3"/><path d="M193.07 144.9a21.23 21.23 0 001.63-3.52l4.88 3.24a30.67 30.67 0 01-10.41 13.21 47.23 47.23 0 01-9.1 5.2h-.05a56.55 56.55 0 01-27.7 4h-.07a48.47 48.47 0 01-14.33-3.89A30.69 30.69 0 01125 152.38l4.11-4.17a21.85 21.85 0 001.77 2.48l.29.33c.14.17.29.34.44.5l.3.32.17.17c.07.07.14.15.22.22.42.42.87.83 1.33 1.22l.17.15c.66.55 1.34 1.06 2.06 1.55l.47.31.73.46.5.29a2 2 0 00.25.14c.16.1.33.19.5.28l.26.14c.68.36 1.39.7 2.11 1 15.82 6.88 40 2.8 50.34-9.91l.19-.24.15-.2a21.44 21.44 0 001.42-2.05c.1-.15.22-.31.29-.47z" fill="#868686"/><path d="M128.35 299.08l-7.79 38.68c-10.87-3.38-19.55-5.13-25.95-4.7-2-20.4-2.69-39.64 1.69-82.65V237.7l25 12.13c.17 1.43.35 2.84.52 4.24 1.87 14.87 4.03 30.09 6.53 45.01z" fill="#fff"/><path d="M193.07 144.9c-.09.16-.19.32-.29.48.1-.16.22-.32.29-.48zm-56.01 11.02l-.73-.46z" fill="#d3d3d3"/><path d="M102.37 171.31l1.16-1 10.28 6.29c.79 9.24 1.56 18 2.52 27.81l.37.05c-.48 2.19-.1 4.09.45 8.3l-19.26-10.6a254.89 254.89 0 014.48-30.85zm139.74 153.8l-15.6-36.24c-.61-15-1.66-30.57-2.88-45.41l-.36-4.25 22-17c.92 4.21 1.79 8.37 2.61 12.44 13.26 41.55 16.54 61 18.7 80.53-6.4.88-14.53 4.38-24.47 9.93z" fill="#fff"/><path d="M126.74 184.54c-6.73 12.87-9.33 16.73-10 20l-.37-.05c-1-9.86-1.73-18.57-2.52-27.81zm109.63 3.23l-16.65 14.33c-.34-4.2-.38-6.14-1.31-8.19l.35-.14c-1.1-9.86-2.12-18.55-3.24-27.72l8.76-8.28 1.34.71a254 254 0 0110.75 29.29z" fill="#fff"/><path d="M191 147.87c-10.29 12.71-34.52 16.79-50.34 9.91 15.84 6.88 40.07 2.8 50.34-9.91zm-53.44 8.34l-.5-.29z" fill="#d3d3d3"/><path d="M248.53 340c0-.83 18.79-8.8 19.76-7.94-4.13 3.86-11.57 6.09-19.76 7.94zM96.38 350c.76-1 20.79 2.88 21 3.7-8.44-.16-16.18-.82-21-3.7z" fill="#fff"/><path d="M137.81 156.35c.16.1.33.19.5.28-.17-.09-.31-.18-.5-.28zM96.29 237.7c.11-11.61.55-23.67 1.6-35.51l19.26 10.6c.14 1.11.3 2.38.45 3.86 1.26 12.26 2.46 23 3.7 33.16l-25-12.13zm44.39-79.92c-.72-.31-1.43-.65-2.11-1 .69.35 1.43.69 2.11 1z" fill="#d3d3d3"/><path d="M178.31 302.43c-17.1 2.93-33.54 3.69-49.1 1.64-.29-1.66-.58-3.32-.86-5-2.5-14.92-4.66-30.14-6.53-45l54.51 29.34 47.3-39.94c1.22 14.84 2.27 30.39 2.88 45.41.07 1.69.13 3.37.19 5.05-14.81 5.2-31.04 7.84-48.39 8.5z" fill="#fff"/><path d="M266.55 315.16c.6 5.48 1.12 11 1.74 16.93-1-.86-19.76 7.11-19.76 7.94l-6.42-14.92c9.94-5.55 18.07-9.05 24.42-9.94z" fill="#868686"/><path d="M215.52 166.05l-11 10.4-15.32-18.62a30.67 30.67 0 0010.41-13.21l24.7 13.15z" fill="#d3d3d3"/><path d="M189.16 157.83a43.52 43.52 0 01-9.11 5.2 47.23 47.23 0 009.11-5.2z" fill="#868686"/><path d="M117.6 216.65l54.89 29.84L220.08 206c1.15 10.89 2.25 22.21 3.19 33.22l.36 4.25-47.3 39.94-54.51-29.34c-.17-1.4-.35-2.81-.52-4.24-1.24-10.15-2.44-20.92-3.7-33.18zm9.14-32.11l11.17-21.37a45.73 45.73 0 0014.33 3.88h.07a54.64 54.64 0 0027.7-4h.05a43.52 43.52 0 009.11-5.2l15.32 18.62-35.78 33.76z" fill="#d3d3d3"/><path d="M245.24 222.19l-22 17c-.94-11-2-22.33-3.19-33.22-.16-1.48-.27-2.76-.36-3.88l16.65-14.33c3.49 11.38 6.4 23.09 8.9 34.43z" fill="#d3d3d3"/><path d="M133.63 153.45l.17.15zm57.73-6.02l-.15.2z" fill="#868686"/><path d="M191 147.87c-10.29 12.71-34.52 16.79-50.34 9.91-.72-.31-1.42-.65-2.11-1l-.26-.14c-.17-.09-.34-.18-.5-.28a2 2 0 01-.25-.14l-.5-.29-.73-.46-.47-.31c-.72-.49-1.4-1-2.06-1.55l57.41-6zm-55.14 7.28l.47.31z" fill="#d3d3d3"/><path d="M126.74 184.54l42 25.67 35.78-33.76c9.2 11.16 12.54 14.42 13.92 17.46.93 2.05 1 4 1.31 8.19.09 1.12.2 2.4.36 3.88l-47.59 40.51-54.92-29.84c-.15-1.48-.31-2.75-.45-3.86-.55-4.21-.93-6.11-.45-8.3.71-3.22 3.3-7.08 10.04-19.95z" fill="#fff"/><path d="M120.56 337.76l-3.21 15.93c-.18-.82-20.21-4.74-21-3.7-.63-6-1.24-11.52-1.77-16.93 6.42-.43 15.11 1.32 25.98 4.7z" fill="#868686"/><path d="M199.58 144.62l24.7 13.15 1.34.71a254 254 0 0110.75 29.29c3.46 11.37 6.37 23.08 8.87 34.42.92 4.21 1.79 8.37 2.61 12.44 13.26 41.55 16.54 61 18.7 80.53.6 5.48 1.12 11 1.74 16.93-4.13 3.83-11.57 6.06-19.76 7.94l-6.42-14.92-15.6-36.24" fill="none" stroke="#000" stroke-miterlimit="10" stroke-width=".56"/><path d="M204.49 176.45c9.2 11.16 12.54 14.42 13.92 17.46.93 2.05 1 4 1.31 8.19.09 1.12.2 2.4.36 3.88M117.6 216.65c-.15-1.48-.31-2.75-.45-3.86-.55-4.21-.93-6.11-.45-8.3.71-3.22 3.31-7.08 10-20m-4.88 69.56c-.17-1.4-.35-2.81-.52-4.24-1.24-10.13-2.44-20.9-3.7-33.16l54.89 29.84L220.08 206c1.15 10.89 2.25 22.21 3.19 33.22l.36 4.25" fill="none" stroke="#000" stroke-miterlimit="10" stroke-width=".56"/><path d="M129.21 304.07c-.29-1.66-.58-3.32-.86-5-2.5-14.92-4.66-30.14-6.53-45l54.51 29.34 47.3-39.94c1.22 14.84 2.27 30.39 2.88 45.41h0c.07 1.69.13 3.37.19 5.05" fill="none" stroke="#000" stroke-miterlimit="10" stroke-width=".56"/><path d="M226.7 293.92q.27 7.47.38 14.66c-24.63 8.25-69.42 12.92-95.22 9.91q-1.37-7-2.65-14.42c15.56 2.05 32 1.29 49.1-1.64 17.35-.66 33.58-3.3 48.39-8.51zm-7.94-100.15c-1.1-9.86-2.12-18.55-3.24-27.72-.16-1.26-.31-2.52-.47-3.79m51.48 152.91c-6.35.89-14.48 4.39-24.42 9.94m26.18 6.98c-1-.86-19.76 7.11-19.76 7.94M194.7 141.38l4.88 3.24a30.67 30.67 0 01-10.41 13.21 43.52 43.52 0 01-9.11 5.2m12.72-17.65c.1-.16.2-.32.29-.48m-1.86 2.73l.15-.2m-50.68 10.35c15.82 6.88 40 2.8 50.34-9.91m-52.45 8.9c.69.36 1.39.7 2.11 1m-2.87-1.42c.16.1.33.19.5.28m-1.25-.71l.5.29m-1.23-.75l.73.46m-1.2-.77l.47.31m-2.7-2.01l.17.15m-1.72-1.6c.07.07.14.15.22.22m-.69-.7l.3.32m-1.03-1.15l.29.33" fill="none" stroke="#000" stroke-miterlimit="10" stroke-width=".56"/><path d="M152.24 167.05a45.73 45.73 0 01-14.33-3.88A30.69 30.69 0 01125 152.38l4.11-4.17M180 163.05a56.55 56.55 0 01-27.7 4" fill="none" stroke="#000" stroke-miterlimit="10" stroke-width=".56"/><path d="M133.8 153.6l-.17-.15c-.46-.39-.91-.8-1.33-1.22-.08-.07-.15-.15-.22-.22l-.17-.17-.3-.32c-.15-.16-.3-.33-.44-.5l-.29-.33a21.85 21.85 0 01-1.77-2.48l65.59-6.83a21.23 21.23 0 01-1.63 3.52c-.09.16-.19.32-.29.48a21.44 21.44 0 01-1.42 2.05l-.15.2" fill="none" stroke="#000" stroke-miterlimit="10" stroke-width=".56"/><path d="M191.21 147.63l-.19.24c-10.29 12.71-34.52 16.79-50.34 9.91h0c-.72-.31-1.43-.65-2.11-1l-.26-.14c-.17-.09-.34-.18-.5-.28a2 2 0 01-.25-.14l-.5-.29h0l-.73-.46h0l-.47-.31c-.72-.49-1.4-1-2.06-1.55m57.65-6.01l-.24.03h0l-57.4 5.97h-.01l-.24.03m90.72 4.14l-8.77 8.28-11.02 10.4m15.18 25.7l.05-.05 16.65-14.32v-.01m-13.1 51.43h0l21.97-17.01" fill="none" stroke="#000" stroke-miterlimit="10" stroke-width=".56"/><path fill="none" stroke="#000" stroke-miterlimit="10" stroke-width=".56" d="M189.17 157.84l15.32 18.61-35.78 33.76-41.96-25.67 11.16-21.37"/><path d="M152.24 167.05h.07a54.64 54.64 0 0027.7-4h.05m-51.71 136.03l-7.79 38.68-3.21 15.93c-8.41-.15-16.15-.81-21-3.7-.63-6-1.24-11.52-1.77-16.93-2-20.4-2.69-39.64 1.69-82.65V237.7c.11-11.61.55-23.67 1.6-35.51a254.89 254.89 0 014.48-30.88l1.16-1 21.47-18" fill="none" stroke="#000" stroke-miterlimit="10" stroke-width=".56"/><path d="M116.33 204.44c-1-9.86-1.73-18.57-2.52-27.81-.1-1.25-.21-2.52-.32-3.8M94.61 333.06c6.4-.43 15.08 1.32 26 4.7M96.38 350c.76-1 20.79 2.88 21 3.7" fill="none" stroke="#000" stroke-miterlimit="10" stroke-width=".56"/><path fill="none" stroke="#000" stroke-miterlimit="10" stroke-width=".56" d="M103.53 170.34l10.28 6.29 12.94 7.91m-9.56 28.27l-.04-.02-19.26-10.6h0m23.41 47.63l-25-12.13"/></svg>