<svg xmlns="http://www.w3.org/2000/svg" viewBox="0 0 700 700"><path fill="#aad1ee" d="M0 0h700v700H0z"/><path d="M234.14 144.25a2.39 2.39 0 001.26-1.85l-9.92-.63-3.47-.21a76.15 76.15 0 01-10.56-1.17 5.73 5.73 0 00-2.66-.16 9.41 9.41 0 011.2 3.6 13.11 13.11 0 00.38 2.74 1.36 1.36 0 00.5.75 1.58 1.58 0 00.65.19l4.74.71a18.76 18.76 0 008.75-.53c3.18-.96 6.35-1.47 9.13-3.44z" fill="#fcfbf7"/><path d="M475.39 279.71l-16.76-71.32L479 206.9c15.61 21.46 7.27 9.4 38 55.21l10.17-28c-14.05-41.38-16.47-36.15 19.61-29.56 1.07 60-.3 28.88 6.57 141.39-5.63 26.91-4.84 13.45 2.21 66-11.53-3.26-.87 1.44-57.51-27.6-19.65 16-13.05 7.12-28.39 40.75l-21.19-15.47c9.53-37.62 3.83-11.1 26.92-129.91z" fill="#072432"/><path d="M509.14 168.62a28 28 0 003.59-.81c-1.2 1.28-2.28 3.79-3.62 4.82-2.85 2.21-11.83.64-15.17-1.43-1.05-.66-2.35-2.11-3.59-2.65 4.58.42 9.28 0 13.77 1 3.07.71 2.62-.07 5.02-.93z" fill="#f5c2a3"/><path d="M526.76 129.67c-3.79-17.31-3.8-17.89-8.58-18.78-3-.56-5.26-1.88-7.33 0s-2.62 1.5-5.81 1.32c-11.76-.69-11.83-5.51-15-1.51-7.57 9.48-8.68 9.09-13.09 21.77-7.89 22.95-5.79 13.19-13.58 25.55 1.28 6.41 3 3.8 4.88 1.88-.31 13.75 27.58 27.92 35.94 27.6 10.87-.21 24.14-29.42 22.47-41.68-.59-4.13 1.16-11.27.1-16.15zm-13.12 37.5c-.17 2.39-.72 7-2.41 8.72-2.93 2.89-10.06 1.86-14.46-.32-8.75-4.3-7.28-6.37-9.17-7.36-.25-.17-.21-1.23-.12-1.32s9 .05 12.57.34c9.34.77 13.8-3.09 13.59-.06z" fill="#f5c2a3"/><path d="M523.91 142.44c-.21 3-4.1 5.31-4.47 4.19 1.47-.84 3.12-2.63 3.15-3.37s-3.72-8.4-9.28-4.7c0-4.45 11.05-2.73 10.6 3.88z" fill="#010000"/><path d="M522.59 143.26c0 .74-1.65 2.51-3.15 3.37-3.28 1.88-5.92.82-7.69.67-.7-.06-.84-.27-.82-.86.35-6.89-.09.8 4.45.8 6.36 0 4.52-11.64-1.38-9.06 1.49-1.16 5-.62 6.29 1.22 2.22 3.29 2.32 3.46 2.3 3.86z" fill="#fff7ee"/><path d="M514 138.18c-1.35.57-2.61 5-2.59 5.11.56 4.17 5.22 5.37 7.27 2 2.26-3.75-.98-8.69-4.68-7.11zm3.55 5.66c-2 4-7.31-.45-4.73-3a2.82 2.82 0 014.73 3z" fill="#4bdeff"/><path d="M515 145.38a2.82 2.82 0 01-.67-5.55c4.04-1.06 4.95 5.55.67 5.55z" fill="#110914"/><path d="M526.66 132.87c-11.27-5.18-11.74.36-13.94 0-1.67-.29 1-3.36 1.46-3.8 4.82-4.43 12.3 1.5 12.48 3.8zM496.54 131c.65 1.65-.8 1.3-2.23 1.12-16.2-2-18.26 2.78-17-.84 5.24-3.49 17.74-4.09 19.23-.28z" fill="#8d4107"/><path d="M489.73 138.35c-2.05.63-4.34-1.44-7.51.1-1.5.72-6.59 4.62-6.83 6.26 1.84.29 5.26 4.38 7.11 4.65.86.15.76-.1.42 1-2.76.13-4.89-2.08-7.36-3-5.93-2.15 5.02-16.07 14.17-9.01z" fill="#010000"/><path d="M529.12 172.68a10.6 10.6 0 01-1.43 1.79c-1.41 1.41-3.23 2.34-4.69 3.7-2.55 2.4-3.73 5.87-5.18 9.05-2 4.28-4.78 6.6-8.76 8.86a11.44 11.44 0 01-4.9-8.58c10.87-.21 24.14-29.42 22.47-41.68-.56-4.13 1.19-11.27.13-16.15s-3.88-15.4-4.07-16.15c-.56-2.24-9.53-4.72-11.84-2.63-2.06 1.88-2.62 1.5-5.81 1.32-11.76-.69-11.83-5.51-15-1.51-2.25 2.82-8.64 9.21-11.46 17.09-11.38 31.81-5.49 14.82-15.21 30.23 0 0 1.13 5.64 3 3.76 4.55-4.55-1.36.1 6.79 9.19.11 7.41 2.77 9.12 0 31.24-2.51-.81-12.87 1.64-15.42 2.31a58.21 58.21 0 01-11.48-8.37 22.84 22.84 0 01-6.31-20.76c.51-2.39 1.42-4.67 2.12-7 2.41-8.14 1.86-16.65 2.38-25s.69-16.78 1.44-25.15c1-11.32 11.81-25.25 21.6-30.46 5.32-2.82 11.2-4.39 17.08-5.64a22.38 22.38 0 018.17-.62 40.17 40.17 0 015.33 1.58c7 2.19 16.41-.58 22.17 4.2 5.22 4.34 8.21 12 11.47 17.8 6.32 11.16 6.6 24.29 4.84 36.68a148.27 148.27 0 01-3.63 17.14c-1.17 4.37-1.26 9.8-3.8 13.76z" fill="#7b1f0a"/><path d="M514.38 223.94S518 247 516.3 251s-6.76-2.81-9.29-7.89c-2.36-4.72-10.65-14.45-5.08-21.12 1.41-1.7 1.13-4.79 1.13-4.79-20.29-1.16-17.8-13.26-26.19-10.42-2.45-2.78-2.52-4.15-3.72-4.55 4.27-34.22-4.94-34.28 3.72-27.85l8.82 6.58s12.6 6.79 18.47 6.56c.29 10.52 11.74 10.24 9 10.24a45.31 45.31 0 013.74 4.33c-.13 19.13-12.42 11.35-2.52 21.85z" fill="#efb699" stroke="#777" stroke-miterlimit="10" stroke-width=".45"/><path d="M549.67 635.65c-8 4.16-17.47 2.23-26.42 2.56-5.07.19-8.07-6.2-8.27-7.51s-4.32-8.27-4.88-10.33-5.06-5.64-5.06-5.64c.15 8.81 1.56 23.26-7.7 17.65-1.88-1.12 0-2.81-.39-6.76-.74-7.87-7.64-17-5.06-28.16.56-2.44 5.82-9.2 6.38-9.2 6.31 5.84 9.66 12.79 10 14.83.37 2.63 7.51 9 10.89 12.77 5.33 5.93 12.94 1.43 19.23 4.17l8.88 3.87a6.43 6.43 0 014.36 4.15l1.37 3.05a2.52 2.52 0 01.34 1.76 2.6 2.6 0 01-1.05 1.18 20.56 20.56 0 01-2.62 1.61z" fill="#00060a"/><path d="M527.76 619.24c-3.76-.57-5.26.38-8.64-3.38s-10.52-10.14-10.89-12.77-5.08-10.33-7.52-12.58c-5.12-4.71-.42-.18 1.13-5.26 6.49-21.15-10-17.82 20.44-16.33 6.42 41.65 16.35 51.97 5.48 50.32z" fill="#ffd8b9"/><path d="M414.61 603.65c.28 8.59-.14 13.11.28 17.05s-1.83 11.26-4.78 12.39a49.59 49.59 0 01-19 3.46 19.81 19.81 0 01-8.52-1.85c-3.33-1.73-4.72-5-6.32-8.2a8.77 8.77 0 01-1.2-4.07c.11-3.89 3.76-8.79 5.29-12.34a58.05 58.05 0 003.14-8.65c.34-1.32.17-3.92 1.38-4.83s1 1 .14 7-2.95 10.43 1.7 11.7 11.54 4.5 15.48 2.11 5.78.13 7.76-5.92c1.44-4.44 4.67-18.76 3.8-36.06 10.65 10.68.5 17.64.85 28.21z" fill="#00060a"/><path d="M410 611.54c-2 6.05-3.8 3.52-7.76 5.92s-10.83-.85-15.48-2.11-2.54-5.64-1.7-11.7 1-7.88-.14-7c10.37-27.52 7.51-26.59 8.73-35.07.15-1 20.57 2.53 20.57 2.53-2.58 8.08 2.78 25.68-4.22 47.43z" fill="#ffd8b9"/><path d="M553.4 413.42c0 10.08-15.17 52.53-24.33 88.27-3.76 14.64-6.79 67.23-6.79 67.23L503 568c-1.82-13.25-12.38-27.55-8.08-67 1.88-17.27 9.77-39.05 10.15-40.94 0-.09-9.83-71.51-10.15-70.23-.37 1.5-13.14 30.05-15.78 33.05s-19.52 40.94-23.28 48.45c-16.43 32.86 9.83 7.68-41.64 92.81 0 0-20.42-3.51-20.57-2.53 1.74-14.72 4.13-51.61 17.14-72.63 20.31-32.77 20.59-34.79 21-86.38l39.06 13.15 16.91-91.27c21.8 1.34 30.63 5 46.2 0 .78 44.28-2.15 41.28 12.76 89.39z" fill="#061319"/><path d="M559.68 413.42h-6.28s-7.24-26.95-9.49-38.77c-2.13-11.19-6-58.5-6-65 0-6.24 1.2-27.48 1.64-38.62.94-23.69-1.12-4.1.12-59.2l-13.28 8.29a52 52 0 00-5.65-12.54c-7.47-12.14-9.69-9.47-5.38-9.84 43.53 0 27.41 12.1 27.41 108.45 0 13.28 8.78 38.37 10.83 48.73 3.69 18.62 4.1 26.89 6.08 58.5z" fill="#072432"/><path d="M546.72 413.8s-11.64-37.56-12-47.7c-2.84-77 9.89-84.72-8.3-146l13.28-8.29c-1.29 57.19.86 34.55-.12 59.2-.46 11.72-1.6 32.19-1.64 38.62 0 6.61 3.85 53.78 6 65 8.48 44.8 14.6 38.5 2.78 39.17z" fill="#143850"/><path d="M484.58 317.25c-1.09-1.94-4-2.7-7.43-7.33-2.59-3.54-3-2.51-7.29-3.11-2.88-.4-5.29-2.12-8.13-2.84 7.14-33.63-2.83-40.86-6.56-47.07-2.61-4.38-17.7-35.71-17.7-44.4 1-2.59 18.4-7.49 20.26-8 14.38-3.78 16.84-7 25.75 16.15-3.79-.11-19.57 0-19.57 0s13.8 21.58 15.78 33.13c8.48 49.73 5.11 63.84 4.89 63.47z" fill="#001220"/><path d="M484.8 317.73c-1.87 20.3-17.06 61.07-25.12 94.18-32.1-10.8-25.71-7.84-33.24-13.61 17.81-80.07 24.23-42.38 35.29-94.33 2.82.72 5.25 2.44 8.13 2.84 4.24.6 4.7-.43 7.29 3.11 3.64 4.98 6.9 5.56 7.65 7.81z" fill="#001220"/><path d="M534 325.6c0-2.57 3.77.3-7.56 5.58-18.45 5.43-25.12 3.38-38.64-6.77-1.66 9.08 4.64-29.19 4.32-42.16-.61-24.31 5.79-24-8.6-61.58-1.13-2.92-4.54-11.57-6.61-13.91 8.5-2.88 5.67 9.25 26.19 10.42 0 0 .28 3.09-1.13 4.79-5.57 6.67 2.72 16.4 5.08 21.12 2.53 5.08 7.6 11.84 9.29 7.89s-1.92-27-1.92-27c-10.13-10.74 2.39-2.4 2.56-21.87 25.07 32.4 20.35 82.61 17.02 123.49z" fill="#73a2b6" stroke="#8d4107" stroke-miterlimit="10" stroke-width=".89"/><path d="M571 353.24c-17.2 2.46-11.89 3.41-16.82 4.45-2.74-14.43-11.35-37.71-11.35-51.5 0-53.06 7.68-99.61-2.72-104.45l9.2 2.2c6.09 18.27-1.14 60.24.56 71.26 1.13 7.33 1.16 26.77 2 28.74 10.13 24.2 11.64 35.24 19.13 49.3z" fill="#001320"/><path d="M492.08 282.25c.55 22.3-12.91 88.55-21.23 133.43l-11.17-3.77c21.3-87.53 33.71-77.79 20-158.11-2-11.55-15.78-33.13-15.78-33.13s15.78-.11 19.57 0c14.39 37.55 8.01 37.33 8.61 61.58z" fill="#10525e"/><path d="M437 308.06c-9.4 9.86-5.24 14.26-5.5 19.59-.07 1.5-1.82-.09-11.78-3.24-5.91-1.88-18.87-4.42-25.07-11.6s-5.91-4.36-6.76-10.56c-2.4-17.58 27.2-35.47 33.24-49.58 2.53-5.91 11.27-21.41 12.11-26.2.72-4 3.42-11.66 4.27-14-.55 6.41 12 33 14.74 38.82-21.24 25.91-18.37 22.81-32.53 39.1 7.09 15.07 20.69 14.1 17.28 17.67z" fill="#00121e"/><path d="M484.94 322.56c-.49 1.33-.57-.06-3 3.53-.8 1.18-6.79.8-9.64-.93-3.66-2.19-4.09-4.48-14.87-4.06 12.1 5.56 14.13 6 14.21 8 .2 6-11.23-1.35-16.83-1.35-.49 0 .23 2.2-3.27 5.7-1.17 2.5-6.13 3.56-9.23-2.68-2.93-5.93-7.09-1.64-10.89-3.15.35-5.35-4-9.65 5.5-19.59 15 10.94 14.85-6.67 24.77-4.09 2.82.72 5.25 2.44 8.13 2.84 4.24.6 4.7-.43 7.29 3.11 3.81 5.22 9.67 6.89 7.43 10.14-.42.68.92 1.15.4 2.53zm98.83 77.93c-3.43 6.81-11.44 15-12.95 14.85-.85-.12-1.22-1.31-2.07-1.49s-3.26 1.63-3-.93c.51-5.82 8-10 6.7-15.71-.76-3.39-4.54-5.79-4.43-9.26-4.5-3.7 2.08 17.49-6.29 15.92.08-9.59-3.86-20.73-4.86-28.95-.47-3.94-1.56-11-2.73-17.23 4.29-.91 1.53-2.6 16.57-4.42 1.55 1.56 2.17 3.82 3 5.9 4.85 12.4 19.82 21.83 10.06 41.32z" fill="#ffd8b9"/><path d="M484 146.8c-3.82-.29-3.6-6 .23-6 4.55.01 3.26 6.88-.23 6z" fill="#110914"/><path d="M490.35 139.5c-7.66-5.16-14.81 4.16-15 5.21 3.4.53 4.74 7 14.29 4.65 2.89-.71 3.52-2.25 4.3-2.46s-1.58-6.06-3.59-7.4zm-6.16 9.59a5.28 5.28 0 113-9.65 5.29 5.29 0 01-3 9.65z" fill="#fff7ee"/><path d="M487.15 139.44a5.28 5.28 0 10-3 9.65 5.29 5.29 0 003-9.65zm-3 7.38c-5.28 0-2.77-8.4 1.61-5.53a3 3 0 01-1.57 5.53z" fill="#4bdeff"/><path d="M512.73 167.81c-3.08 3.29-2.09 6.37-9.25 5.81-10.54-.8-10.24-3.81-13.13-5.07 4.58.42 9.28 0 13.77 1 3.07.69 2.62-.09 5-.95a28 28 0 003.61-.79z" fill="#f9f3f7"/><path d="M513.56 166.42c-1.47-1.47-4.8 1.52-13.51.81a117.84 117.84 0 00-12.57-.34c-.09.09-.13 1.15.12 1.32 1.92 1 .35 3 9.17 7.36 4.46 2.2 11.57 3.18 14.46.32 1.88-1.89 2.68-8.73 2.33-9.47zm-4.45 6.21c-2.85 2.21-11.83.64-15.17-1.43-1.05-.66-2.35-2.11-3.59-2.65 4.58.42 9.28 0 13.77 1 3.07.69 2.62-.09 5-.95a28 28 0 003.59-.81c-1.18 1.3-2.26 3.81-3.6 4.84z" fill="#f46275"/><path d="M484.19 142.28a1 1 0 01-1.94 0 1 1 0 011.94 0zm30.44-.97a1 1 0 01-2 0 1 1 0 012 0z" fill="#fff7ee"/><path d="M503.6 146.77c3.1 3.76 11.37 17.27.64 15.67a8.19 8.19 0 00-2.64-.4l-.12-.14a2.29 2.29 0 011.42-.58c1.73-.33 4.4.21 4.94-1.86.33-2.55-.92-5.24-1.89-7.63a42.56 42.56 0 00-2.49-5l.14-.1z" fill="#8d4107"/><path d="M482.14 324.5c-15-9.73-13.53-6.63-25.08-9m26.72 4.5c-14.92-9.47-13.8-6.43-25.15-8.48" fill="none" stroke="#d98062" stroke-miterlimit="10" stroke-width=".89"/><path d="M468.74 329.59c1.84.43 2.44-.92 1.56-1.86-2.16-2.31-6.12.79-1.56 1.86zm10.07-3.39c1.31.37 1.77-.78 1.13-1.59-1.55-1.97-4.46.66-1.13 1.59zm4.42-2.96c1.1.32 1.49-.69.95-1.41-1.29-1.73-3.74.59-.95 1.41zm.19-4.35c.9.29 1.2-.63.77-1.28-1.06-1.61-3.03.53-.77 1.28zm78.87 84.76c-.64 1.6-.58-1.81-.7-3.23.96-.28.84 2.87.7 3.23z" fill="#ff0303"/><path d="M569 413.42c11.49-15 8-15.54 7.32-22.72m.48 18.89c2.7-4.68 3.51-6.66 3.51-12.91 0-1.55.29-8.73 0-9.78" fill="none" stroke="#d98062" stroke-miterlimit="10" stroke-width=".89"/><path d="M571.2 415.37c1.57.23 2.66-1.4 2.41-2-.71-1.72-3.76 1.8-2.41 2zm-4.67-2.64c-1.66 1.79.77 2.73 1.81.8.66-1.28-.79-1.91-1.81-.8z" fill="#ff0303"/><path d="M583.39 397s1-9.73-.06-12.84" fill="none" stroke="#d98062" stroke-miterlimit="10" stroke-width=".89"/><path d="M160.34 367.05l130.74-10.63L249.55 266l26-90.12c-69.95 0-54.89.53-72.86-1.63l-17.06 45.07 16 59.34c-41.52 88.28-40.46 85.7-41.29 88.39z" fill="#00303e"/><path d="M265.88 118c-3.32-7.1-2.6-20.43-2.6-30.6-.12-.11-12.24-6.94-14.68-6.94-2.63 0-15.4-1.88-21-2.25s-13.08-4.51-13.08-4.51c-12.44 11.3-8.6 16.45-13.15 23.7a11.09 11.09 0 0111.79-3c4.89 1.87 2.05 8.15 2.54 8.43-11.88-6.76-17.06-1-15.67-3.61-2 2.31-1.72 1.1-1.87-.1-.69 4.73-3 6.2-3.17 9.21s3.84 8.74 2.94 19.37c2.13-2 3.45 5.92 3.94 8.88-.65-3.87 9.58-1.65 13-.91s27.92 1.95 27.78 3.34c-.08.79 2.3 2.49 1.87 3.8a12.75 12.75 0 01-1.35 3.31c5.71-5.4 12.17-10 16.95-16.35-1.55 3.45-.7 7.51-1.8 11.08 2.29-3.72 13.32 2.19 17-18.48 1.29-6.94-3.7-7.79-9.44-4.37zm-51.57-5.41c-.54 6.5-9.46 4.3-11.37-.27-1.26-3 2.57-9.5 8.39-6.67 2.04 1.05 3.17 4.99 2.98 6.96zm27.53 11.92c-2.59 0-7.33-.94-9.49-2.48-2.53-1.79 1.62-6.64 2.77-8.76 2.8-5.22 11.9.2 13.94 6.28-1.98 2.27-4.25 4.66-7.22 4.98zm16.07-17c-5.55-4.12-7.34-4-10.63-3.79-4.86.41-14.09 3.62-15.69-2-.76-2.74 1-3.54 3.85-3.38 18.85 1 18.13.38 20.79 4.35.96 1.54 1.98 3.17 1.68 4.88z" fill="#dc9776"/><path d="M338.74 649c-1.13 2.93 0 2.72 0 6.47s-6.38 3-12.4 4.13-15.39.38-19.52 0-14.65-7.88-17.66-10.89-5.63-7.51-8.26-10.89c-5.86 2.25-4.26 1.87-6.76 1.87-1.09 0-18.64-11.07-13.15-17.65 1.89-2.25 1.13-5.63 2.26-11.64s4.51-6.39 4.88-4.13c1 6.21 5.77 10.77 14.27 8.63 5.79-1.44-1.61-1.7 12.58-11.91 9.28-6.5 6 .11 30.24 26.19 7.61 8.23 18.43 7.07 13.52 19.82zm-132.58-27.68c-2.17 3.1-11.55 12.45-18 9.19 0 0-2.25.2-8.26 7.71s-13.14 13.15-20.65 14.65c-12.82 2.57-23.3 4.37-34.19-2.63v-4.51s1.88 1.13 0-4.13c-3.35-9.38 9.8-11.44 16.91-21.78 6.33-9.22 13-15.55 17.65-22.53 2.16-3.24 8.62-2 12.39 0 5.64 3 4.13 6.38 9.77 9.76 7.53 4.52 12.38 9 16.9-9.76a6.92 6.92 0 014.51 5.25c2.81 15.68 6.86 13.21 2.97 18.78z" fill="#000a0c"/><path d="M295 603c-14.18 10.2-6.79 10.47-12.58 11.91-7.55 1.9-11.2-1-13.4-5.95a93.77 93.77 0 00.32-15.32c4.44.26 15.43.73 21.21-.59A29.28 29.28 0 00295 603zm-94-4.31a7.12 7.12 0 00-2.37-1.4c-4.51 18.78-9.36 14.29-16.9 9.76-6.34-3.8-4.2-8.72-13.33-11.2 2.24-4.23 3.47-8.48 2.19-12.79a3.3 3.3 0 002.12 2.2c4.13 1.14 10.52 2.64 15 2.26 10.4-.86 2.53.4 13.29 11.17z" fill="#7790a4"/><path d="M296.3 563.48c0 29.31-2 28.75-5.77 29.59-5.78 1.32-17.36.89-23.15.46-13.18-56-20-64-21.78-89.39-3.93-55.92-11.07-74.76-20.66-102.16-12.37 49.49-11.79 103.31-17.21 142-1 7.51-9.46 40.93-10.59 42.44s-4.93.75-9.38 1.12-10.9-1.12-15-2.26c-6.75-1.83-3.2-53.31-6-213.7 0 0 11.64 4.88 18.77 10.51s18 1.51 19.9-.75c1.59-1.9 14.86-31.71 19.49-38.88 2-3.08 1.17-1.95 12.06 40.38 13.11 4.79 14.5 6.47 40.29-2.54.1 11.85-1.59 10.67-1.15 12.7a5.37 5.37 0 007.52-2.85c.73-2.31.37-5.75 2.74-6.25 1 20.48-13.27 14.12-10.24 21.29 0 3.87 9.23 3.53 13.1 3.39-.23 16.85-.61 34.75-1.17 39.25-1.13 9 1.87 55.95 4.88 62s3.35 53.65 3.35 53.65z" fill="#00212a"/><path d="M333.85 287.43c-7 40.59-7.92 52.75-14.57 61.17l.12-3.34c-10.85-7.51-6.4-4.22-21.15-7.78-.6.41-5.26 10.11 1.06-48.55 1.12-10.52-10.9-39.06-10.9-39.06s-7.51 23.66-9.2 43.95c-1.75 21.05 11.51 62.11 11.43 63.53-4.54 8.41-13.59 5.71-13.4 22.93-26.48 9.25-27.68 7.14-40.29 2.54-12.16-47.28-10.22-42.95-11.56-41.11-3.49-47.58-1-70.9 38.61-129.77l-8.64-9.39L268.5 192l-4.5-21.75 51.08 20.66z" fill="#00303e"/><path d="M319.4 345.26c-.26 6.61 1.1 6-23.1-2.23 1.13-3-.64-3.79 1.95-5.55 14.75 3.52 10.3.28 21.15 7.78z" fill="none" stroke="#c60" stroke-miterlimit="10" stroke-width=".89"/><path d="M228.89 278.87c-6.73 19.78-3.41 54.08-4 63.57-4.63 7.17-17.9 37-19.49 38.88-1.87 2.26-12.76 6.39-19.9.75s-18.77-10.51-18.77-10.51c.06 3.13 1.71 4.14-6.39-4.51 8.86-28.8 7.29-19.05 13.39-45.18 4.14-1.46 7.52 2.25 11.84 1.74 2.5-.28 4.89-3.05 3.64-5.24 7 3.91 13.26-10 10.16-14.95l4.79-1c1.56-1.69-.85-4.11-2.92-5.1-13.43-6.42-16.34-8.07-20.25-8.74 3.06-15 4.33-14.56-1.87-43.23-6.38 2.73-27.4 32.56-27.8 34.93s1.51 2.64 3 4.13 8 13.52 8.25 13.89c.09.09.21-.27-1.71 2.41-4.47 3.19-7.58 2-11.32 3.63-9.05 3.93-7.75 20.3 7.18 25.19.33.48 1.77.67-9.91-2.3-9.45-2.4-13.45-3.63-30.8-27.42-16.92-23.19 42.29-96.42 53-114.55 3.47-5.89 33.67-13.44 39.81-15l-7.13 14.27s6.76 14.27 9 14.65-9 6.76-9 6.76c2.29 5.65 9.25 41.17 12.77 47.32.05.13 10.54 18.52 14.43 25.61z" fill="#001c28"/><path d="M221.74 266c-3.34-5.91-7.26-12.69-7.32-12.79-3.57-6.24-10.38-41.42-12.77-47.32 0 0 11.27-6.39 9-6.76s-9-14.65-9-14.65c9.23-18.71 8.55-18.79 10.24-18.14a11.79 11.79 0 002.32.45c1.79.42 4.16 92.21 7.53 99.21z" fill="#00475d"/><path d="M214.88 167.79c-.33-1.18 0-1.13 0-.4-.01.12 0 .26 0 .4z" fill="none" stroke="#c60" stroke-miterlimit="10" stroke-width=".89"/><path d="M255.36 202.55l8.64 9.39c-43.91 65.32-30.63 75-38.13 61.5 19.34-51.18 23.68-69.39 23.68-69.49 6.72-22.89 6-21.53 7.69-46.85 5.18 5.7 4.65 3 11.26 34.93z" fill="#00475d"/><path d="M256.86 163.34c0 .1-.08.45 0-.18z" fill="none" stroke="#c60" stroke-miterlimit="10" stroke-width=".89"/><path d="M237.14 182.12c-5.58 10.83-4.45 0-.27 62.88-1.44 4-.24 0-11 28.44-5.08-9.15-5.28-5-7.62-40.88 10.4-51 9.81-41 6.36-52.5.88-1-.08-.67 10.94-1.27 2 3.61 1.8 3.08 1.59 3.33z" fill="#021b20"/><path d="M160.87 300.72c-1.87 3-8.74 3.08-11.05 9.62-2.38 6.74 0 9.08 6.91 19.2-14.85-4.87-16.29-21.23-7.18-25.19 3.72-1.59 6.87-.45 11.32-3.63z" fill="none" stroke="#c60" stroke-miterlimit="10" stroke-width=".89"/><path d="M204.16 302.43c-9 1.86-1.54-.85-4.81 8.74-2.59 7.59-7.28 8.8-10.14 7.2 1.25 2.19-1.14 5-3.64 5.24s-4.92-.92-7.33-1.67c-9.61-3-9.2 11.6-21.51 7.6-.79-1.14-3.42-5-4.85-7.18-9.76-15.23 7.26-18.87 9-21.64 9.65-6.74 10.4-17.76 28.59-9 5.13 2.44 18.06 7.05 14.69 10.71z" fill="#dc9776"/><path d="M160.87 300.72c-1.87 3-8.74 3.08-11.05 9.62-2.38 6.74 0 9.08 6.91 19.2-14.85-4.87-16.29-21.23-7.18-25.19 3.72-1.59 6.87-.45 11.32-3.63z" fill="#b1e0f4"/><path d="M319.08 354.12c.35-9.55.42-3.7-1.75-4.22-2.63-.63-21-6.87-21-6.87 1.21-3.24.63-10.88-3.58 8.92a1.65 1.65 0 000 1 11.67 11.67 0 00-1.64 3.51c-2.19 5.25-8.42 7.44-11.5 12.19-3.27 5.09-2.09 11.53-2.33 17.75-.18 4.47-2.66 6.44.06 7.12a5.44 5.44 0 006.3-3.35c.73-2.31.37-5.75 2.74-6.25.93 18.74-8.56 13.62-10.37 18.9-.4 1.18.2 3.16.15 2-.06-1.34 2.48-2 3.73-1.49 2.71 1.11.24 4.57-3.14 2.88 2.78 3.75 16.17 2.54 20.55 1.15 7.46-2.37 16.5-10.53 18.09-18.59 1.44-7.12-1.69-18.06-.24-25.19.73-3.74 3.78-5.25 3.93-9.46zm-39.58 38.61c-2.43 2-4.27-1.07-1.73-3.64 2.16-2.19 3.67 2.06 1.73 3.64zm5.06 15.43c-5.07.28-3.26-1.3-2-1.26 6.29 0 2.59 1.23 2 1.26z" fill="#dc9776"/><path d="M279.5 392.73c-2.43 2-4.27-1.07-1.73-3.64 2.16-2.19 3.67 2.06 1.73 3.64zm6.85 14.48c-1.36 1.79-6.78 1.05-4.76-.14a10.48 10.48 0 014.76.14z" fill="none" stroke="#c60" stroke-miterlimit="10" stroke-width=".89"/><path d="M320.74 345.26c1.6.48-1 5.68-2.62 5.2-2.15-.64-7.87-2.15-23.44-7.43 1.14-3 1-4.55 3.57-6.31 14.75 3.56 11.64 1.04 22.49 8.54zM249.55 204c0 .29-8.94 30.44-12.68 41.05-4.18-62.9-5.3-52.06.27-62.88.22-.31-1.21-2.67 12.41 21.83zm-31.3 28.56c-.13-1.93-2.24-40.12-2.36-42.58l8.72-9.92c3.45 11.45 4.04 1.47-6.36 52.5z" fill="#b1e0f4"/><path d="M214.67 166.91c.21 0 .17 0 .17-.1.16 1.31.05 1.3-.17.1zm42.19-3.57c0 .1-.08.45 0-.18z" fill="none" stroke="#c60" stroke-miterlimit="10" stroke-width=".89"/><path d="M276.76 82.06c-10.69 1.7-12.7 7.21-13.48 5-.13.77-11.61-6.57-14.68-6.57-2.63 0-15.4-1.88-21-2.25s-13.08-4.51-13.08-4.51c-12.44 11.27-8.6 16.42-13.15 23.67-4 4.23-2.5 6.09-4.23-6-2.13-2.15-5.4-4.9-6-12-.51-6.13-11.94-13.23-6-15 1.47 0 4.81-.8 10.19 3.74 7.14 6 2.62-4.13 0-4.39-2.79-.28-18.4 2.52-18-1.62s18.78-3.38 18-4.89-2.63-12 0-12.76 1.5 2.62 3 10.14 9 3.76 5.26 1.87-1.12-2.63-1.5-9c-.63-10.58 9.22 21.28 8.26-2.63-.37-9.39 4.2-2.74 4.2-2.74s-.82 3.87 3.31 6.5 4.13-2.26 6.76-4.52 0-3 6.39 0 4.13 6 6.19 8.27 8.08 1.88 3.94-5.26 2.64.38 11.65 2.26 12 5.64 19 7.88 5.79 11.65 7.48 18.41c1.35 5.57.28 5.99-2.51 6.4z" fill="#7f4f3b"/><path d="M263.41 87.5l-.2-.12c.08-.38.04-.55.2.12z" fill="none" stroke="#c60" stroke-miterlimit="10" stroke-width=".89"/><path d="M276.76 106.4c-4.51 9.71-2.87 9-4.56 9.69-2.06-.17-4.58.89-6.32 1.93-3.78-8.08-2.56-30.56-2.47-30.52.7.39 5.7-4.22 13.35-5.44 0 0 2.64 18.71 0 24.34z" fill="#9e6c55"/><path d="M263.41 87.5c-.18-.08-.13-.06-.13-.45a3.33 3.33 0 01.13.45zm-49.09 24.28c.27 4.16-3.83 7.31-9.59 2.65-8.07-6.43 8.79-15.86 9.59-2.65zm34.74 7.79c-2 2.25-4.25 4.64-7.22 5-2.59 0-7.33-.94-9.49-2.48-2.64-1.87 3.59-10 3.73-10.13 2.5-2.22 10.7.82 12.98 7.61zm8.85-12c-5.55-4.12-7.34-4-10.63-3.79-4.86.41-14.09 3.62-15.69-2-.76-2.74 1-3.54 3.85-3.38 18.85 1 18.13.38 20.79 4.35.96 1.48 1.98 3.11 1.68 4.82zm-43.06 59.34h0c0-.13-.02-.13 0 0z" fill="none" stroke="#c60" stroke-miterlimit="10" stroke-width=".89"/><path d="M263.41 87.5l-.2-.12c.08-.38.04-.55.2.12z" fill="none" stroke="#c60" stroke-miterlimit="10" stroke-width=".89"/><path d="M257.91 107.57c-5.55-4.12-7.34-4-10.63-3.79-4.86.41-14.09 3.62-15.69-2-.76-2.74 1-3.54 3.85-3.38 18.85 1 18.13.38 20.79 4.35.96 1.48 1.98 3.11 1.68 4.82zm-42.21-4.72c-11.88-6.76-17.06-1-15.67-3.61a11.07 11.07 0 0113.13-4.82c4.89 1.87 2.05 8.15 2.54 8.43z" fill="#481e12"/><path d="M217.66 109.44c1.83 6.58-5 11.65-7.25 17.28-1.46 3.68.63 7.3 8.82 6.15" fill="none" stroke="#481e12" stroke-miterlimit="10" stroke-width=".89"/><path d="M260.14 129.79c-2 4.55.18 7.2-3.31 14.19-9.16 18.27-35.23 21.88-35.14 21.85.3 0 7-3.21 7.24-3.34 6.47-6.43 6.68-8.44 14.18-16.27 3.32-3.47 11.75-9.47 17.03-16.43z" fill="#ad6847"/><path d="M221.9 166c-3.35.65-1.51.34-.44-.06z" fill="none" stroke="#c60" stroke-miterlimit="10" stroke-width=".89"/><path d="M249.06 119.57c-2 2.25-4.25 4.64-7.22 5-2.59 0-7.33-.94-9.49-2.48-2.64-1.87 3.59-10 3.73-10.13 2.5-2.22 10.7.82 12.98 7.61zm-34.74-7.79c.27 4.16-3.83 7.31-9.59 2.65-8.07-6.43 8.79-15.86 9.59-2.65z" fill="#fcfbf7"/><path d="M246.86 117.88c0 6.89-10.42 6.89-10.42 0s10.42-6.73 10.42 0z" fill="#31cbe7"/><path d="M244.61 117.88c0 3.91-5.92 3.91-5.92 0s5.92-3.88 5.92 0z" fill="#0a4458"/><path d="M214.32 111.78c.14 2.2-3.83 6.9-6.93 3.43-3.87-4.34 1.05-9.69 3-9.91 2.61.7 3.77 3.91 3.93 6.48z" fill="#31cbe7"/><path d="M208 110.63c-.35 4.08 3.78 4.57 4.7 1.55 1.3-4.29-4.29-6.18-4.7-1.55z" fill="#0a4458"/><path d="M202.48 150.67c-4.59-23.17-4.89-22.77-3.94-23.28 2.7-.3 4.34 13.97 3.94 23.28z" fill="#a86747"/><path d="M242.67 139c.13-1.3-24.22-2.56-27.78-3.34-18.22-3.91-11.75-.22-12.41 15 .7 4.58-1.59 6.91-.11 9.35 1 1.63 3.1 2 4.71 3 2.6 1.56 4.66 6.1 14.66 2.77.83-.28 7.14-3.29 7.2-3.34 1.6-1.24 13.65-16 14.25-16.34a12.75 12.75 0 001.35-3.31c.46-1.27-1.95-2.97-1.87-3.79zm-20.34 16.3c-1.39-1.34-1.4-4.52-9.13-3.24-2.17.38-2 .9-2.72 1.35-3.87 2.34-2.28-6.69-5-13.72-2.65-6.63 7.25.48 22.66.86 2.08 0 9.81-.8 10.76 1.6s-11.25 18.34-16.57 13.18z" fill="#300f08"/><path d="M238.86 142.18c-1.53-3.85-11.54 1.22-29.76-5-2.58-.88-4.82-.36-3.66 2.55 2.83 7.2 1.37 10.72 2.46 12.72a2 2 0 002.58 1c4.35-2.69 9-1.77 10.54.11.8 1 1.33 3 4.67 2.67 5.89-.68 13.87-12.3 13.17-14.05zm-1.41.33c-4.43 9-25.88 7.63-27 7-2.57-1.55-.48-5.31-1.42-7.71-.46-1.15-1.5-2.07-1.37-3.29 10.27 5.06 32.71 1.49 29.79 4z" fill="#dc9776"/><path d="M207.7 138.47h0z" fill="none" stroke="#c60" stroke-miterlimit="10" stroke-width=".89"/><path d="M235.28 141.49c-31 .89-29.22-7.08-26.27.26 1 2.41-1.12 6.18 1.42 7.71 1.17.7 22.6 2.06 27-7 .86-.68-.81-1.01-2.15-.97zm-22.68 5.3c-.88-.09-1.15-.34-1-1.49.39-4.72-3-4.54.37-3.89s17 1.41 23 1.54c-7.27 4.69-12.42 4.72-22.37 3.84z" fill="#d26048"/><path d="M256.83 163.16l-24.41 12.72c-2.87 0-3.15 1.14-16.17-9 48.06-6.09 44.05-54.88 40.58-3.72z" fill="#db9675"/><path d="M256.83 163.16c-1.39 19.64-.85 18.9-7.28 40.79l-14-25.16c-13 .71-8.46-1.56-19.66 11.19-.94-23.11-1.87-23 .36-23.1 16.85 13.12 11.2 11.59 40.58-3.72z" fill="#abdced" stroke="#727272" stroke-linecap="round" stroke-miterlimit="10" stroke-width=".45"/><path d="M256.86 163.34c0 .1-.08.45 0-.18zM173.1 310c8.33.57 11.07 5.58 15.83 7.95M176.47 301c13.76 6.23 10.64 7.62 22.56 9.45m-.57-6.95c-9.77.12-3.51-3.17-20.46-8.78m13.87 17.08c.63 1.68 4 1.77 5.28.86 2.32-1.61-6.31-3.58-5.28-.86zm3.45-7.33c-.81.24-1.86 3.31 2.11 2.62 4.8-.84-.65-3.03-2.11-2.62zm3.6-4.72c-1.69-.86-1.22-1.95.1-2 7.41 1.56 1.09 2.61-.1 2z" fill="none" stroke="#c60" stroke-miterlimit="10" stroke-width=".89"/><path d="M184.16 317.36c.3-1.69 3.35-.32 3 .87-.52 1.42-3.26.58-3-.87zm95.89 89.31c3.74-.18 15.92-8.41 17.84-16.73m-5.02 15.3c5.72-4.4 14.19-6.89 13.65-19.21m5.38.55a28.08 28.08 0 01-6.5 14.07m-25.9-7.92c-2.43 2-4.27-1.07-1.73-3.64 2.16-2.19 3.67 2.06 1.73 3.64z" fill="none" stroke="#c60" stroke-miterlimit="10" stroke-width=".89"/><path d="M281 405.08c-.3 1.72-3.41 2-4.61.89-.45-.4-.56-2.12 1.29-2.66 2.2-.66 3.5.61 3.32 1.77zm5.35 2.13c-1.36 1.79-6.78 1.05-4.76-.14a10.48 10.48 0 014.76.14z" fill="none" stroke="#c60" stroke-miterlimit="10" stroke-width=".89"/><path d="M212.59 109.93a1 1 0 01-1.94 0 1 1 0 011.94 0zm29.06 6.52a1 1 0 01-1.94 0 1 1 0 011.94 0z" fill="#fff7ee"/></svg>