<svg xmlns="http://www.w3.org/2000/svg" viewBox="0 0 1400 780"><path fill="#e6e6e6" d="M0 0h1400v780H0z"/><path fill="#d1cccf" stroke="#734d1c" stroke-miterlimit="10" stroke-width="2.89" d="M280.33 624.93h28.5l-30.39-28.47 1.89 28.47z"/><path d="M295.81 763.13a803 803 0 01-8.69-81 802.69 802.69 0 018.69 81z" fill="#734d1c"/><path fill="none" stroke="#734d1c" stroke-miterlimit="10" stroke-width="2.89" d="M282.23 636.58l-3.79-35.29m-3.93-36.57l-2.27-21.16"/><path d="M636.14 763.13c-3.14-53.3-5-107.27-5.43-160.66 3.15 53.3 5 107.27 5.43 160.66z" fill="#734d1c"/><path d="M686.4 665.05c0 9.8-1.08 33.75-8.68 40.26-49.13 42.1-71.81 29.26-58.8 3.29 6.6-13.17 18.15-23.53 20.34-38.7.86-5.93 2-43.38-2.58-42.73-18 3-18.5 34.25-29.74 32.43-9.13-1.5 1.37-27.6 18-48 19.09-23.17 10.38-66.55 2.4-95.49-.88-17.81.57-55.56-.39-66.66-1.08-13.08-8.69-91.45-7.6-106.71 2.18-30.46-9.32-57.41 10.89-129.54l23-13.5c-3.24 30.46-10.38 98.3-10.38 112.59 0 32.85 7.83 159.6 22.86 191.62 8.71 18.52 9.8 35.92 12 51.17s8.68 100.17 8.68 109.97z" fill="#b68457"/><path d="M686.5 665.05a134.21 134.21 0 01-2.34 26.16c-.94 4.27-2.09 8.63-4.62 12.26-1.31 2-3.17 3-4.8 4.51-3.36 2.82-6.83 5.49-10.36 8.09-8.89 6.36-18.32 12.34-28.89 15.42-12.94 3.89-23.56-1-19.49-16 4.38-14.89 17.32-25.44 21.8-40.26 2.36-8.41 1.75-17.39 1.94-26-.15-6.5-.06-13.18-1.58-19.52-.22-.7-.63-2.22-1.45-2.19l-1.57.35-1.52.51c-8.26 3.47-11.81 12.56-15.47 20.14-2.3 4.4-4.9 12-10.93 11.54a4.09 4.09 0 01-3.07-1.73c-2.91-5.18 1.1-14.23 3.15-19.31a122.28 122.28 0 0113.36-22.7c2.53-3.55 5.56-6.75 7.68-10.58a50.8 50.8 0 004.9-12c6.31-25.7 0-52.51-6.53-77.56-.55-11.09-.21-26.86-.18-38.09.13-12.5.35-25.49-1.12-37.94-2.65-31.62-6.32-63.2-6.93-95 0-3.25.32-6.32.32-9.5.08-9.45-.77-19-1.23-28.46-2-31.85 3.18-63.64 11.74-94.24l.1-.37.33-.19 23-13.53 1.66-1-.2 1.92c-3.5 34.06-7.29 68.11-9.83 102.26-1.36 24.38 1.14 48.82 2.49 73.17 3.12 38.89 5.82 78.21 15.18 116.18a85.6 85.6 0 004.89 13.73c7.22 15.69 9.08 33.15 11.21 50.07 2 17 3.14 34.13 4.53 51.21 1.41 19.21 3.11 39.33 3.86 58.6zm-.2 0c-.82-19.25-2.61-39.38-4.09-58.57-1.68-19.5-3-39-5.84-58.41-1.27-9.69-2.68-19.39-5.44-28.75-2-7.72-5.88-14.74-8.49-22.25-3.55-11.12-5.74-22.62-7.68-34.08-6.21-38.7-9.52-77.8-11.74-116.91-.62-14.68-1.77-29.43-.67-44.12 2.56-34.18 6.31-68.25 9.88-102.33l1.46.94L630.7 214l.43-.56c-6.72 24.37-11.84 49.35-12.21 74.69-.32 12.69.72 25.31 1.31 38 .32 6.29.08 12.85-.19 19.07.67 34.8 4.78 69.58 7.57 104.28.25 3.2.27 6.37.31 9.55.15 18.28-.68 38.8 0 57.06 4.48 16.2 8.39 34.3 9 51.68.36 13.1-1 26.88-7.65 38.46-2.14 3.86-5.2 7.1-7.76 10.66a122.76 122.76 0 00-13.32 22.48c-2 5-5.86 13.54-3.29 18.44 1.13 1.69 3.71 1.75 5.36.79 3.64-2.25 5.31-6.74 7.21-10.45 2.82-5.89 5.52-12.19 10.34-16.8a17.11 17.11 0 017.19-4.15l1.64-.36a1.25 1.25 0 011 .33c1.88 2.44 1.78 6 2.2 8.89a222.07 222.07 0 01.23 26.31 49.48 49.48 0 01-1.79 13 54.48 54.48 0 01-5.59 11.92c-6.48 11.08-16.89 21.23-17.16 34.73.27 10.93 11.53 11.7 19.88 9.11 10.53-3 20-9 28.81-15.33 3.53-2.6 7-5.26 10.36-8.07 1.49-1.39 3.67-2.75 4.76-4.45 2.51-3.59 3.66-7.93 4.6-12.16a133.66 133.66 0 002.37-26.11z" fill="#734d1c"/><path d="M457.47 179.87l-.19-1.52c.06.47.13.98.19 1.52zm.22 1.72c0-.2 0-.15-.22-1.72.07.54.14 1.13.22 1.72zm.87 6.99c-.21-1.39-.59-4.9-.32-2.59.08.69.23 1.78.32 2.59z" fill="#a5a0a1" stroke="#734d1c" stroke-miterlimit="10" stroke-width="4"/><path d="M626.93 449.48c1.13 13-1.08 63 1.11 74 3.06 92.71 5.41 76.52-6.23 92.08-94.46-10.51-50.31-15.76-121.24 2.27-7.11-168.78.25-86.16-43.82-443.8-.07-.14 67.43-57.14 77.67-70.8 8.26-11.05 7.48-21.13 9.69-21.13 1.34.29 61.18 19.09 71.94 29.84 12 12 75.74 65.12 75.74 65.12l-61.57 36.14c-14.89 53.17-16.49 76.38-3.29 236.28z" fill="#a5a0a1"/><path d="M627.13 449.46c.86 17.81-.15 37.76.12 55.57.12 6.15 0 12.35 1 18.44.29 7.9.52 15.8.87 23.7.47 13.35 1.68 34 1.78 47.35-.1 4 0 8.05-1.6 11.81a23.49 23.49 0 01-3.45 4.92c-.63.75-1.27 1.5-1.88 2.27l-1.81 2.32-.16.16h-.24c-7.67-.82-23-2.71-30.63-3.73-10.19-1.39-20.35-3.09-30.49-4.71-5.06-.76-10.14-1.3-15.15-.47-15.09 3-29.75 7.94-44.71 11.57l-1 .27v-1l-2.41-55.73c-1.86-102.84-30.86-285.58-42.12-387.33a2.05 2.05 0 01-.07-1.16 2.08 2.08 0 01.61-1.06l.23-.2.39-.34.76-.67c15.44-13.29 31.75-27.47 46.85-41.1 9.74-9 20-17.76 28.54-27.82 4.59-5.65 6.68-12.61 8.52-19.56a6.73 6.73 0 01.6-1.3l.12-.19.17-.22a2.84 2.84 0 012.19-1.1h.21l.21.06.48.12.34.11c6.78 2.12 13.89 4.42 20.58 6.76 15.82 5.7 31.88 11.07 46.52 19.56a29.51 29.51 0 014.82 3.57C630.71 123 645 134.82 659 146.89l34 28.76 2 1.73-2.3 1.33-61.7 35.86.71-.92c-2.72 9.51-5.28 19-7.33 28.69a244.05 244.05 0 00-4.26 29.24c-3.86 59 3 119 7 177.88zm-.4 0c-2.72-31.38-5.44-65-7.48-96.31-1.65-27.22-3.21-54.5-1.38-81.79 1.27-20.08 5.65-39.85 11-59.19l.55-.32 61.41-36.42-.25 3.06c-22.88-19-45.65-38-68-57.67-4.24-3.47-7.6-7.73-12.37-10.62-7.84-4.67-16.36-8.09-24.88-11.54-12.86-5.06-26-9.63-39.22-13.84l-2.48-.77h.42a1.25 1.25 0 00.93-.39c-.81 2-1.17 4.15-1.85 6.24a44.86 44.86 0 01-7.56 14.92c-8.86 10.33-19.2 19.07-29.14 28.2-14.68 13.09-30.57 26.84-45.57 39.63-.73.61-1.94 1.68-2.65 2.28l-.15.14a1.46 1.46 0 00.43-.89c8 72.28 33.58 257.84 38.33 332.07 1.78 32.62 3.32 78.48 4.53 111.49l-1.05-.79c13.74-3.35 27.32-7.37 41.1-10.59a45.13 45.13 0 019.7-1.08 67.25 67.25 0 019.67 1c14.66 2.69 30.89 5 45.72 7l15.31 1.85-.39.17c2.29-3.12 5.35-6 7.12-9.33 1.54-3.6 1.47-7.63 1.59-11.49 0-7.88-.36-15.78-.63-23.66 0 0-1.72-47.45-1.71-47.31-.94-6.12-.88-12.34-1-18.52-.27-17.77.73-37.77-.12-55.53z" fill="#734d1c"/><path d="M544.09 82.13c-2.41 1.4-1.76 10.55-9.67 21.13-9.8 13.08-77.68 70.77-77.68 70.77-49.67-17.81-55-16.44-123.75-96.89 7.58-1.39 57.71-21.77 71.86-32.65 7-5.34 8.69-24 9.26-32.73h99.11c-1.11 10.68-3.33 33-2.77 43.61.9 18.36 25.88 25.11 33.64 26.76z" fill="#e6e6e6"/><path d="M518.18 612.51c-11.51 4-13.63 4.34 0-.15z" fill="#a5a0a1"/><path d="M500.57 617.86c-46.14 11.72-135.63 9.17-195.43 7A32.35 32.35 0 00306.2 612c1.31-7.39.54-15.81-10.89-25.09-6.27-5.1-14.92-17.37-23.71-24.82-1.9-24.61-3.24-50.4-1.75-61.43 3.26-24 7.62-74 12-89.28s13.06-93.63 12-115.4-1.09-53.34-1.09-53.34l-102.62-89.26s48.14-45.75 64.48-55.55S333 77.14 333 77.14s57.71 67.49 74 76.2c17.19 9.17 49.65 20.56 49.73 20.72 43.89 351.94 36.98 280.87 43.84 443.8z" fill="#d1cccf"/><path d="M500.57 617.86c-13.8 3.41-28.2 5.25-42.35 6.56-50.92 4.17-102.11 2.74-153.11 1.16h-.9l.22-.88a32.8 32.8 0 001-12.81c1.65-7.9-1.19-15.36-6.87-20.9-1.81-1.86-3.87-3.39-5.86-5.27-7.64-7.5-13.83-16.31-22-23.17-1.36-20.2-3.42-40.41-2-60.69.83-6.68 1.63-13.27 2.36-19.94 2.66-22.43 4.4-45.06 8.72-67.28 1-3.76 2-8.36 2.7-12.2a833.63 833.63 0 0010.07-99.59c-.4-20.06-1.3-40.12-1.18-60.19l.45 1-102.62-89.2-1.18-1q15.69-14.9 31.82-29.28c10.52-9.18 20.78-18.5 32.38-26.43l1.12-.73.56-.36a54.24 54.24 0 015.43-2.66 127.72 127.72 0 0112.41-4.37c20.28-6 41-10.15 61.77-13.95 17.6 20.38 35.48 40.64 54.49 59.7a193.28 193.28 0 0014.68 13.43 40.26 40.26 0 005 3.42l1.1.57 2.21 1.14c14.2 6.92 29.07 12.56 43.88 18.07.66.25 1.54.56 2.26.87a3 3 0 01.84.73v.3c9.64 80.64 24.79 196.54 33.52 276.88 6.16 53.52 6.89 113 9.08 167.07zm0 0c-1.86-33.33-2.91-78.73-5.24-111.42-4.76-73-31.67-259.62-39.5-331.44.19.1 0 0-.1 0l-.58-.22-1.17-.43c-11.77-4.33-23.53-8.83-35-13.88-4.58-2.07-9.3-4.13-13.66-6.65-7.11-4.65-13.09-10.76-19.12-16.58-9.52-9.44-18.63-19.25-27.64-29.14S340.7 88.16 332 78l1.25.46C311.16 82.6 289 87 267.63 93.86A74.5 74.5 0 00255.34 99a183.77 183.77 0 00-17.91 13.66c-15.87 13.39-31.17 27.51-46.31 41.73v-2.12l102.5 89.32.45.4v.61c-.15 20.09.74 40.15 1.1 60.22-.55 20.18-2.66 40.18-4.82 60.18-1.75 14.95-3.51 30-6.42 44.82-.76 3.27-1.68 6.48-2.31 9.75-3.95 21.34-5.85 43-8.46 64.57-.75 6.64-1.59 13.33-2.44 19.92-1.44 19.91.51 40.05 1.77 60l-.32-.61c8.07 6.92 14.23 15.69 21.69 23.1 1.83 1.75 4 3.39 5.88 5.33 6 5.86 9 13.95 7.2 22.29v-.24a26.53 26.53 0 01.11 6.66 46.71 46.71 0 01-1.21 6.49l-.68-.91c32.64 1.31 65.3 2.38 98 2.13 32.56-.5 65.56-1.12 97.44-8.39z" fill="#734d1c"/><path d="M306.94 667.29c-5.49 18.83-40.81 18.42-60.12 14.85-22.91-4.24-27-21.86-37.09-56.92-12.58-43.6-11.15-67.56-9.48-85.52 3.61-38.21-8.18-52.8-9.89-83.7-1.08-19.6 22.89-84.92 26.14-97.15 4.9-18.41 14.53-159.3 15.23-169.28l56.19 48.89c-2 93.17-3.53 75.74-11.17 163.11-1.83 20.67-27 79.63-30.18 91.66-3.51 13.21-2.64 26.91-5.07 40.82-.83 4.74-2.81 17.55.41 21.13 6.22 7 13.25-7.09 29.69 6.9 8.75 7.41 17.46 19.74 23.71 24.82 11.23 9.12 12.88 17.47 10.17 28.43-1.65 6.81-1.61 16.34-6.69 10.94-8-8.42-16.94-25.55-27.89-30.15-5.53-2.33-17.43.24-11 13.28 6.09 12.4 11.31 20.61 22.37 27.18 10.73 6.42 28.97 16.03 24.67 30.71z" fill="#ccaa85"/><path d="M306.94 667.29c-6.38 20.28-45 18-61.64 14.56a34.11 34.11 0 01-8.56-3l-1-.49-1-.62c-13.37-8.28-17.39-27.11-21.88-41.21-8.77-28.88-15.87-58.91-13.53-89.3.38-6 1.12-12.06 1.18-18.1a122.74 122.74 0 00-.84-18.08c-1.38-12-4.86-23.67-7.24-35.53a133.51 133.51 0 01-2.47-18c-.53-6.1.69-12.19 1.87-18.13s2.74-11.83 4.34-17.67c4.82-17.52 10.55-34.78 16.18-52 1.33-4.32 3-8.55 3.81-13 1.44-7.38 2.16-14.92 3-22.4 4.86-48.16 8.21-96.48 11.59-144.77l.13-1.93 1.46 1.27 56.19 48.89.35.3c-.61 24.43-1.06 48.86-2.71 73.26-1.76 24.24-4.85 48.31-7 72.5l-1.7 18.12a104.34 104.34 0 01-4.08 17.87c-7 23.28-16.43 45.71-24.66 68.54a73.86 73.86 0 00-3.91 17.61c-1 9-1.21 18.19-2.73 27.19-1 6.26-2.22 12.75-1.11 19a5.51 5.51 0 005.06 4.69c3 0 5.89-1.31 8.89-1.52 9.61-1.06 17.22 6.33 23.32 12.76 5.23 5.51 9.84 11.56 15.25 16.87 3.36 3 7 5.91 9.52 9.78 3.59 5 4.44 11.56 3.25 17.54-.57 3-1.31 5.91-1.76 8.92-1.81 12.14-5.72 5.37-10.53-.53-5.51-7.19-10.47-15-17.43-20.9a32.45 32.45 0 00-3.72-2.59l-2-1c-4.64-1.88-11.94-.3-12.62 5.45-.5 4.62 2.33 8.71 4.27 12.69a61.43 61.43 0 0010.35 14.88c4.21 4.42 9.56 7.43 14.77 10.5 9.54 5.86 23.05 14.54 19.37 27.58zm0 0c3.65-13-9.87-21.69-19.4-27.52-5.22-3.07-10.59-6.07-14.81-10.49a61.82 61.82 0 01-10.4-14.88c-2.21-4.53-5.95-9.79-3.66-15 1.81-3.56 6.32-4.57 10-4 8.21 1.76 15.19 11.45 20.08 17.81 2.74 3.64 5.35 7.37 8.28 10.85 1.25 1.31 2.32 3.13 4.13 3.64 2.86.3 3.17-8.91 3.88-11 3.24-11.79 1-20.4-8.41-28.38A61.24 61.24 0 01290 582c-6.17-6.68-11.75-13.92-18.7-19.82-6-5.23-12.84-7.79-20.7-5.33-4.74 1.42-9 1-10.37-4.55-1.18-6.44 0-13 1-19.37 2.46-14.94 1.14-30.59 6.46-45 8.13-22.87 17.45-45.32 24.32-68.59a104.12 104.12 0 003.94-17.6c3.39-42.23 9.38-84.56 10.1-126.94.38-12.13.64-24.26.9-36.39l.33.75-56.18-48.86 1.59-.66q-2.55 36.23-5.4 72.44c-2.55 30.16-4.61 60.41-8.83 90.41a61.45 61.45 0 01-2 9c-8.23 25.93-17.71 51.54-23.61 78.14-1.19 5.86-2.42 11.84-1.93 17.84a133.52 133.52 0 002.36 17.93c2.33 11.87 5.77 23.56 7.09 35.63a125.43 125.43 0 01.76 18.17c-.1 6.07-.86 12.1-1.27 18.13-2.5 30.33 4.47 60.34 13.2 89.2 4.45 14.09 8.43 32.86 21.73 41.14l.95.62 1 .5a34.22 34.22 0 008.52 3c16.68 3.51 55.22 5.78 61.61-14.44z" fill="#734d1c"/><path d="M1044.74 387.29c40.72 39.35 59.27 20.69 135-13.58C1206.3 39.9 1201 81.87 1215.06.49h-163.81c25.46 156.44 20.45 79.71-6.51 386.8z" fill="#2b2a40"/><path d="M1044.74 387.29c21.21 20.35 38.4 27.72 67.09 16.82 23.2-8.8 45-20.82 67.69-30.88-.8 2.76 14.23-187.28 14-186.54 3.94-46.72 6.4-93.62 12.77-140.11 2.31-15.48 5.13-30.86 7.75-46.26l1 1.16-163.81-.09.89-1 7.94 48c4.21 25.84 8.9 52.34 8.5 78.6-.09 14.19-1.23 28.42-2.41 42.54-6.17 64.63-15.7 153.44-21.43 217.82zm0 0c5.12-60.75 11.88-133.06 17.91-193.73 1.94-21.25 4.35-45.43 4.43-66.64.28-26.06-4.52-52.66-8.71-78.31l-8-48-.17-1h1.06l163.8-.11h1.18c-2.7 15.79-5.63 31.55-8 47.36-11 86.74-19.5 238.92-28.28 327.32-22.72 10-44.66 21.78-67.94 30.44-28.76 10.68-46.08 3.34-67.27-17.33z" fill="#734d1c"/><path d="M1033.24 536.93s2.09 52.32 39.77 67l37.67 14.65s37.68-35.59 37.68-52.32-12.56-29.3-12.56-29.3c-31.18 39.21-65.8 33.27-102.56-.03z" fill="#f5e68b"/><path d="M1033.24 536.93c2.34 24.51 12 52 35.08 64 3.86 2 10 4.1 14.11 5.73l28.58 11-1 .18c12.06-12 31.55-31.81 36.72-47.8a20.18 20.18 0 00.24-8.72c-1.29-8.87-5.85-17.25-11.85-23.8l1.33-.08c-12.16 15.6-30.48 29.15-51.24 27.15-20.26-1.68-37.51-14.39-52-27.71zm0 0c18 15.74 41.77 31.54 66.71 25.13 14.46-3.78 26-14.22 35.15-25.68l.64-.8.69.72c6.38 6.9 11 15.46 12.47 24.8a22.06 22.06 0 01-.25 9.5c-5.05 16.36-25.05 36.45-37.35 48.6l-.41.39-.54-.21c-5.28-2.06-30.94-12.12-35.63-14a60.74 60.74 0 01-7-3.16c-23.29-12.47-32.79-40.34-34.43-65.29z" fill="#734d1c"/><path d="M1044.74 387.29c-22.5 147.88-4.85 81.14-11.5 149.64 36.72 33.3 71.38 39.24 102.56 0-37.84-98.56-33.81-86.45-28.67-130.38-25.98 6.38-40.8 1.6-62.39-19.26z" fill="#dcc1ad"/><path d="M1044.74 387.29c-2.51 17.93-5.39 38-7.49 56-1.71 14.76-3.67 29.56-3.69 44.43a102.74 102.74 0 001.51 13.95c1 8.63.46 17.36-.17 26l-.79 9.4-.29-.73c21.46 19.65 51.46 37.11 79.51 19.82 8.44-5 15.53-12.09 21.72-19.77l-.14.93c-7.22-18.83-17.3-44.95-23.86-63.7-10.57-30.49-8.58-36.24-4.45-67.09l.66.59a83.59 83.59 0 01-17.18 2.49c-18.25 1-33-10-45.34-22.27zm0 0c19.73 18.76 35.13 25.86 62.27 18.73l.75-.18-.09.77c-3.83 30.84-5.74 36.2 5 66.41 6.64 18.79 17 45.23 24.23 64.08-6.35 8-13.65 15.41-22.53 20.73-29 17.71-59.67.06-81.69-20.26l-.32-.28v-.44c1-12.23 2.61-25.18.89-37.35a82.68 82.68 0 01-1.08-11.8c.17-14.94 2.21-29.78 4.14-44.56 2.48-18.45 5.56-37.54 8.41-55.85z" fill="#734d1c"/><path d="M1004.45 472.35c23.83-15.3 11.58-20.76 28.36-232.57.83-10.43 5.68-125.85 10.37-239.29h-174.1C880.54 183.21 893 455.32 893 455.32c20.46 14.17 84 34.79 111.45 17.03z" fill="#393d46"/><path d="M1004.45 472.35c4.15-2.68 8.3-5.75 10.7-10.18 4.69-8.87 4.88-19.27 5.83-29.06.77-9.59 3.27-63.84 3.81-74.6 2.22-49.75 7-99.34 9.13-149.09.85-19.36 2.85-69.66 3.66-89.55L1042.31.45l.87.91-174.1.09 1-1q3.5 56.84 6.57 113.68c6.11 113.71 11.32 227.46 16.52 341.21 24.89 16.06 84.22 33.94 111.32 17zm0 0c-26.79 16.9-86.58-.68-111.5-16.94-7.2-146.73-15.74-308.19-24.83-454.86l-.07-1h1l174.1.1h.91v.9c-3.24 69.26-7.12 170.56-10.87 238.78-4.83 57.35-8.48 121.09-11.17 178.9-.58 9.94-1.06 19.91-2.53 29.76-1.72 11.37-4.77 18.26-15 24.39z" fill="#734d1c"/><path d="M967.34 479c-32.93-3.41-31.61-8.83-30.36-2.78 10.27 48.88 1.24 62.93-21.8 114.12 29.6 29.6 65.25 28.73 101.26-16.07-3-74.07-17.56-67.14-8.31-98 0 0-1.36-1.49-3.68-3.88-7.79 5-19.52 8.45-37.11 6.61z" fill="#e2d0c8"/><path d="M967.34 479c-9.52-1-19.06-2.3-28.28-4.94l-1.16-.31a3 3 0 00-1.13-.15c-.16 0-.19.2-.18.39s.3 1.41.38 1.74c2.88 14.05 5.29 28.41 4.13 42.82-1 12.81-5 25.18-9.81 37S921.09 579 916 590.69l-.17-.94c10.38 10.39 23.63 18.75 38.53 19.73 25.5 1.57 46.33-17.18 61.52-35.69l-.17.52-.57-12.39a313.54 313.54 0 00-4.24-36.92c-.57-3-1.88-9.11-2.61-12.12-1.91-8-4.33-16.25-3-24.55a67.07 67.07 0 012.74-12l-3.67-3.88c-10.22 6.95-24.63 7.89-37 6.58zm0 0c12.66 1.34 26.29.08 37.19-6.73l3.69 3.87c-.52 2-1.12 4-1.59 6.07a42.8 42.8 0 00-.61 18.4c1.17 5.83 3 12.24 4.36 18.09 3.26 14.13 5 28.65 6.06 43.08l.75 12.42v.28l-.19.24c-12.5 15.49-27.87 30.32-47.73 35.35-20.45 5.35-40.71-4.64-54.74-19.17l-.41-.42.24-.53c10.13-23.2 23.55-45.88 26.09-71.49 1.11-11.09-.11-22.36-1.91-33.32-.42-2.33-1.35-7.08-1.8-9.41l-.27-1.16a2 2 0 01-.07-.94.38.38 0 01.27-.24 8.26 8.26 0 012.38.48c9.2 2.69 18.72 4.05 28.24 5.09z" fill="#734d1c"/><path d="M1016.44 574.28C980.51 619 944.84 620 915.28 590.45c-.34-.34-10.46 14.73-7.92 30.81C910 637.8 952.79 667 952.79 667l34.89-20.38c23.4-13.62 28.76-72.34 28.76-72.34z" fill="#f5e68b"/><path d="M1016.44 574.28c-19.48 25.36-49.56 47.83-82.08 31.39a78.19 78.19 0 01-19.62-14.51l-.08-.07c-.45-.09 1.14.45.89.2a.77.77 0 00.19-.1 45.21 45.21 0 00-6.43 14.31c-1.52 6.28-2.4 13.35.25 19.39 5.12 10 13.94 17.45 22.27 24.85 6.89 5.84 14.08 11.37 21.47 16.54h-1l26-15.11c3.68-2.25 9.47-5 12.68-7.82 16.11-14.34 22.65-48.16 25.38-69zm0 0c-2.3 21.78-7.87 54.71-24.45 70.11-3.36 3-9 5.76-12.79 8.15l-26 15.26-.49.29c-14-10-37.44-27.09-45-42.39a22.43 22.43 0 01-1-2.51c-1.48-6-.83-12.3.7-18.17a51.25 51.25 0 015.33-12.75 12.2 12.2 0 011.81-2.51 1 1 0 01.28-.15c-.22-.28 1.42.28 1 .22a98.14 98.14 0 007.93 7.07c34.73 27.54 68.25 7.06 92.59-22.62zM414.11 11.76c-2.18 26.72-21.67 49.2-46.4 58.42a107.94 107.94 0 01-34.72 7 139.68 139.68 0 0030.82-7.26 90.59 90.59 0 0021.52-11.56c15-11.12 25.75-28.06 28.78-46.56zm99.11 0c-7.28 18.65-7 41 8 55.72 6.51 6.39 14.44 11 22.88 14.65a63.71 63.71 0 01-19.81-9.81c-19.65-14.22-21.63-40.08-11.06-60.56z" fill="#734d1c"/></svg>