<svg xmlns="http://www.w3.org/2000/svg" viewBox="0 0 1400 780"><path fill="#c2d5e8" d="M0 0h1400v780H0z"/><path d="M594.25 635.9c-1.63 12.29-3.08 21.25-4.36 28.11.08-3.94-.18-24.45-.18-24.45l3.86-8.43c.33 2.7.68 4.77.68 4.77z" fill="#a23c30"/><path d="M594.25 635.9c3.79 3.05 22-2.21 22-2.21-1.78 19.65-2 32.7 2.79 55.68l-.08.08c-8.21-8.1-22.24-7.3-26.92-2.12-5.84 6.46-10.1 23.2-10.1 23.2 1.18-24 3.6-23.15 7.95-46.52 1.28-6.86 2.73-15.82 4.36-28.11z" fill="#fdcdcb"/><path d="M731.94 99.48a7.84 7.84 0 013.69-2.14c-.1.22-.85 1.94 0 2.65-1.07-.13-2.3-.31-3.69-.51z" fill="#fdfdfd"/><path d="M735.64 100c-.86-.71-.11-2.43 0-2.65a9.82 9.82 0 012.45-.34s1.22 2.31-.12 3.17c-.7-.03-1.46-.09-2.33-.18z" fill="#0e1408"/><path d="M722.79 112.72c2.52.8 2.2-1.43 2.2-1.43-2.29-.67-2.2 1.43-2.2 1.43zm-3.3-.29s.27-2.08-2.06-1.66c0 0-.51 2.23 2.06 1.66zm21.29-22.69a27.2 27.2 0 00-12.11 0v1.74c.32 0 10.64-.84 12.11 0zm-30.48 6.64a11 11 0 002.77.56 4.78 4.78 0 003.73-1 20.61 20.61 0 00-3.2-2.27 6 6 0 00-2.36-.83 13.13 13.13 0 00-1.66 0c.26-2.06.55-4.07.9-6 7.51 2.43 7.17 3.13 8 2.82 4-1.43-2.6-3.72-7.64-5 2.09-9.9 5.72-17.08 12-16.83 8.07.31 12.14-1 14.53 2.21 10.07 13.33 5.11 52.09-1.41 62.17 0 0-8.21 7.93-14.25 8.88s-13.54-7.58-13.54-8.84c-.06-8.46-.35-23.14 1-36.36a9.15 9.15 0 001.13.49zm10.72 22c-3.18-1.1-5.85-.54-7.49 3.47.56.12 1.07.21 1.52.28v.15c1.93 5.52 9.27 6.07 11.37.61 2.58-.37.31-5.25-5.42-4.53zm14.61-21a7.84 7.84 0 00-3.69 2.14c1.39.2 2.62.38 3.7.51.87.1 1.63.16 2.31.18 2.25 0 3.5-.48 3.87-2.17-.31-.52-1.85-1-3.75-1a9.82 9.82 0 00-2.44.3z" fill="#fad2d0"/><path d="M738 100.17c1.34-.86.15-3.17.12-3.17 1.9 0 3.44.48 3.75 1-.41 1.69-1.66 2.21-3.87 2.17z" fill="#fdfdfd"/><path d="M785 174.11c5.17 8.62 23.67 72.5 30.65 97s-19.89 6.56-24.1 5.93L774.67 276c-.73-3.51-2.27-7.09-5.47-8.06q-6 2.28-12.07 4.38l-3.68 1.25q-10.87 3.66-22.11 6.79-10.87 3-22.08 5.59-9 2.09-18.21 3.83c-1.49.29-3 .57-4.47.83-4.43.82-8.89 1.57-13.38 2.28-1.4 1.55-1.63 4.16-1.31 7-1.93-1.32-6.51-2.48-12-3.46s-11.67-1.74-17.29-2.33c-7.94-.86-14.55-1.33-15.39-1.39 5-28.25 19.45-106 25.18-112.27 2.76-3 7.79-6.47 12.19-8.77 3-1.56 5.69-2.59 7.21-2.59 1.89 0 3.54.75 5.87 1.43a28.13 28.13 0 009.8 1.09c43.53-2 33.14-4.24 49.89-6.8 1.65-.26 3.57-.52 5.83-.78 7.31-.84 10.26-5.47 20.79 0 8 4.2 14.63 5.43 18.4 7.66a7.25 7.25 0 012.63 2.43z" fill="#6a97d0"/><path d="M762.15 288.38c2.18-2.95-5-16.05-5-16.05q6.09-2.1 12.07-4.38c3.2 1 4.74 4.55 5.47 8.06a32.14 32.14 0 01.64 5.68v2.1z" fill="#f17367"/><path d="M768.41 689.06c-1.66-.87-15.39-5.77-21.95 6.15-.44.81-.86 1.59-1.25 2.35L753.1 646s13.42 5.21 21 2.37l3.51 50.26c-2.78-3.57-7.93-8.91-9.2-9.57zm6.79-64.43v7.27s-11.68 9-19-1.11l.32-6.16z" fill="#fdcdcb"/><path d="M719.89 290.08c1.3 5.16-.78 4.47 7.94 2-1.24-4.79.81-4.08-7.94-2zm-9.9-1.36l17.84-4.93 2.69 12.58c-19.16 6.66-18.63 5.86-18.63 7.92-8.38 2.09-12.27 2.37-19.53 3.82 1.5-2.1-1.32-18.35-1.32-18.35q9.21-1.76 18.21-3.83zm43.46-15.13s6 12.42 4.67 16.18c-8.67 3-15.88 5.38-21.93 7.35v-.06l-4.83-16.69q11.24-3.14 22.11-6.79z" fill="#f17367"/><path d="M793.67 620.37c-2.36 1.74-18.47 4.26-18.47 4.26h-18.63c-14.68-1.1-14.84-7.57-16.42-20s4.74-12.79 5.06-11.05c1.21 6.55 41.83 10.86 48.31 0 4.54 6.94 3.07 24.65.15 26.79z" fill="#a4c6e9"/><path d="M616.25 633.69s-18.21 5.26-22 2.21c0 0-.35-2.07-.68-4.77-.67-5.51-1.24-13.63 1.53-12.07 11.79 6.63 21.15 1.89 21.15 1.89 7.06 5.05 0 12.74 0 12.74z" fill="#f16d61"/><path d="M595.1 619.06l2-12.58c5 3 19.15 4.89 19.15 4.89V621s-9.36 4.69-21.15-1.94z" fill="#fdcdcb"/><path d="M740.78 89.74v1.74c-1.47-.84-11.79 0-12.11 0v-1.74a27.2 27.2 0 0112.11 0z" fill="#0e1408"/><path d="M659.86 296.41l2.29 10.42-14.15-2.54-5.42-.21v-10c5.61.59 11.89 1.38 17.28 2.33z" fill="#000807"/><path d="M758.12 289.77c1.36-3.76-4.67-16.18-4.67-16.18l3.68-1.25s7.2 13.1 5 16.05c-1.36.46-2.71.92-4.01 1.38z" fill="#68656c"/><path d="M661.62 417.27c-8.72-12.88-7-24.87-12-29.06-1.8-24.8-5.14-65.95-1.63-83.92l14.16 2.54 7.89 1.42 4.24.87c.68 1.86 1.24 3.09 1.24 3.09-9.52 35.79-7.2 21.69-9.52 62.11a47.5 47.5 0 0111.37 23.58c2.32 14.31 2.53 15.79-1.26 15.16s-5.69-7.16-6.95-10.95-2.49 8.89 2.99 13.89 13.47 7.58 13.26 10.32a7 7 0 01-.15 1c-1.84 8.14-17.88-1.54-23.64-10.05zm122.11 9.05c-1.69-1.69-2.32-16.63-2.32-21.26 0-41.86 15.16-.77-6.1-121.27v-2.1c13.37-1.16 20.21.2 28.26.24s3.84 71.75 1.63 90.06 4.11 42.32 2.53 49.9-11.54 24.47-17.85 20c-.5.22-7.06-7.53-1.52-13.69.33-.37.46-.62.42-.78-.14-.75-3.67.28-5.05-1.1z" fill="#fbccc2"/><path d="M747.1 66.64c12.47 10.84 14.52 53.18 16.84 97.36-10.53-5.47-13.48-.84-20.79 0-2.26.26-4.18.52-5.83.78.4-9 0-6.47-1.28-32.5 6.52-10.08 11.48-48.84 1.41-62.17-2.39-3.16-6.46-1.9-14.53-2.21-6.32-.25-9.95 6.93-12 16.83-.14.7-.28 1.41-.41 2.14-.35 1.92-.64 3.93-.9 6-.12 1-.24 2.06-.34 3.1-1.33 13.22-1 27.9-1 36.36v29.05c-6.09-2.87-10-3-13.52-1.58l-.05-.12-12.64-4c-1-30.25 5.24-60.69 8.53-68.53C700.71 63 726.85 49 747.1 66.64z" fill="#d88eb3"/><path d="M583.36 596.53c-7-9.47 9.66-26 9.66-26-2 9.23 4.93 8.93 17.65 15a44 44 0 0027.16 3s3 5.21 1.58 9.47-5.37 14.37-8.21 14.68-15-1.26-15-1.26-14.1-1.89-19.15-4.89c.05-.05-6.74-.53-13.69-10z" fill="#a4c6e9"/><path d="M662.15 306.83l-2.29-10.42c5.52 1 10.1 2.14 12 3.46a42.38 42.38 0 002.39 9.25l-4.24-.87z" fill="#000807"/><path d="M718.52 89.69c-.88.31-.54-.39-8-2.82.13-.73.27-1.44.41-2.14 4.99 1.27 11.62 3.53 7.59 4.96z" fill="#0e1408"/><path d="M774.67 276l16.85 1.05c4.21.63 24.1-5.93 24.1-5.93 1.6 5.66 2.6 9.23 2.68 9.52 0 0 0-.12-.08-.27a67.67 67.67 0 01-14.68 1.56c-8.05 0-14.89-1.4-28.26-.24a32.14 32.14 0 00-.61-5.69z" fill="#000807"/><path d="M727.83 283.79L710 288.72l-.73-2.75q11.21-2.54 22.08-5.59l4.83 16.69v.06c-11.46 3.71-18.83 5.84-24.29 7.2 0-2.06-.53-1.26 18.63-7.92z" fill="#68656c"/><path d="M581.94 710.53s4.26-16.74 10.1-23.2c4.68-5.18 18.71-6 26.92 2.12 4.37 4.29 7.1 11.1 5.93 21.08-.6 5.05-26.22 9.83-42.95 0z" fill="#f16d61"/><path d="M666 374.32c2.28-40.42-.07-26.32 9.48-62.11 5.27-1.44 9.37-2.45 12.74-3.2 1.49-.34 2.84-.62 4.1-.87 7.26-1.45 11.15-1.73 19.53-3.82 5.46-1.36 12.83-3.49 24.29-7.2 6-2 13.26-4.38 21.93-7.35 1.3-.46 2.65-.92 4-1.39l13.16-4.59c21.26 120.5 6.1 79.41 6.1 121.27 0 4.63.63 19.57 2.32 21.26 1.38 1.38 4.91.35 5 1.11 0 .16-.09.41-.42.78-5.54 6.16 1 13.91 1.52 13.69-4.57 65.48-5.08 32.07 3.64 151.63-6.48 10.86-47.1 6.55-48.31 0 0 0 1.25-45.32-1.48-66.37a190.77 190.77 0 01-1.34-22c-.21-16.41.71-34.86.28-54.37-.63-28.84-13.89-75.16-15.15-83.58s-4.63-7.58-9.69-7-5.47 8.42-8.42 15.79c0 .06-9.1 26.78-17.42 51.37l-6.73-.05a7 7 0 00.15-1c.21-2.74-7.79-5.26-13.26-10.32s-4.21-17.68-2.95-13.89 3.16 10.31 6.95 10.95 3.58-.85 1.26-15.16A47.5 47.5 0 00666 374.32z" fill="#a5c7ea"/><path d="M775.2 631.9s7.58 9.31-1.1 16.42c-7.58 2.84-21-2.37-21-2.37-6-8.37 3.15-15.16 3.15-15.16 7.27 10.11 18.95 1.11 18.95 1.11z" fill="#f16d61"/><path d="M708.25 132.32c0 1.26 7.51 9.79 13.54 8.84s14.21-8.88 14.21-8.88c1.24 26 1.68 23.49 1.28 32.5-16.75 2.56-6.36 4.8-49.89 6.8a28.13 28.13 0 01-9.8-1.09c8.13-4.19 12.29-8.82 17.1-10.7 3.54-1.39 7.43-1.29 13.52 1.58z" fill="#fbccc2"/><path d="M671.89 299.87c-.32-2.81-.09-5.42 1.31-7 4.49-.71 8.95-1.46 13.38-2.28s1.92 16.62 1.68 18.38c-3.37.75-7.47 1.76-12.74 3.2 0 0-.56-1.23-1.24-3.09a42.38 42.38 0 01-2.39-9.21z" fill="#f17367"/><path d="M642.57 294.08v10c-6.56-.26-16.78-.7-17.21-.92 0 0 .65-3.91 1.82-10.47.82.06 7.45.53 15.39 1.39z" fill="#000807"/><path d="M779.31 701.13c.94 2.37 2.52 16.68 2.52 16.68-9.75 4.85-26 5.39-42.31-3.49 0 0 .34-6.25 5.69-16.76.39-.76.81-1.54 1.25-2.35 6.56-11.92 20.29-7 21.95-6.15 1.27.66 6.42 6 9.2 9.52a13.15 13.15 0 011.7 2.55z" fill="#f16d61"/><path d="M727.83 292.06c-8.72 2.49-6.64 3.18-7.94-2 8.75-2.06 6.7-2.77 7.94 2z" fill="#68656c"/><path d="M715.05 122.11c5.6.89 3.58-1.29 9.94.6a3.41 3.41 0 001.41.16c-2.1 5.46-9.44 4.91-11.37-.61z" fill="#a94257"/><path d="M709.23 96c.1-1 .22-2.08.34-3.1a13.13 13.13 0 011.66 0 2.76 2.76 0 00-.93 3.52 9.15 9.15 0 01-1.07-.42z" fill="#fdfdfd"/><path d="M688.26 309c.24-1.76-1.68-18.38-1.68-18.38 1.49-.26 3-.54 4.47-.83 0 0 2.82 16.25 1.32 18.35-1.27.25-2.62.53-4.11.86z" fill="#68656c"/><path d="M713.07 96.94a11 11 0 01-2.77-.56 2.76 2.76 0 01.93-3.52 6 6 0 012.36.83s.49 2.4-.52 3.25z" fill="#0e1408"/><path d="M649.62 388.21c5 4.19 3.28 16.18 12 29.06 5.76 8.51 21.8 18.19 23.64 10.05l6.73.05c-6.68 19.73-12.88 38.1-13.53 40.21-10.21 33.5-4.66.38-40.63 120.9a44 44 0 01-27.16-3c-12.72-6.07-19.69-5.77-17.65-15-.55-6.16 7.13-32.58 13.44-50.9 7.5-21.75 10.73-22.54 15.06-30.49 5.05-9.24 11.6-28.15 28.1-100.88z" fill="#a5c7ea"/><path d="M713.07 96.94c1-.85.52-3.23.52-3.23A20.61 20.61 0 01716.8 96a4.78 4.78 0 01-3.73.94z" fill="#fdfdfd"/><path d="M725 122.71c-6.36-1.89-4.34.29-9.94-.6-.45-.07-1-.16-1.52-.28 1.64-4 4.31-4.57 7.49-3.47 5.71-.72 7.93 4.16 5.38 4.51a3.41 3.41 0 01-1.41-.16z" fill="#a94257"/><path d="M717.43 110.77c2.33-.42 2.06 1.66 2.06 1.66-2.57.57-2.06-1.66-2.06-1.66zm7.57.52s.32 2.23-2.2 1.43c-.01 0-.1-2.1 2.2-1.43z" fill="#0e1408"/><path d="M777.61 698.58c-2.78-3.52-7.93-8.86-9.2-9.52-1.66-.87-15.39-5.77-21.95 6.15-.44.81-.86 1.59-1.25 2.35-5.35 10.51-5.69 16.76-5.69 16.76 16.27 8.88 32.56 8.34 42.31 3.49 0 0-1.58-14.31-2.52-16.68a13.15 13.15 0 00-1.7-2.54" fill="none" stroke="#000" stroke-miterlimit="10" stroke-width=".75"/><path d="M745.21 697.59v0L753.1 646s13.42 5.21 21 2.37l3.51 50.26h0m-3.51-50.31c8.68-7.11 1.1-16.42 1.1-16.42s-11.68 9-19-1.11c0 0-9.15 6.79-3.15 15.16m22.15-14.05v-7.27h-18.63l-.32 6.16m-174.31 79.74c16.73 9.83 42.35 5.05 42.95 0 1.17-10-1.56-16.79-5.93-21.08-8.21-8.1-22.24-7.3-26.92-2.12-5.84 6.46-10.1 23.2-10.1 23.2z" fill="none" stroke="#000" stroke-miterlimit="10" stroke-width=".75"/><path d="M619 689.37c-4.83-23-4.57-36-2.79-55.68 0 0-18.21 5.26-22 2.21-1.63 12.29-3.08 21.25-4.36 28.11-4.35 23.37-6.77 22.48-7.95 46.52" fill="none" stroke="#000" stroke-miterlimit="10" stroke-width=".75"/><path d="M616.25 633.69s7.06-7.69 0-12.74c0 0-9.36 4.74-21.15-1.89-2.77-1.56-2.2 6.56-1.53 12.07.33 2.7.68 4.77.68 4.77" fill="none" stroke="#000" stroke-miterlimit="10" stroke-width=".75"/><path d="M593.57 631.13l-3.86 8.43s.26 20.51.18 24.45v.63M616.25 621v-9.58s-14.1-1.89-19.15-4.89l-2 12.58" fill="none" stroke="#000" stroke-miterlimit="10" stroke-width=".75"/><path d="M616.25 611.37s12.11 1.58 15 1.26 6.75-10.42 8.16-14.63-1.58-9.47-1.58-9.47a44 44 0 01-27.16-3c-12.72-6.07-19.69-5.77-17.65-15 0 0-16.61 16.58-9.66 26s13.74 10 13.74 10m178.1 18.1s16.11-2.52 18.47-4.26c2.92-2.14 4.39-19.85-.15-26.84-6.48 10.86-47.1 6.55-48.31 0-.32-1.74-6.64-1.42-5.06 11.05s1.74 18.95 16.42 20m-64.21-316.44c-1.26.25-2.61.53-4.1.87-3.37.75-7.47 1.76-12.74 3.2-9.52 35.79-7.2 21.69-9.52 62.11a47.5 47.5 0 0111.37 23.58c2.32 14.31 2.53 15.79-1.26 15.16s-5.69-7.16-6.95-10.95-2.49 8.89 2.99 13.89 13.47 7.58 13.26 10.32a7 7 0 01-.15 1c-1.84 8.14-17.88-1.54-23.64-10.05-8.72-12.88-7-24.87-12-29.06-16.5 72.73-23 91.64-28.1 100.88-4.33 8-7.56 8.74-15.06 30.49-6.31 18.32-14 44.74-13.44 50.9" fill="none" stroke="#000" stroke-miterlimit="10" stroke-width=".75"/><path d="M793.52 593.53c-8.72-119.56-8.21-86.15-3.64-151.63-.5.22-7.06-7.53-1.52-13.69.33-.37.46-.62.42-.78-.14-.76-3.67.27-5-1.11-1.69-1.69-2.32-16.63-2.32-21.26 0-41.86 15.16-.77-6.1-121.27l-13.16 4.59c-1.38.47-2.73.93-4 1.39-8.67 3-15.88 5.38-21.93 7.35-11.46 3.71-18.83 5.84-24.29 7.2-8.38 2.09-12.27 2.37-19.53 3.82m49.94 196.98a190.77 190.77 0 001.34 22c2.73 21.05 1.48 66.37 1.48 66.37" fill="none" stroke="#000" stroke-miterlimit="10" stroke-width=".75"/><path d="M637.83 588.48c36-120.52 30.42-87.4 40.63-120.9.65-2.11 6.85-20.48 13.53-40.21 8.32-24.59 17.4-51.31 17.42-51.37 3-7.37 3.37-15.15 8.42-15.79s8.42-1.47 9.69 7 14.48 54.69 15.15 83.53c.43 19.51-.49 38-.28 54.37m31.07-6.11c.64-.32 9.45-8.56 11.37-10.42m-42.44 16.53h0c.15 1.46 5.48 5.48 9.28 6.62M664.78 499s-12.21 16-16.84 18.74m-26.5-29.21l.08.56c.49 3.05 2.85 17.71 4.73 22.65m111.37-185.53a29.22 29.22 0 01-4.42 14.69m-6.2 18.94s14.06-9.63 16.11-12m-24.75-37.42s-1.26 18.79.63 23.14m-22.1-5.56s11.52 21.47 15 23.21m63.42-67.42v-2.1a32.14 32.14 0 00-.64-5.68c-.73-3.51-2.27-7.09-5.47-8.06q-6 2.28-12.07 4.38l-3.68 1.25q-10.87 3.66-22.11 6.79-10.87 3-22.08 5.59-9 2.09-18.21 3.83c-1.49.29-3 .57-4.47.83-4.43.82-8.89 1.57-13.38 2.28-1.4 1.55-1.63 4.16-1.31 7a42.38 42.38 0 002.39 9.25c.68 1.86 1.24 3.09 1.24 3.09" fill="none" stroke="#000" stroke-miterlimit="10" stroke-width=".75"/><path d="M753.45 273.59s6 12.42 4.67 16.18c0 0 0 0 0 0m-.99-17.44s7.2 13.1 5 16.05h0m-75.55 2.25s1.92 16.62 1.68 18.38a.27.27 0 010 .11m2.79-19.33s2.82 16.25 1.32 18.35h0a.28.28 0 01-.08.11m39.05-27.88l4.83 16.69M709.26 286l.73 2.75 17.84-4.93 2.69 12.58c-19.16 6.66-18.63 5.86-18.63 7.92" fill="none" stroke="#000" stroke-miterlimit="10" stroke-width=".75"/><path d="M719.89 290.08c1.3 5.16-.78 4.47 7.94 2-1.24-4.79.81-4.08-7.94-2zm-70.27 98.13c-1.8-24.8-5.14-65.95-1.63-83.92l14.16 2.54 7.89 1.42-2.1 32.38m2.1-32.38l4.24.87m144.05-28.48s0-.12-.08-.27a67.67 67.67 0 01-14.68 1.56c-8.05 0-14.89-1.4-28.26-.24" fill="none" stroke="#000" stroke-miterlimit="10" stroke-width=".75"/><path d="M648 304.29l-5.42-.21c-6.56-.26-16.78-.7-17.21-.92 0 0 .65-3.91 1.82-10.47 5-28.25 19.45-106 25.18-112.27 2.76-3 7.79-6.47 12.19-8.77 3-1.56 5.69-2.59 7.21-2.59 1.89 0 3.54.75 5.87 1.43a28.13 28.13 0 009.8 1.09c43.53-2 33.14-4.24 49.89-6.8 1.65-.26 3.57-.52 5.83-.78 7.31-.84 10.26-5.47 20.79 0 8 4.2 14.63 5.43 18.4 7.66a7.25 7.25 0 012.65 2.45c5.17 8.62 23.67 72.5 30.65 97h0c1.6 5.66 2.6 9.23 2.68 9.52h0m-35.02-86.52s-1.69 64.63-4.21 71.58" fill="none" stroke="#000" stroke-miterlimit="10" stroke-width=".75"/><path d="M782.34 171.65h0C760.62 208 773.9 245 771.1 260m44.52 11.13s-19.89 6.56-24.1 5.93l2-57.06m-18.86 56.01h.01l16.85 1.05M664.55 171.65s4.55 9 3 17.51m-5.4 3.16c3.77 35.84 8.25 44.36 15.47 64.42l9-16.74m-9 16.74s-4.42 13.18-7.58 15.59m-7.89-28.85s6 37 9.61 40.31m-23.51-40.31l11.61 52.93 2.29 10.42m-19.58-52.62v49.87" fill="none" stroke="#000" stroke-miterlimit="10" stroke-width=".75"/><path d="M627.09 292.68h.09c.84.06 7.45.53 15.39 1.39 5.62.59 11.9 1.38 17.29 2.33s10.1 2.14 12 3.46m36.39-167.54c0 1.26 7.51 9.79 13.54 8.84s14.21-8.88 14.21-8.88c1.24 26 1.68 23.49 1.28 32.5a.34.34 0 000 .1m-59.65 5.61c8.13-4.19 12.29-8.82 17.1-10.7 3.54-1.39 7.43-1.29 13.52 1.58v-29.05" fill="none" stroke="#000" stroke-miterlimit="10" stroke-width=".75"/><path d="M763.94 164c-2.32-44.18-4.37-86.52-16.84-97.36C726.85 49 700.71 63 690.57 87.16 687.28 95 681 125.44 682 155.69l12.64 4" fill="none" stroke="#000" stroke-miterlimit="10" stroke-width=".75"/><path d="M708.25 132.32c-.06-8.46-.35-23.14 1-36.36.1-1 .22-2.08.34-3.1.26-2.06.55-4.07.9-6 .13-.73.27-1.44.41-2.14 2.09-9.9 5.72-17.08 12-16.83 8.07.31 12.14-1 14.53 2.21 10.07 13.33 5.11 52.09-1.41 62.17" fill="none" stroke="#000" stroke-miterlimit="10" stroke-width=".75"/><path d="M711.23 92.86a13.13 13.13 0 00-1.66 0h-.09m-.26 3.14h0a9.15 9.15 0 001.07.42 11 11 0 002.77.56 4.78 4.78 0 003.73-1 20.61 20.61 0 00-3.2-2.27 6 6 0 00-2.36-.83m-.99-6.09l.23.08c7.51 2.43 7.17 3.13 8 2.82 4-1.43-2.6-3.72-7.64-5h-.22m18.06 6.79c.32 0 10.64-.84 12.11 0v-1.74a27.2 27.2 0 00-12.11 0zm9.33 8.69c-.68 0-1.44-.08-2.31-.18-1.08-.13-2.31-.31-3.7-.51a7.84 7.84 0 013.69-2.14 9.82 9.82 0 012.45-.34c1.9 0 3.44.48 3.75 1-.37 1.69-1.62 2.21-3.87 2.17" fill="none" stroke="#000" stroke-miterlimit="10" stroke-width=".75"/><path d="M720 99.42c0 .66.08 5-.76 6.14" fill="none" stroke="#000" stroke-miterlimit="10" stroke-width=".25"/><path d="M724.74 99.67c0 1-.44 5.72.59 7.1" fill="none" stroke="#000" stroke-linejoin="round" stroke-width=".25"/><path d="M727.16 110.23s1 2.88-.14 3.37m-11.72-4s-.73 3 .52 4m3.67-1.17s.27-2.08-2.06-1.66c0 0-.51 2.23 2.06 1.66zm3.93-3.94a10.79 10.79 0 00-2.65-.5m5.63 14.88c2.55-.35.33-5.23-5.38-4.51-3.18-1.1-5.85-.54-7.49 3.47.56.12 1.07.21 1.52.28 5.6.89 3.58-1.29 9.94.6a3.41 3.41 0 001.41.16zm0 0c-2.1 5.46-9.44 4.91-11.37-.61" fill="none" stroke="#000" stroke-miterlimit="10" stroke-width=".25"/><path d="M791.94 401.9s.11 21.7-3.16 25.53m11.84-6.43s-9.15 20-11.84 19.87" fill="none" stroke="#000" stroke-miterlimit="10" stroke-width=".75"/><path d="M803 425.69s-5.53 15.52-13.11 16.21c6.31 4.47 16.24-12.29 17.85-20S803 390.32 805.2 372s-1.63-90.06-1.63-90.06" fill="none" stroke="#000" stroke-miterlimit="10" stroke-width=".75"/><path d="M735.64 97.32h0c-.1.22-.85 1.94 0 2.65" fill="none" stroke="#000" stroke-linecap="round" stroke-linejoin="round" stroke-width=".75"/><path fill="none" stroke="#000" stroke-miterlimit="10" stroke-width=".75" d="M737.96 100.17h-.01"/><path d="M738.08 97s1.22 2.31-.12 3.17m-24.37-6.46s.49 2.38-.52 3.23L713 97" fill="none" stroke="#000" stroke-linecap="round" stroke-linejoin="round" stroke-width=".75"/><path d="M711.24 92.86h0a2.76 2.76 0 00-.93 3.52" fill="none" stroke="#000" stroke-miterlimit="10" stroke-width=".75"/><path d="M711.25 92.85h0" fill="none" stroke="#000" stroke-linecap="round" stroke-linejoin="round" stroke-width=".75"/></svg>