<svg xmlns="http://www.w3.org/2000/svg" viewBox="0 0 1400 780"><path fill="#b3b3b3" d="M0 0h1400v780H0z"/><path fill="#fff" stroke="#000" stroke-linecap="round" stroke-miterlimit="10" stroke-width="26.22" d="M480.45 178.07h229.66m-229.66 83.92h229.66M480.45 345.9h229.66"/><path fill="#fff" stroke="#000" stroke-linecap="round" stroke-miterlimit="10" stroke-width="34.79" d="M393.22 429.82h404.12"/><path fill="none" stroke="#ff1d25" stroke-linecap="round" stroke-miterlimit="10" stroke-width="8" d="M983.37 429.82h37.49"/><path d="M1040.17 429.82c-9.09 3.37-20.36 9.12-27.35 15.21l5.5-15.21-5.5-15.22c6.99 6.09 18.26 11.85 27.35 15.22z" fill="#ff1d25"/><path fill="none" stroke="#ff1d25" stroke-linecap="round" stroke-miterlimit="10" stroke-width="8" d="M924.17 429.82h-37.49"/><path d="M867.37 429.82c9.09-3.37 20.36-9.13 27.35-15.22l-5.5 15.22 5.5 15.21c-6.99-6.09-18.26-11.84-27.35-15.21z" fill="#ff1d25"/><path fill="none" stroke="#ff1d25" stroke-linecap="round" stroke-miterlimit="10" stroke-width="8" d="M982.68 345.9h37.49"/><path d="M963.37 345.9c9.09 3.37 20.36 9.13 27.35 15.22l-5.5-15.22 5.5-15.22c-6.99 6.1-18.26 11.85-27.35 15.22z" fill="#ff1d25"/><path fill="none" stroke="#ff1d25" stroke-linecap="round" stroke-miterlimit="10" stroke-width="8" d="M924.86 345.9h-37.49"/><path d="M944.17 345.9c-9.09-3.37-20.36-9.12-27.35-15.22l5.5 15.22-5.5 15.22c6.99-6.12 18.26-11.85 27.35-15.22z" fill="#ff1d25"/><path fill="#fff" stroke="#000" stroke-linecap="round" stroke-miterlimit="10" stroke-width="34.79" d="M393.22 513.73h404.12m-404.12 83.92h404.12"/></svg>