<svg xmlns="http://www.w3.org/2000/svg" viewBox="0 0 1400 780"><path fill="#00a89c" d="M0 0h1400v780H0z"/><path fill="none" stroke="#000" stroke-linecap="round" stroke-miterlimit="10" stroke-width="26.22" d="M1054.17 624.39H824.51m229.66-83.92H824.51m229.66-83.91H824.51"/><path fill="none" stroke="#000" stroke-linecap="round" stroke-miterlimit="10" stroke-width="34.79" d="M1141.4 372.64H737.28m404.12-83.91H737.28m404.12-83.92H737.28"/><path d="M330.73 300.2c14.35-2.87 17.17-5.15 55.51 5.52" fill="none" stroke="#000" stroke-miterlimit="10" stroke-width="2.22"/><path d="M539.21 599.53l-.21.47c0 89.41-233.13 89.53-233.72.34 68.34-21.57 50.73-102.8 52.24-104.9 37.71 28.31 91.94 28.79 130.32-.83l1.91 2.46c-1.39 8.72-11.35 81.32 49.46 102.46z" fill="#f1cfb6"/><path d="M372.59 305.36c.07-.11 24.72-34 25-37.6s0 31.38-4 36.67c-1.8 2.35-4.27 6.2-5 8.7 2.34-2 17.56-14.74 19.58-16.79 2.19-2.16-8.38 18.35-9.62 20.2s19.56-19.25 23.62-23-7.17 22.7-7.17 23.94 43.84-43.21 51.3-61.85c5.24-13.11 15.26-33.75 20.83-44.45 30.31 116.87 25.25 102.21 26.93 93.57 7 1.45 16.13 3.56 16.61 3.72 54 205.57-146.93 271.25-209 142.36-31.77-65.75-9.38-158.48 2.26-166.3v45.08c17-29.75 14.62-34.72 16.79-14.92 9.49-13.38 8.95-13 9.92-13.05 2 0 16.86-26.9 20.31-26.31 2.66.45-3 25.62-3.34 28.88-1.43 12.71-2.61 11.71 4.98 1.15zM519.09 355c0-18.09-61.54-18.09-61.54 0s61.54 18 61.54 0zm-160 11.3c41 0 41-27.36 0-27.36s-40.95 27.34-.02 27.34z" fill="#f1cfb6"/><path d="M386.83 308.24c-36.65-10.3-39.64-8.73-55.52-5.52" fill="none" stroke="#000" stroke-miterlimit="10" stroke-width="2.22"/><path d="M324 329.61v-45.08c-11.1 7.32-34.27 100.05-2.26 166.3-22.76-4.31-35.64-9.53-58.25-29.84-8.29-7.46-18.23-34.83-19.88-42.29-4.75-21.44 3.31-58.67 5.8-83.7.83-8.29 13.25-29 14.08-42.28s19.07-56.36 26.53-69.61 58.84-52.22 68.65-55.55 29.15-5.79 43.25-11.59 48.89-1.66 62.16 0 40.61 14.09 60.53 18.22 39.77 32.33 45.55 40.61 18.25 64.67 26.54 81.25 12.37 51.37 10.72 106.95c-1.56 52.23-77.8 88.7-85.14 88.7 26-53.06 19.28-126.66-2.56-175.81 0-.23.07-.49-5.65 28.9-4.4-.94-2.49.71-26.93-93.57-5.45 10.46-15.5 31.11-20.83 44.45-7.46 18.64-51.3 63.09-51.3 61.85s11.21-27.65 7.17-23.93-24.88 24.86-23.62 23 11.81-22.36 9.62-20.2c-2 2.05-17.23 14.81-19.58 16.79.73-2.55 3.24-6.44 5-8.7 4-5.29 4.35-40.41 4-36.67-.21 2.64-15.52 24.61-24.68 37.12-8.13 11.1-6.37 8.65-1.73-31.53-28.47 33.28-12.59 26.25-31.74 29.8-.96-8.46 3.25-6.33-15.45 26.41z" fill="#c59b6d"/><path d="M528.78 307.23c.09 1.28 2.09 1-14.71-2.48 3.07-15.79 5.65-29.12 5.65-28.9 4.1 9.22 8.36 21.54 9.06 31.38z" fill="#f1cfb6"/><path d="M488.32 341.3c40.9 0 40.9 27.34 0 27.34 18.1 0 18.1-27.34 0-27.34z" fill="#fff"/><path d="M488.32 341.3c18.1 0 18.1 27.34 0 27.34s-18.1-27.34 0-27.34zm1.24 11.18c0-4.49-6.83-4.52-6.83 0s6.83 4.52 6.83 0z"/><path d="M486.14 349.08c4.55 0 4.51 6.83 0 6.83s-4.53-6.83 0-6.83z" fill="#fff"/><path d="M488.32 341.3c-18.1 0-18.1 27.34 0 27.34-40.93 0-40.93-27.34 0-27.34zm-129.25 24.98c18.1 0 18.1-27.36 0-27.36 40.93 0 40.93 27.36 0 27.36z" fill="#fff"/><path d="M359.07 338.92c18.1 0 18.1 27.36 0 27.36s-18.07-27.36 0-27.36zm5.61 11.2c0-4.53-6.85-4.53-6.85 0s6.85 4.51 6.85 0z"/><path d="M361.25 346.7c4.52 0 4.55 6.83 0 6.83s-4.51-6.83 0-6.83z" fill="#fff"/><path d="M359.07 338.92c-18.08 0-18.08 27.36 0 27.36-40.93 0-40.93-27.36 0-27.36z" fill="#fff"/><path d="M350 301.68l-9.25 13s-1.2-10.95-1.28-11.54a88.71 88.71 0 0110.53-1.46z" fill="#c59b6d"/><path d="M305.31 600c0 89.66 233.72 89.41 233.72 0m-49.09-103.8c-9.66 46.07 9.56 100.94 70.86 108.15M357 496.2c8.16 42.64-5.51 100.49-70.86 108.15" fill="none" stroke="#000" stroke-miterlimit="10" stroke-width="1.97"/><path d="M321.69 450.83c42.29 87.84 157.84 88.05 200.59.83M317.73 294.55a10.17 10.17 0 00-.31 1M528.83 308c-.74-10.36-4.92-23.14-8.89-31.65m-160.87 89.93c18.1 0 18.1-27.36 0-27.36s-18.07 27.36 0 27.36z" fill="none" stroke="#000" stroke-miterlimit="10" stroke-width="2.22"/><path d="M364.68 350.12c0 4.51-6.85 4.51-6.85 0s6.85-4.53 6.85 0zm-34.19-13.05c10.66-1.55 10.07-9.85 54.39 0m103.44 31.57c-18.1 0-18.1-27.34 0-27.34s18.1 27.34 0 27.34z" fill="none" stroke="#000" stroke-miterlimit="10" stroke-width="2.22"/><path d="M482.73 352.48c0 4.56 6.83 4.52 6.83 0s-6.83-4.48-6.83 0zm34.18-13.05c-10.67-1.55-10.08-9.85-54.4 0m68.19-30.96h0z" fill="none" stroke="#000" stroke-miterlimit="10" stroke-width="2.22"/><path d="M455.74 309.71c36.65-10.3 39.64-8.73 55.52-5.51l-24.12-93c-5.45 10.46-15.5 31.11-20.83 44.45-7.46 18.64-51.3 63.09-51.3 61.85s11.21-27.65 7.17-23.93-24.88 24.86-23.62 23 11.81-22.36 9.62-20.2c-1.63 1.65-12 10.43-17 14.59-3.06 2.57-3.39 3.32-1.48-.49a38.34 38.34 0 013.84-6c4-5.29 4.35-40.41 4-36.67-.32 3.9-28.57 42.51-31.08 46l4.67-40.39c-7.34 8.57-23.68 31.81-30.46 41.34-2.57-23.35-1-16-4.17-9-4.16 9.25-12.5 23.86-12.5 23.86v-45.08c-10.93 7.21-34.37 99.84-2.26 166.3-22.76-4.31-35.64-9.53-58.25-29.84-8.29-7.46-18.23-34.83-19.88-42.29-4.75-21.44 3.31-58.67 5.8-83.7.83-8.29 13.25-29 14.08-42.28s19.07-56.36 26.53-69.61 58.84-52.22 68.65-55.55 29.15-5.79 43.25-11.59 48.89-1.66 62.16 0 40.61 14.09 60.53 18.22 39.77 32.33 45.55 40.61 18.25 64.67 26.54 81.25 12.37 51.37 10.72 106.95c-1.56 52.23-77.8 88.7-85.14 88.7 21-42.89 20.39-97.54 8.4-143.19M412.22 423.47s7.16-2.19 10 0m4.92 0s4.67-2.66 8.7 0m-41.02 34.39c20 12.39 37.09 9.54 60.92 0" fill="none" stroke="#000" stroke-miterlimit="10" stroke-width="2.22"/><path d="M359.07 338.92c41 0 41 27.36 0 27.36s-40.93-27.36 0-27.36zm129.25 2.38c40.9 0 40.9 27.34 0 27.34s-40.93-27.34 0-27.34zm25.75-36.55c-1.52 7.84-.58 8-2.81-.55.94.17 1.89.35 2.81.55zm16.61 3.72c-1.06-.36-12.66-2.9-16.61-3.72 3.07-15.79 5.65-29.12 5.65-28.9a247 247 0 0110.96 32.62z" fill="none" stroke="#000" stroke-miterlimit="10" stroke-width="2.22"/></svg>