<svg xmlns="http://www.w3.org/2000/svg" viewBox="0 0 700 700"><path fill="#00a89c" d="M0 0h700v700H0z"/><path fill="none" stroke="#000" stroke-linecap="round" stroke-miterlimit="10" stroke-width="17.02" d="M580 502.16H430.9M580 447.68H430.9M580 393.21H430.9"/><path fill="none" stroke="#000" stroke-linecap="round" stroke-miterlimit="10" stroke-width="22.58" d="M636.62 338.73H374.28m262.34-54.48H374.28m262.34-54.47H374.28"/><path d="M110.35 291.7c9.32-1.86 11.15-3.34 36 3.58" fill="none" stroke="#000" stroke-miterlimit="10" stroke-width="1.44"/><path d="M245.69 486l-.11.31c0 58-151.35 58.12-151.73.22 44.36-14 32.93-66.74 33.92-68.1 24.47 18.38 59.68 18.69 84.59-.54l1.24 1.6c-.92 5.68-7.38 52.81 32.09 66.51z" fill="#f1cfb6"/><path d="M137.53 295.05c0-.07 16.05-22.05 16.24-24.41s0 20.37-2.62 23.81a21.15 21.15 0 00-3.23 5.65c1.52-1.29 11.4-9.57 12.71-10.9s-5.44 11.91-6.25 13.11 12.71-12.5 15.34-14.93-4.65 14.74-4.65 15.54 28.46-28.05 33.3-40.15c3.4-8.51 9.9-21.91 13.52-28.86 19.67 75.87 16.39 66.36 17.48 60.74 4.55 1 10.47 2.31 10.79 2.42 35 133.45-95.39 176.09-135.68 92.42-20.62-42.69-6.09-102.89 1.47-108v29.26c11.06-19.31 9.49-22.54 10.9-9.68 6.16-8.69 5.81-8.47 6.44-8.48 1.29 0 11-17.46 13.18-17.07 1.73.29-1.92 16.63-2.16 18.75-.94 8.29-1.74 7.63 3.22.78zm95.1 32.22c0-11.75-39.95-11.75-39.95 0s39.95 11.73 39.95 0zm-103.88 7.33c26.59 0 26.59-17.76 0-17.76s-26.57 17.76 0 17.76z" fill="#f1cfb6"/><path d="M146.77 296.92c-23.79-6.69-25.73-5.67-36-3.58" fill="none" stroke="#000" stroke-miterlimit="10" stroke-width="1.44"/><path d="M106 310.79v-29.26c-7.21 4.75-22.25 65-1.47 108-68.09-12.88-49.54-75.22-46.95-101.16.54-5.38 8.6-18.84 9.14-27.45s12.38-36.59 17.22-45.19 38.2-33.9 44.57-36.06 18.92-3.76 28.07-7.53 31.75-1.07 40.36 0 26.36 9.15 39.29 11.83 25.82 21 29.58 26.37S277.6 252.28 283 263s8.07 33.35 7 69.4c-1 33.95-50.53 57.6-55.3 57.6 16.88-34.44 12.52-82.22-1.66-114.13 0-.14 0-.31-3.67 18.76-2.85-.6-1.61.47-17.48-60.74-3.54 6.79-10.06 20.2-13.52 28.86-4.84 12.1-33.3 41-33.3 40.15s7.27-17.95 4.65-15.54-16.15 16.14-15.34 14.93 7.67-14.52 6.25-13.11-11.18 9.61-12.71 10.9a21.28 21.28 0 013.23-5.65c2.62-3.44 2.83-26.24 2.62-23.81-.14 1.71-10.08 16-16 24.1-5.28 7.21-4.14 5.62-1.13-20.47-18.47 21.61-8.17 17-20.6 19.35-.65-5.45 2.08-4.06-10.04 17.19z" fill="#c59b6d"/><path d="M238.92 296.26c.06.84 1.36.66-9.55-1.61 2-10.25 3.67-18.9 3.67-18.76 2.66 5.99 5.43 13.99 5.88 20.37z" fill="#f1cfb6"/><path d="M212.66 318.38c26.55 0 26.55 17.75 0 17.75 11.74 0 11.74-17.75 0-17.75z" fill="#fff"/><path d="M212.66 318.38c11.75 0 11.75 17.75 0 17.75s-11.75-17.75 0-17.75zm.8 7.26a2.22 2.22 0 00-4.43 0 2.22 2.22 0 004.43 0z"/><path d="M211.24 323.43a2.22 2.22 0 010 4.44 2.22 2.22 0 010-4.44z" fill="#fff"/><path d="M212.66 318.38c-11.75 0-11.75 17.75 0 17.75-26.58 0-26.58-17.75 0-17.75zm-83.91 16.22c11.75 0 11.75-17.76 0-17.76 26.59 0 26.59 17.76 0 17.76z" fill="#fff"/><path d="M128.75 316.84c11.75 0 11.75 17.76 0 17.76s-11.75-17.76 0-17.76zm3.64 7.27a2.23 2.23 0 00-4.45 0 2.23 2.23 0 004.45 0z"/><path d="M130.17 321.89a2.22 2.22 0 010 4.43 2.22 2.22 0 010-4.43z" fill="#fff"/><path d="M128.75 316.84c-11.74 0-11.74 17.76 0 17.76-26.57 0-26.57-17.76 0-17.76z" fill="#fff"/><path d="M122.86 292.66c-7.81 11-5.55 10.65-6.84 1a58.83 58.83 0 016.84-1z" fill="#c59b6d"/><path d="M93.85 486.33c0 58.2 151.73 58 151.73 0m-31.87-67.39c-6.27 29.91 6.2 65.53 46 70.21m-132.3-70.21c5.3 27.68-3.58 65.24-46 70.21" fill="none" stroke="#000" stroke-miterlimit="10" stroke-width="1.28"/><path d="M104.48 389.49c27.46 57 102.47 57.16 130.22.53M101.91 288c-.07.21-.14.43-.2.64M239 296.77c-.48-6.72-3.2-15-5.78-20.54M128.75 334.6c11.75 0 11.75-17.76 0-17.76s-11.75 17.76 0 17.76z" fill="none" stroke="#000" stroke-miterlimit="10" stroke-width="1.44"/><path d="M132.39 324.11a2.23 2.23 0 01-4.45 0 2.23 2.23 0 014.45 0zm-22.2-8.47c6.93-1 6.54-6.4 35.31 0m67.16 20.49c-11.75 0-11.75-17.75 0-17.75s11.75 17.75 0 17.75z" fill="none" stroke="#000" stroke-miterlimit="10" stroke-width="1.44"/><path d="M209 325.64a2.22 2.22 0 004.43 0 2.22 2.22 0 00-4.43 0zm22.21-8.47c-6.92-1-6.54-6.39-35.31 0m44.27-20.1h0z" fill="none" stroke="#000" stroke-miterlimit="10" stroke-width="1.44"/><path d="M191.51 297.87c23.79-6.68 25.73-5.66 36-3.57l-15.66-60.39c-3.54 6.79-10.06 20.2-13.52 28.86-4.84 12.1-33.3 41-33.3 40.15s7.27-17.95 4.65-15.54-16.15 16.14-15.34 14.93 7.67-14.52 6.25-13.11c-1.06 1.07-7.8 6.77-11 9.47-2 1.67-2.2 2.15-1-.32a25 25 0 012.49-3.9c2.62-3.44 2.83-26.24 2.62-23.81s-18.54 27.6-20.18 29.85l3-26.22c-4.76 5.57-15.37 20.65-19.77 26.84-1.67-15.16-.65-10.36-2.71-5.84-2.74 6-8.19 15.52-8.19 15.52v-29.26c-7.1 4.68-22.31 64.81-1.47 108-68.09-12.88-49.54-75.22-46.95-101.16.54-5.38 8.6-18.84 9.14-27.45s12.38-36.59 17.22-45.19 38.2-33.9 44.57-36.06 18.92-3.76 28.07-7.53 31.75-1.07 40.36 0 26.36 9.15 39.29 11.83 25.82 21 29.58 26.37S277.6 252.28 283 263s8.07 33.35 7 69.4c-1 33.95-50.53 57.6-55.3 57.6 13.65-27.84 13.24-63.32 5.46-92.95m-76.91 74.67s4.66-1.41 6.47 0m3.22 0s3-1.72 5.65 0M152 394.05c13 8 24.08 6.19 39.55 0" fill="none" stroke="#000" stroke-miterlimit="10" stroke-width="1.44"/><path d="M128.75 316.84c26.59 0 26.59 17.76 0 17.76s-26.57-17.76 0-17.76zm83.91 1.54c26.55 0 26.55 17.75 0 17.75s-26.58-17.75 0-17.75zm16.71-23.73c-1 5.1-.38 5.22-1.82-.35zm10.79 2.42c-.69-.23-8.22-1.88-10.79-2.42 2-10.25 3.67-18.9 3.67-18.76a161 161 0 017.12 21.18z" fill="none" stroke="#000" stroke-miterlimit="10" stroke-width="1.44"/></svg>