<svg xmlns="http://www.w3.org/2000/svg" viewBox="0 0 1400 780"><path fill="#edbbb3" d="M0 0h1400v780H0z"/><path d="M93.49 428.69c-.46-65 42.93-70.48 25.8-92.87C61.32 260 94.8 153.72 234.52 134.88c67.23-9.07 136 14.18 172.82 60 9.14 11.39 18.81 15.2 36.75 15.15 544.45-1.51 528.61 7.42 544.23-11.68 98.79-120.78 339.14-60 315.31 79.21-9.47 55.28-41.54 57.33-19.58 88.52 51.66 73.4 20 182.13-129.79 195.86-69.43 6.36-122.2-17-159.41-58-11.34-12.49-22.32-16.75-42.41-16.63-433.81 2.57-379.75-1.77-433.89-2.51-62.66-.87-96.11-.07-120.37 25.55-93.95 99.26-303.75 51.25-304.69-81.66z" fill="#9a9a9a"/><path d="M136.49 412.76c-.16-20.58 7.57-39.92 23.66-57.77 5.42-6 5.72-10.74.32-16.85-52.51-59.36-25.24-146 107.06-161.46 62.46-7.28 126.39 11.4 160.56 48.22 8.49 9.15 17.48 12.21 34.14 12.17 505.79-1.21 491.13 6 505.65-9.38 91.43-96.67 315.14-48.45 292.95 63.65-8.76 44.21-38.55 46.12-18.2 71.12 46.63 57.29 20.71 146.17-120.58 157.38-64.5 5.11-113.54-13.63-148.11-46.59-10.53-10-20.73-13.46-39.4-13.36-464.41 2.38-479.47-13.9-515 18.51-87.67 80.12-282.17 40.75-283.05-65.64z" fill="#b1b1b1"/><rect x="283.03" y="261.2" width="114.63" height="173.44" rx="40" fill="#c0854c" stroke="#000102" stroke-miterlimit="10" stroke-width="4"/><rect x="411.72" y="261.34" width="114.63" height="173.44" rx="40" fill="#c0854c" stroke="#000102" stroke-miterlimit="10" stroke-width="4"/><rect x="157.39" y="261.2" width="114.63" height="173.44" rx="40" fill="#c0854c" stroke="#000102" stroke-miterlimit="10" stroke-width="4"/><path d="M535 197c0-31.12 39.67-59.77 64.43-37.53 18.63 16.74 21.45 98.23 21.45 98.23l28.76 50.85-34.12 106.72L535 475c8.93-245.51 10.68-229.12 0-278z" fill="#f5c395" stroke="#020100" stroke-miterlimit="10" stroke-width="4"/><path d="M567.41 226.37a48.44 48.44 0 00-.88 13.87c.36 4.38 3.52 11.82 8.51 7.25 5.32-6 5.86-14.73 7-22.48 1 8.13.85 18.06-5 24.56-7.26 6.5-13-1.95-12.83-9.16a31.93 31.93 0 013.18-14z" fill="#020100"/><path d="M581.1 273.48s25.58-3.47 27.79-6 4.1-14.84 0-15.79-9.47.95-9.79 5.37c-.65 9.03 4.54 9.07-18 16.42z" fill="#070000"/><path d="M661.71 620.78l-29 8.91c17.87-50.15.52-96-42.57-138.56l29-8.9c36.94 36.91 53.17 82.27 42.57 138.55zm174.62-4.73l-29 8.9c17.87-50.15-26.14-122.61-69.23-165.22l24-13.89c36.95 36.91 84.83 113.92 74.23 170.21z" fill="#f2c491" stroke="#000" stroke-miterlimit="10" stroke-width="4"/><path d="M717.85 629.69c0 23-95.7 23-95.7 0s95.7-22.97 95.7 0zm167.83 0c0 23-95.7 23-95.7 0s95.7-22.97 95.7 0z" fill="#8f8074" stroke="#000" stroke-miterlimit="10" stroke-width="2.57"/><path d="M548.51 499c88-4.69 173.1-19.08 254.72-45.66a19 19 0 009.68-28.8c-32.8-48.3-96.33-93.13-167.07-137.14-18.47 98.81-54.78 157.6-109.9 174.29v25.37A11.93 11.93 0 00548.51 499z" fill="#cd9357" stroke="#020100" stroke-miterlimit="10" stroke-width="4"/><path d="M627.54 248.22c23.3 19.32 54.09 64.42 51.14 77s-79.62 9.66-131.37 12.63c0 19.53-26.53 35.37-42.95 32.85s-32.84-51.37-9.26-54.32 35.79 2.62 35.79 2.62c-12.92-21.91 7.75-27.09 15.16.84 26.89 1.58 91.79-.42 94.31-8.42 2.45-7.76-13.75-43.15-23.53-61.5-1.55-2.92 4.44-5.92 10.71-1.7z" fill="#f5c395" stroke="#000" stroke-miterlimit="10" stroke-width="4"/><path d="M566.89 203.69a8.59 8.59 0 01-8.9-8.84c0-5.8 4.48-8.83 8.9-8.83a8.84 8.84 0 110 17.67z" fill="#fffdfb"/><path d="M566.89 187c3.94 0 7.89 2.61 7.89 7.83s-3.95 7.83-7.89 7.83-7.9-2.61-7.9-7.83 4-7.83 7.9-7.83m0-2c-4.92 0-9.9 3.38-9.9 9.83s5 9.83 9.9 9.83 9.89-3.37 9.89-9.83-5-9.83-9.89-9.83z"/><path d="M584.34 200.51c-5.24 0-10.56-3.6-10.56-10.48s5.32-10.49 10.56-10.49 10.57 3.6 10.57 10.49-5.32 10.48-10.57 10.48z" fill="#fffdfb"/><path d="M584.34 180.54c4.79 0 9.57 3.16 9.57 9.49s-4.78 9.48-9.57 9.48-9.56-3.16-9.56-9.48 4.78-9.49 9.56-9.49m0-2c-5.74 0-11.56 3.94-11.56 11.49s5.82 11.48 11.56 11.48 11.57-3.94 11.57-11.48-5.82-11.49-11.57-11.49z"/><path d="M573.2 194.85c0-3.76-5.68-3.76-5.68 0s5.68 3.76 5.68 0zm7.9-2.85c0-3.76-5.69-3.76-5.69 0s5.69 3.77 5.69 0z" fill="#050506"/><path d="M608.89 259.7c0 7.74-7 7.74-7 0s7-7.7 7 0z" fill="#edbbb3"/><path d="M926.55 452.66C895.06 393 896 319 929.25 243.51a4.15 4.15 0 00-3.79-5.82c-44.3-.3-43.08-1.23-44.52 2.31-46 113.66-5.64 219.46 3.81 219.32l38.18-.55a4.16 4.16 0 003.62-6.11z" fill="#fff"/><path d="M939.71 452.66C908.22 393 909.12 319 942.42 243.51a4.16 4.16 0 00-3.8-5.82c-44.3-.3-43.08-1.23-44.52 2.31-46 113.66-5.64 219.46 3.81 219.32l38.18-.55a4.16 4.16 0 003.62-6.11z" fill="#e2e2e2"/></svg>