<svg xmlns="http://www.w3.org/2000/svg" viewBox="0 0 700 700"><path fill="#edbbb3" d="M0 0h700v700H0z"/><path d="M306.32 235.55c-12.53 0-19.29-2.93-25.68-11.8-25.7-35.7-73.79-53.8-120.78-46.74-97.65 14.68-121 97.48-80.53 156.51 12 17.43-18.36 21.7-18 72.33.67 103.52 147.25 140.91 212.91 63.63 17-20 40.34-20.58 84.13-19.91 37.64.58 42.28 3.93 340.67 2v-22.8c-2.44-.3-47-.43-49.94-.42-324.57 1.87-335.1-10.9-359.9 14.52C227.9 505.7 92 474.83 91.35 391.38c-.11-15.19 4.67-29.52 14.6-42.82V330c-33.73-46.44-13.61-111.92 77-123.78 43.65-5.72 88.34 8.93 112.22 37.82 5.93 7.18 12.21 9.58 23.85 9.54 243.22-.65 356.09 1.81 380-.51v-17.3c-36.02 1.28-165.38-.92-392.7-.22z" fill="#9a9a9a"/><path d="M319 253.57c-11.64 0-17.92-2.36-23.85-9.54-23.88-28.89-68.57-43.54-112.22-37.82C92.34 218.07 72.22 283.55 106 330v-33.3a31.65 31.65 0 0131.55-31.55h17a31.65 31.65 0 0131.55 31.55v91.25a31.65 31.65 0 01-31.55 31.55h-17A31.65 31.65 0 01106 387.94v-39.38c-9.93 13.3-14.71 27.63-14.6 42.82.6 83.45 136.5 114.32 197.8 51.48 24.8-25.42 35.33-12.65 359.9-14.52 3 0 47.5.12 49.94.42v-175.7c-23.95 2.32-136.82-.14-380.04.51zm-45.12 134.37a31.65 31.65 0 01-31.55 31.55h-17a31.65 31.65 0 01-31.55-31.55v-91.25a31.65 31.65 0 0131.55-31.55h17a31.65 31.65 0 0131.55 31.55zm89.93.13a31.63 31.63 0 01-31.54 31.54h-17a31.63 31.63 0 01-31.54-31.54v-91.26a31.63 31.63 0 0131.54-31.54h17a31.63 31.63 0 0131.54 31.54z" fill="#b1b1b1"/><rect x="193.76" y="265.14" width="80.11" height="154.35" rx="31.55" fill="#c0854c" stroke="#020100" stroke-miterlimit="10" stroke-width="2.63"/><rect x="283.7" y="265.27" width="80.11" height="154.35" rx="31.55" fill="#c0854c" stroke="#020100" stroke-miterlimit="10" stroke-width="2.63"/><path d="M137.5 419.49h17a31.65 31.65 0 0031.55-31.55v-91.25a31.65 31.65 0 00-31.55-31.55h-17a31.65 31.65 0 00-31.5 31.55v91.25a31.65 31.65 0 0031.5 31.55z" fill="#c0854c" stroke="#020100" stroke-miterlimit="10" stroke-width="2.63"/><path d="M372.28 199.17c0-23.21 29.58-44.57 48.05-28 13.89 12.49 16 73.26 16 73.26l21.44 37.93L432.34 362l-60.06 44.51c6.72-183.11 7.97-170.89 0-207.34z" fill="#f5c395" stroke="#020100" stroke-miterlimit="10" stroke-width="2.98"/><path d="M396.45 221.07c-.79 5-1.67 10.46.78 14.94.71 1.15 1.8 2.15 3.17 1.8 5.34-2 6.23-12.68 7-17.76.83 6.08.58 17.57-6.49 19.92-2.25.58-4.5-1-5.45-2.91-2.56-5.11-1.14-11.14 1-16z" fill="#020100"/><path d="M406.67 256.2s19.07-2.59 20.72-4.47 3.06-11.07 0-11.78-7.06.71-7.3 4c-.48 6.74 3.39 6.77-13.42 12.25z" fill="#070000"/><path d="M466.79 515.22l-21.61 6.64c13.32-37.4.39-71.55-31.75-103.33l21.57-6.64c27.59 27.53 39.69 61.35 31.79 103.33zM597 511.69l-21.61 6.64c13.32-37.4-19.5-91.44-51.64-123.22l17.9-10.36c27.56 27.53 63.27 84.96 55.35 126.94z" fill="#f2c491" stroke="#000" stroke-miterlimit="10" stroke-width="2.98"/><path d="M508.66 521.86c0 17.13-71.38 17.13-71.38 0s71.38-17.13 71.38 0zm125.16 0c0 17.13-71.37 17.13-71.37 0s71.37-17.13 71.37 0z" fill="#8f8074" stroke="#000" stroke-miterlimit="10" stroke-width="1.92"/><path d="M382.36 424.38c65.6-3.5 129.1-14.23 190-34.05a14.17 14.17 0 007.22-21.48c-24.46-36-71.85-69.45-124.6-102.28-13.78 73.71-40.86 117.58-82 130v18.92a8.9 8.9 0 009.38 8.89z" fill="#cd9357" stroke="#020100" stroke-miterlimit="10" stroke-width="2.98"/><path d="M441.3 237.36c17.38 14.41 40.34 48.05 38.14 57.47s-59.38 7.2-98 9.42c0 14.56-19.79 26.38-32 24.49s-24.5-38.31-6.91-40.51 26.69 1.89 26.69 1.89c-9.64-16.34 5.78-20.2 11.3.63 20.06 1.18 68.46-.32 70.35-6.28 1.82-5.79-10.26-32.18-17.55-45.87-1.16-2.17 3.31-4.39 7.98-1.24z" fill="#f5c395" stroke="#000" stroke-miterlimit="10" stroke-width="2.98"/><path d="M396.07 204.15a6.59 6.59 0 116.63-6.59 6.4 6.4 0 01-6.63 6.59z" fill="#fffdfb"/><path d="M396.07 191.72a5.84 5.84 0 11-5.89 5.84 5.63 5.63 0 015.89-5.84m0-1.49a7.33 7.33 0 107.38 7.33 7.12 7.12 0 00-7.38-7.33z"/><path d="M409.09 201.78A7.82 7.82 0 11417 194a7.6 7.6 0 01-7.91 7.78z" fill="#fffdfb"/><path d="M409.09 186.89A7.08 7.08 0 11402 194a6.82 6.82 0 017.14-7.07m0-1.5a8.57 8.57 0 108.62 8.57 8.33 8.33 0 00-8.62-8.57z"/><path d="M400.78 197.56a2.12 2.12 0 00-4.24 0 2.12 2.12 0 004.24 0zm5.89-2.12a2.12 2.12 0 00-4.24 0 2.12 2.12 0 004.24 0z" fill="#050506"/><path d="M427.39 245.93c0 5.77-5.24 5.77-5.24 0s5.24-5.78 5.24 0z" fill="#edbbb3"/></svg>