<svg xmlns="http://www.w3.org/2000/svg" viewBox="0 0 1400 780"><path fill="#fff" stroke="#000" stroke-miterlimit="10" stroke-width="6.2" d="M908.9 196.62h96.01v421.27H908.9z"/><path fill="#fff" stroke="#000" stroke-miterlimit="10" stroke-width="5.57" d="M579.72 278.38h96.01v339.5h-96.01z"/><path d="M483.71 448.14h96.01v169.75h-96.01zm329.18-135.92h96.01v305.67h-96.01z"/><path fill="none" stroke="#000" stroke-miterlimit="10" stroke-width="7.76" d="M407.29 98.65v519.24h670.96M392.27 102.57h11.76m-11.76 69.55h11.76m-11.76 74.95h11.76m-11.76 74.95h11.76m-11.76 73.48h11.76"/><path fill="none" stroke="#000" stroke-miterlimit="10" stroke-width="5.48" d="M392.27 468.97h11.76"/><path fill="none" stroke="#000" stroke-miterlimit="10" stroke-width="7.76" d="M392.27 542.45h11.76m-11.76 75.44h11.76m340.61 16.65v-11.75m330.15 11.75v-11.75m-667.5 11.75v-11.75"/><path d="M332.64 96.91h-6.42v-4.36a16 16 0 004.21-.44 5.3 5.3 0 002.57-1.48 8.94 8.94 0 001.68-3h4.13v39.09h-6.14zm13.74 23.9h5.92v5.92h-5.92zm20.77-1.17h-11.73v-5.59l11.17-26.41h6.7v26.41h2.91v5.59h-2.91v7.09h-6.14zm0-5.59V98.81H367l-6 15.24zm-34.51 57.32h-6.42V167a15.93 15.93 0 004.21-.45 5.22 5.22 0 002.54-1.48 8.78 8.78 0 001.68-3h4.13v39.09h-6.14zm13.74 23.9h5.92v5.92h-5.92zm10.38 1.67a17.48 17.48 0 011.34-7.17 25 25 0 014.81-6.62 29.08 29.08 0 004.71-6.2 11.57 11.57 0 001.32-5.36 5.62 5.62 0 00-.81-3.49 2.93 2.93 0 00-2.38-1q-3.18 0-3.18 3.86v4.18h-5.81v-3.79q0-4.76 2.35-7.29t6.81-2.54q4.47 0 6.81 2.54t2.35 7.29a15.51 15.51 0 01-1.7 7 34.63 34.63 0 01-5.9 7.82 23.54 23.54 0 00-3.68 4.71 8.32 8.32 0 00-.95 3.89v.83h11.67v5.59h-17.76zm8.71 48.88h-6.42v-4.35a16 16 0 004.22-.45 5.3 5.3 0 002.54-1.48 9 9 0 001.67-3h4.14v39.09h-6.15zM326 348.09q-2.4-2.56-2.4-7.26v-20.55q0-4.69 2.4-7.26t6.93-2.57q4.51 0 6.92 2.57t2.4 7.26v20.55q0 4.69-2.4 7.26t-6.92 2.57q-4.54 0-6.93-2.57zm10.11-6.87v-21.33q0-3.86-3.18-3.85t-3.18 3.85v21.33q0 3.86 3.18 3.86t3.17-3.86zm10.27 2.96h5.92v5.92h-5.92zm12.25 3.99q-2.47-2.48-2.48-7.17v-3.46a11.16 11.16 0 011-4.89 6.77 6.77 0 013.07-3.1v-.11a6.68 6.68 0 01-2.88-2.93 10.89 10.89 0 01-.92-4.78v-1.62q0-4.68 2.43-7.17t6.95-2.49q4.53 0 7 2.49c1.62 1.66 2.42 4.05 2.42 7.17v1.62q0 5.59-3.79 7.71v.11a6.82 6.82 0 013.07 3.1 11.31 11.31 0 01.95 4.89V341q0 4.69-2.49 7.17c-1.65 1.66-4 2.49-7.12 2.49s-5.55-.83-7.21-2.49zm10.59-7.51v-3.74q0-4.41-3.47-4.41t-3.46 4.41v3.74q0 4.43 3.46 4.42t3.47-4.42zM369 323v-3q0-3.92-3.24-3.91t-3.25 3.91v3c0 2.6 1.08 3.91 3.24 3.91S369 325.62 369 323zm-43 99.55q-2.4-2.57-2.4-7.26v-20.55q0-4.69 2.4-7.26t6.93-2.57q4.51 0 6.92 2.57t2.4 7.26v20.55q0 4.69-2.4 7.26t-6.92 2.57q-4.54 0-6.93-2.57zm10.11-6.87v-21.33q0-3.86-3.18-3.86t-3.18 3.86v21.33q0 3.85 3.18 3.85t3.17-3.85zm10.27 2.96h5.92v5.92h-5.92zm12.62 3.91c-1.6-1.71-2.41-4.13-2.41-7.26v-20.22q0-10.15 9.39-10.16c3 0 5.25.85 6.81 2.54s2.34 4.12 2.34 7.29v.72h-5.8v-1.11q0-3.86-3.19-3.86a3.07 3.07 0 00-2.56 1.06 6.24 6.24 0 00-.84 3.75v7.48h.11a5.7 5.7 0 015.58-3.41 6 6 0 015.09 2.29c1.15 1.53 1.73 3.74 1.73 6.65v7q0 4.69-2.4 7.26c-1.61 1.71-3.91 2.57-6.93 2.57s-5.32-.88-6.92-2.59zm10.1-6.81v-6.93q0-3.85-3.18-3.85t-3.18 3.85v6.93q0 3.79 3.18 3.79t3.18-3.79zM326 497q-2.4-2.56-2.4-7.25V469.2q0-4.69 2.4-7.26c1.6-1.72 3.91-2.57 6.93-2.57s5.32.85 6.92 2.57 2.4 4.13 2.4 7.26v20.55q0 4.68-2.4 7.25c-1.6 1.72-3.91 2.57-6.92 2.57s-5.34-.85-6.93-2.57zm10.11-6.86V468.8c0-2.56-1.06-3.85-3.18-3.85s-3.18 1.29-3.18 3.85v21.34q0 3.86 3.18 3.85t3.17-3.85zm10.27 2.96h5.92v5.9h-5.92zm20.77-1.18h-11.73v-5.58l11.17-26.41h6.7v26.41h2.91v5.58h-2.91V499h-6.14zm0-5.58v-15.25H367l-6 15.25zM326 571.46q-2.4-2.57-2.4-7.26v-20.55q0-4.68 2.4-7.26t6.93-2.56q4.51 0 6.92 2.56t2.4 7.26v20.55q0 4.69-2.4 7.26c-1.6 1.72-3.91 2.57-6.92 2.57s-5.34-.85-6.93-2.57zm10.11-6.87v-21.33q0-3.85-3.18-3.85t-3.18 3.85v21.33q0 3.85 3.18 3.86t3.17-3.86zm10.27 2.96h5.92v5.92h-5.92zm10.38 1.68a17.56 17.56 0 011.34-7.18 25 25 0 014.81-6.61 29.08 29.08 0 004.71-6.2 11.57 11.57 0 001.32-5.36 5.6 5.6 0 00-.81-3.49 2.93 2.93 0 00-2.38-1q-3.18 0-3.18 3.85v4.19h-5.81v-3.8q0-4.74 2.35-7.28c1.56-1.7 3.83-2.54 6.81-2.54s5.25.84 6.81 2.54 2.35 4.12 2.35 7.28a15.48 15.48 0 01-1.7 7 34.19 34.19 0 01-5.9 7.82 23.83 23.83 0 00-3.68 4.72 8.28 8.28 0 00-.95 3.88v.84h11.67v5.58h-17.76zm2.07 76.69q-2.4-2.56-2.4-7.26v-20.55q0-4.7 2.4-7.26t6.92-2.57q4.53 0 6.93 2.57t2.4 7.26v20.55q0 4.7-2.4 7.26t-6.93 2.57q-4.51 0-6.92-2.57zm10.11-6.87v-21.33q0-3.86-3.19-3.85t-3.18 3.85v21.33q0 3.86 3.18 3.86t3.19-3.86zm190.94 33.88l-7.43-22.45H559l4.19 14.35h.11l4.19-14.35h6L566 672.93v16.64h-6.14zm16.36-22.45h9.1q4.74 0 6.93 2.2t2.17 6.79v2.4q0 6.09-4 7.71v.11a4.81 4.81 0 013.16 2.73 13.9 13.9 0 01.92 5.53v6.87c0 1.12 0 2 .11 2.71a6.9 6.9 0 00.56 2h-6.25a8.23 8.23 0 01-.45-1.79 25.61 25.61 0 01-.11-3v-7.15a6 6 0 00-.87-3.74 3.65 3.65 0 00-3-1.06h-2.12v16.75h-6.14zm8.38 16.75a3.66 3.66 0 002.76-1 4.49 4.49 0 00.92-3.18v-3a5 5 0 00-.75-3.07 2.88 2.88 0 00-2.38-1h-2.79v11.17zm31.66-7.48h-6.42v-4.36a16.48 16.48 0 004.21-.44 5.3 5.3 0 002.54-1.48 9.12 9.12 0 001.68-3h4.13v39.09h-6.14zm272.77 13.18l-7.43-22.45h6.54l4.19 14.35h.11l4.19-14.35h6l-7.43 22.45v16.64h-6.14zm16.36-22.45h9.11q4.74 0 6.92 2.2t2.18 6.79v2.4q0 6.09-4 7.71v.11a4.77 4.77 0 013.15 2.73 13.72 13.72 0 01.92 5.53v6.87a24.47 24.47 0 00.12 2.71 6.88 6.88 0 00.55 2h-6.25a9.57 9.57 0 01-.45-1.79 28.1 28.1 0 01-.11-3v-7.15a6.09 6.09 0 00-.86-3.74 3.67 3.67 0 00-3-1.06h-2.12v16.75h-6.15zm8.38 16.75a3.64 3.64 0 002.76-1 4.44 4.44 0 00.93-3.18v-3a5 5 0 00-.76-3.07 2.85 2.85 0 00-2.37-1h-2.79v11.17zm22.95 18.09a17.48 17.48 0 011.34-7.17 24.72 24.72 0 014.8-6.62 29.18 29.18 0 004.72-6.2 11.56 11.56 0 001.31-5.36 5.62 5.62 0 00-.81-3.49 2.91 2.91 0 00-2.37-1q-3.18 0-3.18 3.86v4.19h-5.81v-3.8c0-3.17.78-5.59 2.35-7.29s3.83-2.54 6.81-2.54 5.25.85 6.81 2.54 2.35 4.12 2.35 7.29a15.4 15.4 0 01-1.71 7 34.32 34.32 0 01-5.89 7.82 23.54 23.54 0 00-3.68 4.72 8.16 8.16 0 00-.95 3.88v.85h11.67v5.59h-17.76z"/></svg>