<svg xmlns="http://www.w3.org/2000/svg" viewBox="0 0 700 700"><path fill="#fcfbf9" d="M0 0h700v700H0z"/><path d="M222.24 130c-11.44-18.16-33.58-26.84-35.17-31.93-.4-1.29.42-3 1.77-3a35.57 35.57 0 0013 5.07c2.93.52 3.91-.65 3.45-3.59-1.48-9.49-12.91-49.65 7-10.26 3.12-26.47 2.69-26.65 4.57-27.51C223 56 220.43 75.54 220 87.35c3.1-8.44 1.45-24.35 2.64-26.55s3.41-2.29 4.19.66.84 41.95 6.54 19.82c.67-2.59 3.12-5.47 5.52-4.28a121.8 121.8 0 00-3.13 22.33c-.65 13.73-2.72 7.83 62.89 65.12-1.58-1.37-22.31 5.78-23.35 7.24-3.77 5.29-10.37 11.15-13 16.91-7.05-4.94-42.18-61.96-40.06-58.6z" fill="#ffcf9f" stroke="#050300" stroke-miterlimit="10" stroke-width=".62"/><path d="M292.83 152.45c-.37-9-29.21-18.6-27.14-10.46.42 1.66 8.17 7.84 12.75 9.6 9.89 3.77 9.9 7 12.29 6 1.43-.67 2.1-3.78 2.1-5.14z" fill="#d66873" stroke="#050300" stroke-miterlimit="10" stroke-width=".62"/><path d="M252.51 178.34c5 2.18 1.82-9.5 13.06-16.51 14.63-9.14 33.72-3.65 6-20.66-2.33-1.43-4.22-2.18-8.57.62-9.29 5.97-27.65 29.14-10.49 36.55z" fill="#bebebe" stroke="#050100" stroke-miterlimit="10" stroke-width=".62"/><path d="M479.09 415.68l-4.65-85.34 35.28 1.74a10.24 10.24 0 003.15-8.36c-.66-5-31-55.2-39.87-64.82s-49.33-21-49.33-21l-81.79-10.84c-18.23-76.23-13.35-63-23-74.88-40.51 6.88-60.34 27.22-61.62 59.63 0 0 29.2 36.26 35.59 49.81s3.25 79.63-3.42 89-24.55 21.51-23.89 31.28l8 33.14 93.22 18.35z" fill="#918bad" stroke="#020200" stroke-miterlimit="10" stroke-width=".62"/><path d="M402.31 266.15c-45.13 12.8-93.23-3.73-65.78-40.14z" fill="#ffcc9a" stroke="#020000" stroke-miterlimit="10" stroke-width=".62"/><path d="M479.09 415.68l-53.41-85.34-64.41 91.58c-41.09 3.86-73.55-7-93.07-40-42.32-13.84-75.73-16.65-96.95-4.33l82.51 101.66 60.39 19.2c42.28-12.53 10.09 2.55 164.94-82.77z" fill="#534828"/><path d="M230 422c-27-40-24.55-29.5-30.71-37-9.83 12.56-21.26 24.52-35.88 30.9s-9.47 6.26-17.3 13.68c-1.46 1.37-3.15 2.56-4.12 4.32s-.85 4.33.87 5.34c20.49-16.53 50.95-1.82 69.69 2.73 1.63.39 26.17 5.7 28 3.63C243 443 232.29 425.34 230 422z" fill="#bebebe" stroke="#000" stroke-miterlimit="10" stroke-width=".62"/><path d="M252.9 473.89c-3.33-22-9.44-28.74-25.76-36.08-62.49-28.12-94.09-10-79.58 14.95 28.5 49 33.69 59.19 44.1 70.14 27.11 28.54 57.9 16.57 63.37 2.35 5.15-13.39-.03-37.54-2.13-51.36z" fill="#ffcc9a" stroke="#000" stroke-miterlimit="10" stroke-width=".62"/><path d="M189 517.25l17 18.55 16.38-8.21A145.33 145.33 0 00189 517.25z" fill="#534828" stroke="#020500" stroke-miterlimit="10" stroke-width=".62"/><path d="M118.55 575s-14-48.76 26.53-57.4c24.32-5.17 36.7-3.39 42.71-1.14 5.09 1.91 3.94 1.6 17 18.55-30.73 16.58-60.01 30.78-86.24 39.99z" fill="#dad0d1" stroke="#020500" stroke-miterlimit="10" stroke-width=".62"/><path d="M448.79 433.1s-8.9-55.74-12.83-63.59-29-22.51-29-22.51c-30.11-10.57-73.26 9.17-56.06 46.6l17.38 30.87c26.34-4.24 50.1-1 70.71 11.49z" fill="#ffcc9a" stroke="#020500" stroke-miterlimit="10" stroke-width=".62"/><path d="M509.72 340.78c7.52 2.35 13.95 5.3 17.09 13.75a48.6 48.6 0 013.19 15.31c-18.9-20.26-14.59-13.73-20.28-29.06z" fill="#a95a56" stroke="#060a00" stroke-miterlimit="10" stroke-width=".62"/><path d="M556.26 418.39L508 328.8c-22.9-15.58-39-8.45-49.49 17.68l24.35 71.91z" fill="#ffc897" stroke="#060a00" stroke-miterlimit="10" stroke-width=".62"/><path d="M552.45 410.27c-3.7-6.89-11.57-5.17-10.84-3.09.49 1.4 5.35 2.87 7.25 4.07 3.37 2.13 3.32 4 4.24 3.82 1.41-.35-.37-4.27-.65-4.8z" fill="#f5cd92" stroke="#060a00" stroke-miterlimit="10" stroke-width=".62"/><path d="M565.91 429.64c-16.56-26.37-40.38-33.09-69.73-24.84-141.88 74.48-214.7 109.52-365.24 140.06C113.2 552 107.2 566 110 588.2z" fill="#918356" stroke="#020000" stroke-miterlimit="10" stroke-width=".62"/><path d="M159.22 642.64c69.63 2.93 148-16 232.69-51.1 105.73-34.9 216.08-70.71 185-137.85-7.22-30.42-27.41-41.55-52.9-44.77-81.52 7.32-103.35 75.15-347.09 135.94-48.9 3.26-73.8 17.66-66 47.26 9.73 29.63 26.52 45.09 48.3 50.52z" fill="#3a8a7d" stroke="#020000" stroke-miterlimit="10" stroke-width=".62"/><path d="M233.05 640.23c0-25.81-43.2-15.54-43.2 6.88 0 21.05 43.2 15.83 43.2-6.88z" fill="#c0546e" stroke="#020000" stroke-miterlimit="10" stroke-width=".62"/><path d="M220 639.46c0-11.6-19.41-7-19.41 3.09 0 9.45 19.41 7.12 19.41-3.09z" fill="#822337" stroke="#020000" stroke-miterlimit="10" stroke-width=".62"/><path d="M197.9 595.07l26.71-11.8s3.14.61 4.51 4.93c5.56 17.48 10.55 11.57-9.12 27-18.35-7.08-14.43-2.57-22.1-20.13z" fill="#676b6a" stroke="#020000" stroke-miterlimit="10" stroke-width=".62"/><path d="M186.32 595.07l17.87 47.32c6.43 2.83 10.57 1.78 12-3.92l-5.49-14.53c15.34-7.55 19.35-33.18-8.25-22.19l-5.7-13.55z" fill="#a7abaa" stroke="#020000" stroke-miterlimit="10" stroke-width=".62"/><path d="M207.13 575c0-25.81-43.2-15.55-43.2 6.87 0 21.13 43.2 15.88 43.2-6.87z" fill="#c0546e" stroke="#020000" stroke-miterlimit="10" stroke-width=".62"/><path d="M194.08 574.27c0-11.6-19.41-7-19.41 3.09 0 9.46 19.41 7.12 19.41-3.09z" fill="#822337" stroke="#020000" stroke-miterlimit="10" stroke-width=".62"/><path d="M540.41 531.73c-2.91-32.39-56-14.63-53.43 13.5 2.37 26.43 56.02 15 53.43-13.5z" fill="#c0546e" stroke="#020000" stroke-miterlimit="10" stroke-width=".78"/><path d="M524 532.24c-1.31-14.56-25.15-6.58-24 6.07 1 11.87 25.1 6.74 24-6.07z" fill="#822337" stroke="#020000" stroke-miterlimit="10" stroke-width=".78"/><path d="M439.82 503.57s-2.75 2.94 1.57 9.81c11 17.5 7.14 19.75 31.22 11.39l6.48-31.22-7.46-9c-2.81 2.77.37.59-31.81 19.02z" fill="#686c6b" stroke="#020000" stroke-miterlimit="10" stroke-width=".62"/><path d="M480.07 470.77l36.53 56.36c1.4 10.87-3.36 13.87-13.16 10.41l-10.6-16.89c-27.7 14.89-45.87-11.33-17.09-26.12l-9.23-16.1z" fill="#a9adac" stroke="#020000" stroke-miterlimit="10" stroke-width=".62"/><path d="M490.53 453.19c-2.91-32.39-56-14.64-53.43 13.5 2.38 26.42 56 14.99 53.43-13.5z" fill="#c0546e" stroke="#020000" stroke-miterlimit="10" stroke-width=".78"/><path d="M474.07 453.7c-1.31-14.56-25.15-6.58-24 6.06 1.05 11.88 25.15 6.74 24-6.06z" fill="#822337" stroke="#020000" stroke-miterlimit="10" stroke-width=".78"/><path d="M475.75 205.36c-1.14 17.46-9.38 27.12-23.56 30.25-7.3 29.88-51.21 35.72-80.44 27.08-14.34-4.23-9.62-8-30.57-27.08s-13.41-46-13.41-46c-6.84-15.14-8.84-27.65-.47-34.55L366.72 103l70.28 6.53 43.46 34.56c2.83 46.39 4.19 32.82-4.71 61.27z" fill="#ffcc9a" stroke="#020000" stroke-miterlimit="10" stroke-width=".62"/><path d="M389.39 195.28c.9-3.32 7-6.4 10.76-4.72s5.52 7.22 3 10.43c-.67-6.18-5.74-8.66-13.76-5.71z" fill="#01040b"/><path d="M372 135.31c-2.11-6.14 9.19-9.69 12.92-10s13.7 4.78 13.51 12.09c-6-7.8-17.49-11.4-26.43-2.09z" fill="#01040b" stroke="#020000" stroke-miterlimit="10" stroke-width=".62"/><path d="M432.3 210.23c1.35-5 16.62.08 12.53 5.21-1.34-4.79-5.64-7.29-12.53-5.21zm-72.73-27.47c2.73-4.38-11.36-12.13-12.34-5.65 4.42-2.27 9.18-.81 12.34 5.65zm18.75 74.92c-1.62 3-11.15-2.56-7.71-5.14.23 3.2 2.79 5.4 7.71 5.14z" fill="#01040b"/><path d="M435.65 151.29c1.41-6.34 12.91-3.46 16.26-1.79s9.18 11.24 5.19 17.37c-1.05-9.77-8.98-18.82-21.45-15.58z" fill="#01040b" stroke="#020000" stroke-miterlimit="10" stroke-width=".62"/><path d="M380.3 186.83c26.89-36.2-15.73-62.85-26.19-11.42z" fill="#fff" stroke="#020000" stroke-miterlimit="10" stroke-width=".62"/><path d="M372.34 174.55c3.07-9.65 12.8-6.56 9.73 3.1s-12.81 6.56-9.73-3.1z" fill="#000002" stroke="#020000" stroke-miterlimit="10" stroke-width=".62"/><path d="M375.71 173c1.86-4.33 6.22-2.46 4.36 1.88s-6.22 2.46-4.36-1.88z" fill="#fff" stroke="#020000" stroke-miterlimit="10" stroke-width=".62"/><path d="M354.11 175.41c6.95-24.68 17.29-34.21 32.65-21.35-13.12-17.73-29.76.29-32.65 21.35z" fill="#01040b" stroke="#020000" stroke-miterlimit="10" stroke-width=".62"/><path d="M413.7 199.2c5.22-44.79 54.51-35 26.91 9.63z" fill="#fff" stroke="#020000" stroke-miterlimit="10" stroke-width=".62"/><path d="M427.91 195.72c4.38-9.14-4.83-13.56-9.21-4.42s4.83 13.56 9.21 4.42z" fill="#000002" stroke="#020000" stroke-miterlimit="10" stroke-width=".62"/><path d="M426.52 192.28c1.61-4.43-2.85-6.06-4.46-1.63s2.85 6.06 4.46 1.63z" fill="#fff" stroke="#020000" stroke-miterlimit="10" stroke-width=".62"/><path d="M440.61 208.83c11.84-22.74 10.84-36.77-9.16-37.93 21.7-3.9 21.46 20.59 9.16 37.93z" fill="#01040b" stroke="#020000" stroke-miterlimit="10" stroke-width=".62"/><path d="M371.75 206.86c-8.18 17.31-7.2 30.64 9 35.54s29.94-1.81 33.88-19.63z" fill="#6e1a00" stroke="#020000" stroke-miterlimit="10" stroke-width=".62"/><path d="M413.7 226a147 147 0 01-43.59-15.51l1.64-3.54 42.74 15.42z" fill="#f9f7fa" stroke="#020000" stroke-miterlimit="10" stroke-width=".62"/><path d="M398.19 243.29c.06-8.25-3.43-13-12.08-12.57-4.7-5.15-10.19-4.91-16.78 2.85 7.31 8.89 17.02 11.93 28.86 9.72z" fill="#ba1e05" stroke="#020000" stroke-miterlimit="10" stroke-width=".62"/><path d="M472.17 205.1c-26.31 37.57-23.48 37.23-10 3.73l5.46-10.28c8.18 5.34 7.57 3.75 4.54 6.55zm-144.87-9.34c10.68-22.45 13.18-34.41 12.83-57.17-12.56 16.76-8.74 3.66-12.83 57.17z" fill="#abd1d4" stroke="#020000" stroke-miterlimit="10" stroke-width=".62"/><path d="M494.34 182.76c-4.14 8.61-10.28 17.1-18.59 25.48L462.92 197c9.22-13.48 15-26.31 15.71-38.23-21.83 13.32-3 6.21-7.33-19.89l-70.43-36.92s-36.87 12.35-44.24 23.32-7.41 20.38-7.41 20.38c-3.2.06-5.52-1.56-6-6.8-13.39 16.43-10 13.44-16 16.23-1.21-7-1.38-16.14-1-26.44L364 98.27l91.63-2.09c38.61 61.45 30.47 42.03 38.71 86.58z" fill="#942200" stroke="#020000" stroke-miterlimit="10" stroke-width=".62"/><path d="M315.52 127.34c17.54-62.27 50.42-89.71 97.4-87.62 64.13 2.85 136 54.9 92.68 145.74 0 0-18.85 1.57-21.21-9.43s-.78-22.77-.78-22.77c-33.89-29.86-75.9-45.5-129.6-40.67 0 0-10.21 17.89-18.07 20.24s-20.42-5.49-20.42-5.49z" fill="#594e5f" stroke="#020000" stroke-miterlimit="10" stroke-width=".62"/><path d="M515.42 340.59c-4.25-6.85-46.28 13.16-51.6 19.24-2.87 3.27 3 17.77 5.26 16.1 17.41-18.68 36.73-26.3 55-17.67-1.61-6.67-3.08-12.59-8.66-17.67z" fill="#bebebe" stroke="#060a00" stroke-miterlimit="10" stroke-width=".62"/><path d="M337.69 482.68s-14.05-48.76 26.53-57.4c24.32-5.17 36.7-3.4 42.71-1.14 5.09 1.91 3.94 1.6 17 18.55-30.73 16.61-60.01 30.81-86.24 39.99z" fill="#dad0d1" stroke="#020500" stroke-miterlimit="10" stroke-width=".62"/><path fill="#534828" stroke="#020500" stroke-miterlimit="10" stroke-width=".62" d="M440.31 434.49l-16.38 8.2-17-18.55"/><path d="M342.27 323.58c13.86-15.71 53.53-18.93 66.7-11.28 12.9 7.48 15.13 24.44 8.52 29.78s-30.49 1-51.73 5.45c-9.26 1.92-14.12 5-18.43 14.23a49.66 49.66 0 00-4.65 20.12c-17.68 2.12-17.34-39.13-.41-58.3z" fill="#d0696c" stroke="#0d0b00" stroke-miterlimit="10" stroke-width=".62"/><path d="M419.68 323.72c-2.24 13.13-1.49 14.57-7.52 14.54-37.26-.2-73.07-5.9-71.14 39.42.25 5.77 1.61 12 7.31 13-1.53-18.49 1.09-31.38 20.2-37 14.37-4.24 46.44-2 62.44 11.48 2.45 2.06 4.13 4.88 5.32 1.19.71-2.27-8.23-40.56-16.61-42.63z" fill="#999" stroke="#000800" stroke-miterlimit="10" stroke-width=".62"/><path d="M163.73 422.41c14.64-2.41 42.52 4.66 45.24-9.92 1.38-7.36-3.16-23-8.79-28-5.9-5.2-21.13-6.62-28.93-6.93-8.63-.34-12.16.67-19.8 4.25-14 6.55-24.21 15-21.3 32.86a39.83 39.83 0 007.66 17.22c6.4 8.62 8.32-6.58 25.92-9.48z" fill="#d36a6e" stroke="#000" stroke-miterlimit="10" stroke-width=".62"/><path d="M458.47 346.48c-5.64-31.6-25.4-36.31-26.17-63.63" fill="#918bad" stroke="#020200" stroke-miterlimit="10" stroke-width=".62"/><path d="M559 424.35a24.28 24.28 0 01-2.61 9.55c-2.06 3.34-3.74 2.76-6.72 13-1.57 5.37 3.5 4.1 8.49 3.41 0 5.24-.28 5.8 1.59 6.31a12.39 12.39 0 007.33-.27c.56 5.69 4.49 8.35 7.81 7.54-1.61.46-3.4 1.08-4.11 2.59-5.91 12.7 21.13 7.27 18.25-18.52-.47-4.15.13-3.88 1-5.92 2.72-6.23-5.3-7.32-6-10-.24-.92.2-2.56-2.64-4.42a12.38 12.38 0 00-9.28-1.72c.83-6.53-10.67-8.58-13.7-6.87-1.74.97.59 3.62.59 5.32z" fill="#ffc897" stroke="#060a00" stroke-miterlimit="10" stroke-width=".62"/><path d="M571.84 425.68s-5.63 19.89-12.7 23.82m25.12-14.82s-9.16 18.54-16.83 21.11m21.93-12.59s-9.17 18.54-16.83 21.11" fill="none" stroke="#060a00" stroke-miterlimit="10" stroke-width="1.24"/></svg>