<svg xmlns="http://www.w3.org/2000/svg" viewBox="0 0 1400 780"><path fill="#fcfbf9" d="M0 3.35h1400v776.02H0z"/><path d="M559.5 148.05c-12.58-20-36.94-29.52-38.69-35.12-.44-1.42.46-3.33 2-3.29a39.43 39.43 0 0014.36 5.58c3.22.56 4.3-.72 3.8-4-1.54-9.83-7-28.5-4.83-29.43s9.2 11.56 12.53 18.14c3.43-29.13 3-29.33 5-30.27 6.69-3 3.88 18.43 3.4 31.42 3.41-9.29 1.59-26.79 2.9-29.21s3.74-2.52 4.61.72.93 46.16 7.2 21.82c.73-2.85 3.43-6 6.07-4.72a134 134 0 00-3.45 24.57c-.71 15.11-3 8.62 69.19 71.65-1.73-1.51-24.53 6.36-25.68 8-4.15 5.82-11.42 12.27-14.29 18.61-7.79-5.42-46.44-68.16-44.12-64.47z" fill="#ffcf9f" stroke="#050300" stroke-miterlimit="10" stroke-width=".68"/><path d="M637.18 172.76c-.41-9.92-32.14-20.46-29.86-11.51.46 1.83 9 8.63 14 10.56 10.87 4.15 10.89 7.72 13.52 6.56 1.6-.7 2.34-4.11 2.34-5.61z" fill="#d66873" stroke="#050300" stroke-miterlimit="10" stroke-width=".68"/><path d="M592.81 201.25c5.55 2.4 2-10.45 14.37-18.17 16.1-10.05 37.11-4 6.64-22.73-2.57-1.57-4.64-2.4-9.43.68-10.25 6.57-30.46 32.06-11.58 40.22z" fill="#bebebe" stroke="#050100" stroke-miterlimit="10" stroke-width=".68"/><path d="M842.11 462.39l-5.11-93.9 38.82 1.91s4.17-3.7 3.45-9.2-34.13-60.73-43.85-71.32-54.28-23.06-54.28-23.06l-90-11.94c-20.06-83.86-14.69-69.31-25.33-82.38-44.58 7.56-66.4 29.94-67.8 65.61 0 0 32.12 39.89 39.16 54.8s3.57 87.61-3.77 97.92-27 23.67-26.28 34.42l8.78 36.47 102.57 20.18z" fill="#918bad" stroke="#020200" stroke-miterlimit="10" stroke-width=".68"/><path d="M757.63 297.86c-49.65 14.08-102.58-4.11-72.37-44.17z" fill="#ffcc9a" stroke="#020000" stroke-miterlimit="10" stroke-width=".68"/><path d="M842.11 462.39l-58.77-93.9-70.86 100.76c-45.21 4.24-80.93-7.72-102.4-44-46.57-15.23-83.33-18.32-106.67-4.76l90.78 111.85 66.44 21.12c46.52-13.79 11.11 2.75 181.48-91.07z" fill="#534828"/><path d="M568.09 469.34c-29.7-44-27-32.45-33.79-40.66-10.82 13.81-23.39 27-39.47 34s-10.43 6.89-19.05 15.05c-1.59 1.51-3.46 2.82-4.52 4.75s-.94 4.76.95 5.88c22.55-18.19 56.06-2 76.68 3 1.8.44 28.79 6.27 30.83 4 2.65-2.96-9.15-22.36-11.63-26.02z" fill="#bebebe" stroke="#000" stroke-miterlimit="10" stroke-width=".68"/><path d="M593.24 526.44c-3.66-24.19-10.39-31.63-28.34-39.71-68.75-30.94-103.53-11-87.56 16.45 31.36 53.88 37.07 65.12 48.52 77.18 29.83 31.39 63.71 18.23 69.73 2.58 5.66-14.73-.04-41.3-2.35-56.5z" fill="#ffcc9a" stroke="#000" stroke-miterlimit="10" stroke-width=".68"/><path d="M522.94 574.13l18.7 20.41 18-9a160.64 160.64 0 00-36.7-11.41z" fill="#534828" stroke="#020500" stroke-miterlimit="10" stroke-width=".68"/><path d="M445.42 637.64S430 584 474.61 574.49c26.76-5.69 40.38-3.74 47-1.25 5.59 2.1 4.33 1.75 18.7 20.41-33.82 18.27-66.03 33.9-94.89 43.99z" fill="#dad0d1" stroke="#020500" stroke-miterlimit="10" stroke-width=".68"/><path d="M808.77 481.55s-9.79-61.33-14.12-70-31.93-24.76-31.93-24.76c-33.13-11.63-80.61 10.09-61.69 51.27l19.13 34c29-4.66 55.12-1.06 77.8 12.65z" fill="#ffcc9a" stroke="#020500" stroke-miterlimit="10" stroke-width=".68"/><path d="M875.82 380c8.26 2.58 15.34 5.83 18.79 15.12a53.44 53.44 0 013.46 16.88c-20.74-22.35-15.99-15.15-22.25-32z" fill="#a95a56" stroke="#060a00" stroke-miterlimit="10" stroke-width=".68"/><path d="M927 465.37l-53.13-98.57c-25.2-17.15-42.93-9.3-54.44 19.44l26.79 79.13z" fill="#ffc897" stroke="#060a00" stroke-miterlimit="10" stroke-width=".68"/><path d="M922.82 456.44c-4.07-7.59-12.72-5.7-11.92-3.41.54 1.54 5.89 3.16 8 4.48 3.71 2.34 3.65 4.45 4.67 4.2 1.53-.38-.44-4.71-.75-5.27z" fill="#f5cd92" stroke="#060a00" stroke-miterlimit="10" stroke-width=".68"/><path d="M937.64 477.75c-18.22-29-44.43-36.42-76.73-27.34-156.1 81.95-236.22 120.51-401.85 154.11-19.53 7.84-26.12 23.27-23 47.68z" fill="#918356" stroke="#020000" stroke-miterlimit="10" stroke-width=".68"/><path d="M490.17 712.1c76.61 3.22 162.78-17.61 256-56.23 116.33-38.39 237.75-77.79 203.52-151.67-8-33.47-30.16-45.71-58.21-49.26-89.67 8.06-113.69 82.69-381.87 149.58-53.8 3.58-81.2 19.42-72.59 52 10.71 32.59 29.18 49.6 53.15 55.58z" fill="#3a8a7d" stroke="#020000" stroke-miterlimit="10" stroke-width=".68"/><path d="M571.4 709.45c0-28.4-47.53-17.1-47.53 7.56 0 23.17 47.53 17.43 47.53-7.56z" fill="#c0546e" stroke="#020000" stroke-miterlimit="10" stroke-width=".68"/><path d="M557 708.61c0-12.77-21.36-7.69-21.36 3.39.04 10.42 21.36 7.83 21.36-3.39z" fill="#822337" stroke="#020000" stroke-miterlimit="10" stroke-width=".68"/><path d="M532.73 659.76l29.38-13s3.46.67 5 5.42c6.12 19.23 11.61 12.73-10 29.74l-17.11-6.6c-.57-.22-7.27-15.56-7.27-15.56z" fill="#676b6a" stroke="#020000" stroke-miterlimit="10" stroke-width=".68"/><path d="M520 659.76l19.66 52.07c7.08 3.11 11.64 1.95 13.18-4.32l-6.05-16c16.88-8.3 21.3-36.5-9.07-24.41l-6.27-14.91z" fill="#a7abaa" stroke="#020000" stroke-miterlimit="10" stroke-width=".68"/><path d="M542.88 637.72c0-28.4-47.53-17.1-47.53 7.57 0 23.16 47.53 17.42 47.53-7.57z" fill="#c0546e" stroke="#020000" stroke-miterlimit="10" stroke-width=".68"/><path d="M528.52 636.88c0-12.77-21.36-7.69-21.36 3.39 0 10.42 21.36 7.83 21.36-3.39z" fill="#822337" stroke="#020000" stroke-miterlimit="10" stroke-width=".68"/><path d="M909.58 590.07c-3.2-35.63-61.57-16.1-58.79 14.86 2.61 29.07 61.61 16.5 58.79-14.86z" fill="#c0546e" stroke="#020000" stroke-miterlimit="10" stroke-width=".86"/><path d="M891.46 590.63c-1.44-16-27.67-7.24-26.42 6.68 1.18 13.06 27.69 7.41 26.42-6.68z" fill="#822337" stroke="#020000" stroke-miterlimit="10" stroke-width=".86"/><path d="M798.9 559.08s-3 3.24 1.73 10.8c12.1 19.25 7.85 21.73 34.35 12.53l7.13-34.35-8.21-9.94c-3.08 3.09.42.69-35 20.96z" fill="#686c6b" stroke="#020000" stroke-miterlimit="10" stroke-width=".68"/><path d="M843.19 523l40.19 62c1.54 12-3.69 15.26-14.48 11.45l-11.66-18.58c-30.48 16.39-50.47-12.47-18.8-28.74l-10.15-17.71z" fill="#a9adac" stroke="#020000" stroke-miterlimit="10" stroke-width=".68"/><path d="M854.7 503.65c-3.2-35.63-61.57-16.1-58.79 14.86 2.62 29.07 61.61 16.49 58.79-14.86z" fill="#c0546e" stroke="#020000" stroke-miterlimit="10" stroke-width=".86"/><path d="M836.59 504.21c-1.44-16-27.67-7.24-26.42 6.67 1.17 13.12 27.68 7.42 26.42-6.67z" fill="#822337" stroke="#020000" stroke-miterlimit="10" stroke-width=".86"/><path d="M838.44 231c-1.26 19.22-10.32 29.85-25.92 33.29-8 32.87-56.35 39.3-88.51 29.8-15.78-4.66-10.59-8.76-33.64-29.8s-14.75-50.58-14.75-50.58c-7.52-16.65-9.73-30.43-.51-38l43.36-57.33 77.34 7.2 47.82 38c3.11 51.03 4.6 36.1-5.19 67.42z" fill="#ffcc9a" stroke="#020000" stroke-miterlimit="10" stroke-width=".68"/><path d="M743.42 219.88c1-3.65 7.72-7 11.84-5.18s6.07 7.94 3.26 11.47c-.7-6.8-6.28-9.53-15.1-6.29z" fill="#01040b"/><path d="M724.29 153.91c-2.32-6.76 10.12-10.67 14.22-11s15.08 5.25 14.87 13.3c-6.61-8.6-19.26-12.51-29.09-2.3z" fill="#01040b" stroke="#020000" stroke-miterlimit="10" stroke-width=".68"/><path d="M790.63 236.33c1.49-5.48 18.28.09 13.79 5.74-1.48-5.27-6.21-8.02-13.79-5.74zm-80.02-30.22c3-4.82-12.5-13.35-13.58-6.22 4.86-2.5 10.1-.89 13.58 6.22zm20.63 82.43c-1.79 3.26-12.27-2.81-8.49-5.66.25 3.53 3.07 5.95 8.49 5.66z" fill="#01040b"/><path d="M794.32 171.49c1.55-7 14.2-3.81 17.88-2s10.11 12.36 5.72 19.11c-1.15-10.73-9.92-20.68-23.6-17.11z" fill="#01040b" stroke="#020000" stroke-miterlimit="10" stroke-width=".68"/><path d="M733.41 210.59c29.59-39.84-17.3-69.15-28.81-12.59z" fill="#fff" stroke="#020000" stroke-miterlimit="10" stroke-width=".68"/><path d="M724.65 197.08c3.38-10.62 14.09-7.22 10.71 3.41s-14.09 7.22-10.71-3.41z" fill="#000002" stroke="#020000" stroke-miterlimit="10" stroke-width=".68"/><path d="M728.36 195.37c2-4.76 6.85-2.7 4.8 2.07s-6.84 2.7-4.8-2.07z" fill="#fff" stroke="#020000" stroke-miterlimit="10" stroke-width=".68"/><path d="M704.6 198c7.64-27.15 19-37.64 35.92-23.49-14.43-19.51-32.72.34-35.92 23.49z" fill="#01040b" stroke="#020000" stroke-miterlimit="10" stroke-width=".68"/><path d="M770.17 224.2c5.73-49.29 60-38.52 29.6 10.59z" fill="#fff" stroke="#020000" stroke-miterlimit="10" stroke-width=".68"/><path d="M785.8 220.36c4.82-10.05-5.31-14.91-10.13-4.85s5.33 14.91 10.13 4.85z" fill="#000002" stroke="#020000" stroke-miterlimit="10" stroke-width=".68"/><path d="M784.27 216.58c1.78-4.88-3.13-6.66-4.91-1.79s3.14 6.66 4.91 1.79z" fill="#fff" stroke="#020000" stroke-miterlimit="10" stroke-width=".68"/><path d="M799.77 234.79c13-25 11.93-40.46-10.08-41.72 23.88-4.33 23.62 22.65 10.08 41.72z" fill="#01040b" stroke="#020000" stroke-miterlimit="10" stroke-width=".68"/><path d="M724 232.63c-9 19-7.92 33.7 9.86 39.1s32.94-2 37.27-21.6z" fill="#6e1a00" stroke="#020000" stroke-miterlimit="10" stroke-width=".68"/><path d="M770.17 253.69a161.44 161.44 0 01-48-17.06l1.8-3.89 47 17z" fill="#f9f7fa" stroke="#020000" stroke-miterlimit="10" stroke-width=".68"/><path d="M753.1 272.71c.07-9.08-3.77-14.28-13.29-13.83-5.17-5.67-11.21-5.41-18.47 3.13 8.05 9.79 18.73 13.13 31.76 10.7z" fill="#ba1e05" stroke="#020000" stroke-miterlimit="10" stroke-width=".68"/><path d="M834.5 230.68c-29 41.35-25.84 41-11 4.11l6-11.31c9 5.88 8.34 4.13 5 7.2zm-155.65-59.34l-3.74 49.07c11.74-24.69 14.5-37.85 14.11-62.9z" fill="#abd1d4" stroke="#020000" stroke-miterlimit="10" stroke-width=".68"/><path d="M858.89 206.11c-4.55 9.47-11.3 18.82-20.45 28l-14.11-12.4c10.14-14.82 16.47-28.95 17.28-42.05-24 14.65-3.27 6.82-8.07-21.9l-77.49-40.61s-40.53 13.61-48.68 25.67-8.15 22.43-8.15 22.43c-3.52.07-6.07-1.72-6.54-7.49-14.74 18.09-11 14.79-17.57 17.87-1.34-7.65-1.53-17.76-1.16-29.1l41.49-33.42 100.82-2.3c42.52 67.65 33.56 46.28 42.63 95.3z" fill="#942200" stroke="#020000" stroke-miterlimit="10" stroke-width=".68"/><path d="M662.14 145.13c19.29-68.51 55.47-98.71 107.16-96.4 70.56 3.14 149.6 60.4 102 160.35 0 0-20.74 1.73-23.33-10.37s-.87-25.06-.87-25.06c-37.28-32.85-83.5-50.06-142.59-44.75 0 0-11.23 19.68-19.88 22.28s-22.49-6.05-22.49-6.05z" fill="#594e5f" stroke="#020000" stroke-miterlimit="10" stroke-width=".68"/><path d="M882.08 379.76c-4.67-7.53-50.92 14.49-56.77 21.17-3.15 3.61 3.35 19.56 5.79 17.72 19.15-20.55 40.41-28.94 60.49-19.45-1.75-7.33-3.38-13.85-9.51-19.44z" fill="#bebebe" stroke="#060a00" stroke-miterlimit="10" stroke-width=".68"/><path d="M686.53 536.1s-15.46-53.64 29.19-63.1c26.76-5.7 40.38-3.74 47-1.26 5.59 2.1 4.33 1.76 18.7 20.42-33.81 18.22-66.03 33.84-94.89 43.94z" fill="#dad0d1" stroke="#020500" stroke-miterlimit="10" stroke-width=".68"/><path fill="#534828" stroke="#020500" stroke-miterlimit="10" stroke-width=".68" d="M799.44 483.07l-18.02 9.04-18.7-20.42"/><path d="M691.57 361.05c15.26-17.28 58.9-20.83 73.4-12.41 14.18 8.23 16.64 26.89 9.36 32.76-7.11 5.74-33.54 1.15-56.92 6-10.18 2.11-15.53 5.51-20.27 15.66a54.5 54.5 0 00-5.14 22.13c-19.43 2.28-19-43.04-.43-64.14z" fill="#d0696c" stroke="#0d0b00" stroke-miterlimit="10" stroke-width=".68"/><path d="M776.75 361.2c-2.47 14.45-1.65 16-8.28 16-41-.22-80.4-6.49-78.27 43.37.27 6.35 1.77 13.24 8 14.33-1.69-20.35 1.2-34.53 22.22-40.72 15.82-4.67 51.11-2.18 68.71 12.63 2.69 2.26 4.54 5.36 5.85 1.31.85-2.51-8.98-44.64-18.23-46.92z" fill="#999" stroke="#000800" stroke-miterlimit="10" stroke-width=".68"/><path d="M495.13 469.79c6.92-1.14 14.71.46 35.38-1.06 7.73-.57 13-2.26 14.4-9.85 1.52-8.11-3.48-25.33-9.67-30.77-6.49-5.72-23.26-7.29-31.83-7.62-9.5-.38-13.38.74-21.79 4.67-15.39 7.21-26.64 16.52-23.43 36.15a43.69 43.69 0 008.42 18.95c7.04 9.44 9.15-7.26 28.52-10.47z" fill="#d36a6e" stroke="#000" stroke-miterlimit="10" stroke-width=".68"/><path d="M819.43 386.24c-6.21-34.76-27.95-39.95-28.8-70" fill="#918bad" stroke="#020200" stroke-miterlimit="10" stroke-width=".68"/><path d="M930.06 471.93c.12 2.65-1.58 8.41-2.87 10.5-2.26 3.67-4.11 3-7.39 14.25-1.72 5.9 3.86 4.51 9.35 3.75 0 5.77-.32 6.39 1.74 6.95a13.63 13.63 0 008.07-.31c.61 6.27 4.94 9.2 8.59 8.31-1.77.5-3.74 1.18-4.52 2.85-6.5 14 23.24 8 20.07-20.38-.51-4.57.15-4.28 1.14-6.52 3-6.85-5.83-8.05-6.61-11-.26-1 .22-2.81-2.91-4.86a13.58 13.58 0 00-10.2-1.9c.91-7.19-11.75-9.44-15.08-7.56-1.97 1.1.56 4.05.62 5.92z" fill="#ffc897" stroke="#060a00" stroke-miterlimit="10" stroke-width=".68"/><path d="M944.16 473.38s-6.19 21.89-14 26.22m27.67-16.31s-10.09 20.39-18.52 23.22m24.13-13.85s-10.09 20.4-18.52 23.23" fill="none" stroke="#060a00" stroke-miterlimit="10" stroke-width="1.37"/></svg>