<svg xmlns="http://www.w3.org/2000/svg" viewBox="0 0 1400 780"><path fill="#fffffe" stroke="#000" stroke-miterlimit="10" stroke-width=".94" d="M203.05 142.36h403.48v512.18H203.05z"/><path fill="#1b1919" stroke="#000" stroke-miterlimit="10" stroke-width=".94" d="M203.05 398.45h403.48v256.09H203.05z"/><path fill="#fffffe" stroke="#000" stroke-miterlimit="10" stroke-width=".94" d="M774.24 142.36h403.48v512.18H774.24z"/><path fill="#1b1919" stroke="#000" stroke-miterlimit="10" stroke-width=".94" d="M1045.5 142.36h132.22v512.18H1045.5zm-271.26 0h132.22v512.18H774.24z"/><path fill="none" stroke="#ed1c24" stroke-miterlimit="10" stroke-width="4" d="M181.27 107.23h445.08"/><path fill="#ed1c24" d="M192.51 122.04l-6.29-14.81 6.29-14.81-35.11 14.81 35.11 14.81zm422.6 0l6.3-14.81-6.3-14.81 35.12 14.81-35.12 14.81z"/><path fill="none" stroke="#ed1c24" stroke-miterlimit="10" stroke-width="4" d="M1227.79 663.71v-532.6"/><path fill="#ed1c24" d="M1242.6 652.47l-14.81 6.29-14.81-6.29 14.81 35.11 14.81-35.11zm0-510.13l-14.81-6.29-14.81 6.29 14.81-35.11 14.81 35.11z"/></svg>