<svg xmlns="http://www.w3.org/2000/svg" viewBox="0 0 1400 780"><path fill="#ccc" d="M0 0h1400v780H0z"/><path d="M833.86 444.43c17.8-23.21 50.55-57.94 29.87-114-9.27-25.11-60.53-106.18-103-141.89-29.17-24.5-43.29-15.63-72.18 2.25-50 31-83.72 23.94-103.94 35.18-112.39 62.42-92.92 279.76-12.82 268.06 11.45-1.67 11.31-5.27 28.45-1.59 180.45 38.75 183.44 17.44 233.62-48.01z" fill="#f2dacd"/><path d="M646 419.47c-7.48 4.32 45.64 33.16 92.76 4.9 10.54-6.32-8.55-3.84-20.1-3.41-5.56.2-67.49-4.48-72.66-1.49z" fill="#f2f2f2"/><path fill="#f3f1ef" d="M664.88 649.73l-84.98 63.78-80.99-120.43 54.96-23.62 111.01 80.27zm236.21-28.32L799.51 725.35c-95.24-95.17-87.8-75.62-44.88-75.62l101.58-80.27z"/><path d="M733.54 255.37c-25.79 8.73-19.81-25 49.45-9.07 4.52 1 11.25 3 10.74 8.27-20.73-.06-39.55-6.18-60.19.8zM588.18 242c-30.57-2.46-27.48 13.82-12.22 14.82 15.93 1 22.5-13.47 73.88 9.72 12.05-15.72-53.55-23.92-61.66-24.54z" fill="#905631"/><path d="M856.21 569.46c-121.9 96.33-78.31 80.27-191.33 80.27-158-114.27-103.11-66.9-92.72-87.67 3.37.61 1.13-.39 7.8-5.89 23.56-19.77 10.38-69.17 11-91.1 70.87 45.81 145.66 37.78 183.7 4.15 7.11 85.78-1.44 100.24 81.55 100.24z" fill="#f2dacd" stroke="#000" stroke-miterlimit="10" stroke-width="1.4"/><path d="M745.05 414.76c-.62-.22-50.44.61-73.26-.73-59.92-3.58-38.75 18.84 3.87 26.64 59.13 10.58 81.81-21.67 69.39-25.91zm-11 8.86c-54 17.82-31.13 9.43-86.89-1.46 99.95 2.11 98.84-2.43 86.84 1.46z" fill="#de9b95"/><path d="M674.35 309.12c-1.25 40.91-11.9 42.92-17 58.74-11.73 36.59 55.4 23.46 58.44 19.13s.33-19.57-3.57-28.23c-13.83-30.68-1.23-29.23-6.29-47.24" fill="none" stroke="#de9b95" stroke-miterlimit="10" stroke-width="5.61"/><path d="M726.47 293.48c0 25.75 56.65 25.75 56.65 0s-56.65-25.82-56.65 0z" fill="#f2f2f2"/><path d="M726.75 293.48c0 14.13 16.53 18.35 28.07 17.91 8.8-.34 18.65-2.75 23.85-10.15a13.39 13.39 0 00-.4-15.32c-5.93-7.32-16.62-8.94-25.73-9-10.74.09-25.34 3.54-25.79 16.59zm-.56 0c-.29-6.71 3.94-12.86 9.49-16.43 11.46-7.36 26.77-7.67 38.81-1.14 10.08 5.45 14.5 17.89 7.53 27.65-4.17 5.66-10.81 8.47-17.4 9.8-14.29 3.1-37.75-2.22-38.43-19.88z"/><path d="M648.44 293.48c0 25.75-56.65 25.75-56.65 0s56.65-25.82 56.65 0z" fill="#f2f2f2"/><path d="M648.73 293.48c-.69 17.66-24.14 23-38.43 19.88-6.59-1.33-13.23-4.14-17.4-9.81-7-9.75-2.56-22.19 7.53-27.64 12-6.53 27.34-6.22 38.81 1.14 5.55 3.57 9.78 9.72 9.49 16.43zm-.57 0c-.45-13.05-15-16.5-25.78-16.59-9.12.09-19.8 1.71-25.74 9a13.41 13.41 0 00-.4 15.32c5.21 7.41 15 9.81 23.86 10.15 11.53.44 28.08-3.78 28.06-17.91z"/><path d="M771 293.47c0 21.41-32.37 21.41-32.37 0s32.37-21.42 32.37 0zm-134.71 0c0 21.41-32.37 21.41-32.37 0s32.37-21.42 32.37 0z" fill="#3fa9f5"/><path d="M762.89 293.47c0 10.7-16.19 10.7-16.19 0s16.19-10.71 16.19 0zm-134.69 0c0 10.7-16.19 10.7-16.19 0s16.19-10.71 16.19 0z"/><path d="M757.45 288.9c0 3.51-5.31 3.51-5.31 0s5.31-3.51 5.31 0zm-134.69 0c0 3.51-5.31 3.51-5.31 0s5.31-3.51 5.31 0z" fill="#fff"/><path d="M573.53 313.69c1.25 9 7 31.14 12.06 76.2 13.5 120.29-7.88 172.05 15.33 215.48A84.43 84.43 0 00583 582.53l-3.36 16.54-15.4-8.07-1.42 14.8-16.69-10.7-3.13 18.17c-15.32-22.78-9.49-52.56-9.45-79.79.06-42.25-15.19-82.9-23.23-124.41-13.57-70-6.56-142 .49-212.93 3.22-32.44 7.61-67.48 30.64-91.13 24.13-24.78 93.51-44 117.12-47.78 38.32-6.12 103.39 1.2 115 5.2 13.89 4.79 59.57 36.69 76.62 62 37.25 55.37 30.81 207.08 28.19 274.41-2.82 73.42-7.34 149.91-44.44 213.88-16.28-20.37-32.43-13.07-35.59-4.72l-8-18.77c-12.84.94-14.12 17.25-8.42-6L769.3 599.3c5.45-6.93.07-49.45.77-61.15 11.44-189.62 70.59-160.31 26.33-314.83a29.26 29.26 0 01-7.57 14.84c-24.24-29.43-5.38-14.23-25.26 7.44a42.16 42.16 0 00-5.46-25.6c1.45 11.94-7.17 24.27-19.1 27.33a29.15 29.15 0 00-17.35-19 81.32 81.32 0 01-15.37 18.55l-4.93-14.67a28.82 28.82 0 01-12.64 18.53 96.62 96.62 0 00-34.3-24.8l7.43 20.52L640 226.57a83.34 83.34 0 005.55 27.3 163.88 163.88 0 01-40.26-29.65 124.19 124.19 0 008.94 29.68 43.05 43.05 0 01-25.63-28.55 110.59 110.59 0 00-3 31.54 41.6 41.6 0 01-15.51-1.26c-3.34-.93 1.37 43.15 3.44 58.06z" fill="#333"/><g opacity=".1"><path fill="#fffffe" d="M473.95 62.04h428.42v543.84H473.95z"/><path fill="#1b1919" d="M761.97 62.04h140.4v543.84h-140.4zm-288.02 0h140.4v543.84h-140.4z"/></g></svg>