<svg xmlns="http://www.w3.org/2000/svg" viewBox="0 0 1400 780"><path fill="#ccc" d="M0 0h1400v780H0z"/><path d="M1165.64 231.49c14.94 12.83 20.29 186.61 15.11 188.19l-8.34 1h-18c1.77-48.38-2-153.83-7-199.5a59.93 59.93 0 0118.23 10.31z" fill="#f8f6f7"/><path d="M1158.73 434.09a3.46 3.46 0 01-3 1.62v-15h16.67l-9.49 23.35c-2.31 4.81-4.51 8.39-5.88 8.31-3.93-.23 1.45-17.48 1.7-18.28z" fill="#c79585"/><path d="M1162.92 444.08l-1 22.44-1.72 37.09H1114l1.75-33.36 12.68-241.12c4.47-3.55 7.3-6.62 7-11.19a71 71 0 0112 3.28c5 45.67 8.77 151.12 7 199.5h1.31v15a3.46 3.46 0 003-1.62c-.25.8-5.63 18.05-1.69 18.3 1.36.07 3.56-3.51 5.87-8.32z" fill="#191919"/><path d="M1147.2 503.61l-23.74 133.65a4.67 4.67 0 00-2.14-1c-4.57-.39-16-3.61-16.15-.29V470.25h10.56l-1.73 33.36z" fill="#7b8e93"/><path d="M1141 175c3.3 38.57-10.78 35.65-10.78 35.65-.57.7-1.17 1.37-1.78 2-9.38 2.56-11.77-7.18-12.76-19.4a37.54 37.54 0 007.59-8.68c7.3-11.48-.69-38.93-18.07-38.32-17.37-.61-25.36 26.84-18.06 38.32a38.14 38.14 0 007.59 8.7c-1 12.21-3.38 21.94-12.76 19.38-.61-.65-1.2-1.32-1.78-2 0 0-14.08 2.92-10.78-35.65 3.46-40.35 17.66-42.89 35.8-46.36 18.12 3.46 32.29 6 35.79 46.36z" fill="#312a28"/><path d="M1135.4 217.94c.3 4.57-2.53 7.64-7 11.19-2.33 1.85-5.08 3.82-8.1 6.19l-15.14-10.61c9.13-1.7 17-5.45 23.24-12.05.61-.65 1.21-1.32 1.78-2z" fill="#f8f6f7"/><path d="M1135.38 652.73a15.27 15.27 0 01-11.62 13.63c-11 3.14-16.21-7.38-16.47-8 .38.23 12.51 6.02 28.09-5.63z" fill="#302f30"/><path d="M1123.46 637.26c4.89 3.53 11.92 15.47 11.92 15.47-15.58 11.65-27.71 5.86-28.09 5.68s-2-18-2.1-22V636c.1-3.32 11.58-.1 16.15.29a4.67 4.67 0 012.12.97z" fill="#c79585"/><path d="M1128.4 229.13l-12.68 241.12h-21l-12.68-241c2.29 1.8 5 3.73 8 6.06l15.12-10.61 15.14 10.61c3.02-2.31 5.77-4.31 8.1-6.18z" fill="#f8f6f7"/><path d="M1115.64 193.26c1 12.22 3.38 22 12.76 19.4-6.21 6.6-14.11 10.35-23.24 12.05-9.11-1.7-17-5.45-23.23-12.05 9.38 2.56 11.77-7.17 12.76-19.38 5.48 4.64 5.07 6.24 10.47 6.24s5-1.6 10.48-6.26z" fill="#c79585"/><path d="M1094.69 193.28a38.14 38.14 0 01-7.59-8.7c-7.3-11.48.69-38.93 18.06-38.32 17.38-.61 25.37 26.84 18.07 38.32a37.54 37.54 0 01-7.59 8.68c-5.48 4.66-5.08 6.26-10.48 6.26s-4.99-1.6-10.47-6.24zM1105.17 636v.43a.66.66 0 010-.14V636zm0 0v-.1a.07.07 0 010 .1z" fill="#c79585"/><path d="M1105.17 636.42v.36-.5a.66.66 0 000 .14z" fill="#c79585"/><path d="M1105.16 636v.74c-.25 4.57-2.1 21.61-2.1 21.61-.38.18-12.49 6-28.08-5.68 0 0 7-11.94 11.92-15.45a4.5 4.5 0 012.13-1c4.56-.39 15.92-3.58 16.15-.34z" fill="#c79585"/><path d="M1105.16 470.25v165.69c-.23-3.24-11.59-.05-16.15.34a4.5 4.5 0 00-2.13 1l-23.74-133.65h33.38l-1.75-33.36z" fill="#425864"/><path d="M1105.16 224.71L1090 235.32c-3-2.33-5.67-4.26-8-6.06v-.13c-4.47-3.55-7.3-6.62-7-11.19h-.15l5.22-7.3c.58.7 1.17 1.37 1.78 2 6.29 6.62 14.2 10.36 23.31 12.07z" fill="#f8f6f7"/><path d="M1094.76 470.25l1.75 33.36h-46.19l-1.72-37v-.11l-1-22.09c2.26 4.62 4.37 8 5.71 8h.15c3.73-.24-.89-15.74-1.6-18a3.38 3.38 0 002.74 1.35v-15h1.46c-1.77-48.38 2-153.83 7-199.5a72.65 72.65 0 0111.88-3.25c-.3 4.61 2.59 7.7 7.15 11.29z" fill="#191919"/><path d="M1075 652.73c15.59 11.65 27.7 5.86 28.08 5.68-.26.57-5.46 11.09-16.47 8a15.25 15.25 0 01-11.61-13.68z" fill="#302f30"/><path d="M1074.93 217.94a72.65 72.65 0 00-11.88 3.25c-5 45.67-8.77 151.12-7 199.5h-18.13l-8.34-1c-5.18-1.58.17-175.36 15.11-188.19a58.44 58.44 0 0116.16-9.47 71.53 71.53 0 0114.08-4.09z" fill="#f8f6f7"/><path d="M1054.59 420.72v15a3.38 3.38 0 01-2.74-1.35c.71 2.29 5.33 17.79 1.6 18h-.15c-1.34.08-3.45-3.34-5.71-8l-9.66-23.71z" fill="#c79585"/><path d="M1123.46 637.26c4.89 3.53 11.92 15.47 11.92 15.47a15.27 15.27 0 01-11.62 13.63c-11 3.14-16.21-7.38-16.47-8m-.02.03s-2-18-2.1-22a.66.66 0 010-.14" fill="none" stroke="#000" stroke-linecap="round" stroke-linejoin="round" stroke-width=".83"/><path d="M1107.27 658.39h0c.38.18 12.51 6 28.09-5.68m11.84-149.1l-23.74 133.65a4.67 4.67 0 00-2.14-1c-4.57-.39-16-3.61-16.15-.29a.07.07 0 000 0V470.25m-67.25-49.53l-8.34-1c-5.18-1.58.17-175.36 15.11-188.19a58.44 58.44 0 0116.16-9.47 71.53 71.53 0 0114.08-4.08v0m7.15 11.28c2.29 1.8 5 3.73 8 6.06l15.12-10.61 15.14 10.61c3-2.37 5.77-4.34 8.1-6.19m-12.72 241.12h-20.96m52.67-249.03a59.93 59.93 0 0118.21 10.27c14.94 12.83 20.29 186.61 15.11 188.19l-8.34 1h-16.67m-20.34-202.74l-5.22-7.3m-48.25 2.02c-.61-.65-1.2-1.32-1.78-2 0 0-14.08 2.92-10.78-35.65 3.46-40.35 17.66-42.89 35.8-46.36 18.16 3.47 32.33 6 35.79 46.36 3.3 38.57-10.78 35.65-10.78 35.65-.57.7-1.17 1.37-1.78 2" fill="none" stroke="#000" stroke-linecap="round" stroke-linejoin="round" stroke-width=".83"/><path d="M1115.64 193.26a37.54 37.54 0 007.59-8.68c7.3-11.48-.69-38.93-18.07-38.32-17.37-.61-25.36 26.84-18.06 38.32a38.14 38.14 0 007.59 8.7M1160.16 431a8.8 8.8 0 01-1.42 3v0M1103 658.41c-.26.57-5.46 11.09-16.47 8a15.25 15.25 0 01-11.53-13.68s7-11.94 11.92-15.45a4.5 4.5 0 012.13-1c4.56-.39 15.92-3.58 16.15-.34a.07.07 0 010 0v.79c-.25 4.57-2.1 21.61-2.1 21.61m-.04.05h0c-.38.18-12.49 6-28.08-5.68m11.89-15.45l-23.74-133.65m42.03 133.68v-1.25m-25.01-425.4l-5.22 7.3m19.76-24.66v-.02m33.71 19.4c-6.21 6.6-14.11 10.35-23.24 12.05-9.11-1.7-17-5.45-23.23-12.05 9.38 2.56 11.77-7.17 12.76-19.38 5.48 4.64 5.07 6.24 10.47 6.24s5-1.6 10.48-6.26c.99 12.22 3.36 21.96 12.76 19.4zM1050.17 431a8.8 8.8 0 001.42 3h0" fill="none" stroke="#000" stroke-linecap="round" stroke-linejoin="round" stroke-width=".83"/><path d="M1162.92 444.08l-1 22.44-1.72 37.09H1114l1.75-33.36 12.68-241.12c4.47-3.55 7.3-6.62 7-11.19a71 71 0 0112 3.28c5 45.67 8.77 151.12 7 199.5h1.31v15a3.46 3.46 0 003-1.62c-.25.8-5.63 18.05-1.69 18.3 1.36.07 3.56-3.51 5.87-8.32zm-80.84-214.82l12.68 240.99 1.75 33.36h-46.19l-1.72-36.98v-.11l-1.02-22.09" fill="none" stroke="#000" stroke-linecap="round" stroke-linejoin="round" stroke-width=".83"/><path d="M1054.59 420.72h1.46c-1.77-48.38 2-153.83 7-199.5a72.65 72.65 0 0111.88-3.25m0 .03h.15c-.3 4.57 2.53 7.64 7 11.19v.13c-4.56-3.65-7.45-6.74-7.15-11.32zm87.99 226.08v-.01l9.49-23.35m-117.82 0v15h0a3.38 3.38 0 01-2.74-1.35c.71 2.29 5.33 17.79 1.6 18h-.15c-1.34.08-3.45-3.34-5.71-8l-9.66-23.71z" fill="none" stroke="#000" stroke-linecap="round" stroke-linejoin="round" stroke-width=".83"/><path fill="none" stroke="#f00900" stroke-linecap="round" stroke-linejoin="round" stroke-width="2" d="M977.02 675.65v-571.3"/><path d="M977 699.79c4.21-11.36 11.4-25.45 19-34.19l-19 6.88-19-6.88c7.61 8.74 14.81 22.83 19 34.19zm0-619.58c4.21 11.36 11.4 25.45 19 34.19l-19-6.88-19 6.88c7.61-8.74 14.81-22.83 19-34.19z" fill="#f00900"/><path d="M707.4 348h-98.81c-1.84 49.66 1.71 72.8-1.17 72.8-10.86 0-14.21.08-16.67-.06-2.08-.12-3.53-.38-8.34-1-5.18-1.58.17-175.36 15.11-188.19C610.16 220.7 627.76 218 627.76 218c-.46 6.95 6.29 10.41 15.11 17.38L658 224.77l15.13 10.61c8.82-7 15.57-10.43 15.11-17.38 0 0 17.6 2.7 30.24 13.55 14.94 12.83 20.29 186.61 15.11 188.19-4.81.6-6.26.86-8.34 1-2.46.13-5.81 0-16.67 0-2.89.04.66-23.1-1.18-72.74z" fill="#f9f8f8"/><path d="M725.24 420.78c.76 28.22-3.81 47.74-19.24 49.53h-96c-15.47-1.79-20-21.35-19.28-49.53 15.47 43.53 20.88 36.42 13.68 13.37a3.5 3.5 0 003 1.62v-15c2.88 0-.67-23.14 1.17-72.8h98.83c1.84 49.66-1.71 72.8 1.17 72.8v15a3.5 3.5 0 003-1.62c-7.36 23.54-1.57 29.65 13.67-13.37z" fill="#676767"/><path d="M711.56 434.15a3.5 3.5 0 01-3 1.62v-15c10.86 0 14.21.08 16.67 0-15.23 43.03-21.02 36.92-13.67 13.38z" fill="#d3b9b1"/><path d="M706 470.31l-29.67 167c-.19-.13-.39-.26-.57-.36a2.58 2.58 0 00-.56-.3 1.78 1.78 0 00-.52-.2 3.28 3.28 0 00-.49-.1c-4.59-.39-16.16-3.65-16.16-.25V470.31z" fill="#a9b2b5"/><path d="M693.79 175c3.3 38.62-10.79 35.7-10.79 35.7-.57.69-1.17 1.37-1.78 2-9.38 2.56-11.77-7.18-12.76-19.39 20.7-17.39 6.16-47.59-10.48-47-16.43-.58-31.35 29.33-10.47 47-1 12.22-3.38 21.94-12.76 19.38-.61-.64-1.2-1.32-1.78-2 0 0-14.08 2.92-10.78-35.66 3.46-40.34 17.66-42.9 35.8-46.37 18.17 3.48 32.34 6.04 35.8 46.34z" fill="#767372"/><path d="M688.23 218c.46 6.95-6.29 10.41-15.11 17.38L658 224.77c9.13-1.7 17-5.45 23.24-12.06.61-.64 1.21-1.32 1.78-2z" fill="#f9f8f8"/><path d="M676.29 637.3c4.23 3.09 10.19 12.56 11.92 15.48-15.58 11.64-27.71 5.86-28.09 5.68-.17-.73-2.13-20-2.13-22.36 0-3.4 11.57-.14 16.16.25a3.28 3.28 0 01.49.1 5 5 0 01.52.2 5.21 5.21 0 01.56.3c.18.11.38.24.57.38zm-7.82-443.98c1 12.21 3.38 22 12.76 19.39-6.21 6.61-14.11 10.36-23.24 12.06-9.12-1.7-17-5.45-23.23-12.06 9.38 2.56 11.77-7.16 12.76-19.38 5.48 4.64 5.07 6.24 10.47 6.24s5.01-1.57 10.48-6.25zm7.82 443.98c-.19-.14-.39-.27-.57-.38.18.08.38.25.57.38z" fill="#d3b9b1"/><path d="M675.72 636.94a5.21 5.21 0 00-.56-.3 2.58 2.58 0 01.56.3zm-.56-.3a5 5 0 00-.52-.2 1.78 1.78 0 01.52.2zm-.52-.2a3.28 3.28 0 00-.49-.1 3.28 3.28 0 01.49.1zm13.57 16.34c-.38 13.56-21.14 20.9-28.09 5.68.38.18 12.51 5.96 28.09-5.68zm-40.69-459.45c-20.88-17.68-6-47.59 10.47-47 16.64-.59 31.18 29.61 10.48 47-5.48 4.65-5.09 6.25-10.48 6.25s-4.99-1.58-10.47-6.25z" fill="#d3b9b1"/><path d="M658 636.09v1.26c-.34-5.43-4.16-2.06-16.11-1a4.56 4.56 0 00-2.14 1L610 470.31h48z" fill="#838f95"/><path d="M658 224.77l-15.12 10.61c-8.82-7-15.57-10.43-15.11-17.38l5.22-7.3c.58.69 1.17 1.37 1.78 2 6.23 6.62 14.1 10.37 23.23 12.07z" fill="#f9f8f8"/><path d="M658 637.35c.2 3.2-.81 9.47-2.06 21.1 0 0-12.28 6.15-28.11-5.67 0 0 7-11.93 11.92-15.46a4.56 4.56 0 012.14-1c11.9-1.03 15.72-4.4 16.11 1.03z" fill="#d3b9b1"/><path d="M627.78 652.78c15.83 11.82 28.11 5.67 28.11 5.67-7.1 15.33-27.73 7.76-28.11-5.67z" fill="#767676"/><path d="M604.43 434.15c7.2 23.05 1.79 30.16-13.68-13.37v-.06c2.46.14 5.81.06 16.67.06v15a3.5 3.5 0 01-2.99-1.63z" fill="#d3b9b1"/><path d="M413.73 420.78v15a3.5 3.5 0 003-1.62c-7.34 23.54-1.6 29.65 13.69-13.37.72 28.18-3.82 47.74-19.28 49.53H315.2c-15.47-1.79-20-21.35-19.28-49.53 15.47 43.53 20.9 36.42 13.68 13.37a3.5 3.5 0 003 1.62v-15c-10.86 0-14.21.08-16.67-.06-2.08-.12-3.54-.38-8.34-1-5.18-1.58.17-175.36 15.11-188.19C315.33 220.7 332.93 218 332.93 218c-.46 6.95 6.29 10.41 15.1 17.38l15.12-10.61 15.14 10.61c8.82-7 15.57-10.43 15.11-17.38 0 0 17.59 2.7 30.24 13.55 14.94 12.83 20.29 186.61 15.1 188.19-4.8.6-6.25.86-8.33 1-2.41.12-5.81.04-16.68.04z" fill="#f9f8f8"/><path d="M416.72 434.15a3.5 3.5 0 01-3 1.62v-15c10.87 0 14.22.08 16.68 0-15.28 43.03-21.02 36.92-13.68 13.38z" fill="#d3b9b1"/><path d="M411.13 470.31l-29.67 167a5.65 5.65 0 00-1.14-.66 1.63 1.63 0 00-.51-.2 3.28 3.28 0 00-.49-.1c-4.59-.39-16.17-3.65-16.17-.25V470.31z" fill="#a9b2b5"/><path d="M399 175c3.3 38.58-10.78 35.66-10.78 35.66-.58.69-1.17 1.37-1.78 2-9.38 2.56-11.77-7.18-12.76-19.39 20.71-17.39 6.15-47.59-10.49-47-16.42-.58-31.34 29.33-10.46 47-1 12.22-3.39 21.94-12.76 19.38-.61-.64-1.21-1.32-1.79-2 0 0-14.08 2.92-10.77-35.66 3.46-40.34 17.66-42.9 35.8-46.37 18.12 3.52 32.28 6.08 35.79 46.38z" fill="#767372"/><path d="M393.4 218c.46 6.95-6.29 10.41-15.11 17.38l-15.14-10.61c9.13-1.7 17-5.45 23.25-12.06.61-.64 1.2-1.32 1.78-2z" fill="#f9f8f8"/><path d="M381.46 637.3c4.24 3.09 10.2 12.56 11.92 15.48-15.58 11.64-27.72 5.86-28.1 5.68-.16-.73-2.13-20-2.13-22.36 0-3.4 11.58-.14 16.17.25a3.28 3.28 0 01.49.1 4.12 4.12 0 01.51.2 6.33 6.33 0 011.14.68zm-7.82-443.98c1 12.21 3.38 22 12.76 19.39-6.21 6.61-14.12 10.36-23.25 12.06-9.11-1.7-17-5.45-23.22-12.06 9.37 2.56 11.77-7.16 12.76-19.38 5.48 4.64 5.08 6.24 10.46 6.24s5.01-1.57 10.49-6.25z" fill="#d3b9b1"/><path d="M381.46 637.3a6.33 6.33 0 00-1.14-.68 5.65 5.65 0 011.14.68zm-1.14-.66a4.12 4.12 0 00-.51-.2 1.63 1.63 0 01.51.2zm-.51-.2a3.28 3.28 0 00-.49-.1 3.28 3.28 0 01.49.1z" fill="#d3b9b1"/><path d="M393.38 652.78c-.38 13.56-21.13 20.9-28.1 5.68.38.18 12.52 5.96 28.1-5.68z" fill="#767676"/><path d="M352.69 193.33c-20.88-17.68-6-47.59 10.46-47 16.64-.59 31.2 29.61 10.49 47-5.48 4.65-5.09 6.25-10.49 6.25s-4.98-1.58-10.46-6.25z" fill="#d3b9b1"/><path d="M363.15 636.09v1.26c-.35-5.43-4.16-2.06-16.11-1a4.55 4.55 0 00-2.15 1l-29.66-167h47.95z" fill="#838f95"/><path d="M363.15 224.77L348 235.38c-8.81-7-15.56-10.43-15.1-17.38l5.21-7.3c.58.69 1.18 1.37 1.79 2 6.23 6.62 14.1 10.37 23.25 12.07z" fill="#f9f8f8"/><path d="M363.12 637.35c.2 3.2-.81 9.47-2.06 21.1 0 0-12.27 6.15-28.1-5.67 0 0 7-11.91 11.9-15.46a4.55 4.55 0 012.15-1c11.99-1.03 15.76-4.4 16.11 1.03z" fill="#d3b9b1"/><path d="M333 652.78c15.83 11.82 28.1 5.67 28.1 5.67-7.1 15.33-27.76 7.76-28.1-5.67z" fill="#767676"/><path d="M309.6 434.15c7.22 23.05 1.79 30.16-13.68-13.37v-.06c2.46.14 5.81.06 16.67.06v15a3.5 3.5 0 01-2.99-1.63z" fill="#d3b9b1"/><path d="M674.15 636.34a3.28 3.28 0 01.49.1 1.78 1.78 0 01.52.2 2.58 2.58 0 01.56.3c.18.1.38.23.57.36 4.23 3.09 10.19 12.56 11.92 15.48-.38 13.56-21.14 20.9-28.09 5.68m0-.01c-.17-.73-2.13-20-2.13-22.36" fill="none" stroke="#575757" stroke-linecap="round" stroke-linejoin="round" stroke-width=".83"/><path d="M660.1 658.45h0c.38.18 12.51 6 28.09-5.68m-14.04-16.43c-4.59-.39-16.16-3.65-16.16-.25V470.31m47.97 0L676.29 637.3M688.23 218s17.6 2.7 30.24 13.55c14.94 12.83 20.29 186.61 15.11 188.19-4.81.6-6.26.86-8.34 1-2.46.13-5.81 0-16.67 0v15a3.5 3.5 0 003-1.62c-7.35 23.54-1.61 29.65 13.68-13.37.75 28.25-3.82 47.77-19.25 49.56h-96c-15.47-1.79-20-21.35-19.28-49.53 15.47 43.53 20.88 36.42 13.68 13.37a3.5 3.5 0 003 1.62v-15c-10.86 0-14.21.08-16.67-.06-2.08-.12-3.53-.38-8.34-1-5.18-1.58.17-175.36 15.11-188.19C610.16 220.7 627.76 218 627.76 218c-.46 6.95 6.29 10.41 15.11 17.38L658 224.77l15.13 10.61c8.81-6.97 15.56-10.38 15.1-17.38zm0 0l-5.22-7.3" fill="none" stroke="#575757" stroke-linecap="round" stroke-linejoin="round" stroke-width=".83"/><path d="M702.31 279.77c2.91 26.68 4.39 49.36 5.09 68.21 1.84 49.66-1.71 72.8 1.17 72.8m-73.81-208.07c-.61-.64-1.2-1.32-1.78-2 0 0-14.08 2.92-10.78-35.66 3.46-40.34 17.66-42.9 35.8-46.37 18.16 3.47 32.33 6 35.79 46.37 3.3 38.57-10.79 35.65-10.79 35.65-.57.69-1.17 1.37-1.78 2" fill="none" stroke="#575757" stroke-linecap="round" stroke-linejoin="round" stroke-width=".83"/><path d="M668.47 193.32c20.7-17.39 6.16-47.59-10.48-47-16.43-.58-31.35 29.33-10.47 47M713 431.08a8.8 8.8 0 01-1.43 3.07m-55.68 224.3c-7.1 15.33-27.73 7.76-28.11-5.67 0 0 7-11.93 11.92-15.46a4.56 4.56 0 012.14-1c11.95-1.05 15.77-4.42 16.11 1 .2 3.23-.81 9.5-2.06 21.13zm0 0s-12.28 6.15-28.11-5.67m11.92-15.46l-29.67-167.01m47.96 165.78v1.26M632.98 210.7l-5.22 7.3m-14.08 61.77c-2.91 26.68-4.39 49.36-5.09 68.21-1.84 49.66 1.71 72.8-1.17 72.8m40.1-227.45v-.01m33.71 19.39c-6.21 6.61-14.11 10.36-23.24 12.06-9.12-1.7-17-5.45-23.23-12.06 9.38 2.56 11.77-7.16 12.76-19.38 5.48 4.64 5.07 6.24 10.47 6.24s5-1.6 10.48-6.25c.99 12.21 3.38 21.95 12.76 19.39zM603 431.08a8.8 8.8 0 001.43 3.07M379.32 636.34a3.28 3.28 0 01.49.1 1.63 1.63 0 01.51.2 5.65 5.65 0 011.14.66c4.24 3.09 10.2 12.56 11.92 15.48-.38 13.56-21.13 20.9-28.1 5.68m0-.01c-.16-.73-2.13-20-2.13-22.36" fill="none" stroke="#575757" stroke-linecap="round" stroke-linejoin="round" stroke-width=".83"/><path d="M365.27 658.45h0c.38.18 12.52 6 28.1-5.68m17.76-182.46l-29.67 167v0a6.33 6.33 0 00-1.14-.68 4.12 4.12 0 00-.51-.2 3.28 3.28 0 00-.49-.1c-4.59-.39-16.17-3.65-16.17-.25V470.31M393.4 218s17.59 2.7 30.24 13.55c14.94 12.83 20.29 186.61 15.1 188.19-4.8.6-6.25.86-8.33 1-2.46.13-5.81 0-16.68 0v15a3.5 3.5 0 003-1.62c-7.34 23.54-1.6 29.65 13.69-13.37.72 28.18-3.82 47.74-19.28 49.53H315.2c-15.47-1.79-20-21.35-19.28-49.53 15.47 43.53 20.9 36.42 13.68 13.37a3.5 3.5 0 003 1.62v-15c-10.86 0-14.21.08-16.67-.06-2.08-.12-3.54-.38-8.34-1-5.18-1.58.17-175.36 15.11-188.19C315.33 220.7 332.93 218 332.93 218c-.46 6.95 6.29 10.41 15.1 17.38l15.12-10.61 15.14 10.61c8.82-6.97 15.57-10.38 15.11-17.38zm0 0l-5.22-7.3m19.3 69.07c10.55 97 2.29 141 6.25 141m-73.8-208.06c-.61-.64-1.21-1.32-1.79-2 0 0-14.08 2.92-10.77-35.66 3.46-40.34 17.66-42.9 35.8-46.37 18.16 3.47 32.32 6 35.79 46.37 3.3 38.58-10.78 35.66-10.78 35.66-.58.69-1.17 1.37-1.78 2" fill="none" stroke="#575757" stroke-linecap="round" stroke-linejoin="round" stroke-width=".83"/><path d="M373.64 193.32c20.71-17.39 6.15-47.59-10.49-47-16.42-.58-31.34 29.33-10.46 47m65.47 237.76a8.69 8.69 0 01-1.44 3.07m-55.66 224.3c-7.1 15.33-27.72 7.76-28.1-5.67 0 0 7-11.91 11.9-15.46a4.55 4.55 0 012.15-1c11.95-1.05 15.76-4.42 16.11 1 .2 3.23-.81 9.5-2.06 21.13zm0 0s-12.27 6.15-28.1-5.67m11.9-15.46L315.2 470.31m47.95 165.78v1.26M338.14 210.7l-5.21 7.3m-14.08 61.77c-10.55 97-2.3 141-6.26 141m40.1-227.44v-.01m33.71 19.39c-6.21 6.61-14.12 10.36-23.25 12.06-9.11-1.7-17-5.45-23.22-12.06 9.37 2.56 11.77-7.16 12.76-19.38 5.48 4.64 5.08 6.24 10.46 6.24s5-1.6 10.49-6.25c.99 12.21 3.36 21.95 12.76 19.39zm-78.23 218.37a9 9 0 001.43 3.07m299.13-86.17h98.53" fill="none" stroke="#575757" stroke-linecap="round" stroke-linejoin="round" stroke-width=".83"/><path fill="none" stroke="#e3706a" stroke-linecap="round" stroke-linejoin="round" stroke-width="2" d="M779.51 110.92H241.05"/><path d="M803.65 110.92c-11.36-4.22-25.45-11.41-34.19-19l6.88 19-6.88 19c8.74-7.6 22.83-14.79 34.19-19zm-586.74 0c11.36-4.22 25.46-11.41 34.19-19l-6.88 19 6.88 19c-8.73-7.6-22.83-14.79-34.19-19z" fill="#e3706a"/></svg>
