<svg xmlns="http://www.w3.org/2000/svg" viewBox="0 0 1400 780"><path fill="#cbcbcb" d="M0 0h1400v780H0z"/><path d="M947.06 664.37q80.51 37.93 68.55 115.42H384.39q-11.94-77.49 68.55-115.42C526.61 696.51 609 709 700 709s173.39-12.49 247.06-44.63z"/><path d="M884.1 315.41c10.14 148.11-21.1 228.93-89.1 253.9 33.21-44 43.59-101.74 41.33-167 .14-1.58.22-3.2.22-4.87a106.42 106.42 0 00-3.2-25.12 173.05 173.05 0 004.44-17v-9q-6-3.61-12-6.6S810 214.37 700 212.2a128.07 128.07 0 00-29.56 3.92l-35.64-89.74c109.51-28.59 185 .8 227.78 85.82 13.42 30.69 18.97 65.95 21.52 103.21z" fill="#993b1f"/><path d="M795 569.31c27.11 50.93 75.86 84.2 152.06 95.06C873.39 696.51 791 709 700 709s-173.39-12.49-247.06-44.63c76.2-10.86 125-44.13 152.06-95.06a203.61 203.61 0 0015.81-39.49c26.4 32.27 52.78 49.27 79.19 49.27s52.79-17 79.19-49.27A203.61 203.61 0 00795 569.31z" fill="#f9dbd0"/><path d="M837.79 346.28v9a173.05 173.05 0 01-4.44 17 .11.11 0 000 .05c-11.41 35.81-31.8 52.75-59.67 53.92-34.31 1.44-53.16-25.9-60.79-73.86-2.75-3.35-7.31-4.33-12.85-4.07-5.55-.26-10.11.72-12.86 4.07-7.63 48-26.47 75.3-60.79 73.86-27.87-1.17-48.26-18.12-59.67-53.93a.15.15 0 000-.06 172.9 172.9 0 01-4.43-17v-9q6-3.61 12-6.6c38.24-19.14 74-18.05 107 4.82 3.91-3.36 10.18-5.19 18.75-5.49 8.56.3 14.83 2.13 18.74 5.49 33.05-22.87 68.79-24 107-4.82q5.97 2.99 12.01 6.62zm-114.42 14.43c0 85.55 104.41 74.65 101.23 0-10.1-39.32-89-41.44-101.23 0zm-148 0c-3.19 74.65 101.22 85.55 101.22 0-12.18-41.44-91.09-39.32-101.18 0z" fill="#0e0f2d"/><path d="M836.33 402.33c2.26 65.24-8.12 122.93-41.33 167a203.61 203.61 0 01-15.81-39.49q-2.94-10.11-5.07-20.87c21.38-14.9 37-45.71 48.58-88.1 7.94 1.21 12.61-7.35 13.63-18.54z" fill="#5a1609"/><path d="M836.55 397.46c0 1.67-.08 3.29-.22 4.87-1 11.19-5.69 19.75-13.62 18.52 4-14.79 7.55-31 10.63-48.44a.11.11 0 010-.05 106.42 106.42 0 013.21 25.1z" fill="#f3c5b8"/><path d="M833.34 372.41c-3.08 17.43-6.61 33.65-10.63 48.44-11.53 42.39-27.2 73.2-48.58 88.1-16.58 24.05-40.77 38.78-74.13 42.24-33.36-3.46-57.55-18.19-74.12-42.19-21.37-14.9-37-45.71-48.58-88.1-4-14.8-7.54-31-10.63-48.45 11.41 35.81 31.8 52.76 59.67 53.93 34.32 1.44 53.16-25.9 60.79-73.86 2.75-3.35 7.31-4.33 12.86-4.07 5.54-.26 10.1.72 12.85 4.07 7.63 48 26.48 75.3 60.79 73.86 27.91-1.22 48.3-18.16 59.71-53.97zM700 497.8c23.25-2.66 38.49-11.88 47.46-26.3-17-4.42-33.33-7.12-47.46-2.84-14.13-4.28-30.51-1.58-47.46 2.84 8.97 14.42 24.23 23.64 47.46 26.3zm19.65-66c9.83.35 7.09-9 0-8.33s-15.9 6.63-19.65 6.38c-3.75.25-12.57-5.66-19.65-6.38s-9.83 8.68 0 8.33c.11 0 .22-.06.33-.07a19.87 19.87 0 0113.15 1.13c.59.25 1.16.55 1.73.86h8.84c.57-.31 1.14-.61 1.73-.86a19.9 19.9 0 0113.16-1.13c.14.03.25.07.36.09z" fill="#f9dbd0"/><path d="M824.6 360.71c3.18 74.65-101.23 85.55-101.23 0 12.23-41.44 91.13-39.32 101.23 0zM811.3 344c-3.52 4.93-7.91 8.26-13.54 9.3-1-.94-2.13-1.82-3.22-2.66-11.8-22.05-56.47-14.79-58.68 19.66 22 15.94 53.66 8.5 56.58-8.5 10.92-.8 16.39-7.65 18.86-17.8z" fill="#f9dbd0"/><path d="M792.45 302.26c11.4 1.55 20 6.13 23.91 15.95q-6.83-4.57-22.85-5c-16 2.93-36.11 8.67-57.65 15.4-4.47-1.87-6.29-5-4.25-10.09 23.24-8.78 44.49-15.26 60.84-16.26z" fill="#93381b"/><path d="M797.76 353.27c5.63-1 10-4.37 13.54-9.3-2.47 10.18-7.94 17-18.86 17.8a64 64 0 00-10.25-7.71q-18.45-10.95-34.08 1.86a61.12 61.12 0 00-12.25 14.35c9.11-30.11 36.86-36.28 58.68-19.66 1.09.84 2.17 1.72 3.22 2.66z" fill="#1f1513"/><path d="M700 212.2c110 2.17 125.78 127.48 125.78 127.48-38.25-19.14-74-18.05-107 4.82-3.91-3.36-10.18-5.19-18.74-5.49-8.57.3-14.84 2.13-18.75 5.49-33.05-22.87-68.79-24-107-4.82 0 0 12.3-97.45 90.61-122 1.83-.57 3.7-1.11 5.61-1.6A128.07 128.07 0 01700 212.2zm116.33 106c-3.86-9.82-12.51-14.4-23.91-15.95-16.35 1-37.6 7.48-60.84 16.21-2 5-.22 8.22 4.25 10.09 21.54-6.73 41.65-12.47 57.65-15.4q16.05.49 22.88 5.06zm-152.18 10.36c4.46-1.87 6.28-5 4.24-10.09-23.24-8.73-44.48-15.21-60.84-16.21-11.4 1.55-20 6.13-23.91 15.95q6.83-4.57 22.85-5c16 2.88 36.11 8.62 57.66 15.35z" fill="#f9dbd0"/><path d="M782.19 354.06a20.63 20.63 0 01-4.35 18.27c-6.77 2.41-14.73 2.92-23.7 1.85-5-4.65-8-10.28-6-18.25q15.6-12.83 34.05-1.87zm-9.27 6A7.93 7.93 0 10765 368a7.93 7.93 0 007.92-8z" fill="#757d8a"/><path d="M777.84 372.33a31.48 31.48 0 0014.6-10.56c-2.92 17-34.53 24.44-56.58 8.5a112.44 112.44 0 0018.28 3.91c8.97 1.07 16.93.56 23.7-1.85z" fill="#efc1b2"/><path d="M774.12 509q2.14 10.76 5.07 20.87c-26.4 32.27-52.78 49.27-79.19 49.27s-52.79-17-79.19-49.27q2.94-10.11 5.07-20.87c16.57 24 40.76 38.73 74.12 42.19 33.36-3.46 57.55-18.19 74.12-42.19z" fill="#efc3b6"/><path d="M735.86 370.27c2.21-34.45 46.88-41.71 58.68-19.66-21.82-16.61-49.54-10.45-58.68 19.66z" fill="#efc1b2"/><path d="M765 352.09a7.93 7.93 0 11-7.92 7.94 7.93 7.93 0 017.92-7.94zm1.44 2.86a2.28 2.28 0 10-2.28 2.28 2.28 2.28 0 002.27-2.23z"/><circle cx="764.15" cy="354.95" r="2.28" fill="#fffdff"/><path d="M700 478.93l47.46-7.43c-9 14.42-24.21 23.64-47.46 26.3-23.23-2.66-38.49-11.88-47.46-26.3z" fill="#dc4a4d"/><path d="M747.46 471.5L700 478.93l-47.46-7.43c17-4.42 33.33-7.12 47.46-2.84 14.13-4.28 30.51-1.58 47.46 2.84z" fill="#cc3838"/><path d="M719.65 423.49c7.09-.7 9.83 8.68 0 8.33-.11 0-.22-.06-.32-.07s1.74-3.56-3.39-3.92c-4.93-.34-9.4 4.62-9.77 5.05-.59.25-1.16.55-1.73.86h-8.84c-.57-.31-1.14-.61-1.73-.86-.31-.36-4.81-5.39-9.76-5.05-5.13.36-3.39 3.92-3.39 3.92s-.22.05-.33.07c-9.83.35-7.08-9 0-8.33s15.9 6.63 19.65 6.38c3.71.25 12.53-5.66 19.61-6.38z" fill="#f3c5b8"/><path d="M715.94 427.83c5.13.36 3.39 3.92 3.39 3.92a19.9 19.9 0 00-13.16 1.13c.37-.43 4.83-5.39 9.77-5.05zm-22.11 5.05a19.87 19.87 0 00-13.15-1.13s-1.74-3.56 3.39-3.92c4.93-.34 9.45 4.69 9.76 5.05z" fill="#0e0f2d"/><path d="M676.63 360.71c0 85.55-104.41 74.65-101.22 0 10.09-39.32 89-41.44 101.22 0zm-69.08 1.06c2.93 17 34.55 24.44 56.6 8.5-2.23-34.45-46.89-41.71-58.69-19.66-1.09.84-2.16 1.72-3.22 2.66-5.62-1-10-4.37-13.55-9.3 2.47 10.18 7.95 17.03 18.86 17.8z" fill="#f9dbd0"/><path d="M634.8 126.38l35.62 89.74c-1.91.49-3.78 1-5.61 1.6z" fill="#eee5d4"/><path d="M668.39 318.47c2 5 .22 8.22-4.24 10.09-21.55-6.73-41.66-12.47-57.66-15.4q-16 .48-22.85 5c3.86-9.82 12.51-14.4 23.91-15.95 16.36 1.05 37.6 7.53 60.84 16.26z" fill="#93381b"/><path d="M664.81 217.71c-78.31 24.51-90.61 122-90.61 122q-6 3-12 6.6v9a172.9 172.9 0 004.43 17 106.66 106.66 0 00-3.2 25.13c0 1.67.08 3.29.22 4.87-2.25 65.24 8.12 122.93 41.33 167-68-25-99.23-105.79-89.1-253.9 2.55-37.26 8.07-72.52 21.52-103.21 27.07-43.9 59.13-73.63 97.38-85.82z" fill="#993b1f"/><path d="M664.15 370.27a61.14 61.14 0 00-12.26-14.35q-15.63-12.81-34.08-1.86a63.91 63.91 0 00-10.26 7.71c-10.91-.78-16.39-7.62-18.86-17.8 3.53 4.93 7.93 8.26 13.55 9.3 1.06-.94 2.13-1.82 3.22-2.66 21.82-16.61 49.54-10.45 58.69 19.66z" fill="#1f1513"/><path d="M651.89 355.92c1.94 8-1 13.6-6 18.25-9 1.07-16.92.57-23.69-1.85a20.6 20.6 0 01-4.36-18.27q18.42-10.94 34.05 1.87zm-8.95 4.08a7.93 7.93 0 10-7.94 8 7.93 7.93 0 007.94-8z" fill="#757d8a"/><path d="M645.86 374.18a112.77 112.77 0 0018.29-3.91c-22 15.94-53.67 8.5-56.6-8.5a31.49 31.49 0 0014.62 10.56c6.77 2.42 14.73 2.92 23.69 1.85z" fill="#efc1b2"/><path d="M635 352.09a7.93 7.93 0 11-7.92 7.94 7.93 7.93 0 017.92-7.94zm2.29 2.86a2.29 2.29 0 10-2.29 2.28 2.28 2.28 0 002.29-2.23z"/><path d="M635 352.67a2.28 2.28 0 11-2.28 2.28 2.28 2.28 0 012.28-2.28z" fill="#fffdff"/><path d="M664.15 370.27c-9.15-30.11-36.87-36.27-58.69-19.66 11.8-22.05 56.46-14.79 58.69 19.66z" fill="#efc1b2"/><path d="M625.88 509q-2.14 10.76-5.07 20.87A203.61 203.61 0 01605 569.31c-33.21-44-43.58-101.74-41.33-167 1 11.19 5.69 19.75 13.62 18.52 11.54 42.41 27.22 73.22 48.59 88.17z" fill="#5a1609"/><path d="M577.29 420.85c-7.93 1.23-12.6-7.33-13.62-18.52-.14-1.58-.22-3.2-.22-4.87a106.66 106.66 0 013.2-25.13.15.15 0 010 .06c3.1 17.45 6.62 33.66 10.64 48.46z" fill="#f3c5b8"/><path d="M779.19 529.82A203.61 203.61 0 00795 569.31c27.11 50.93 75.86 84.2 152.06 95.06m-494.12 0c76.2-10.86 125-44.13 152.06-95.06a203.61 203.61 0 0015.81-39.49" fill="none" stroke="#000" stroke-miterlimit="10" stroke-width=".84"/><path d="M774.12 509q2.14 10.76 5.07 20.87c-26.4 32.27-52.78 49.27-79.19 49.27s-52.79-17-79.19-49.27q2.94-10.11 5.07-20.87" fill="none" stroke="#000" stroke-miterlimit="10" stroke-width=".5"/><path d="M722.31 687.48s77.31.8 118-23.11m-47.87-302.6c-2.92 17-34.53 24.44-56.58 8.5a112.44 112.44 0 0018.28 3.91c9 1.07 16.93.56 23.7-1.85a31.48 31.48 0 0014.6-10.56z" fill="none" stroke="#000" stroke-miterlimit="10" stroke-width=".84"/><path d="M792.44 361.77a64 64 0 00-10.25-7.71q-18.45-10.95-34.08 1.86a61.12 61.12 0 00-12.25 14.35c9.11-30.11 36.86-36.28 58.68-19.66 1.09.84 2.17 1.72 3.22 2.66 5.63-1 10-4.37 13.54-9.3-2.47 10.18-7.94 17.03-18.86 17.8zm-44.33-5.85c-1.94 8 1 13.6 6 18.25m28.08-20.11a20.63 20.63 0 01-4.35 18.27" fill="none" stroke="#000" stroke-miterlimit="10" stroke-width=".84"/><path d="M772.92 360a7.93 7.93 0 11-7.93-7.94 7.93 7.93 0 017.93 7.94z" fill="none" stroke="#000" stroke-miterlimit="10" stroke-width=".84"/><circle cx="764.15" cy="354.95" r="2.28" fill="none" stroke="#000" stroke-miterlimit="10" stroke-width=".84"/><path d="M947.06 664.37q80.51 37.93 68.55 115.42H384.39q-11.94-77.49 68.55-115.42C526.61 696.51 609 709 700 709s173.39-12.49 247.06-44.63zM774.12 509c21.38-14.9 37-45.71 48.58-88.1h0c4-14.79 7.55-31 10.63-48.44" fill="none" stroke="#000" stroke-miterlimit="10" stroke-width=".84"/><path d="M625.88 509c16.57 24 40.76 38.73 74.12 42.19 33.36-3.46 57.55-18.16 74.12-42.24" fill="none" stroke="#000" stroke-miterlimit="10" stroke-width=".5"/><path d="M566.66 372.4c3.09 17.44 6.61 33.65 10.63 48.45h0c11.53 42.39 27.21 73.2 48.58 88.1m93.46-77.2a19.9 19.9 0 00-13.16 1.13m41.29 38.62c-9 14.42-24.21 23.64-47.46 26.3-23.23-2.66-38.49-11.88-47.46-26.3l47.46 7.43zm75.25-50.65c7.93 1.23 12.6-7.33 13.62-18.52.14-1.58.22-3.2.22-4.87a106.42 106.42 0 00-3.2-25.12m-7.54-32.66S810 214.37 700 212.2h0a128.07 128.07 0 00-29.56 3.92c-1.91.49-3.78 1-5.61 1.6-78.31 24.51-90.61 122-90.61 122" fill="none" stroke="#000" stroke-miterlimit="10" stroke-width=".84"/><path d="M816.36 318.21q-6.83-4.57-22.85-5c-16 2.93-36.11 8.67-57.65 15.4-4.47-1.87-6.29-5-4.25-10.09 23.24-8.73 44.49-15.21 60.84-16.21 11.4 1.5 20.05 6.08 23.91 15.9z" fill="none" stroke="#000" stroke-miterlimit="10" stroke-width=".84"/><path d="M825.81 339.68c-38.25-19.14-74-18.05-107 4.82-3.91-3.36-10.18-5.19-18.74-5.49h0c-8.57.3-14.84 2.13-18.75 5.49-33.05-22.87-68.79-24-107-4.82q-6 3-12 6.6v9a172.9 172.9 0 004.43 17 .15.15 0 010 .06h0c11.41 35.81 31.8 52.76 59.67 53.93 34.32 1.44 53.16-25.9 60.79-73.86 2.75-3.35 7.31-4.33 12.86-4.07h0c5.54-.26 10.1.72 12.85 4.07 7.63 48 26.48 75.3 60.79 73.86 27.87-1.17 48.26-18.11 59.67-53.92v0a.11.11 0 010-.05 173.05 173.05 0 004.44-17v-9q-6.06-3.63-12.01-6.62z" fill="none" stroke="#000" stroke-miterlimit="10" stroke-width=".84"/><path d="M723.37 360.71c12.23-41.44 91.13-39.32 101.23 0 3.18 74.65-101.23 85.55-101.23 0zm12.49 9.56c2.21-34.45 46.88-41.71 58.68-19.66M677.69 687.48s-77.31.8-118-23.11m120.99-232.62c-.11 0-.22.05-.33.07-9.83.35-7.08-9 0-8.33s15.9 6.63 19.65 6.38c3.75.25 12.57-5.66 19.65-6.38s9.83 8.68 0 8.33c-.11 0-.22-.06-.32-.07s1.74-3.56-3.39-3.92c-4.93-.34-9.4 4.62-9.77 5.05h0c-.59.25-1.16.55-1.73.86h-8.84c-.57-.31-1.14-.61-1.73-.86h0" fill="none" stroke="#000" stroke-miterlimit="10" stroke-width=".84"/><path d="M693.83 432.88a19.87 19.87 0 00-13.15-1.13s-1.74-3.56 3.39-3.92c4.93-.34 9.45 4.69 9.76 5.05zm-118.42-72.17c10.09-39.32 89-41.44 101.22 0 0 85.55-104.41 74.65-101.22 0z" fill="none" stroke="#000" stroke-miterlimit="10" stroke-width=".84"/><path d="M607.55 361.77c2.93 17 34.55 24.44 56.6 8.5a112.77 112.77 0 01-18.29 3.91c-9 1.07-16.92.57-23.69-1.85a31.49 31.49 0 01-14.62-10.56z" fill="none" stroke="#000" stroke-miterlimit="10" stroke-width=".84"/><path d="M607.55 361.77a63.91 63.91 0 0110.26-7.71q18.45-10.95 34.08 1.86a61.14 61.14 0 0112.26 14.35c-9.15-30.11-36.87-36.27-58.69-19.66-1.09.84-2.16 1.72-3.22 2.66-5.62-1-10-4.37-13.55-9.3 2.47 10.18 7.95 17.03 18.86 17.8zm44.34-5.85c1.94 8-1 13.6-6 18.25m-28.08-20.11a20.6 20.6 0 004.36 18.27" fill="none" stroke="#000" stroke-miterlimit="10" stroke-width=".84"/><path d="M627.08 360a7.93 7.93 0 107.92-7.94 7.93 7.93 0 00-7.92 7.94z" fill="none" stroke="#000" stroke-miterlimit="10" stroke-width=".84"/><path d="M632.72 355a2.29 2.29 0 102.28-2.28 2.29 2.29 0 00-2.28 2.28zm31.43-26.44c-21.55-6.73-41.66-12.47-57.66-15.4q-16 .48-22.85 5c3.86-9.82 12.51-14.4 23.91-15.95 16.36 1 37.6 7.48 60.84 16.21 2.04 5.1.22 8.27-4.24 10.14zm-86.86 92.29c-7.93 1.23-12.6-7.33-13.62-18.52-.14-1.58-.22-3.2-.22-4.87a106.66 106.66 0 013.2-25.13m97.5-2.06c-2.23-34.45-46.89-41.71-58.69-19.66" fill="none" stroke="#000" stroke-miterlimit="10" stroke-width=".84"/><path d="M664.81 217.71l-30-91.33c-38.25 12.19-70.31 41.92-97.38 85.82-13.45 30.69-19 65.95-21.52 103.21C505.77 463.52 537 544.34 605 569.31c-33.21-44-43.58-101.74-41.33-167" fill="none" stroke="#000" stroke-miterlimit="10" stroke-width=".84"/><path d="M670.42 216.12l-35.62-89.74c109.51-28.59 185 .8 227.78 85.82 13.45 30.69 19 65.95 21.52 103.21 10.14 148.11-21.1 228.93-89.1 253.9 33.21-44 43.59-101.74 41.33-167" fill="none" stroke="#000" stroke-miterlimit="10" stroke-width=".84"/><g opacity=".1"><path fill="#fffffd" d="M485.79 55.22h428.42v543.84H485.79z"/><path fill="#1b1919" d="M773.82 55.22h140.4v543.84h-140.4zm-288.03 0h140.4v543.84h-140.4z"/></g></svg>
