<svg xmlns="http://www.w3.org/2000/svg" viewBox="0 0 1400 780"><path fill="#ccc" d="M0 0h1400v780H0z"/><path d="M646.05 703.58c24.11 7.11 39.27-26.06 53.55-37.42 26.15 22.15 36.06 29 46 26.22 11.42-3.16 14.2-19.52 7.91-29.56s-18-15.11-29-19.54c4.7-17.86 15.35-21.83 18.55-28.5 6.89-14.36-21-34.66-38.93-2.71-14.8 26.37-28 5.3-42.18-.11-9.76-3.72-20.14.68-18.62 12.37 2.34 17.92 27.88 16.47 30.17 29.33 1.43 7.83-24.4 38.77-27.45 49.92zm-388.93-6.1c24.11 7.11 39.28-26.06 53.56-37.42 26.14 22.15 36.05 29 46 26.22 11.42-3.16 14.21-19.53 7.92-29.57s-18-15.1-29-19.53c4.7-17.86 15.36-21.83 18.55-28.5 6.89-14.36-21-34.66-38.93-2.71-14.8 26.37-28 5.3-42.17-.11-9.76-3.72-20.15.68-18.62 12.36 2.33 17.93 27.87 16.48 30.16 29.34 1.41 7.83-24.41 38.77-27.47 49.92z" fill="#76583e"/><path d="M1145.71 597.4c-10.6-6.63-24.69 1.58-31.67 12-8.4 12.49-12.56 34.75-29.93 34.25-11.2-.33-20.76-15.24-30.71-18.58-.78 13.49 19.33 49.11 32.43 54 26.04 9.8 52.06-62.29 59.88-81.67z" fill="#7ac943"/><path d="M348.91 139.13c2.76-3.69 7.84-9.21 4.64-18.11-1.44-4-9.39-16.87-16-22.54-4.53-3.9-6.72-2.49-11.2.35-7.75 4.92-13 3.81-16.12 5.59-17.43 9.92-14.41 44.45-2 42.59 1.78-.26 1.76-.83 4.42-.25 28.02 6.15 28.48 2.77 36.26-7.63z" fill="#f2dacd"/><path d="M320.88 134.79c-1.22.7 7.43 5.4 15.11.8 1.72-1-1.39-.63-3.27-.56-.9.03-11-.73-11.84-.24z" fill="#f2f2f2"/><path d="M361.73 564.81c-1 3.46-2.6 3.61-16.88 3.32s-9.68-9.53-9.68-10.1c3.29 1.55 10.81 2 14.44 2.06 13.14.24 10.21-11.83 11.21-7 0 .3 1.89 8.37.91 11.72z" fill="#4a4746"/><path d="M317 568.23c-10-.53-13.56-1.4-13.42-6.16s2.92-7.37 3.4-5.31c.87 3.57 7.06 2.83 22.16 1.56 1.03-.09-2.14 10.44-12.14 9.91z" fill="#57534f"/><path d="M372.55 389.44c-2.2 24.3-4.77 114.53-16.16 136.11-4.09 7.76.92 15.66 1.14 16-.91-.15-9-2.5-10.81-3-8.37-2.45-8.23 2.31-9 3-4.15-92-2.25-57.7-8.47-149.55-3.17-2.42-5.05-1.94 4.21-1.23 2.26.39 3.9.23 39.09-1.33z" fill="#62737a"/><path d="M330.69 541.57s-6.92-4.76-13.56-1.68c-1.69.77-.81.87-1.06-.8-.6-4-2-1.88-12.52-23.45-6.53-13.48-10-65.82-9.61-74.67s-9.63-51.57-8.85-53.88c44.37 3.39 41 2.46 44.21 4.93 9.45 139.58 9.02 124.5 1.39 149.55z" fill="#495e69"/><path d="M360.82 553.1c-1-4.82 1.93 7.23-11.21 7-2.08 0-14-.48-13.86-2.55.4-5.1-.59-13.6 1.93-17.94.28 6.17-1.64-4.19 9-1.06 10.22 3 9.17 1 12.5 9.24a20.4 20.4 0 011.64 5.31zm-31.7 5.22c-14.81 1.24-21.29 2-22.16-1.56.22-2.82 10.37-22.16 9.09-16.32 4.82-2.71 10.69-1.58 14.64 1.13l1-3.28c1.45 2.63.16 15.99-2.57 20.03z" fill="#f2dacd"/><path d="M400.55 344.74c-33.9 0-22.71 6.55-22.26-23.68.36-24.81-5.27-49.13-8.2-73.66-2.49-21-.2-23 12.76-71.62 29.29 80.57 17.7 113.66 17.7 168.96zm-122.39 0h-23.87c0-124.36 5-129.75 18.1-169 13.9.04 5.77 132.46 5.77 169z" fill="#e5e2df"/><path d="M384 387.85c-8.51.68-11.53 2.41-11.46 1.59-38.83 1.68-34.94 1.66-39 1.36-71.59-5.4-65.32.69-70.71-46.06H265c-3.64 15.62 10.13 30.34 13.27 31.92 5.73-3.13-1.08-10-3.7-20.1a3.91 3.91 0 002.17.48 25.47 25.47 0 00.57-11.61 2.89 2.89 0 01-1.4-.69h2.23c0-36.64 8.16-169-5.77-169 10.62-7.27 5.19-4.38 24.52-12.7l13.2 19.63L324 172.31c12.1 0 7.14-2.46 21.94 12.32l16.55-16.93 20.4 8.08c-17.13 64.27-16.18 47.87-3.08 128.93 1.92 11.94-3.46 40-3.46 40 4.8 0 4.15-.08 3.88.2-1.83 1.76-5.66 18-1.65 17.56.1.1.66.31.82.75.43 1.19-5.28 7.56-1.5 11.93 2.86-2.47 12.69-18.9 14-22.11.4-1.16 3.3 33.96-7.9 34.81z" fill="#e5e2df" stroke="#000" stroke-miterlimit="10" stroke-width=".23"/><path d="M383.64 356.49c-1.46 5.49-5.69 7.28-6.41 5.12-1.78-5 2.16-15.9 3-16.67.25-.26-.11-.2 3.42-.2 1.11 1.4 1.08 7.63-.01 11.75z" fill="#f2dacd"/><path d="M393.42 344.74c-.47 5.72-.62 7.59-5.18 14.95-7.62 12.29-8.35 13.74-10.38 15.49-4.38-5.07 3.54-10.91.72-12.66h.09c5.34-.91 6.33-10.71 5.53-16.06-.31-2.3-3.01-1.72 9.22-1.72zm-115.13 31.92c-3.13-1.57-17-16.06-13.27-31.92 12.17 0 5.88-1.92 9.57 11.82 2.41 9.44 9.53 16.91 3.7 20.1z" fill="#f1c7b2"/><path d="M276.76 357c-4 .34-2.84-7.4-4.08-12.3 4.71 0 3.32.5 4.65.69a25.47 25.47 0 01-.57 11.61z" fill="#f2dacd"/><path fill="#f3f1ef" d="M323.96 172.31l-13.85 10.4-13.2-19.63 8.96-3.85 18.09 13.08zm38.49-4.61l-16.55 16.93c-15.52-15.51-14.31-12.32-7.32-12.32l16.56-13.08z"/><path d="M335.15 108c-4.21 1.43-3.23-4.07 8.06-1.47.73.17 1.83.49 1.75 1.34-3.38.03-6.45-.96-9.81.13zm-23.69-2.14c-5-.4-4.48 2.25-2 2.42s3.66-2.2 12 1.58c2.01-2.56-8.68-3.86-10-4z" fill="#905631"/><path d="M364.06 149c-3.32 10.79-9.3 8.64-19.77 8.06-1.71-2.07-1.64-4.45-2.43-14.14 9-7.41 13.24-32.84-1.71-34.37-1.57-.17-3.45.18-5.32-3.71a21.69 21.69 0 01-1.78-5.48 1.33 1.33 0 00-.47-1c-2.94-1.89 0 8.69-1.84 10.83-1.31 1.52-15 1.75-13.9-3.79-6.2 10.42-8.93.55-10.82 13.16-1.56 10.59-4 17.45 5.9 23.7 0 .11.83 11.43-.19 13.33-.52.93-1.5 1.14-2.57 2.52-10-.91-16.56-6.88-17.72-17.65-2.48-22.95 2.94-26.51 4.81-30.75 2.72-6.2 1.1-13.56 3.46-19.9 5.94-15.93 34.16-18 43.11-8.58 5.2 5.48 5.73 12 9.38 18.6 5.95 10.82 19.08 25.79 11.86 49.17z" fill="#211c1b"/><path d="M355.14 159.23c-19.87 15.7-12.76 13.08-31.18 13.08-25.76-18.62-16.81-10.9-15.11-14.29.55.1.18-.06 1.27-1 3.84-3.22 1.69-11.27 1.8-14.84 11.55 7.46 23.74 6.16 29.94.67 1.14 14.02-.25 16.38 13.28 16.38z" fill="#f2dacd" stroke="#000" stroke-miterlimit="10" stroke-width=".23"/><path d="M337 134c-.1 0-8.18.1-11.94-.12-9.79-.59-6.27 3.1.64 4.34 9.57 1.78 13.38-3.51 11.3-4.22zm-1.8 1.44c-8.79 2.91-5.07 1.54-14.16-.23 2.43.05 2.23-.22 7-.07 10.06.33 8.39-.07 7.18.32z" fill="#de9b95"/><path d="M325.5 116.8c-.2 6.67-1.94 7-2.76 9.58-1.92 6 9 3.82 9.52 3.11s.05-3.19-.58-4.6c-2.26-5-.2-4.76-1-7.7" fill="none" stroke="#de9b95" stroke-miterlimit="10" stroke-width=".91"/><path d="M334 114.26c0 4.19 9.24 4.19 9.24 0s-9.24-4.21-9.24 0z" fill="#f2f2f2"/><path d="M334 114.26c0 4 8.8 3.86 8.82 0-.14-3.56-8.77-3.73-8.82 0zm-.09 0c.14-4.78 9.52-4.88 9.64 0-.2 4.58-9.38 4.48-9.64 0z"/><path d="M321.28 114.26c0 4.19-9.23 4.19-9.23 0s9.23-4.21 9.23 0z" fill="#f2f2f2"/><path d="M321.33 114.26c-.26 4.47-9.45 4.57-9.65 0 .12-4.87 9.5-4.77 9.65 0zm-.1 0c-.05-3.74-8.68-3.58-8.82 0 0 3.87 8.82 4 8.82 0z"/><path d="M341.25 114.25c0 3.49-5.28 3.49-5.28 0s5.28-3.49 5.28 0zm-21.95 0c0 3.49-5.28 3.49-5.28 0s5.28-3.49 5.28 0z" fill="#3fa9f5"/><path d="M339.93 114.25a1.32 1.32 0 01-2.64 0 1.32 1.32 0 012.64 0zm-21.93 0a1.32 1.32 0 01-2.64 0 1.32 1.32 0 012.64 0z"/><path d="M339 113.51a.43.43 0 01-.86 0 .43.43 0 01.86 0zm-21.91 0a.43.43 0 01-.86 0 .43.43 0 01.86 0z" fill="#fff"/><path d="M1091.77 139.13c2.76-3.69 7.84-9.21 4.63-18.11-1.44-4-9.39-16.87-16-22.54-4.52-3.9-6.71-2.49-11.19.35-7.76 4.92-13 3.81-16.12 5.59-17.43 9.92-14.41 44.45-2 42.59 1.78-.26 1.75-.83 4.41-.25 28.02 6.15 28.5 2.77 36.27-7.63z" fill="#f2dacd"/><path d="M1063.73 134.79c-1.22.7 7.44 5.4 15.12.8 1.71-1-1.4-.63-3.28-.56-.9.03-10.99-.73-11.84-.24z" fill="#f2f2f2"/><path d="M1104.58 564.81c-1 3.46-2.59 3.61-16.88 3.32s-9.7-9.53-9.7-10.13c3.28 1.55 10.8 2 14.43 2.06 13.15.24 10.21-11.83 11.22-7 .03.33 1.91 8.4.93 11.75z" fill="#4a4746"/><path d="M1059.84 568.23c-10-.53-13.57-1.4-13.42-6.16s2.91-7.37 3.4-5.31c.87 3.57 7 2.83 22.16 1.56 1.02-.09-2.18 10.44-12.14 9.91z" fill="#57534f"/><path d="M1113.54 414.64c-.49 7.92-3.33 90.13-14.29 110.91-4.1 7.76.91 15.66 1.14 16-.92-.15-9-2.5-10.81-3-8.38-2.45-8.23 2.31-8.95 3-1.32-29-5.58-148.12-11.07-151.3 12.29 1 7.42.84 21.83.22l-.8 19.86a153 153 0 0022.95 4.31z" fill="#62737a"/><path d="M1073.55 541.57s-6.93-4.76-13.56-1.68c-1.7.77-.82.87-1.07-.8-.61-4.09-2-1.72-12.51-23.45-6.53-13.48-10-65.82-9.62-74.67.2-4.47-2.25-17.56-4.64-29.73a155.46 155.46 0 0016.75-.89v-21.66c23 1.75 20.25 1 23.25 3.33 9.45 139.58 9.02 124.5 1.4 149.55z" fill="#495e69"/><path d="M1103.68 553.1c-1-4.82 1.92 7.23-11.22 7-2.07 0-14-.48-13.86-2.55.4-5.1-.58-13.6 1.93-17.94.29 6.17-1.63-4.19 9-1.06 10.22 3 9.17 1 12.49 9.24a20 20 0 011.66 5.31zm-31.68 5.22c-14.82 1.24-21.29 2-22.16-1.56.21-2.82 10.37-22.17 9.09-16.32 4.82-2.71 10.69-1.58 14.64 1.13l1-3.28c1.43 2.63.14 15.99-2.57 20.03z" fill="#f2dacd"/><path d="M1119.18 200.26l-5.44 20.4c1.46-6.87 3.64-13.66 5.44-20.4z" fill="#e5e2df" stroke="#000" stroke-miterlimit="10" stroke-width=".23"/><path d="M1108.73 171c-18.47 110.14-13.51 119.91-17.34 219.52-15.28.65-6.08 1-42.49-1.8.4-160.64 4.16-161.74-17.17-222.14-21.52 12.06-19.51 11.3-8.06 3.46l16.09-6.93 13.2 19.63c16.64-12.49 11.36-10.4 23.46-10.4l12.33 12.32 16.56-16.93c26.34 10.4 26.86 9.88 3.42 3.27z" fill="#e5e2df" stroke="#000" stroke-miterlimit="10" stroke-width=".23"/><path fill="#f3f1ef" d="M1066.81 172.31l-13.85 10.4-13.19-19.63 8.95-3.85 18.09 13.08zm38.5-4.61l-16.56 16.93c-15.52-15.5-14.31-12.32-7.31-12.32l16.56-13.08z"/><path d="M1078 108c-4.2 1.43-3.23-4.07 8.06-1.47.74.17 1.83.49 1.75 1.34-3.37.03-6.44-.96-9.81.13zm-23.69-2.14c-5-.4-4.47 2.25-2 2.42s3.67-2.2 12 1.58c2.02-2.56-8.67-3.86-10-4z" fill="#905631"/><path d="M1106.92 149c-3.33 10.79-9.3 8.64-19.78 8.06-1.71-2.07-1.63-4.45-2.43-14.14 9-7.41 13.24-32.84-1.71-34.37-1.56-.17-3.45.18-5.32-3.71a22.08 22.08 0 01-1.77-5.48 1.37 1.37 0 00-.48-1c-2.93-1.89 0 8.69-1.83 10.83-1.32 1.52-15 1.75-13.91-3.79-6.19 10.42-8.93.55-10.81 13.16-1.56 10.59-4 17.45 5.89 23.7 0 .11.83 11.43-.19 13.33-.51.93-1.5 1.14-2.57 2.52-10-.91-16.55-6.88-17.71-17.65-2.49-22.95 2.94-26.51 4.81-30.75 2.71-6.2 1.09-13.56 3.45-19.9 5.94-15.93 34.17-18 43.12-8.58 5.19 5.48 5.72 12 9.37 18.6 5.95 10.82 19.09 25.79 11.87 49.17z" fill="#211c1b"/><path d="M1098 159.23c-19.86 15.7-12.76 13.08-31.18 13.08-25.75-18.62-16.8-10.9-15.11-14.29.55.1.19-.06 1.27-1 3.84-3.22 1.69-11.27 1.8-14.84 11.55 7.46 23.74 6.16 29.94.67 1.14 14.02-.25 16.38 13.28 16.38z" fill="#f2dacd" stroke="#000" stroke-miterlimit="10" stroke-width=".23"/><path d="M1079.88 134c-.1 0-8.22.1-11.94-.12-9.77-.58-6.32 3.07.63 4.34 9.64 1.78 13.33-3.52 11.31-4.22zm-1.8 1.44c-8.8 2.91-5.08 1.54-14.16-.23 16.29.36 16.08-.38 14.16.25z" fill="#de9b95"/><path d="M1068.36 116.8c-.21 6.67-1.94 7-2.77 9.58-1.91 6 9 3.82 9.52 3.11s.06-3.19-.58-4.6c-2.25-5-.2-4.76-1-7.7" fill="none" stroke="#de9b95" stroke-miterlimit="10" stroke-width=".91"/><path d="M1076.85 114.26c0 4.19 9.23 4.19 9.23 0s-9.23-4.21-9.23 0z" fill="#f2f2f2"/><path d="M1076.9 114.26c0 4 8.79 3.86 8.82 0-.14-3.56-8.77-3.73-8.82 0zm-.1 0c.15-4.78 9.53-4.88 9.65 0-.2 4.58-9.39 4.48-9.65 0z"/><path d="M1064.13 114.26c0 4.19-9.23 4.19-9.23 0s9.23-4.21 9.23 0z" fill="#f2f2f2"/><path d="M1064.18 114.26c-.26 4.47-9.44 4.57-9.64 0 .12-4.87 9.5-4.77 9.64 0zm-.09 0c0-3.74-8.68-3.58-8.82 0 0 3.87 8.82 4 8.82 0z"/><path d="M1084.1 114.25c0 3.49-5.27 3.49-5.27 0s5.27-3.49 5.27 0zm-21.95 0c0 3.49-5.27 3.49-5.27 0s5.27-3.49 5.27 0z" fill="#3fa9f5"/><path d="M1082.78 114.25a1.32 1.32 0 01-2.63 0 1.32 1.32 0 012.63 0zm-21.95 0a1.32 1.32 0 01-2.63 0 1.32 1.32 0 012.63 0z"/><path d="M1081.9 113.51a.44.44 0 01-.87 0 .44.44 0 01.87 0zm-21.9 0a.44.44 0 01-.87 0 .44.44 0 01.87 0z" fill="#fff"/><path d="M1044.79 388.37c-.29 12.47-.47 20.9-.4 22.39-8.42.67-33 1.92-34-6.47-1.08-9.18-5.75-50.12-6.83-59.55h4.27c-2.59 11.13 1.4 17.8 8.11 26.88 1.44 1.95 3 3.95 5.15 5 5.8-3.17-1.26-10.69-3.7-20.1a4 4 0 002.18.48 25.33 25.33 0 00.56-11.61 2.86 2.86 0 01-1.39-.69h2.26c0-34.79 8.09-167.79-5.74-169l11.88-6.66c20.77 67.31 21.5 49.96 17.65 219.33z" fill="#2f3030"/><path d="M1021.14 376.66c-3.1-1.56-17-16-13.26-31.92h10.91a2.86 2.86 0 001.39.69 25.33 25.33 0 01-.56 11.61 4 4 0 01-2.18-.48c2.45 9.44 9.56 16.91 3.7 20.1z" fill="#292929"/><path d="M1021 344.74h-23.85c0-123.09 4.64-128.61 18.09-169 13.9.04 5.76 132.48 5.76 169z" fill="#e5e2df" stroke="#000" stroke-miterlimit="10" stroke-width=".23"/><path d="M1132.55 410.35c-3 8-26.17 3.59-34.55 1.77.6-4.52 0-7.89-1-21.88-4.39-61.76 2.33-70.36 4.12-93.81 1.53-20.22-3.79-55.3 7.78-113.36.24-1.26 2.22-6.64 3-11.2l13.78 3.91c-16.81 63.06-16.66 44.88-3.07 128.93 1.55 9.62-1.74 31.29-3.46 40 5.06 0 4-.28 3.49.81-1.48 3.17-3.76 11.27-2.92 14.9.73 2.85 1.46 1.84 1.69 2.07 2.84 1.76-5.12 7.55-.71 12.66 1.23-1.06 15.3-19.61 15.49-29.67.02.03.33 54.52-3.64 64.87z" fill="#2f3030"/><path d="M1113.72 220.76c-.87 4-.68 4.46-.73 2.74zm5.46-20.5l-5.44 20.4c1.46-6.87 3.64-13.66 5.44-20.4z" fill="#242424"/><path d="M1109 183.07c-11.62 58.31-6.21 92.72-7.78 113.36-1.79 23.38-8.5 32.17-4.12 93.81 1 14 1.55 17.37 1 21.88-1.73-.37-7.43-1.58-7.4-2 5.47-92.85-3.26-111.55 18.13-239.14l3.19.9c-.85 4.55-2.83 9.93-3.02 11.19z" fill="#6e564c"/><path d="M1021.14 376.66c-3.13-1.57-17-16.06-13.26-31.92 12.17 0 5.87-1.92 9.56 11.82 2.45 9.44 9.56 16.91 3.7 20.1z" fill="#f1c7b2"/><path d="M1019.62 357c-4 .34-2.84-7.4-4.08-12.3 4.71 0 3.32.5 4.64.69a25.33 25.33 0 01-.56 11.61zm106.88-.51c-1.5 5.64-7.46 9.83-6.89.78.18-3 2.3-11.48 3.65-12.53 3.51 0 3.24-.18 3.52.54.54 1.41 1 6.36-.28 11.21z" fill="#f2dacd"/><path d="M1120.72 375.18c-3.77-4.36 1.92-10.77 1.5-11.93-.16-.44-.72-.65-.82-.75 6.31-1.26 6.6-14.06 5.38-17.22-.3-.77-2-.54 9.39-.54.57 9.66-14.17 29.26-15.45 30.44z" fill="#f1c7b2"/><path d="M1136.28 344.74c-.06.7 0 1.32-.11 0z" fill="#f1c7b2"/><path d="M1048.9 410.35s-1.76.2-4.51.41c-.26-5.31 3-106.51 1.94-155.56-.73-34.62-12.18-63.43-19.17-86.08l4.57-2.57c22.07 62.45 17.32 59.04 17.17 243.8z" fill="#6e564c"/><path d="M1031.61 166.59c.29-.09.41-.2-4.45 2.53-.4-1.35-1.26-.74 4.45-2.53zm17.29 243.76c0 .26-4.47.84-4.51.41 2.75-.21 4.51-.41 4.51-.41z" fill="#74594e"/><path d="M1143.41 344.74c-27.85 0-24.29.33-24.11-.77.11 0 5.16-27.85 3.33-39.26-13.64-84.39-13.75-65.84 3.07-128.93 29.3 80.58 17.71 113.62 17.71 168.96z" fill="#e5e2df" stroke="#000" stroke-miterlimit="10" stroke-width=".23"/><path d="M1119.18 200.26l-5.44 20.4c1.46-6.87 3.64-13.66 5.44-20.4z" fill="#e5e2df"/><path d="M683.4 142.22c-9.84-6.21-7.46-13.07-5.9-23.69 1.72-11.48 4.62-4.55 9.24-10.73-3.09-.38-4.13.59-5.79.48-2.48-.18-3.1-2.82 2-2.42 5.42.46 4.21 1.48 5.38-.5a2.72 2.72 0 00.11 1.39c2.78.64 5.4 1.62 4.68 2.94 15.81 2 7.34-6.69 9.73-10.93 1.63-3.05 1.73 3.84 4.29 7.5 2.13-.31 9.51-.37 9.32 1.65-1 0-11.75-1.11-6.84.36.84.25 9.08 0 11.55 9.35 4.4 16.49-12.8 40.74-37.77 24.6z" fill="#f2dacd"/><path d="M692.36 134.79c-1.22.7 7.44 5.4 15.12.8 1.71-1-1.4-.63-3.28-.56-.9.03-10.99-.73-11.84-.24z" fill="#f2f2f2"/><path d="M733.22 564.81c-1 3.46-2.6 3.61-16.89 3.32s-9.67-9.53-9.67-10.1c3.28 1.55 10.8 2 14.43 2.06 13.15.24 10.21-11.83 11.22-7 0 .3 1.88 8.37.91 11.72z" fill="#4a4746"/><path d="M688.47 568.23c-10-.53-13.57-1.4-13.42-6.16s2.92-7.37 3.4-5.31c.87 3.57 7 2.83 22.16 1.56 1.05-.09-2.18 10.44-12.14 9.91z" fill="#57534f"/><path d="M744 389.45c-2.22 24.5-4.72 114.43-16.16 136.1-4.09 7.76.92 15.66 1.15 16-.89-.15-9-2.51-10.82-3-8.37-2.45-8.22 2.31-9 3-4.15-92-2.25-57.7-8.47-149.55-3.16-2.42-5-1.94 4.21-1.23 2.29.39 3.94.23 39.09-1.32z" fill="#62737a"/><path d="M702.18 541.57s-6.93-4.76-13.57-1.68c-1.69.77-.81.87-1.06-.8-.61-4.11-1.93-1.65-12.51-23.45-6.54-13.47-10-65.82-9.62-74.66s-9.63-51.58-8.85-53.89c44.37 3.39 41 2.46 44.21 4.93 9.45 139.58 9.02 124.49 1.4 149.55z" fill="#495e69"/><path d="M732.31 553.1c-1-4.82 1.92 7.23-11.22 7-2.07 0-14-.48-13.85-2.55.4-5.1-.59-13.6 1.92-17.94.28 6.17-1.63-4.18 9-1.06 10.22 3 9.18 1.05 12.5 9.24a20 20 0 011.65 5.31zm-31.7 5.22c-14.82 1.24-21.29 2-22.16-1.56.21-2.82 10.37-22.16 9.08-16.32 4.82-2.71 10.7-1.58 14.65 1.13l1-3.28c1.44 2.63.16 15.99-2.57 20.03z" fill="#f2dacd"/><path d="M772 344.75c-27 0-24.28.34-24.1-.77-1-2.29.87-8.2 1.11-10.39 4.38-40.74-11.86-83-7.4-109.15.1 0-.26-.07 12.69-48.66C783.63 256.42 772 289 772 344.75z" fill="#e5e2df"/><path d="M747.69 200.69l-5.35 20.06c1.43-6.75 3.57-13.42 5.35-20.06z" fill="#e5e2df"/><path d="M755.49 387.86c-8.51.67-11.53 2.4-11.46 1.59-38.83 1.68-34.94 1.65-39 1.35-71.59-5.4-65.32.69-70.71-46.05h2.17c-3.64 15.61 10.12 30.34 13.26 31.91 5.73-3.13-1.08-10-3.7-20.09a4 4 0 002.17.47 25.47 25.47 0 00.57-11.61 3 3 0 01-1.4-.68h2.23c0-52.53.92-39.9 2.21-72.22.1 0 91.85-.09 93.23-.7 3.21 20.92 7.18 50.94 2.71 72.92 4.8 0 4.15-.09 3.88.19-1.53 1.53-5.21 15.43-2.5 17.41.29.2 2.39.1 1.45 2-1.79 3.4-4 7.63-1.27 10.85 2.61-2.26 13.06-19.34 14.15-22.61.52 9.04 2.05 34.46-7.99 35.27z" fill="#2f3030"/><path d="M745.08 271.83c-1.24.55-93.13.72-93.23.7.16-10.24 2.7-96.75-8-96.75 10.62-7.27 5.19-4.38 24.52-12.7l13.2 19.63 13.85-10.4c12.1 0 7.14-2.46 21.94 12.33l16.55-16.94 20.4 8.08c-15.74 59.12-16.41 49.49-9.23 96.05z" fill="#e5e2df" stroke="#000" stroke-miterlimit="10" stroke-width=".23"/><path d="M755.12 356.49c-1.44 5.44-5.68 7.3-6.4 5.12-1.64-4.59 1.83-15.82 3.17-16.86 3.5 0 3.24-.19 3.52.54.59 1.4 1 6.36-.29 11.2z" fill="#f2dacd"/><path d="M764.9 344.75c-.47 5.72-.62 7.59-5.18 14.94-7.62 12.29-8.35 13.75-10.37 15.5-4.39-5.08 3.53-10.92.71-12.66h.09c6.47-1.09 6.53-15.69 5-17.73zm-115.13 31.91c-3.13-1.57-17-16.06-13.26-31.91 12.16 0 5.87-1.93 9.56 11.82 2.44 9.43 9.53 16.9 3.7 20.09z" fill="#f1c7b2"/><path d="M648.24 357c-4 .34-2.84-7.4-4.07-12.29 4.71 0 3.32.49 4.64.68a25.47 25.47 0 01-.57 11.61z" fill="#f2dacd"/><path fill="#f3f1ef" d="M695.44 172.31l-13.85 10.4-13.2-19.63 8.96-3.85 18.09 13.08zm38.49-4.61l-16.55 16.94c-15.52-15.51-14.31-12.33-7.31-12.33l16.55-13.08z"/><path d="M716.45 107.91c-3.37 0-6.49-1-9.82.13-1.88.64-2.37-.13-2.28-.67.33-1.77 12.33-1.84 12.1.54zM693 109.86c-8.31-3.78-9.46-1.42-12-1.58-2.8-.21-4-4.12 7.48-1.53 1.91.46 5.8 1.56 4.52 3.11z" fill="#905631"/><path d="M735.54 149c-3.32 10.78-9.3 8.63-19.77 8.05-1.72-2.08-1.69-4.7-2.43-14.13 9-7.42 13.24-32.84-1.71-34.37-1.25-.14-2.12 0-3.25-.9 2.71-.4 5.28.27 8.07.28.08-.85-1-1.18-1.76-1.34-8-1.82-6.87 1.38-8.38-1.75a21.87 21.87 0 01-1.77-5.49c-.31-1.8-2-1.44-1.9.85.25 6.55.55 7.84-.42 9-1.34 1.55-7.69.66-7.59.67-2.89-.16.72-1.47-6.2-3.07-.47-1.44.45-2.16-.86-.18-10.92-2.23-10.62 2.59-4.06 1.33 5.86-1.16 1.32 2.09-.06 2.62-4.57 1.76-4.46-1.65-7 14.89-1.06 7.07-.48 12.14 6.92 16.81 0 .19.9 11.31-.19 13.33a12.65 12.65 0 01-2.88 2.48c-10.5-1.55-16.27-7.06-17.41-17.61-2.48-22.93 2.94-26.48 4.81-30.75 2.72-6.2 1.1-13.56 3.46-19.9 5.93-15.9 34.14-18 43.12-8.58 5.19 5.49 5.72 12 9.37 18.61 5.73 10.34 19.1 25.82 11.89 49.15z" fill="#211c1b"/><path d="M687.57 106.57c-1.32 2.17-.44.61-4.06 1.33-6.27 1.21-7.1-3.61 4.06-1.33zm5.54 3.12c-2.05-.24-4-1-4.68-2.94 2.78.64 5.4 1.62 4.68 2.94zm23.34-1.78c-2.79 0-5.36-.68-8.07-.28a6.08 6.08 0 01-1.25-1.37c2.13-.26 9.51-.37 9.32 1.65z" fill="#211c1b"/><path d="M726.62 159.23c-19.87 15.7-12.76 13.08-31.18 13.08-25.76-18.62-16.8-10.9-15.11-14.28.55.1.18-.07 1.27-1 3.84-3.21 1.69-11.28 1.8-14.85 7.87 5.09 18.8 7.6 27.9 2.17 2.75-1.65 1.84-3.57 2.71 6.62.74 8.86 5.15 8.26 12.61 8.26z" fill="#f2dacd" stroke="#000" stroke-miterlimit="10" stroke-width=".23"/><path d="M708.5 134c-.1 0-8.34.1-11.94-.13-9.57-.57-6.52 3.05.64 4.35 9.52 1.78 13.36-3.47 11.3-4.22zm-1.8 1.45c-8.79 2.9-5.07 1.53-14.16-.24 16.3.36 16.11-.38 14.16.26z" fill="#de9b95"/><path d="M697 116.8c-.21 6.67-1.94 7-2.77 9.58-1.91 6 9 3.82 9.52 3.11s.06-3.19-.58-4.6c-2.25-5-.2-4.76-1-7.7" fill="none" stroke="#de9b95" stroke-miterlimit="10" stroke-width=".91"/><path d="M705.48 114.26c0 4.19 9.23 4.19 9.23 0s-9.23-4.21-9.23 0z" fill="#f2f2f2"/><path d="M705.53 114.26c0 4 8.8 3.86 8.82 0-.14-3.56-8.77-3.73-8.82 0zm-.1 0c.15-4.78 9.53-4.88 9.65 0-.2 4.58-9.39 4.48-9.65 0z"/><path d="M692.77 114.26c0 4.19-9.24 4.19-9.24 0s9.24-4.21 9.24 0z" fill="#f2f2f2"/><path d="M692.81 114.26c-.26 4.47-9.44 4.57-9.64 0 .12-4.87 9.5-4.77 9.64 0zm-.09 0c-.05-3.74-8.68-3.58-8.82 0 0 3.87 8.82 4 8.82 0z"/><path d="M712.73 114.25c0 3.49-5.27 3.49-5.27 0s5.27-3.49 5.27 0zm-21.95 0c0 3.49-5.27 3.49-5.27 0s5.27-3.49 5.27 0z" fill="#3fa9f5"/><path d="M711.42 114.25a1.32 1.32 0 01-2.64 0 1.32 1.32 0 012.64 0zm-21.95 0a1.32 1.32 0 01-2.64 0 1.32 1.32 0 012.64 0z"/><path d="M710.53 113.51a.44.44 0 01-.87 0 .44.44 0 01.87 0zm-21.95 0a.44.44 0 01-.87 0 .44.44 0 01.87 0z" fill="#fff"/><path d="M649.64 344.75h-23.87c0-7.24 1.27-90.77 2.32-101.23 1.11-11.09 6.9-44.26 8.85-48.5 2.27-5 6.83-19.24 6.93-19.24 13.94 0 5.77 131.99 5.77 168.97z" fill="#e5e2df"/><path d="M741.58 247.4c3 25.13 5.87 25-.76 25-.11 0-89-.17-89-.27.09-10.6 2.62-96.37-8-96.37 11.23-7.69 3.42-3.62 33.48-16.55l18.09 13.08c18.42 0 11.31 2.62 31.18-13.08 9.21 10.66 3.23 6.85 27.71 16.55C741 226 739.18 227 741.58 247.4z" fill="none" stroke="#76583e" stroke-miterlimit="10" stroke-width=".23"/><g opacity=".1"><path fill="#fffffe" d="M171.8 177.75h315.92v418.68H171.8z"/><path fill="#1b1919" d="M171.8 387.09h315.92v209.34H171.8z"/></g><g opacity=".1"><path fill="#fffffe" d="M541.01 67.68h315.92v418.68H541.01z"/><path fill="#1b1919" d="M541.01 277.02h315.92v209.34H541.01z"/></g></svg>