<svg xmlns="http://www.w3.org/2000/svg" viewBox="0 0 1400 780"><path fill="#cbcbcb" d="M0 0h1400v780H0z"/><path d="M956.55 629.48C961.44 633 968.46 645 968.46 645c-15.59 11.63-27.72 5.84-28.1 5.66s-2-18.42-2.09-22.09v-.24c0-3.4 11.57-.15 16.16.24a4.67 4.67 0 012.12.91zm-34.46-.99c4.6-.4 16.16-3.65 16.16-.23v.24c-.1 3.67-2.1 22.09-2.1 22.09-.38.18-12.51 6-28.09-5.66 0 0 7-12 11.92-15.49a4.52 4.52 0 012.11-.95zM871 412.94h16.67v15a3.38 3.38 0 01-2.74-1.35c.71 2.29 5.33 17.79 1.6 18h-.15c-1.34.08-3.45-3.34-5.71-8z" fill="#c49482"/><path d="M949 458.74l.74-14.13.17-3.19v-.48l.08-1.55.17-3.14.43-8.42.06-1.18v-.53l.49-9.51v-.08l.2-3.59.1-2L953 382l8.45-160.67c4.47-3.55 7.3-6.62 7-11.19a71 71 0 0112 3.28c5 45.67 8.77 151.12 7 199.5h1.31v15a3.46 3.46 0 003-1.62c-.25.8-5.63 18.05-1.69 18.3 1.37.08 3.57-3.5 5.88-8.31l-2.76 59.53h-46.13l1.75-33.36zm-52.86-245.3a72.65 72.65 0 0111.86-3.25c-.3 4.61 2.59 7.7 7.15 11.29l.54 10.42 8 152 1.54 29.08.68 13v.71l.06 1.29.66 12.54v.96l1.11 21.05 1.75 33.36h-46.08l-2.74-59.18c2.26 4.62 4.37 8 5.71 8h.15c3.73-.24-.89-15.74-1.6-18a3.38 3.38 0 002.74 1.35v-15h1.46c-1.76-48.5 2.04-153.95 7.01-199.62z" fill="#191919"/><path d="M956.85 658.58c-11 3.14-16.21-7.38-16.47-8 .38.18 12.51 6 28.1-5.66a15.25 15.25 0 01-11.63 13.66z" fill="#302f30"/><path d="M915.17 221.48c2.29 1.8 5 3.73 8 6.06l15.12-10.61 15.14 10.61c3-2.37 5.77-4.34 8.1-6.19L953 382l-1.52 29-.1 2-.2 3.59v.08l-.49 9.51v.53l-.06 1.18-.43 8.42-.17 3.14-.08 1.55v.48l-.17 3.19-.78 14.07-.2 3.73h-21l-1.11-21.05v-.96l-.69-12.54-.06-1.29v-.71l-.68-13-1.54-29.08-8-152z" fill="#f7f5f6"/><path d="M938.25 216.93c-9.12-1.7-17-5.45-23.23-12.05 9.38 2.56 11.77-7.17 12.76-19.38 5.48 4.64 5.07 6.24 10.47 6.24s5-1.6 10.48-6.26c1 12.22 3.38 22 12.76 19.4-6.21 6.6-14.11 10.35-23.24 12.05zm50.58 211v-15h16.67l-9.5 23.36c-2.31 4.81-4.51 8.39-5.88 8.31-3.94-.25 1.44-17.5 1.69-18.3a3.46 3.46 0 01-2.98 1.63z" fill="#c49482"/><path d="M919.64 658.58A15.28 15.28 0 01908 645c15.58 11.63 27.71 5.84 28.09 5.66-.22.53-5.44 11.04-16.45 7.92z" fill="#302f30"/><path d="M877.78 223.71a58.44 58.44 0 0116.16-9.47 71.53 71.53 0 0114.06-4.08 72.65 72.65 0 00-11.88 3.25c-5 45.67-8.77 151.12-7 199.5H871l-8.34-1c-5.17-1.59.18-175.37 15.12-188.2z" fill="#f7f5f6"/><path d="M954.41 628.5c-4.59-.39-16.16-3.64-16.16-.24V462.47h10.56l-1.75 33.36h33.23l-23.74 133.65a4.67 4.67 0 00-2.14-.98z" fill="#7c8d93"/><path d="M953.39 227.54l-15.14-10.61c9.13-1.7 17-5.45 23.24-12.05.61-.65 1.21-1.32 1.78-2l5.22 7.3c.3 4.57-2.53 7.64-7 11.19-2.33 1.83-5.08 3.8-8.1 6.17z" fill="#f7f5f6"/><path d="M920.19 176.8c-7.3-11.48.69-38.93 18.06-38.32 17.38-.61 25.37 26.84 18.07 38.32a37.54 37.54 0 01-7.59 8.68c-5.48 4.66-5.1 6.26-10.48 6.26s-5-1.6-10.47-6.24a38.14 38.14 0 01-7.59-8.7z" fill="#c49482"/><path d="M908.17 210.16h-.15l5.22-7.3c.58.7 1.17 1.37 1.78 2 6.21 6.6 14.11 10.35 23.23 12.05l-15.12 10.61c-3-2.33-5.67-4.26-8-6.06v-.13c-4.43-3.53-7.26-6.6-6.96-11.17z" fill="#f7f5f6"/><path d="M902.46 167.21c3.46-40.35 17.65-42.91 35.79-46.38 18.16 3.47 32.34 6 35.8 46.38 3.3 38.57-10.78 35.65-10.78 35.65-.57.7-1.17 1.37-1.78 2-9.38 2.56-11.77-7.18-12.76-19.4a37.54 37.54 0 007.59-8.68c7.3-11.48-.69-38.93-18.07-38.32-17.37-.61-25.36 26.84-18.06 38.32a38.14 38.14 0 007.59 8.7c-1 12.21-3.38 21.94-12.76 19.38-.61-.65-1.2-1.32-1.78-2 0 0-14.08 2.92-10.78-35.65z" fill="#312a28"/><path d="M987.52 412.94c1.77-48.38-2-153.83-7-199.5a59.93 59.93 0 0118.21 10.27c14.94 12.83 20.29 186.61 15.11 188.19l-8.34 1h-18z" fill="#f7f5f6"/><path d="M920 629.46l-23.78-133.63h33.38l-1.75-33.36h10.4v165.79c0-3.42-11.56-.17-16.16.23a4.52 4.52 0 00-2.09.97z" fill="#435865"/><path d="M956.55 629.48C961.44 633 968.46 645 968.46 645a15.25 15.25 0 01-11.61 13.63c-11 3.14-16.21-7.38-16.47-8h0m-.04-.04s-2-18.42-2.09-22.09" fill="none" stroke="#000" stroke-linecap="round" stroke-linejoin="round" stroke-width=".83"/><path d="M940.34 650.59h0c.38.18 12.51 6 28.1-5.66m11.85-149.1l-23.74 133.65a4.67 4.67 0 00-2.14-1c-4.59-.39-16.16-3.64-16.16-.24V462.47M871 412.94l-8.34-1c-5.18-1.58.17-175.36 15.11-188.19a58.44 58.44 0 0116.16-9.47 71.53 71.53 0 0114.07-4.12v0m7.17 11.32c2.29 1.8 5 3.73 8 6.06l15.12-10.61 15.14 10.61c3-2.37 5.77-4.34 8.1-6.19M923.7 383.86l-7.99-151.96m10.21 194.02l-.68-12.98m.71 13.36l-.02-.13m.1 1.75l-.06-1.29m.77 14.79l-.03-.46-.02-.5m22.12 22.01h-20.96m21.9-17.86l-.74 14.13m.94-17.8l-.03.48m.28-5.17l-.17 3.14m.66-12.74l-.06 1.18m.59-11.22l-.49 9.51m.69-13.18l-.2 3.59m1.82-34.51l-1.52 28.96m29-197.54a59.93 59.93 0 0118.21 10.27c14.94 12.83 20.29 186.61 15.11 188.19l-8.34 1h-16.67m-20.34-202.74l-5.22-7.3M915 204.88c-.61-.65-1.2-1.32-1.78-2 0 0-14.08 2.92-10.78-35.65 3.46-40.35 17.65-42.91 35.79-46.38 18.16 3.47 32.34 6 35.8 46.38 3.3 38.57-10.78 35.65-10.78 35.65-.57.7-1.17 1.37-1.78 2" fill="none" stroke="#000" stroke-linecap="round" stroke-linejoin="round" stroke-width=".83"/><path d="M948.73 185.48a37.54 37.54 0 007.59-8.68c7.3-11.48-.69-38.93-18.07-38.32-17.37-.61-25.36 26.84-18.06 38.32a38.14 38.14 0 007.59 8.7m65.47 237.74a8.8 8.8 0 01-1.42 3v0M938.25 628.5c-.1 3.67-2.1 22.09-2.1 22.09m-.02.02c-.26.58-5.48 11.09-16.49 8A15.28 15.28 0 01908 645s7-12 11.92-15.49a4.52 4.52 0 012.13-1c4.6-.4 16.16-3.65 16.16-.23" fill="none" stroke="#000" stroke-linecap="round" stroke-linejoin="round" stroke-width=".83"/><path d="M936.15 650.59h0c-.38.18-12.51 6-28.09-5.66m11.9-15.45v-.02l-23.74-133.63m42.03 132.43v1.25m-25.01-426.65l-5.22 7.3m19.76-24.66v-.02m33.71 19.4c-6.21 6.6-14.11 10.35-23.24 12.05-9.12-1.7-17-5.45-23.23-12.05 9.38 2.56 11.77-7.17 12.76-19.38 5.48 4.64 5.07 6.24 10.47 6.24s5-1.6 10.48-6.26c.99 12.22 3.38 21.96 12.76 19.4zm-78.23 218.36a8.8 8.8 0 001.42 3h0M996 436.3l-2.76 59.53h-46.18l1.75-33.36.2-3.73.74-14.13.17-3.19v-.48l.08-1.55.17-3.14.43-8.42.06-1.18v-.53l.49-9.51v-.08l.2-3.59.1-2L953 382l8.45-160.67c4.47-3.55 7.3-6.62 7-11.19a71 71 0 0112 3.28c5 45.67 8.77 151.12 7 199.5h1.31v15a3.46 3.46 0 003-1.62c-.25.8-5.63 18.05-1.69 18.3 1.43.09 3.63-3.49 5.93-8.3z" fill="none" stroke="#000" stroke-linecap="round" stroke-linejoin="round" stroke-width=".83"/><path fill="none" stroke="#000" stroke-linecap="round" stroke-linejoin="round" stroke-width=".83" d="M915.17 221.48l.54 10.42 7.99 151.96 1.54 29.08.68 12.98.01.25.02.13.02.33.06 1.29.66 12.54.02.5.03.46 1.11 21.05 1.75 33.36h-46.19l-2.74-59.18"/><path d="M887.68 412.94h1.46c-1.77-48.38 2-153.83 7-199.5a72.65 72.65 0 0111.86-3.25m0 0h.15c-.3 4.57 2.53 7.64 7 11.19v.13c-4.54-3.62-7.43-6.71-7.15-11.32zm88.01 226.11v-.01l9.49-23.35m-117.82 0v15h0a3.38 3.38 0 01-2.74-1.35c.71 2.29 5.33 17.79 1.6 18h-.15c-1.34.08-3.45-3.34-5.71-8L871 412.94z" fill="none" stroke="#000" stroke-linecap="round" stroke-linejoin="round" stroke-width=".83"/><path d="M383.82 173.62h108.2v432.76h-108.2z"/><path fill="#fff" stroke="#000" stroke-miterlimit="10" d="M492.02 173.62h108.2v432.76h-108.2z"/><path d="M600.22 173.62h108.2v432.76h-108.2z"/></svg>
