<svg xmlns="http://www.w3.org/2000/svg" viewBox="0 0 1400 780"><path fill="#ccc" d="M0 0h1400v780H0z"/><path fill="#fffffe" d="M169.82 185.54h322.14v408.93H169.82z"/><path fill="#1b1919" d="M386.39 185.54h105.57v408.93H386.39zm-216.57 0h105.57v408.93H169.82z"/><path d="M1184.87 426.29c11.89-15.51 33.77-38.71 20-76.14-6.19-16.77-40.43-70.93-68.82-94.78-19.48-16.37-28.92-10.44-48.22 1.5-33.4 20.67-55.92 16-69.43 23.5-75.08 41.7-62.07 186.88-8.56 179.07 7.65-1.12 7.55-3.52 19-1.07 120.51 25.87 122.51 11.63 156.03-32.08z" fill="#f2dacd"/><path d="M1059.36 409.61c-5 2.88 30.48 22.15 62 3.28 7-4.23-5.71-2.57-13.43-2.29-3.72.14-45.1-2.99-48.57-.99z" fill="#f2f2f2"/><path fill="#f3f1ef" d="M1071.99 563.43l-56.76 42.6-54.11-80.45 36.72-15.77 74.15 53.62zm157.8-18.92l-67.86 69.43c-63.63-63.57-58.66-50.51-30-50.51l67.85-53.62z"/><path d="M1117.85 300c-17.22 5.83-13.23-16.7 33-6.06 3 .7 7.52 2 7.18 5.52-13.79-.05-26.38-4.13-40.18.54zm-97.09-9c-20.42-1.65-18.36 9.23-8.17 9.9 10.64.7 15-9 49.35 6.49 8.06-10.39-35.77-15.91-41.18-16.39z" fill="#905631"/><path d="M1199.8 509.81c-81.43 64.34-52.31 53.62-127.81 53.62-105.57-76.34-68.88-44.69-61.94-58.57 2.25.41.76-.26 5.21-3.93 15.74-13.21 6.94-46.21 7.38-60.86 47.35 30.6 97.31 25.24 122.72 2.78 4.71 57.27-1 66.96 54.44 66.96z" fill="#f2dacd" stroke="#000" stroke-miterlimit="10" stroke-width=".94"/><path d="M1125.55 406.46c-.42-.14-33.7.41-48.94-.48-40-2.4-25.89 12.58 2.58 17.79 39.5 7.07 54.65-14.5 46.36-17.31zm-7.39 5.92c-36 11.91-20.79 6.3-58-1 66.76 1.44 66.01-1.6 58 1z" fill="#de9b95"/><path d="M1078.32 335.89c-.84 27.34-8 28.68-11.34 39.24-7.84 24.45 37 15.68 39 12.78s.22-13.07-2.38-18.85c-9.24-20.5-.83-19.53-4.2-31.56" fill="none" stroke="#de9b95" stroke-miterlimit="10" stroke-width="3.75"/><path d="M1113.13 325.45c0 17.2 37.85 17.2 37.85 0s-37.85-17.25-37.85 0z" fill="#f2f2f2"/><path d="M1113.32 325.45c.26 13.46 21.7 14.18 30.45 9 5.19-2.65 7.64-9.21 4-14.05-3.67-4.54-10-5.73-15.7-6-7.42-.28-18.4 1.85-18.72 11.06zm-.37 0c-.21-4.48 2.64-8.59 6.34-11a25.9 25.9 0 0125.92-.76c9.69 5.29 9.76 18-.28 22.88-10 5.49-31.31 2.82-32-11.14z"/><path d="M1061 325.45c0 17.2-37.84 17.2-37.84 0s37.84-17.25 37.84 0z" fill="#f2f2f2"/><path d="M1061.2 325.45c-.67 14-21.93 16.63-32 11.14-10-4.91-10-17.59-.27-22.88a25.9 25.9 0 0125.92.76c3.7 2.39 6.55 6.5 6.34 11zm-.37 0c-.33-9.21-11.3-11.34-18.73-11.06-5.69.28-12 1.47-15.69 6-3.67 4.84-1.22 11.4 4 14.05 8.74 5.18 30.18 4.46 30.45-9z"/><path d="M1142.87 325.44c0 14.3-21.63 14.3-21.63 0s21.63-14.31 21.63 0zm-89.98 0c0 14.3-21.62 14.3-21.62 0s21.62-14.31 21.62 0z" fill="#3fa9f5"/><path d="M1137.46 325.44c0 7.15-10.81 7.15-10.81 0s10.81-7.15 10.81 0zm-89.97 0c0 7.15-10.81 7.15-10.81 0s10.81-7.15 10.81 0z"/><path d="M1133.83 322.39a1.78 1.78 0 01-3.55 0 1.78 1.78 0 013.55 0zm-89.98 0a1.77 1.77 0 01-3.54 0 1.77 1.77 0 013.54 0z" fill="#fff"/><path d="M1019 389.85c9 80.36-5.27 114.93 10.23 143.95a56.08 56.08 0 00-12-15.26l-2.24 11.05-10.3-5.42-.94 9.88-11.15-7.15-2.12 12.17c-10.23-15.22-6.33-35.11-6.31-53.3.1-67.43-32.13-55-15.19-225.35 2.15-21.67 5.09-45.07 20.47-60.87 16.12-16.55 62.47-29.4 78.23-31.92 25.61-4.09 69.07.81 76.81 3.47 9.28 3.21 39.79 24.51 51.18 41.41 24.92 37 20.6 138.34 18.87 183.32-1.88 49.05-4.9 100.14-29.69 142.88-10.87-13.61-21.66-8.73-23.77-3.16l-5.27-12.55c-8.58.62-9.44 11.52-5.63-4l-8.43 10.73c3.64-4.63 0-33 .51-40.85 7.64-126.66 47.16-107.09 17.59-210.31a19.55 19.55 0 01-5.06 9.91c-16.19-19.66-3.59-9.5-16.87 5a28.11 28.11 0 00-3.65-17.11c1 8-4.79 16.2-12.76 18.25a19.43 19.43 0 00-11.59-12.69 54.62 54.62 0 01-10.26 12.39l-3.3-9.8a19.22 19.22 0 01-8.44 12.37 64.65 64.65 0 00-22.92-16.58c6.62 18.27 8.74 17.14-9.6.44a55.73 55.73 0 003.7 18.24 109.57 109.57 0 01-26.89-19.81 83.2 83.2 0 006 19.83 28.78 28.78 0 01-17.12-19.07 74 74 0 00-2 21.07 27.85 27.85 0 01-10.36-.85c-4.87-1.33 9.12 79.19 10.27 89.69z" fill="#333"/><path d="M748.15 169.65c3.33-4.45 9.45-11.1 5.59-21.83-1.74-4.82-11.33-20.33-19.29-27.17-5.46-4.7-8.09-3-13.49.42-9.36 5.93-15.67 4.59-19.43 6.74-21 12-17.38 53.55-2.41 51.34 2.14-.32 2.11-1 5.31-.3 33.78 7.39 34.35 3.33 43.72-9.2z" fill="#f2d9cd"/><path d="M714.35 164.42c-1.47.84 8.94 6.46 18.23 1 2-1.21-1.69-.75-4-.67-1.04 0-13.2-.92-14.23-.33z" fill="#f1f1f1"/><path d="M743.25 686.81c-17.23-.35-11.7-11.49-11.7-12.22 4 1.87 13 2.41 17.4 2.49 15.85.27 12.31-14.26 13.53-8.44 1.68 18.46 5.52 18.67-19.23 18.17z" fill="#4a4746"/><path d="M709.66 686.93c-12-.64-16.36-1.69-16.17-7.43s3.5-8.88 4.09-6.4c1 4.31 8.45 3.45 26.72 1.88 1.23-.11-2.63 12.58-14.64 11.95z" fill="#57534f"/><path d="M774.4 501.78c-.59 9.54-4 108.65-17.23 133.7-4.94 9.35 1.1 18.87 1.38 19.28-1.11-.18-10.86-3-13-3.61-10.12-2.88-9.92 2.78-10.78 3.61-1.6-35-6.73-178.55-13.35-182.39 14.82 1.21 9 1 26.32.27l-1 23.94a185.83 185.83 0 0027.66 5.2z" fill="#617379"/><path d="M726.19 654.79s-8.34-5.7-16.35-2c-2 .94-1 1-1.29-1-.73-4.93-2.4-2.08-15.08-28.27-7.86-16.25-12.06-79.35-11.59-90 .23-5.39-2.72-21.17-5.6-35.84a189.29 189.29 0 0020.2-1.08v-26.11c27.72 2.11 24.41 1.21 28 4 11.41 168.28 10.9 150.1 1.71 180.3z" fill="#485e68"/><path d="M762.51 668.69c-1.2-5.81 2.32 8.58-13.52 8.44-2.5 0-16.89-.58-16.71-3.08.45-6.15-.7-16.39 2.33-21.62.34 7.43-2-5 10.84-1.28 12.32 3.62 11.06 1.2 15.06 11.14a23.93 23.93 0 012 6.4zM724.32 675c-17.86 1.5-25.66 2.41-26.71-1.88.25-3.4 12.5-26.73 11-19.67 5.81-3.27 12.88-1.91 17.64 1.36l1.21-4c1.68 3.19.13 19.3-3.14 24.19z" fill="#f2d9cd"/><path d="M781.2 243.34l-6.56 24.59c1.76-8.28 4.36-16.46 6.56-24.59z" fill="#e4e1de" stroke="#000" stroke-miterlimit="10" stroke-width=".28"/><path d="M768.6 208.07c-22.27 132.77-16.29 144.55-20.9 264.63-18.42.78-7.33 1.2-51.22-2.17.48-193.65 5-195-20.7-267.79-25.95 14.54-23.52 13.62-9.72 4.17l19.4-8.35 15.91 23.66c20.06-15.06 13.69-12.54 28.28-12.54l14.86 14.86 20-20.41c31.72 12.53 32.35 11.87 4.09 3.94z" fill="#e4e1de" stroke="#000" stroke-miterlimit="10" stroke-width=".28"/><path fill="#f2f0ee" d="M718.07 209.65l-16.7 12.54-15.9-23.67 10.79-4.64 21.81 15.77zm46.41-5.56l-20 20.41c-18.71-18.69-17.25-14.85-8.81-14.85l20-15.77z"/><path d="M731.55 132.12c-5.07 1.69-3.89-4.9 9.72-1.77.89.21 2.21.59 2.11 1.62-4.06.03-7.77-1.19-11.83.15zM703 129.54c-6-.56-5.39 2.71-2.41 2.92s4.42-2.65 14.46 1.9c2.44-3.08-10.45-4.67-12.05-4.82z" fill="#915537"/><path d="M766.42 181.55c-4 13-11.21 10.41-23.85 9.71-2.06-2.49-2-5.36-2.93-17 10.85-8.93 16-39.53-2.06-41.43-1.88-.2-4.17.22-6.41-4.48a26.38 26.38 0 01-2.13-6.6 1.69 1.69 0 00-.58-1.21c-3.54-2.28 0 10.49-2.21 13.06-1.58 1.84-18.08 2.11-16.77-4.57-7.46 12.56-10.78.66-13 15.86-1.89 12.77-4.82 21 7.1 28.57 0 .14 1 13.79-.23 16.07-.61 1.13-1.81 1.38-3.1 3-12.05-1.1-19.94-8.29-21.34-21.28-3-27.66 3.55-31.95 5.79-37.07 3.28-7.46 1.32-16.34 4.16-24 7.16-19.2 41.2-21.7 52-10.34 6.27 6.6 6.91 14.46 11.3 22.42 7.14 13.05 22.96 31.1 14.26 59.29z" fill="#211c1b"/><path d="M755.66 193.88c-23.94 18.93-15.38 15.77-37.59 15.77-31-22.45-20.24-13.14-18.21-17.23.67.12.22-.08 1.53-1.2 4.6-3.93 2-13.59 2.17-17.89 13.93 9 28.62 7.42 36.1.8 1.34 16.87-.31 19.75 16 19.75z" fill="#f2d9cd" stroke="#000" stroke-miterlimit="10" stroke-width=".28"/><path d="M733.82 163.47c-.12 0-9.91.12-14.39-.15-11.78-.7-7.62 3.69.76 5.23 11.62 2.14 16.07-4.24 13.63-5.08zm-2.17 1.73c-10.61 3.51-6.12 1.86-17.07-.28 19.64.44 19.39-.45 17.07.31z" fill="#e09a95"/><path d="M719.93 142.73c-.25 8-2.34 8.44-3.34 11.55-2.31 7.23 10.85 4.6 11.48 3.75s.07-3.85-.7-5.55c-2.72-6-.24-5.74-1.2-9.28" fill="none" stroke="#e09a95" stroke-miterlimit="10" stroke-width="1.1"/><path d="M730.17 139.67c0 5.05 11.13 5.05 11.13 0s-11.13-5.08-11.13 0z" fill="#f1f1f1"/><path d="M730.23 139.67c0 4.82 10.7 4.65 10.63 0-.07-4.3-10.6-4.5-10.63 0zm-.12 0c.18-5.76 11.49-5.88 11.63 0-.24 5.52-11.32 5.4-11.63 0z"/><path d="M714.83 139.67c0 5.05-11.12 5.05-11.12 0s11.12-5.08 11.12 0z" fill="#f1f1f1"/><path d="M714.9 139.67c-.32 5.39-11.38 5.51-11.63 0 .15-5.87 11.46-5.75 11.63 0zm-.11 0c0-4.51-10.55-4.32-10.64 0-.09 4.66 10.64 4.82 10.64 0z"/><path d="M738.91 139.66c0 4.2-6.35 4.2-6.35 0s6.35-4.21 6.35 0zm-26.46 0c0 4.2-6.36 4.2-6.36 0s6.36-4.21 6.36 0z" fill="#36a9ee"/><path d="M737.32 139.66a1.59 1.59 0 01-3.17 0 1.59 1.59 0 013.17 0zm-26.46 0a1.59 1.59 0 01-3.17 0 1.59 1.59 0 013.17 0z"/><path d="M736.26 138.76a.53.53 0 01-1 0 .53.53 0 011 0zm-26.4 0a.53.53 0 01-1.05 0 .53.53 0 011.05 0z" fill="#fff"/><path d="M691.52 470.11c-.35 15-.57 25.19-.48 27-10.15.81-39.79 2.31-41-7.8-1.31-11.07-6.93-60.42-8.23-71.79H647c-4.43 19 12.16 36.57 16 38.43 7-3.82-1.52-12.88-4.46-24.23a4.8 4.8 0 002.63.58 30.55 30.55 0 00.67-14 3.35 3.35 0 01-1.67-.83h2.72c0-41.94 9.75-202.27-6.92-203.73l14.32-8c24.99 81.11 25.93 60.19 21.23 264.37z" fill="#2f3030"/><path d="M663 456c-3.74-1.88-20.49-19.29-16-38.48h13.15a3.35 3.35 0 001.67.83 30.41 30.41 0 01-.67 14 4.8 4.8 0 01-2.63-.58c2.98 11.37 11.55 20.37 4.48 24.23z" fill="#292929"/><path d="M662.84 417.51h-28.75c0-148.38 5.59-155 21.81-203.73 16.75.05 6.94 159.71 6.94 203.73z" fill="#e4e1de" stroke="#000" stroke-miterlimit="10" stroke-width=".28"/><path d="M797.31 496.6c-3.65 9.63-31.54 4.33-41.65 2.14.73-5.45 0-9.51-1.2-26.38-5.31-74.45 2.82-84.82 5-113.09 1.85-24.37-4.28-66.6 9.37-136.65.3-1.52 2.68-8 3.62-13.5l16.55 4.71c-20.26 76-20 54.1-3.7 155.43 1.87 11.59-2.1 37.72-4.17 48.21 6.1 0 4.82-.33 4.21 1-1.79 3.82-4.59 13.6-3.52 18 .84 3.45 1.76 2.22 2 2.5 3.42 2.12-6.18 9.1-.86 15.26 1.48-1.28 18.44-23.64 18.67-35.77.1-.02.42 65.65-4.32 78.14z" fill="#2f3030"/><path d="M774.62 268.05c-1 4.83-.82 5.38-.88 3.31zm6.58-24.71l-6.56 24.59c1.76-8.28 4.36-16.46 6.56-24.59z" fill="#242424"/><path d="M768.93 222.62c-12.35 70.6-7.48 111.77-9.38 136.65-2.15 28.19-10.26 38.79-5 113.09 1.2 16.88 1.87 20.94 1.21 26.38-2.09-.45-9-1.91-8.93-2.41 7.3-111.89-3.93-134.48 21.86-288.29l3.85 1.09c-1 5.48-3.35 11.98-3.61 13.49z" fill="#6f564d"/><path d="M663 456c-3.77-1.89-20.49-19.36-16-38.48 14.67 0 7.14-2.33 11.52 14.25 3.03 11.36 11.55 20.37 4.48 24.23z" fill="#f2c6b3"/><path d="M661.18 432.29c-4.82.41-3.43-8.92-4.92-14.83 5.68 0 4 .61 5.59.83a30.41 30.41 0 01-.67 14zm128.82-.61c-1.8 6.8-9 11.85-8.3.94.22-3.62 2.77-13.84 4.4-15.11 4.23 0 3.9-.22 4.24.65.66 1.7 1.23 7.67-.34 13.52z" fill="#f2d9cd"/><path d="M783.05 454.21c-4.54-5.26 2.32-13 1.81-14.39-.19-.53-.87-.78-1-.9 7.61-1.52 8-16.95 6.49-20.76-.36-.93-2.41-.65 11.32-.65.7 11.65-17.07 35.27-18.62 36.7zm18.76-36.7c-.07.84 0 1.59-.13 0z" fill="#f2c6b3"/><path d="M696.48 496.6s-2.13.24-5.44.5c-.32-6.4 3.6-128.4 2.34-187.53-.89-41.73-14.69-76.46-23.11-103.77l5.51-3.1c26.6 75.3 20.88 71.18 20.7 293.9z" fill="#6f564d"/><path d="M675.63 202.75c.35-.11.5-.24-5.36 3.05-.48-1.63-1.52-.9 5.36-3.05zm20.85 293.85c0 .32-5.39 1-5.44.5 3.31-.26 5.44-.5 5.44-.5z" fill="#75594f"/><path d="M810.41 417.51c-33.58 0-29.29.4-29.07-.93.13 0 6.23-33.57 4-47.32-16.39-101.75-16.58-79.37 3.7-155.43 35.34 97.17 21.37 136.97 21.37 203.68z" fill="#e4e1de" stroke="#000" stroke-miterlimit="10" stroke-width=".28"/><path d="M781.2 243.34l-6.56 24.59c1.76-8.28 4.36-16.46 6.56-24.59z" fill="#e4e1de"/></svg>