<svg xmlns="http://www.w3.org/2000/svg" viewBox="0 0 700 700"><path fill="#ccc" d="M0 0h700v700H0z"/><path fill="#fffffe" d="M88.3 176.12h273.96v347.77H88.3z"/><path fill="#1b1919" d="M272.49 176.12h89.78v347.77h-89.78zm-184.19 0h89.78v347.77H88.3z"/><path d="M550.2 141.92c3.15-4.21 8.93-10.49 5.28-20.62-1.64-4.55-10.7-19.19-18.22-25.66-5.15-4.43-7.64-2.84-12.74.4-8.83 5.6-14.8 4.34-18.35 6.36-19.83 11.3-16.41 50.58-2.27 48.49 2-.3 2-.95 5-.29 31.92 6.98 32.46 3.15 41.3-8.68z" fill="#f2d9cd"/><path d="M518.28 137c-1.38.8 8.45 6.11 17.22.92 1.94-1.15-1.6-.72-3.74-.64-1.02 0-12.51-.86-13.48-.28z" fill="#f1f1f1"/><path d="M545.57 630.28c-16.27-.33-11-10.84-11-11.53 3.73 1.77 12.29 2.28 16.43 2.35 15 .26 11.62-13.47 12.77-8 1.54 17.46 5.13 17.66-18.2 17.18z" fill="#4a4746"/><path d="M513.86 630.4c-11.39-.61-15.45-1.6-15.28-7s3.31-8.39 3.87-6c1 4.07 8 3.26 25.23 1.78 1.16-.18-2.49 11.82-13.82 11.22z" fill="#57534f"/><path d="M575 455.55c-.56 9-3.78 102.61-16.27 126.26-4.66 8.84 1 17.83 1.3 18.22-1-.17-10.25-2.83-12.31-3.42-9.56-2.72-9.37 2.63-10.19 3.42-1.5-33-6.35-168.62-12.6-172.24 14 1.14 8.45.95 24.85.25l-.91 22.61a173.09 173.09 0 0026.13 4.9z" fill="#617379"/><path d="M529.46 600.05s-7.87-5.38-15.43-1.91c-1.93.88-.94 1-1.22-.91-.7-4.66-2.27-2-14.24-26.7-7.43-15.35-11.4-74.93-10.95-85 .22-5.09-2.57-20-5.29-33.85a176 176 0 0019.07-1V426c26.19 2 23.05 1.14 26.47 3.79 10.76 158.91 10.27 141.74 1.59 170.26z" fill="#485e68"/><path d="M563.76 613.17c-1.14-5.48 2.19 8.1-12.77 8-2.36 0-16-.54-15.78-2.9.43-5.81-.66-15.48 2.2-20.42.33 7-1.86-4.77 10.25-1.21 11.63 3.42 10.43 1.14 14.21 10.52a22.56 22.56 0 011.89 6.01zm-36.06 5.95c-16.87 1.41-24.24 2.27-25.23-1.78.24-3.21 11.81-25.24 10.35-18.58 5.49-3.08 12.17-1.8 16.67 1.29l1.13-3.73c1.63 2.99.16 18.2-2.92 22.8z" fill="#f2d9cd"/><path d="M581.41 211.5l-6.19 23.23c1.66-7.82 4.14-15.55 6.19-23.23z" fill="#e4e1de" stroke="#000" stroke-miterlimit="10" stroke-width=".26"/><path d="M569.51 178.2c-21 125.38-15.38 136.5-19.74 249.9-17.39.74-6.92 1.13-48.37-2.05.46-182.87 4.74-184.13-19.54-252.89-24.5 13.73-22.21 12.87-9.18 3.94l18.32-7.89 15 22.35c19-14.22 12.94-11.84 26.71-11.84l14 14 18.85-19.28c30.04 11.87 30.64 11.28 3.95 3.76z" fill="#e4e1de" stroke="#000" stroke-miterlimit="10" stroke-width=".26"/><path fill="#f2f0ee" d="M521.8 179.69l-15.78 11.84-15.01-22.35 10.19-4.38 20.6 14.89zm43.82-5.25l-18.85 19.27c-17.67-17.64-16.29-14-8.32-14l18.85-14.91z"/><path d="M534.53 106.48c-4.79 1.59-3.68-4.63 9.17-1.68.85.2 2.09.56 2 1.53-3.84.03-7.34-1.12-11.17.15zM507.56 104c-5.68-.53-5.09 2.56-2.28 2.76s4.18-2.51 13.66 1.79c2.3-2.87-9.86-4.37-11.38-4.55z" fill="#915537"/><path d="M567.45 153.15c-3.79 12.28-10.59 9.84-22.52 9.18-1.94-2.36-1.85-5.07-2.76-16.1 10.24-8.44 15.06-37.33-1.95-39.13-1.78-.18-3.94.21-6.05-4.22a24.89 24.89 0 01-2-6.24 1.54 1.54 0 00-.55-1.14c-3.33-2.15 0 9.9-2.08 12.33-1.5 1.74-17.08 2-15.83-4.31-7.05 11.86-10.18.62-12.31 15-1.79 12.05-4.55 19.86 6.7 27 0 .12 1 13-.21 15.17-.58 1.06-1.71 1.3-2.93 2.87-11.38-1-18.83-7.83-20.16-20.09-2.82-26.13 3.36-30.18 5.48-35 3.09-7 1.24-15.43 3.92-22.65 6.76-18.14 38.91-20.5 49.09-9.77 5.92 6.24 6.52 13.66 10.67 21.18 6.77 12.26 21.71 29.3 13.49 55.92z" fill="#211c1b"/><path d="M557.3 164.8c-22.61 17.87-14.53 14.89-35.5 14.89-29.32-21.2-19.12-12.41-17.2-16.27.63.11.21-.08 1.45-1.14 4.33-3.7 1.92-12.83 2.05-16.89 13.14 8.49 27 7 34.08.76 1.3 15.96-.29 18.65 15.12 18.65z" fill="#f2d9cd" stroke="#000" stroke-miterlimit="10" stroke-width=".26"/><path d="M536.67 136.08c-.11 0-9.36.11-13.59-.14-11.13-.66-7.2 3.49.71 4.94 10.98 2.02 15.21-4.01 12.88-4.8zm-2 1.63c-10 3.32-5.78 1.76-16.12-.26 18.55.41 18.31-.43 16.12.29z" fill="#e09a95"/><path d="M523.56 116.49c-.24 7.6-2.22 8-3.16 10.91-2.18 6.83 10.25 4.35 10.84 3.54s.07-3.63-.66-5.24c-2.57-5.68-.23-5.41-1.14-8.76" fill="none" stroke="#e09a95" stroke-miterlimit="10" stroke-width="1.04"/><path d="M533.22 113.6c0 4.77 10.51 4.77 10.51 0s-10.51-4.79-10.51 0z" fill="#f1f1f1"/><path d="M533.28 113.6c0 4.56 10.11 4.4 10 0-.03-4.05-9.97-4.24-10 0zm-.12 0c.17-5.44 10.85-5.55 11 0-.24 5.22-10.7 5.1-11 0z"/><path d="M518.74 113.6c0 4.77-10.51 4.77-10.51 0s10.51-4.79 10.51 0z" fill="#f1f1f1"/><path d="M518.8 113.6c-.3 5.09-10.75 5.21-11 0 .2-5.54 10.84-5.43 11 0zm-.11 0c0-4.25-10-4.07-10 0-.12 4.4 10 4.56 10 0z"/><path d="M541.47 113.59c0 4-6 4-6 0s6-3.97 6 0zm-24.98 0c0 4-6 4-6 0s6-3.97 6 0z" fill="#36a9ee"/><path d="M540 113.59a1.5 1.5 0 01-3 0 1.5 1.5 0 013 0zm-25 0a1.5 1.5 0 01-3 0 1.5 1.5 0 013 0z"/><path d="M539 112.75a.5.5 0 01-1 0 .5.5 0 011 0zm-25 0a.5.5 0 01-1 0 .5.5 0 011 0z" fill="#fff"/><path d="M496.72 425.65c-.32 14.19-.53 23.79-.45 25.49-9.59.76-37.58 2.18-38.71-7.37-1.23-10.45-6.54-57.06-7.77-67.79h4.86c-4.18 18 11.49 34.53 15.09 36.29 6.61-3.61-1.43-12.17-4.21-22.88a4.66 4.66 0 002.48.55 28.7 28.7 0 00.64-13.22 3.16 3.16 0 01-1.58-.79h2.57c0-39.6 9.21-191-6.53-192.38l13.52-7.55c23.65 76.59 24.53 56.84 20.09 249.65z" fill="#2f3030"/><path d="M469.8 412.32c-3.53-1.78-19.35-18.22-15.09-36.34h12.42a3.34 3.34 0 001.58.79 28.93 28.93 0 01-.64 13.21 4.56 4.56 0 01-2.48-.54c2.79 10.74 10.88 19.25 4.21 22.88z" fill="#292929"/><path d="M469.64 376h-27.15c0-140.12 5.28-146.41 20.59-192.39 15.83.03 6.56 150.8 6.56 192.39z" fill="#e4e1de" stroke="#000" stroke-miterlimit="10" stroke-width=".26"/><path d="M596.63 450.67c-3.45 9.09-29.79 4.09-39.33 2 .68-5.14 0-9-1.14-24.9-5-70.31 2.66-80.1 4.69-106.8 1.75-23-4-62.89 8.86-129 .27-1.44 2.52-7.56 3.41-12.75l15.69 4.45c-19.14 71.78-18.94 51.08-3.5 146.77 1.77 10.95-2 35.62-3.94 45.54 5.76 0 4.56-.32 4 .92-1.69 3.61-4.33 12.84-3.33 17 .8 3.25 1.67 2.09 1.93 2.36 3.23 2-5.83 8.59-.81 14.41 1.4-1.21 17.42-22.33 17.63-33.78 0-.03.31 61.98-4.16 73.78z" fill="#2f3030"/><path d="M575.19 234.84c-1 4.56-.77 5.08-.83 3.12zm6.22-23.34l-6.19 23.23c1.66-7.82 4.14-15.55 6.19-23.23z" fill="#242424"/><path d="M569.82 191.94c-11.66 66.67-7.06 105.55-8.86 129-2 26.62-9.69 36.63-4.69 106.8 1.14 15.93 1.77 19.77 1.14 24.9-2-.42-8.45-1.79-8.42-2.27 6.89-105.66-3.71-127 20.64-272.24l3.63 1c-.97 5.25-3.19 11.38-3.44 12.81z" fill="#6f564d"/><path d="M469.8 412.32c-3.56-1.79-19.35-18.29-15.09-36.34 13.85 0 6.74-2.2 10.88 13.46 2.83 10.73 10.88 19.25 4.21 22.88z" fill="#f2c6b3"/><path d="M468.07 389.94c-4.55.38-3.23-8.43-4.64-14 5.36 0 3.77.57 5.28.79a29 29 0 01-.64 13.21zm121.67-.58c-1.7 6.42-8.48 11.19-7.84.88.21-3.41 2.62-13.07 4.15-14.26 4 0 3.69-.21 4 .61.63 1.61 1.15 7.25-.31 12.77z" fill="#f2d9cd"/><path d="M583.16 410.63c-4.29-5 2.19-12.26 1.71-13.58-.18-.5-.82-.74-.93-.85 7.18-1.44 7.51-16 6.12-19.61-.34-.87-2.28-.61 10.69-.61.65 11.02-16.13 33.31-17.59 34.65z" fill="#f2c6b3"/><path d="M600.87 376c-.06.8 0 1.5-.12 0z" fill="#f2c6b3"/><path d="M501.4 450.67s-2 .23-5.13.47c-.3-6.05 3.4-121.25 2.21-177.09-.85-39.41-13.87-72.21-21.83-98l5.21-2.93c25.14 71.1 19.71 67.22 19.54 277.55z" fill="#6f564d"/><path d="M481.72 173.18c.33-.11.47-.23-5.07 2.88-.45-1.54-1.43-.86 5.07-2.88zm19.68 277.49c0 .3-5.09 1-5.13.47 3.13-.24 5.13-.47 5.13-.47z" fill="#75594f"/><path d="M609 376c-31.7 0-27.65.38-27.45-.88.13 0 5.89-31.7 3.8-44.69-15.47-96.08-15.66-75 3.49-146.77C622.19 275.37 609 313 609 376z" fill="#e4e1de" stroke="#000" stroke-miterlimit="10" stroke-width=".26"/><path d="M581.41 211.5l-6.19 23.23c1.66-7.82 4.14-15.55 6.19-23.23z" fill="#e4e1de"/></svg>