<svg xmlns="http://www.w3.org/2000/svg" viewBox="0 0 700 700"><path fill="#cbcbcb" d="M0 0h700v700H0z"/><path d="M584.33 186.78c14.67 12.59 19.92 183.16 14.83 184.72l-8.18 1h-17.65c1.74-47.49-2-151-6.87-195.82a58.44 58.44 0 0117.87 10.1z" fill="#f7f5f6"/><path d="M577.55 385.65a3.44 3.44 0 01-2.94 1.58v-14.71H591l-9.32 22.91c-2.27 4.71-4.42 8.23-5.77 8.15-3.91-.22 1.39-17.16 1.64-17.93z" fill="#c49482"/><path d="M581.66 395.45L579 453.88h-45.38l1.71-32.75 12.45-236.67c4.39-3.49 7.16-6.5 6.87-11a69.62 69.62 0 0111.81 3.23c4.88 44.82 8.61 148.33 6.87 195.82h1.28v14.71a3.44 3.44 0 002.94-1.58c-.25.77-5.53 17.71-1.66 18 1.35.04 3.5-3.48 5.77-8.19z" fill="#191919"/><path d="M566.24 453.88l-23.31 131.19a4.59 4.59 0 00-2.1-1c-4.51-.39-15.87-3.58-15.87-.24v-162.7h10.37l-1.71 32.75z" fill="#7c8d93"/><path d="M560.11 131.31c3.24 37.87-10.58 35-10.58 35-.57.68-1.15 1.35-1.75 2-9.2 2.51-11.55-7-12.53-19a37.34 37.34 0 007.46-8.53c7.16-11.26-.68-38.2-17.75-37.6-17-.6-24.89 26.34-17.72 37.6a36.94 36.94 0 007.45 8.54c-1 12-3.32 21.54-12.53 19-.59-.63-1.18-1.3-1.75-2 0 0-13.82 2.87-10.58-35 3.41-39.6 17.33-42.11 35.13-45.52 17.83 3.4 31.75 5.91 35.15 45.51z" fill="#312a28"/><path d="M554.65 173.47c.29 4.49-2.48 7.5-6.87 11-2.29 1.81-5 3.74-8 6.08L525 180.12c9-1.67 16.73-5.35 22.82-11.83.6-.63 1.18-1.3 1.75-2z" fill="#f7f5f6"/><path d="M554.62 600.25a15 15 0 01-11.39 13.38c-10.8 3.08-15.92-7.24-16.18-7.81.36.18 12.27 5.85 27.57-5.57z" fill="#302f30"/><path d="M542.93 585.07c4.8 3.46 11.69 15.18 11.69 15.18-15.3 11.42-27.21 5.74-27.58 5.56s-2-18.08-2.06-21.68v-.24c0-3.34 11.36-.15 15.87.24a4.59 4.59 0 012.08.94z" fill="#c49482"/><path d="M547.78 184.46l-12.45 236.67h-20.57l-12.45-236.54c2.25 1.76 4.91 3.66 7.81 5.95L525 180.12l14.86 10.42c2.93-2.34 5.63-4.27 7.92-6.08z" fill="#f7f5f6"/><path d="M535.25 149.25c1 12 3.33 21.55 12.53 19-6.09 6.48-13.86 10.16-22.82 11.83-8.94-1.67-16.7-5.35-22.8-11.83 9.21 2.51 11.56-7 12.53-19 5.38 4.56 5 6.13 10.27 6.13s4.91-1.56 10.29-6.13z" fill="#c49482"/><path d="M514.69 149.26a36.94 36.94 0 01-7.45-8.54c-7.17-11.26.68-38.2 17.72-37.6 17.07-.6 24.91 26.34 17.75 37.6a37.34 37.34 0 01-7.46 8.53c-5.38 4.57-5 6.14-10.29 6.14s-4.89-1.57-10.27-6.13zM507 585.05a4.28 4.28 0 012.09-1c4.52-.38 15.86-3.58 15.86-.22v.24c-.09 3.6-2.05 21.68-2.05 21.68-.37.18-12.28 5.86-27.58-5.56-.01.06 6.89-11.67 11.68-15.14z" fill="#c49482"/><path d="M525 421.13v162.74c0-3.36-11.34-.16-15.86.22a4.28 4.28 0 00-2.09 1l-23.3-131.17h32.76l-1.71-32.75z" fill="#435865"/><path d="M525 180.12l-14.84 10.42c-2.9-2.29-5.56-4.19-7.81-5.95v-.13c-4.39-3.49-7.16-6.5-6.87-11h-.15l5.12-7.16c.57.68 1.16 1.35 1.75 2 6.06 6.47 13.8 10.15 22.8 11.82z" fill="#f7f5f6"/><path d="M514.76 421.13l1.71 32.75h-45.34l-2.69-58.09c2.22 4.54 4.3 7.89 5.61 7.81h.15c3.66-.23-.88-15.44-1.57-17.69a3.32 3.32 0 002.69 1.32v-14.71h1.43c-1.74-47.49 2-151 6.87-195.82a71.1 71.1 0 0111.66-3.2c-.29 4.53 2.55 7.56 7 11.09z" fill="#191919"/><path d="M495.31 600.25c15.3 11.42 27.21 5.74 27.58 5.56-.26.57-5.38 10.89-16.19 7.82a15 15 0 01-11.39-13.38z" fill="#302f30"/><path d="M495.29 173.47a71.1 71.1 0 00-11.66 3.2c-4.88 44.85-8.63 148.33-6.87 195.85H459l-8.19-1c-5.09-1.56.16-172.13 14.83-184.72a57.49 57.49 0 0115.86-9.31 70.91 70.91 0 0113.79-4.02z" fill="#f7f5f6"/><path d="M475.33 372.52v14.71a3.32 3.32 0 01-2.69-1.32c.69 2.25 5.23 17.46 1.57 17.69h-.15c-1.31.08-3.39-3.27-5.61-7.81L459 372.52z" fill="#c49482"/><path d="M542.93 585.07c4.8 3.46 11.69 15.18 11.69 15.18a15 15 0 01-11.39 13.38c-10.8 3.08-15.92-7.24-16.18-7.81h0m-.05-.03s-2-18.08-2.06-21.68" fill="none" stroke="#000" stroke-linecap="round" stroke-linejoin="round" stroke-width=".81"/><path d="M527 605.79h0c.37.18 12.28 5.86 27.58-5.56m11.66-146.35l-23.31 131.19a4.59 4.59 0 00-2.1-1c-4.51-.39-15.87-3.58-15.87-.24v-162.7M459 372.52l-8.19-1c-5.09-1.56.16-172.13 14.83-184.72a57.49 57.49 0 0115.86-9.31 70.91 70.91 0 0113.82-4v0m6.99 11.1c2.25 1.76 4.91 3.66 7.81 5.95L525 180.12l14.86 10.42c3-2.34 5.67-4.27 8-6.08m-12.53 236.67h-20.58m51.71-244.43a58.44 58.44 0 0117.87 10.08c14.67 12.59 19.92 183.16 14.83 184.72l-8.18 1h-16.37m-19.96-199.03l-5.12-7.16m-47.37 1.98c-.59-.63-1.18-1.3-1.75-2 0 0-13.82 2.87-10.58-35 3.41-39.6 17.33-42.11 35.13-45.52 17.83 3.41 31.75 5.92 35.15 45.52 3.24 37.87-10.58 35-10.58 35-.57.68-1.15 1.35-1.75 2" fill="none" stroke="#000" stroke-linecap="round" stroke-linejoin="round" stroke-width=".81"/><path d="M535.25 149.25a37.34 37.34 0 007.46-8.53c7.16-11.26-.68-38.2-17.75-37.6-17-.6-24.89 26.34-17.72 37.6a36.94 36.94 0 007.45 8.54M579 382.63a8.72 8.72 0 01-1.4 3 .1.1 0 000 0M525 584.11c-.09 3.6-2.05 21.68-2.05 21.68" fill="none" stroke="#000" stroke-linecap="round" stroke-linejoin="round" stroke-width=".81"/><path d="M522.89 605.81c-.26.57-5.38 10.89-16.19 7.82a15 15 0 01-11.39-13.38s6.9-11.73 11.7-15.2a4.28 4.28 0 012.09-1c4.52-.38 15.86-3.58 15.86-.22" fill="none" stroke="#000" stroke-linecap="round" stroke-linejoin="round" stroke-width=".81"/><path d="M522.91 605.79h0c-.37.18-12.28 5.86-27.58-5.56m11.68-15.16v-.02l-23.3-131.17M525 583.87v1.23m-24.59-418.79l-5.12 7.16m19.4-24.21v-.01m33.09 19.04c-6.09 6.48-13.86 10.16-22.82 11.83-8.94-1.67-16.7-5.35-22.8-11.83 9.21 2.51 11.56-7 12.53-19 5.38 4.56 5 6.13 10.27 6.13s4.91-1.57 10.29-6.14c.98 11.96 3.33 21.52 12.53 19.01zM471 382.63a8.55 8.55 0 001.39 3 .07.07 0 010 0m109.27 9.82L579 453.88h-45.38l1.71-32.75 12.45-236.67c4.39-3.49 7.16-6.5 6.87-11a69.62 69.62 0 0111.81 3.23c4.88 44.82 8.61 148.33 6.87 195.82h1.28v14.71a3.44 3.44 0 002.94-1.58c-.25.77-5.53 17.71-1.66 18 1.35.04 3.5-3.48 5.77-8.19z" fill="none" stroke="#000" stroke-linecap="round" stroke-linejoin="round" stroke-width=".81"/><path fill="none" stroke="#000" stroke-linecap="round" stroke-linejoin="round" stroke-width=".81" d="M502.31 184.59l12.44 236.54 1.72 32.75h-45.34l-2.69-58.09"/><path d="M475.33 372.52h1.43c-1.74-47.49 2-151 6.87-195.82a71.1 71.1 0 0111.66-3.2m0 0h.15c-.29 4.49 2.48 7.5 6.87 11v.13c-4.47-3.57-7.31-6.63-7.02-11.13zm86.37 221.95v-.02l9.32-22.91m-115.65 0v14.71h0a3.32 3.32 0 01-2.69-1.32c.69 2.25 5.23 17.46 1.57 17.69h-.15c-1.31.08-3.39-3.27-5.61-7.81L459 372.52z" fill="none" stroke="#000" stroke-linecap="round" stroke-linejoin="round" stroke-width=".81"/><path d="M98.54 137.6h88.5v424.79h-88.5z"/><path fill="#fff" stroke="#000" stroke-miterlimit="10" stroke-width=".9" d="M187.04 137.6h88.5v424.79h-88.5z"/><path d="M275.55 137.6h88.5v424.79h-88.5z"/></svg>
