<svg xmlns="http://www.w3.org/2000/svg" viewBox="0 0 1400 780"><path fill="#576280" d="M0 0h1400v780H0z"/><path fill="#c1c5d0" stroke="#d8bcbc" stroke-miterlimit="10" d="M739.84 498.73h336.87v110.92H739.84z"/><path d="M498.67 636.07c7.44 2.69 10.43 6.94 9.31 12.62-10.63 8.93-32 17.59-49.41 26.13 3.33-7.28 1.56-1.47 8.26-30zm-38.24-438.96c14.6.82 30.3 7.92 46.2 19.34.5 1.32-.32 3.26-1.58 5.4-50.15-27.4-45.65-24.74-44.62-24.74z" fill="#f0eceb"/><path fill="#ad6a4f" d="M166.6 575.25l53.17-39.2 7.21-74.54-74.35-18.73-30.19 41.45 44.16 91.02z"/><path d="M0 279.22l303.12 114.45c18.12 11.81 25.43 28.39 16.22 52.26-6.63 42.56-15.62 82.82-27.93 119.85-17.13 25.82-44.41 39.22-74.8 48.66l-46-50.46L213 532.44a274.13 274.13 0 016.31-63.08C168.65 473.5 136.37 439.54 0 339.6z" fill="#e4b5a3"/><path d="M334.66 624.76c-3.3 4.14-57.44-7.72-113.54-5.81-13.17-23.82-32.17-44-55.87-61.28-34.66-30.86-29.72-68.62-32.89-67.13 0 0-31.09-36.5-18.93-66.23s85.16-117.6 119-136.52c53.58-30 80.7-29.65 140.58-43.26 30 4 95.42 10.68 123.55-.55 6.18-6 10-13.46 9.4-24.19-112.71-55.73-67.28-43.76-234.33-46-34.1-.45-20.64-3.48-271.59 151.39v421.39c15.36-4.72 69.87-11.44 109.39-20.16 46-10.14 327.78-37.85 327.78-37.85-.46 2.59-3.87 5.34 21.41-14.19 7.6-16.66 20.21-29.93 40.1-38.3-51.11-34.51-151.41-21.63-164.06-11.31z" fill="#f0d0c3"/><path d="M109.38 726.41c-39.52 8.72-94 15.44-109.39 20.16v29.18c147.11-20.68 346.61-35.37 368.91-42.36 14.1-4.41 46.17-26.81 67.88-42.7l.38-2.13s-281.82 27.71-327.78 37.85zM373 244.53c-59.61 13.55-86.88 13.19-140.58 43.26-33.83 18.92-106.82 106.78-118.99 136.52s18.93 66.23 18.93 66.23c1-.49.73.27.45-4.06 0 0 132.39-198.43 146.88-201 13-2.25 98.55-22 98.68-27 88.18-3.44 104.09-.77 118.14-14.52-28.09 11.24-93.57 4.56-123.51.57z" fill="#e9c0ae"/><path fill="#c1c5d0" stroke="#d8bcbc" stroke-miterlimit="10" d="M377.76 293.94v39.95l115.65 1.81v-40.56l-115.65-1.2z"/><rect x="349.98" y="331.49" width="171.21" height="282.95" rx="28.54" fill="#c1c5d0"/><rect x="349.98" y="331.49" width="171.21" height="282.95" rx="28.54" fill="none" stroke="#d8bcbc" stroke-miterlimit="10"/><rect x="358.46" y="387.94" width="157.41" height="217.71" rx="24" fill="#7e88a3" stroke="#d8bcbc" stroke-miterlimit="10"/><path d="M499.76 255.05c-133 0-135.48-3-135.48 7.13 0 25.38-2.37 35.31 7.13 35.31 133 0 135.49 3 135.49-7.14 0-25.35 2.37-35.3-7.14-35.3z" fill="#c1c5d0" stroke="#d8bcbc" stroke-miterlimit="10"/><path fill="#fdfff4" d="M351.41 397.35h168.36v121.5H351.41z"/><path d="M518.34 398.77v118.65H352.83V398.77h165.51m2.85-2.85H350v124.36h171.19V395.92z" fill="#f55"/><path d="M379.19 590.11h-9.38V359.43c4-11.84 9.72-20.83 18-25.24V300h6.31v-43.3h9V300l-6.16.6.3 33.64c-9 2.43-15.06 11.08-18.1 24.93z" fill="#fff"/><path d="M394.6 431.14h7.85v20.33h8.42v-20.33h7.85v49.94h-7.85v-22.47h-8.42v22.47h-7.85zm32.4 47.41q-3-3.26-3-9.31V443q0-6.06 3-9.31t8.71-3.24q5.7 0 8.7 3.24t3 9.31v4.28H440v-4.78q0-4.92-4.07-4.92t-4.07 4.92v27.33q0 4.85 4.07 4.85t4.07-4.85V460h-3.93v-7.1h11.33v16.34q0 6.06-3 9.31t-8.7 3.24q-5.7 0-8.7-3.24zm25.46-47.41h7.85v20.33h8.41v-20.33h7.85v49.94h-7.85v-22.47h-8.41v22.47h-7.85z"/><path fill="#c1c5d0" stroke="#d8bcbc" stroke-miterlimit="10" d="M646.97 295.87v39.95l115.64 1.8v-40.55l-115.64-1.2z"/><rect x="619.18" y="333.42" width="171.21" height="282.95" rx="28.54" fill="#c1c5d0"/><rect x="619.18" y="333.42" width="171.21" height="282.95" rx="28.54" fill="none" stroke="#d8bcbc" stroke-miterlimit="10"/><rect x="627.66" y="389.87" width="157.41" height="217.71" rx="24" fill="#7e88a3" stroke="#d8bcbc" stroke-miterlimit="10"/><path d="M769 257c-133 0-135.48-3-135.48 7.14 0 25.37-2.37 35.3 7.13 35.3 133 0 135.49 3 135.49-7.13C776.1 266.9 778.47 257 769 257z" fill="#c1c5d0" stroke="#d8bcbc" stroke-miterlimit="10"/><path fill="#fdfff4" d="M620.61 399.27h168.36v121.5H620.61z"/><path d="M787.54 400.7v118.65H622V400.7h165.54m2.85-2.85H619.18V522.2h171.21V397.85z" fill="#f55"/><path d="M648.39 589.83H639V360.67c4-11.76 9.72-20.68 18-25.06v-34h6.31v-43h9v43l-6.16.6.3 33.42c-9 2.41-15.06 11-18.1 24.76z" fill="#fff"/><path d="M663.8 433.07h7.85v20.33h8.42v-20.33h7.85V483h-7.85v-22.47h-8.42V483h-7.85zm32.39 47.4q-3-3.24-3-9.31v-26.25q0-6.06 3-9.31c2-2.16 4.9-3.25 8.71-3.25s6.7 1.09 8.7 3.25 3 5.27 3 9.31v4.28h-7.42v-4.78q0-4.92-4.07-4.92t-4.11 4.92v27.32c0 3.24 1.36 4.85 4.07 4.85s4.07-1.61 4.07-4.85V462h-3.93v-7.13h11.39v16.33q0 6.06-3 9.31t-8.7 3.25q-5.71-.04-8.71-3.29zm25.47-47.4h7.85v20.33h8.41v-20.33h7.85V483h-7.85v-22.47h-8.41V483h-7.85z"/><path fill="#c1c5d0" stroke="#d8bcbc" stroke-miterlimit="10" d="M874.69 295.55v39.95l115.65 1.8v-40.55l-115.65-1.2z"/><rect x="846.91" y="333.1" width="171.21" height="282.95" rx="28.54" fill="#c1c5d0"/><rect x="846.91" y="333.1" width="171.21" height="282.95" rx="28.54" fill="none" stroke="#d8bcbc" stroke-miterlimit="10"/><rect x="855.39" y="389.55" width="157.41" height="217.71" rx="24" fill="#7e88a3" stroke="#d8bcbc" stroke-miterlimit="10"/><path d="M996.69 256.65c-133 0-135.49-3-135.49 7.14 0 25.37-2.36 35.3 7.14 35.3 133 0 135.49 3 135.49-7.13 0-25.38 2.36-35.31-7.14-35.31z" fill="#c1c5d0" stroke="#d8bcbc" stroke-miterlimit="10"/><path fill="#fdfff4" d="M848.34 398.95h168.36v121.5H848.34z"/><path d="M1015.27 400.38V519H849.76V400.38h165.51m2.85-2.85H846.91v124.35h171.21V397.53z" fill="#f55"/><path d="M876.12 591.72h-9.39V361c4-11.84 9.73-20.82 18-25.23v-34.21h6.3V258.3h9v43.26l-6.16.6.3 33.64c-9 2.43-15.06 11.07-18.1 24.93z" fill="#fff"/><path d="M891.53 432.75h7.85v20.33h8.42v-20.33h7.85v49.93h-7.85v-22.47h-8.42v22.47h-7.85zm32.39 47.4q-3-3.24-3-9.31v-26.25q0-6.06 3-9.31c2-2.16 4.9-3.25 8.7-3.25s6.71 1.09 8.71 3.25 3 5.27 3 9.31v4.28h-7.43v-4.78q0-4.92-4.06-4.92t-4.07 4.92v27.32c0 3.24 1.36 4.85 4.07 4.85s4.06-1.61 4.06-4.85v-9.77H933v-7.14h11.34v16.34q0 6.06-3 9.31t-8.71 3.25q-5.71 0-8.71-3.25zm25.47-47.4h7.85v20.33h8.41v-20.33h7.85v49.93h-7.85v-22.47h-8.41v22.47h-7.85z"/><path fill="#c1c5d0" stroke="#d8bcbc" stroke-miterlimit="10" d="M1096.02 293.94v39.95l115.64 1.81v-40.56l-115.64-1.2z"/><rect x="1068.23" y="331.49" width="171.21" height="282.95" rx="28.54" fill="#c1c5d0"/><rect x="1068.23" y="331.49" width="171.21" height="282.95" rx="28.54" fill="none" stroke="#d8bcbc" stroke-miterlimit="10"/><rect x="1076.71" y="387.94" width="157.41" height="217.71" rx="24" fill="#7e88a3" stroke="#d8bcbc" stroke-miterlimit="10"/><path d="M1218 255.05c-133 0-135.49-3-135.49 7.13 0 25.38-2.37 35.31 7.13 35.31 133 0 135.49 3 135.49-7.14.02-25.35 2.39-35.3-7.13-35.3z" fill="#c1c5d0" stroke="#d8bcbc" stroke-miterlimit="10"/><path fill="#fdfff4" d="M1069.66 397.35h168.36v121.5h-168.36z"/><path d="M1236.59 398.77v118.65h-165.5V398.77h165.5m2.86-2.85h-171.22v124.36h171.22V395.92z" fill="#f55"/><path d="M1097.44 590.11h-9.38V359.43c4-11.84 9.72-20.83 18-25.24V300h6.31v-43.3h9V300l-6.16.6.3 33.64c-9 2.43-15.06 11.08-18.1 24.93z" fill="#fff"/><path d="M1112.86 431.14h7.84v20.33h8.42v-20.33h7.88v49.94h-7.85v-22.47h-8.42v22.47h-7.84zm32.38 47.41q-3-3.26-3-9.31V443q0-6.06 3-9.31t8.71-3.24q5.7 0 8.7 3.24t3 9.31v4.28h-7.42v-4.78q0-4.92-4.07-4.92t-4.07 4.92v27.33q0 4.85 4.07 4.85t4.07-4.85V460h-3.93v-7.1h11.35v16.34q0 6.06-3 9.31t-8.7 3.24q-5.71 0-8.71-3.24zm25.47-47.41h7.85v20.33h8.44v-20.33h7.84v49.94H1187v-22.47h-8.42v22.47h-7.85z"/><path fill="#fff" stroke="#000" stroke-miterlimit="10" stroke-width="2" d="M647 533.22h67.16v9.89H647zm284.42-10.31h120.42v14.11H931.42z"/><path fill="#c1c5d0" stroke="#000" stroke-miterlimit="10" stroke-width="2" opacity=".9" d="M1059.73 614.45h-316.1V500.01h305.68l30.69 23.83 1.81 72.56-22.08 18.05z"/><path d="M1043.44 601.52c-124 .1-124 2.53-123.94-3.42.26-83.05-2.19-83 3.5-82.94 40.13.07 80.26-.06 120.39.11 13.67.06 23.65 10.22 23.88 23.92.71 41.8 1.26 46.45-6.93 55.35a24.26 24.26 0 01-16.9 6.98zm-104.5-68.69c106.64.11 106.39 1.64 106.56-3 .15-4 5.67-3-106.5-2.72a8.12 8.12 0 00-4.3 1.65c-.43.31.12 2 .25 3.27a22.64 22.64 0 003.99.8z" fill="#7e88a3" opacity=".7"/><path d="M912.43 533.16c-168.73 0-168.8-.31-168.8.53 0 53.88-.26 53.89.43 53.89h168.66c9 29.18 6.78 39.77 6.79-73.73 0-5.48-6.36 19.31-7.08 19.31zM607 607.08c0-32.58-.13-65.16 0-97.73.08-20.81 32-21.29 32.35.33.32 17.73-1.65 17 5.35 17 24.15 0 48.29.08 72.44-.08 6.71-.05 4.57-.34 4.56 58 0 5.2 0 5.21-5.2 5.21-24.27 0-48.55.07-72.82-.05-6.22 0-3.85 2.11-4.37 17.26-.71 22.26-32.24 19.56-32.31.06z" fill="#ccc" stroke="#2b0500" stroke-miterlimit="10"/><path d="M1302.2 559.91c.12.43.69 1.5.45 1.72-2.7 2.5-171.5.72-190.93 1.54-3.72.15-4.93-1.07-4.74-4.77.28-5.48.06-5.52 4.68-5.52 190.79 0 175.87-2.49 190.54 7.03z" fill="#d4d7d5"/><path d="M738.39 481.08c0 8.91-13.48 8.91-13.48 0s13.48-8.92 13.48 0z" fill="#fff" stroke="#000" stroke-miterlimit="10" stroke-width="2"/><path fill="#454c66" d="M594.51 623h716.6v32.45h-716.6z"/><path d="M1044.37 536.59C934.88 536.59 931 539.42 931 530s3.8-6.63 113.37-6.63c8.76-.04 8.76 13.22 0 13.22zm-303.74-55.51c0 11.88-18 11.88-18 0s18-11.88 18 0z" fill="#fff"/><path d="M749.14 494.59c6.84-1.18 292.29-.78 292.16-.78 22.39 0 38.22 11.27 45.47 32.42 2.44 7.14 17.62-1.43 19.5 17.47 5.65 56.91-16.29 37.38-19.46 46.4-7.7 21.93-22.9 32.68-46 32.68-95.61 0-290.32.14-293.35.27a85 85 0 01.87 9.09c-.17 21.07-30 20.94-30-.06V484.45c0-21 30-20.79 30 .11 0 10.09-2.66 7.44.81 10.03zM857 507.68c-.26 5.12-.19 33.85-.19 33.74 0 8.76-7.44 11.5-12.59 8.66-6.83-3.76-3.76-7.93-4.55-42.75-25.45-.14-26.68-1.07-26.75 3.38-.41 28.1 1 32.12-2.19 37.07-3.84 6-14.86 3.92-14.9-5.26-.06-10.23-.1-33.32-.13-34.4h-46.5v102.31c13.86-1.46 293.11-1 292.95-1 19.27 0 33.13-13.8 33.17-33.09 0-12.14.06-24.29 0-36.43-.09-18.77-14.11-32.77-32.82-32.78-141.94-.08-142-3.51-141.78 4.85.24 10.09.15 20.19 0 30.29-.06 5.22-3.82 8.86-8.66 8.83-11.8-.1-7.41-12.32-8.48-43.44z" fill="#ccc" stroke="#2b0500" stroke-miterlimit="10"/><path d="M1292.1 557.8c.47 1.62-44.16.51-54.08.93-1 0-1.4-.3-1.34-1.35.08-1.56 0-1.57 1.33-1.57 54.16 0 49.92-.71 54.09 1.99z" fill="#fff"/></svg>