<svg xmlns="http://www.w3.org/2000/svg" viewBox="0 0 700 700"><path fill="#576280" d="M0-3.28h700V700H0z"/><path d="M498.67 560.33c7.44 2.69 10.44 6.93 9.31 12.61-10.63 8.93-31.94 17.59-49.41 26.13 3.33-7.28 1.56-1.46 8.26-30zm-38.24-438.97c14.6.82 30.31 7.92 46.2 19.34.5 1.33-.32 3.26-1.58 5.41-50.15-27.41-45.65-24.75-44.62-24.75z" fill="#f0eceb"/><path fill="#ad6a4f" d="M166.6 499.5l53.17-39.2 7.21-74.54-74.35-18.73-30.18 41.46 44.15 91.01z"/><path d="M0 203.48l303.12 114.44c18.13 11.81 25.43 28.4 16.22 52.27-6.63 42.55-15.62 82.81-27.93 119.81-17.13 25.81-44.37 39.19-74.79 48.66l-46-50.47L213 456.7a274 274 0 016.31-63.08C168.65 397.75 136.37 363.79 0 263.85z" fill="#e4b5a3"/><path d="M334.66 549c-3.3 4.14-57.44-7.72-113.54-5.81-13.17-23.82-32.17-44-55.87-61.27-34.66-30.87-29.71-68.62-32.89-67.14 0 0-31.09-36.49-18.92-66.23S198.59 231 232.39 212C286 182 313.08 182.39 373 168.78c30 4 95.42 10.69 123.55-.54 6.19-6.05 10-13.46 9.41-24.2-112.72-55.72-67.28-46-234.34-46-34.13-.91-20.68-3.48-271.62 151.4v421.38c15.35-4.72 69.86-11.44 109.38-20.16 46-10.13 327.79-37.84 327.79-37.84-.47 2.58-3.88 5.33 21.4-14.2 7.6-16.65 20.21-29.93 40.1-38.29-51.05-34.52-151.36-21.63-164.01-11.33z" fill="#f0d0c3"/><path d="M109.38 650.66C69.86 659.38 15.35 666.1 0 670.82V700c147.11-20.67 346.6-35.37 368.91-42.35 14.09-4.42 46.16-26.81 67.88-42.71l.38-2.12s-281.83 27.71-327.79 37.84zM373 168.78C313.35 182.33 286.08 182 232.39 212c-33.8 19-106.79 106.82-118.95 136.56s18.92 66.23 18.92 66.23c1-.48.74.27.45-4.05 0 0 132.39-198.44 146.88-201 13-2.25 98.55-22 98.68-27 88.18-3.44 104.09-.77 118.14-14.51-28.09 11.22-93.51 4.54-123.51.55z" fill="#e9c0ae"/><path fill="#c1c5d0" stroke="#d8bcbc" stroke-miterlimit="10" d="M377.77 218.2v39.95l115.64 1.8V219.4l-115.64-1.2z"/><rect x="349.98" y="255.74" width="171.21" height="282.95" rx="28.54" fill="#c1c5d0"/><rect x="349.98" y="255.74" width="171.21" height="282.95" rx="28.54" fill="none" stroke="#d8bcbc" stroke-miterlimit="10"/><rect x="358.46" y="312.2" width="157.41" height="217.71" rx="24" fill="#7e88a3" stroke="#d8bcbc" stroke-miterlimit="10"/><path d="M499.77 179.3c-133 0-135.49-3-135.49 7.14 0 25.37-2.37 35.3 7.13 35.3 133 0 135.49 3 135.49-7.13 0-25.38 2.37-35.31-7.13-35.31z" fill="#c1c5d0" stroke="#d8bcbc" stroke-miterlimit="10"/><path fill="#fdfff4" d="M351.41 321.6h168.36v121.5H351.41z"/><path d="M518.34 323v118.68h-165.5V323h165.5m2.86-2.86H350v124.39h171.2V320.17z" fill="#f55"/><path d="M379.19 514.37h-9.38V283.68c4-11.84 9.73-20.82 18-25.23V224.2h6.31V181h9v43.2l-6.16.61.3 33.64c-9 2.42-15.05 11.07-18.1 24.93z" fill="#fff"/><path d="M394.61 355.39h7.84v20.34h8.42v-20.34h7.85v49.94h-7.85v-22.47h-8.42v22.47h-7.84zM427 402.8q-3-3.24-3-9.31v-26.25q0-6.06 3-9.31t8.71-3.25q5.7 0 8.7 3.25t3 9.31v4.28H440v-4.78q0-4.92-4.07-4.92t-4.07 4.92v27.32q0 4.85 4.07 4.85t4.07-4.85v-9.77h-3.93v-7.14h11.33v16.34q0 6.06-3 9.31c-2 2.16-4.9 3.25-8.7 3.25S429 405 427 402.8zm25.46-47.41h7.85v20.34h8.42v-20.34h7.84v49.94h-7.84v-22.47h-8.42v22.47h-7.85z"/></svg>