<svg xmlns="http://www.w3.org/2000/svg" viewBox="0 0 1400 780"><path fill="#ccc" d="M0 0h1400v780H0z"/><path d="M979.28 670.36c4.46 2.22 7.42 14.84 5.2 21.52s-17.8 7-23.74 6-27.09-16.89-28.15-19.7c-2.88-7.69 3.65-28.55 3.65-28.55 13.25-1.9 18.13 3.13 25.56-3.75 2.8.44 4.73 1.57 4.86 3.78.62 8.96 8.18 18.48 12.62 20.7z" fill="#998675"/><path d="M969.64 629.54c.72 5.11-5.59 17.57-13.68 19.67-4.45 1.16-10.75-.91-19.72.37-6.47-61.56-7.74-18.18-11.12-86.07-.76-14.85-9.66-58.63-11.14-69.77s-14.83-47.5-15.58-56.4c-3.26-3-7.07-2.73-11.14-.74-29.8 138.21-25.41 168.71-28.19 184-1.49 8.16-8.17 21.52-10.39 21.52s-23.76-3-23.76-3c-2.64-12.37.92-28.7 3.8-34.14 1.26-49.7-2-53.9 4.45-63.07 6.77-9.65 2.15-50.47.67-55.67-.88-3.05-.73-43.79-.46-76.86 16.45 10.56 27.12 4.36 24.67-3.66-1.51-4.93-10.39-10.76-7.54-15.62a15.67 15.67 0 012.7-3c53.5 26.75 93.73-10.79 94.58-.71-4.29.43-15.13 3.21-17.6 6.73-2.79 4 6.43 6.61 12.27 11.32 7.35 5.95-7.61 3-11.21 8.91-3.33 5.49-.78 13.7 19.34 6.95 12.21 164.26-5.4 38.16 19.05 209.24z" fill="#736357"/><path d="M963.84 394.18a8.59 8.59 0 01-.09 1.6c-20.87-12.2-21.27-12.92.09-1.6z" fill="#34443a"/><path d="M947.79 386.45l16 9.33c-1.14 21.7-6.8 22.45-13.16 24.58-19.59 6.57-23.25-1.17-19-7.45 3.61-5.37 18.12-2.55 10.87-8.41-5.84-4.71-15.06-7.36-12.27-11.32 2.43-3.52 13.27-6.3 17.56-6.73z" fill="#edc1a0"/><path d="M951.33 372.22a16.63 16.63 0 01-1.31 8.35c1.32-8.35 1.03-8.3 1.31-8.35z" fill="#053a66"/><path d="M950 380.73c-3.32 3.13-69 12.26-94.86 4.9 3-3.15.73-9.32-3.17-12.31 4.62.88 10.37 2.17 13.23 3.53 5.2 2.46 18.55-4 17.06-8.4s3-26.73 4.46-33.41 5.94-77.18 5.2-85.34c-1.77-19.19 4-27.57-4.3-37.2H907a19.45 19.45 0 00-2.27 10.19c.17 117 13.09 133.12 10 142.41-1.49 4.45 11.87 10.88 17.06 8.4 4.46-2.11 16.05-4 19.22-4.54.46 4.7-.31 7.35-1.01 11.77z" fill="#29abe2"/><path d="M950 380.57c0 .16 0 .09-.06.16s.06-.11.06-.16z" fill="#e3e0dd"/><path d="M950 380.73c-1.78 3.66-3 3.5-4.29 3.89-2.76 0-7.46 2.35-7.88 2.35-11.5 1.92-36.14 14.38-37.54 8.26v-7.33c24.35-1.46 47.87-5.48 49.71-7.17z" fill="#998675"/><path d="M937.8 387c3.55-1.38 6.2-2.33 7.87-2.35z" fill="#053a66"/><path d="M934.64 101.24c3.37 6.92 2.67 25 0 30.59-3.63 7.54-1.52 9.17-4.1 8 .13-8.48 3.21-5.39-3-16.22-1.92-10.18-6.6-18.89-13.54-22.47-3-1.52-22.87-17.8-33 0-9 15.88-12.32 24.68-9.78 36.91-2.52-3.35-5.34-11.09-6.27-27-.23-3.79 5.36-15.41 8.71-18.31S890 86 890 86a6.45 6.45 0 006-2c2.9-2.91 9.16-1.56 15.63-2.24 9.22-.92 20.6 14.47 23.01 19.48z" fill="#42210b"/><path d="M930.54 139.85c-.09 4.88 3.87 7 1.22 11.91-1.88 3.53-4.21 3.91-11.29 13-.46-5.72-3.41 7.39-20.25 8.33 18-1.13 26.75-17.33 28.07-34.27 1.01.46 1.71.8 2.25 1.03z" fill="#f2d0b7"/><path d="M927.52 123.63c6.23 10.82 3.15 7.73 3 16.22-4.64-1.94-.09-.37-3-16.22z" fill="#232044"/><path d="M928.47 133.14c.23.29.2.7 0 1.4.02-.48 0-.93 0-1.4z" fill="#f2d0b7"/><path d="M927.5 138.53c2.16.92-1.78 33-27.28 34.6-17.38 1.05-23.69-7.84-29-35 2.36 3.11 4.42 2.36 4.42.87 0-16.68-4.75-16.26 13.19-26.79 1 13.61 10.85 20.27 24.33 18.08-6.67-36.2-.91-4.13 6.7-.67 10.84 4.87 9.19 1.18 7.64 8.91zm-8.14-.17c21.32-.06-7.58-9.65-10.54-1.34-.66 1.86-.45 1.39 10.54 1.34zm-4.36 5.22c0 4.26 3.59 4.26 3.59 0s-3.59-4.25-3.59 0zm-12.19 25.78c3.53.24 8.13-4.78 7.78-4.73s-6.44-.48-6.86 0-1.44.27-1.44.27c-1.31-1.19-.21.15-8.95 0 .5.96 5.93 4.2 9.45 4.46zm-19-31c11 0 11.19.52 10.54-1.34-3.03-8.31-31.93 1.28-10.61 1.34zm2.43 5.22c0 4.26 3.58 4.26 3.58 0s-3.65-4.25-3.65 0z" fill="#f2d0b7"/><path d="M928.49 134.56c0 5-.13 4.33-1 4 .39-1.95.78-3.17 1-4z" fill="#232044"/><path d="M928.47 133.14c-.53-.78-2.72-.9-8.57-3.55-4.92-2.23-9.06-16.4-9.57-16.4-.16-6.43-2.29-4.89 8.24-5.16 9.5 16.87 9.72 14.7 9.9 25.11zM908.82 137c3-8.31 31.86 1.28 10.54 1.34-10.99.07-11.2.54-10.54-1.34z" fill="#42210b"/><path d="M927.52 123.63c-1.95-3.36-4.8-8.22-8.95-15.6l-30.6.77s-13.73 7.61-14.07 8.28c-1 1.91-.9 14.34-2.66 21-2.54-12.23.79-21 9.78-36.91 10.09-17.8 30-1.52 33 0 6.9 3.57 11.58 12.28 13.5 22.46z" fill="#42210b"/><path d="M920.59 183.65c0 .37-3 18.31-6.58 21.14-12.18 9.79 1.33 7.71-26.43 7.71-6.32-7.3-8.9-.6-7.4-47.38 9.53 14.62 25.58 20.58 34.42 7.74 2.25-3.28 4.2-5.9 5.87-8.06.21 2.37.22 7.92.12 18.85z" fill="#edc1a0"/><path d="M900.22 173.13c16.84-.94 19.79-14 20.25-8.33-1.67 2.16-3.62 4.78-5.87 8.06-8.61 12.5-24.45 7-32.55-5.39 4.5 4.77 11.62 6.05 18.17 5.66z" fill="#f2d0b7"/><path d="M918.57 143.58c0 4.26-3.59 4.26-3.59 0s3.59-4.25 3.59 0z" fill="#232044"/><path d="M910.57 164.63c.35 0-4.25 5-7.78 4.73s-8.95-3.5-9.47-4.48c8.74.16 7.64-1.18 8.95 0 0 0 1 .18 1.44-.27s6.53.09 6.86.02z" fill="#fff"/><path d="M910.21 108.24c.19 7.6-.27 4.3 3 22-13.48 2.19-23.32-4.47-24.33-18.08-17.94 10.53-13.19 10.11-13.19 26.79 0 1.49-2.06 2.24-4.42-.87 1.76-6.65 1.69-19.08 2.66-21 .34-.67 14.07-8.28 14.07-8.28z" fill="#42210b"/><path d="M900.25 396.52c0 .38-15.56 1.05-15.56-.34a89.13 89.13 0 0015.56.34z" fill="#053a66"/><path d="M900.25 396.52a89.13 89.13 0 01-15.56-.34c.06-3.41 0-5.93 0-7.75 5.07 0 10.32-.21 15.52-.53a74 74 0 00.04 8.62z" fill="#998675"/><path d="M900.25 387.9c0 10.77-.3 8.52 0 0zm-15.57 8.87c3.84.22 8.23.28 12.67.11a97.6 97.6 0 01-12.67-.11z" fill="#053a66"/><path d="M894.28 137c.65 1.86.43 1.39-10.54 1.34-21.32-.04 7.58-9.63 10.54-1.34z" fill="#42210b"/><path d="M891.88 249.7c.74 8.16-3.73 78.67-5.2 85.34s-5.94 28.95-4.46 33.41-11.86 10.86-17.06 8.4c-2.86-1.36-8.61-2.65-13.23-3.53a10.44 10.44 0 00-6.86-2c-4.06-60.25-3-39.6-.88-103.58-3.85 11-3.06 75.79-3.41 104.25a60.75 60.75 0 00-7 2.31c-13.7 5.11-12.07 5.11-12.9 10.23-1.08 6.76.24 5.69-2.26 6.35-11.73-102.48-4.43-62.11 2.77-148.55 3-35.93-.29-24.45 58.31-57.67.75-.4-.68 20.34 3.28 23.52 14.79 11.75 6.88 19.54 8.9 41.52z" fill="#534741" stroke="#000" stroke-miterlimit="10" stroke-width=".86"/><path d="M890 172.13a18 18 0 002.35.55 14.16 14.16 0 01-2.35-.55z" fill="#f2d0b7"/><path d="M889.75 143.58c0 4.26-3.58 4.26-3.58 0s3.58-4.25 3.58 0z" fill="#232044"/><path d="M884.68 388.43c0 1.82.07 4.34 0 7.75-14.41-1.54-32.13-8.34-31.08-9.4 4.27-2.13 4.3 1.81 31.08 1.65z" fill="#998675"/><path d="M884.68 396.77c-10.16-.8-18.32-3.55-29.86-8.88 20.32 9.11 29.86 7.11 29.86 8.88z" fill="#053a66"/><path d="M888.57 171.67a15.46 15.46 0 01-6.61-4.35 16.78 16.78 0 006.61 4.35z" fill="#f2d0b7"/><path d="M882 167.32c.42.71-1.2-1.34-1.78-2.2a18 18 0 001.78 2.2z" fill="#cc7e5f"/><path d="M882 167.32a22.59 22.59 0 01-4.55-7.61c1.19 1.87 2.31 4.2 4.55 7.61z" fill="#cc7e5f"/><path d="M877.41 159.71c-3-4.45-5.22-3.23-6.21-5.94-4.55-12.8-1.7-9.06 0-15.67.14 0 3.98 15.9 6.21 21.61z" fill="#f2d0b7"/><path d="M858.42 408.17c0 6.68-10.26 10.8-25 1.29-8.59-5.56-15.34-7.35-12.52-25 .83-5.12-.8-5.12 12.9-10.23 5.54-2.14 16.72-6 20.38 1.3 5.6 11.1-.76 9.66-3.63 14.62-3.72 5.56 7.87 10.66 7.87 18.02z" fill="#edc1a0"/><path d="M857.85 405.19zm-.06-.19c.06.16.15.17.05.16a1 1 0 00-.05-.16z" fill="#736357"/><path d="M856.28 383a10.83 10.83 0 00-1.08-5.43c.22.43 1.8 2.71 1.08 5.43zm-.46 30.2a4.52 4.52 0 01-.53.37c-.43.31.43-.29.53-.37zm-.45-35.59c-.18.16-.58-1.11-.76-1.29-.31-.61.47.74.76 1.29zm-.23 36.04a2.26 2.26 0 01-.3.17c-.63.32-.33.18.3-.17z" fill="#edc1a0"/><path d="M854.49 414c.43-.19.5-.25 0 0-1.16.64-.17.05 0 0zm.04-37.84c.12.21.14.29-.19-.26.06.1.15.21.19.26z" fill="#edc1a0"/><path d="M854.18 375.62s-.06-.09 0-.05 0 .03 0 .05z" fill="#e3e0dd"/><path d="M854.39 414c-2.44 1.3-6.63 1.23-9.59.49 3.95.89 7.2.62 9.59-.49zm-.81-27.19l-.38.35c-.2-.07-.2-.05.38-.35z" fill="#edc1a0"/><path d="M848.68 642.16c11.07 33.23 13.2 22.11 3.7 36.37-1.48 2.23-13.35 7.41-20 11.13s-23.74 1.86-27.46 0c-2.58-.93-1.48-5.2 0-14.1s14.11-8.9 19.06-12.91 1-23.45 1-23.45 21.46 2.96 23.7 2.96z" fill="#998675"/><path d="M844.8 414.52c-.12 0-.57-.13-.69-.17zm-.69-.17s-.81-.2-.81-.22c.28.08.55.16.81.22zm-.79-.21s-.06 0 0 0z" fill="#edc1a0"/><path d="M920.47 164.8c.21 2.37 0 7.92.12 18.85m-40.91.97c.45-24.1 0-19.65 2.28-17.3m.09.15a23.62 23.62 0 01-4.64-7.76m-28.73 482.45c11.07 33.23 13.2 22.11 3.7 36.37-1.48 2.23-13.35 7.41-20 11.13s-23.74 1.86-27.46 0c-2.58-.93-1.48-5.2 0-14.1s14.11-8.9 19.06-12.91 1-23.45 1-23.45m136.82 6.63c2.8.44 4.73 1.57 4.86 3.78.62 9 8.18 18.53 12.62 20.75s7.42 14.84 5.2 21.52-17.8 7-23.74 6-27.09-16.89-28.15-19.7c-2.88-7.69 3.65-28.55 3.65-28.55m-5.07-236.04a7.75 7.75 0 01.89-1.31m-.46 8.77c-2-1.86-1.78-4.74-.63-7.07m1.35 7.64a2.88 2.88 0 01-.38-.28m31.81-25.56c-1.14 21.7-6.8 22.45-13.16 24.58m-.59-39.63c-1.78 3.66-3 3.5-4.29 3.89-7.24.1-43.93 17.13-45.42 10.61 0-15.8-.31-1.21 0 0" fill="none" stroke="#141500" stroke-miterlimit="10" stroke-width=".99"/><path d="M833.38 409.46c-.27 33.07-.42 73.81.46 76.86 1.48 5.2 6.1 46-.67 55.67-6.41 9.17-3.19 13.37-4.45 63.07-2.88 5.44-6.44 21.77-3.8 34.14 0 0 21.52 3 23.76 3s8.9-13.36 10.39-21.52c2.78-15.33-1.61-45.83 28.19-184 4.07-2 7.88-2.31 11.14.74.75 8.9 14.1 45.28 15.58 56.4s10.38 54.92 11.14 69.77c3.38 67.89 4.65 24.51 11.12 86.07 9.51-1.36 15.09 1 20.3-.53 7.29-2.13 13.85-14.21 13.1-19.51-24.45-171.08-6.84-45-19-209.18-9.79 3.28-23.54 4.44-20.11-5.29 3.14-8.89 20.09-4 12-10.57-5.84-4.71-15.06-7.36-12.27-11.32 2.47-3.52 13.31-6.3 17.6-6.73-.11-1.31-.83-1.84-2.12-1.83m-33.24 10.22c10.58-2.1 19.08-5.56 25.07-7.88m-36.67 9.43c-8.53 1.35-26.81-.32-46.31-8.68M853.33 399c-3-3.56-3.6-6.45-2.89-8.64m7.14 14.21h0zm.26.62h.01m.55 2.52a6.13 6.13 0 01-.17 2m.07-2.87a3.11 3.11 0 00-.08-.44" fill="none" stroke="#141500" stroke-miterlimit="10" stroke-width=".99"/><path d="M897.91 396.86a121 121 0 01-13.23-.09c0-.1.07-4.43 0-8.34m45.86-248.58c-.09 4.88 3.87 7 1.22 11.91-2.19 4.12-5.71 4.43-17.16 21.1-9.55 13.87-26.14 4.62-31.92-4.42-3.77-5.88-4.54-8.16-6.61-10.47s-4-1.85-4.87-4.2c-4.55-12.8-1.7-9.06 0-15.67" fill="none" stroke="#141500" stroke-miterlimit="10" stroke-width=".99"/><path d="M930.54 139.85c2.6 1.11.47-.48 4.1-8 2.67-5.59 3.37-23.67 0-30.59-2.41-5-13.79-20.4-23-19.45-6.47.68-12.73-.67-15.63 2.24a6.45 6.45 0 01-6 2s-13 3.79-16.29 6.7-8.94 14.52-8.71 18.31c1.37 23.49 6.27 26.09 6.27 27.05h0c2.36 3.11 4.42 2.36 4.42.87 0-16.68-4.75-16.26 13.19-26.79 1 13.61 10.85 20.27 24.33 18.08-6.67-36.2-.91-4.13 6.7-.67 9.09 4.12 8.59 2.14 8.59 5-1.25 4.59-1.81 3.6 2.03 5.25zm-32.3 11.07s-2.68 9.26 5.13 9.73" fill="none" stroke="#141500" stroke-miterlimit="10" stroke-width=".99"/><path d="M918.57 143.58c0 4.26-3.59 4.26-3.59 0s3.59-4.25 3.59 0zm-28.82 0c0 4.26-3.58 4.26-3.58 0s3.58-4.25 3.58 0zm-6.01-5.22c11 0 11.19.52 10.54-1.34-2.96-8.31-31.86 1.28-10.54 1.34zm35.62 0c-11 0-11.2.52-10.54-1.34 2.96-8.31 31.86 1.28 10.54 1.34zm-16.57 31c-3.52-.26-8.95-3.5-9.47-4.48 8.74.16 7.64-1.18 8.95 0 0 0 1 .18 1.44-.27s6.53.08 6.86 0-4.25 4.99-7.78 4.75zM951 369c.41 4.33-.22 6.6-1 11.61-.75 3-68.69 12.53-94.92 5.06m51.94-173.17h-19.44m-33.4 163.12v-.06zm2.1 7.38c.73-2.63-1.13-6.24-1.94-7.05" fill="none" stroke="#141500" stroke-miterlimit="10" stroke-width=".99"/><path d="M963.78 395.76c0-.51.05-1 .06-1.58-15.75-8.35-14.24-7.88-16.05-7.73 8.49-12 10.57-15.72 8.33-40.28-.55-6.09.55-70.7-3.33-81.82 2.15 64.28 3.19 43.13-.93 104.46-4.5.72-15.92 2.74-20.05 4.69-5.19 2.48-18.55-3.95-17.06-8.4s-3-26.73-4.45-33.4c-1.59-7.18-8.87-109.26-3.28-119.2 4.66-8.23 11.18-5.1 13.64-29.32 55.11 31.27 52 20.3 54.94 55.76 5.66 67.89 21.85 86.11-11.82 156.82z" fill="#534741" stroke="#141500" stroke-miterlimit="10" stroke-width=".99"/><path d="M963.84 394.18a8.59 8.59 0 01-.09 1.6c-20.87-12.2-21.27-12.92.09-1.6zm-120.56 19.95c.05-.1 18.52 4.94 14.51-9.1-1.73-4.6-10.47-10.06-7.28-14.85 2.62-4.54 8.93-4.21 4.12-13.83a9.59 9.59 0 00-2.7-3m-6.86-2.07a20.32 20.32 0 00-4.29.67m12.42 15.21l.38-.35m4.27 18.39h0l-.06-.16m.58 2.22c0-.34-.08-.48 0 .31m-.04 1.65a5.15 5.15 0 01-.26 1" fill="none" stroke="#141500" stroke-miterlimit="10" stroke-width=".99"/><path d="M820.25 390.4c-.55 14.15 8 16.24 23 23.72.74.74 9.19 2 12.58-.92" fill="none" stroke="#141500" stroke-miterlimit="10" stroke-width=".99"/><path d="M590.72 670.36c4.45 2.22 7.42 14.84 5.19 21.52s-17.79 7-23.73 6-27.09-16.89-28.15-19.7c-2.38-6.32 1.63-21.54 3.12-26.76.78 8.27-1.68 4.25 13.71 5.44 5.94.47 10.82.09 16.27-9.34a3.15 3.15 0 011 2.14c.59 8.96 8.15 18.48 12.59 20.7z" fill="#bcb5af"/><path d="M577.13 647.47a6.9 6.9 0 00-3.9-1.64c-7.31 6.77-12.53 1.94-25.55 3.75 0 0-.22.66-.53 1.79-6-61-7.31-17-10.59-91.29-.77-16.7-9.66-66-11.14-78.51s-14.83-53.46-15.58-63.47c-3.26-3.44-7.07-3.07-11.14-.83-38.53 201.09-19.38 205.38-36.89 229.83-.55-1.52-1.11-3.17-1.7-4.94-2.23 0-23.75-3-23.75-3s.54 2.66 1 6.22c-3.47-.58-2.12-28 2.83-38.58 1.26-55.92-2-60.65 4.45-71 6.77-10.85 2.15-56.79.67-62.64-.89-3.43-.73-49.29-.47-86.5 14.47 10.46 24.43 6 24.94-.19 1.78-9.48-14.55-14.91-5.11-24.9.11 0 1.6.81 1.62.83 56.65 28.3 92.08-13.46 93-1.63-4.51.58-11.85 2.87-15.42 5.44-7.87 5.72 3.36 8.76 10.09 14.88 7.39 6.71-7.32 3.2-11.28 10.15s.52 14.85 19.32 7.76c12.21 184.8-5.4 42.88 19.05 235.41.38 2.77-1.11 8.21-3.92 13.06z" fill="#a6a09c"/><path d="M573.23 645.83a7 7 0 013.9 1.64c-5.19 9-10 9.84-16.27 9.34-15.39-1.19-12.93 2.83-13.71-5.44.61-2.14.09-1.77 2.34-2 12.44-1.14 16.82 2.87 23.74-3.54z" fill="#a6a09c"/><path d="M562.17 352.13c-1.66 6 .22-2.49.42-5.76.26-4.54.63 1.83-.42 5.76z" fill="#738696"/><path d="M562.61 345.67a27 27 0 01-.72 5.63c.81-5.07.72-7.54.72-5.63z" fill="#738696"/><path d="M561.46 354.21c0 .15-.06.16-.07.18s.06-.12.07-.18z" fill="#edeceb"/><path d="M549.22 361.42c3.55-1.56 6.22-2.63 7.89-2.65z" fill="#738696"/><path d="M546.08 101.24c3.37 6.92 2.67 25 0 30.59-3.63 7.54-1.52 9.17-4.11 8 .14-8.48 3.22-5.39-3-16.22-1.93-10.18-6.6-18.89-13.54-22.47-3-1.52-22.87-17.8-33 0-9 15.88-12.32 24.68-9.79 36.91-2.52-3.35-5.34-11.09-6.26-27-.24-3.79 5.36-15.41 8.71-18.31S501.41 86 501.41 86a6.43 6.43 0 006-2c2.91-2.91 9.17-1.56 15.63-2.24 9.25-.92 20.63 14.47 23.04 19.48z" fill="#857971"/><path d="M542 139.85c-.08 4.88 3.87 7 1.23 11.91-1.88 3.53-4.21 3.91-11.3 13-.45-5.72-3.4 7.39-20.24 8.33 18-1.13 26.74-17.33 28.07-34.27.98.46 1.68.8 2.24 1.03z" fill="#f0e3da"/><path d="M539 123.63c6.22 10.82 3.15 7.73 3 16.22-4.68-1.94-.14-.37-3-16.22z" fill="#7d7b88"/><path d="M539.91 133.14c.23.29.2.7 0 1.4.02-.48 0-.93 0-1.4z" fill="#f0e3da"/><path d="M538.93 138.53c2.17.92-1.77 33-27.27 34.6-17.39 1.05-23.69-7.84-29-35 2.36 3.11 4.42 2.36 4.42.87 0-16.68-4.76-16.26 13.18-26.79 1 13.61 10.86 20.27 24.34 18.08-6.67-36.2-.91-4.13 6.7-.67 10.84 4.87 9.19 1.18 7.63 8.91zm-8.13-.17c21.32-.06-7.58-9.65-10.55-1.34-.65 1.86-.44 1.39 10.55 1.34zm-4.38 5.22c0 4.26 3.58 4.26 3.58 0s-3.58-4.25-3.58 0zm-12.19 25.78c3.53.24 8.12-4.78 7.78-4.73s-6.44-.48-6.86 0-1.44.27-1.44.27c-1.31-1.19-.21.15-9 0 .57.96 5.99 4.2 9.52 4.46zm-19.06-31c11 0 11.2.52 10.55-1.34-2.96-8.31-31.87 1.28-10.55 1.34zm2.44 5.22c0 4.26 3.58 4.26 3.58 0s-3.58-4.25-3.58 0z" fill="#f0e3da"/><path d="M539.93 134.56c0 5-.13 4.33-1 4 .39-1.95.78-3.17 1-4z" fill="#7d7b88"/><path d="M539.91 133.14c-.53-.78-2.72-.9-8.57-3.55-4.92-2.23-9.06-16.4-9.57-16.4-.16-6.43-2.29-4.89 8.23-5.16 9.51 16.87 9.73 14.7 9.91 25.11zM520.25 137c3-8.31 31.87 1.28 10.55 1.34-10.99.07-11.2.54-10.55-1.34z" fill="#857971"/><path d="M539 123.63c-2-3.36-4.8-8.22-9-15.6l-30.59.77s-13.73 7.61-14.07 8.28c-1 1.91-.9 14.34-2.67 21-2.53-12.23.8-21 9.79-36.91 10.09-17.8 30-1.52 33 0 6.9 3.57 11.54 12.28 13.54 22.46z" fill="#857971"/><path d="M531.91 184.38c-4.61 26.76-7.47 17.57-13.46 28.12-26.24 0-28.61 4.24-26.83-47.37 10 15 25.63 20.48 34.42 7.73 2.25-3.28 4.2-5.9 5.86-8.06.1.92.2 18.56.01 19.58z" fill="#eadbcf"/><path d="M531.9 164.8c-1.66 2.16-3.61 4.78-5.86 8.06-9.56 13.87-26.19 4.64-31.93-4.42-1.91-3 .88 3.12 11.09 4.45 22.09 2.89 26.21-14.45 26.7-8.09z" fill="#f0e3da"/><path d="M530 143.58c0 4.26-3.58 4.26-3.58 0s3.58-4.25 3.58 0z" fill="#7d7b88"/><path d="M522 164.63c.34 0-4.25 5-7.78 4.73s-9-3.5-9.47-4.48c8.74.16 7.64-1.18 9 0 0 0 1 .18 1.44-.27s6.49.09 6.81.02z" fill="#fff"/><path d="M521.65 108.24c.18 7.6-.27 4.3 3 22-13.48 2.19-23.32-4.47-24.34-18.08-17.94 10.53-13.18 10.11-13.18 26.79 0 1.49-2.06 2.24-4.42-.87 1.77-6.65 1.69-19.08 2.67-21 .34-.67 14.07-8.28 14.07-8.28z" fill="#857971"/><path d="M562.52 346.87c-.2 2.59-1.11 7.62-1.13 7.72-3 3-45.87 9.48-74.37 8.32-24.32-1-18.58-3-19.18-6.51.69-4.26-2-5.68-1.19-5.68.28.07 6.81 1.15 9.94 2.44 5.22 2.12 18.57-3.41 17.07-7.18-3.6-9.42 8.26-9.43 9.32-109.78.09-8.89 3-16.84-3.59-23.7 26.23 0 16.79-2.46 16.79 8.72 0 98.36 13 113.77 10 121.61-1.73 4.19 11.95 9.57 17.07 7.48 3.56-1.45 19.1-4.42 19.27-3.44z" fill="#94c2d6"/><path d="M467.71 355.63a21 21 0 00-2.94-5.54c2.16.37 1.77.18 2 .79 1.4 3.12 1.32 6.12.94 4.75zm48.48-132.95a19.93 19.93 0 01.08-2.49c.02.2-.07 1.81-.08 2.49zm.35 15.75c.41-3.94.35-3.13 0 .09-.07.55-.09.72 0-.09zm.25-25.93a20.23 20.23 0 00-.61 4.75c0-.72.15-4.75.61-4.75zm9.4 130.14c-.44 1.21.27-.12.3-2.65a7.93 7.93 0 01-.3 2.65zm35.27 13.56c-.49 2.44-66.79 10.84-94 4.66.71-2.43-.14 2.4 28.65 2.19 27.19-.09 65-6.48 65.34-8.84 2.15-14.87 1.16-4.21.01 1.99z" fill="#94c2d6"/><path d="M511.69 372.37c0 .1-.77.07-.87.07z" fill="#738696"/><path d="M511.69 372.16c0 .91-14.35.36-15.57.28 0-1.54 2.79.67 15.57-.28z" fill="#738696"/><path d="M511.69 362.46c0 10.76-.06 11.17-.06 0zm-15.57 9.98a122.67 122.67 0 0013.22.1 87.18 87.18 0 01-13.22-.1z" fill="#738696"/><path d="M505.72 137c.65 1.86.43 1.39-10.55 1.34-21.32-.04 7.59-9.63 10.55-1.34z" fill="#857971"/><path d="M503.61 222.35c-1 23.24-.08 15.05-.22 23.27-1.25 74.2-12.59 92.47-9.73 99.94 1.46 3.78-11.8 9.56-17.07 7.36-3.52-1.49-9.88-2.42-10.11-2.53-2.77 0-3.47-4.26-9.69-4.13a1.85 1.85 0 00-.41 0c-4-49.06-2.76-36.4-.75-89.06-3.73 9.32-3.11 63.16-3.39 89.81-.77 0-6.34 2.34-7.05 2.65-12.69 5.4-12.78 4.78-13.44 14.08-.12 1.34.32 1-1.71 1.44-11.73-89.85-4.43-54.46 2.77-130.25 3-31.49-.3-21.43 58.31-50.56-.17 25-2.17 18.05 8.84 28.72 3.34 3.25 4.04 2.42 3.65 9.26z" fill="#94908d" stroke="#000" stroke-miterlimit="10" stroke-width=".86"/><path d="M501.52 372.25c.61.05 1.23.07 1.82.09-.6-.02-1.21-.04-1.82-.09z" fill="#bcb5af"/><path d="M501.45 172.13a19.89 19.89 0 002.36.56 16.62 16.62 0 01-2.36-.56z" fill="#f0e3da"/><path d="M501.19 143.58c0 4.26-3.58 4.26-3.58 0s3.58-4.25 3.58 0z" fill="#7d7b88"/><path d="M499.29 372.11l1 .06z" fill="#bcb5af"/><path d="M494.4 208.14a4.2 4.2 0 01-1.15-1.79c6.29 6.39 10.27 9.08 1.15 1.79z" fill="#94908d"/><path d="M497.36 371.92c-.27 0-1.34-.14-1.23-.14.4.06.87.09 1.23.14z" fill="#a6a09c"/><path d="M496.13 371.78c0 2-17-2-29.57-9.17a93.13 93.13 0 0029.57 9.17z" fill="#738696"/><path d="M500 171.67a15.58 15.58 0 01-6.61-4.35 16.86 16.86 0 006.61 4.35z" fill="#f0e3da"/><path d="M493.49 167.47a16.83 16.83 0 01-1.87-2.34 28.28 28.28 0 001.87 2.34z" fill="#d2b6ab"/><path d="M493.39 167.32a22.73 22.73 0 01-4.54-7.61c1.23 1.87 2.35 4.2 4.54 7.61z" fill="#d2b6ab"/><path d="M491 203.07c0-40.54-.28-3 2.26 3.28-1.71-1.69-2.16-2.45-2.26-3.28zm0-1.89v-3.46 3.46z" fill="#94908d"/><path d="M488.85 159.71c-3-4.45-5.23-3.23-6.21-5.94-4.56-12.8-1.71-9.06 0-15.67.13 0 3.98 15.9 6.21 21.61z" fill="#f0e3da"/><path d="M482.87 369.74a104.32 104.32 0 01-15.87-6.88 106.36 106.36 0 0015.87 6.88z" fill="#738696"/><path d="M469.84 384.75c.41 7.23-8.87 13.66-25 2-7.2-5.25-13.6-7.48-13.13-21.44.33-11.66 1.66-12.41 4.42-14a131.34 131.34 0 0116.12-5.19c0-1.31-.78-2.07 4.16-2.32.14 1.8 0 1.69.41 1.73 9.59-.13 13 9.39 9.75 12.39 3 .76-4.24 4.84-4.66 7.31-3.24 6.77 7.93 12.01 7.93 19.52z" fill="#eadbcf"/><path d="M469.29 381.91zm-.07-.16c.07.17.16.16.06.16a1 1 0 00-.06-.16z" fill="#a6a09c"/><path d="M467.84 356.24c-.18 1.37-.11 0 .05-1.51a6.24 6.24 0 01-.05 1.51z" fill="#eadbcf"/><path d="M467.89 354.73c-.17 1.83.06-.66-1.25-3.94a7.31 7.31 0 011.25 3.94z" fill="#eadbcf"/><path d="M467.76 355.44a7.88 7.88 0 01-.29 2.68c-1.75-.37-.24-.03.29-2.68zm-.51 35.49a2.78 2.78 0 01-.53.41c-.32.32.43-.34.53-.41zm-.25-39.68s-.18-.32-.2-.34.13.24.2.34z" fill="#eadbcf"/><path d="M466.81 350.88c-.1.11-.8-1.53-.84-1.63a17.33 17.33 0 01.84 1.63z" fill="#eadbcf"/><path d="M466.77 350.91c-.1 0-.18-.23-.21-.33.08.11.14.22.21.33z" fill="#eadbcf"/><path d="M466.26 362.46c.32.18.47.24 0 0z" fill="#738696"/><path d="M466.58 391.43a2.61 2.61 0 01-.3.2c-.52.26-.49.3.3-.2zm-.37-41.7c.84 2.07-.4-.55-.65-.55-2-2.23-3.31-2.13-.79-1.67a10.5 10.5 0 011.44 2.22z" fill="#eadbcf"/><path d="M465.93 391.82c.27-.13.6-.33 0 0s-.3.18 0 0z" fill="#eadbcf"/><path d="M466 349.25c.15.29-.1-.12-.19-.3zm-.17 42.62c-1.4.93-5.67 1.77-9.6.54 3.96.97 7.23.67 9.6-.54z" fill="#eadbcf"/><path d="M465.6 348.58s0 .13 0 0-.01-.02 0 0z" fill="#edeceb"/><path d="M465 361.23c-.39.39-.33.4-.38.4s-.21-.08.38-.4zm-.23-13.72c-3.21-.58-3.17-2.08-8-2-.37 0-.28.06-.41-1.73a9.72 9.72 0 018.41 3.73z" fill="#eadbcf"/><path d="M461.81 647.1c9.58 27.17 11 17.93 2 31.43-1.48 2.23-13.36 7.41-20 11.13s-23.75 1.86-27.46 0c-2.59-.93-1.48-5.2 0-14.1s14.1-8.9 19.06-12.91c3.11-2.52 2.69-11.17 1.95-17.23 24.31 3.7 22.87 3.86 24.45 1.68z" fill="#bcb5af"/><path d="M460.11 642.16c2.73 8.23 4.76 7.44-22.78 3.26-.43-3.56-1-6.22-1-6.22s21.55 2.96 23.78 2.96z" fill="#a6a09c"/><path d="M456.23 392.41a5.79 5.79 0 01-.68-.18zm-1.46-.41zm-.02 0s-.05 0 0 0zm-2.51-47.49c0 2.36.54 1.06-7.05 3.57-23.73 7.67 6.95-3.58 7.05-3.57z" fill="#eadbcf"/><path d="M561.39 354.39c-2.51 5.84-2 2.55-12.17 7-15.72 3.93-36.19 16-37.53 9.29v-8.25c24.39-1.6 47.9-6.14 49.7-8.04zm-49.7 17.77a79.17 79.17 0 01-8.35.18c-9.38-.26-7 .61-7.22-9.29 15.18-.05 15.6-1 15.5-.43a93.66 93.66 0 00.07 9.54z" fill="#bcb5af" stroke="#000" stroke-miterlimit="10" stroke-width=".86"/><path d="M496.13 371.78c-15.57-1.91-30-9.21-30.1-9.45-2.5-1.11-.84-.64.5-2.44 8.91 2.76 20.27 3.23 29.59 3.16.04 1.64.06 5.61.01 8.73z" fill="#bcb5af" stroke="#000" stroke-miterlimit="10" stroke-width=".86"/><path d="M466.24 362.45h0zm85.18.27l.66-.22m9.38-8.29c2.2-5.41 1.13-10.35 1.13-9.28M501.82 212.5h-2.03m18.66 0h-1.78m-15.15 159.75c.61.05 1.23.07 1.82.09m-35.71-12.12l-1.1-.33m26.67 11.48c1.38.23 3.5.49 4.16.55m-7.71-1.19c.76.16 1.52.3 2.29.43m-25.7-8.71v.01m16.63 7.28a104.32 104.32 0 01-15.87-6.88m.84-6.62a5.4 5.4 0 01-.11.58m-1.95-7.82a14.51 14.51 0 01.81 1.46m-1.02-1.9s.05.06.05.08zM531.9 164.8c.21 2.36 0 7.89.13 18.75m-40.91.84c.44-23.86.05-19.4 2.27-17.07m.1.15a23.45 23.45 0 01-4.64-7.76M461.81 647.1c9.58 27.17 11 17.93 2 31.43-1.48 2.23-13.36 7.41-20 11.13s-23.75 1.86-27.46 0c-2.59-.93-1.48-5.2 0-14.1s14.1-8.9 19.06-12.91c3.11-2.52 2.69-11.17 1.95-17.23m139.77 2.05a3.15 3.15 0 011 2.14c.62 9 8.18 18.53 12.62 20.75s7.42 14.84 5.19 21.52-17.79 7-23.73 6-27.09-16.89-28.15-19.7c-2.38-6.32 1.63-21.54 3.12-26.76" fill="none" stroke="#141500" stroke-miterlimit="10" stroke-width=".99"/><path d="M575.45 365.74c-.39 28.05-5.7 30.35-13.42 33.24-18.78 7.09-24-.61-19-8.38 3.71-5.78 18.08-2.9 10.87-9.45-6.75-6.13-23.66-11.34-2.48-18.43a46.24 46.24 0 017.81-1.89c2.68-2.83 1.19-4.03 16.22 4.91z" fill="#eadbcf" stroke="#141500" stroke-miterlimit="10" stroke-width=".99"/><path d="M511.69 370.71v0c1.29 6.5 23.19-5.67 37.53-9.25 10.22-4.49 9.68-1.22 12.17-7m-4.28 4.31c1.29 0 2 .58 2.12 2.06m-13.86 4.47a9.68 9.68 0 00-.88.52M543 390.6a3.36 3.36 0 01.47-.71m-.66 1.11c0 .06-.07.11-.09.16m-.33.66a8 8 0 00-.47 1.21m-.03.13c-1.54 4.63 2 7.56 1.1 6.58m1.62 1.18a5.53 5.53 0 01-1.05-.67" fill="none" stroke="#141500" stroke-miterlimit="10" stroke-width=".99"/><path d="M444.81 386.72c-.26 37.22-.41 83.07.47 86.5 1.48 5.85 6.1 51.79-.67 62.64-6.41 10.32-3.19 15.06-4.45 71-2.88 6.13-6.44 24.5-3.8 38.43 2.09.34 21.63 3.32 23.75 3.32 2.3 0 9-15.32 10.39-24.21 2.79-17.26-1.6-51.58 28.2-207.11 4.07-2.24 7.88-2.61 11.14.83.74 10 14.09 51 15.58 63.47s10.37 61.81 11.14 78.51c3.38 76.54 4.35 25.7 11.12 96.86 11-1.76 16.84 2 22.58-1.7 6.06-3.88 11.53-15.27 10.82-20.85C556.63 441.86 574.24 583.77 562 399m-38.06-28.64C534.52 368 543 364.1 549 361.49M498.24 372c-17.17-1.32-36.87-11.71-31-9.08m45.1 9.18c-3.06.64-16.76-.09-12.09.07m-35.48 2.75c-3-4-3.6-7.27-2.89-9.72m7.12 16.02h0zm.28.69h.01m.55 2.84a7.44 7.44 0 01-.18 2.28m.08-3.26a2.92 2.92 0 00-.09-.5" fill="none" stroke="#141500" stroke-miterlimit="10" stroke-width=".99"/><path d="M509.34 372.54a122.67 122.67 0 01-13.22-.1c0-2.43.1-3.09 0-9.39M542 139.85c-.08 4.88 3.87 7 1.23 11.91-2.2 4.14-5.69 4.4-17.16 21.1-9.55 13.88-26.14 4.62-31.93-4.42-3.75-5.86-4.53-8.16-6.61-10.47s-4-1.85-4.86-4.2c-4.56-12.8-1.71-9.06 0-15.67" fill="none" stroke="#141500" stroke-miterlimit="10" stroke-width=".99"/><path d="M542 139.85c2.6 1.11.48-.48 4.11-8 2.67-5.59 3.37-23.67 0-30.59-2.41-5-13.79-20.4-23-19.45-6.46.68-12.72-.67-15.63 2.24a6.43 6.43 0 01-6 2s-13 3.79-16.29 6.7-8.95 14.52-8.71 18.31c1.37 23.49 6.26 26.09 6.26 27.05h0c2.36 3.11 4.42 2.36 4.42.87 0-16.68-4.76-16.26 13.18-26.79 1 13.61 10.86 20.27 24.34 18.08-6.67-36.2-.91-4.13 6.7-.67 9.08 4.12 8.59 2.14 8.59 5-1.27 4.59-1.83 3.6 2.03 5.25zm-32.32 11.07s-2.68 9.26 5.13 9.73" fill="none" stroke="#141500" stroke-miterlimit="10" stroke-width=".99"/><path d="M530 143.58c0 4.26-3.58 4.26-3.58 0s3.58-4.25 3.58 0zm-28.81 0c0 4.26-3.58 4.26-3.58 0s3.58-4.25 3.58 0zm-6.02-5.22c11 0 11.2.52 10.55-1.34-2.96-8.31-31.87 1.28-10.55 1.34zm35.63 0c-11 0-11.2.52-10.55-1.34 2.97-8.31 31.87 1.28 10.55 1.34zm-16.57 31c-3.53-.26-9-3.5-9.47-4.48 8.74.16 7.64-1.18 9 0 0 0 1 .18 1.44-.27s6.53.08 6.86 0-4.3 4.99-7.83 4.75zm48.29 177.12a12.56 12.56 0 000-3m-59.29-127.81a12.83 12.83 0 00-1.17-3.17m-35.5 138.08c.75 1.08 1.55 3.54 1.2 4.84m.15 2.78l-.44-.08" fill="none" stroke="#141500" stroke-miterlimit="10" stroke-width=".99"/><path d="M587 231.94c-2.95-31 .18-21.43-54.93-48.78-6.76 31.81-6.66 17.25-13.66 29.75-4.31 7.77-.4 10.88-1.91 25.52-.22 2 .05 8.39.13 10.41 3.51 82.7 12.4 85.86 9.52 93.49-1.52 3.8 11.83 9.53 17.07 7.34 4.45-1.85 18.87-4 20-4.09 4.12-53.67 3.08-35.16.92-91.4 3.89 9.72 2.79 66.25 3.35 71.57 2.21 21.39.18 24.79-8.34 35.25 1.81-.13.3-.53 16 6.77 0 .47-.06.92-.07 1.38C609 310 592.34 287.69 587 231.94zm-54.91-45.14c-.07-2.17-.07-1.76 0-.08a.11.11 0 010 .08z" fill="#94908d" stroke="#141500" stroke-miterlimit="10" stroke-width=".99"/><path d="M516.18 217.25c.24-.28.46-.55.68-.83m-.41 5.88l-.26.38m-.01-5.25c0 1.09.12 2.49.09 2.76m-25.15-35.57c.8-.4-.62 14.94 2.13 21.73m-36.87 137.42a18.57 18.57 0 00-4.14.74m2.53 47.49s0 0 0 0zm14.96-5.39c-.55 4.24-5.53 8.09-14.18 5.62m9.09-30.6c.05 0 0 0 .38-.4m4.27 20.69l-.07-.17m.59 2.49c-.05-.43-.07-.45 0 .35" fill="none" stroke="#141500" stroke-miterlimit="10" stroke-width=".99"/><path d="M463.36 347.27c1.06.18 1.86-.16 3.2 3.31 3.76 9.78-1.85 9.34-4.61 14.44-4 7.35 10.35 13.06 7.56 22.57m-33.41-36.31c-2.81 1.61-4.06 2.33-4.42 14-.47 14 5.93 16.21 13.13 21.44 6.11 4.43 17.11 9.54 22.44 4.21" fill="none" stroke="#141500" stroke-miterlimit="10" stroke-width=".99"/><path fill="none" stroke="#666" stroke-linecap="round" stroke-miterlimit="10" stroke-width="10" d="M709.42 698.09H694V81.91h15.42m0 308.12H694"/><path fill="none" stroke="#000" stroke-linecap="round" stroke-miterlimit="10" stroke-width="10" d="M321.88 160.65l-84.64 84.64m84.64 2.74l-84.64-84.64"/><path fill="none" stroke="#66c14a" stroke-linecap="round" stroke-miterlimit="10" stroke-width="10" d="M1183.36 159.28l-57.59 84.64m0 2.74l-27.05-84.64"/></svg>