<svg xmlns="http://www.w3.org/2000/svg" viewBox="0 0 700 700"><path fill="#f6e0cf" d="M0 0h700v700H0z"/><path fill="none" stroke="#000" stroke-miterlimit="10" stroke-width="1.48" d="M.77 195.3h696.22M.77 355.08h696.22M.77 510.95h696.22"/><path d="M126.67 220.48c0 25.75-38.93 25.75-38.93 0s38.93-25.75 38.93 0zm146.49 0c0 25.75-38.92 25.75-38.92 0s38.92-25.75 38.92 0z" fill="#f2d0b7" stroke="#000" stroke-miterlimit="10" stroke-width=".71"/><path d="M203.59 379.29c-6.91 7.81-7.64 8.76-9.43 10.44-1.62 1.51-4.31 1.06-4.68-2.16-.44-3.92 6.57-13.52 8.44-15.48 7.59-8 4.59-15.77 6.32-29.4 2.8-21.91 6.69-19.66 8.6-35.83 7.38-62.35-1.5-50 27.5-60.68 6.41-2.35 7.52-4.46 6.53-11.7 4.14 2.28 8.2 2.76 12.41-.14 0 6.81-1.92 11.4 16.91 14.65a15.89 15.89 0 0113.37 14.7c.18 2.42 2.91 45 6.54 54.59 8 21 5.82 34.88 7.64 45.73 1.24 7.41 9 8.78 13 21.5 1.13 3.56-1.72 7.11-4.52 4.33-3-3-3.58-4.21-9.34-10.45-2.74 2.5-.37 5.81-2.06 8.39-5-3.33-.29-15.83-7.37-32-16.42-37.47-4.91-39.72-21.2-88.83-25 13.36-11.89 16.68-37.65-.15-4.28 3.79-11.85 53.12-12.56 60.46-1.54 16-8.36 24.56-11.83 35.92-2.1 6.88-.87 18-4.58 25-1.81-2.98.37-6.18-2.04-8.89z" fill="#f2d0b7" stroke="#000" stroke-miterlimit="10" stroke-width=".71"/><path d="M278.5 344.68c4.55 33.61 1.66 61.73 6.14 91.17 8.14 53.49-2.14 55.52 6.92 66.89 1.12 1.4 3.79 8.06-3.37 8.11-15.18.13-16.77.74-16.16-3.69a13.73 13.73 0 011.82-4.89c4.34-7.35 4.29-4.81 2.27-14.16-14.65-67.89 3.26-1.49-21.16-122.47-.6-2.95-8.91-4.76 23.54-20.96zm0 86.53h-6.63c2.61 2.04 4.24 2.01 6.63 0z" fill="#f2d0b7" stroke="#000" stroke-miterlimit="10" stroke-width=".71"/><path d="M250.68 365.64c-24.43 121-6.52 54.58-21.17 122.47-2 9.35-2.06 6.81 2.27 14.16a13.54 13.54 0 011.82 4.89c.62 4.43-1 3.82-16.16 3.69-7.16-.05-4.48-6.71-3.37-8.11 9.07-11.37-1.22-13.4 6.92-66.89 4.48-29.44 1.59-57.56 6.14-91.17 32.46 16.2 24.15 18.01 23.55 20.96zm-16.92 65.57h-6.63c2.4 2.01 4.03 2.04 6.63 0zm14.06-144.8c6-1.24 3.57-13 6.53-4a6.1 6.1 0 005.7 4.51c4.22.27 8.58.91 12.39-2.29-2.5 31.85-3.58 24.37 6.33 43.87-13.87 3.09-41.22 3.54-51-.05 6.11-17.26 8.92-3.35 6.05-43.64-.11.09 3.36 3.82 14 1.6zm8.66 29.15l-3.82.29c1.8 2.15 1.82 2.15 3.82-.29z" fill="#f2d0b7" stroke="#000" stroke-miterlimit="10" stroke-width=".71"/><path d="M260.06 239.7c-2.28-15 12.25-10.58 7.5-21.49-1.42-3.26.08-3.58-2.2-6.33-1.69-2-2.79-14.31-2.79-1.64-.77.08-.52.21-1.34-4.66-.68-.15-.46-.19-1.62 5.49h-17c-4.38 0-1.9 1.11-3.82 7.36-3.45 11.26 8 5.78 8 19.08 0 3.06.16 2.43-4.94 2.43l-.41-4.76c-2.79 1.11.6 4.9-3.77 5.15-4.66.26-1.29-9.39-3.88-9.6-1.12 8.36-.21 9.48-2.13 9.57-1.26.05-1.48-.89-1.47-2.08.09-10.6-.21-15.76 1.23-25.92 2.71-19.09 17.37-26.59 30.09-20.59C273.31 197.29 274.9 222 275 237c0 3.63.11 2.7-14.94 2.7z" fill="#daa73b" stroke="#000" stroke-miterlimit="10" stroke-width=".7"/><path d="M271.81 268.88c2.12 8.95 3.89 19-5.57 19.24-5.47.16-10.55.33-11.07-5.83-.31-3.58 2.24-5 16.64-13.41zm-37.08-.14c15.36 10 17.53 10.19 16.27 14.33-1.43 4.7-3.17 6-12.74 4.87-7.16-.84-5.88-12-3.53-19.2z" fill="#f2d0b7" stroke="#000" stroke-miterlimit="10" stroke-width=".71"/><path d="M249.36 228c2.63 2.39 5.18 2.28 7.87.12-.71 3.88-6.51 4.76-7.87-.12zm11.64-9.62c-.95.64-1.61 1.42-2.09 1.32a1.53 1.53 0 01.2-3c.53-.03 1.05.87 1.89 1.68zm-15.19-.29c.91-.69 1.53-1.5 2-1.43a1.53 1.53 0 010 3c-.54.06-1.11-.8-2-1.57z"/><path d="M250.63 215.7c-2.41-1.55-4.3-1.36-6.31-1.36m12.32 1.36c2.41-1.55 4.29-1.36 6.31-1.36" fill="#f2d0b7" stroke="#000" stroke-miterlimit="10" stroke-width=".71"/><path d="M253.24 219.34c-.7 6.55-1.45 6.68 1.57 5.78" fill="none" stroke="#000" stroke-miterlimit="10" stroke-width=".71"/><path d="M213.18 285.9l17 6.14c1.93-5.57 1.1-10.05 2.78 18.47h39.5l2.22-22.65c4.49 4.78.67 4.64 19.75-2.85 0 0-.22-22.51-3.33-27-5.15-7.52 1.33-8-14.64-9.06L254 274.27l-23.31-25.36a12.78 12.78 0 00-10.61 4.09c-6.5 7.29-7.81-4.23-6.9 32.9z" fill="#2d2d2b" stroke="#000" stroke-miterlimit="10" stroke-width=".71"/><path d="M233.22 311c-10.95 27.62-17.86 58.43-22.19 91 0 0 28.82 9 41.49 9s40.1-7.27 42.4-8.64c4.22-2.51-18.64-91.77-23.17-91.42z" fill="#284f4f" stroke="#000" stroke-miterlimit="10" stroke-width=".65"/><path d="M57.67 379.29c-6.9 7.81-7.64 8.76-9.43 10.44-1.62 1.51-4.31 1.06-4.67-2.16-.45-3.92 6.57-13.52 8.43-15.48 7.59-8 4.59-15.77 6.33-29.4 2.79-21.91 6.67-19.69 8.59-35.83 7.38-62.35-1.5-50 27.5-60.68 6.41-2.35 7.52-4.46 6.53-11.7 4.14 2.28 8.2 2.76 12.41-.14 0 6.81-1.92 11.4 16.91 14.65a15.88 15.88 0 0113.37 14.7c.18 2.42 2.91 45 6.54 54.59 8 21 5.82 34.88 7.64 45.73 1.24 7.41 9 8.78 13 21.5 1.13 3.56-1.72 7.11-4.52 4.33-3-3-3.58-4.21-9.34-10.45-2.73 2.5-.37 5.81-2.06 8.39-5-3.33-.29-15.83-7.36-32-16.43-37.47-4.92-39.72-21.2-88.83-25 13.36-11.9 16.68-37.66-.15-4.27 3.79-11.85 53.12-12.56 60.46-1.54 16-8.36 24.56-11.83 35.92-2.1 6.88-.86 18-4.57 25-1.82-2.98.38-6.18-2.05-8.89z" fill="#f2d0b7" stroke="#000" stroke-miterlimit="10" stroke-width=".71"/><path d="M138.21 344.68c4.55 33.61-4 61.73.51 91.17 8.15 53.49-2.14 55.52 6.93 66.89 1.11 1.4 3.78 8.06-3.38 8.11-15.18.13-16.77.74-16.16-3.69a13.56 13.56 0 011.83-4.89c4.33-7.35 4.28-4.81 2.27-14.16-14.66-67.89 3.25-1.49-21.17-122.47-.6-2.95-3.29-4.76 29.17-20.96zm-5.63 86.53H126c2.56 2.04 4.19 2.01 6.58 0zm-27.82-65.57c-24.43 121-6.52 54.58-21.17 122.47-2 9.35-2.06 6.81 2.27 14.16a13.54 13.54 0 011.82 4.89c.62 4.43-1 3.82-16.15 3.69-7.16-.05-4.49-6.71-3.38-8.11 9.07-11.37-1.22-13.4 6.92-66.89 4.48-29.44-4-57.56.52-91.17 32.46 16.2 29.77 18.01 29.17 20.96zm-16.92 65.57h-6.63c2.4 2.01 4.03 2.04 6.63 0zm14.06-144.8c6-1.24 3.58-13 6.53-4a6.1 6.1 0 005.7 4.51c4.23.27 8.58.91 12.39-2.29-2.52 31.86-3.52 24.37 6.33 43.88-13.87 3.09-41.22 3.54-51-.05 6.11-17.26 8.92-3.35 6.06-43.64-.12.08 3.36 3.81 13.99 1.59zm8.66 29.15l-3.81.29c1.79 2.15 1.81 2.15 3.81-.29z" fill="#f2d0b7" stroke="#000" stroke-miterlimit="10" stroke-width=".71"/><path d="M114.14 239.7c-2.27-15 12.25-10.58 7.51-21.49-1.43-3.26.07-3.58-2.21-6.33-1.68-2-2.79-14.31-2.79-1.64-.77.08-.51.21-1.34-4.66-.68-.15-.46-.19-1.62 5.49h-17c-4.38 0-1.91 1.11-3.83 7.36-3.45 11.26 8 5.78 8 19.08 0 3.06.16 2.43-4.94 2.43l-.4-4.76c-2.8 1.11.59 4.9-3.78 5.15-4.66.26-1.29-9.39-3.88-9.6-1.12 8.36-.21 9.48-2.12 9.57-1.27.05-1.49-.89-1.48-2.08.09-10.6-.21-15.76 1.23-25.92 2.71-19.09 17.37-26.59 30.09-20.59C127.39 197.29 129 222 129.09 237c.03 3.63.1 2.7-14.95 2.7z" fill="#daa73b" stroke="#000" stroke-miterlimit="10" stroke-width=".7"/><path d="M75.44 344.54c9.08-27.88-2.22-8.59 46.21-14.57 10.61-1.31 12.19-1.84 13.27 1.52 4.26 13.19 4.81 13 2 14.47-28.67 14.91-28 19.78-31.42 16.6-6.07-5.67-13.19-9.08-30.06-18.02zm50.45-75.66c2.12 8.95 3.89 19-5.57 19.24-5.47.16-10.55.33-11.07-5.83-.31-3.58 2.24-5 16.64-13.41zm-37.08-.14c15.36 10 17.53 10.19 16.27 14.33-1.43 4.7-3.17 6-12.74 4.87-7.16-.84-5.88-12-3.53-19.2z" fill="#4b3224" stroke="#000" stroke-miterlimit="10" stroke-width=".71"/><path d="M103.44 228c2.63 2.39 5.18 2.28 7.87.12-.71 3.88-6.51 4.76-7.87-.12zm11.65-9.62c-1 .64-1.61 1.42-2.09 1.32a1.53 1.53 0 01.2-3c.52-.03 1.04.87 1.89 1.68zm-15.2-.29c.91-.69 1.53-1.5 2-1.43a1.53 1.53 0 010 3c-.54.06-1.11-.8-2-1.57z" stroke="#000" stroke-miterlimit="10" stroke-width=".7"/><path d="M104.71 215.7c-2.41-1.55-4.29-1.36-6.31-1.36m12.32 1.36c2.41-1.55 4.3-1.36 6.31-1.36" stroke="#000" stroke-miterlimit="10" stroke-width=".71"/><path d="M107.32 219.34c-.7 6.55-1.45 6.68 1.57 5.78" fill="none" stroke="#000" stroke-miterlimit="10" stroke-width=".7"/><path d="M483.18 385.51c-4.9-12.72-14.39-14.1-15.9-21.5-2.21-10.85.41-24.7-9.31-45.73-4.42-9.56-7.76-52.17-8-54.59-1.25-13.94-15.72-14.05-31-18.23-6.81-1.87-6-6.35-6-11.12-5.13 2.89-10.09 2.42-15.13.14 1.21 7.24-.15 9.34-8 11.71-35.37 10.66-24.54-1.68-33.54 60.67-2.33 16.17-7.07 13.92-10.48 35.83-2.12 13.63 1.55 21.43-7.7 29.4-2.28 2-10.84 11.56-10.29 15.48.44 3.22 3.72 3.67 5.69 2.16 2.18-1.68 3.08-2.63 11.5-10.45 3 2.69.28 5.92 2.53 9 .88-1.36 1.84-2.26 2-3.26 2-10.2 1.92-17.42 3.54-21.78 4.24-11.37 12.55-19.9 14.43-35.92.86-7.34 10.1-56.67 15.31-60.45-.58 40.47-3.54 43.74-8.42 61.66h62.24c-3.81-20.78-7.63-28.76-4.58-60.62 15.72 59.44 4.11 53.46 22.53 87.94 8.63 16.14 2.9 28.65 9 32 2.05-2.59-.82-5.91 2.52-8.4 7 6.24 7.71 7.43 11.38 10.45 3.57 2.72 7.05-.83 5.68-4.39zM405 315.85l4.65-.29c-2.43 2.44-2.45 2.44-4.65.29z" fill="#f2d0b7" stroke="#000" stroke-miterlimit="10" stroke-width=".71"/><path d="M403.12 203.59c-.05-.57.16-.57 0 0z" fill="#fff" stroke="#000" stroke-miterlimit="10" stroke-width=".73"/><path d="M423.48 223.1c-.9 7-6 11-10.42 15.12-2.24 2.1-12.35 2.07-14.74-.12-4.1-3.76-7.28-6-8.74-10.95.65 0 1.13-.35 1.13-1.26 0-25.37 10.1-14.59 12.41-22.3.47 5.15 6.79 3.66 12.06 5.7 4.6 1.77 8.3 13.81 8.3 13.81zM447 502.74c-9.64-11.37 1.29-13.4-7.36-66.89-3.48-21.56.43-42.41.87-65.22l-31 1.81c23.79 111.66 5.78 49.09 21.05 115.68 2.15 9.34 2.2 6.8-2.41 14.15a13.07 13.07 0 00-1.94 4.89c-.65 4.43 1 3.82 17.18 3.7 7.61-.07 4.79-6.72 3.61-8.12zm-20.94-71.53h7.05c-2.56 2.02-4.29 2.04-7.06 0zm-42.63 71.06c-4.61-7.35-4.56-4.81-2.41-14.15 15.27-66.59-2.74-4 21.05-115.68l-31-1.82c.45 22.82 4.36 43.67.88 65.23-8.66 53.49 2.28 55.52-7.36 66.89-1.19 1.4-4 8.05 3.58 8.12 16.15.12 17.84.73 17.19-3.7a13.24 13.24 0 00-1.93-4.89zm2.1-71.06c-2.76 2-4.49 2-7 0z" fill="#f2d0b7" stroke="#000" stroke-miterlimit="10" stroke-width=".71"/><path d="M400.91 229.6c3.22 2.38 6.33 2.27 9.6.12-3.13 3.54-5.51 4.79-9.6-.12zm14.27-11.22c-1.15.64-2 1.42-2.55 1.32s-1.54-1.07-1.49-1.6a2.28 2.28 0 011.73-1.43c.64 0 1.27.9 2.31 1.71zm-18.53-.29c1.11-.69 1.86-1.5 2.46-1.43s1.61 1 1.59 1.53a2.23 2.23 0 01-1.64 1.5c-.63.03-1.33-.83-2.41-1.6z"/><path d="M402.52 215.7c-2.94-1.55-5.23-.46-7.69-.46m15.03.46c2.93-1.55 5.23-.68 7.69-.68" stroke="#000" stroke-miterlimit="10" stroke-width=".78"/><path d="M405.71 219.34c-1 7.36-1.37 7.81 0 7.47" fill="none" stroke="#000" stroke-miterlimit="10" stroke-width=".78"/><path d="M440.5 370.63l-31 1.81-3.75-8.95-3.7 8.95-31-1.82c0-18.07.27-16.81 3.51-42.13h62.24c2.59 18.43 4.03 25.89 3.7 42.14z" fill="#4b3224" stroke="#000" stroke-miterlimit="10" stroke-width=".73"/><path d="M423.48 223.1c-6.71-21.85-16.47-11.64-19.67-17.59-.84-1.55-.78-2.88-.69-1.92-1.21 4-6.95 3.24-9.74 6.81-4.83 6.13.44 23.44-6.81 14.57-1.5-.25-1-5.53-.52-8.36.4-2.56 0 0-.44-8.43s5.55-7.78 6.66-10.66 9-4.81 14.63-3.25c12.39 3.41 4.67-2.3 16.58 7.24 3.2 2.57 6.82 16.2 2.36 21.59-3.95 4.79-2.36 0-2.36 0z" fill="#553e37" stroke="#000" stroke-miterlimit="10" stroke-width=".73"/><path d="M403.12 203.59c-.05-.57.16-.57 0 0z" fill="none" stroke="#000" stroke-miterlimit="10" stroke-width=".73"/><path d="M392.51 276.66c.8-.5 1.34-1.09 1.77-1s1.17.72 1.15 1.1a1.6 1.6 0 01-1.18 1.09c-.46-.01-.96-.63-1.74-1.19zm29.66.09c-.79.51-1.32 1.11-1.75 1.07s-1.18-.7-1.18-1.08a1.61 1.61 0 011.16-1.11c.46-.03.98.58 1.77 1.12z"/><path d="M653.74 385.74c-4.89-12.72-14.38-14.09-15.89-21.49-2.21-10.85.41-24.71-9.32-45.74-4.42-9.56-7.75-52.17-8-54.59-1.24-13.94-15.72-14.05-31-18.23-6.8-1.87-6-6.35-6-11.12-5.14 2.9-10.09 2.43-15.14.14 1.21 7.25-.14 9.35-8 11.71-35.22 10.67-24.39-1.67-33.39 60.67-2.34 16.17-7.08 13.92-10.48 35.83-2.12 13.63 1.55 21.43-7.71 29.4-2.28 2-10.84 11.57-10.29 15.48.45 3.22 3.73 3.68 5.69 2.16 2.19-1.68 3.09-2.63 11.5-10.44 3 2.69.29 5.91 2.54 9 .88-1.36 1.84-2.26 2-3.26 2-10.2 1.91-17.42 3.54-21.77 4.24-11.37 12.54-19.91 14.42-35.93.86-7.33 10.1-56.67 15.32-60.45-.59 40.47-3.55 43.75-8.43 61.66h62.3c-3.81-20.77-7.63-28.76-4.58-60.62 15.71 59.44 4.11 53.46 22.53 87.94 8.63 16.15 2.9 28.65 9 32 2-2.59-.82-5.9 2.51-8.4 7 6.24 7.71 7.44 11.39 10.45 3.39 2.71 6.87-.83 5.49-4.4zm-78.17-69.65l4.65-.3c-2.43 2.48-2.45 2.48-4.65.3z" fill="#f2d0b7" stroke="#000" stroke-miterlimit="10" stroke-width=".71"/><path d="M573.69 203.82c-.06-.56.15-.56 0 0z" fill="#fff" stroke="#000" stroke-miterlimit="10" stroke-width=".73"/><path d="M594.05 223.33c-.9 7-5.58 10.73-10.42 15.13-2.29 2.07-12.36 2.08-14.75-.13-3.49-3.23-7.28-6-8.74-11 .65 0 1.14-.34 1.14-1.26 0-25.36 10.1-14.59 12.41-22.3.47 5.16 6.79 3.67 12 5.7 4.65 1.82 8.36 13.86 8.36 13.86zM617.55 503c-9.64-11.37 1.3-13.4-7.35-66.89-3.49-21.55.43-42.4.87-65.22l-31 1.82c23.79 111.65 5.77 49.08 21 115.67 2.14 9.34 4.66 7.78.06 15.13-6.12 9.74-1 7.71 12.77 7.61 7.68-.12 4.84-6.75 3.65-8.12zm-20.93-71.53h7c-2.5 1.99-4.23 2.02-7-.03zM554 502.5c-4.61-7.35-4.55-4.81-2.41-14.15 15.28-66.59-2.74-4 21-115.67l-31-1.83c.44 22.82 4.36 43.67.87 65.23-8.65 53.49 2.29 55.52-7.35 66.89-1.19 1.4-4 8.06 3.58 8.12 16.14.12 17.84.74 17.18-3.7a13 13 0 00-1.87-4.89zm2.11-71.06c-2.77 2.05-4.5 2-7.05 0z" fill="#f2d0b7" stroke="#000" stroke-miterlimit="10" stroke-width=".71"/><path d="M571.48 229.83c3.21 2.38 6.32 2.28 9.6.12-3.08 3.54-5.52 4.79-9.6-.12zm14.26-11.21c-1.15.63-2 1.41-2.54 1.31s-1.55-1.07-1.5-1.6a2.3 2.3 0 011.74-1.42c.64 0 1.27.89 2.3 1.71zm-18.52-.3c1.1-.69 1.85-1.5 2.45-1.43s1.61 1 1.6 1.53a2.23 2.23 0 01-1.64 1.5c-.63.08-1.33-.83-2.41-1.6z"/><path d="M573.09 215.93c-2.94-1.55-5.24-.46-7.7-.46m15.03.46c2.94-1.55 5.24-.68 7.69-.68" stroke="#000" stroke-miterlimit="10" stroke-width=".78"/><path d="M576.28 219.58c-1 7.35-1.38 7.8 0 7.47" fill="none" stroke="#000" stroke-miterlimit="10" stroke-width=".78"/><path d="M611.07 370.86l-31 1.82-3.75-9-3.71 9-31-1.83c0-18.07.26-16.81 3.5-42.13h62.29c2.6 18.43 4 25.89 3.67 42.14z" fill="#fff" stroke="#000" stroke-miterlimit="10" stroke-width=".73"/><path d="M594.05 223.33c-6.72-21.84-16.47-11.64-19.68-17.59-.84-1.55-.78-2.87-.68-1.92-1.21 4-7 3.25-9.75 6.81-4.83 6.13.45 23.44-6.81 14.57-1.49-.24-1-5.53-.52-8.36.4-2.56 0 0-.44-8.43s5.55-7.77 6.66-10.66 9-4.8 14.64-3.25c12.38 3.41 4.67-2.3 16.58 7.25 3.2 2.56 6.81 16.2 2.36 21.58-3.96 4.79-2.36 0-2.36 0z" fill="#553e37" stroke="#000" stroke-miterlimit="10" stroke-width=".73"/><path d="M573.69 203.82c-.06-.56.15-.56 0 0z" fill="none" stroke="#000" stroke-miterlimit="10" stroke-width=".73"/><path d="M615.71 351.17a470.34 470.34 0 01-78.19 0c16.17-56.77 17.58-56.36-4.14-1.48l-18.15-4.47s15.78-88.73 19.33-91.69 28.16-9.62 28.16-9.62 9.55 13.24 13.76 13.1 13.31-13.1 13.31-13.1 25.55 4 28.21 9.62c4 8.55 10.56 57 19.72 93.57L621 350c-17.69-50.49-20.06-62.72-5.29 1.17z" fill="#2d2d2b"/><path fill="#284f4f" stroke="#000" stroke-miterlimit="10" stroke-width=".7" d="M537.52 351.17V499.7h15.62l23.2-135.98 27.33 135.98h12.04V351.17h-78.19z"/></svg>