<svg xmlns="http://www.w3.org/2000/svg" viewBox="0 0 1400 780"><path fill="#f6e0cf" d="M0 0h1400v780H0z"/><path fill="none" stroke="#000" stroke-miterlimit="10" stroke-width="2.11" d="M204.63 169.12h990.74M204.63 396.49h990.74M204.63 618.3h990.74"/><path d="M383.79 204.94c0 36.65-55.39 36.65-55.39 0s55.39-36.64 55.39 0zm208.47 0c0 36.65-55.39 36.65-55.39 0s55.39-36.64 55.39 0z" fill="#f2d0b7" stroke="#000" stroke-miterlimit="10" stroke-width="1.01"/><path d="M493.25 430.93c-9.82 11.12-10.87 12.47-13.42 14.86-2.3 2.16-6.13 1.51-6.65-3.07-.63-5.57 9.35-19.24 12-22 10.8-11.34 6.52-22.44 9-41.84 4-31.17 9.5-28 12.23-51 10.5-88.72-2.14-71.15 39.13-86.34 9.12-3.36 10.7-6.35 9.29-16.66 5.89 3.25 11.67 3.92 17.67-.2 0 6.79-1 13.16 7 15.82 5.64 1.89 11.29 4 17.11 5a22.6 22.6 0 0119 20.92c.25 3.45 4.14 64.07 9.3 77.68 11.35 29.92 8.29 49.64 10.87 65.08 1.77 10.54 12.84 12.49 18.55 30.59 1.61 5.07-2.45 10.12-6.43 6.16-4.29-4.29-5.1-6-13.29-14.86-3.89 3.54-.53 8.26-2.93 11.94-7.09-4.74-.41-22.53-10.48-45.51-21.5-49.06-5.86-23.43-24.2-108-1.32-6.12-3.84-12-6-18.4-35.55 19-16.93 23.73-53.58-.21-6.09 5.38-16.87 75.59-17.88 86-2.19 22.79-11.89 34.94-16.83 51.12-1.9 6.2-1.84 16.47-4.14 31-.23 1.43-1.35 2.71-2.37 4.65-2.62-4.31.51-8.9-2.95-12.73z" fill="#f2d0b7" stroke="#000" stroke-miterlimit="10" stroke-width="1.01"/><path d="M599.86 381.69c6.47 47.82 2.36 87.84 8.73 129.73 11.59 76.12-3.05 79 9.85 95.19 1.59 2 5.39 11.46-4.8 11.55-21.6.17-23.87 1.05-23-5.26a19.31 19.31 0 012.59-7c6.17-10.45 6.1-6.84 3.23-20.14-20.85-96.62 4.64-2.13-30.12-174.28-.84-4.17-12.67-6.74 33.52-29.79zm0 123.13h-9.44c3.71 2.91 6.03 2.87 9.44 0z" fill="#f2d0b7" stroke="#000" stroke-miterlimit="10" stroke-width="1.01"/><path d="M560.26 411.52C525.5 583.67 551 489.18 530.14 585.8c-2.87 13.3-2.94 9.69 3.23 20.14a19.31 19.31 0 012.59 7c.88 6.31-1.39 5.43-23 5.26-10.19-.09-6.39-9.55-4.8-11.55 12.9-16.18-1.74-19.07 9.85-95.19 6.37-41.89 2.26-81.91 8.74-129.73 46.19 23.01 34.36 25.58 33.51 29.79zm-24.07 93.3h-9.43c3.41 2.87 5.72 2.91 9.43 0zm20-206.04c8.52-1.78 5.09-18.52 9.3-5.68a8.67 8.67 0 008.11 6.41c6 .38 12.21 1.29 17.63-3.27-3.56 45.34-5.09 34.69 9 62.44-19.74 4.39-58.65 5-72.64-.07 8.69-24.57 12.7-4.76 8.62-62.1-.09.1 4.85 5.41 19.98 2.27zm12.33 41.47l-5.43.42c2.56 3.11 2.58 3.1 5.43-.42z" fill="#f2d0b7" stroke="#000" stroke-miterlimit="10" stroke-width="1.01"/><path d="M573.62 232.31c-3.24-21.38 17.43-15.07 10.67-30.58-2-4.65.11-5.11-3.13-9-2.4-2.91-4-20.37-4-2.33-1.09.12-.73.29-1.9-6.63-1-.22-.66-.27-2.31 7.81h-24.2c-6.4 0-2.71 1.57-5.43 10.46-4.91 16 11.32 8.23 11.36 27.15 0 4.36.23 3.46-7 3.46l-.58-6.76c-4 1.57.85 7-5.37 7.32-6.62.37-1.83-13.36-5.53-13.66-1.59 11.9-.29 13.49-3 13.62-1.81.08-2.12-1.27-2.11-3 .14-15.09-.29-22.42 1.76-36.89 3.86-27.16 24.71-37.83 42.82-29.3 16.82 7.92 19.08 43 19.23 64.46.02 5.19.1 3.87-21.28 3.87z" fill="#daa73b" stroke="#000" stroke-miterlimit="10"/><path d="M590.33 273.82c3 12.74 5.54 27-7.92 27.38-7.79.24-15 .48-15.76-8.3-.43-5.09 3.19-7.11 23.68-19.08zm-52.76-.19c21.85 14.21 24.95 14.49 23.15 20.39-2 6.69-4.51 8.52-18.13 6.93-10.18-1.2-8.36-17.08-5.02-27.32z" fill="#f2d0b7" stroke="#000" stroke-miterlimit="10" stroke-width="1.01"/><path d="M558.38 215.61c3.75 3.4 7.38 3.24 11.21.17-1.02 5.49-9.27 6.82-11.21-.17zM575 202c-1.34.91-2.28 2-3 1.88a2.91 2.91 0 01-1.74-2.28 2.88 2.88 0 012-2c.74-.06 1.49 1.2 2.74 2.4zm-21.66-.45c1.29-1 2.17-2.14 2.86-2a2.17 2.17 0 01-.05 4.31c-.74.01-1.55-1.22-2.81-2.31z"/><path d="M560.19 198.14c-3.43-2.2-6.11-1.92-9-1.92m17.56 1.92c3.43-2.2 6.11-1.92 9-1.92" fill="#f2d0b7" stroke="#000" stroke-miterlimit="10" stroke-width="1.01"/><path d="M563.91 203.33L563 212a9.53 9.53 0 003.17-.4" fill="none" stroke="#000" stroke-miterlimit="10" stroke-width="1.01"/><path d="M506.9 298l24.17 8.74c2.76-7.93 1.58-14.3 4 26.28h56.21l3.15-32.23 4.79 5.1 23.32-9.16s-.32-32-4.74-38.47c-7.34-10.7 1.89-11.34-20.84-12.89l-31.91 36.13-33.17-36.09a18.16 18.16 0 00-15.16 5.8c-9.25 10.39-11.11-6-9.82 46.79z" fill="#2d2d2b" stroke="#000" stroke-miterlimit="10" stroke-width="1.01"/><path d="M535.43 333.77c-15.59 39.3-25.43 83.13-31.58 129.55 0 0 41 12.83 59 12.83s57.06-10.35 60.32-12.3c6-3.57-26.51-130.58-33-130.08z" fill="#284f4f" stroke="#000" stroke-miterlimit="10" stroke-width=".92"/><path d="M285.6 430.93c-9.82 11.12-10.86 12.47-13.41 14.86-2.31 2.16-6.13 1.51-6.65-3.07-.64-5.57 9.35-19.24 12-22 10.8-11.34 6.53-22.44 9-41.84 4-31.17 9.51-28 12.23-51 10.51-88.72-2.14-71.15 39.13-86.34 9.12-3.36 10.7-6.35 9.3-16.66 5.89 3.25 11.67 3.92 17.66-.2 0 6.79-1 13.16 6.95 15.82 5.64 1.89 11.3 4 17.11 5a22.59 22.59 0 0119 20.92c.26 3.45 4.15 64.07 9.31 77.68 11.35 29.92 8.29 49.64 10.87 65.08 1.76 10.54 12.84 12.49 18.55 30.59 1.6 5.07-2.45 10.12-6.43 6.16-4.3-4.29-5.1-6-13.29-14.86-3.9 3.54-.54 8.26-2.93 11.94-7.1-4.74-.42-22.53-10.49-45.51-21.49-49.06-5.86-23.43-24.19-108-1.33-6.12-3.84-12-6-18.4-35.55 19-16.92 23.73-53.58-.21-6.08 5.38-16.87 75.59-17.87 86-2.2 22.79-11.9 34.94-16.84 51.12-1.89 6.2-1.83 16.47-4.13 31-.23 1.43-1.36 2.71-2.38 4.65-2.58-4.31.54-8.9-2.92-12.73z" fill="#f2d0b7" stroke="#000" stroke-miterlimit="10" stroke-width="1.01"/><path d="M400.21 381.69c6.48 47.82-5.64 87.84.74 129.73 11.59 76.12-3.05 79 9.85 95.19 1.59 2 5.39 11.46-4.8 11.55-21.61.17-23.87 1.05-23-5.26a19.52 19.52 0 012.6-7c6.17-10.45 6.1-6.84 3.23-20.14-20.85-96.62 4.64-2.13-30.12-174.28-.85-4.17-4.71-6.74 41.5-29.79zm-8 123.13h-9.43c3.71 2.91 6.02 2.87 9.43 0zm-39.59-93.3c-34.76 172.15-9.27 77.66-30.12 174.28-2.87 13.3-2.94 9.69 3.23 20.14a19.31 19.31 0 012.59 7c.88 6.31-1.39 5.43-23 5.26-10.18-.09-6.38-9.55-4.79-11.55 12.9-16.18-1.74-19.07 9.84-95.19 6.38-41.89-5.74-81.91.74-129.73 46.18 23.01 42.36 25.58 41.51 29.79zm-24.08 93.3h-9.43c3.41 2.87 5.73 2.91 9.43 0zm20.01-206.04c8.51-1.78 5.09-18.52 9.29-5.68a8.68 8.68 0 008.12 6.41c6 .38 12.2 1.29 17.63-3.27-3.57 45.34-5.09 34.69 9 62.44-19.74 4.39-58.65 5-72.64-.07 8.69-24.57 12.69-4.76 8.61-62.1-.09.1 4.86 5.41 19.99 2.27zm12.33 41.47l-5.44.42c2.56 3.11 2.56 3.1 5.44-.42z" fill="#f2d0b7" stroke="#000" stroke-miterlimit="10" stroke-width="1.01"/><path d="M366 232.31c-3.24-21.38 17.43-15.07 10.68-30.58-2-4.65.1-5.11-3.14-9-2.4-2.91-4-20.37-4-2.33-1.09.12-.72.29-1.9-6.63-1-.22-.65-.27-2.31 7.81h-24.19c-6.4 0-2.72 1.57-5.44 10.46-4.91 16 11.33 8.23 11.37 27.15 0 4.36.23 3.46-7 3.46l-.58-6.76c-4 1.57.85 7-5.37 7.32-6.63.37-1.84-13.36-5.53-13.66-1.59 11.9-.3 13.49-3 13.62-1.8.08-2.12-1.27-2.1-3 .13-15.09-.3-22.42 1.75-36.89C329 166.16 349.9 155.49 368 164c16.82 7.92 19.07 43 19.23 64.46.05 5.17.16 3.85-21.23 3.85z" fill="#daa73b" stroke="#000" stroke-miterlimit="10"/><path d="M310.9 381.49c12.92-39.67-3.17-12.23 65.75-20.73 15.11-1.86 17.35-2.62 18.89 2.15 6.07 18.78 6.84 18.48 2.77 20.6-40.79 21.22-39.89 28.14-44.7 23.62-8.61-8.07-18.7-12.92-42.71-25.64zm71.79-107.67c3 12.74 5.54 27-7.93 27.38-7.78.24-15 .48-15.75-8.3-.44-5.09 3.19-7.11 23.68-19.08zm-52.77-.19c21.86 14.21 24.95 14.49 23.16 20.39-2 6.69-4.51 8.52-18.14 6.93-10.18-1.2-8.36-17.08-5.02-27.32z" fill="#4b3224" stroke="#000" stroke-miterlimit="10" stroke-width="1.01"/><path d="M350.74 215.61c3.75 3.4 7.38 3.24 11.2.17-1.01 5.49-9.27 6.82-11.2-.17zM367.31 202c-1.34.91-2.28 2-3 1.88a2.9 2.9 0 01-1.75-2.28 2.87 2.87 0 012-2c.81-.06 1.55 1.2 2.75 2.4zm-21.62-.45c1.3-1 2.17-2.14 2.87-2a2.17 2.17 0 01-.05 4.31c-.75.01-1.51-1.22-2.82-2.31z" stroke="#000" stroke-miterlimit="10"/><path d="M352.54 198.14c-3.42-2.2-6.1-1.92-9-1.92m17.56 1.92c3.43-2.2 6.11-1.92 9-1.92" stroke="#000" stroke-miterlimit="10" stroke-width="1.01"/><path d="M356.27 203.33l-.93 8.63a9.48 9.48 0 003.16-.4" fill="none" stroke="#000" stroke-miterlimit="10"/><path d="M891.12 439.79c-7-18.1-20.47-20.06-22.62-30.59-3.15-15.44.58-35.16-13.26-65.08-6.29-13.61-11-74.24-11.35-77.68-.92-10.27-9.71-19-23.19-20.93-7.09-1-14-3.13-20.87-5-9.68-2.66-8.47-9-8.47-15.82-7.31 4.12-14.36 3.45-21.54.2 1.72 10.31-.21 13.3-11.33 16.66-50.33 15.18-34.91-2.38-47.72 86.34-3.32 23-10.07 19.81-14.91 51-3 19.4 2.2 30.5-11 41.84-3.24 2.79-15.42 16.46-14.64 22 .63 4.58 5.3 5.23 8.1 3.07 3.11-2.39 4.39-3.74 16.36-14.86 4.22 3.83.41 8.42 3.61 12.74 1.25-1.93 2.62-3.21 2.9-4.64 2.81-14.51 2.73-24.78 5-31 6-16.18 17.85-28.33 20.53-51.12 1.22-10.44 14.37-80.65 21.79-86-.84 57.59-5.05 62.26-12 87.75h88.58c-5.43-29.56-10.86-40.93-6.52-86.27 22.43 84.6 5.93 76.06 32.14 125.12 12.28 23 4.13 40.77 12.78 45.51 2.92-3.68-1.17-8.4 3.58-11.95 10 8.88 11 10.58 16.2 14.87 4.85 3.96 9.8-1.09 7.85-6.16zm-111.24-99.12l6.62-.42c-3.5 3.52-3.5 3.53-6.62.42z" fill="#f2d0b7" stroke="#000" stroke-miterlimit="10" stroke-width="1.01"/><path d="M777.2 180.91c-.08-.8.22-.8 0 0z" fill="#fff" stroke="#000" stroke-miterlimit="10" stroke-width="1.03"/><path d="M806.17 208.68c-1.28 9.91-8.49 15.6-14.83 21.52-3.2 3-17.58 2.94-21-.18-5.83-5.35-10.36-8.56-12.44-15.58.93 0 1.62-.49 1.62-1.79 0-36.1 14.36-20.76 17.66-31.74.66 7.34 9.66 5.22 17.15 8.11 6.57 2.52 11.84 19.66 11.84 19.66zm33.45 397.93c-13.72-16.18 1.84-19.07-10.47-95.19-5-30.67.61-60.34 1.24-92.81l-44.08 2.59c33.85 158.89 8.21 69.85 30 164.6 3 13.3 3.12 9.68-3.43 20.14a18.58 18.58 0 00-2.76 7c-.93 6.31 1.48 5.43 24.45 5.26 10.78-.13 6.74-9.6 5.05-11.59zm-29.79-101.79h10c-3.6 2.87-6.06 2.91-10 0zm-60.66 101.12c-6.56-10.46-6.48-6.84-3.43-20.14 21.74-94.75-3.9-5.71 30-164.6l-44.09-2.6c.64 32.47 6.21 62.14 1.25 92.82-12.32 76.12 3.25 79-10.47 95.19-1.69 2-5.73 11.46 5.1 11.55 23 .17 25.38 1.05 24.45-5.26a18.58 18.58 0 00-2.81-6.96zm3-101.12c-3.94 2.91-6.4 2.87-10 0z" fill="#f2d0b7" stroke="#000" stroke-miterlimit="10" stroke-width="1.01"/><path d="M774.05 217.92c4.57 3.39 9 3.24 13.66.17-4.46 5.04-7.86 6.82-13.66-.17zm20.3-15.92c-1.64.91-2.78 2-3.62 1.88s-2.2-1.52-2.13-2.28a3.27 3.27 0 012.47-2c.93-.06 1.81 1.2 3.28 2.4zm-26.35-.45c1.58-1 2.65-2.14 3.5-2s2.29 1.41 2.27 2.17a3.2 3.2 0 01-2.34 2.14c-.92.01-1.9-1.22-3.43-2.31z"/><path d="M776.34 198.14c-4.18-2.2-7.45-.65-11-.65m21.43.65c4.19-2.2 7.45-1 11-1" stroke="#000" stroke-miterlimit="10" stroke-width="1.11"/><path d="M780.88 203.33c-1.38 10.47-2 11.11 0 10.63" fill="none" stroke="#000" stroke-miterlimit="10" stroke-width="1.1"/><path d="M830.39 418.61l-44.09 2.58-5.3-12.74-5.27 12.74-44.1-2.59c0-25.71.38-23.92 5-60h88.58c3.59 26.28 5.64 36.89 5.18 60.01z" fill="#4b3224" stroke="#000" stroke-miterlimit="10" stroke-width="1.04"/><path d="M806.17 208.68s-5.27-17.14-11.82-19.68-14-1.27-16.18-5.37c-1.2-2.21-1.11-4.09-1-2.74-1.73 5.74-9.9 4.62-13.87 9.69-6 7.55-1.38 24.63-5.41 23.84-2.07-.4-4.28-3.11-4.28-3.11-2.13-.34-1.38-7.86-.74-11.89.57-3.64 0 0-.63-12s7.9-11.06 9.48-15.16 12.8-6.84 20.82-4.63c17.63 4.86 6.65-3.27 23.6 10.31 4.55 3.65 9.69 23 3.36 30.72-5.6 6.83-3.33.02-3.33.02z" fill="#553e37" stroke="#000" stroke-miterlimit="10" stroke-width="1.03"/><path d="M777.2 180.91c-.08-.8.22-.8 0 0z" fill="none" stroke="#000" stroke-miterlimit="10" stroke-width="1.03"/><path d="M762.09 284.9c1.14-.71 1.91-1.55 2.52-1.47s1.66 1 1.64 1.57a2.3 2.3 0 01-1.68 1.55c-.66.02-1.37-.86-2.48-1.65zm42.21.1c-1.13.73-1.88 1.59-2.5 1.52s-1.68-1-1.67-1.53a2.3 2.3 0 011.66-1.59c.65-.02 1.38.85 2.51 1.6z"/><path d="M1133.83 440.12c-7-18.1-20.47-20.06-22.62-30.59-3.15-15.44.58-35.16-13.26-65.08-6.29-13.61-11-74.24-11.35-77.68-.92-10.27-9.71-19-23.19-20.93-7.09-1-14-3.13-20.87-5-9.68-2.66-8.47-9-8.47-15.82-7.31 4.12-14.36 3.45-21.54.2 1.72 10.31-.21 13.3-11.33 16.66-50.33 15.18-34.91-2.38-47.72 86.34-3.32 23-10.07 19.81-14.91 51-3 19.4 2.2 30.5-11 41.84-3.24 2.79-15.42 16.46-14.64 22 .63 4.58 5.3 5.23 8.1 3.07 3.11-2.39 4.39-3.74 16.36-14.86 4.22 3.83.41 8.42 3.61 12.74 1.25-1.93 2.62-3.21 2.9-4.64 2.81-14.51 2.73-24.78 5-31 6-16.18 17.85-28.33 20.53-51.12 1.22-10.44 14.37-80.65 21.79-86-.83 57.59-5 62.26-12 87.75h88.58c-5.42-29.56-10.86-40.93-6.52-86.27 22.36 84.59 5.85 76.08 32.06 125.14 12.28 23 4.13 40.77 12.78 45.51 2.92-3.68-1.17-8.4 3.58-11.95 10 8.88 11 10.58 16.2 14.87 4.93 3.94 9.88-1.11 7.93-6.18zM1022.59 341l6.62-.42c-3.47 3.52-3.5 3.53-6.62.42z" fill="#f2d0b7" stroke="#000" stroke-miterlimit="10" stroke-width="1.01"/><path d="M1019.91 181.24c-.08-.8.22-.8 0 0z" fill="#fff" stroke="#000" stroke-miterlimit="10" stroke-width="1.03"/><path d="M1048.88 209c-1.28 9.91-7.93 15.27-14.83 21.52-3.25 2.95-17.58 3-21-.18-5-4.6-10.36-8.56-12.44-15.58.93 0 1.62-.49 1.62-1.79 0-36.1 14.37-20.76 17.66-31.74.67 7.34 9.66 5.22 17.15 8.11 6.57 2.53 11.84 19.66 11.84 19.66zm33.45 397.94c-13.72-16.18 1.84-19.07-10.47-95.19-5-30.67.61-60.34 1.24-92.81l-44.1 2.59c33.85 158.89 8.21 69.85 30 164.6 3 13.3 6.64 11.08.09 21.54-8.71 13.86-1.37 11 18.17 10.82 10.8-.09 6.74-9.56 5.07-11.55zm-29.79-101.79h10c-3.6 2.85-6.06 2.91-10 0zm-60.66 101.12c-6.56-10.46-6.48-6.84-3.43-20.14 21.74-94.75-3.9-5.71 29.95-164.6l-44.09-2.6c.64 32.47 6.21 62.14 1.25 92.82-12.32 76.12 3.25 79-10.47 95.19-1.69 2-5.73 11.46 5.1 11.55 23 .17 25.38 1 24.45-5.26a18.58 18.58 0 00-2.76-6.96zm3-101.12c-3.94 2.91-6.4 2.87-10 0z" fill="#f2d0b7" stroke="#000" stroke-miterlimit="10" stroke-width="1.01"/><path d="M1016.77 218.25c4.57 3.39 9 3.24 13.66.17-4.43 5.04-7.86 6.82-13.66-.17zm20.29-15.95c-1.63.9-2.78 2-3.62 1.87s-2.19-1.52-2.12-2.27a3.27 3.27 0 012.47-2c.9-.03 1.8 1.23 3.27 2.4zm-26.36-.42c1.58-1 2.65-2.14 3.49-2s2.3 1.41 2.27 2.17a3.17 3.17 0 01-2.33 2.14c-.9.01-1.89-1.19-3.43-2.31z"/><path d="M1019.06 198.48c-4.19-2.21-7.45-.66-10.95-.66m21.38.66c4.18-2.21 7.45-1 11-1" stroke="#000" stroke-miterlimit="10" stroke-width="1.11"/><path d="M1023.6 203.66c-1.38 10.47-2 11.11 0 10.64" fill="none" stroke="#000" stroke-miterlimit="10" stroke-width="1.1"/><path d="M1073.1 418.94l-44.1 2.58-5.33-12.74-5.27 12.74-44.1-2.59c0-25.71.39-23.92 5-59.95h88.58c3.64 26.23 5.69 36.84 5.22 59.96z" fill="#fff" stroke="#000" stroke-miterlimit="10" stroke-width="1.04"/><path d="M1048.88 209s-5.27-17.14-11.82-19.66-14-1.27-16.18-5.37c-1.19-2.21-1.1-4.09-1-2.74-1.72 5.74-9.9 4.62-13.87 9.69-5.94 7.55-1.37 24.63-5.41 23.84-2.06-.4-4.28-3.11-4.28-3.11-2.12-.34-1.37-7.86-.74-11.89.57-3.64 0 0-.63-12s7.9-11.06 9.48-15.16 12.81-6.84 20.83-4.63c17.62 4.86 6.65-3.27 23.59 10.31 4.56 3.65 9.7 23.06 3.36 30.72-5.6 6.82-3.33 0-3.33 0z" fill="#553e37" stroke="#000" stroke-miterlimit="10" stroke-width="1.03"/><path d="M1019.91 181.24c-.08-.8.22-.8 0 0z" fill="none" stroke="#000" stroke-miterlimit="10" stroke-width="1.03"/><path d="M1079.71 390.93a669.87 669.87 0 01-111.26 0c23-80.78 25-80.21-5.9-2.11l-25.83-6.37S959.18 256.19 964.24 252s40.06-13.68 40.06-13.68 13.6 18.84 19.58 18.63 18.95-18.63 18.95-18.63S1079.18 244 1083 252c5.77 12.16 15 81.19 28.07 133.16l-23.86 4.1c-25.14-71.85-28.52-89.26-7.5 1.67z" fill="#2d2d2b"/><path fill="#284f4f" stroke="#000" stroke-miterlimit="10" d="M968.45 390.93v211.36h22.22l33.01-193.51 38.89 193.51h17.14V390.93H968.45z"/></svg>