<svg xmlns="http://www.w3.org/2000/svg" viewBox="0 0 1400 780"><path fill="#d1d1d1" d="M0 0h1400v780H0z"/><path d="M415.36 779.22c0-79.53-5-51 24.85-186.4 29.15 16.19 40.83 19 56.39 47.79v138.61z" fill="#8d8d8d"/><path d="M376.31 516.35c8.46-10.52 40-32.51 62.95-23.9 16 6 48.19 22.52 56.39 35.38 6.69 10.5 25.8 47.79 24.85 59.26-.79 9.51-11.91 43-23.9 53.52-15.6-28.74-27.24-31.61-56.39-47.79-41.75 189.18-14.69 96.75-51.63 186.79H297c3.74-13.31 71-252.88 79.31-263.26z" fill="#919191"/><path d="M493.27 294.38c1.15.82 39.61 28 36.8 62.34-2.88 34.89-6.41 50.81-6.41 50.81-10.86-46.98-27.9-103.87-30.39-113.15z" fill="#717171"/><path d="M378.32 223.12c14.23 4.76 17.5 2.14 29.05-6 .1 0-17.52-11.88-37.42-3.19.1.07 3.23 7.49 8.37 9.19zm-25.73-54.41c1.42-17.92 18.44-42.68 38.87-51 0 0 8.28 2.54 23.58 12.1s7.64 7.65 8.23 21c.41 9.58 1.89 11.66 4.35 15.79 10.3 17.55 4.86 56.94-4.35 70.24-27.56 9.87-38.76 10.55-63-1.59-3.41-6.73-7.69-11.83-10.19-17.52-4.51-10.14 1.22-33.08 2.51-49.02z" fill="#cacaca"/><path d="M344.3 458c-8.92.63-31.23.63-31.23.63s-5.1-8.28-2.54-10.82c24.76-24.78 40.76-4.31 179.06-14l-15.92-98.14 27.4-14.67c4.3 15.56 23.16 84.51 25.49 100.68C529.12 439.55 545 467.63 531 474c-84.29 38.3-157.21-18.06-186.7-16z" fill="#d1d1d1"/><path d="M378.32 223.12c-4.87-1.62-8.16-8.68-8.35-9.14 15.75 6.92 4 4.87 18.7 6.75 5.63.73 18.59-3.57 18.7-3.57-11.55 8.1-14.82 10.72-29.05 5.96z" fill="#5a5a5a"/><path d="M365.33 255.39a46.28 46.28 0 00-5.11-20.07c24.29 12.14 35.49 11.46 63 1.59l3.88 51.61c-22.78 18.75-34.6 20.09-58.44 10.7.24-.51-2.61-22.46-3.33-43.83z" fill="#d1d1d1"/><path d="M489.59 433.82c-138.3 9.72-154.3-10.75-179.06 14 0 0-1.29-5.1-.73-17.84s-7.56-14.67-8.84-31.24-3.17-58.62-3.17-58.62c-48.15-40.71-38.88-33.32-49.09-40.12 11.44-14.56 24.87-15.65 45.26-33.76 5.49-4.9 23.37-8.37 25.48-7.66 0 0 4 20.4 9.66 22.94 55.23 25 65.41 33.88 98 7 9 30.14 18.75 47.13 26.12 16.58 0 0 28.05 11.68 31.22 6.79s10.84-10 10.84-10l5.79 19.11-27.4 14.65z" fill="#eaeaea"/><path d="M370 214c19.89-8.69 37.52 3.19 37.42 3.19-14.27-.03-20.25-.64-37.42-3.19z" fill="#5a5a5a"/><path d="M391.46 117.74C371 126 354 150.79 352.59 168.71c-1.29 15.94-7 38.88-2.56 49.09s14.65 18.46 15.3 37.59c.73 21.69 3.58 43.28 3.38 43.83-10.34-4.07-22.91-10.15-39.61-17.71-5.63-2.54-9.66-22.94-9.66-22.94-1-.35-6.65.42-12.54 2 26.89-99.9 34.22-132.1 42.5-141.56 8.91-10.19 22.94-21 37-21 99.57 0 72.86 75.61 109 203.92 0 0-7.64 5.1-10.84 10s-31.22-6.79-31.22-6.79c-7.37 30.55-17.15 13.56-26.12-16.58l-3.88-51.61c11.61-16.77 11.17-55.79 7.69-63.73-4.44-10.23-7.12-8.88-7.69-22.3s7.06-11.47-8.23-21-23.65-12.18-23.65-12.18z" fill="#6b6b6b"/><path d="M368.74 535.65c-7.81 23.16-20 63.7-32.18 105a138.42 138.42 0 01-33.69-12.42c-16.56-8.92-13.38-40.14-12.74-44s22.31-23.59 31.87-29.33 46.74-19.25 46.74-19.25z" fill="#8d8d8d"/><path d="M478.09 512.34l-4.25-25.05c21.12-.64 29.12-4.37 29.26-3.7l-9.86 33.72 14 18.34 4.51-26c-6.65.42.06-22.55 2-28.93-.16-.39 16.82-4.9 20.42-9 0 0 17.43-.88 24.12 9s12.43 33.27 10.52 40.45c-3.25 12.18-15.28 12.78-34.64 14.51-5.8 40.67-5.13 13.2 4.52 65.78 4.3 23.41-3.27 55-18.11 69.3s-23.95 14.34-23.95 14.34v-44.49c12-10.47 23.11-44 23.9-53.52 1-11.47-18.16-48.76-24.85-59.26-2.88-4.47-9.34-9.98-17.59-15.49zM336.56 640.61c-5.08 17.33-10.15 34.8-14.88 51.15 0 0-7.17 3.34-31.55-2.87s-36.33-33.46-37.28-48.28 6.69-47.61 6.22-52.47-6.3-42.88-6.3-42.88-4.22 3.1-15.69 0-21.51-18.87-21.51-18.87c17.76-31.06 21.22-34.95 34.71-39 3.11 15.44 7.79 18.2 30.77 18.91 7.53 20.74-1.83 19.33-9.55 29.35l3.81 27.06 17.41-17.43c-4.24 63.72-12.79 83.77 43.84 95.33z" fill="#717171"/><path d="M344.3 458c16.83-1.2 47.88 16.69 87.16 25.09-42.34 8.93-131.49 30.4-170 20.8-17.84-4.49-10.2-46.55-17.84-72.65s12.74-126.14 12.74-126.14l41.43 35s1.9 42.06 3.17 58.62 9.4 18.48 8.84 31.24.73 17.84.73 17.84c-2.56 2.54 2.54 10.82 2.54 10.82s22.31.05 31.23-.62z" fill="#d1d1d1"/><path d="M368.74 535.65S331.55 549.17 322 554.9s-31.23 25.49-31.86 29.32l5.17-78.07c42.17-1.86 100.05-15.41 136.16-23a177 177 0 0042.38 4.16l4.25 25.05a201.67 201.67 0 00-38.83-19.89c-22.95-8.61-54.49 13.38-62.95 23.9-1.32 1.57-3.96 8.55-7.58 19.28z" fill="#e6e6e6"/><path d="M388.58 779.61H297c3.76-13.31 71-252.88 79.33-263.26s40-32.51 62.95-23.9c16 6 48.19 22.52 56.39 35.38 6.69 10.5 25.8 47.79 24.85 59.26-.79 9.51-11.91 43-23.9 53.52-15.62-28.74-27.26-31.61-56.41-47.79-41.75 189.18-14.69 96.75-51.63 186.79z" fill="none" stroke="#000" stroke-miterlimit="10" stroke-width="1.51"/><path fill="none" stroke="#000" stroke-miterlimit="10" stroke-width="1.51" d="M496.6 640.61v138.61h-81.24v-67.34M452 554.9s-3.19 26.14-7 29.32m-7-14.65a77.35 77.35 0 002.55 14.65m-17.23-19.12s5.1 22.31 8.29 23.58m13.38 56.72l-13.38 15.3m-62.87-125.05S331.55 549.17 322 554.9s-31.23 25.49-31.86 29.32-3.82 35 12.74 44a138.42 138.42 0 0033.69 12.42M501.07 321c4.3 15.56 23.16 84.51 25.49 100.68C529.12 439.55 545 467.63 531 474c-84.31 38.33-157.23-18-186.72-15.93-8.92.63-31.23.63-31.23.63s-5.09-8.27-2.54-10.82c24.8-24.73 40.76-4.31 179.06-14l-15.92-98.14z"/><path d="M431.61 483.1c-.11 0-128.38 31.24-170.15 20.83-17.84-4.49-10.2-46.55-17.84-72.65s12.74-126.18 12.74-126.18l-7.66-5.1c11.44-14.56 24.87-15.65 45.26-33.76 5.49-4.9 23.37-8.37 25.48-7.66 0 0 4 20.4 9.66 22.94 55.23 25 65.41 33.88 98 7 9 30.14 18.75 47.13 26.12 16.58 0 0 28.05 11.68 31.22 6.79s10.84-10 10.84-10l5.79 19.11" fill="none" stroke="#000" stroke-miterlimit="10" stroke-width="1.51"/><path d="M256.36 305.1l41.43 35s1.9 42.06 3.17 58.62 9.4 18.48 8.84 31.24.73 17.84.73 17.84m161.86-65.26c-96.26 19.12-106.1 12.56-135.74 6.5M376.31 409c65.31 4.37 67.71 2.36 89.7-13.44M295.32 506.3l-5.19 77.92m183.71-96.91l4.25 25.03M306.9 260.57c26.89-99.9 34.22-132.1 42.5-141.56 8.91-10.19 22.94-21 37-21 99.57 0 72.86 75.61 109 203.92" fill="none" stroke="#000" stroke-miterlimit="10" stroke-width="1.51"/><path d="M427.15 288.52l-3.88-51.61c11.61-16.77 11.17-55.79 7.69-63.73-4.44-10.23-7.12-8.88-7.69-22.3s7.06-11.47-8.23-21-23.58-12.1-23.58-12.1C371 126 354 150.79 352.59 168.71c-1.29 15.94-7 38.88-2.56 49.09s14.65 18.46 15.3 37.59 3.44 43.67 3.44 43.67m-8.55-63.74c24.29 12.14 35.49 11.46 63 1.59" fill="none" stroke="#000" stroke-miterlimit="10" stroke-width="1.51"/><path d="M370 214c1.83 0 3 3.62 18.72 6.76 5.72 1.14 18.38-3.57 18.7-3.57.1 0-17.53-11.88-37.4-3.18.19.46 3.48 7.52 8.35 9.14 14.23 4.76 17.5 2.14 29.05-6-.6.12-8.53 1.16-37.42-3.15zm26.71-27s-2.62 2.15 0 6.22 5.74 4.77 2.88 5.72c-5.62 1.88-2.26 4.44-13.87-1.66m2.95-29.11c-7.79-.84-7.56 2.83-19.91-3.35m43.49 10.99c6.74 2.8 8.92 2.41 17 1.09m-21.85-10.26c.07.33 4.61-2.54 9.39-1.82s10.83 1.85 10.83 1.85M388.67 160c-.1-5.69-14.24-6.22-19.91-6.22m124.48 140.58c.65 0 39.62 28.29 36.83 62.36-2.88 34.89-6.41 50.81-6.41 50.81m-20.56 76.06l-9.86 33.72 14 18.34 4.51-26c-6.65.42.06-22.55 2-28.93m20.39-9s17.43-.88 24.12 9 12.43 33.27 10.52 40.45c-3.25 12.18-15.28 12.78-34.64 14.51-5.8 40.67-5.13 13.2 4.52 65.78 4.3 23.41-3.27 55-18.11 69.3S496.6 685.1 496.6 685.1m-174.92 6.66s-7.17 3.34-31.55-2.87-36.33-33.46-37.28-48.28 6.69-47.61 6.22-52.47-6.3-42.88-6.3-42.88-4.22 3.1-15.69 0-21.51-18.87-21.51-18.87c17.76-31.06 21.22-34.95 34.71-39" fill="none" stroke="#000" stroke-miterlimit="10" stroke-width="1.51"/><path d="M281.05 506.3c7.53 20.74-1.83 19.33-9.55 29.35l3.81 27.06 17.42-17.45m-21.23 24.31l-8.13 12.26m4.05-43.97l-11.06 5.25m255.38-2.62l12.11 17.92m0-37.76l10.29 15" fill="none" stroke="#000" stroke-miterlimit="10" stroke-width="1.51"/><path d="M913.6 236.36c9.07-8.05 18.92-18.74 20-17.27 1.26 1.68-3.39 26.62.69 39.77-16.11 0-19.49-16.88-36.53 8z" fill="silver"/><path d="M689.39 578.5c.48-7.15 18.64-35.84 21-43s30.1-89.86 32-93.67 28.67 3.34 38.72 10 15.77 27.25 15.77 27.25c-42.23 40.33-58.2 47-47.8 66.42 3.8 7.24-.46 36.13-1.44 49.72-1 13.38-9.56 10-12.42 10.51s1.44-23.9 1.44-23.9c-15.59 22.67-19.67 28.12-22 52.58-32.26-8.06-27.38-24.23-25.27-55.91z" fill="#e0e0e0"/><path d="M934.31 258.86c-4.08-13.15.57-38.09-.69-39.77 40.2 22.87 47.24 7.54 60.23-3.83 24.47-21.4 16.88-62.47 22.56-3.85-1.17-.75 4.62 6 2.29 17.24-4.32 21-29.8 32-37.82 39.07l-41.88-.83c-2.43-3.15-3.66-4.59-4.69-8.03z" fill="#d7d7d7"/><path d="M1009 161.3c1.53-.89 8.24-9.09 11.63-12.47 3.83-3.83 8.61 4.3 7.17 8.6s-13.7 22.81-14.41 23.87c.14-1 2.48-16.74 3.18-18.14s-1.26-.81-7.57-1.86z" fill="#cfcfcf"/><path d="M976.46 758.57v20.67h-82.82v-20.1c25.09.93 29.67 5.44 82.82-.57z" fill="#8d8d8d"/><path d="M976.49 153.64c.57-3.63 5.16-3.51 8.79-2.93 5.3 4.39-9.34 6.29-8.79 2.93z" fill="#2d2d2d"/><path d="M839.47 540.27c-4.33-38.94-.35-44.34-18.57-88.9 9.49-11.94 15.25-21.95 30.53-49.22-6.35 80.88-10.52 73.13-4.15 119.7-3.52 4.54-6.98 13.52-7.81 18.42z" fill="#838383"/><path d="M677.92 779.24c21.43-144 37.33-128.13 109-199.77 8.55-8.54 51.63-33.46 52.58-39.2a52.06 52.06 0 013.6-11c34.19-6 54.64-12.18 108.52-10.9-.34 15.53 1.74 8.9-10.32 29.55l15.81 4.76 2.8 14.78c-4 .77-.31-.69-24.3 11 6.62 63.4 5.53 51 6.17 65-72.19 21.23-70.68 18.43-159.63 88 10.19 15.29 9.54 15.09 0 35.36l-1.24 12.42z" fill="#bababa"/><path d="M1045.94 513.51c12.81-3.66 13.34-11.94 14.82-109 18.88 28.62 13.63 30.63 22.28 57.47-17.38 36.25-21 55.06-23.26 100.39-13.63-14.37-9.88-10.91-13.84-48.86zm34.72 46.86a71 71 0 00-1.25-12.45c-2.88-13.38 9.08-18.64 14.33-29.53s26.63.07 26.82-.08c10.72 12.84 23.81 25.6 25.76 34.39 2.91 13-2.48 13.17-7.64 22-11.25 7.27-7.19 1.67-34.9 3.77l-4.08 30.75c-27.58-35-18.14-15.66-19.04-48.85zm-331.52-14.85c-9-16.93 1.8-24.09 32.88-52.5.32.37 20.19 10.11 27.34 15.23 6.69 4.78 1.43 26.29-3.17 34.9s0 22.15 0 22.25c-18.94 12.62-17.77 12.7-24.7 19.4-.32-.31 3.81-18.08.63-25-1.7-3.69-.29-.71-31.54-7.1a19 19 0 00-1.44-7.18z" fill="#838383"/><path d="M893.64 759.14c-32.63-1.21-53.43 2.27-60.77-31.14v-1.31c46.28 17.27 167.26 6 201.28-2.71.83 3.17-1.21 24.29-11.18 27.23-5.37 1.58-24.73 4.89-46.54 7.36-53.06 6-57.79 1.5-82.79.57z" fill="#7e7e7e"/><path d="M926.94 122.54c-1.37 6.83-6.63 14.52-4.68 17.71-1.23-1.61-5.09-7.52-6.22-19.15-1.35-13.85 5.64-24.36 15.39-35.35s26.09-13.4 33.74-15.3 30.12 3.82 42.06 9.08 17.21 19.6 19.11 27.66-5.73 41.64-5.73 41.64c-4.26 4.23-10.75 12.6-11.94 12.43 0-27.66-9.25-20.89-6.21-32 1.42-5.25 2.86-15.29 1.91-20.57s-22 5.28-30.12 6.71c-30.47 5.38-36.3-6.21-45.41-6.69s-.47 6.66-1.9 13.83z" fill="#6b6b6b"/><path d="M985.28 150.71c-3.63-.58-8.22-.7-8.79 2.93-.55 3.36 14.09 1.46 8.79-2.93zm-41.14 2.93c-1.25-3.61-7-4.36-7.49-.56 2.41 5.3 8.42 4.21 7.49.56zm-21.88-13.39c-2-3.19 3.31-10.88 4.68-17.71 1.43-7.17-7.18-14.33 1.9-13.86s14.94 12.07 45.41 6.69c8.13-1.43 29.16-12 30.12-6.71s-.49 15.32-1.91 20.57c-3 11.14 6.21 4.37 6.21 32 0 .51 8.72.2 7.88 1.9-1.17 2.35-3.27 35.1-22.7 52.1-13 11.37-20 26.7-60.23 3.83-16.83-44.2-8.56-41.17-11-55.93-1.97-11.92 3.01-18.38-.36-22.88z" fill="#d7d7d7"/><path d="M997.21 256.67c15.78-11.37 27.39-27.12 19.25-44.79-.06-.62-.5-.9 2.24 1.47 4.36 3.74 6.89 11.73 9.85 17.79a14.2 14.2 0 004.5 11.36c5.25 4.79 14.82 23.43 9.28 27.25-7.66 5.31-34.92-9.75-45.12-13.08z" fill="silver"/><path d="M951.59 518.37c-94.19-2.25-119.12 22.61-104.31 3.48 1.47-1.92 3-3.24 4.61-3.46 101.23-15 70.57-18.12 194.05-4.88.46 4.36.81 8.18 1.09 11.54-41.12-4.12-71.56-6.13-95.44-6.68z" fill="#2e2e2e"/><path d="M1106.17 491.52c32.89-23.91 33.1-27.3 57.36-16.72 0 0 3.34 23.9 6.2 33.45s8.62 66.44 11.2 76.44c5.53 21.24 7.71 79.1-15.49 77.94-10.8-.54-3.94 4-14.22 1.92-1.84-27.84 2.86-29-4.22-54.49 0 0-6.42 21-8.32 22.93s-7.66-10.5-7.66-14.33c0-59.94 20.4-43.09 15.3-66-3.38-15.17-40.15-42.3-40.15-61.14z" fill="#dbdbdb"/><path d="M742.45 441.82c35.69-60.54 41.91-64.95 70.09-132.4 4-9.55-3.66-25.33 15.46-37.28 24.56-15.35 67.1-19.34 85.6-35.78l-15.82 30.53c17.05-24.92 20.46-8 36.53-8 2 6.83 21.2 27.21 26.09 32.39 18.6-26.46 28.6-28.66 36.81-34.61 10.2 3.34 37.46 18.39 45.12 13.08 5.54-3.82-4-22.46-9.28-27.25a14.2 14.2 0 01-4.5-11.36c1.58 3.22 3.29 5.9 5.45 7.06 6.21 3.35 40.14 12.43 54.49 26.29 40 38.69 29.94 89.36 75 210.31-24.26-10.58-24.47-7.19-57.36 16.72 0 9.64-9.79 11.72-23.13-29.51-9-27.92-3-28.23-22.28-57.47-1.48 97-2 105.31-14.82 109-123.48-13.24-92.82-10.14-194.05 4.88-1.57.22-3.14 1.54-4.61 3.46-6.37-46.57-2.2-38.82 4.15-119.7-24.42 43.6-24.55 43.1-54.49 77 0 0-5.74-20.56-15.77-27.25s-36.77-13.93-38.68-10.11z" fill="#d1d1d1"/><path d="M814.83 706.46l-.18-.24c57.5-44 65.24-44.52 127.1-62.71 0 0 61.18 69.79 89.86 75.53 3.88.77 7.45 1.42 10.7 2-15.85 10.67-233.65 33.09-227.48-14.58z" fill="#7e7e7e"/><path d="M936.65 153.08c.44-3.8 6.24-3.05 7.49.56.93 3.65-5.08 4.74-7.49-.56z" fill="#2d2d2d"/><path d="M939 266.89l41.85.83c-10.4 9.18-20.48 23.53-20.48 23.53s-13.12-13.92-21.37-24.36z" fill="#d8d8d8"/><path d="M1031.61 719c-28.68-5.74-89.86-75.53-89.86-75.53-.64-14 .45-1.59-6.17-65 24-11.73 20.26-10.27 24.3-11l-2.8-14.78-15.81-4.76c12.06-20.65 10-14 10.32-29.55 23.88.55 54.32 2.56 95.44 6.68 3.48 40.32-3 13.52 52.67 84.16 81.43 103.35 91.34 104.92 75.62 170H1069.6s-5.49-9.55-1.66-32.49-7.61-21.97-36.33-27.73z" fill="#bababa"/><path d="M781.49 584.8c-67.23 65.35-82.69 54.06-103.57 194.44h103l1.24-12.42c9.54-20.27 10.19-20.07 0-35.36 88.92-69.5 87.42-66.71 159.63-88 0 0 61.18 69.79 89.86 75.53s40.14 4.78 36.33 27.71 1.66 32.49 1.66 32.49h105.72c15.72-65.11 5.82-66.69-75.62-170-60-76.1-47.84-38.88-53.76-95.7-123.48-13.24-92.82-10.14-194.05 4.88-3.79.54-7.27 7.38-8.82 10.88-7.32 16.53 4.76 8.28-36.88 36.13-18.96 12.67-17.83 12.7-24.74 19.42z" fill="none" stroke="#000" stroke-miterlimit="10" stroke-width="1.51"/><path d="M814.83 706.46C809.18 750.1 991.22 735 1034.18 724c8.75-2.24 7.51-2.92 8.15-2.92" fill="none" stroke="#000" stroke-miterlimit="10" stroke-width="1.51"/><path d="M1034.46 725s-.62 23-11.46 26.18c-5.37 1.58-24.73 4.89-46.54 7.36-53.09 6-57.82 1.5-82.82.57-32.63-1.21-53.43 2.27-60.77-31.14" fill="none" stroke="#000" stroke-miterlimit="10" stroke-width="1.51"/><path fill="none" stroke="#000" stroke-miterlimit="10" stroke-width="1.51" d="M976.46 758.57v20.67h-82.82v-20.1m-4.47-44.89h104.21m145.3 6.81l-43.99 50.54m-6.69-25.26l-15.57 20.33m15.57-45.61l-19.35 14.62M742 721.06c25.53 40.7 32.55 37.52 42.88 39.73m-15.18-46.54l12.42 17.21M935.58 578.5l5.69 54.49m71.22-54.49c-7.65-1-50.67 12.43-50.67 12.43m50.67-33.45L957.05 568m46.83-24.85c-2.72.91-46.73 9.55-46.83 9.55m-5.73-21.99l-10.05 17.21m-20.54 4.78l-40.15-9.55m-9.57 14.33L911.16 568m-35.37 16.69l35.37 12.95m235.16-44.94c5.09 22.87-15.3 6-15.3 66 0 3.83 5.73 16.25 7.66 14.33s8.32-22.93 8.32-22.93c7.08 25.47 2.38 26.65 4.22 54.49 10.28 2.1 3.42-2.46 14.22-1.92 23 1.15 21.17-56.14 15.49-77.94-2.58-10-8.32-66.88-11.2-76.44s-6.2-33.45-6.2-33.45c-24.26-10.58-24.47-7.19-57.36 16.72 0 18.86 36.76 45.88 40.15 61.14zm12.55 110.56s6.08-29.63 5.61-37.59m1.91 37.02c0-.14 8.58-31.28 8.93-36.07m4.81 24.47c.42-6.08 1.53-23.66.8-29.72M796.94 479.1s-5.74-20.56-15.77-27.25-36.8-13.86-38.72-10-29.63 86.51-32 93.67-20.56 35.86-21 43c-2.12 31.83-6.94 47.86 25.33 55.93 2.33-24.46 6.41-29.91 22-52.58 0 0-4.32 24.38-1.44 23.9s11.47 2.87 12.42-10.51 5.24-42.48 1.44-49.72c-10.45-19.46 5.42-26.03 47.74-66.44zM709 633c0-33.88 4.22-30.62 6.22-40.62m-12.39 38.1c0-.1-3-26 0-29m-8.64 22.13s-.23-17.86 0-23.6"/><path d="M750.58 552.7c31.23 6.39 29.84 3.41 31.54 7.1 3 6.58-.74 24.89-.74 24.89m24.81-19.31s-4.62-13.63 0-22.23 9.86-30.12 3.17-34.9-27.24-15.11-27.24-15.11m14.82 54.78c-1.92 1.43-14.82 11.88-14.82 11.88m-39.67-117.98c35.69-60.54 41.91-64.95 70.09-132.4 4-9.55-3.66-25.33 15.46-37.28 24.56-15.35 67.1-19.34 85.6-35.78 9.07-8.06 18.92-18.74 20-17.27 1.26 1.68-3.33 26.6.69 39.77 2.1 6.92 21.13 27.14 26.09 32.39 0 0 10.08-14.34 20.48-23.53 5.8-5.13 49.8-25.7 35.58-55.84-.51-1.08.09-.39 2.24 1.47 6.68 5.73 9.08 21.5 15.3 24.85s40.14 12.43 54.49 26.29c40 38.69 29.94 89.36 75 210.31" fill="none" stroke="#000" stroke-miterlimit="10" stroke-width="1.51"/><path d="M1106.17 493.43s-1.44 8.61-9.08 0c-4.39-4.93-9.9-18.55-14-31.42-9-27.91-3-28.23-22.28-57.47-1.48 97-2 105.31-14.82 109M796.94 479.1c29.93-33.85 30.07-33.35 54.49-77-6.35 80.88-10.52 73.13-4.15 119.7m199.81 3.25c-1.54 0-51.65-5.65-95.5-6.68-53.88-1.26-74.33 4.85-108.52 10.9m37.51-146.72s36.32 7.64 44 4.78M980.47 374s60.16 14 61.86 11.31m-97.25 66.06c3.36 1 77 0 77 0M900.65 474.8l34.93 11.94m-163.49-67.38c33.82 5.72 33.45 12.41 44 27.71M794.06 388c1.91 3.66 7.65 11.79 13.38 14.18m11.96-16.57s8.13 7 16.72 6.5m0-85.56s16.26 48.27 15.31 61.67m232.28-61.67c-1.91 1.91-13.87 30.11-19.12 55.93m-18.65-25.09c19.51 40.53 12.54 35.71 14.38 60.46m19.09 6.69c2.39.95 20.55-1.1 24.37-4.62m24.85 9.39l-22.46 11m-16.73 44.92c28.62-21.73 40.31-21.49 58.79-20.07m-27.72 73.23c-.1 0-21.52-10.87-26.77 0s-17.21 16.15-14.33 29.53c2.15 10.05 1.21 28.79.12 37.55m20.2 23.73l4-30.74c27.71-2.1 23.65 3.5 34.9-3.77m-58-14.35c10.52 10.52 13 13.53 16 14.35M1083 462c-13 27.08-23.28 55.35-23.28 100.72M820.9 451.37c18.22 44.56 14.24 50 18.57 88.9m74.13-303.91l-15.82 30.53c17.43-25.48 21.15-7.28 36.51-8m62.92-2.22c10.2 3.34 37.46 18.39 45.12 13.08 5.54-3.82-4-22.46-9.28-27.25a14.2 14.2 0 01-4.5-11.36m-106.16-90.71s.08.09.1.12m98.12 8.28s7.66-33.57 5.73-41.64-7.16-22.41-19.11-27.66-34.4-11-42.06-9.08-24 4.29-33.74 15.3-16.74 21.5-15.43 35.35c1.13 11.63 5 17.54 6.22 19.15m21.92 56.38c16.58 4.57 21.53 4.66 33.94 1.9M953 169.17c-2.15.21-11.71 14.08-5 15a51.45 51.45 0 0013.14 0m24.14-33.46c-3.63-.58-8.22-.7-8.79 2.93-.55 3.36 14.09 1.46 8.79-2.93zm-41.14 2.93c-1.25-3.61-7-4.36-7.49-.56 2.41 5.3 8.42 4.21 7.49.56zm4.54-6.96c-5.28-6.08-12.62-6.78-20.31-4.07" fill="none" stroke="#000" stroke-miterlimit="10" stroke-width="1.51"/><path d="M967.33 143.93c1.18.6 10.5-1.32 15.77-1.55s7.16 2.86 8.36 3.11" fill="none" stroke="#000" stroke-miterlimit="10" stroke-width="1.51"/><path d="M1016.46 211.88c-5.4-59.35 1.51-17.72-22.61 3.38-13 11.37-20 26.7-60.23 3.83-16.83-44.2-8.56-41.17-11-55.93-2-12.13 2.51-14.52-.23-22.73-2.3-3.08 3.15-10.89 4.55-17.89 1.43-7.17-7.18-14.33 1.9-13.86s14.94 12.07 45.41 6.69c8.13-1.43 29.16-12 30.12-6.71s-.49 15.32-1.91 20.57c-3 11.14 6.21 4.37 6.21 32 0 1.41 8.13-8.63 11.94-12.43s8.61 4.3 7.17 8.6-13.7 22.81-14.41 23.87c.09-.06 2.37-16.51 3.18-18.14.58-1.16-.35-.83-7.88-1.9m-69.64 105.66l41.85.83" fill="none" stroke="#000" stroke-miterlimit="10" stroke-width="1.51"/></svg>