<svg xmlns="http://www.w3.org/2000/svg" viewBox="0 0 1400 780"><defs><linearGradient id="a" x1="426.44" y1="702.27" x2="973.61" y2="702.27" gradientUnits="userSpaceOnUse"><stop offset="0" stop-color="#b4b4b4"/><stop offset="1" stop-color="#d32020"/></linearGradient></defs><path fill="#dbd6e9" d="M0 0h1400v780H0z"/><path d="M700.72 230.58c-8.5 47.29-17.2 94.28-10.56 144.64-5.61-1.84-10.55-2-12.12-4.37-2.45-3.71 1.51-17.12.56-22.57-5.86-33.51-7-16.48-6.05-49.2 1.28-43.07-2.78-65 6.53-100.85 2.48-9.57.3-18.38-3.45-28.53-1.12 2.73-2.11 4.41-2.49 6.21-6.26 29.26-27 36.59-21.63 54.37.74 2.48.11 5.37-1.4 8.43-2.62-7.67-1.74-7.08-4.26-6.6l2.15 10.38c-14.74-3-6.93-12.09 12.55-70.54 10.8-32.44-.76-24.78 23.9-36 8.48-3.87 9.34-7.45 4.36-15.7-3.68-6.1.15-12 2.44-17 1.7-3.76 14.92-7.24 17.66-.38 2.48 6.22 6.52 12.4 1.69 19.79-12.77 19.55 26.76 6.34 25.26 38.43a15 15 0 002.34 7.82c10.87 18.06 12.45 39.35 20.22 58.49 3.4 8.39.68 13.35-6.6 15.47l2.63-11.07c-2.77-.65-1.86-1.21-4.26 6.51-3-.1-.37 0-1.51-12.38-1.41-15.44-5.23-14.13-10-23.56-5.08-10.1-9.76-20.41-14.69-30.81-3.41 7.11-5.66 15.21-3.46 23.53 8 30.31 6.78 61.14 6.13 92-.1 4.79 1.3 9.59 1.42 14.4.6 24.95-2.33 23-6.91 47.28-1.16 6.16 3.32 18.25 1.37 21.41-1.64 2.66-6.61 3.25-10.64 5 .1-72.99 2.36-72.96-11.18-144.6zm-27.81 257.79c-13.18 49.3-12.16 40.73-12.16 72.71-6.22-.18-10.68-4-10-10.71 2-20.68 1.06-41.67 7.71-61.89 7.71-23.47-2.88-34.26 16.14-41.15 22.8-8.26 17.69-12.52 14-19.7-3.18-6.14-1.56-11.84-.59-17.54 1.69-9.9 20.59-10 22.94-1.12 5.58 21.18-11.43 24.2 5.27 33.38 2.67 1.46 19.25 6.43 20.38 15.87 3.59 29.82 12.66 58.83 12.84 89.15.06 8.75-2.29 12.72-11.49 14.25 3.39-31.1 5.4-14.78-11.53-75.45-11.43 28.9 1.69 48-.37 129.46-.52 20.33-11.5 32.11-3.73 53.63.5 1.39-.14 4.5-1 4.82-17.17 6.45-12.36 1.76-10.64-27.56.75-12.71-1.58-16.7-1.31-18.69 2.48-18.48-2.72-24.06-8.25-76.5-3.9 0-1-.18-4.37 23.71-1.68 12-5.31 30.17-5.49 32.34-4.24 51.76-1.82 28.61 0 61.49.15 2.59-1.45 7.53-2.24 7.52-3.57 0-7.21-1.21-10.67-2.44-.71-.25-1.38-2.71-1-3.7 5.32-13.17 2.6-25.85-1.18-38.83-6.52-22.25 9.26-115.32-3.26-143.05zm226.35-2.92c-3.15 15-7 30.73-9.51 46.64-1 6.56.91 13.59.66 20.74-2.88-6.69-2.25-6.41-4-5.89l3.84 12c-10.56-9.15-8.15-5.63-3.89-95.31.71-14.93 2-16.4 15.83-21.2 26.32-9.13 7.53-13.49 12.1-31 3.45-13.19 19.91-11 21.42-.77.76 5.14 2.25 10-.91 15.48-3.81 6.66-2.44 8.73 4.5 12.06 29.7 14.27 22.62-6.23 28.43 103.15.35 6.61-1.77 12.16-7.83 17.84l3.87-11.84c-1.39-.55-.94-.63-3.81 5.61l-1-.21c1.38-29.14 5.19-.64-7.9-67.87-13.29 31.74 6.3 48.64 1.8 95.37-1.1 11.36 8.54 38.33 5.72 56.58-3.32 21.53 10.8 33 11.05 37-6.41 4.76-9.18 3.07-13.77-2.94-4.83-6.35-4.27-13.09-5.36-19.93-1-6.19-3-12.23-4.19-18.4-8.37-42.35 2.28-5.72-21.51-80.54-4.16 15-6.92 29.09-12.11 42.23-3.74 9.49-2.47 19.45-5.53 28.61-14.62 43.71-2 39-17.12 52.86-1.72 1.57-6.36-.06-10.73-.3 8.79-14.71 13.1-19 12.31-32.34-2.86-48.69 8.25-36.36 5.12-69.75-3.22-34.11 15.26-62.58 2.52-87.88zM969 369.72c-7.53 4.35-9.52 2.86-14.22-3.5-4.82-6.52-4.42-13.44-5.35-20.52-.88-6.77-.64-.25-8.53-42.3-2.13-11.4-13.11-42.07-17.37-52.86-10.22 34.09-20.65 66.23-25.38 107.11-1.09 9.48-8.88 15.64-17.94 12.62 16.25-30.84 8.79-32.26 11.38-64 .6-7.42 3.25-14.67 4.88-22 2.76-12.51-6.49-5.72 4.31-61.93 1.67-8.69-3.53-6.44-22.35-26.46-2-2.08-3.53-6.29-2.83-8.86 15.13-55.1 13.16-42.46 33.5-52.62 8.41-4.21 9.15-6.86 4.76-15.12-2.3-4.33-1.09-16 2.89-18.25 3.32-1.84 8.15-2.92 11.62-1.92 2.72.79 4.71 5.09 6.41 8.17 6.6 12-10.61 21 2.12 25.9 19.2 7.41 22.86 9.22 24.88 16.09 10.93 37.18 15.61 40.87 8 47.43-17.45 15.06-22.41 19.55-21.88 24 1 8.08 6.46 29.06 4.63 47.49-2.77 27.76 8.35 34.37 5.34 62.16-2.6 23.57 8.85 34.36 11.13 39.37zm-24.3-165.94l2.58 1.18c4-6 8.15-11.9 12-18 1.14-1.79-1.93-5.23-8.59-14.25zm-43.46 1.07l2.65-1-6-30.91c-11.98 15.54-11.39 10.27 3.3 31.91zm-403.37-47.2c0 .52.05.33-.18.48 0-.22.01-.41.18-.48z"/><path d="M497.67 165.84c-.94-5.53 0-6.57 0-7.83 2.83-31.11-37.76-19-25.1-38.41 4.82-7.39.79-13.57-1.69-19.78-2.73-6.87-16-3.39-17.67.37-2.28 5-6.11 10.91-2.44 17 12.87 21.35-20.27 11.15-23.42 32.34a92.76 92.76 0 011.14 20.19c-1.65 62.72-5.65 70.49 6.24 71.2-.82 22.92 1 13.23-.24 55.14-1 32.62.19 15.73 6.05 49.21.93 5.32-3 18.86-.57 22.57 1.58 2.38 6.51 2.52 12.13 4.36-6.56-49.78 1.87-96.28 10.27-143 .31-1.71.09-3.76 1.29 3.71 11.86 73.91 10.23 45 10.23 139.2 4-1.72 9-2.31 10.64-5 2-3.29-2.56-15-1.37-21.41 4.61-24.41 7.51-22.45 6.9-47.28-.11-4.81-1.51-9.61-1.4-14.4.31-15 .77-29.93.24-44.83 4.07-1.31 6.29-5 6.22-11.52-.22-20.67 6.07-41.05 2.55-61.83zm-59.48 2.49c-.28-.79-.35-.65.31 0zM434.92 237c-3.26-5.92-3.57-5.14-1.3-6.33 1.99 2.77 1.52 1.21 1.3 6.33zm.77-10.72c-6.65-12.72 4-22.55 6-45.06 1.97 13.45-3.28 15.72-6 45.07zm48.44-53.43c.52 8.16 1 16.26 1.78 24.32.81 8.65 4.4 11.31 1.62 22.24-3.27-29.88-9.4-30.67-3.4-46.55zm4.46 59.26c-.19-3.31-.58-3.08 1.24-1.8z"/><path d="M497.86 158.43c-.23.26-.36.5 0-.39-.01.13 0 .25 0 .39zm-59.36 9.9c-.37 0-.29.11-.51-.54.17.21.33.36.51.54zm49.19 364.09c-.72.32-.67.32-.63.25z"/><path d="M497.67 477.33c-1.58-9.37 6.11-24.51-20.69-33.41-7.67-2.54-8.8-6.08-4.39-12.84 4.82-7.39.79-13.56-1.69-19.78-2.73-6.86-16-3.38-17.67.38-2.28 5-6.11 10.9-2.44 17 12.87 21.32-20.27 11.15-23.42 32.32a92.76 92.76 0 011.14 20.19c-1.62 61.59-6.45 72.62 8.52 71.15l-5.11-9.3c2.14-1.12 1.15-1.66 4.68 3.24 1 13.18 3.52 26.79 5.35 39.49 1.59 11.09.59 34 2.62 42.79 2.29 9.84 6.13 19.32 8.69 29.11.95 3.61.05 7.68.18 11.54C453.85 681.68 452 681 464 683c.93.18.33.19 2.82-.5 12.07-3.23 8.26-4.54 7.86-14.58-.15-3.48-.94-7.15-.15-10.42 2.26-9.45 5.61-18.63 7.67-28.09 3.12-14.36.46-27.91.83-33.25 1.05-14.87 3.52-30.05 4.48-45.07 5-.86 7.75-4.63 7.67-11.87-.28-20.72 6.01-41.11 2.49-61.89zm-61.45 61.42c-7.73-13 3.45-23.09 5.44-46 2.09 14.06-5.86 25.44-5.44 46zm28.35 132c-5.94-35.53-4.49-70.09-1.57-104.56 5.31 47.81 5.06 29.11 1.57 104.53zm23-139.79c-3.31-29.94-9.38-30.77-3.4-46.58 2.47 38.68 4 30.21 4.44 38.59.2 4.76-2.5 13.48-1.08 7.96zm.25 13.83c.14-4.18 0-3.74.3-4.17 2.15 1.49 2.14.58-.34 4.14z"/><path d="M497.86 469.75c0 .18 0 .15-.11.28.04-.1.07-.19.11-.28zM467 683.57c-3-.72-3.18-.3-.24-1.12zm20.69-151.15c-.86.33-.7.59-.16-1.49z"/><path d="M497.85 469.53c0 .24.06.2-.17.3 0-.7.21-.95.17-.3zm-33.19 213.55c-.77.26-.74.39-.7-.13z"/><path d="M960.54 719.17h-521a13 13 0 01-13-13c0-4-1.88-20.82 13-20.82h521a13 13 0 0113 13c-.01 4 1.87 20.82-13 20.82z" fill="url(#a)"/></svg>