<svg xmlns="http://www.w3.org/2000/svg" viewBox="0 0 1400 780"><path fill="#ddd" stroke="#000" stroke-linecap="round" stroke-linejoin="round" stroke-width=".5" d="M0 0h1400v780H0z"/><path d="M757.35 212.58c-1-4.93-17.23-9.85-26.93 3.9 10.58 6.24 17.52 5.19 26.93-3.9zm-48.06 31.61c-4.16.33-9.17 7.36-4.14 17 0 0 8.63 5.5 13 3.94 5.56-2 12.26-5.71 9.72-11.05-3.12-11.51-3.87-11.08-18.58-9.89zM701.87 280c-15.68 6.87-9.9 5.36-1 5.36-.57.57.85 1.87 4.33 4.58 2.22 1.71 18.81 3.72 25.88-4.88 8.21 2.68-9.72-13.65-29.21-5.06zM692 215.73c-4.13-13.73-19.88-12.94-32.07-5.34a.23.23 0 00-.09 0C672 222 676.45 222.06 692 215.84a.48.48 0 010-.11zm-48.1-19.88c.31-.61 3.48-6.26 12.88-3.87 36 9.21 22.85 9.37 46.89 7.62l-1.13-7.73c-25.34 1.66-31.73-9.42-42.7-7.38-5.63 1.05-12.64 1.62-15.97 11.36zm-7.18 45.21s10 14.87 15.92 16.6 11.73 3.81 14.86 3.46 15.92-10.36 15.75-11.76-16.6-3.44-23.25-6.22c-15.69-6.48-15-5.62-23.31-2.08zm-45.28-29c6.22-.68 11.06-1.73 11.76 1.73s-2.69 5.89-5 8.65-2.63 8.3 1.53 9.33a45.58 45.58 0 018.65 3.46c-5.87-11.72 2.74-20.26-4.51-24.9-4.84-3.11-10-7.59-12.44-3.78s-6.23 6.18-.02 5.45zM617 254.9c-18.79 3-26.1-18.72-33.52-35.25-4.51-10 0-18.67 3.46-21.78a14.13 14.13 0 015.75-3.18c12.27-3.52 28.62 8.45 22.25 23.91 11.3-10 9-3.46 9-30.41 0-2.08-.35-4.84 5.88-12.81A24.32 24.32 0 00634.9 163c.32-2.52.32-4.56.76-5.87 2.26-6.77 51.45 12.57 82.28 2.06 15.22-5.17 26.95-27 26.95-27 7.38 8.43 10.36 22.58 12.79 37.07.24 1.36.48 2.72.7 4.07-.09 3.83-.15 7.47-.2 10.93h-.06c-4.1-1.36-7 4.6-30.28 7.05v9.17c11.8.2 14.86-3.79 30.19-11.93h.09c-.29 21.87-.22 36.78-2.26 51-7.14 3.21-7.22 5.95-2.38 12.45-3.81 15.79-11 33-24.83 59.91-6.57 12.8-16.71 9.1-16.71 9.1h-5.52a115 115 0 00-11.64-.46c-7 0-63.19-31.85-64.28-32.47z" fill="#eeaa97"/><path d="M700.82 285.33c1.4-1.14 11.78 1 30.19-.26-7.07 8.6-23.66 6.59-25.88 4.88-3.46-2.75-4.88-4.05-4.31-4.62z" fill="#d78a78"/><path d="M700.82 285.33c-8.85 0-14.63 1.51 1-5.36 19.49-8.56 37.42 7.77 29.16 5.06a35.65 35.65 0 01-5.84-2.83c-.46-.26-23.17-3-24.35 3.09.03.02.03.02.03.04z" fill="#e48a7f"/><path d="M586.23 779.73q-16.1-.3-32.17-.66c1.49-14.45 2.76-24.59 3.48-25.68s19.62-1.67 46.33-1.8c.81.46 1.67.94 2.5 1.43a.23.23 0 00.09.06c1.7 1 3.39 1.91 4.81 2.69a.8.8 0 01.24.14l2.26 1.16a2.52 2.52 0 01.33.13 3.58 3.58 0 001 .35c.87 0 4.05.57 5.3-.48l.06-.05c.48-.26.64-.74.44-1.51a1.35 1.35 0 00-.09-.33 6 6 0 00-.83-1.79 1.15 1.15 0 00-.15-.2c-.22-.35-.46-.77-.77-1.21.94-.57 6.94-.63 30.63-.37v28.18z" fill="#8383c3"/><path d="M755.73 753.39v-.31a16 16 0 00-.11 2.41 17.17 17.17 0 01.11-2.1z" fill="#592925"/><path d="M649.72 779.73v-28.18l5.54.06v28.12z" fill="#8383c3"/><path d="M611.27 755.77a1.7 1.7 0 01.24.14.8.8 0 00-.24-.14z" fill="#a4664f"/><path d="M707.28 341.05a42.27 42.27 0 01-.86-20h5.52c3.26 17.48 4.93 22.51 29.52 35.95 9.21 5.08 52.54 25.36 75.11 32.28 25.84 7.9 8.3 8 79.74 89.87 31.69 36.29 61.81 28.85 91.74 103.7.92 2.3-6.46 29-6.92 35s-25.81 35-31.81 41c-3.7 3.7-11.61 0-18.66-4.22a400.62 400.62 0 01-45-32c-17-13.95-21.81-15.59 1.45-34.29L903.93 566s36-22.14 33.87-21.24-20.73-2.27-19.35-4.35-.7-6.92-5.54-8.3-21.44 10.38-25.81 12.46-18.44-11.76-26-22.82-25.59-54.62-25.59-54.62c-8.61 17.23-6.11 39.32-9.13 62.46a1 1 0 00-.09.66c.53 7-2.6 13.57-7.09 24.34l-.2-.08s-33.26 20-32.58 19.53 17 14.45 20.43 17.51c-5.19 20.76-9.85 49.55-11.58 91.08-21.42-1.66-2.37 5.54-27.5-1.2-18.92-5.06-31.42-8.26-36.24-7.82 2.48-71 7.4-188.86-20.47-276.57 5 .26 5.52-1.2 8.3-14.25 3.18-15.02-7.79-26.28-12.08-41.74z" fill="#b1b4dd"/><path d="M505 710.06l-106.17-70.19c8.91-10.38 22.36-27.87 32-40.66 0 0 17.89 14.52 51.08 45.41 33.65 31.33 55.77 37.61 72 37.09 12.68-.38 21.74-4.91 29.91-4.91 54.45-4 71.59-7.6 76.94-1.77 10 10.9-51.39 12.87-57.61 16.59-8.56 5.15 14.23 2 44.25 11.54 10.14 3.22 18.43 11.52 17.12 15.66-2.6 8.1-32-7.78-44.51-9.22-12.15-1.38-18.24 0-15 2.78s20.27 8.3 24.43 12 14.74 15.67 12 19.35c-4 5.41-1-7.44-40.09-15.65-8.76-1.86-7.38 1.84-7.84 4.59-1.07 6.49 9.27-5.53 25.36 18.9l.24.37c-.46.27.28.66.77 1.21a12.23 12.23 0 011 2 1.35 1.35 0 01.09.33 1.51 1.51 0 01-.44 1.51c0 .05 0 .07-.06.05-.88.5-2.67.48-5.3.48a3.58 3.58 0 01-1-.35 1.51 1.51 0 00-.33-.13l-2.26-1.16a1.7 1.7 0 00-.24-.14c-1.42-.78-3.11-1.73-4.81-2.69l-.09-.06c-.83-.49-1.69-1-2.5-1.43-2.65-1.51-5.14-2.93-6.7-3.72-6.65-3.33-22.81-3.17-39.1-4.62-14.32-1.29-28.77-3.83-37-11.06-7.87-6.88-16.14-22.1-16.14-22.1zm210.69 12.57c-3.07-.77-5.06-2.7-4.67-6.57.24-2.21 2.26-3 5.08-3.5 3-.53 7-.6 10.6-1.56 1.55-.41 2.6-.66 3.37-.83 2.61-.61 2.21-.66 9.06-5.17 9.11-6 23.06-4.16 31.82-6 11.91-2.51-28.82-8-40-9.74l-2.38-.39c-12.66-2.3-11-7.08-11-13v-.37c.13-2.14 9.15-1.42 13.92-1.86s17.32 2.76 36.24 7.82c25.13 6.74 6.08-.46 27.5 1.2 54.67 4.69 26 29.08 90.42-60a400.62 400.62 0 0045 32c-67.14 72.91-65 61.13-76.3 84.42-7.81 16.14-10.59 12.9-24 13.8-12.41.81-25.79-1.78-37.74-1.49a46.78 46.78 0 00-12.44 1.77c-2.39 0-6.64 2.34-11 4.36a2.09 2.09 0 01-.37.17 41.56 41.56 0 01-7.16 2.59 9.32 9.32 0 01-1.93.24 1.83 1.83 0 01-.33 0 3.65 3.65 0 01-3.52-2.92.07.07 0 000-.06c0-.16-.07-.33-.11-.51s-.05-.35-.09-.54 0-.2 0-.31-.05-.46-.05-.7a16 16 0 01.11-2.41c.64-4.77 3.27-3.85 16.56-10.29 16.29-7.86 7.22-5.65-10.6-3.22-13.42 1.82-23 15.59-27.94 4.6-1.66-3.68 5.34-3.68 12.26-11.06 12.33-13.15 25.47-1.77 27.2-16.59-26.67-1.34-34.84 2.84-43.75 5.12a41.36 41.36 0 01-8.1 1.34 19.28 19.28 0 01-5.66-.34z" fill="#eda996"/><path d="M613.2 299.32l3.8-44.42 13.48 33.19c.92 1.1 30.25 36.24 42 41.23 12 5.08 27.92 11.89 34.35 11.82l.4-.11c4.29 15.46 15.26 26.72 12 41.76-2.78 13.05-3.35 14.51-8.3 14.25a81.3 81.3 0 00-13.35-.42c.22 0-56.69-59.35-66.39-68.68-21.12-20.38-21.69-21.72-17.99-28.62z" fill="#e8aa9f"/><path d="M761.73 760.31a41.56 41.56 0 007.16-2.59c-.4.2-.77.38-1.16.55a27.74 27.74 0 01-6 2.08z" fill="#ab6b52"/><path d="M733.62 779.73v-27.17q10.44.09 22.18.24v.59a17.17 17.17 0 00-.07 2.1c0 .24 0 .48.05.7s0 .22 0 .31a3 3 0 00.09.54 1.72 1.72 0 00.11.51.07.07 0 010 .06 3.41 3.41 0 003.52 2.92 1.83 1.83 0 00.33 0 7.87 7.87 0 001.93-.2v19.38z" fill="#8383c3"/><path d="M600.85 154.65c4-20.74 4.2-29 32.27-47 12.92-8.3 66.63-16.59 66.63-16.59-46.37-16.53-27.61-6.9-16.53-13.38 6.19-3.64 54.14 5.73 58.13 6.87 2.65 6.8 1.65 7.17 1.65-12.86 18.15 11.87 22 24.33 13.4 48.39 6.61 1.14 21.89 12.06 18.69 18.43-13.33 2.32-13.09-.09-2.29 8.3-11 5.23-7.49.48-15.11 22.44-2.43-14.49-5.41-28.64-12.79-37.07 0 0-11.73 21.79-26.95 27-30.83 10.51-80-8.83-82.28-2.06-.44 1.31-.44 3.35-.76 5.87l-10.08 4.62.92-22.6z" fill="#7d3f32"/><path d="M619.09 751.94c.31.44.55.86.77 1.21-.49-.55-1.23-.94-.77-1.21z" fill="#a4664f"/><path d="M755.66 755.49c0 .24 0 .48.05.7-.02-.19-.05-.46-.05-.7z" fill="#592925"/><path d="M655.26 751.68v-.07c9.89.11 22.42.29 38.25.49v27.63h-38.25z" fill="#8383c3"/><path d="M806.81 591.61c-3.39-3.06-19.79-17.93-20.43-17.51S819 554.57 819 554.57l.2.08a245.41 245.41 0 00-12.39 36.96z" fill="#a6a7d7"/><path d="M613.77 757.07a1.51 1.51 0 01.33.13 2.52 2.52 0 00-.33-.13z" fill="#a4664f"/><path d="M558.07 743.25c16.29 1.45 32.45 1.29 39.1 4.62 1.56.79 4.05 2.21 6.7 3.72-26.71.13-45.56.64-46.33 1.8 0 0 .4-3.2.53-10.14z" fill="#a4a5d5"/><path d="M697.67 396.64c-34.11-1.38-90-58.93-90-58.93 1-19.56 0-43.86 5.54-38.39-3.7 6.9-3.13 8.24 18.08 28.64 9.71 9.33 66.6 68.68 66.38 68.68z" fill="#b1b4dd"/><path d="M767.73 758.27c.39-.17.76-.35 1.16-.55a2.09 2.09 0 00.37-.17 101.87 101.87 0 0111-4.36c.68 0 9.22.13 12.37.2l2.54 26.34h-27.44zM530.61 587.39c-9.43-30.17-19.72-59.21-27-78.74l36.65-30.43z" fill="#8383c3"/><path d="M386.07 523.17a31.37 31.37 0 0113.14 10.36c5.53 7.62-26.28-3.46-27.66 2.08s35.25 13.13 35.25 13.13c4.84 1.38 21.44 17.3 21.44 17.3l14.51 17.27s-5 6.75-11.89 15.9c-9.67 12.79-23.12 30.28-32 40.66-17.64 20.69-14.4 12-34.9-2.63-19.35-13.82-33.17-36.65-35.95-58.06-5.1-39.59 42.39-74.49 53.93-89.9 19.18-25.55 23.89-8.67 108.55-93.34 11.08-11.05 40.11-12.43 54.63-24.89s62.57-33.34 62.57-33.34 55.9 57.55 90 58.93c30 113.68 24.52 157.05 19.9 278.89v.37c-.46 2.87 0 .07-1.45 36.63-2.82.46-4.84 1.29-5.08 3.5-.39 3.87 1.6 5.8 4.67 6.57a19.28 19.28 0 005.71.35 41.36 41.36 0 008.1-1.34c8.91-2.28 17.08-6.46 43.75-5.12-1.73 14.82-14.87 3.44-27.2 16.59-6.92 7.38-13.92 7.38-12.26 11.06 5 11 14.52-2.78 27.94-4.6 17.82-2.43 26.89-4.64 10.6 3.22-13.29 6.44-15.92 5.52-16.56 10.29v-.28q-11.73-.13-22.18-.24l-40.11-.46c-15.83-.2-28.36-.38-38.25-.49l-5.54-.06c-23.69-.26-29.69-.2-30.63.37l-.24-.37c-16.09-24.43-26.43-12.41-25.36-18.9.46-2.75-.92-6.45 7.84-4.59 39.06 8.21 36.06 21.06 40.09 15.65 2.76-3.68-7.84-15.65-12-19.35s-21.21-9.22-24.43-12 2.87-4.16 15-2.78c12.5 1.44 41.91 17.32 44.51 9.22 1.31-4.14-7-12.44-17.12-15.66-30-9.59-52.81-6.39-44.25-11.54 6.22-3.72 67.61-5.69 57.61-16.59-5.35-5.83-22.49-2.23-76.94 1.77-7.23-48.71-24.92-69.71-12.48-84.49 11.06-13.13 42.87-29 47.71-26.27 13.37 7.62-45.5-45.56-78.82-87.82-128.67 35.91-95.88 44.67-122.72 58.09 8.5-6.83-18.78-16.48-31.43-13.09z" fill="#b1b4dd"/><path d="M575.52 147.73c1.38-3.68-8.76 6.46-8.76 6.46 1.91-34.84 14.39-44.14 38.25-69.6H588c59.36-46.33 84.42-11.76 71.79-30.41 36.41-5.28 31.21.59 46.63 7.82l-2.78-7.37s18 3.67 26.74 12.43a50.51 50.51 0 0111 17.47c-4-1.14-51.94-10.51-58.13-6.87-11.08 6.48-29.84-3.15 16.53 13.38 0 0-53.71 8.29-66.63 16.59-28.07 18-28.26 26.27-32.27 47l24.86-9.63-.92 22.6 10.08-4.6a24.32 24.32 0 01-5.11 12.43c-6.23 8-5.88 10.73-5.88 12.81 0 26.95 2.32 20.41-9 30.41 6.37-15.46-10-27.43-22.25-23.91l-7.48-26.21s-4.16 7.84-6.46 8.3-4.6-25.4-3.2-29.1z" fill="#7c3e31"/><path d="M937.8 544.8c2.08-.9-33.87 21.24-33.87 21.24l-16.83 22.35s-20.28-9.7-26.74-12.91c-3.24-1.6-11.93-14.87-19.75-26.74-4.11-8.27-5.14-81.57-5.14-81.57s18 43.54 25.59 54.62 21.66 24.87 26 22.82 21-13.84 25.81-12.46 6.92 6.22 5.54 8.3 17.31 5.25 19.39 4.35z" fill="#aaaade"/><path d="M835.47 467.17s1 73.3 5.14 81.57c-7.09-10.77-13.44-20.4-14.27-19.11 3.02-23.14.52-45.23 9.13-62.46z" fill="#8d8dc9"/><path d="M792.67 751.42l-.07 2c-3.15-.07-11.69-.2-12.37-.2a46.78 46.78 0 0112.44-1.8zm-61.75-62.16c11.21 1.69 51.94 7.23 40 9.74-8.76 1.84-22.71 0-31.82 6-6.85 4.51-6.45 4.56-9.06 5.17.26-6.15.57-13.09.85-20.89z" fill="#b1b4dd"/><path d="M767.73 758.27v21.46h-6v-19.38a27.74 27.74 0 006-2.08z" fill="#8383c3"/><path d="M761.73 760.31a7.87 7.87 0 01-1.93.2 9.32 9.32 0 001.93-.2z" fill="#592925"/><path d="M758.12 184.25h.06c0 1.47 0 2.89-.06 4.29H758c-15.33 8.14-18.39 12.13-30.19 11.93v-9.17c23.3-2.45 26.19-8.41 30.31-7.05z" fill="#5d241b"/><path d="M755.86 239.58c-.59 4.16-1.36 8.25-2.38 12.45-4.84-6.5-4.76-9.24 2.38-12.45z" fill="#eaa192"/><path d="M730.42 216.48c9.7-13.75 25.92-8.83 26.93-3.9-12.61-11.32-26.12 3.02-26.93 3.9z" fill="#5d241b"/><path d="M730.42 216.48c.81-.88 14.32-15.22 26.93-3.9-9.41 9.09-16.38 10.14-27 3.94zm17.36-2.48c0-6.54-7.84-6.54-7.84 0s7.84 6.59 7.84 0z" fill="#fffefa"/><path d="M739.94 214c0-6.54 7.84-6.54 7.84 0s-7.84 6.59-7.84 0z" fill="#642b18"/><path d="M693.51 766.35V752.1l40.11.46v27.17h-40.11z" fill="#8383c3"/><path d="M711 397.1c27.87 87.71 23 205.55 20.47 276.57-4.77.44-13.79-.28-13.92 1.86 4.62-121.84 10-165.21-19.9-278.89a81.3 81.3 0 0113.35.42zm19.92 292.16c-.28 7.8-.59 14.74-.85 20.89-.77.17-1.82.42-3.37.83-3.59 1-7.58 1-10.6 1.56 1.47-36.56 1-33.76 1.45-36.63-.07 5.89-1.69 10.67 11 13z" fill="#b2b5de"/><path d="M727.84 254.05c2.54 5.34-4.16 9-9.72 11.05-4.34 1.56-13-3.94-13-3.94 7.16-9.7 8.74-3.19 18-3.68a5.56 5.56 0 004.72-3.43z" fill="#d77f71"/><path d="M727.84 254.05a5.56 5.56 0 01-4.71 3.43c-9.24.49-10.82-6-18 3.68-5-9.61 0-16.64 4.14-17 14.73-1.16 15.48-1.59 18.57 9.89z" fill="#eda495"/><path d="M707.28 341.05l-.4.11c-6.43.07-22.35-6.74-34.35-11.82-11.78-5-41.11-40.13-42-41.23 1.09.62 57.25 32.47 64.28 32.47a115 115 0 0111.64.46 42.27 42.27 0 00.83 20.01z" fill="#dd8776"/><path d="M702.51 191.87l1.13 7.73c-24 1.75-10.86 1.59-46.89-7.62-9.4-2.39-12.57 3.26-12.88 3.87 3.33-9.74 10.34-10.31 15.94-11.36 10.97-2.04 17.36 9.04 42.7 7.38z" fill="#5d241b"/><path d="M692 215.73a.48.48 0 000 .11c-15.57 6.22-20.06 6.11-32.21-5.41a.23.23 0 01.09 0c1.66-.85 24.26-11.53 32.12 5.3zm-8.75-3.15c0-6.55-7.84-6.55-7.84 0s7.81 6.57 7.81 0z" fill="#fffff6"/><path d="M683.22 249.36c.17 1.4-12.64 11.41-15.75 11.76s-9-1.73-14.86-3.46-15.92-16.6-15.92-16.6c8.3-3.54 7.62-4.4 23.28 2.08 6.65 2.78 23.03 4.86 23.25 6.22z" fill="#eaa192"/><path d="M675.38 212.58c0-6.55 7.84-6.55 7.84 0s-7.84 6.57-7.84 0z" fill="#642b18"/><path d="M659.9 210.39c12.19-7.6 27.94-8.39 32.07 5.34-7.83-16.83-30.43-6.15-32.07-5.34z" fill="#5d241b"/><path d="M621 755.51c.2.77 0 1.25-.44 1.51a1.51 1.51 0 00.44-1.51z" fill="#a4664f"/><path d="M540.25 478.22c33.32 42.26 92.19 95.44 78.82 87.82-4.84-2.78-36.65 13.14-47.71 26.27-12.44 14.78 5.25 35.78 12.48 84.49-8.17 0-17.23 4.53-29.91 4.91-3.06-24.9-12.65-60.34-23.32-94.32z" fill="#a4a5d5"/><path d="M603.85 210.3c7.25 4.64-1.36 13.18 4.51 24.9a45.58 45.58 0 00-8.65-3.46c-4.16-1-3.81-6.57-1.53-9.33s5.67-5.19 5-8.65-5.54-2.41-11.76-1.73-2.43-1.73 0-5.51 7.58.67 12.43 3.78z" fill="#c97867"/><path d="M540.25 478.22l-36.65 30.43s-17.28 15.9-29.74 25.58-20 23.51-29.71 26.27a130.57 130.57 0 00-15.91 5.5s-16.6-15.92-21.44-17.3c0 0-36.63-7.59-35.25-13.13s33.19 5.54 27.66-2.08a31.37 31.37 0 00-13.14-10.36c12.65-3.39 39.91 6.26 31.46 13.14 26.84-13.38-5.95-22.14 122.72-58.05z" fill="#a4a5d5"/><path d="M603.87 751.59c-26.71.13-45.56.64-46.33 1.8s-2 11.23-3.48 25.68q16.1.36 32.17.66c69.64 1.22 139.29 1.11 208.93.33v-.33l-2.54-26.34c-3.15-.07-11.69-.2-12.37-.2m-173.79-.11a.23.23 0 01-.09-.06m5.14 2.89a1.7 1.7 0 00-.24-.14m2.83 1.43a1.51 1.51 0 00-.33-.13m6.68 0c-1.25 1-4.43.48-5.3.48m5.85-2.04a1.51 1.51 0 01-.44 1.51" fill="none" stroke="#282828" stroke-linecap="round" stroke-miterlimit="10" stroke-width=".3"/><path d="M619.88 753.19a1.15 1.15 0 01.15.2 6 6 0 01.83 1.79m-1.77-3.24c-.46.27.28.66.77 1.21m135.85 3.04c0-.22-.05-.46-.05-.7a16 16 0 01.11-2.41v-.28q-11.73-.13-22.18-.24l-40.11-.46c-15.83-.2-28.36-.38-38.25-.49l-5.54-.06c-23.69-.26-29.69-.2-30.63.37m136.87 5.63a1.72 1.72 0 01-.11-.51 3 3 0 01-.09-.54m3.74 4.03a3.41 3.41 0 01-3.52-2.92m12.94.11a41.56 41.56 0 01-7.16 2.59 9.32 9.32 0 01-1.93.24m20.41-7.36a101.87 101.87 0 00-11 4.36m25.93 22.18H553.98m207.75 0v-19.42m6 19.42v-21.48m-118.01-6.61v28.09m5.54-28.05v28.05m38.25-27.72v27.72m40.11-27.72v27.72" fill="none" stroke="#282828" stroke-linecap="round" stroke-miterlimit="10" stroke-width=".3"/><path fill="none" stroke="#282828" stroke-linecap="round" stroke-miterlimit="10" stroke-width="1.19" d="M693.51 766.35h16.13"/><path d="M583.84 676.8c54.45-4 71.59-7.6 76.94-1.77 10 10.9-51.39 12.87-57.61 16.59-8.56 5.15 14.23 2 44.25 11.54 10.14 3.22 18.43 11.52 17.12 15.66-2.6 8.1-32-7.78-44.51-9.22-12.15-1.38-18.24 0-15 2.78s20.27 8.3 24.43 12 14.74 15.67 12 19.35c-4 5.41-1-7.44-40.09-15.65-8.76-1.86-7.38 1.84-7.84 4.59-1.07 6.49 9.27-5.53 25.36 18.9l.24.37s0 0 0 0c.31.44.55.86.77 1.21a.06.06 0 010 0 12.23 12.23 0 011 2 1.35 1.35 0 01.09.33c.2.77 0 1.25-.44 1.51 0 .05 0 .07-.06.05-.88.5-2.67.48-5.3.48a3.58 3.58 0 01-1-.35 2.52 2.52 0 00-.33-.13l-2.26-1.16a.8.8 0 00-.24-.14c-1.42-.78-3.11-1.73-4.81-2.69l-.09-.06c-.83-.49-1.69-1-2.5-1.43-2.65-1.51-5.14-2.93-6.7-3.72-6.65-3.33-22.81-3.17-39.1-4.62-14.32-1.29-28.77-3.83-37-11.06-7.84-6.91-16.11-22.13-16.11-22.13l-106.22-70.16c8.91-10.38 22.36-27.87 32-40.66 0 0 17.89 14.52 51.08 45.41 33.65 31.33 55.77 37.61 72 37.09 12.7-.38 21.76-4.91 29.93-4.91zm-29.91 4.91c-3.06-24.9-12.65-60.34-23.32-94.32-9.43-30.17-19.72-59.21-27-78.74 0 0-17.28 15.9-29.74 25.58s-20 23.51-29.71 26.27a130.57 130.57 0 00-15.92 5.5l14.51 17.27s-5 6.75-11.89 15.9M792.67 751.4v.02l-.07 1.97m33.74-223.76c.83-1.29 7.18 8.34 14.27 19.11 7.82 11.87 16.51 25.14 19.75 26.74 6.46 3.21 26.74 12.91 26.74 12.91-23.26 18.7-18.48 20.34-1.45 34.29" fill="none" stroke="#282828" stroke-linecap="round" stroke-miterlimit="10" stroke-width=".3"/><path d="M795.23 682.69c1.73-41.53 6.39-70.32 11.58-91.08a245.41 245.41 0 0112.35-37c4.49-10.77 7.62-17.36 7.09-24.34a1 1 0 01.09-.66m-268.8 223.78s.4-3.2.53-10.14M343.2 599.21S359.8 579.85 375 566m543.45.04l53.22 38.01M729.5 721.64c-1.09 22-1.88 30.37-1.88 30.37m3.3-62.73c-.28 7.8-.59 14.74-.85 20.89M711 397.1c27.87 87.71 23 205.55 20.47 276.57M428.24 566s-16.6-15.92-21.44-17.3c0 0-36.63-7.59-35.25-13.13s33.19 5.54 27.66-2.08a31.37 31.37 0 00-13.14-10.36c12.65-3.39 39.91 6.26 31.46 13.14 26.84-13.42-5.95-22.18 122.72-58.09 33.32 42.26 92.19 95.44 78.82 87.82-4.84-2.78-36.65 13.14-47.71 26.27-12.44 14.78 5.25 35.78 12.48 84.49" fill="none" stroke="#282828" stroke-linecap="round" stroke-miterlimit="10" stroke-width=".3"/><path d="M819 554.57s-33.26 20-32.58 19.53 17 14.45 20.43 17.51l.61.57m18.79-61.87c0-.22.07-.44.09-.66v0c3-23.14.52-45.23 9.13-62.46 0 0 18 43.54 25.59 54.62s21.66 24.87 26 22.82 21-13.84 25.81-12.46 6.92 6.22 5.54 8.3 17.27 5.25 19.35 4.35S903.93 566 903.93 566l-16.83 22.39M714.48 751.55l1.21-28.92M607.66 337.71s55.9 57.55 90 58.93c30 113.68 24.52 157.05 19.9 278.89M630.5 288.11c1.09.62 57.25 32.47 64.28 32.47a115 115 0 0111.64.46m-93.22-21.72l3.79-44.42 13.48 33.19" fill="none" stroke="#282828" stroke-linecap="round" stroke-miterlimit="10" stroke-width=".3"/><path d="M711.94 321s10.14 3.7 16.71-9.1c13.83-26.93 21-44.12 24.83-59.91 1-4.2 1.79-8.29 2.38-12.45 2-14.26 2-29.17 2.26-51 0-1.4 0-2.82.06-4.29.05-3.46.11-7.1.2-10.93-.22-1.35-.46-2.71-.7-4.07-2.43-14.49-5.41-28.64-12.79-37.07 0 0-11.73 21.79-26.95 27-30.83 10.51-80-8.83-82.28-2.06-.44 1.31-.44 3.35-.76 5.87a24.32 24.32 0 01-5.11 12.43c-6.23 8-5.88 10.73-5.88 12.81 0 26.95 2.32 20.41-9 30.41 6.37-15.46-10-27.43-22.25-23.91a14.13 14.13 0 00-5.75 3.18c-3.46 3.11-8 11.75-3.46 21.78 7.42 16.53 14.73 38.23 33.52 35.25m42.84-44.51C672 222 676.45 222.06 692 215.84m0-.11c-4.13-13.73-19.88-12.94-32.07-5.34" fill="none" stroke="#282828" stroke-linecap="round" stroke-miterlimit="10" stroke-width=".3"/><path d="M730.38 216.52c10.59 6.2 17.56 5.15 27-3.94-1-4.93-17.23-9.85-26.93 3.9m-70.64-6.05a.23.23 0 01.09 0c1.64-.81 24.24-11.49 32.07 5.34a.48.48 0 000 .11" fill="none" stroke="#282828" stroke-linecap="round" stroke-miterlimit="10" stroke-width=".3"/><path d="M730.38 216.52h0c.81-.88 14.32-15.22 26.93-3.9" fill="none" stroke="#282828" stroke-linecap="round" stroke-miterlimit="10" stroke-width=".3"/><path d="M739.94 214c0-6.54 7.84-6.54 7.84 0s-7.84 6.59-7.84 0zm-64.56-1.42c0-6.55 7.84-6.55 7.84 0s-7.84 6.57-7.84 0zm-31.51-16.73c.31-.61 3.48-6.26 12.88-3.87 36 9.21 22.85 9.37 46.89 7.62l-1.13-7.73c-25.34 1.66-31.73-9.42-42.7-7.38-5.6 1.05-12.61 1.62-15.94 11.36zm0 0a.08.08 0 000 .05M758 188.54c-15.33 8.14-18.39 12.13-30.19 11.93v-9.17c23.27-2.45 26.18-8.41 30.28-7.05M630.47 288.09h0c.92 1.1 30.25 36.24 42 41.23 12 5.08 27.92 11.89 34.35 11.82" fill="none" stroke="#282828" stroke-linecap="round" stroke-miterlimit="10" stroke-width=".3"/><path d="M592.73 194.87l-.05-.18-7.48-26.21s-4.16 7.84-6.46 8.3-4.62-25.35-3.22-29.05-8.76 6.46-8.76 6.46c1.91-34.84 14.39-44.14 38.25-69.6H588c59.36-46.33 84.42-11.76 71.79-30.41 36.41-5.28 31.21.59 46.63 7.82l-2.78-7.37s18 3.67 26.74 12.43a50.51 50.51 0 0111 17.47C744 91.35 743 91.72 743 71.69c18.15 11.87 22 24.33 13.4 48.39 6.61 1.14 21.89 12.06 18.69 18.43-13.33 2.32-13.09-.09-2.29 8.3-11 5.23-7.49.48-15.11 22.44v0" fill="none" stroke="#282828" stroke-linecap="round" stroke-miterlimit="10" stroke-width=".3"/><path d="M741.48 84.59a1.12 1.12 0 00-.13 0c-4-1.14-51.94-10.51-58.13-6.87-11.08 6.48-29.84-3.15 16.53 13.38 0 0-53.71 8.29-66.63 16.59-28.07 18-28.26 26.27-32.27 47l24.89-9.69-.92 22.6 10.08-4.6M398.83 639.87c-17.64 20.69-14.4 12-34.9-2.63-19.35-13.82-33.17-36.65-35.95-58.06-5.1-39.59 42.39-74.49 53.93-89.9 19.18-25.55 23.89-8.67 108.55-93.34 11.08-11.05 40.11-12.43 54.63-24.89s62.57-33.34 62.57-33.34c1-19.56 0-43.86 5.54-38.39-3.7 6.9-3.13 8.24 18.08 28.64 9.7 9.33 66.61 68.68 66.39 68.68a81.3 81.3 0 0113.35.42c5 .26 5.52-1.2 8.3-14.25 3.22-15-7.75-26.3-12-41.76a42.27 42.27 0 01-.86-20h5.52c3.26 17.48 4.93 22.51 29.52 35.95 9.21 5.08 52.54 25.36 75.11 32.28 25.84 7.9 8.3 8 79.74 89.87 31.65 36.29 61.77 28.85 91.7 103.7.92 2.3-6.46 29-6.92 35s-25.81 35-31.81 41c-3.7 3.7-11.61 0-18.66-4.22" fill="none" stroke="#282828" stroke-linecap="round" stroke-miterlimit="10" stroke-width=".3"/><path d="M930.66 654.69c-67.14 72.91-65 61.13-76.3 84.42-7.81 16.14-10.59 12.9-24 13.8-12.41.81-25.79-1.78-37.74-1.49a46.78 46.78 0 00-12.44 1.77h0c-2.39 0-6.64 2.34-11 4.36a2.09 2.09 0 01-.37.17c-.4.2-.77.38-1.16.55a27.74 27.74 0 01-6 2.08 7.87 7.87 0 01-1.93.2 1.83 1.83 0 01-.33 0 3.65 3.65 0 01-3.52-2.92.07.07 0 000-.06c0-.16-.07-.33-.11-.51s-.05-.35-.09-.54 0-.2 0-.31-.05-.46-.05-.7a17.17 17.17 0 01.07-2.1v-.31c.64-4.77 3.27-3.85 16.56-10.29 16.29-7.86 7.22-5.65-10.6-3.22-13.42 1.82-23 15.59-27.94 4.6-1.66-3.68 5.34-3.68 12.26-11.06 12.33-13.15 25.47-1.77 27.2-16.59-26.67-1.34-34.84 2.84-43.75 5.12a41.36 41.36 0 01-8.1 1.34 19.28 19.28 0 01-5.71-.35c-3.07-.77-5.06-2.7-4.67-6.57.24-2.21 2.26-3 5.08-3.5 3-.53 7-.6 10.6-1.56 1.55-.41 2.6-.66 3.37-.83 2.61-.61 2.21-.66 9.06-5.17 9.11-6 23.06-4.16 31.82-6 11.91-2.51-28.82-8-40-9.74l-2.38-.39c-12.66-2.3-11-7.08-11-13v-.37c.13-2.14 9.15-1.42 13.92-1.86s17.32 2.76 36.24 7.82c25.13 6.74 6.08-.46 27.5 1.2 54.67 4.69 26 29.08 90.42-60a400.62 400.62 0 0045.09 32.01zM716.1 712.53c1.47-36.56 1-33.76 1.45-36.63M503.6 508.65l36.65-30.43-9.64 109.17v.06m304.86-120.28s1 73.3 5.14 81.57a2 2 0 01.11.2m-122.78-209c5.58 5.58 4 53.33-1 53.09" fill="none" stroke="#282828" stroke-linecap="round" stroke-miterlimit="10" stroke-width=".3"/></svg>