<svg xmlns="http://www.w3.org/2000/svg" viewBox="0 0 700 700"><path fill="#ddd" d="M-.19 0h700v700h-700z"/><path d="M600.94 535.24c.77 1.91-5.37 24.16-5.75 29.16s-21.49 29.16-26.48 34.15c-3.08 3.08-9.66 0-15.53-3.52a332.53 332.53 0 01-37.47-26.64c-14.18-11.61-18.15-13 1.2-28.54l14-18.61s29.92-18.42 28.19-17.67-17.26-1.9-16.11-3.63-.58-5.76-4.61-6.91-17.84 8.64-21.49 10.37-15.34-9.78-21.66-19-21.31-45.47-21.31-45.47c-7.16 14.35-5.08 32.73-7.6 52a.93.93 0 00-.07.56c.44 5.82-2.17 11.3-5.91 20.27l-.16-.08S433.14 528 433.08 528c.53-.35 14.18 12 17 14.58-4.32 17.28-8.2 41.24-9.64 75.81-17.83-1.38-2 4.61-22.89-1-15.75-4.21-26.16-6.87-30.16-6.51 2.06-59.12 6.16-157.2-17-230.2 4.11.22 4.59-1 6.9-11.86 2.68-12.52-6.45-21.89-10-34.76a35.24 35.24 0 01-.71-16.65h4.59c2.72 14.54 4.1 18.73 24.57 29.92 7.67 4.23 43.74 21.1 62.52 26.86 21.51 6.58 6.91 6.64 66.38 74.81 26.36 30.13 51.36 24 76.3 86.24z" fill="#b1b4dd"/><path d="M559.12 503.57c1.73-.75-28.19 17.67-28.19 17.67l-14 18.61s-16.93-8.07-22.27-10.75c-2.7-1.33-9.93-12.38-16.44-22.25-3.42-6.89-4.28-67.91-4.28-67.91s15 36.25 21.31 45.47 18 20.71 21.66 19 17.46-11.53 21.49-10.41 5.76 5.18 4.61 6.91 14.38 4.4 16.11 3.66z" fill="#aaaade"/><path d="M438.31 675.55A39 39 0 00428 677c-2 0-5.52 2-9.11 3.63a1.46 1.46 0 01-.31.14 32.44 32.44 0 01-6 2.15 7.41 7.41 0 01-1.6.21 1.23 1.23 0 01-.27 0 3.09 3.09 0 01-2.94-2.43c0-.14-.07-.31-.11-.47s-.07-.46-.09-.71a12.83 12.83 0 01.06-2.59c.52-4 2.71-3.21 13.77-8.56 13.56-6.55 6-4.71-8.82-2.68-11.17 1.51-19.13 13-23.25 3.82-1.39-3.06 4.45-3.06 10.2-9.2 10.26-10.95 21.2-1.48 22.64-13.81-22.2-1.11-29 2.37-36.41 4.26a34 34 0 01-6.75 1.11 15.67 15.67 0 01-4.75-.29c-2.55-.64-4.21-2.24-3.88-5.47.2-1.84 1.89-2.53 4.22-2.91 2.52-.44 5.84-.49 8.82-1.3 1.3-.34 2.17-.54 2.81-.69 2.17-.51 1.84-.54 7.55-4.3 7.58-5 19.19-3.46 26.48-5 9.91-2.1-24-6.71-33.32-8.11l-2-.33c-10.54-1.91-9.19-5.89-9.13-10.79v-.31c.1-1.78 7.61-1.18 11.59-1.55s14.41 2.3 30.16 6.51c20.92 5.61 5.06-.38 22.89 1 45.5 3.9 21.68 24.2 75.26-50A332.53 332.53 0 00553.18 595c-55.89 60.69-54.09 50.88-63.51 70.27-6.51 13.43-8.82 10.74-19.94 11.48-10.33.71-21.47-1.44-31.42-1.2z" fill="#eda996"/><path d="M473.94 438.94s.86 61 4.28 67.91c-5.9-9-11.19-17-11.88-15.91 2.52-19.27.44-37.65 7.6-52z" fill="#8d8dc9"/><path d="M460.2 511.69l.16.08a206 206 0 00-10.27 30.76c-2.83-2.55-16.48-14.93-17-14.58.05.05 27.11-16.26 27.11-16.26z" fill="#a6a7d7"/><path d="M438.26 677.19l2.11 21.92h-22.81v-17.86c.32-.15.65-.29 1-.46a1.46 1.46 0 00.31-.14 83.47 83.47 0 019.11-3.63c.55-.02 7.65.11 10.28.17z" fill="#8383c3"/><path d="M438.31 675.55l-.05 1.64c-2.63-.06-9.73-.17-10.3-.17a39 39 0 0110.35-1.47zm-82.53.56l-31.84-.4c-1.62 0-3.15 0-4.61-.06-19.72-.21-24.71-.16-25.5.31a3.15 3.15 0 00-.2-.31c-13.39-20.33-22-10.33-21.1-15.72.38-2.3-.77-5.38 6.52-3.83 32.52 6.83 30 17.53 33.37 13 2.3-3.06-6.52-13-10-16.11s-17.66-7.67-20.33-10 2.38-3.46 12.5-2.31c10.4 1.2 34.88 14.41 37.05 7.67 1.09-3.44-5.82-10.35-14.25-13-25-8-44-5.32-36.83-9.6 5.17-3.1 56.27-4.74 47.94-13.82-4.44-4.85-18.71-1.86-64 1.48-6-40.55-20.74-58-10.38-70.33 9.2-10.93 35.68-24.18 39.71-21.87 11.13 6.35-37.87-37.92-65.61-73.09-107.1 29.88-79.8 37.17-102.15 48.35 7-5.73-15.65-13.76-26.18-10.94a26.14 26.14 0 0110.93 8.62c4.61 6.34-21.87-2.88-23 1.73s29.34 10.94 29.34 10.94c4 1.14 17.85 14.39 17.85 14.39l12.08 14.38s-4.14 5.62-9.9 13.23c-8 10.65-19.24 25.21-26.66 33.84-14.69 17.23-12 10-29-2.18-16.19-11.48-27.69-30.48-30-48.3-4.25-32.95 35.28-62 44.88-74.83 16-21.27 19.89-7.22 90.36-77.69 9.22-9.2 33.38-10.35 45.47-20.72s52.08-27.75 52.08-27.75 46.53 47.91 74.92 49.05c24.93 94.62 20.41 130.73 16.57 232.14v.31c-.39 2.39 0 .06-1.21 30.49-2.33.38-4 1.07-4.22 2.91-.33 3.23 1.33 4.83 3.88 5.47a15.67 15.67 0 004.75.29 34 34 0 006.75-1.11c7.41-1.89 14.21-5.37 36.41-4.26-1.44 12.33-12.38 2.86-22.64 13.81-5.75 6.14-11.59 6.14-10.2 9.2 4.12 9.15 12.08-2.31 23.25-3.82 14.84-2 22.38-3.87 8.82 2.68-11.06 5.35-13.25 4.59-13.77 8.56v-.24c-6.5-.07-12.66-.12-18.46-.2z" fill="#b1b4dd"/><path d="M408.12 150c5.5 1 18.22 10 15.56 15.34-11.1 1.94-10.9-.07-1.91 6.91-9.19 4.36-6.24.4-12.58 18.68-2-12.06-4.5-23.84-10.64-30.85 0 0-9.77 18.13-22.43 22.43-25.66 8.75-66.61-7.34-68.49-1.71a39.62 39.62 0 00-.64 4.88l-8.38 3.85.76-18.81-20.72 8.06c3.34-17.26 3.5-24.11 26.87-39.13 10.75-6.91 55.45-13.82 55.45-13.82-38.6-13.75-23-5.74-13.76-11.13 5.16-3 45.07 4.77 48.39 5.72 2.2 5.67 1.36 6 1.36-10.69 15.11 9.91 18.35 20.27 11.16 40.27z" fill="#7d3f32"/><path d="M386.92 623.81c9.33 1.4 43.23 6 33.32 8.11-7.29 1.53-18.9 0-26.48 5-5.71 3.76-5.38 3.79-7.55 4.3.22-5.12.47-10.9.71-17.38z" fill="#b1b4dd"/><path d="M417.56 681.25a23 23 0 01-5 1.73 32.44 32.44 0 006-2.15c-.35.17-.68.27-1 .42z" fill="#ab6b52"/><path d="M417.56 681.25v17.86h-5V683a23 23 0 005-1.75zm-5 1.75v16.13h-23.4v-22.64c5.8.08 12 .13 18.46.2v.5a13.07 13.07 0 000 2.33c0 .25.06.49.09.71a2.31 2.31 0 00.11.47 2.84 2.84 0 002.94 2.43 1.23 1.23 0 00.27 0 6.56 6.56 0 001.53-.13z" fill="#8383c3"/><path d="M412.56 682.94a6.56 6.56 0 01-1.6.17 7.41 7.41 0 001.6-.17z" fill="#592925"/><path d="M314.46 213.11c.26-.51 2.9-5.21 10.72-3.22 30 7.67 19 7.8 39 6.34l-.94-6.43c-21.09 1.38-26.41-7.84-35.54-6.15-4.63.88-10.47 1.35-13.24 9.46zm-42.6-1c10.2-2.94 23.81 7 18.51 19.9 9.4-8.33 7.47-2.88 7.47-25.32 0-1.73-.29-4 4.91-10.66a20.25 20.25 0 004.25-10.31 39.62 39.62 0 01.64-4.88c1.88-5.63 42.83 10.46 68.49 1.71 12.66-4.3 22.43-22.43 22.43-22.43 6.14 7 8.62 18.79 10.64 30.85.2 1.13.4 2.26.58 3.39-.07 3.19-.12 6.21-.16 9.09h-.05c-3.41-1.13-5.84 3.83-25.21 5.87V217c9.83.16 12.38-3.15 25.13-9.93h.08c-.24 18.2-.19 30.61-1.88 42.48-5.94 2.68-6 5-2 10.37-3.17 13.14-9.15 27.44-20.66 49.86-5.47 10.66-13.91 7.58-13.91 7.58h-4.59a94.11 94.11 0 00-9.7-.39c-5.85 0-52.59-26.51-53.5-27l-11.23-27.63c-15.63 2.48-21.72-15.58-27.9-29.34-3.75-8.34 0-15.54 2.88-18.13a11.86 11.86 0 014.78-2.72zM408.92 227c-.84-4.1-14.34-8.2-22.42 3.24 8.79 5.23 14.58 4.36 22.42-3.24zM387 287.34c6.87 2.26-8.05-11.34-24.27-4.21-13.05 5.72-8.24 4.46-.88 4.46-.47.48.71 1.55 3.61 3.81 1.85 1.42 15.67 3.1 21.54-4.06zm-10.75-16.58c4.63-1.68 10.21-4.76 8.09-9.21-2.57-9.55-3.21-9.18-15.43-8.2-3.47.27-7.64 6.12-3.45 14.13.01 0 7.19 4.57 10.8 3.28zm-21.72-41a.23.23 0 010-.09c-3.44-11.43-16.55-10.77-26.7-4.45h-.07c10.08 9.62 13.82 9.71 26.78 4.53zm-20.43 37.69c2.59-.29 13.25-8.62 13.1-9.79s-13.81-2.86-19.35-5.17c-13-5.4-12.47-4.69-19.37-1.73 0 0 8.34 12.37 13.24 13.81s9.78 3.16 12.39 2.87zm-49.2-21.59c-4.88-9.75 2.28-16.86-3.75-20.72-4-2.59-8.35-6.32-10.35-3.15s-5.18 5.17 0 4.59 9.2-1.44 9.79 1.44-2.25 4.9-4.16 7.2-2.19 6.91 1.28 7.76a38.34 38.34 0 017.19 2.88z" fill="#eeaa97"/><path d="M409.56 203.45h.05c0 1.23 0 2.41-.05 3.58h-.08c-12.75 6.78-15.3 10.09-25.13 9.93v-7.64c19.37-2.04 21.8-7 25.21-5.87z" fill="#5d241b"/><path d="M407.57 677.19v-.26a12.83 12.83 0 00-.06 2.59 13.07 13.07 0 01.06-2.33z" fill="#592925"/><path d="M407.68 249.51a104.51 104.51 0 01-2 10.37c-4.01-5.42-3.94-7.69 2-10.37z" fill="#eaa192"/><path d="M386.5 230.28c8.08-11.44 21.58-7.34 22.42-3.24-10.5-9.43-21.74 2.51-22.42 3.24z" fill="#5d241b"/><path d="M386.5 230.28c.68-.73 11.92-12.67 22.42-3.24-7.84 7.56-13.63 8.43-22.45 3.28zm14.45-2c0-5.45-6.52-5.45-6.52 0s6.57 5.43 6.57-.04z" fill="#fffefa"/><path d="M394.43 228.24c0-5.45 6.52-5.45 6.52 0s-6.52 5.47-6.52 0z" fill="#642b18"/><path d="M355.78 688v-11.89l33.38.38v22.62h-33.38z" fill="#8383c3"/><path d="M362.74 283.13C379 276 393.88 289.6 387 287.34a28.6 28.6 0 01-4.86-2.35c-.39-.22-19.28-2.48-20.27 2.57-7.37.03-12.18 1.29.87-4.43z" fill="#e48a7f"/><path d="M370.36 380.63c23.2 73 19.1 171.08 17 230.2-4 .37-11.49-.23-11.59 1.55 3.84-101.41 8.36-137.52-16.57-232.14a67 67 0 0111.12.35z" fill="#b2b5de"/><path d="M386.47 105.92a42.5 42.5 0 019.13 14.54c-3.32-.95-43.23-8.75-48.39-5.72-9.22 5.39-24.84-2.62 13.76 11.13 0 0-44.7 6.91-55.45 13.82-23.37 15-23.53 21.87-26.87 39.13l20.72-8.06-.76 18.81 8.38-3.85a20.25 20.25 0 01-4.24 10.35c-5.2 6.64-4.91 8.93-4.91 10.66 0 22.44 1.93 17-7.47 25.32 5.3-12.87-8.31-22.84-18.51-19.9l-6.24-21.82s-3.46 6.53-5.37 6.91-3.85-21.1-2.68-24.18-7.29 5.37-7.29 5.37c1.58-29 12-36.74 31.84-57.93H268c49.41-38.56 70.28-9.79 59.76-25.31 30.29-4.4 26 .49 38.8 6.52l-2.32-6.14s14.94 3.06 22.23 10.35z" fill="#7c3e31"/><path d="M386.92 623.81c-.24 6.48-.49 12.26-.71 17.38-.64.15-1.51.35-2.81.69-3 .81-6.3.86-8.82 1.3 1.23-30.43.82-28.1 1.21-30.49-.06 4.9-1.41 8.88 9.13 10.79z" fill="#b2b5de"/><path d="M384.35 261.55c2.12 4.45-3.46 7.53-8.09 9.21-3.61 1.29-10.79-3.28-10.79-3.28 6-8.08 7.27-2.67 15-3.07a4.62 4.62 0 003.88-2.86z" fill="#d77f71"/><path d="M384.35 261.55a4.62 4.62 0 01-3.92 2.86c-7.69.4-9-5-15 3.07-4.19-8 0-13.86 3.45-14.13 12.26-.98 12.9-1.35 15.47 8.2z" fill="#eda495"/><path d="M361.88 287.56c1.17-.95 9.81.82 25.13-.22-5.88 7.16-19.7 5.48-21.54 4.06-2.9-2.26-4.08-3.33-3.61-3.81z" fill="#d78a78"/><path d="M367.24 334c3.57 12.87 12.7 22.24 10 34.76-2.31 10.86-2.79 12.08-6.9 11.86a67 67 0 00-11.12-.35c0-.18-47.2-49.42-55.26-57.16-17.65-17-18.13-18.1-15.05-23.84l3.15-37 11.23 27.63c.76.91 25.18 30.16 35 34.31 10 4.23 23.23 9.9 28.59 9.85z" fill="#e8aa9f"/><path d="M367.24 334l-.33.1c-5.36.05-18.6-5.62-28.59-9.85-9.81-4.15-34.23-33.4-35-34.31.91.51 47.65 27 53.5 27a94.11 94.11 0 019.7.39 35.24 35.24 0 00.72 16.67z" fill="#dd8776"/><path d="M363.27 209.8l.94 6.43c-20 1.46-9 1.33-39-6.34-7.82-2-10.46 2.71-10.72 3.22 2.77-8.11 8.61-8.58 13.27-9.46 9.1-1.65 14.42 7.53 35.51 6.15z" fill="#5d241b"/><path d="M355.78 688v11.14h-31.84v-23.4l31.84.4z" fill="#8383c3"/><path d="M354.5 229.66a.23.23 0 000 .09c-13 5.18-16.7 5.09-26.81-4.5h.07c1.41-.71 20.24-9.6 26.74 4.41zm-7.29-2.66c0-5.45-6.52-5.45-6.52 0s6.52 5.5 6.52 0z" fill="#fffff6"/><path d="M347.21 257.65c.15 1.17-10.51 9.5-13.1 9.79s-7.49-1.44-12.38-2.88-13.24-13.81-13.24-13.81c6.9-3 6.34-3.67 19.37 1.73 5.54 2.31 19.19 4.02 19.35 5.17z" fill="#eaa192"/><path d="M340.69 227c0-5.45 6.52-5.45 6.52 0s-6.52 5.5-6.52 0z" fill="#642b18"/><path d="M327.8 225.21c10.15-6.32 23.26-7 26.7 4.45-6.5-14.01-25.33-5.12-26.7-4.45z" fill="#5d241b"/><path d="M317.42 635.38c8.43 2.68 15.34 9.59 14.25 13-2.17 6.74-26.65-6.47-37.05-7.67-10.12-1.15-15.18 0-12.5 2.31S299 650 302.45 653s12.27 13.05 10 16.11c-3.35 4.5-.85-6.2-33.37-13-7.29-1.55-6.14 1.53-6.52 3.83-.89 5.39 7.71-4.61 21.1 15.72a3.15 3.15 0 01.2.31c-.38.22.24.55.64 1a9.55 9.55 0 01.82 1.66 1.34 1.34 0 01.07.27 1.24 1.24 0 01-.36 1.26c-.71.44-2.22.42-4.45.42-.74 0-5.28-2.61-9.38-5-2.21-1.26-4.27-2.44-5.58-3.1-5.54-2.77-19-2.64-32.55-3.84-11.91-1.08-23.94-3.19-30.76-9.2-6.52-5.76-13.41-18.43-13.41-18.43l-88.4-58.32c7.42-8.63 18.61-23.19 26.66-33.84 0 0 14.89 12.09 42.52 37.8 28 26.08 46.42 31.31 59.92 30.87 10.55-.31 18.1-4.08 24.89-4.08 45.33-3.34 59.6-6.33 64-1.48 8.33 9.08-42.77 10.72-47.94 13.82-7.09 4.28 11.88 1.62 36.87 9.6z" fill="#eda996"/><path d="M323.94 675.76v23.35h-4.61v-23.46c1.46 0 3 0 4.61.06zm-4.61-.03v23.38h-52.85q-13.4-.24-26.77-.55c1.24-12 2.3-20.46 2.9-21.37s16.33-1.39 38.56-1.5c4.1 2.35 8.64 5 9.38 5s3.41.47 4.45-.42c.4-.22.53-.62.36-1.26a1.34 1.34 0 00-.07-.27 5 5 0 00-.69-1.49.63.63 0 00-.13-.17c-.18-.31-.38-.64-.64-1 .79-.47 5.78-.52 25.5-.31z" fill="#8383c3"/><path d="M359.24 380.24c-28.39-1.14-74.92-49.05-74.92-49.05.84-16.28 0-36.51 4.61-31.95-3.08 5.74-2.6 6.85 15.05 23.84 8.02 7.74 55.26 56.98 55.26 57.16z" fill="#b1b4dd"/><path d="M295.38 679c.17.64 0 1-.36 1.26a1.24 1.24 0 00.36-1.26z" fill="#a4664f"/><path d="M228.21 448.15c27.79 35.17 76.79 79.44 65.61 73.09-4-2.31-30.51 10.94-39.71 21.87-10.36 12.3 4.37 29.78 10.38 70.33-6.79 0-14.34 3.77-24.89 4.08-2.55-20.72-10.53-50.22-19.41-78.51z" fill="#a4a5d5"/><path d="M293.83 676c.26.37.46.7.64 1-.4-.47-1.02-.8-.64-1z" fill="#a4664f"/><path d="M281.15 225.14c6 3.86-1.13 11 3.75 20.72a38.34 38.34 0 00-7.19-2.88c-3.47-.85-3.18-5.47-1.28-7.76s4.72-4.32 4.16-7.2-4.62-2-9.79-1.44-2-1.44 0-4.59 6.32.56 10.35 3.15z" fill="#c97867"/><path d="M275.59 672.59c1.31.66 3.37 1.84 5.58 3.1-22.23.11-37.93.53-38.56 1.5 0 0 .32-2.66.43-8.44 13.56 1.25 27.01 1.07 32.55 3.84z" fill="#a4a5d5"/><path d="M228.21 448.15l-8 90.86c-7.85-25.13-16.42-49.28-22.49-65.53z" fill="#8383c3"/><path d="M228.21 448.15l-30.51 25.33s-14.38 13.23-24.7 21.28-16.67 19.58-24.73 21.87a108.87 108.87 0 00-13.27 4.61s-13.84-13.24-17.87-14.39c0 0-30.48-6.33-29.34-10.94s27.63 4.61 23-1.73a26.14 26.14 0 00-10.93-8.62c10.53-2.82 33.22 5.21 26.18 10.94 22.37-11.18-4.93-18.5 102.17-48.35z" fill="#a4a5d5"/><path d="M281.17 675.69c-22.23.11-37.93.53-38.56 1.5s-1.66 9.34-2.9 21.37q13.39.3 26.77.55c58 1 115.94.93 173.91.27v-.27l-2.11-21.92c-2.63-.06-9.73-.17-10.3-.17M295 680.23c-1 .89-3.72.42-4.45.42m4.83-1.65a1.24 1.24 0 01-.36 1.26" fill="none" stroke="#282828" stroke-linecap="round" stroke-miterlimit="10" stroke-width=".25"/><path d="M294.49 677a.63.63 0 01.13.17 5 5 0 01.69 1.49m-1.48-2.66c-.38.22.24.55.64 1m113.08 2.52a12.83 12.83 0 01.06-2.59v-.24c-6.5-.07-12.66-.12-18.46-.2l-33.38-.38-31.84-.4c-1.62 0-3.15 0-4.61-.06-19.72-.21-24.71-.16-25.5.31m116.87 7.17a2.84 2.84 0 01-2.94-2.43 2.31 2.31 0 01-.11-.47m10.88.56a32.44 32.44 0 01-6 2.15 7.41 7.41 0 01-1.6.21m17.02-6.15a83.47 83.47 0 00-9.11 3.63m21.54 18.48H239.64m172.92 0v-16.16m5 16.16v-17.88m-98.23-5.5v23.38m4.61-23.35v23.35m31.84-23.07v23.07m33.38-23.07v23.07" fill="none" stroke="#282828" stroke-linecap="round" stroke-miterlimit="10" stroke-width=".25"/><path fill="none" stroke="#282828" stroke-linecap="round" stroke-miterlimit="10" stroke-width=".99" d="M355.78 687.97h13.43"/><path d="M264.49 613.44c45.33-3.34 59.6-6.33 64-1.48 8.33 9.08-42.77 10.72-47.94 13.82-7.13 4.28 11.84 1.62 36.83 9.6 8.43 2.68 15.34 9.59 14.25 13-2.17 6.74-26.65-6.47-37.05-7.67-10.12-1.15-15.18 0-12.5 2.31S299 650 302.45 653s12.27 13.05 10 16.11c-3.35 4.5-.85-6.2-33.37-13-7.29-1.55-6.14 1.53-6.52 3.83-.89 5.39 7.71-4.61 21.1 15.72a3.15 3.15 0 01.2.31s0 0 0 0c.26.37.46.7.64 1h0a9.55 9.55 0 01.82 1.66 1.34 1.34 0 01.07.27c.17.64 0 1-.36 1.26h0c-.71.44-2.22.42-4.45.42-.74 0-5.28-2.61-9.38-5-2.21-1.26-4.27-2.44-5.58-3.1-5.54-2.77-19-2.64-32.55-3.84-11.91-1.08-23.94-3.19-30.76-9.2-6.52-5.76-13.41-18.43-13.41-18.43l-88.4-58.32c7.42-8.63 18.61-23.19 26.66-33.84 0 0 14.89 12.09 42.52 37.8 28 26.08 46.42 31.31 59.92 30.87 10.55-.31 18.1-4.08 24.89-4.08z" fill="none" stroke="#282828" stroke-linecap="round" stroke-miterlimit="10" stroke-width=".25"/><path d="M239.6 617.52c-2.55-20.72-10.53-50.22-19.41-78.51-7.85-25.13-16.42-49.28-22.49-65.53 0 0-14.38 13.23-24.75 21.28s-16.67 19.58-24.73 21.87a108.87 108.87 0 00-13.22 4.61l12.08 14.38s-4.14 5.62-9.9 13.23m301.13 126.68v.02l-.05 1.64m2.19-58.85c1.44-34.57 5.32-58.53 9.64-75.81a206 206 0 0110.27-30.76c3.74-9 6.35-14.45 5.91-20.27a.93.93 0 01.07-.56c.69-1.08 6 6.94 11.88 15.91 6.51 9.87 13.74 20.92 16.44 22.25 5.38 2.68 22.25 10.75 22.25 10.75-19.35 15.56-15.38 16.93-1.2 28.54m-273.1 108.8s.32-2.66.43-8.44M64.19 548.85S78 532.74 90.67 521.24m452.34 0l44.3 31.64m-201.57 97.88c-.91 18.24-1.57 25.24-1.57 25.24m2.75-52.17c-.24 6.48-.49 12.26-.71 17.38m-15.85-260.58c23.2 73 19.1 171.08 17 230.2" fill="none" stroke="#282828" stroke-linecap="round" stroke-miterlimit="10" stroke-width=".25"/><path d="M135 521.24s-13.84-13.24-17.87-14.39c0 0-30.48-6.33-29.34-10.94s27.63 4.61 23-1.73a26.14 26.14 0 00-10.93-8.62c10.53-2.82 33.22 5.21 26.18 10.94 22.35-11.18-5-18.47 102.15-48.35 27.81 35.17 76.81 79.44 65.63 73.09-4-2.31-30.51 10.94-39.71 21.87-10.36 12.3 4.37 29.78 10.38 70.33M460.2 511.69S433.14 528 433.08 528c.53-.35 14.18 12 17 14.58.32.31.51.47.51.47m15.68-51.55c0-.18.05-.38.07-.56 2.52-19.27.44-37.65 7.6-52 0 0 15 36.25 21.31 45.47s18 20.71 21.66 19 17.46-11.53 21.49-10.41 5.76 5.18 4.61 6.91 14.38 4.37 16.11 3.63-28.19 17.67-28.19 17.67l-14 18.61M373.24 675.65l1-24.07m-89.92-320.39s46.53 47.91 74.92 49.05c24.93 94.62 20.41 130.73 16.57 232.14m-72.48-322.47c.91.51 47.65 27 53.5 27a94.11 94.11 0 019.7.39m-77.6-18.06l3.15-36.98 11.23 27.63" fill="none" stroke="#282828" stroke-linecap="round" stroke-miterlimit="10" stroke-width=".25"/><path d="M371.12 317.32s8.44 3.08 13.91-7.58c11.51-22.42 17.49-36.72 20.66-49.86a104.51 104.51 0 002-10.37c1.69-11.87 1.64-24.28 1.88-42.48 0-1.17 0-2.35.05-3.58 0-2.88.09-5.9.16-9.09-.18-1.13-.38-2.26-.58-3.39-2-12.06-4.5-23.84-10.64-30.85 0 0-9.77 18.13-22.43 22.43-25.66 8.75-66.61-7.34-68.49-1.71a39.62 39.62 0 00-.64 4.88 20.25 20.25 0 01-4.24 10.35c-5.2 6.64-4.91 8.93-4.91 10.66 0 22.44 1.93 17-7.47 25.32 5.3-12.87-8.31-22.84-18.51-19.9a11.86 11.86 0 00-4.8 2.64c-2.88 2.59-6.63 9.79-2.88 18.13 6.18 13.76 12.27 31.82 27.9 29.34m35.64-37.01c10.11 9.59 13.85 9.68 26.81 4.5m-.04-.09c-3.44-11.43-16.55-10.77-26.7-4.45" fill="none" stroke="#282828" stroke-linecap="round" stroke-miterlimit="10" stroke-width=".25"/><path d="M386.47 230.32c8.82 5.15 14.61 4.28 22.45-3.28-.84-4.1-14.34-8.2-22.42 3.24m-58.77-5.03h.07c1.37-.67 20.18-9.56 26.7 4.45a.23.23 0 000 .09" fill="none" stroke="#282828" stroke-linecap="round" stroke-miterlimit="10" stroke-width=".25"/><path d="M386.47 230.32h0c.68-.73 11.92-12.67 22.42-3.24" fill="none" stroke="#282828" stroke-linecap="round" stroke-miterlimit="10" stroke-width=".25"/><path d="M394.43 228.24c0-5.45 6.52-5.45 6.52 0s-6.52 5.47-6.52 0zM340.69 227c0-5.45 6.52-5.45 6.52 0s-6.52 5.5-6.52 0zm-26.23-13.89c.26-.51 2.9-5.21 10.72-3.22 30 7.67 19 7.8 39 6.34l-.94-6.43c-21.09 1.38-26.41-7.84-35.54-6.15-4.63.88-10.47 1.35-13.24 9.46zm-.01.04a.1.1 0 010 0m95.03-6.15c-12.75 6.78-15.3 10.09-25.13 9.93v-7.64c19.37-2 21.8-7 25.21-5.87m-106.25 86.47h0c.76.91 25.18 30.16 35 34.31 10 4.23 23.23 9.9 28.59 9.85" fill="none" stroke="#282828" stroke-linecap="round" stroke-miterlimit="10" stroke-width=".25"/><path d="M271.89 212.29v-.14l-6.24-21.82s-3.46 6.53-5.37 6.91-3.85-21.1-2.68-24.18-7.29 5.37-7.29 5.37c1.58-29 12-36.74 31.84-57.93H268c49.41-38.56 70.28-9.79 59.76-25.31 30.29-4.4 26 .49 38.8 6.52l-2.32-6.14s15 3.06 22.26 10.35a42.5 42.5 0 019.13 14.54c2.2 5.67 1.36 6 1.36-10.69 15.11 9.87 18.35 20.24 11.16 40.27 5.5 1 18.22 10 15.56 15.34-11.1 1.94-10.9-.07-1.91 6.91-9.19 4.36-6.24.4-12.58 18.68v0" fill="none" stroke="#282828" stroke-linecap="round" stroke-miterlimit="10" stroke-width=".25"/><path d="M395.71 120.5h-.11c-3.32-.95-43.23-8.75-48.39-5.72-9.22 5.39-24.84-2.62 13.76 11.13 0 0-44.7 6.91-55.45 13.82-23.37 15-23.53 21.87-26.87 39.13l20.72-8.06-.76 18.81 8.38-3.85M110.5 582.69c-14.69 17.23-12 10-29-2.18C65.34 569 53.84 550 51.53 532.18c-4.25-32.95 35.28-62 44.88-74.83 16-21.27 19.89-7.22 90.36-77.69 9.22-9.2 33.38-10.35 45.47-20.72s52.08-27.75 52.08-27.75c.84-16.28 0-36.51 4.61-31.95-3.08 5.74-2.6 6.85 15.05 23.84 8.06 7.74 55.26 57 55.26 57.16a67 67 0 0111.12.35c4.11.22 4.59-1 6.9-11.86 2.68-12.52-6.45-21.89-10-34.76a35.24 35.24 0 01-.71-16.65h4.59c2.72 14.54 4.1 18.73 24.57 29.92 7.67 4.23 43.74 21.1 62.52 26.86 21.51 6.58 6.91 6.64 66.38 74.81C551 479.13 576 473 600.94 535.24c.77 1.91-5.37 24.16-5.75 29.16s-21.49 29.16-26.48 34.15c-3.08 3.08-9.66 0-15.53-3.52" fill="none" stroke="#282828" stroke-linecap="round" stroke-miterlimit="10" stroke-width=".25"/><path d="M553.18 595c-55.89 60.69-54.09 50.88-63.51 70.27-6.51 13.43-8.82 10.74-19.94 11.48-10.33.68-21.47-1.47-31.42-1.23A39 39 0 00428 677h0c-2 0-5.52 2-9.11 3.63a1.46 1.46 0 01-.31.14c-.31.17-.64.31-1 .46a23 23 0 01-5 1.73 6.56 6.56 0 01-1.6.17 1.23 1.23 0 01-.27 0 3.09 3.09 0 01-2.94-2.43c0-.14-.07-.31-.11-.47s-.07-.46-.09-.71a13.07 13.07 0 010-2.33v-.26c.52-4 2.71-3.21 13.77-8.56 13.56-6.55 6-4.71-8.82-2.68-11.17 1.51-19.13 13-23.25 3.82-1.39-3.06 4.45-3.06 10.2-9.2 10.26-10.95 21.2-1.48 22.64-13.81-22.2-1.11-29 2.37-36.41 4.26a34 34 0 01-6.75 1.11 15.67 15.67 0 01-4.75-.29c-2.55-.64-4.21-2.24-3.88-5.47.2-1.84 1.89-2.53 4.22-2.91 2.52-.44 5.84-.49 8.82-1.3 1.3-.34 2.17-.54 2.81-.69 2.17-.51 1.84-.54 7.55-4.3 7.58-5 19.19-3.46 26.48-5 9.91-2.1-24-6.71-33.32-8.11l-2-.33c-10.54-1.91-9.19-5.89-9.13-10.79v-.31c.1-1.78 7.61-1.18 11.59-1.55s14.41 2.3 30.16 6.51c20.92 5.61 5.06-.38 22.89 1 45.5 3.9 21.68 24.2 75.26-50A332.53 332.53 0 00553.18 595zm-178.6 48.18c1.23-30.43.82-28.1 1.21-30.49M197.7 473.48l30.51-25.33-8.02 90.86v.06m253.75-100.13s.86 61 4.28 67.91a1.29 1.29 0 01.09.16M376.12 333c4.64 4.65 3.29 44.4-.82 44.2" fill="none" stroke="#282828" stroke-linecap="round" stroke-miterlimit="10" stroke-width=".25"/></svg>