<svg xmlns="http://www.w3.org/2000/svg" viewBox="0 0 700 390"><path fill="#8e9aa7" d="M-26.2-24.9h737v426.3h-737z"/><path d="M316.2 110.1h-.2a82 82 0 00-27-3c-2.6.2-5.1-1.5-7.3-3-9.3-7.3-3.4-12.9 3-18.2a.9.9 0 00.3-.9c-2.5-10-.2-11.8 5.5-18.3a1 1 0 00.2-.8c-1.2-5.4-2-11.5 2.1-15.7 7.8-8 12.4-18.5 22.1-25 11.9-9.3 24.7-4 37.8-5 11.9-2.4 21.1 3.8 29.9 10.6a.9.9 0 00.3.1c7.6 2 13.2 6 15 14 .2 1.1 1.2 1.8 2.1 2.5 8.3 6 9.7 9.7 6.5 18.7a1 1 0 00.2.9c5.7 7.2 7 9.2 4.4 18.8a.9.9 0 00.1.7c5.1 7.2 5 10.4.6 16.7-2.7 3.7-7 3.2-10.6 4.4-2.2.5-3.6 1.6-5.8 1.3l-1.9-.9a15.1 15.1 0 00-4.2-.7 13 13 0 00-6 1.2c-2.2 1-15.3 3.3-13.7-.7 13-7.9 11.1-21.1 6.8-33.3a.9.9 0 00-.5-.5c-5.1-2.3-9.1-6-9.5-12.7a1.8 1.8 0 00-1.8-1.7c-7.1-.2-11-5.7-15.6-10.6a.9.9 0 00-1.4.2c-7.1 12-16.2 8.3-19.2 12.7a1 1 0 000 .4c-1.6 8-7.9 10.2-13.3 14.2a.9.9 0 00-.3.8c0 18-15.7 10.8 3.4 27.9l-2 4.9z" fill="#19073f"/><path d="M417.2 152c-5-1.5-20.2 3.6-19.8-3.8 1.4-10 0-11.4-9.9-9.2-3.2.7-6.4 1.8-10.3 3 .7 17.1-1 34.8 0 52v.7h-26.8c-3.4-1.4-6.8-1.6-10 .4h-.1c-7.7-.3-15.5-.5-23.2-.9a3.4 3.4 0 01-2.4-2.2c-.9-2.7.8-7-1.3-9.6a1 1 0 00-.2-1l-.2-5.3c-.2-8 0-16.1 0-24l.2-5.5c.3-1.5.8-3.1-1-4-6.4-3.3-16.3 2-17.5 9.4l-.1 6.7-1.2 1.6c-7.1 2.4-13.7.8-20-2.9 1.2-15 7-27 21.7-33.1 8.7-4.5 19.4-2.3 28.7-5.5a1.2 1.2 0 00.3 1c-.8 4.5 8 22.3 13 17 5.2 3.6 11 1.2 16.6 1.3 6.4-1.6 8.7-7.3 11.2-12.4 2.8-6.9 5-5.5 11.1-6.2 5.8-.2 11.7-1 17.5-1 2.4 2 6 .7 8.3 2.7a29.4 29.4 0 0115.4 30.7z" fill="#f47945"/><path d="M416.2 161c.4 6-2 10.5-6.4 14.5-3.7 3.4-7.3 3-11 1.2-3.4-1.6-5.6-3.6-4.8-8.7.5-3.7-.3-7.7 2-11.2 1 3.5 4 2.4 6.5 2.8 4.5.7 9.4-1.5 13.7 1.5z" fill="#f5baa7"/><path d="M340.4 194.8v.3c-7.8-.2-15.5-.4-23.3-.8a3.4 3.4 0 01-2.3-2.3c.8.7 1.6 1.8 2.4 1.9 7.7.4 15.5.6 23.2.8z" fill="#53c0ba"/><path d="M350.6 127.5c3.6-3.6 6.6-7.4 5.5-13.2-.3-1.5.4-3.2 2.6-1.7 1.3 3.4 4.2 2.9 6.8 2.5 1.2-.1 2.3.9 3.4 2.1a2 2 0 01-.3 3c-1.7 1.2-2.6 3-3.6 5.2-2.2 4.5-4.3 9.5-9.2 11.7a2 2 0 01-2.4-.6c-.6-1-1.7-1.3-2.4-2a2 2 0 01-.4-1c-.5-2-1.8-4 0-6z" fill="#f6f2ee"/><path d="M416.2 161c-4.3-3-9.2-.7-13.7-1.4-2.5-.4-5.5.7-6.6-2.8.4-2.1-.4-4.5 1.5-6.4 6.5 2.6 13.3.5 20 1.1-.1 3.2 1 6.6-1.2 9.6zm-121.7 6.5c-7.1.8-14.2.5-21.3.1a37.7 37.7 0 01.3-10.6c6.5 3.8 13.3 5.4 20.7 2.7l.6 5.2z" fill="#efae1b"/><path d="M296 179.7c-.5-1.4-1.6-2.5-1-4l-.5-8.2c-7 .9-14.2.5-21.2.1-.6 5.9.7 11.2 2.8 16.6a7 7 0 002.4 2.2 3.5 3.5 0 012.6 1 1 1 0 00.6.3 4.9 4.9 0 01.6 0l4.6.3 2.4-.1 3.8-1.6c5.8 0 5-3 2.8-6.6z" fill="#f5baa7"/><path d="M433 335c0 10.3-3.5 19.2-13 24.7a5.3 5.3 0 01-3.9.8 95.7 95.7 0 01-26 2.7c-34.3-.2-68.4 0-102.6-.1-9.3 0-17.4-3-22.3-11.7-1.3-1.2-2.6-2.3-2.5-4.3a1.2 1.2 0 01-.2-1c-2-3.2-2.2-6.8-2.2-10.3 0-38.7 0-77.3.2-116a24 24 0 0112.8-22.5l1.4-1.3c8-2.7 16.2-1.6 24.3-1.8 5.3-.1 10.7.3 15.7-2.1a3.4 3.4 0 002.4 2.2c7.7.4 15.4.6 23.2.9a1.5 1.5 0 000 .4v.2a3.7 3.7 0 00.2.5l.3.4.1.3a10.3 10.3 0 011.6 2.1 2.6 2.6 0 01.1.7l-29.4.1v-.2l-21-.6a12 12 0 01-6 0l-3.5.3-2.7.4-4.1 2-1.3.7c-1.8 3.7-6.7 5.3-6.8 10.2v130.9l.3 3.3 2 2.8c4.2 3.4 7.5 8 13.8 7.9q61-.2 121.8 0c2.2 0 4.4.2 6.4-1 6.2-2.7 11.6-6.2 13.4-13.3V214c-1.4-8.4-7.4-12-14.8-14.3l-26.3 1.4-3 .1c-1-1.8-2.5-1.5-4-1.1l-.4-.1c0-1.9.2-3.7.3-5.5l-.1-.4c1.1.2 2.4-.1 3.1 1.3l2.4.5c.4-1 .9-2.1 2.2-2.1 9.6.2 19.2-1.7 28.6.8 12.1 3.3 18.3 11 18.6 22.9 1 39.1.9 78.3.9 117.6zm-55.8-141z" fill="#5eb7b2"/><path d="M377.4 194.3l-.4 5.5h-28l1.4-5.1.2-.4h26.6z" fill="#53c0ba"/><path d="M349.2 205.5a6.2 6.2 0 01-6.8 0c-3.2-2 .7-3.7.4-5.7a2.6 2.6 0 00-.2-.6 10.3 10.3 0 00-1.5-2.2l-.2-.3-.2-.4a3.7 3.7 0 01-.2-.4v-.2a3.6 3.6 0 010-.4.1.1 0 000-.1v-.4c3.3-2 6.7-1.9 10.2-.5l-.2.4-1.5 5.2c-.3 1.8 3.7 3.6.2 5.6z" fill="#f6f2ee"/><path d="M337.2 136.4l2.7-2.5h10.8c.8 1.5 3.1 1.7 3 3.9-5.5-.2-11.3 2.2-16.5-1.4z" fill="#efae1b"/><path d="M371.6 82c.9 10.4-1.2 13-10.8 12.8-5.2-.1-11.3 2-14.1-5.4-.7-1.7-3.6-1-5.5-.5-3.2 7.2-12 8.9-23.9 4.3.3-3.8-2-7.4-1.1-11.8 6.2-1 12.4-.4 18.6-.4 2.2 0 3.6 1.1 5 2.8 2.7 3.4 5.6 3.7 8.3-.2a5 5 0 013.7-2.4c6.6-.2 13.4-1.6 19.8.8zM338 91.2c1.8-6-.3-8.2-5.6-7.8h-8.6c-2.8 0-3.7 2.3-4 4.4-.3 2.5 1.7 3.4 4 3.4H338zm13.9 1h14.5c3.4-6.7 2.9-7.5-4.3-7.6h-12.7z" fill="#2a282b"/><path d="M350.6 133.9H340l1.2-6.3c3.2 4.3 6.3 1.7 9.5 0-2 2-.3 4.2 0 6.3z" fill="#b8b6b9"/><path d="M268.1 347zm111.4-9.3v1.4-1.4z" fill="#3c3a3d"/><path d="M268.1 347zm-.1 0z" fill="#5eb7b2"/><path d="M379.9 243.4l-.4 94.3a2 2 0 00-2.9-1.5l-.8-2.5c.4-2.6.9-5.2-.3-7.8l-6-.5c0-6.2-.1-12.4 0-18.6 0-4.1-.9-8.4 3.4-11.5 1.6-1.1 1.4-3.7.2-5.6-1.3-2-3.1-2.2-5.1-1a3 3 0 01-3.7.2c-2.3-1.5-4.1-1-5.6 1.2s-1 4.7.9 6c3.5 2.1 3.2 5.4 3.2 8.7l-.2 20.6c-2 .7-4.4-.6-6 .8-2 3.4 2.5 9.3-4.5 10.2a365.3 365.3 0 001.2-38.7c-.2-16.5 0-33 .2-49.4 0-1.7.8-3.4 1.3-5l7.7-.4.3 26c0 1.9 0 3.5-2 4.6-2.8 1.7-3 4.2-2 7s3.5 2.2 5.7 2.3h4.6c4.5-.3 7.1-5 3.9-7.7-4.3-3.6-3.6-7.8-3.6-12-.1-6.3.1-12.6.2-18.8 3.2-2 6.7.6 10.3-1zm1.6-42.4l-4-1c1.5-.4 3-.7 4 1z" fill="#2a282b"/><path d="M341.1 127.6L340 134l-2.7 2.5c-1.5 1.2-3 2-4.5 0-4.4-4.8-8.5-10-8.6-17a1.2 1.2 0 01-.3-1c-1.6-2.8 1.7-6.6 4.3-7a5.1 5.1 0 011.2.2 6.3 6.3 0 015.1 2.4c-1.1 7.5.2 10.2 6.7 13.6z" fill="#f6f2ee"/><path d="M322.6 109a49 49 0 01-14-14.5 1.7 1.7 0 01.1-2c3.9-4.2 6.5-8.9 6-14.8a1.7 1.7 0 011-1.7c6.2-2.7 11-6.6 12.6-13.6.3-1.4 1.5-2 3-2.2a21.9 21.9 0 0015.7-9.9 1.7 1.7 0 012.7-.2c4.3 4.6 8.1 9.6 15 9.8a1.7 1.7 0 011.6 1.7c.4 6.7 4.4 10.4 9.5 12.7a1.7 1.7 0 011 1.1c3.6 13 6.1 25.6-8.7 33.5a1.8 1.8 0 01-.5.2c-3 .5-5.5 2-8 3.3a1.8 1.8 0 01-1.5 0c-1.7-.7-2.3.8-2 2.2 1 5.6-1.8 9.4-5.4 13a2.3 2.3 0 01-.3.3c-3 1.7-6 4-9 .2a1.8 1.8 0 00-.6-.4c-6-3.3-7.4-6-6.5-12.8a1.8 1.8 0 00-.5-1.5 6.3 6.3 0 00-4.5-1.7 5.8 5.8 0 00-1.2-.1c-1.6-1-3.7-1.3-5.5-2.6zm49.1-25.5a1.7 1.7 0 00-1.1-1.5c-6.2-2-12.5-.7-18.8-.5A4.9 4.9 0 00348 84c-2.6 3.8-5.5 3.5-8.2.1-1.3-1.7-2.8-2.8-5-2.8-5.7 0-11.5-.5-17.3.3A1.7 1.7 0 00316 83c-.2 3.3 1.2 6.3 1.3 9.3a1.7 1.7 0 001.1 1.5c11 3.9 19.1 2.4 22.4-4a1.8 1.8 0 011.2-.9c1.9-.5 4.2-.8 4.7.7 2.9 7.4 9 5.3 14.1 5.4 9.3.1 11.5-2.2 11-11.6z" fill="#f5baa7"/><path d="M337.9 91.4h-14.3c-2.2 0-4.2-.9-3.9-3.3.3-2.1 1-4.4 4-4.4s5.7.1 8.6 0c5.3-.4 7.3 1.8 5.6 7.7zm13.9 1.1l-2.5-7.6H362c7.2 0 7.7 1 4.3 7.6z" fill="#f5baa7"/><path d="M338.6 285c.4 9.5 1.9 19 1.6 28.5-.2 5-1.8 9.8-.5 15a6.2 6.2 0 01-3.7 7.1c-3.3-2.6.3-6.8-2.4-10H328l-.3-19.4c0-3.9-.4-7.6 3.5-10.7 2.5-2 1.3-7.3-1.3-6.8-5 .9-10.7-2.8-15.3 2.5 9.8 10.3 6.8 22.6 5.4 34.7-1.8 0-3.8-1-5.6 1l.4 5.5-.7 3.8-3.5.1c.3-15.4-.2-30.9 0-46.4.2-15.6 0-31.3 0-47l9.4-.3c2.2 6.5 1 13.2 1.1 19.8.2 4.6.9 9.4-3.8 12.7-1.7 1.2-1.5 3.6-.3 5.5s2.7 2.9 5 1.8c1.2-.7 2.5-1.2 3.8-.4 2.2 1.4 4.3 1.5 5.6-1s1.4-5.3-1.3-7.1a4.8 4.8 0 01-2.3-4.4c.1-9-.7-17.8.4-26.7l12 .7c-2.5 10.5-.8 21.1-.3 31.7.2 3.3-1.4 6.4-1.3 9.8z" fill="#2a282b"/><path d="M358.8 225.4a45 45 0 01-26.8 0c-3.5-2-7.3-3.4-9.4-7.2-1.8-3.3-1.7-6.3.8-9.2s5-2.4 8.2-.7c9.2 5 18.7 4.8 28 0 3-1.5 5.3-2.3 7.7.2 2.6 2.7 2.9 5.8 1.3 9.2-2 4.2-6.2 5.7-9.8 7.7z" fill="#fbfcfc"/><path d="M320 242.6c.2-2 .7-4.1-1.2-5.6-3.3-2.6-2.5-5.7-1.4-9l5.3-.3c2 2.8 3.3 1.3 4.4-.7h3.2c2.2 3.8 3.1 7.6-1 11-1.6 1.2-1.4 3-1.1 4.8-1 8.8-.3 17.7-.5 26.6a4.8 4.8 0 002.4 4.5c2.6 1.8 2.7 4.4 1.3 7s-3.4 2.5-5.7 1.1c-1.3-.8-2.5-.3-3.8.3-2.2 1.1-3.7.3-5-1.7s-1.3-4.3.3-5.5c4.7-3.4 4-8.2 4-12.7-.3-6.6 1-13.3-1.2-19.8zm42.5.3c.4-2.3-.2-4-2.1-5.7-3.3-3-3.4-6.4-.3-9.7l4 .2q2 3 4 0l5.3.4c0 3.3 1.1 6.7-2 9.3-2.2 1.8-1.8 4.4-1.7 6.8-.1 6.3-.3 12.5-.2 18.8 0 4.2-.7 8.4 3.6 12 3.2 2.8.6 7.5-3.9 7.7h-4.6c-2.2 0-4.7.5-5.7-2.2s-.8-5.4 2-7c1.9-1.1 2-2.8 2-4.6l-.4-26z" fill="#f7f6f7"/><path d="M377.4 200l-.4-.2h-28c-.3 2 3.7 3.7.2 5.7a6.2 6.2 0 01-6.8 0c-3.2-2 .7-3.7.4-5.7l-29.4.2c-1.2 8.8-2.6 17.7-2.7 26.6l-.1 16.4 9.4-.3c.2-2 .6-4.2-1.2-5.6-3.3-2.6-2.5-5.7-1.4-9l5.3-.3s3.3 1.2 4.4-.8h3.2c2.2 3.9 3.1 7.6-1 11-1.6 1.2-1.4 3-1.1 4.8l12 .7 2.3.2 9.5-.3a2.4 2.4 0 012.7-.2l7.8-.3c.4-2.3-.2-4-2.1-5.7-3.3-2.9-3.5-6.3-.3-9.6a20.6 20.6 0 014 0c.7.4 2.7 2.1 4 0l5.3.5c0 3.3 1.1 6.7-2 9.3-2.2 1.8-1.8 4.4-1.7 6.8 3.2-2 6.7.8 10.3-.8v-16.8q-1.4-13.3-2.6-26.7zm-8.9 17.7c-2 4.2-6 5.7-9.7 7.7a45 45 0 01-26.8 0c-3.5-2-7.3-3.4-9.4-7.2-1.8-3.3-1.7-6.3.8-9.2s5-2.4 8.2-.7c9.2 5 18.7 4.8 28 0 3-1.5 5.3-2.3 7.7.2 2.5 2.7 2.8 5.8 1.2 9.2z" fill="#b8b6b9"/><path d="M376.6 336.2a26.6 26.6 0 01-16.6 2.5c-2.2-2.8-3.1-5.5.7-8 2-1.3 2.1-3.2 2-5.3l.1-20.6c0-3.3.3-6.6-3.2-8.8-1.9-1.2-2.5-3.6-1-5.9s3.4-2.7 5.7-1.2a3 3 0 003.7-.1c2-1.3 3.8-1.1 5.1 1 1.2 1.8 1.4 4.4-.2 5.5-4.3 3-3.4 7.4-3.4 11.5-.1 6.2 0 12.4 0 18.6.5 4 3 6.4 6.3 8.3z" fill="#f7f6f7"/><path d="M376.6 336.2a26.6 26.6 0 01-16.6 2.5c-2.2-2.8-3.1-5.5.7-8 2-1.3 2.1-3.2 2-5.3-2.1.7-4.5-.6-6 .8-2.2 3.4 2.4 9.3-4.6 10.2.2 6.2-.8 12.5 1 18.2h26.4v-17a2 2 0 00-2.9-1.4zm-10 13.6c-2.7-.2-6.2.4-6.2-3.4s3.4-4.4 6.3-4.5 6.4.8 6.4 4.4c0 4.2-3.9 3.2-6.5 3.4zm9.2-16.1c-3.2-2-5.8-4.3-6.3-8.3l6 .5c1.2 2.6.7 5.2.3 7.8z" fill="#d8d7d9"/><path d="M328 325.6a5.3 5.3 0 002.7 5.6 3.4 3.4 0 011.6 4.5c-.9 2-2.2 3.4-4.5 3.3-4.7 0-9.7.8-13.7-2.8l.7-3.8c3.6-.7 5.3-2.9 5.2-6.5 1.4-12 4.4-24.4-5.4-34.7 4.6-5.3 10.4-1.6 15.3-2.5 2.6-.5 3.8 4.8 1.3 6.8-4 3-3.5 6.8-3.5 10.7 0 6.5.2 13 .3 19.4z" fill="#f6f2ee"/><path d="M336 335.6c-3.3-2.6.3-6.8-2.4-10H328a5.3 5.3 0 002.7 5.6 3.4 3.4 0 011.6 4.5c-.9 2-2.2 3.4-4.5 3.3-4.7 0-9.7.8-13.7-2.8l-3.5.1v16.9c8 3.6 16.2 1.3 24.2 1.7.8 0 2.4-1.3 2.4-2 0-5.8 2-11.7-1.2-17.3zM319 349c-2.2-1.7-2.2-3.8 0-5.4 4-2.8 7.8-2.4 11.5 1.6-2.2 4-8.4 6-11.4 3.8zm1-23.1c.2 3.6-1.6 5.8-5.2 6.5l-.4-5.5c1.9-2 3.8-1 5.7-1z" fill="#d8d7d9"/><path d="M366.6 349.8c-2.7-.2-6.2.4-6.2-3.4s3.4-4.4 6.3-4.5 6.4.8 6.4 4.4c0 4.2-3.9 3.2-6.5 3.4zm-36.1-4.6c-2.2 4-8.4 6-11.4 3.8-2.3-1.6-2.3-3.8 0-5.4 3.9-2.8 7.7-2.3 11.4 1.6z" fill="#fbfcfc"/><circle cx="329.1" cy="87.5" r="2" fill="#f6f2ee" stroke="#000" stroke-miterlimit="10" stroke-width=".2"/><circle cx="329.1" cy="87.5" r=".7" fill="#2a282b"/><circle cx="358.8" cy="88.2" r="2" fill="#f6f2ee" stroke="#000" stroke-miterlimit="10" stroke-width=".2"/><circle cx="358.8" cy="88.2" r=".7" fill="#2a282b"/><path d="M410.8 199.6l-26.3 1.3-3 .2-4-1.2 1.4 26.7 1 16.8-.4 94.3v17H353c-1.7-5.8-.7-12-1-18.2a365.3 365.3 0 001.3-38.8c-.2-16.4 0-32.9.1-49.4 0-1.7.9-3.3 1.4-5a2.4 2.4 0 00-2.8.2l-9.5.2-2.3-.2c-2.6 10.6-.8 21.2-.3 31.7.2 3.4-1.4 6.4-1.3 9.9.4 9.5 2 18.9 1.6 28.5-.2 5-1.8 9.8-.5 15a6.2 6.2 0 01-3.7 7c3.3 5.6 1.2 11.6 1.2 17.4 0 .7-1.6 2-2.4 2-8-.5-16.1 1.8-24.1-1.8v-17c.3-15.4-.3-30.8 0-46.3.2-15.6 0-31.3 0-47v-16.3c.2-9 1.6-17.8 2.7-26.7v-.2l-21-.6a12 12 0 01-6 0l-3.5.3-2.6.4-4.2 2-1.3.6c-1.8 3.8-6.7 5.4-6.8 10.3v130.9l.3 3.3 2 2.8c4.3 3.4 7.5 8 13.8 7.9q61-.2 121.8 0c2.2 0 4.4.2 6.4-1 6.2-2.7 11.6-6.2 13.5-13.3V214c-1.6-8.5-7.7-12-15-14.3z" fill="#3c3a3d"/></svg>