<svg xmlns="http://www.w3.org/2000/svg" viewBox="0 0 700 700"><path fill="#8e9aa7" d="M0 0h700v700H0z"/><path d="M141.28 534.2h-.11v-.05a.31.31 0 01.11.05zm192.06-404.27v.95l-.21.14c-20.54-.67-41.07-1.2-61.58-2.26a9 9 0 01-6.27-6c2.18 1.76 4.3 4.76 6.56 4.89 20.46 1.06 40.97 1.59 61.5 2.28z" fill="#53c0ba"/><path d="M579.39 502.38c0 27.46-9.35 51-34.69 65.53-3.16 1.81-6.38 3-10.07 2.29-22.77 6.27-45.93 7.22-69.44 7.12-90.78-.46-181.58 0-272.35-.35-24.65-.08-46.28-7.81-59.27-31.13-3.53-3-6.91-6.11-6.56-11.37a3.09 3.09 0 01-.58-2.82c-5.53-8.29-5.82-17.77-5.82-27.2.08-102.7 0-205.41.5-308.13.14-25.69 10.31-46.81 33.93-59.7 1.25-1.14 2.47-2.28 3.72-3.45 21.14-7.28 43-4.38 64.68-4.86 14.08-.35 28.4.93 41.66-5.63 0 0 .08.08.13.1a9 9 0 006.27 6c20.51 1.06 41 1.59 61.58 2.26l.21-.14a.32.32 0 010 .16 3.92 3.92 0 00.1 1c0 .11.06.24.08.35s.06.21.08.31a10.12 10.12 0 00.48 1.23c.19.34.37.69.59 1a.35.35 0 00.07.11c.16.24.32.48.51.72 1.38 1.91 3.19 3.64 4 5.81a7.2 7.2 0 01.45 1.7q-39.09.21-78.15.38l-.06-.48q-28-.89-55.89-1.7a31.81 31.81 0 01-16-.16c-3.14.34-6.25.72-9.38 1.06l-7 1.09-11 5.34c-1.15.56-2.26 1.09-3.4 1.62-4.79 9.94-17.86 14.29-18.2 27.2v347.71c.24 2.95.5 5.9.74 8.88a.31.31 0 00-.11-.05v.08h.08c1.86 2.47 3.72 4.94 5.6 7.38 11.11 8.88 19.82 21 36.59 20.91q161.73-.48 323.43-.11c5.87 0 11.69.53 17-2.52 16.44-7.2 30.87-16.44 35.73-35.39q0-171.9.08-343.78c-3.8-22.39-19.79-32-39.43-37.88q-34.93 1.71-69.86 3.48l-7.81.4c-2.61-4.7-6.75-3.91-10.92-3.06l-1.06-.26c.29-4.86.61-9.73.93-14.59l-.38-.85a.41.41 0 010-.16c3 .48 6.59-.32 8.34 3.4l6.4 1.44c1.12-2.82 2.37-5.71 5.93-5.63 25.29.5 50.81-4.52 75.79 2.15 32.3 8.63 48.77 29.09 49.54 60.78 2.5 104.08 2.11 208.24 2.21 312.41z" fill="#5eb7b2"/><path d="M431.18 128l-.08-.16h.06a.41.41 0 00.02.16z" fill="#5eb7b2"/><path d="M431.56 128.81c-.32 4.86-.64 9.73-.93 14.59h-74.6c1.33-4.57 2.66-9.11 4-13.68l.31-1.06q35.48.08 70.91.18z" fill="#53c0ba"/><path d="M356.77 158.51c-5.95 3.46-12.3 3.64-18.14-.13-8.45-5.45 1.81-10 1.06-15.12a7.2 7.2 0 00-.45-1.7c-.82-2.17-2.63-3.9-4-5.81-.19-.24-.35-.48-.51-.72a.35.35 0 01-.07-.11c-.22-.34-.4-.69-.59-1a10.12 10.12 0 01-.48-1.23c0-.1-.05-.21-.08-.31s-.05-.24-.08-.35a8.6 8.6 0 01-.1-1 .32.32 0 000-.16v-.95c8.74-5.45 17.8-5.05 27-1.3l-.31 1.06c-1.33 4.57-2.66 9.11-4 13.68-.6 5.11 9.92 9.81.75 15.15z" fill="#f6f2ee"/><path d="M141.3 534.23h-.08l-.05-.05a.31.31 0 01.11.05h.02zm295.83-24.68l-.02 3.74v-3.74h.02z" fill="#3c3a3d"/><path d="M141.3 534.23h-.13v-.08a.31.31 0 01.11.05l.02.03z" fill="#5eb7b2"/><path d="M141.22 534.2h-.05v-.08z" fill="#5eb7b2"/><path d="M438.25 259.09l-1.12 250.46c-1.22-3.8-3.77-4.94-7.49-3.8-.75-2.21-1.52-4.44-2.26-6.67 1.14-6.91 2.36-13.81-.83-20.8-5.41-.4-10.65-.77-15.88-1.17 0-16.52-.32-33.07 0-49.6.18-10.83-2.21-22.26 9.14-30.41 4.19-3 3.66-9.86.58-14.8-3.45-5.47-8.45-6-13.71-2.66-3.32 2.13-6.48 2.69-9.8.45-6.11-4.06-10.92-2.89-14.93 3.17s-2.55 12.53 2.39 15.67c9.38 5.95 8.64 14.5 8.61 23.24-.08 18.31-.35 36.61-.51 54.92-5.44 1.67-11.68-1.68-16 2-5.5 9.14 6.56 24.81-12 27.2 3.32-34.22 3.51-68.51 3.19-102.89-.4-43.72 0-87.45.42-131.18 0-4.51 2.29-9 3.51-13.49l20.54-.88q.36 34.64.74 69.26c.05 4.83-.16 9.19-5.23 12.16-7.31 4.28-8.16 11.13-5.29 18.52s9.38 5.79 15.14 5.87c4.12.05 8.26.13 12.38-.11 11.85-.69 18.78-13 10.15-20.32-11.26-9.59-9.35-20.77-9.51-32.14-.24-16.61.29-33.18.5-49.79 8.41-5.21 17.71 1.96 27.27-2.21zm4.36-112.37l-10.92-3.06c4.17-.85 8.31-1.66 10.92 3.06zM328.64 369.73c.93 25.27 5 50.27 4.17 75.72-.45 13.2-4.83 26.16-1.22 40a16.55 16.55 0 01-9.88 18.78c-8.77-7.07.85-18.17-6.35-26.62h-14.88c-.26-17.16-.61-34.32-.72-51.51 0-10.36-1.27-20.32 9.14-28.51 6.72-5.26 3.46-19.41-3.37-18.17-13.1 2.42-28.45-7.35-40.67 6.86 25.93 27.25 18 60 14.45 92-4.89-.05-10.1-2.47-15.06 2.61.37 4.51.77 9.56 1.17 14.61-.64 3.37-1.28 6.77-1.94 10.15l-9.14.32c.8-41.05-.67-82.12-.06-123.16.59-41.6 0-83.2-.07-124.81l25-.87c5.81 17.26 2.47 35.09 3 52.62.35 12.09 2.15 24.82-10.31 33.71-4.38 3.14-3.9 9.49-.77 14.67 3.22 5.34 7.36 7.49 13.29 4.57 3.26-1.62 6.61-2.95 10.07-.85 5.92 3.58 11.44 3.82 15-2.84 3.72-6.94 3.51-14-3.53-18.84-4.44-3-6.24-6.53-6.17-11.71.43-23.62-1.7-47.26 1.09-70.83 10.68.59 21.39 1.2 32.07 1.78-6.94 28-2.29 56.16-.9 84.29.42 8.79-3.75 16.95-3.41 26.03z" fill="#2a282b"/><path d="M382.25 211.34c-23.78 7.06-47.55 7.32-71.3-.14-9.23-5.08-19.34-9-24.85-19-4.77-8.66-4.6-16.72 2.08-24.48 6.82-7.92 13.53-6.26 21.82-1.72 24.56 13.3 49.8 12.66 74.29 0 7.73-4 14.12-6.25 20.52.48 6.79 7.14 7.58 15.53 3.27 24.5-5.33 11.02-16.16 14.93-25.83 20.36z" fill="#fbfcfc"/><path d="M279.17 257.11c.58-5.31 1.74-11.09-3.11-14.85-8.94-6.92-6.69-15.24-3.9-23.85l14.19-.81c5.32 7.24 8.65 3.25 11.75-2.09l8.34.1c5.85 10.33 8.39 20.23-2.66 29.15-4 3.27-3.56 8.18-2.92 12.84-2.81 23.57-.68 47.22-1.09 70.83-.1 5.17 1.72 8.67 6.16 11.71 7 4.8 7.25 11.9 3.52 18.84-3.59 6.66-9.1 6.43-15 2.84-3.46-2.09-6.8-.77-10.06.84-5.92 2.92-10.07.78-13.29-4.56-3.12-5.18-3.62-11.54.78-14.68 12.46-8.89 10.65-21.6 10.31-33.69-.53-17.55 2.81-35.37-3.02-52.62zm112.83.74c1.21-6.22-.57-10.66-5.6-15.18-8.59-7.74-9.1-16.87-.62-25.63l10.52.35c3.51 5.47 7 5.43 10.42-.06l14.11 1.17c.09 8.64 3.1 17.82-5.42 24.69-5.91 4.76-4.77 11.63-4.52 18.11-.21 16.59-.75 33.19-.51 49.77.16 11.38-1.76 22.56 9.51 32.15 8.64 7.35 1.71 19.64-10.15 20.32-4.11.23-8.25.17-12.37.12-5.77-.08-12.32 1.43-15.15-5.88s-2-14.25 5.28-18.52c5.08-3 5.28-7.33 5.23-12.16q-.33-34.62-.73-69.25z" fill="#f7f6f7"/><path d="M431.69 143.66l-1.06-.26h-74.6c-.61 5.1 9.91 9.8.74 15.14-5.95 3.46-12.3 3.64-18.14-.13-8.45-5.45 1.81-10 1.06-15.12q-39.09.21-78.15.38c-3 23.53-6.75 47-7 70.82L254.2 258l25-.87c.55-5.29 1.72-11.08-3.11-14.83-8.95-6.93-6.7-15.24-3.91-23.85 4.73-.29 14.19-.83 14.19-.83s8.65 3.27 11.74-2.07l8.34.08c5.85 10.34 8.4 20.24-2.65 29.17-4 3.27-3.56 8.18-2.93 12.83 10.68.59 21.39 1.2 32.07 1.78 2 .16 4 .29 6 .43l25.29-.59c2.31-1.83 4.78-1.7 7.3-.5l20.54-.88c1.22-6.22-.56-10.65-5.61-15.17-8.58-7.73-9.08-16.87-.61-25.63 3.51.1 8.68-.37 10.52.34s7 5.44 10.42 0c4.71.4 9.41.77 14.14 1.17.08 8.63 3.08 17.82-5.45 24.7-5.9 4.76-4.75 11.61-4.52 18.09 8.48-5.2 17.78 2 27.34-2.2v-44.63q-3.3-35.43-6.61-70.88zM408.07 191c-5.31 11.08-16.15 15-25.82 20.4-23.78 7-47.55 7.31-71.3-.16-9.22-5.07-19.34-8.95-24.84-19-4.78-8.66-4.6-16.73 2.07-24.49 6.82-7.96 13.52-6.29 21.82-1.75 24.55 13.31 49.79 12.67 74.28 0 7.73-4 14.13-6.25 20.53.48 6.77 7.12 7.57 15.52 3.26 24.52z" fill="#b8b6b9"/><path d="M429.62 505.76a71 71 0 01-44.13 6.68c-5.84-7.45-8.31-14.85 1.74-21.48 5.2-3.43 5.7-8.4 5.19-13.86.17-18.31.42-36.61.5-54.92 0-8.73.79-17.29-8.61-23.25-4.92-3.13-6.42-9.61-2.39-15.68s8.84-7.22 14.94-3.15c3.33 2.23 6.49 1.66 9.81-.47 5.26-3.37 10.24-2.81 13.69 2.67 3.1 4.93 3.62 11.79-.57 14.8-11.35 8.16-9 19.59-9.15 30.41-.31 16.53 0 33.07 0 49.61 1.49 10.44 8.24 16.85 16.69 22q1.16 3.3 2.29 6.64z" fill="#f7f6f7"/><path d="M429.62 505.75a70.85 70.85 0 01-44.13 6.69c-5.84-7.46-8.31-14.85 1.75-21.49 5.18-3.42 5.69-8.39 5.18-13.86-5.44 1.67-11.68-1.68-16 2-5.5 9.14 6.56 24.81-12 27.2.48 16.44-2 33.1 2.45 48.32h70.29v-45.06c-1.27-3.8-3.82-4.94-7.54-3.8zm-26.57 35.94c-7.28-.32-16.47 1.12-16.63-8.79-.13-9.72 9.22-11.82 16.71-12s17 2.07 17.06 11.5c.1 11.31-10.19 8.6-17.14 9.29zm24.3-42.6c-8.45-5.12-15.2-11.53-16.69-22l15.87 1.15c3.19 7.04 1.98 13.95.82 20.85z" fill="#d8d7d9"/><path d="M300.48 477.58c-.62 6.4 1.43 11.14 7.22 14.73 4.09 2.53 6.38 6.7 4.13 12.1s-5.67 8.88-11.78 8.78c-12.65-.21-25.83 2.06-36.56-7.56l1.92-10.16c9.52-1.77 14.2-7.47 13.9-17.21 3.51-32.06 11.49-64.75-14.46-92 12.24-14.22 27.59-4.44 40.69-6.86 6.81-1.26 10.08 12.91 3.37 18.17-10.43 8.19-9.18 18.14-9.13 28.51.08 17.18.45 34.34.7 51.5z" fill="#f6f2ee"/><path d="M321.71 504.21c-8.77-7.07.85-18.17-6.35-26.62h-14.88c-.61 6.4 1.44 11.13 7.23 14.72 4.09 2.52 6.37 6.69 4.12 12.11s-5.66 8.87-11.77 8.77c-12.65-.22-25.85 2-36.58-7.57l-9.14.32v44.92c21.25 9.51 43 3.42 64.18 4.46 2.13.11 6.35-3.35 6.35-5.15 0-15.38 5.45-31.17-3.16-45.96zm-45 35.57c-6-4.44-6.08-10 0-14.37 10.55-7.47 20.53-6.22 30.31 4.19-5.77 10.84-22.24 16.16-30.34 10.18zm2.6-61.52c.3 9.74-4.38 15.44-13.9 17.21-.4-5.05-.8-10.1-1.16-14.62 4.98-5.08 10.18-2.64 15.06-2.59z" fill="#d8d7d9"/><path d="M403.06 541.7c-7.28-.33-16.48 1.12-16.63-8.81-.15-9.72 9.21-11.82 16.69-12s17 2.06 17.08 11.49c.08 11.33-10.2 8.62-17.14 9.32zM307 529.6c-5.75 10.84-22.21 16.15-30.3 10.18-6-4.43-6.11-10 0-14.36 10.52-7.48 20.51-6.23 30.3 4.18z" fill="#fbfcfc"/><path d="M520.28 142.84q-34.93 1.71-69.86 3.48l-7.81.4-10.92-3.06 4 70.93 2.52 44.5-1.12 250.46v45.05h-70.27c-4.44-15.22-2-31.88-2.45-48.32 3.32-34.22 3.51-68.51 3.19-102.89-.4-43.72 0-87.45.42-131.18 0-4.51 2.29-9 3.51-13.49-2.52-1.2-5-1.33-7.3.5l-25.29.59c-2-.14-4-.27-6-.43-6.94 28-2.29 56.16-.9 84.29.45 8.82-3.72 17-3.38 26.06.93 25.27 5 50.27 4.17 75.72-.45 13.2-4.83 26.16-1.22 40a16.55 16.55 0 01-9.88 18.78c8.61 14.77 3.16 30.58 3.16 46 0 1.8-4.22 5.26-6.35 5.15-21.15-1-42.93 5-64.18-4.46v-44.98c.8-41.05-.67-82.12-.06-123.16.59-41.6 0-83.2-.07-124.81q.15-21.75.34-43.51c.24-23.8 4-47.29 7-70.82l-.06-.48q-28-.89-55.89-1.7a31.81 31.81 0 01-16-.16c-3.14.34-6.25.72-9.38 1.06l-7 1.09-11 5.34c-1.15.56-2.26 1.09-3.4 1.62-4.79 9.94-17.86 14.29-18.2 27.2v347.74c.24 2.95.5 5.9.74 8.88h-.05c1.86 2.47 3.72 4.94 5.6 7.38 11.11 8.88 19.82 21 36.59 20.91q161.73-.48 323.43-.11c5.87 0 11.69.53 17-2.52 16.44-7.2 30.87-16.44 35.73-35.39q0-171.9.08-343.78c-3.81-22.39-19.8-32.04-39.44-37.88z" fill="#3c3a3d"/></svg>