<svg xmlns="http://www.w3.org/2000/svg" viewBox="0 0 700 390"><path fill="#f7f7f7" d="M5 5h690v380H5z"/><path d="M690 10v370H10V10h680m10-10H0v390h700V0z" fill="#e8e8e8"/><path d="M515.2 178.8c2-6.8-.5-17.7-1.3-23.2-1-6-.2-8.7-4.7-13-2.9-2.6-14.1-7.6-8.7-20.5 5.3-12.7 17.8-15 17.3-22.4-1.8-26.7-30-27-42.2-32.5-10.5-4.8-47-10.9-58.6-9.7-39.7 4-58.7 31.4-54.7 39.9 8 17.2 18.3-1 25.2 24 1 4 2.2 9.7.5 13.4a51.2 51.2 0 01-10.6 16.4c-16.1 15.8-21 84.4-13 101.3 2.6 5.5 6 15.6 8.1 17 8.5 5.4 19.6 1.8 22.5-1.3.3-.4.6 0 .9.2 3.4 3 4.8 2.7 5.9 4.2 1.6 2.5 7.7 2.4 10.5 1.9 10.3-2.1 8.6-4.5 10.5-2.6 7 6.5 13.5 5 20.8 1.5 4.4-2 10 8.5 22.5-1.1 4.2-3.2 2.7.3 10 .8 5 .4 11.5 0 14.1-4.3 1.9-3 2.4 1.7 5.8 2.3 11.5 2 16.9-10.7 16.2-20-.8-10-.2-23.4 2.7-32.9 4-12.6-4.8-21.6.3-39.4zM369 260.5c-.4-1.2 2.4.3 3 6-.2-.3-1.1-.4-3-6zm1.9-4.2c-.3-.9 1.2-2.8.2-3-1.9-.4-1.9 3.1-1.9-.4.5-4.3.6-1.4-.2-4.5-1.2-4.4-.5-4.7-.3-3.7 2 8.2 17 9 20.6 4.7.6-.6.8-.4.7.3-.5 3.7 1.1 3.2 1.3 3.3.4.2 3.4 22.9-17.4 10.9-1.3-.8-1.7-2.9-3-7.6zm23.1-121c0-1 5.5.2 5.4.9-.1 1-3.3-.2-1.7 1.5 1 1-2.7 1.2-4 0-1.9-2.1 2-.8 2.3-1.2.1-.2-2-.4-2-1.2zm.6-1.6c0-.2 8.3.8 5.2 1.4-4.3-1.1-5.4-.7-5.2-1.4zm3.4 6.2c0 .8-3.5-.6-4-.4-.6.3-.5-1 0-.6s4 .4 4 1zm-4 1c3.7-.3 3.9 2.5-.3 1-.3-.1-.7-.5-.6-.8s.6-.1 1-.2zm3.7 3c-.2.4-2.9 0-3.7-.4-1.7-.9-2.2.6-2.4-.4-.2-.8 6.4-.3 6 .9zm-5.6 1c11.5 1.7-1 2.5-1 .4-.1-.5.6-.2 1-.3zm-.6 3.4c-.5 0-1.1-.4-1-1 .4-1.4 13.7 1.7 1 1zm.4.5c2.1 0 4.2 1.5 2.4 1.3-6.2-.4-5-1-2.4-1.2zm1.5 4.2c-2.8.4-6.2-2.2-4-1.8 3.9.9 7.9 2 4 2zm-2.2 2c-2.5-.5-2.1 0-3.1-.7-1.3-.7-1.4-1.5.3-1.5 3.4.5 10 4 2.8 2.4zm-4 .2c10.4 1 6.9 3.5-.2 1-.3-.1-1-.1-.8-.7s.7-.1 1-.2zm4.7 3.5c-1-.4-1.5-.6-.9-.8 1.7.8 1 1 1 1zm-1 1.4c-.4 2.1-11-2.7-5.5-2.2 1.8.1 5.8 1.3 5.6 2.3zm-6.3.1c.2 0 4.8.5 4.5 1.8-.3 1.6-8.7-2.1-4.4-1.7zm-1.8 2.2c-.6-.3-.2-.9.2-.8 7.2 2.2.9 1.4-.2.9zm3.3 3c-1.2.1-3.9-1.3-3.7-1.5.6-1.3 8 1 3.7 1.7zm-2 .6c2.8 0-.8 1.6 1.1 1.8s2-1.5 2.5-.6c1 1.3-1.2 2.3-2.4 2.5-6 1.2-4.7-3-1.3-3.5zm1.2 9.6c.5.1 1.2-.1 1.2.7 0 1.4-2.7 1.4-2 .9s-.6-1.6.8-1.5zm.5-3.7c1.7.8-1.2 3-2.8 2.5-5.7.5-2.7-4.8 2.8-2.3zm-5.6 4.3c3.6-.8 2.6-.3 3 1 .2.5-.3.4-1.5.4-1.7.7-3-1-1.5-1.3zm.7 3c2.4-.3 5.2-1.2 6 1.5.4 1.4-1.3 1.8-2.9 1.8-4.5.4-5.6-2.8-3-3.2zm2.7 8.8c-3.9.4-6.4-2.7-3.4-3.6 6.8-1.8 8.4 3.7 3.4 3.7zm-2.7 4.7c-2-.4 1-1.1-.4-1.8a1.3 1.3 0 00-1.6.1c-.2.2 0 .8-.5.5-1-.6.4-2 1.7-2.1 8.4-1 9 5.6.8 3.5zm2.9 2.2c2.9 1.3 3.8 4.5 1 5-1.7.2-2.9-.8-4.5-.4-2.6.7-5-1.6-4.9-3 .1-2.7 6.2-2.4 8.4-1.5zm-3.4 5.8c2.8.2 1.9 1.5 3.9 3.2 5.3 4.6-8.4 6.4-7.6.8 0-2.5 1.4-4 3.8-3.9zm4.5 10.5c1.6 1.1 1.9 3.8-4 4.6-12.7-3.2-2-8.8 4-4.5zm-1.5 7c4.3 3.7-2.6 4.9-5 4.8-3 .9-7.2-3-4.9-4.8s8.8-.8 9.9 0zm-4.5 6.3c2.7.5 4.2.8 5.6 3 1.5 2.4-4.6 2.8-5.4 3-8.9-.7-7.4-7-.2-5.9zm.2 6.5c7.1.2 10.4 8.2 0 7.8-11.1-.4-8.5-7.9 0-7.7zm5.5 9.5c3.6.9 2.1 1.1 3.5 3 4.9 6.6-6.2 9-13.7 6-5.6-2.1-4.4-5.5-5.3-6.7-3.4-4.6 12.3-3 15.5-2.2zm5.4 3.6c.2.5.2.4 0 .5v-.4zm4.4 22.6c-5 6.6-22.5 4-18.6 2.3 1.2-.6-1.5-3.8 0-3 12.2 6.3 14.4-2 14 1.4 0 .7.6 1.5 1.9.6 2.4-1.6 1.2-4 2.2-4.4.7-.4.8-.6.8.3 0 2.2 1.2 1 1.3 2 0 .7-1 0-1.6.9zm-2.2-6.7c.9 1.3 0 4.4-.6 2.8.5-2.7.4-2.4.6-2.7zm0-8.7c0 .1.3.5-.2.7s0-.4.2-.7zm51.2 20.7c-3.4 3-15.5 4.2-19.5-1.4-2.8-3.8-3.3 1.5-7.7 1.9-3.6.3-7.2 1.8-10.7.1-2-.8-10-4.7-8.3-6 1.3-1.2 2.3 2.4 2.7.2 0-1-.1-1.7 1-.3 3.7 4.7 11.7 3 13.5 1.7 3.2-2 2.4-2.6 3.1-4.4.2-.5 1.4-.7 1.3.4a2.4 2.4 0 01-1 2c-.8.4-1 3.2-.3 3.8 1 1.2 3.6-1 3.7-3 .2-4.7.6-1.7 2.6 1.7.6 1.1 1.6.4 1.2-.6-1.7-4.3 2.7 3.7 9.4 3.6 1.9 0 2.7 1.2 4.8-.1 2.4-1.5 2.7-2.3 3.3-1.6 1.1 1.2 2.5.8 1 2.1zm-42.2-14.8c1.3-3.4 4.3-1.2 10.4-2.7 9-2.2 5.4 5.1 4.6 9.9-.9 6-20.4 7.2-15-7.1zm25.8 1c7.4-4.6 16-.2 16.5 4.8-1.8 17.3-26.7 1.9-16.4-4.7zm17.6.7c-.6.1-1 .6-1.7-.1-5-5-17-3.7-18.6 0-1.2 2.6-1-2.7-1-2.8-.7-6.2-2 9.2-2.2 0l.1-7.3c2.1 13.1 20.7-.2 21.4 6.8.2 2.3 3 1.6 2.6 2.6-.1.3 0 .8-.5.9zM430 214.1c.4.2 7.8-1 8 1.5.1 1.6-7.1 2.2-6.7.9s-2.1-2-2.6-.7c-1 2.3-4.1-2.2 1.3-1.7zm1.7-6.6c9.8 1 5 6 .2 5.3-6 1-7-6-.1-5.3zm1.1 10.8c6.3-.3 9.4 7.7.2 7-3.8-.2-8.6 0-8.4-3.7.2-2.9 5.4-3.3 8.2-3.3zm-3 8.3c3 .4 5.1-1 8.4 2.7 3.4 3.8-14 4.5-14.5-1.2-.2-2.2 4-1.8 6.1-1.5zm9.2 13c-.2 4-16.3 1-16-2.7.6-8.3 17.4-1.4 16 2.8zm.2 13.1c-10.4 1.2-13.2 2.7-14.2-.9-.4-1.5-2.6-4.2-.7-5.7 12-9.9 23.3 5.7 15 6.6zm3.6-.6c.2-2.6 3.4.4 1 .6-.3-.1-1.1.2-1-.6zm2.4 18.7c-.5-.2 0-.5 0-.7.6-1.1 0-6.7 1.8 1.3-.1 1-1.6-.5-1.8-.6zm5.5-66c-1.8-1.3-2.5.3-2.8-.3-.5-1 6-3.6 10.7.2 3.8 3-10.2 4.3-9.8 2.2 0-.2 3.5-1 2-2.1zm.8-23.8c.2 0 5.6-.5 5.8 1s-3 2.3-4.6 2.2c-7.5-.6-5-3.3-1.2-3.3zm3.8-4.3c2.3 0 2 2.2.2 2.7-6.6 2-13-3.4-.2-2.8zm.9 11c-.2.2-1.5.9-1.8.7s.6-1-.1-1.1c-1.5-.3-3 .3-2.5 1 .3.5.7.2 1.6.4l-.2.2c-.8-.2-1.3.8-1.8.6-12-2.3 10.3-6.4 4.8-1.8zm-.5 3c2.2 1.5-1.3 4.1-6.2 1.9-2.5-1.2 4-3.6 6.2-2zm-1 3.7c7.6-.3-.1 3.3 0 1.8.1-1-.5-.8-1-1-2.6-.8-.1 1.2-1.2 1.4-4.8.8-2.7-3 2.2-2.3zm1 3.7c1 .4 2 .4 2.1 1.6.3 2.3-3.5 1.9-4.3 2-9.1-.5-2.2-5.3 2.3-3.6zm-1.3 10.6c6.8-1 11 4.6 0 5.6-10.6 1-7.5-5.8 0-5.6zm-2.4 6.7c13.3.8 3.1 7.6-4.8 4-1.8-.8-.2-3.7 4.9-4zm-1 6c2.5 0 5.4-.6 5.3 2 0 4-5.6 4.1-9.3 3.8-2.4-.3-.8-5.8 4-5.8zm-3.4 7.7c14.8-3.8 14.9 5.5 1.2 5.4-2 0-4.6 0-4.2-2 .4-1.6 1-3 3-3.4zm8.1 6.6c2.7 1 5.5 5 2.7 5.8-21.8 7-13.6-9.6-2.6-5.8zm5 6.4c.1.2 1.6 2.4.8 2.3-6.3-1.1-3.6-.2-6.4-.3-.7 0-.5-.1 0-.2 5.8-1.3 5.1-2.5 5.6-1.8zm2.8 5.6c2.4 4.4 2.6 6.3-2.5 6-10.8.7-11.5 6-14-5.3-.4-1.6 4.4-2.5 6.9-3 4-1 7.7-1.3 9.6 2.3zm11-114.7c.2 1.3-7.5 2-7.5.8 0-1.6 7.4-1.9 7.6-.9zm-1.4-2.7c0 .9-2.7.8-3.4 1-3.7-.5 3.5-2 3.4-1zm.3 5.4c0 2-9.3.9-1.7-.5.3 0 1.8.2 1.8.5zm-1.4 6.8c4.6.3 2.2 1.4 1.2 1.5-3.5.5-8.6-.8-1.2-1.5zm-1.3 2.3c1.7-.1 5.8.8 3.9 1.4-5.6 1.6-9.3-.9-3.9-1.4zm2 2.8c3.9 0 3 1.4 1.8 1.7-.4 0-4.7.4-5.7.1-4.1-1.2 2.9-2.1 4-1.8zm-3.2 5.1c-1.2-1.3.8-1.1 3.4-1.3 5.1 0-1.6 3.2-3.4 1.3zm2.8 2.5c-1.2 0-3.3-.6-1.6-1 5-1.2 5 .7 1.6 1zm-2 .4c2.2.6 3.5.3 4.1.6 2.4 1-1.7.7-1.7.8-6.1 0-3.3-1.7-2.4-1.4zm4.7 2.7c1.2.8-1.1.6-2.7.6-7.1-.4 0-2.2 2.7-.6zm-3.3 1.3c7.3.3 2.7 2 .6 1.5-3.4.3-5.4-1.8-.6-1.5zm-.3 3.4c-.7 0-3-.9-1.2-1 .5-.1 9.2-.6 1.2 1zm-1.4 1a35.2 35.2 0 003.6-.7c.6-.2 4.3 0 2.9 1.4-.8.7-1.2.3-6.2.7-1.6.1-1.8-1-.3-1.3zm.5 3.3c-.4 0-3.8-1.1 3.3-1.3 4.4 0 4.8 1.8-3.3 1.3zm3.2.5c3.5 0 3.4.7 3 .8-7.7 1.7-10.4-1-3-.8zm1.8 2.7c-3.7-.4-5.5 1.1-5.6 0 0-.5 1.7-.4 2.6-.4 1.6.2 3.5-1 4-.1.3.4-.2.6-1 .6zm-5.3 1.4c12-1 3.8 1.6 2.5 1.3-.8.3-1.6-.1-2.4-.2-.6 0-.8-1 0-1.1zm5.4 2.5a.7.7 0 00.8 0c2-1.6 3.4 3.4-3.9 3.2-5 0-2-5.4 3.1-3.2zm.4 4.6c2.6.1 2.5 1.2 1.8 1.6-4.1 2.8-12.4-1.5-1.8-1.6zm-3.4 4.8a1.2 1.2 0 002 .8c1.1-.9-1.2-1.2.4-1.7 1-.3 3.2-.2 3.4.8.4 1.9-6.3 1.8-7.2 1.1-2.3-1.6 1.3-2.4 1.4-1zm4 4c.6-1.8 3.6 1.6-2 1.6-2 .2-5.4-1-3.7-2 1-.6 3.5-1 3.2 0-.4 1.6 2.1 1.4 2.5.5zm-4.4 3.9c-.5 1 2.3 1.8 1.7-.3-.2-1 3.3-.3 4.1 0 3.8 1.3-8 2.6-8.5.6-.1-1 3.4-1.7 2.7-.3zm3.3 3.2c-.7.3.5 1.6-.8 1.5-.6 0-3.8-.6-3.8-1.4.1-1 6.5-.9 4.6 0zm4.5 4.2c-.1 2.5-8.9 2.1-6.6 1.5.9-.3 1.4-1.4-.6-1.5-2 0-1.2 2.5-2.7 1.8s1-2.7 2.5-3c2.8-.5 7.5.1 7.5 1.2zm-.8 7c-.4 1.4-10.4 2-10.1-1 .4-4.1 11.4-3.4 10.1 1.1zm-3.8 2c3.3.7 3.8 2.4 3.3 3.6-.7 1.6-3 1.3-6.3 1.5-7.2-.3-2.5-6 3-5zm.7 6.8c3.3 0 5.7 5.2-2.3 5.2-3 .2-5.6-.3-5.4-3.3.2-1.9 5.8-1.9 7.7-1.8zm-2.7 6.5c8.9.7 5.6 5.4.8 4.8-12 1.1-7.4-5.3-.8-4.8zm0 13.2c-3 .6-10-1.3-7-4.4 8.3-8.4 22 6.7 7.1 4.5zm4 2c1.3.4 5.8 5.5-3.6 5.4.3-.5 2-.5 1.8-1.6-.3-1.5-2.8-1-3.5-.1-1.3 1.5 3 2.1-.8 2.1-6.8.6-9.4-10.2 6-5.8zm-4.4 16.2c-2.7.7-6.2-4.7-4.6-1.8.8 1.4.2.7-1 2.6 0 0-.3-3-.5-3.3-.6-1.4 1-.1.7-1-1.4-4 4.3-4.7 7.8-4.7 1.5 0 6.8-1.8 8 1.2 2.5 5.4-5.3 7-10.4 7zm1.6 2.6c-3.7 0-4.7 4-4.7-.3-.7-4.3.5.4 8.5-2.2 6.5-2 7.2 2.8-3.7 2.5zm-8.6-13.2c.3-.3.5.3.8.5 4 1.4 5.5 0 .9 2.8-.3.1-.5.6-1 .4s-.2-.7-.2-1c.2-1-1.2-2-.5-2.7zm.7 13.7s0 .6-.2.3c-3.1-2.8.4-2.8.2-.3zm-9 15.4c-10.5-.2-9-6.4-9.6-8.9-.9-3 5.7-5.7 8.5-5 4.7 1 3.8.1 5 .8 7.2 5 3 13.2-3.9 13zm-9-15c.6.4 1.7 0 1.8.8 0 .5-1 1-1.6 1-.9 0-.8-2-.2-1.7zm15.7 2.4c-.5.2-1.9-2.6-5.5-2.3-.3 0-2.6-.3-2.7-.7 0-1 7.9-1.3 8.3.5-.5 1 .3 2.3 0 2.5zm4.3 10.6c-3 .2-5.7 6.1-12.2 5.7-3 0-10-1.8-8-3.7.4-.4-.2-1.1-.5-1.7-.5-.8 0-2 .6-.5.8 2 4.8 2.8 6.8 3.4 4.9 1.5 7.2-1 10-3.8 1.1-1.2 1.7 1.7 2.3-.4.1-.3-.1-.8.5-.7 1.7.5 1 1.7.5 1.7zm3 1.1c-1-.3-1-2.7 0-2a6.7 6.7 0 005 .9c3.3-.5 6.6.7 9.3-2.5 3.6-4.1-12.7 9.9-17.4-5.3-.2-.8-.9 0-.9-.9 0-.3.1-3 .8-2.7 1 .6.4 1.3.7 1.4l3-2.2c1.8-1 10.6-1.3 10.8-1.3 2.7-.1 5.6 3.5 5.3 4.7-.5 3.5-1.6 6-.5 4.5.3-.3.3-.9.8-.8s.5.7.6 1.1c1.8 7.2-10.4 7.6-17.4 5.1zm12.7-16c-.1-1 1.2-1 1.8.6.2.6-1.6.4-1.8-.5zm4.7 3.9c-.8-.6-1.5-2-.8-2.2 2 2.2 1 2.4.8 2.2zm15.8 7.3a2.8 2.8 0 00-.4 1.7c.1 1.3-9.5 6.4-11.5-1.3-.4-1.4 2.4 2.3 9.3.4.7-.1 3.4-2.5 2.6-.8zm-10.5-.4c-6-4.1-.2-12.4 7.5-12 12.1.9 1.2 18.2-7.6 12zm12.9-10.5a3.1 3.1 0 01-1.3-1.3c0-.2.3-.1.5-.1 1.3 0 1.3 1.7.8 1.4zm-2-2.4c.5 1.4-.7.2-4.4.1-7.4 0-7.8 5.6-8.3 2.6-.3-1.5-1.6-.7-1.5-1.2.1-1.4-2.4-2.4-1.8-3 .3-.3.7 1.2 3.7 2 .7.1 2.5-.4 2.3-.8s-4.1 1-5.9-2.6c-2.7-5.7 2-7.5 6.3-9 10.3-3.6 14.5 5.3 9.2 8.3-1.7 1-3.6 1-5.2 1.8-.6.3-.1.7.2.7 5.2-1.1 4.7-1.8 6.5-2.6.9-.3 1-1.5 1.4-2.8.3-1.5 1-.9 1.2 0 .8 3.3-5 3.6-3.7 6.5zm-13.3-122c1.2 0 1 1.4 0 1.5-4.8.3-6.6-.7 0-1.4zm-3.5-.4c-.1-.5 2.2-1.4 3.5-.7-.8.8-3.4 1-3.5.7zm4.6 12.6c1 .2 1.4.9-2 .9-4.7 0-1.2-1.4 2-.9zm-.9-2.2c1.7.3.7 1.3-.1 1.4-7.5.5-4.2-2.3.2-1.4zm-2.2-6.7c-.9.3-3.2-1.1 0-1.2 0 0 3.2 0 3.2.4 0 .8-3 .8-3.1.8zm1.3.3c5.8 1-4.1 2.8-4.1 1.2 0-.4.7-.4 4-1.2zm1.6 3.2c-.3 1-1.9.3-3.9.8-5.7-.7 4.6-3 4-.8zm0 1.9c-.3 1.2-2.2.2-4.3.9-4-.6 4.7-2.6 4.4-.9zm0 5.2c1.2.3.9 1.4 0 1.5-7.7.8-6.3-2.8.1-1.5zm-1.4 3.2c-4 0-2.4-1.2 1.5-1 3 .3-1.4 1.5-1.4 1zm-2.1.9c9.4 0 2 2.2-.3 1.3-1-.4-.6-1.3.4-1.3zm1 3.3c-.7.1-.9-.8-.2-1 4.2-.5 6.6.6.3 1zm0 .9c.7-.2 3.7-.5 4 .1-.6 1.7-7.2.8-3.8-.1zm5 1.8c.2 1-2.2.8-2.5.9-7 0 2.5-2.1 2.7-1zm-.4 2.2c-.1.5-4.9.8-4.9-.2.1-.8 5.2-.5 5 .2zm-.6 1.2c3.7 0 2.2.8 2 .8-9.3.2-4.8-1.5-2-.8zm2.5 1.7c1.1.4-.9 1-2 1.1-7.8-.4-.1-2 2.1-1zm-1.7 3.3c-3 .4-4.2.8-4.4 0-.6-2.8 14.5-1 4.5 0zm1 1.4c3.5-.1-.3 2-2.6 1.8-4.8 0-2.3-1.7 2.7-1.8zm.2 2.6c4.5-.1 1.2 2-3.3 2-4-.1-1.3-1.8 3.5-2zm.2 2.8c6.7-.9 5 2.1-.2 1.7-1 .2-8.3-.6.4-1.7zm3 2.6c.2.8-4.1 1.2-4 .2.1-.4 4.1-.9 4.2-.3zm-4.4 6c-1.6-.2-4-1.4-2.4-2.3 8-4.6 13 2.5 2.5 2.2zm-.3 1.8c0 1.8 1.8.8 2.3 0 .7-1.4 3-.3 2.9.8-.4 2.3-7.8 1.7-8.2 0 0-.9 3.1-2.2 3.2-.8zm5 5.6c-4.8 4.5-14-.8-3.2-2.3 1.3 0 5.1.6 3.4 2.2zm-2.6 2.8c3-.3 4 2 .8 2.7-4.6 1-10.8-1.6-.6-2.7zm-.5 6c.3-.5-1.8-1-1.8 0 .2 2.5-7.3-1.7 1.8-2 9.8 1.5-1.3 4.1 0 1.9zm4.2 2.5a.7.7 0 01-1 .5c-2.7-.7-6 1.4-6.3-.2-.2-1.2.5-1 3.5-1 .2-.2 4-.5 3.9.7zm-8.7-.7c1 0-1.2 1.2.4 1.6.6.1-.3.8-1 .8-2.2-.5-.6-2.6.7-2.5zm9 2.7c2.3 1-1.3 3.6-4.6 3.9-4.8-.4-8.7-.3-6.7-1.9 3.1-2.2 7.9-3.8 11.4-2zm0 7.5c-.1 2.2-14.2 3.6-11-.1 4.4-5 11.3-2 11.1 0zm-.8 3.6c3.3.6.3 5.1-9.6 3-2.8-.8 1.2-4.8 9.7-3zm-3.5 4.7c3.4 0 8.6 1.4 6.1 3.6-2.1 2-10.5 3.9-9.4.9.5-1.3-.4-1.6-1.2-1-4.6 2.9-1.9-3.5 4.6-3.5zm4 7.4c1.6.8 2.3 2.6.2 3.8s-8.5 1.8-8.6 1.8c-9-2.1 3.4-8 8.4-5.6zm-3 6c8.7 0 6.6 10.5-3 10.5-3.5 0-8.5.7-7.1-2.8 1.8-4.5 4.7-7.4 10.1-7.8zm11.5 29.8c0-.7-.1-1.3.1-1.8s1-.5 1 0c0 1.2-1 6-1.1 1.7zm-.2-16.4c-.6-.2.5-.8 1.1-1.8.3-.4.3.8.3 1-.1.8.4 1.2-1.5.7zm5.5-33.4c1.2 6.3-1.4 8.1-3.1 18.5-.7 4.5-.4 9.7-1 9-.8-.8-1.1 1.1-1.5-1.5-.3-1.4-1.3-1-1.4.1s.2 2.3-1.2 1.8c-1.7-.7-2 1.1-1.4 3 .3.8 1.1-.3 2.7 3.4 0 .2.4.3.1.5a.7.7 0 01-.4-.2c-1.8-2.1-1-2.4-3.5-3.1-3.1-1-5.4-.4-2.5-2.1 3.4-2 3.4-7.5.9-9.6-.7-.5-.9-1-.1-1.6 3.8-3.1-1.4-5-1.3-5.5s7.9-2.8.5-6.4c-2.2-1.1 4.2-3-.6-5.2-1-.5-.7-.6-.2-1 1.6-1 1.6-3.1-.3-4.4-2.4-1.7 4.6-2.1 1.9-5.2a9.8 9.8 0 01-.6-3.7c.5-3.5-3.2-2.3-1.4-4 2.5-2.3-2.4-2.8 0-4.5 1.4-1 1.7-2.5.2-3-2.7-.9 2.4-1.4-.3-4.3-1.7-1.9 1.9-1.2 2-2.9 0-2-4-2.3-1.4-3.3 1.1-.4 2.8-3.4.6-4s-.3-1.4-2.2-2.5 1.2-1.9-.3-2.7c-1.2-.7 1.6-1 .3-3s.6-2.1-2-4.6c-1.7-1.5 0-1.2-.8-2.5a4.4 4.4 0 01-.5-4.5c.2-.5-.3-2.5-.7-2.7-1.5-.8 1.3-2.8-.8-4.2-1-.8 1.1-1.5-.1-2.5-.3-.2.1-2.5-.6-3.3s1.7-.5 0-5.5c-.4-1 .9-1.9-.8-2.3-9.2-2.4-6.5 7-8.2 8.6v.6c1.8 1.4-.2 3.7.5 4 .9.3.7 1.2 1 1.9.5 1-2 1.7 0 2.5 1.7.8 0 1.7 1.2 3.4 1 1.3-1.6 1.2-.2 2.8 1.7 2-.2 5 1.9 6.7.7.6-1.2 1.1.4 2.1 1 .7-1.1 1.3.3 2.3s-1.8 1.1.6 6.3c1.7 3.5 1.7 3.5 2.6 3.7 3 .7-4.2 1.8-1.3 4.1 1.3 1-1 1.3-1 3.1s2 1.4 1.9 2.3-3.6 1.4-1.3 3.7c.6.5 1.1.9 0 1.5-3 1.4 2.8 2.9-1.6 8.6-1.1 1.5.5 2.1-1 3.6-2.7 3 2.5 3 2.7 3.3.2.7-5.4 1.9-1.1 5.3 1.7 1.4-1.8.6-1.5 3.1.3 2.2 5.5 2 2.7 3.1-2.1.9-4.3 4.4-.9 5.7 3.2 1.2 1.1.3-2 3.3-1.2 1.2-.2 3.7 1.7 4.2s-3.3 3-3.7 9c-.2 3 9.6 2 6.2 3.2-2 .8-4.2 3.2-4.1 2 0-1 .4-1.8-.1-1.8-4.3-.7-1-6.4-3.6-6.1-1 .1-.2 1.6-1.4 1a.8.8 0 00-1.1 1.3c.8 1.7-1.4 3.3-.3 5.1.7 1.1-.1 1.4-.9 1-1.4-.6-1.6-.2-2.1-.4 2-2.2 2.3-4.1-.2-6.3-1-.9.2-.7 1.6-1.5 2-1.2.2-4.4-1-5.7-1-.9-3.2-1.2-1.9-2.2 3.5-2.6 2.8-4.7.7-5.5-1-.4-1-.7.4-1.5 4.6-2.7-1.4-5 0-6.3 3.4-3.4-.7-4.2.9-6 3.3-3.8-3.7-5.7-1-6.3 1.4-.3 3.8-2.2 1.9-3.6-1-.8.8-1.9-.9-3.4-1-1 1-2.6-1-3.8-1.5-1 2.5-1.8-.5-4-1-.7-.5-.7.2-1a1.8 1.8 0 00.4-3 .8.8 0 01-.2-1.2c2-2.9-2.1-3.2-2-3.7.2-1.4 2-.5 2.3-2 .4-2-2.3-2-.8-3.2.7-.5.6-8.3-1-9.6a1.5 1.5 0 01-.1-2c.7-1.4-.3-2.3-1-4.4-.6-2 0-5.9 0-6 1-2.1-.1-4-.3-6.1 0-.8.3-1.7-.4-2.4l.1-.4c1.1-1.4.5-3.5-.2-3.3-3.9 1.6 0 1.2.1 2.1.1.8-3.6 2.2-4.8.9-.3-.3-1.1 0-1-.5.5-1 2-1 2.4-1 .8 0 .5-.5 0-.5-6.3.6-3.2-2.6 1.8-1.9 2.2.3 1.8-1.8 1.1-2.2-1.8-1.2 2-1.5.2-3.3-.8-.8 1-1.2-.1-2-1.6-1-6-.8-7 .7-.8 1-1.3 2.2-2.1 3.2-1.4 1.7 2.3.8 1.2 2.3.6 1.2-1.2 2.6.4 3.9 2 1.5-2.4 2.3-.5 4.2.4.5-.4 1-.2 1.3 1 1.4-1 2.8-.5 3.2 1.2 1.3.8 3.2 1.6 4.6a.5.5 0 01-.2.7c-2.4 1 .7 8.6-.4 11.2-.6 1.1.9.8.7 3-.4 6.2 2.7 5.1 1.4 8-.6 1.2 1.7 2 1.6 2.2-.2 1-1.4.4-1.7 1.4-.8 2.1 2.7 1.8.6 3-2.8 1.4 1 3-.2 4-2 1.7 1.6 2.8 0 3.6-4.2 2 1.1 2.5 0 4.5-.6 1.2 2 1.8 2 2.3 0 .9-1.5 0-2.9 3-.6 1.3 1.6 1.3-.1 2.8-1 .9-.8 3.2.3 4.4.8.6.7 1 0 1.6-1.7 1.6-1.5 3.7-.3 4.5 1.7 1.1-3.9 3-.2 6.9 1 1-1 .9-2.3 2.2-2 2 .3 4 1.2 4.5 2 .9-1.6.9-2.5 3.7-1 2.7 1.9 3.2 2 4.1.2.5-.7.8-1.1 1.3-2 2.4.4 4.4-.8 4.3-2-.1-.6-1.3-1.4-3.8-.3-.8-1.4-.4-1.6 2-.2 1.6-1.2-2-4.5-3.4-.8-.3-.8-1 0-1.2 4.6-1.5 3.5-6.1.3-6.8-2.6-.6 1-2.3-.7-6-.3-.8.5-.8 1.8-2 2.3-2.2-.6-3.8-.5-4.3 0-.1 10.2-4.7 1.5-6.7-.5-.2-.9-.4-.3-1a2.6 2.6 0 00-1.2-4.4c-.8-.2-1-.5-.1-.9 1-.4 1.6-2.8.2-3.9-1.8-1.3 3.5-2.7-.4-4.3-2.6-1 1.1-1.2-1-3.3-2.6-2.6 1-1.5.9-4-.2-1.8-2.9-1-1.3-2.2.6-.5 3.8-2.2 1.5-3.4-.8-.4-2-.6-.9-1.3 1.5-.8 1.3-3-.9-3.5-2.5-.5-.5-1.5-2.2-1.2-2.2.4-6-.4-5.7-1.7.4-3 12.5-2.3 8.5.7-.3.3-1 .3-.7.8 0 .2.8 0 1.3-.2 1.7-.6 1.5-3.1.9-3-1.8.1-3.4-2-.6-1 1.7.6 1.6-1 1-1.5-1.6-1.7.6-1.8-.5-2.6s.1-1.7-2-1.2c-3.2.8-9-.6-9-1.3.1-1 9-1 10 .4 1.2 1.7 1-3.9.2-4.9-1.3-1.4 1.7-2.4.2-4.4-.6-.9.1-2.8-.3-3.8-2-5.2-.3-5.1-.7-5.5-1-.7-.3-2-.9-2.7-.1-.2-.3-.4-.2-.6.8-1.7-1.6-3.8-.2-6.1 3-5-4.7-7-2.8-5.3 1.1 1-3 1-3 .5s.8-.5.7-1c-.4-.7-4.4 1-5.4 2.6-.3.4-.2 2.3.2 2.5 1 .5 0-1.2 8.3-.1 1.5.2 1.4 1.9-.1 1.6-2.3-.5-4.6-.3-6.7-1.1-.6-.2-1-.2-.9.6.2 2-2.5 1.6-.7 4.5 1.1 1.8-.2.7-.6 3.5 0 .4-.3 4.3.7 3.9 1.7-.8 4 .1 4-.6 0-.3-.5-.2-.7-.2-1 0-1.9-.5-2.8-.5-.6 0-.5-.8 0-.8 4.3-.2-.1-.6 0-1.6.1-.7 0-.7 8.8-.2 1.3.1 1.7 1.7 0 1.6-6.3 0-5.9-.3-5.9 0 0 1.4 6.4 0 6.2 1.3 0 .3 0 .2-4.4.2-.9 0-1 .5 0 .6 1.7 0 4.3-.4 5.3.8 1.5 1.7-3.3 1-5.8 1-.4 0-.7.2-.1.3 5 1 6-.1 6.2 1 .3 2.3-12.4-.4-8.3-1 .5 0 1.1.1 1.1-.3s-.4-.4-1.6-.8c-2.2-.7-2 1.7-1.9 1.8.8.4 1.4.7 1 1.8 0 .2.6.3.9.1 1.9-1.2 3.5.1 6.7-.2 4.6-.5 1.8 2.5-5.7 1.2-.4 0-2.2-2-1.6 1.8.3 1.7.9 2.7.2 4.3-.3.6-.2.8.5.7 1.3-.3 2.3.6 3.6.5.2 0 6.3.1 6.3 1s-8.1.1-9.1 0c-.8-.2-1.2-1.3-1.6-1-.9.3.1 4.8.2 5.4 0 2.8-.8 3.5.2 4.2 1.7 1.1-1.4 1.5.1 2.8l1.7 1.8c-.8.6-3.3 2-1.4 4 1.6 1.4-2.7 2.8.5 4.8 2.3 1.5-2.4 2.8 1.1 5.7 1.4 1.1-2 1.3-.4 2.8.4.3.4 1 1 1.2.5.2.2.5-.1.7-2.2 1.8 1.4 2.4-.2 3.8-3 2.7.4 3-1.3 4.6a3.2 3.2 0 00.7 5.4c.6.2.5.5 0 .8a3.1 3.1 0 00-1 4.8c.5.4.3.8-.1 1-5.4 4.1-.2 4.3-.3 5.9 0 .5-4.7 4.1-1.3 7 .9.8-2 1-2.3 4.8-.2 2.8 2.6 2.8 2.7 3.1s-2.2 1.6-2.5 5c-.6 5.1 9.7 3.7 5.2 4.7-2.6.7-3 2-3.4.6-.8-3.2-3-2.7-3-4.3a.7.7 0 00-1.2 0c-.1.6 1 5.3-.4 3.3-1.1-1.7-5-2.5-3.4-2.8 4.8-1 2.1-3.7 1.9-4.8-.7-3.2-3.7-2.5-3.5-3.8.1-.6 3.1-.9 4-2.8 1-2.5-3-4-3-4.4s7.4-3.1 2.1-8.2c-.5-.5-1.1-.9 0-1.4.6-.3.4-2.4-.2-2.8-2.6-1.8 1.7-3-1-6-1.9-2 0-.6 1.2-2.6 1.6-2.7-1.5-4-3.7-5.8-.8-.6 0-1 1.3-2.4 2.3-2.5-1.5-3.3-1.6-3.8 0-.3 3.8-2.1.5-4.1-.5-.3-.2-.6 0-.8 1.4-1.5 1.4-1.5 0-3-1.5-1.7 2.4-2-.2-4.7-2-2 3.4-3.6-.5-5.7-2-1 .4-2.5-2.9-1.2-2 .8-5.8-.3-5.5-2 .2-1.3 8.5-3.5 9-1.6.5 1.8-1 2.4-1.4 3.2 2.7-.3 2.3-2.7 3-6.2.4-2.7-.5-.7-7.7-1.1-5-.3-3.5-2-.6-1.4 3.6 1 6.3-.4 7.1.1 3.8 2.6-1-8.7 1.7-14.3a1 1 0 00-.5-1.4c-2.3-.9 1.8-2.5.2-4.3a1.5 1.5 0 01-.4-1.6c.3-1-.8-1.6-.8-2.6 0-1.9.2-2.7-1.5-3-5.8-1 5.1.5 1.2-4.4-1.6-2.2 1-3-1.3-3.6-3.6-1-7 .3-1.3.5 1.7 0-2.6.7-4 .1 2.2-2-5.8-1.3-4 5.1 1.2 4.3-1.5 5.8.5 7.4v.2c-1.4.9-.7 6.8 0 8.3.3.5-2 1-.6 2.2.2.1.5.2.1.5-2.6 1.6.7 2.6-.8 4.9s1.6 4-.2 7.5c-.2.5-.5 1.4 0 1.7.6.5.8-1.6 3.2-1.3 6 .8 8.9-.7 8.9 1 0 .7-.5 1-1 .8-2.5-.5-5 .3-7.5 0-.5-.2-1.3-.3-1 .9.2.4-.4.7-.7 1-3.2 3.3 2.7 3.7 1 5s-2.9 2.6-1.2 4c1.2.9-2.1 3 .6 5 1.7 1.2-1.8 1.6-.4 4.1.7 1.2-1.8 3.8 1 4.4 1 .2 1.3.4.4 1.2-3.5 3.1 1 4.6-.4 5.8s-4 3.1-1.8 5c.4.5.6.5.6-.2 0-5 6.2-6.7 11-2.5 2.2 1.8.2 3.8-2.8 3.7h-6c-3.2-.8.1.5-1.6 2-1.3 1-.8 3.5 0 4.4.5.6.5.8 0 1.2-3.5 2.6 1.2 3.4-.2 4.3-6.7 4.5 1 6.6-1.7 7.4-4.6 1.4.4 6.3.4 6.5 0 .5-5.4 3.2-2.2 7.2 2.6 3.3 9 2 6 3.1-4.9 1.7-4.7 3.3-5.2 1.3-.2-1.4.2-3.9-1.2-3-2 1.2-.8 2.3-1.5 2.3-1 .1.1-2.1-1.5-3.8-2.3-2.3-3 2.3-1.5 3.5.5.4 1.4 4 1.5 4.7 0 1.3-1 1.1-1 0 0-4.6-2.6-7-5.4-7.5-3-.5 2.7-3.4-.2-8.4-.5-.8-2.4-1.5-1.2-2 6.1-2.7-1.7-6.7 0-7.7 1.8-1.2 3.2-3.4.9-4.7-1.6-.9-2.2-.7-1.4-1.3 4.2-3.4-2.1-4.6-.2-6 4.4-3-1.5-5.6 1-6.6 5-2.1-.2-4.6-.2-4.9 0-.6 5-1.7.4-5.6-1.8-1.5 1.2-.6 1.4-2.7s-1.1-1.3-2.4-3c-.8-1 .6-.2 2.2-1.9 2.1-2.2-2.7-3.4-2.7-4s2.2-.3 2.6-1.6c.3-1.2-.2-2.1-1.8-2.6s.6-.8.4-1.7c-.1-.4-1.8-.6-2.2-.6-1.8 0-.4 1.6-1.7 1.7-4.2 0-7.6-1.7-5.4-3 1.2-.7 1.4-.5 7-.5 2.8 0 2.5 1.7 3 1.3.6-.6-.4-1.5-1.3-1.8-2-.7 0-.8-.4-1.5s.1.7-7 .7c-.8 0-2-1.3-.8-2.3 3-2.1 9.4-3.3 9 .3-.1.7.5.6.6.4 1.2-1.7-.3-1.7.7-2.9s-9.9.4-9.7-1.6c.1-1.2 6.3-.3 6.5-.3 4.2 0 3.3 3.4 4.2-2 1-5.2-9.5-2.7-9.6-4.4 0-.6 8.2-1 9 .7.5 1 1.2.3 1-.4-.3-1.7 3.5-7 1.1-8.7a3.9 3.9 0 01.2-2.1c.1-.2.4-.4.3-.6-.4-1 .1-2.2-.3-3.2v-.2c.5-.8 0-1.8.3-2.4a5 5 0 00.5-3.1c-.2-2 1.8-3.2.3-4-1.2-.6 1.7-1.4-.1-2.7-1.3-1 .4-2.1-2.2-2.7-10.7-2.2-6.2 4.3-6.8 5s-.2 5.6 0 6.2-.6.5-.6 1a20.3 20.3 0 01-.2 6.4c-.2 2.9 1.9.7 7.5 3 2.7 1.3-3.6 2-6.3-.2-.6-.4-.8-.5-2.8 3-.5.8.4-.6 7.2 1 2.3.5 1.3 1.6-.2 1.4-5.3-.7-5 0-6.3-1.4-.8-.8-2.6 2-.2 1.6 7.8-1.4 11.5 3.4.2 1.2-1-.2-2.1-1.6-2-.4a1.3 1.3 0 01-.6 1.2c-.7.6-.3 1.4-.4 2.2s2.8-.5 8.2 1.1c2 .6.3 1.4-.3 1.2-1.7-.5-3.4-.3-5.2-.3-1 0-1.5-.7-2.2-1-1.8-.8-.6.6-1.1.8-2 .9.6 1.5 0 2.7-1 1.8 2.2 1.4.6 2.8-1.4 1.1-2.6 1.6-1.7 3.6 1 2.2-3.3 2.6.2 4.6 1.7 1 1.6 1 .1 1.8-2.3 1.5.3 3.3 2.9 3.2.4 0 .8-.4 0-.6-6.8-1.7 1.3-3.3 5.5-2.8 3 .3 2.5 3-2.3 3-1.5 0 0 1.4-1.1 1.1a6.1 6.1 0 00-4.8 1.7c-1.7 1.9 3.8 1.8 1 3.8-.7.5-3.2 1.2-1.7 2.6 2 1.9 2.6.7 2.8 1.9.1.7-3.6 1.6-2.3 4.7.5 1.1 2 1 3.9 2-.1 0-6.4 2-4.3 4.4 1.5 1.7-4.2 2.4-1.7 6.7.7 1.3 2.3.8 1 2-4.4 3.7 1.1 3.7-1.8 6.4s1.4 3.8 1.4 4.5c-.1 1-1.4.8-2.9 2-2.5 2-.8 6.6 1.6 7.8.4.2.3.5 0 .8a4.2 4.2 0 000 6.4c3 2.8-.7 1-2 4.4 1 1.8.7 4 1.9 5.6 2.6 5 14 2.8 16.6 1.9 1-.4 1.1-1.1 1.7-.9s-.5 2 .5 3.3c.2.2-.1.5-.5.4-3.6-1.6-7.9.8-12.3.2-3.3-.4-5.2 3.5-5.5 4.5-.3 1.8-2.5-.1-2.7 2 0 .5-.7.7-.8-.1-.1-1.6 1.8-.3 1.8-2.6 0-.8.9-4.4-.7-4.5-.5 0-.7.2-.8.7-.2 1-1.5.8-1.7 1.7-.6-.2-.2-1.3-.2-2s.9.1 1.6-1.1c.8-1.5 4 2.5 2.2-3.1-.6-2-1.5-3.8-1.1-6-1-4-2.5-1.4-2.3-3.8 0-.8-.2-1.6-1-1.7-1.4-.1-1.2 2-1.4 3.6 0 1-.6.9-.9.1-.9-2.7-.7-3.4-1.6-3.2-1.3.3.6 4-.2 4.4s-1.4-3-4.4-3.2c-5.3-.4 6.9-1.7-1.4-8.2-1.6-1.3 2.5-1.4 1.8-4.2a3.5 3.5 0 00-2.2-2.6c-3.1-1.1 5.3-2.2.9-7-1.7-1.7 1.5 0 2.5-4 .4-2-.5-2.7-1.2-3.5-2.3-2.4 1-.7.5-4.7-.6-3.6-3.1-4-1.1-4.5 2.5-.5 3.3-2.9 1.6-5-1.2-1.4-1.2-1.4.2-2.7 3.2-3.2-2.4-4-.5-5.6 2.8-2.5-1-3.7-1-4.2s.7.1 2.2-1.7c1.8-2.2-2-3.1-.9-4.3 2-2-.7-2 .2-3.1 2.3-3.3-1.5-3.6.2-4.5 1.2-.7 2.7-1.4 1.7-2.6-1.2-1.6 1.6-.5 1.3-2.2-.3-1.6.9-3.6 1.2-3.6 2.4-.1 3-2.4 4-3.8.5-.8 1.8-1.9 1-3.4-.4-.6 2.4-.8.5-2.2-1.6-1.3 1.1-.6.8-1.9-.4-1.4 1.4-1.1.9-4.5-.3-1.4 1.4-1.2.5-2.3-.5-.6.3-1 .1-1.3-1.2-1.5 1.6-2.1.7-3-1-1 .4-1.4 1.8-2.9s-.4-1.5.8-2.6a.7.7 0 000-1c-.3-.4-.4.1-.7.2-2.3.7-3.9-.2-5.3-.1-2.6 0-3.2-2.4-3.7-.5-.3 1 .4 4.9-1 7.6-.5 1.2-.1 1.5-.4 1.7-2.3 1.5 0 2.2-1.4 2.5-.7.1-.6-.1-1 2.8-.3 1.8-2.2 2.7-2.3 4.1 0 .8-2 .5-1.1 2 .8 1.3-1.6.4-1 2.2.9 2-1.8 1.4-1.9 2.4 0 .8-2.7 3.5-1.9 5.1.1.2-.6 1.6.3 2.2 2.3 1.6-3 1.9-.4 5 .8.9 0 .7-1 1.5-2.2 1.8 1 3.3 0 4-2.8 1.8.4 2.3-.4 3.6-2.3 3.6 3.1 3.8.2 4.8-4.5 1.3 1.6 3.9-.6 5-2.6 1.3-2.2 2.4-1.3 3.7 1 1.4-1.1.8-2.3 2.2-1.8 2-.5 4.1 1.4 5.2 1.6 1-3.5 4.7.1 8.3 1.4 1.3-1.6 0-3 4.4-.6 1.6 2.3 2.4 2 3.2-.3 1-2.8.2-3.8 2.2-1.2 2.4 1.2 4.5 2.4 5 1.4.7-1.3 1-2.1 2.8-1.4 3 3 3.4.6 5.5-1.3 1-3.3 4.4-2.2 5.4.3.2 1.9 1.5 1.8 1.8-.1.5-4.7.7-4.6 2.3s-1.3 2.9-1.1 4.6c0 1-1.2.7-1.1 2.6 0 3.5-1.3 3.5-2.4-3.5-4.2-26.1 4-84 13.2-91a50.2 50.2 0 0012.3-17.7c3-6.2-.8-17.4-3-23.9-1.4-4-6.8-6.5-12.7-6.8-4.8-.2-7.9-4.1-10.1-8.5-5-9.9 30.2-46.7 73.8-37 7 1.6 25.4 3.6 29.4 5 17.3 6.3 12 6 20.9 7.1 7.3 1 28.2 8.6 29.5 27.3.3 4.7-3.5 7.4-7.3 10-8.8 6.1-14.3 17-8.8 27.7 1.5 3.1 3.4.8 10.6 10.7 1.3 1.7 3.4 22.3 3.2 27-.3 8.4-3.9 9.7.6 33.6zm-66.5-40.5c1.8-.3 1.7.8 7.3.5.6 0 4 1.3-.6 1.3-3 .3-9.7-1.5-6.7-1.8zm-.4-1.9c.6-1.3 2.7.9 7.5.4.9 0 1.7.4 1.6 1 0 .9-10 .5-9.1-1.4zm4 4.1c1.2-.1-.3 2-4.3.5a.5.5 0 01-.3-.6c.4-.9 3.4.3 4.6.2zm3-12.6c3.8.8-2.6 2.4-6.3 1-1.3-.5-.6-1.4.3-1.2.7.1 4.3.4 4.4 0 0-.7-3.8-.3-5.4-1-3.3-1.7 7-1.7 8.9-.6s-4.8 1.3-2 1.8zm1.7 3c0 1.4-8.5.5-8.4-.4a.7.7 0 011-.5c2.6.5 7.5-.6 7.4.9zm-9.6-18.6c-1.1-.3-1.2-1.3.1-1 2.3.6 11.4.2 5.4 1.7-.5.2-.3.5 0 .5 6.7.2-1.9 2.3-5.1 1-4-1.8 3.5-.6 3.6-1.3 0-.5-1 0-4-.9zm4.6-1c-1.6-.2-3.4 0-5-.8-6.5-3.1 14.8.7 5 .7zm-3.4-3.5c1.4 0 2.5.6 3.7.5.5 0 1 .9 0 .7-3.9-.4-6.4-1.2-3.7-1.2zm5.9-3.9c-.1.7-6.3-.5-5-.5.2 0 5.2-.6 5 .5zm-6.4 1c-.4-.1-1 0-1-.5-.3-.7 2.6 0 1 .5zM435 182.6c.2.7-1.1 1.1-1.4.4-.2-.9-2.8-1.1-2.5 0 .2.8 1.2.6 1.2.9-.1.7-5.4.3-5.5-1.1s7-4.6 8.2-.2zm-8.4-4.9c4.2-4.9 12.7-.2 5.3 1.5-2.7-.6-6.7.3-5.3-1.5zm1.9 8.9c.3 1.2 2.4 1 2.2-.2 0-.9 3.1-.5 3.7 0 3.1 2.6-8.8 4-7.8 1 .2-.7 1.6-1.8 1.9-.8zm1.3 3.9c-.7 1.4 1.8 2 2.6 1 .5-.6-.7-1.2-.6-1.4.4-.7 2.2.2 3 .5 1.4.8-1.1 2.6-4 2.5-9.3-1.3-.2-4.4-1-2.6zm3.1 4c1.6-.7 4.4 2.6 1.2 3.5-8.1 2.4-9.1-4-1.1-3.5zm.5-60.7c5.7.8-7.8 2.1-7.2-.5.2-.9.7-.5 7.3.5zm-4.1-2.3c3-.8 5.3 1.5 3.5 1.5-8.2 0-5.4-2.3-3.5-1.5zm5.5 9c0 1.1-1.7.3-1.8 1s2.5.1 2.3 1.3c-.2 2-12-.3-8.4-1.1 4.2-1.1 5 .5 5.2-.4s-6-.2-6-1.6 4-.1 4.3-.5c.3-.3-.2-.4-.3-.6-.2-.8 1.4-.3 2.4 0 .7.4-1.4.5-1.4.5-.2.7 3.7.4 3.7 1.5zm-7.6-3.2c.4 0 .8.5.2.6-.7-.5-.5-.6-.2-.6zm2 1l.2-.1c.2.2 0 .3-.2 0zm-1.1-3c3.1.2 2.1.8 1.8.9-2.5.1-6.2-1-1.8-1zm-.9 10.4c.5 0 1.6.5 1.6 0 .1-1-2.5-.3-2.4-1.2 0-.5.5-.3.8-.3 2.8.3 4.8-1.5 8.8 1 1.7 1-2 1-2.1 1.4-.2.6.8.1 1 .7.5 1.8-1.3 1.4-3.5 1.4-7.8 0-6.4-3.2-4.1-3zm7.5 3.9c.5 0 1.3.2 1.2.7-.2 1.1-21.1-2.4-1.2-.8zm-3.1 14.8c-5.5.3-6.5-1.9-5-1.6 2.5.5 5 .3 7.7.3 2.4 0 .7 1.6-2.7 1.3zm3-6.4c0 .6-.8.4-1.2.5-14.2-1.7-3.6-1.4-.2-1.7a1.2 1.2 0 011.5 1.1zm-2.6-3.5c-7.2-.6-6.2-2.6-3.6-2.2 7.6 1.3 6.6 2.2 3.6 2.2zm1-1.9c-4.3-.6-8.1-2.2-6-2 5.3.6 10.9.9 6.1 2zm-2 2.6c1 .2 2.2-.1 2.2.4s-8.2 1-7.8-.7c.3-1 2.5-.4 5.7.3zm-4.7 3.2c8.1 1 7.2.5 8.2 1 4.6 2-14.8.5-8.1-1zm-.8 2.5c.4-.9.7-.1 6.2.4 9.7.9-7 1.7-6.1-.4zM407 187.1c3.6-.1 7.1 2.7 4.2 3.7-2 .6-8.8 0-9-1.9 0-1.2 3.8-2 4.8-1.8zm-2.8-4c9.6-3.6 10.8 3.7 4.5 2.6-3.2.3-7.7-1.4-4.4-2.6zm4.6 9c4.2 1.5 6.2 4.8 0 5.3-11-1-4.6-6.8 0-5.2zm.2 6.8c5.1 1 5.8 4-4.1 4-3.8 0-3.6-4 4-4zm-3.3 11.3c-1.6.3-1.2-.7-3-.6a2 2 0 01-1.5-3.6c7-6.2 16.6 4.2 4.5 4.2zm1.6 1c3.3-.7 7 4.6-1.4 4.6-3.5.5-7.7-1.1-5-3.4 2.2-1.7 2.8-.6 6.4-1.3zm-6.7 6.4c5.2-2 14-.5 11.3 2.4a7.7 7.7 0 01-4.8 2c-8.3.8-8.6-3.6-6.5-4.4zm11.2 10.5c-7.9 2-11.2 4.5-13.3 1.8-2.4-3-1.1-6.5 6.6-7 7-.3 9.6 4.5 6.7 5.2zm-4 2.4c6.6 0 5.2 6.5 2.9 8.4-.2.1-7 2.2-8.8 1.2-7.4-3.9-.7-9.5 6-9.6zm10 16.5c0 3.7-6.8 3.4-11.4 4.2-7 1.1-10-7.6-5.8-9 6.9-2.3 17.3-2.5 17.2 4.8zm-11.2-84.1a34.9 34.9 0 014.7.7c0 .3-.2 0-.4.1-2.2 1.1-3-.6-4.9.4-.6.2-3.5-1 .6-1.2zm6-9.1s-9.1-1.8-3.4-1.8c8.5.7 5.1 2.3 3.5 1.7zm2.7-13.2c-.3.6-3.7.7-4.8.5s-2.5-2-1-1.8c3.6.3 4 .9 4 .3.3-1-5.4-.3-4.6-2.2.3-.6 3.3 0 3.6 0 1 .4 1-.5 0-.6-3.7-.4-3.7-.5-3.7-1.2 0-1.7 10 .5 6.3 1.7-1.7.5.6 1 .4 1.8s-1 .2-1.1.5 1.1.3.9 1zM409 132c-2.5-1.8 7.5-1 7.6.2 0 .9-2.4 1.1-3.1.8-1.1-.4-1.2 1.4-4.5-1zm2.7 2.2c-.2.2-.5.2-.2-.1zm-1-.2c-.3.1-.2.2-.5-.1.3-.3.4-.2.4.1zm-1.6 7.6c5.6-.3 8.4 2.5-.2.9-.4-.1-.6-.8.2-.9zm3.3 5.5c-2.8.2-4.5-1.3-3.1-1.3 4.3.2 7.9 1.3 3.2 1.3zm-2.7-3.7c4.3.5-1.3 1.6-1.3.4 0-.7.7-.3 1.4-.4zm3.7 5.9c-.2 0-4.7-1-4.7-1.3.3-1.3 9.4 1.4 4.7 1.3z"/><path d="M514.2 174.5c.2-4.7-1.8-25.2-3.1-27-7.2-9.9-9.1-7.6-10.7-10.6-5.5-10.8 0-21.7 8.9-27.8 3.7-2.6 7.6-5.2 7.3-10-1.4-18.7-22.3-26.3-29.6-27.2-8.8-1.2-3.5-.9-20.8-7.2-4-1.5-22.5-3.5-29.4-5-43.6-9.7-79 27.2-73.9 37 2.3 4.4 5.3 8.3 10.2 8.5 5.8.3 11.2 2.8 12.6 6.8 2.3 6.5 6 17.7 3 24-2.7 5.8-7 13.8-12.2 17.6-9.3 7-17.4 64.9-13.3 91 1.2 7 2.5 7 2.4 3.5 0-2 1.2-1.6 1.1-2.6-.1-1.7 1.3-3 1.2-4.6s4.4-1.8 4.5-2.3c.1-.3-1.5-1.6-1.7-1.8-1.1-1 .9-4.4 2.1-5.4 2.5-2.1-1.9-2.5-.6-5.5.9-1.9 3.6-2.1 2.1-2.8-1.1-.5-3.6-2.6-2.3-5 1-2 3.5-1.2 3.8-2.2.3-.8-2.6-1.5-2-3.2 1.4-4.4 4.4-3 3-4.4-3.7-3.6 1.4-7.3-.2-8.3-1.8-1-3.1-3.1-1.4-5.2 1.2-1.4 3.4-.8 2.4-2.2-1-1.3-1.4-2.4 1.3-3.7 2.2-1.1-4-3.7.5-5 3-1-2.4-1.2-.2-4.8.9-1.3-2.3-1.8.4-3.6 1.1-.7-2.1-2.2 0-4 1.1-.8 1.8-.6 1-1.5-2.6-3 2.8-3.4.4-5-.8-.6-.1-2-.2-2.1-.9-1.6 1.8-4.3 1.9-5.2 0-1 2.7-.3 2-2.4-.7-1.8 1.7-1 .8-2.2-1-1.5 1-1.2 1.1-2 .1-1.4 2-2.3 2.3-4 .5-3 .3-2.8 1-3 1.5-.2-.9-1 1.5-2.4.2-.2-.1-.4.4-1.7 1.3-2.7.7-6.5 1-7.6.5-1.9 1 .5 3.7.5 1.4 0 3 .9 5.3.1.2 0 .4-.6.7-.2a.7.7 0 010 1c-1.2 1.2.5 1.3-.8 2.6s-2.8 2-1.8 3c.8.8-2 1.4-.7 3 .1.1-.7.6-.2 1.2 1 1-.7.9-.5 2.4.6 3.3-1.2 3-.9 4.4.4 1.3-2.4.6-.7 1.9 1.8 1.4-1 1.6-.6 2.2.9 1.5-.4 2.6-1 3.4-1 1.4-1.5 3.7-3.9 3.8-.3 0-1.5 2-1.2 3.6.3 1.7-2.6.6-1.4 2.2 1 1.2-.4 2-1.6 2.6-1.7 1 2.1 1.3-.3 4.5-.8 1.2 2 1-.1 3-1.2 1.3 2.7 2.2.9 4.4-1.5 1.8-2.2 1.3-2.2 1.7s3.8 1.7 1 4.2c-2 1.7 3.7 2.5.4 5.6-1.4 1.3-1.4 1.3-.1 2.8 1.7 2 .9 4.4-1.7 5-2 .3.6.8 1.1 4.4.6 4-2.8 2.3-.5 4.7.8.8 1.7 1.5 1.2 3.4-1 4-4.1 2.4-2.5 4.2 4.4 4.6-4 5.8-.8 7a3.5 3.5 0 012.1 2.5c.7 2.9-3.4 3-1.7 4.2 8.3 6.6-4 7.8 1.3 8.2 3 .2 3.8 3.5 4.5 3.2s-1.1-4.1.1-4.4c1-.2.8.5 1.7 3.3.2.7.8.8.9-.2.1-1.5 0-3.7 1.4-3.5.8 0 1 .9 1 1.7-.2 2.3 1.3-.2 2.3 3.8 1.3-3.5 5-1.7 2-4.5a4.2 4.2 0 010-6.4c.2-.2.4-.6 0-.8-2.4-1.1-4.1-5.8-1.6-7.7 1.5-1.2 2.8-1.1 2.8-2.1 0-.7-4.1-2-1.4-4.5s-2.6-2.6 1.8-6.4c1.4-1.2-.3-.6-1-2-2.4-4.3 3.3-5 1.8-6.7-2.1-2.3 4.1-4.3 4.2-4.5-1.8-1-3.3-.8-3.8-1.9-1.4-3 2.4-4 2.2-4.7-.2-1.1-.7 0-2.8-2-1.4-1.2 1-2 1.7-2.5 2.9-2-2.6-1.9-1-3.8a6.1 6.1 0 014.8-1.7c1 .3-.4-1.1 1.1-1 4.9 0 5.4-2.7 2.4-3-4.2-.6-12.4 1-5.6 2.8.8.2.4.5 0 .5-2.5.2-5.1-1.7-2.8-3.1 1.4-1 1.5-1-.1-2-3.5-2 .8-2.3-.2-4.5-.9-2 .2-2.4 1.6-3.6 1.6-1.4-1.7-1-.6-2.8.6-1.1-2-1.8 0-2.6.6-.2-.6-1.7 1.1-.9 4.9 2.2 11.4 1.3 7.8.2-5.4-1.7-8.3-.6-8.2-1.2s-.4-1.5.3-2.1a1.3 1.3 0 00.6-1.2c0-1.2 1 .1 2 .3 11.5 2.3 7.5-2.5-.1-1.1-2.5.4-.7-2.4.1-1.6 1.3 1.4 1 .6 6.4 1.4 1.5.2 2.4-1 .2-1.4-6.8-1.6-7.7-.2-7.2-1.1 2-3.4 2.2-3.4 2.8-3 2.7 2.2 9 1.5 6.2.3-5.6-2.4-7.7-.2-7.4-3a19 19 0 00.2-6.4c0-.5.6-.6.5-1s-.5-5.4 0-6.2-3.8-7.2 6.9-5c2.6.5.8 1.7 2.2 2.7 1.8 1.3-1.1 2 0 2.6 1.5.8-.5 2-.3 4a5 5 0 01-.4 3.2c-.3.5.1 1.6-.4 2.4v.1c.5 1 0 2.2.4 3.3l-.3.6a3.9 3.9 0 00-.3 2.3c2.4 1.6-1.4 7-1 8.7 0 .7-.6 1.5-1.1.4-.8-1.6-9-1.3-9-.7.1 1.7 10.6-.8 9.7 4.4-1 5.4 0 2-4.3 2-.2 0-6.4-.9-6.5.3-.2 2 10.7.2 9.7 1.6s.5 1.1-.7 3c0 .1-.7.2-.6-.5.4-3.6-6-2.4-9-.3-1.3 1 0 2.3 1 2.3 7 0 6.6-1.4 6.9-.8s-1.7.9.4 1.6c.8.3 1.8 1.1 1.2 1.8-.5.4-.2-1.3-3-1.3-5.6 0-5.8-.2-7 .5-2.2 1.3 1.2 3 5.4 3 1.3 0-.1-1.7 1.7-1.7.4 0 2 .2 2.2.6.2.8-2 1.2-.4 1.7s2.2 1.4 1.8 2.5c-.4 1.4-2.7 1.1-2.6 1.7s4.8 1.8 2.7 4c-1.5 1.6-3 .9-2.1 2 1.2 1.6 2.4.8 2.3 2.9s-3.2 1.2-1.4 2.7c4.5 4-.4 5-.4 5.6 0 .3 5.1 2.8.2 4.9-2.4 1 3.5 3.6-1 6.6-2 1.4 4.4 2.6.2 6-.8.6-.2.4 1.4 1.3 2.3 1.3 1 3.5-1 4.7-1.6 1 6.4 5 .1 7.7-1.2.6.7 1.2 1.2 2 3 5-2.8 7.9.2 8.4 2.8.5 5.5 3 5.4 7.6 0 1 1 1.2 1 0 0-.9-1-4.4-1.4-4.8-1.7-1.2-.9-5.8 1.4-3.5 1.6 1.7.5 3.9 1.5 3.8.7 0-.5-1.1 1.5-2.3 1.5-1 1 1.5 1.3 3 .4 2 .3.4 5.1-1.3 3-1.1-3.4.2-6-3.1-3.2-4 2.3-6.8 2.3-7.2 0-.2-5-5.2-.5-6.5 2.8-.8-5-2.9 1.7-7.4 1.4-.9-3.3-1.7.2-4.3.5-.4.5-.6 0-1.2-.8-1-1.3-3.4 0-4.5 1.8-1.4-1.6-2.7 1.6-2 .3.2 4.4 0 6 0 3 .2 5-1.8 2.9-3.6-4.9-4.2-11-2.5-11 2.5 0 .7-.2.7-.7.3-2.1-2 .6-4 1.8-5.1s-3-2.7.4-5.8c1-.8.6-1-.3-1.2-3-.6-.4-3.2-1-4.4-1.5-2.5 2-2.9.3-4.1-2.7-2 .6-4.2-.6-5-1.7-1.3-.6-2.8 1.1-4s-4-1.8-.8-5c.3-.3.8-.6.7-1-.4-1.2.4-1 1-1 2.4.4 4.9-.4 7.4.1.5.2 1 0 1-.8 0-1.8-3-.2-8.9-1-2.4-.3-2.6 1.8-3.2 1.3-.5-.3-.2-1.2 0-1.7 1.8-3.5-1.2-5.3.2-7.5s-1.7-3.3.8-5c.4-.2.1-.3 0-.4-1.5-1.3.8-1.7.6-2.2-.8-1.5-1.5-7.4 0-8.3v-.3c-2-1.5.7-3-.6-7.3-1.8-6.4 6.2-7 4-5.1 1.5.6 5.7 0 4-.1-5.8-.3-2.3-1.5 1.3-.6 2.3.7-.3 1.5 1.4 3.6 3.9 5-7 3.5-1.3 4.5 1.7.3 1.6 1 1.5 3 0 1 1.1 1.6.8 2.6a1.5 1.5 0 00.5 1.6c1.6 1.8-2.6 3.4-.3 4.3a1 1 0 01.5 1.4c-2.7 5.5 2.1 16.8-1.7 14.3-.7-.5-3.5.8-7 0-3-.8-4.5 1 .5 1.3 7.2.4 8.2-1.6 7.7 1-.7 3.6-.3 6-3 6.3.4-.8 2-1.4 1.5-3.2-.5-2-8.8.2-9 1.6-.4 1.7 3.4 2.9 5.5 2 3.2-1.3.9.1 2.8 1.2 4 2.1-1.4 3.6.5 5.7 2.6 2.7-1.3 3 .2 4.7 1.4 1.5 1.4 1.5 0 3-.2.2-.5.5 0 .8 3.3 2-.5 3.8-.5 4 .1.6 4 1.4 1.7 3.9-1.4 1.4-2.1 1.8-1.4 2.3 2.2 1.9 5.3 3.2 3.7 6-1.2 2-3 .5-1.2 2.5 2.8 3-1.5 4.1 1 6 .6.4.8 2.5.2 2.8-1.1.5-.5 1 0 1.4 5.4 5-2.2 7.8-2.2 8.2s4 2 3 4.4c-.7 1.9-3.7 2.2-3.8 2.7-.2 1.4 2.7.7 3.4 3.8.3 1.2 3 3.9-1.8 4.9-1.7.3 2.2 1.1 3.3 2.8 1.3 2 .3-2.8.4-3.3a.7.7 0 011.3 0c0 1.5 2.1 1.1 3 4.3.3 1.4.7 0 3.4-.6 4.4-1-5.9.4-5.3-4.8.3-3.3 2.6-4.5 2.5-5s-2.8-.2-2.7-3c.2-3.8 3.2-4 2.4-4.7-3.5-3 1.2-6.6 1.2-7.2.1-1.5-5-1.7.3-5.8.4-.3.6-.6.2-1a3.1 3.1 0 01.8-4.8c.7-.3.7-.6.2-.9a3.2 3.2 0 01-.8-5.4c1.7-1.5-1.6-1.9 1.3-4.5 1.6-1.4-2-2 .2-3.8.3-.2.6-.5.2-.7-.7-.2-.7-.9-1-1.3-1.7-1.5 1.7-1.6.3-2.7-3.5-3 1.2-4.2-1-5.7-3.3-2 1-3.4-.5-5-2-1.8.5-3.2 1.3-3.8L447 174c-1.5-1.3 1.6-1.7 0-2.8-1.1-.7-.2-1.4-.3-4.2 0-.6-1-5.1-.1-5.5.3-.1.7 1 1.5 1 1 .2 9.1.9 9.1 0s-6.1-1-6.3-1c-1.3.2-2.3-.7-3.6-.4-.6.1-.7-.2-.5-.7.7-1.6.1-2.6-.2-4.3-.6-3.8 1.2-2 1.7-1.8 7.5 1.3 10.2-1.7 5.7-1.2-3.2.3-4.9-1-6.8.2-.3.2-1 0-.8-.1.4-1-.3-1.4-1-1.8-.3-.1-.4-2.5 1.8-1.8 1.2.4 1.6.3 1.6.7s-.6.3-1 .4c-4.2.7 8.6 3.3 8.2 1-.1-1.2-1.3-.1-6.2-1-.6-.1-.3-.3 0-.3 2.6 0 7.4.7 6-1-1-1.2-3.7-.8-5.4-.9-1 0-.9-.5 0-.5 4.4 0 4.3 0 4.4-.2.2-1.4-6.1 0-6.2-1.3 0-.3-.4 0 6 0 1.6 0 1.2-1.5 0-1.6-8.8-.5-8.7-.5-8.8.2-.2 1 4.2 1.4 0 1.5-.6 0-.7.9-.1.9 1 0 1.8.6 2.8.5.3 0 .7-.1.7.2 0 .7-2.3-.2-4 .6-1 .4-.8-3.5-.7-3.9.4-2.8 1.7-1.7.6-3.5-1.8-2.9 1-2.4.7-4.5 0-.8.3-.8 1-.6 2 .8 4.4.6 6.6 1 1.5.4 1.7-1.3.1-1.6-8.2-1-7.2.7-8.2.2-.5-.2-.6-2.1-.3-2.5 1-1.6 5-3.3 5.4-2.5.2.4-.7.5-.7.9s4.2.5 3-.5c-1.9-1.6 5.9.2 2.9 5.3-1.5 2.3.9 4.4.2 6-.1.3 0 .5.1.7.7.7 0 2 .9 2.7.4.4-1.3.3.7 5.4.4 1.1-.3 3 .4 3.9 1.4 2-1.6 3-.3 4.4 1 1 1 6.6-.2 4.9-1-1.5-9.8-1.4-10-.4 0 .6 5.8 2.1 9 1.3 2.2-.5.8.3 2 1.2s-1 .8.6 2.6c.5.4.6 2-1 1.5-3-1-1.3 1.1.5 1 .6-.1.8 2.4-1 3-.4.2-1 .3-1.2.2-.2-.5.4-.5.7-.8 4-3-8-3.7-8.5-.7-.2 1.2 3.5 2 5.8 1.6 1.6-.2-.3.8 2.2 1.3 2.2.5 2.3 2.7.8 3.5-1 .6.1 1 1 1.3 2.3 1.2-1 2.8-1.6 3.4-1.6 1.2 1.1.4 1.3 2.2.2 2.5-3.5 1.5-.9 4 2.1 2-1.6 2.2 1 3.3 4 1.6-1.4 3 .4 4.3 1.4 1 .9 3.5-.2 4-.8.3-.7.6 0 .8a2.6 2.6 0 011.3 4.4c-.6.6-.2.8.3 1 8.7 2-1.4 6.6-1.5 6.7 0 .5 2.9 2 .6 4.3-1.4 1.3-2.2 1.2-1.8 2 1.7 3.7-2 5.4.6 6 3.2.6 4.3 5.2-.2 6.8-.8.2-.8.9-.1 1.2 3.3 1.4 4.4 5 4.5 3.4.3-2.5 1.4-2.8 1.6-2 .9 2.5-.6 3.7 1.4 3.8 1.2.1-1.2-1.9.8-4.3.4-.5 1.3-.8 1.2-1.3-.2-1-3-1.4-2.1-4.1 1-2.8 4.4-2.8 2.6-3.7-1-.5-3.2-2.5-1.2-4.5 1.2-1.3 3.2-1.2 2.2-2.2-3.7-4 2-5.8.2-7-1.1-.7-1.4-2.8.4-4.4.6-.6.7-1 0-1.7-1.2-1-1.4-3.5-.4-4.3 1.7-1.5-.5-1.5.1-2.8 1.4-3 2.8-2.2 2.9-3 0-.5-2.5-1.1-2-2.3 1.1-2-4.2-2.5 0-4.5 1.6-.9-2-2 0-3.6 1.3-1-2.6-2.6.2-4 2.1-1.2-1.4-.9-.6-3 .4-1 1.5-.4 1.7-1.4 0-.2-2.2-1-1.6-2.3 1.3-2.8-1.8-1.8-1.4-7.8.2-2.3-1.2-2-.7-3.1 1.1-2.6-2-10.2.4-11.2a.5.5 0 00.2-.8c-.8-1.4-.3-3.2-1.6-4.5-.4-.4 1.4-1.8.5-3.2-.2-.3.6-.8.2-1.3-1.9-1.9 2.6-2.7.5-4.2-1.6-1.3.2-2.7-.4-4 1-1.4-2.6-.5-1.2-2.2.8-1 1.4-2.2 2-3.2 1-1.5 5.5-1.7 7-.7 1.2.8-.6 1.2.3 2 1.8 1.8-2 2.1-.3 3.3.7.4 1 2.5-1 2.2-5-.7-8.2 2.5-1.9 2 .6-.1.8.4 0 .4-.4 0-1.9 0-2.3 1-.2.4.6.2.9.5 1.2 1.3 5-.1 4.9-.9-.2-1-4-.5-.1-2.1.6-.3 1.2 2 .1 3.3 0 0-.1.3 0 .4.6.7.3 1.6.3 2.4.2 2 1.3 4 .4 6 0 .2-.6 4.2 0 6 .7 2.2 1.6 3 1 4.5a1.5 1.5 0 00.1 2c1.6 1.3 1.6 9 1 9.6-1.6 1.2 1.1 1.2.7 3.2-.3 1.5-2 .5-2.3 2 0 .5 4 .8 2 3.7a.8.8 0 00.2 1.2 1.8 1.8 0 01-.4 3c-.7.3-1.2.3-.1 1 3 2.2-1 3 .4 4 2 1.2 0 2.7 1 3.8 1.7 1.5-.1 2.6.9 3.4 2 1.4-.5 3.3-1.8 3.6-2.8.6 4.2 2.5.9 6.3-1.5 1.8 2.5 2.5-1 6-1.3 1.3 4.8 3.6.1 6.3-1.4.8-1.3 1-.3 1.5 2 .8 2.7 2.9-.8 5.5-1.3 1 1 1.3 1.9 2.2 1.2 1.3 3 4.5 1 5.6-1.4.9-2.6.7-1.6 1.6 2.6 2.2 2.3 4 .2 6.3.5.2.7-.2 2.1.4.8.4 1.7 0 1-1-1.2-1.8 1-3.5.2-5.1a.8.8 0 011.1-1.3c1.2.6.4-1 1.4-1 2.6-.4-.7 5.3 3.6 6 .5.1.2 1 .1 2-.1 1.1 2.1-1.4 4.2-2.1 3.3-1.3-6.5-.2-6.3-3.1.5-6 5.7-8.7 3.8-9.2s-3-3-1.8-4.1c3.1-3 5.2-2 2-3.3-3.3-1.3-1.2-4.8 1-5.7 2.8-1.2-2.5-.9-2.8-3-.3-2.6 3.2-1.8 1.5-3.2-4.3-3.4 1.3-4.6 1-5.3 0-.4-5.3-.2-2.5-3.3 1.4-1.5-.2-2.1 1-3.6 4.3-5.7-1.4-7.3 1.4-8.6 1.3-.6.8-1 .1-1.6-2.3-2.2 1.3-2.8 1.3-3.7s-1.7-.2-1.8-2.2 2.3-2 1-3.1c-3-2.3 4.2-3.4 1.2-4.1-.9-.2-1-.2-2.6-3.8-2.4-5 1-5-.6-6.2s.8-1.6-.3-2.3c-1.5-1 .3-1.5-.4-2.1-2-1.8-.2-4.7-1.9-6.7-1.4-1.7 1.2-1.5.2-2.8-1.2-1.7.5-2.6-1.2-3.4-2-.9.5-1.5 0-2.5-.3-.7 0-1.6-1-2-.7-.3 1.3-2.5-.4-4-.1 0-.2-.4-.1-.5 1.7-1.6-1-11 8.2-8.6 1.7.4.4 1.2.8 2.3 1.7 5-.7 4.6 0 5.5s.3 3 .6 3.3c1.3 1-1 1.7.1 2.5 2.1 1.4-.6 3.4.8 4.1.5.3 1 2.3.7 2.8a4.4 4.4 0 00.5 4.5c.9 1.3-.8 1 .8 2.5 2.7 2.5 1 3 2 4.7s-1.5 2.2-.3 2.9c1.5.8-1.4 1.5.3 2.6s0 2 2.3 2.6.5 3.6-.7 4c-2.5 1 1.4 1.2 1.3 3.3 0 1.7-3.5 1-1.9 2.9 2.7 3-2.3 3.4.3 4.2 1.5.6 1.2 2-.1 3-2.5 1.8 2.4 2.3 0 4.6-1.8 1.7 1.9.5 1.3 4a9.8 9.8 0 00.6 3.7c2.8 3-4.2 3.5-1.8 5.2 1.8 1.3 1.8 3.4.3 4.4-.6.4-1 .5 0 1 4.9 2.2-1.5 4 .7 5.2 7.4 3.6-.4 5.8-.5 6.4s5.2 2.4 1.3 5.5c-.8.6-.6 1 0 1.6 2.6 2.1 2.6 7.5-.8 9.6-2.8 1.7-.6 1.1 2.5 2 2.5.8 1.7 1 3.5 3.2a.7.7 0 00.4.2c.3-.2 0-.3-.1-.5-1.5-3.7-2.4-2.6-2.7-3.4-.6-1.8-.3-3.6 1.4-3 1.5.5 1.2-.7 1.2-1.8s1.1-1.5 1.4-.1c.4 2.6.7.7 1.5 1.5.6.6.3-4.5 1-9 1.7-10.4 4.4-12.2 3.2-18.5-4.6-24.3-1-25.6-.7-34zM502 105.2c-.7-.4-5-4.7-.1-7.4 2-1 3 .3 4.4 1.2 2.1 1.3-.7 7.8-4.3 6.2zm-2.7-20.5c.4-4.2 6.5-1 7.5 2.8 0 2.8-3.5 4.4-4 4.2-2-.8-3.8-3.6-3.5-7zm-94.8 94c0-1 .7-.6 1-.7 3.4.4-1.1 2.7-1 .6zm1-8.5c-1.2 0-1.1-1.2 0-1.2s1 1 0 1.2zM406 82c-4.6 0-3.5-4.9-.5-4.9 2.8 0 4.8 4.9.5 4.9zm-2-13.4a3.6 3.6 0 01-7 1.7c-1.6-3.7 7.5-6 7-1.7zm-36.3 21c-.3-4.5 7.1-3.3 7.1 1.3 0 3.9-6.7 3.5-7-1.3zm16.6 8.7c-5.4-.1-3.9-6.5-.4-5.1 5 1.8 2.7 5.2.4 5.1zm3.5-21.2c1.7 0 3.7 2.3 3.8 4.2 0 1.7-2 4-3.4 4-5.5.2-4.8-8.8-.4-8.2zm6.6 10.5c4.7-.4 5.9 8.6-.2 9-5 .2-7-8.9.2-9zm2 18c4.2 0 5 7.7 0 7.7-4.7 0-5-7.9 0-7.8zm4.9 26.4c-.4.6-1.9-.7-6.9-1.2-1.6.2-1.2-1.2-.3-1.5 2.2-.7 2 1.7 4 .4 1-.7 4.2-.2 3 .8s.6 1 .2 1.6zm3.4-6.6c-6.4 0-4-7.4-1-7.3 3.8 0 6.4 7.4 1 7.3zm-.7-14.3c-.8-1.4.4-4.8 2-5.3 1.2-.4 3.4.8 3.6 3.5 0 4.8-4.6 3.4-5.6 1.8zm-.4-18c1.3-5.9 6.2-4.3 7 .4.5 7-8.3 5-7-.5zm8.9-30.4c.8-1 6.5-.4 6.5 3.5-.1 8-14.3 5.9-6.5-3.6zm2.9 61.4c-2-.8-2-.5-2.1-2.7-.3-2 3-3 3.5-2.8 2.8-.6 7.3 9.1-1.4 5.4zm5.6-12.5c-2.9 4-7.4-1-7-2.8 1-11.8 11.7-4.2 7 2.7zm-2.4-16.8c-4.5 0-5.4-6.9.6-7 4.9-.1 3.6 6.7-.6 6.9zm10.6 106.6c2.4.1 1.1 2.4-1 1.6-1.2-.4-1.4-1.7 1-1.7zm3-139c9 3 2 12.4-3.9 7.4-3-2.6-1.3-9 3.8-7.4zm-8 19.2c.8-.5 3.9-4.2 6.4-3 8.8 3.7.5 13.7-4 9.2-.6-.8-4-4.9-2.4-6.2zm5.2 41.4c-5.8-.2-5-13.5 3.4-6.6 2 1.6-.8 7.2-3.4 6.5zm7.4-18.5c-1 2.9-2 2.5-4.4 2.3-5 0-4.3-9.2 1.7-6.2 1.5.7 3.3 1.8 2.6 3.8zm-5 68.8c-1.4 0-1.4-1.3.4-1.5 1-.2.8 1.3-.5 1.4zm20.5.6c-1.4 0-1.4-1.4 0-1.4s1.3 1.3 0 1.3zm21.5-91.6c3.8.2 4.4 5.7-.2 5.4-3.3-.3-2.6-5.7.1-5.5zm-12.5.8c4.7 0 6 7.7-.3 7.9-4.6 0-4.5-8 .2-8zm-9.9 4.2c.4 3.2-4.6 3.2-5 1.5-.3-1.1.6-4 1.5-4.2a2.7 2.7 0 013.4 2.6zm-10.6-15.8c1.3-1.5 3.4-3 4-2.6 7.6 6-2.3 12-3.8 6.8-.1-.4-1-3.4-.2-4.2zm-2 22.9c2.3-3 5.3-1.4 6.9.7.4.5.2 1.2.3 1.7.4 7-13 5-7.2-2.4zm2.3 16.6c-.8-5.3 9.4-5.8 8.9 1.3-.2 3.3-8.8 6.2-8.9-1.3zm8.7 13.3c-3.6-.1-5-6.5-.6-6.4 4.7.2 4.2 6.5.6 6.4zm5.5-55.3c1.2-.8 2.6 1.6 2.7 3 0 7.5-11.4 2.7-2.7-3zm3 35.8c-6.3-.4-4.1-8.6-.1-8.3 5.9.4 4.3 8.1.2 8.3zm4.4 17.6c-4.5 0-3-10.6 2.6-6.4a3.6 3.6 0 01-2.6 6.4zm-1.3-47.9c-.2-3.8 2.7-6 4.5-5.7 4.3-.3 5.7 5.4 4 8.2-2.6 4-8.3.9-8.5-2.5zm17.4 38c-.9 5.9-11.6 5.7-7.9-4.4 2-5.4 8.5 0 7.9 4.4zm-9.3-15.4c-.2-5.6 7-7.6 8.7-3.2 3.6 8.8-9.3 9.3-8.7 3.2zm23.4-9.2c1.5 0 3.3 2.2 3.3 4 0 1.4-1.7 3.8-4 3.6-5.3 0-3.7-7.5.7-7.6zm-7.4 18.6c-4.7-3.2-.6-9.3 2.2-6.6 5.3 5.2 0 8.1-2.2 6.5zm0-29.7c3.7 2 4 7-.3 7-5.6-.7-4-9.2.2-7zm-.9 48.6c-4 0-4-6-.1-5.9 3.4 0 4.6 5.9.1 5.8zm2.6-13c2.1-7.6 10.7-4.7 10.4 1 2 6.2-12.5 6.7-10.4-1z" fill="#fff"/><path d="M377.4 151.2c-.5 0-.4-.4-.2-.4s.2.3.2.4zm0 0zm120.2-37.7c.3-5.8-8.3-8.7-10.4-1s12.3 7.1 10.4 1zm-5.2 3.7c-7-.3-4.3-8.3 0-8.1 6.2.1 5.4 8.3 0 8.1zm-21.5-9.2c-3.7 10.1 7 10.4 7.9 4.5.6-4.3-6-9.8-7.9-4.5zm3.7 7.4c-3.5.7-4.5-6-2-7.9 3.4-2.5 8.7 6.4 2 7.9zm-44-36.9c-2.6-1.1-5.7 2.5-6.4 3-1.7 1.4 1.7 5.5 2.4 6.2 4.5 4.5 12.7-5.4 4-9.2zm-5.6 4.9c0-5.4 8.4-6 8.4.1.7 5.7-8.3 5.2-8.4-.1zm53.2 10.5c-1.8-4.5-9-2.5-8.7 3.2-.6 6 12.3 5.6 8.7-3.2zm-4 6.5c-5.8 0-4.4-8-.1-8 4.9 0 6.2 8 0 8zm-42.1-38c-5.1-1.6-6.8 4.8-3.8 7.3 5.9 5 13-4.4 3.8-7.3zm1 7.4c-9.7 0-5.1-9.6 1.2-5.7 1.8 1.2 2 5.8-1.2 5.7zm8 41.2c.1 7.4 8.7 4.5 8.9 1.3.5-7-9.7-6.6-8.9-1.3zm.8 0c0-5 7.2-3.3 7.2.1s-7.2 5.8-7.2 0zm-47.5-23.4c-7.1.1-5.3 9.2-.2 9 6.1-.4 5-9.4.2-9zm-.5 8c-3.6 0-5.1-6.9.1-7 5.5.1 3.5 7.1 0 7zM506.3 99c-1.3-.8-2.4-2.2-4.4-1.2-4.9 2.8-.6 7 .1 7.4 3.6 1.6 6.4-5 4.3-6.2zm-5.7 2.2c0-3.8 5.6-3 5.6.2 0 2.4-5.6 3.6-5.6-.2zm-86.7 7.5c-.3 1.8 4.2 6.9 7 2.8 4.8-6.9-5.8-14.5-7-2.8zm.8 0c-.5-4.9 4.9-7.8 6.6-1-.3 5.9-6 5.5-6.6 1zm18.1 7.6c-8.4-6.9-9.3 6.4-3.4 6.6 2.6.7 5.4-4.9 3.4-6.6zm-3.4 5.5c-1.2 0-3-2-3-3.2-.1-6.3 6-3.2 6-.2a3.4 3.4 0 01-3 3.4zm-10.2-34c-6 0-5.2 7-.6 6.9 4.2-.2 5.5-7 .6-7zm-.7 5.7c.4-.3.9-.7.4-1.2-.9-1.2-1.5 1-2.2.3-1.5-1.3-1-4 1.8-4 4.6.2 2.3 5.9 0 4.9zm-6-30.9c-7.8 9.5 6.4 11.6 6.4 3.6.1-4-5.6-4.6-6.4-3.6zm2 7.9c-5.6 0-3.4-7.2.3-7.5 4.7-.3 4.2 7.5-.4 7.5zM446 96.8c-.1-.5.1-1.2-.3-1.7-1.5-2-4.6-3.6-6.9-.7-5.8 7.4 7.6 9.5 7.2 2.4zm-7.7.4a4.4 4.4 0 014-3.6c1 0 3.1 1.6 3 3 0 4.3-7.1 5.6-7 .6zm-41.9 8.3c-5 0-4.7 7.8 0 7.8 5 0 4.2-7.7 0-7.8zm.8 6.6c-2.1 1.2-4.1-2.3-3.4-3.1s.5-2.6 2.4-2.6a3 3 0 011 5.7zm68.1 3.9c-5.6-4.2-7 6.5-2.6 6.4a3.6 3.6 0 002.6-6.4zm-.1 3.3c-3.3 7.3-6-4-2-3.2 1.9.3 3 1 2 3.2zm.8-50.5c-2-.2-4.8 2-4.6 5.7.2 3.4 5.9 6.6 8.5 2.5 1.8-2.8.3-8.5-4-8.2zm-2.9 2c2.1-2.2 6.7-1.4 6.8 3.3-.8 9-11.7 1.8-6.8-3.3zm24.6 29.2c-2.8-2.8-6.9 3.3-2.2 6.4 2.2 1.6 7.5-1.3 2.2-6.5zm-.8 5.7c-3.3-.2-3.4-5.5-.8-5.3 2.9.2 4.6 5.5.8 5.3zm-70.1 12.9c-2.2-.5-6 3.5-1.4 5.4 8.7 3.7 4.2-6 1.4-5.4zm.8 5.3c-2-.4-4.3-1.8-3.2-3.4 2.1-3.3 7.9 3.7 3.2 3.4zm-14-30.9c-1.3 5.6 7.5 7.6 7 .4-.9-4.7-5.7-6.2-7-.4zm1.8 3.5c-2.5-2.3-.3-7.7 2.6-6.2 3.9 2.1 1 9.5-2.6 6.2zm93.9-11.8c-.3 3.4 1.5 6.2 3.4 7 .6.2 4-1.4 4-4.2-.8-3.8-7-7-7.4-2.8zm.8 1.1c0-2.1 2-3.5 5-.1s-4.2 8.8-5 .1zM403.7 118c-3 0-5.4 7.4 1 7.4 5.4 0 2.8-7.3-1-7.3zm1 6.5c-4.4 0-3.6-5.5-1-5.5 2.9 0 4.8 5.4 1 5.5zM387.8 77c-4.4-.5-5.1 8.5.4 8.3 1.4 0 3.4-2.3 3.4-4 0-2-2.1-4.2-3.8-4.2zm-2.6 4.3c-.1-5 5.3-4.2 5.5.4.1 3.7-5.5 3.3-5.5-.4zm73 15.2c-4-.3-6.2 8 .2 8.3 4.1-.2 5.7-8-.2-8.3zm0 7.3c-4.7-.4-3.7-6.9 0-6.7 4.5.3 3.7 7 0 6.7zM444.9 69c-.7-.6-2.8 1-4.1 2.5-.8.8 0 3.8.2 4.2 1.5 5.3 11.4-.8 3.9-6.8zm-1.3 8c-3.2 0-3.1-6.7.2-6.6 4.5 0 4.2 6.6-.2 6.5zm-9.6 23.5c-6-3-6.7 6.2-1.7 6.3 2.5.2 3.4.5 4.4-2.4.7-2-1.1-3-2.7-3.9zm-3.1 5c-1.6-1-2.2-3.6 1.4-4.6 6.3.1 3.7 7.8-1.4 4.6zM493 87.9c-4.5 0-6.1 7.7-.8 7.5 2.3.3 4-2.1 4-3.5 0-1.8-1.8-4-3.3-4zm-1 6.5c-3.7 0-2.4-5.8.7-5.8s4.3 5.8-.8 5.8zm-124.3-4.8c.4 4.8 7.1 5.2 7.1 1.3 0-4.6-7.4-5.8-7-1.3zm2.1 2.4c-1.5-.8.7-1.1.3-1.7-.4-.9-1.7 1.2-1.7-.7.1-3.3 5.4-2.4 5.6 1 0 2.6-2 2.6-4.2 1.4zm114.7 27.5c-3.9 0-4 5.8.1 5.8 4.5 0 3.3-5.7-.1-5.8zm0 4.4c-2 .2-3.2-3.3 0-3.3 1.6 0 3.8 2.8 0 3.3zm-78.6-18.1c-1.5.5-2.7 4-2 5.3 1 1.6 5.6 3 5.6-1.8-.1-2.7-2.4-4-3.6-3.5zm1.1 6c-3.4 0-2.3-5 0-5 1.5 0 3.3 4.9 0 5zm42.2 6.2c-4.5 0-3 6.3.6 6.4s4.1-6.3-.6-6.4zm2.4 3.3c-.4 3.8-4.2 1.4-4 0 .3-4 4.3-2.4 4 0zm9.6-38.3c-4.7 0-4.8 8-.3 7.9 6.4-.2 5-7.9.3-7.9zm0 7.1c-3.6 0-4.2-6.3 0-6.4s4.6 6.5 0 6.5zM397 70.3a3.6 3.6 0 007-1.7c.5-4.4-8.6-2-7 1.7zm3.8 1.1c-4 0-3.7-4.4.7-4.3 3 0 2 4.4-.7 4.3zm54.5-2.4c-8.7 5.7 2.7 10.5 2.7 3-.1-1.4-1.4-3.8-2.7-3zm-1.8 2.5c1-1.3 3.5-2.7 3.7 0 .4 6.6-5.9 2.6-3.7 0zm31.9 5.3c-4.3-2.2-5.8 6.3-.2 7 4.2-.1 4-5 .2-7zm-.2 6c-4.5-.3-3.3-7.7.5-5.2 2.1 1.4 3.1 5.4-.6 5.3zM401.3 132c-.4.6-1.9-.7-6.9-1.2-1.6.2-1.2-1.2-.3-1.5 2.2-.7 2 1.7 4 .4 1-.7 4.2-.2 3 .8s.6 1 .2 1.6zM384 93.2c-3.5-1.4-5 5 .3 5.1 2.3 0 4.6-3.3-.3-5.1zm0 4.3c-3 0-3-4-.8-3.9 2.9.1 4 4 .7 4zm89.7-15.3c-2.7-.2-3.4 5.2-.2 5.4 4.6.3 4-5.1.2-5.4zm-1.6 2.4c0-2.2 4-1.5 4 .4s-4 3.1-4-.4zM405.4 77c-3 0-4 5 .6 5 4.3 0 2.3-5-.6-5zm.4 4.2c-3 0-2.7-3.4-.4-3.3 2.1.1 3 3.2.4 3.3zm45.5 6a2.7 2.7 0 00-3.5-2.7c-.8.3-1.8 3.1-1.5 4.2.4 1.7 5.4 1.7 5-1.5zm-4 0c0-3.5 3.5-2.3 3.6 0 0 1.6-3.6 3.1-3.6 0zm-19 115.8c-1.3-.4-1.5-1.7.8-1.7 2.5.2 1.2 2.4-.9 1.7zm-23.8-24.4c0-.8.7-.5 1-.6 3.4.4-1.1 2.7-1 .6zm47.8-4.8c-1.5 0-1.5-1.4 0-1.3s1.3 1.3 0 1.3zm-46.8-3.6c-1.2 0-1.1-1.2 0-1.2s1 1 0 1.2zM385 261.9c-1.7 0-4.5-1.2-4.2-2.4.2-.9 5-.4 6 0 2.2.7-.4 2.7-1.9 2.4zm.1-7.3c-1.7.2-4.9-.8-4.8-1.1s3.8.5 5.1.5 2.3-1.2 5.2 1c.3.2.6.6.4 1-.4.4-2.4-2-5.9-1.4z"/><path d="M375.1 252.9c-1.7-.4-2 .1-2.1-.4-.2-2 13.7 2.7 2.1.4zm101.3 9.1c1.4 0 4 1.2 2.3 2-5.6 2.4-7.8-2.2-2.3-2zm21.8-14.2c-3.6-1.4 3.8-5 4.7-2.6.5 1.4-3.1 2.4-4.7 2.6zm-68.5 14.6c-4-.4-.8-3.4 4-2.7 2 .4-.3 2.6-4 2.7zm-17.3 1.1c0 .3-.2.8-.5.7-1 0-5 1.6-5.3.3s6-2.2 5.8-1zm43 4.2c-2.6 0-3.5-1.8-2-2.1 1-.3 2-.8 3.2-.3.5.2 1.3-.1 2 .2 1.2.6 1.4 1.9-3.2 2.2zm-78.6-22.4c1.3-.1 6.5.7 6.3 2s-5.5.4-7.4-.1c-1.5-.5-1.9-2 1-2zm31.8 1.7c-4 1-3.8-4.9 4.3-2.4 2.3.6.3 1.8-4.3 2.4zm23.9 4.3c-1 .2-1.7 0-2-.8-.7-2.4 16.5-1.6 2 .8zm64 11.2c-4.2-.2 3.7-5.9 4.9-3.4.7 1.7-4.7 3.4-5 3.4zm-40.9-12.4c-4.9-1 4.9-4 5-1.9.2 1.3-3.4 1.7-5 2zm39.6-15.5c-3.7 0 1.9-4.7 2.5-2 .3 1-1.7 2-2.5 2zM478 249.8c-3.2.3 1-3.5 3-3 1.4.3-1.2 2.3-3 3zM407.2 235c1.2-.3 2 1 .3 1.8-5 2-4.8-2.3-.3-1.9zm25 4.7c-5.2-.4-.4-2.7 1.7-1.5 1.1.6 1.1 1.3-1.7 1.5zM401.4 227c-.4-.2-1 .2-1.1-.5s.4-.8.9-1c3-1 2.6 1.4.2 1.4zm48 12.3c-1 0-1.9-.9-.5-1.7 2.3-1.4 5.1.7.5 1.7zm-15.1-15.7c-2.2-.1-1.6-1.7 0-1.7 2 0 2.3 1.6 0 1.7zm-54.4 11.6c-5.8-.6-.6-3.3 1.5-1.8 2.4 1.8-1.5 1.6-1.5 1.8zm90.6-2.8c-.9.3-1.1-1-.4-1.5 2.8-1.5 4.3.5.4 1.5zm-17.3-2.1c2.1.2 1 2-.6 1.8-1.2 0-1.6-1.6.6-1.8zm-24-1.3c-2 .2-2-1.5-.5-1.4 2.3 0 1.7 1.8.5 1.5zm24.5-16.1c-3.4-.1-.1-2.8.9-2.2 1.7 1.2 1.1 1.8-1 2.2zm-73.7 8.4c-3.7 0 1.1-2.7 1.3-.7 0 .7-.6.7-1.4.7zm116.4 1.8c4.3.3-1.5 3.9-2 2.2-.5-1.4 1.1-2.2 2-2.2zm-119.1 3.4c3.9 1.3-1 2.2-1 .6-.1-.7.6-.5 1-.6zm31.1-7.2c3.5 0-.8 3-1.5 1.2-.3-.8.8-1 1.5-1.2zm-4.4-11c-3.7-.8 1.7-2.9 1.6-1 0 1.2-1 .8-1.6 1zm-21.4 6c-.7-.3-1.8-.2-1.8-1 .2-1.2 5.8-.2 1.8 1zm67.5 9.7c3.3.5-1.4 3.2-2 1.3-.3-1.2 1.8-1.3 2-1.2zm24.9-.3c4.2.2-2 3-1.6.7.1-1 1.5-.6 1.5-.7zM382.5 198c-.6-.1-1.6 0-1.7-.8s.9-1 1.5-1c1.8 0 1.9 2.1.2 1.9zm-1.9 6.4c2.3.2 2.5 1.8.1 1.8-1.8 0-1.5-1.8-.1-1.8zm91.5 11.8c2 0 1.8 1.7-.6 1.7-1.6 0-1-1.5.6-1.7zm-37.6-4.7c-.2 0-2.1-.8-1-1.3.7-.3 1.3-.9 2.1-.5 1.5.8.5 1.4-1.1 1.8zm60.8-6.2c1.6.3.8 1.5-.6 1.7-1.1.2-1-1.8.6-1.7zm-42.7 14.1c-1.4-.1-1.8-2 .1-2 .8 0 1.5.1 1.5 1s-1 .7-1.6 1zm-46.7-24.2c-1.4 0-1-1.4.3-1.3.4 0 1-.2 1 .5 0 .8-.8.7-1.3.8zm25.3-49.2c0 .4-.9.2-1 0-.1-.2.8-.4 1 0zm1.8.7c-.7 0-.6-.5-.3-.5.6.2.8.4.2.5zm-29.3 67.5c-.4 0-1.1.2-1-.5 0-2.5 4.7.2 1 .5zm92.7-14.7c1.6.2.7 1.4-.2 1.6-.7.1-1.4-1.3.2-1.6zM477.3 210s.8-.4.9.3-.5.8-1.1 1c-4.7 1.2-2.3-2 .2-1.3zm-5.1-4.7c0-1.2 3-1.5 3-.2s-3 1.3-3 .2zm24.4 7.1c-2-.4-1.4-2 .3-2.2 1.2 0 2 2.2-.3 2.2zm-64.9-39.1c-1.3-.1-1.4-1.4.5-1.6 1 0 .8 1.4-.5 1.6zM409.9 200c.9-.3 1.9 1 1.2 1.3-4 2.1-4.2-2-1.2-1.3zm-3.4-10.5c-3.5-.4 1.5-3.2 1.5-.7 0 1-1 .4-1.5.7zm47.3 9.3c.5 0 1.2-.2 1.3.5.3 1.3-1 .9-1.6 1.2-1.4.8-2.6-1.4.3-1.7zm42-12.5c-1.4 0-1-1.5 0-1.5s1 1.4 0 1.5zm-86.8-1.9c-3.6-.7 1.7-2.6 1.4-.7 0 .8-1 .6-1.5.7zm23 12.6c-3.7-.4 1.5-3.3 1.4-.8 0 .8-.8.6-1.3.7zm-48.5-9.7c-1.3 0-1-1.4 0-1.3s1 1.5 0 1.3zM497 175.1c2.4.7-1 2.6-1 .7 0-.8.8-.4 1-.7zm-24.8 1.6c-1.2.2-1-1.3.3-1.4 1.7 0 1 1.5-.3 1.4zm-20 .5c3.8.6-1.7 2.8-1.6.6 0-.5.5-.5 1.6-.6zm-1.2 6.4c-1.4 0-1.3-1.8.2-1.8s2 1-.2 1.8zm-20-7c.8 0 1 1.6-1.1 1.9-1.4.1-1.6-1.8 1.1-2zm-47 5.4c-.6 0-1.3-1.7.6-1.9 1.1-.1 1.7 1.7-.5 1.8zm112.4 7.4c1.3.2.4 1-.4 1s-.9-.5.4-1zm-44.6 3.2c-1.3.1-1.5-1.6-.3-1.4.7.1 1.7-.4 1.8.5s-1 .7-1.5 1zm-68.2-19.2c-2.5-.8 1.1-1.7 1-.5 0 .6-.7.3-1 .5zm92.2 6c1.2 0 1 1.2-.3 1.3-1 0-1.1-1.3.3-1.3zm16.9-68.1c.8 0 1 1.5-.4 1.6s-1-1.6.4-1.6zm-16.7-.9a.9.9 0 01-1.7 0c0-.9 1.2-1.4 1.7 0zM429 82c.8 0 .6 1-.2 1s-.5-1 .2-1zm45.3 14.9c-1.2 0-.8-1.2 0-1.3s1.2 1 0 1.3zm-42-30.6c-.2-.3-.2-.2 0-.4.2.2.2.1 0 .4zm12.9 46.2c-1-.2-.9-1.1.2-1.2.8 0 .8 1.2-.2 1.2zm-50.8-19.2c-.2.8-1.3.8-1.2.2s1.1-.8 1.2-.2zm109 8c-1.1 0-.9-1.2 0-1.3s1 1.3 0 1.3zm-84.8 6c0 .8-1.5 1.4-1.5.3 0-.8 1.4-1.4 1.5-.3zm10.7 10.7c1 .2 1.2 1.4 0 1.5a.7.7 0 110-1.4zM416 65.2c-.1 1.1-1 .7-1 0-.1-.6.9-1.2 1 0zm27 32.1c0 .8-1.3.8-1.3 0 0-1 1.4-.8 1.3 0zm-45.6 12.9c-.6 1.5-1.9 1-1.9.3 0-1 1.6-1.4 1.9-.3zm66.8 9.2c0 1-1.5.6-1.5-.1s1.3-1 1.5.1zm4.1-46.8c-.3.5-1.9 1.2-1.6.1a.8.8 0 011.6-.1zm17 28.6c.7.2.7.9.2 1s-.7-.7-.2-1zM417 122.4c-1.3-.2-1-1.2-.2-1.3s1 1.1.1 1.3zm-10.2-30.1c-1.4 0-1.1-1.2-.2-1.4s.6 1.3.2 1.3zm96.8-4.3c-1 0-.7-1.3.2-1.2s.9 1.3-.2 1.2zm-99.1 33a.6.6 0 11-1.1 0 .6.6 0 011.1 0zm-17.1-40.4c-.3-.2-1 0-1-.7s.6-.4 1-.4c.8 0 1.2 1.1 0 1zm71.1 20.1c-.1 1-1.4 1-1.4.2s1.3-.8 1.4-.2zM443 72.6c0 .7-1 .6-1 .1s1-.9 1 0zM431.6 104c-1.3-.1-.7-1.2 0-1.2 1 0 1.4 1.3 0 1.3zm61.9-14.2c1 0 .3 1.4-.4 1.5-.5 0-.7-1.1.4-1.5zm-86 18.3a.8.8 0 01-1.6.2c0-.7 1.4-1 1.6-.2zm41.8 11.9c.5 0 .6.8 0 .8s-.8-.6 0-.7zm14.1-32.3c-.1.8-1.2.8-1.2.3 0-.7 1-1 1.2-.3zm-62.6-19.4c.2 0 .7-.2.7.2 0 .7-.7.5-1.1.7s-1-1 .4-1zm54.5 4.5a.4.4 0 110 .8c-.8 0-.6-.8 0-.8zm29.7 7.6c.7 0 .8 1 0 1-.7 0-1-1 0-1zm-101.7 15c-.7-.2-.6-1 0-1s.9.7 0 1zm91.9-11.2c0 .8-1.3 1-1.2.3s1.1-1.1 1.2-.3z"/><path d="M228.7 325.5c-1.4 0-14.8-143.3-15.2-148.6-4.6-5.2-6.4-12.9 7.2-11.8s28.5-3.8 41.9 2c9.5 4.2-4.3 5-9.5 137.8-2.6 67.8-1.3-49.1-3.9-73.2-.2-2.4 1.3 1.2 2.8-.7 1.9-2.3-.3-4-1.4-3.3-2 1.3-1.4-.1-1.7-3-.9-7.2-2.5-36.7-9.2-37.1-10.7-.7-11 126.5-11 137.9zM219.8 171a3 3 0 106-.1c0-4.4-6-4.6-6 .1zm30.4 42.4c3.5.2 3-4.7.3-4.5s-2.4 4.5-.3 4.6zm-18-28.7c4.4 0 3.8-7.2-.2-7.1s-4.6 7.1.2 7zm20.6 16.9c-4.2 0-4.2 6.8.2 6.8 4.2.1 4.4-6.8-.2-6.8zm.5-14.8c0-4.8-6.2-5-6.2 0 0 4.9 6.9 3.8 6.2 0zm-23.4 37c0-4-5.4-4.3-5.5.3 0 3.5 5.5 4.5 5.5-.3zm23.6-.7c4 0 3.7-5.9 0-5.9s-4.2 5.9 0 5.9zm-25.4-9.7c0-3.7-5-3.1-5.2 0 0 2.7 5.2 4.5 5.2 0zm33-41.2c-3.7 0-3.6 6 .2 6.2 3.1 0 4.3-6.2-.2-6.2zM231.4 196c0-4.3-5.4-4-5.4-.3 0 4.4 5.4 4.4 5.4.3zm17.7-20.8c4 0 3.8-6.1.2-6-3.8.1-3.8 6-.2 6zm-27 13c0 3.7 4.7 2.8 4.5 0-.2-3.3-4.5-3.1-4.5 0zm13.2-18.2c3 .5 2.7-4.8-.1-4.8s-3.7 4.8.1 4.8zm-5.4 71.7c.1-2-2.8-2.3-2.9.3 0 2.1 2.9 2.5 2.9-.3zm22.8-73.1c0 3.7 4.5 2.8 4.5 0a2.2 2.2 0 10-4.5 0zm5.5 30.6c0-4.3-4.5-3.4-4.5-.6 0 3 4.2 3.5 4.4.6zm.1-14.6c-3 0-3.1 5 .5 4.7 2.4-.3 2.5-4.7-.5-4.7zm-14.4-1c2.5.1 3.3-4.1.5-4.9s-4 4.7-.5 4.8zm8.8-4.4c0 3.3 4.5 2.6 4.5 0 0-3.1-4.5-3.9-4.5 0zm-30.6 23.3a1.8 1.8 0 103.7.2c0-3.2-3.8-3.2-3.7-.3zm27.3-7.8c-2.2-.4-2.4 4 .1 4s2.4-4.4 0-4zm-18-20.2c.4-2.7-3.4-3-3.6 0-.1 2.6 4 2.6 3.6 0zM234 189c2.4.3 2.8-4 0-4-2.4 0-2.7 4 0 4zm-8.8 46.8a2 2 0 103.8-.2c0-2.1-3.3-2.8-3.8.2zm4-44.9a2 2 0 10.1-3.9c-2.2-.2-2.3 4.2-.2 3.9zm23.7 46.9c3 0 2.8-4.2.5-4.1-2.8 0-2.3 4-.5 4zm-12.6-60c-.2-3.2-3.6-2.5-3.6.1 0 2.3 3.9 2.6 3.7 0zm-.4-8c-.2 2.4 3.8 2.7 3.7-.3a1.8 1.8 0 10-3.7.3zm11.3 77.6c-.1 2.5 3.9 2.8 3.6-.5a1.8 1.8 0 00-3.6.4zm-19.8-40c.3-2.6-3.4-2.8-3.6 0-.2 2.5 3.8 2.4 3.6 0zm16.3-42c.2-2.6-3.7-2.3-3.7-.2 0 2.6 3.5 3 3.7.2zM219 180.2a1.8 1.8 0 003.6.2c.1-3.3-3.5-2.7-3.6-.2zm37.1 32c-2.5-.2-2.6 4 .2 4 1.9-.1 2.4-3.8-.2-4z" fill="#72bae1"/><path d="M252.5 325.3c-5.5 0-4.2 2.7-4.1-13.5 0-12-8.3-14-1.7-26.2 3.6-6.8-2.1-17-1.8-22 0-.4 1.2-3.5.3-3.9-.6-.2-1.5 1.3-1.5 1.6-.7 13.6-.7 4.1 1.4 14.6 1 4.6-2.2 11-2.7 11.1-1 .1-1.7-9.7-2-11.2-1.9-12 4.9-20.8 5.3-34.1.5-17-5.3-29.3-6.3-28.7-2.5 1.2 4.3 5.7 3.3 25.4-.3 5.8-.2 5.6-1.8 1-3.8-10.7-3.8-6.8-3.6-6 3.2 11.7 4 13.3 3.5 16.9-1.2 7.8-10.4 19.8.4 54.3 2 6.5 1.7 10.9 1 20.7-2.6 0-1.2 0-2.2-1-6.2-6.2 1.3-13.7-3-21.4-1-2-2-.8-1.3.7 1.9 3.8 0 8.6-1 14.7-1.2 7.8 9 7-7.4 7 .4-160.9 22.6-203.5 25.2 0z" fill="#b0e0f3"/><path d="M310.7 83.4c.4.2.5.9 1.6 1 0 0 .2.8 1.1.8 8.1 4.3 16 20.4 10.8 34.3-10 26.4-33.8 23.4-48.8 34.6-7.2 5.4-6.5 11-10 9.8-45.8-16.3-56.7 8.9-63.6.8-26.1-30.6-7-59.1-1-59.7 13-5.5 21.4 22 40 8.1 7.4-1.6 25.6-52.3 69.9-29.7zm-121.7 46c-.4 1.7 3.3 2 3.6 0 .4-3.4-3.6-3.6-3.6 0zm90.2 21.6c2.6-.6.6-5.3-2.3-4a2.5 2.5 0 00.5 4.8c1.2.2 1-.8 1.8-.8zm-47.2-2.7c-.2 2.4 1.9 3.4 2.9 2.9 1.5-.9 2-3.4-.5-3.8-1-.2-1.5 1-2.4.9.8-2.8-.8-5.1-3.3-5-6.5.3-3.7 11.1 3.3 5zm-31.5-23.5c0-4.5-6.4-4-6.6-.2-.2 4.7 6.6 4.5 6.6.2zm27.1-5.9c-4.9 0-4.2 6-.2 6s4.4-6 .2-6zm37.6 34.7c0-3.8-5.7-3.4-5.7 0-.1 3.7 5.6 4.2 5.6 0zm-59.8-22.2c4.3 0 3.7-5.5 0-5.6-3.4 0-4 5.6 0 5.6zm80.2-49.6c0-4-5.7-3.6-5.7-.2 0 3.8 5.7 4 5.7.2zm1.3 60.3c0 3.4 5.8 4.5 6.4.3 0-.3-.2-.8.2-1s.6.5.8.8c1.7 1.7 5 .3 4.4-2.1s-4-3-5 0c-.3 1-.8 1.1-1.2.2-1.5-3-6-1-5.6 1.8zm-41 12.7c3.4-.2 3.1-4.4 0-4.4a2.2 2.2 0 100 4.4zm-40-43.8c-5.5 1.4-.8 8.5 2.4 2.8 1-1.7 2 1.7 3.7-.8 2-3-3-4.4-3.7-1.4-.4 1.6-.4-.3-2.4-.6zm47.4 41c-4.2 0-5.1 6.7.2 7 1.6.2 3.7-2 3.7-3.4s-2.1-3.6-3.9-3.6zm28-20c-5.3 0-5 7.4 0 7.2 1.3 0 3.3-2.2 3.3-3.6a3.8 3.8 0 00-3.4-3.6zM321 99.5c0-5-7.5-4.6-7.2-.2.3 5 7.2 4.5 7.2.3zM291.3 85c0 4.9 7.4 3.8 7.2.3-.4-5.3-7-4.7-7.2-.3zm-52.7 36.3a2 2 0 10.2-4c-2.7 0-2.7 4.2-.2 4zM212 145.4c5.1 0 4.5-6.9.2-6.9-4.7 0-4.7 6.8-.2 6.9zm38-8.4c.2-2.5-3-3.5-3.7-1-1 3 2.8 1.6 1.6 3.8-1.5 2.5 1.2 3.4 2.4 2.7 3.5-2.2-1.5-3.1-.3-5.5zm62.5-27.5c-.5 3.6 7 5.3 7 0 .2-4.8-6.9-4.7-7 0zm-83.1 42.2c-4 0-5.1 6 .2 6 3.8 0 3.7-6-.2-6zM274.6 86c-5.2 0-4.6 7 0 6.9 4.5-.1 4.6-6.9 0-6.9zm.5 32.9c-4.1 0-4.1 6.2 0 6.2 3.9 0 4.4-6.2 0-6.2zm20.2-11.3c-3.6-.7-5.4 6.4 0 6.9 4.3.4 4.9-6.8 0-6.8zm-101.4 7c0 4.5 6.3 3.3 6.3.4.2-4.7-6.8-4.3-6.3-.5zm93.6 6.7c.3-4-6-4.2-6-.8 0 5.5 6 4.6 6 .8zm28 8.7c0-4.3-6.2-3.9-6.3 0 0 1.2 2 3 3.4 3a3.5 3.5 0 003-3zm-66.8-19.4c-5 0-3.8 6.4-.4 6.2 1.5 0 3.3-1.7 3.2-3 0-1.4-1.8-3.3-2.8-3.2zm-42 31.4c0-4.4-5.9-4-6 0s6 4.3 6 0zM313 114.5c0-4.5-6.2-4-6.1.5 0 3.4 6.1 3.9 6.1-.5zm-9.4 23a1.9 1.9 0 003.8-.4c.1-2-3.5-2.8-3.8.4zm-90.4-21a3.8 3.8 0 003.4 3.2c1.1 0 3.3-1.9 3.2-2.9-.2-4.6-6.5-3.4-6.5-.3zm36.5 11.3c4.8 0 3.7-6.5 0-6.5-4.3.1-5.5 6.6 0 6.6zm64.4-23.4a1.8 1.8 0 10-3.6-.1 1.8 1.8 0 103.6.2zM281 93c-3.4-.7-4.6 5.9.2 5.8a3 3 0 10-.2-5.8zm-84.3 53.3c4 0 3.9-6 0-6-4.7-.1-3.6 6.7 0 6zm20.2 2.5c0 3.8 5.6 4.2 6.1-.5.3-2.7-6.1-4.3-6.1.5zm66-44.3c-1-3-3.9-2-3.9-.2s2.3 3.3 3.9.2zm10.7 20.3c.4-2.2-3.5-2.5-3.5 0 0 2.4 3.8 2.3 3.5 0zm-11-11.4a3 3 0 10.1-5.8 3 3 0 100 5.8zM244 133.7c0-4.3-6.1-3.7-6.1-.2 0 4.4 6.1 3.6 6 .2zm-.6-5.6c2 .4 2.7-3.2-.7-3.4-1.8-.1-1.8 3.6.7 3.4zM288 89c-3.5 0-3 4.8-.1 4.8a2.4 2.4 0 100-4.7zm-88 64a3.3 3.3 0 00-2.6 2.5c0 .9 1.6 2.8 2.4 2.8s2.8-1.6 2.9-2.2a3.1 3.1 0 00-2.7-3.1zm61.5-21.5c4.2 0 3.6-5.6.2-5.6-4.6 0-4.1 5.6-.2 5.6zm34.5 1.9a2.4 2.4 0 100-4.8c-3.1 0-3.4 4.8 0 4.8zM261.2 114c0-1-1.4-2.7-2.3-2.6-1.2 0-2.8 1.6-2.8 2.7.1 3.2 5.2 3 5.1 0zm39.4-8.7c0-3.5-5-3.2-5 0s5.3 3.3 5 0zm4.8 13.5c-3.8 0-2.8 4.8 0 4.8 2.6 0 3.8-4.8 0-4.8zm-93.5 33c0-3.7-5-3.7-4.9-.3a3 3 0 002.4 2.5 2.9 2.9 0 002.5-2.3zm95-49.8c4 0 4.5-4.8.6-4.8-3.4 0-2.8 4.6-.5 4.8zm-80.1 31c0 3.6 4.9 3.1 4.9 0 0-3.2-5-3.3-5 0zm-20-25.2a2.3 2.3 0 10-4.7-.2c0 3.2 4.7 3.5 4.7.2zM303 129c0 3 5.1 3.3 4.9-.4-.2-3-4.9-2.6-4.9.4zm-89.1 31.1c0-3.6-4.7-2.8-4.9-.1-.2 2.8 5.1 4 4.9.1zm86.4-27c-3.5.6-3 4.9.5 4.7 3 0 2.8-4.7-.5-4.7zM220 160a2.4 2.4 0 100-4.8c-2.9 0-3.3 4.7 0 4.7zm103.6-43.6c0-3.4-4.9-3-4.9 0s5.2 3.1 5 0zm-13.4-21.6a2.4 2.4 0 100-4.8c-3.3 0-3.1 4.8 0 4.8zm-85.7 35.5c0-4.5-5.2-2.4-4.8 0 .5 3 4.9 3 4.8 0zm14 10.5c.5-2.7-4.5-2.9-4.8-.1-.4 3 4.9 4.2 4.9 0zm16.9-29.2c3.8 0 2.8-5-.3-4.7-2.7.2-3 4.8.3 4.7zM224.5 141c0-3.8-4.9-2.6-4.9 0 0 3.1 5 3.2 5 0zm48.1 0c0 3.8 4.8 2.6 4.9 0 0-3-5.1-3.6-4.9 0zm-74.2 8.4c0 3.1 4.7 3.7 4.8 0 0-1-1.4-2.6-2.4-2.5a2.8 2.8 0 00-2.4 2.5zm70-48c0 3.5 5 2.8 4.9 0a2.4 2.4 0 10-5 0zm-8.5 33.3c0-3.7-4.6-3.2-4.7-.2s5 2.9 4.6.2zm2.3-29.3c3.4 0 3-4.7 0-4.7a3.6 3.6 0 00-2.7 2.5c0 1 1.3 2.2 2.6 2.2zm2.2-13.3a2.4 2.4 0 00-.3 4.7c3.3.4 3.9-4.7.3-4.7zm-52.8 33.3a2.4 2.4 0 100-4.8 2.4 2.4 0 100 4.8zM305 96c0-3.2-4.8-3-4.9.1s5 3 5-.1zm-67.6 53.2c0 3.5 4.9 3.1 4.9.1 0-3.2-4.9-3.3-5-.1zm33.2-17c0-3-5-2.8-5 0 .1 3.5 5 3.1 5 0zm-4.3-21.1c.4-3-4.4-3-4 0 .3 2.3 3.7 3 4 0zm23-6.5c3.7 0 3-4.8.2-4.8-3.2 0-3.5 4.8-.1 4.8zm-3.2 23.7c-3.7 0-2.8 3.7-.5 4 2.5.1 2.7-4 .5-4zm-17.6-12.9c0 3.4 4.7 2.7 4.7-.3-.1-2.7-4.8-3.4-4.8.3zm32.3 8.4c.2-2.5-4.1-2.6-4 .1a2 2 0 104 0zM261.6 143c0-3.3-4.6-3-4.7.1 0 2.6 4.9 3.7 4.6 0zm-33.3-4.2c-3.7-.1-2 4.2 0 4 3-.4 2.5-4.5 0-4zm64-42.8c.1 3 4.2 3 4.1.4 0-3.2-3.5-3-4-.4zm11.4-11.2a2 2 0 001.8 2.3c.7.1 2.3-1.6 2.1-2.4-.6-2.7-4.3-2.3-4 0zM236.5 155a2 2 0 104 0c-.1-2.6-4.3-2.7-4 0zm21.2-54.8c3-.6 2.3-4-.1-4-3 0-2.5 3.8 0 4zm-50 62c-1.4-3.4-4.5-2-4.5-.3 0 3 3.5 3.2 4.4.2zm9-30.6c0-2.5-4.2-2.8-4 .3.1 2.8 3.8 2.6 3.9-.3zm51.3-8.3c0-3.4-3.9-3-4-.3s4.2 2.8 4 .3zm-17.3 27.5c3.5 0 2.8-3.9.6-4-2.9 0-2.9 3.8-.7 4zm33.6-6.7c-2.6-.4-2.6 4 .1 4 2.4-.1 3-4.3-.1-4zM273 130c3.3 0 2.6-4 .3-4a2 2 0 00-.3 4zm18.8 4.8c0-3.2-4-3.4-4-.5-.2 2.6 4.1 2.2 4 .4zm-2-21.7c-4.5 0-2 4.5-.5 4.1 2.6-.7 3-3.1.5-4.1zM207.1 154c-3 1-1.9 4 .4 4 2.6 0 2.5-3.8-.4-4zm-3.5-32.6c3-.2 2.4-4 0-4s-2.6 4 0 4zm90.5-3.2c0 3 4 3 4 .4 0-2.3-3.1-3-4-.4zm18.5 4c3 .1 2.6-3.9.1-4s-2.7 4.3 0 4zm-51.2-.7c-1-3-4-2.3-4.1.2 0 1.9 2.7 3 4-.2zm9.5-14c-.2 2.2 4 2.7 4-.3.1-2.4-4.2-2.6-4 .2zm51.6-1.1c3 .2 2.6-3.9.2-4-2.8 0-3.2 4-.2 4zm-105.2 48c0-3.5-3.9-2.3-3.8 0 0 2.6 4.2 2.8 3.8 0zm97-29.6c-.3 2.7 3.7 2.8 3.9 0 0-2.7-4.2-2.8-4 0zM278.6 112c0-2.6-4-2.5-4 0 0 2.7 4.1 2.6 4 0zm-76.4 25a2 2 0 10.1-4 2 2 0 00-.2 4zm42.8 6.3c.1-3-4-2.3-4 0s4.1 2.8 4 0zm27.3 7.7a2 2 0 10-4 .4c0 2.2 3.8 2.7 4-.4zm-7.4-12.4a1.8 1.8 0 000 3.6c3.2.1 2.6-3.7 0-3.6zM195 135c2.4.1 2.9-4 0-4a2 2 0 100 4zm110.2-28.4a2 2 0 00.3 4 2 2 0 10-.3-4zm-39.6 50.6c-2.5.6-2.2 3.8 0 4 2.9 0 3.2-4 0-4zM218.1 137a2 2 0 10-3.8-.2c0 3 4.3 2.4 3.8.2zm45.5 8c-3.4 0-2.4 3.7 0 3.7 2.5 0 2.2-3.8 0-3.7zm6-57a2 2 0 00-4 0c0 2.6 3.7 3.1 4 0zm-76.1 49c.2-2-3.7-2.1-3.8.3 0 2.1 3.7 3.3 3.8-.3zm41-8.7c2 .3 2.1-3.8-.3-3.7-2.2 0-3.2 3.6.3 3.6z" fill="#72bae1"/><path d="M279.2 165.6l66.3-26.7c-23.5-5.4-27.6-2.8 21.6-7.8-19.2 58-14.4 51.7-15.7 22.6z" fill="#72bae1" stroke="#231f20" stroke-miterlimit="10" stroke-width="1.6"/><path d="M228.7 325.5h-6.4v-58c-6.5-65.2-3.9-60.8-17.4-93.1-1.5-3.6 2.6-5.1 7-8z" fill="#72bae1"/><path d="M217.1 209.7c-5.7-23.2-4.4-15-6-36.1l4.2 1.7c2.3 19.4 1.8 11.7 1.8 34.4z" fill="#72bae1"/><path d="M290.9 76.7a36.4 36.4 0 0124 8.9 34.2 34.2 0 0111.5 23c-.5 15.6-7.7 25.7-22 30.7s-24.7 9.3-31.6 17.4c-6.7 7.9-9.5 18.7-12.3 35.8v.5c-4.8 51-7.5 94.6-8.1 133.2l-30.1-.7c2.4-115.4-10.4-139.4-21.7-160.6-4.9-9.2-9.1-17.1-12-32.4 1.3-15 5.5-24 12.5-26.3a16.9 16.9 0 015.1-1.2c1 0 1.4.1 3.8 2.7a33.8 33.8 0 0018.2 11.1l1.3.4 1.4-.3c12.6-2.3 20.3-12.8 25-20.5 8.6-14 21-21.8 35-21.8m0-6.3a47.3 47.3 0 00-40.4 24.8c-5.7 9.2-12.2 16-20.8 17.6-16-4-14.8-14-23.6-14a22.7 22.7 0 00-7.1 1.5c-10 3.4-15.4 14.6-16.8 32.7 9.9 54.2 37.9 26.5 33.6 198.8l42.8 1c.4-42.8 3.5-89.6 8.1-139.1 5.6-33.6 10.3-37.7 39.9-48.3 17-6 25.7-18.7 26.2-36.9a41.4 41.4 0 00-41.9-38z" fill="#244ea2"/><path d="M197.9 170.6c27.9-10.6 52.9-11.5 74.2-.5" fill="none" stroke="#244ea2" stroke-miterlimit="10" stroke-width="5.6"/><path d="M208 175.2c0 3.9 5.9 3.9 5.9 0s-5.8-3.8-5.8 0zm10 11.5a1.6 1.6 0 01-3.2 0 1.6 1.6 0 013.2 0z" fill="#fff"/></svg>