<svg xmlns="http://www.w3.org/2000/svg" viewBox="0 0 700 700"><path fill="#80caa5" d="M0 0h700v700H0z"/><circle cx="340.99" cy="443.05" r="90.74" fill="#fbb57f"/><path d="M175.6 320.82c-28-7.88-21.4-5-93.27-107.73-33.8-48.31-6.78-114.43 51.3-124.09 31.82-5.29 58.35 5.72 77.4 31.82 21.68 29.72 42.52 60.06 63.39 90.35 23 33.41-6.72 75.55-41.48 98 7.13 14.53 6.54 28.23-5.64 39.7-18.98 17.89-54.48 5.92-51.7-28.05zm71.9-128.08c-1.37-3.11-35.34-51.68-46.78-67.07C178.66 96 136.83 90.14 107 111.76a67.79 67.79 0 00-16.25 93.77c3.87 5.65 41.41 59.84 45.93 65 6.45-48.36 65.32-88.61 110.82-77.79zM271 237.3c1.71-60-107.75-37.39-122.22 29.77-7.2 33.4 27.15 47.73 32.89 40.35 9.92-12.74 26.08-16.09 40.09-8.32 2.43 1.35 4.25 1.5 6.32-.15 12.01-9.61 41.92-26.76 42.92-61.65zm-64.51 68.9c-26.85 0-26 40.12.14 39.82s26.06-39.84-.16-39.82zm260.74-.56c-27.35 25.88-62.12-11.93-39.43-36.39 7.28-7.84-12.61-22.66 4.82-53.08 17.19-30 33.7-60.4 50.48-90.63 34.52-62.21 125.61-52.43 145.73 15.62 11.87 40.15-4.54 57.54-59.79 156.1-18.91 33.74-67.58 28.04-101.81 8.38zm107.3-40.32c1.05-3.64 21.47-38.48 39.13-71.79 20-37.75-1.95-92.78-54.37-97.83-55.12-5.31-68.78 39-104.41 103.78 45.5-15.68 107.56 18.95 119.65 65.84zm-102.73-58c-48.49 7.51-36.57 54.22-27.88 53.55 19.87-1.52 32.7 12.74 29.68 32.63-.16 1.1.43 3 1.27 3.48 52.19 30.5 100.34 6.2 85.84-35.61-11.15-32.1-52.44-57.49-88.91-54.02zm-8.74 78.38c-2.09-20.31-33.12-17.76-31.27 3.19.74 8.36 8.73 14.87 17.21 14a16 16 0 0014.06-17.16zm-121.92 62.91c51.76.06 94.61 42.26 94.66 93.24.06 53.93-41.89 96.3-95.23 96.18a94.56 94.56 0 01-94.39-95.22c.08-52.08 42.59-94.26 94.96-94.2zm-.2 178.39a83.83 83.83 0 0083.75-83.62c0-46-37.64-83.71-83.7-83.69a83.66 83.66 0 00-.05 167.31zm138.53-116.19a32.47 32.47 0 1164.93-.1c-.06 42.77-64.87 42.86-64.93.1zm53.75-.29c-.17-28.2-42.59-28-42.59.05-.01 28.53 42.76 28.24 42.59-.05zM356.73 585c0-41.14 61.74-41.33 62-.19a31 31 0 11-62 .19zm11.1.14c.29 26.39 39.89 25.77 39.83-.25-.06-26.33-40.12-26.41-39.83.2zm-163.42-26.52a30.36 30.36 0 0160.71.08c-.12 39.93-60.69 40.3-60.71-.08zm30.12 19.18c25.59.2 25.74-38.3.15-38.29-25.16.01-25.59 38.09-.15 38.29zm93.6-301.54c37.36-.12 37.54 56.24.17 56.44a28.22 28.22 0 11-.17-56.44zm17.21 28.31c.21-22.58-34.3-22.95-34.23-.06.07 22.49 34.02 22.49 34.23.06zM193.88 491.25c-32.07.2-31.91-48.07-.2-47.94s31.65 47.74.2 47.94zm12.6-23.81c.16-17-25.43-17.27-25.65-.29s25.49 17.18 25.65.29zm258.91 60.67a24 24 0 01.19-48c31.69 0 31.86 48.12-.19 48zm-.18-11.18c17 .45 17.63-25.12.76-25.64s-17.7 25.19-.76 25.64z"/><path d="M247.5 192.74c-45.5-10.82-104.37 29.43-110.84 77.78-4.5-5.13-42.07-59.36-45.93-65A67.79 67.79 0 01107 111.76c29.85-21.62 71.68-15.76 93.74 13.91 11.72 15.79 45.45 64.09 46.76 67.07z" fill="#fcec98"/><path d="M271 237.3c-1 34.81-30.89 52-42.92 61.65-2.07 1.65-3.89 1.5-6.32.15-14-7.77-30.17-4.42-40.09 8.32-5.76 7.42-40.08-7-32.89-40.35C163.38 199.21 272.68 178 271 237.3zm-36.06 26.25c26.32-.16 25.59-39.71-.34-39.43s-25.92 39.59.32 39.43z" fill="#fcec98"/><path d="M206.47 306.2c26.22 0 26.36 39.52.14 39.82-26.06.29-27.04-39.8-.14-39.82z" fill="#fbb57f"/><path d="M574.53 265.32c-12.09-46.89-74.15-81.52-119.65-65.84 36-65.54 49.69-109.06 104.41-103.78 52.48 5 74.35 60.14 54.37 97.83-18.31 34.53-38.02 67.93-39.13 71.79z" fill="#fcec98"/><path d="M471.8 207.35c36.47-3.47 77.76 21.92 88.91 54 14.59 42.05-33.93 66-85.84 35.61-.84-.49-1.43-2.38-1.27-3.48 3-19.89-9.81-34.15-29.68-32.63-8.6.71-20.87-45.95 27.88-53.5zm40.26 56.38c2.73 24.13 39 19.86 36.24-4.26-2.76-23.92-38.98-19.93-36.24 4.26z" fill="#fcec98"/><path d="M463.06 285.73A16 16 0 01449 303c-8.48.84-16.47-5.67-17.21-14-1.79-21 29.21-23.62 31.27-3.27zm70.16 124.79c.17 28.31-42.6 28.57-42.59.05 0-28.09 42.42-28.14 42.59-.05zM367.83 585.09c-.29-26.6 39.77-26.53 39.83-.25.06 26.07-39.54 26.58-39.83.25zm-133.3-7.29c-25.45-.2-25-38.28.15-38.29 25.59-.01 25.44 38.49-.15 38.29zm110.81-273.23c-.21 22.44-34.16 22.38-34.23-.06-.11-22.87 34.44-22.51 34.23.06zM206.48 467.44c-.16 16.89-25.86 16.6-25.65-.29s25.81-16.74 25.65.29zm258.73 49.49c-16.94-.45-16.18-26.16.76-25.64s16.25 26.09-.76 25.64z" fill="#fbb57f"/><path d="M234.92 263.55c-26.24.16-26.22-39.15-.34-39.43s26.69 39.27.34 39.43zm8.42-19.71c-.07-11.4-17.45-11.22-17.15.32.3 11.18 17.22 10.84 17.15-.32zm268.72 19.89c-2.74-24.2 33.48-28.17 36.24-4.26 2.78 24.13-33.51 28.39-36.24 4.26zm25.26-2.81c-.91-9.31-15.22-7.9-14.29 1.41s15.2 7.97 14.29-1.41zM321.9 428.8c-19.72 6.79-27 11.18-29.26 4.05-1.86-5.79 1.47-7.25 34-17.28 16.37-5.05 4.43 18.14-3.92 55.12 21.51-7.4 26-10.72 28.93-4.45 3.1 6.73-3.08 7.86-34.95 18.26-5.28 1.72-8.74-2-7.29-7.69 4.59-18.02 6.74-25.61 12.49-48.01zm30.1-3.66a9.92 9.92 0 004.32-1.33c10.11-6.24 21.71-2.32 25.73 8.86 7 19.56 10.17 25.67 4 28-7.2 2.7-8.24-6.87-14.25-23.7-3.13-8.77-13.72-5.11-10.84 3.69 5.76 17.56 10.61 25.08 3.5 27.49-6.51 2.2-7.64-5.34-12.75-20.2 1.68-.59-12.96-21.84.29-22.81z"/><path d="M243.34 243.84c.07 11.18-16.85 11.5-17.15.32-.3-11.52 17.08-11.73 17.15-.32zm293.98 17.08c.91 9.38-13.35 10.79-14.29 1.41s13.38-10.72 14.29-1.41z" fill="#fbb57f"/><path d="M163.36 425.69a28.23 28.23 0 11-.23-56.45c37.38.15 37.27 56.22.23 56.45zm14.84-28c.19-20-29.95-20.34-30.21-.35s30.01 20.21 30.21.32z"/><path d="M178.2 397.66c-.19 19.89-30.45 19.55-30.21-.35s30.4-19.72 30.21.35z" fill="#fbb57f"/></svg>