<svg xmlns="http://www.w3.org/2000/svg" viewBox="0 0 1400 780"><path fill="#80caa5" d="M0 0h1400v780H0z"/><circle cx="689.42" cy="499.3" r="106.59" fill="#fbb57f"/><path d="M495.12 355.72c-32.89-9.25-25.13-5.86-109.56-126.55-39.7-56.75-8-134.43 60.26-145.77 37.39-6.21 68.55 6.72 90.93 37.38 25.47 34.91 49.94 70.55 74.46 106.14 27 39.24-7.88 88.75-48.72 115.14 8.37 17.07 7.68 33.17-6.63 46.64-22.3 20.99-64 6.93-60.74-32.98zm84.47-150.46c-1.6-3.64-41.51-60.7-55-78.78-25.91-34.86-75.05-41.74-110.12-16.35a79.64 79.64 0 00-19.09 110.16c4.55 6.63 48.65 70.3 53.95 76.35 7.67-56.8 76.78-104.09 130.26-91.38zm27.59 52.35c2-70.42-126.58-43.92-143.58 35-8.45 39.24 31.9 56.07 38.64 47.4 11.64-15 30.63-18.91 47.09-9.77 2.85 1.59 5 1.76 7.43-.18 14.12-11.31 49.24-31.47 50.42-72.45zm-75.79 80.94c-31.54 0-30.53 47.12.17 46.77s30.63-46.8-.17-46.77zm306.32-.66c-32.13 30.4-73-14-46.31-42.75 2.89-3.11 2.94-5.21 1.56-8.85-7-18.4-6-36 4.09-53.5 20.2-35.25 39.59-70.95 59.3-106.47 40.55-73.08 147.56-61.59 171.19 18.36 14 47.16-5.33 67.59-70.23 183.36-22.22 39.64-79.39 32.96-119.6 9.85zm126-47.36c1.24-4.28 25.23-45.21 46-84.34 23.51-44.35-2.28-109-63.86-114.92-64.75-6.24-80.8 45.81-122.65 121.91 53.46-18.42 126.35 22.27 140.55 77.35zm-120.67-68.1c-38.18 5.91-48.59 33.26-37.89 59.39 1 2.49 1.93 3.76 5.13 3.52 23.36-1.8 38.43 15 34.88 38.32-.2 1.3.5 3.51 1.49 4.09C908 363.58 964.56 335 947.52 285.92c-13.1-37.75-61.6-67.56-104.44-63.49zm-10.23 92.07c-2.45-23.86-38.9-20.87-36.73 3.75.87 9.82 10.26 17.47 20.22 16.48a18.8 18.8 0 0016.51-20.23zm-143.22 73.86c60.81.07 111.14 49.65 111.2 109.54.07 63.35-49.21 113.12-111.87 113A111.09 111.09 0 01578 499c.13-61.16 50.08-110.7 111.59-110.64zm-.23 209.53a98.48 98.48 0 0098.38-98.23c0-54.07-44.22-98.34-98.32-98.32a98.28 98.28 0 00-.06 196.55zm200.92-98.59a38.13 38.13 0 1138.09-38 37.91 37.91 0 01-38.09 38zm25-38.21c-.19-33.12-50-32.84-50 .06-.1 33.52 50.15 33.17 49.95-.06zM707.91 666c0-48.32 72.52-48.55 72.78-.22a36.39 36.39 0 11-72.78.22zm13 .16a23.4 23.4 0 0046.79-.29c-.03-30.87-47.1-30.96-46.7.29zM529 635.07a35.66 35.66 0 0171.32.09c-.21 46.91-71.32 47.31-71.32-.09zm35.38 22.53c30.07.23 30.25-45 .18-45-29.56.03-30.09 44.77-.21 45zM674.3 303.37a33.16 33.16 0 11.21 66.31 33.16 33.16 0 11-.21-66.31zm20.23 33.27a20.11 20.11 0 10-40.21-.08c.08 26.36 39.96 26.44 40.21.08zM516.61 555.92a28.16 28.16 0 11-.24-56.31c37.29.16 37.18 56.08.24 56.31zm14.8-28c.19-19.94-29.88-20.28-30.13-.34s29.94 20.22 30.13.42zm304.14 71.31a28.21 28.21 0 01.22-56.41c37.23.02 37.43 56.55-.22 56.41zm-.21-13.14c19.94.54 20.71-29.5.89-30.11s-20.79 29.58-.89 30.11z"/><path d="M579.59 205.26c-53.48-12.71-122.59 34.58-130.21 91.38-5.28-6-49.41-69.74-53.95-76.35a79.64 79.64 0 0119.09-110.16c35.07-25.39 84.21-18.51 110.12 16.35 13.78 18.52 53.41 75.29 54.95 78.78z" fill="#fcec98"/><path d="M607.18 257.61C606 298.5 570.89 318.74 556.76 330c-2.44 1.94-4.58 1.77-7.43.18-16.46-9.14-35.45-5.2-47.09 9.77-6.78 8.72-47.08-8.21-38.64-47.4 17.18-79.68 145.57-104.65 143.58-34.94zm-42.36 30.84c30.91-.19 30-46.65-.41-46.32s-30.41 46.51.41 46.32z" fill="#fcec98"/><path d="M531.39 338.55c30.8 0 31 46.42.17 46.77a23.63 23.63 0 01-23.63-23.63 23.36 23.36 0 0123.46-23.14z" fill="#fbb57f"/><path d="M963.75 290.53c-14.2-55.08-87.09-95.77-140.54-77.35 42.33-77 58.36-128.11 122.65-121.91 61.64 5.94 87.34 70.64 63.86 114.92-21.5 40.56-44.66 79.81-45.97 84.34z" fill="#fcec98"/><path d="M843.08 222.43c42.84-4.07 91.34 25.74 104.44 63.49 17.14 49.4-39.85 77.47-100.83 41.83-1-.58-1.69-2.79-1.49-4.09 3.55-23.36-11.52-40.12-34.88-38.32-10.1.77-24.51-54.04 32.76-62.91zm47.29 66.23c3.21 28.35 45.84 23.33 42.57-5-3.24-28.11-45.78-23.42-42.57 5z" fill="#fcec98"/><path d="M832.81 314.5a18.8 18.8 0 01-16.51 20.23c-10 1-19.35-6.66-20.22-16.48-2.17-24.55 34.28-27.65 36.73-3.75zm82.42 146.59c.2 33.26-50.05 33.57-50 .06-.02-33 49.77-33.06 50-.06zM721 666.16c-.35-31.25 46.72-31.16 46.79-.29a23.4 23.4 0 01-46.79.29zm-156.65-8.56c-29.89-.23-29.36-45 .18-45 30.06.01 29.89 45.23-.18 45zm130.18-320.96c-.25 26.35-40.13 26.28-40.21-.08a20.11 20.11 0 1140.21.08zM531.41 528c-.19 19.84-30.38 19.5-30.13-.34s30.32-19.66 30.13.34zm303.93 58.09c-19.9-.53-19-30.72.89-30.11s19.1 30.65-.89 30.11z" fill="#fbb57f"/><path d="M564.82 288.45c-30.83.19-30.81-46-.41-46.32s31.35 46.13.41 46.32zm9.89-23.16c-.08-13.38-20.51-13.18-20.15.38.35 13.13 20.23 12.76 20.15-.38zm315.66 23.37c-3.21-28.43 39.33-33.09 42.57-5 3.27 28.34-39.36 33.34-42.57 5zm29.63-3.31c-1.06-10.93-17.87-9.27-16.78 1.66s17.89 9.37 16.78-1.66zM667 482.57c-23.16 8-31.68 13.13-34.37 4.75-2.19-6.8 1.73-8.52 39.9-20.29 19.23-5.93 5.21 21.3-4.61 64.75 25.28-8.69 30.6-12.6 34-5.23 3.64 7.9-3.61 9.24-41.06 21.45-6.19 2-10.26-2.35-8.56-9 5.39-21.2 7.93-30.12 14.7-56.43zm35.35-4.31a11.59 11.59 0 005.08-1.55c11.87-7.33 25.5-2.73 30.22 10.41 8.26 23 12 30.15 4.66 32.89-8.45 3.17-9.67-8.07-16.74-27.84-3.68-10.31-16.11-6-12.73 4.33 6.77 20.63 12.46 29.46 4.11 32.29-7.65 2.59-9-6.27-15-23.73 2.05-.69-15.17-25.65.4-26.8z"/><path d="M574.71 265.29c.08 13.13-19.8 13.51-20.15.38-.36-13.53 20.07-13.78 20.15-.38zM920 285.35c1.07 11-15.67 12.68-16.78 1.66S919 274.42 920 285.35z" fill="#fbb57f"/><path d="M480.76 478.92a33.16 33.16 0 1132.88-33.57 33.13 33.13 0 01-32.88 33.57zM498.19 446c.22-23.49-35.19-23.9-35.49-.41s35.3 23.77 35.49.41z"/><path d="M498.19 446c-.23 23.36-35.78 23-35.49-.41s35.71-23.18 35.49.41z" fill="#fbb57f"/></svg>