<svg xmlns="http://www.w3.org/2000/svg" viewBox="0 0 1400 780"><path fill="#919191" d="M0 0h1400v780H0z"/><path d="M842 465.78c-.54 2.9.29 1.84-41.08 8.34-3.82.6-3 2.63.52-26.33.05-.45.46-4.84-.11-5.14-.85-.44-49.07 48.34-49 48.67.83 2.4 73.68-10.19 74.08-10.26 76.43-11.82 142.42-13.65 197.76 42.6 20.25 20.58-9.62 49.34-29.56 30.41-12-11.38-11.29-10.92-13.81-8.39-127.5 127.61-128.34 126.61-125.64 129.44 2.91 3.07 5.66 6.29 8.6 9.33 20.45 21.17-10.86 48.71-29.33 30.63-39.52-38.71-54-87.87-50-143.05 2.28-32 1.94-30.23 6.82-31 14.36-2.36 24.76-3.84 36.84-6 4.08-.72 3.19-1.12.39 20.51-.24 1.87-2.79 25.12-1.52 25.61.81.31 1.6 1.49 63.8-63.18 7.93-8.24-109.53 17.26-159 17.29-74.81 0-130-36.57-159-93.54-20.16-39.64-20.33-82.87-14.94-126.78.52-4.28 1-2 41.68-9.15 3.64-.64 2.1.35-1 27.16-1 8.47-3.76 9 48-42.81.37-.47 1.19-.8.85-1.53-.27-.57-1-.32-1.53-.33-56.72-.39-185.46 56.66-270.43-32.35-19.34-20.26 9.8-49.16 29.94-30 10.94 10.42 11.24 11 13.5 8.71 127.77-128 128.7-126.81 126.1-129.61-2.87-3.1-5.62-6.33-8.56-9.36-20.54-21.13 10.44-49.24 29.52-30.43C605.15 103.93 619.45 153 615.54 208c-2.28 32.13-1.82 30.18-7.08 31-17.15 2.81-28.13 4.29-35.87 5.81-5.1 1-3.75 1.25-1.06-20.44.18-1.41 2.75-25.12 1.53-25.61-.64-.26-64.54 63.23-64.11 64.17.94 2.05 37.82-3 41.9-3.6 53.79-8.13 111.14-21.81 163.23-10 97 21.97 146.19 117.13 127.92 216.45zm-188.16 5.06c1 0 1.53-.79 2.13-1.4q8.67-8.61 17.3-17.24 24-24.07 48-48.15 29.12-29.13 58.28-58.19c1.43-1.42 1.45-2.47.28-4.08a144.36 144.36 0 00-31.48-31.57c-1.79-1.31-2.9-1.22-4.45.35-7.52 7.61-15.16 15.09-22.72 22.66q-30.37 30.4-60.71 60.85-19.86 19.93-39.77 39.79c-1.21 1.21-2.14 2.19-.8 4a142.48 142.48 0 0032 32 3.42 3.42 0 001.93.98zM483 262.77c2.14.34 3.12-1.11 4.21-2.2q17.72-17.67 35.38-35.37 24.28-24.31 48.56-48.6a4.59 4.59 0 001.56-4.42c-.83-5-1.43-10.1-2.51-15.09a117.66 117.66 0 00-12.78-33.87c-1.35-2.35-1.39-2.36-3.35-.41l-34 34-87 87c-2.08 2.08-2.06 2.25.51 3.71a116.27 116.27 0 0023.92 10.2 144.6 144.6 0 0025.5 5.05zm344.09 344.12c.94 4.93 1.45 10.4 2.61 15.8a122 122 0 0012.45 33.49c1.65 3 1.74 3 4.16.58l82.62-82.64q19.14-19.12 38.26-38.27c1-1.05 2-1.88 0-3a122.88 122.88 0 00-22.51-9.89 149.63 149.63 0 00-26.16-5.56 5.92 5.92 0 00-5.69 1.84q-27.51 27.67-55.12 55.25-14.22 14.22-28.45 28.42c-1.01.96-2.33 1.8-2.17 3.98zM597.44 368.3a72.44 72.44 0 00.59 9.19 129.18 129.18 0 0010.46 40.56c1.35 3 1.45 3.05 3.77.74l30.3-30.29L729 302c2.05-2.05 2-2.18-.56-3.35-17.06-7.67-35-11.1-53.65-11.42a4.34 4.34 0 00-3.38 1.4q-35 35.07-70.1 70c-3.01 3.04-4.95 5.95-3.87 9.67zM720.6 492.75c1.44 0 2.88-.09 4.31 0a4.53 4.53 0 003.79-1.58Q764.79 455 801 418.88a5.37 5.37 0 001.68-4.22 147.46 147.46 0 00-1.94-21.19 123 123 0 00-9.45-32c-1.16-2.63-1.21-2.61-3.29-.53q-33.39 33.33-66.76 66.65-25.07 25.07-50.05 50.18c-2.3 2.31-2.3 2.33.78 3.73 15.43 6.99 31.77 10.21 48.63 11.25z" fill="#141414"/></svg>