<svg xmlns="http://www.w3.org/2000/svg" viewBox="0 0 1400 780"><path fill="#9b9b9b" d="M0 0h1400v777.84H0z"/><path d="M0 779.18v-221c0-29.71 59.25-26 55.68 8.63-1.07 10.4-6.54 20.42-8.06 30.83-.83 5.73 2.27 11.94 4 17.84.68 2.28 18.63-1.5 21-2C93.81 609.2 99.19 620 106 628.77c3.33-17.12 6.71-32-6.11-47.2-21.32-25.36-38.16-53-43-85.06-1.1-7.28-4-14.35-5.23-21.63-1-5.84-.6-11.85-1-17.78-1.41-24-5.34-27.59 15.22-31.27 11.09-2 12.18-.31 12.94 9.55.53 6.81-1.55 11.79-7.89 15.84-8.51 5.42 1.88 12.75 3.17 16.2 14.51 38.94 19.26 66.4 48.82 80.89 13.94 6.84 17.37 15.83 32.25 9.1-6.89-9 .31-.29-23.09-26.49-10.14-11.34.5-39 17.3-45.83 30.94-12.59 47.78 3.49 58.33 10-4.12-15.8-9.55-22.33 3.2-32.54 2.68-2.15 2-5.29 2-45.15h89.39l3.06 32.28c1 10.73 19.37 16.46 14 29.5-1.62 3.95-2.35 9.43 4.73 12.32 2.36 1 3.55 4.71 4.64 7.38 6.85 16.8 23.33 47.88 16.57 75.54-1.43 5.84 3.12 6.25 6.87 7 4.53.85 10 1.3 11.6-4a15.92 15.92 0 00-4.28-16.74c-9.58-9.5-6.89-26.85 5.35-33.7 3.13-1.76 8.26-3.92 8.39-6.08.4-7.14 0-14.62-2.07-21.5-4.14-13.63-14.89-29.62-9.87-29.28a37.6 37.6 0 016 1.24c.16-2.77 6.8-10.1 10-9.7 2.38.29 4.45 2.49 7 4.06 2.22-9.69 2.44-14.15 6.94-20.93 3.24-4.88 1.78-12.15 2.49-19.54h-62.2l-8.31-112.35 184-8.07-9 122.08c-5.71 0-33.7.35-91.38-1.19-9.8-.26-7.3.69-7.3 38.21l5.37-1.6c1.7 28.24-6.51 16.66-7.72 39.36-.66 12.56-2.9 25.4 9 35.13 28.45-24.13 20.94-15.53 20.1-30.5-2.07-36.86 59.91-31.58 68.45 12.42 3 15.41-4 22.83-24.15 26.94l6 24.83c4.78-7.35 11.64-15.78 17.56-19.84 11.67-8 39 1 44 27.2.84 4.39-.59 9.11-1 14.18l27-2.41c-41.18-59.81-47.42-47.17-31-92.47 8.62-23.84 8.64-22.37 8.74-25.54.67-21.25 18-20.5 40.64-24.68-5.17 11.48-7.45 22.21-19.63 27.83-9.67 4.46-13.7 54.93 16.79 74.23 19.29 12.2 31.46 2.42 39.22 12 .89 1.11 7.71.57 8.46-.71 6.76-11.57-3.54-13.72-5.4-17.71-2.09-4.48-2.89-9.45-3.95-14.26-.36-1.65.86-3.71.16-5.13-4.87-9.9-3.12-17.17 5.78-25.88 7.1-6.94 15.27-5.39 22.41-6.77 7.55-1.46 15.41 2.74 21.78 8.78 5.4 5.12 6.25 9.74 5.55 15.86-.71 6.35.14 12.87-1.07 19.12-1.61 8.28-9.59 8.49-5.13 33.44.8 4.49 14.05 9.94 21.23 9.64 2.53-.1 5-.63 8-1-3.27-28.47-2.4-28.57-7-32.68-8.76-7.84-5.07-22-4.33-22.45 9.76-5.7-.54-13.23 6.19-37.45 19.81-71.28 24.73-81.74 36.73-106.86 1.4-2.94 5.25-6 8.72-7 8.54-2.38 18.09-6.43 25.46 1.88 15.19 17.12 9.13 21.76-.45 26.93-30.24 16.34-18.78-.43-39 97.5-1.24 6-1.26 10.76 5.07 15.2 3.63 2.54 5.46 7.46 7.14 11.6 9 22.27 6.94 31 23.49 41.29 21.45 13.29 22.35 17.79 27.93 12.78 27.28-24.52-1.2-20.51 7.83-46.41.49-1.4 4.39-1.88 7.62-3.15 4.42-11 7.8-31.88 41-28 13.08 1.53 20.21 7.33 22.58 19.41 5.63 28.8-7.16 43.83-18.39 61-5.71 8.73-2.22 21.8 7.77 26.94 5.2 2.68 10.85 4.71 16.45 7.1 5.74-6.45 14.08-6.38 21.78-7.51 14.89-2.19 23.67 3.3 26.77-8.31 1.37-5.11 1.28-8-1-12.72-9.71-20.09-3.43-31.1 16.85-37.74 17.32-5.67 22.65 6.29 27.62 15.57l11.44-1.37c12.12 21.87 13.06 25 9.14 4.69l1.74-.74c1.3 1.8 3 3.48 3.82 5.44 10 25 1.9 12.35 18.65 36.91 11.58-13 13.75-13.71 33.08-10.82-38.58-90.24-21.3-37.72-43-116.21-.67-2.42-.75-.12 3.49-28.6 11.66 1.51 22.57 13.19 15.72 19.37-14.42 13 7.82 28.83 41.89 101.93 22.88-56.26 55.26-33.58 55.25-19.3 0 8.34 1.24 16.69.9 25-.19 4.5-2.55 8.94-4.35 14.78 3 .76 7.69 2.66 12.43 2.9 8.3.42 16.53.18 21.88 7.89v-23.43c-7 .44-15.29 5.44-19.2-4-2.28-5.52-.29-7.35 14.31-13.51-25.37-37.14-20.92-21.56-35.4-108.3-8.15-.86-10.07-.46-9.86-2.92 10.74-127.77 7.3-127.21 16.88-127 246.32 6 238 5.21 246.38 6.18l-7.28 126.21h-16.1l4.77 52.22c16.84-.81 28.46 7.91 30.39 22.48.42 3.18 2.43 6.31 2.26 9.4-.83 14.83-12.27 7.68-8.44 21.75 13.28-4.41 12.79-1 23.21-24.32 18.43-41.35 12.55-37.78 12.55 239.22zm1168.33-227.51c4.92-5.43 9.35-13.58 16.36-3.58 2.3 3.27 5 7 5.18 10.61.49 9.87 4.25 16.81 16.23 18.76 2.46.39 4.92 1.78 7.22 1.53 2-.21 5.1-1.92 5.33-3.28 1.34-7.88 3.79-15.86-3-23.27-2.05-2.24-3.47-7.49-2-9.16 4.66-5.19 2.07-10.44 2.15-15.67.16-10.24 10.28-19.18 20.25-17.82 12.36 1.67 22.41 12.24 22.57 23.2 0 2.28 1.34 4.81 2.85 6.75 2.5 3.22 1 12-2.52 13.91-4.81 2.59-4.69 2.54-6.9 21.54-.44 3.78 1.86 5 6 4.8 11.82-.66 20.08-8 30-12.17 1.75-.74 10.6-20.5 25.14-28.26 1.46-.78 2.45-3 2.63-4.71 6.7-62.35 8.5-64.41-1.87-67.34-3.2-.91-9-9.48-15.66-9.58-164.37-2.63-161.3-4.51-164.18 4.79-.53 1.7-8 5.48-7.41 9 4.69 28 6.74 33.11 12.9 47.37 8.65 19.91 6.75 15.28 28.73 32.58zm-930.95 28.59c2.76-7.65 4.91-14.81 8-21.65 1.47-3.25 5.51-5.6 7-8.84 31.06-65.82 24.09-53.55 26.85-72-49 2-52.85 1.43-53.6 4.6-11.7 49.48-6.24 33.88-7.33 56.51-.58 13.25 4.88 38.36 19.08 41.38zm67.83-90.07l-2.22-.81c-2.84 3.1-20.34 15.65-18.64 48.49.21 4.18 12.1 11.31 14.09 17.46 2.57 7.91 9.25 11.35 15.6 16.58 6.27-16.36 7.73-31.64 1.38-47.24-3.02-7.4 1.09-1.06-10.21-34.48zm146 94.11c1.32 4.29 1.71 10.36 5 14.77 7.72 10.36 21.67 10 15.73-4.52-1-2.38-.54-5.21-.74-7.84-2.64-34.74-3.28-21.63-5.74-36.57-1.53-9.25-9.65-7-26-1.82-1.21.38-2.49 3.47-1.93 4.67 1.5 3.26 3.26 6.89 6.18 9.09 7.52 5.67 11.82 11.92 7.48 22.22zM1172 601.2l-2.68.36c-5.27 5.1-5.11 5.06-3.15 11.16 1.41 4.37 1.59 12.53 6 17 6.81 6.95 4.91 15.64 6.48 23.61.21 1.05-9.91 8.71-6.2 15.74 8.16-1.82 11.71-5.37 10.11-12.52-1-4.37 0-9.07-1-13.47-2.9-14.01-6.3-27.93-9.56-41.88zm-645 .87c-5.69 1.28-10.61 1.85-15 3.53-12.43 4.8 5.7 12.56 16.42 18.82zm606.09 70.13c3.21 2 .76 2.38 14.33-3.63-7.52-11.72-7-9.3-9.46-19.94-1-4.21 1.81-3.66-2.35-3.87zM410 565.25c16.56 16.14 14.94 17.73 11-8.26zM1388.15 631c13.9-2.33 14.29-3.56 6.12-17.6-6.19 16.33-4.39 11.31-6.12 17.6zM960 603c13.87-2.39 15.17-6.17 6.43-16.3zm27 6.52l-1.54 1.53c2.54 6.32 14.2 13.88 22.89 13z" fill="#676767"/><path d="M730.58 153c4.39 5.33-3.05 8.51-5.31 8.21 0 0 5.07 3.86 0 5.07s-15.21 5.31-22.54 6.27c-24.72 3.26-18.93-1.24-27.32 4.86l-10.76-16.2s15.78-11.84 20.08-18.35 4.81-14.48 8.37-15.21 6.33-.23 5.31 4.83-8.1 11.08-4.55 11.82c9.19 1.91 28.36-9.56 32.68-4.33 2.77 3.38.49 5.3-1.27 6 12.16-.9 12.88 6.03 5.31 7.03z" fill="#a76567"/><path d="M721.21 338.93V378L706 390.12l-37.49 30v-38.7z" fill="#5a4775"/><path fill="#6b5488" d="M721.21 338.93l-52.68 42.49h-72.45l50.66-42.49h74.47zm-15.19 51.19l-15.21 385.56h-26.16V423.19l3.88-3.1 37.49-29.97z"/><path d="M511.85 381.42c2.63 12.35 5.66 26.28 7.89 41.79 1 6.69 1.81 13.7 2.39 21h-75.74l-4.05-21-6.6 21h-30.12c-1.91-7.4 2.4-25.18 6.28-37 1-3.08 2-5.74 2.83-7.72 2.47-5.88 7.68-12.94 12.14-21.93a72.79 72.79 0 006.77-19.92c3.37-19.31-2-17.39-13.51-39.91s-8.79-41.2-8.79-41.2-38.5 33.46-49.29 40.56c-13.32 8.71-2.38 14.94 40.52 63.73L385 394.94s-35.79-38.63-48.62-54.73 4-37.49 4-37.49c57.33-47.7 73.12-65.48 91.87-62.93 12.71 8.29 38.71 3 61.52-1l.1-.15c3.18 1.65 7.12 3.73 12.42 6.34 61.18-23.62 77.53-28.38 158.32-83.69l10.76 16.2 2.07 3.11c-55.94 37.21-75.29 50.5-106.63 64.83-15.31 7-33.5 14.25-60.21 24.66 11.55 11 18.21 15 20.09 22.54 5.24 20.84-15.77 22.2-22.11 37.33-3 7.1-2.95 16.12-1.41 27 1.07 7.3 2.77 15.47 4.68 24.46z" fill="#472d5d"/><path d="M668.53 381.42v38.67l-3.88 3.1H519.74c-2.23-15.51-5.26-29.44-7.89-41.79h156.68z" fill="#634d7e"/><path d="M664.65 423.19v352.49h-94.4l-31.92-181.81c-23.93-140.18-21.9-131.6-16.2-149.69a323.95 323.95 0 00-2.39-21h.06z" fill="#76608f"/><path d="M627.49 249.61c12.52 9.46 34.25 23.77 26.86 30.42-2.67 2.53-10.64 0-10.64 0-27.09-23.83-34.06-23.59-26.1-30.42 5.07-4.35 9.88 0 9.88 0z" fill="#46305f"/><path fill="#babdd0" d="M646.74 338.93l-50.66 42.49h-61.29l51.17-42.49h60.78z"/><path d="M582.88 249.61c12.5 9.46 34.25 23.77 26.84 30.42-2.65 2.53-10.64 0-10.64 0C572 256.2 565 256.44 573 249.61c5.07-4.35 9.88 0 9.88 0z" fill="#46305f"/><path d="M586 338.93l-51.17 42.49h-22.98c-1.91-9-3.61-17.16-4.64-24.46l23.52-18z" fill="#6a5286"/><path fill="#ab6669" d="M538.33 593.87l31.92 181.81h-31.92l-27.35-181.81h27.35z"/><path d="M538.33 593.87H418.79c-7-120.42-3.08-113.59-13.17-149.69 2.39 9.33 116.51 0 116.51 0-5.7 18.09-7.73 9.51 16.2 149.69z" fill="#58416f"/><path d="M446.39 444.18h75.74s-114.12 9.33-116.51 0h40.77z" fill="#58416f"/><path d="M505.08 198.39c-9.74-5.88-9.48-8.34-13-17.19-2.33 11.62 2.45 19.05 8.06 25.35 2 2.26 4.16 4.39 6.1 6.51-3.4-1.19-6.35-2.29-8.92-3.36-15.64-6.53-17.44-12.11-24.67-33.29 1.38-4.48 1.92-15.64 3.56-20.32 2-5.79 6.75-12.87 6.75-12.87s-21.28 3.23-28.37 0-15.2-6.44-17.57-8.69-.67-1.94-4.72 7.08c-7 15.55-11.39 27.95-32.08 25.75-8.94-1-12.4-2.77-13.73-4.42-.6-1.42-.89-2.15-.8-1.69 0 0-14.86 1.92-21.28-4.84s-9.78-25.1-6.08-29.6C369 113.88 367.61 93 395.14 93c4.4 0 3.37-3.55 12.16-5.8s20.93-2.24 24 0a64.19 64.19 0 005.46 3.57c-40.86.61.67 18 6.53 16.39 2.35-.65 3.54-12.24 3.54-12.24 11.63.86 30.59 7 41.2 13.86 12.73 8.22 22.49 26.05 18.91 42.49a77 77 0 01-2.41 8.39c-1.94 5.75-4 10.7-4 14.45 0 11.51 3 17.11 6.34 20.75s7 5.33 8.2 9c-4.2-2.16-7.44-3.93-9.99-5.47zm-71.62-67.23c.34-.49-25.33-13.86-25.33-13.86s-8.93 15.46.85 21.41 12.32 5.15 16.38 3.39 7.77-10.47 8.1-10.94z" fill="#543a69"/><path d="M504.51 159.67c4.11 11.87 6.5 23.33 2.35 35.18-3.34-3.64-6.34-9.24-6.34-20.75-.02-3.73 2.05-8.68 3.99-14.43zm.57 38.72a34.21 34.21 0 01-4.88 8.1l-.07.06c-5.61-6.3-10.39-13.73-8.06-25.35 3.53 8.85 3.27 11.31 13.01 17.19z" fill="#a76567"/><path d="M443.44 232.14c15.55.16 24.35 0 30.35.25 8.59.4 11.47 1.71 20.12 6.21l-.1.15c-22.81 4.08-48.81 9.33-61.52 1l4.72-7.72c2.26.07 4.41.1 6.43.11z" fill="#5b3d6f"/><path d="M497.31 209.7c-6.51 7.89-6.54 7.48-25.51 12.71l2 10c-6-.26-14.8-.09-30.35-.25l-2.71-15.21-22.23-10.75c10.46 2.18 20.89 3.19 27.63.12 8.44-3.87 19.25-14.82 20.93-19s2-8.37 4.4-9c.46-.12.85-.81 1.17-1.9 7.23 21.17 9.03 26.75 24.67 33.28z" fill="#a76567"/><path d="M483 143.22s-4.73 7.08-6.75 12.87c-1.64 4.68-2.18 15.84-3.56 20.32-.32 1.09-.71 1.78-1.17 1.9-2.38.64-2.71 4.83-4.4 9s-12.49 15.13-20.93 19c-6.74 3.07-17.17 2.06-27.63-.12-2.62-.53-5.23-1.16-7.8-1.8-12.84-3.21-12.84-23.5-12.84-23.5a13.07 13.07 0 01-4.58-4.47c-3-4.32-5.55-10.45-6.77-13.47 1.33 1.65 4.79 3.47 13.73 4.42 20.69 2.2 25.09-10.2 32.08-25.75 4-9 2.36-9.34 4.72-7.08s10.48 5.48 17.57 8.69 28.33-.01 28.33-.01z" fill="#472d5d"/><path fill="#ab6669" d="M449.68 593.87l3.03 181.81h-28.36V593.87h25.33z"/><path fill="#58416f" d="M442.34 423.19l4.05 20.99h-10.65l6.6-20.99z"/><path d="M446.81 94.93s-1.19 11.59-3.54 12.24c-5.86 1.6-47.39-15.78-6.53-16.39 3.41 2.01 7.42 3.96 10.07 4.15zm-38.68 22.37s25.67 13.37 25.33 13.86-4 9.17-8.1 10.94-6.57 2.57-16.38-3.39-.85-21.41-.85-21.41z" fill="#472d5d"/><path d="M426.87 377.52c-4.46 9-9.67 16.05-12.14 21.93-.84 2-1.82 4.64-2.83 7.72-9.94 0-11.5 2.44-26.9-12.23l17.57-14.16c7.3 6.94 12.64-10.25 24.3-3.26z" fill="#ac676a"/><path d="M410.67 204.38s6.14 17 14.85 24.45c-6.46-4-19.07-11.75-25.31-17.05-9.47-8-7-35.37-7-35.37a13.07 13.07 0 004.58 4.47s.04 20.29 12.88 23.5z" fill="#5b3d6f"/><path d="M435.74 444.18h-30.12c10.09 36.1 6.22 29.27 13.17 149.69h119.54c-23.93-140.18-21.9-131.6-16.2-149.69h-75.74m-22.04 149.69v181.81h28.36l-3.03-181.81m61.3 0l27.35 181.81h31.92l-31.92-181.81m-16.2-149.69a323.95 323.95 0 00-2.39-21c-2.23-15.51-5.26-29.44-7.89-41.79-1.91-9-3.61-17.16-4.64-24.46-1.54-10.92-1.57-19.94 1.41-27 6.34-15.13 27.35-16.49 22.11-37.33-1.88-7.51-8.54-11.53-20.09-22.54 26.71-10.41 44.9-17.66 60.21-24.66 31.34-14.33 50.69-27.62 106.63-64.83l-2.07-3.11-10.76-16.2c-80.79 55.31-97.14 60.07-158.32 83.69-5.3-2.61-9.24-4.69-12.42-6.34-8.65-4.5-11.53-5.81-20.12-6.21-6-.26-14.8-.09-30.35-.25-2 0-4.17 0-6.43-.07l-4.72 7.72c-18.75-2.55-34.54 15.23-91.87 62.93 0 0-16.88 21.41-4 37.49S385 394.94 385 394.94l17.57-14.16c-42.9-48.79-53.84-55-40.52-63.73 10.79-7.1 49.29-40.56 49.29-40.56s-2.69 18.66 8.79 41.2 16.88 20.6 13.51 39.91a72.79 72.79 0 01-6.77 19.92c-4.46 9-9.67 16.05-12.14 21.93-.84 2-1.82 4.64-2.83 7.72-3.88 11.83-8.19 29.61-6.28 37m-3.05-63.39c7.3 6.94 12.64-10.25 24.3-3.26M385 394.94c15.4 14.67 17 12.23 26.9 12.23m252.75-245.92s15.78-11.84 20.08-18.35 4.81-14.48 8.37-15.21 6.33-.23 5.31 4.83-8.1 11.08-4.55 11.82c9.19 1.91 28.36-9.56 32.68-4.33 2.77 3.38.49 5.3-1.27 6 12.16-1 12.88 6 5.31 7 4.39 5.33-3.05 8.51-5.31 8.21 0 0 5.07 3.86 0 5.07s-15.21 5.31-22.54 6.27c-24.72 3.26-18.93-1.24-27.32 4.86m-181.6 61.33c-22.81 4.08-48.81 9.33-61.52 1m-13.78-33.55c10.46 2.18 20.89 3.19 27.63.12 8.44-3.87 19.25-14.82 20.93-19s2-8.37 4.4-9c.46-.12.85-.81 1.17-1.9 1.38-4.48 1.92-15.64 3.56-20.32 2-5.79 6.75-12.87 6.75-12.87s-21.28 3.23-28.37 0-15.2-6.44-17.57-8.69-.67-1.94-4.72 7.08c-7 15.55-11.39 27.95-32.08 25.75-8.94-1-12.4-2.77-13.73-4.42a3.52 3.52 0 01-.8-1.69c-.09-.46.2.27.8 1.69 1.22 3 3.75 9.15 6.77 13.47a13.07 13.07 0 004.58 4.47s0 20.29 12.84 23.5c2.57.64 5.18 1.27 7.8 1.8" fill="none" stroke="#000" stroke-miterlimit="10" stroke-width=".78"/><path d="M425.52 228.83c-6.46-4-19.07-11.75-25.31-17.05-9.47-8-7-35.37-7-35.37m32.31 52.42a17.08 17.08 0 003.39 2.28c1.62.79.09-.19-3.39-2.28zm-14.85-24.45s6.14 17 14.85 24.45m80.73-15.75h0c-3.4-1.19-6.35-2.29-8.92-3.36-15.64-6.53-17.44-12.11-24.67-33.29" fill="none" stroke="#000" stroke-miterlimit="10" stroke-width=".78"/><path d="M385.68 161.25s-14.86 1.92-21.28-4.84-9.78-25.1-6.08-29.6C369 113.88 367.61 93 395.14 93c4.4 0 3.37-3.55 12.16-5.8s20.93-2.24 24 0a64.19 64.19 0 005.46 3.57c3.41 2 7.42 4 10.07 4.15 11.63.86 30.59 7 41.2 13.86 12.73 8.22 22.49 26.05 18.91 42.49a77 77 0 01-2.41 8.39c-1.94 5.75-4 10.7-4 14.45 0 11.51 3 17.11 6.34 20.75s7 5.33 8.2 9c-4.17-2.19-7.41-4-10-5.5-9.74-5.88-9.48-8.34-13-17.19-2.33 11.62 2.45 19.05 8.06 25.35 2 2.26 4.16 4.39 6.1 6.51m-87.77-6.85l.05.02 22.22 10.73 2.71 15.22v.01" fill="none" stroke="#000" stroke-miterlimit="10" stroke-width=".78"/><path d="M473.84 232.6v-.21l-2-10c19-5.23 19-4.82 25.51-12.71.05 0 .08-.11.13-.15m2.72-3.04a34.21 34.21 0 004.88-8.1v-.11m1.78-3.43c4.15-11.85 1.76-23.31-2.35-35.18m-96.38-42.37s-8.93 15.46.85 21.41 12.32 5.15 16.38 3.39 7.77-10.47 8.1-10.94-25.33-13.86-25.33-13.86zm28.61-26.52c-40.86.61.67 18 6.53 16.39 2.35-.65 3.54-12.24 3.54-12.24m-11.07 349.25l6.6-20.99 4.05 20.99m123.86 331.5h94.4V423.19H519.8m144.85 0l3.88-3.1 37.49-29.97-15.21 385.56h-26.16m3.88-394.26H511.19" fill="none" stroke="#000" stroke-miterlimit="10" stroke-width=".78"/><path d="M706 390.12L721.21 378v-39.07l-52.68 42.49v38.67m52.68-81.16h-74.47l-50.66 42.49m-61.29 0l51.17-42.49h-55.23l-23.52 18.03-.42.32m79.17-18.35h60.78m7.61-58.93c7.39-6.65-14.34-21-26.86-30.42 0 0-4.81-4.35-9.88 0-8 6.83-1 6.59 26.1 30.42 0 0 7.97 2.56 10.64 0zm-13.17 58.93c21.69-22.48 23.4-38.9 13.17-58.9m-57.8 58.9C618.25 316.45 620 300 609.72 280c7.41-6.65-14.34-21-26.84-30.42 0 0-4.81-4.35-9.88 0-8 6.83-1 6.59 26.08 30.42 0 0 8 2.53 10.64 0" fill="none" stroke="#000" stroke-miterlimit="10" stroke-width=".78"/><path d="M725.27 146s-9.63 1.7-11.66 2.34m16.97 4.66s-9.71 1.13-11.13 1.45m5.82 6.8s-9.63 1.28-11.66 1.6" fill="none" stroke="#000" stroke-linecap="round" stroke-linejoin="round" stroke-width=".78"/></svg>