<svg xmlns="http://www.w3.org/2000/svg" viewBox="0 0 700 700"><path d="M24.29 446.81c-3.72-14.26-8.61-20.15 2.88-29.37 2.42-1.94 1.82-4.78 1.82-40.75h80.56l2.75 29.14c.9 9.68 17.46 14.85 12.65 26.62-1.45 3.57-2.11 8.51 4.27 11.11 2.13.87 3.2 4.26 4.19 6.67 6.17 15.17 21 43.22 14.92 68.18-1.28 5.27 2.81 5.65 6.2 6.29 4.08.77 9 1.17 10.45-3.59a14.4 14.4 0 00-3.86-15.11c-8.63-8.57-6.2-24.23 4.82-30.41 2.83-1.58 7.45-3.54 7.56-5.49 1.9-33.43-24.07-49.16-5.39-44.71.14-2.5 6.13-9.11 9-8.75 2.14.26 4 2.25 6.31 3.66 2-8.75 2.19-12.77 6.25-18.89 2.92-4.41 1.6-11 2.24-17.64h-56l-7.5-101.4 165.82-7.28-8.12 110.18c-5.15 0-30.37.32-82.35-1.07-8.83-.24-6.58.62-6.58 34.48l4.84-1.44c1.53 25.49-5.87 15-7 35.52-.6 11.34-2.61 22.93 8.15 31.72 25.64-21.78 18.87-14 18.12-27.53-1.87-33.28 54-28.51 61.68 11.2 2.69 13.91-3.58 20.61-21.76 24.32l5.39 22.41c4.31-6.63 10.49-14.24 15.82-17.91 10.53-7.23 35.14.9 39.65 24.56.75 4-.54 8.21-.94 12.79l24.31-2.17c-37.11-54-42.72-42.58-28-83.46 7.76-21.52 7.79-20.19 7.88-23.05.6-19.19 16.17-18.51 36.62-22.28-4.66 10.36-6.71 20-17.69 25.12-8.71 4-12.35 49.58 15.13 67 17.38 11 28.35 2.19 35.34 10.8.81 1 6.95.51 7.62-.64 6.09-10.44-3.18-12.39-4.86-16-1.88-4-2.61-8.53-3.56-12.87-.33-1.49.77-3.35.14-4.63-4.38-8.93-2.81-15.5 5.21-23.35 6.4-6.27 13.77-4.87 20.2-6.11 10.14-2 26.2 8.37 24.63 22.23-.65 5.73.13 11.62-1 17.26-1.45 7.48-8.64 7.66-4.62 30.18.72 4.06 12.66 9 19.13 8.71 2.28-.1 4.54-.57 7.18-.92-2.95-25.69-2.17-25.78-6.3-29.49-7.89-7.08-4.57-19.88-3.9-20.27 8.8-5.14-.49-11.94 5.57-33.8 4.36-15.7 25.62-98.43 41-102.72 7.7-2.15 16.3-5.8 22.95 1.7 13.68 15.45 8.23 19.63-.41 24.31-27.25 14.74-16.92-.4-35.11 88-1.12 5.44-1.13 9.72 4.57 13.72 9.91 6.95 8.23 35.72 27.61 47.74S541 525.38 546 520.85c24.58-22.12-1.08-18.51 7-41.88.44-1.26 4-1.7 6.87-2.84 4-9.9 7-28.78 37-25.27 11.79 1.38 18.22 6.62 20.35 17.52 5.08 26-6.45 39.56-16.57 55-5.14 7.88-2 19.67 7 24.31 4.69 2.42 9.78 4.25 14.83 6.41 5.17-5.82 12.69-5.75 19.62-6.77 13.43-2 21.34 3 24.13-7.5 1.24-4.62 1.15-7.19-.92-11.48-8.76-18.14-3.1-28.08 15.18-34.07 9.24-3 14.7-.48 18.54 3.85L700 0H0v434.5c11.05 2.37 18.66 8.86 24.29 12.31z" fill="#9b9b9b"/><path d="M206.55 510.17c14.92 14.58 13.47 16 9.92-7.44zm92.03 36.43c-11.21 4.33 5.12 11.34 14.79 17l-1.3-20.17c-5.13 1.14-9.56 1.65-13.49 3.17zM112.16 442.43l-2-.73c-2.56 2.8-18.33 14.13-16.8 43.76.19 3.78 10.91 10.21 12.7 15.76 2.31 7.14 8.33 10.25 14.06 15 5.65-14.77 7-28.56 1.24-42.64-2.72-6.71.99-.99-9.2-31.15zm-71.67-7.07c-10.54 44.65-5.63 30.57-6.6 51-.58 12 4.34 34.64 17.14 37.37 2.49-6.91 4.43-13.37 7.22-19.54 1.32-2.94 5-5.06 6.35-8 28-59.41 21.71-48.33 24.19-65-44.12 1.81-47.62 1.31-48.3 4.17zm221.24 94.19c-2.39-31.35-3-19.53-5.18-33-1.38-8.35-8.7-6.29-23.42-1.64-1.08.34-2.23 3.13-1.74 4.21 1.36 2.94 3 6.22 5.58 8.21 6.78 5.12 10.66 10.76 6.75 20.05 1.19 3.88 1.54 9.35 4.5 13.33 6.95 9.35 19.52 9 14.17-4.08-.88-2.16-.48-4.71-.66-7.08z" fill="#9b9b9b"/><path d="M681.44 494.33c-18.3 6-24 15.93-15.21 34.07 2.08 4.29 2.16 6.86.93 11.48-2.8 10.47-10.72 5.52-24.16 7.5-7 1-14.48 1-19.66 6.77-5.05-2.16-10.15-4-14.84-6.41-9-4.64-12.16-16.43-7-24.31 10.14-15.49 21.67-29 16.59-55-2.13-10.9-8.57-16.14-20.38-17.52-30-3.51-33 15.37-37 25.27-2.92 1.14-6.43 1.58-6.87 2.84-8.15 23.37 17.55 19.76-7.07 41.88-5 4.53-5.85.47-25.2-11.53s-17.77-40.82-27.65-47.74c-5.71-4-5.7-8.28-4.58-13.72 18.22-88.39 7.87-73.25 35.16-88 8.65-4.68 14.11-8.86.41-24.31-6.65-7.5-15.27-3.85-23-1.7-15.36 4.28-36.56 86.69-41 102.72-6.08 21.86 3.22 28.66-5.59 33.8-.66.39-4 13.19 3.91 20.27 4.14 3.71 3.36 3.8 6.31 29.49-2.65.35-4.91.82-7.18.92-6.49.27-18.44-4.65-19.17-8.71-4-22.52 3.18-22.7 4.63-30.18 1.1-5.64.33-11.53 1-17.26 1.59-13.94-14.61-24.18-24.67-22.23-6.43 1.24-13.81-.16-20.22 6.11-8 7.85-9.61 14.42-5.21 23.35.63 1.28-.48 3.14-.15 4.63 1 4.34 1.68 8.83 3.57 12.87 1.68 3.6 11 5.55 4.87 16-.68 1.15-6.83 1.64-7.64.64-7-8.61-18 .22-35.39-10.8-27.51-17.41-23.87-63-15.15-67 11-5.08 13-14.76 17.72-25.12-20.47 3.77-36.08 3.09-36.68 22.28-.09 2.86-.11 1.53-7.88 23.05-14.78 40.88-9.15 29.47 28 83.46l-24.35 2.17c.4-4.58 1.69-8.84.94-12.79-4.51-23.66-29.16-31.79-39.7-24.56-5.34 3.67-11.53 11.28-15.84 17.91l-5.4-22.41c18.21-3.71 24.48-10.41 21.78-24.32-7.7-39.71-63.63-44.48-61.76-11.2.76 13.5 7.53 5.75-18.14 27.53-10.77-8.79-8.76-20.38-8.16-31.72 1.09-20.48 8.5-10 7-35.52l-4.85 1.44c0-33.86-2.26-34.72 6.59-34.48 52 1.39 77.31 1.07 82.46 1.07l8.14-110.18-166 7.28 7.5 101.4h56.14c-.64 6.67.68 13.23-2.25 17.64-4.06 6.12-4.26 10.14-6.26 18.89-2.31-1.41-4.18-3.4-6.32-3.66-2.92-.36-8.92 6.25-9.06 8.75a32.78 32.78 0 00-5.37-1.11c-4.53-.32 5.17 14.12 8.9 26.42a56.16 56.16 0 011.87 19.4c-.11 1.95-4.74 3.91-7.57 5.49-11 6.18-13.47 21.84-4.83 30.41a14.38 14.38 0 013.86 15.11c-1.48 4.76-6.37 4.36-10.46 3.59-3.39-.64-7.49-1-6.2-6.29 6.1-25-8.77-53-14.95-68.18-1-2.41-2.06-5.8-4.19-6.67-6.39-2.6-5.73-7.54-4.27-11.11 4.81-11.77-11.77-16.94-12.67-26.62l-2.76-29.14H29c0 36 .6 38.81-1.83 40.75-11.5 9.22-6.6 15.11-2.88 29.37-5.6-3.49-13.22-9.98-24.29-12.35v265.61h700V498.18c-3.85-4.33-9.31-6.88-18.56-3.85zM64.6 496.21c-1.38 2.92-5 5-6.35 8-2.79 6.17-4.73 12.63-7.22 19.54-12.8-2.73-17.72-25.39-17.14-37.37 1-20.43-3.94-6.35 6.6-51 .68-2.86 4.18-2.35 48.3-4.16-2.48 16.66 3.8 5.58-24.19 64.99zm55.52 20c-5.73-4.72-11.75-7.83-14.06-15-1.79-5.55-12.51-12-12.7-15.76-1.53-29.63 14.24-41 16.8-43.76l2 .73c10.19 30.16 6.48 24.44 9.2 31.12 5.72 14.09 4.41 27.88-1.24 42.65zm86.43-6l9.92-7.44c3.53 23.41 5 21.98-9.92 7.4zm41.67 30.53c-3-4-3.31-9.45-4.5-13.33 3.91-9.29 0-14.93-6.75-20.05-2.63-2-4.22-5.27-5.58-8.21-.49-1.08.66-3.87 1.74-4.21 14.72-4.65 22-6.71 23.42 1.64 2.22 13.48 2.79 1.66 5.18 33 .18 2.37-.22 4.92.66 7.07 5.35 13.06-7.22 13.4-14.17 4.05zm50.36 5.9c3.93-1.52 8.36-2 13.49-3.19l1.3 20.17c-9.67-5.68-26-12.69-14.79-17.02z" fill="#676767"/><path d="M495.5 139.67c4 4.8-2.75 7.66-4.79 7.39 0 0 4.57 3.48 0 4.56s-13.7 4.77-20.31 5.64c-22.28 2.93-17.06-1.11-24.62 4.37l-9.7-14.57s14.23-10.65 18.1-16.5 4.34-13 7.55-13.69 5.69-.2 4.78 4.35-7.3 10-4.1 10.63c8.28 1.72 25.56-8.6 29.45-3.89 2.5 3 .44 4.77-1.15 5.41 10.96-.86 11.61 5.38 4.79 6.3z" fill="#a76567"/><path d="M487.06 306.86V342l-13.69 10.86-33.79 26.95v-34.74z" fill="#5a4775"/><path fill="#6b5488" d="M487.06 306.86l-47.48 38.21h-65.29l45.66-38.21h67.11zm-13.69 46.03l-13.71 346.76h-23.58V382.64l3.5-2.79 33.79-26.96z"/><path d="M298.38 345.07c2.37 11.11 5.1 23.64 7.11 37.58.88 6 1.64 12.32 2.16 18.87h-68.26l-3.65-18.88-5.94 18.88h-27.15c-1.73-6.66 2.16-22.65 5.66-33.29.91-2.77 1.79-5.16 2.55-7 2.22-5.28 6.92-11.63 10.94-19.72a65.38 65.38 0 006.1-17.91c3-17.37-1.82-15.64-12.17-35.89s-7.92-37.06-7.92-37.06-34.7 30.1-44.43 36.48c-12 7.84-2.14 13.43 36.52 57.31l-15.83 12.73s-32.26-34.68-43.82-49.17 3.64-33.72 3.64-33.72c51.67-42.9 65.9-58.89 82.8-56.59 11.45 7.45 34.88 2.73 55.44-.94l.09-.14c2.86 1.49 6.41 3.36 11.19 5.71 55.13-21.25 69.87-25.52 142.67-75.27l9.7 14.57 1.87 2.79c-50.41 33.47-67.85 45.42-96.1 58.31-13.79 6.3-30.18 12.81-54.26 22.18 10.41 9.9 16.41 13.52 18.1 20.27 4.73 18.74-14.21 20-19.92 33.58-2.69 6.38-2.66 14.49-1.27 24.31.93 6.58 2.46 13.94 4.18 22.01z" fill="#472d5d"/><path d="M439.58 345.07v34.77l-3.5 2.8H305.49c-2-13.94-4.74-26.47-7.11-37.58h141.2z" fill="#634d7e"/><path d="M436.08 382.64v317H351l-28.75-163.5c-21.57-126.07-19.74-118.36-14.6-134.62-.52-6.55-1.28-12.85-2.16-18.87h130.59z" fill="#76608f"/><path d="M402.6 226.52c11.28 8.51 30.86 21.39 24.2 27.37-2.4 2.27-9.59 0-9.59 0-24.41-21.44-30.69-21.22-23.52-27.37 4.57-3.9 8.91 0 8.91 0z" fill="#46305f"/><path fill="#babdd0" d="M419.95 306.86l-45.66 38.21h-55.24l46.12-38.21h54.78z"/><path d="M362.39 226.52c11.27 8.51 30.87 21.39 24.19 27.37-2.38 2.27-9.58 0-9.58 0-24.41-21.44-30.7-21.22-23.51-27.37 4.57-3.9 8.9 0 8.9 0z" fill="#46305f"/><path d="M365.17 306.86l-46.12 38.21h-20.67c-1.72-8.09-3.25-15.43-4.18-22l21.19-16.21z" fill="#6a5286"/><path fill="#ab6669" d="M322.25 536.14l28.77 163.51h-28.77L297.6 536.14h24.65z"/><path d="M322.25 536.14H214.51c-6.26-108.3-2.77-102.16-11.86-134.62 2.15 8.38 105 0 105 0-5.14 16.26-6.97 8.55 14.6 134.62z" fill="#58416f"/><path d="M239.39 401.52h68.26s-102.85 8.38-105 0h36.74z" fill="#58416f"/><path d="M292.28 180.46c-8.78-5.28-8.55-7.5-11.73-15.46-2.09 10.45 2.22 17.14 7.28 22.8 1.82 2 3.74 3.95 5.49 5.86-3.07-1.07-5.73-2.06-8-3-14.09-5.87-15.71-10.89-22.23-29.93 1.24-4 1.73-14.07 3.21-18.28a63.64 63.64 0 016.08-11.58s-19.18 2.91-25.57 0-13.69-5.78-15.83-7.81-.61-1.74-4.25 6.37c-6.31 14-10.27 25.14-28.92 23.16-8.05-.86-11.17-2.49-12.37-4-.54-1.28-.8-1.94-.72-1.52 0 0-13.39 1.73-19.17-4.35s-8.82-22.58-5.48-26.62c9.6-11.63 8.37-30.4 33.17-30.4 4 0 3-3.19 11-5.21s18.87-2 21.62 0c1.08.81 2.89 2 4.91 3.2-36.82.55.61 16.18 5.89 14.74 2.12-.58 3.19-11 3.19-11 10.48.77 27.57 6.28 37.13 12.46 11.47 7.4 20.26 23.43 17 38.21a70.27 70.27 0 01-2.17 7.55c-1.75 5.17-3.61 9.63-3.61 13 0 10.35 2.7 15.38 5.71 18.66s6.3 4.79 7.39 8.11c-3.8-1.98-6.72-3.57-9.02-4.96zM227.74 120c.31-.44-22.83-12.46-22.83-12.46s-8 13.9.77 19.25 11.1 4.63 14.76 3 7-9.37 7.3-9.79z" fill="#543a69"/><path d="M291.77 145.64c3.7 10.67 5.86 21 2.11 31.64-3-3.28-5.71-8.31-5.71-18.66-.01-3.35 1.83-7.81 3.6-12.98zm.51 34.82a30.68 30.68 0 01-4.4 7.29l-.05.05c-5.06-5.66-9.37-12.35-7.28-22.8 3.18 8 2.95 10.18 11.73 15.46z" fill="#a76567"/><path d="M236.73 210.82c14 .14 22 0 27.36.22 7.73.36 10.33 1.54 18.13 5.58l-.09.14c-20.56 3.67-44 8.39-55.44.94l4.25-6.95c2.06.03 3.97.06 5.79.07z" fill="#5b3d6f"/><path d="M285.28 190.63c-5.87 7.1-5.9 6.73-23 11.43l1.8 9c-5.41-.23-13.35-.08-27.36-.22l-2.44-13.68-20-9.66c9.42 2 18.82 2.88 24.89.11 7.61-3.47 17.35-13.32 18.87-17.09s1.82-7.52 4-8.1c.42-.11.77-.73 1.06-1.7 6.47 19.02 8.09 24.04 22.18 29.91z" fill="#a76567"/><path d="M272.34 130.84a63.64 63.64 0 00-6.08 11.58c-1.48 4.21-2 14.25-3.21 18.28-.29 1-.64 1.59-1.06 1.7-2.14.58-2.44 4.35-4 8.1s-11.26 13.62-18.87 17.09c-6.07 2.77-15.47 1.86-24.89-.11-2.36-.48-4.72-1-7-1.62-11.57-2.89-11.57-21.14-11.57-21.14a11.66 11.66 0 01-4.13-4 66.48 66.48 0 01-6.1-12.12c1.2 1.49 4.32 3.12 12.37 4 18.65 2 22.61-9.17 28.92-23.16 3.64-8.11 2.12-8.4 4.25-6.37s9.44 4.93 15.83 7.81 25.54-.04 25.54-.04z" fill="#472d5d"/><path fill="#ab6669" d="M242.36 536.14l2.73 163.51h-25.56V536.14h22.83z"/><path fill="#58416f" d="M235.74 382.64l3.66 18.88h-9.61l5.95-18.88z"/><path d="M239.77 87.42s-1.07 10.42-3.19 11c-5.28 1.44-42.71-14.19-5.89-14.74 3.08 1.81 6.7 3.56 9.08 3.74zm-34.86 20.12s23.14 12 22.83 12.46-3.64 8.25-7.3 9.84-5.93 2.31-14.76-3-.77-19.3-.77-19.3z" fill="#472d5d"/><path d="M221.8 341.56c-4 8.09-8.72 14.44-10.94 19.72-.76 1.79-1.64 4.18-2.55 7-9 0-10.36 2.2-24.24-11l15.83-12.73c6.58 6.18 11.39-9.27 21.9-2.99z" fill="#ac676a"/><path d="M207.2 185.85s5.54 15.32 13.39 22c-5.83-3.59-17.19-10.56-22.82-15.34-8.53-7.23-6.27-31.8-6.27-31.8a11.66 11.66 0 004.13 4s0 18.29 11.57 21.14z" fill="#5b3d6f"/><path d="M229.8 401.52h-27.15c9.09 32.46 5.6 26.32 11.86 134.62h107.74c-21.57-126.07-19.74-118.36-14.6-134.62h-68.26m-19.86 134.62v163.51h25.56l-2.73-163.51m55.24 0l24.65 163.51h28.77l-28.77-163.51" fill="none" stroke="#000" stroke-miterlimit="10" stroke-width=".7"/><path d="M307.65 401.52c-.52-6.55-1.28-12.85-2.16-18.87-2-13.94-4.74-26.47-7.11-37.58-1.72-8.09-3.25-15.43-4.18-22-1.39-9.82-1.42-17.93 1.27-24.31 5.71-13.62 24.65-14.84 19.92-33.58-1.69-6.75-7.69-10.37-18.1-20.27 24.08-9.37 40.47-15.88 54.26-22.18 28.25-12.89 45.69-24.84 96.1-58.31l-1.87-2.79-9.7-14.57c-72.8 49.75-87.54 54-142.67 75.27-4.78-2.35-8.33-4.22-11.19-5.71-7.8-4-10.4-5.22-18.13-5.58-5.41-.23-13.35-.08-27.36-.22-1.82 0-3.75 0-5.79-.07l-4.25 6.95c-16.9-2.3-31.13 13.69-82.8 56.59 0 0-15.21 19.25-3.64 33.72s43.82 49.21 43.82 49.21l15.83-12.73c-38.66-43.88-48.52-49.47-36.52-57.31 9.73-6.38 44.43-36.48 44.43-36.48s-2.43 16.79 7.92 37.06 15.21 18.52 12.17 35.89a65.38 65.38 0 01-6.1 17.91c-4 8.09-8.72 14.44-10.94 19.72-.76 1.79-1.64 4.18-2.55 7-3.5 10.64-7.39 26.63-5.66 33.29m-2.75-57.08c6.58 6.24 11.39-9.21 21.9-2.93m-37.73 15.66c13.88 13.21 15.28 11 24.24 11" fill="none" stroke="#000" stroke-miterlimit="10" stroke-width=".7"/><path d="M436.08 147.06s14.23-10.65 18.1-16.5 4.34-13 7.55-13.69 5.69-.2 4.78 4.35-7.3 10-4.1 10.63c8.28 1.72 25.56-8.6 29.45-3.89 2.5 3 .44 4.77-1.15 5.41 11-.86 11.61 5.38 4.79 6.3 4 4.8-2.75 7.66-4.79 7.39 0 0 4.57 3.48 0 4.56s-13.7 4.77-20.31 5.64c-22.28 2.93-17.06-1.11-24.62 4.37m-163.65 55.13c-20.56 3.67-44 8.39-55.44.94m-12.42-30.22c9.42 2 18.82 2.88 24.89.11 7.61-3.47 17.35-13.32 18.87-17.09s1.82-7.52 4-8.1c.42-.11.77-.73 1.06-1.7 1.24-4 1.73-14.07 3.21-18.28a63.64 63.64 0 016.08-11.58s-19.18 2.91-25.57 0-13.69-5.78-15.83-7.81-.61-1.74-4.25 6.37c-6.31 14-10.27 25.14-28.92 23.16-8.05-.86-11.17-2.49-12.37-4a3.15 3.15 0 01-.72-1.52c-.08-.42.18.24.72 1.52a66.48 66.48 0 006.1 12.12 11.66 11.66 0 004.13 4s0 18.25 11.57 21.14c2.31.58 4.67 1.14 7 1.62" fill="none" stroke="#000" stroke-miterlimit="10" stroke-width=".7"/><path d="M220.59 207.84c-5.83-3.59-17.19-10.56-22.82-15.34-8.53-7.23-6.27-31.8-6.27-31.8m29.09 47.14a14.9 14.9 0 003 2c1.51.76.09-.12-3-2zm-13.39-21.99s5.54 15.32 13.39 22m72.74-14.18h0c-3.07-1.07-5.73-2.06-8-3-14.09-5.87-15.71-10.89-22.23-29.93" fill="none" stroke="#000" stroke-miterlimit="10" stroke-width=".7"/><path d="M184.68 147.06s-13.39 1.73-19.17-4.35-8.82-22.58-5.48-26.62c9.6-11.63 8.37-30.4 33.17-30.4 4 0 3-3.19 11-5.21s18.87-2 21.62 0c1.08.81 2.89 2 4.91 3.2 3.08 1.81 6.7 3.56 9.08 3.74 10.48.77 27.57 6.28 37.13 12.46 11.47 7.4 20.26 23.43 17 38.21a70.27 70.27 0 01-2.17 7.55c-1.75 5.17-3.61 9.63-3.61 13 0 10.35 2.7 15.38 5.71 18.66s6.3 4.79 7.39 8.11c-3.76-2-6.68-3.56-9-4.95-8.78-5.28-8.55-7.5-11.73-15.46-2.09 10.45 2.22 17.14 7.28 22.8 1.82 2 3.74 3.95 5.49 5.86m-79.08-6.19l.05.01 20.02 9.66 2.45 13.68v.01" fill="none" stroke="#000" stroke-miterlimit="10" stroke-width=".7"/><path d="M264.13 211.23v-.19l-1.8-9c17.09-4.7 17.12-4.33 23-11.43a1.42 1.42 0 01.12-.13m2.43-2.73a30.68 30.68 0 004.4-7.29v-.1m1.6-3.08c3.75-10.66 1.59-21-2.11-31.64m-86.86-38.1s-8 13.9.77 19.25 11.1 4.63 14.76 3 7-9.42 7.3-9.84-22.83-12.41-22.83-12.41zm25.78-23.86c-36.82.55.61 16.18 5.89 14.74 2.12-.58 3.19-11 3.19-11m-9.98 314.1l5.95-18.88 3.66 18.88m111.62 298.13h85.06V382.64H305.55m130.53 0l3.5-2.79 33.79-26.96-13.71 346.76h-23.58m3.5-354.58H297.79" fill="none" stroke="#000" stroke-miterlimit="10" stroke-width=".7"/><path d="M473.37 352.89L487.06 342v-35.14l-47.48 38.21v34.77m47.48-72.98h-67.11l-45.66 38.21m-55.24 0l46.12-38.21h-49.78l-21.19 16.21-.38.29m71.35-16.5h54.78m6.85-52.97c6.66-6-12.92-18.86-24.2-27.37 0 0-4.34-3.9-8.91 0-7.17 6.15-.89 5.93 23.52 27.37 0 0 7.19 2.27 9.59 0zm-11.87 52.97c19.55-20.22 21.09-35 11.87-53m-52.09 53c19.56-20.22 21.11-35 11.87-53 6.68-6-12.92-18.86-24.19-27.37 0 0-4.33-3.9-8.9 0-7.19 6.15-.9 5.93 23.51 27.37 0 0 7.2 2.27 9.58 0" fill="none" stroke="#000" stroke-miterlimit="10" stroke-width=".7"/><path d="M490.71 133.37s-8.67 1.53-10.51 2.11m15.3 4.19s-8.75 1-10 1.31m5.21 6.08s-8.67 1.15-10.51 1.44" fill="none" stroke="#000" stroke-linecap="round" stroke-linejoin="round" stroke-width=".7"/></svg>