<svg xmlns="http://www.w3.org/2000/svg" viewBox="0 0 1400 780"><path d="M443.64 621.12c34.57 0 34.57 52.25 0 52.25s-34.58-52.24 0-52.25zm0-514.49c34.57 0 34.57 52.25 0 52.25s-34.58-52.24 0-52.25zm0 102.9c34.57 0 34.57 52.24 0 52.24s-34.58-52.23 0-52.24zm0 102.9c34.57 0 34.57 52.24 0 52.24s-34.58-52.24 0-52.24zm0 102.9c34.57 0 34.57 52.24 0 52.24s-34.58-52.24 0-52.24zm0 102.9c34.57 0 34.57 52.24 0 52.24s-34.58-52.24 0-52.24zm205.09 102.89c34.57 0 34.57 52.25 0 52.25s-34.58-52.24 0-52.25zm0-514.49c34.57 0 34.57 52.25 0 52.25s-34.58-52.24 0-52.25zm0 102.9c34.57 0 34.57 52.24 0 52.24s-34.58-52.23 0-52.24zm0 102.9c34.57 0 34.57 52.24 0 52.24s-34.58-52.24 0-52.24zm0 102.9c34.57 0 34.57 52.24 0 52.24s-34.58-52.24 0-52.24zm0 102.9c34.57 0 34.57 52.24 0 52.24s-34.58-52.24 0-52.24zm205.09 102.89c34.57 0 34.57 52.25 0 52.25s-34.58-52.24 0-52.25zm0-514.49c34.57 0 34.57 52.25 0 52.25s-34.58-52.24 0-52.25zm0 102.9c34.57 0 34.57 52.24 0 52.24s-34.58-52.23 0-52.24zm0 102.9c34.57 0 34.57 52.24 0 52.24s-34.58-52.24 0-52.24zm0 102.9c34.57 0 34.57 52.24 0 52.24s-34.58-52.24 0-52.24zm0 102.9c34.57 0 34.57 52.24 0 52.24s-34.58-52.24 0-52.24z" fill="#f2f2f2" stroke="#000" stroke-miterlimit="3.52" stroke-width="2.29" fill-rule="evenodd"/><path d="M546.18 621.12c34.57 0 34.57 52.25 0 52.25s-34.57-52.24 0-52.25zm0-514.49c34.57 0 34.57 52.25 0 52.25s-34.57-52.24 0-52.25zm0 102.9c34.57 0 34.57 52.24 0 52.24s-34.57-52.23 0-52.24zm0 102.9c34.57 0 34.57 52.24 0 52.24s-34.57-52.24 0-52.24zm0 102.9c34.57 0 34.57 52.24 0 52.24s-34.57-52.24 0-52.24zm0 102.9c34.57 0 34.57 52.24 0 52.24s-34.57-52.24 0-52.24zm205.09 102.89c34.57 0 34.57 52.25 0 52.25s-34.57-52.24 0-52.25zm0-514.49c34.57 0 34.57 52.25 0 52.25s-34.57-52.24 0-52.25zm0 102.9c34.57 0 34.57 52.24 0 52.24s-34.57-52.23 0-52.24zm0 102.9c34.57 0 34.57 52.24 0 52.24s-34.57-52.24 0-52.24zm0 102.9c34.57 0 34.57 52.24 0 52.24s-34.57-52.24 0-52.24zm0 102.9c34.57 0 34.57 52.24 0 52.24s-34.57-52.24 0-52.24zm205.09 102.89c34.58 0 34.58 52.25 0 52.25s-34.57-52.24 0-52.25zm0-514.49c34.58 0 34.58 52.25 0 52.25s-34.57-52.24 0-52.25zm0 102.9c34.58 0 34.58 52.24 0 52.24s-34.57-52.23 0-52.24zm0 102.9c34.58 0 34.58 52.24 0 52.24s-34.57-52.24 0-52.24zm0 102.9c34.58 0 34.58 52.24 0 52.24s-34.57-52.24 0-52.24zm0 102.9c34.58 0 34.58 52.24 0 52.24s-34.57-52.24 0-52.24z" stroke="#000" stroke-miterlimit="3.52" stroke-width="2.29" fill-rule="evenodd"/></svg>