<svg xmlns="http://www.w3.org/2000/svg" viewBox="0 0 1400 780"><path fill="#fffac0" d="M0 0h1400v780H0z"/><path d="M838.41 118.59l.79 3.88c-13.31-2.16-9 1.12-17.63 1.56 4.84-6.56 7.34-5.71 16.84-5.44zm33.88 5.41c-9-.46-4.07-3.76-17.63-1.56l.77-3.88c9.32-.24 11.99-1.11 16.86 5.44z" fill="#3d2922"/><path d="M832.51 239.68l1.42 10.84c-16 3.37-29 7.62-40.68 4.65V245.1z" fill="#355b80"/><path d="M954.42 700.33c0 3.19-20.06 6.11-29.67 1.34-7.9-3.91-12.88-8-31.53-12.92-3.79-1-3.13-.38-3-2.19.34-3.19 36 9.86 39 11.05 18.02 6.6 25.2-3.19 25.2 2.72z" fill="#4b5b6a"/><path d="M904.31 334.35c-4 36.89-4.5 44.32-17.3 51.4-2.7 1.49-4.51 5.93-4.85 9-1.94.73-.11.19-26.93 7.23-11.06-19.18-7.74.26-7.74-182.88 4.64-14.42 1.26-10.51 13.94-17.83l18.22 12V187c2.12.9 41.41 17.3 42.23 19.36s7.74 21.57 9.3 28.29 8.26 72.32 8.26 78.52-6.2 24.8-6.2 24.8zm0-91.58l-40.84-3.09c0 18.74-2.61 35-2 36.29.39.9 20.66 10.59 20.66 10.59l18.48-6.2c4.32-34.74 3.7-27.28 3.7-37.59z" fill="#355b80"/><path d="M933.24 338c-26 71.55-23 71.94-33.84 70.64-22.22-2.67-18.86-19.28-12.39-22.85 13.19-7.29 13.43-15.37 17.3-51.4z" fill="#f4d0af"/><path d="M916.06 660.64c-1.09-2.18-9.09-2.13-9.69 1.35l-12.59 6.41c-18.78-82.47-18.92-74.86-18.92-120.7l-21.17-107.62c-1-5.26-9.06 0-9.06 0s-18.33 98.84-19.88 106.08 1 27.89-.51 40.81-10.47 79.29-10.47 79.29l-15-3.84c-1.12-2.49-2.8-4.34-9.2-2.35 6.33-252.42-10.36-270.58 1.35-249.53 4.15-.85 13.39-3.07 16.24-6.21.1-.12 7-7.24 5.82-8.46.19-1.71-5-2.58 29.35 6.15 9.12-39.25.38-18.13 12.9 0 24.1-6.32 25.45-6.61 26.93-7.23-1.39 12.72 26.37 19.81 27.84 7.21 0 175.49-1.58 117.11 6.06 258.64z" fill="#425b73"/><path d="M906 662.2l-9.25 4.7c6.09-3.15 8.39-4.45 9.25-4.7z" fill="#facba1"/><path d="M904.31 242.77v7.75s-12.44 5.43-18.55 3.88c-26.74-6.82-22.29 2.11-22.29-14.72z" fill="#3f6b93"/><path d="M904.31 250.52l-3.74 29.84-18.48 6.2s-20.27-9.69-20.66-10.59 2-25.45 2-25.45c24.23 3.48 24.93 6.96 40.88 0z" fill="#3f6b93"/><path d="M884.68 145.14c-.38 1.84-4.51 5.61-4.51 5.61 0-4.05-.43-17.79 2.06-21 7.24-1.81 4.6 5.3 2.45 15.39z" fill="#f1bc9a"/><path d="M883.91 117.16c-.78 2.76-.78 11.44-1.68 12.61-2.83 3.63-1.14 21.46-3.23-6.46-14.32-22.07-4.76-32.82-11.88-24.79-5.53 6.11-34.72.73-45 2.06-1.71 23.18.45 15.37-5 22.48-1.55 2-1.71 9.73-1.68 12.27-7.36-12.12-1.74-4.9-5.68-20.94-1.94-7.87.12-15.1 2.31-16.78s1.17-3.23-.38-3-3.36-1.42-3.36-1.42c8.09 0 6.5-11.5 19-12.27 2.2-.14 20.28-4.91 24.16-5.17 1.13-.07 24.23.63 22.47 12.53 13.1 4.38 13.67 15.58 9.95 28.88z" fill="#2c1d1b"/><path d="M880.17 138.68c0 7.53.91 18.49-4.2 24.87-8.07 10-16.17 21.32-28.48 20.72-14.57-.71-28.79-20.54-33.46-34.36 1.56 1.81 1.43-14.58 1.43-14.58-.3-24.85 2.12 11 2.06 13a20.86 20.86 0 002.55 7.85c1.46 2.32 2.63 1.16 4.94.39 1.24-.42 2-1.94 2.78-3.46l1.58.46c0 .12-1.07 6.2.77 8.61 4.13 5.43 7.56 12.2 11.73 8.63 3.31-2.89 5.82-6.38 10.65-.69 4.05 4.76 6.28-1.19 8.91-3 5.7-3.92 5.32-3 5.62-14.41l1.84-.58c.77 1.17 3.4 5.62 6.39 5.52 5.06-.19 2.55-49.55 4.89-18.97z" fill="#ae978a"/><path d="M879.65 187v26.33c-31.83-21-11.91-2.34-11.91-39.9z" fill="#5682ab"/><path d="M825 156.57c-8.13 2.7-7.15-5.33-9-30.22 1-5.77 5.22-5.19 5.22-10.14 0-3.5.9-15.63.9-15.63 9.55-1.24 39.61 3.84 45-2.06 6.52-7.35-1.78 3.73 11.88 24.79.79 10.39-1.16 34.24-3.72 34.32-3 .1-5.62-4.35-6.39-5.52s-.38-2.61-3.19-2.91c-7.78-.81-5.76-1.94-9.79-2.13-5.28-.23-6.25 3.76-9.49 2.23-1.84-.87-2.43-1.94-4.36-1.84-18.23.93-12.41 7.54-17.06 9.11zM872.29 124c-4.85-6.56-7.31-5.71-16.86-5.44l-.77 3.88c13.4-2.14 8.82 1.14 17.63 1.56zm-2.43 8.52c0-5.65-11.29-7.45-14.48-1.31-5.17 4.39 14.48 6.55 14.48 1.34zm-30.66-10.05l-.79-3.88c-9.3-.27-12-1.14-16.84 5.44 9.04-.46 4.06-3.76 17.63-1.56zm-.48 10.08c0-1.14-3-5.14-8.09-5.19-4.45 0-6.81 3.49-6.81 4.32-3.16 4.32 14.9 5.65 14.9.87z" fill="#f8d5b0"/><path d="M869.66 131.85c3.37 5.51-20.13 4.4-14.28-.61 2.47-2.12 10.82-2.84 14.28.61zm-5.18.74a2.52 2.52 0 00-5 0c-.04 3.33 5 3.33 5 0z" fill="#f3f6f7"/><path d="M868.89 152.11c-7.64 2.4-37.33-1-41.09 1 1.23-2.52 1.47-5 14.26-5.63 1.93-.1 2.52 1 4.36 1.84 3.29 1.56 4.16-2.46 9.49-2.23 3.75.18 2.32 1.35 9.79 2.13 2.81.28 2.42 1.78 3.19 2.89z" fill="#ae978a"/><path d="M869.65 131.84c-1.63-2.83-11.22-3.25-14.27-.6 2.62-4.97 12.31-5.55 14.27.6z" fill="#3d2922"/><path d="M867.74 173.42c0 12.49-1.91 16.65-6.31 27.89-12.68 7.33-9.3 3.41-13.94 17.83-3.6-15-.31-10.79-15-17-3.27-20.81-4.83-15.06-4.69-29.74 10.08 14.5 28.45 16.6 39.94 1.02z" fill="#f7d1af"/><path d="M867.05 152.69c-.29 11.12.32 10.32-5.62 14.41-2.65 1.85-4.85 7.79-8.91 3-4.85-5.7-7.44-2.11-10.65.69-4.17 3.58-7.6-3.21-11.73-8.63-1.79-2.34-.83-8.28-.77-8.61 17.11 11.9 21.06 10.17 37.68-.86z" fill="#f8d5b0"/><path d="M862 130.06c3.33 0 3.33 5.05 0 5.05a2.53 2.53 0 010-5.05z" fill="#39403f"/><path d="M867.05 152.69c-16.56 11-20.5 12.81-37.68.88 0-.13.29.07-1.58-.46 2.11-2.11 3.51.56 39.26-.42zm-7.05 2.13h-24.34c6.83 6.41 17.27 5.35 24.34 0z" fill="#9d574d"/><path d="M835.66 154.82H860c-6.91 5.18-17.4 6.51-24.34 0z" fill="#fcf8f7"/><path d="M790.66 334.86c-6.74-.95-17.87 0-28.42 4.14 0 0-5.68-21.19-4.65-40.31s10.85-90.4 12.92-91.94c7.88-6 42.16-19.7 47-21.71v27.9l15-10.84c14.76 6.29 11.38 2.09 15 17 0 183 2.21 163.7-5.16 182.88-31.32-7.95-29.17-6.2-30.1-11.23-1.91-3.16-5.88-7.44-9.75-8.53-8.61-2.37-10.88-38.49-11.84-47.36zm45-56.57c-.81-22.87-1-22.44-3.15-38.61l-39.26 5.42c0 13.35-.37 5.05 1.92 36 23.38 7.15 18.34 7.51 40.49-2.81z" fill="#3f6b93"/><path d="M838.29 131.52c4.45 5.08-18.35 5.51-14.47.16 0-2.08 11.5-3.55 14.47-.16zm-4.36 1.07a2.52 2.52 0 00-5 0c-.04 3.33 5 3.33 5 0z" fill="#f3f6f7"/><path d="M838.29 131.52c-2.44-2.81-12.33-2.7-14.45.14 2.16-6 11.53-5.4 14.45-.14z" fill="#3d2922"/><path d="M833.93 250.52c.76.4 1.73 27.77 1.73 27.77-22.15 10.32-17.11 10-40.49 2.85l-1.92-26c11.75 3.02 25.12-1.35 40.68-4.62z" fill="#355b80"/><path d="M831.42 130.06c3.33 0 3.33 5.05 0 5.05a2.53 2.53 0 010-5.05z" fill="#39403f"/><path d="M832.51 202.1l-15 10.84c0-33.47-2.67-24.61 10.3-40.58-.13 14.8 1.39 8.72 4.7 29.74z" fill="#5682ab"/><path d="M815.46 135.33c.11 14.38-.68 20.63-5.56 7.1-1.13-3.17-4.25-18.52 1.56-13.69z" fill="#f1bc9a"/><path d="M814.94 687.57c-2.81.93-10.36 3.42-12.79 4.08-14.58 3.86-8 7.05-24.41 10.45-3.39.68-19.42 1.41-25.61-1.53-1.65-.79-1.31-.42-1.31-3.83 16.06 2.59 16.82 2.15 27.6-1.41.14 0 36.32-11.3 36.43-9.36.06.9.09 1.48.09 1.6z" fill="#4b5b6a"/><path d="M814.82 685.38c-48.55 11-38.63 15.23-61.81 11.72-2.76-.43-2.19.17-2.19-3.13 37-28.57 38-26.37 38.75-33.9 6.4-2 8.08-.14 9.2 2.35l15 3.84c0 .65.75 13.79 1.05 19.12z" fill="#515b64"/><path d="M814.82 685.38c-11 2.53-22.35 5.43-33.05 9-5.42 1.69-10.81 4-16.59 4a62.6 62.6 0 01-8.54-.66l-4.24-.59c-.54-.12-1.19 0-1.61-.44-.29-.28 0-2.35-.1-2.72v-.07c10-7.83 21.31-16.08 31.46-23.64 2.47-2 5.47-3.9 6.68-7a14.16 14.16 0 00.6-3.19 12.85 12.85 0 015.35-.87 4.63 4.63 0 013.95 3.17l15 3.87c.08 0 1 19.12 1 19.15zm0 0s-1.12-19.27-1.06-19.08l-15-3.82c-.74-1.65-2-3.06-3.94-3.14-1.65-.25-3.86.5-5.16.74 0 4.9-3.8 7.59-7.32 10.32-10.47 7.9-21.05 15.65-31.43 23.67v-.1l-.05 2.13c-.07.85 1 .65 1.54.79a90 90 0 0012.75 1.3c5.75 0 11.13-2.31 16.55-4 10.7-3.48 22.09-6.34 33.09-8.83z"/><path d="M806.81 404.73c-2.72 3.1-15.89 5.81-15.89 5.81-3.56-7.15-4.08 1.63-28.68-71.54 10.55-4.11 21.68-5.1 28.42-4.14 6.37 58.8 9.6 40.43 20 53.73 5.97 7.5-.4 12.2-3.85 16.14z" fill="#f4d0af"/><path d="M954.42 698.21c0 7.71-24.25 9.19-39.52-1.73-.16 0-3.53-3.1-20.95-7.53-4.68-1.12-3.9-.34-3.54-3.57 51.53 12.73 35.21 17.37 64.01 12.83z" fill="#515b64"/><path d="M954.42 698.21c-.68 6.73-14.26 6.51-19.26 5.86a44.34 44.34 0 01-20.26-7.47c-6.27-3.71-13.32-5.41-20.26-7.32-1.45-.48-3-.47-4.4-1.17a1 1 0 01-.24-1c.1-.66.21-1.3.28-1.95h.16l8 2.09A256.27 256.27 0 01930 697.8c7.78 3.53 16.37 1.53 24.47.41zm0 0c-8.11 1.19-16.72 3.29-24.53-.25a255.92 255.92 0 00-31.48-10.38l-8-2.06.19-.13c0 .69-.54 2-.12 2.49 3.65 1.12 7.54 1.83 11.21 3.06 4.52 1.45 9.23 2.84 13.25 5.43a45 45 0 0020.28 7.54c5 .65 18.51 1 19.24-5.7z"/><path d="M954.42 693.77c0 5.13.23 4.41-.69 4.56-.06 0-7.74 1.28-9 1.44-14.52 1.72-11.74-3.88-54.28-14.39-.77 6.94.43-19.31 3.37-17 12.58-6.4 12.57-6.28 12.59-6.41.6-3.48 8.6-3.53 9.69-1.35 4.77 9.61 30.25 27.72 38.32 33.15z" fill="#515b64"/><path d="M954.42 693.77v2.54a6.6 6.6 0 01-.1 1.89c-5.55.88-11.22 2.31-16.91 1.75-4.74-.49-11.08-3.52-15.59-5.09a299.23 299.23 0 00-31.46-9.36l.16-.11c0 .18-.11.79-.13 1v.22a.17.17 0 01-.16.1c-.05 0-.11-.07-.1-.07a68.21 68.21 0 01.58-9.12 41.71 41.71 0 011.41-7.6 3.23 3.23 0 011-1.71.68.68 0 01.75.11h-.15c1.59-.81 9.24-4.65 10.66-5.36.49-.24 1.45-.71 1.88-.95.93-3.22 6-3.34 8.66-2.36 1.18.42 1.63 1.79 2.26 2.74 5.91 8 14 14.09 21.77 20.24q7.56 5.82 15.47 11.19zm0 0c-10.5-7.18-20.84-14.7-30.19-23.36a44.64 44.64 0 01-8.45-10c-2-1.95-8.67-1.54-9.33 1.67-.49.34-1.43.75-2 1l-10.73 5.45c-.29-.35-.67-.13-.89.27-1.3 2.68-1.46 5.77-1.9 8.68a86.08 86.08 0 00-.65 8.93s0 .06 0 0 0-.06-.09-.05a.1.1 0 00-.1 0v-.14c0-.27.12-.82.15-1.09h.14c4.71 1.2 11.27 2.93 15.86 4.31a229.41 229.41 0 0115.59 5.17c4.5 1.58 10.81 4.63 15.55 5.14 5.47.62 10.89-.82 16.29-1.54.18-.06.46 0 .6-.14a6.53 6.53 0 00.1-1.88v-2.54z"/><path d="M814.94 687.57c-13.7 4.51-18.4 5-22.16 7.87-13.84 10.38-36.88 8.24-42 4.34 0-3.69-.58-3.11 2.19-2.68 23 3.48 11.41-.34 61.81-11.72.04.02.16 2.02.16 2.19z" fill="#515b64"/><path d="M814.94 687.57c-6.61 2.4-13.61 3.78-20 6.64-3.58 2.22-7 4.73-11.1 6a52.53 52.53 0 01-27.15 1.89 16.61 16.61 0 01-5.94-2.25h-.06v-.09c0-.9-.11-1.8 0-2.71a.5.5 0 01.51-.44c7.34 1.13 15 2.74 22.25.12 10.58-3.53 22.17-6.92 33-9.46l8.37-1.92s.12 2.2.13 2.2zm0 0s-.15-2.24-.12-2.18c-10.86 2.54-22.6 5.5-33.17 8.92l-8.17 2.69c-5.47 2-11.38 1.6-17 .76-1.75-.24-3.55-.53-5.28-.8-.27-.05-.24.35-.25.69 0 .71.05 1.44.05 2.15l-.06-.12a20.09 20.09 0 007.89 2.6 52.69 52.69 0 0025-2.19c4.07-1.31 7.5-3.79 11.09-6 6.45-2.85 13.46-4.14 20.1-6.49zM906.39 662a2 2 0 01-.06.4c0 .05 0 .17-.06.13a1.1 1.1 0 01-.42-.82c0-.08.1 0 .15 0s.35.11.39.26zm-92.66 4.26c2.36-20.11 9.09-65.66 10.75-85.09.67-11.88-1.5-23.9.17-35.74.83-4.45 3.07-16.48 3.93-21.08 3.35-18.05 12.26-65.88 15.73-84.5 2.83-1.89 9.2-4.71 9.84.67 5.65 28.4 15.52 78.29 21.17 107.18 0 10.22-.13 20.45.47 30.63a202.13 202.13 0 004.6 30.23c3.83 17.49 9.52 42.14 13.44 59.83 0 .05-.08.08-.09 0-4.2-17.83-10-42.16-13.94-59.73a201.53 201.53 0 01-4.78-30.3c-.65-10.23-.59-20.46-.62-30.68-5.68-28.48-15.41-78.62-21-107-.5-4.68-6.18-1.77-8.59-.28l.15-.24c-3.54 18.79-12.48 66.19-15.9 84.31-.87 4.65-3.12 16.58-4 21.08-1.69 11.78.43 23.77-.27 35.65-.45 8.38-2.45 20-3.45 28.4-.09 0-7.44 57-7.66 56.68zm-24.21-6.19c.67-37.9 2.74-90.57 2.44-127.87-.83-35.38-3.41-76.36-4.68-111.8 0 0-.69-16-.55-16s.92 16 1 16c1.82 36.4 4.47 75.47 5 111.81.08 37.06-2 90.64-3.17 127.88zm126.48.58c-2-38.27-6-91.49-6.42-129.24-.43-36.73 0-76.38.17-113.22l.17-16.17c.8 42 .18 87 .39 129.39.16 37.45 4.21 91.61 5.69 129.24zM762.2 339a167.78 167.78 0 01-4.13-22.81 111.45 111.45 0 01-.24-23.17c1.39-15.41 3.36-30.75 5.42-46.07 1-7.66 2.15-15.31 3.35-23 1.09-5.8 1.57-11.75 3.49-17.35a1.67 1.67 0 01.52-.44c4.61-3.16 9.74-5.48 14.75-7.88 10.72-5 21.68-9.5 32.61-14 0 9.53-.06 19.06-.1 28.58l-.56-.28 15.05-10.77.12-.09c2 .84 3.95 1.66 5.95 2.44s4.06 1.36 5.67 2.81 1.65 3.89 2.14 5.92.84 4.11 1.3 6.16c0 .05-.08.08-.09 0q-.75-3.06-1.43-6.13c-.5-2-.7-4.24-2.16-5.72s-3.71-1.85-5.59-2.64-3.92-1.52-5.86-2.33h.25l-14.93 10.92-.56.41v-.7c0-9.3-.13-18.6-.1-27.9l.63.43c-10.73 4.38-21.43 8.82-32 13.65-5.11 2.42-10.36 4.72-15 7.95-1.81 5.47-2.4 11.38-3.46 17.05-1.24 7.62-2.37 15.27-3.45 22.92-2.12 15.31-4.16 30.64-5.64 46a110.3 110.3 0 00.11 23.12A199.48 199.48 0 00762.2 339zm84.55 49.6a52.91 52.91 0 01-4.18 13.53l-.09.2-.22-.05c-8.68-2.14-21.09-4.81-29.37-7.74 8.64 1.4 20.9 4.95 29.5 7.21l-.31.15a63.5 63.5 0 004.67-13.3z"/><path d="M781.4 217.06c5.67 19 7.18 38.89 8.51 58.55s1.27 39.58.8 59.25c0 .06-.1.06-.1 0-.51-19.67-.5-39.55-1.44-59.22s-2.69-39.84-7.77-58.59zM879.7 187c10.3 4.42 20.89 8.67 31.16 13.3a99.86 99.86 0 0110.16 5 2.74 2.74 0 011.11 1.05c.9 2.34 2.5 6.9 3.35 9.32 2.33 7.16 5.26 14.23 6.5 21.69 2.6 18.68 4.47 37.44 6.32 56.2.39 5.23 1.36 14.57 1.44 19.77-.87 8.38-3.8 17-6.54 24.6 2.32-8.08 5.19-16.21 5.91-24.61-.17-5.11-1.25-14.44-1.73-19.67-1.46-15-3-30-4.65-45-.82-7.49-1.61-15-4.21-22.1-1.93-6.12-4.18-12.67-6.34-18.73l-.48-1.32a2.8 2.8 0 00-.94-.84C911.31 200.3 900 196 890 191.53c-1.54-.62-6.26-2.7-7.8-3.34l-1.29-.56a8.84 8.84 0 01-1.31-.65h.08z"/><path d="M882.18 394.83c-1.88.77-4.73 1.37-6.7 1.95-4.3 1.15-15.77 4.16-20.22 5.35h-.08v-.08c-1.78-3-4.37-6.85-5.58-10.1-1.37-3.52-1.78-7.58-2.09-11.34s-.42-7.81-.5-11.53c-.43-37.28.16-111.76.07-150 4.33-13.67 1.52-11.15 14.41-18.24l.18.12 18.17 12.09-.39.21c.07-8.77 0-17.65.25-26.37.2 8.73.18 17.6.25 26.37v.47l-.39-.26-18.27-11.92h.37c-1.74 1-3.5 2-5.25 3s-3.62 1.87-4.7 3.39-1.42 3.66-2 5.51c-.51 1.61-1.26 4.56-1.71 5.65 0 15.38 0 30.76-.11 46.14-.08 31.89-.77 72.27-.47 103.81.07 3.7.15 7.83.45 11.51s.66 7.77 2 11.27c1.16 3.28 3.8 7.07 5.51 10.09l-.14-.06c7.72-2 19.66-5 27-7.07zm22.09-60.48q0-35.21 2.13-70.38c.64-9.38 1.42-18.75 2.86-28a67.7 67.7 0 013.28-13.7c0-.06.11 0 .08 0a43.11 43.11 0 00-1.67 6.81c-2 11.56-2.74 23.28-3.65 35-1.77 23.31-2.43 47.23-3 70.32zm-71.8-132.25c-.88-4.95-1.85-9.89-3.21-14.74a37.88 37.88 0 01-1.61-7.42c-.23-2.54-.28-5.06-.29-7.59l.82.3a162.35 162.35 0 01-10.7 12.35q5.16-7.17 10.83-14c0 2.94-.14 5.91.06 8.82a37.26 37.26 0 001.41 7.35 107.79 107.79 0 012.69 14.88z"/><path d="M879.62 187c-2.59-2.84-5.13-5.72-7.65-8.61a35.22 35.22 0 00-3.89-4.09c-.07 0-.15-.05-.11-.05s0 0 0 .08c0 5.5.16 11.14-2.08 16.34-1.46 3.55-2.79 7.28-4.48 10.67 1-3.69 2.39-7.35 3.62-11a36 36 0 002.22-11.11c.12-1.7-.16-3.4.13-5.11.67-1.6 2.53 1.25 3.08 1.74l1.86 2.21c2.3 3 5.25 6.09 7.3 8.91zm-72.78 217.76c-2.1 2-5 2.76-7.64 3.69s-5.52 1.58-8.33 2.18a27 27 0 00-2.65-4.09c-2.72-4-4.59-8.52-6.5-13-7.39-17.86-13.52-36.21-19.81-54.48l-.11-.31.32-.13a69.54 69.54 0 0114-3.79 52.59 52.59 0 0114.56-.46l.34.05v.35c1.6 12.87 2.73 26.41 6.19 38.9 1 3.06 2.33 6.24 5.19 7.88a43.31 43.31 0 014.17 2.68c3.64 3 7.86 7.58 6.16 12.65-1.13 3.18-3.8 5.39-6 7.83zm-.07-.06c2.13-2.45 4.77-4.69 5.85-7.83 2-6.49-5.43-12.11-10.44-14.79a9.58 9.58 0 01-2.82-2.52 19.32 19.32 0 01-2.77-5.61c-2.94-9.52-4-19.4-5.26-29.21l-1.11-9.83.38.39a52.09 52.09 0 00-14.32.36 67.59 67.59 0 00-13.91 3.67l.2-.44c6.18 18.3 12.27 36.65 19.44 54.58 1.86 4.44 3.66 9 6.36 13 .8 1.24 2.23 2.88 2.53 4 2.78-.58 5.54-1.29 8.26-2.13s5.53-1.69 7.61-3.63zm126.51-66.77c-4.89 13.72-9.67 27.35-14.42 41.06-3.09 8.5-5.67 17.27-9.75 25.39-2.08 4.07-4.53 5.4-9.12 4.61-5.4-.63-11.11-2-15-6.08a11.84 11.84 0 01-.58-15.44c.94-1.34 3-2.46 4.43-3.3 9.95-5.68 11.22-18 12.63-28.27.94-7.18 1.72-14.39 2.54-21.58v-.33h.32c7.21 1 21.73 2.89 28.93 3.9zm-.08.05c-7.22-.78-21.72-2.48-28.93-3.31l.36-.29c-.74 7.21-1.41 14.43-2.27 21.63-1.41 10.52-2.82 23.14-13.08 28.89-1.3.78-3.35 1.82-4.25 3.09a11.05 11.05 0 00.46 14.43c3.69 3.94 9.36 5.32 14.57 5.95 4.37.74 6.51-.35 8.56-4.27 4.1-8.05 6.7-16.79 9.86-25.25 4.85-13.64 9.72-27.34 14.72-40.87zm-51.01-208.24c1.22-3.72.73-7.84 1.46-11.68 3.28-12 4.55-25-9.73-29.63h-.1v-.1c.36-3.1-.75-6.64-3.7-8.11A47.72 47.72 0 00851.5 76c-5.51.69-13.34 2.92-18.85 4.11-1.57.36-3.13.74-4.74 1a27.9 27.9 0 00-3.55.55 11.92 11.92 0 00-5.18 2.71c-2.44 2.15-3.76 5.21-6.2 7.4a7 7 0 01-4.63 1.72l.22-.54a5.32 5.32 0 002.43 1.36c.52.11 1-.11 1.52 0a1.42 1.42 0 011.14 1.36c0 1.32-1.26 2-1.8 2.57-2.83 4-2.82 9.48-2.12 14.2.77 3.87 1.93 7.78 2.1 11.86 0 1-.1 2.08-.07 3 .6 2.8 2.64 5.27 4 7.8l-.75.21c.05-3.81 0-7.73 1.17-11.43l.24-.56c.1-.19.23-.38.34-.56l.72-.9c.83-1.14 2.22-2.19 2.87-3.37a15.74 15.74 0 00.52-4.32l.22-4.55c.17-3.16.38-6.32.61-9.47h.37c9.89-.76 19.71.9 29.59 1a55.63 55.63 0 009.75-.53c2.39-.39 4.74-1.17 6.2-3.15.59-.52 2.18-2.87 2.79-1.33.37 3.07.28 6.17 1 9.2a53.85 53.85 0 007.72 18s.85 12.33.85 12.38c0 .73.17 2.31.28 3-.07-.06-.14.07-.11 0 .15-.78.25-2.16.36-3 .31-2 .47-4.19 1.64-5.93zm.07.06c-1.35 2.17-1.41 4.94-1.72 7.43l-.07.77v.68a.14.14 0 010 .06c-.27.37-.32-.7-.34-.77l-.08-.78-.13-1.54-1-12.32A53.77 53.77 0 01871 105.4c-.74-3-.75-6.1-1.09-9.12 0-.07-.06-.11 0-.08s.08 0 0 0a10.88 10.88 0 00-1.64 1.62c-1.54 2.13-4.14 3-6.59 3.45a54.74 54.74 0 01-9.89.65c-9.81.05-19.69-1.69-29.46-.93l.39-.42c-.34 4.37-.59 9.22-.8 13.62a15.77 15.77 0 01-.62 4.66c-1.89 2.75-4.55 4.23-4.72 7.44a60.91 60.91 0 00-.62 10.47c-1.25-2.15-2.6-4.27-3.78-6.47a8.43 8.43 0 01-1.06-3c0-1.1.12-2 .07-3-.13-4-1.28-7.83-2-11.76a24.49 24.49 0 01.82-12 7.62 7.62 0 012.1-3.27c.47-.38 1.07-1 1.06-1.57s-.73-.87-1.27-.76a5 5 0 01-3.62-1.51l-.63-.54h.84c5.34 0 6.92-6 10.44-8.93a14.63 14.63 0 019-3.37c5.48-1 13.38-3.11 18.85-4.23 4.76-1.37 9.69-.67 14.42.45 4.35 1.26 10.46 2 12.4 6.68a10 10 0 01.59 4.82l-.08-.14c6.13 2 10.85 6.51 11.72 13.09.82 5.67-.56 11.33-1.94 16.8-.76 3.86-.26 8-1.52 11.72z"/><path d="M811.43 128.77c-5.46-4.19-2.42 9.49-1.82 11.62a40 40 0 002.81 7.1 6 6 0 001.34 1.9c.14.1.14.06.15.06.71-1 .69-2.6.87-3.86.38-3.38.3-6.94.68-10.31a69 69 0 01.24 10.38 11.79 11.79 0 01-.76 4c-2.27 3.77-5.5-7.57-5.91-9.09-.57-2.81-2.33-10.68.07-12.63.88-.42 1.73.29 2.39.8 0 0 0 .11-.06.07zm68.78 9.91l.22 12.07-.44-.2c1.83-1.93 4.2-3.78 4.54-6.56l.34-1.64c.56-3.12 1.57-6.66 1.67-9.77.09-2.89-1.9-3.21-4.3-2.77-.06 0-.08-.07 0-.09 6.88-2.43 5.1 5.64 4.23 9.55l-.77 3.26a30.29 30.29 0 01-.87 3.3 22.94 22.94 0 01-4.92 5.52v-.6l.22-12.07h.09zm-25.52-16.24a32.52 32.52 0 018.95-.78c1.52.15 2.87 1 4.29 1.41a18.82 18.82 0 004.38.62l-.29.54a19.58 19.58 0 00-3.15-3.39c-3.78-3-9-1.69-13.43-2l.26-.22c-.29 1.21-.67 2.44-1 3.8zm-.07.06c.19-1.28.33-2.74.58-4.16h.22c8.22-.58 12.51-1.62 17.57 6.1l-.72-.06a18.77 18.77 0 01-4.5-.77c-1.48-.48-2.73-1.33-4.19-1.52-2.91-.42-6 .1-9 .43zm-15.39 0c-2.92-.34-6-.85-9-.42-1.46.2-2.72 1-4.2 1.51a19.19 19.19 0 01-4.5.77l-.71.06.43-.59c4.69-7.15 9.62-6 17.12-5.51h.22c.25 1.42.4 2.88.59 4.16zm-.07-.06c-.34-1.36-.72-2.59-1-3.79l.25.21c-7.11.18-11.94-1.38-16.56 5.37l-.29-.54a18.3 18.3 0 004.37-.63c1.38-.4 2.74-1.24 4.29-1.39a32.48 32.48 0 018.95.77zm30.54 9.39c1.73 3.25-4.47 3.78-6.51 3.91-2.2 0-9.54-.08-9.07-3.39a4.37 4.37 0 012.68-2.42c4.18-1.59 9.52-1.21 12.9 1.9zm-.07 0c-3.36-2.77-8.59-2.29-12.5-1.1-2.35.9-3.44 2.51-.43 3.55 2.09 1.09 15.24 2.13 12.93-2.45z"/><path d="M864.53 132.59a2.73 2.73 0 01-5.45 0 2.73 2.73 0 115.45 0zm-.09 0c0-2.72-4.58-2.73-4.63 0-.18 3 4.74 3 4.63 0z"/><path d="M869.63 131.89c-2.55-5.82-10.64-4.95-14.21-.63 0 .05-.1 0-.08 0 2.43-6 12.78-5.44 14.29.67zm-45.77-.18c-2.83 4.59 10.59 3.77 12.66 2.68 2.85-.94 2.29-2.63-.18-3.61-2.87-1-10.44-1.76-12.48.93zm-.08-.05c2.29-3.41 14.29-3.85 15.44.85.11 3.26-6.93 3.28-9.21 3.21-2-.14-8.32-.84-6.23-4.06z"/><path d="M828.94 132.59c-.12 3 4.8 3 4.62 0 0-2.72-4.59-2.71-4.62 0zm-.09 0a2.73 2.73 0 115.45 0 2.73 2.73 0 01-5.45 0z"/><path d="M823.79 131.64c1.93-6.23 12.34-6.11 14.54-.14 0 .05-.05.09-.08.05-3.66-4.56-11.7-5.57-14.46.09zm56.42 19.11c-.34 10.22-6.12 15.56-12.29 22.83-4.61 6.41-12.19 11.34-20.39 11-8.16-.14-15.7-5.49-20-11.89-2.48-3-6.32-7.09-8.36-10.42a51 51 0 01-5.17-12.34c1.68 3.7 3.15 8.39 5.69 11.95s5.62 6.79 8.49 10.18c4.42 6.38 11.45 11.44 19.39 11.75s15.35-4.26 20-10.54c4.07-4.84 9.52-9.82 11.38-16a31.15 31.15 0 001.18-6.49c0-.06.1-.06.09 0z"/><path d="M827.83 153.13a9 9 0 01-2.07 3.16 6.67 6.67 0 01-3.69.94c-4.43-.36-4.46-7.47-5-10.81-.35-3.34-.65-6.68-.8-10s-.45-7-.16-10.06c1.36 8.27 1.09 16.7 2.28 25 .58 3.61 1.91 6.64 6.15 5.27 1.71-.31 2.46-2.1 3.23-3.49 0-.05.11 0 .08 0z"/><path d="M879.45 128.65c-.34 8.79-.61 17.65-2.42 26.29a7.59 7.59 0 01-1 2.54 1 1 0 01-.75.44c-3.11-.14-5-3.19-6.56-5.47-.53-.66-.63-1.67-1.21-2.23a2.2 2.2 0 00-1-.5c-1.65-.29-3.53-.38-5.21-.78s-3.19-1.39-5-1.39c-2.75-.37-4.83 1.15-7.2 2.33-1.89.82-3.74-.64-5.18-1.57a3.6 3.6 0 00-2.33-.42c-1.75.08-3.49.21-5.23.41-2.51.39-5.32.71-7.18 2.58a10.16 10.16 0 00-1.34 2.23h-.08c1.08-3.85 5-4.84 8.51-5.4a39.39 39.39 0 016.68-.58c2.1.25 3.63 2.78 5.83 1.91a24.75 24.75 0 002.25-1.24 9.25 9.25 0 018-.47 17.07 17.07 0 005 1.32c1.72.23 4.19.23 4.71 2.35a10.55 10.55 0 001.25 2.22c1.32 1.83 2.87 4 5.26 4.17.77-.33 1-1.73 1.27-2.55 2-8.46 2.2-17.78 2.93-26.15z"/><path d="M829.36 153.61a4 4 0 01-1.31 0c-.09-.07-.33-.36-.25-.6a.85.85 0 01.51-.28c.27 0 .79.52 1.07.74v.09z"/><path d="M868.9 152.16c-.51.21-1.57.33-1.81.86-.12 2.06.16 4.25-.1 6.34-.17 1.41 0 3-.92 4.17-1.26 1.79-3.24 2.8-4.9 4.09-1.41 1.16-2.58 3.3-4.11 4.24a5.42 5.42 0 01-4.73-1.42c-1.4-1.51-2.88-3-5.09-2.93s-3.09 2.38-4.86 3.48a5.39 5.39 0 01-4.93.8c-.56-.12-1.06-.76-1.41-1.15-2.31-2.74-4.28-5.64-6.35-8.58-1.33-2.7-.82-5.69-.37-8.5.07 2.35-.51 5.85.91 8.17 1.69 2.2 3.41 4.5 5.17 6.68a20.45 20.45 0 002 2.31 4.39 4.39 0 004.43-.48c1.12-.75 2-1.84 3.2-2.75 1.82-1.49 4.72-.6 6.27.94 1.49 1.73 3.06 3.22 5.51 2.88 1.48-1 2.6-2.93 4-4.07 1.68-1.28 3.66-2.21 4.92-3.92.85-1.13.74-2.64.94-4 .32-2.13.06-4.24.25-6.36.3-.62 1.35-.68 1.92-.9 0 0 .08.07 0 .09z"/><path d="M867.05 152.73c-9.88.4-19.79.79-29.67.28-2.46-.14-4.92-.5-7.37-.61a3 3 0 00-2.21.75s-.07 0-.07-.05a.05.05 0 01.06 0c1.12-1.43 3.15-1.1 4.74-1.13l4.94.16c9.77.59 20.11.45 29.62.63zm-7.11 2.11c-7.1 0-17.1.26-24.28.34l.25-.62c6.58 6.1 17 5 24 .28zm.09 0c-7 6.26-18.7 6.81-25.27-.36 7.49.09 17.9.3 25.27.36z"/><path d="M867.07 152.73c-15.55 11-21.89 13.47-37.73.87 0 0 0-.1.06-.07 18.08 11.15 20.38 9.83 37.67-.8zm-3.58 97.83c-.56 7.47-1.72 17.63-1.92 25 0 .27-.08.28.24.5 3 1.86 6.27 3.32 9.42 4.93 3.31 1.74 8.21 3.79 10.77 5.28l18.45-6.27-.24.3c.88-7.44 2.72-22.42 3.65-29.85l.63.47c-4.78 2.08-9.88 4.1-15.22 4s-10.38-1.56-15.53-2.49c-2.54-.49-7.69-1.44-10.25-1.87zm0-.07c8.64.82 17.17 3.2 25.84 3.64 5.49 0 10.59-2.22 15.59-4.34-1 7.84-2.91 22.79-3.94 30.62v.23l-.22.07-18.5 6.12h-.11l-.1-.05q-5.49-2.67-11-5.39c-3.16-1.64-6.4-3.15-9.42-5.06a1.15 1.15 0 01-.34-.33v-.44c.39-8.43 1.39-16.7 2.22-25.11zm-29.55-.01a4.9 4.9 0 01.39 1.73l.17 1.74c.63 7.91 1 16.43 1.36 24.33v.13l-.11.06c-21.45 10.31-18 10-40.68 3l-.25-.08v-.26c-.71-8.86-1.41-17.72-2-26.58 13.76 3.39 27.62-1.83 41.19-4.1zm0 .09c-13.29 2.82-27.07 8.19-40.79 5.05l.57-.48q1 13 1.84 26l-.27-.33c22.6 7.14 18.86 7.36 40.3-2.67l-.11.19c-.19-6.7-.51-14.14-.86-20.87a51.58 51.58 0 00-.68-6.86z"/><path d="M793.2 255.17l-.12-10.07v-.1l29.55-4.39c3.4-.5 6.81-.92 10.22-1.32.45 3.75.81 7.5 1.13 11.27-.85-3.2-1.25-7.29-1.86-10.79l.44.33c-3.26.52-6.53 1-9.8 1.44l-29.49 3.77.15-.17-.13 10.07c0 .06-.09.06-.09 0zm70.22-4.65l-.13-10.84v-.19c.21 0 20.43 1.35 20.64 1.35 6.92.41 13.83.93 20.73 1.63-.07 2.69-.16 5.37-.29 8.05h-.09c-.13-2.58-.22-5.16-.29-7.75l.31.33c-6.82-.34-13.63-.87-20.43-1.49l-20.41-1.75.2-.18-.14 10.84c0 .06-.09.06-.09 0zm-84.98 444.85c-2.55 1.23-5.48 3.15-8.38 2.46a14 14 0 014.18-1.29c1.39-.35 2.78-.79 4.17-1.25.05 0 .08.06 0 .08zm175.3 3.01c-2.86.52-5.91 1.94-8.79 1.34a9.82 9.82 0 014.35-1.05c1.47-.15 2.94-.28 4.42-.38v.09zm-17.35 1.47a20.6 20.6 0 01-5.56-1.14 6.15 6.15 0 01-1.61-1.06v-.08a8.15 8.15 0 013.62 1 30.48 30.48 0 003.52 1.22c.05 0 0 .1 0 .09z"/><path d="M843.28 146.36a116 116 0 01.2-11.94 116 116 0 01-.2 11.94zm7.4-12.48q.81 6.39 1 12.82-.81-6.39-1-12.82z" fill="#f1bc9a"/><path d="M1180.49 702.55c-23.6-44.67-42.61-91.78-57.92-140s-27-97.74-36.16-147.6-15.81-100.19-20.93-150.62-8.7-101-11.55-151.52a12.26 12.26 0 0124.48-1.38v.5c.8 50.37 2.33 100.7 5.38 150.92s7.62 100.33 14.69 150.13 16.67 99.26 30 147.83 30.24 96.19 52.01 141.74z" fill="#00a651"/><path fill="#00a651" d="M1064.98 75.62l23.07 50.91-21.59-11.48-20.66 13.06 19.18-52.49z"/><path d="M306.08 236.14l67.74.88v81.31c-20.72 0-41.44-.11-62.15.2-6.11.1-4.82 6.2-4.79 79.16-1.1.31-.76 11.95-.8-161.55z" fill="#b6ba40"/><path fill="#00cb70" d="M459.45 237.34l-.25 80.03-67.75.89-.1-81.06 68.1.14z"/><path fill="#7de0b2" d="M459.45 237.34l-68.1-.14-.07-80.48 68.35.14-.18 80.48z"/><path fill="#b0ecd0" d="M459.65 156.24l-68.1-.14-.06-80.48 68.35.14-.19 80.48z"/><path d="M391.45 318.26l67.75-.89.07 80.44c-67.91 0-67.48 0-67.92.08z" fill="#009a5b"/><path fill="#5071cb" d="M561.61 317.42l.06-81.26 67.73-.09.03 81.31-67.82.04z"/><path fill="#0079c1" d="M545.15 236.11v81.23h-67.74l-.02-81.25 67.76.02z"/><path d="M561.53 156.68c0-76.53-1.27-80.14 4.68-80.24q29.17-.48 58.37 0c6.46.12 4.89 7.9 4.94 80.07z" fill="#c7cfe7"/><path d="M629.37 396.88c.28 79.36 1.66 80.13-3.7 80.18-59.82.52-64 .5-64-2.74-.15-25.81 0-51.63 0-77.44z" fill="#262b70"/><path fill="#01b3e0" d="M545.15 236.11l-67.76-.02.06-80.19 67.65-.11.05 80.32z"/><path fill="#015e80" d="M477.41 317.34h67.74l.04 80.34-67.76.02-.02-80.36z"/><path d="M306 156.74c-.1-75.45-1.69-80.19 4.45-80.27q29.38-.39 58.76 0c5.93.09 4.67 5 4.6 80.17z" fill="#f3ebab"/><path d="M306.11 397.76h67.65c.25 78.06 1.73 80.36-4.16 80.3l-63.33-.66z" fill="#64663b"/><path d="M219.74 157.59c-.07-75.14-1.41-80.08 4.6-80.17q29.39-.44 58.79 0c6.13.08 4.61 3.24 4.49 80.23z" fill="#fabf97"/><path fill="#fe9d72" d="M219.74 157.61h67.88v80.37h-67.88z"/><path fill="#fe7d41" d="M219.74 237.96l67.88.04-.06 80.35-67.77-.01-.05-80.38z"/><path fill="#d77627" d="M219.79 318.34l67.77.01v80.24l-67.78-.02.01-80.23z"/><path d="M391.51 397.83h67.76l.52 79.06c-1.1 1.7 0 1.19-68.44 1z" fill="#00712f"/><path fill="#dfcb42" d="M306.02 156.74l67.81-.08-.01 80.36-67.74-.88-.06-79.4z"/><path fill="#90abdc" d="M561.53 156.68l67.99-.15-.12 79.54-67.73.09-.14-79.48z"/><path fill="#2941b4" d="M629.37 396.88h-67.72l-.04-79.46 67.82-.04-.06 79.5z"/><path d="M545.1 155.79l-67.65.11c-.07-25.3-.2-50.61 0-75.92 0-4.63 6.62-4.32 63.38-3.63 5.58.07 4.44.3 4.27 79.44z" fill="#9ae1f5"/><path d="M477.43 397.7h67.76c.07 25.48.18 50.95 0 76.43 0 3.5-3.56 3.5-64.26 2.95-4.63-.08-3.67-.67-3.5-79.38z" fill="#003b4e"/><path d="M219.78 398.57h67.79c.06 25.48.17 51 0 76.44 0 4.15-5.78 3.72-64.06 3.21-5.13-.03-3.96-.38-3.73-79.65z" fill="#6f4b25"/><path d="M373.76 397.76l-66.88-.07c0-24.85-.11-49.7.17-74.55.07-6.07 5.62-4.81 66.77-4.81z" fill="#b29830"/></svg>