<svg xmlns="http://www.w3.org/2000/svg" viewBox="0 0 1400 780"><path fill="#bdbdb0" stroke="#356a00" stroke-linecap="round" stroke-miterlimit="10" d="M0 0h1400v780H0z"/><path d="M512.18 118.5l.79 3.87c-13.31-2.15-9 1.12-17.63 1.56 4.84-6.56 7.34-5.71 16.84-5.43zm33.88 5.43c-9-.46-4.07-3.75-17.63-1.56l.77-3.87c9.33-.27 11.99-1.15 16.86 5.43z" fill="#352d2a"/><path d="M506.28 239.58l1.43 10.85c-16 3.36-29 7.62-40.69 4.65V245z" fill="#4c5b6a"/><path d="M628.19 700.26c0 3.11-13.94 3.88-19.37 3.88-12.51 0-13.71-8.77-44.94-16.27 0 0 .13-1 .3-2.59 36.43 9 41.94 15.67 51.36 14.73 12.66-1.27 12.65-3.39 12.65.25z" fill="#f3f2f5"/><path d="M628.19 693.67v4.45c-27.11 5-13.24-.26-64-12.84.59-5.38.58-19.21 3.38-17 5.64 4.5 6.65 1 10.84 0 3.56-.83 1.31-3.71 1.74-6.4.55-3.4 8.58-3.59 9.7-1.35a41.68 41.68 0 003.47 4.55l-12.38 3.2c12 1.48 10.57-.39 6.2 6.39 10.58.67 9.26-1 5.55 5.68 11.9.19 10.1-1.29 7.37 4.91 13.12-6.12 5.07-7.08 28.13 8.41z" fill="#f3f2f5"/><path d="M578.08 334.25c-4 36.89-4.49 44.33-17.3 51.4-2.7 1.49-4.51 5.94-4.84 9-1.94.74-.11.19-26.93 7.23-11.07-19.18-7.75.27-7.75-182.88 4.64-14.41 1.26-10.5 13.94-17.82l18.22 12V186.9c2.12.89 41.41 17.29 42.23 19.36s7.75 21.57 9.3 28.28 8.26 72.33 8.26 78.52-6.2 24.8-6.2 24.8zm0-91.58l-40.84-3.09c0 18.75-2.61 35-2 36.3.39.89 20.66 10.58 20.66 10.58l18.48-6.19c4.32-34.74 3.7-27.27 3.7-37.6z" fill="#4c5b6a"/><path d="M610 680.64c-12.49 5.85-10.6 6.19-7.82-.12z" fill="#f3f2f5"/><path d="M610 680.64c-9.84-.15-8.45 1.31-5.73-4.85 1.9 1.65 3.95 3.41 5.73 4.85z" fill="#f3f2f5"/><path d="M607 337.86c-26 71.55-23 71.95-33.83 70.65-22.22-2.68-18.87-19.28-12.4-22.86 13.2-7.29 13.43-15.37 17.3-51.4z" fill="#dfd1c4"/><path d="M604.23 675.79c-2.63 6-.18 4.76-11.55 4.58 10.32-4.09 11.55-4.71 11.55-4.58z" fill="#f3f2f5"/><path d="M604.22 675.77c-14.53 5.8-12.46 6.28-8.69-.55z" fill="#f3f2f5"/><path d="M604.2 675.77c-10.92-.69-9.46.89-6-5.33 1.1 1.04 3.44 3.1 6 5.33z" fill="#f3f2f5"/><path d="M598.17 670.44c-3.32 6-1 4.89-11 4.25z" fill="#f3f2f5"/><path d="M598.17 670.44c-14.14 5.45-12 5.77-7.68-1z" fill="#f3f2f5"/><path d="M598.17 670.44c-9.67-1.21-8.53.36-4.86-5.34a68 68 0 004.86 5.34z" fill="#f3f2f5"/><path d="M593.31 665.1c-3.55 5.52-.91 4.62-12.38 3.2z" fill="#f3f2f5"/><path d="M589.84 660.55c-1.1-2.19-9.1-2.14-9.7 1.35l-12.58 6.4c-18.79-82.46-18.92-74.86-18.92-120.69L527.46 440c-1-5.25-9.06 0-9.06 0s-18.33 98.84-19.87 106.08 1 27.89-.52 40.81-10.46 79.3-10.46 79.3l-15-3.84c-1.12-2.49-2.8-4.35-9.2-2.36 6.21-245.7-10-272.41 1.35-249.52 0 0 13.18-2.71 15.89-5.82s6.82-6.39 6.12-10.17l29.4 7.46 5.22-22.35a39.43 39.43 0 007.67 22.33c26.8-7 25-6.49 26.93-7.23-1.41 12.76 26.37 19.83 27.82 7.23.01 175.48-1.56 117.08 6.09 258.63z" fill="#8d6c56"/><path d="M580.16 663.45c.4 3.11.77 4.26-1.76 4.85-4.17 1-5.2 4.5-10.84 0 14.92-7.59 12.33-6.94 12.6-4.85z" fill="#dfcdbc"/><path d="M578.08 242.67v7.76s-12.44 5.42-18.55 3.88c-26.74-6.82-22.29 2.1-22.29-14.73z" fill="#586a7a"/><path d="M578.08 250.43l-3.74 29.84-18.48 6.19s-20.27-9.69-20.66-10.58 2-25.45 2-25.45c24.23 3.47 24.93 6.95 40.88 0z" fill="#586a7a"/><path d="M558.45 145.05c-.38 1.84-4.51 5.6-4.51 5.6 0-4.05-.43-17.78 2.06-21 7.25-1.81 4.61 5.35 2.45 15.4z" fill="#d7c2b4"/><path d="M557.68 117.06c-.77 2.76-.77 11.45-1.68 12.61-2.83 3.63-1.14 21.46-3.23-6.45-14.32-22.08-4.76-32.83-11.88-24.8-5.53 6.12-34.72.73-44.95 2.06-1.71 23.18.45 15.38-5 22.48-1.55 2-1.71 9.74-1.68 12.27-7.36-12.12-1.74-4.89-5.68-20.93-1.94-7.88.12-15.1 2.32-16.79s1.16-3.22-.38-3-3.37-1.43-3.37-1.43c8.09 0 6.51-11.5 19-12.27 2.2-.13 20.29-4.91 24.16-5.16 1.13-.08 24.23.63 22.47 12.52 13.06 4.4 13.62 15.59 9.9 28.89z" fill="#272120"/><path d="M553.94 138.58c0 7.54.91 18.5-4.2 24.87-8.07 10-16.16 21.32-28.48 20.72-14.57-.71-28.79-20.53-33.46-34.35 1.56 1.8 1.43-14.59 1.43-14.59-.29-24.85 2.12 11 2.06 13a20.91 20.91 0 002.55 7.85c1.46 2.32 2.63 1.15 5 .38 1.23-.42 2-1.94 2.77-3.46l1.58.46c0 .12-1.07 6.21.77 8.62 4.13 5.42 7.56 12.2 11.73 8.62 3.31-2.88 5.82-6.37 10.65-.68 4.05 4.76 6.29-1.2 8.91-3 5.7-3.93 5.32-3 5.62-14.42l1.84-.57c.77 1.16 3.4 5.61 6.39 5.52 5.01-.18 2.5-49.55 4.84-18.97z" fill="#a39a95"/><path d="M553.42 186.9v26.33c-31.83-21-11.91-2.35-11.91-39.9z" fill="#708192"/><path d="M498.79 156.47c-8.13 2.71-7.16-5.32-9-30.22 1-5.76 5.22-5.19 5.22-10.14 0-3.49.9-15.63.9-15.63 9.55-1.24 39.61 3.85 44.95-2.06 6.52-7.34-1.78 3.73 11.88 24.8.79 10.38-1.16 34.23-3.72 34.32-3 .09-5.62-4.36-6.39-5.52s-.38-2.62-3.19-2.91c-7.78-.82-5.76-1.94-9.79-2.14-5.28-.22-6.24 3.77-9.48 2.24-1.84-.88-2.43-1.94-4.37-1.84-18.2.92-12.38 7.54-17.01 9.1zm47.27-32.54c-4.85-6.55-7.31-5.71-16.86-5.43l-.77 3.87c13.4-2.17 8.82 1.11 17.63 1.56zm-2.43 8.53c0-5.66-11.29-7.45-14.48-1.32-5.15 4.36 14.48 6.52 14.48 1.32zM513 122.37l-.79-3.87c-9.3-.27-12-1.15-16.84 5.43 9.01-.46 4.03-3.76 17.63-1.56zm-.48 10.09c0-1.14-3-5.15-8.08-5.19-4.46 0-6.81 3.48-6.81 4.32-3.19 4.34 14.86 5.64 14.86.87z" fill="#e2d4c6"/><path d="M543.43 131.76c3.37 5.5-20.13 4.39-14.28-.62 2.48-2.14 10.85-2.84 14.28.62zm-5.17.73c0-3.34-5-3.34-5 0s5 3.33 5 0z" fill="#f4f5f6"/><path d="M542.66 152c-7.64 2.39-37.33-1-41.09 1 1.23-2.53 1.47-5 14.26-5.63 1.94-.1 2.53 1 4.37 1.84 3.28 1.55 4.15-2.46 9.48-2.24 3.75.18 2.32 1.35 9.79 2.14 2.81.29 2.42 1.74 3.19 2.89z" fill="#a39a95"/><path d="M543.42 131.75c-1.63-2.84-11.21-3.26-14.27-.61 2.59-4.97 12.31-5.55 14.27.61z" fill="#352d2a"/><path d="M541.51 173.33c0 12.49-1.91 16.64-6.31 27.89-12.68 7.32-9.3 3.41-13.94 17.82-3.6-15-.3-10.79-15-17-3.27-20.81-4.82-15.06-4.68-29.74 10.07 14.51 28.42 16.6 39.93 1.03z" fill="#e1d2c5"/><path d="M540.82 152.59c-.29 11.13.32 10.33-5.62 14.42-2.65 1.84-4.85 7.79-8.91 3-4.84-5.71-7.44-2.12-10.65.68-4.17 3.58-7.6-3.2-11.73-8.62-1.79-2.35-.83-8.29-.77-8.62 17.11 11.91 21.06 10.18 37.68-.86z" fill="#e2d4c6"/><path d="M535.74 130c3.33 0 3.33 5 0 5a2.52 2.52 0 010-5z" fill="#3b3e3e"/><path d="M540.82 152.59c-16.55 11-20.5 12.82-37.68.88 0-.12.29.08-1.58-.46 2.11-2.12 3.51.56 39.26-.42zm-7.07 2.14h-24.31c6.82 6.4 17.26 5.34 24.31 0z" fill="#856965"/><path d="M509.44 154.73h24.31c-6.88 5.21-17.38 6.5-24.31 0z" fill="#fbf9f9"/><path d="M464.43 334.77c-6.74-1-17.87 0-28.41 4.13 0 0-5.69-21.19-4.65-40.3s10.84-90.4 12.91-92c7.88-6 42.17-19.69 47-21.7v27.9l15-10.85c14.76 6.29 11.38 2.09 15 17 0 183 2.22 163.7-5.16 182.88-31.32-7.95-29.17-6.2-30.1-11.23-1.91-3.16-5.88-7.44-9.75-8.52-8.6-2.32-10.88-38.45-11.84-47.31zm45-56.58c-.81-22.86-1-22.44-3.16-38.61L467 245c0 13.35-.37 5 1.93 36 23.39 7.15 18.35 7.51 40.51-2.81z" fill="#586a7a"/><path d="M512.06 131.43c4.45 5.07-18.35 5.5-14.46.16 0-2.09 11.49-3.59 14.46-.16zm-4.35 1.06c0-3.34-5-3.34-5 0s5 3.33 5 0z" fill="#f4f5f6"/><path d="M512.06 131.43c-2.44-2.82-12.33-2.71-14.45.13 2.2-5.99 11.53-5.4 14.45-.13z" fill="#352d2a"/><path d="M507.71 250.43c.76.39 1.73 27.76 1.73 27.76-22.15 10.32-17.12 10-40.49 2.85l-1.93-26c11.71 3.02 25.12-1.35 40.69-4.61z" fill="#4c5b6a"/><path d="M505.19 130c3.33 0 3.33 5 0 5a2.52 2.52 0 010-5z" fill="#3b3e3e"/><path d="M506.28 202l-15 10.85c0-33.48-2.67-24.61 10.31-40.59-.13 14.81 1.41 8.74 4.69 29.74z" fill="#708192"/><path d="M489.23 135.23c.12 14.39-.68 20.64-5.56 7.1-1.13-3.17-4.25-18.52 1.56-13.69z" fill="#d7c2b4"/><path d="M488.59 685.28l.12 2.2s-9.87 3.29-12.78 4.07c-14.7 3.91-7.94 7-24.42 10.46-2.48.51-21.58 1.79-26.92-2.32v-3.05c25.62 4.3 12.61.27 64-11.36z" fill="#f3f2f5"/><path d="M488.59 685.28l-22.87 5.17c-17 3.82-14.9 10.59-41.13 6.19 0-6 10.26-8.3 35.6-30l2.36 3.65c-9.68 1.21-8.49-.48-5 5.74-11 .7-9.34-.88-6.61 5.3-10.44.17-10.4-1.08 2.1 4.76-2.74-6.2-4.55-4.72 7.36-4.9-3.71-6.71-5-5 5.56-5.68-4.39-6.81-5.84-4.91 6.18-6.4-14-3.63-11.5-2.55-10.32-3.92s1.56-5.23 1.56-5.23 5.61-1.74 7.55 0 2.74 5 2.33 6.39c-1.12 3.87 9.34 5.38 11 3.68 4.57-4.56 2.94-8.8 4.33 15.25z" fill="#f3f2f5"/><path d="M472.54 662.33l15 3.84s-2.13 2.71-3.29 3.87c-1.73 1.73-12.14.14-11-3.68a6.91 6.91 0 00-.71-4.03z" fill="#dfcdbc"/><path d="M480.58 404.63c-2.71 3.11-15.89 5.82-15.89 5.82-3.56-7.16-4.08 1.62-28.67-71.55 10.54-4.1 21.67-5.09 28.41-4.13 6.37 58.8 9.6 40.43 20 53.73 5.97 7.5-.43 12.2-3.85 16.13z" fill="#dfd1c4"/><path d="M472.1 669.12c-11.45 1.42-8.93 2.13-11.91-2.47.81-.65-.74-.8 11.91 2.47z" fill="#f3f2f5"/><path d="M462.55 670.3c4.47 6.92 6.22 6.31-7.69 1z" fill="#f3f2f5"/><path d="M465.92 675.52c-10.09.63-7.72 1.76-11.06-4.26z" fill="#f3f2f5"/><path d="M457.51 676c3.77 6.83 5.84 6.35-8.71.56z" fill="#f3f2f5"/><path d="M460.36 681.2c-11.35.17-8.92 1.38-11.56-4.6z" fill="#f3f2f5"/><path d="M450.9 681.34c2.78 6.31 4.67 6-7.83.13z" fill="#f3f2f5"/><path d="M604.22 675.73c.36 0 .55.33.78.53 7.1 6.64 15.4 11.83 23.39 17.31v6.59c0 1.12-1.44 1.62-2.24 2-8.83 3.42-18.91 2.81-27.76-.26a41.07 41.07 0 01-8.46-4.17 31.12 31.12 0 00-8.27-4.14 189.46 189.46 0 00-18.32-5.37c.44-3.46.62-7 .92-10.47.31-3 .37-6 1.39-8.84a2 2 0 011-1.15 1 1 0 01.88.14c1.73 1.3 3.77 3 6.06 2.15 1.55-.55 3-1.59 4.68-1.91 2.17-.36 2.22-1.89 1.89-3.71a6.25 6.25 0 010-2.58 12.38 12.38 0 00.22 2.55c1 4.21-1.5 3.56-4.29 5-3.16 2-5.47 1.7-8.38-.59-.37-.27-.65-.48-.81-.4-1 .94-1 3-1.32 4.37-.61 5-.6 10.09-1.24 15.14l-.35-.51a171.5 171.5 0 0118 5.36 31.71 31.71 0 018.39 4.3 40.68 40.68 0 008.28 4.17c8.65 3.08 18.64 3.75 27.33.47.72-.36 1.6-.7 1.94-1.37v-6.68c-5.56-3.48-12.44-8.56-18.14-13a54.72 54.72 0 01-4.92-4.34c-.22-.2-.42-.49-.71-.51-.07 0-.06-.1 0-.09z"/><path d="M589.88 660.53c3.64 6.05 10 9.92 14.35 15.27a37.57 37.57 0 01-8-6.87c-2.26-2.52-5.21-5.43-6.32-8.4zm-117.3 1.78c.91 1.71.57 3.72 1 5.5.73 1.78 3 2.14 4.65 2.62a7.47 7.47 0 005.41-.31c1.61-.92 2.63-2.58 3.78-4l.24-.3v.39l1.34 21.25v.18c-5.4 1.84-10.87 3.5-16.32 5.14a18.27 18.27 0 00-7.3 3.9l-1.75 1.24c-6.78 4-14.83 5.18-22.59 5.33-5.7-.1-11.88-.15-16.86-3.32v-6.29l.18-.13c3.48-2.66 6.92-5.35 10.45-8 6.23-4.6 15-11 21.14-15.53 2.48-2 5.5-3.81 6.74-6.88a13.61 13.61 0 00.65-3.18.05.05 0 01.1 0c.07 4.86-3.73 7.7-7.21 10.42s-7 5.28-10.46 7.92c-5.2 3.95-15.67 11.93-20.85 15.91l.18-.36v5.82l-.18-.36a19.77 19.77 0 007.76 2.52c10.26 1.32 21.44.64 30.61-4.48 1.74-1.13 3.38-2.64 5.23-3.62a23.7 23.7 0 014-1.53c5.42-1.59 10.81-3.19 16.17-5l-.16.23-1.08-21.32.26.09c-1.62 2.16-3.58 4.91-6.66 4.73a15.14 15.14 0 01-5.5-1.24 3.5 3.5 0 01-2.05-1.89 13.46 13.46 0 01-.28-2.81 8.49 8.49 0 00-.67-2.71c0-.05.06-.09.08 0z"/><path d="M583.81 401.92c.26 51.06-.94 111.17 1 161.72 1.19 21.83 3.94 74.39 5.31 96.9v.89l-.49-.78c-1.59-2.16-8.62-1.8-9.25 1.29v.11l-.11.06-12.58 6.41-.28.14-.07-.3-6.89-29.88c-3.41-15-7.16-29.84-9.77-45s-2.29-30.88-2.33-45.86c-5.41-27.15-15.09-76.7-20.4-103.41l-.73-3.69a4.07 4.07 0 00-.54-1.64c-1.83-2.32-6.08.25-8 1.36-4.27 24.65-13.64 72.94-18.24 98.15l-1.31 7c-1.66 11.77.47 23.73-.2 35.63-1.7 19.51-8.55 65.62-10.93 85.63l-.5-.13-15-3.83h-.21c-.65-1.65-1.82-3-3.67-3.09a15.63 15.63 0 00-5.68 1v-.62c1-37.77 3-90.64 3-127.86-.8-37.13-3.8-90.16-5.4-127.77 0-.06.09-.07.09 0 3 62 7.79 130 4.84 191.73L463.79 660l-.59-.44a14.56 14.56 0 015.44-.82 5.09 5.09 0 014.32 3.42l-.31-.26 15 3.85-.56.38 7.5-56.7c1-8.4 3-20 3.41-28.35.69-11.86-1.46-23.91.24-35.76l1.32-7c4.73-25.5 13.65-72.45 18.47-98.36v-.16l.13-.08c2.23-1.3 4.6-2.67 7.31-2.3 1.44.19 2.31 1.77 2.41 3.06l.73 3.69c1.78 9.14 6.83 34.8 8.69 44.33 0 0 11.61 59.13 11.6 59.16 0 10.21-.09 20.44.53 30.63a200.79 200.79 0 004.67 30.23c3.84 17.43 9.63 42.15 13.65 59.78l-.34-.17 12.59-6.44-.13.17c.66-3.45 8.27-4.06 10.13-1.42l-.43.12c-2-38.18-5.62-91.58-6-129.25 0-37.49-.12-91.69.21-129.39zm-147.81-63a169.77 169.77 0 01-4.13-22.82 110.77 110.77 0 01-.23-23.17c1.38-15.4 3.36-30.74 5.41-46.06 1.05-7.66 2.15-15.32 3.36-23 1.08-5.79 1.56-11.75 3.49-17.35a1.78 1.78 0 01.51-.44c4.61-3.16 9.74-5.47 14.76-7.87 10.71-5 21.67-9.51 32.61-14 0 9.53-.07 19.06-.11 28.59l-.56-.29 15.05-10.77.12-.08c2 .84 3.95 1.66 6 2.43s4.07 1.36 5.67 2.82 1.65 3.89 2.14 5.92.84 4.11 1.3 6.15c0 .06-.08.08-.09 0-.5-2-1-4.08-1.43-6.13s-.7-4.24-2.16-5.71-3.71-1.85-5.59-2.65-3.92-1.52-5.86-2.32h.25l-15.01 10.96-.56.41v-.69c0-9.3-.14-18.6-.11-27.9l.63.42c-10.73 4.39-21.43 8.82-32 13.65-5.11 2.43-10.36 4.73-15 8-1.81 5.46-2.4 11.38-3.46 17-1.24 7.63-2.37 15.27-3.45 22.93-2.12 15.3-4.16 30.63-5.64 46a110.29 110.29 0 00.11 23.12 201.49 201.49 0 003.9 22.84zm84.52 49.58a52.28 52.28 0 01-4.18 13.5l-.09.2-.22-.05c-8.68-2.14-21.09-4.81-29.37-7.73 8.64 1.39 20.9 4.94 29.5 7.21l-.31.15a63.59 63.59 0 004.67-13.31z"/><path d="M455.18 217c5.66 19 7.17 38.88 8.5 58.55s1.27 39.57.8 59.25h-.09c-.52-19.67-.5-39.55-1.45-59.21s-2.68-39.85-7.76-58.59zm98.29-30.11c10.3 4.42 20.89 8.66 31.16 13.29a100.92 100.92 0 0110.16 5 2.81 2.81 0 011.11 1c.9 2.34 2.5 6.9 3.35 9.32 2.33 7.16 5.26 14.24 6.5 21.69 2.6 18.68 4.48 37.44 6.32 56.2.39 5.23 1.36 14.58 1.45 19.77-.88 8.38-3.81 17-6.55 24.61 2.32-8.08 5.19-16.21 5.92-24.62-.18-5.11-1.26-14.43-1.74-19.67-1.46-15-3-30-4.65-45-.82-7.48-1.61-15-4.21-22.09-1.93-6.12-4.18-12.67-6.33-18.74l-.49-1.32a2.68 2.68 0 00-.94-.83c-9.45-5.39-20.78-9.71-30.76-14.17-1.54-.62-6.26-2.7-7.79-3.33l-1.3-.57a8.66 8.66 0 01-1.3-.64h.08z"/><path d="M556 394.74c-1.88.77-4.72 1.37-6.69 1.94-4.31 1.16-15.83 4.17-20.31 5.32h-.09l-.05-.08c-1.78-3-4.37-6.85-5.58-10.1-1.37-3.53-1.78-7.58-2.09-11.35s-.42-7.81-.5-11.53c-.43-37.28.16-111.76.07-150 4.33-13.67 1.52-11.15 14.42-18.24l.18.12 18.2 12.18-.39.21c.07-8.78 0-17.65.25-26.38.21 8.73.19 17.6.25 26.38v.46l-.39-.25L535 201.51h.37c-1.74 1-3.5 2-5.25 3s-3.62 1.88-4.7 3.4-1.42 3.66-2 5.51c-.51 1.61-1.26 4.55-1.71 5.64 0 15.38 0 30.76-.11 46.14-.08 31.9-.77 72.28-.47 103.81.07 3.71.15 7.83.45 11.52s.66 7.76 2 11.26c1.17 3.28 3.8 7.07 5.51 10.09l-.13-.05c7.72-2 19.65-5.05 27-7.07zm22-60.49q0-35.21 2.13-70.38c.64-9.37 1.42-18.75 2.86-28a67.86 67.86 0 013.28-13.7c0-.06.11 0 .09 0a41.14 41.14 0 00-1.67 6.82c-2 11.55-2.75 23.28-3.65 35-1.78 23.31-2.44 47.24-3 70.32zM506.24 202a150.51 150.51 0 00-3.24-14.73 38 38 0 01-1.61-7.43c-.23-2.53-.28-5.06-.29-7.58l.83.29c-3.42 4.13-7 8.79-10.71 12.37q5.16-7.18 10.83-14c0 2.94-.14 5.91.06 8.83a37.54 37.54 0 001.41 7.35 107.26 107.26 0 012.72 14.9z"/><path d="M553.39 186.92q-3.87-4.28-7.65-8.62a35.22 35.22 0 00-3.89-4.09c-.07 0-.15-.05-.11 0s0 0 0 .07c0 5.51.16 11.15-2.07 16.35-1.47 3.54-2.79 7.27-4.49 10.67 1-3.69 2.39-7.35 3.62-11a35.93 35.93 0 002.22-11.1c.13-1.71-.16-3.41.13-5.12.67-1.6 2.53 1.26 3.09 1.75l1.85 2.21c2.3 3 5.25 6.09 7.3 8.91zm-72.78 217.74c-2.1 2-5 2.76-7.64 3.7s-5.52 1.58-8.33 2.18a27.16 27.16 0 00-2.64-4.09 76.14 76.14 0 01-6.5-12.95c-7.4-17.87-13.5-36.22-19.82-54.5l-.1-.31.31-.12a68.89 68.89 0 0114-3.79 52.21 52.21 0 0114.56-.46h.34v.35c1.6 12.87 2.73 26.41 6.19 38.91 1 3.05 2.33 6.23 5.2 7.88a48.07 48.07 0 014.17 2.67c3.63 3 7.85 7.58 6.15 12.66-1.12 3.17-3.8 5.38-6 7.82zm-.07-.06c2.13-2.45 4.77-4.68 5.85-7.83 2-6.49-5.43-12.11-10.44-14.79a9.82 9.82 0 01-2.82-2.51 19.45 19.45 0 01-2.77-5.61c-2.94-9.53-4-19.4-5.26-29.22l-1.1-9.82.38.39a51.32 51.32 0 00-14.32.36 67.1 67.1 0 00-13.91 3.66l.21-.44c6.17 18.3 12.26 36.65 19.43 54.59 1.86 4.44 3.66 9 6.36 13 .8 1.24 2.23 2.88 2.53 4 2.78-.59 5.54-1.3 8.26-2.13s5.54-1.7 7.61-3.64zm126.51-66.76a4564.58 4564.58 0 00-14.41 41.05c-3.1 8.51-5.67 17.27-9.75 25.39-2.09 4.08-4.54 5.4-9.13 4.61-5.4-.63-11.11-2-15-6.07a11.85 11.85 0 01-.58-15.44c1-1.35 3-2.47 4.43-3.31 9.95-5.68 11.23-18 12.63-28.27.95-7.17 1.72-14.38 2.55-21.58v-.33l.32.05c7.21 1 21.74 2.88 28.93 3.9zm-.07 0c-7.23-.77-21.72-2.47-28.94-3.31l.36-.28c-.73 7.21-1.41 14.42-2.27 21.63-1.41 10.51-2.82 23.14-13.08 28.88-1.29.79-3.34 1.82-4.25 3.1a11.06 11.06 0 00.46 14.43c3.7 3.93 9.36 5.31 14.57 5.94 4.37.75 6.51-.35 8.56-4.26 4.1-8.06 6.71-16.79 9.86-25.25 4.85-13.64 9.72-27.35 14.73-40.88zM556 129.64c1.22-3.71.73-7.84 1.47-11.68 3.27-12 4.54-25-9.74-29.63h-.1v-.1c.35-3.11-.76-6.65-3.71-8.12a47.86 47.86 0 00-18.63-4.17c-5.5.7-13.34 2.92-18.85 4.11-1.57.37-3.13.74-4.74 1a27.91 27.91 0 00-3.55.56 11.9 11.9 0 00-5.18 2.7c-2.44 2.15-3.76 5.21-6.2 7.41a7 7 0 01-4.63 1.71l.22-.54a5.33 5.33 0 002.45 1.33c.51.1 1-.11 1.51 0a1.4 1.4 0 011.14 1.36c0 1.32-1.26 1.95-1.8 2.56-2.82 4-2.81 9.49-2.12 14.2.77 3.87 1.93 7.78 2.1 11.86.05 1-.1 2.08-.07 3 .6 2.8 2.64 5.28 4 7.8l-.75.22c.05-3.82 0-7.74 1.17-11.43l.25-.57c.1-.19.22-.37.33-.55l.73-.9c.82-1.15 2.21-2.2 2.86-3.37a15.81 15.81 0 00.52-4.33l.23-4.55c.16-3.16.38-6.31.6-9.47h.37c9.9-.76 19.71.9 29.59 1a53.71 53.71 0 009.75-.53c2.39-.38 4.74-1.17 6.21-3.15.58-.52 2.17-2.87 2.79-1.33.36 3.07.27 6.18 1 9.21a53.89 53.89 0 007.72 18s.85 12.34.85 12.38c0 .74.17 2.31.28 3-.07-.07-.14.06-.1 0 .14-.77.24-2.15.35-2.95.31-2 .48-4.19 1.64-5.94zm.07.06c-1.35 2.17-1.4 5-1.72 7.43l-.07.77v.75c-.27.36-.32-.71-.34-.78l-.07-.77-.14-1.54-1-12.33a53.77 53.77 0 01-7.92-17.93c-.74-3-.75-6.09-1.08-9.12 0-.06-.07-.11 0-.08s.08 0 0 0a10.56 10.56 0 00-1.65 1.63c-1.54 2.12-4.14 3-6.59 3.45a54.73 54.73 0 01-9.89.64c-9.81 0-19.69-1.68-29.46-.92l.4-.42c-.35 4.37-.59 9.22-.81 13.62a15.42 15.42 0 01-.62 4.65c-1.89 2.76-4.55 4.24-4.72 7.44a62 62 0 00-.62 10.47c-1.25-2.15-2.6-4.26-3.78-6.47a8.38 8.38 0 01-1.06-2.95c0-1.1.12-2 .07-3-.13-4-1.28-7.83-2-11.76a24.33 24.33 0 01.83-12 7.48 7.48 0 012.09-3.27c.47-.38 1.07-1 1.06-1.58s-.73-.87-1.27-.76a5 5 0 01-3.62-1.51l-.63-.54h.84c5.34.06 6.92-6 10.45-8.93a14.65 14.65 0 019-3.36c5.48-1.06 13.39-3.12 18.86-4.24 4.75-1.37 9.68-.67 14.41.45 4.35 1.26 10.46 2 12.4 6.68a10 10 0 01.59 4.82l-.08-.13c6.13 2 10.85 6.5 11.72 13.08.82 5.68-.56 11.33-1.94 16.8-.75 3.86-.25 8-1.52 11.72z"/><path d="M485.2 128.68c-5.46-4.2-2.42 9.48-1.82 11.61a40.81 40.81 0 002.81 7.1 6.19 6.19 0 001.34 1.91c.14.1.15.06.15.06.72-1 .7-2.6.87-3.87.39-3.38.3-6.93.68-10.3a66.41 66.41 0 01.24 10.38 11.73 11.73 0 01-.76 4c-2.27 3.78-5.5-7.56-5.91-9.08-.57-2.81-2.33-10.69.07-12.63.88-.43 1.74.29 2.39.8 0 0 0 .1-.06.07zm68.8 9.9l.22 12.07-.44-.19c1.83-1.93 4.2-3.79 4.55-6.57l.33-1.64c.56-3.12 1.57-6.66 1.67-9.77.09-2.89-1.89-3.2-4.3-2.76-.06 0-.08-.08 0-.09 6.88-2.44 5.1 5.64 4.23 9.54l-.77 3.26a31.08 31.08 0 01-.87 3.31 23.32 23.32 0 01-4.92 5.52v-.61l.22-12.07h.09zm-25.54-16.24a32.91 32.91 0 018.95-.78c1.52.16 2.87 1 4.3 1.41a18.74 18.74 0 004.37.63l-.29.53a19.48 19.48 0 00-3.15-3.38c-3.78-3-8.95-1.69-13.43-2l.26-.22c-.29 1.2-.67 2.43-1 3.79zm-.06.06c.18-1.27.32-2.73.57-4.16h.22c8.22-.58 12.52-1.62 17.57 6.1h-.72a19.82 19.82 0 01-4.5-.77c-1.48-.48-2.73-1.33-4.19-1.52-2.91-.43-6 .09-9 .42zm-15.4 0c-2.92-.33-6-.84-8.95-.42-1.46.2-2.72 1-4.19 1.51a19.3 19.3 0 01-4.5.78h-.72l.43-.59c4.69-7.15 9.62-6 17.12-5.51h.23c.24 1.43.39 2.89.58 4.16zm-.06-.06c-.35-1.36-.73-2.59-1-3.79l.26.22c-7.12.17-11.95-1.39-16.57 5.36l-.29-.53a19.37 19.37 0 004.37-.63c1.38-.41 2.74-1.25 4.3-1.4a32.52 32.52 0 019 .77zm30.53 9.39c1.73 3.25-4.47 3.78-6.51 3.91-2.2 0-9.54-.07-9.07-3.39a4.36 4.36 0 012.68-2.41c4.18-1.6 9.52-1.22 12.9 1.89zm-.07.06c-3.36-2.78-8.59-2.3-12.5-1.11-2.35.9-3.44 2.52-.43 3.55 2.09 1.1 15.24 2.14 12.93-2.44z"/><path d="M538.3 132.49a2.73 2.73 0 01-5.45 0 2.73 2.73 0 115.45 0zm-.09 0c0-2.71-4.58-2.73-4.63 0-.17 3 4.75 3 4.63 0z"/><path d="M543.4 131.79c-2.55-5.82-10.64-4.95-14.21-.62h-.08c2.43-6 12.79-5.44 14.29.67zm-45.77-.18c-2.83 4.59 10.59 3.78 12.66 2.69 2.86-.94 2.29-2.63-.18-3.62-2.87-1-10.44-1.75-12.48.93zm-.07-.05c2.28-3.41 14.28-3.85 15.43.85.11 3.27-6.93 3.28-9.21 3.21-2-.14-8.32-.84-6.22-4.06z"/><path d="M502.71 132.49c-.12 3 4.8 3 4.63 0 0-2.73-4.6-2.71-4.63 0zm-.09 0a2.73 2.73 0 115.45 0 2.73 2.73 0 01-5.45 0z"/><path d="M497.56 131.55c1.93-6.24 12.34-6.12 14.54-.15 0 0-.05.09-.08 0-3.66-4.56-11.69-5.57-14.46.1zM554 150.66c-.34 10.21-6.12 15.55-12.29 22.82-4.61 6.41-12.19 11.34-20.39 11-8.15-.14-15.69-5.48-20-11.89-2.48-3-6.32-7.09-8.36-10.41-2.41-3.82-3.8-8.09-5.13-12.32 1.69 3.71 3.15 8.4 5.69 11.95s5.62 6.8 8.49 10.18c4.42 6.38 11.45 11.44 19.39 11.76s15.35-4.26 20-10.55c4.07-4.84 9.53-9.82 11.38-16a30.29 30.29 0 001.18-6.49c0-.06.1-.05.09 0z"/><path d="M501.6 153a8.9 8.9 0 01-2.07 3.16 6.59 6.59 0 01-3.69.94c-4.43-.35-4.46-7.47-5-10.81-.35-3.34-.65-6.68-.8-10s-.45-7-.16-10.05c1.36 8.26 1.1 16.69 2.28 25 .58 3.61 1.91 6.63 6.15 5.27 1.72-.32 2.46-2.11 3.23-3.49 0-.06.11 0 .08 0z"/><path d="M553.22 128.56c-.34 8.78-.61 17.65-2.41 26.28a7.53 7.53 0 01-1 2.54 1 1 0 01-.75.44c-3.11-.13-5-3.19-6.56-5.46-.52-.66-.63-1.68-1.2-2.24a2.34 2.34 0 00-1-.5c-1.65-.29-3.52-.37-5.21-.78s-3.18-1.38-5-1.38c-2.75-.38-4.83 1.14-7.19 2.32-1.9.83-3.75-.64-5.19-1.57a3.71 3.71 0 00-2.33-.42c-1.75.08-3.49.21-5.23.42-2.51.38-5.31.7-7.17 2.58a9.82 9.82 0 00-1.35 2.23h-.08c1.08-3.86 5-4.84 8.51-5.41a38.38 38.38 0 016.68-.57c2.1.25 3.63 2.77 5.83 1.9a22.34 22.34 0 002.25-1.23 9.25 9.25 0 018-.48 16.83 16.83 0 005 1.32c1.71.24 4.18.23 4.7 2.35a9.93 9.93 0 001.26 2.22c1.31 1.84 2.86 4 5.25 4.17.77-.32 1-1.73 1.27-2.54 2-8.47 2.21-17.79 2.93-26.15z"/><path d="M503.13 153.52a3.89 3.89 0 01-1.3 0c-.09-.08-.34-.36-.26-.61a.85.85 0 01.51-.28c.27 0 .79.53 1.07.75v.09z"/><path d="M542.68 152.06c-.52.22-1.58.33-1.82.87-.12 2 .16 4.24-.1 6.33-.17 1.41 0 3-.92 4.17-1.26 1.8-3.24 2.8-4.89 4.09-1.42 1.17-2.59 3.3-4.12 4.25a5.46 5.46 0 01-4.72-1.42c-1.41-1.52-2.89-3-5.1-2.94s-3.09 2.38-4.86 3.48a5.39 5.39 0 01-4.93.8c-.56-.12-1.06-.75-1.41-1.15-2.31-2.74-4.28-5.63-6.35-8.57-1.33-2.7-.82-5.7-.36-8.51.07 2.36-.52 5.85.9 8.17 1.69 2.2 3.41 4.5 5.17 6.68a21.61 21.61 0 002 2.32 4.37 4.37 0 004.43-.49c1.12-.74 2-1.84 3.2-2.75 1.82-1.49 4.73-.6 6.27.94 1.49 1.73 3.07 3.22 5.51 2.89 1.49-1 2.6-2.94 4-4.07 1.67-1.28 3.65-2.22 4.91-3.93.85-1.12.74-2.64.94-4 .32-2.13.06-4.24.26-6.36.29-.62 1.34-.68 1.91-.91.05 0 .08.07 0 .09z"/><path d="M540.82 152.64c-9.88.39-19.78.79-29.67.28-2.45-.15-4.92-.51-7.36-.61a2.88 2.88 0 00-2.22.75s-.07 0-.07-.05a.06.06 0 01.06 0c1.11-1.43 3.14-1.11 4.73-1.13l4.94.15c9.77.6 20.11.46 29.62.64zm-7.11 2.1c-7.1 0-17.1.26-24.27.34l.24-.61c6.58 6.1 17 5 24 .27zm.09 0c-7 6.26-18.69 6.81-25.27-.35 7.49.09 17.9.3 25.27.35z"/><path d="M540.85 152.63c-15.56 11-21.9 13.48-37.73.88-.05 0 0-.11.05-.08 18.08 11.16 20.38 9.83 37.68-.8zm-3.58 97.83c-.57 7.48-1.73 17.63-1.93 25 0 .28-.07.28.24.5 3 1.86 6.27 3.33 9.43 4.93 3.31 1.74 8.2 3.79 10.76 5.28l18.46-6.26-.25.29c.88-7.44 2.72-22.41 3.65-29.85l.64.48c-4.79 2.07-9.89 4.09-15.23 4s-10.38-1.57-15.52-2.49c-2.55-.49-7.7-1.45-10.25-1.88zm-.06-.07c8.64.82 17.17 3.21 25.84 3.65 5.49 0 10.6-2.22 15.59-4.35-1 7.84-2.91 22.79-3.94 30.62v.23l-.21.07-18.49 6.12h-.21q-5.49-2.66-10.94-5.39c-3.17-1.64-6.41-3.14-9.43-5.06a1.14 1.14 0 01-.33-.33v-.44c.39-8.43 1.39-16.69 2.22-25.11zm-29.5-.01a4.7 4.7 0 01.39 1.74l.18 1.73c.62 7.91 1 16.43 1.35 24.34v.12l-.12.06c-21.45 10.31-18 10-40.68 3l-.25-.07v-.26c-.7-8.86-1.41-17.72-2.05-26.59 13.77 3.39 27.62-1.82 41.19-4.1zm0 .09c-13.29 2.83-27.07 8.19-40.79 5.05l.57-.48q1 13 1.84 26l-.26-.33c22.59 7.15 18.85 7.37 40.29-2.66l-.11.18c-.19-6.7-.51-14.13-.86-20.87a51.75 51.75 0 00-.68-6.86z"/><path d="M467 255.08l-.15-10.08v-.15c6.61-1 23.16-3.43 29.55-4.39 3.4-.49 6.81-.92 10.22-1.32.45 3.75.81 7.51 1.13 11.27-.85-3.2-1.25-7.28-1.85-10.79l.44.34c-3.27.51-6.53 1-9.81 1.43L467 245.17l.15-.16-.12 10.07a.05.05 0 01-.1 0zm70.19-4.65l-.13-10.85v-.19c.2 0 20.42 1.35 20.63 1.35 6.92.41 13.83.93 20.73 1.64q-.09 4-.29 8.05h-.09c-.13-2.59-.22-5.17-.29-7.76l.31.33c-6.82-.33-13.63-.86-20.43-1.49l-20.41-1.75.2-.18-.14 10.85c0 .06-.09.06-.09 0zm67.02 425.39c-5.68-.3-11.61.25-17.12-1.14a33.93 33.93 0 018.6.19c2.75.34 6.06.4 8.52 1z"/><path d="M598.16 670.48l-17.25-2-.82-.1.8-.21c3.57-.93 7.1-2 10.67-3 .75-.21 2.49-.59 1.7.77-2 2.81-3.92 5.52-5.7 8.4 0 .08 0 0-.09-.08 3.55-1.09 7-2.89 10.57-4.17l.89-.34-.46.83-5.43 10-.51-.58c2.57-1 5.1-2.12 7.65-3.2l1.93-.8c.71-.21 2.17-1.09 2.53 0 0 .66-.18.79-.37 1.27-1.28 2.4-2.58 5.4-3.72 7.6 0-.07-.18-.21-.23-.19 3.21-1.17 6.31-3 9.49-4.35l.14.68-8.63-.26-8.64-.32s-.06-.09 0-.09c5.08-.05 13.8-.06 18.87 0-3.69 1.64-7.12 3.67-10.86 5.23-.32.13-.89.06-1-.36-.14-.72.32-1.2.56-1.79 1.13-2.14 2-4.4 3.2-6.52.08-.15.15-.3.21-.44s.09-.32.09-.23.17.22.18.19a6.75 6.75 0 00-1.49.47c-3.53 1.46-7.11 3-10.67 4.33 0-.07 5.83-10.41 6.1-10.9l.42.49c-2.76 1-5.48 2.15-8.23 3.25-.62.17-3.3 1.65-3.06.2.9-1.76 2.28-3.21 3.28-4.9.81-1.33 2-2.6 2.71-3.88a19.66 19.66 0 00-3.46.76c-2.84.78-5.7 1.54-8.56 2.26v-.3c0 .09 17.53 2.1 17.21 2.33zm-149.36 6.07c5.68-.42 11.5-1.71 17.15-1a34.16 34.16 0 01-8.57.9c-2.77 0-6.07.36-8.58.13zm2.1 4.75c3.13-.11 6.49-1.08 9.49-.09a11 11 0 01-4.76.43c-1.57-.06-3.15-.14-4.73-.25 0 0-.06-.09 0-.09z"/><path d="M450.92 681.31c1 2.56 4.81 6.73-.82 3.86-1.79-.84-5.42-2.48-7.23-3.27l-1.93-.86a75.3 75.3 0 0110 .27zm-.05.07a76.57 76.57 0 01-7.79.56l.19-.9c3 1.44 5.86 3.09 8.83 4.51.15.06.3.12.44.16s.28 0 .2.07c-.4-1.48-1.38-2.95-1.87-4.4z"/><path d="M454.86 671.21q3.75-.5 7.51-.94c1.5-.23 8.2-.8 9.54-1.25s0 .15 0 .14c-4-1.22-8.24-1.81-12.28-2.93l.32-.45c1.5 2.3 3.27 4.8 4.87 7.06.36.67 2 2.41.86 2.92a8 8 0 01-3.05-.87c-2.56-1.06-5.38-2.2-8-3.18l.58-.66q2.78 5 5.46 10l.56 1c-3-1.25-6.09-2.54-9.07-3.89A14.19 14.19 0 00449 677c.41 1.48 1.38 2.88 1.9 4.37 0 0-.06.09-.08 0-.62-1.32-1.38-2.52-2.06-3.84-1-2.17 2.86-.11 3.64.09l8.07 3.19-.52.6c-2.09-3.65-4.14-7.34-6.15-11 2.18.84 4.36 1.73 6.49 2.64a37.76 37.76 0 005.14 2c-.05 0-.14.11-.12.15a.71.71 0 00-.06-.19c-1.87-3.23-4.33-6.34-6.26-9.54 4.2 1.19 8.48 2 12.69 3.17.52.14.92.64.08.86-1.24.32-8 .85-9.44 1q-3.76.38-7.52.8v-.09zM424.6 696.6c8 1.13 16.53 2.37 24.35-.41 2.56-.91 5-2.17 7.57-3.22 5.08-2.24 10.56-3.32 15.89-4.51s10.75-2.27 16.17-3.22v.09c-5.3 1.46-10.64 2.74-16 4s-10.77 2.17-15.82 4.29-10.21 4.56-15.8 4.58c-5.44.24-11.06-.65-16.42-1.54v-.09zm139.59-11.36a294.91 294.91 0 0131.92 9.22l7.78 2.9a31 31 0 007.88 2.09c5.46.48 11.06-.83 16.47-1.34l-4.06.88c-13.54 2.86-16 1-28.29-3.89-7.74-3-15.69-5.39-23.67-7.66l-8-2.16c-.06 0 0-.11 0-.09z"/><path d="M517.05 146.26a116 116 0 01.2-11.94 110.6 110.6 0 01-.2 11.94zm7.4-12.48q.82 6.39 1 12.82-.81-6.37-1-12.82z" fill="#f1bc9a"/><path d="M871.74 118.5l.79 3.87c-13.31-2.15-9 1.12-17.63 1.56 4.84-6.56 7.34-5.71 16.84-5.43zm33.88 5.43c-9-.46-4.07-3.75-17.63-1.56l.77-3.87c9.33-.27 11.99-1.15 16.86 5.43z" fill="#3d2922"/><path d="M865.84 239.58l1.42 10.85c-16 3.36-29 7.62-40.68 4.65V245z" fill="#355b80"/><path d="M987.75 700.24c0 3.18-20.06 6.11-29.67 1.34-7.9-3.92-12.88-8-31.53-12.92-3.79-1-3.13-.38-2.95-2.2.34-3.18 36 9.87 39 11 17.97 6.66 25.15-3.14 25.15 2.78z" fill="#4b5b6a"/><path d="M937.64 334.25c-4 36.89-4.5 44.33-17.3 51.4-2.7 1.49-4.51 5.94-4.85 9-1.94.74-.11.19-26.93 7.23-11.06-19.18-7.74.27-7.74-182.88 4.64-14.41 1.26-10.5 13.94-17.82l18.22 12V186.9c2.12.89 41.41 17.29 42.23 19.36s7.74 21.57 9.3 28.28 8.26 72.33 8.26 78.52-6.2 24.8-6.2 24.8zm0-91.58l-40.84-3.09c0 18.75-2.61 35-2 36.3.39.89 20.66 10.58 20.66 10.58l18.48-6.19c4.32-34.74 3.7-27.27 3.7-37.6z" fill="#355b80"/><path d="M966.57 337.86c-26 71.55-23.05 71.95-33.84 70.65-22.22-2.68-18.86-19.28-12.39-22.86 13.2-7.29 13.43-15.37 17.3-51.4z" fill="#f4d0af"/><path d="M949.39 660.55c-1.09-2.19-9.09-2.14-9.69 1.35l-12.59 6.4c-18.78-82.46-18.92-74.85-18.92-120.69L887 440c-1-5.25-9.06 0-9.06 0s-18.33 98.84-19.88 106.08 1 27.89-.51 40.81-10.47 79.3-10.47 79.3l-15-3.84c-1.12-2.49-2.8-4.35-9.2-2.36 6.33-252.41-10.36-270.58 1.35-249.52 4.15-.86 13.39-3.07 16.24-6.21.1-.12 7-7.25 5.82-8.47.19-1.71-5-2.58 29.35 6.15 9.12-39.24.38-18.13 12.9 0 24.1-6.32 25.45-6.61 26.93-7.23-1.39 12.72 26.37 19.82 27.83 7.24.02 175.44-1.55 117.05 6.09 258.6z" fill="#425b73"/><path d="M939.29 662.11L930 666.8c6.17-3.15 8.47-4.45 9.29-4.69z" fill="#facba1"/><path d="M937.64 242.67v7.76s-12.44 5.42-18.55 3.88c-26.74-6.82-22.29 2.1-22.29-14.73z" fill="#3f6b93"/><path d="M937.64 250.43l-3.74 29.84-18.48 6.19s-20.27-9.69-20.66-10.58 2-25.45 2-25.45c24.24 3.47 24.93 6.95 40.88 0z" fill="#3f6b93"/><path d="M918 145.05c-.38 1.84-4.51 5.6-4.51 5.6 0-4.05-.43-17.78 2.06-21 7.25-1.81 4.61 5.35 2.45 15.4z" fill="#f1bc9a"/><path d="M917.24 117.06c-.78 2.76-.78 11.45-1.68 12.61-2.83 3.63-1.14 21.46-3.23-6.45-14.32-22.08-4.76-32.83-11.88-24.8-5.53 6.12-34.72.73-45 2.06-1.71 23.18.45 15.38-5 22.48-1.55 2-1.71 9.74-1.68 12.27-7.36-12.12-1.74-4.89-5.68-20.93-1.94-7.88.12-15.1 2.31-16.79s1.17-3.22-.38-3-3.36-1.43-3.36-1.43c8.09 0 6.5-11.5 19-12.27 2.2-.13 20.28-4.91 24.16-5.16 1.13-.08 24.23.63 22.47 12.52 13.1 4.4 13.71 15.59 9.95 28.89z" fill="#2c1d1b"/><path d="M913.5 138.58c0 7.54.91 18.5-4.2 24.87-8.07 10-16.17 21.32-28.48 20.72-14.57-.71-28.79-20.53-33.46-34.35 1.56 1.8 1.43-14.59 1.43-14.59-.3-24.85 2.12 11 2.06 13a20.91 20.91 0 002.55 7.85c1.46 2.32 2.63 1.15 4.94.38 1.24-.42 2-1.94 2.78-3.46l1.58.46c0 .12-1.07 6.21.77 8.62 4.13 5.42 7.56 12.2 11.73 8.62 3.31-2.88 5.82-6.37 10.65-.68 4 4.76 6.28-1.2 8.91-3 5.7-3.93 5.32-3 5.62-14.42l1.84-.57c.77 1.16 3.4 5.61 6.39 5.52 5.06-.18 2.55-49.55 4.89-18.97z" fill="#ae978a"/><path d="M913 186.9v26.33c-31.83-21-11.91-2.35-11.91-39.9z" fill="#5682ab"/><path d="M858.34 156.47c-8.13 2.71-7.15-5.32-9-30.22 1-5.76 5.22-5.19 5.22-10.14 0-3.49.9-15.63.9-15.63 9.55-1.24 39.61 3.85 45-2.06 6.52-7.34-1.78 3.73 11.88 24.8.79 10.38-1.16 34.23-3.72 34.32-3 .09-5.62-4.36-6.39-5.52s-.38-2.62-3.19-2.91c-7.78-.82-5.76-1.94-9.79-2.14-5.28-.22-6.25 3.77-9.49 2.24-1.84-.88-2.42-1.94-4.36-1.84-18.24.92-12.4 7.54-17.06 9.1zm47.28-32.54c-4.85-6.55-7.31-5.71-16.86-5.43l-.77 3.87c13.4-2.17 8.82 1.11 17.63 1.56zm-2.43 8.53c0-5.66-11.29-7.45-14.48-1.32-5.17 4.36 14.48 6.52 14.48 1.32zm-30.66-10.09l-.79-3.87c-9.3-.27-12-1.15-16.84 5.43 9.04-.46 4.1-3.76 17.63-1.56zm-.48 10.09c0-1.14-3-5.15-8.09-5.19-4.45 0-6.81 3.48-6.81 4.32-3.15 4.34 14.9 5.64 14.9.87z" fill="#f8d5b0"/><path d="M903 131.76c3.37 5.5-20.13 4.39-14.28-.62 2.47-2.14 10.82-2.84 14.28.62zm-5.17.73c0-3.34-5.05-3.34-5.05 0s5.04 3.33 5.04 0z" fill="#f3f6f7"/><path d="M902.22 152c-7.64 2.39-37.33-1-41.09 1 1.23-2.53 1.47-5 14.26-5.63 1.94-.1 2.52 1 4.36 1.84 3.29 1.55 4.16-2.46 9.49-2.24 3.75.18 2.32 1.35 9.79 2.14 2.81.29 2.42 1.74 3.19 2.89z" fill="#ae978a"/><path d="M903 131.75c-1.63-2.84-11.22-3.26-14.27-.61 2.56-4.97 12.27-5.55 14.27.61z" fill="#3d2922"/><path d="M901.07 173.33c0 12.49-1.91 16.64-6.31 27.89-12.68 7.32-9.3 3.41-13.94 17.82-3.6-15-.3-10.79-15-17-3.27-20.81-4.82-15.06-4.69-29.74 10.08 14.51 28.45 16.6 39.94 1.03z" fill="#f7d1af"/><path d="M900.38 152.59c-.29 11.13.32 10.33-5.62 14.42-2.65 1.84-4.85 7.79-8.91 3-4.84-5.71-7.44-2.12-10.65.68-4.17 3.58-7.6-3.2-11.73-8.62-1.79-2.35-.83-8.29-.77-8.62 17.11 11.91 21.06 10.18 37.68-.86z" fill="#f8d5b0"/><path d="M895.3 130c3.33 0 3.33 5 0 5a2.52 2.52 0 010-5z" fill="#39403f"/><path d="M900.38 152.59c-16.56 11-20.5 12.82-37.68.88 0-.12.29.08-1.58-.46 2.11-2.12 3.51.56 39.26-.42zm-7.07 2.14H869c6.82 6.4 17.26 5.34 24.31 0z" fill="#9d574d"/><path d="M869 154.73h24.32c-6.89 5.21-17.39 6.5-24.32 0z" fill="#fcf8f7"/><path d="M824 334.77c-6.74-1-17.87 0-28.42 4.13 0 0-5.68-21.19-4.65-40.3s10.85-90.4 12.92-92c7.88-6 42.16-19.69 47-21.7v27.9l15-10.85c14.76 6.29 11.38 2.09 15 17 0 183 2.22 163.7-5.16 182.88-31.32-7.95-29.17-6.2-30.1-11.23-1.91-3.16-5.88-7.44-9.75-8.52-8.62-2.32-10.84-38.45-11.84-47.31zm45-56.58c-.81-22.86-1-22.44-3.15-38.61L826.58 245c0 13.35-.37 5 1.93 36 23.37 7.15 18.33 7.51 40.49-2.81z" fill="#3f6b93"/><path d="M871.62 131.43c4.45 5.07-18.35 5.5-14.47.16 0-2.09 11.5-3.59 14.47-.16zm-4.36 1.06a2.52 2.52 0 00-5 0c-.04 3.33 5 3.33 5 0z" fill="#f3f6f7"/><path d="M871.62 131.43c-2.44-2.82-12.33-2.71-14.45.13 2.19-5.99 11.53-5.4 14.45-.13z" fill="#3d2922"/><path d="M867.26 250.43c.77.39 1.73 27.76 1.73 27.76-22.15 10.32-17.11 10-40.48 2.85l-1.93-26c11.71 3.02 25.12-1.35 40.68-4.61z" fill="#355b80"/><path d="M864.75 130c3.33 0 3.33 5 0 5a2.52 2.52 0 010-5z" fill="#39403f"/><path d="M865.84 202l-15 10.85c0-33.48-2.67-24.61 10.3-40.59-.14 14.81 1.39 8.74 4.7 29.74z" fill="#5682ab"/><path d="M848.79 135.23c.12 14.39-.68 20.64-5.56 7.1-1.13-3.17-4.25-18.52 1.56-13.69z" fill="#f1bc9a"/><path d="M848.27 687.48c-2.81.92-10.36 3.42-12.79 4.07-14.58 3.86-8 7.05-24.41 10.46-3.39.67-19.42 1.4-25.61-1.54-1.65-.78-1.31-.42-1.31-3.83 16.06 2.59 16.82 2.15 27.6-1.41.14 0 36.32-11.29 36.43-9.36.06.91.09 1.49.09 1.61z" fill="#4b5b6a"/><path d="M848.15 685.28c-48.55 11-38.63 15.23-61.81 11.72-2.76-.43-2.19.17-2.19-3.13 37-28.56 38-26.37 38.75-33.9 6.4-2 8.08-.13 9.2 2.36l15 3.84c0 .65.75 13.83 1.05 19.11z" fill="#515b64"/><path d="M848.15 685.28c-11 2.53-22.35 5.43-33 9-5.42 1.69-10.81 4-16.59 4a62.58 62.58 0 01-8.54-.65l-4.24-.6c-.54-.12-1.19 0-1.61-.44-.29-.27 0-2.34-.1-2.72v-.06h.05c10-7.82 21.31-16.08 31.46-23.64 2.47-2 5.47-3.89 6.68-7a14.35 14.35 0 00.6-3.2 12.68 12.68 0 015.35-.86 4.64 4.64 0 014 3.16l15 3.87c.08 0 1 19.12 1 19.15zm0 0S847 666 847.09 666.2l-15-3.81c-.74-1.65-2-3.06-3.94-3.14-1.65-.25-3.86.5-5.16.73 0 4.9-3.8 7.6-7.32 10.32-10.47 7.9-21 15.66-31.43 23.67v-.1 2.14c-.07.84 1 .65 1.53.79a90 90 0 0012.75 1.29c5.75 0 11.13-2.31 16.55-4 10.7-3.49 22.09-6.35 33.09-8.84z"/><path d="M840.14 404.63c-2.71 3.11-15.89 5.82-15.89 5.82-3.56-7.16-4.08 1.62-28.68-71.55 10.55-4.1 21.68-5.09 28.42-4.13 6.37 58.8 9.6 40.43 20 53.73 6.01 7.5-.4 12.2-3.85 16.13z" fill="#f4d0af"/><path d="M987.75 698.12c0 7.7-24.25 9.19-39.52-1.73-.16 0-3.53-3.11-21-7.54-4.68-1.11-3.9-.34-3.54-3.57 51.58 12.72 35.31 17.38 64.06 12.84z" fill="#515b64"/><path d="M987.75 698.12c-.68 6.73-14.26 6.5-19.26 5.86a44.5 44.5 0 01-20.26-7.48c-6.27-3.71-13.32-5.41-20.26-7.32-1.45-.48-3-.47-4.4-1.17a1 1 0 01-.24-1c.1-.66.21-1.29.28-1.95h.16l8 2.08a256.27 256.27 0 0131.47 10.48c7.78 3.53 16.37 1.53 24.47.42zm0 0c-8.11 1.18-16.72 3.28-24.53-.25a255.92 255.92 0 00-31.48-10.38l-8-2.06.19-.13c0 .69-.54 2-.12 2.48 3.65 1.12 7.54 1.84 11.21 3.06 4.52 1.46 9.23 2.85 13.25 5.43a44.93 44.93 0 0020.28 7.54c5 .65 18.51 1 19.24-5.69z"/><path d="M987.75 693.67c0 5.14.23 4.42-.69 4.57-.06 0-7.74 1.27-9 1.43-14.52 1.72-11.74-3.87-54.28-14.39-.77 6.94.43-19.31 3.37-17 12.58-6.4 12.57-6.28 12.59-6.4.6-3.49 8.6-3.54 9.69-1.35 4.77 9.61 30.25 27.72 38.32 33.14z" fill="#515b64"/><path d="M987.75 693.67v2.54a6.69 6.69 0 01-.1 1.9c-5.55.88-11.22 2.31-16.91 1.75-4.74-.5-11.08-3.52-15.58-5.1a300.07 300.07 0 00-31.47-9.35l.16-.11c0 .17-.11.78-.13 1v.22a.14.14 0 01-.16.1s-.11-.07-.1-.06a68.26 68.26 0 01.58-9.13 41.6 41.6 0 011.41-7.59 3.15 3.15 0 011-1.71.68.68 0 01.75.1h-.15l10.66-5.37c.49-.24 1.45-.7 1.88-.95.93-3.22 6-3.34 8.66-2.35 1.18.41 1.63 1.79 2.26 2.73 5.91 8 14 14.1 21.77 20.24q7.58 5.82 15.47 11.19zm0 0c-10.5-7.18-20.84-14.69-30.19-23.35a44.86 44.86 0 01-8.45-10c-2-2-8.67-1.54-9.33 1.66-.49.34-1.43.75-2 1-1.46.73-9.11 4.62-10.73 5.44-.29-.34-.67-.12-.89.28-1.3 2.67-1.46 5.77-1.9 8.68a85.89 85.89 0 00-.65 8.92s0 .07 0 0a.14.14 0 00-.09-.06.15.15 0 00-.1 0v-.15c0-.27.12-.81.15-1.09h.14c4.72 1.19 11.27 2.92 15.86 4.3a229.41 229.41 0 0115.59 5.17c4.5 1.58 10.81 4.63 15.55 5.15 5.47.61 10.89-.83 16.29-1.55.18-.06.46 0 .6-.13a6.62 6.62 0 00.1-1.89v-2.54z"/><path d="M848.27 687.48c-13.7 4.5-18.4 5-22.16 7.86-13.84 10.38-36.88 8.24-42 4.35 0-3.69-.57-3.12 2.19-2.69 23 3.48 11.41-.34 61.81-11.72.04.02.16 2.02.16 2.2z" fill="#515b64"/><path d="M848.27 687.48c-6.61 2.39-13.6 3.77-20 6.63-3.58 2.23-7 4.73-11.1 6a52.29 52.29 0 01-27.17 1.94 16.76 16.76 0 01-6-2.24h-.06v-.08c0-.91-.11-1.8 0-2.72a.5.5 0 01.51-.43c7.34 1.13 15 2.73 22.25.12 10.58-3.54 22.17-6.93 33-9.47l8.37-1.92s.12 2.2.13 2.21zm0 0s-.15-2.24-.12-2.19c-10.86 2.55-22.6 5.5-33.17 8.93l-8.17 2.66c-5.47 2-11.38 1.61-17 .76-1.75-.23-3.55-.52-5.28-.8-.27-.05-.24.35-.25.7v2.15l-.06-.12a19.92 19.92 0 007.89 2.59 52.81 52.81 0 0025-2.18c4.07-1.32 7.5-3.79 11.09-6 6.45-2.86 13.46-4.14 20.1-6.49zm91.45-25.54a2 2 0 01-.06.39s0 .18-.06.13a1.09 1.09 0 01-.42-.82c0-.07.1 0 .15 0s.35.11.39.27zm-92.66 4.22c2.36-20.11 9.09-65.65 10.75-85.09.67-11.88-1.5-23.9.17-35.74.83-4.44 3.07-16.48 3.93-21.08 3.35-18 12.26-65.87 15.73-84.49 2.83-1.9 9.2-4.72 9.84.66 5.65 28.4 15.52 78.3 21.17 107.19 0 15.31-.37 30.68 2.18 45.81s6.26 30 9.61 45l6.72 29.92c-4.38-17.39-10-42.25-14-59.7a201.66 201.66 0 01-4.78-30.31c-.65-10.22-.59-20.45-.62-30.67-5.68-28.49-15.41-78.63-21-107-.5-4.69-6.18-1.78-8.59-.29l.15-.24c-3.54 18.79-12.48 66.19-15.89 84.32l-4 21.07c-1.69 11.79.43 23.77-.27 35.66-.45 8.38-2.45 20-3.45 28.39-.09 0-7.44 57-7.66 56.68zM822.85 660c.67-37.9 2.74-90.56 2.44-127.86-.83-35.39-3.41-76.36-4.68-111.81 0 0-.68-16-.55-16s.92 16 1 16c1.82 36.4 4.47 75.47 5 111.82.08 37-2 90.63-3.17 127.87zm126.5.55c-2-38.27-6-91.49-6.42-129.23-.43-36.73 0-76.39.17-113.22l.17-16.17c.8 42 .18 87 .39 129.38.16 37.45 4.21 91.61 5.69 129.24zM795.53 338.92a169.77 169.77 0 01-4.13-22.82 111.45 111.45 0 01-.24-23.17c1.39-15.4 3.36-30.74 5.42-46.06 1-7.66 2.15-15.32 3.35-23 1.09-5.79 1.57-11.75 3.5-17.35a1.66 1.66 0 01.51-.44c4.61-3.16 9.74-5.47 14.75-7.87 10.72-5 21.68-9.51 32.61-14 0 9.53-.06 19.06-.1 28.59l-.56-.29 15.05-10.77.12-.08c2 .84 4 1.66 6 2.43s4.06 1.36 5.67 2.82 1.65 3.89 2.14 5.92.84 4.11 1.3 6.15c0 .06-.08.08-.09 0-.5-2-1-4.08-1.43-6.13s-.7-4.24-2.16-5.71-3.71-1.85-5.59-2.65-3.92-1.52-5.86-2.32h.25l-14.93 10.92-.56.41v-.69c0-9.3-.13-18.6-.1-27.9l.63.42c-10.73 4.39-21.43 8.82-32 13.65-5.11 2.43-10.36 4.73-15 8-1.81 5.46-2.4 11.38-3.46 17-1.24 7.63-2.37 15.27-3.45 22.93-2.12 15.3-4.16 30.63-5.64 46a110.29 110.29 0 00.11 23.12 201.49 201.49 0 003.9 22.84zm84.55 49.58a52.67 52.67 0 01-4.18 13.5l-.09.2-.22-.05c-8.68-2.14-21.09-4.81-29.37-7.73 8.64 1.39 20.9 4.94 29.5 7.21l-.31.15a63.59 63.59 0 004.67-13.31z"/><path d="M814.73 217c5.67 19 7.18 38.88 8.51 58.55s1.27 39.57.8 59.25a.05.05 0 01-.1 0c-.51-19.67-.5-39.55-1.44-59.21s-2.69-39.85-7.77-58.59zM913 186.89c10.3 4.42 20.89 8.66 31.16 13.29a102 102 0 0110.16 5 2.81 2.81 0 011.11 1c.9 2.34 2.5 6.9 3.35 9.32 2.33 7.16 5.26 14.24 6.5 21.69 2.6 18.68 4.47 37.44 6.32 56.2.39 5.23 1.36 14.58 1.45 19.77-.88 8.38-3.81 17-6.55 24.61 2.32-8.08 5.19-16.21 5.92-24.62-.18-5.11-1.26-14.43-1.74-19.67-1.46-15-3-30-4.65-45-.82-7.48-1.61-15-4.21-22.09-1.93-6.12-4.18-12.67-6.34-18.74l-.48-1.32a2.68 2.68 0 00-.94-.83c-9.45-5.39-20.78-9.71-30.76-14.17-1.54-.62-6.26-2.7-7.8-3.33l-1.29-.57a8.75 8.75 0 01-1.31-.64h.08z"/><path d="M915.51 394.74c-1.88.77-4.72 1.37-6.7 1.94-4.3 1.15-15.77 4.17-20.22 5.35h-.08v-.08c-1.78-3-4.37-6.85-5.58-10.1-1.37-3.53-1.78-7.58-2.09-11.35s-.42-7.81-.5-11.53c-.43-37.28.16-111.76.07-150 4.33-13.67 1.52-11.15 14.42-18.24l.17.12L913.12 213l-.39.21c.07-8.78 0-17.65.25-26.38.21 8.73.18 17.6.25 26.38v.46l-.39-.25-18.27-11.93h.37c-1.74 1-3.5 2-5.25 3s-3.62 1.88-4.7 3.4-1.42 3.66-2 5.51c-.51 1.61-1.26 4.55-1.71 5.64 0 15.38 0 30.76-.11 46.14-.08 31.9-.77 72.28-.47 103.81.07 3.71.15 7.83.45 11.52s.66 7.76 2 11.26c1.16 3.28 3.8 7.07 5.51 10.09l-.14-.05c7.72-2 19.66-5.05 27-7.07zm22.09-60.49q0-35.21 2.13-70.38c.64-9.37 1.42-18.75 2.86-28a67.86 67.86 0 013.28-13.7c0-.06.11 0 .08 0a43.23 43.23 0 00-1.67 6.82c-2 11.55-2.74 23.28-3.64 35-1.78 23.31-2.44 47.24-3 70.32zM865.8 202c-.88-5-1.85-9.9-3.21-14.74a38 38 0 01-1.61-7.43c-.23-2.53-.28-5.06-.29-7.58l.83.29c-3.42 4.13-7 8.79-10.71 12.37q5.16-7.18 10.83-14c0 2.94-.14 5.91.06 8.83a37.54 37.54 0 001.41 7.35A107.26 107.26 0 01865.8 202z"/><path d="M913 186.92a561.13 561.13 0 01-7.65-8.62 35.22 35.22 0 00-3.89-4.09c-.07 0-.15-.05-.11 0s0 0 0 .07c0 5.51.16 11.15-2.08 16.35-1.46 3.54-2.79 7.27-4.48 10.67 1-3.69 2.39-7.35 3.62-11a35.93 35.93 0 002.22-11.1c.12-1.71-.16-3.41.13-5.12.67-1.6 2.53 1.26 3.09 1.75l1.85 2.21c2.3 3 5.25 6.09 7.3 8.91zm-72.83 217.74c-2.1 2-5 2.76-7.64 3.7s-5.52 1.58-8.33 2.18a26.47 26.47 0 00-2.65-4.09c-2.72-4-4.59-8.52-6.5-12.95-7.39-17.87-13.52-36.22-19.81-54.49l-.11-.31.32-.12a68.89 68.89 0 0114-3.79 52.21 52.21 0 0114.56-.46h.34v.35c1.6 12.87 2.73 26.41 6.19 38.91 1 3.05 2.33 6.23 5.19 7.88a45.21 45.21 0 014.17 2.67c3.64 3 7.86 7.58 6.16 12.66-1.13 3.17-3.8 5.38-6 7.82zm-.07-.06c2.13-2.45 4.77-4.68 5.85-7.83 2-6.49-5.43-12.11-10.44-14.79a9.82 9.82 0 01-2.82-2.51 19.45 19.45 0 01-2.77-5.61c-2.94-9.53-4-19.4-5.26-29.22l-1.11-9.82.38.39a51.32 51.32 0 00-14.32.36 66.94 66.94 0 00-13.91 3.66l.21-.44c6.17 18.3 12.26 36.65 19.43 54.59 1.86 4.44 3.66 9 6.36 13 .8 1.24 2.23 2.88 2.53 4 2.78-.59 5.54-1.3 8.26-2.13s5.53-1.7 7.61-3.64zm126.51-66.76a4900.21 4900.21 0 00-14.42 41.05c-3.09 8.51-5.67 17.27-9.75 25.39-2.08 4.08-4.53 5.4-9.12 4.61-5.4-.63-11.11-2-15-6.07a11.84 11.84 0 01-.58-15.44c.94-1.35 3-2.47 4.43-3.31 10-5.68 11.23-18 12.63-28.27.94-7.17 1.72-14.38 2.54-21.58v-.33l.32.05c7.21 1 21.74 2.88 28.93 3.9zm-.08 0c-7.22-.77-21.72-2.47-28.93-3.31l.36-.28c-.74 7.21-1.41 14.42-2.27 21.63-1.41 10.51-2.82 23.14-13.08 28.88-1.3.79-3.35 1.82-4.25 3.1a11.05 11.05 0 00.46 14.43c3.69 3.93 9.36 5.31 14.57 5.94 4.37.75 6.51-.35 8.56-4.26 4.1-8.06 6.7-16.79 9.86-25.25 4.85-13.64 9.72-27.35 14.72-40.88zm-51.01-208.2c1.22-3.71.73-7.84 1.46-11.68 3.28-12 4.55-25-9.73-29.63h-.1v-.1c.36-3.11-.75-6.65-3.7-8.12a47.9 47.9 0 00-18.63-4.17c-5.51.7-13.34 2.92-18.85 4.11-1.57.37-3.13.74-4.74 1a27.91 27.91 0 00-3.55.56 11.9 11.9 0 00-5.18 2.7c-2.44 2.15-3.76 5.21-6.2 7.41a7 7 0 01-4.63 1.71l.22-.54a5.34 5.34 0 002.44 1.33c.52.1 1-.11 1.52 0a1.4 1.4 0 011.15 1.4c0 1.32-1.26 1.95-1.8 2.56-2.83 4-2.82 9.49-2.12 14.2.77 3.87 1.93 7.78 2.1 11.86.05 1-.1 2.08-.07 3 .6 2.8 2.64 5.28 4 7.8l-.75.22c0-3.82 0-7.74 1.17-11.43l.24-.57c.1-.19.23-.37.34-.55l.72-.9c.83-1.15 2.22-2.2 2.87-3.37a15.81 15.81 0 00.52-4.33l.23-4.55c.16-3.16.38-6.31.6-9.47h.37c9.89-.76 19.71.9 29.59 1a53.76 53.76 0 009.75-.53c2.39-.38 4.74-1.17 6.21-3.15.58-.52 2.17-2.87 2.79-1.33.36 3.07.27 6.18 1 9.21a53.89 53.89 0 007.72 18s.85 12.34.85 12.38c0 .74.17 2.31.28 3-.07-.07-.14.06-.1 0 .14-.77.24-2.15.35-2.95.31-2 .47-4.19 1.64-5.94zm.07.06c-1.35 2.17-1.4 5-1.72 7.43l-.07.77v.68a.19.19 0 010 .07c-.27.36-.32-.71-.34-.78l-.08-.77-.13-1.54-1-12.33a53.77 53.77 0 01-7.92-17.93c-.74-3-.75-6.09-1.09-9.12 0-.06-.06-.11 0-.08s.08 0 0 0a11 11 0 00-1.64 1.63c-1.54 2.12-4.14 3-6.59 3.45a54.73 54.73 0 01-9.89.64c-9.81 0-19.69-1.68-29.46-.92l.39-.42c-.34 4.37-.59 9.22-.8 13.62a15.74 15.74 0 01-.62 4.65c-1.89 2.76-4.55 4.24-4.72 7.44a62 62 0 00-.62 10.47c-1.25-2.15-2.6-4.26-3.78-6.47a8.38 8.38 0 01-1.06-2.95c0-1.1.12-2 .07-3-.13-4-1.28-7.83-2-11.76a24.45 24.45 0 01.82-12 7.59 7.59 0 012.1-3.27c.47-.38 1.07-1 1.06-1.58s-.73-.87-1.27-.76a5 5 0 01-3.62-1.51l-.63-.54h.84c5.34.06 6.92-6 10.44-8.93a14.67 14.67 0 019-3.36c5.48-1.06 13.38-3.12 18.85-4.24 4.76-1.37 9.69-.67 14.42.45 4.35 1.26 10.46 2 12.4 6.68a10 10 0 01.59 4.82l-.08-.13c6.13 2 10.85 6.5 11.72 13.08.82 5.68-.56 11.33-1.94 16.8-.76 3.86-.26 8-1.52 11.72z"/><path d="M844.76 128.68c-5.46-4.2-2.42 9.48-1.82 11.61a40 40 0 002.81 7.1 6.19 6.19 0 001.34 1.91c.14.1.14.06.15.06.71-1 .69-2.6.87-3.87.38-3.38.3-6.93.68-10.3a67.65 67.65 0 01.24 10.38 11.73 11.73 0 01-.76 4c-2.27 3.78-5.5-7.56-5.91-9.08-.57-2.81-2.33-10.69.07-12.63.88-.43 1.73.29 2.39.8 0 0 0 .1-.06.07zm68.78 9.9l.22 12.07-.44-.19c1.83-1.93 4.2-3.79 4.54-6.57l.34-1.64c.56-3.12 1.57-6.66 1.67-9.77.09-2.89-1.89-3.2-4.3-2.76-.06 0-.08-.08 0-.09 6.88-2.44 5.1 5.64 4.23 9.54l-.77 3.26a31.08 31.08 0 01-.87 3.31 23.32 23.32 0 01-4.92 5.52v-.61l.22-12.07h.09zM888 122.34a32.91 32.91 0 019-.78c1.52.16 2.87 1 4.29 1.41a18.82 18.82 0 004.38.63l-.29.53a19.88 19.88 0 00-3.15-3.38c-3.78-3-9-1.69-13.43-2l.26-.22c-.29 1.2-.67 2.43-1 3.79zm-.07.06c.19-1.27.33-2.73.58-4.16h.22c8.22-.58 12.51-1.62 17.57 6.1h-.72a19.82 19.82 0 01-4.5-.77c-1.48-.48-2.73-1.33-4.19-1.52-2.91-.43-6 .09-9 .42zm-15.37 0c-2.92-.33-6-.84-8.95-.42-1.46.2-2.72 1-4.2 1.51a19.21 19.21 0 01-4.5.78h-.71l.43-.59c4.69-7.15 9.62-6 17.12-5.51h.22c.25 1.43.4 2.89.59 4.16zm-.07-.06c-.34-1.36-.72-2.59-1-3.79l.25.22c-7.11.17-11.94-1.39-16.56 5.36l-.29-.53a19.37 19.37 0 004.37-.63c1.38-.41 2.74-1.25 4.3-1.4a32.44 32.44 0 018.94.77zm30.51 9.39c1.73 3.25-4.47 3.78-6.51 3.91-2.2 0-9.54-.07-9.07-3.39a4.36 4.36 0 012.68-2.41c4.18-1.6 9.52-1.22 12.9 1.89zm-.07.06c-3.36-2.78-8.59-2.3-12.5-1.11-2.35.9-3.44 2.52-.43 3.55 2.09 1.1 15.24 2.14 12.93-2.44z"/><path d="M897.86 132.49a2.73 2.73 0 01-5.45 0 2.73 2.73 0 115.45 0zm-.09 0c0-2.71-4.58-2.73-4.63 0-.18 3 4.75 3 4.63 0z"/><path d="M903 131.79c-2.55-5.82-10.64-4.95-14.21-.62h-.08c2.43-6 12.79-5.44 14.29.67zm-45.81-.18c-2.83 4.59 10.59 3.78 12.66 2.69 2.86-.94 2.29-2.63-.18-3.62-2.87-1-10.44-1.75-12.48.93zm-.08-.05c2.29-3.41 14.29-3.85 15.44.85.11 3.27-6.93 3.28-9.21 3.21-2-.14-8.32-.84-6.23-4.06z"/><path d="M862.27 132.49c-.12 3 4.8 3 4.63 0-.06-2.73-4.6-2.71-4.63 0zm-.09 0a2.73 2.73 0 115.45 0 2.73 2.73 0 01-5.45 0z"/><path d="M857.12 131.55c1.93-6.24 12.34-6.12 14.54-.15 0 0 0 .09-.08 0-3.66-4.56-11.7-5.57-14.46.1zm56.42 19.11c-.34 10.21-6.12 15.55-12.29 22.82-4.61 6.41-12.19 11.34-20.39 11-8.16-.14-15.69-5.48-20.05-11.89-2.48-3-6.32-7.09-8.36-10.41a51.23 51.23 0 01-5.13-12.32c1.69 3.71 3.15 8.4 5.69 11.95s5.62 6.8 8.49 10.18c4.42 6.38 11.45 11.44 19.39 11.76s15.35-4.26 20-10.55c4.07-4.84 9.52-9.82 11.38-16a30.92 30.92 0 001.18-6.49c0-.06.1-.05.09 0z"/><path d="M861.16 153a8.9 8.9 0 01-2.07 3.16 6.59 6.59 0 01-3.69.94c-4.43-.35-4.46-7.47-5-10.81-.35-3.34-.65-6.68-.8-10s-.45-7-.16-10.05c1.36 8.26 1.09 16.69 2.28 25 .58 3.61 1.91 6.63 6.15 5.27 1.71-.32 2.46-2.11 3.23-3.49 0-.06.11 0 .08 0z"/><path d="M912.78 128.56c-.34 8.78-.61 17.65-2.42 26.28a7.31 7.31 0 01-1 2.54 1 1 0 01-.75.44c-3.11-.13-5-3.19-6.56-5.46-.52-.66-.63-1.68-1.21-2.24a2.3 2.3 0 00-1-.5c-1.65-.29-3.52-.37-5.21-.78s-3.19-1.38-5-1.38c-2.75-.38-4.83 1.14-7.2 2.32-1.89.83-3.74-.64-5.18-1.57a3.73 3.73 0 00-2.33-.42c-1.75.08-3.49.21-5.23.42-2.51.38-5.32.7-7.18 2.58a10.16 10.16 0 00-1.34 2.23h-.08c1.08-3.86 5-4.84 8.51-5.41a38.38 38.38 0 016.68-.57c2.1.25 3.63 2.77 5.83 1.9a22.34 22.34 0 002.25-1.23 9.25 9.25 0 018-.48 16.77 16.77 0 005 1.32c1.72.24 4.19.23 4.71 2.35a10.3 10.3 0 001.25 2.22c1.32 1.84 2.87 4 5.26 4.17.77-.32 1-1.73 1.27-2.54 2-8.47 2.2-17.79 2.93-26.15z"/><path d="M862.69 153.52a4 4 0 01-1.31 0c-.09-.08-.33-.36-.25-.61a.85.85 0 01.51-.28c.27 0 .79.53 1.07.75a.05.05 0 010 .09z"/><path d="M902.23 152.06c-.51.22-1.57.33-1.81.87-.12 2 .16 4.24-.1 6.33-.17 1.41 0 3-.92 4.17-1.26 1.8-3.24 2.8-4.9 4.09-1.41 1.17-2.58 3.3-4.11 4.25a5.48 5.48 0 01-4.73-1.42c-1.4-1.52-2.88-3-5.09-2.94s-3.09 2.38-4.86 3.48a5.39 5.39 0 01-4.93.8c-.56-.12-1.06-.75-1.41-1.15-2.31-2.74-4.28-5.63-6.35-8.57-1.33-2.7-.82-5.7-.37-8.51.07 2.36-.51 5.85.91 8.17 1.69 2.2 3.41 4.5 5.17 6.68a20.56 20.56 0 002 2.32 4.37 4.37 0 004.43-.49c1.12-.74 2-1.84 3.2-2.75 1.82-1.49 4.72-.6 6.27.94 1.49 1.73 3.06 3.22 5.51 2.89 1.48-1 2.6-2.94 4-4.07 1.68-1.28 3.66-2.22 4.92-3.93.85-1.12.74-2.64.94-4 .32-2.13.06-4.24.25-6.36.3-.62 1.35-.68 1.92-.91 0 0 .08.07 0 .09z"/><path d="M900.38 152.64c-9.88.39-19.79.79-29.67.28-2.45-.15-4.92-.51-7.37-.61a2.87 2.87 0 00-2.21.75s-.07 0-.07-.05a.06.06 0 01.06 0c1.12-1.43 3.15-1.11 4.74-1.13l4.94.15c9.77.6 20.11.46 29.62.64zm-7.11 2.1c-7.1 0-17.1.26-24.28.34l.25-.61c6.58 6.1 17 5 24 .27zm.09 0c-7 6.26-18.7 6.81-25.27-.35 7.49.09 17.9.3 25.27.35z"/><path d="M900.41 152.63c-15.56 11-21.9 13.48-37.74.88 0 0 0-.11.06-.08 18.08 11.16 20.38 9.83 37.68-.8zm-3.58 97.83c-.57 7.48-1.73 17.63-1.93 25 .05.28-.08.28.24.5 3 1.86 6.27 3.33 9.43 4.93s8.2 3.8 10.76 5.28l18.45-6.26-.24.29c.88-7.44 2.72-22.41 3.65-29.85l.63.48c-4.78 2.07-9.88 4.09-15.22 4s-10.38-1.57-15.53-2.49c-2.54-.49-7.69-1.45-10.24-1.88zm-.06-.07c8.64.82 17.17 3.21 25.84 3.65 5.49 0 10.59-2.22 15.59-4.35-1 7.84-2.91 22.79-3.94 30.62v.23l-.22.07-18.5 6.12h-.21q-5.49-2.66-10.95-5.39c-3.16-1.64-6.4-3.14-9.42-5.06a1.15 1.15 0 01-.34-.33v-.44c.39-8.43 1.39-16.69 2.22-25.11zm-29.5-.01a4.9 4.9 0 01.39 1.74l.17 1.73c.63 7.91 1 16.43 1.36 24.34v.12l-.11.06c-21.45 10.31-18 10-40.68 3l-.25-.07v-.26c-.71-8.86-1.41-17.72-2-26.59 13.76 3.39 27.62-1.82 41.19-4.1zm0 .09c-13.29 2.83-27.07 8.19-40.79 5.05l.52-.52q1 13 1.84 26l-.27-.33c22.6 7.15 18.86 7.37 40.3-2.66l-.11.18c-.19-6.7-.51-14.13-.86-20.87a51.75 51.75 0 00-.68-6.86z"/><path d="M826.53 255.08l-.12-10.08v-.15c6.61-1 23.16-3.43 29.55-4.39 3.4-.49 6.81-.92 10.22-1.32.45 3.75.81 7.51 1.13 11.27-.85-3.2-1.25-7.28-1.86-10.79l.44.34c-3.26.51-6.52 1-9.8 1.43l-29.49 3.77.15-.16-.13 10.07c0 .06-.09.06-.09 0zm70.22-4.65l-.13-10.85v-.19c.21 0 20.43 1.35 20.64 1.35 6.92.41 13.83.93 20.73 1.64-.07 2.68-.16 5.36-.29 8.05h-.09c-.13-2.59-.22-5.17-.29-7.76l.31.33c-6.82-.33-13.63-.86-20.43-1.49l-20.41-1.75.2-.18-.14 10.85c0 .06-.09.06-.09 0zm-84.98 444.85c-2.55 1.22-5.48 3.14-8.38 2.46a13.73 13.73 0 014.18-1.3c1.4-.35 2.78-.79 4.17-1.25 0 0 .08.06 0 .09zm175.3 3c-2.84.52-6 1.94-8.79 1.35a9.7 9.7 0 014.35-1.06c1.47-.15 2.94-.27 4.42-.38.06 0 .07.08 0 .09zm-17.35 1.48a20.61 20.61 0 01-5.56-1.15 6.45 6.45 0 01-1.61-1.05.05.05 0 010-.09 8 8 0 013.62 1 34.8 34.8 0 003.52 1.22v.09z"/><path d="M876.61 146.26a116 116 0 01.2-11.94 113.23 113.23 0 01-.2 11.94zm7.39-12.48q.81 6.39 1 12.82-.81-6.37-1-12.82z" fill="#f1bc9a"/><path d="M1181.13 702.61c-23.6-44.67-42.61-91.78-57.93-140.05s-27-97.74-36.16-147.6-15.81-100.19-20.93-150.62-8.7-101-11.55-151.52a12.26 12.26 0 0124.49-1.38v.5c.8 50.37 2.33 100.7 5.38 150.92s7.62 100.33 14.69 150.13 16.67 99.26 29.95 147.83 30.28 96.18 52.06 141.79z" fill="#00a651"/><path fill="#00a651" d="M1065.61 75.68l23.07 50.91-21.59-11.48-20.66 13.06 19.18-52.49z"/><path d="M178.93 717.79c9.46-2.12 18.91-4.27 28.25-6.82 4.68-1.2 9.31-2.6 13.95-4s9.22-2.9 13.74-4.55A181.44 181.44 0 00261.16 691c1.06-.54 2.08-1.15 3.08-1.77l3-1.83c1.92-1.34 3.92-2.59 5.71-4.07a55 55 0 009.82-9.57 3.42 3.42 0 015.39 4.2 1.58 1.58 0 01-.12.15 61.64 61.64 0 01-11.56 10c-2 1.48-4.24 2.69-6.37 4l-3.3 1.75c-1.09.58-2.19 1.16-3.32 1.66a186.42 186.42 0 01-27.59 10.19c-4.67 1.4-9.4 2.57-14.11 3.77s-9.47 2.21-14.24 3.15c-9.48 2.01-19.06 3.6-28.62 5.16z" fill="#602d91"/><path fill="#602d91" d="M294.44 659.06l-3.76 28.84-6.4-10.99-12.72.11 22.88-17.96zm-95.36-39.87a306.39 306.39 0 0041.32-37.64 237.47 237.47 0 0032.27-45.06 244.28 244.28 0 0020.79-51 341.08 341.08 0 0010.42-54.15 6.66 6.66 0 0113.24 1.54c0 .12 0 .27-.05.39A352.15 352.15 0 01303 488.5a252.15 252.15 0 01-24.57 51.38 242.93 242.93 0 01-35.6 44 308.29 308.29 0 01-43.75 35.31z"/><path fill="#602d91" d="M314.59 395.21l15.26 54.7-19.89-14.87-22.78 9.9 27.41-49.73zm-85.51-37.68a319.73 319.73 0 0043.26-46.35 278.82 278.82 0 0032.1-54.18 316.91 316.91 0 0019.7-59.53 469.86 469.86 0 009.52-62.09 7.25 7.25 0 1114.44 1.31c0 .13 0 .28-.05.41a479.93 479.93 0 01-13.39 63.09 325.76 325.76 0 01-23.7 60 284.16 284.16 0 01-35.79 53.24 321.74 321.74 0 01-46.09 44.1z"/><path fill="#602d91" d="M344.59 96.16l17.58 58.77-21.79-15.67-24.4 11.16 28.61-54.26z"/><path fill="#ed1c24" stroke="#356a00" stroke-linecap="round" stroke-miterlimit="20" d="M278.91 629.05h65.68v29.81h-65.68zm0-271.52h65.68v29.81h-65.68z"/></svg>