<svg xmlns="http://www.w3.org/2000/svg" viewBox="0 0 700 700"><path fill="#fffac0" d="M0 0h700v700H0z"/><path d="M216.85 304l76.09 1v91.33c-23.27 0-46.54-.12-69.81.23-6.86.1-5.41 7-5.38 88.91-1.23.3-.85 13.41-.9-181.47z" fill="#b6ba40"/><path fill="#00cb70" d="M389.12 305.35l-.28 89.89-76.09 1-.12-91.05 76.49.16z"/><path fill="#7de0b2" d="M389.12 305.35l-76.49-.16-.07-90.39 76.77.15-.21 90.4z"/><path fill="#b0ecd0" d="M389.35 214.26l-76.49-.16-.07-90.39 76.77.15-.21 90.4z"/><path d="M312.75 396.24l76.09-1 .08 90.35c-76.28 0-75.8 0-76.29.1z" fill="#009a5b"/><path fill="#5071cb" d="M503.86 395.29l.07-91.26 76.08-.1.03 91.32-76.18.04z"/><path fill="#0079c1" d="M485.38 303.97v91.24H409.3l-.03-91.27 76.11.03z"/><path d="M503.78 214.76c0-86-1.43-90 5.25-90.13q32.78-.54 65.56 0c7.26.13 5.5 8.88 5.55 89.94z" fill="#c7cfe7"/><path d="M580 484.54c.31 89.14 1.86 90-4.16 90.06-67.19.6-71.91.57-71.93-3.07-.17-29-.05-58 0-87z" fill="#262b70"/><path fill="#01b3e0" d="M485.38 303.97l-76.11-.03.06-90.06 76-.12.05 90.21z"/><path fill="#015e80" d="M409.3 395.21h76.08l.04 90.24-76.1.02-.02-90.26z"/><path d="M216.79 214.83c-.12-84.76-1.9-90.07 5-90.17q33-.43 66 0c6.65.1 5.24 5.57 5.17 90.06z" fill="#f3ebab"/><path d="M216.89 485.54h76c.29 87.67 1.95 90.26-4.67 90.19l-71.15-.73z" fill="#64663b"/><path d="M119.88 215.77c-.08-84.39-1.58-89.94 5.16-90q33-.49 66 0c6.88.09 5.18 3.63 5 90.11z" fill="#fabf97"/><path fill="#fe9d72" d="M119.88 215.8h76.25v90.27h-76.25z"/><path fill="#fe7d41" d="M119.87 306.05l76.25.04-.07 90.26-76.12-.02-.06-90.28z"/><path fill="#d77627" d="M119.93 396.33l76.12.02.01 90.12-76.13-.02v-90.12z"/><path d="M312.81 485.61h76.11l.59 88.81c-1.24 1.91 0 1.33-76.88 1.1z" fill="#00712f"/><path fill="#dfcb42" d="M216.79 214.83l76.17-.09-.02 90.25-76.09-.99-.06-89.17z"/><path fill="#90abdc" d="M503.78 214.76l76.36-.17-.13 89.34-76.08.1-.15-89.27z"/><path fill="#2941b4" d="M579.98 484.54l-76.07.01-.05-89.26 76.18-.04-.06 89.29z"/><path d="M485.33 213.76l-76 .12c-.07-28.42-.22-56.85 0-85.27 0-5.21 7.44-4.85 71.19-4.08 6.28.07 5 .33 4.81 89.23z" fill="#9ae1f5"/><path d="M409.32 485.47h76.1c.08 28.61.21 57.23.07 85.84 0 3.94-4 3.94-72.18 3.31-5.26-.06-4.19-.75-3.99-89.15z" fill="#003b4e"/><path d="M119.93 486.45h76.13c.07 28.62.19 57.24 0 85.86 0 4.66-6.49 4.18-71.95 3.6-5.76-.03-4.44-.43-4.18-89.46z" fill="#6f4b25"/><path d="M292.87 485.54l-75.12-.08c0-27.91-.12-55.83.2-83.74.08-6.82 6.31-5.4 75-5.4z" fill="#b29830"/></svg>