<svg xmlns="http://www.w3.org/2000/svg" viewBox="0 0 700 700"><path fill="#c7b299" d="M0 0h700v700H0z"/><path d="M511.39 137.54c-10.32.24-8.37 1-14.74-4.21l3.65-2.27c17.77-2.11 11-.07 21-1.05-1.82 6.4.24 4.59-9.91 7.53z" fill="#fff"/><path d="M205.34 215.26c-16.58 20.13-14.55 18.74-17.76 19.05-15.22 1.44-19.91 4.17-38.27-8.2 4.83-1.87 6.31-.87 6.31-.87l-4.88-9.94c-8.4 2.63-14.45-16-7.82-16.21-1.88-5.05-1.6-4.09-.31-8.13l1-18.78c48.35-.32 36.6-2.6 57.13 10.41 11.99 17.92 13.79 18.17 4.6 32.67z" fill="#f7d2b5"/><path d="M198.16 244.14c-2.29-.59-2.95 13.8-17.83 21.26.66-2.82 1.72-9.49-.24-11.65s-3.44-5.21-4.22-4.08c-.42-2.66-1.16-.94 11.83-14.69l9 7.79c1.53.06 1.16-.3 1.46 1.37z" fill="#726658"/><path d="M261.71 635c-1.26 8.26-4.18 13.7-13 15.44-4.59.91-12.21.15-13.84-1-2.08-1.43-4.1-12.14-.78-13 1-.21-2.61 4.22 2.67 4.83 14.64 1.65 21.12-5.78 22.51-16.6 1-8-1.4-16.1-3.42-24.34 8.89-.04 7.2 25.9 5.86 34.67zm-86.07 12.41c-5.16 5.66-18.61 3.88-23.19-1.93-2-2.58-4.59-9.67-2.57-12.56 3.19-4.52 9 8 9.48 8.39 2.68 2.24 9.64.12 11.72-2.82 3.65-5.15.1-30.54-1.16-37 9.46 9.57 5.33 12.63 6.11 23.31.47 6.58 5.23 16.47-.39 22.61z" fill="#161213"/><path d="M236.76 641.3c-2.7-.31-3.21-1.28-2.74-3.65 7-35.35.13-52.82.11-53.3l17.25-2c4.62 18.51 21.1 62.98-14.62 58.95z" fill="#ffd4bb"/><path d="M255.18 581.9l-26.61 3.1-57.51-161.82c-3.28 70-2.41 33.69-3.57 165.14-21.83 1.18-21.5 1.64-21.85.23-.88-3.51-20.91-47.16-20.91-109.77 0-27.31-30.29-61.33-8.21-119.34 0-.11 2.44-.26 3.69-1.61 5-5.36 3.42 2.5 21 1.78-2.58-.6 1.12-3.8 3.68-3.8 2 0 5.24.83 4.4-1.42-.68-1.8-2.48-1.43 6.77-1.08 67.87-2.66 58-3.52 55.84.73-1.42 2.84-3.32 7.33-.59 5.68s3.92-3.79 4.28-1.65c1 5.91 5.06.35 5.46 3.45.67 5.58 7.09-6.8 7.22-1.31.06 3-.74 6.09 2 6.07 8 27.17 7 72.16 8 123.91 8.07 18.46 11.1 25.94 14.25 46.8 1.24 7.85 3.14 43.01 2.66 44.91z" fill="#161213"/><path d="M248.52 356.64l-16.05-13.24c-1.93-1-1.44-.18 3.23-27.15l-13.31-17.11c-2.48-8.6-2.06-10-3.8-14.26-5.18-12.52 1.17-34.07 3.8-34.45 1.66-.23 9 4.52 13.07 7.13 2.76 1.79 21.12 27.52 27.33 52.28 3.58 14.35-5.97 34.55-14.27 46.8zm-124.03-76.98c-.47 4.27-4.75 7.6-3.8 15.2 2.07 16.64 2.64 14.81.3 18.48-2.9 4.49-2.26.12 1.36 27.15a27.15 27.15 0 01-10.93 9.74c-5.54 2.43-12.42-6.91-15.2-12.12-13.52-25.3-7.74-28.7-4.28-35.17 6.25-14.79 28.35-74.31 32.55-44.91 0-.03.51 17.35 0 21.63z" fill="#726658"/><path d="M222.63 304.61c-.47.95-4.28 10.22-8.79 15s-1.67 7.84-1.44 11.65c.16 2.58 2.43 4.95 4.9 7.09a14.2 14.2 0 00-5.48 2.65c-8.82 5.86-3.32 8.92-1.44 7.35s4.17-2.49 6.25-4.27 5.53-2.11 4.33-.7-4.16 4.71-5.45 6c-3.36 3.36-61.92 3.83-66.89 3.64-5.8-8.6-14.41-9.88-14.15-13.14 1.84 2 12.34 6.12 14.25 3.21.81-1.19-7.83-8.53-13.89-8.79-4.44-.18-7.26 3.36-9.77 7.49a6.54 6.54 0 00-.35-1.79c-1-2.37 6.67-11.4 6-15.44-10.4-12.07-10-10.12-8.5-13.29.73-1.58.56 0-1.48-16.42-1-7.6 3.33-10.93 3.8-15.2s0-21.63 0-21.63c-1.46-10.23-9.25-6.23 2.93-9.48-.68 3.86-2.91 20.65.16 27.07 2.61 5.46 6.39 13.07 12.46 16.16 15 7.59-11.89-14.65-7.7-15.69 8.23 11.18 19.15 11.81 8.31 1.7a19.77 19.77 0 002.85 0c6.89-.47 2.14-.24-2.13-3.33s-11.42-3.33 0-2.14 13.07-.48 13.07-.48-10.23.24-12.6-5.94c-1.3-3.35-4.42-20.11.71-5.69 1.19 3.32 9.5 8.55 9.5 8.55s-14.28-17.11-12-22.34c1.5-3.54 5.88-4.51 9.36-3.82l-1.42 1.3c1.15-.14 1.87-.11 1.94.14.47 1.67 16.15 23.29 16.15 21.15s-.22-4.58 1.71-11.43c3-9.91 2-4 6.73 5.26 0-.84.32-3.89.6-6.12.9-6.3 1.67-2.76 5 .88 2 2.16.9 8.83.24 11.65 15.26-7.65 15.33-21.9 17.83-21.26l24.23 6.29c-2.56.37-9 21.79-3.8 34.45 1.79 4.35 1.27 5.49 3.8 14.26 2.24 2.87 1.9 2.33 1.9 2.45.4 5.27-1.26 2.04-1.73 3z" fill="#49423a"/><path d="M184.13 217.64s-3.8 6.42-5.7 6.89c-8.15 2-8.55 3.74-16.87-7.37 6.77 1.36 15.68.97 22.57.48zm16.75-17.7c1.08 6.68-5.17 11.56-7.3 11.7-2.68.18-7.58 1-9.45 0s-5.69-3-6.85-5c-3.49-5.89.07-5.28-5.55-4.94-1.55 1.78-3 10.82-11.65 10.41-10.82-.52-12.77-.08-15.16-12.84 1.94.56.47 3.43 3.05-5.4-.22-3.84-.48-13.9 1.95-16.88 1.08 12.19-.16 10.62 4.28 10.94l1.89-10.21c4.13 5.35 5.1 21.87 10.46 12.82 0 0 1.19-10.69 1.67-7.36s6.41 6.65 8.55 6.65 9.51-14.26 9.51-14.26c-.95 9.06-1.1 8.91-6.19 17.59l12.6-3.33c5.06-16.45 3.88-16.42 3.56-.24h2.61c3.82 9.83 3.66 7.7 2.02 10.35z" fill="none" stroke="#000" stroke-miterlimit="10" stroke-width="1.13"/><path d="M166.07 265.16c0 2.14-15.68-19.48-16.15-21.15-.07-.25-.79-.28-1.94-.14l9.77-8.89c20.46 23.1 8.32 5.33 8.32 30.18z" fill="#726658"/><path d="M204.57 198.63c-2.94-.59-2.27-1-3.69 1.31 2.07 12.83-19.79 19.42-25.74 1.57l-3.41.2c-2 2.36-2.91 10.83-11.65 10.41-7.93-.39-11.81 0-13.73-6.83-.45-1.58-1.54-3.5-1.34-4.7a4 4 0 00-.09-1.31c-9.93-2.57-3 18.6 5.82 16 .43-.13 3.79 7.52 10.57 14.14 7.55 7.42 13.44 7.73 23-1.44 5.87-5.61 10.55-12.59 11-12.74.71-.23 5.69 1.19 6.64-1.67.45-1.32 7.25-14.02 2.62-14.94zm-26.14 25.9c-8.15 2-8.55 3.74-16.87-7.37 6.77 1.36 15.68 1 22.57.48 0 0-3.8 6.42-5.7 6.89z" fill="none" stroke="#000" stroke-miterlimit="10" stroke-width="1.13"/><path d="M184.13 217.64s-3.8 6.42-5.7 6.89c-8.15 2-8.55 3.74-16.87-7.37 6.77 1.36 15.68.97 22.57.48z" fill="none" stroke="#000" stroke-miterlimit="10" stroke-width="1.13"/><path d="M214.55 205.29c-.71 3.76-7.54 28-10 32.14-2.13 3.7-5.51 5.44-6.67 5.39-1.71-.08-.45.59-10.22-7.84-1.42-8.47-.38-7.17-3.37-7 5.87-5.61 10.55-12.59 11-12.74.71-.23 5.69 1.19 6.64-1.67.45-1.34 7.25-14 2.62-15-3.17-.63-1.71 1.23-5.71-9-3.48 0-2.64 1.94-2.41-9.72.06-3.32.91-5.25-3.76 10l-12.6 3.33c5.1-8.71 5.24-8.52 6.19-17.59 0 0-7.37 14.26-9.51 14.26s-8.08-3.33-8.55-6.65-1.67 7.36-1.67 7.36c-5.35 9-6.2-7.3-10.46-12.82l-1.89 10.21c-4.44-.32-3.2 1.25-4.28-10.94-2.43 3-2.17 13-1.95 16.88-2.67 9.14-.7 5.47-4.23 5.22-.9-.07-.93.46-2.27-4.57-4.07-15.09 1.78-19.54 6.55-32.54 3.05-8.32 12.4-5.23 16-7.61s9.27-3.32 21.14-2.37 13.78 5.94 16.4 8.55c11.32 11.37 13.58 41.64 13.01 44.72z" fill="#593b23" stroke="#000" stroke-miterlimit="10" stroke-width=".56"/><path d="M181 242.08c-3.78 4-6.48 4.13-6.48 16.91-7.34-14.4 2.29-2.51-15.47-22.55 1.27-8 .7-6.89 2.27-7 7.55 7.42 13.44 7.73 23-1.44 2.91-.18 2-1.18 3 5.1.48 2.51 1.47.73-6.32 8.98z" fill="#f7d2b5"/><path d="M161.31 229.44c-1.57.11-1.09-.46-1.6 2.79-.84 5.3-.25 4.68-2 2.75l-8.35 7.59s-6-1.19-8.71 2.67c-3.48 5 7.48 18.84 11.36 23.49-10.57-6.64-9-8.62-12-14.5-1.14 10.67 3.34 17.84 14.4 17.58 0 0-1.67 1.67-13.07.48s-4.28-1 0 2.14 9 2.86 2.13 3.33a19.77 19.77 0 01-2.85 0c10.75 10 0 9.65-8.31-1.7-4.22 1.05 22.75 23.32 7.7 15.69-6.07-3.09-9.85-10.7-12.46-16.16-2.94-6.14-2.1-26.45 3.56-36.36 5.42-9.47 22.15-15.6 24.48-14-10.21-20.87-2.39-3.71 5.72 4.21z" fill="#593b23" stroke="#000" stroke-miterlimit="10" stroke-width=".56"/><path d="M200.88 199.94c1.08 6.68-5.17 11.56-7.3 11.7-2.68.18-7.58 1-9.45 0s-5.69-3-6.85-5c-3.49-5.89.07-5.28-5.55-4.94-1.55 1.78-3 10.82-11.65 10.41-10.82-.52-12.77-.08-15.16-12.84 1.94.56.47 3.43 3.05-5.4-.22-3.84-.48-13.9 1.95-16.88 1.08 12.19-.16 10.62 4.28 10.94l1.89-10.21c4.13 5.35 5.1 21.87 10.46 12.82 0 0 1.19-10.69 1.67-7.36s6.41 6.65 8.55 6.65 9.51-14.26 9.51-14.26c-.95 9.06-1.1 8.91-6.19 17.59l12.6-3.33c5.06-16.45 3.88-16.42 3.56-.24h2.61c3.82 9.83 3.66 7.7 2.02 10.35z" fill="none" stroke="#000" stroke-miterlimit="10" stroke-width="1.13"/><path d="M184.13 217.64s-3.8 6.42-5.7 6.89c-8.15 2-8.55 3.74-16.87-7.37 6.77 1.36 15.68.97 22.57.48z" fill="#fc3842"/><path d="M177.81 222.2c3.38-3.25 5-1.54-11.19-2.32 3.54 6.06 10.38 3.06 11.19 2.32z" fill="#f5fff8"/><path d="M171 210.93c-.9 1.07-2.62 4.1-1.13 4 2.24-.14 9.16.86 7.18-2" fill="none" stroke="#000" stroke-miterlimit="10" stroke-width="1.13"/><path d="M179.5 201c1.86-3.85 9.16-3.28 12.74-1.43-4.24 3.11-6.83 3.21-12.74 1.43z" fill="#fff" stroke="#000" stroke-miterlimit="10" stroke-width=".85"/><path d="M187.64 200.15a1.77 1.77 0 01-3.54 0 1.77 1.77 0 013.54 0z" fill="#353938"/><path d="M165.33 200.74c-1.86-3.84-9.16-3.28-12.74-1.43 4.28 3.17 6.83 3.26 12.74 1.43z" fill="#fff" stroke="#000" stroke-miterlimit="10" stroke-width=".85"/><path d="M157.19 199.94a1.77 1.77 0 003.54 0 1.77 1.77 0 00-3.54 0z" fill="#353938"/><path d="M200.88 199.94c1.08 6.68-5.17 11.56-7.3 11.7-2.68.18-7.58 1-9.45 0-12.47-6.53-6-10.78-11.29-10.78-2.59 0-2.87 11.73-12.76 11.26-10.82-.52-12.77-.08-15.16-12.84.9.26 1.15.69 1.16 1.05 1.7-5.84 1.6-6 1.72-5.84 13.57-3.22 19.48 4.35 27.16 3 4.94-.91-.06-2.52 15.14-3.9 7.8 1.36 7.05.79 10.36.13 2.05 5.28 1.97 3.71.42 6.22z" fill="none" stroke="#000" stroke-miterlimit="10" stroke-width="1.13"/><path d="M175.14 201.5c0 .11.28 0-3.41.21l-.69-4.23c4.96 0 3.96-1.05 4.1 4.02z" fill="none" stroke="#000" stroke-miterlimit="10" stroke-width="1.13"/><path d="M144.92 355.81c-2.57 0-6.26 3.2-3.68 3.8-6.81.28-9.25.47-15.8-3-4.62-2.42-3.51 2.55-10.21 3-3.2-4.5-6.07-8.76-6.07-9 3.6.27 9.09-4.86 11.42-7.71 3.17 3.92 3.61-1.19 8-5.76 7.9-8.29 20.91 4.88 20.19 5.94-1.86 2.83-12.36-1.17-14.25-3.21-.18 2.22 2.68 2.72 7.58 6.41a52.31 52.31 0 016.57 6.73c2.39 3.68-.87 2.8-3.75 2.8z" fill="#f7d2b5"/><path d="M125.09 342.43c-.87.45-1.74 2.12 0-.63z" fill="none" stroke="#000" stroke-miterlimit="10" stroke-width="1.13"/><path d="M248.52 356.64c-.24 2.89-15.31 9.64-18.21 9.64-5.37.05 2.39-12.87-7.09-3.81-2.26 2.13-2 0-2.14-1-.41-3.19-4.48 2.57-5.46-3.45-.36-2.14-1.54 0-4.28 1.65-3.36 2 .27-6 2.59-8.68.88-1 4-4.05 7-7.69 1.2-1.41-2.26-1.09-4.33.7s-4.23 2.62-6.25 4.27-3.68-1.18-3.55-2.13c.17-1.43 5.59-6.78 10.47-7.87 12.86-2.95 2.57 7 13.29 4 2.69 1.57.27-.21 17.96 14.37z" fill="#f7d2b5"/><path d="M197.68 244l-1-1.24z" fill="none" stroke="#000" stroke-miterlimit="10" stroke-width="1.13"/><path d="M171.08 638.49c-2.1 3-9.05 5-11.72 2.82-.42-.36-6.32-12.88-9.48-8.39a5.8 5.8 0 011.11-4.41c3.78-15.09-.06-25.51-2.27-37-.58-2.88-3.26-2 15.76-3 .52-.06-.65.74 5.44 13 1.25 6.36 4.78 31.87 1.16 36.98z" fill="#fed2b9"/><path d="M172.6 628.77c0 1.51 0 4.21-.16 5.72.05-1.91.11-3.81.16-5.72z" fill="none" stroke="#000" stroke-miterlimit="10" stroke-width="1.13"/><path d="M544.66 105.83c-2 7.71-5.44 6.36-4.44 11.6-4.74 5.51-4.23 4.68-14.15 9.19-9.53.92-3-6.28-20.83-4.27-2.73.31-9.41-.31-12.45 2.42s-5.15 8.8-7.57 2.75c-6.83-17-11.29-12.68-11.83-17.5-.62-5.51-3.15-6.68 5.36-11.43 1.94-8.84 2-8.75 7.68-12.33s1.83-6.67 6.36-9.71 2.44 3.63 2.44 3.63c-13 20 4 2 10 .31 4.25-1.21 10.32-7 7.28-1.52s-8.2 6.69-4.24 7.29S521 84.74 525 82.91c7.3-3.34 5.66 5.48 13.31 12.2.16 8.02 7.95 4.74 6.35 10.72z" fill="#f9b588"/><path d="M556.4 648c-2.13 2.21-36.6 5-39.63 0s4.84-25.07 4.84-25.07h25.09s11.83 22.87 9.7 25.07zm-77.65 0c-10.68 1.56-14.95 2.42-17.79 0s-3.25-9.43 0-12 11.32-13.08 11.32-13.08c20.37 0 20.15-.28 20.36.5 11.36 27.07 7.59 21.46-13.89 24.58z" fill="#5390a2"/><path d="M546.7 622.94c-24.75 0-25.09 1.89-25.09-5.67 0-62.67-8.37-85-4.84-141.54.8-13-5.67-51-7.48-68.75-3.5-34.85-17 112.88-11.14 207.07.56 8.69-5.32 10.1-5.65 8.89-15 0-25.18 3-24.76-11.58 1.36-48.15-11.32-52.15-5.36-130.79 10.9-139-21.07-132.09 28.49-119.7 31 0 11.13-1.12 65.66-7.28a58.4 58.4 0 01-.09 21.84c-4.82 22.88 8.34 148.68-9.74 247.51z" fill="#a2a2a2"/><path d="M566.91 185.34l-10.38 168.25c-54.48 6.15-34.67 7.28-65.66 7.28-46.27-11.57-23.13 4-34.19-106.68 0-1.21-6.91-63.47-7.05-64.79l30.81-18.06c.36 4.56-1.07 1.61 13.08 20.77l10.3-16.47 5.47 12.93 7.48-10.51c1.54 3.92 5.61 11.55 8.89 8.9 13.21-10.52 9.36-20.78 12.66-20.48 5.78.38 28.59 18.86 28.59 18.86z" fill="#2b556e"/><path d="M612.3 326.79h-29.1s-3-27.6-8.21-43.66c-16.62-35.61-13.34-12.54-8.08-97.79 29.46 42.06 39.77 54.48 45.39 141.45zm-155.62-72.65c0 1.28-9.05 9.84-10.59 16.23s-5.45 10.62-5.76 19.11-7 37.31-7 37.31l-27.3-2.11c4.71-50.21 1.39-70.81 43.57-135.28.03 0 5.67 50.77 7.08 64.74z" fill="#294e60"/><path d="M435.16 394.5s-4.24-9.1-4.53-8.28-.31 10.76.9 14.63c2.75 8.77 6.33 5 0 8.82 0 0-.56-.35-.9-.54.9.54-2.13 4.4-3.35 4.4-6.82 0-11.37-11.15-12.73-17.37-3.14-14.22 3.37-16.7-5.09-70.67l22.11 1.56c-4.13 45.14-8.55 33.48 3.59 46.2 6.07 6.34 2.44 9.93 4 16.55s-4 4.7-4 4.7zm170.48-21.42c1.24 5.08 1.47 21.64-3.94 30.58-4.1 7.81-3.57 3.32-7 7.85-1.21 1.63-2.72 0-3.65 0s-1.51-3-5-3-2.29-.27-2.59-3.79 3.34-4.33 5.16-9.47-1.82-8.66-2.57-6.78-7.13 3.52-6.53 1.36c4.81-16.92 2-14.53 11.52-26-1.29-5.48-2-6.19-4.72-37.08h21.92c1.24 45.25-6.78 29.25-2.6 46.33z" fill="#f9b588"/><path d="M538.32 166.46c0 .17-1.34-.35-1.34 1.09 0 6.48-7.26 16.18-11.32 19.41-2.28 1.84-4.84-1.25-6.63-4.29-3.07-5.23-1.55-5.61-3.57-2.78l-1.11-6.57s10.56-6 13-11.8c0-7.11-6.86-11.52 10.97 4.94zm-33.08 8.66c-2 .74-.77-.51-11.72 17l-12.54-17c-4.25-18.34 9.35-17.06 12.52-19.1-.57 1.31-5.32 4.16-1.3 7.29 3.48 2.79 10.28 8.31 13.04 11.81z" fill="#4e849e"/><path d="M514.35 173.32c1.4 8.28 2.34 4.83-5.06 15.25-6.3-14.88-6-12.72-4.05-13.45 0 0-3.21-4.07-12.45-11.33 0-21.64-3.44-7.22 19.42-9.28 16.67-1.53 12.33-7.24 15.14 7-2.44 5.76-13 11.81-13 11.81z" fill="#f9b588"/><path d="M543.14 84.43c-5.19 11.39-3.39 12-4.88 10.68-7.47-6.83-6-15.53-13.31-12.2-3.94 1.83-12.74 4-16.67 3.35s1.21-1.83 4.24-7.29-3 .31-7.28 1.52c-5.9 1.69-22.82 19.44-10-.31 0 0 2.12-6.66-2.44-3.63s-.59 6.07-6.36 9.71c-.19.12-6.41 3.67-6.41 6.58-1.64 2.1-.71-5.93-3-10.22a71.47 71.47 0 01-3.63-7.81c5.13-18.57 23.38-27.84 31.85-25.25 8.76 2.67 2.33-.19 16.08 6.67 0 0 3.32-5.15 10 0s11.81 4.86 11.81 9.7 1.86 14.56 0 18.5z" fill="#7e1a24"/><path d="M505.84 112.14c0 .51 1.32.41-.6 4.75s.2 2.63 3.54 2.73 3.94-3.61 3.94-3.61" fill="none" stroke="#000" stroke-miterlimit="10" stroke-width="1.92"/><path d="M515.75 103.24c5.53 5.85 9.47 3.94 15.37 0-4.12-6.17-9.88-5-15.37 0z" fill="#fff" stroke="#000" stroke-miterlimit="10" stroke-width=".24"/><path d="M526.27 103c0 3.75-5.66 3.75-5.66 0s5.66-3.76 5.66 0z" fill="#0d0200"/><path d="M502.41 103.24c-5.53 5.85-9.47 3.94-15.37 0 4.12-6.17 9.88-5 15.37 0z" fill="#fff" stroke="#000" stroke-miterlimit="10" stroke-width=".24"/><path d="M491.89 103c0 3.75 5.66 3.75 5.66 0s-5.66-3.76-5.66 0z" fill="#0d0200"/><path d="M496 91.59c-3.59-.39-9.41 1.4-8.77 5.23.92-.54 1.63-1.39 2.53-2 2.61-1.66 9.22-1 11 .58 3.24 2.95 5.61-2.65-4.76-3.81zm22.38 1.7c-4.76 4.5 4.17 2 8.92 2.44 3.93.38 4.77.87 3.72-.31-2.62-2.96-9.74-4.87-12.64-2.13zm21.84 24.14c-4.74 5.51-4.23 4.68-14.15 9.19-9.53.92-3-6.28-20.83-4.27-2.73.31-9.41-.31-12.45 2.42-10 9.12-3 6.67-14.25-9.39.62 35.57 14.25 37.53 14.25 35.48 11.08 7.93 36.46 2.8 41.27-5.76 3.33-5.93 6.46-24.73 6.16-27.67zM520.4 140a22.4 22.4 0 01-10.91 0s-14.18 6.15-13.66-1c.83-10.95 3.93-11.58 12.68-11.76 6.84-.14 11.45-1.82 12.43 1.67 1.06 3.85 5.78 9.37-.54 11.09z" fill="#7e1a24"/><path d="M522.22 131.46c-2-1.13.08-5.38-6.07-4.79-10.1 1-9.43.34-12.43.54-8.69.59-15.64 22 5.77 12.74a22.4 22.4 0 0010.91 0c5.76-1.52 2.13-6.07 1.82-8.49zm-2.65 2c-2.15 4.3-19.27 4.15-19.27.44-.26-3.66 11.6.5 19.27-2.79.54-.27.16 2.02 0 2.31z" fill="#f9b588"/><path d="M523.08 101.53a.76.76 0 01-1.51 0 .76.76 0 111.51 0zm-26.39.47a.76.76 0 01-1.51 0 .76.76 0 111.51 0z" fill="#fff"/></svg>