<svg xmlns="http://www.w3.org/2000/svg" viewBox="0 0 700 700"><path fill="#c7b299" d="M0 0h700v700H0z"/><path d="M175.83 314.69c-1.53 6.26.81 5.24-9 4 1.89-5.69-.01-4.6 9-4z" fill="#faf1eb"/><path d="M168.93 309.42c5.68-32.33-2.39-37.92-3.11-71.43h.05c10.56 1.13 22.11 7.61 34.41 18.27l15.45-12.88a348.65 348.65 0 015.55 67.46 247 247 0 01-52.35-1.42z" fill="#f9f0ea"/><path d="M227.36 594.06h-7c0-18.67-3.56-22.38 4.29-27.34 4.71 2.13 2.86 4.67 7.28 9.39s19.78 12.78 23 12.47 1.31-2.28 1.31-2.28c14.16 2 19.28 3.84 17.81 5.63 0 0-8.07 7.46-26.78 2.13-8.22-5.63-20.71-8.15-20.71-8.15z" fill="#35353a"/><path d="M210.62 321.19l10.25-.82v-5.78l-10.25 1zm-29.72-1l25.36 1v-5.08l-24.65-.5zm-14.1-1.52c9.84 1.28 7.5 2.3 9-4-8.98-.58-7.08-1.67-9 3.98zm-17.75 112.07c-9-58.15 7.72-89 19.88-121.32a247 247 0 0052.35 1.42c1.83 41 6.49 79.69 19.88 111.58l2.23-5.47c17 61.34 12.45 71.65.71 141.05-.5 1.11-3 1.59-6.24 1.72a97.64 97.64 0 01-12.27-.49c-1.87-.17-3.1-.32-3.1-.32-1-24.63-.57-48.34 1.83-70.75-11.77-28.1-22.26-54.55-29.22-76.39-15.22 37.72-18.21 89.46-17.8 145.11a11.08 11.08 0 01-5.63 1.85 45.08 45.08 0 01-11.41-.91c-2-.34-4-.74-6-1.14-6.35-32.78-10.19-78.07-13.14-127.77z" fill="#5480ac"/><path d="M232.25 320.56c.07-5.44.22-11.21.39-17.43l11.77-7.31c0-2.8 41.34-13.29 51.93-9.73 10 3.35 7.85 4.67 1.63 9.84s-16 .51-22.32 0-30 21-30 21-7.38 5.26-12.92 3.65z" fill="#e4a57d"/><path d="M205.15 194.08s10.24-3.24 11.26-7.81 1.52-9.23.61-13.49-8.53-20.19-9.23-20.69l4.58-10.56c15 8.24 17.9 24.06 13.47 44.43 9.86 18.31 13.54 30.64 5.48 31.66-1-.13-26.17-13.39-26.17-13.39z" fill="#e2d5b0"/><path d="M141.14 428.91s-13.45-4.5-15.42-11c6.4-6.8 15.44-18.78 17.2-29.23 2.38-14.22 6.56-68.33 7.6-68.47 7.09 7.09 4.47-4.45 4.47-10.75 0-.31-.09-2.08-2.49-3.25 0 0 1-15.08 4.11-39.56 2.43-19.31 1.79-41.22.8-49.59 3.48.74 6.13 3.3 8.57 5.73-.22 5.68-.26 10.71-.16 15.24.72 33.51 8.79 39.1 3.11 71.43-12.16 32.28-28.86 63.17-19.88 121.32z" fill="#414148"/><path d="M157.78 213.43c2.64 1.11 5.61 2.49 8.55 3.4 6.11 1.89 12.09 1.78 14.78-6.92-4 2.76-8.87 3.24-14 3.14 0 0-3.94 0-9.33.38zm-5.71.52c-13.94.24-16.49-6.64-10.17-9.47 3.4-1.52 11.1 1.37 11.82-10.6s-4.26-34.39 6.69-47c15.75-10.77 32.06-18.57 51.53-9.54l.43 4.16-4.58 10.56c-.72-.51-5.89-3.35-13.09 2.43s-12.78 8.62-11.16 14.71 6.8 11.8 6.46 19.2-3.65 27-6.09 30.64c-8.78 13.18-12.94 8.72-18 3.71-2.44-2.43-5.09-5-8.57-5.73-.26-2.2-.54-3.47-.8-3.5-1.44.12-3 .26-4.53.43z" fill="#f0e6c8"/><path d="M112 291.87c6 9.65 11.84 17.49 17.2 20.24l7.6-5.94c2.86-4.24 8.29-3.87 15.68 0 2.4 1.17 2.49 2.94 2.49 3.25 0 6.3 2.62 17.84-4.47 10.75-4.53-3.44-12-.72-20.85 5a206.81 206.81 0 01-39.56-26.62c12.29-3.76 17-4.61 21.08-6.77z" fill="#e4a57d"/><path d="M215.73 243.38a250.17 250.17 0 00-10.58-39.15s25.21 13.26 26.17 13.39C243.79 238 245 265 244.41 295.82l-11.77 7.31c-.17 6.22-.32 12-.39 17.43-.43 32.68 1.64 53.41 14.29 89.39l-3.15 7-2.23 5.47c-13.39-31.89-18-70.62-19.88-111.58a348.65 348.65 0 00-5.55-67.46z" fill="#414148"/><path d="M157.78 213.43c5.39-.38 9.33-.38 9.33-.38-.29 0-.56 1.4-.78 3.78-2.94-.91-5.91-2.29-8.55-3.4z" fill="#424249"/><path d="M181.11 209.91c-2.69 8.7-8.67 8.81-14.78 6.92.22-2.38.49-3.78.78-3.78 5.13.1 10.04-.38 14-3.14z" fill="#e4a57d"/><path fill="#faf1eb" d="M180.9 320.17l.71-4.56 24.65.51v5.07l-25.36-1.02z"/><path d="M152.5 306.17c-7.39-3.87-12.82-4.24-15.68 0l4.32-24c5.36-24.67 7.91-47.72 4.31-67.24 2.21-.38 4.46-.69 6.62-.93 1.57-.17 3.09-.31 4.53-.43.26 0 .54 1.3.8 3.5 1 8.37 1.63 30.28-.8 49.59-3.07 24.43-4.1 39.51-4.1 39.51z" fill="#ebe2c4"/><path d="M166 222.75c5 5 9.18 9.47 18-3.71 2.44-3.65 5.79-23.23 6.09-30.64s-4.87-13.09-6.49-19.17 4-8.93 11.16-14.71 12.37-2.94 13.09-2.43 8.31 16.43 9.23 20.69.4 8.92-.61 13.49-11.26 7.81-11.26 7.81v10.15a250.17 250.17 0 0110.58 39.15l-15.45 12.88C188 245.6 176.43 239.12 165.87 238h-.05c-.1-4.54-.06-9.57.18-15.25z" fill="#e4a57d"/><path fill="#faf1eb" d="M220.87 320.37l-10.25.82v-5.58l10.25-1.02v5.78z"/><path d="M83.72 286.09c-.61-7.3 37.74-56 45-64.52 2.93-3.41 9.66-5.46 16.69-6.69 3.6 19.52 1.05 42.57-4.31 67.24-.78-8.91 1.86-12.38-3.86-12.78-16.81 15-21 19.74-26.09 22.45-4.1 2.16-8.79 3-21.08 6.77.04.01-5.74-5.17-6.35-12.47z" fill="#424249"/><path d="M225.59 559.23a97.64 97.64 0 0012.27.49c-.2 16.11.29 16 18.41 26.58 0 0 1.94 2-1.31 2.28s-18.62-7.75-23-12.47-2.57-7.26-7.28-9.39l.89-7z" fill="#e4a57d"/><path d="M129.67 325.19c8.87-5.74 16.32-8.46 20.85-5-1 .14-5.22 54.25-7.6 68.47-1.76 10.45-10.8 22.43-17.2 29.23a32.46 32.46 0 01-5.93 5.32c-3.51 1.82-8.22 1.67-15.83-5.33s-19.7-17.16-16.43-24.35c3.03-6.68 42.86-67.06 42.14-68.34z" fill="#ebe2c4"/><path d="M167.54 586c-4.57-3.35-6.39-26.78-8.83-22.52l1.55-5.63a45.08 45.08 0 0011.41.91c-1.14 13-1.3 16.62 7.74 23 1.09 9.76-3.93 10.04-11.87 4.24z" fill="#e4a57d"/><path d="M155.37 591.58s.91-23.87 3.34-28.13 4.29 19.17 8.83 22.55c7.94 5.83 13 5.55 11.87-4.24 0 0 14 14.78 11 17 0 0-23.73 5.18-26.78-2.12-4.25-10.22-3.37-23-3.32-5z" fill="#35353a"/><path d="M171.67 558.73a11.08 11.08 0 005.63-1.85c-.41-55.65 2.58-107.39 17.8-145.11 7 21.84 17.45 48.29 29.22 76.39-2.4 22.41-2.82 46.12-1.83 70.75 0 0 1.23.15 3.1.32a97.64 97.64 0 0012.27.49c3.19-.13 5.74-.61 6.24-1.72 11.74-69.4 16.33-79.71-.71-141l-2.23 5.47c-13.39-31.89-18-70.62-19.88-111.58a247 247 0 01-52.35-1.42c-12.16 32.28-28.86 63.17-19.88 121.32l-7.91-1.83c3 49.7 6.79 95 13.14 127.77 2 .4 4 .8 6 1.14a45.08 45.08 0 0011.39.86z" fill="none" stroke="#070100" stroke-miterlimit="10" stroke-width=".48"/><path d="M162.24 345.73C148 407.53 149.4 477 159.8 550.85m38.25-143.95l30.53 77.91c-2.92 25.41-4.63 48.33-2.44 63.3" fill="none" stroke="#faf1eb" stroke-miterlimit="10" stroke-width=".81"/><path d="M244.41 295.82c.6-30.78-.62-57.82-13.09-78.2-1-.13-26.17-13.39-26.17-13.39a250.17 250.17 0 0110.58 39.15 348.65 348.65 0 015.55 67.46" fill="none" stroke="#070100" stroke-miterlimit="10" stroke-width=".48"/><path d="M243.39 417l3.15-7c-12.65-36-14.72-56.71-14.29-89.39.07-5.44.22-11.21.39-17.43l11.77-7.31M166 222.6v.15c-.22 5.68-.26 10.71-.16 15.24.72 33.51 8.79 39.1 3.11 71.43M152.08 214c1.57-.17 3.09-.31 4.53-.43l1.17-.09c5.39-.38 9.33-.38 9.33-.38-.29 0-.56 1.4-.78 3.78v.12m-20.88-2.11c3.6 19.52 1.05 42.57-4.31 67.24-.78-8.91 1.86-12.38-3.86-12.78-16.81 15-21 19.74-26.09 22.45-4.1 2.16-8.79 3-21.08 6.77 0 0-5.78-5.18-6.39-12.48s37.74-56 45-64.52c2.93-3.41 9.66-5.46 16.69-6.69 2.21-.38 4.46-.69 6.62-.93m-1.51 106.22c-1 .14-5.22 54.25-7.6 68.47-1.76 10.45-10.8 22.43-17.2 29.23a32.46 32.46 0 01-5.93 5.32c-3.51 1.82-8.22 1.67-15.83-5.33s-19.7-17.16-16.43-24.35c3-6.66 42.86-67 42.14-68.32 8.87-5.74 16.33-8.46 20.85-5.02z" fill="none" stroke="#070100" stroke-miterlimit="10" stroke-width=".48"/><path d="M141.14 282.13l-4.32 24c2.86-4.24 8.29-3.87 15.68 0 0 0 1-15.08 4.11-39.56 2.43-19.31 1.79-41.22.8-49.59-.26-2.2-.54-3.47-.8-3.5M112 291.87c6 9.65 11.84 17.49 17.2 20.24l7.6-5.94m-46.69-7.6a206.81 206.81 0 0039.56 26.62m27.39-54.62c.16.61 6.7 21.6 6.09 28M216.41 217c18.16 46.21 15.93 31.89 11.86 87.65m-12.54-61.27l-15.45 12.88C188 245.6 176.43 239.12 165.87 238m34.41 18.26s1.11-3.19-1.07-8.11m-20.84 47.98l8.52 4s15.21-9.44 22.52-8.22m-42.61 26.74c9.84 1.28 7.5 2.3 9-4-8.98-.56-7.08-1.65-9 4zm14.81-3.04l-.71 4.56 25.36 1.02v-5.07l-24.65-.51zm29.01 0v5.58l10.25-.82v-5.78l-10.25 1.02z" fill="none" stroke="#070100" stroke-miterlimit="10" stroke-width=".48"/><path d="M138.8 350s-2.06 41.7-11.53 49.91c-15.26 13.25-28.5 4.53-29.55.31" fill="none" stroke="#f9f0ea" stroke-miterlimit="10" stroke-width=".81"/><path d="M205.15 204.23v-10.15s10.24-3.24 11.26-7.81 1.52-9.23.61-13.49-8.53-20.19-9.23-20.69-5.89-3.35-13.09 2.43-12.78 8.62-11.16 14.71 6.8 11.77 6.46 19.17-3.65 27-6.09 30.64c-8.78 13.18-12.94 8.72-18 3.71-2.44-2.43-5.09-5-8.57-5.73" fill="none" stroke="#070100" stroke-miterlimit="10" stroke-width=".48"/><path d="M167.11 213.05c5.13.1 10-.38 14-3.14-2.69 8.7-8.67 8.81-14.78 6.92-2.94-.91-5.91-2.29-8.55-3.4" fill="none" stroke="#070100" stroke-miterlimit="10" stroke-width=".48"/><path d="M152.08 214h0c-13.94.24-16.49-6.64-10.17-9.47 3.4-1.52 11.1 1.37 11.82-10.6s-4.26-34.39 6.69-47c15.75-10.77 32.06-18.57 51.53-9.54l.43 4.16c15 8.24 17.9 24.06 13.47 44.43 9.86 18.31 13.54 30.64 5.48 31.66" fill="none" stroke="#070100" stroke-miterlimit="10" stroke-width=".48"/><path d="M203.93 143.06c-15.2-6.23-30.22 5.28-30.22 18.86s7.2 32.67 0 42.31" fill="none" stroke="#faf1eb" stroke-miterlimit="10" stroke-width=".81"/><path d="M177.49 146.91c-7.69-6.2-15.3 5.25-15.3 18.79s3.65 32.54 0 42.14" fill="none" stroke="#faf1eb" stroke-miterlimit="10" stroke-width=".81"/><path d="M244.41 295.82h0c0-2.8 41.34-13.29 51.93-9.73 10 3.35 7.85 4.67 1.63 9.84s-16 .51-22.32 0-30 21-30 21-7.38 5.26-12.92 3.65m-91.59 108.33s-13.45-4.5-15.42-11m99.82 141.86l-.89 7c-7.85 5-4.29 8.67-4.29 27.34h7l-.77-8.15s12.49 2.52 20.71 8.15c18.71 5.33 26.78-2.13 26.78-2.13 1.47-1.79-3.65-3.66-17.81-5.63 0 0 1.94 2-1.31 2.28s-18.62-7.75-23-12.47-2.57-7.26-7.28-9.39m31.59 19.53c-18.12-10.57-18.61-10.47-18.41-26.58m-87.34-239.55c7.09 7.09 4.47-4.45 4.47-10.75 0-.31-.09-2.08-2.49-3.25m26.91 275.56s14 14.78 11 17c0 0-23.73 5.18-26.78-2.12-4.25-10.22-3.37-23-3.32-5h-4.89s.91-23.87 3.34-28.13 4.24 19.14 8.78 22.52c7.94 5.8 12.96 5.52 11.87-4.27zm0 0c-9-6.38-8.88-10-7.74-23m-12.96 4.72l1.55-5.63" fill="none" stroke="#070100" stroke-miterlimit="10" stroke-width=".48"/><path d="M468.63 305.71c3.38-1.65 4.84-.72 4.27 2.91l-2.6 5.21-1.51 3a40.63 40.63 0 00-18.79-3.66v-.37a18.51 18.51 0 01-2.36-11.58c2.14-17.76 5.39-9.51 8.37 4.86 1.5-3.09 3-6 4.35-8.28 3.32-5.52 5.92-7.33 6.34 1 4.37-3.72 3.47 1.08 1.93 6.91z" fill="#ea9f8c"/><path d="M495.54 329.31s-2.63 2.26-7.29.57l.13-3.36a31.92 31.92 0 007.16 2.79z" fill="#ff513a"/><path d="M565.13 568.93a14.9 14.9 0 015.09 3.92c2.19 2.37 1.1 6.56 1.1 6.56 9.56-2.08 14.56-9 17.69-8.65 2.06.22 3.31 3.58 4.53 13.57-15.45 6.68-61.2 25.35-74.13 14.57-1-9.69 8.08-6.52 35-25.5 3.59-2.56 6.38-6.21 10.72-4.47z" fill="#6b4a47"/><path d="M505.71 170.49a2.09 2.09 0 01-.14-.17.32.32 0 00.14.17c6.42 7.69 14.53 7.92 19.52-1.63 0 0-17.62 3.05-19.52 1.63zm-5.36 14.16c-4.25-5-6.19-25-2.46-30.07-.55 1.16 1.46 11.5 4 11.73 5.95-3.64 19.69-3.92 29.14-1.33 4.16 3.35 6.56-11.9 6.56-11.9 1.38 2.17 2 2.79 2.39 4.06 0 .12.06.24.09.37.39 1.92.24 5.45.56 16.21.34 13.24-12.39 19.82-13.12 19.67-6 2.49-9.95 1.7-9.95 1.7-7.3 1.09-13.1-2.24-17.21-10.44z" fill="#263147"/><path d="M522.93 222.05l3.76-23.37s2.31 3.46 8.38 1 10.63-19.46 11.53-21.34c32 24.54 15.18 3.3 49.43 46.11 6.8 8.5 21.61 53.91 20.16 67.27-1.07 9.7-18.21 23.9-27.51 30.93l-4.31-5.91c-.47-1-13.72-20.72-14.33-21.62l-3.91-6-14.79 9.65.13.19L521 310.14l-.22-.6z" fill="#ff513a"/><path d="M535.07 199.71c-6.07 2.43-8.38-1-8.38-1l.85-5.29c.73.15 13.46-6.43 13.12-19.67 2.15 1.71 4.12 3.25 5.94 4.65-.9 1.85-5.5 18.9-11.53 21.31z" fill="#ff8941"/><path d="M586.44 353.92c-.28 70.7 2.74 136.54 10.56 195.25l-8.93 4-17.85 2.19-5.26-.91c-1.56-28.22-13-74.13-25.88-122.59 0 0-9 11.05-9.11 12-1.4 15.76-8.38 109.28-8.38 109.28l-8.8 2.11H497.7l-9.2-3.57c-3-77.09-5.14-150.35-1.15-197.8 18.01 4.54 69.74 9.53 99.09.04z" fill="#63a4c1"/><path d="M427.71 282.11c9.92 7.4 28.23-17.17 18.31-24.57s-28.23 17.18-18.31 24.57zm4.29-24.66c.6-2.77 1.55-4.61 4.16-2.2 2.57-5 5.31-5.79 8.2-3.17 5.49-5 7.21-3.79 6.16 2.07 8.46-1.74 7.26 1.13 2.4 5.75 4.92 3.18 5.84 5.54-1 7 5.38 4.13 5.52 7-.37 8.38 3.51 7.87 2.09 10.86-5.48 7.84.45 7.48-1.41 9.74-6.73 4.21-3.06 6.24-6.2 8.41-9.47 1.51-5.9 4.13-9.32 4-7.47-5.27-5.36-.59-5.71-3.42-.15-8.89-3.88-.28 1-3.32 1.52-5.22.42-1.49-2.14-4.06 2-4.62-1.71-1.89.35-4.33 2.59-4.17.04-3.05 1.12-4.34 3.64-3.22z" fill="#f3761f"/><path d="M468.79 316.86a62.71 62.71 0 0116.95 11.81c-14.91-8.91-34.63 12.25-60.38-10.82 8.07-1.78 16.08-4.38 24.66-4.68a40.63 40.63 0 0118.77 3.69z" fill="#1c5e48"/><path d="M460.15 297.58s11.59-18.26 10.09-27.93l9.53 2.28c-4.58 5-5.15 20.16-2.67 31.41h-.1l-2.79 4.35-3.95 6.13 2.6-5.21c.57-3.63-.89-4.56-4.27-2.91 1.54-5.83 2.44-10.63-1.92-6.92-.42-8.32-3-6.51-6.34-1l-.1-.07-.14-.14z" fill="#ea9f8c"/><path d="M570 295.15c.61.9 13.86 20.66 14.33 21.62l4.31 5.91c-3.5 2.65-5.89 4.28-5.89 4.28L572 331.34l-4.27-6.72L551.47 299l-.13-.19 14.79-9.65z" fill="#ff513a"/><path d="M513.42 587.42c-.78 2.32-64.66 15.86-62.54-1.17 9.66 10.32 49.67-.48 63.23-4.44a33.47 33.47 0 01-.69 5.61z" fill="#ebe2e1"/><path d="M525.23 168.86c-5 9.55-13.1 9.32-19.52 1.63 1.9 1.42 19.52-1.63 19.52-1.63z" fill="#fff"/><path d="M488.25 329.88c4.66 1.69 7.29-.57 7.29-.57l.92.2a21.83 21.83 0 009-.12 153.46 153.46 0 0115.5-1.83c18.84-1.6 46.31-2.92 46.78-2.94l4.27 6.72 10.8-4.38 3.65 27c-29.35 9.49-81.08 4.5-99.09 0z" fill="#ff513a"/><path d="M544.67 140.45c-7.52 3-4.5 16.63-4.5 16.63l-.16.06c-.34-1.27-1-1.89-2.39-4.06 0 0 1.83-12.75-5.1-21.86s-6.07-9-17.6-3.4-18.1 4.86-18.1 4.86c-28.77-5.1-14.2-37.4 9.84-27 6.81-21.12 26.35-14.81 26.95 4.13 5.08-1.37 10.52 1.55 14.69 4.13 3.82 2.36 9.14 18-.48 24.78a14.68 14.68 0 01-3.15 1.73z" fill="#263147"/><path d="M477.1 303.34c-2.48-11.25-1.91-26.45 2.67-31.41l5.68-6.17c8.34 12.37 5.36 19.92 1.56 25.17-2.16 3-4.58 5.23-5.34 7.2a66.87 66.87 0 00-3.07 10.46 40.88 40.88 0 01-1.5-5.25z" fill="#1c5e48"/><path d="M513.47 206.51c-5.25 5.76-14.16-21.17-14.16-21.17l-.1-.27c.73-.28 1.14-.42 1.14-.42 4.11 8.2 9.91 11.53 17.24 10.44l.62 3.14c.04.42.08 2.98-4.74 8.28z" fill="#ff8941"/><path d="M478.6 308.59a66.87 66.87 0 013.07-10.46c.76-2 3.18-4.21 5.34-7.2v14.79c-3.92 1-6.82 2.58-7.81 4-1.2-1.36-3.84-.71-5-2l2.79-4.35h.06a40.88 40.88 0 001.55 5.22z" fill="#c7b299"/><path d="M446 257.54c9.92 7.4-8.39 32-18.31 24.57s8.41-31.96 18.31-24.57z" fill="#fcbb25"/><path d="M570.22 572.85a14.9 14.9 0 00-5.09-3.92c7-1.94 5.09-13.56 5.09-13.56l17.85-2.19.94 17.56c-3.13-.35-8.13 6.57-17.69 8.65 0 .02 1.09-4.17-1.1-6.54z" fill="#ea9f8c"/><path d="M519.41 598.9c12.93 10.78 58.68-7.89 74.13-14.57a40.41 40.41 0 010 6.74c-.37 1.82-18.21 7.65-43.35 14.2s-30.78-3.82-30.78-3.82z" fill="#d7cccc"/><path d="M540.17 157.08s-3-13.68 4.5-16.63a14.68 14.68 0 003.15-1.69s5.85 12.9-7.64 18.73h-.08c0-.13-.05-.25-.09-.37z" fill="#eba08d"/><path d="M479.77 271.93l-9.53-2.28a6.76 6.76 0 00-1.83-3.89c-8.55-8.4-6.47-47.16-1.58-59 4.36-10.58 27-19.67 32.38-21.68l.1.27s8.91 26.93 14.16 21.17c4.82-5.3 4.78-7.86 4.74-8.24l4.72 23.78-2.13 87.49.22.6-1.23.45s-19.28-6.31-26.09-5.9a35.43 35.43 0 00-6.67 1.05V291c3.8-5.25 6.78-12.8-1.56-25.17z" fill="#ff513a"/><path d="M495.89 569.83c1.58 2.2.23 5.58.23 5.58 8.17-.74 13.06-6 15.63-5.39 1.69.4 2.39 3.34 2.36 11.79-13.56 4-53.57 14.76-63.23 4.44.2-8.17 7.41-4.59 31.76-17.6 3.29-1.76 6-4.5 9.42-2.61a12.56 12.56 0 013.83 3.79z" fill="#6b4a47"/><path d="M537.62 153.08s-2.4 15.25-6.56 11.9c-9.45-2.59-23.19-2.31-29.14 1.33-2.57-.23-4.58-10.57-4-11.73l-1.1-21.86s6.56.73 18.1-4.86 10.68-5.71 17.6 3.4 5.1 21.82 5.1 21.82z" fill="#eba08d"/><path d="M522.93 222.05l-4.72-23.78-.62-3.14s4 .79 9.95-1.7l-.85 5.29zm-26.47 107.46l-.92-.2a31.92 31.92 0 01-7.16-2.79 43.75 43.75 0 00-4.56-2.2c-4.13-1.43-.08-6-.08-6-6.34-.75-4.42-2.81 2-5.57-6.12.1-7.76-1.36-6.54-3.06 1-1.39 3.89-2.95 7.81-4a35.43 35.43 0 016.67-1.05c6.81-.41 26.09 5.9 26.09 5.9l1.23-.45L551.47 299l16.25 25.64c-.47 0-27.94 1.34-46.78 2.94a153.46 153.46 0 00-15.5 1.83 21.83 21.83 0 01-8.98.1z" fill="#ea9f8c"/><path d="M505.57 170.32a2.09 2.09 0 00.14.17.32.32 0 01-.14-.17z" fill="#fff"/><path d="M497.7 555.29h15.09l-1 14.73c-2.57-.6-7.46 4.65-15.63 5.39 0 0 1.35-3.38-.23-5.58a12.56 12.56 0 00-3.83-3.79c6.01-.88 5.6-10.75 5.6-10.75z" fill="#ea9f8c"/><path d="M519.41 598.9v2.55s5.64 10.38 30.78 3.82 43-12.38 43.35-14.2a40.41 40.41 0 000-6.74c-15.45 6.67-61.2 25.35-74.13 14.57z" fill="none" stroke="#000" stroke-miterlimit="10" stroke-width=".58"/><path d="M593.54 584.33c-1.22-10-2.47-13.35-4.53-13.57-3.13-.35-8.13 6.57-17.69 8.65 0 0 1.09-4.19-1.1-6.56a14.9 14.9 0 00-5.09-3.92c-4.34-1.74-7.12 1.91-10.75 4.47-26.89 19-35.94 15.81-35 25.5m43.56-13.3l8.38-6.19" fill="none" stroke="#000" stroke-miterlimit="10" stroke-width=".58"/><path d="M589 570.74l-.94-17.56-17.85 2.19s1.94 11.62-5.09 13.56l-.12.07" fill="none" stroke="#000" stroke-miterlimit="10" stroke-width=".58"/><path d="M450.88 586.25c-2.12 17 61.76 3.49 62.54 1.17a33.47 33.47 0 00.69-5.61c-13.56 3.96-53.57 14.76-63.23 4.44z" fill="none" stroke="#000" stroke-miterlimit="10" stroke-width=".48"/><path d="M514.11 581.81c0-8.45-.67-11.39-2.36-11.79-2.57-.6-7.46 4.65-15.63 5.39 0 0 1.35-3.38-.23-5.58a12.56 12.56 0 00-3.83-3.79c-3.44-1.89-6.13.85-9.42 2.61-24.35 13-31.56 9.43-31.76 17.6m37.62-6.55l7.62-4.29" fill="none" stroke="#000" stroke-miterlimit="10" stroke-width=".48"/><path d="M511.75 570l1-14.73H497.7s.41 9.87-5.64 10.75h-.15m20.88-10.73l8.8-2.11s7-93.52 8.38-109.28c.09-1 9.11-12 9.11-12C552 480.33 563.4 526.24 565 554.46l5.26.91" fill="none" stroke="#000" stroke-miterlimit="10" stroke-width=".48"/><path d="M588.07 553.18l8.93-4c-7.82-58.71-10.84-124.55-10.56-195.25-29.35 9.49-81.08 4.5-99.09 0-4 47.45-1.87 120.71 1.15 197.8l9.2 3.57m19.52-73.88l-2.87 62.65m-21.08 1.19s17.94 1.36 25.77-.46" fill="none" stroke="#000" stroke-miterlimit="10" stroke-width=".48"/><path d="M574.42 362.18c4.21 70.19 9.33 133.91 16.75 181.41l-16.75 3.64m-20.89-181.17l16.69 24.04m-45.83-16.27c.48 1.46 12.14 45.18 12.14 45.18m-39.35-56.83l-9.47 9.47" fill="none" stroke="#000" stroke-miterlimit="10" stroke-width=".48"/><path d="M470.24 269.65c1.5 9.67-10.09 27.93-10.09 27.93" fill="none" stroke="#000" stroke-linecap="round" stroke-linejoin="round" stroke-width=".37"/><path d="M518.21 198.23l-.62-3.14c-7.33 1.09-13.13-2.24-17.24-10.44 0 0-.41.14-1.14.42-5.35 2-28 11.1-32.38 21.68-4.89 11.85-7 50.61 1.58 59a6.76 6.76 0 011.83 3.89m116.2 84.28l-3.65-27s2.39-1.63 5.89-4.28c9.3-7 26.44-21.23 27.51-30.93 1.45-13.36-13.36-58.77-20.16-67.27-34.25-42.81-17.42-21.57-49.43-46.11-1.82-1.4-3.79-2.94-5.94-4.65.34 13.24-12.39 19.82-13.12 19.67l-.85 5.29-3.76 23.37-4.72-23.78" fill="none" stroke="#000" stroke-miterlimit="10" stroke-width=".48"/><path fill="none" stroke="#006837" stroke-linejoin="round" stroke-width="1.73" d="M460.26 297.73l-.13-.14-13.49-14"/><path d="M479.22 309.71c-1.2-1.36-3.84-.71-5-2" fill="none" stroke="#006837" stroke-linejoin="round" stroke-width="1.15"/><path d="M487 290.93c-2.16 3-4.58 5.23-5.34 7.2a66.87 66.87 0 00-3.07 10.46 40.88 40.88 0 01-1.5-5.25c-2.48-11.25-1.91-26.45 2.67-31.41l5.68-6.17c8.35 12.37 5.37 19.92 1.56 25.17z" fill="none" stroke="#000" stroke-linecap="round" stroke-linejoin="round" stroke-width=".37"/><path d="M446.06 283.12c.45 7.48-1.41 9.74-6.73 4.21-3.06 6.24-6.2 8.41-9.47 1.51-5.9 4.13-9.32 4-7.47-5.27-5.36-.59-5.71-3.42-.15-8.89-3.88-.28 1-3.32 1.52-5.22.42-1.49-2.14-4.06 2-4.62-1.71-1.89.35-4.33 2.59-4.17.07-3.05 1.15-4.34 3.63-3.22.6-2.77 1.55-4.61 4.16-2.2 2.57-5 5.31-5.79 8.2-3.17 5.49-5 7.21-3.79 6.16 2.07 8.46-1.74 7.26 1.13 2.4 5.75 4.92 3.18 5.84 5.54-1 7 5.38 4.13 5.52 7-.37 8.38 3.52 7.87 2.1 10.86-5.47 7.84z" fill="none" stroke="#000" stroke-linejoin="round" stroke-width=".49"/><path d="M427.71 282.11c9.92 7.4 28.23-17.17 18.31-24.57s-28.23 17.18-18.31 24.57zm155.08 44.85l-10.8 4.38-4.26-6.72-16.26-25.64-.13-.19 14.79-9.65 8.29-5.41-4.13-27.2m30.35 22.11l-15.3-4.13s11.9-4.13 19.92-1.22M570 295.15c.61.9 13.86 20.66 14.33 21.62" fill="none" stroke="#000" stroke-linecap="round" stroke-linejoin="round" stroke-width=".37"/><path d="M560.82 231c-.25-1-2.06-29.52 11-35.28" fill="none" stroke="#ff510e" stroke-miterlimit="10" stroke-width=".86"/><path d="M546.61 178.33v0c-.9 1.88-5.5 18.93-11.53 21.34s-8.38-1-8.38-1m-27.39-13.33s8.91 26.93 14.16 21.17c4.82-5.3 4.78-7.86 4.74-8.24v0m-40.25 1.14l3.93 23.13M552 298.79l-.52.19L521 310.14l-1.23.45s-19.28-6.31-26.09-5.9a35.43 35.43 0 00-6.67 1.05c-3.92 1-6.82 2.58-7.81 4-1.22 1.7.42 3.16 6.54 3.06-6.44 2.76-8.36 4.82-2 5.57 0 0-4.05 4.55.08 6a43.75 43.75 0 014.56 2.2 31.92 31.92 0 007.16 2.79l.92.2a21.83 21.83 0 009-.12 153.46 153.46 0 0115.5-1.83c18.84-1.6 46.31-2.92 46.78-2.94h0m-97.44-10.84l2.6-5.21c.57-3.63-.89-4.56-4.27-2.91 1.54-5.83 2.44-10.63-1.92-6.92-.42-8.32-3-6.51-6.34-1-1.36 2.27-2.85 5.19-4.35 8.28-3-14.37-6.23-22.62-8.37-4.86A18.51 18.51 0 00450 312.8m18.63 4.38l.16-.32 1.51-3.02m17.95 16.04l.13-3.36" fill="none" stroke="#000" stroke-linecap="round" stroke-linejoin="round" stroke-width=".37"/><path fill="none" stroke="#000" stroke-miterlimit="10" stroke-width=".48" d="M487.35 353.92l.9-24.04m-1.22-24.14v-14.79m-7.26-19.02l-9.53-2.28-.16-.04m52.85-47.56l-2.13 87.49m2.8 44.75l-2.66-26.73-.02-.15m-23-172.87h0c-3.73 5-1.79 25.11 2.46 30.07"/><path d="M540.66 173.72c-.32-10.76-.17-14.29-.56-16.21 0-.13-.05-.25-.09-.37-.34-1.27-1-1.89-2.39-4.06 0 0-2.4 15.25-6.56 11.9-9.45-2.59-23.19-2.31-29.14 1.33-2.57-.23-4.58-10.57-4-11.73" fill="none" stroke="#000" stroke-miterlimit="10" stroke-width=".48"/><path d="M537.62 153.08s1.83-12.75-5.1-21.86-6.07-9-17.6-3.4-18.1 4.86-18.1 4.86l1.1 21.86" fill="none" stroke="#000" stroke-miterlimit="10" stroke-width=".48"/><path d="M540.17 157.08s-3-13.68 4.5-16.63a14.68 14.68 0 003.15-1.69c9.62-6.8 4.3-22.42.48-24.78-4.17-2.58-9.61-5.5-14.69-4.13-.6-18.94-20.14-25.25-26.95-4.13-24-10.44-38.61 21.86-9.84 27" fill="none" stroke="#000" stroke-miterlimit="10" stroke-width=".48"/><path d="M508.57 112c3 5.91 18.55 2 22.86 7.64m-39.54-3.87c2.56 6.09 15.16 1.79 18.8 7.65" fill="none" stroke="#7a7a7a" stroke-miterlimit="10" stroke-width=".81"/><path d="M505.71 170.49c1.9 1.42 19.52-1.63 19.52-1.63-4.99 9.55-13.1 9.32-19.52 1.63zm-.14-.17a.32.32 0 00.14.17 2.09 2.09 0 01-.14-.17z" fill="none" stroke="#000" stroke-miterlimit="10" stroke-width=".44"/><path fill="none" stroke="#000" stroke-linecap="round" stroke-linejoin="round" stroke-width=".37" d="M477.04 303.35l-2.79 4.35-3.95 6.13v.01"/><path d="M517.59 195.09s4 .79 9.95-1.7m20.28-54.63s5.85 12.9-7.64 18.73" fill="none" stroke="#000" stroke-linecap="round" stroke-linejoin="round" stroke-width=".29"/><path fill="none" stroke="#006837" stroke-linecap="round" stroke-linejoin="round" stroke-width="1.15" d="M496.46 329.51l9.31 9.85"/><path d="M485.74 328.67a62.71 62.71 0 00-16.95-11.81 40.63 40.63 0 00-18.79-3.69c-8.58.3-16.59 2.9-24.66 4.68 25.75 23.07 45.47 1.91 60.38 10.82a14.2 14.2 0 002.51 1.21c4.66 1.69 7.29-.57 7.29-.57" fill="none" stroke="#000" stroke-linecap="round" stroke-linejoin="round" stroke-width=".43"/></svg>
