<svg xmlns="http://www.w3.org/2000/svg" viewBox="0 0 1400 780"><path fill="#c7b299" d="M0 0h1400v780H0z"/><path d="M496.74 348.8c-1.78 7.3.95 6.1-10.53 4.62 2.24-6.57.03-5.33 10.53-4.62z" fill="#faf1eb"/><path d="M488.7 342.64c6.62-37.73-2.8-44.25-3.63-83.35h.05c12.33 1.31 25.8 8.88 40.16 21.32l18-15c4.67 24.76 6.69 51.08 6.47 78.72a287.94 287.94 0 01-61.05-1.69z" fill="#f9f0ea"/><path d="M556.88 674.82h-8.17c0-21.79-4.16-26.13 5-31.91 5.51 2.48 3.35 5.45 8.5 11s23.09 14.91 26.88 14.55 1.53-2.66 1.53-2.66c16.52 2.3 22.5 4.49 20.78 6.57 0 0-9.41 8.7-31.25 2.49-9.6-6.57-24.17-9.52-24.17-9.52z" fill="#35353a"/><path d="M537.35 356.38l12-.95v-6.75l-12 1.19zm-34.68-1.19l29.59 1.19v-5.92l-28.77-.59zm-16.46-1.77c11.48 1.48 8.75 2.68 10.53-4.62-10.5-.71-8.29-1.95-10.53 4.62zm-20.72 130.8c-10.48-67.86 9-103.91 23.21-141.58a287.94 287.94 0 0061.08 1.66c2.14 47.79 7.58 93 23.2 130.22l2.61-6.4c19.88 71.6 14.53 83.62.83 164.61-.59 1.3-3.57 1.85-7.28 2a114.21 114.21 0 01-14.33-.57c-2.18-.2-3.61-.37-3.61-.37-1.15-28.75-.66-56.42 2.13-82.57-13.73-32.79-26-63.66-34.09-89.14-17.77 44-21.26 104.39-20.78 169.34a13 13 0 01-6.57 2.16 52.84 52.84 0 01-13.32-1.07c-2.29-.4-4.64-.87-7-1.33-7.41-38.26-11.89-91.1-15.33-149.1z" fill="#5480ac"/><path d="M562.59 355.64c.08-6.34.25-13.07.45-20.34l13.73-8.52c0-3.27 48.25-15.51 60.61-11.36 11.67 3.92 9.16 5.45 1.9 11.49s-18.71.59-26 0-35 24.5-35 24.5-8.61 6.13-15.08 4.25z" fill="#e4a57d"/><path d="M531 208.05s12-3.79 13.14-9.12 1.77-10.77.71-15.74S534.86 159.63 534 159l5.35-12.32c17.53 9.62 20.88 28.08 15.72 51.85 11.5 21.37 15.79 35.76 6.39 36.94-1.11-.15-30.54-15.63-30.54-15.63z" fill="#e2d5b0"/><path d="M456.26 482.09s-15.69-5.25-18-12.89c7.48-7.93 18-21.91 20.07-34.11 2.79-16.59 7.67-79.74 8.88-79.9 8.27 8.27 5.21-5.2 5.21-12.55 0-.35-.1-2.42-2.9-3.78 0 0 1.2-17.61 4.79-46.18 2.84-22.53 2.1-48.1.94-57.86 4.06.85 7.16 3.84 10 6.68-.26 6.63-.3 12.5-.18 17.79.83 39.1 10.25 45.62 3.63 83.35-14.19 37.67-33.69 73.72-23.21 141.58z" fill="#414148"/><path d="M475.68 230.63c3.08 1.29 6.55 2.89 10 4 7.13 2.21 14.11 2.08 17.24-8.08-4.62 3.22-10.34 3.79-16.33 3.67-.02-.04-4.59-.04-10.91.41zm-6.66.6c-16.27.29-19.24-7.75-11.87-11.06 4-1.77 13 1.61 13.79-12.37s-5-40.12 7.81-54.8c18.38-12.57 37.41-21.68 60.14-11.13l.5 4.85L534 159c-.83-.6-6.87-3.91-15.28 2.83s-14.91 10.07-13 17.17 7.94 13.73 7.58 22.38-4.26 31.49-7.11 35.75c-10.25 15.38-15.1 10.18-21 4.33-2.84-2.84-5.94-5.83-10-6.68-.3-2.58-.63-4-.94-4.09-1.68.13-3.45.3-5.28.5z" fill="#f0e6c8"/><path d="M422.28 322.16c7 11.27 13.82 20.41 20.07 23.62l8.88-6.92c3.33-5 9.67-4.53 18.29 0 2.8 1.36 2.9 3.43 2.9 3.78 0 7.35 3.06 20.82-5.21 12.55-5.29-4-14-.84-24.33 5.86-17.16-9.05-32.72-19.32-46.16-31.05 14.33-4.38 19.81-5.37 24.59-7.9z" fill="#e4a57d"/><path d="M543.31 265.58a291.91 291.91 0 00-12.31-45.7s29.43 15.48 30.54 15.63c14.56 23.79 16 55.35 15.27 91.26L563 335.3c-.2 7.27-.37 14-.45 20.34-.47 38.14 1.95 62.36 16.71 104.36l-3.67 8.16-2.61 6.4c-15.62-37.22-21.06-82.43-23.2-130.22.22-27.68-1.78-54-6.47-78.76z" fill="#414148"/><path d="M475.68 230.63c6.29-.45 10.89-.45 10.89-.45-.34 0-.65 1.63-.91 4.41-3.43-1.07-6.9-2.67-9.98-3.96z" fill="#424249"/><path d="M502.9 226.51c-3.13 10.16-10.11 10.29-17.24 8.08.26-2.78.57-4.41.91-4.41 5.99.12 11.71-.45 16.33-3.67z" fill="#e4a57d"/><path fill="#faf1eb" d="M502.67 355.19l.82-5.32 28.77.59v5.92l-29.59-1.19z"/><path d="M469.52 338.86c-8.62-4.53-15-5-18.29 0l5-28.06c6.26-28.79 9.23-55.69 5-78.47 2.58-.45 5.2-.81 7.73-1.09 1.83-.2 3.6-.37 5.28-.5.31 0 .64 1.51.94 4.09 1.16 9.76 1.9 35.33-.94 57.86-3.52 28.56-4.72 46.17-4.72 46.17z" fill="#ebe2c4"/><path d="M485.25 241.5c5.86 5.85 10.71 11.05 21-4.33 2.85-4.26 6.75-27.11 7.11-35.75s-5.68-15.28-7.58-22.38 4.62-10.42 13-17.17 14.43-3.43 15.22-2.87 9.7 19.17 10.77 24.15.47 10.41-.71 15.74-13.06 9.16-13.06 9.16v11.83a291.91 291.91 0 0112.35 45.7l-18 15c-14.36-12.44-27.83-20-40.16-21.32h-.05c-.14-5.26-.14-11.13.11-17.76z" fill="#e4a57d"/><path fill="#faf1eb" d="M549.31 355.43l-11.96.95v-6.51l11.96-1.19v6.75z"/><path d="M389.25 315.41c-.7-8.52 44-65.34 52.57-75.28 3.41-4 11.27-6.38 19.47-7.81 4.2 22.78 1.23 49.68-5 78.47-.91-10.41 2.17-14.45-4.5-14.92-19.62 17.5-24.5 23-30.45 26.2-4.78 2.53-10.26 3.52-24.59 7.9-.03.03-6.75-6.03-7.5-14.56z" fill="#424249"/><path d="M554.81 634.17a114.21 114.21 0 0014.33.57c-.25 18.81.33 18.68 21.48 31 0 0 2.26 2.31-1.53 2.66s-21.73-9-26.88-14.55-3-8.48-8.5-11l1-8.11z" fill="#e4a57d"/><path d="M442.88 361.05c10.35-6.7 19-9.87 24.33-5.86-1.21.16-6.09 63.31-8.88 79.9-2.05 12.2-12.59 26.18-20.07 34.11-3.12 3.32-5.71 5.58-6.92 6.21-4.09 2.13-9.59 1.95-18.47-6.22s-23-20-19.17-28.41c3.53-7.78 50.01-78.24 49.18-79.73z" fill="#ebe2c4"/><path d="M487.07 665.38c-5.33-3.91-7.46-31.26-10.3-26.29l1.8-6.57a52.84 52.84 0 0013.32 1.07c-1.33 15.15-1.52 19.39 9 26.84 1.3 11.42-4.56 11.74-13.82 4.95z" fill="#e4a57d"/><path d="M472.86 671.92s1.07-27.85 3.91-32.83 5 22.38 10.3 26.29c9.26 6.79 15.12 6.47 13.85-5 0 0 16.34 17.25 12.78 19.86 0 0-27.7 6-31.25-2.48-5-11.92-3.93-26.77-3.88-5.89z" fill="#35353a"/><path d="M491.89 633.59a13 13 0 006.57-2.16c-.48-64.95 3-125.33 20.78-169.34 8.11 25.48 20.36 56.35 34.09 89.14-2.79 26.15-3.28 53.82-2.13 82.57 0 0 1.43.17 3.61.37a114.21 114.21 0 0014.33.57c3.71-.16 6.69-.71 7.28-2 13.7-81 19.05-93-.83-164.61l-2.61 6.4c-15.62-37.22-21.06-82.43-23.2-130.22a287.94 287.94 0 01-61.08-1.66c-14.19 37.67-33.69 73.72-23.21 141.58l-9.23-2.13c3.44 58 7.92 110.84 15.33 149.1 2.34.46 4.69.93 7 1.33a52.84 52.84 0 0013.3 1.06z" fill="none" stroke="#070100" stroke-miterlimit="10" stroke-width=".56"/><path d="M480.88 385c-16.6 72.11-15 153.16-2.84 239.37m44.63-167.96l35.64 90.91c-3.42 29.65-5.41 56.4-2.85 73.87" fill="none" stroke="#faf1eb" stroke-miterlimit="10" stroke-width=".95"/><path d="M576.77 326.77c.71-35.91-.71-67.47-15.27-91.26-1.11-.15-30.54-15.63-30.54-15.63a291.91 291.91 0 0112.35 45.7c4.67 24.76 6.69 51.08 6.47 78.72" fill="none" stroke="#070100" stroke-miterlimit="10" stroke-width=".56"/><path d="M575.59 468.12l3.67-8.16c-14.76-42-17.18-66.18-16.67-104.32.08-6.34.25-13.07.45-20.34l13.73-8.52m-91.51-85.45v.17c-.26 6.63-.3 12.5-.18 17.79.83 39.1 10.25 45.62 3.63 83.35M469 231.23c1.83-.2 3.6-.37 5.28-.5l1.37-.1c6.29-.45 10.89-.45 10.89-.45-.34 0-.65 1.63-.91 4.41v.2" fill="none" stroke="#070100" stroke-miterlimit="10" stroke-width=".56"/><path d="M461.29 232.33c4.2 22.78 1.23 49.68-5 78.47-.91-10.41 2.17-14.45-4.5-14.92-19.62 17.5-24.5 23-30.45 26.2-4.78 2.53-10.26 3.52-24.59 7.9 0 0-6.75-6-7.47-14.57s44-65.34 52.57-75.28c3.41-4 11.27-6.38 19.47-7.81 2.58-.45 5.2-.81 7.73-1.09m-1.84 123.96c-1.21.16-6.09 63.31-8.88 79.9-2.05 12.2-12.59 26.18-20.07 34.11-3.12 3.32-5.71 5.58-6.92 6.21-4.09 2.13-9.59 1.95-18.47-6.22s-23-20-19.17-28.41c3.53-7.77 50-78.24 49.18-79.73 10.35-6.7 19.04-9.87 24.33-5.86z" fill="none" stroke="#070100" stroke-miterlimit="10" stroke-width=".56"/><path d="M456.26 310.8l-5 28.06c3.33-5 9.67-4.53 18.29 0 0 0 1.2-17.61 4.79-46.18 2.84-22.53 2.1-48.1.94-57.86-.3-2.58-.63-4-.94-4.09m-52.06 91.43c7 11.27 13.82 20.41 20.07 23.62l8.88-6.92M396.72 330c13.44 11.75 29 22 46.16 31.07m31.96-63.77c.18.72 7.82 25.21 7.11 32.68m62.15-95.19c21.2 53.93 18.59 37.21 13.9 102.29m-14.69-71.5l-18 15c-14.36-12.44-27.83-20-40.16-21.32m40.13 21.35s1.3-3.73-1.25-9.47m-24.32 56l9.94 4.61s17.76-11 26.28-9.59m-49.72 31.26c11.48 1.48 8.75 2.68 10.53-4.62-10.5-.71-8.29-1.95-10.53 4.62zm17.28-3.55l-.82 5.32 29.59 1.19v-5.92l-28.77-.59zm33.86 0v6.51l11.96-.95v-6.75l-11.96 1.19z" fill="none" stroke="#070100" stroke-miterlimit="10" stroke-width=".56"/><path d="M453.54 390s-2.42 48.66-13.46 58.25c-17.81 15.45-33.26 5.28-34.49.35" fill="none" stroke="#f9f0ea" stroke-miterlimit="10" stroke-width=".95"/><path d="M531 219.88v-11.83s12-3.79 13.14-9.12 1.77-10.77.71-15.74S534.86 159.63 534 159s-6.87-3.91-15.28 2.83-14.91 10.07-13 17.17 7.94 13.73 7.58 22.38-4.26 31.49-7.11 35.75c-10.25 15.38-15.1 10.18-21 4.33-2.84-2.84-5.94-5.83-10-6.68" fill="none" stroke="#070100" stroke-miterlimit="10" stroke-width=".56"/><path d="M486.57 230.18c6 .12 11.71-.45 16.33-3.67-3.13 10.16-10.11 10.29-17.24 8.08-3.43-1.07-6.9-2.67-10-4" fill="none" stroke="#070100" stroke-miterlimit="10" stroke-width=".56"/><path d="M469 231.23h0c-16.27.29-19.24-7.75-11.87-11.06 4-1.77 13 1.61 13.79-12.37s-5-40.12 7.81-54.8c18.38-12.57 37.41-21.68 60.14-11.13l.5 4.85c17.53 9.62 20.88 28.08 15.72 51.85 11.5 21.37 15.79 35.76 6.39 36.94" fill="none" stroke="#070100" stroke-miterlimit="10" stroke-width=".56"/><path d="M529.54 148.5c-17.74-7.26-35.26 6.16-35.26 22s8.4 38.12 0 49.36" fill="none" stroke="#faf1eb" stroke-miterlimit="10" stroke-width=".95"/><path d="M498.68 153c-9-7.23-17.85 6.14-17.85 21.93s4.26 38 0 49.18" fill="none" stroke="#faf1eb" stroke-miterlimit="10" stroke-width=".95"/><path d="M576.77 326.78h0c0-3.27 48.25-15.51 60.61-11.36 11.67 3.92 9.16 5.45 1.9 11.49s-18.71.59-26 0-35 24.5-35 24.5-8.61 6.13-15.08 4.25M456.26 482.09s-15.69-5.25-18-12.89m116.49 165.6l-1 8.11c-9.16 5.78-5 10.12-5 31.91h8.17l-.9-9.52s14.57 3 24.17 9.52c21.84 6.21 31.25-2.49 31.25-2.49 1.72-2.08-4.26-4.27-20.78-6.57 0 0 2.26 2.31-1.53 2.66s-21.73-9-26.88-14.55-3-8.48-8.5-11m36.87 22.89c-21.15-12.34-21.73-12.21-21.48-31M467.21 355.19c8.27 8.27 5.21-5.2 5.21-12.55 0-.35-.1-2.42-2.9-3.78m31.4 321.57s16.34 17.25 12.78 19.86c0 0-27.7 6-31.25-2.48-5-11.92-3.93-26.77-3.88-5.89h-5.71s1.07-27.85 3.91-32.83 5 22.38 10.3 26.29c9.26 6.79 15.12 6.47 13.85-4.95zm0 0c-10.55-7.45-10.36-11.69-9-26.84m-15.15 5.5l1.8-6.57" fill="none" stroke="#070100" stroke-miterlimit="10" stroke-width=".56"/><path d="M838.44 338.32c3.95-1.93 5.65-.84 5 3.39l-3 6.08-1.75 3.52a47.58 47.58 0 00-21.91-4.3v-.43a21.67 21.67 0 01-2.78-13.5c2.5-20.73 6.3-11.1 9.77 5.66 1.75-3.6 3.49-7 5.09-9.66 3.86-6.44 6.9-8.55 7.39 1.16 5.04-4.33 3.99 1.27 2.19 8.08z" fill="#ea9f8c"/><path d="M869.85 365.85s-3.07 2.64-8.51.67l.15-3.92a37.1 37.1 0 008.36 3.25z" fill="#ff513a"/><path d="M951.05 645.49a17.44 17.44 0 016 4.57c2.55 2.77 1.28 7.66 1.28 7.66 11.15-2.43 17-10.5 20.64-10.1 2.41.26 3.87 4.19 5.28 15.84-18 7.8-71.41 29.58-86.5 17-1.13-11.31 9.43-7.6 40.81-29.76 4.18-2.98 7.44-7.24 12.49-5.21z" fill="#6b4a47"/><path d="M881.71 180.51l-.17-.19a.44.44 0 00.17.19c7.49 9 17 9.25 22.79-1.9 0 0-20.57 3.56-22.79 1.9zM875.45 197c-5-5.79-7.21-29.2-2.87-35.09-.63 1.34 1.71 13.41 4.71 13.69 7-4.25 23-4.58 34-1.56C916.15 178 919 160.2 919 160.2c1.61 2.53 2.39 3.26 2.79 4.74 0 .13.07.27.1.42.46 2.25.28 6.36.65 18.93.41 15.45-14.45 23.12-15.3 23-7 2.91-11.62 2-11.62 2-8.62 1.21-15.36-2.69-20.17-12.29z" fill="#263147"/><path d="M901.8 240.68l4.4-27.27s2.69 4 9.78 1.2 12.4-22.7 13.45-24.9c37.36 28.64 17.71 3.85 57.68 53.81 7.94 9.92 25.22 62.92 23.53 78.5-1.24 11.33-21.25 27.89-32.1 36.1l-5-6.9c-.55-1.11-16-24.17-16.72-25.23l-4.57-7L935 330.24l.14.22-35.53 13-.26-.7z" fill="#ff513a"/><path d="M916 214.61c-7.09 2.84-9.78-1.2-9.78-1.2l1-6.17c.85.17 15.71-7.5 15.3-23 2.52 2 4.82 3.79 6.94 5.42-1.08 2.25-6.46 22.14-13.46 24.95z" fill="#ff8941"/><path d="M975.92 394.58c-.32 82.51 3.2 159.33 12.32 227.85l-10.41 4.68-20.83 2.55-6.14-1.06c-1.82-32.93-15.18-86.51-30.21-143 0 0-10.52 12.89-10.63 14-1.63 18.39-9.77 127.53-9.77 127.53L890 629.58h-17.63l-10.74-4.17c-3.52-90-6-175.46-1.34-230.83 21.01 5.25 81.39 11.07 115.63 0z" fill="#63a4c1"/><path d="M790.68 310.78c11.58 8.63 33-20 21.37-28.68s-32.95 20.05-21.37 28.68zm5-28.78c.69-3.24 1.81-5.39 4.85-2.58 3-5.87 6.2-6.75 9.57-3.69 6.41-5.88 8.42-4.43 7.19 2.41 9.87-2 8.48 1.32 2.8 6.71 5.74 3.71 6.81 6.47-1.13 8.18 6.28 4.81 6.44 8.19-.44 9.78 4.1 9.17 2.44 12.67-6.38 9.14.52 8.73-1.66 11.37-7.86 4.92-3.58 7.27-7.23 9.81-11 1.76-6.89 4.81-10.88 4.65-8.72-6.16-6.26-.68-6.66-4-.18-10.37-4.52-.33 1.17-3.87 1.78-6.09.48-1.74-2.51-4.74 2.31-5.39-2-2.2.41-5.05 3-4.87.03-3.55 1.29-5.07 4.18-3.75z" fill="#f3761f"/><path d="M838.63 351.32c6.2 2.81 12.75 7.2 19.78 13.79C841 354.71 818 379.41 788 352.48c9.41-2.07 18.77-5.11 28.77-5.46a47.58 47.58 0 0121.86 4.3z" fill="#1c5e48"/><path d="M828.54 328.82s13.53-21.3 11.78-32.59l11.12 2.66c-5.34 5.79-6 23.52-3.12 36.66h-.06l-3.26 5.09-4.61 7.15 3-6.08c.66-4.23-1-5.32-5-3.39 1.8-6.81 2.85-12.41-2.24-8.08-.49-9.71-3.53-7.6-7.39-1.16l-.13-.08-.16-.16z" fill="#ea9f8c"/><path d="M956.79 326c.71 1.06 16.17 24.12 16.72 25.23l5 6.9c-4.09 3.09-6.88 5-6.88 5l-12.6 5.1-5-7.84-19-29.92-.14-.22L952.22 319z" fill="#ff513a"/><path d="M890.7 667.07c-.9 2.7-75.44 18.5-73-1.37 11.26 12 58-.56 73.79-5.18a38.69 38.69 0 01-.79 6.55z" fill="#ebe2e1"/><path d="M904.5 178.61c-5.83 11.15-15.3 10.88-22.79 1.9 2.22 1.66 22.79-1.9 22.79-1.9z" fill="#fff"/><path d="M861.34 366.52c5.44 2 8.51-.67 8.51-.67.35.09.71.17 1.07.24a25.63 25.63 0 0010.48-.09 177.89 177.89 0 0118.08-2.13c22-1.87 54-3.42 54.6-3.44l5 7.84 12.6-5.1 4.26 31.46c-34.24 11.07-94.62 5.25-115.63 0z" fill="#ff513a"/><path d="M927.17 145.46c-8.77 3.44-5.24 19.41-5.24 19.41l-.19.07c-.4-1.48-1.18-2.21-2.79-4.74 0 0 2.13-14.88-6-25.51s-7.08-10.49-20.55-4-21.11 5.67-21.11 5.67c-33.58-5.95-16.58-43.64 11.48-31.46 7.94-24.66 30.75-17.28 31.46 4.82 5.92-1.6 12.27 1.8 17.14 4.82 4.45 2.75 10.66 21-.57 28.92a16.85 16.85 0 01-3.63 2z" fill="#263147"/><path d="M848.32 335.55c-2.89-13.14-2.22-30.87 3.12-36.66l6.63-7.2c9.73 14.44 6.25 23.25 1.82 29.38-2.52 3.48-5.35 6.1-6.23 8.4a78.77 78.77 0 00-3.59 12.21 49.57 49.57 0 01-1.75-6.13z" fill="#1c5e48"/><path d="M890.76 222.55c-6.11 6.71-16.52-24.71-16.52-24.71l-.11-.31 1.32-.49c4.81 9.56 11.57 13.46 20.12 12.19l.73 3.65v.06c.04.43.09 3.42-5.54 9.61z" fill="#ff8941"/><path d="M850.07 341.68a78.77 78.77 0 013.59-12.21c.88-2.3 3.71-4.92 6.23-8.4v17.26c-4.58 1.19-8 3-9.12 4.63-1.4-1.59-4.48-.82-5.81-2.34l3.27-5.08h.06a49.57 49.57 0 001.78 6.14z" fill="#c7b299"/><path d="M812.05 282.1c11.58 8.63-9.79 37.31-21.37 28.68s9.8-37.31 21.37-28.68z" fill="#fcbb25"/><path d="M957 650.06a17.44 17.44 0 00-6-4.57c8.21-2.26 6-15.83 6-15.83l20.83-2.55 1.09 20.49c-3.65-.4-9.49 7.67-20.64 10.1 0 .02 1.27-4.87-1.28-7.64z" fill="#ea9f8c"/><path d="M897.7 680.46c15.09 12.58 68.48-9.2 86.5-17 0 0 .43 5.74 0 7.86s-21.2 8.93-50.58 16.58-35.92-4.46-35.92-4.46z" fill="#d7cccc"/><path d="M921.93 164.87s-3.53-16 5.24-19.41a16.85 16.85 0 003.68-2s6.84 15-8.91 21.85h-.1c0-.15-.06-.29-.1-.42z" fill="#eba08d"/><path d="M851.44 298.89l-11.12-2.66a7.83 7.83 0 00-2.14-4.54c-10-9.8-7.54-55-1.84-68.86 5.09-12.35 31.54-23 37.79-25.3l.11.31s10.41 31.42 16.52 24.71c5.63-6.19 5.58-9.18 5.54-9.61l5.5 27.74-2.48 102.11.26.7-1.44.52s-22.5-7.37-30.45-6.88a40.54 40.54 0 00-7.77 1.22v-17.26c4.43-6.13 7.91-14.94-1.82-29.38z" fill="#ff513a"/><path d="M870.26 646.54c1.83 2.57.26 6.51.26 6.51 9.54-.87 15.24-7 18.24-6.28 2 .46 2.79 3.89 2.76 13.75-15.83 4.62-62.53 17.22-73.79 5.18.23-9.53 8.65-5.36 37.06-20.54 3.83-2 7-5.25 11-3a14.64 14.64 0 014.47 4.38z" fill="#6b4a47"/><path d="M919 160.2s-2.8 17.79-7.65 13.88c-11-3-27.06-2.69-34 1.56-3-.28-5.34-12.35-4.71-13.69v-.06l-1.28-25.5s7.65.85 21.11-5.67 12.48-6.66 20.55 4S919 160.2 919 160.2z" fill="#eba08d"/><path d="M901.8 240.68l-5.5-27.74v-.06l-.73-3.65s4.65.92 11.62-2l-1 6.17zm-30.88 125.41c-.36-.07-.72-.15-1.07-.24a37.1 37.1 0 01-8.36-3.25 48.2 48.2 0 00-5.33-2.57c-4.82-1.67-.09-7-.09-7-7.39-.88-5.15-3.27 2.37-6.5-7.15.12-9.07-1.58-7.64-3.57 1.15-1.62 4.54-3.44 9.12-4.63a40.54 40.54 0 017.77-1.22c7.95-.49 30.45 6.88 30.45 6.88l1.44-.52 35.53-13 19 29.92c-.55 0-32.61 1.57-54.6 3.44A177.89 177.89 0 00881.4 366a25.63 25.63 0 01-10.48.09z" fill="#ea9f8c"/><path d="M881.54 180.32l.17.19a.44.44 0 01-.17-.19z" fill="#fff"/><path d="M872.37 629.58H890l-1.22 17.19c-3-.71-8.7 5.41-18.24 6.28 0 0 1.57-3.94-.26-6.51a14.64 14.64 0 00-4.48-4.42c7.05-1.03 6.57-12.54 6.57-12.54z" fill="#ea9f8c"/><path d="M897.7 680.46v3s6.59 12.11 35.92 4.46 50.16-14.45 50.58-16.58 0-7.86 0-7.86c-18.02 7.78-71.41 29.52-86.5 16.98zm86.5-17c-1.41-11.65-2.87-15.58-5.28-15.84-3.65-.4-9.49 7.67-20.64 10.1 0 0 1.27-4.89-1.28-7.66a17.44 17.44 0 00-6-4.57c-5.06-2-8.31 2.23-12.54 5.21-31.38 22.16-41.94 18.45-40.81 29.76m50.85-15.51l9.78-7.23" fill="none" stroke="#000" stroke-miterlimit="10" stroke-width=".67"/><path d="M978.92 647.6l-1.09-20.49-20.83 2.55s2.26 13.57-6 15.83l-.19.06" fill="none" stroke="#000" stroke-miterlimit="10" stroke-width=".67"/><path d="M817.73 665.7c-2.47 19.87 72.07 4.07 73 1.37a38.69 38.69 0 00.82-6.55c-15.86 4.62-62.55 17.22-73.82 5.18zm73.79-5.18c0-9.86-.78-13.29-2.76-13.75-3-.71-8.7 5.41-18.24 6.28 0 0 1.57-3.94-.26-6.51a14.64 14.64 0 00-4.48-4.42c-4-2.21-7.16 1-11 3-28.41 15.18-36.83 11-37.06 20.54m43.91-7.61l8.89-5" fill="none" stroke="#000" stroke-miterlimit="10" stroke-width=".56"/><path d="M888.76 646.77l1.24-17.19h-17.63s.48 11.51-6.59 12.54a.86.86 0 01-.17 0M890 629.58l10.27-2.47S908.39 518 910 499.58c.11-1.14 10.63-14 10.63-14 15 56.54 28.39 110.12 30.21 143.05l6.14 1.06" fill="none" stroke="#000" stroke-miterlimit="10" stroke-width=".56"/><path d="M977.83 627.11l10.41-4.68c-9.12-68.52-12.64-145.34-12.32-227.85-34.24 11.07-94.62 5.25-115.63 0-4.66 55.37-2.18 140.86 1.34 230.83l10.74 4.17m22.78-86.21l-3.36 73.11m-24.6 1.38s20.94 1.6 30.08-.53" fill="none" stroke="#000" stroke-miterlimit="10" stroke-width=".56"/><path d="M961.89 404.21c4.91 81.91 10.9 156.28 19.55 211.71l-19.55 4.25m-24.37-211.42L957 436.8m-53.49-18.99c.56 1.71 14.17 52.72 14.17 52.72m-45.92-66.32l-11.05 11.05" fill="none" stroke="#000" stroke-miterlimit="10" stroke-width=".56"/><path d="M840.32 296.23c1.75 11.29-11.78 32.59-11.78 32.59" fill="none" stroke="#000" stroke-linecap="round" stroke-linejoin="round" stroke-width=".43"/><path d="M896.3 212.88l-.73-3.65c-8.57 1.27-15.31-2.63-20.12-12.23l-1.32.49c-6.25 2.35-32.7 12.95-37.79 25.3-5.7 13.83-8.13 59.06 1.84 68.86a7.83 7.83 0 012.14 4.54m135.6 98.39l-4.26-31.46s2.79-1.91 6.88-5c10.85-8.21 30.86-24.77 32.1-36.1 1.69-15.58-15.59-68.58-23.53-78.5-40-50-20.32-25.17-57.68-53.81-2.12-1.63-4.42-3.43-6.94-5.42.41 15.45-14.45 23.12-15.3 23l-1 6.17-4.4 27.27-5.5-27.74" fill="none" stroke="#000" stroke-miterlimit="10" stroke-width=".56"/><path fill="none" stroke="#006837" stroke-linejoin="round" stroke-width="2.02" d="M828.68 329l-.16-.16-15.74-16.34"/><path d="M850.8 343c-1.4-1.59-4.48-.82-5.81-2.34" fill="none" stroke="#006837" stroke-linejoin="round" stroke-width="1.35"/><path d="M859.89 321.07c-2.52 3.48-5.35 6.1-6.23 8.4a78.77 78.77 0 00-3.59 12.21 49.57 49.57 0 01-1.75-6.13c-2.89-13.14-2.22-30.87 3.12-36.66l6.63-7.2c9.73 14.44 6.25 23.25 1.82 29.38z" fill="none" stroke="#000" stroke-linecap="round" stroke-linejoin="round" stroke-width=".43"/><path d="M812.11 312c.52 8.73-1.66 11.37-7.86 4.92-3.58 7.27-7.23 9.81-11 1.76-6.89 4.81-10.88 4.65-8.72-6.16-6.26-.68-6.66-4-.18-10.37-4.52-.33 1.17-3.87 1.78-6.09.48-1.74-2.51-4.74 2.31-5.39-2-2.2.41-5.05 3-4.87.08-3.55 1.34-5.07 4.23-3.75.69-3.24 1.81-5.39 4.85-2.58 3-5.87 6.2-6.75 9.57-3.69 6.41-5.88 8.42-4.43 7.19 2.41 9.87-2 8.48 1.32 2.8 6.71 5.74 3.71 6.81 6.47-1.13 8.18 6.28 4.81 6.44 8.19-.44 9.78 4.08 9.14 2.42 12.62-6.4 9.14z" fill="none" stroke="#000" stroke-linejoin="round" stroke-width=".57"/><path d="M790.68 310.78c11.58 8.63 33-20 21.37-28.68s-32.95 20.05-21.37 28.68zm180.98 52.34l-12.6 5.1-4.98-7.84-18.97-29.92-.14-.22 17.25-11.26 9.67-6.31-4.82-31.74m35.43 25.79l-17.86-4.82s13.89-4.82 23.24-1.41M956.79 326c.71 1.06 16.17 24.12 16.72 25.23" fill="none" stroke="#000" stroke-linecap="round" stroke-linejoin="round" stroke-width=".43"/><path d="M946 251.17c-.28-1.13-2.4-34.46 12.83-41.18" fill="none" stroke="#ff510e" stroke-miterlimit="10"/><path d="M929.45 189.67a.05.05 0 000 0c-1 2.2-6.42 22.09-13.45 24.9s-9.78-1.2-9.78-1.2m-31.98-15.53s10.41 31.42 16.52 24.71c5.63-6.19 5.58-9.18 5.54-9.61v-.06m-46.97 1.38l4.58 26.99m81.81 88.99l-.61.22-35.53 13-1.44.52s-22.5-7.37-30.45-6.88a40.54 40.54 0 00-7.77 1.22c-4.58 1.19-8 3-9.12 4.63-1.43 2 .49 3.69 7.64 3.57-7.52 3.23-9.76 5.62-2.37 6.5 0 0-4.73 5.31.09 7a48.2 48.2 0 015.33 2.57 37.1 37.1 0 008.36 3.25c.35.09.71.17 1.07.24a25.63 25.63 0 0010.48-.08 177.89 177.89 0 0118.08-2.13c22-1.87 54-3.42 54.6-3.44h0m-113.7-12.64l3-6.08c.66-4.23-1-5.32-5-3.39 1.8-6.81 2.85-12.41-2.24-8.08-.49-9.71-3.53-7.6-7.39-1.16-1.6 2.66-3.34 6.06-5.09 9.66-3.47-16.76-7.27-26.39-9.77-5.66a21.67 21.67 0 002.76 13.51m21.79 5.1l.19-.37 1.75-3.52m20.96 18.72l.15-3.92" fill="none" stroke="#000" stroke-linecap="round" stroke-linejoin="round" stroke-width=".43"/><path fill="none" stroke="#000" stroke-miterlimit="10" stroke-width=".56" d="M860.29 394.58l1.05-28.06m-1.42-28.17v-17.26m-8.48-22.2l-11.12-2.66-.19-.05m61.67-55.5l-2.48 102.11m3.26 52.21l-3.1-31.18-.02-.19m-26.84-201.74v.06c-4.34 5.89-2.08 29.3 2.87 35.09"/><path d="M922.49 184.29c-.37-12.57-.19-16.68-.65-18.93 0-.15-.06-.29-.1-.42-.4-1.48-1.18-2.21-2.79-4.74 0 0-2.8 17.79-7.65 13.88-11-3-27.06-2.69-34 1.56-3-.28-5.34-12.35-4.71-13.69" fill="none" stroke="#000" stroke-miterlimit="10" stroke-width=".56"/><path d="M919 160.2s2.13-14.88-6-25.51-7.08-10.49-20.55-4-21.11 5.67-21.11 5.67l1.28 25.5" fill="none" stroke="#000" stroke-miterlimit="10" stroke-width=".56"/><path d="M921.93 164.87s-3.53-16 5.24-19.41a16.85 16.85 0 003.68-2c11.23-7.94 5-26.17.57-28.92-4.87-3-11.22-6.42-17.14-4.82-.71-22.1-23.52-29.48-31.46-4.82-28.06-12.18-45.06 25.51-11.48 31.46" fill="none" stroke="#000" stroke-miterlimit="10" stroke-width=".56"/><path d="M885.05 112.19c3.53 6.91 21.65 2.28 26.68 8.93m-46.15-4.46c3 7.1 17.69 2.09 21.94 8.93" fill="none" stroke="#7a7a7a" stroke-miterlimit="10" stroke-width=".95"/><path d="M881.71 180.51c2.22 1.66 22.79-1.9 22.79-1.9-5.83 11.15-15.3 10.88-22.79 1.9zm-.17-.19a.44.44 0 00.17.19z" fill="none" stroke="#000" stroke-miterlimit="10" stroke-width=".51"/><path fill="none" stroke="#000" stroke-linecap="round" stroke-linejoin="round" stroke-width=".43" d="M848.26 335.56l-3.27 5.07-4.61 7.16v.01"/><path d="M895.57 209.23s4.65.92 11.62-2m23.66-63.74s6.84 15-8.91 21.85" fill="none" stroke="#000" stroke-linecap="round" stroke-linejoin="round" stroke-width=".34"/><path fill="none" stroke="#006837" stroke-linecap="round" stroke-linejoin="round" stroke-width="1.35" d="M870.92 366.09l10.86 11.5"/><path d="M858.41 365.11c-7-6.59-13.58-11-19.78-13.79a47.58 47.58 0 00-21.91-4.3c-10 .35-19.36 3.39-28.77 5.46 30 26.93 53 2.23 70.46 12.63a16.46 16.46 0 002.93 1.41c5.44 2 8.51-.67 8.51-.67" fill="none" stroke="#000" stroke-linecap="round" stroke-linejoin="round" stroke-width=".5"/></svg>
