<svg xmlns="http://www.w3.org/2000/svg" viewBox="0 0 1400 780"><path fill="#c7b299" d="M0 0h1400v780H0z"/><path d="M878.29 164.41L869.4 167s-8.84.21-9.57 0-5.9-4.42-5.9-4.42l3.84-2.38s12.79-1.51 14.16-1 7.85-.11 7.85-.11z" fill="#fff"/><path d="M548.15 248.57c-17.4 21.13-15.26 19.67-18.63 20-16 1.52-20.9 4.38-40.18-8.6 5.07-2 6.62-.92 6.62-.92l-5.11-10.43c-8.83 2.76-15.18-16.81-8.21-17-2-5.3-1.69-4.29-.34-8.53l1-19.71c50.76-.33 38.43-2.73 60 10.92 12.61 18.79 14.5 19.05 4.85 34.27z" fill="#f7d2b5"/><path d="M540.62 278.88c-2.41-.62-3.1 14.49-18.72 22.32.7-3 1.8-10-.25-12.23s-3.61-5.47-4.43-4.29c-.44-2.78-1.22-1 12.41-15.41l9.48 8.17c1.58.06 1.19-.31 1.51 1.44z" fill="#726658"/><path d="M607.32 689.18c-1.32 8.67-4.39 14.38-13.64 16.21-4.82 1-12.82.15-14.53-1-2.18-1.5-4.31-12.75-.82-13.66 1.08-.22-2.74 4.43 2.81 5.07 15.36 1.73 22.16-6.07 23.62-17.42 1.07-8.39-1.46-16.9-3.59-25.55 9.34-.1 7.56 27.17 6.15 36.35zM517 702.19c-5.42 5.93-19.53 4.06-24.35-2-2.15-2.71-4.82-10.15-2.7-13.18 3.35-4.75 9.47 8.39 10 8.8 2.81 2.35 10.12.13 12.31-3 3.83-5.41.1-32.06-1.23-38.81 9.93 10 5.6 13.25 6.41 24.46.44 6.9 5.44 17.28-.44 23.73z" fill="#161213"/><path d="M581.14 695.77c-2.84-.33-3.38-1.35-2.88-3.83 7.37-37.11.13-55.44.12-55.94l18.1-2.11c4.82 19.43 22.15 66.11-15.34 61.88z" fill="#ffd4bb"/><path d="M600.47 633.43l-27.94 3.24-60.36-169.86c-3.44 73.5-2.53 35.37-3.74 173.35-22.93 1.24-22.58 1.72-22.94.24-.92-3.69-21.95-49.5-21.95-115.22 0-28.67-31.8-64.38-8.62-125.27 0-.12 2.56-.27 3.88-1.69 5.21-5.63 3.59 2.62 22.07 1.87-2.7-.64 1.17-4 3.86-4 2.12 0 5.5.87 4.62-1.5-.71-1.89-2.61-1.49 7.11-1.12 71.24-2.8 60.84-3.7 58.61.76-1.49 3-3.48 7.7-.61 6s4.11-4 4.49-1.74c1 6.21 5.3.37 5.73 3.62.7 5.86 7.44-7.13 7.57-1.37.07 3.16-.77 6.39 2.11 6.37 8.39 28.52 7.33 75.74 8.4 130.06 8.47 19.38 11.65 27.23 15 49.13 1.24 8.22 3.24 45.14 2.71 47.13z" fill="#161213"/><path d="M593.48 397l-16.85-13.89c-2-1-1.51-.19 3.39-28.51l-14-18c-2.6-9-2.16-10.52-4-15-5.43-13.14 1.23-35.77 4-36.16 1.75-.25 9.48 4.74 13.72 7.47 2.9 1.89 22.17 28.89 28.69 54.88 3.78 15.12-6.24 36.33-14.95 49.21zm-130.19-80.84c-.5 4.49-5 8-4 16 2.17 17.47 2.77 15.55.32 19.39-3.05 4.72-2.37.13 1.42 28.51a28.49 28.49 0 01-11.47 10.22c-5.81 2.56-13-7.25-16-12.72-14.19-26.56-8.12-30.13-4.49-36.92 6.56-15.52 29.76-78 34.17-47.14.05-.04.55 18.17.05 22.66z" fill="#726658"/><path d="M566.3 342.36c-.49 1-4.49 10.72-9.23 15.71s-1.75 8.23-1.5 12.22c.16 2.72 2.55 5.2 5.14 7.45a14.79 14.79 0 00-5.76 2.78c-9.26 6.15-3.47 9.36-1.5 7.72s4.37-2.62 6.55-4.49 5.81-2.21 4.55-.73-4.37 4.94-5.72 6.34c-3.53 3.52-65 4-70.21 3.82-6.09-9-15.13-10.37-14.86-13.79 1.93 2.08 13 6.42 15 3.37.84-1.25-8.23-9-14.59-9.23-4.66-.19-7.62 3.53-10.26 7.86a6.81 6.81 0 00-.37-1.88c-1-2.49 7-12 6.26-16.21-10.91-12.66-10.47-10.62-8.92-13.94.77-1.66.59-.06-1.55-17.24-1-8 3.49-11.47 4-16s0-22.7 0-22.7c-1.54-10.74-9.71-6.54 3.07-9.95-.71 4.06-3.05 21.68.17 28.41 2.74 5.73 6.71 13.72 13.08 17 15.7 8-12.48-15.38-8.09-16.47 8.65 11.74 20.1 12.39 8.73 1.79a22 22 0 003 0c7.24-.5 2.25-.25-2.24-3.49s-12-3.5 0-2.26 13.72-.49 13.72-.49-10.73.25-13.22-6.23c-1.36-3.53-4.64-21.12.74-6 1.25 3.5 10 9 10 9s-15-18-12.61-23.44c1.57-3.72 6.17-4.74 9.83-4l-1.5 1.36c1.21-.14 2-.1 2 .16.5 1.75 16.95 24.44 16.95 22.2s-.23-4.81 1.79-12c3.12-10.41 2.09-4.25 7.08 5.52 0-.88.32-4.08.62-6.42 1-6.62 1.76-2.91 5.23.92 2.05 2.26 1 9.27.25 12.23 16-8 16.1-23 18.72-22.32l25.43 6.61c-2.69.38-9.48 22.86-4 36.16 1.88 4.56 1.33 5.76 4 15 2.35 3 2 2.45 2 2.57.46 5.46-1.28 2.07-1.78 3.08z" fill="#49423a"/><path d="M525.89 251.06s-4 6.74-6 7.24c-8.56 2.12-9 3.92-17.71-7.74 7.13 1.44 16.48 1.02 23.71.5zm17.58-18.58c1.13 7-5.43 12.14-7.66 12.29-2.81.19-7.95 1-9.92 0s-6-3.19-7.19-5.24c-3.66-6.19.07-5.54-5.83-5.19-1.62 1.87-3.2 11.36-12.23 10.93-11.35-.55-13.4-.08-15.91-13.47 2 .58.49 3.59 3.2-5.68-.23-4-.5-14.59 2.05-17.71 1.13 12.79-.17 11.15 4.49 11.48l2-10.72c4.33 5.62 5.35 23 11 13.46 0 0 1.26-11.22 1.76-7.73s6.73 7 9 7 10-15 10-15c-1 9.51-1.15 9.34-6.49 18.45l13.22-3.49c5.31-17.27 4.08-17.24 3.75-.25h2.73c3.92 10.32 3.76 8.09 2.03 10.87z" fill="none" stroke="#000" stroke-miterlimit="10" stroke-width="1.18"/><path d="M506.93 301c0 2.24-16.45-20.45-16.95-22.2-.07-.26-.83-.3-2-.16l10.26-9.32c21.44 24.2 8.69 5.54 8.69 31.68z" fill="#726658"/><path d="M547.35 231.11c-3.09-.62-2.39-1-3.88 1.37 2.17 13.47-20.77 20.39-27 1.65l-3.58.21c-2.15 2.48-3.05 11.37-12.23 10.93-8.32-.4-12.39 0-14.4-7.17-.48-1.66-1.63-3.67-1.41-4.93a4.1 4.1 0 00-.1-1.37c-10.42-2.7-3.16 19.52 6.12 16.81.45-.14 4 7.89 11.09 14.84 7.92 7.79 14.11 8.12 24.16-1.51 6.16-5.89 11.07-13.21 11.52-13.37.75-.25 6 1.25 7-1.75.43-1.42 7.57-14.74 2.71-15.71zm-27.44 27.19c-8.56 2.12-9 3.92-17.71-7.74 7.11 1.42 16.46 1 23.69.5 0 0-3.99 6.74-5.98 7.24z" fill="none" stroke="#000" stroke-miterlimit="10" stroke-width="1.18"/><path d="M525.89 251.06s-4 6.74-6 7.24c-8.56 2.12-9 3.92-17.71-7.74 7.13 1.44 16.48 1.02 23.71.5z" fill="none" stroke="#000" stroke-miterlimit="10" stroke-width="1.18"/><path d="M557.82 238.1c-.74 4-7.91 29.42-10.45 33.74-2.24 3.88-5.78 5.7-7 5.65-1.8-.08-.48.62-10.74-8.22-1.49-8.9-.39-7.53-3.53-7.33 6.16-5.89 11.07-13.21 11.52-13.37.75-.25 6 1.25 7-1.75.47-1.42 7.61-14.74 2.75-15.71-3.33-.66-1.8 1.3-6-9.48-3.65 0-2.77 2-2.53-10.2.06-3.49 1-5.51-4 10.45l-13.22 3.49c5.36-9.14 5.49-8.94 6.49-18.45 0 0-7.73 15-10 15s-8.49-3.5-9-7-1.76 7.73-1.76 7.73c-5.61 9.46-6.51-7.66-11-13.46l-2 10.72c-4.66-.33-3.36 1.31-4.49-11.48-2.55 3.12-2.28 13.68-2.05 17.71-2.8 9.6-.73 5.74-4.44 5.49-.94-.08-1 .48-2.38-4.8-4.29-15.83 1.85-20.49 6.82-34.11 3.2-8.73 13-5.49 16.77-8s9.72-3.48 22.19-2.48 14.46 6.23 17.21 9c12.02 11.86 14.44 43.63 13.84 46.86z" fill="#593b23" stroke="#000" stroke-miterlimit="10" stroke-width=".59"/><path d="M522.6 276.72c-4 4.2-6.8 4.33-6.8 17.75-7.71-15.12 2.39-2.64-16.25-23.67 1.34-8.44.74-7.24 2.39-7.35 7.92 7.79 14.11 8.12 24.16-1.51 3-.19 2.1-1.24 3.2 5.35.44 2.64 1.48.77-6.7 9.43z" fill="#f7d2b5"/><path d="M501.94 263.45c-1.65.11-1.15-.48-1.69 2.93-.88 5.56-.26 4.91-2.05 2.89l-8.76 8s-6.28-1.24-9.15 2.81c-3.65 5.21 7.85 19.77 11.93 24.65-11.1-7-9.49-9.05-12.61-15.22-1.2 11.2 3.5 18.73 15.11 18.46 0 0-1.75 1.75-13.72.49s-4.49-1 0 2.26 9.48 3 2.24 3.49a22 22 0 01-3 0c11.28 10.52 0 10.12-8.73-1.79-4.42 1.1 23.89 24.48 8.09 16.47-6.37-3.25-10.34-11.24-13.08-17-3.08-6.45-2.21-27.76 3.74-38.16C476 263.82 493.51 257.38 496 259c-10.79-21.88-2.58-3.87 5.94 4.45z" fill="#593b23" stroke="#000" stroke-miterlimit="10" stroke-width=".59"/><path d="M543.47 232.48c1.13 7-5.43 12.14-7.66 12.29-2.81.19-7.95 1-9.92 0s-6-3.19-7.19-5.24c-3.66-6.19.07-5.54-5.83-5.19-1.62 1.87-3.2 11.36-12.23 10.93-11.35-.55-13.4-.08-15.91-13.47 2 .58.49 3.59 3.2-5.68-.23-4-.5-14.59 2.05-17.71 1.13 12.79-.17 11.15 4.49 11.48l2-10.72c4.33 5.62 5.35 23 11 13.46 0 0 1.26-11.22 1.76-7.73s6.73 7 9 7 10-15 10-15c-1 9.51-1.15 9.34-6.49 18.45l13.22-3.49c5.31-17.27 4.08-17.24 3.75-.25h2.73c3.92 10.32 3.76 8.09 2.03 10.87z" fill="none" stroke="#000" stroke-miterlimit="10" stroke-width="1.18"/><path d="M525.89 251.06s-4 6.74-6 7.24c-8.56 2.12-9 3.92-17.71-7.74 7.13 1.44 16.48 1.02 23.71.5z" fill="#fc3842"/><path d="M519.25 255.85c3.56-3.41 5.28-1.61-11.74-2.43 3.71 6.35 10.93 3.2 11.74 2.43z" fill="#f5fff8"/><path d="M512.05 244c-.94 1.12-2.75 4.3-1.19 4.21 2.36-.14 9.63.9 7.55-2.07" fill="none" stroke="#000" stroke-miterlimit="10" stroke-width="1.18"/><path d="M521 233.54c2-4 9.61-3.44 13.37-1.5-4.46 3.33-7.14 3.42-13.37 1.5z" fill="#fff" stroke="#000" stroke-miterlimit="10" stroke-width=".89"/><path d="M529.58 232.7a1.86 1.86 0 01-3.72 0 1.86 1.86 0 013.72 0z" fill="#353938"/><path d="M506.16 233.32c-2-4-9.62-3.44-13.38-1.49 4.5 3.32 7.22 3.41 13.38 1.49z" fill="#fff" stroke="#000" stroke-miterlimit="10" stroke-width=".89"/><path d="M497.61 232.48a1.86 1.86 0 003.72 0 1.86 1.86 0 00-3.72 0z" fill="#353938"/><path d="M543.47 232.48c1.13 7-5.43 12.14-7.66 12.29-2.81.19-7.95 1-9.92 0-13.09-6.86-6.35-11.32-11.85-11.32-2.72 0-3 12.32-13.4 11.82-11.35-.55-13.4-.08-15.91-13.47.95.27 1.21.72 1.22 1.1 1.79-6.14 1.68-6.26 1.8-6.14 14.25-3.38 20.45 4.57 28.51 3.14 5.19-1-.06-2.64 15.9-4.09 8.19 1.42 7.4.83 10.87.13 2.15 5.53 2.07 3.92.44 6.54z" fill="none" stroke="#000" stroke-miterlimit="10" stroke-width="1.18"/><path d="M516.45 234.12c0 .12.29 0-3.58.22l-.72-4.44c5.17 0 4.18-1.1 4.3 4.22z" fill="none" stroke="#000" stroke-miterlimit="10" stroke-width="1.18"/><path d="M484.73 396.1c-2.7 0-6.57 3.35-3.86 4-7.15.29-9.71.49-16.59-3.12-4.85-2.54-3.68 2.68-10.72 3.12-3.35-4.72-6.36-9.2-6.36-9.43 3.77.28 9.54-5.1 12-8.09 3.33 4.12 3.79-1.26 8.35-6.05 8.29-8.7 22 5.13 21.2 6.24-2 3-13-1.23-15-3.37-.18 2.33 2.81 2.85 8 6.73a55.45 55.45 0 016.9 7.06c2.53 3.81-.9 2.91-3.92 2.91z" fill="#f7d2b5"/><path d="M463.92 382.06c-.92.47-1.83 2.22 0-.67a3 3 0 000 .67z" fill="none" stroke="#000" stroke-miterlimit="10" stroke-width="1.18"/><path d="M593.48 397c-.25 3-16.07 10.12-19.12 10.12-5.63.05 2.51-13.51-7.44-4-2.37 2.24-2.12 0-2.24-1-.44-3.35-4.7 2.7-5.73-3.62-.38-2.24-1.63 0-4.49 1.74-3.53 2.13.27-6.28 2.71-9.11.92-1.07 4.19-4.26 7.38-8.08 1.26-1.48-2.37-1.14-4.55.73s-4.43 2.75-6.55 4.49-3.86-1.24-3.73-2.24c.18-1.5 5.87-7.11 11-8.26 13.49-3.1 2.7 7.33 13.95 4.22 2.78 1.55.24-.32 18.81 15.01z" fill="#f7d2b5"/><path d="M540.11 278.75l-1-1.31z" fill="none" stroke="#000" stroke-miterlimit="10" stroke-width="1.18"/><path d="M512.2 692.82c-2.21 3.11-9.51 5.3-12.31 3-.45-.38-6.63-13.52-10-8.8a6.13 6.13 0 011.18-4.64c4-15.84-.06-26.77-2.38-38.8-.62-3-3.43-2.11 16.53-3.21.55-.06-.68.78 5.71 13.68 1.35 6.63 5.07 33.41 1.27 38.77z" fill="#fed2b9"/><path d="M513.78 682.62c0 1.58 0 4.42-.16 6 .06-2 .12-4 .16-6z" fill="none" stroke="#000" stroke-miterlimit="10" stroke-width="1.18"/><path d="M904.33 133.7c-2.12 8.1-5.71 6.68-4.66 12.18-5 5.78-4.44 4.91-14.86 9.64-10 1-3.12-6.59-21.86-4.48-2.86.32-9.88-.32-13.06 2.54s-5.41 9.24-7.95 2.89c-7.17-17.85-11.85-13.31-12.42-18.37-.65-5.78-3.31-7 5.63-12 2-9.27 2.13-9.19 8.06-12.95s1.92-7 6.68-10.18 2.56 3.81 2.56 3.81c-13.61 21 4.18 2.13 10.5.32 4.46-1.27 10.83-7.32 7.65-1.59s-8.61 7-4.46 7.64 13.37-1.59 17.5-3.51c7.66-3.51 6 5.75 14 12.81.2 8.41 8.36 4.97 6.69 11.25z" fill="#f9b588"/><path d="M916.65 702.82c-2.24 2.31-38.41 5.2-41.6 0s5.08-26.32 5.08-26.32h26.34s12.42 24 10.18 26.32zm-81.5 0c-11.22 1.63-15.69 2.54-18.68 0s-3.4-9.91 0-12.59 11.88-13.73 11.88-13.73c21.39 0 21.16-.29 21.38.52 11.87 28.39 7.97 22.51-14.58 25.8z" fill="#5390a2"/><path d="M906.47 676.5c-26 0-26.34 2-26.34-6 0-65.78-8.78-89.21-5.08-148.57.85-13.59-5.95-53.5-7.84-72.17-3.68-36.58-17.86 118.49-11.7 217.35.59 9.13-5.58 10.61-5.93 9.34-15.75 0-26.43 3.15-26-12.16 1.42-50.49-11.87-54.68-5.58-137.23 11.43-145.91-22.13-138.66 29.9-125.65 32.57 0 11.68-1.18 68.92-7.64a61.35 61.35 0 01-.1 22.93c-5.08 24.01 8.73 156.06-10.25 259.8z" fill="#a2a2a2"/><path d="M927.68 217.16l-10.89 176.61c-57.19 6.45-36.39 7.64-68.92 7.64-48.57-12.14-24.28 4.2-35.89-112 0-1.27-7.25-66.62-7.4-68l32.34-19c.38 4.79-1.12 1.69 13.73 21.8L861.46 207l5.75 13.57 7.84-11c1.62 4.11 5.89 12.12 9.34 9.34 13.86-11 9.82-21.81 13.29-21.5 6.07.35 30 19.75 30 19.75z" fill="#2b556e"/><path d="M975.33 365.64h-30.55s-3.18-29-8.61-45.84c-17.45-37.38-14-13.16-8.49-102.64 30.93 44.14 41.76 57.18 47.65 148.48zM812 289.37c0 1.36-9.5 10.33-11.11 17s-5.73 11.15-6 20.07-7.32 39.16-7.32 39.16l-28.66-2.22c4.95-52.7 1.46-74.32 45.74-142-.07.04 5.85 53.33 7.35 67.99z" fill="#294e60"/><path d="M789.39 436.71s-4.45-9.55-4.76-8.69-.32 11.3 1 15.35c2.89 9.21 6.65 5.23 0 9.26 0 0-.58-.36-1-.56 1 .56-2.24 4.62-3.51 4.62-7.16 0-11.93-11.7-13.37-18.24-3.29-14.93 3.54-17.52-5.34-74.18l23.21 1.64c-4.33 47.38-9 35.14 3.77 48.5 6.37 6.66 2.56 10.42 4.16 17.37s-4.16 4.93-4.16 4.93zm178.95-22.49c1.3 5.34 1.55 22.73-4.14 32.1-4.3 8.21-3.74 3.49-7.32 8.24-1.27 1.71-2.86 0-3.83 0s-1.59-3.11-5.24-3.11-2.4-.29-2.72-4 3.5-4.56 5.42-10-1.92-9.08-2.7-7.1-7.48 3.69-6.86 1.42c5.06-17.76 2.12-15.25 12.1-27.28-1.35-5.75-2.12-6.5-5-38.92h23c1.32 47.49-7.05 30.68-2.71 48.65z" fill="#f9b588"/><path d="M897.68 197.34c0 .18-1.41-.37-1.41 1.15 0 6.8-7.63 17-11.88 20.37-2.4 1.93-5.08-1.31-7-4.5-3.22-5.49-1.63-5.89-3.75-2.92l-1.17-6.9s11.09-6.35 13.65-12.38c.04-7.47-7.12-12.16 11.56 5.18zm-34.68 9.1c-2.13.77-.81-.54-12.3 17.82l-13.16-17.82c-4.47-19.26 9.81-17.92 13.14-20.05-.6 1.37-5.58 4.36-1.37 7.64 3.61 2.97 10.74 8.73 13.69 12.41z" fill="#4e849e"/><path d="M872.51 204.54c1.48 8.69 2.47 5.07-5.3 16-6.62-15.62-6.34-13.35-4.26-14.11 0 0-3.36-4.28-13.06-11.9 0-22.71-3.62-7.58 20.38-9.74 17.49-1.61 12.94-7.6 15.89 7.36-2.56 6.04-13.65 12.39-13.65 12.39z" fill="#f9b588"/><path d="M902.74 111.24c-5.46 12-3.56 12.63-5.12 11.21-7.85-7.17-6.34-16.31-14-12.81-4.13 1.92-13.37 4.16-17.5 3.51s1.27-1.91 4.46-7.64-3.19.32-7.65 1.59c-6.19 1.77-24 20.41-10.5-.32 0 0 2.22-7-2.56-3.81s-.63 6.37-6.68 10.18c-.2.13-6.73 3.86-6.73 6.92-1.72 2.2-.75-6.23-3.15-10.73a74.88 74.88 0 01-3.81-8.21c5.4-19.48 24.57-29.21 33.5-26.49 9.2 2.79 2.45-.21 16.88 7 0 0 3.49-5.4 10.51 0s12.4 5.11 12.4 10.19 1.86 15.27-.05 19.41z" fill="#7e1a24"/><path d="M863.59 140.33c0 .53 1.38.42-.64 5s.21 2.76 3.71 2.87 4.14-3.8 4.14-3.8" fill="none" stroke="#000" stroke-miterlimit="10" stroke-width="2.02"/><path d="M874 131c5.79 6.13 9.94 4.12 16.13 0-4.33-6.5-10.38-5.26-16.13 0z" fill="#fff" stroke="#000" stroke-miterlimit="10" stroke-width=".25"/><path d="M885 130.72c0 3.93-5.95 3.93-5.95 0s5.95-3.93 5.95 0z" fill="#0d0200"/><path d="M860 131c-5.8 6.13-9.94 4.12-16.13 0 4.3-6.5 10.35-5.26 16.13 0z" fill="#fff" stroke="#000" stroke-miterlimit="10" stroke-width=".25"/><path d="M848.94 130.72c0 3.93 5.94 3.93 5.94 0s-5.94-3.93-5.94 0z" fill="#0d0200"/><path d="M853.22 118.76c-3.76-.42-9.88 1.46-9.2 5.48 1-.57 1.7-1.46 2.65-2.06 2.74-1.75 9.68-1.11 11.58.6 3.4 3.07 5.89-2.78-5.03-4.02zm23.52 1.78c-5 4.72 4.38 2.08 9.37 2.56 4.13.39 5 .91 3.91-.33-2.76-3.1-10.23-5.11-13.28-2.23zm22.93 25.34c-5 5.78-4.44 4.91-14.86 9.64-10 1-3.12-6.59-21.86-4.48-2.86.32-9.88-.32-13.06 2.54-10.51 9.57-3.18 7-15-9.86.66 37.35 15 39.4 15 37.25 11.62 8.32 38.26 2.93 43.31-6.05 3.5-6.23 6.8-25.92 6.47-29.04zm-20.81 23.63a23.43 23.43 0 01-11.45 0s-14.88 6.46-14.34-1c.88-11.48 4.13-12.15 13.31-12.34 7.19-.15 12-1.91 13 1.76 1.19 4.07 6.12 9.84-.52 11.58z" fill="#7e1a24"/><path d="M880.78 160.6c-2.06-1.18.08-5.64-6.37-5-10.61 1-9.91.35-13 .56-9.12.62-16.42 23.12 6 13.37a23.43 23.43 0 0011.45 0c6.05-1.61 2.24-6.39 1.92-8.93zm-2.78 2.06c-2.26 4.52-20.23 4.36-20.23.46-.27-3.83 12.18.53 20.23-2.92.56-.2.16 2.15 0 2.46z" fill="#f9b588"/><path d="M881.68 129.18a.8.8 0 01-1.59 0 .8.8 0 011.59 0zm-27.68.51a.8.8 0 01-1.59 0 .8.8 0 111.59 0z" fill="#fff"/></svg>