<svg xmlns="http://www.w3.org/2000/svg" viewBox="0 0 1400 780"><path d="M984.15 390.8c-37.76 10.74-74.91 10.67-111.4-1.37 0 0-.47.73-1.16 2 21.46-39.25 37.9-39.3 18.56-91.46h75.17c1.2-2-9.67 21.86-8.43 33 3.39 30.6 18.67 39.03 27.26 57.83zM914.59 212l-12.33 37.2a32.07 32.07 0 00-13.52 16.18c-4 10.71-6.26 10.49.66 32.26-.2 0-59 154.71-61.56 158.47-2.36 3.53-9 2.36-14.12 3.14s-7.85-1.18-9.81-3.53 5.1-1.57 7.85-1.17 3.92-2.36 2-4.72-6.28-.39-12.16 2.36-10.2 1.17-7.45-4.51c4.5-9.33 17.55-6.8 28.64-5.3 58.33-220.83 46.61-206.27 91.8-230.38z" fill="#fcb088"/><path d="M950.22 251c-7.82 10.76-13.22 25.6-17.65 42h-8.82c-2.59-15.41-7.79-29.91-17.37-43 13.42-47.66 10.92-34.52 12.17-59.73l19.61-.31c0 25.68-2.42 12.3 12.06 61.04z" fill="#fcb088"/><path d="M963.53 153.89c-5.46-3.06-3.82-10.16-2.8-29.23a23.76 23.76 0 01-5.82 9.27q-3.63-9.17-7.86-18.08a122.61 122.61 0 013.7 19.09c-16.85 4.2-36-3.84-44.81-18.81a160.58 160.58 0 01-12.54 39.43c-1.93-.94-1.77-1.6-2-.25-12.59 2.51-.15 16.32 6.67 14.86 17.4 30 41.8 28.55 61.06 2 0 0 4 2 6-.78s5.87-4.83 5.87-7.13c0-12.62-9.33-1.93-7.47-10.37zm-40.06 12.94c12 .64 18.92-1.9 19.78.71-10.01 6.05-51.13-2.36-19.78-.71z" fill="#fcb088" stroke="#ff6310" stroke-miterlimit="10" stroke-width=".47"/><path d="M943.51 168.37c0 3.46-.58 4.42-2.76 6-5.36 4-8.18 6.31-15.26 4.86-4.47-.92-15.06-8-12.89-11.82.68-1.21 13.44 1.13 22.32.41 8.7-.65 8.58-.52 8.59.55z" fill="#fffdff"/><path d="M929.53 446.47c.13-.07.04 0 0 0zm0 0h-.07.07zm32.8 150.64v-.09a.24.24 0 010 .09z" fill="#fcb088"/><path d="M986 414.34c-3.45 0-54.71 31.72-59.17 33-3.39-2-52.63-31.76-57-33-1.4-1.39-2-17.44 2.93-24.95 36.49 12 73.64 12.11 111.4 1.37a17.24 17.24 0 012.94 6.47c.82 3.92.19 13.28-1.1 17.11zM965.4 299.8c-.14.21 0 .13-75.25.13 0-.09 0 0-.75-2.29-6.92-21.75-4.62-21.52-.66-32.26a32.07 32.07 0 0113.52-16.18c13.07-39.5 11.12-36.55 15.09-38.71.33-.18 1.25-3.8-11 39.6 9.58 13 14.78 27.54 17.37 43h8.82c17.7-65.64 25.4-16 5.59-82.67.07 0 .19.08 3 1.59 14 43.06 10 36.37 18 41.37 5.65 3.53 6.41 6.76 9.64 11.76s4.12 14.41 4.7 18c.53 3.05-7.7 16.3-8.07 16.66z" fill="#f54c3c"/><path d="M1049.45 441.6c5.65-.8 24 11.63 9.42 10.59-5.5-.39-6.67-3.14-12.16-4.51s-5.1 3.34-5.89 4.51c-1.5 2.25 20.39-1.42 11 5.09-10.86.57-13.72.37-23.53-4.31 0 0-53.06-140.06-60.4-157.17 2.53-4.24 6-10.51 5.57-12.76-.58-3.54-1.46-12.94-4.7-18s-4-8.23-9.64-11.76c-8-5-4 1.71-18-41.37 18.5 9.94 37.67 19.76 41.24 35.87l51 194.16s13.35.06 16.09-.34z" fill="#fcb28d"/><path d="M951.39 146.24c0 5.71-8.62 5.71-8.62 0s8.62-5.71 8.62 0zm-38.04 0c0 5.71-8.63 5.71-8.63 0s8.63-5.71 8.63 0z" fill="#1a0b07"/><path d="M925.46 152.51c.64 2.69-4.12 4.61-3.2 7.23s9.63 1.45 10.1 1c.81-.68.82-2.3-2-3.47" fill="#fcb088" stroke="#ff6310" stroke-miterlimit="10" stroke-width=".93"/><path d="M900.57 92.84c11.81-13 74-21.21 72.81 49.6-.2 14.87-10.79 14.58-13.12 7.19-1-3-.63-4.4.47-25a23.76 23.76 0 01-5.82 9.27c-2.42-6.11-4-9.7-6.8-15.63 1.73 6.25 1.91 10.19 2.64 16.64-16.85 4.2-36-3.84-44.81-18.81a160.71 160.71 0 01-12.54 39.43c-12.86-6.22-12.02-53.34 7.17-62.69z" fill="#fdd8a5"/><path d="M921.31 85c-14.75 1.62-24.19 8.5-29.15 15.76-2.23 3.25-19.2-9.26-14.43-26.26 6-21.36 32.63-16.26 39.73-9.79 4.2 3.86 7.43 15.07 3.85 20.29z" fill="#fdcf93"/><path d="M912.67 134c.14 2.06-8.49 2.64-10 3.2-3 1.11-2.07.2-1.24-2.63 3.51-2.41 11.11-2.38 11.24-.57z" fill="#fdd8a5"/><path d="M911.88 167.43c5.16-1.78 5.77 0 24.55-.85 16.17-.58 1.83 6.61-24.55.85z" fill="#f87f62"/><path d="M921.1 180c-8.34-3.14-11.68-11.82-8.91-12.43 8.64 17.42 31.1 11 31.1.26 2.93 5.33-7.36 17.76-22.19 12.17z" fill="#f87f62"/><path d="M870.16 409.32c-5.27 64.58 3.53 80 18.12 138.36-12.43 10.65.9 42.69 8.53 79.94 10.32 50.38 13.42 34.42-6.06 68-1.33 2.29-6.11 3.9-10.66 9.51-2.25 8-2.38 17.16 15.2 15.51 6-.56 5.63-3.62 6.25-9.61 1-9.63 12.58-9.4 16.94-12.06s6.28-11.39 6.87-14.73c.85-4.78-6.67-22.83-8.25-38.61-.82-8.24 3.29-17.29 4.12-26.35s2-32.21.84-42c-2.63-7.42-3.31-14-5-17.3-6.54-13.09-6.79-1 14-112.8z" fill="#fcb088"/><path d="M988.41 409.32c5.27 64.58-3.53 80-18.12 138.36 12.42 10.65-.9 42.69-8.53 79.94-10.32 50.38-13.43 34.42 6.06 68 1.32 2.29 9.53 4 12.85 7.86s1.54 16.42-17.39 17.16c-6 .24-5.63-3.62-6.26-9.61-1-9.63-11.85-9.79-16.94-12.06s-6.28-11.39-6.87-14.73c-.84-4.78 6.68-22.83 8.26-38.61.82-8.24-3.3-17.29-4.12-26.35s-2-32.21-.84-42c2.63-7.42 3.31-14 5-17.3 6.54-13.09 6.79-1-14-112.8zM526.52 390.8c-37.76 10.74-74.91 10.67-111.4-1.37 0 0-.48.73-1.16 2 21.46-39.25 37.9-39.3 18.56-91.46h75.17c1.2-2-9.67 21.86-8.43 33 3.39 30.6 18.67 39.03 27.26 57.83zM457 212l-12.37 37.2a32.07 32.07 0 00-13.52 16.18c-3.95 10.71-6.27 10.49.66 32.26-.21 0-59 154.71-61.56 158.47-2.36 3.53-9 2.36-14.12 3.14s-7.85-1.18-9.81-3.53 5.1-1.57 7.85-1.17 3.92-2.36 2-4.72-6.28-.39-12.16 2.36-10.2 1.17-7.45-4.51c4.5-9.33 17.54-6.8 28.63-5.3C423.48 221.55 411.77 236.11 457 212z" fill="#fcb088"/><path d="M492.59 251c-7.83 10.79-13.22 25.63-17.65 42.07h-8.83c-2.58-15.41-7.78-29.91-17.36-43 13.41-47.66 10.92-34.52 12.17-59.73l19.61-.31c0 25.61-2.42 12.23 12.06 60.97z" fill="#fcb088"/><path d="M505.9 153.89c-5.47-3.06-3.82-10.16-2.8-29.23a23.79 23.79 0 01-5.83 9.27q-3.61-9.17-7.85-18.08a123.79 123.79 0 013.7 19.09c-16.85 4.2-36-3.84-44.81-18.81a160.17 160.17 0 01-12.55 39.43c-1.92-.94-1.76-1.6-2-.25-12.59 2.51-.15 16.32 6.67 14.86 17.4 30 41.8 28.55 61.06 2 0 0 4 2 6-.78s5.88-4.83 5.88-7.13c0-12.62-9.37-1.93-7.47-10.37zm-40.07 12.94c12 .64 18.93-1.9 19.79.71-10.01 6.05-51.13-2.36-19.79-.71z" fill="#fcb088" stroke="#ff6310" stroke-miterlimit="10" stroke-width=".47"/><path d="M485.88 168.37c0 3.46-.59 4.42-2.77 6-5.36 4-8.17 6.31-15.25 4.86-4.47-.92-15.06-8-12.9-11.82.69-1.21 13.45 1.13 22.33.41 8.71-.65 8.58-.52 8.59.55z" fill="#fffdff"/><path d="M471.9 446.47c.1-.07.04 0 0 0zm0 0h-.07.07zm32.8 150.64v-.09a.24.24 0 010 .09z" fill="#fcb088"/><path d="M528.38 414.34c-3.45 0-54.71 31.72-59.17 33-3.39-2-52.63-31.76-57-33-1.4-1.39-2-17.44 2.93-24.95 36.49 12 73.64 12.11 111.4 1.37a17.42 17.42 0 012.94 6.47c.81 3.92.18 13.28-1.1 17.11zM507.77 299.8c-.14.21-.06.13-75.25.13 0-.09 0 0-.75-2.29-6.92-21.75-4.62-21.52-.66-32.26a32.07 32.07 0 0113.52-16.18c13.07-39.5 11.12-36.55 15.08-38.71.34-.18 1.25-3.8-11 39.6 9.58 13 14.78 27.54 17.36 43h8.83c17.7-65.64 25.39-16 5.59-82.67.07 0 .18.08 3 1.59 14 43.06 10 36.37 18 41.37 5.65 3.53 6.41 6.76 9.64 11.76s4.12 14.41 4.7 18c.53 3.05-7.69 16.3-8.06 16.66z" fill="#f54c3c"/><path d="M591.82 441.6c5.64-.8 24 11.63 9.42 10.59-5.5-.39-6.67-3.14-12.16-4.51s-5.1 3.34-5.89 4.51c-1.5 2.25 20.39-1.42 11 5.09-10.86.57-13.73.37-23.54-4.31 0 0-53-140.06-60.39-157.17 2.53-4.24 6-10.51 5.57-12.76-.58-3.54-1.46-12.94-4.7-18s-4-8.23-9.64-11.76c-8-5-4 1.71-18-41.37 18.5 9.94 37.67 19.76 41.24 35.87l51 194.16s13.35.06 16.09-.34z" fill="#fcb28d"/><path d="M493.76 146.24c0 5.71-8.63 5.71-8.63 0s8.63-5.71 8.63 0zm-38.04 0c0 5.71-8.63 5.71-8.63 0s8.63-5.71 8.63 0z" fill="#1a0b07"/><path d="M467.83 152.51c.64 2.69-4.12 4.61-3.2 7.23s9.63 1.45 10.1 1c.8-.68.82-2.3-2-3.47" fill="#fcb088" stroke="#ff6310" stroke-miterlimit="10" stroke-width=".93"/><path d="M442.94 92.84c11.81-13 74-21.21 72.81 49.6-.2 14.87-10.79 14.58-13.12 7.19-.95-3-.63-4.4.47-25a23.79 23.79 0 01-5.83 9.27c-2.41-6.11-4-9.7-6.8-15.63 1.74 6.25 1.92 10.19 2.65 16.64-16.85 4.2-36-3.84-44.81-18.81a160.3 160.3 0 01-12.55 39.43c-12.85-6.22-12.01-53.34 7.18-62.69z" fill="#fdd8a5"/><path d="M463.68 85c-14.75 1.62-24.19 8.5-29.16 15.76-2.22 3.25-19.19-9.26-14.43-26.26 6-21.36 32.63-16.26 39.74-9.79 4.17 3.86 7.43 15.07 3.85 20.29z" fill="#fdcf93"/><path d="M455 134c.14 2.06-8.49 2.64-10 3.2-3 1.11-2.07.2-1.24-2.63 3.55-2.41 11.15-2.38 11.24-.57z" fill="#fdd8a5"/><path d="M454.25 167.43c5.16-1.78 5.77 0 24.55-.85 16.2-.58 1.83 6.61-24.55.85z" fill="#f87f62"/><path d="M463.47 180c-8.34-3.14-11.68-11.82-8.91-12.43 8.64 17.42 31.1 11 31.1.26 2.93 5.33-7.36 17.76-22.19 12.17z" fill="#f87f62"/><path d="M412.53 409.32c-5.28 64.58 3.53 80 18.11 138.36-12.42 10.65.91 42.69 8.54 79.94 10.32 50.38 13.42 34.42-6.06 68-1.33 2.29-6.11 3.9-10.66 9.51-2.26 8-2.38 17.16 15.2 15.51 6-.56 5.62-3.62 6.25-9.61 1-9.63 12.58-9.4 16.94-12.06s6.28-11.39 6.87-14.73c.84-4.78-6.67-22.83-8.25-38.61-.83-8.24 3.29-17.29 4.12-26.35s2-32.21.84-42c-2.63-7.42-3.31-14-5-17.3-6.55-13.09-6.79-1 14-112.8z" fill="#fcb088"/><path d="M530.78 409.32c5.27 64.58-3.53 80-18.12 138.36 12.42 10.65-.9 42.69-8.53 79.94-10.33 50.38-13.43 34.42 6.05 68 1.33 2.29 9.54 4 12.86 7.86s1.54 16.42-17.39 17.16c-6 .24-5.63-3.62-6.26-9.61-1-9.63-11.86-9.79-16.94-12.06s-6.28-11.39-6.87-14.73c-.84-4.78 6.68-22.83 8.25-38.61.83-8.24-3.29-17.29-4.11-26.35s-2-32.21-.85-42c2.64-7.42 3.32-14 5-17.3 6.55-13.09 6.79-1-14-112.8z" fill="#fcb088"/><path fill="gray" d="M378.12 490.93h194.16v74.08H378.12zm455.9 60.82h194.16v51.78H834.02zm-1.5-133.37h194.16v91H832.52zm-454.4 204.33h194.16v45.5H378.12z"/></svg>