<svg xmlns="http://www.w3.org/2000/svg" viewBox="0 0 700 700"><path fill="#147171" d="M0 0h700v700H0z"/><path d="M580.32 363.91c0 65-119.58 65-119.58 0s119.58-65 119.58 0zM270.59 307c0 65-119.58 65-119.58 0s119.58-65 119.58 0z" fill="#fff"/><path d="M521.09 441.3c11.22 8.91 22.75 2.67 18.73-11.72 6.85-4.43 4.47-4.7-1.16-5 1.61 10.16-4.52 15.57-17.57 16.72z" fill="#ffe9ed"/><path d="M545.2 632.77l26.69-19.4c6.13 37.94.07 26.36-20.78 36.66-2.84 1.4-4.68-2.7-5.91-17.26zM473.18 625l28.48 6.06c.56 15-1.86 17.2-5.81 16-18.4-5.64-26.09 3.59-22.67-22.06z" fill="#ffb29b"/><path d="M600 392.68c-1.24-1.87 9.62-11.94 4-27.22-4.29-12.38-6.52 2.55-15.63-4.34-2.77-2.1-4.22-4.43-5.88-3.41-1.89 1.13-5.43 8 0 10.85 1.79 1 4.24 1 1.43 2.57-5.6 3.28-13.33-.47-15.28-4.2-2.86-5.24 1.5-15.55 5.83-29.71 16.55 1.57 11.93-2.82 7.28-4.29-7.19-2.25-6.3 1-5.81-4.42 19.9 3.23 12.29-5.32.07-5.24-.45-10.37-8-18.22-10.38-19-3.81-1.14-6.69 6-25.32 12.74-7.58 2.79-21.72 6.5-29 4.45 1.91.51 31.64-8.18 33.71-12.7 1.18-2.42-7 1.76-8 2-13 4.42-41.24 4.53-58.23-7.76-2-1.45-3.1-5.8-6.26-3.88-5.93 3.61-7.57 55-10.13 57.23-.4.36-1.16-6.31-1.6-7s-.81 2.23-6 3.13c-8.64 1.35 8.26-6.93-2.4-11.43-3.89-1.64-3.25-5.88-1.46-9.75 9.13 11.43 6.31-10.42 10.66-25.7 2.85-10 7.9-19.34 6.43-30.31-.33-2.5 1.45-5 3.09-7.25 1 2 2.52 6.17 5 5.05 1.39-.63.07-1.91-.06-2.86-2.35-17 24.6-14.28 19.43-4.5-3.56-5-7.1-1.29-6.31 1.06 3.61 10.79 77-24.95 117.39 33.43 19.18 27.72 9.89 74.78-6.57 92.46z" fill="#83140c"/><path d="M400.06 666.33c-61.52 0-61.19 2.08-61.19-4 .24-674.11-2.42-631.06 4.1-631 19.06.15 38.13.08 57.19.08L400 49c-18.21-.18-19.31-.8-19.29 1.66s1.9 1.82 19.29 1.63v11.32l-16.7-.17c-3.54 0-3.51 3.67 0 3.64l16.7-.18v11.27c-18.25-.17-19.33-.79-19.29 1.67s1.5 1.81 19.28 1.63v11.27c-16.71-.17-19.27-1-19.14 2 .08 2 .21 1.55 19.16 1.34v11.24c-29.34-.15-30.47-1.08-30.32 2 .1 2.14 0 1.52 30.34 1.35v11.2c-5.57 0-11.16-.1-16.73-.13-3.91 0-3 4.11-.28 4 5.68-.16 11.31-.37 17-.56v11.25c-18-.17-19.28-.78-19.28 1.67s.75 1.75 19.22 2.27V151c-18.3-.17-19-.76-19.29 1.62-.45 3.52 14 2.41 19.28 2.32v10.64c-17.75-.18-19.23-.67-19.11 1.93.1 2.05.64 1.53 18.72 1.63 1.24 3.62.55 7.3.43 11-29.32-.16-30.29-1-30.31 2s1 2.17 30.28 2v10.56c-5.43-.12-19.67-1.12-19.18 2 .31 2 .74 1.47 18.87 1.44 1.07 3.68.53 7.41.29 11.14-6-.12-19.17-1.12-19.07 1.92.08 2.06.56 1.54 18.77 1.5 1.12 3.68.5 7.4.31 11.12-18.09-.18-19.33-.89-19.3 2s1.55 2.14 19.36 2c0 13.77 4.19 10.54-16.62 10.54-3.7 0-3.78 4.19-.08 4.16 20.95-.2 16.65-3.36 16.65 10.43-29.31-.16-30.28-1-30.28 2s.91 2.16 30.3 2c0 13.8 4.22 10.57-16.63 10.57-3.7 0-3.71 4.18 0 4.15 20.91-.2 16.63-3.34 16.63 10.41-17.21-.14-19.34-1-19.34 2S382 286.2 400 286v11.28c-3.29-.26-19.22-1.86-19.16 1.43.05 2.74 1.65 2 19.11 1.84v10.63c-17.65.49-19.28-.14-19.24 2.26s1.21 1.85 19.29 1.67v11.29c-30.39-.21-30.24-.86-30.3 1.29-.09 3.12 1.15 2.16 30.28 2V341c-17.9-.22-19.29-.9-19.27 1.61s1.52 1.83 19.31 1.68c.78 3.7-.47 7.31-.48 11-17.51.08-18.88-.51-18.82 1.94s1.23 1.81 19.27 1.64v11.27c-17.14-.21-19.26-1-19.27 1.63s1.47 1.81 19.29 1.65v11.27l-16.64-.18c-3.56 0-3.63 3.65-.07 3.62L400 388v11.3c-29.83-.2-30.22-1-30.24 1.61s.29 1.85 30.25 1.66v11.29l-16.66-.18c-3.57 0-3.59 3.65 0 3.62l16.69-.16v11.28c-17.79-.18-19.26-.86-19.28 1.63s1.92 1.83 19.27 1.65V443l-16.66-.19c-3.57 0-3.58 3.66 0 3.63l16.69-.18v11.24c-18.31-.19-19.28-.79-19.28 1.63s1 1.84 19.3 1.65v11.27c-29.74-.2-30.26-.94-30.26 1.65s.49 1.84 30.28 1.66v11.24c-17.63-.16-19.27-.84-19.32 1.63s2 1.86 19.26 1.66v11.31l-16.76-.2c-3.57 0-3.57 3.68 0 3.64l16.68-.18v11.29c-17.92-.2-19.28-.86-19.28 1.65s1.63 1.81 19.28 1.62v11.29l-16.68-.17c-3.57 0-3.56 3.67 0 3.63l16.72-.17v11.29c-29.82-.2-30.4-1-30.29 1.94.08 2.15-.08 1.54 30.29 1.33v11.28l-16.68-.16c-3.57 0-3.56 3.67 0 3.63l16.66-.19V574c-18.11-.18-19.29-.81-19.27 1.67s1.3 1.81 19.28 1.61v11.29l-16.69-.17c-3.56 0-3.53 3.66 0 3.63q8.34-.07 16.67-.19a35.26 35.26 0 01-.49 11c-18.08.08-18.66-.44-18.79 1.74-.16 2.6 1.2 2 18.82 2.08l.44 11c-19.88-.17-21.61-1-21.49 2 .08 2-.13 1.54 21.49 1.34v11.28c-17.58-.17-19.31-.87-19.26 1.68s1.48 1.78 19.37 1.58z" fill="#ffbcda"/><path d="M599.94 392.59c.06.08.06-.01 0 0zm3.53-8.12q.38-.89.69-1.86c-.16.65-.45 1.27-.69 1.86zm1.91-13a24.87 24.87 0 01-.53 8.72 24.15 24.15 0 00.53-8.68zM597 396.22c-.09-.55-.12-1.29 0 0zm-18.36-23.39c-3.28 4.27-1.87 2.05 0 0zm-5-49a9.62 9.62 0 012.33-.53 5.89 5.89 0 00-2.29.5zm-.11 8.13c1.11.08 2.06.3 2.06 0a17.4 17.4 0 00-2.02-.03zm.43-4.49a8.41 8.41 0 001.44.74c-.4-.3-.93-.52-1.4-.77zm-16 63.11a4 4 0 001.75-2.75 4.69 4.69 0 01-1.71 2.72zm-.27-45.15a1.25 1.25 0 00.14-.41 1.53 1.53 0 01-.08.38zM555.18 412c.51-.3 1-.59 1.46-.89-.46.3-.95.6-1.46.89zm-.95-101.49l1.38-.85zm2.77 35.6a5.85 5.85 0 01-2.37.53 5.69 5.69 0 002.37-.53zm-2.81 12.07c.16.45.3.9.43 1.37-.15-.47-.28-.92-.45-1.37zm-.46 23.21c3.24.71 5.87 2.36 6.08 4.75-.17-2.66-2.81-4.14-6.1-4.75zm-1.61-27a15.24 15.24 0 011.16 1.83 15.24 15.24 0 00-1.18-1.85zm-1 59.74c.64-.3 1.26-.59 1.84-.89zm-1.5-62.4c.37.32.74.65 1.07 1a10 10 0 00-1.1-1.02zm-8.62 35.8c-.93-2.15.77-4 2.8-5.15-2.47 1.09-3.9 2.85-2.8 5.15zm1 1.46a11.1 11.1 0 006.58 3.15 13.31 13.31 0 01-6.52-3.14zm-.95-40.82a15.16 15.16 0 017.45 2.75 15 15 0 00-7.39-2.75zm-27.6-34.8c9.55.29 19.43-1.23 23.48-2.61a104.32 104.32 0 01-23.42 2.61zm21.32 106.57c.33-.05.63-.09.87-.11a5.29 5.29 0 00-.81.11zm-1.93-70.41q.78-.31 1.53-.57-.69.24-1.47.57zm-9-31.13q3.11-.91 6.11-2c-2.01.7-4.09 1.38-6.08 2zM529 425.73c4.8-1.78 7.78-4.15 7.9-5.27-.39 1.13-3.3 3.54-7.9 5.27zm-25.1-2.59c1.56.06 3.07.09 4.52.08-2.66-.08-3.99-.29-4.56-.08zm0 5.62c.19 5.7 3.32 8.54 7.69 10.29a13 13 0 01-7.75-10.29zm-1.14-59.53a3.92 3.92 0 011.82 0 3.79 3.79 0 00-1.88 0zm1.82 0a1.66 1.66 0 01.68.38 1.37 1.37 0 00-.74-.34zm-17.09 49a67.44 67.44 0 008.34 2.91zm8.1-24c.35-.15.74-.29 1.17-.43-.49.2-.88.31-1.23.46zm-1.1.51l.8-.38a8.57 8.57 0 00-.86.41zm-3.74-62.06a23.5 23.5 0 01-13.52 6.32c11.16-1.21 17.49-10.32 13.46-6.29zm-8.37 82.9c-3.67-2.62-7.89-5.57-7-5 3.36 3.24 10.44 7.55 6.94 5.03zm-14-103.86c1.13-6.63 2.48-11.6 4.18-12.63-2.13 1.29-2.95 3.25-4.24 12.66zm1.17 36.45a13.11 13.11 0 00-1.57 2.61 13.6 13.6 0 011.51-2.58zm2.2-2.34c.37-.3.75-.6 1.14-.88a13.35 13.35 0 00-1.2.91zm-4.48-9.67c-.15 2.15 1.26 2.77 5.12 2.87-3.1-.27-5.18-1.33-5.18-2.84zm-1.79 37.56a8.82 8.82 0 01.95-.32 5.89 5.89 0 00-1.01.35zm-4.58 12a30.51 30.51 0 012.7 8.28 19.5 19.5 0 00-2.76-8.23zm2.27-31.72c.7-3.4 1.37-10 2.14-17.58-.61 5.13-1.31 10.95-2.14 17.58zm-1.07 1.89c.08.45.07.61.27.43a.81.81 0 01-.27-.4zm-1.39-6.87c-.28.32-.1 0 .06.28zm-4.47 3.07a7.84 7.84 0 002.76-1.39 9.15 9.15 0 01-2.76 1.42zm-2.65 21.73a34.23 34.23 0 004.29 7.31 42.77 42.77 0 01-4.29-7.28z" fill="#ffb29b"/><path d="M605.38 371.51c-.49-4.07-2.45-13.08-6.91-10.43-8.22 4.88-11.48-1.94-14.34-3.39s-9.29 8.95 1.19 12c-1.48 2.62-8.7 4.67-14.8-.46-9.31-7.83 8.17-30.06 1.2-33.32-2.47-1.23-1.74-4.19 1.85-4 2.62-.24 2 .92 2.37-3.42-.63-.48-1-.46-1.94-1.07-2.26-1.25-2.2-3.94 2-4.17-.44-10-7.31-18.13-10.59-19-3-.82-22.18 17.78-50.13 17.78-13.39-.41 11.43-.78 29.37-13-.51-.61-37.65 13.45-64.86-5.23-3.49-2.4-4.12-6.55-7.3-4.62-6 3.64-8.68 66.66-10.4 56.8-3.7-11.1 1.28-4.89-7.31-3.46-4.88.76-3.13 22.52 3.12 28.75 4.38 6.14 8.48 26.66 25.42 35.12 25.91 14 52.3 1.41 53.53 3.72s-12.6 10.44-28.05 7.19c-5.24-1.13-5.14-2.57-5 1.52 2.67 17.29 37 17.54 34.82-4.19-2.22-9.61 7.56-5.37 20.46-15.2 5.31-4.15 5.71-7.31 7.45-6.23 15.09 9.19 27.92-7.73 30.45-6.92-.18.2-.15-.84.12-.79 1.21.12-.45-2 1.79-2.64 1.16-.46 7.65-11.47 6.49-21.34zm-106.79.75c1.57-3.42 6.78-4 6.9-2s-1.56.32-2.36.48c-2.93.59-7.32 7.53-4.54 1.52zm-31.38-36.07c0-5.66 9.71 4 20.76-6.54 1-.92 2-3 3.73-1 6 6.35-25.06 15.67-24.49 7.54zm9.25 45.41c-4.71 5.22-19.58-3.17-11.47-7.64 5.12-2.96 16.5 1.95 11.47 7.64zm.77-10.39c-7.55-1.47-9.56-4.51-9.91-15-2.06-6.83 8.86-18.46 18.85-11-.63-.21 2.68 2.18 2.88 2.33 9.35 9.46 7.22 27.39-11.82 23.67zm40.06 24c-1.29 2.74-3.59-4-17.81-2-5.63.75-6.61 3.35-7.58 2.41-4-3.82 17.07-7.61 24.37-2.11.56.42 1.42.77 1.02 1.66zm14-65.26c4.37-3 4.16 10.18 20.44 12 10.6 2.12 5.29 5.3 1.59 4.73-12.94-.81-26.56-13.68-22.06-16.77zm.24 47.2c-20.69-5.51-8.27-28.74 7.68-29 22.18-.41 22.21 36.94-7.71 28.96zm28.3 10.46c-.53 5.78-12.57 6.59-17.78 1.37-7.84-8.12 18.75-12.11 17.75-1.41zm22.8 5.5c-7.73 8.07-17.39.68-6.67-16.59 6.45-11.15 19.29 3.29 6.64 16.55z" fill="#ffb29b"/><path d="M152.43 499.62c40.59 14.51 73.18 9.25 106.27-5.21l8 115.09-37.19 2.89c-16.27-95.46-13.3-94.25-22.51-94.39-8.52-.17-9.54-2-20.29 94.45l-37-3z" fill="#7b3255"/><path d="M400.16 31.38c14-.37 14-.37 14 13.63 0 636.61 6.79 630.63-14.07 621.32-.28-49.9-.31-601.67.07-634.95z" fill="#f69dae"/><path d="M519.62 441.25c3.4.12 9.59 8 19 1.53 1.72 5.21 6.5 3.32 10.17 2 .66 4.8-4.67 15.36 8.05 16.64.57.06 1.07.91 1.58 1.43 2.93 3 5.86 6 8.78 9.06 4.85 57.21 6 55.41 2.75 57.32-31.75 11.7-63.57 13.45-95.5.75-6.41-3.38-2.65-8.94-2.33-13.28.29-4 6.29-63.12 6.36-63.18 6.89-5.58 4-11.23.2-16.91-3.25-4.82 11.1 2.62 6.7-9.7 10.05-1.17 11.82-2.31 12 2.51.5 13.01 10.42 18.16 22.24 11.83zm2.15 24.45a2.27 2.27 0 10-4.54-.13 2.27 2.27 0 104.54.13zm-2.27-16.65c-3.4.4-3 4.67-.12 4.75 3.29.09 3.62-4.3.12-4.75z" fill="#28ccb3"/><path d="M474.44 530c31.93 12.7 63.75 11 95.5-.75l7.42 96.44c.38 4.91.77 3.36-30.7 7.14-4.11.76-2.66.6-13.86-61.52-3.94-21.88-2.85-23.16-10.3-23.37-3.27-.09-6.46.65-7.07 4.71-12 79.27-9.76 78.12-13.77 79-32.49-2.12-32.48-.3-32-7.48 1.02-15.42 1.39-24.32 4.78-94.17z" fill="#f3713f"/><path d="M258.21 381.93a.43.43 0 01-.47-.13c-9.91-17.86-32.2-10.49-32.2-12.59 32.51.64 28.55 10.38 32.67 12.72zm-100.94-8.75c-35.89 7-35.53 41.83-55.72-6.69-2.09 7.95-1.26 14.79 2.44 21.38-11.58-.66-18.19-17.72-12-28 5-8.32-.62-13.48-3.76-18.22-1.06-1.07 4.85 5.42-3 18.66 11.28-26.54-18.48-24.93 10.79-41.45 15-15.18-17.56-13.95 10.36-50.75.9 3.19.74 1.63.6 10.16 0 1.54 3.45 4.23 7.29 2.94 8-2.7 6.87-10.54 13-8 2.37 1 2.73-3.15 4.66-1.47.62.53 2.21 2.38 4.08 4.26 3.29 21.18 4.11 20.38.61 19.6-22.51-4.94-28.26 23.3-14.65 39.26 16.71 19.61 29.88 9.54 31.5 11.65 9.36 12.09 25.82 9.61 27.16 16.13 1.93 9-9.35 7.73-23.36 10.54z" fill="#83140c"/><path d="M173.43 370.61c-.56.19-8.3.78-16.67 2.69a148.88 148.88 0 0116.67-2.69z" fill="#83140c"/><path d="M186.73 456.18c-1 4.91-10.37-.34-15.35 1.36 8.31 2.24 13.21 2.86 12.82 6.48s-3.59 2.07-19.5-.79c13 7.35 13.83 7.42 12.91 8.87-.84 1.3-4.58 2.46-9.33-.4-13.42-8.06-21.13 9.73-27.54-4.55s-31.13-29.58-34.37-46.34c-2.31-11.92 7.61-18.65 17-26.2l18.25 23.27c-8 5.08-8 5.08-3 13.35 19.21 32 5.53 4.58 42 11.79 1.3.25 3.31.19 3.13 2.27-.45 5-9.37 1.21-15.2 3.5 18.15 4.92 18.75 4.53 18.18 7.39zm64.85-33.91c-5.94-15.66 5.49-17.87 12.26-23.13 6.16 12.33 21.92 32.86 25.25 39.56 3.77 7.57 6.94 6.86 42 19.45 2.7 1 1.07 2.77-.76 2.7-18.41-.61-18.37-.68-18.44-.69-19-2-4.05 18.52-10.46 20.9-2 .73-1.94-2.61-4.17-4.39-21.81-17.41-40.59-54.02-45.68-54.4zM539 443.24c-1.13-.6.64-4.24.89-6.86.33-3.4-2-8.59 3.44-10.62a6.62 6.62 0 00-.22-.95c1.82-7.51 13.17-2.69 18.84 1.37-.18.61-2 .7-.58 1.82 3.52 13.38-3.38 18.86 6.41 22.16 15.86 10.22 17.72 9.23 15.34 8.64-3.28-4.59-8.65-6.65-12.6-10.43l5.29-4.24c21.29 26.36 24.87 26.77 19.41 36.17-9.4 16.19-36.63-18.68-38.38-18.86-10.52-1.05-8.87-8.29-7.87-15.23.31-2.21-5.38-5.31-9.97-2.97zm-63.66-29.62c-.07-.07 0 .05 0-.05s-.01-.12 0 .05z" fill="#ffb29b"/><path d="M479.56 434.74c.33-4.29 4.09-4.1 6.76-5.16-1.68-4.62-2.77-3.65-8.75-2.88 4.84-2.88 6-1.44 5.18-3.75-1.51-4.18-6.46-1.14-9.39.18 2.42-4.69 13.7-2.44 4.88-7.31-3.41-.5-5.75 2.27-8.79 2.89.29-3.58 5.35-1.79 5.87-5.11-6.09-5.1-22.09 5.24-11 23.12 5.45 8.85-7 17.78-15.72 40.18-4.3 11 11.54 24.78 21.6 5.39 3.93-8.68 7.84-28.36 8.31-28.75 11.26-9.14-4.46-18.3 1.05-18.8zm-10.87-15.52c-.19-.37-.17-.25.62-.43-.21.15-.42.28-.62.43zm8.46 7.83c0-.14 0-.19.2-.25z" fill="#ffb29b"/><path d="M186.77 644.9c-1.43 14.51 2.32 13.3-4.2 14.09-53.54 6.52-101.78 13.83-55-9.72 8.81-.42 10.33 5.78 11.83 3.39 1.69-2.67-8.48-4-6.67-6.14 11.21.51 10.06 6.23 11.49 3.46 1.2-2.32-3.83-4.19-6.36-4.85.22-.32.46-.63.68-.94 9.15-.72 8.67 6.3 10.66 3.31 1.23-1.86-3.53-4.09-5.61-5.1a11.24 11.24 0 017.63-8.06c15.3 12 15 10.51 34.29 6.13 1.18.63 1.49 1.9 1.26 4.43zm43.68 13.41c-.28-23.4-5.41-18.64 21.86-17.45.92 0 2.32.71 2.77-.83 2.22-7.55 8.56-4.54 13.26-4.81 4.44-.26 3.88 4.35 5 7.15-3.94 2.53-7 4-5.71 5.49.95 1.11 1.66-.14 2.28-.76a9.58 9.58 0 017.76-2.93c3.15 2.11.45-.69-4.52 4.14-1.35 1.31-.67 3.46 1.39 1.51 3.41-3.25 9-4.07 10.42-2.42-5.82 2.85-8.38 3.7-7.41 5.25 1.51 2.42 2.89-3.77 11.8-3.38 7.47 3.71 15 7.26 20.25 14.18-22.68 3.26-47.78-.34-79.15-5.14z" fill="#ee3530"/><path d="M461.29 649.75c1.95.22 4.15 3.74 4.73 2.07 1.05-3-6.25-3.52-5.24-5.07 3.86-.55 6.84 1.64 10.48 4.48-1.09-4.15-3.74-4.81-5.8-6.11 2.49-6.54 9.61-9.92 14.46-5 7 7.07 14 2.31 20.94 2.82 4.78.35 3.61-.18 3.43 16.73-17 2.28-54.24 8.54-71.16 4.47 4.84-6.11 19.28-17.44 26.69-9.82.51.53.77 1.32 1.62.58 3.66-3.13-15.52-6.9-.15-5.15zm82.56 9.94c-.2-16.35-1.19-17.16 2.72-16.71 16.55 1.93 18.38.95 20.75-2.49 3.6-5.23 13.22-1.69 15.08 4.77-2.22 1.33-6.26 3.23-4.94 4.77.89 1.05 1.63-.43 2.25-1a10.69 10.69 0 017.06-2.37c-.36 2-6.53 3.68-5.07 5.49 1.25 1.56 1.23-1.87 9.42-3.35 3.1 1.84-6.75 3.22-4.79 5.8.78 1 1.52-.09 2.1-.56a13 13 0 017.76-2.71c46.99 21.29-4.34 13.86-52.34 8.36z" fill="#ef453d"/><path d="M599.75 409c-1.15 6.73-8 10.23-15.19 7.77-1.51-.51-2-.47-3.17 1.06-3.51 4.42-15.51 10.25-22.84 6.26-3.86-2.57-12.62-5.25-14.87-.75-.95 1.63.44 1.83-5 1.26-2.41-10.46 11.31-5.49 23.15-17.59 2.76-2.76 3.35-4.68 4.76-3.84 15.09 9.19 27.92-7.73 30.45-6.92-3.79 5.85-4.88 6.9-3.72 8.76 2.82 4.51 7.58-2.76 6.43 3.99z" fill="#83140c"/><path d="M147.34 276c-3 3.31-10.61.72-12.35-1.13-2.08-2.19-3-3.44-3.72-3.58-.88-.18-2.41 2.6-3.56 2.07-5.84-2.59-5.58 3-10.65 6.43-2.13 1.48-5 2.38-7.47 1.15-3.62-1.81-2.68-4.73-2.49-8.36.41-7.56-7.4-14 5.83-14.71 6.1 2.12 7.56 4.79 8.74 6s2.9-2.06 4-1.5c7.19 3.7 8.6-13.23 20.69-7.26.64 20.17 3.54 18.04.98 20.89z" fill="#f3713f"/><path d="M229.53 612.39c39.93-3.1 40.73-4.49 40.33.06-.33 3.76 3.81 11.69-4.61 11.54-42.07 3.17-38.05 6.72-38.34-10.47-.03-1.52 1.71-.78 2.62-1.13zm-40.11 2.79c-1.22 7.32 1.26 12.15-5.76 11.06-42.37-3-39 .27-37-15.84.21-1.64 2.05-.65 3.1-1 41.55 3.38 40.24 2.22 39.66 5.78z" fill="#aa5f8a"/><path d="M230.45 658.31c35.32 5.4 58 8.18 79.18 5.14 4.71 11.94-63.07 1.77-75.75-.2-3.37-.52-4.21-1.95-3.43-4.94zm-123.15 5.14c15.82 4.38 64-2.45 79.19-5.14.78 3-.09 4.42-3.46 4.93-6.03.92-80.88 12.47-75.73.21zm436.55-3.76c6.36.73 61.74 9.53 70.73 4.18 6.54 10.91-54.48 2.22-67.06.23-2.69-.43-4.73-1.04-3.67-4.41zm-110.72 4.46c16.92 4.07 54.14-2.19 71.16-4.47.5 2.26.25 3.81-2.62 4.25-11.98 1.81-74.46 10.8-68.54.22z" fill="#bc2121"/><path d="M301.78 468.93c-.22-11 5.65-8.78 16.66-8.68 2.4 3.78 7.14 4.61 10.28 8.1-9.72 3.3-25.88-7.26-6.37 5.07-8.35 2.92-13.97-3.03-20.57-4.49z" fill="#de956e"/><path d="M567.77 450.16c-9.79-3.3-2.89-8.79-6.41-22.16 3-1.24 3.21 1.16 14.11 9.64 4.87 3.79 1.83 6.36-7.7 12.52z" fill="#28ccb3"/><path d="M185.46 640.47c-19.21 4.36-19 5.84-34.29-6.13-.07 0-.44-6.94.55-10.39l31.94 2.29c-.92 1.6 1.11 12.94 1.8 14.23zm48.38-14.11l31.41-2.36c2.41 6.65-.72 7.76-6.69 7.54-15.81-.54-26.97 5.91-24.72-5.18z" fill="#ffb29b"/><path d="M473.69 409.21c-14.4 5.68-19.52-13.13-14-10.83 6.29 2.64 2.72-5.74 4.75-2.4 2.77 4.6 5.44 9.31 9.25 13.23z" fill="#83140c"/><path d="M470.9 480.68c7-17.89 8.9-43.41 5.61-6.68-2.92 1.35-2.91 5.15-5.61 6.68z" fill="#de956e"/><path d="M463.6 394c-5.25-5.78-9-12.33-10-20.19 3.03 7.25 9.4 11.88 10 20.19z" fill="#83140c"/><path d="M131.94 647.4c5.89 2.89 8.4 3.71 7.41 5.26-1.51 2.39-3-3.81-11.83-3.39.8-2.2 3.4-.17 4.42-1.87zm157.44 1.87c-8.81-.38-10.3 5.77-11.8 3.38-1-1.54 1.55-2.38 7.41-5.25 1.1 1.47 3.42.09 4.39 1.87zm-5.13-2.75c-9.79-.09-10.2 6-11.73 3.58-.81-1.28 3.48-4.66 6.61-5zm-146.44-1.39c2.51.67 7.55 2.54 6.36 4.85-1 1.88-2.8-1.45-4.44-2.13-5.85-2.41-11.44-.13-1.92-2.72zm139.89-.96a9.58 9.58 0 00-7.76 2.93c-.62.62-1.33 1.87-2.28.76-1.27-1.51 1.88-3 5.71-5.49 1.03 1.63 3.56-.37 4.33 1.8z" fill="#daade4"/><path d="M503.65 423.13v1.52c-3.22.61-23.53-6.27-28.33-11.08-.18-.23-1.49-3.75-.29-3.14 5.08 2.31 5.84 8 28.62 12.7z" fill="#83140c"/><path d="M475.34 413.51v.06a.14.14 0 000-.06zm9.22 3.72c-12.83-9.16-12.51-8.94-1.13-.83.2.21.01-.02 1.13.83zm.24.16h-.06a.47.47 0 01.06 0z" fill="#83140c"/><path d="M143.54 642.4c2.2 1.07 6.82 3.27 5.61 5.1-2.1 3.17-1.31-4.07-10.66-3.31 1.09-2.28 4.13.95 5.05-1.79zm311.7 7.12c5 2.81 8 3.82 6.2 5.39-.85.74-1.11 0-1.62-.58-5.06-5.21-11.99-.66-4.58-4.81zm133.19 4.54c-.58.47-1.32 1.59-2.1.56-1.1-1.45.74-2.06 6.19-5 7.69 3.59 1.71-.24-4.09 4.44zm2.69-5.24c-8.7 1.57-8 5.1-9.42 3.35s4.71-3.45 5.07-5.49c1 1.61 3.03 1.15 4.35 2.14zm-130.72-1.45c3.34 1.49 6.33 2.41 5.62 4.45-.58 1.67-2.78-1.85-4.73-2.07-7.36-.82-5.29-.81-.89-2.38zm10.86 3.86c-3.64-2.84-6.62-5-10.48-4.48 2.05-3.13 8.91-1.5 10.48 4.48zm115.46-4.57c-8.06.17-7.65 5.26-9.26 3.37-1.33-1.55 2.7-3.44 4.94-4.77z" fill="#daade4"/><path d="M599.94 392.59c-1.37 5.15-4.09 1.43-1.15.24a3.58 3.58 0 011.15-.24z" fill="#83140c"/><path d="M470.16 482.29l.76-1.67z" fill="#de956e"/><path d="M597.76 395.47c-1.37 1.39-.86-.1-.6-.06zm-292.51-76.08c-.14 1.23.1 1.38-.64.39-2.69-4.72-4.33-6.94-3.55-14.36 1.35-12.8-16.77-5.29-11.74-22.46 5.58-19.11 1.47-21.07-16.47-30.18-1.74 7.06 21 5.78 13 32-5.87 19.13 16.23 9.56 10.74 24.56-3 8.14-7.75 21.75-.58 26.65 14.84 10.13 1.13 24.42-13.25 35.35-3.21 2.44-.84-2.84-7.88-16.53-1.37 21.52.32 20.64-16.65 27.16-1.7-1.13-3.88-11.68-23.95-12.52-17-.78-16.07.44-16.27-3.79 13.63-3.14 25.6-9.61 36.46-18.25 4.69-3.73 21.56-31 22.9-36.94 2-9.14 1.34-17.72-5.8-25.41-6.07 20.84-.25 2-4.76-29.15-.33-2.27-.56-3.44-2.12-3.71-11.2-2.24-10.71-8.84-15.26-16.84 0 11.88.58 12.09-.89 11.78-3.21-.67-7.92 1.63-9.56-3.31-1.52-4.56-2.65-9.25-6.08-14.53 3.15 18.07 5 16.72-3.6 16.61-29.22-.41-37.31 8.43-42.85-5-2-5-1.39 5.57-1.83 7.72-.18 2.82-4 3-19.46 7.53-17.08 5.14-14.24 7.34-15.76-9.11 0 0-3 7.95-3 8.12-4.88-2.41-9-.76-12.45 2.71-2.34 2.34-3.09 7.2-8.24 4.55-.63-.33-2.41 1.41-2.65 1.58-2 1.41-1.15-2.95-10.07-6.05 4.89-10.35 3.54-34.47 30.18-46.78C194 187.6 260.88 191.91 271.6 246.19c2 10.22 21.78 5.72 21.49 25.83-.19 12.31-9.76 17.22 4 23.78 10.14 4.83 1.43 10.32 8.16 23.59z" fill="#83140c"/><path d="M587.93 328.22c-2.39 3-15.37.81-15.37-2.82 0-4.93 17.99-.4 15.37 2.82zm-2.04 7.96c-1.12 5.45-25.14-3-12.32-4.25 3.43-.31 12.9 1.22 12.32 4.25z" fill="#ef453d"/><path d="M545.08 307.92c1.7-.35 1.76-.65.52.57z" fill="#ffb29b"/><path d="M545.6 308.49c-1.12.57-.8.64-1.48-.16 1.15-.5.88-.55 1.48.16zm-279.79-55.84c.39.44.7 1.32 1 3.22-.11-1.22-.1-2.5-1-3.22zm-30.36 29.22c6.11-7.4 14.82-6.37 20.25-1.59-5.47-4.87-14.25-5.95-20.25 1.59zm17-26.28a29.58 29.58 0 00-12-.55 44.1 44.1 0 0111.96.55zM235.48 244c-.06 1.25-.55 1.78-1.67 1.95 1.19-.01 1.71-.38 1.67-1.95zM234 261.46c1.45.24 3.84-.67 6.92-1.34-3.06.66-5.46 1.57-6.92 1.34zM230.81 341a19.43 19.43 0 006.21-8.18 23.05 23.05 0 01-6.21 8.18zm-27.9-93.18c6.16-.77 14.55-2.15 26.37-2-4.87-.28-13.11-.71-26.37 2.03zm15.21 120.49a39.52 39.52 0 007 .81c-2.21-1.12-4.69-.26-7-.78zm2.52-54.21a2.52 2.52 0 01-.64-.1 2.36 2.36 0 00.64.13zm3.19 31.23a28.77 28.77 0 01-11.36 2.45 25.13 25.13 0 0011.36-2.42zm-36.55 43.38c11.54 4.69 27.05 2.83 34.19-7-7.25 9.48-22.7 11.69-34.19 7.03zM193.56 248c-3.77-1-5.18-3.64-6.47-5.73 1.69 3.52 3.7 5.16 6.47 5.73zm-9 .51c.33-1.58 0-4.08.5-8.62-.82 8.64-.19 7.22-.46 8.66zm-.31 15.76c.31-2.28-1.34-2.83-3.92-3.12 2.67.54 4.17 1.59 3.96 3.16zm-2.46 2.23c1.43 0 2.22-.48 2.46-2.23a2.33 2.33 0 01-2.42 2.27zm-1.59-14.75c-18.21 4.61-20.8 6.58.31-.08zm-3.61 14.33c1.58.08 4.46.42 3.41.29s-2.22-.22-3.37-.25zm-2 17.37a20.71 20.71 0 017.55 1 19.16 19.16 0 00-7.48-.96zm-1.23 87.12c-1 4.3 2.63 13 12.61 17.6-15.85-7.27-10.97-17.83-12.54-17.56zm5.24-1.94c-1.52.91-3.49 1.24-4.89 1.79a14.44 14.44 0 004.96-1.75zm-21.25-45.83c2.43-2.65 7.5-3.78 11.8-3.21-4.24-.54-9.32.58-11.73 3.25zm7.07-54.78c.37-.13.72-.27 1.09-.39zm-1.78.72c.61-.27 1.2-.5 1.78-.72-.53.26-1.13.5-1.71.76zm0 0l-1.09.48c.45-.13.79-.28 1.16-.44zm-3 34.48a15.39 15.39 0 01-.47-8.94 12.3 12.3 0 00.57 8.98zM156 325.83c-.21 2.32 1.62 3.94 4.28 4.86-2.63-.93-4.46-2.57-4.28-4.86zm1-53.66c.22-.18.44-.37.67-.54-.19.18-.42.37-.67.54zm0 0a19.52 19.52 0 00-1.65 1.48c.52-.45 1.06-.95 1.65-1.48zm-2.9-12.62c-3.75.81-3.81-.73-4.19-6.33-.29-4.18-.29-6.22-.57-6.25 1.13 11.76.28 13.81 4.8 12.58zM151 275a2 2 0 002.52.23A2.3 2.3 0 01151 275zm18.74-13.56l-1.33.25zm-18.91 9.4c3.87-4.89 11.4-7.88 17.58-9.15-8.51 1.74-15.26 5.79-17.57 9.16zm-4.32-16.26l2.86-7.62c-.3-.03-.97 2.58-2.85 7.63zm-16 71.36c2.4 5.25 7.31 7.73 10.75 7.63-4.73-.12-8.69-3.41-10.69-7.57zm3.69-15.56c2.11-1.39-1.92.42-3.75 4a11.4 11.4 0 013.81-3.99z" fill="#ffb29b"/><path d="M271.55 285c-2.05 7.05-2.38 8.65-2.63 8.73s-2.13-37.68-2.13-37.88c-1.06-7.23-11.12-1.23-14.78-15.87-.33-1.29-1.31-2.42-2.6-4.68 0 11.88.58 12.09-.89 11.78-3.21-.67-7.92 1.63-9.56-3.31-1.52-4.56-2.65-9.25-6.08-14.53 4.27 24.51 8.54 13.76-30 18.59-7.08 1.42-12.68.92-15.82-5.54-3.7-5.94-1.44 1.17-2.49 6.24-.18 2.81-3.14 2.77-19.46 7.53-17.13 5.47-14.29 6.82-15.76-9.11-8.29 22.17 8.91 34.67-13.3 29 3.29 21.18 4.11 20.38.61 19.6-22.51-4.94-28.26 23.3-14.65 39.26 16.71 19.61 29.88 9.54 31.5 11.65 9.59 12.39 26.61 9.27 27.33 17.14.69 5.91-6.09 6.33-7.44 7 .9-.15-2 11.85 13.85 18.13 10.64 4.32 23.76 3.46 34.23-7 3.85-5.32 4.15-12.3 3.64-12.58a39.52 39.52 0 01-7-.81c-18.82 9.82-37.43-5-36.32-7.17.8-1.59 17.37 4.16 36.19 4.45 13.63-3.14 25.6-9.61 36.46-18.25 4.69-3.73 21.56-31 22.9-36.94 2.05-9.14 1.34-17.72-5.8-25.43zm-141 29.35c2.11-4.1 7.15-7.07 9.24-2.89 18.45 38.54-18.71 18.65-9.28 2.91zm77.58-1.21c1.36-5.35 8.76-5.94 11.73-2.77 2.38 2.5 1.65 4.53.07 3.48-5.84-4.47-6.38-4.93-10.56.15-1.46 1.78-2.3 3.3-1.28-.84zm-52.78-39.44c-6.82 6.83-11.29-7.73 14.81-12.33 17.06-2.94 15.69 5.09 11.71 5.15-1.09.02-16.5-2.87-26.56 7.2zm21.11 52.6c-1.23 7.48-21.07 6.75-20.39-.49.84-8.31 21.71-8.71 20.35.51zm12.39-37.86c9.12 5.11 9.55 23 6.43 24.12-48.48 17.7-46.49-44.25-6.47-24.1zm13 56.3c-13.43-2.63-19-23.78-6.52-20.71 1.82-2 35.26-4.21 38.7-2.78 15.82 6.52-13.69 37.41-32.2 23.51zm30.88-35.95c-3.24-1.45-5.55-16.93 2.74-26.94 6-7.54 14.78-6.46 20.25-1.59 13.74 11.98-3.6 37.26-23.01 28.55zm27.93 10c-1.33 5-11.31 5.34-13.75 2.89-8.55-8.4 17.14-14.6 13.73-2.85zm-3.56-56.27c-11.25-6.8-20.38 0-23.38-1.18-2.11-.63-3.45-6.72 11.4-6.72 20.37-.03 18.59 11.95 11.96 7.94z" fill="#ffb29b"/><path d="M198.13 410.71c6.46-1 8.43 8.93 11.3 4.86 11-15.59 36.29 2.29 1.69 29.29-3.94 3.08-18.84-13-21.67-17.68-4.73-7.8-.23-16.39 8.68-16.47z" fill="#daade4"/><path d="M264.08 390.26c-12-13.56-6.1-20.43-38.54-21.05 0 19.72-23.74 26.45-39.5 19-22.14-10.16-.45-21.2-24.24-15.93-12.15 2-24.21 6.72-33.1 15.24-5.72 5.47-5.46.91-5.26 7 31.83 40.59 26.45 23 26 52 .69 1.32 1.3 1.1 2.24.31 6.57-5.52 35.69-7 31.67-.34-1.32 2.19-17.61 1.37-14.59 2.23 12.48 3.57 21.37 4.34 17.36 8.7-.94 1-3.22.74-6.69.59-5.06-1.77-8.54-.72-7.82-.54 5.09 1.25 14.78 2.75 12.38 7.31-1.88 3.56-22.21-3.21-18.87-1.46 12.41 7 13.41 7.2 12.57 8.6-5 5-10.29-3.85-19.77-2.15-12.66 2.27-6.93 5.89-8.43 23.72-.24 2.84.55 4.82 3.09 6.09 31.91 11.43 66.73 11.91 98.89-1.8 13.34-5.63 9.91 0 .27-75.46-.34-2.72-6.73-14.52 8.81-20.61a14.74 14.74 0 003.29-2.48c2.48-2.46 5.29-3.3.24-8.97zm-36.88 36.87c-5.2 9.32-15.82 18.36-17.24 18.36-2 .23-15.39-10.21-20.34-18.36s.33-16.71 9-16.48c7.42.21 8.11 9 11 4.87 10.02-14.26 24.49-.79 17.58 11.61z" fill="#ba6bd0"/><path d="M582.6 393.07c-7.35 7.68-17.48 1.53-6.67-16.59 6.75-11.15 19.14 3.52 6.67 16.59z" fill="#de956e"/><path d="M559.8 387.57c-.48 5.21-12.25 6.9-17.78 1.37-7.55-8.48 18.74-11.63 17.78-1.37z" fill="#f69dae"/><path d="M557.91 344.72c0 4-14.75 1.87-23.88-7.26-7.45-7.57-1.52-9.39.31-6.86 11.89 16.16 23.47 9.02 23.57 14.12z" fill="#83140c"/><path d="M504 425.89c-1.69-6.93.55 1.63 30.86-5.95 8.35-1.46-9.72 13.39-30.86 5.95z" fill="#de956e"/><path d="M467.21 336.19c0-3.46 3.55-1.6 5.29-1.33 13.33 1.81 16.18-9.61 19.2-6.26 5.67 6.45-25.06 15.6-24.49 7.59z" fill="#83140c"/><path d="M477.35 378.85c-.1 8.77-19.78 2.6-13.31-4.16 2.58-2.69 13.38-2.59 13.31 4.16z" fill="#f69dae"/><path d="M553.15 370c.93-26.25-30.48-18.71-16.89-21.56 13.25-2.74 23.13 11.01 16.89 21.56zm-35.86 25.17c-1.23 2.62-3.84-4-17.81-2-5.33.71-6.51 3.11-7.47 2.5-4.63-3.7 16.77-7.84 24.26-2.2.56.46 1.42.81 1.02 1.7zm-31.12-49.91c-6.42-2.13-14.18.54-18.85 11-2.03-6.77 8.78-18.55 18.85-11z" fill="#7b3255"/><path d="M505.49 370.3c.13 2.13-1.56.32-2.36.48-2.13.4-3.26 2.12-5.1 4-.03-5.7 7.32-6.87 7.46-4.48z" fill="#de956e"/><path fill="#ffb29b" d="M486.89 345.95v.02l-.02-.01.02-.01zm-.72-.69h-.05z"/><path fill="#ffb29b" d="M486.89 345.95v.02l-.02-.01.02-.01z"/><path d="M218.12 368.34c-18.82 9.82-37.43-5-36.32-7.17.8-1.59 17.37 4.16 36.19 4.45zM539 443.24c3.64-1.86 6.78-.55 9.79 1.56-3.56 1.25-7.23 3.27-9.79-1.56zm-59.44-8.5c.27-3.51 2.84-4.19 6.65-5.14 1.31 2.18-1.46 5.7-6.65 5.14z" fill="#de956e"/><path d="M486.7 430.41l-.49-.81z" fill="#ffb29b"/><path d="M567.77 450.16l2.74-1.79c.21.2 30.49 23.2-2.74 1.79z" fill="#de956e"/><path d="M583.11 458.8l.91.22c-.61.8-.76-.4-.91-.22z" fill="#de956e"/><path d="M540.81 424.79l-.64-.07a.5.5 0 01.64.07z" fill="#ffb29b"/><path d="M227.37 343c-6.74-6.28-20.52-5.33-25.54 1.75-13.37-2.62-19.05-23.78-6.52-20.71 7.12 8.28 30.24 6 36.35-3.57 12.87 3.58 4.5 18.68-4.29 22.53z" fill="#83140c"/><path d="M130.49 314.43c1.12-3.36 6.9-7.07 9.13-3.2 19.91 36.51-18.46 21.43-9.13 3.2z" fill="#de956e"/><path d="M176.48 325.54c0 9.69-27.64 6.71-19.06-2.7 4.78-5.25 19.06-4.4 19.06 2.7z" fill="#f69dae"/><path d="M184.29 264.31c-.77 5.71-15.62-3.6-29 9.41-7 6.84-10.82-7.81 14.81-12.33 4.23-.73 14.78-1.39 14.19 2.92z" fill="#83140c"/><path d="M227.37 343c-6.08 5.38-18.29 6.46-25 2.13-3.16-1.94 14.56-11.85 25-2.13z" fill="#ef453d"/><path d="M257.08 262.56c-11.18-6.76-20-.15-23.38-1.18-2.84-.85-1.91-6.72 11.4-6.72 19.54-.07 18.9 12.09 11.98 7.9z" fill="#83140c"/><path d="M260.89 317.14c-.24 7-11.06 6.88-13.62 4.9-9.27-7.23 13.98-15.1 13.62-4.9z" fill="#f69dae"/><path d="M187.32 287.73c-16.54-6.25-26-1-27 16.62-8.59-14.96 16.39-28.35 27-16.62zm73.09 5.92c-2.15 10.42 2.79-9.54-10.28-14.58-5.59-2.16-10 .79-14.68 2.8 10-12.56 27.74-1.2 24.96 11.78z" fill="#83140c"/><path d="M221.13 314.23c-6.29-1.8-5.22-8.59-13.35 1.74 0-10.51 14.02-9.09 13.35-1.74z" fill="#de956e"/><path d="M541 358.72c-9.23-.48-2 9.77 1 2.72 1.48 5.14-.68 9.56-5.26 11.4-9.75 3.91-19.47-9.43-8.73-17.18 3.72-2.73 9.5-1.22 12.99 3.06zm-56-6.37c-4.6.24-4.75 3.41-2.73 4.74 1.8 1.19 2.36-1 3.85-1.41.2 5-1.2 9.07-6.28 10.51-8.69 2.46-13.58-11-5.14-16.41 3.67-2.38 7.08-1.23 10.3 2.57zm-312.1-52.73c6.83 6.31 9-4.1 2.29-3.33a10 10 0 0113.46-2.19c10 6.47 3.06 22.09-8.59 18.92-5.42-1.48-8.14-6.32-7.16-13.4zm66.32-6.02c1 1 1.68 2.63 3.51 1.7 2.1-1.08 2.5-5.09-2.21-5.72 3.35-3.79 7-4.57 11.08-1.95 9.15 5.86 3.78 23.34-7.2 18.69-4.53-1.92-6.92-7.98-5.18-12.72z" fill="#83140c"/><path d="M231.28 639.8c9.88 3 15.93 5.84 24.64 2.92 13.74-4.62 14.59-3.16 10.14-15.07-37.69 3.8-31.17.26-34.78 12.15z" fill="#ffb29b"/><path d="M519.62 441.25c-19.52 11.57-24.4-13.63-22.68-14.21 11.89-5.69.39 11.39 22.68 14.21z" fill="#ffe9ed"/></svg>