<svg xmlns="http://www.w3.org/2000/svg" viewBox="0 0 1400 780"><path fill="#fffce6" d="M0 3.32h1400V780H0z"/><path d="M886.29 666.73l47 1.14-1.63-71h-45.48c.15 4.65.11.05.11 69.86z" fill="#fcc2a1"/><path fill="#d0e4fa" d="M886.3 639.02h46.34l.66 31.12h-47v-31.12z"/><path d="M942.86 589.55c-3-32.07 16.74-76.51-14.41 9.72 9.18.08 13.7-4.65 14.41-9.72z" fill="#e9bd79"/><path d="M926.12 321.73v18.56l42.76 43.08c25.49-52.36 21.62-38 19.75-65.44z" fill="#fcc3a3"/><path d="M938.57 315.65c4.72 11.86 19.84 17 47 14.4l-2.51-14.4z" fill="#f0a784"/><path d="M960.83 316h1.66c1.13 19.21 1.68 19.17-1.66 0z" fill="#f0a784"/><path d="M983 667.38l47 1.14-1.62-71h-45.5c.12 4.65.12.05.12 69.86z" fill="#fcc2a1"/><path fill="#d0e4fa" d="M982.97 639.67h46.33l.66 31.12h-46.99v-31.12z"/><path d="M983.68 692.39c31.78 7.2 61.58 9.21 89.73 6.91 1.89-4 2.63-7.67 0-10.54-9.27-8.06-22.25-14.85-36.82-21.09 0 0 1.27-11.64-1.27-11.64s-20.74-1.45-20.74-1.45l-4.24 10.54h-26.66a44.93 44.93 0 000 27.27z" fill="#c19070"/><path d="M1074.06 696.74c-1.77-2.73-28.65 5.86-81.95-6.42-2.12-.49-9.2-3.43-9.26-.19-.17 8.67 98.99 18.57 91.21 6.61z" fill="#ae8972"/><path d="M1036.37 679.66c-5.76-1.72 6.65-10.55 15.74-4.89-4.17 3.33-14.17 9.71-15.74 4.89z" fill="#f8ffbd"/><path d="M1037.43 667.38c-15 .3-18.21 11.91 4 3.37z" fill="#fffdbd"/><path d="M932.46 692.39c-31.78 7.2-61.58 9.21-89.73 6.91-1.89-4-2.63-7.67 0-10.54 9.27-8.06 22.25-14.85 36.83-21.09 0 0-1.27-11.64 1.26-11.64s20.75-1.45 20.75-1.45l4.23 10.54h26.66a44.93 44.93 0 010 27.27z" fill="#c19070"/><path d="M842.08 696.74c1.77-2.73 28.65 5.86 82-6.42 2.12-.49 9.2-3.43 9.26-.19.12 8.67-99.04 18.57-91.26 6.61z" fill="#ae8972"/><path d="M879.77 679.66c5.76-1.72-6.65-10.55-15.73-4.89 4.17 3.33 14.16 9.71 15.73 4.89z" fill="#f8ffbd"/><path d="M878.71 667.38c15 .3 18.21 11.91-4 3.37z" fill="#fffdbd"/><path d="M1049.49 477.73c-5.6-21.34-9.09-41.44-7.45-58.54 16.45-1.84 31.55-5.29 42.73-13.45-2.83-23.8-15.54-44.71-38.76-62.54-14.1-6.92-34.88-11.14-57.63-14.55 4.42 31.43-59.18 34.48-61.61 0-16.18 2.25-34 7.31-53.17 14.55-20.75 17.08-34.58 37.61-41.74 61.44 11.82 8.79 26.37 13.56 43.73 14.18a201.18 201.18 0 01-12.42 58.91z" fill="#f1836e"/><path d="M881.55 385.37l-6 34.91-17.43-3.28c11.88-9.43 19.28-20.08 23.43-31.63zm153.74-1.45l6 34.9 17.48-3.27c-11.93-9.43-19.33-20.09-23.48-31.63z" fill="#dc7670"/><path d="M1047 415.92s18.75 59.94 18.38 69.81-5 28.11-3.48 39.63c7.91 6.62 8.15-5 10.44-15.27a6.78 6.78 0 017-.37v17.54c0 2.63 3.54 4.46 6.93 3.6l3-.77c23.78-12.19 24.84-12 24.84-15.1 0-20.88 1-22.89-3.06-26.47-9.43-8.34-14.78-24.94-26.25-82.78z" fill="#fcc3a0"/><path d="M1091.1 510.55c0 22.09-1.36 19 3.92 16.77zm13.7 11.45c-5.37-20.9-3.91-20.19-3.91 1.48zm6.06-3.48c-2.71-17.54-2-16.77-2 1.24z" fill="#f9b58f"/><path d="M869.61 415.92s-18.76 59.94-18.38 69.81 5 28.11 3.47 39.63c-7.9 6.62-8.14-5-10.43-15.27a6.79 6.79 0 00-7-.37v17.54c0 2.63-3.54 4.46-6.92 3.6l-3-.77c-23.78-12.19-24.85-12-24.85-15.1 0-20.88-1-22.89 3.07-26.47 9.43-8.34 14.78-24.94 26.25-82.78z" fill="#fcc3a0"/><path d="M825.51 510.55c0 22.09 1.37 19-3.91 16.77zM811.82 522c5.37-20.9 3.91-20.19 3.91 1.48zm-6.06-3.48c2.71-17.54 2-16.77 2 1.24z" fill="#f9b58f"/><path d="M857.91 213.72c-37.3 5.59-23.22 66.92 13.09 56.72 25.46 35 70.16 66.9 108.53 48.54 25-6.36 42.59-24.61 57.69-46.9 13.89.27 26-2.8 31.76-18 9.8-15.65 4.22-28.52-7.09-40.36l-46.09-96.9-113.72 7.45L853 197.9z" fill="#fcc5a2"/><path d="M849.73 213.72c-9.06-50.17 4.4-92.63 54-122.71 39.14-10.52 74-11.31 103.63 0 1-4.36-1.61-9.19-5.46-14.19 12 4.58 21.27 10.84 25.64 20.18 48.86-1 16.81-2.09 9.69 6.55 27.84 22.74 41.27 66.28 25.76 110.17h-11.46c1.84-10.27-.5-19.94-7.63-28.91-19.06-12.09-32.34-26.93-37.09-45.81-12.91 14.25-26.2 25.15-40.36 28.36a91.47 91.47 0 01-48.54 1.09c14.93-3.09 29.65-9.77 44.18-19.63-49.94-.1-90.77 16.79-104.17 64.9z" fill="#c49372"/><path d="M949 164.63c42.42-16.54 42.35-17.39 52.36-40.36-22.23 21.16-20.97 19.73-52.36 40.36zm-36-21.85c53.53-3.58 53.4-4.65 72-26-31.84 15.4-30 14.22-72 26z" fill="#cd9b74"/><path d="M896.45 185.18l28 1.81c.55-13.86-20.56-15.42-28-1.81zm91.31 1.29l28-.81c-.69-13.86-21.87-13.43-28 .81z" fill="#c28f71"/><path d="M1051 231.17l-6 22.91c8.7-2.47 13.62-6.17 13.63-11.46 2.51-7.84-.63-11.16-7.63-11.45zM863.73 253.7l-4.14-23.32c-6.88 5.89-9.79 11.3-7.59 16.11 1 8.18 5.26 9.87 11.73 7.21z" fill="#f3a582"/><path d="M1007.81 254.23c-2.59-10.13 26.35-17.53 28.94-7.4s-26.35 17.53-28.94 7.4zm-102.71 3.55c2.59-10.13-26.35-17.53-28.94-7.4s26.35 17.53 28.94 7.4z" fill="#fa9ca0"/><path d="M931 276.44q23.73 22.9 47.45 0M961 250.53q-5.46-7.08-14.18 0m.9 40.27h13.99" fill="none" stroke="#f3a582" stroke-linecap="round" stroke-linejoin="round" stroke-width="5"/><path d="M993.17 206.36l23 13.09c1.76-10.88-5.89-19.72-23-13.09z" fill="#ab8e70"/><path d="M1016.15 226.26c0 23.92-36.15 23.92-36.15 0s36.15-23.91 36.15 0z" fill="#fff"/><path d="M1004.09 212.35a15.17 15.17 0 00-21.18 13.91c0 23.61 38.2 17.41 29.26-5.49-5.48 6.53-14.97-3.09-8.08-8.42zm-88.57-5.61l-23 13.09c-1.77-10.83 5.89-19.72 23-13.09z" fill="#ab8e70"/><path d="M892.54 226.64c0 23.92 36.14 23.92 36.14 0s-36.14-23.91-36.14 0z" fill="#fff"/><path d="M904.6 212.73a15.16 15.16 0 0121.17 13.91c0 23.62-38.2 17.41-29.26-5.49 5.49 6.53 14.97-3.09 8.09-8.42z" fill="#ab8e70"/><path d="M957.09 533.31c0 .1 0 0 .22.62a2.47 2.47 0 00-.22-.62z" fill="#f8cb80"/><path d="M1049.49 477.73c-1.93-3.06-182.82-8.47-186.32 0s1.91 121 10.3 121.11h55.39c29.11-68.65 17.57-40.6 26.72-69.12L985 598.85h51.61c8.99-.07 14.81-118.06 12.88-121.12z" fill="#f8cb80"/><path d="M1030.61 485.73q2.49 14 18.88 12.72zM885 483.91q-1.49 12.3-18.88 14.65zm72.09 49.4c6.92 17 14.67 38.88 12.27 56.58 1.22 5.34 7.58 9.23 15 9.18.9-.01 3.71 7.3-27.27-65.76z" fill="#e9bd79"/><path d="M957.37 531.84c.64-1.56.21-.52-.47 1.09.24.58.1.67.47-1.09zm-.28 1.47L957 533z" fill="#e9bd79"/><path d="M393.72 357.68v16.38l27.62 38c16.46-46.21 14-33.52 12.76-57.77z" fill="#fcc3a3"/><path d="M393.41 354.08c4.17 10.47 17.52 15 41.53 12.72l-2.21-12.72z" fill="#f0a784"/><path d="M432.73 354.08c2.08 0 1.44-.25 2.21 12.72z" fill="#f0a784"/><path d="M432.74 664.27l35.65 1-1.23-62.7h-34.5c.12 4.14.08.1.08 61.7z" fill="#fcc2a1"/><path fill="#d0e4fa" d="M432.76 639.82h35.13l.5 27.46h-35.63v-27.46z"/><path d="M359.44 663.7l35.65 1-1.23-62.7h-34.5c.12 4.13.08.1.08 61.7z" fill="#fcc2a1"/><path fill="#d0e4fa" d="M359.46 639.24h35.13l.5 27.47h-35.63v-27.47z"/><path d="M433.29 686.35c24.1 6.35 46.7 8.13 68 6.1 1.43-3.51 2-6.77 0-9.31-7-7.11-16.88-13.1-27.93-18.61 0 0 1-10.27-1-10.27-19.4 0-14.08-6.07-18.94 8h-20.13a45.92 45.92 0 000 24.09z" fill="#c19070"/><path d="M501.83 690.19c-1.27-2.27-22.26 5-62.15-5.67-1.6-.43-7-3-7-.16-.14 7.48 75.07 16.42 69.15 5.83z" fill="#ae8972"/><path d="M473.25 675.11c-4.4-1.52 5.05-9.3 11.93-4.31-3.32 3.09-10.75 8.54-11.93 4.31z" fill="#f8ffbd"/><path d="M474.05 664.27c-11.32.27-13.87 10.55 3 3z" fill="#fffdbd"/><path d="M394.46 686.35c-24.1 6.35-46.7 8.13-68 6.1-1.44-3.51-2-6.77 0-9.31 7-7.11 16.87-13.1 27.92-18.61 0 0-1-10.27 1-10.27 19.4 0 14.08-6.07 18.94 8h20.22a45.92 45.92 0 01-.08 24.09z" fill="#c19070"/><path d="M325.92 690.19c1.27-2.27 22.27 5 62.15-5.67 1.61-.43 7-3 7-.16.14 7.48-75.07 16.42-69.15 5.83z" fill="#ae8972"/><path d="M354.5 675.11c4.4-1.52-5.05-9.3-11.93-4.31 3.33 3.09 10.75 8.54 11.93 4.31z" fill="#f8ffbd"/><path d="M353.7 664.27c11.33.27 13.87 10.55-3 3z" fill="#fffdbd"/><path d="M473.41 495.38c-3.62-18.83-5.87-36.57-4.81-51.67 10.62-1.62 20.38-4.67 27.6-11.88a89.09 89.09 0 00-25-55.2c-9.12-6.11-22.54-9.83-37.24-12.84 2.88 27.86-38.23 30.28-39.79 0-10.46 2-22 6.45-34.35 12.84-13.4 15.08-22.34 33.2-27 54.24a41.1 41.1 0 0028.25 12.52 234.53 234.53 0 01-8 52z" fill="#f1836e"/><path d="M364.93 413.86l-3.85 30.81-11.29-2.89a64.57 64.57 0 0015.14-27.92zm99.31-1.28l3.85 30.81 11.29-2.89a64.63 64.63 0 01-15.14-27.92z" fill="#dc7670"/><path d="M471.81 440.82s12.11 52.92 11.87 61.62-3.21 24.82-2.24 35c5.15 5.89 5.29-4.62 6.74-13.48a3.39 3.39 0 014.49-.32c0 16.74-1.48 20.73 6.42 18 15.23-10.66 16.05-10.54 16.05-13.32 0-18.42.63-20.21-2-23.37-6.48-7.83-10.09-25.75-17-73.08z" fill="#fcc3a0"/><path d="M500.29 524.36c0 19.49-.88 16.75 2.53 14.8zm8.85 10.09c-3.48-18.47-2.53-17.8-2.53 1.31zm3.91-3.06c-1.73-15.37-1.26-14.91-1.26 1.09z" fill="#f9b58f"/><path d="M357.22 440.82s-12.12 52.92-11.88 61.62 3.21 24.82 2.25 35c-5.15 5.89-5.3-4.62-6.74-13.48a3.41 3.41 0 00-4.5-.32c0 16.74 1.48 20.73-6.42 18-15.23-10.66-16-10.54-16-13.32 0-18.42-.64-20.21 2-23.37 6.48-7.83 10.09-25.75 17-73.08z" fill="#fcc3a0"/><path d="M328.73 524.36c0 19.49.88 16.75-2.53 14.8zm-8.85 10.09c3.48-18.47 2.53-17.8 2.53 1.31zm-3.88-3.06c1.73-15.37 1.27-14.91 1.27 1.09z" fill="#f9b58f"/><path d="M327.7 263.81c-32.93 4.94-20.5 59.07 11.55 50.07C383.79 375.15 443.51 378 486 315.32c12.26.24 23-2.46 28-15.88 8.65-13.82 3.74-25.18-6.25-35.63l-40.68-85.53-100.39 6.57-43.33 65z" fill="#fcc5a2"/><path d="M320.48 263.81c-8-44.29 3.89-81.77 47.66-108.32 34.55-9.28 65.34-10 91.47 0 .9-3.84-1.41-8.11-4.81-12.52 10.58 4 18.77 9.57 22.62 17.81 43.15-.88 14.85-1.85 8.56 5.78 24.58 20.07 36.43 58.51 22.74 97.25h-10.11c1.62-9.07-.45-17.6-6.74-25.52-16.83-10.67-28.54-23.77-32.74-40.44-11.4 12.58-23.13 22.21-35.63 25a80.72 80.72 0 01-42.84 1c13.17-2.73 26.17-8.62 39-17.33-44.08-.08-80.13 14.82-91.95 57.29z" fill="#c49372"/><path d="M408.1 220.48c37.49-14.62 37.38-15.36 46.22-35.63-19.64 18.7-18.53 17.4-46.22 35.63zm-31.78-19.29c47.33-3.17 47.24-4.22 63.55-22.91-28.14 13.57-26.46 12.54-63.55 22.91z" fill="#cd9b74"/><path d="M361.72 238.62l24.71 1.6c.5-12.22-18.14-13.62-24.71-1.6zm80.6 1.14l24.76-.72c-.65-12.23-19.34-11.86-24.76.72z" fill="#c28f71"/><path d="M498.13 279.22l-5.3 20.22c7.69-2.18 12-5.44 12-10.11 2.26-6.93-.54-9.86-6.7-10.11zm-165.3 19.88l-3.65-20.58c-6.07 5.19-8.64 10-6.7 14.22.88 7.26 4.65 8.71 10.35 6.36z" fill="#f3a582"/><path d="M460 299.57c-2.28-8.94 23.26-15.47 25.55-6.53s-23.24 15.47-25.55 6.53zm-90.64 3.13c2.28-8.94-23.26-15.47-25.55-6.53s23.26 15.47 25.55 6.53z" fill="#fa9ca0"/><path d="M392.21 319.18q20.94 20.22 41.89 0m-15.41-22.87q-4.81-6.26-12.52 0m.8 35.54h12.36" fill="none" stroke="#f3a582" stroke-linecap="round" stroke-linejoin="round" stroke-width="5"/><path d="M447.09 257.31l20.29 11.56c1.62-9.6-5.18-17.41-20.29-11.56z" fill="#ab8e70"/><path d="M467.38 274.88c0 21.11-31.91 21.11-31.91 0s31.91-21.1 31.91 0z" fill="#fff"/><path d="M456.73 262.6A13.39 13.39 0 00438 274.88c0 20.85 33.72 15.37 25.83-4.85-4.83 5.77-13.17-2.72-7.1-7.43zm-78.18-4.95l-20.29 11.55c-1.57-9.59 5.19-17.4 20.29-11.55z" fill="#ab8e70"/><path d="M358.26 275.22c0 21.11 31.91 21.11 31.91 0s-31.91-21.11-31.91 0z" fill="#fff"/><path d="M368.91 262.94a13.39 13.39 0 0118.7 12.28c0 20.84-33.72 15.36-25.84-4.85 4.84 5.76 13.23-2.72 7.14-7.43z" fill="#ab8e70"/><path d="M413.72 544.45c0 .1 0 0 .15.54a3 3 0 00-.15-.54z" fill="#f8cb80"/><path d="M473.41 495.38H353.05a845.75 845.75 0 00-2.91 96.77 9.68 9.68 0 009.57 10l35.78.37c18.84-60.72 11.35-36 17.26-61.2l19 61.21 33.33-.37a10.57 10.57 0 0010.37-10.7c0-30.98-.1-63.05-2.04-96.08z" fill="#f8cb80"/><path d="M461.22 502.44q1.61 12.36 12.19 11.24zm-94.04-1.6q-1 10.86-12.2 12.93zm46.54 43.61c4.5 15 9.48 34.35 7.93 49.94a9.69 9.69 0 009.67 8.1c.61 0 1.84 4.59-17.6-58.04zm-7.31 49.46c-2.23-28.27 12.68-67.5-10.92 8.57 6.77.07 10.36-3.91 10.92-8.57z" fill="#e9bd79"/><path d="M413.9 543.15c.42-1.38.14-.46-.3 1 .17.53.1.47.3-1zm-.18 1.3l-.08-.26z" fill="#e9bd79"/><path d="M666.3 771.51h67c0 8 .4 6.62-1.17 6.62H666.3zm0-342.19c52.37.05 56.4-1.68 55 4.13-.89 3.64 0 2.46-55 2.52zm0-429.4c2.46.16 50.61 0 52.42.09 3.55.15 3.42 6.18.09 6.5h-51.49c-1.43 0-1.02 1.19-1.02-6.59zm0 601.08c54.25 0 53.05-.58 54.32 1.08 1.74 2.26.33 5.38-1.9 5.54H666.3zm0-429.4c52.68 0 51.78-.07 52.72.16 3.45.84 2.92 6.2-.39 6.46h-51.55c-1.08 0-.78 1.1-.78-6.62zm0 171.72h52.24c3.52 0 3.7 6.16.71 6.49-1 .11-51.64.08-53 .12zm0-257.56c54.63 0 53.21-.82 54.63 1.58 1.25 2.12-.4 5-2.08 5-3.65-.08-50.58.07-52.55-.11zm0 429.4c54.5 0 55.33-1.47 55.05 3.56a2.92 2.92 0 01-3.27 3c-43.83 0-50.27 0-51.78-.07zm0-257.52c54.73-.31 53.41-.84 54.68 1.53 1 1.89 0 4.93-2.43 4.93H666.3zm0 429.36c1.4-.12 52-.09 51.85-.09 4.47 0 3.8 6.15.79 6.52H666.3zm0 16.08c16.82.29 17.26-.6 18.41 1.19 1.57 2.46 0 5.38-2.07 5.41-3.27.05-14.17 0-16.34 0zm0 53.18c16.19 0 19-1 19 3.2.07 5.47-5.28 2.53-19 3.45zm0-378.95c4.68.1.11 0 16.11.05 4 0 3.71 6.5.23 6.52-4.64 0-15.53.05-16.34.08zm0-50.45c16.58.11 19.09-.95 19 3.38s-2.86 3.21-18 3.22c-1.3 0-1 1.35-1-6.6zm0 32.66c16.11.05 19.1-1.11 19 3.48-.06 5.31-7.34 2.14-19 3.16zm0 275.31c1.72.14 15.68.08 15.94.08 3.91 0 3.88 5.84 1 6.5-.4.09 0 .05-17 .07zm0-565.49c17.89 0 17.44-.52 18.62 1.56a3.32 3.32 0 01-3 5c-15.58 0-14.31 0-15.62.09zm0-35.59c15.44 0 19.27-1.22 19 3.69s-5.44 2-19 3zm0 239.92c10.15.77 20.73-2.35 18.91 4.34-.83 3.09-2.12 2.32-18.91 2.31zm0 17.8c17.15 0 16.86-.27 18.23 1 1.63 1.55.84 5.23-1.89 5.52-.51.05-15.42 0-15.32 0-1.38.08-1.02 1.42-1.02-6.52zm0-275.32c15.8 0 19.21-1.19 19 3.49-.21 5.09-6.23 2.21-19 3.16zm0 378.95c16 0 19-1 19 3.11.12 5.49-6.15 2.82-19 3.54zm0-257.72c17.58.06 17.32-.33 18.34 1.17 1.66 2.45.21 5.3-2 5.44h-16.32zm0 601.09c15.73 0 19.14-1.13 19 3.49-.13 5.5-6.87 1.78-19 3.16zm0-325.77c17.38 0 17.52-.53 18.65 1.75.87 1.73.6 4.84-3.27 4.86H666.3zm0-103.63c16.86.2 17.33-.83 18.7 1.85 3.49 6.84-8.45 4.27-18.7 4.79zm0 257.72c15.79 0 19.41-1.2 19 3.73-.31 3.86-3.67 2.86-18.08 2.86-1.29 0-.92 1.22-.92-6.59zm0 103.63c16.22.09 19.31-1.08 19 3.63-.24 3.93-3.09 3-19 3z"/><path d="M666.3 778.13c67-.06 67-1 67 1.79-67.04 0-67 .95-67-1.79z" fill="#fff"/><path d="M666.3 617.23c3.08-.1 15.88-.1 15.78-.1 4.24 0 3.95 5.8 1.33 6.43-.81.19 0 .13-17.11.13zm0-393.81c1-.12 5.23 0 16.18-.07 3.47 0 3.78 5.58.79 6.45-.44.13 0 .09-17 .07zm0 257.52c16.65 0 18.35-.77 19 2.4.37 1.9-.7 4.1-2.42 4.1-.1 0-16.17.05-16.55 0zm0 50.45c16.28 0 18.93-1 19.05 3.18.13 4.48-4.31 3.33-15.21 3.3-4.84-.01-3.84 1.27-3.84-6.48zm0-325.76c16.92-.24 18.33-.69 19 2.39 1.11 5.35-3.92 4.07-19 4.06zm0-154.09c17.8 0 17.54-.6 18.7 1.78.86 1.77-.08 4.44-1.74 4.69-.88.14-15.57.1-17 0zm0 68.25c16.23 0 19.16-1.14 19 3.36-.11 3.54-3.24 3.16-4.59 3.16-14.42 0-13.13 0-14.44-.07zm0 378.95c18 0 17.81-.72 18.85 2a3.32 3.32 0 01-2.28 4.41c-5.52.07-11 0-16.57 0zm0 222.13c15.29-.15 19.33-1.21 19 3.56-.24 3.7-2.4 2.93-19 2.89zm0-136.29c1.09-.13 13-.09 16.17-.08 3.57 0 3.77 5.94.71 6.46-.65.11 0 .07-16.88.07zm0-121.43c17.44 0 17.47-.57 18.67 1.69.88 1.66.18 4.81-2.42 4.82-16.18 0-15.64 0-16.25-.06zm0 189.67c17.45 0 18.39-.79 19 2.31 1 5.32-4 4.12-19 4.14zm0-497.64c16.88 0 18.23-.84 19 2.45 1.17 5.29-3.92 4-19 4zm0 394.01c17.77-.25 17.66-.44 18.59 1.39 1.26 2.47-.38 5-2.1 5H666.3zm0-361.36c15.71 0 18.85-1 19 3 .19 4.34-1.87 3.45-19 3.42zm0 53.38c16.82-.24 19.09-.85 19 3.07-.07 4.56-3.36 3.38-19 3.39zm0-139.21c16.44 0 18.9-1 19 3.2s-2.83 3.3-18.61 3.31c-.56 0-.39.41-.39-6.51zm0 343.55c4.91-.09 13.17-.07 15.87-.06 4.2 0 4 6 .63 6.52h-16.5z"/></svg>