<svg xmlns="http://www.w3.org/2000/svg" viewBox="0 0 700 700"><path fill="#fffce6" d="M0 0h700v700H0z"/><path d="M487.62 567.57l37 .89-1.27-55.84h-35.81c.12 3.68.08.06.08 54.95z" fill="#fcc2a1"/><path fill="#d0e4fa" d="M487.64 545.79h36.42l.52 24.46h-36.94v-24.46z"/><path d="M532.1 506.89c-2.32-25.21 13.16-60.16-11.33 7.64 7.23.06 10.77-3.66 11.33-7.64z" fill="#e9bd79"/><path d="M518.94 296.33v14.59l33.61 33.87c20.05-41.17 17-29.86 15.53-51.46z" fill="#fcc3a3"/><path d="M528.72 291.54c3.72 9.33 15.6 13.39 37 11.33l-2-11.33z" fill="#f0a784"/><path d="M546.23 291.8h1.3c.9 15.12 1.33 15.1-1.3 0z" fill="#f0a784"/><path d="M563.62 568.08l37 .9-1.27-55.84h-35.81c.12 3.67.08.05.08 54.94z" fill="#fcc2a1"/><path fill="#d0e4fa" d="M563.64 546.3h36.43l.51 24.46h-36.94V546.3z"/><path d="M564.19 587.75c25 5.65 48.42 7.24 70.55 5.43 1.49-3.13 2.07-6 0-8.29-7.28-6.34-17.49-11.67-29-16.58 0 0 1-9.15-1-9.15s-16.3-1.14-16.3-1.14l-3.33 8.29h-21a35.34 35.34 0 00.08 21.44z" fill="#c19070"/><path d="M635.26 591.16c-1.4-2.14-22.53 4.61-64.44-5-1.67-.39-7.23-2.7-7.28-.15-.13 6.77 77.83 14.55 71.72 5.15z" fill="#ae8972"/><path d="M605.62 577.73c-4.53-1.35 5.23-8.29 12.37-3.84-3.28 2.62-11.13 7.64-12.37 3.84z" fill="#f8ffbd"/><path d="M606.46 568.08c-11.77.24-14.32 9.37 3.11 2.65z" fill="#fffdbd"/><path d="M523.93 587.75c-25 5.65-48.42 7.24-70.55 5.43-1.49-3.13-2.07-6 0-8.29 7.29-6.34 17.49-11.67 28.95-16.58 0 0-1-9.15 1-9.15s16.3-1.14 16.3-1.14l3.33 8.29h21a35.34 35.34 0 01-.03 21.44z" fill="#c19070"/><path d="M452.86 591.16c1.4-2.14 22.53 4.61 64.44-5 1.67-.39 7.23-2.7 7.28-.15.13 6.77-77.83 14.55-71.72 5.15z" fill="#ae8972"/><path d="M482.5 577.73c4.53-1.35-5.23-8.29-12.37-3.84 3.28 2.62 11.13 7.64 12.37 3.84z" fill="#f8ffbd"/><path d="M481.66 568.08c11.77.24 14.32 9.37-3.11 2.65z" fill="#fffdbd"/><path d="M615.94 419c-4.41-16.77-7.15-32.57-5.86-46 12.93-1.45 24.8-4.16 33.59-10.58-2.22-18.71-12.22-35.14-30.47-49.17-11.09-5.44-27.42-8.75-45.31-11.43 3.48 24.71-46.53 27.11-48.44 0-12.72 1.76-26.76 5.74-41.8 11.43-16.32 13.43-27.19 29.57-32.82 48.31 9.29 6.91 20.73 10.66 34.38 11.15a158.28 158.28 0 01-9.76 46.29z" fill="#f1836e"/><path d="M483.9 346.36l-4.69 27.45-13.74-2.58c9.35-7.41 15.17-15.79 18.43-24.87zm120.87-1.14l4.69 27.44 13.74-2.57c-9.35-7.42-15.2-15.79-18.43-24.87z" fill="#dc7670"/><path d="M614 370.38s14.75 47.13 14.46 54.88-3.92 22.11-2.74 31.16c6.22 5.21 6.41-3.92 8.21-12a5.35 5.35 0 015.47-.28v13.79c0 2.06 2.78 3.51 5.44 2.82l2.37-.6c18.7-9.58 19.53-9.39 19.53-11.87 0-16.42.77-18-2.41-20.81-7.41-6.56-11.62-19.61-20.64-65.09z" fill="#fcc3a0"/><path d="M648.65 444.78c0 17.37-1.07 14.92 3.08 13.19zm10.77 8.99c-4.22-16.43-3.08-15.87-3.08 1.17zm4.76-2.77c-2.12-13.79-1.54-13.18-1.54 1z" fill="#f9b58f"/><path d="M474.51 370.38s-14.75 47.13-14.45 54.88 3.91 22.11 2.73 31.16c-6.21 5.21-6.4-3.92-8.2-12a5.35 5.35 0 00-5.47-.28v13.79c0 2.06-2.78 3.51-5.44 2.82l-2.37-.6c-18.7-9.58-19.54-9.39-19.54-11.87 0-16.42-.77-18 2.41-20.81 7.42-6.56 11.62-19.61 20.64-65.09z" fill="#fcc3a0"/><path d="M439.84 444.78c0 17.37 1.08 14.92-3.07 13.19zm-10.77 8.99c4.23-16.43 3.08-15.87 3.08 1.17zm-4.76-2.77c2.13-13.79 1.54-13.18 1.54 1z" fill="#f9b58f"/><path d="M465.31 211.4C436 215.8 447.05 264 475.6 256c20 27.54 55.17 52.6 85.33 38.16 19.64-5 33.49-19.35 45.36-36.87 10.92.21 20.45-2.2 25-14.15 7.7-12.31 3.32-22.43-5.58-31.74l-36.23-76.18-89.48 5.86L461.45 199z" fill="#fcc5a2"/><path d="M458.88 211.4c-7.13-39.44 3.46-72.82 42.45-96.47 30.77-8.27 58.2-8.89 81.47 0 .8-3.43-1.26-7.23-4.29-11.15 9.43 3.59 16.72 8.52 20.16 15.86 38.41-.79 13.21-1.64 7.62 5.15 21.89 17.88 32.44 52.11 20.25 86.61h-9c1.44-8.07-.4-15.67-6-22.72-15-9.51-25.42-21.17-29.16-36-10.15 11.2-20.6 19.77-31.73 22.3a71.93 71.93 0 01-38.16.85c11.74-2.43 23.31-7.68 34.73-15.43-39.26-.08-71.37 13.2-81.9 51z" fill="#c49372"/><path d="M536.92 172.81c33.35-13 33.29-13.68 41.16-31.73-17.46 16.63-16.48 15.48-41.16 31.73zm-28.3-17.18c42.08-2.81 42-3.66 56.6-20.41-25.02 12.08-23.55 11.17-56.6 20.41z" fill="#cd9b74"/><path d="M495.61 189l22 1.43c.45-10.94-16.15-12.16-22-1.43zm71.79 1l22.05-.63c-.58-10.92-17.22-10.59-22.05.63z" fill="#c28f71"/><path d="M617.1 225.13l-4.71 18c6.84-1.94 10.7-4.85 10.72-9 1.98-6.13-.51-8.78-6.01-9zm-147.22 17.71l-3.25-18.33c-5.4 4.62-7.69 8.88-6 12.66.81 6.43 4.17 7.76 9.25 5.67z" fill="#f3a582"/><path d="M583.17 243.26c-2-8 20.72-13.78 22.75-5.82s-20.72 13.78-22.75 5.82zM502.42 246c2-8-20.72-13.78-22.76-5.81S500.38 254 502.42 246z" fill="#fa9ca0"/><path d="M522.77 260.72q18.65 18 37.3 0m-13.72-20.37q-4.29-5.58-11.15 0m.72 31.66h11" fill="none" stroke="#f3a582" stroke-linecap="round" stroke-linejoin="round" stroke-width="3.93"/><path d="M571.65 205.62l18.07 10.29c1.41-8.55-4.61-15.5-18.07-10.29z" fill="#ab8e70"/><path d="M589.72 221.27c0 18.8-28.42 18.8-28.42 0s28.42-18.8 28.42 0z" fill="#fff"/><path d="M580.24 210.33a11.92 11.92 0 00-16.65 10.94c0 18.56 30 13.68 23-4.32-4.31 5.13-11.77-2.43-6.35-6.62zm-69.64-4.41l-18.07 10.29c-1.4-8.55 4.62-15.5 18.07-10.29z" fill="#ab8e70"/><path d="M492.53 221.57c0 18.8 28.42 18.8 28.42 0s-28.42-18.8-28.42 0z" fill="#fff"/><path d="M502 210.63a11.92 11.92 0 0116.65 10.94c0 18.56-30 13.68-23-4.32 4.35 5.13 11.78-2.43 6.35-6.62z" fill="#ab8e70"/><path d="M543.29 462.67c0 .08 0 0 .17.49a1.9 1.9 0 00-.17-.49z" fill="#f8cb80"/><path d="M615.94 419c-1.52-2.4-143.74-6.65-146.49 0s1.5 95.18 8.09 95.23h43.55c22.89-54 13.82-31.92 21-54.35l23.1 54.35h40.57c7.12-.08 11.69-92.85 10.18-95.23z" fill="#f8cb80"/><path d="M601.09 425.26q1.95 11 14.85 10zm-114.46-1.43q-1.17 9.68-14.84 11.52zm56.66 38.84c5.44 13.33 11.53 30.57 9.65 44.49 1 4.2 5.95 7.26 11.77 7.21.72 0 2.94 5.74-21.42-51.7z" fill="#e9bd79"/><path d="M543.51 461.52c.5-1.23.17-.41-.37.85.19.46.11.53.37-.85zm-.22 1.15l-.1-.23z" fill="#e9bd79"/><path d="M100.36 324.59v12.88l21.71 29.9c13-36.34 11-26.36 10-45.42z" fill="#fcc3a3"/><path d="M100.12 321.76c3.28 8.23 13.77 11.82 32.64 10l-1.73-10z" fill="#f0a784"/><path d="M131 321.76c1.63 0 1.13-.2 1.73 10z" fill="#f0a784"/><path d="M131 565.64l28 .79-1-49.29h-27c.07 3.24 0 .07 0 48.5z" fill="#fcc2a1"/><path fill="#d0e4fa" d="M131.05 546.41h27.62l.39 21.59h-28.01v-21.59z"/><path d="M73.41 565.19l28 .79-1-49.3H73.35c.09 3.25.06.07.06 48.51z" fill="#fcc2a1"/><path fill="#d0e4fa" d="M73.42 545.96h27.62l.4 21.59H73.42v-21.59z"/><path d="M131.47 583a152 152 0 0053.5 4.79c1.13-2.76 1.56-5.32 0-7.32-5.53-5.59-13.27-10.3-22-14.63 0 0 .76-8.08-.75-8.08-15.26 0-11.07-4.76-14.89 6.31h-15.9a36.08 36.08 0 00.04 18.93z" fill="#c19070"/><path d="M185.36 586c-1-1.78-17.51 4-48.86-4.45-1.27-.34-5.49-2.38-5.53-.13-.09 5.89 59.03 12.92 54.39 4.58z" fill="#ae8972"/><path d="M162.89 574.16c-3.46-1.2 4-7.31 9.38-3.39-2.62 2.43-8.45 6.72-9.38 3.39z" fill="#f8ffbd"/><path d="M163.52 565.64c-8.91.21-10.91 8.29 2.36 2.34z" fill="#fffdbd"/><path d="M100.94 583a152 152 0 01-53.5 4.79c-1.13-2.76-1.56-5.32 0-7.32 5.53-5.59 13.27-10.3 22-14.63 0 0-.76-8.08.75-8.08 15.26 0 11.07-4.76 14.89 6.31h15.9a36.08 36.08 0 01-.04 18.93z" fill="#c19070"/><path d="M47.05 586c1-1.78 17.51 4 48.86-4.45 1.27-.34 5.49-2.38 5.53-.13.09 5.89-59.04 12.92-54.39 4.58z" fill="#ae8972"/><path d="M69.52 574.16c3.46-1.2-4-7.31-9.38-3.39 2.62 2.43 8.45 6.72 9.38 3.39z" fill="#f8ffbd"/><path d="M68.89 565.64c8.91.21 10.91 8.29-2.36 2.34z" fill="#fffdbd"/><path d="M163 432.85c-2.84-14.81-4.61-28.75-3.78-40.62 8.35-1.28 16-3.67 21.7-9.34a70 70 0 00-19.68-43.4c-7.17-4.8-17.72-7.73-29.27-10.1 2.25 21.91-30.07 23.81-31.29 0-8.22 1.56-17.29 5.07-27 10.1-10.54 11.85-17.56 26.1-21.19 42.64a32.27 32.27 0 0022.2 9.87 184.88 184.88 0 01-6.3 40.88z" fill="#f1836e"/><path d="M77.72 368.76l-3 24.22-8.87-2.27a50.67 50.67 0 0011.87-21.95zm78.08-1.01l3 24.22 8.87-2.27a50.88 50.88 0 01-11.87-21.95z" fill="#dc7670"/><path d="M161.75 390s9.53 41.6 9.34 48.44-2.53 19.52-1.77 27.51c4.05 4.64 4.17-3.63 5.3-10.6a2.68 2.68 0 013.53-.25c0 13.16-1.16 16.3 5 14.13 12-8.38 12.62-8.29 12.62-10.47 0-14.49.5-15.89-1.56-18.37-5.09-6.16-7.93-20.25-13.33-57.46z" fill="#fcc3a0"/><path d="M184.15 455.64c0 15.32-.7 13.17 2 11.63zm6.95 7.93c-2.73-14.52-2-14-2 1zm3.08-2.41c-1.36-12.08-1-11.72-1 .86z" fill="#f9b58f"/><path d="M71.66 390s-9.53 41.6-9.34 48.44 2.53 19.52 1.77 27.51c-4.05 4.64-4.17-3.63-5.3-10.6a2.68 2.68 0 00-3.53-.25c0 13.16 1.16 16.3-5 14.13-12-8.38-12.62-8.29-12.62-10.47 0-14.49-.5-15.89 1.56-18.37 5.09-6.16 7.93-20.25 13.33-57.46z" fill="#fcc3a0"/><path d="M49.26 455.64c0 15.32.7 13.17-2 11.63zm-6.95 7.93c2.73-14.52 2-14 2 1zm-3.08-2.41c1.36-12.08 1-11.72 1 .86z" fill="#f9b58f"/><path d="M48.45 250.79c-25.89 3.88-16.12 46.44 9.08 39.36 35 48.17 82 50.45 115.36 1.14 9.64.19 18.06-1.94 22.05-12.49 6.8-10.86 2.93-19.8-4.93-28l-32-67.25-78.92 5.17L45 239.81z" fill="#fcc5a2"/><path d="M42.77 250.79c-6.29-34.79 3.06-64.29 37.48-85.17 27.16-7.29 51.37-7.84 71.91 0 .71-3-1.11-6.37-3.78-9.84 8.32 3.17 14.76 7.52 17.79 14 33.92-.7 11.67-1.46 6.72 4.54 19.33 15.78 28.65 46 17.88 76.46h-8c1.27-7.13-.35-13.84-5.3-20.06-13.23-8.39-22.44-18.69-25.74-31.8-9 9.89-18.18 17.46-28 19.68a63.39 63.39 0 01-33.68.76c10.36-2.15 20.57-6.78 30.66-13.63-34.66-.06-63 11.66-72.3 45z" fill="#c49372"/><path d="M111.66 216.72c29.48-11.49 29.39-12.07 36.34-28-15.44 14.69-14.57 13.67-36.34 28zm-24.98-15.17c37.21-2.48 37.14-3.32 50-18-22.16 10.66-20.84 9.85-50 18z" fill="#cd9b74"/><path d="M75.2 231l19.43 1.26c.37-9.64-14.27-10.72-19.43-1.26zm63.37.88l19.46-.56c-.51-9.62-15.2-9.32-19.46.56z" fill="#c28f71"/><path d="M182.44 262.9l-4.16 15.9c6-1.71 9.45-4.28 9.46-7.95 1.75-5.44-.45-7.75-5.3-7.95zM52.49 278.54l-2.87-16.19c-4.78 4.09-6.8 7.84-5.27 11.18.65 5.68 3.65 6.85 8.14 5.01z" fill="#f3a582"/><path d="M152.49 278.9c-1.8-7 18.29-12.16 20.08-5.13s-18.29 12.16-20.08 5.13zm-71.29 2.46c1.8-7-18.29-12.16-20.08-5.13s18.29 12.17 20.08 5.13z" fill="#fa9ca0"/><path d="M99.17 294.32q16.47 15.9 32.93 0M120 276.34q-3.78-4.92-9.84 0m.62 27.94h9.71" fill="none" stroke="#f3a582" stroke-linecap="round" stroke-linejoin="round" stroke-width="3.93"/><path d="M142.32 245.68l16 9.08c1.19-7.54-4.12-13.68-16-9.08z" fill="#ab8e70"/><path d="M158.27 259.49c0 16.6-25.09 16.6-25.09 0s25.09-16.59 25.09 0z" fill="#fff"/><path d="M149.9 249.84a10.52 10.52 0 00-14.7 9.65c0 16.39 26.51 12.08 20.31-3.81-3.8 4.53-10.39-2.14-5.61-5.84zm-61.47-3.9l-16 9.09c-1.19-7.55 4.13-13.69 16-9.09z" fill="#ab8e70"/><path d="M72.48 259.76c0 16.59 25.09 16.59 25.09 0s-25.09-16.6-25.09 0z" fill="#fff"/><path d="M80.85 250.1a10.53 10.53 0 0114.7 9.66c0 16.38-26.51 12.08-20.31-3.82 3.81 4.54 10.39-2.14 5.61-5.84z" fill="#ab8e70"/><path d="M116.08 471.43c0 .08 0 0 .12.43a1.83 1.83 0 00-.12-.43z" fill="#f8cb80"/><path d="M163 432.85H68.39a661.86 661.86 0 00-2.29 76.08 7.59 7.59 0 007.52 7.83l28.13.3c14.81-47.75 8.92-28.33 13.57-48.12l14.93 48.12 26.21-.29a8.3 8.3 0 008.14-8.41c.01-24.36-.06-49.54-1.6-75.51z" fill="#f8cb80"/><path d="M153.42 438.4q1.28 9.72 9.59 8.84zm-73.93-1.26q-.76 8.55-9.59 10.17zm36.59 34.29c3.54 11.83 7.45 27 6.24 39.27a7.62 7.62 0 007.6 6.36c.48 0 1.45 3.61-13.84-45.63zm-5.74 38.89c-1.76-22.23 10-53.08-8.59 6.74 5.32.05 8.15-3.06 8.59-6.74z" fill="#e9bd79"/><path d="M116.23 470.41c.32-1.09.1-.36-.24.75.14.46.08.41.24-.75zm-.15 1.02l-.06-.2z" fill="#e9bd79"/><path d="M314.66 650h52.66c0 6.29.31 5.21-.92 5.21h-51.74zm0-269.08c41.18 0 44.35-1.33 43.23 3.24-.71 2.86 0 1.93-43.23 2zm0-337.61c1.94.13 39.8 0 41.22.08 2.79.11 2.69 4.85.07 5.11h-40.49c-1.12 0-.8.93-.8-5.19zm0 472.59c42.65 0 41.71-.47 42.71.84 1.37 1.78.26 4.23-1.49 4.35h-41.22zm0-337.61c41.43 0 40.71 0 41.45.13 2.72.66 2.3 4.87-.3 5.07h-40.53c-.87 0-.62.87-.62-5.2zm0 135.01h41.08c2.76 0 2.9 4.84.56 5.1-.77.09-40.61.07-41.64.1zm0-202.5c42.95 0 41.84-.64 42.95 1.24 1 1.67-.31 3.95-1.63 3.92-2.87-.06-39.76.06-41.32-.08zm0 337.61c42.85 0 43.51-1.16 43.29 2.79a2.29 2.29 0 01-2.57 2.33h-40.72zm0-202.47c43-.24 42-.67 43 1.2.79 1.49 0 3.87-1.9 3.87h-41.1zm0 337.6c1.11-.1 40.85-.07 40.77-.07 3.51 0 3 4.84.62 5.13h-41.39zm0 12.6c13.23.23 13.58-.47 14.48 1 1.23 1.93 0 4.22-1.63 4.25h-12.85zm0 41.86c12.73 0 14.92-.79 15 2.52.05 4.3-4.15 2-15 2.71zm0-298c3.68.08.09 0 12.67 0 3.16 0 2.92 5.12.18 5.13-3.64 0-12.21 0-12.85.06zm0-39.64c13 .09 15-.75 15 2.65s-2.25 2.53-14.17 2.54c-1.1 0-.83 1.06-.83-5.19zm0 25.64c12.67 0 15-.87 15 2.74 0 4.18-5.77 1.69-15 2.49zm0 216.49c1.35.11 12.33.06 12.54.06 3.07 0 3.05 4.6.81 5.11-.32.07 0 0-13.35.06zm0-444.6c14.07 0 13.71-.41 14.65 1.23a2.61 2.61 0 01-2.36 3.93c-12.26 0-11.26 0-12.29.07zm0-27.98c12.15 0 15.15-1 15 2.9s-4.28 1.59-15 2.33zm0 188.63c8 .6 16.3-1.85 14.88 3.41-.66 2.43-1.67 1.82-14.88 1.82zm0 13.99c13.49 0 13.26-.21 14.34.82 1.28 1.22.66 4.11-1.49 4.34h-12.05c-1.07.03-.8 1.09-.8-5.16zm0-216.46c12.42 0 15.11-.93 15 2.75-.16 4-4.89 1.73-15 2.48zm0 297.93c12.54 0 14.91-.78 15 2.44.09 4.32-4.84 2.22-15 2.79zm0-202.61c13.83.05 13.62-.26 14.42.92 1.31 1.92.17 4.16-1.58 4.27h-12.84zm0 472.61c12.37 0 15.06-.89 15 2.74-.1 4.33-5.4 1.41-15 2.49zm0-256.15c13.67 0 13.78-.42 14.67 1.37.68 1.36.47 3.81-2.57 3.83h-12.1zm0-81.48c13.26.16 13.63-.65 14.71 1.45 2.74 5.38-6.64 3.36-14.71 3.78zm0 202.63c12.42 0 15.26-.94 15 2.93-.24 3-2.89 2.26-14.22 2.26-1.06-.01-.78.94-.78-5.19zm0 81.47c12.76.07 15.19-.85 15 2.85-.19 3.1-2.43 2.34-15 2.38z"/><path d="M314.66 655.16c52.7 0 52.66-.82 52.66 1.4-52.69 0-52.66.75-52.66-1.4z" fill="#fff"/><path d="M314.66 528.66c2.42-.08 12.49-.09 12.41-.09 3.34 0 3.11 4.57 1.05 5.06-.64.15 0 .1-13.46.1zm0-309.66c.8-.09 4.11 0 12.73-.06 2.73 0 3 4.4.62 5.08-.35.1 0 .07-13.35.06zm0 202.5c13.09 0 14.44-.61 14.92 1.88.29 1.5-.55 3.23-1.9 3.23h-13zm0 39.67c12.8 0 14.89-.83 15 2.49.1 3.52-3.38 2.62-11.95 2.6-3.83-.01-3.05.99-3.05-5.09zm0-256.17c13.31-.18 14.42-.54 14.92 1.88.87 4.21-3.08 3.2-14.92 3.2zm0-121.1c14 0 13.8-.47 14.71 1.4.68 1.39-.06 3.49-1.37 3.69-.69.1-12.24.07-13.34 0zm0 53.65c12.77 0 15.07-.89 15 2.65-.08 2.79-2.54 2.48-3.6 2.49-11.34 0-10.33 0-11.36-.06zm0 297.94c14.15 0 14-.56 14.83 1.6a2.61 2.61 0 01-1.8 3.47c-4.34.06-8.68 0-13 0zm0 174.64c12-.11 15.2-1 15 2.8-.19 2.92-1.89 2.31-15 2.28zm0-107.13c.86-.1 10.24-.07 12.72-.06 2.81 0 3 4.67.55 5.08-.51.08 0 .06-13.27.05zm0-95.49c13.72 0 13.74-.45 14.69 1.33.69 1.3.13 3.79-1.91 3.79h-12.78zm0 149.13c13.72 0 14.47-.63 14.93 1.81.8 4.19-3.15 3.24-14.93 3.26zm0-391.26c13.27 0 14.34-.66 14.91 1.92.92 4.16-3.08 3.16-14.91 3.15zm0 309.78c14-.2 13.89-.35 14.62 1.09 1 1.94-.3 4-1.65 4h-13zm0-284.11c12.36 0 14.82-.82 15 2.39.15 3.41-1.47 2.71-15 2.69zm0 41.95c13.23-.19 15-.67 15 2.41-.06 3.59-2.64 2.66-15 2.67zm0-109.44c12.93 0 14.86-.8 14.95 2.52s-2.23 2.59-14.64 2.6c-.44 0-.31.32-.31-5.12zm0 270.12c3.87-.08 10.36-.06 12.48-.05 3.31 0 3.16 4.73.5 5.12h-13z"/><path d="M518.94 393.62c18.39-5.06 36-5.58 52.71 0z" fill="#dc7670"/></svg>