<svg xmlns="http://www.w3.org/2000/svg" viewBox="0 0 1400 780"><path fill="#e6e6e6" d="M0 0h1400v780H0z"/><path d="M712.39 400.62c71.78-86.63 19.46-27.43 112.46-134.79 32.62-37.67 47.9-70.89 116.14-82.22 7.94-1.32 53.91-7.39 56.42-6.71 4.55 1.23 1.3 4.27.52 4.43-11.06 2.34-51 2.68-91.42 17.51C873.49 211 863.67 225.79 762 349.37c-23.18 28.18-21.67 31.42-22.13 31.7-23.62 14-44.71 71.2-83 68.43-5.67-.41-24.4 1-29.33 3.82-40.21 23-33.31 16.58-62.76 45.85C532 531.74 521.17 554.52 493 601.55l8.41 2.8c-.61.8-.82 1.32-1 1.32-8.57 0-6.8-1.62-6.73 28 0 7.5.07 7.5 6.59 10.9-4.67 2.44-8.33.3-6.14 15.86.59 4.2 1162 6.88 8.72 5.56-12 0-12-.09-12-10.6-1.54-587.65-3.15-587.75-.08-587.85a48.7 48.7 0 01.57 5.22c.26 54.93-2.31 54.15 8.16 53.86-10 .78-8.25 1.62-7.44 35.2.06 2.7.07 2.7 7.29 5.11-8.83.93-7.18 6.12-7.19 10.58-.07 29.31-1.39 26.57 7.21 29.15-9.1 1.2-7 6.63-7.05 11.23-.08 25.93-1.42 27.51 7.1 28.36-7.57.76-7.24 4.88-7.09 9.22.86 25.81-2.68 29.9 7.15 29.76-10 1.68-6.41 5.63-7 29.76-.11 4.36-1 8.9 6.72 9.94-6.95.7-6.84 4.51-6.72 8.68.75 26.43-2.53 31 6.13 30.33-.11.69-.11 1.27-.21 1.28-5.13.67-6.25 3.34-6 7.67 1.65 23.89-4.13 30.29 7.62 31.19-9.19.43-7.79 2.06-7.27 30.3.13 7.09.18 7.09 6.69 9.57-.11.32-.23.91-.33.91-5.47-.08-6.42 2.17-6 6.8 2.34 27.11-5.64 28 6.53 32.13a4.4 4.4 0 01-.19.94c-7.39 0-6.71 4-6.32 8.73 1.91 23-4.1 29.79 6.66 31.4-9.08 2.65-5.71 1.28-6.33 35.17-.08 4.29 3.73 3.08 7.05 3.73-1.19 1.11-1.69 2-2.34 2.1-9.33 1.45-.93 4.64-2.43 6.13-4.68 4.65-.82 10.1-1.49 15.26 25-42.26 65-105.68 113-128.36 11.22-5.3 16.45-13.29 31.94-13.8 6.72-.22 13.47-1.77 20.08-1.34 26.06 1.68 53.22-43.2 53.12-43.13z"/><path d="M689.63 116.85c-3.39.65-11.7-2.11-12.43-4.06s1.22-2.45 11-6.52c1 1.61 1.59.57-3.44 4.39 147.88 0 104.74 1.54 107.81-4.59 4 1.67 8 3.29 11.89 5.07.29.14.2 1.91-.22 2.12-3.78 1.89-7.68 3.59-11.54 5.35-1.27-2.07-2-.88 4.42-4.92-131.92 0-114.97-1.36-107.49 3.16zm-23.34 378.43c-1.15-10.73-.07-21.58-.67-33.06-6.12 7.82-4.81 6.85-6.63 6.35.15-1.14 0-2.42.5-3.4a80.15 80.15 0 015.71-9.17c.57-.78 3.43-1.34 3.6-1.09 3 4.31 6.39 8.54 7.35 13.62-2 1.11-.54 1.88-6.23-4.41-.88 10.72.52 21-.81 31.17zm9.15-66.37c-6.35 0-5.29.37-5.33-1.11 6.18 0 5.09-.36 5.33 1.11zm-.59-77.99c-1.14.18-2.29.37-3.44.48a6.2 6.2 0 01-.27-1.19c4.03-.96 3.44-.98 3.71.71zm78.45 21.33c-1.56-2.27-1.41-1.55 0-2.65 1.7 1.76 1.52 1.06 0 2.65zm-122.8 17.01c1.84 1.92 1.75 1.19.26 2.84-1.76-1.96-1.55-1.21-.26-2.84zm-46.04 49.28c-1.45-1.37-1.67-.76 0-2.37 1.29 1.47 1.11.89 0 2.37zm183.23-79.07c1 2 1.27 1.26-.24 3-1.45-1.47-1.27-.71.24-3zm-148.93 44.3c-1.22-1.65-1.53-1.06.3-2.5 1.4 1.47 1.25.84-.3 2.5zm86.01.97c-1.44-1.33-1.62-.74-.08-2.3 1.31 1.43 1.1.87.08 2.3zm-14.37 6.84c2 2 1.77 1.27.4 2.8-1.8-1.86-1.51-1.13-.4-2.8zm-116.95 36.71c.56.55 1.12.87 1.23 1.29s-1.57 1.57-2.2-.1c-.09-.24.52-.69.97-1.19zm420.37-219.23c1.17 1.58 1.36 1-.12 2.32-1.29-1.31-1.3-.7.12-2.32zM627.19 465.09c.51.57 1.08.93 1.12 1.33s-.73.93-1 .88a1.6 1.6 0 01-1.09-1c-.06-.3.54-.68.97-1.21zm-68.02 3.66c-1.89.72-1.14 1-3.08-.58 1.38-1.02.57-1.27 3.08.58zm55.03 7.05c1.49 1.79 1.47 1.15.09 2.45-1.46-1.53-1.23-.93-.09-2.45zm160.18-120.12c1.69 1.12 1.76.47.44 2.39-1.62-1.38-1.32-.82-.44-2.39zm9.03-2.82l-1.35 1c-.37-.38-.95-.72-1-1.13s.66-1 1-.93.76.6 1.35 1.06zM521.59 521.15c-1.35 1.33-.66 1.41-2.71 0 1.51-1.15.81-1.15 2.71 0zM838 191.68c-1.27 1.36-.65 1.46-2.64 0 1.45-1.09.77-1.09 2.64 0zm55 74.67c-1.59 1-1 1.2-2.46-.13 1.3-1.09.66-1.22 2.46.13zM544.19 545.51c-1.29 1.34-.66 1.45-2.66 0 1.47-1.12.76-1.17 2.66 0zm283.47-216.46c-2 .36-1.56.8-2.16-1.27 1.91-.19 1.34-.47 2.16 1.27zM523.83 571.51c-2 .76-1.3 1.11-2.65-.84 2.05-.55 1.35-.6 2.65.84zm-9.32 12.97c-1.75 1-1.08 1.22-2.76-.11 1.48-1.14.75-1.17 2.76.11zM496 610.5l1.31 1.23c-.1.08-1.55 1.94-2.31-.08-.12-.23.52-.65 1-1.15zm8.13-13.78c1.74 1.28 1.72.69.15 2.17-1.49-1.32-1.28-.8-.15-2.17zm6.2-5.17c-1.89.68-1.25 1.05-2.65-.88 1.99-.52 1.32-.6 2.65.88zm197.23-273.38c-1.66-1.32-1.61-.73 0-2.11 1.44 1.32 1.24.8 0 2.11zm-6.05 2.68c1.15 1.75 1.43 1.1-.22 2.66-1.29-1.41-1.29-.73.22-2.66zm184.14-50.36c1.36 1.58 1.31 1 .05 2.16-1.44-1.29-1.26-.77-.05-2.16zm-39.26 41.86l-1.45.67a4.2 4.2 0 01-.58-1.16c0-.15.62-.58.75-.52a7.34 7.34 0 011.28 1.01zm12.14-145.89c-1.71 1.11-1 1.33-2.7-.08 1.51-1.21.81-1.21 2.7.08zm-7.4 138.76c.5.54 1.08.9 1.1 1.28s-.7.93-1 .89a1.55 1.55 0 01-1.11-.94c-.07-.3.55-.71 1.01-1.23zm-317 252.71c-1.37 1.33-1 1.82-2.89.14 0 0 .4-.73.57-.72a16.47 16.47 0 012.32.58zM820.08 335c-1.43-1.63-1.35-1.06-.1-2.21 1.51 1.29 1.29.76.1 2.21zM506.52 549.75c-1.73 1-1.06 1.22-2.76-.06 1.47-1.21.75-1.22 2.76.06zm307.29-212.06c-1 .68-1.54 1.67-2.34-.06-.05-.13.48-.68.68-.65a7.42 7.42 0 011.66.71zm-49.6-70.34c1.46 1.69 1.43 1.09.09 2.35-1.51-1.4-1.3-.83-.09-2.35zm-43.11 38.46c-1.91.85-1.18 1.15-3-.48 1.53-1.02.75-1.09 3 .48zm172.73-158.38c-1.31-1.53-1.14-1 .06-2.11 1.57 1.51 1.64.92-.06 2.11zM510.38 543c-2 .73-1.31 1.1-2.69-.88 2.04-.5 1.31-.58 2.69.88zM909 141.3l1.28-.89a7 7 0 01.91 1.45c0 .08-.85.67-1.14.58s-.64-.66-1.05-1.14zM548.43 540.79c-1.54-1.49-1.56-.91.08-2.23 1.22 1.44 1.11.89-.08 2.23zm-34.43-5.2c-1.3 1.32-.66 1.42-2.62 0 1.43-1.14.76-1.19 2.62 0zm3.9-7.16c-1.55 1.22-.84 1.36-2.68-.22 1.53-.96.83-1.03 2.68.22zm43.22-.65c-.6.38-1.07.9-1.4.84a1.56 1.56 0 01-1.07-1c0-.26.67-.91 1-.88s.84.58 1.47 1.04zm4.36-8.18c.83 1.8 1.55 2.13-.09 3-.12.06-.8-.35-.8-.56a10.27 10.27 0 01.89-2.44zm353.28-381.38c1.3 1.78 1.32 1.14 0 2.44-1.46-1.48-1.25-.89 0-2.44zM798.31 345l-1.25 1a4.48 4.48 0 01-1-1c-.07-.14.42-.73.58-.71a7.75 7.75 0 011.67.71zm128.74-208.45c1.52 1.17 1.6.51.37 2.46-1.42-1.39-1.16-.81-.37-2.46zM527.86 506.2c1.84 1.06 1.73.51.43 2.11-1.6-1.19-1.29-.7-.43-2.11zm329.08-204.08c-1.36-1.57-1.42-1 0-2.24 1.45 1.37 1.23.83 0 2.24zm40.71-42.38c.51.53 1.08.87 1.12 1.26s-.67.89-1 .86a1.42 1.42 0 01-1.07-.89c-.05-.32.53-.72.95-1.23zm-77.15-40.87c-1.21 1.4-.57 1.43-2.55.15 1.37-1.19.7-1.13 2.55-.15zm59.34 59.83c-.78-1.07-1.71-1.46.17-2.07.13 0 .69.45.65.64a6 6 0 01-.82 1.43zM538.62 495.39c-3.28-1.82-2.94-1.19-1.51-2.3 1.55 2.45 1.41 2.38 1.51 2.3zm63.15-8.39c1.58 1.1 1.64.49.34 2.27-1.49-1.27-1.22-.72-.34-2.27zm361.61-354.47l-1.41.93a4.37 4.37 0 01-.68-1.11c0-.18.5-.68.62-.64a8 8 0 011.47.82zM727.72 300.28c-2 .79-1.23 1.11-3.19-.57 1.47-1.02.68-1.14 3.19.57zM972 131.18l-1.25 1a4.48 4.48 0 01-.9-1c-.07-.14.41-.7.58-.68a6.53 6.53 0 011.57.68zM760.29 364.56a8 8 0 011.26 1.79c.06.17-.78.83-1 .76-1.92-.5-.55-1.99-.26-2.55zM562.56 460.9c1.71 1.15 1.65.58.25 2.2-1.49-1.3-1.24-.78-.25-2.2zm423.82-230.64c-.9.7-1.3 1.64-2.21.08-.06-.11.42-.67.61-.65a6.66 6.66 0 011.6.57zM673.8 296.8c-.59-1-1.29-1.49.57-1.83.15 0 .63.54.57.65a7.42 7.42 0 01-1.14 1.18zm293.86-65.93c1.22 1.71 1.29 1.1 0 2.47-1.33-1.43-1.14-.84 0-2.47zM639 454.25l1.38 1.06a5.2 5.2 0 01-1 1c-.12.07-.82-.32-.83-.51a5 5 0 01.45-1.55zm94.3-159.58c-.55.4-1 .92-1.32.88a1.47 1.47 0 01-1-.92c-.06-.24.61-.87.92-.85s.79.48 1.4.89zm-153.05 148.7c-1.34 1.32-.7 1.41-2.62-.05 1.46-1.1.77-1.11 2.62.05zm323.62-186.51l-.68-1.41a5.46 5.46 0 011.39-.39c.19 0 .63.6.56.7a7 7 0 01-1.27 1.1zM660 439.24c-1.7 1-1.06 1.24-2.64 0 1.45-1.24.76-1.24 2.64 0zm290.46-205.66c.77 1.16 1.69 1.63-.3 2.14-.12 0-.65-.54-.6-.77.07-.4.44-.74.9-1.37zM603 419.55c-1.69 1.33-1 1.44-2.69.32 1.48-1.67.85-1.38 2.69-.32zm199.44-181.27c-.49-.56-1.07-.93-1.08-1.31s.71-.93 1-.9a1.5 1.5 0 011.08.94c.07.34-.54.73-1 1.27zm-195.18 176.9l-1.3-1.26c.39-.32.81-.9 1.17-.87a1.59 1.59 0 011.13.94c.08.27-.56.69-1 1.19zm182.81-168.41c1.48 1.71 1.42 1.1.11 2.33-1.51-1.4-1.31-.84-.11-2.33zM698.8 408.38c-.56.39-1 .94-1.33.88a1.57 1.57 0 01-1-1c0-.26.65-.92.94-.89s.79.56 1.39 1.01zm-85.69.94c-.85-1.15-1.74-1.54.14-2.11.13 0 .68.46.65.66a5.36 5.36 0 01-.79 1.45zm306.36-162.9c-1.67 1-1 1.25-2.62-.11 1.4-1.22.72-1.31 2.62.11zm-174.42 38.95c-.51-.54-1.11-.89-1.14-1.28-.07-.76 1.84-1.38 2.21.07.07.28-.59.7-1.07 1.21zm181.41-42.58c-1.54.42-1.14.73-1.85-.95 1.25-.32.81-.67 1.85.95zM740 289.34c-1.16.66-1.55 1.49-2.4-.19-.05-.1.52-.63.71-.59a8.21 8.21 0 011.69.78zm-65 107.14c.79.84.91.49-.6 1.23-.4-.96-.63-.71.6-1.23zm37.41 4.12c-2.33-2.27-2.25-1.62-.5-2.4.5 2.5.4 2.47.5 2.4zm83.75-160.32c.9 2.13 1.5 2.27 0 3.23-.08.05-.77-.35-.79-.58-.08-.4.18-.81.79-2.65zM626 396.59c-1.21.58-1.54 1.28-2.16-.43 0-.09.59-.55.77-.49a6.27 6.27 0 011.39.92zm371.28-268.2a4.45 4.45 0 01.25 1.29c0 .12-.89.33-.93.27-1.01-1.42-.27-1.28.68-1.56zM862 294.63c-.07-.82 2.38 0 2.48 0-1.12 1.37-2.31 1.81-2.48 0zm-109.33-14.76c-1.1-.18-2.9-.16-2-1.29s1.55.58 2 1.29zm191.9-146.1c.64 1.13 1.51 1.58-.46 2-.12 0-.61-.54-.54-.74.12-.36.52-.67 1-1.26zm-69.02 149.35c-1.62 1-1 1.16-2.65 0 1.3-1.19.61-1.27 2.65 0zM674.77 389.84c-.9-.91-.88-.56 0-1.39.96.96.97.6 0 1.39zm-1.3-141.24c1.23.66 1.24.26.34 1.63-1.03-.55-1.03-.1-.34-1.63zM760 274c-2 .69-2.44 1.36-2.87-.38a1.24 1.24 0 01.84-.42 11 11 0 012.03.8zM637.91 385.13c-1.8.72-1.25 1-2.42-.51 1.06-.62.43-.81 2.42.51zM901.54 143c1.49.54 1.34 0 .79 1.79-1.2-.44-1.1.08-.79-1.79zM682.65 418c1.58-1 1-1.14 2.57 0-1.3 1.21-.63 1.24-2.57 0zm251.21-178.1a5.8 5.8 0 01-1.16-.88c-.08-.1.46-.79.53-.76 1.9.64 1.27.81.63 1.64zm9.58-3.43c-.87.59-1.42 1.61-2.25-.11-.06-.13.47-.69.6-.66a8.64 8.64 0 011.65.77zm-57.74-85.96c-1.21-1.45-1.39-.93 0-2.18 1.49 1.33 1.3.8 0 2.18zM675.09 311.69c-.29.13-.65.41-.84.34a.79.79 0 01-.42-.73c0-.18.52-.27.81-.4zm-.42 109.41c-.72-.9-.84-.58.24-1.33.72.89.81.59-.24 1.33zM911.2 249.54l.88 1.49a4.93 4.93 0 01-1.33.51c-.19 0-.67-.55-.61-.74.14-.39.56-.69 1.06-1.26zM677.7 422.07l.91 1.34a4.51 4.51 0 01-1.29.49c-.18 0-.65-.51-.59-.68.13-.36.52-.65.97-1.15zm200.38-270.4c.69 1.09 1.59 1.56-.31 2.05-.12 0-.63-.51-.58-.73.07-.38.45-.71.89-1.32zM596.66 425.38c-.86 1.07-.39 1.12-2 .11.75-.91.21-.95 2-.11zM872.09 157c-1 .67-1.52 1.67-2.35-.14-.06-.13.49-.68.66-.65a8.75 8.75 0 011.69.79zm-8.86 3.51c1.65 1.28 1.49.74.6 2.09-1.64-.96-1.33-.5-.6-2.09zm-179.1 496.03c-.76 1.05-.35 1-1.5 0 .99-.71.62-.68 1.5 0zm-183.08-31.02c-.49-.91-1.49-1.65.53-1.89.18 0 .67.55.6.69a6.14 6.14 0 01-1.13 1.2zM957.34 233.3c1.33-.58 2-1.36 2.6.21.06.17-.4.72-.53.7a13.36 13.36 0 01-2.07-.91zM852 172.33c-1.29.79-.85 1-2-.52 1.07-.65.55-.81 2 .52zm-67 80.52l-1.26 1a4.46 4.46 0 01-.91-1c-.07-.16.43-.74.56-.72a9.36 9.36 0 011.61.72zm54.05 62.41c.82 2 1.45 2.27-.09 3.14-.1.06-.78-.34-.79-.54a11.6 11.6 0 01.88-2.6zm-196.8 62.8l.85 1.33a4.56 4.56 0 01-1.27.47c-.21 0-.7-.52-.64-.65a5.44 5.44 0 011.06-1.15zm-73.94 76.8l.89 1.35a5 5 0 01-1.34.52c-.18 0-.67-.54-.61-.69a5.7 5.7 0 011.06-1.18zm178.28-78.2c-.79-1.11-1.72-1.57.15-2.1.14 0 .68.47.65.68a5.72 5.72 0 01-.8 1.42zm101.14-198.4c-2.73.63-2.82 1.17-3.29-.55a1.49 1.49 0 01.89-.35 16.15 16.15 0 012.4.9zm128.19 52.08c1.44.53 1.34.07.69 1.75-1.21-.41-1.1.09-.69-1.75zm-166.47.95c-1.28.6-1.54 1.28-2.22-.51 0-.09.63-.57.8-.5a7.41 7.41 0 011.42 1.01zM834 323.7c-1.59 0-2.21.44-1.9-1.23a1.33 1.33 0 01.95-.1 5.53 5.53 0 01.95 1.33zM517.27 576.39l1.24 1.22a4.61 4.61 0 01-1.13.81c-.17.06-.82-.39-.8-.57a4.91 4.91 0 01.69-1.46zm179.92-248.21c-1.12.72-1.4 1.53-2.39-.08-.06-.09.48-.67.66-.64a8.56 8.56 0 011.73.72zm-170.1 235.4l1.32 1.07a5 5 0 01-1 .86c-.14.06-.78-.33-.79-.54a4.13 4.13 0 01.47-1.39zm162.68-230.84l.87 1.39a4.78 4.78 0 01-1.31.5c-.19 0-.68-.54-.61-.7.15-.37.56-.66 1.05-1.19zm-186.9 224.18c-1.87.73-1.31 1-2.39-.39 1.04-.53.4-.77 2.39.39zm274.39-297.27l-1.17-1.39a5.2 5.2 0 011.23-.69c.17 0 .74.45.71.66a5.24 5.24 0 01-.77 1.42zm-155.2 212.01c-1 .76-1.15 1.55-2.26.07 0-.07.42-.65.61-.63a8 8 0 011.65.56zM537.8 550c.74 1.79 1.45 2.2-.13 3-.12.06-.77-.34-.78-.55-.02-.4.25-.79.91-2.45zm14.12-76.61l1.23 1.23a4.25 4.25 0 01-1.09.73c-.17 0-.75-.38-.75-.59a4.49 4.49 0 01.61-1.37zM500 266.67a4.37 4.37 0 01-.75-1.06c0-.11.65-.59.71-.55 1.52.94.84 1.04.04 1.61zm177.75 77.67l1 1.22a6 6 0 01-1.27.62c-.15 0-.68-.49-.63-.65.09-.37.47-.67.9-1.19zm-69.89 137.3c.91 1 1.9 1.35.1 2-.14.06-.75-.39-.74-.59a4.8 4.8 0 01.64-1.41zm182.97-133.01c-1 .62-1.47 1.51-2.17-.16 0-.12.47-.62.62-.58a8.19 8.19 0 011.55.74zm-219.9 166.01l1 1.28a4.54 4.54 0 01-1.22.58c-.16 0-.66-.48-.62-.67.06-.35.43-.66.84-1.19zM597 493.87c-1.09.66-1.42 1.46-2.28-.16 0-.1.48-.61.65-.58a8.37 8.37 0 011.63.74zm64.34-131.72c-1.17.76-1.29 1.44-2.3 0 0-.07.45-.61.64-.58a7.87 7.87 0 011.66.58zm-72.01 136.12a6.44 6.44 0 011.13 1c.07.1-.5.74-.56.72-1.8-.77-1.22-.88-.57-1.72zm238.52-294.01l.92 1.26a4.78 4.78 0 01-1.3.52c-.19 0-.7-.52-.65-.64a5.45 5.45 0 011.03-1.14zm-3.13 8.27c-1.28.28-2 .94-2.09-.81 0-.11.68-.43.84-.34a7 7 0 011.25 1.15zM576.93 509c.93 1 1.81 1.29.09 2.06-.1.05-.7-.4-.69-.62 0-.36.3-.74.6-1.44zm-45.03-9.64l1.39 1.05a4.57 4.57 0 01-1 .89c-.12.07-.76-.31-.8-.53a4.25 4.25 0 01.41-1.41zm280.44-274.18c1-.81 1.22-1.62 2.27 0 .07.1-.43.7-.6.68a8.37 8.37 0 01-1.67-.68zm-40.25 38.04c-1 .85-1.2 1.69-2.3 0-.08-.11.43-.73.59-.7a8.47 8.47 0 011.71.7zM583 503.59c1.17.86 2 1.05.39 2a1.19 1.19 0 01-.8-.54 4.14 4.14 0 01.41-1.46zm-81.36.83c-1 .79-.57.88-1.61-.38 1.27-.5.86-.56 1.61.38zm165.18-147.87c-.92.68-.52.78-1.45-.47 1.16-.35.79-.47 1.45.47zM499.7 107.13c-.83.1-1.14.34-.82-.72 0-.06.44-.11.47-.06a5.46 5.46 0 01.35.78zm305.94.87c-.33.35-.28.54-1-.17 0 0 .2-.23.31-.35zM674.56 218.34l-.67.45c-.09-.12-.28-.33-.25-.36.73-.68.68-.43.92-.09zm131.32 7.5c-.23.29-.2.6-1-.16 0 0 .18-.23.28-.35zM673.91 116.07c-.56.55-.65.87-1.12-.09 0-.07.27-.35.32-.33a5.57 5.57 0 01.8.42zm-172.28 428.5c-1 .75-.61.85-1.51-.47 1.31-.46.88-.5 1.51.47zm-1.03-318.28c-.59 1-.17 1-1.55.1.95-.74.5-.73 1.55-.1zM867.64 289c1-.76.57-.86 1.55.47-1.32.37-.91.41-1.55-.47zm-62.07-188.62l-.68.46c-.09-.13-.28-.34-.25-.36.78-.7.71-.42.93-.1zm-280.46 414.3c-1.15.55-.78.73-1.43-.69 1.24-.23.9-.44 1.43.69zm149.75-156.13l-1-.12c.05-.15.08-.44.13-.44 1.25.01 1.01.1.87.56zm-.56-71.11c.52.53.87.59-.23.94-.05 0-.31-.26-.28-.31a3.8 3.8 0 01.51-.63zm158.02-87.65l-1-1.25a4.12 4.12 0 011.15-.61c.17 0 .7.42.67.6-.09.36-.43.68-.82 1.26zM542.75 487.4c-1 .61-.61.73-1.46-.47 1.19-.38.82-.47 1.46.47zm263.09-363.75c-.25.17-.5.34-.76.5-.1-.13-.31-.36-.29-.38.84-.77.75-.53 1.05-.12zm-131.2 157.11l-.87-.13a2.13 2.13 0 01.11-.41c1.12.03.87.1.76.54zm313-152.17c1.38.53 1.25.06.69 1.7-1.1-.42-1.01.07-.69-1.7zM805.82 241.53c-.27.31-.21.57-1-.16l.28-.34zM547.7 480.88c-1 .68-.56.81-1.5-.48 1.22-.4.8-.52 1.5.48zM501 344.7c-.55.51-.66.91-1.14-.11 0-.06.27-.35.32-.33a6.47 6.47 0 01.82.44zM673.68 77.4c-.46.27-.27.38-.89-.35.46-.26.28-.37.89.35zm1 264.69c.35.48.49.27-.48.92-.33-.48-.48-.28.48-.92zM554.84 533.64c-.88.74-.52.77-1.58-.34 1.24-.47.84-.49 1.58.34zm119.53-269.19c.33.44.45.25-.42.85-.32-.43-.45-.25.42-.85zm130.36 76.63c1.08.5.92.23.5 1.18-1.07-.47-.92-.21-.5-1.18zm1.84-76.08c-.59.19-.4.35-.75-.59 1.05.13.9-.05.75.59zm-.64-78.19c-.25.32-.21.6-.94-.15 0 0 .18-.23.28-.35zm173.13-57.21c1.36.48 1.23 0 .7 1.64-1.11-.41-1.02.07-.7-1.64zM499 186.87c.5-.49.67-1 1.08.1 0 .08-.26.36-.29.35a7.67 7.67 0 01-.79-.45zm174.78-54.57l-.93-.13c0-.16.08-.46.12-.46 1.13 0 .92.11.81.59zm279.11.52c1.39.51 1.25 0 .74 1.71-1.11-.43-1.02.07-.74-1.71zM684.53 339.86c-1.11.51-.75.68-1.38-.69 1.19-.17.85-.38 1.38.69zm157.23-154.73c-1.15.5-.78.67-1.4-.66 1.23-.24.88-.42 1.4.66zM674.57 241.6c-.43.42-.23.48-.72-.3.62-.14.43-.22.72.3zM805 68.32c.57.58.89.61-.21 1 0 0-.32-.27-.29-.34a3.48 3.48 0 01.5-.66zM674.71 366.11c-.59.19-.4.2-.72-.18.88-.28.69-.34.72.18zM501.2 464c-.69.49-.74.78-1.17-.22 0 0 .33-.29.4-.25a4.07 4.07 0 01.77.47zm153.65-95.88c-1.07.49-.71.67-1.39-.7 1.21-.17.86-.37 1.39.7zM937 136.44c-1 .62-.63.75-1.37-.52 1.15-.37.8-.47 1.37.52zM633.47 460a5.91 5.91 0 01.75 1.25c0 .1-.76.57-.84.51-1.54-1.18-.74-1.21.09-1.76zM675 327.2c-.76.09-1.05.32-.77-.65 0-.06.41-.12.43-.07a4.74 4.74 0 01.34.72zm.61 85.29c-.71.8-.36.79-1.38.18.71-.82.37-.81 1.38-.18zM649 373.59c-1 .56-.61.71-1.46-.56 1.17-.25.8-.42 1.46.56zm156-234.5c.6-.2.41-.19.73.19-.95.28-.73.36-.73-.19zm.35-54.96c.37.24.72.19-.19.91 0 0-.28-.18-.43-.27.2-.22.41-.43.62-.64zm.36 94.54c-1 .07-.82.14-.9-.36 1.04-.06.82-.13.9.36zM673.89 319.4c.26-.3.22-.59 1 .17 0 0-.19.23-.29.36zm.53-15.3c-.6-.41-1-.45 0-.94.06 0 .38.18.36.23a3.55 3.55 0 01-.36.71zm.25-46.58c-.65.21-.44.22-.8-.2.96-.32.76-.39.8.2zm-.57 178.66c.67-.25.46-.24.81.21-.99.32-.79.37-.81-.21zM805.7 171.1c-.68.22-.46.22-.84-.21.98-.32.78-.41.84.21zM499.83 384.62c.58-.49.64-.81 1.15.11 0 0-.27.32-.33.3a6.27 6.27 0 01-.82-.41zm165.84 49.66c0 .07-.86.34-1 .23a4.35 4.35 0 01-.69-1.18c1.15-.33 1.55-.74 1.69.95zM519.8 656.89c-.68-.44-1.21-.52 0-1 .08 0 .45.2.43.24a4.35 4.35 0 01-.43.76zm27.32-.02c-.63-.41-1.11-.47 0-1 .08 0 .42.19.41.23a4.87 4.87 0 01-.41.77zm27.14-.87c.54.55.89.61-.15 1-.06 0-.37-.23-.34-.27a5.55 5.55 0 01.49-.73zm27.74.51c-.58.47-.7.85-1.07-.2 0-.06.29-.3.35-.28a5 5 0 01.72.48zm27-.46c.56.57.9.61-.23 1 0 0-.32-.28-.29-.34a4.08 4.08 0 01.52-.66zm27.13.02c.6.53.93.55-.11 1 0 0-.35-.23-.32-.3a4.15 4.15 0 01.43-.7zm-66.68-225.4c1.33.54 1.08.27.61 1.27-1.35-.5-1.06-.23-.61-1.27zm121.2 226.84c-.92-.77-1-.43.39-1.22.58.94.71.65-.39 1.22zm27.62-1.3c.83 1 1 .6-.63 1.28-.36-1.07-.55-.77.63-1.28zM500.26 306c-1.1-.61-1.07-.23 0-1.37.89.85.89.51 0 1.37zm-1.47-159.23c.57-.48.68-.84 1.12.12 0 .06-.26.33-.31.31a6.43 6.43 0 01-.81-.43zm174.66.48c.37.26.66.2-.21.91a2.25 2.25 0 01-.4-.27zm174.94 509.53c-.69.94-.27.92-1.55 0 .97-.78.57-.78 1.55 0zM672.77 100.56c.55-.53.67-.86 1.09.1 0 .07-.26.35-.3.33a6 6 0 01-.79-.43zm230.29 556.21c-.62.92-.24.92-1.45 0 .93-.77.55-.77 1.45 0zm-228.2-275.12c-.26.31-.21.57-.94-.15 0 0 .18-.23.28-.35zM984.33 657.5c-.2-.25-.58-.53-.54-.74a1 1 0 01.78-.49c.27.08.43.47.63.73zM501.25 424.25c-.87.09-1.23.34-.9-.74 0-.07.47-.13.5-.08a5.66 5.66 0 01.4.82zm304.22-269.61c.43.28.69.22-.22.93 0 0-.28-.17-.43-.27zm-92.28 155.87c1.23.51 1 .23.54 1.25-1.15-.45-1.07-.13-.54-1.25zM673.92 92.66l-.71.48a2.88 2.88 0 01-.29-.35c.79-.66.69-.5 1-.13zm-.34 70.17c.4.23.73.17-.17.91a2.94 2.94 0 01-.43-.26zm132.33.36l-1-.13c0-.15.1-.44.15-.44 1.2 0 .94.14.85.57zm-132.2 70.38c.24.54.28.35-.19.71-.39-.84-.46-.65.19-.71zm.7-7.57c-.44.45-.23.51-.74-.31.63-.12.44-.2.74.31zm131.26-7.43l-.62-.67c.16-.09.41-.28.45-.25.86.69.58.66.17.92zM674 155.76c-.76.08-1.08.29-.78-.67a.69.69 0 01.44-.07 4.12 4.12 0 01.34.74zm131.87-63.47c-.84.5-.64.46-.94.07.85-.51.63-.51.94-.07zm124.46 564.83l-1-.11c0-.16.06-.47.1-.47 1.2.01.98.1.9.58zm-54.56-.26c-.56.47-.67.83-1.13-.12 0-.06.27-.33.33-.31a6.16 6.16 0 01.8.43zM805.86 249.4c-.62 0-.46.17-.67-.41 1.06-.06.9-.19.67.41zM805 147.51c.56-.47.67-.81 1.12.12 0 .06-.27.33-.32.31a5.57 5.57 0 01-.8-.43zm15.33 508.85c.56.45 1 .55-.07.95-.08 0-.39-.21-.37-.25a5.13 5.13 0 01.44-.7zm-26.69.39c-.48.54-.51.86-1.1 0 0 0 .21-.34.26-.33a6.53 6.53 0 01.84.33zm-27.36.38c-.87.11-1.13.33-.88-.67 0-.05.41-.12.45-.06a3.59 3.59 0 01.43.73zM804.83 76.5c.4-.42.17-.48 1.07.13-.39.37-.16.47-1.07-.13zM674.28 210.41c-.17.48 0 .61-1.09.16a3.21 3.21 0 01.15-.44zm132.27 62.04c-.22.24-.27.61-.94-.19 0 0 .18-.25.27-.37.23.18.45.37.67.56zM675 373.63c-.48.39-.27.46-.78-.34.69-.14.49-.2.78.34zm-1-233.94a6.79 6.79 0 01-.74.43 1.64 1.64 0 01-.26-.33c.78-.66.67-.52 1-.1zM672.94 179c.29-.27.26-.5.93.19 0 0-.18.21-.28.32zm133.39 77.61l-.47.71a3.86 3.86 0 01-.43-.25c.43-.91.44-.71.9-.46zm-132.17 78.33c.27-.27.25-.54.91.18l-.28.34zm-1.28-250.08c.31-.37.22-.54 1 .14 0 0-.18.23-.29.35zm.43-15.7c-.41.38-.21.43-.7-.28.59-.12.39-.2.7.28zm132.6 62.59c-.39.42-.16.48-1.07-.16.39-.39.16-.46 1.07.16zm-.43 148.11c.64.25.5.11.42.63-.96-.39-.9-.21-.42-.63zm-.08-163.66l-.87-.13c0-.14.08-.41.12-.41 1.15.02.9.12.75.54zm-131.68 70.37c.12 1.06.18.83-.42.93-.12-1.04-.19-.81.42-.93zm131.82 8.18c-.49-.37-.55-.18.31-.66.15.56.25.39-.31.66zm-131.64.13c-.27.54-.1.43-.7.34.43-.8.23-.74.7-.34zm.1-70.95c-.91.54-.69.49-1 .07.87-.59.6-.59 1-.07zm-.26 78.38c.11 1.05.17.82-.41.92-.1-1.02-.18-.79.41-.92zm131.52-.13c.58-.18.4-.22.72.23-.9.27-.72.34-.72-.23zM674.94 404.4c.32.48.34.31-.08.7.03-.23.05-.46.08-.7zM806 210.24c-.18-.06-.68-.14-.21-.48 0 0 .24.07.37.11zM673.93 272.6c.62-.21.5-.29.43.25zm.07-101.38c-.42.35-.35.44-.23-.37zm-.48-63.15c.15.49.27.44-.46.12zm284.37 549.14c-.55.21-.39.31-.56-.43.67.1.47.02.56.43zM805.7 233.56c0 .1-.16.61-.56.19 0 0 .08-.22.12-.34zM538.58 495.41zM689.69 60.56a6.29 6.29 0 01-1.44-4.42V43.05a6.29 6.29 0 011.44-4.42 6.39 6.39 0 018.39 0 6.25 6.25 0 011.45 4.42v2.57h-3.62V42.8c0-1.5-.64-2.26-1.92-2.26s-1.91.76-1.91 2.26v13.62c0 1.48.63 2.23 1.91 2.23s1.92-.75 1.92-2.23v-3.73h3.62v3.45a6.25 6.25 0 01-1.45 4.42 6.39 6.39 0 01-8.39 0zm15.1-23.15H710l4 24.37h-3.83l-.69-4.84V57h-4.36l-.69 4.77h-3.55zM709 53.7l-1.7-12h-.07l-1.67 12zm8.18-12.81h-4v-3.48H725v3.48h-4v20.89h-3.83zm10.74 19.67a6.29 6.29 0 01-1.44-4.42V43.05a6.29 6.29 0 011.44-4.42 6.39 6.39 0 018.39 0 6.25 6.25 0 011.45 4.42v2.57h-3.62V42.8c0-1.5-.64-2.26-1.92-2.26s-1.91.76-1.91 2.26v13.62c0 1.48.64 2.23 1.91 2.23s1.92-.75 1.92-2.23v-3.73h3.62v3.45a6.25 6.25 0 01-1.45 4.42 6.39 6.39 0 01-8.39 0zm12.14-23.15h3.83v9.92H748v-9.92h3.83v24.37H748v-11h-4.11v11h-3.83zm14.06 10.44h7.66v3.48h-7.66zm11.29 12.69a6.42 6.42 0 01-1.47-4.54V37.41h3.83v18.87a2.64 2.64 0 00.51 1.81 1.85 1.85 0 001.44.56 1.87 1.87 0 001.45-.56 2.7 2.7 0 00.5-1.81V37.41h3.69V56a6.42 6.42 0 01-1.46 4.54 6.46 6.46 0 01-8.49 0zm12.67-23.13h5.64a5.58 5.58 0 014.28 1.53 6.37 6.37 0 011.43 4.49v2.4a6.4 6.4 0 01-1.43 4.5 5.58 5.58 0 01-4.28 1.53h-1.81v9.92h-3.83zm5.64 11a1.79 1.79 0 001.41-.53 2.66 2.66 0 00.47-1.77v-2.92a2.67 2.67 0 00-.47-1.78 1.78 1.78 0 00-1.41-.52h-1.81v7.49zm-81.15 30.78h5.64a5.59 5.59 0 014.29 1.53 6.37 6.37 0 011.43 4.49v2.41a6.37 6.37 0 01-1.43 4.49 5.59 5.59 0 01-4.29 1.53h-1.81v9.92h-3.83zm5.64 11a1.82 1.82 0 001.41-.52 2.62 2.62 0 00.48-1.78V85a2.62 2.62 0 00-.48-1.78 1.82 1.82 0 00-1.41-.52h-1.81v7.49zm7.79-11h10.45v3.48h-6.62v6.44h5.26v3.49h-5.26v7.48h6.62v3.48H716zm12.65 0h5.68a5.87 5.87 0 014.32 1.38A5.81 5.81 0 01740 84.8v1.49c0 2.53-.83 4.14-2.5 4.81v.07a3 3 0 012 1.7 8.48 8.48 0 01.58 3.45v4.28a15.39 15.39 0 00.07 1.69 4.15 4.15 0 00.35 1.27h-3.9a5.64 5.64 0 01-.28-1.11 16 16 0 01-.07-1.88v-4.46a3.78 3.78 0 00-.54-2.33 2.28 2.28 0 00-1.86-.66h-1.33v10.44h-3.83zm5.23 10.45a2.28 2.28 0 001.72-.6 2.79 2.79 0 00.57-2v-1.86a3.08 3.08 0 00-.47-1.92 1.78 1.78 0 00-1.48-.59h-1.74v7zm8.81-10.45h3.83v24.37h-3.83zm7.9 23.12a6.38 6.38 0 01-1.5-4.53V85a6.38 6.38 0 011.5-4.53 6.62 6.62 0 018.63 0 6.38 6.38 0 011.5 4.53v12.78a6.38 6.38 0 01-1.5 4.53 6.62 6.62 0 01-8.63 0zm6.3-4.28v-13.3c0-1.61-.66-2.41-2-2.41s-2 .8-2 2.41V98c0 1.6.66 2.4 2 2.4s2-.77 2-2.4zm6.41-18.84h5.85a5.58 5.58 0 014.28 1.53 6.37 6.37 0 011.43 4.49v12.33a6.37 6.37 0 01-1.43 4.49 5.58 5.58 0 01-4.28 1.53h-5.85zm5.78 20.89a1.81 1.81 0 001.44-.56 2.63 2.63 0 00.51-1.81V85a2.63 2.63 0 00-.51-1.81 1.85 1.85 0 00-1.44-.56h-2v17.41zM603.06 532.35a6.61 6.61 0 01-1.43-4.56v-1.4h3.64v1.68c0 1.58.66 2.38 2 2.38a1.89 1.89 0 001.49-.58 2.81 2.81 0 00.51-1.87 5.29 5.29 0 00-.7-2.72 12.91 12.91 0 00-2.59-2.81 15.51 15.51 0 01-3.33-3.8 7.74 7.74 0 01-.94-3.83 6.39 6.39 0 011.47-4.5 5.52 5.52 0 014.27-1.59 5.3 5.3 0 014.18 1.59 6.67 6.67 0 011.42 4.57v1h-3.65v-1.26a2.87 2.87 0 00-.49-1.84 1.8 1.8 0 00-1.44-.57q-1.92 0-1.92 2.34a4.62 4.62 0 00.72 2.49 13.48 13.48 0 002.6 2.8 14.55 14.55 0 013.33 3.81 8.56 8.56 0 01.91 4 6.6 6.6 0 01-1.49 4.62 5.6 5.6 0 01-4.32 1.7 5.4 5.4 0 01-4.24-1.65zm15.26-19.75h-4v-3.5h11.9v3.5h-4v21h-3.85zm11.1-3.5h5.21l4 24.5h-3.85l-.7-4.87v.07h-4.38l-.7 4.8h-3.57zm4.2 16.38l-1.72-12.11h-.07l-1.68 12.11zm6.86-16.38h5.7a4.93 4.93 0 015.71 5.63v1.51q0 3.81-2.52 4.83v.07a3 3 0 012 1.71 8.74 8.74 0 01.57 3.47v4.3c0 .7 0 1.27.07 1.7a4.61 4.61 0 00.35 1.28h-3.92a5.91 5.91 0 01-.28-1.12 18.69 18.69 0 01-.07-1.89v-4.48a3.85 3.85 0 00-.54-2.35 2.31 2.31 0 00-1.87-.66h-1.33v10.5h-3.85zm5.25 10.5a2.3 2.3 0 001.73-.6 2.77 2.77 0 00.58-2v-1.89a3.09 3.09 0 00-.48-1.93 1.76 1.76 0 00-1.48-.59h-1.75v7zm11.79-7h-4v-3.5h11.9v3.5h-4v21h-3.85zm18.34 0h-4v-3.5h11.9v3.5h-4v21h-3.85zm9.73-3.5h3.85v10h4.13v-10h3.85v24.5h-3.85v-11h-4.13v11h-3.85zm14.7 0h10.5v3.5h-6.65v6.47h5.29v3.5h-5.29v7.53h6.65v3.5h-10.5zm12.71 0h5.7a4.93 4.93 0 015.71 5.63v1.51q0 3.81-2.52 4.83v.07a3 3 0 012 1.71 8.74 8.74 0 01.57 3.47v4.3c0 .7 0 1.27.07 1.7a4.61 4.61 0 00.35 1.28h-3.92a5.91 5.91 0 01-.28-1.12 18.69 18.69 0 01-.07-1.89v-4.48a3.85 3.85 0 00-.54-2.35 2.31 2.31 0 00-1.87-.66h-1.33v10.5H713zm5.25 10.5a2.3 2.3 0 001.75-.6 2.77 2.77 0 00.58-2v-1.89a3.09 3.09 0 00-.48-1.93 1.76 1.76 0 00-1.48-.59h-1.75v7zm11.83-10.5h5.21l4 24.5h-3.85l-.7-4.87v.07h-4.37l-.7 4.8h-3.57zm4.2 16.38l-1.72-12.11h-.07l-1.68 12.11zm6.86-16.38h5.67a5.59 5.59 0 014.3 1.54 6.36 6.36 0 011.44 4.51v2.42a6.36 6.36 0 01-1.44 4.51 5.59 5.59 0 01-4.3 1.54H745v10h-3.85zm5.67 11a1.78 1.78 0 001.41-.52 2.65 2.65 0 00.48-1.79v-2.9a2.65 2.65 0 00-.48-1.79 1.78 1.78 0 00-1.41-.52H745v7.52zm11.19 3.07l-4.66-14.07h4.1l2.62 9h.07l2.63-9h3.74l-4.65 14.07v10.43H758zM494.15 680h-3.38v-1.87a10.22 10.22 0 002.22-.19 3 3 0 001.34-.64 3.83 3.83 0 00.88-1.28h2.18v16.8h-3.24zm21.99 11a6.31 6.31 0 01.7-3.08 11.05 11.05 0 012.53-2.84 13 13 0 002.49-2.67 4.26 4.26 0 00.69-2.3 2.1 2.1 0 00-.42-1.5 1.74 1.74 0 00-1.26-.42 1.47 1.47 0 00-1.67 1.65v1.8h-3.06V680a4 4 0 011.23-3.13 6.46 6.46 0 017.18 0 3.94 3.94 0 011.24 3.13 5.63 5.63 0 01-.9 3 15.32 15.32 0 01-3.1 3.36 11.07 11.07 0 00-1.95 2 3.08 3.08 0 00-.5 1.67v.36h6.16v2.4h-9.36zm27.62 1a3.9 3.9 0 01-1.22-3.1v-1.37h3.06V689a1.47 1.47 0 001.67 1.66 1.74 1.74 0 001.26-.42 2.06 2.06 0 00.42-1.48v-1.37a1.81 1.81 0 00-2.12-2.13h-1.09v-2.4h1.18a2.23 2.23 0 001.46-.41 1.71 1.71 0 00.48-1.37v-1.22a1.47 1.47 0 00-1.61-1.68 1.38 1.38 0 00-1.56 1.56v1.1h-3.07V680a3.89 3.89 0 011.23-3.09 6.32 6.32 0 017 0 3.89 3.89 0 011.2 3.08v.6a3.84 3.84 0 01-.56 2.2 3.08 3.08 0 01-1.73 1.18v.03a3.15 3.15 0 011.82 1.25 4 4 0 01.56 2.21v1.49A3.88 3.88 0 01551 692a5.37 5.37 0 01-3.61 1.07 5.27 5.27 0 01-3.63-1.07zm31-2.23h-6.18v-2.4l5.89-11.37H578v11.35h1.53v2.4H578v3.05h-3.24zm0-2.4v-6.55l-3.18 6.55zm22.31 4.63a4 4 0 01-1.23-3.14v-1.32h3.06V689a1.68 1.68 0 003.35 0v-3.77a1.68 1.68 0 00-3.35 0v.14h-3.06l.59-9.38H605v2.4h-5.65l-.26 4h.05a3.27 3.27 0 012.8-1.23 3.47 3.47 0 012.68 1 4 4 0 01.91 2.85v3.79a4 4 0 01-1.23 3.14 6.47 6.47 0 01-7.19 0zm26.55 0a3.91 3.91 0 01-1.26-3.12v-8.68c0-2.92 1.64-4.37 4.94-4.37a5.24 5.24 0 013.59 1.09 3.94 3.94 0 011.24 3.13v.31h-3.06v-.48a1.47 1.47 0 00-1.68-1.65 1.84 1.84 0 00-1.36.45 2.33 2.33 0 00-.44 1.61v3.22h.06a3.13 3.13 0 013-1.47 3.44 3.44 0 012.67 1 4 4 0 01.92 2.85v3a3.92 3.92 0 01-1.27 3.12 6.56 6.56 0 01-7.3 0zm5.38-3v-3a1.68 1.68 0 00-3.36 0v3a1.68 1.68 0 003.36 0zm26.41-10.58h-6.54V676h9.72v2.3l-5.07 14.5h-3.29zM683.09 692a3.75 3.75 0 01-1.31-3.08v-1.49a4.13 4.13 0 01.5-2.1 3.26 3.26 0 011.62-1.33 3.32 3.32 0 01-1.52-1.26 4 4 0 01-.48-2.06v-.69a3.75 3.75 0 011.28-3.08 6.81 6.81 0 017.33 0 3.78 3.78 0 011.28 3.08v.69a3.33 3.33 0 01-2 3.32 3.28 3.28 0 011.61 1.33 4 4 0 01.5 2.1v1.49a3.75 3.75 0 01-1.3 3.08 7.12 7.12 0 01-7.51 0zm5.58-3.23v-1.61a1.64 1.64 0 00-1.83-1.89c-1.21 0-1.82.63-1.82 1.89v1.61c0 1.27.61 1.9 1.82 1.9s1.83-.67 1.83-1.91zm-.12-7.58v-1.32a1.71 1.71 0 00-3.41 0v1.32a1.71 1.71 0 003.41 0zM709.71 692a4 4 0 01-1.24-3.14v-.31h3.07v.45a1.47 1.47 0 001.67 1.66 1.81 1.81 0 001.36-.46 2.31 2.31 0 00.44-1.61v-3.21H715a3.13 3.13 0 01-2.94 1.46 3.5 3.5 0 01-2.68-1 4.06 4.06 0 01-.91-2.86v-3a3.94 3.94 0 011.26-3.12 6.61 6.61 0 017.3 0 4 4 0 011.27 3.12v8.69q0 4.37-5 4.37a5.31 5.31 0 01-3.59-1.04zm5.3-9.18v-3a1.68 1.68 0 00-3.36 0v3a1.68 1.68 0 003.36 0zm14.74-2.82h-3.38v-1.87a10.22 10.22 0 002.22-.19 3 3 0 001.34-.64 3.69 3.69 0 00.88-1.28H733v16.8h-3.24zm8.25 12a3.89 3.89 0 01-1.27-3.12V680a3.91 3.91 0 011.27-3.12 6.59 6.59 0 017.29 0 3.91 3.91 0 011.27 3.12v8.83a3.89 3.89 0 01-1.27 3.12 6.54 6.54 0 01-7.29 0zm5.32-3v-9.17a1.68 1.68 0 00-3.35 0V689a1.68 1.68 0 003.35 0zm14.68-9h-3.39v-1.87a10.26 10.26 0 002.23-.19 3 3 0 001.34-.64 3.83 3.83 0 00.88-1.28h2.18v16.8H758zm11.78 0h-3.38v-1.87a10.22 10.22 0 002.22-.19 3 3 0 001.34-.64 3.69 3.69 0 00.88-1.28H773v16.8h-3.24zm16.48 0h-3.38v-1.87a10.22 10.22 0 002.22-.19 3 3 0 001.34-.64 3.69 3.69 0 00.88-1.28h2.18v16.8h-3.24zm7.19 11a6.31 6.31 0 01.7-3.08 11.05 11.05 0 012.53-2.84 13 13 0 002.49-2.67 4.26 4.26 0 00.69-2.3 2.1 2.1 0 00-.42-1.5 1.74 1.74 0 00-1.26-.42 1.47 1.47 0 00-1.67 1.65v1.8h-3.06V680a4 4 0 011.23-3.13 6.46 6.46 0 017.18 0 3.94 3.94 0 011.24 3.13 5.63 5.63 0 01-.9 3 15.32 15.32 0 01-3.1 3.36 11.07 11.07 0 00-2 2 3.08 3.08 0 00-.5 1.67v.36h6.16v2.4h-9.36zm21.07-11h-3.39v-1.87a10.26 10.26 0 002.23-.19 3 3 0 001.34-.64 3.83 3.83 0 00.88-1.28h2.18v16.8h-3.24zm8.23 12a3.9 3.9 0 01-1.23-3.1v-1.37h3.06V689a1.47 1.47 0 001.68 1.66 1.7 1.7 0 001.25-.42 2 2 0 00.43-1.48v-1.37a1.81 1.81 0 00-2.12-2.13h-1.09v-2.4h1.18a2.25 2.25 0 001.46-.41 1.71 1.71 0 00.48-1.37v-1.22a1.47 1.47 0 00-1.62-1.68 1.38 1.38 0 00-1.56 1.56v1.1h-3.06V680a3.92 3.92 0 011.22-3.09 6.32 6.32 0 017 0 3.86 3.86 0 011.21 3.08v.6a3.92 3.92 0 01-.56 2.2 3.07 3.07 0 01-1.74 1.18v.03a3.15 3.15 0 011.83 1.25 4 4 0 01.56 2.21v1.49A3.88 3.88 0 01830 692a5.37 5.37 0 01-3.61 1.07 5.27 5.27 0 01-3.64-1.07zm20.02-12h-3.38v-1.87a10.22 10.22 0 002.22-.19 3 3 0 001.34-.64 3.69 3.69 0 00.88-1.28H846v16.8h-3.24zm12.66 9.77h-6.18v-2.4l5.89-11.37h3.53v11.35h1.53v2.4h-1.53v3.05h-3.24zm0-2.4v-6.55h-.06l-3.18 6.55zM871 680h-3.39v-1.87a10.26 10.26 0 002.23-.19 3 3 0 001.34-.64 3.83 3.83 0 00.88-1.28h2.18v16.8H871zm8.42 12a4 4 0 01-1.24-3.14v-1.32h3.06V689a1.68 1.68 0 003.36 0v-3.77a1.68 1.68 0 00-3.36 0v.14h-3.06l.59-9.38h8.54v2.4h-5.65l-.27 4h.06a3.26 3.26 0 012.8-1.23 3.44 3.44 0 012.67 1 4 4 0 01.92 2.85v3.79a4 4 0 01-1.24 3.2 6.46 6.46 0 01-7.18 0zm19.86-12h-3.38v-1.87a10.22 10.22 0 002.22-.19 3 3 0 001.34-.64 3.69 3.69 0 00.88-1.28h2.18v16.8h-3.24zm8.36 12a3.91 3.91 0 01-1.26-3.12v-8.68c0-2.92 1.65-4.37 4.94-4.37a5.24 5.24 0 013.59 1.09 3.94 3.94 0 011.24 3.13v.31h-3.06v-.48a1.47 1.47 0 00-1.68-1.65 1.8 1.8 0 00-1.35.45 2.28 2.28 0 00-.44 1.61v3.22a3.13 3.13 0 013-1.47 3.48 3.48 0 012.68 1 4.06 4.06 0 01.91 2.85v3a3.89 3.89 0 01-1.27 3.12 6.56 6.56 0 01-7.3 0zm5.36-3v-3a1.68 1.68 0 00-3.35 0v3a1.68 1.68 0 003.35 0zm14.54-9h-3.38v-1.87a10.22 10.22 0 002.22-.19 3 3 0 001.34-.64 3.83 3.83 0 00.88-1.28h2.18v16.8h-3.24zm13.57-1.58h-6.54V676h9.72v2.3l-5.07 14.5h-3.29zm14.68 1.58h-3.38v-1.87a10.22 10.22 0 002.22-.19 3 3 0 001.34-.64 3.69 3.69 0 00.88-1.28H959v16.8h-3.24zm8.21 12a3.75 3.75 0 01-1.31-3.08v-1.49a4.13 4.13 0 01.5-2.1 3.35 3.35 0 011.62-1.33 3.24 3.24 0 01-1.51-1.26 3.88 3.88 0 01-.49-2.06v-.69a3.78 3.78 0 011.28-3.08 6.81 6.81 0 017.33 0 3.78 3.78 0 011.28 3.08v.69a3.33 3.33 0 01-2 3.32 3.35 3.35 0 011.62 1.33 4.13 4.13 0 01.5 2.1v1.49a3.75 3.75 0 01-1.31 3.08 7.12 7.12 0 01-7.51 0zm5.58-3.23v-1.61a1.64 1.64 0 00-1.83-1.89c-1.21 0-1.82.63-1.82 1.89v1.61c0 1.27.61 1.9 1.82 1.9s1.79-.67 1.79-1.91zm-.12-7.58v-1.32a1.71 1.71 0 00-3.41 0v1.32a1.71 1.71 0 003.41 0zm14.59-1.19h-3.38v-1.87a10.22 10.22 0 002.22-.19 3 3 0 001.34-.64 3.83 3.83 0 00.88-1.28h2.18v16.8h-3.24zm8.21 12a4 4 0 01-1.23-3.14v-.31h3.06v.45a1.47 1.47 0 001.67 1.66 1.81 1.81 0 001.36-.46 2.31 2.31 0 00.44-1.61v-3.21h-.06a3.13 3.13 0 01-2.94 1.46 3.5 3.5 0 01-2.68-1A4.06 4.06 0 01991 683v-3a3.94 3.94 0 011.26-3.12 6.61 6.61 0 017.3 0 3.91 3.91 0 011.27 3.12v8.69q0 4.37-4.95 4.37a5.31 5.31 0 01-3.62-1.06zm5.3-9.18v-3a1.68 1.68 0 00-3.35 0v3a1.68 1.68 0 003.35 0zM697 716.32h5.22l4 24.5h-3.85l-.7-4.87v.05h-4.38l-.7 4.8H693zm4.2 16.38l-1.71-12.12h-.07l-1.68 12.12zm7.93 6.87a6.48 6.48 0 01-1.47-4.56v-12.89a6.48 6.48 0 011.47-4.56 6.53 6.53 0 018.54 0 6.48 6.48 0 011.47 4.56v2.11h-3.64v-2.35c0-1.61-.66-2.41-2-2.41s-2 .8-2 2.41v13.41c0 1.58.67 2.38 2 2.38s2-.8 2-2.38v-4.8h-1.92V727h5.56v8a6.48 6.48 0 01-1.47 4.56 6.5 6.5 0 01-8.54 0zm12.5-23.25h10.5v3.5h-6.65v6.47h5.28v3.5h-5.28v7.53h6.65v3.5h-10.5zm19.96 25.02c-.83-.82-1.24-2.19-1.24-4.13v-17.29c0-1.94.41-3.31 1.24-4.13s2.21-1.22 4.15-1.22h1.19v3.15H746a1.74 1.74 0 00-1.37.47 2.64 2.64 0 00-.42 1.73v17.29a2.64 2.64 0 00.42 1.73 1.74 1.74 0 001.37.48h.94v3.15h-1.19c-1.95 0-3.33-.41-4.16-1.23zm11.88-10.95l-4.65-14.07h4.1l2.62 9h.07l2.63-9H762l-4.65 14.07v10.43h-3.86zm10.26-14.07h10.5v3.5h-6.65v6.47h5.29v3.5h-5.29v7.53h6.65v3.5h-10.5zm15.68 0h5.21l4 24.5h-3.85l-.7-4.87v.05h-4.37l-.7 4.8h-3.57zm4.2 16.38l-1.72-12.12h-.07l-1.68 12.12zm6.86-16.38h5.7a4.93 4.93 0 015.71 5.63v1.51q0 3.81-2.52 4.83v.07a3 3 0 012 1.71 8.74 8.74 0 01.57 3.47v4.3c0 .7 0 1.27.07 1.7a4.61 4.61 0 00.35 1.28h-3.92a5.91 5.91 0 01-.28-1.12 18.69 18.69 0 01-.07-1.89v-4.48a3.83 3.83 0 00-.54-2.35 2.29 2.29 0 00-1.87-.66h-1.33v10.5h-3.85zm5.25 10.5a2.29 2.29 0 001.73-.6 2.78 2.78 0 00.58-2v-1.9a3.15 3.15 0 00-.47-1.92 1.78 1.78 0 00-1.49-.59h-1.75v7zm8.64 12.6h.95a1.72 1.72 0 001.36-.48 2.64 2.64 0 00.42-1.73v-17.29a2.64 2.64 0 00-.42-1.73 1.71 1.71 0 00-1.36-.47h-.95v-3.15h1.19c1.94 0 3.32.4 4.15 1.22s1.24 2.19 1.24 4.13v17.29c0 1.94-.41 3.31-1.24 4.13s-2.21 1.23-4.15 1.23h-1.19zM392 427.75v-3.85h10v-4.12h-10v-3.86h24.5v3.86h-11v4.12h11v3.85zm0-14.7v-10.5h3.5v6.66h6.5v-5.29h3.5v5.29h7.5v-6.66h3.5v10.5zm0-12.7v-3.85h24.5v3.85zm23.25-7.91a6.5 6.5 0 01-4.57 1.47H397.8a6.52 6.52 0 01-4.57-1.47 6.53 6.53 0 010-8.54 6.52 6.52 0 014.57-1.47h2.1v3.64h-2.34c-1.61 0-2.42.67-2.42 2s.81 2 2.42 2H411c1.59 0 2.38-.66 2.38-2s-.79-2-2.38-2h-4.79V388h-3.5v-5.57h8a6.5 6.5 0 014.57 1.47 6.53 6.53 0 010 8.54zM392 380v-3.9h10V372h-10v-3.85h24.5V372h-11v4.13h11V380zm3.49-17.76v4H392v-11.9h3.5v4h21v3.85zm21.51-17c-.82.83-2.2 1.25-4.13 1.25H395.6c-1.94 0-3.32-.42-4.13-1.25s-1.23-2.21-1.23-4.14v-1.19h3.15v.94a1.77 1.77 0 00.47 1.37 2.7 2.7 0 001.74.42h17.29a2.66 2.66 0 001.73-.42 1.77 1.77 0 00.47-1.37v-.94h3.15v1.19c0 1.9-.41 3.32-1.24 4.14zm-1.73-9.24a6.33 6.33 0 01-4.45 1.45h-13.16a6.3 6.3 0 01-4.44-1.45 6.43 6.43 0 010-8.44 6.35 6.35 0 014.44-1.45h2.59v3.64h-2.83c-1.52 0-2.28.64-2.28 1.93s.76 1.92 2.28 1.92h13.68c1.49 0 2.24-.64 2.24-1.92s-.75-1.93-2.24-1.93h-3.74v-3.64h3.46a6.37 6.37 0 014.45 1.45 6.46 6.46 0 010 8.44zM392 323.84v-5.49l17.54-2.45v-.07L392 313.38v-5.5h24.5v3.64h-18.56v.07l18.55 2.8v3.22l-18.55 2.8v.07h18.55v3.36zm23.09-18.62v-.94a1.77 1.77 0 00-.47-1.37 2.66 2.66 0 00-1.73-.42H395.6a2.7 2.7 0 00-1.74.42 1.77 1.77 0 00-.47 1.37v.94h-3.15V304a5.78 5.78 0 011.23-4.15c.81-.82 2.19-1.24 4.13-1.24h17.29a5.71 5.71 0 014.13 1.24 5.83 5.83 0 011.22 4.15v1.19zm26.43-192.05a10.07 10.07 0 01.82-4.23 14.73 14.73 0 012.94-3.89 17.29 17.29 0 002.89-3.65 6.7 6.7 0 00.8-3.15 3.24 3.24 0 00-.49-2.06 1.83 1.83 0 00-1.46-.57c-1.29 0-1.94.75-1.94 2.27v2.46h-3.56v-2.23a5.92 5.92 0 011.48-4.29 6.55 6.55 0 018.34 0 6 6 0 011.43 4.29 8.82 8.82 0 01-1 4.1 20.4 20.4 0 01-3.61 4.6 14.4 14.4 0 00-2.25 2.78 4.7 4.7 0 00-.58 2.29v.49h7.14v3.28h-10.95zm14.94 1.31a5.87 5.87 0 01-1.47-4.27V98.12a5.9 5.9 0 011.47-4.28 6.69 6.69 0 018.47 0 5.9 5.9 0 011.47 4.28v12.09a5.87 5.87 0 01-1.47 4.27 6.69 6.69 0 01-8.47 0zm6.18-4V97.89c0-1.52-.65-2.27-1.95-2.27s-1.94.75-1.94 2.27v12.55c0 1.51.64 2.27 1.94 2.27s1.95-.71 1.95-2.27zm7.48 4a5.91 5.91 0 01-1.46-4.27V98.12a5.94 5.94 0 011.46-4.28 6.71 6.71 0 018.48 0 5.9 5.9 0 011.47 4.28v12.09a5.87 5.87 0 01-1.47 4.27 6.71 6.71 0 01-8.48 0zm6.19-4V97.89c0-1.52-.65-2.27-1.95-2.27s-1.95.75-1.95 2.27v12.55c0 1.51.65 2.27 1.95 2.27s1.95-.71 1.95-2.27zm-29.46 27.07h-3.93V135a10.51 10.51 0 002.58-.26 3.31 3.31 0 001.56-.88 5.11 5.11 0 001-1.75h2.53v23h-3.76zm9.54 16.38a5.91 5.91 0 01-1.44-4.28v-.43h3.56v.66c0 1.51.65 2.26 1.94 2.26a2 2 0 001.58-.62 3.57 3.57 0 00.51-2.2v-4.41h-.07a3.5 3.5 0 01-3.42 2 3.73 3.73 0 01-3.11-1.35 6.26 6.26 0 01-1.06-3.91v-4.11a5.87 5.87 0 011.47-4.27 6.71 6.71 0 018.48 0 5.87 5.87 0 011.47 4.27v11.9c0 4-1.92 6-5.74 6a5.48 5.48 0 01-4.17-1.51zm6.15-12.57v-4.07c0-1.49-.65-2.24-2-2.24s-1.95.75-1.95 2.24v4.07c0 1.52.65 2.27 1.95 2.27s2-.75 2-2.27zm7.58 12.56a5.91 5.91 0 01-1.46-4.27v-12.1a5.91 5.91 0 011.46-4.27 6.71 6.71 0 018.48 0 5.87 5.87 0 011.47 4.27v12.1a5.87 5.87 0 01-1.47 4.27 6.71 6.71 0 01-8.48 0zm6.19-4v-12.6c0-1.51-.65-2.27-1.95-2.27s-1.95.76-1.95 2.27v12.56c0 1.51.65 2.26 1.95 2.26s1.95-.75 1.95-2.26zM446.85 177h-3.93v-2.57a10 10 0 002.58-.26 3.22 3.22 0 001.56-.87 5.17 5.17 0 001-1.76h2.53v23h-3.76zm9.49 16.4a5.55 5.55 0 01-1.52-4.22v-2a6.33 6.33 0 01.58-2.87 4 4 0 011.88-1.83v-.06a3.93 3.93 0 01-1.76-1.73 6.08 6.08 0 01-.57-2.81v-1a5.65 5.65 0 011.49-4.22 6.89 6.89 0 018.51 0 5.65 5.65 0 011.48 4.22v1q0 3.28-2.32 4.54v.06a4.07 4.07 0 011.88 1.83 6.33 6.33 0 01.58 2.87v2a5.59 5.59 0 01-1.52 4.22 7.23 7.23 0 01-8.71 0zm6.47-4.42v-2.2c0-1.73-.7-2.6-2.12-2.6s-2.12.87-2.12 2.6V189c0 1.73.71 2.6 2.12 2.6s2.12-.89 2.12-2.6zm-.13-10.38v-1.81c0-1.53-.67-2.3-2-2.3s-2 .77-2 2.3v1.81c0 1.53.66 2.3 2 2.3s2-.77 2-2.3zm7.44 14.75a5.9 5.9 0 01-1.46-4.27V177a5.94 5.94 0 011.46-4.28 6.71 6.71 0 018.48 0 5.9 5.9 0 011.47 4.28v12.09a5.86 5.86 0 01-1.47 4.27 6.71 6.71 0 01-8.48 0zm6.19-4v-12.59c0-1.51-.65-2.27-1.95-2.27s-1.95.76-1.95 2.27v12.55c0 1.51.65 2.27 1.95 2.27s1.95-.76 1.95-2.27zm-29.46 27.07h-3.93v-2.56a10.51 10.51 0 002.58-.26 3.39 3.39 0 001.56-.87 5.27 5.27 0 001-1.76h2.53v23h-3.76zm15.76-2.17H455V211h11.3v3.15L460.42 234h-3.83zm7.51 18.54a5.91 5.91 0 01-1.46-4.27v-12.1a5.91 5.91 0 011.46-4.27 6.71 6.71 0 018.48 0 5.87 5.87 0 011.47 4.27v12.1a5.87 5.87 0 01-1.47 4.27 6.71 6.71 0 01-8.48 0zm6.19-4v-12.6c0-1.51-.65-2.27-1.95-2.27s-1.95.76-1.95 2.27v12.56c0 1.51.65 2.26 1.95 2.26s1.95-.75 1.95-2.26zm-29.46 27.07h-3.93v-2.57a10 10 0 002.58-.26 3.22 3.22 0 001.56-.87 5.07 5.07 0 001-1.76h2.53v23h-3.76zm9.71 16.36a5.86 5.86 0 01-1.47-4.27v-11.89q0-6 5.74-6a5.51 5.51 0 014.17 1.5 6 6 0 011.43 4.29v.43h-3.55v-.66c0-1.51-.65-2.27-1.95-2.27a1.93 1.93 0 00-1.57.62 3.59 3.59 0 00-.51 2.21v4.4h.07a3.49 3.49 0 013.41-2 3.7 3.7 0 013.11 1.34 6.2 6.2 0 011.06 3.91V268a5.86 5.86 0 01-1.47 4.27 6.66 6.66 0 01-8.47 0zm6.18-4v-4.07c0-1.51-.65-2.27-1.94-2.27s-1.95.76-1.95 2.27v4.07c0 1.49.65 2.24 1.95 2.24s1.94-.76 1.94-2.25zm7.38 4a5.9 5.9 0 01-1.46-4.27v-12.09a5.9 5.9 0 011.46-4.27 6.67 6.67 0 018.48 0 5.86 5.86 0 011.47 4.27V268a5.86 5.86 0 01-1.47 4.27 6.67 6.67 0 01-8.48 0zm6.19-4v-12.59c0-1.51-.65-2.27-1.95-2.27s-1.95.76-1.95 2.27v12.55c0 1.51.65 2.27 1.95 2.27s1.95-.76 1.95-2.27zm-29.46 27.07h-3.93v-2.56a10.51 10.51 0 002.58-.26 3.39 3.39 0 001.56-.87 5.17 5.17 0 001-1.76h2.53v23h-3.76zm9.74 16.39a6 6 0 01-1.43-4.29v-1.81h3.55v2.07c0 1.49.65 2.23 2 2.23s1.95-.74 1.95-2.23v-5.16c0-1.51-.65-2.27-1.95-2.27s-2 .76-2 2.27v.2h-3.55l.68-12.85h9.91v3.28h-6.56l-.31 5.49h.12a3.59 3.59 0 013.25-1.67 3.75 3.75 0 013.11 1.34 6.28 6.28 0 011.06 3.91v5.2a6 6 0 01-1.44 4.29 6.58 6.58 0 01-8.34 0zm13.53-.02a5.91 5.91 0 01-1.46-4.27v-12.1a5.91 5.91 0 011.46-4.27 6.71 6.71 0 018.48 0 5.87 5.87 0 011.47 4.27v12.1a5.87 5.87 0 01-1.47 4.27 6.71 6.71 0 01-8.48 0zm6.19-4v-12.6c0-1.51-.65-2.26-1.95-2.26s-1.95.75-1.95 2.26v12.56c0 1.51.65 2.26 1.95 2.26s1.95-.75 1.95-2.26zm-29.46 27.07h-3.93v-2.56a10 10 0 002.58-.27 3.22 3.22 0 001.56-.87 5.07 5.07 0 001-1.76h2.53v23h-3.76zm14.7 13.37h-7.18v-3.28l6.84-15.55h4.1v15.55h1.77v3.28h-1.77v4.18h-3.76zm0-3.28v-9h-.07l-3.69 9zm8.57 6.27a5.9 5.9 0 01-1.46-4.27v-12.09a5.9 5.9 0 011.46-4.27 6.71 6.71 0 018.48 0 5.86 5.86 0 011.47 4.27v12.09a5.86 5.86 0 01-1.47 4.27 6.67 6.67 0 01-8.48 0zm6.19-4V334.5c0-1.51-.65-2.27-1.95-2.27s-1.95.76-1.95 2.27v12.55c0 1.51.65 2.27 1.95 2.27s1.95-.76 1.95-2.27zm-29.46 27.07h-3.93v-2.56a10.51 10.51 0 002.58-.26 3.39 3.39 0 001.56-.87 5.17 5.17 0 001-1.76h2.53v23h-3.76zm9.55 16.4a5.9 5.9 0 01-1.41-4.24v-1.87h3.55v2c0 1.51.65 2.27 1.95 2.27a1.82 1.82 0 001.45-.58 3.14 3.14 0 00.5-2v-1.87a3.44 3.44 0 00-.59-2.26 2.36 2.36 0 00-1.87-.67h-1.27v-3.29h1.37a2.32 2.32 0 001.69-.55 2.58 2.58 0 00.56-1.88V374a2.51 2.51 0 00-.51-1.74 1.74 1.74 0 00-1.37-.56c-1.2 0-1.81.71-1.81 2.13v1.51h-3.55v-1.24a5.86 5.86 0 011.42-4.24 5.36 5.36 0 014.08-1.48 5.43 5.43 0 014.1 1.46 5.91 5.91 0 011.4 4.23v.82a5.91 5.91 0 01-.65 3 3.62 3.62 0 01-2 1.63v.07a3.75 3.75 0 012.12 1.71 6.23 6.23 0 01.64 3v2a5.85 5.85 0 01-1.41 4.22 6.71 6.71 0 01-8.38 0zm13.72-.03a5.91 5.91 0 01-1.46-4.27v-12.1a5.91 5.91 0 011.46-4.27 6.71 6.71 0 018.48 0 5.87 5.87 0 011.47 4.27v12.1a5.87 5.87 0 01-1.47 4.27 6.71 6.71 0 01-8.48 0zm6.19-4v-12.6c0-1.51-.65-2.26-1.95-2.26s-1.95.75-1.95 2.26v12.56c0 1.51.65 2.27 1.95 2.27s1.95-.76 1.95-2.27zm-29.46 27.07h-3.93V411a10 10 0 002.58-.27 3.22 3.22 0 001.56-.87 5.07 5.07 0 001-1.76h2.53v23h-3.76zm8.34 15.05a9.87 9.87 0 01.82-4.22 14.91 14.91 0 012.94-3.9 17.54 17.54 0 002.89-3.64 6.71 6.71 0 00.8-3.16 3.2 3.2 0 00-.49-2.05 1.82 1.82 0 00-1.46-.58c-1.3 0-1.94.76-1.94 2.27v2.46h-3.56v-2.23a6 6 0 011.44-4.29 6.57 6.57 0 018.33 0 6 6 0 011.44 4.29 8.89 8.89 0 01-1 4.11 20.62 20.62 0 01-3.61 4.6 14 14 0 00-2.25 2.77 4.72 4.72 0 00-.58 2.29v.49h7.14v3.29h-10.91zm14.93 1.35a5.94 5.94 0 01-1.46-4.28V413.6a5.9 5.9 0 011.46-4.27 6.71 6.71 0 018.48 0 5.86 5.86 0 011.47 4.27v12.09a5.9 5.9 0 01-1.47 4.31 6.71 6.71 0 01-8.48 0zm6.19-4.05v-12.58c0-1.51-.65-2.27-1.95-2.27s-1.95.76-1.95 2.27v12.55c0 1.51.65 2.27 1.95 2.27s1.95-.76 1.95-2.27zM446.85 453h-3.93v-2.57a10.51 10.51 0 002.58-.26 3.39 3.39 0 001.56-.87 5.17 5.17 0 001-1.76h2.53v23h-3.76zm13.67 0h-3.93v-2.57a10.51 10.51 0 002.58-.26 3.39 3.39 0 001.56-.87 5.34 5.34 0 001-1.76h2.53v23h-3.76zm9.6 16.4a5.91 5.91 0 01-1.46-4.27V453a5.94 5.94 0 011.46-4.28 6.71 6.71 0 018.48 0 5.9 5.9 0 011.47 4.28v12.09a5.87 5.87 0 01-1.47 4.27 6.71 6.71 0 01-8.48 0zm6.19-4v-12.6c0-1.51-.65-2.26-1.95-2.26s-1.95.75-1.95 2.26v12.56c0 1.51.65 2.27 1.95 2.27s1.95-.76 1.95-2.27zm-29.46 27.07h-3.93v-2.56a10 10 0 002.58-.27 3.22 3.22 0 001.56-.87 5.11 5.11 0 001-1.75h2.53v23h-3.76zm9.61 16.37a5.9 5.9 0 01-1.47-4.28v-12.09a5.87 5.87 0 011.47-4.27 6.69 6.69 0 018.47 0 5.87 5.87 0 011.47 4.27v12.09a5.9 5.9 0 01-1.47 4.28 6.69 6.69 0 01-8.47 0zm6.18-4v-12.6c0-1.51-.65-2.27-1.95-2.27s-1.94.76-1.94 2.27v12.55c0 1.52.64 2.27 1.94 2.27s1.95-.75 1.95-2.27zm7.48 4a5.94 5.94 0 01-1.46-4.28v-12.09a5.91 5.91 0 011.46-4.27 6.71 6.71 0 018.48 0 5.87 5.87 0 011.47 4.27v12.09a5.9 5.9 0 01-1.47 4.28 6.71 6.71 0 01-8.48 0zm6.19-4v-12.6c0-1.51-.65-2.27-1.95-2.27s-1.95.76-1.95 2.27v12.55c0 1.52.65 2.27 1.95 2.27s1.95-.75 1.95-2.27zm-26.76 43.45a6 6 0 01-1.43-4.29v-.43h3.55v.66c0 1.51.65 2.27 1.95 2.27a1.9 1.9 0 001.57-.63 3.55 3.55 0 00.51-2.2v-4.4h-.06a3.52 3.52 0 01-3.42 2 3.7 3.7 0 01-3.11-1.35 6.18 6.18 0 01-1.06-3.91v-4.1a5.9 5.9 0 011.47-4.28 6.69 6.69 0 018.47 0 5.9 5.9 0 011.47 4.28v11.89q0 6-5.74 6a5.51 5.51 0 01-4.17-1.51zm6.15-12.57v-4.08c0-1.49-.65-2.23-1.94-2.23s-1.95.74-1.95 2.23v4.08c0 1.51.65 2.27 1.95 2.27s1.94-.76 1.94-2.27zm7.59 12.55a5.87 5.87 0 01-1.47-4.27v-12.09a5.9 5.9 0 011.47-4.28 6.71 6.71 0 018.48 0 5.94 5.94 0 011.46 4.28V544a5.91 5.91 0 01-1.46 4.27 6.71 6.71 0 01-8.48 0zm6.19-4v-12.59c0-1.52-.65-2.27-2-2.27s-1.95.75-1.95 2.27v12.55c0 1.51.65 2.27 1.95 2.27s2-.76 2-2.27zm-19.98 43.49a5.63 5.63 0 01-1.52-4.23v-2a6.4 6.4 0 01.58-2.88 4.1 4.1 0 011.88-1.82v-.07a4 4 0 01-1.76-1.72 6.25 6.25 0 01-.56-2.81v-1a5.66 5.66 0 011.48-4.23 6.93 6.93 0 018.51 0 5.67 5.67 0 011.49 4.22v1c0 2.19-.78 3.7-2.32 4.53v.07a4.1 4.1 0 011.88 1.82 6.54 6.54 0 01.58 2.88v2a5.63 5.63 0 01-1.52 4.23 7.24 7.24 0 01-8.72 0zm6.48-4.42v-2.21c0-1.73-.71-2.59-2.12-2.59s-2.12.86-2.12 2.59v2.21c0 1.73.71 2.59 2.12 2.59s2.14-.86 2.14-2.59zm-.14-10.34v-1.81c0-1.53-.66-2.3-2-2.3s-2 .77-2 2.3V573c0 1.54.66 2.3 2 2.3s2-.81 2-2.3zm7.45 14.71a5.87 5.87 0 01-1.47-4.27v-12.1a5.87 5.87 0 011.47-4.27 6.71 6.71 0 018.48 0 5.91 5.91 0 011.46 4.27v12.1a5.91 5.91 0 01-1.46 4.27 6.71 6.71 0 01-8.48 0zm6.19-4v-12.6c0-1.51-.65-2.27-2-2.27s-1.95.76-1.95 2.27v12.56c0 1.51.65 2.26 1.95 2.26s2-.75 2-2.26zm-13.71 24.9h-7.58v-3.29h11.27v3.16l-5.88 19.85h-3.82zm7.52 18.53a5.86 5.86 0 01-1.47-4.27v-12.09a5.9 5.9 0 011.47-4.28 6.71 6.71 0 018.48 0 5.94 5.94 0 011.46 4.28v12.09a5.9 5.9 0 01-1.46 4.27 6.67 6.67 0 01-8.48 0zm6.19-4v-12.59c0-1.51-.65-2.27-2-2.27s-1.95.76-1.95 2.27v12.55c0 1.51.65 2.27 1.95 2.27s2-.76 2-2.27zm-19.76 43.44a5.87 5.87 0 01-1.47-4.27v-11.9q0-6 5.75-6a5.51 5.51 0 014.16 1.49 6 6 0 011.44 4.29v.43h-3.55V650c0-1.51-.65-2.27-1.95-2.27a1.9 1.9 0 00-1.57.63 3.5 3.5 0 00-.52 2.2V655h.07a3.5 3.5 0 013.42-2 3.72 3.72 0 013.11 1.35 6.26 6.26 0 011.06 3.91v4.11a5.87 5.87 0 01-1.47 4.27 6.71 6.71 0 01-8.48 0zm6.19-4v-4.08c0-1.51-.65-2.26-2-2.26s-1.91.76-1.91 2.25v4.08c0 1.49.65 2.23 1.95 2.23s1.96-.74 1.96-2.23zm7.38 4a5.87 5.87 0 01-1.47-4.27v-12.1a5.87 5.87 0 011.47-4.27 6.71 6.71 0 018.48 0 5.91 5.91 0 011.46 4.27v12.1a5.91 5.91 0 01-1.46 4.27 6.71 6.71 0 01-8.48 0zm6.19-4V650c0-1.51-.65-2.27-2-2.27s-1.95.76-1.95 2.27v12.56c0 1.51.65 2.26 1.95 2.26s2-.77 2-2.28z"/></svg>