<svg xmlns="http://www.w3.org/2000/svg" viewBox="0 0 1400 780"><path fill="#e6e6e6" d="M0 0h1400v780H0z"/><path d="M531.87 730.55c1.52-9.72 1.21-11-17.47-156.43-3.54-27.57-5.18-24.41-8.44-28.45-3.4 4.48-4.1-.88-10.58 49.1-17.54 135.32-16.38 126.9-14.28 140.44a184.67 184.67 0 011.63 44.65h7c3.2-39.54-5.47-38.14-.64-78.46 20-166.81 14.91-154.32 25.44-70.4 14 111.53 11.81 85.8 8.5 113.29a165.6 165.6 0 00-.49 35.53h7c-1.41-16.41-.24-32.82 2.33-49.27zm447.84-12.66c-8.89-71.33 65.44-197.88-21.2-291.79-13.32-14.44-9.63-19.14-1.49-93.27.93-8.48 1.6-3.31 12.66 31.76 51.92 164.49 45.54 167.62 56.72 182.17 5.12 6.67 14.57 2.09 13.1-5.92-.65-3.55-.73-1.6-3.51-13.08 5.22-2.45 14.69 32.25 30.54 23.56 11.13-6.1 5.14-16.91-9.18-49.47-6.3-14.31-15.65-8.76-28.35-67.46-33.58-155.09-36.13-217.58-107.93-231.58-4.78-.93-6.21-3-5.86-7.49 1.12-14.13-3.76-7.14 17.47-9.22 4.7-.46 15.23-6.28 7.55-10.26-8.8-4.56-7.68-1.78 3.55-46.8 16.58 9.74 33.45-5.28 25.05-22.58 18.55-10.21 10.74-35.22-10.28-32.66-2.28-10.27-8.19-16.12-19.13-15.39-7.72.52-12.53 5.28-15.27 15.16a279.54 279.54 0 01-32.08-2.43c-29.18-4.77-60.38 20.3-42.78 82.39 4.37 15.41 5.38 19.85-1 22-9.94 3.34 2.06 16 23.21 9.49 0 19.05 3.53 15.38-15.15 20.47-48.4 13.18-62.38 61.43-73 110.29-32.94 151.67-28.35 147.48-48.92 179.45-39.15 60.81-7.3 63.87 2.39 51.2 8.58-11.22 18.4-32.55 11.51-8.78-3.83 13.18 10 16.66 14.16 6.57 19.26-46.4 3.19-14.8 23.53-79.8 42.34-135.24 40.47-130.61 43.62-134.85 3.82 28.46 4.24 43.43 7.9 72.27 3 23.44-18.76 24-39.69 70.77-18.31 40.95-14.48 90.54 4 182.13 9.7 48.08 5.91 54.66-1.32 125.12h7.34c5-61.18 12.93-72.1-.36-133.87-23.26-108.2-19.9-157.18 18.45-205.64C840 422.57 845.78 419 844.7 408.47c-10.39-101.81-8.23-92.87-13.79-101.36-1.52 1.66-3.84 3.07-4.46 5-99.3 313.6-59.55 218-71.22 207.34-8.82-8-17.71 18.58-27.35 24.95-3.07 2-5.58.51-5.8-3.34-.37-6.51 9.24-29.08 13.73-35 26.43-35 26.57-60.66 59.47-210 13.86-63 41.61-79.73 75.4-87.12 8.66-1.89 8.12 0 8.62-24.22.24-11.51-7.16-7.34-22.9-4.06 10.7-18.42-10-37.15-4.73-70.19 6.21-38.91 36.2-32.07 54.35-32.07-3 20.24-4.69 12.51 6.68 29.53-6.73 14.47 6.54 27.58 22.26 23.69.39 16.05-12.1 30.59-5 48.82-12.51-2.67-22.07-7.17-22 2.82.06 23.13.35 23.9 5.57 25.14 71.54 17.05 69.91 43.74 114.14 250.75 5 23.47 15.93 26.84 36.6 76.41 2.7 6.47-2.78 15.61-10.19 4.22-8.94-13.73-11-18.12-14-19.38-16.8-7.05-9.39 14.06-8.79 20.95-9-14.39-13-47-19.64-67.85C946 267.83 958 263.57 942.42 402.73c-2.79 24.91 16.38 24.13 37.9 67.45 21.81 43.9 14.87 98.66-1 178-12.32 61.81-5.83 65.42-.07 131.64h7.4c-.81-11.09-5.4-49.58-6.94-61.93zM919.43 114a59.34 59.34 0 015.06-6c1.07-1 3.43-.82 4.3-1.9 4.48-5.58 2.77-7.58-2.81-8.7-1.4-.28-3 1-4.6 1.15-10.4 1.29-12.79-10.23-6.07-15.26 7.38-5.51 13.08 4.64 14.22 5.25 4.84 2.58 7.58.17 7.11-5.3-.14-1.58-7.94-9.32-.94-14.75 6.43-5 17 0 13.09 10-1.29 3.29-6.45 7-1.7 10.71s7.23-2.43 9.64-4.57c7.94-7.08 16.31 1 13.74 8.93-2.72 8.37-12.6 3.8-13.61 4-2.1.48-4 1.86-6 2.86 1 2 1.73 4.25 3.14 5.9.59.69 11.38 3.1 8.65 11.29-3 9.13-15.24 8.35-16.51-1.3-.45-3.47 1.19-8.39-4.49-8.69-6.23-.33-4.69 4.89-5.22 8.53-1.72 11.85-16.73 9.58-17-2.15z"/><path d="M598.75 773.46c-6.46-61-10.41-66.37-3.37-106.13 10.15-57.33 21.76-102 17.6-153-4.11-50.47-38.71-82.88-47.53-95.86-4.91-7.23-4.37-2.55 4.29-86.56.76-7.27.92-4.32 14.52 38.86C634.84 531.4 629.53 535.18 639 546.84c5.69 7 15.12 1.23 13-6.6-3.56-13.2-4.26-12.37-2.4-13.41 12.5 17.35 10.23 15.77 14 20.41 9.35 11.56 24.93 2.38 20.8-9.88-3.92-11.62-6.78-24.5-13.92-33.95C624.32 442.25 630.59 292.85 584 232c-11.65-15.24-27.71-23.19-45.72-28.06C528 201.13 528 201 527.69 190.31c-.19-6.55-.81-3.48 18.32-4.31 4.27-.19 9-4.49 9.08-6.75.16-4.42-10.18-2.46-7.94-12.17 5.1-22.19 13.12-41.7 6.22-65.26-10.82-36.95-43.37-30.07-49.92-30.75-32.27-3.36-55.77 25.27-43.91 73.32 5.35 21.69 10 29 .09 31.54-8.37 2.12 1.88 13.19 17.91 10.66 2.09-.34 4.16-.9 6.81-1.49 0 25.47 3.25 9.67-34.07 28.23-68.41 34-58.51 220-105.75 285.29-8.78 12.14-25.85 45.7-10.95 52.91 16.21 7.85 24.52-26.24 30.31-23.67-3.18 10.8-6.81 17.87.41 21.32 4.08 2 8.44.76 10.78-5 4.58-11.18 9.61-22.54 11.63-34.31 4.4-25.64 52.42-177.42 55.52-180 10.63 82 10.2 83.2 1.09 93.51-68.89 78-43.51 132.43-23.2 266.46 2.84 18.75-.86 22.8-6.62 89.93h7.1c2.09-20.42 4-40.85 6.41-61.23 9.22-79.29-62.32-187.56 14.69-282.24 11.3-13.85 17.3-17.96 15.72-31.75-16.69-144.87-3.09-132.81-69.69 69.71-7.11 21.62-.41 15.8-18 67.31-2.39-.71-2.2.11-1.15-4.16 1.66-6.74 5.57-17-1.26-18.25-8.56-1.58-12.89 7.15-18 14.42-6.93 9.9-2 7.28-12.56 11.28-.66-2.4-2.49-5.23-1.79-7.13 3.89-10.52 6.57-22.15 13-30.92 28.93-39.26 26.87-65 58.41-204.19 11.16-49.06 27.73-84.62 76.62-93.68 8.29-1.54 8.93.17 8.85-25.61 0-9.84-8.32-5.9-21.09-2.92-2.84-4.45 4.8-1.2 0-21.79-6.13-26.23-12.28-42.41-1.29-63.65 11.79-22.78 34.85-16 38.82-16.58 29.38-4.45 48.06 22.28 37.84 64.09-4.58 18.74-9.43 27.17-3.53 36.27l-.6 1.5c-19.81-4.24-24.65-9-20.54 22.74.74 5.74 10.54 6.77 18.66 8.88 47.38 12.29 59.62 60.14 70 107.78 29.61 136.45 28 150.4 50.11 180.08 6.91 9.27 22.66 40.94 15.42 44.72-10.6 5.52-17.26-32.16-30.86-25.29-4.66 2.35-3.87 6.73-2.85 10.86 4.52 18.39-.6 7.72-1.09 6-3.12-11.18-61.44-217.46-71.61-228.87-6.15 8.32-3.73-.53-14.07 99.46-2 19.26 17.18 23 37.18 62.32 21.07 41.43 18 92.81-.84 181.59-11.54 54.51-6.16 56.4.41 129.39 8.75-.05 7.68 1.61 6.83-6.45zm319.75-35.28c3.1-15.28 2.11-17.87-17.09-166-3.38-26-4.47-22.43-7.88-26.5-3.91 5-4-.55-13.74 72.88-15.67 117.79-13.32 99.79-10.16 125a165.73 165.73 0 01.47 36.3h7.08c3.31-34.42-5.19-42.19-1.62-70.72 17.38-139.1 15.87-161.23 21.22-118.73 17.67 140.2 17.07 130.32 15.39 140.47a195 195 0 00-2.25 49h7a137.8 137.8 0 011.58-41.7z"/></svg>