<svg xmlns="http://www.w3.org/2000/svg" viewBox="0 0 1400 780"><path fill="#e6e6e6" d="M0 0h1400v780H0z"/><path d="M1153.69 383.05c15.07 3.79 19 4 18.85 17.44-.14 10.52-13.46 60.86-23.82 80.86-12.79 24.69-15.23 6.39-25.57 29.53-26.67 59.7-65.06 92.37-117.68 115.59-23 10.15-44.19 8.72-67-1.27-27.56-12.08-52.52-27.22-72.18-50-52.27-60.66-36.58-72.46-57.77-80.77-12-4.7-33.19-76-34.06-89-1-15.43 1.33-18.42 17.44-21.95 3-10.18-1-54.94 1.74-89 12.79-158.08 189.57-163.89 263.77-133.33 109.97 45.3 96.28 134.44 96.28 221.9zm-298-196.27c-49.56 36.85-54.17 75.3-56.34 133.68-1.49 40.43 3.12 80.38 10 120.2a259.45 259.45 0 0044.28 107c21.26 30.07 45.39 57.34 106.43 77a44.47 44.47 0 0029-.56c35.59-12.3 67.66-29.77 92-59.91 49.22-61.08 55.81-112.4 64-177.73 5.59-44.4 1.15-73.44.55-81.67-2.47-33.63.81-69.89-43.68-109.55-63.37-56.55-179.43-58.13-246.22-8.46zM812 489.6c-18.14-91.36-13.14-63.75-16.16-91.71-1.14-10.62-15.44-9.28-15.33.31.11 11.19 16.19 72.62 31.49 91.4zm322-1.86c11.07-8.49 13.63-19.71 31.83-82.26.84-2.89 1.57-6.72.35-9.07a11.58 11.58 0 00-7.7-5.45c-2-.26-5.06 2.69-6.65 4.92-1.39 1.89-4.57 56.63-17.83 91.86z"/><path d="M1101.67 389.72l-26.58-11.05-1.32 14c5.78-.29 22.9-2.68 27.9-2.93-19.37 11.56-61.1 6.8-82.83.74 8.05 2 24 2.32 16.73-7.55l-16.73 7.55c-12.13-36 85.6-42.48 82.83-.76zm-55.5.45c.31.23 1.61 1.08-.07.06-.21-.15-1.64-1.09.07-.06zm-120.62.29l-16.73-7.55c-7.3 9.87 8.68 9.53 16.73 7.55-21.73 6.06-63.46 10.82-82.83-.74 5 .25 22.12 2.64 27.9 2.93l-1.32-14-26.58 11.05c-2.72-41.7 95-35.34 82.83.76zm-26.55-.78a10.73 10.73 0 01-1.59 1.06 10 10 0 011.59-1.06zm44.15-45.93c-14.59-5.05-20.29-16.16-78.78-25.7-12.24-2-26.3 4.68-38 10.31 1.12-8.2 6-12.38 10.52-14.35 8-3.43 17.09-7.24 25.3-6.46 22.69 2.16 77.69 13.98 80.96 36.2zM1122 326.73c-37.92-22.75-77 1.86-115.35 14.83.49-7.63 5.22-10.45 9.52-13 21.07-12.51 44.15-19.23 68.33-21.65 16.09-1.61 29.57 3.89 37.5 19.82zm-99 226.55H921.68c3.65-2.83 5.47-5.45 7.45-5.57 10.57-.64 20.82-4.07 31.77-2a63 63 0 0024 .15c11-2.32 21.23 1.45 31.85 1.46 2.23 0 4.45 2.32 6.68 3.57zm-20.45-62.41c-17.06 9.32-41.55 9.28-57.94.05 6.14-3.63 11.69-4.38 17.54-1.35 20.16 10.43 25.34-10.08 40.4 1.3zm-55.88 76.44h52c-10.99 11.48-34.53 11.96-52 0zM606.85 383.05c15.07 3.79 19 4 18.86 17.44-.15 10.52-13.47 60.86-23.83 80.86-12.79 24.69-15.23 6.39-25.57 29.53-26.67 59.7-65 92.37-117.67 115.59-23 10.15-44.19 8.72-67-1.27-27.56-12.08-52.52-27.22-72.18-50-52.27-60.66-36.58-72.46-57.77-80.77-12-4.7-33.19-76-34-89C226.63 390 229 387 245.1 383.47c3-10.18-1-54.94 1.73-89C259.62 136.41 436.4 130.6 510.6 161.16c109.94 45.29 96.25 134.43 96.25 221.89zm-298-196.27c-49.56 36.85-54.17 75.3-56.33 133.68-1.5 40.43 3.11 80.38 10 120.2a259.59 259.59 0 0044.28 107c21.26 30.07 45.39 57.34 106.43 77a44.47 44.47 0 0029-.56c35.59-12.3 67.66-29.77 92-59.91 49.22-61.08 55.81-112.4 64.05-177.73 5.6-44.4 1.15-73.44.55-81.67-2.46-33.63.81-69.89-43.67-109.55-63.44-56.55-179.49-58.13-246.29-8.46zm-43.7 302.82C247 398.24 252 425.85 249 397.89c-1.14-10.62-15.44-9.28-15.33.31.11 11.19 16.19 72.62 31.48 91.4zm322-1.86c11.07-8.49 13.63-19.71 31.83-82.26.84-2.89 1.57-6.72.35-9.07a11.58 11.58 0 00-7.69-5.45c-2.05-.26-5.07 2.69-6.66 4.92-1.38 1.89-4.56 56.63-17.86 91.86z"/><path d="M554.83 389.72l-26.58-11.05-1.32 14c5.79-.29 22.9-2.68 27.9-2.93-19.37 11.56-61.1 6.8-82.83.74 8.06 2 24 2.32 16.73-7.55L472 390.46c-12.13-35.98 85.6-42.46 82.83-.74zm-55.5.45c.31.23 1.62 1.08-.07.06-.21-.15-1.63-1.09.07-.06zm-120.62.29L362 382.91c-7.3 9.87 8.68 9.53 16.73 7.55-21.73 6.06-63.45 10.82-82.83-.74 5 .25 22.12 2.64 27.91 2.93l-1.33-14-26.58 11.05c-2.79-41.7 94.98-35.34 82.81.76zm-26.51-.78a10.73 10.73 0 01-1.59 1.06 10 10 0 011.59-1.06zm123.96 163.6H374.84c3.65-2.83 5.48-5.45 7.45-5.57 10.57-.64 20.82-4.07 31.77-2a63 63 0 0024 .15c11-2.32 21.24 1.45 31.85 1.46 2.23 0 4.45 2.32 6.68 3.57zm-20.45-62.41c-17.06 9.32-41.55 9.28-57.94.05 6.14-3.63 11.69-4.38 17.54-1.35 20.16 10.43 25.34-10.08 40.4 1.3zm-55.88 76.44h52c-10.99 11.48-34.53 11.96-52 0z"/><path d="M281.59 366.49c-3.13-36 71.65-40.51 101.14-32.86 4.91 1.28 10.62 2 12.23 10-40.44-4.54-29.29-5.22-73.11.71-16.11 2.18-29.47 9.26-40.26 22.15zm284.71 2.42c-13.31-13.71-20-22.73-51.24-27-17.72-2.39-35.45-4.8-53.28-.32-2.55.64-5.58-.65-10-1.27 6.09-7.6 13.37-8.75 20.13-9.2 22.37-1.49 44.69-1.34 66.54 5.08 14.75 4.37 24.55 15.04 27.85 32.71z"/></svg>