<svg xmlns="http://www.w3.org/2000/svg" viewBox="0 0 1400 780"><path fill="#cac3df" d="M0 0h1400v780.48H0z"/><path d="M716.22 761.39c-45-106.61-34.05-77.82-66.49-154.35-5.11 3.7-10.56 8.63-13.07 14.08-18.71 40.35-11.55 47.52-18.57 31 0-4.29-15.87-13.39-1.63-63.36-13.91 10.27-31 15.46-47.35 17.4 0 0-62.72-11.27-85.66 32.77s-53 141.29-53 141.29h286.26c0-134.31.17-17.22-.49-18.83z" fill="#c7b19b" stroke="#000" stroke-miterlimit="10" stroke-width="2.01"/><path d="M730.1 780c0-25.15-6.4-2.51 67.28-176.32 12.85 9.35 14 13.83 25.71 47.48v0c2.57 7.7 1 9.31 7-5.21 0-.22 4.63-10.92 5.66-17.32.89-4.9-5-39.33-4.65-39.17 0 .26 14.63 12.13 42.44 15.35 0 0 62.73-11.27 85.66 32.79S1012 780 1012 780z" fill="#998577" stroke="#000" stroke-miterlimit="10" stroke-width="2.01"/><path d="M616.54 588.72c-.22.67-.24.64-.08.06zM643.26 555c14.32-32.13 5.46-66.43 5.89-70.67.25-2 25.49 23.79 73.06 23.58 48.28 0 72.28-26.08 73.42-24.52 4.19 5.71-6 34.26 8.09 69.86 1.24 14.32-18.1 46.94-18 46.67L723.36 747c-9.43-24.51-80.08-185.07-80.08-192.41.19-4.59 5.8-11.98-.02.41z" fill="#edccb0"/><path d="M796.5 484.47c-3.11 20.9-1.67 44.21 5.75 63.85m1.29 3.32c-.42-1-.82-2-1.21-3.08m28.02 39.33c11.26 9 27 14.09 46.87 16.43" fill="none" stroke="#000" stroke-miterlimit="10" stroke-width="2.21"/><path d="M619.14 265c16.09-3.22 19.26-5.79 62.27 6.18" fill="none" stroke="#000" stroke-miterlimit="10" stroke-width="2.49"/><path d="M850.07 305.4c-.49-3-5.69-30.91-7-31.24-2.84-.7-15.38-3.49-18.25-4.08-.6 2.79-.38 7.18-1.11 6.23-3.06-4.17-27.66-114-30.31-108.84-6.64 12.92-16.57 33.53-22.17 47.53-8.37 20.92-57.55 70.79-57.55 69.38s12.57-31 8-26.85-27.92 27.88-26.49 25.79 13.25-25.07 10.79-22.66c-2.64 2.65-22 18.84-22 18.84 0-1.5 3.76-7.19 4.61-8.43 6.4-8 5.27-46.78 5.27-41.66 0 2.89-27.44 40.9-27.64 41.1-7.55 9.44-7.76 15-6 .95 1-7.49 6.94-33.86 4-34.36-3.51-.61-14.6 20.44-23.84 30-12.33 12.79-9.16 21.37-11 5-.51-4.53-.59-6.94-4.42.5-18.2 36.34-13.46 34.1-13.46-25.24-16 10.69-21.64 79.38-20.58 108 14.88 232.52 297.57 187.22 259.15-49.96zm-199.14 3c46 0 46 30.69 0 30.69s-45.93-30.67 0-30.67zm142.53 33.17c-32.17-.45-39.27-16.52-25.39-24.58 17-9.92 62.36-7.25 62.36 9.43 0 12.64-24.36 15.35-36.97 15.17z" fill="#edccb0"/><path d="M682.06 274c-41.1-11.55-44.46-9.79-62.27-6.19" fill="none" stroke="#000" stroke-miterlimit="10" stroke-width="2.49"/><path d="M611.53 298v-50.59C599.08 255.62 573.09 359.64 609 434c-117.67-22.26-85.61-130-81.13-174.8.92-9.29 14.86-32.55 15.79-47.43s21.39-63.22 29.76-78.08 66-58.58 77-62.32 32.7-6.49 48.52-13 54.85-1.86 69.73 0 45.56 15.81 67.9 20.45 44.61 36.25 51.1 45.55 20.47 72.54 29.77 91.13 13.93 57.64 12.07 119.93c-1.74 58.59-87.26 99.5-95.5 99.5 29.17-59.52 21.63-142.08-2.87-197.21 0-.25.08-.55-6.34 32.41-4.93-1.05-2.79.81-30.21-104.95-6.11 11.68-17.38 34.82-23.36 49.82-8.37 20.91-57.55 70.77-57.55 69.38s12.57-31 8-26.85-27.9 27.89-26.49 25.79 13.24-25.09 10.79-22.66c-2.27 2.3-19.33 16.62-22 18.84.82-2.87 3.64-7.22 5.59-9.76 4.53-5.94 4.88-45.33 4.53-41.14-.25 3-17.42 27.61-27.69 41.65-9.12 12.45-7.15 9.7-2-35.38-31.92 37.33-14.11 29.45-35.59 33.43-.97-9.45 3.75-7.05-17.29 29.7z" fill="#c09966"/><path d="M841.3 272.87c.1 1.44 2.35 1.13-16.5-2.79 3.45-17.71 6.34-32.66 6.34-32.41 4.6 10.33 9.38 24.16 10.16 35.2z" fill="#edccb0"/><path d="M795.92 311.09c45.88 0 45.88 30.67 0 30.67 20.3 0 20.3-30.67 0-30.67z" fill="#fff"/><path d="M810.78 322.86c-.58 0 1.3-7.21-11.31-11.42-7.77-1.73-16.1 2.17-18.24 10.72-1.25 1.25 0 8.33 0 8.53 4.77 19.05 34.88 11.73 29.55-7.83zm-20.18 3.38c-1.86-1.86-.8-6 1.81-6.25 2-.72 4.85.93 4.85 3.09a3.87 3.87 0 01-6.66 3.16z"/><path d="M793.47 319.81c5.11 0 5.06 7.66 0 7.66s-5.08-7.66 0-7.66z" fill="#fff"/><path d="M795.92 311.09c-20.3 0-20.3 30.67 0 30.67-45.92 0-45.92-30.67 0-30.67zm-144.99 28.02c20.31 0 20.31-30.69 0-30.69 45.95 0 45.95 30.69 0 30.69z" fill="#fff"/><path d="M650.93 308.42c-20.29 0-20.29 30.69 0 30.69s20.3-30.69 0-30.69zm6.1 13.84c-1.66 5-10.15 2-6.8-3.6 3.41-3.4 8.07-.42 6.77 3.6z"/><path d="M653.38 317.14c5.07 0 5.1 7.66 0 7.66s-5.06-7.66 0-7.66z" fill="#fff"/><path d="M650.93 308.42c-20.28 0-20.28 30.69 0 30.69-45.93 0-45.93-30.69 0-30.69z" fill="#fff"/><path d="M640.75 266.64c-13.49 19-9.58 18.4-11.81 1.65a100.39 100.39 0 0111.81-1.65z" fill="#c09966"/><path d="M590.62 601.28c0 .79 13.74-3.86 26.2-13.21M643.26 555c7.75-20.65 9.48-49.71 5.35-70.12" fill="none" stroke="#000" stroke-miterlimit="10" stroke-width="2.21"/><path d="M609 434c47.44 98.54 180 98.32 225 .93M604.56 258.64c-.14.36-.25.73-.36 1.11m237.16 14c-.83-11.62-5.52-26-10-35.51M650.93 339.11c20.31 0 20.31-30.69 0-30.69s-20.28 30.69 0 30.69z" fill="none" stroke="#000" stroke-miterlimit="10" stroke-width="2.49"/><path d="M657.22 321c0 5.06-7.68 5.06-7.68 0s7.68-5.1 7.68 0zm-38.35-14.66c12-1.74 11.3-11 61 0m116.05 35.42c-20.31 0-20.31-30.67 0-30.67s20.3 30.67 0 30.67z" fill="none" stroke="#000" stroke-miterlimit="10" stroke-width="2.49"/><path d="M789.65 323.63c0 5.11 7.66 5.06 7.66 0s-7.66-5.07-7.66 0zM828 309c-12-1.74-11.3-11.05-61 0m76.46-34.74h0z" fill="none" stroke="#000" stroke-miterlimit="10" stroke-width="2.49"/><path d="M759.37 275.65c41.11-11.55 44.47-9.79 62.27-6.18l-27-104.34c-6.16 11.73-17.43 34.87-23.41 49.87-8.37 20.91-57.55 70.77-57.55 69.38s12.57-31 8-26.85-27.9 27.89-26.49 25.79 13.24-25.09 10.79-22.66c-1.83 1.86-13.49 11.71-19 16.37-3.43 2.88-3.8 3.72-1.66-.55a43 43 0 014.31-6.74c4.53-5.94 4.88-45.33 4.53-41.14-.36 4.38-32 47.68-34.87 51.58l5.23-45.31c-8.22 9.62-26.56 35.68-34.16 46.37-3-27 3-21.39-18.84 16.74v-50.57C599.27 255.49 573 359.4 609 434c-117.67-22.26-85.61-130-81.13-174.8.92-9.29 14.86-32.55 15.79-47.43s21.39-63.22 29.76-78.08 66-58.58 77-62.32 32.7-6.49 48.52-13 54.85-1.86 69.73 0 45.56 15.81 67.9 20.45 44.61 36.25 51.1 45.55 20.47 72.54 29.77 91.13 13.93 57.64 12.07 119.93c-1.74 58.59-87.26 99.5-95.5 99.5 23.58-48.11 22.88-109.41 9.43-160.62M710.55 403.26s8-2.45 11.17 0m5.57 0s5.23-3 9.76 0M691 441.84c22.46 13.89 41.61 10.7 68.34 0" fill="none" stroke="#000" stroke-miterlimit="10" stroke-width="2.49"/><path d="M650.93 308.42c46 0 46 30.69 0 30.69s-45.93-30.69 0-30.69zm144.99 2.67c45.88 0 45.88 30.67 0 30.67s-45.92-30.67 0-30.67zm28.88-41.01c-1.71 8.81-.65 9-3.16-.61 1.06.19 2.12.39 3.16.61zm18.64 4.18c-1.2-.4-14.21-3.26-18.64-4.18 3.45-17.71 6.34-32.66 6.34-32.41a278.88 278.88 0 0112.3 36.59z" fill="none" stroke="#000" stroke-miterlimit="10" stroke-width="2.49"/><path d="M802.33 548.56c6.15 8.81-.13 12.53-79 198.43-26.22-61.83-68.66-160.5-80.1-192-23.47 28.87-32.51 31.41-32.51 73.08 0 15.05 7.34 21.43 7.34 24.08 7 16.5-.14 9.33 18.57-31 2.51-5.45 8-10.38 13.07-14.08 32.44 76.53 21.5 47.74 66.49 154.35.43 1 .49-17.55.49 18.85 4.5-.07 8.87-.22 13.39-.24 0-25.15-6.4-2.51 67.28-176.32 12.71 9.24 13.89 13.61 25.71 47.48v0c2.55 7.66 1 9.35 7-5.21 0-.44 5-10.56 5.9-19.22 4.83-48.01-34.65-80.24-33.63-78.2z" fill="#746358" stroke="#000" stroke-miterlimit="10" stroke-width="2.01"/><path d="M802.33 548.56c-.11-.25-.46-.62-.08-.24a1.13 1.13 0 00.08.24zm29.35 43.84c-.58-2.62-.8-4.17-.24-1.91zm-115.04 170c0 3.73 5.83 16.16-38-87.07-8.2-19.41 29.77 67.67 38 87.07zm119.29-135.06c0 7.22-5.84 20.87-5.84 21.08-6 14.56-4.39 12.86-7 5.21-11.58-34-13-38.25-25.71-47.49-82.22 193.93-97.91 228.49 0-2.46 11.51 8.37 13.6 11.38 27.78 53.53 3.16-6.68 10.04-22.56 10.77-29.87z" fill="#333"/><path d="M850.87 278.57c-53-6.72-112.5 22.74-114.75 26.41a45.31 45.31 0 01-24.07 0c-2.17-3.52-60.92-33.24-114.75-26.41-15.71 2-9.14 15.95-7.31 35.89s17.18 41.86 30.33 53.82c10 9.08 27.29 6.24 42.57 8.27 12.93-.22 31.43-.68 40-15.74 2.41-4.23 11.65-27.32 12.11-36.65a30.31 30.31 0 0118.13 0c.45 9.13 9.59 32.24 12.11 36.65s13.16 14.23 25.21 14.95c0 0 44.22 4.49 57.38-7.48s28.51-33.89 30.33-53.82 8.42-33.89-7.29-35.89zm-145.75 52.79c-1.79 7.36-7.13 21.69-9.21 25.37-11 19.39-58.47 14.06-67.11 6.13-10.69-9.81-23.16-27.82-24.65-44.18s-6.83-27.81 5.94-29.46c43.09-5.5 91.42 18.66 93.24 21.69 1.49 2.45 3.57 13.09 1.79 20.45zM844 318.68c-1.49 16.36-14 34.37-24.65 44.18-8.53 7.83-56 13.45-67.12-6.13-2.07-3.68-7.42-18-9.2-25.37s.3-18 1.78-20.45c1.75-2.9 49.5-27.28 93.25-21.69 12.79 1.65 7.44 13.1 5.94 29.46z" fill="#534741"/><path fill="none" stroke="#d4145a" stroke-miterlimit="10" stroke-width="7" d="M552.9 347.69l2.83 4.13"/><path fill="none" stroke="#d4145a" stroke-miterlimit="10" stroke-width="7" stroke-dasharray="9.93 9.93" d="M561.35 360l154.51 225.15"/><path fill="none" stroke="#d4145a" stroke-miterlimit="10" stroke-width="7" d="M718.67 589.24l2.83 4.12 2.76-4.17"/><path fill="none" stroke="#d4145a" stroke-miterlimit="10" stroke-width="7" stroke-dasharray="10.01 10.01" d="M729.77 580.84l151.52-229.69"/><path fill="none" stroke="#d4145a" stroke-miterlimit="10" stroke-width="7" d="M884.05 346.97l2.75-4.17m-144.44-60.94l4.6-1.96"/><path fill="none" stroke="#d4145a" stroke-miterlimit="10" stroke-width="7" stroke-dasharray="10.19 10.19" d="M756.33 275.91L995.3 174.03"/><path fill="none" stroke="#d4145a" stroke-miterlimit="10" stroke-width="7" d="M999.98 172.04l4.6-1.96"/><path fill="#d4145a" d="M998.52 191.34l-3.85-1.71 8.43-18.92-19.48-7.02 1.43-3.95 23.72 8.55-10.25 23.05z"/><path fill="none" stroke="#d4145a" stroke-miterlimit="10" stroke-width="7" d="M659.16 442.84v5"/><path fill="none" stroke="#d4145a" stroke-miterlimit="10" stroke-width="7" stroke-dasharray="10.05 10.05" d="M659.16 457.88v236.08"/><path fill="none" stroke="#d4145a" stroke-miterlimit="10" stroke-width="7" d="M659.16 698.98v5m127.52-261.14v5"/><path fill="none" stroke="#d4145a" stroke-miterlimit="10" stroke-width="7" stroke-dasharray="10.05 10.05" d="M786.68 457.88v236.08"/><path fill="none" stroke="#d4145a" stroke-miterlimit="10" stroke-width="7" d="M786.68 698.98v5"/></svg>