<svg xmlns="http://www.w3.org/2000/svg" viewBox="0 0 700 700"><path fill="#cac3df" d="M0 0h700v700H0z"/><path d="M345.7 683c-38.56-91.39-29.19-66.71-57-132.31-4.38 3.17-9 7.4-11.21 12.07-16 34.59-9.9 40.73-15.92 26.59 0-3.68-13.6-11.48-1.39-54.32-11.93 8.81-26.59 13.26-40.59 14.92 0 0-53.77-9.66-73.42 28.09s-45.41 121.11-45.41 121.11h245.36c0-115.15.14-14.84-.42-16.15z" fill="#c7b19b" stroke="#000" stroke-miterlimit="10" stroke-width="1.72"/><path d="M357.59 698.92c0-21.56-5.48-2.16 57.68-151.14 11 8 12 11.85 22 40.69v0c2.2 6.61.88 8 6-4.47 0-.18 4-9.35 4.84-14.84.77-4.2-4.26-33.71-4-33.57 0 .22 12.54 10.39 36.38 13.15 0 0 53.77-9.65 73.42 28.11s45.27 122 45.27 122z" fill="#998577" stroke="#000" stroke-miterlimit="10" stroke-width="1.72"/><path d="M260.26 535c-.2.58-.21.55-.07 0zm22.9-29c12.27-27.54 4.68-56.94 5-60.57.21-1.71 21.85 20.39 62.62 20.21 41.39 0 62-22.36 62.94-21 3.59 4.9-5.13 29.37 6.93 59.88 1.07 12.28-15.51 40.24-15.41 40l-53.42 126.1c-8.08-21-68.65-158.64-68.65-164.93.17-3.96 4.98-10.26-.01.31z" fill="#edccb0"/><path d="M414.51 445.6c-2.66 17.91-1.43 37.89 4.93 54.73m1.11 2.84c-.36-.86-.71-1.74-1-2.64m23.98 33.71c9.65 7.72 23.14 12.08 40.18 14.08" fill="none" stroke="#000" stroke-miterlimit="10" stroke-width="1.89"/><path d="M262.48 257.46c13.8-2.76 16.51-5 53.38 5.3" fill="none" stroke="#000" stroke-miterlimit="10" stroke-width="2.13"/><path d="M460.43 292.1c-.41-2.56-4.87-26.49-6-26.78-2.43-.6-13.18-3-15.64-3.5-.51 2.4-.33 6.16-.95 5.35-2.62-3.58-23.71-97.74-26-93.31-5.68 11.08-14.19 28.75-19 40.74-7.17 17.93-49.32 60.68-49.32 59.47s10.77-26.6 6.89-23-23.94 23.9-22.71 22.1 11.35-21.49 9.25-19.42c-2.27 2.27-18.84 16.15-18.84 16.15 0-1.29 3.22-6.16 3.95-7.22 5.49-6.86 4.52-40.11 4.52-35.71 0 2.47-23.52 35-23.69 35.22-6.47 8.09-6.65 12.88-5.12.81.81-6.42 5.94-29 3.39-29.45-3-.52-12.51 17.53-20.43 25.75-10.57 11-7.85 18.31-9.45 4.31-.44-3.89-.51-6-3.79.43C251.9 295.17 256 293.25 256 242.39c-13.74 9.16-18.55 68-17.64 92.61 12.69 199.23 255.01 160.41 222.07-42.9zm-170.69 2.59c39.38 0 39.38 26.31 0 26.31s-39.37-26.31 0-26.31zm122.17 28.43c-27.57-.38-33.67-14.16-21.76-21.07 14.57-8.5 53.45-6.22 53.45 8.09 0 10.86-20.88 13.13-31.69 12.98z" fill="#edccb0"/><path d="M316.42 265.18c-35.23-9.9-38.11-8.39-53.38-5.3" fill="none" stroke="#000" stroke-miterlimit="10" stroke-width="2.13"/><path d="M256 285.73v-43.34c-10.67 7-33 96.2-2.17 159.9-100.86-19.08-73.38-111.41-69.54-149.83.79-8 12.73-27.9 13.53-40.66s18.34-54.19 25.51-66.93 56.58-50.22 66-53.42 28-5.56 41.58-11.15 47-1.59 59.78 0 39 13.56 58.2 17.53 38.24 31.08 43.8 39.05 17.55 62.18 25.52 78.12 11.94 49.4 10.35 102.8c-1.49 50.22-74.8 85.29-81.86 85.29 25-51 18.54-121.79-2.46-169 0-.22.06-.47-5.44 27.78-4.23-.9-2.39.69-25.89-90-5.24 10.06-14.9 29.91-20 42.74-7.17 17.92-49.32 60.66-49.32 59.47s10.77-26.59 6.89-23-23.93 23.9-22.71 22.1 11.35-21.5 9.25-19.42c-1.95 2-16.57 14.24-18.84 16.15.71-2.46 3.12-6.19 4.79-8.37 3.88-5.09 4.19-38.86 3.88-35.26-.2 2.54-14.92 23.67-23.73 35.7-7.81 10.67-6.13 8.31-1.67-30.33-27.36 32-12.1 25.24-30.51 28.66-.94-8.11 3.06-6.06-14.94 25.42z" fill="#c09966"/><path d="M452.91 264.21c.09 1.24 2 1-14.14-2.39 3-15.18 5.44-28 5.44-27.78 3.94 8.86 8.04 20.71 8.7 30.17z" fill="#edccb0"/><path d="M414 297c39.32 0 39.32 26.3 0 26.3 17.41-.03 17.41-26.3 0-26.3z" fill="#fff"/><path d="M426.75 307.07c-.49 0 1.12-6.19-9.69-9.8-6.66-1.48-13.8 1.86-15.64 9.19-1.07 1.08 0 7.14 0 7.31 4.09 16.34 29.9 10.06 25.33-6.7zM409.46 310c-1.6-1.59-.69-5.13 1.55-5.36 1.68-.61 4.16.8 4.16 2.66a3.32 3.32 0 01-5.71 2.7z"/><path d="M411.91 304.45c4.38 0 4.34 6.57 0 6.57s-4.35-6.57 0-6.57z" fill="#fff"/><path d="M414 297c-17.41 0-17.41 26.3 0 26.3-39.34-.03-39.34-26.3 0-26.3zm-124.26 24c17.4 0 17.4-26.31 0-26.31 39.38 0 39.38 26.31 0 26.31z" fill="#fff"/><path d="M289.74 294.69c-17.4 0-17.4 26.31 0 26.31s17.39-26.31 0-26.31zm5.26 11.86c-1.43 4.27-8.71 1.7-5.83-3.09 2.88-2.91 6.88-.36 5.83 3.09z"/><path d="M291.83 302.16c4.35 0 4.38 6.57 0 6.57s-4.33-6.57 0-6.57z" fill="#fff"/><path d="M289.74 294.69c-17.39 0-17.39 26.31 0 26.31-39.36 0-39.36-26.31 0-26.31z" fill="#fff"/><path d="M281 258.87c-11.56 16.26-8.22 15.78-10.13 1.42a86.44 86.44 0 0110.13-1.42z" fill="#c09966"/><path d="M238 545.72c0 .68 11.78-3.31 22.46-11.32m22.7-28.4c6.64-17.7 8.12-42.61 4.58-60.1" fill="none" stroke="#000" stroke-miterlimit="10" stroke-width="1.89"/><path d="M253.79 402.29c40.67 84.46 154.29 84.27 192.88.8M250 252c-.11.3-.2.63-.3.95M453 265c-.71-10-4.74-22.26-8.56-30.44M289.74 321c17.4 0 17.4-26.31 0-26.31s-17.39 26.31 0 26.31z" fill="none" stroke="#000" stroke-miterlimit="10" stroke-width="2.13"/><path d="M295.13 305.45c0 4.34-6.59 4.34-6.59 0s6.59-4.35 6.59 0zm-32.88-12.54c10.25-1.5 9.68-9.47 52.3 0M414 323.27c-17.41 0-17.41-26.3 0-26.3s17.42 26.3 0 26.3z" fill="none" stroke="#000" stroke-miterlimit="10" stroke-width="2.13"/><path d="M408.64 307.73c0 4.37 6.57 4.33 6.57 0s-6.57-4.35-6.57 0zm32.86-12.55c-10.26-1.49-9.69-9.47-52.3 0m65.57-29.78h0z" fill="none" stroke="#000" stroke-miterlimit="10" stroke-width="2.13"/><path d="M382.69 266.6c35.23-9.91 38.11-8.39 53.38-5.3l-23.19-89.44c-5.24 10.06-14.9 29.91-20 42.74-7.17 17.92-49.32 60.66-49.32 59.47s10.77-26.59 6.89-23-23.93 23.9-22.71 22.1 11.35-21.5 9.25-19.42c-1.57 1.59-11.57 10-16.32 14-2.94 2.47-3.25 3.19-1.42-.47a37.66 37.66 0 013.69-5.78c3.88-5.09 4.19-38.86 3.88-35.26-.3 3.75-27.47 40.87-29.88 44.22l4.48-38.85c-7.05 8.25-22.76 30.59-29.28 39.75-2.55-23.17 2.57-18.33-16.15 14.35v-43.32c-10.51 6.93-33.05 96-2.17 159.9-100.86-19.08-73.38-111.41-69.54-149.83.79-8 12.73-27.9 13.53-40.66s18.34-54.19 25.51-66.93 56.58-50.22 66-53.42 28-5.56 41.58-11.15 47-1.59 59.78 0 39 13.56 58.2 17.53 38.24 31.08 43.8 39.05 17.55 62.18 25.52 78.12 11.94 49.4 10.35 102.8c-1.49 50.22-74.8 85.29-81.86 85.29 20.2-41.24 19.61-93.79 8.08-137.69M340.84 376s6.89-2.1 9.58 0m4.77 0s4.48-2.55 8.36 0m-39.44 33.05c19.25 11.91 35.66 9.17 58.58 0" fill="none" stroke="#000" stroke-miterlimit="10" stroke-width="2.13"/><path d="M289.74 294.69c39.38 0 39.38 26.31 0 26.31s-39.36-26.31 0-26.31zM414 297c39.32 0 39.32 26.3 0 26.3s-39.34-26.3 0-26.3zm24.77-35.18c-1.46 7.55-.56 7.73-2.7-.52z" fill="none" stroke="#000" stroke-miterlimit="10" stroke-width="2.13"/><path d="M454.75 265.4c-1-.34-12.18-2.79-16-3.58 3-15.18 5.44-28 5.44-27.78a238.89 238.89 0 0110.56 31.36z" fill="none" stroke="#000" stroke-miterlimit="10" stroke-width="2.13"/><path d="M419.51 500.53c5.27 7.56-.11 10.74-67.69 170.09-22.48-53-58.82-137.57-68.66-164.62-20.16 24.78-27.87 27-27.87 62.68 0 12.89 6.29 18.37 6.29 20.64 6 14.14-.12 8 15.92-26.59 2.16-4.67 6.83-8.9 11.21-12.07 27.8 65.6 18.43 40.92 57 132.31.36.87.42-15.05.42 16.15 3.86-.06 7.6-.18 11.47-.2 0-21.56-5.48-2.16 57.68-151.14 10.9 7.92 11.9 11.67 22 40.69v0c2.19 6.57.87 8 6-4.47 0-.37 4.31-9 5.05-16.46 4.15-41.13-29.7-68.76-28.82-67.01z" fill="#746358" stroke="#000" stroke-miterlimit="10" stroke-width="1.72"/><path d="M419.51 500.53c-.09-.22-.4-.53-.07-.2a1.18 1.18 0 00.07.2zm25.16 37.58c-.5-2.24-.69-3.58-.21-1.64zm-98.61 145.72c0 3.2 5 13.86-32.54-74.63-7.06-16.65 25.48 57.98 32.54 74.63zm102.25-115.77c0 6.19-5 17.89-5 18.07-5.13 12.48-3.77 11-6 4.46-9.93-29.1-11.14-32.78-22-40.71-70.48 166.24-83.93 195.86 0-2.1 9.86 7.17 11.66 9.75 23.81 45.88 2.67-5.72 8.56-19.34 9.19-25.6z" fill="#333"/><path d="M461.12 269.1c-45.44-5.76-96.43 19.49-98.36 22.64a38.87 38.87 0 01-20.64 0c-1.85-3-52.22-28.49-98.36-22.64-13.47 1.71-7.83 13.67-6.27 30.76s14.73 35.89 26 46.14c8.56 7.78 23.38 5.35 36.48 7.08 11.09-.18 26.95-.57 34.31-13.49 2.07-3.62 10-23.42 10.38-31.41a25.91 25.91 0 0115.54 0c.39 7.83 8.22 27.63 10.38 31.41s11.28 12.2 21.61 12.82c0 0 37.91 3.85 49.18-6.41s24.44-29.05 26-46.14 7.22-29.05-6.25-30.76zm-124.94 45.25c-1.53 6.31-6.11 18.59-7.89 21.75-9.41 16.62-50.12 12-57.53 5.25-9.16-8.41-19.85-23.84-21.13-37.87s-5.85-23.84 5.09-25.25c36.94-4.72 78.37 16 79.93 18.59 1.28 2.1 3.06 11.18 1.53 17.53zm119.07-10.87c-1.28 14-12 29.46-21.13 37.87-7.31 6.71-48 11.53-57.53-5.25-1.78-3.16-6.36-15.44-7.89-21.75s.25-15.43 1.53-17.53c1.5-2.49 42.42-23.38 79.93-18.59 10.94 1.41 6.36 11.23 5.09 25.25z" fill="#534741"/></svg>