<svg xmlns="http://www.w3.org/2000/svg" viewBox="0 0 1400 780"><path fill="#bdccd4" d="M.5.5h1399v779H.5z"/><path d="M1399 1v778H1V1h1398m1-1H0v780h1400V0z"/><path d="M506.81 534.62c-.47 1.29.29 5.68-2 13.28-21.17 69.9-214.58 65.1-214.58-12.54 64.23-20.28 46.51-95.27 48.38-97.14 34.85 26.15 85 26.72 120.66-.77l1.77 2.28c-6.63 40.67 6.86 81.34 45.77 94.89z" fill="#efceb2"/><path d="M460.18 438.62C453.87 481 470 532.4 526.81 539.08" fill="none" stroke="#000" stroke-miterlimit="10" stroke-width="1.82"/><path d="M394.89 597.09L398.25 780h172.42s-11.34-116.45-6.81-89.41 33.33 88.5 33.33 88.5h73s-56.8-177.7-75.72-214.09-70.7-27-70.7-27a92.55 92.55 0 01-17.77-3.81c0 68.55-111 62.81-111.11 62.9z" fill="#736357" stroke="#000" stroke-miterlimit="10" stroke-width="1.82"/><path d="M313.77 257.44c13.28-2.66 15.89-4.78 51.4 5.1" fill="none" stroke="#000" stroke-miterlimit="10" stroke-width="2.05"/><path d="M352.53 262.21c.06-.1 22.89-31.45 23.17-34.82s0 29.06-3.74 34c-1.67 2.17-3.95 5.74-4.61 8.06 2.17-1.83 16.26-13.65 18.14-15.55s-7.77 17-8.92 18.7 18.12-17.83 21.88-21.29-6.64 21-6.64 22.17 40.6-40 47.51-57.28c4.84-12.2 14.12-31.29 19.28-41.2 28.06 108.22 23.39 94.65 24.94 86.64 6.49 1.35 14.94 3.3 15.38 3.45 50 190.36-136 251.18-193.53 131.83-29.41-60.89-8.68-146.76 2.1-154v41.74c15.78-27.55 13.51-32.14 15.51-13.81 8.79-12.39 8.28-12.07 9.19-12.09 1.83 0 15.6-24.9 18.8-24.36 2.46.42-2.75 23.73-3.09 26.75-1.31 11.77-2.44 10.85 4.63 1.06zm135.66 46c0-16.75-57-16.75-57 0s57 16.68 57-.05zM340 318.62c37.93 0 37.93-25.33 0-25.33s-37.9 25.33 0 25.33z" fill="#efceb2"/><path d="M365.71 264.87c-33.93-9.53-36.7-8.08-51.4-5.1" fill="none" stroke="#000" stroke-miterlimit="10" stroke-width="2.05"/><path d="M307.49 284.66v-41.74c-10.28 6.78-31.73 92.65-2.1 154-97.13-18.38-70.66-107.29-67-144.3.77-7.67 12.27-26.87 13-39.16S269.12 161.28 276 149s54.48-48.36 63.56-51.44 27-5.36 40.05-10.74 45.28-1.53 57.56 0 37.61 13 56.05 16.88 36.83 29.93 42.19 37.61 16.92 59.89 24.59 75.24 11.5 47.57 10 99c-1.44 48.37-72 82.14-78.84 82.14 24.08-49.13 17.86-117.29-2.37-162.8 0-.2.06-.45-5.23 26.76-4.07-.86-2.3.67-24.94-86.64-5 9.69-14.35 28.81-19.28 41.16-6.91 17.26-47.51 58.42-47.51 57.28s10.38-25.61 6.64-22.17-23 23-21.88 21.29 10.94-20.71 8.92-18.7-16 13.71-18.14 15.55c.68-2.37 3-6 4.61-8.06 3.74-4.9 4-37.42 3.74-34-.2 2.44-14.38 22.79-22.86 34.38-7.52 10.28-5.9 8-1.6-29.2-26.36 30.82-11.65 24.3-29.39 27.6-.87-7.77 2.98-5.79-14.38 24.52z" fill="#c29b66"/><path d="M497.16 263.94c.08 1.19 1.94.93-13.62-2.3 2.84-14.62 5.23-27 5.23-26.76 3.8 8.54 7.74 19.95 8.39 29.06z" fill="#efceb2"/><path d="M459.7 295.49c37.87 0 37.87 25.32 0 25.32 16.75 0 16.75-25.32 0-25.32z" fill="#fff"/><path d="M459.7 295.49c16.76 0 16.76 25.32 0 25.32s-16.77-25.32 0-25.32zm1.14 10.36c0-4.16-6.32-4.19-6.32 0s6.32 4.15 6.32 0z"/><path d="M457.67 302.69c4.22 0 4.18 6.33 0 6.33s-4.19-6.33 0-6.33z" fill="#fff"/><path d="M459.7 295.49c-16.76 0-16.76 25.32 0 25.32-37.91 0-37.91-25.32 0-25.32zM340 318.62c16.76 0 16.76-25.33 0-25.33 37.94 0 37.94 25.33 0 25.33z" fill="#fff"/><path d="M340 293.29c16.76 0 16.76 25.33 0 25.33s-16.73-25.33 0-25.33zm5.19 10.37c0-4.2-6.34-4.2-6.34 0s6.35 4.17 6.35 0z"/><path d="M342 300.49c4.18 0 4.21 6.32 0 6.32s-4.15-6.32 0-6.32z" fill="#fff"/><path d="M340 293.29c-16.74 0-16.74 25.33 0 25.33-37.9 0-37.9-25.33 0-25.33z" fill="#fff"/><path d="M331.61 258.8c-11.14 15.66-7.91 15.19-9.76 1.37a84.86 84.86 0 019.76-1.37z" fill="#c29b66"/><path d="M506.66 535.05c0 44.44-60 61.53-105.36 62.16m-110.59-55.52c0-.31-.1-.63-.13-1" fill="none" stroke="#000" stroke-miterlimit="10" stroke-width="1.82"/><path d="M401.34 597.24L398.25 780H225.19s11.72-115.34 7.18-88.31-33.7 88.31-33.7 88.31h-72.58s56.76-177.5 75.67-213.86 70.71-27.06 70.71-27.06a92.55 92.55 0 0017.76-3.78c0 63.21 111.01 61.87 111.11 61.94z" fill="#998675" stroke="#000" stroke-miterlimit="10" stroke-width="1.82"/><path d="M290.23 535.05c0 3.21 62.51-20.57 47.87-96.12" fill="none" stroke="#000" stroke-miterlimit="10" stroke-width="1.82"/><path d="M305.39 396.92c39.17 81.34 148.59 81.15 185.75.76M301.73 252.2c-.11.29-.2.6-.29.91m195.77 11.56c-.69-9.6-4.56-21.43-8.24-29.31M340 318.62c16.76 0 16.76-25.33 0-25.33s-16.73 25.33 0 25.33z" fill="none" stroke="#000" stroke-miterlimit="10" stroke-width="2.05"/><path d="M345.2 303.66c0 4.17-6.34 4.17-6.34 0s6.34-4.2 6.34 0zm-31.66-12.09c9.88-1.43 9.33-9.12 50.37 0m95.79 29.24c-16.77 0-16.77-25.32 0-25.32s16.76 25.32 0 25.32z" fill="none" stroke="#000" stroke-miterlimit="10" stroke-width="2.05"/><path d="M454.52 305.85c0 4.21 6.32 4.17 6.32 0s-6.32-4.19-6.32 0zm31.64-12.09c-9.87-1.44-9.32-9.12-50.36 0m63.14-28.67h0z" fill="none" stroke="#000" stroke-miterlimit="10" stroke-width="2.05"/><path d="M429.53 266.24c33.93-9.54 36.7-8.08 51.4-5.11L458.6 175c-5 9.69-14.35 28.81-19.28 41.16-6.91 17.26-47.51 58.42-47.51 57.28s10.38-25.61 6.64-22.17-23 23-21.88 21.29 10.94-20.71 8.92-18.7c-1.51 1.53-11.14 9.66-15.71 13.51-2.84 2.38-3.14 3.07-1.37-.46a35.18 35.18 0 013.55-5.56c3.74-4.9 4-37.42 3.74-34-.3 3.62-26.45 39.36-28.78 42.58l4.32-37.4c-6.79 7.94-21.93 29.45-28.2 38.28-2.38-21.62-.93-14.77-3.87-8.33-3.92 8.58-11.68 22.14-11.68 22.14v-41.7c-10.12 6.68-31.83 92.45-2.1 154-97.13-18.38-70.66-107.29-67-144.3.77-7.67 12.27-26.87 13-39.16S269.12 161.28 276 149s54.48-48.36 63.56-51.44 27-5.36 40.05-10.74 45.28-1.53 57.56 0 37.61 13 56.05 16.88 36.83 29.93 42.19 37.61 16.92 59.89 24.59 75.24 11.5 47.57 10 99c-1.44 48.37-72 82.14-78.84 82.14 19.44-39.69 18.84-90.33 7.76-132.6M389.23 371.58s6.63-2 9.22 0m4.55 0s4.32-2.46 8.06 0m-37.95 31.84c18.55 11.47 34.35 8.84 56.42 0" fill="none" stroke="#000" stroke-miterlimit="10" stroke-width="2.05"/><path d="M340 293.29c37.93 0 37.93 25.33 0 25.33s-37.9-25.33 0-25.33zm119.7 2.2c37.87 0 37.87 25.32 0 25.32s-37.91-25.32 0-25.32zm23.84-33.85c-1.41 7.27-.54 7.44-2.61-.51.88.17 1.75.33 2.61.51zm15.38 3.45c-1-.33-11.72-2.69-15.38-3.45 2.84-14.62 5.23-27 5.23-26.76a230.1 230.1 0 0110.15 30.21z" fill="none" stroke="#000" stroke-miterlimit="10" stroke-width="2.05"/><path d="M999.61 667.13c-36.88-87.42-27.92-63.81-54.51-126.57-4.19 3-8.66 7.08-10.72 11.55-15.35 33.09-9.47 39-15.23 25.44 0-3.52-13-11-1.34-52-11.41 8.45-25.44 12.72-38.81 14.31 0 0-51.43-9.24-70.23 26.87S732.88 780 732.88 780h72.63s29.15-61.7 33.64-88.55S832 780 832 780h168c0-110.16.16-111.58-.39-112.87z" fill="#c7b19b" stroke="#000" stroke-miterlimit="10" stroke-width="1.65"/><path d="M1174.67 780H1011V668l55.17-130.15c10.54 7.66 11.45 11.34 21.08 38.93v0c2.11 6.31.85 7.63 5.75-4.28 0-.18 3.79-8.94 4.63-14.2.73-4-4.08-32.25-3.81-32.12 0 .22 12 10 34.81 12.59 0 0 51.43-9.24 70.23 26.89S1274 780 1274 780h-72.47s-28.61-62.8-33.11-89.64 6.25 89.64 6.25 89.64z" fill="#998577" stroke="#000" stroke-miterlimit="10" stroke-width="1.65"/><path d="M917.88 525.54c-.18.55-.2.52-.07.05zm21.91-27.67c11.74-26.35 4.47-54.47 4.83-57.94.2-1.64 20.9 19.5 59.91 19.33 39.59 0 59.27-21.39 60.21-20.11 3.43 4.68-4.91 28.09 6.63 57.29 1 11.74-14.84 38.49-14.75 38.27l-51.15 120.61c-7.73-20.09-65.67-151.76-65.67-157.78.2-3.78 4.76-9.81-.01.33z" fill="#edccb0"/><path d="M1065.45 440.06c-2.55 17.13-1.37 36.25 4.72 52.35m1.05 2.73c-.35-.83-.68-1.67-1-2.53m22.99 32.25c9.23 7.38 22.14 11.55 38.43 13.47" fill="none" stroke="#000" stroke-miterlimit="10" stroke-width="1.81"/><path d="M920 260.07c13.2-2.63 15.79-4.74 51.06 5.07" fill="none" stroke="#000" stroke-miterlimit="10" stroke-width="2.04"/><path d="M1109.37 293.22c-.39-2.45-4.66-25.35-5.75-25.62-2.33-.58-12.62-2.87-15-3.35-.49 2.29-.32 5.89-.91 5.11-2.51-3.42-22.69-93.49-24.86-89.25-5.43 10.59-13.58 27.5-18.16 39-6.86 17.16-47.19 58.05-47.19 56.9s10.3-25.45 6.59-22-22.9 22.87-21.73 21.15 10.87-20.56 8.85-18.58c-2.16 2.17-18 15.45-18 15.45 0-1.23 3.08-5.9 3.77-6.91 5.25-6.56 4.33-38.37 4.33-34.16 0 2.36-22.5 33.53-22.67 33.7-6.19 7.73-6.36 12.31-4.9.77.78-6.14 5.69-27.76 3.25-28.17-2.87-.5-12 16.76-19.55 24.62-10.11 10.49-7.51 17.53-9 4.13-.42-3.72-.48-5.69-3.62.41-14.92 29.79-11 28-11-20.7-13.15 8.77-17.74 65.09-16.87 88.6 12.12 190.53 243.93 153.39 212.42-41.1zm-163.29 2.47c37.68 0 37.68 25.17 0 25.17s-37.66-25.17 0-25.17zm116.92 27.2c-26.38-.37-32.21-13.55-20.82-20.16 13.94-8.13 51.13-5.94 51.13 7.74-.04 10.34-20.01 12.53-30.31 12.42z" fill="#edccb0"/><path d="M971.61 267.46c-33.71-9.47-36.46-8-51.06-5.07" fill="none" stroke="#000" stroke-miterlimit="10" stroke-width="2.04"/><path d="M913.77 287.12v-41.46c-10.21 6.73-31.52 92-2.08 153-96.48-18.25-70.19-106.58-66.53-143.34.76-7.62 12.19-26.69 13-38.89s17.55-51.85 24.41-64 54.12-48 63.14-51.1 26.82-5.33 39.78-10.67 45-1.52 57.19 0 37.35 13 55.68 16.77 36.58 29.73 41.9 37.36 16.78 59.48 24.41 74.73 11.42 47.26 9.9 98.34c-1.43 48-71.56 81.59-78.31 81.59 23.91-48.81 17.74-116.51-2.36-161.72 0-.21.07-.45-5.19 26.58-4.05-.86-2.29.66-24.77-86.06-5 9.62-14.26 28.61-19.16 40.88-6.87 17.15-47.19 58-47.19 56.9s10.3-25.44 6.59-22-22.89 22.87-21.73 21.15 10.86-20.57 8.85-18.58-15.85 13.62-18 15.45c.67-2.35 3-5.93 4.58-8 3.71-4.87 4-37.17 3.71-33.73-.2 2.43-14.28 22.64-22.7 34.15-7.48 10.21-5.86 8-1.6-29-26.24 30.53-11.63 24.05-29.29 27.32-.85-7.79 3-5.79-14.23 24.33z" fill="#c09966"/><path d="M1102.18 266.53c.09 1.19 1.93.93-13.52-2.28 2.82-14.52 5.19-26.78 5.19-26.58 3.77 8.48 7.7 19.82 8.33 28.86z" fill="#edccb0"/><path d="M1065 297.88c37.62 0 37.62 25.15 0 25.15 16.62-.03 16.62-25.15 0-25.15z" fill="#fff"/><path d="M1077.16 307.53c-.48 0 1.07-5.91-9.27-9.37-6.38-1.41-13.21 1.78-15 8.8-1 1 0 6.82 0 7 3.94 15.62 28.64 9.61 24.27-6.43zm-16.55 2.77c-1.52-1.52-.66-4.91 1.49-5.13 1.6-.58 4 .77 4 2.54a3.17 3.17 0 01-5.49 2.59z"/><path d="M1063 305c4.19 0 4.15 6.28 0 6.28s-4.2-6.28 0-6.28z" fill="#fff"/><path d="M1065 297.88c-16.65 0-16.65 25.15 0 25.15-37.68-.03-37.68-25.15 0-25.15zm-118.92 22.98c16.65 0 16.65-25.17 0-25.17 37.68 0 37.68 25.17 0 25.17z" fill="#fff"/><path d="M946.08 295.69c-16.64 0-16.64 25.17 0 25.17s16.64-25.17 0-25.17zm5 11.35c-1.36 4.09-8.33 1.63-5.57-3 2.79-2.74 6.61-.3 5.57 2.96z"/><path d="M948.09 302.84c4.15 0 4.18 6.28 0 6.28s-4.15-6.28 0-6.28z" fill="#fff"/><path d="M946.08 295.69c-16.63 0-16.63 25.17 0 25.17-37.65 0-37.65-25.17 0-25.17z" fill="#fff"/><path d="M937.73 261.43c-11.06 15.55-7.86 15.09-9.69 1.36a83.63 83.63 0 019.69-1.36z" fill="#c09966"/><path d="M896.63 535.84c0 .65 11.26-3.17 21.48-10.83m21.68-27.14c6.35-16.93 7.77-40.76 4.38-57.5" fill="none" stroke="#000" stroke-miterlimit="10" stroke-width="1.81"/><path d="M911.69 398.63c38.91 80.8 147.6 80.62 184.52.76M908.05 254.87c-.11.29-.2.6-.29.91m194.48 11.48c-.68-9.53-4.53-21.29-8.19-29.12m-147.97 82.72c16.65 0 16.65-25.17 0-25.17s-16.63 25.17 0 25.17z" fill="none" stroke="#000" stroke-miterlimit="10" stroke-width="2.04"/><path d="M951.24 306c0 4.15-6.3 4.15-6.3 0s6.3-4.18 6.3 0zm-31.45-12c9.81-1.43 9.26-9.06 50 0m95.21 29c-16.65 0-16.65-25.15 0-25.15s16.62 25.15 0 25.15z" fill="none" stroke="#000" stroke-miterlimit="10" stroke-width="2.04"/><path d="M1059.83 308.16c0 4.19 6.28 4.15 6.28 0s-6.28-4.16-6.28 0zm31.43-12c-9.81-1.43-9.26-9.06-50 0m62.74-28.48h0z" fill="none" stroke="#000" stroke-miterlimit="10" stroke-width="2.04"/><path d="M1035 268.82c33.71-9.48 36.46-8 51.07-5.07l-22.18-85.56c-5 9.62-14.26 28.61-19.16 40.88-6.87 17.15-47.19 58-47.19 56.9s10.3-25.44 6.59-22-22.89 22.87-21.73 21.15 10.86-20.57 8.85-18.58c-1.5 1.52-11.06 9.6-15.6 13.42-2.82 2.37-3.11 3.05-1.36-.45a35.52 35.52 0 013.53-5.53c3.71-4.87 4-37.17 3.71-33.73-.29 3.59-26.28 39.1-28.59 42.3l4.29-37.16c-6.74 7.89-21.78 29.26-28 38-2.44-22.17 2.46-17.55-15.45 13.72v-41.45c-10 6.63-31.61 91.83-2.08 153-96.48-18.25-70.19-106.58-66.53-143.34.76-7.62 12.19-26.69 13-38.89s17.55-51.85 24.41-64 54.12-48 63.14-51.1S972.54 96 985.5 90.66s45-1.52 57.19 0 37.35 13 55.68 16.77 36.58 29.73 41.9 37.36 16.78 59.48 24.41 74.73 11.42 47.26 9.9 98.34c-1.43 48-71.56 81.59-78.31 81.59 19.33-39.45 18.76-89.72 7.73-131.71M995 373.46s6.59-2 9.16 0m4.53 0s4.3-2.44 8 0M979 405.09c18.42 11.4 34.12 8.78 56 0" fill="none" stroke="#000" stroke-miterlimit="10" stroke-width="2.04"/><path d="M946.08 295.69c37.68 0 37.68 25.17 0 25.17s-37.65-25.17 0-25.17zm118.92 2.19c37.62 0 37.62 25.15 0 25.15s-37.68-25.15 0-25.15zm23.66-33.63c-1.4 7.22-.54 7.39-2.59-.5a99 99 0 012.59.5zm15.28 3.43c-1-.33-11.65-2.67-15.28-3.43 2.82-14.52 5.19-26.78 5.19-26.58a227.42 227.42 0 0110.09 30.01z" fill="none" stroke="#000" stroke-miterlimit="10" stroke-width="2.04"/><path d="M939.79 497.87c9.38 25.85 44.18 106.75 65.68 157.45 64.65-152.43 69.8-155.48 64.76-162.71-.84-1.68 31.54 24.76 27.6 64.12-.71 7.09-4.83 15.39-4.83 15.75-4.91 11.94-3.65 10.56-5.75 4.28v0c-9.69-27.77-10.66-31.35-21.08-38.93L1011 668v112h-11c0-144.48.17-111.58-.38-112.87-36.88-87.42-27.92-63.81-54.51-126.57-4.19 3-8.66 7.08-10.72 11.55-15.35 33.09-9.47 39-15.23 25.44 0-2.17-6-7.41-6-19.75-.03-34.17 7.39-36.26 26.63-59.93z" fill="#746358" stroke="#000" stroke-miterlimit="10" stroke-width="1.65"/><path d="M1070.23 492.61c-.09-.21-.38-.51-.06-.2a.66.66 0 00.06.2zm24.07 35.95c-.48-2.15-.66-3.42-.2-1.57zM1000 668c0 3.06 4.78 13.26-31.13-71.39C962.08 580.64 993.21 652 1000 668zm97.78-110.79c0 5.92-4.78 17.11-4.78 17.29-4.91 11.94-3.61 10.54-5.75 4.27-9.49-27.84-10.66-31.37-21.08-38.95-67.42 159-80.29 187.37 0-2 9.44 6.86 11.15 9.33 22.78 43.89 2.59-5.48 8.23-18.51 8.83-24.5z" fill="#333"/><path d="M511.25 535.3c0 34.16-50.55 61.85-112.91 61.85s-112.9-26.31-112.9-60.47" fill="none" stroke="#42210b" stroke-linejoin="round" stroke-width="10"/></svg>