<svg xmlns="http://www.w3.org/2000/svg" viewBox="0 0 1400 780"><path fill="#ccc" d="M0 0h1400v780H0z"/><path d="M1153.69 383.05c0-87.46 13.69-176.6-96.25-221.89-82.53-34-251.45-19-263.77 133.33-2.76 34 1.3 78.8-1.74 89-16.11 3.53-18.46 6.52-17.44 21.95.87 13 22.09 84.27 34.06 89 21.19 8.31 5.5 20.11 57.77 80.77 19.66 22.82 44.62 38 72.18 50 22.78 10 44 11.42 67 1.27 52.62-23.22 91-55.89 117.68-115.59 10.34-23.14 12.78-4.84 25.57-29.53 10.36-20 23.68-70.34 23.82-80.86.16-13.5-3.81-13.66-18.88-17.45zm-373.2 15.15c-.11-9.59 14.19-10.93 15.33-.31 3 28-2 .35 16.16 91.71-15.28-18.78-31.36-80.21-31.49-91.4zm300.53 166c-24.3 30.14-56.37 47.61-92 59.91a44.47 44.47 0 01-29 .56c-61-19.64-85.17-46.91-106.43-77a259.45 259.45 0 01-44.28-107c-6.9-39.82-11.51-79.77-10-120.2 2.17-58.38 6.78-96.83 56.34-133.68 66.79-49.67 182.85-48.09 246.23 8.42 44.49 39.66 41.21 75.92 43.68 109.55.6 8.23 5 37.27-.55 81.67-8.18 65.32-14.77 116.64-64.01 177.72zm84.77-158.67c-18.2 62.47-20.79 73.72-31.79 82.21 13.3-35.23 16.48-90 17.83-91.86 1.59-2.23 4.61-5.18 6.65-4.92a11.58 11.58 0 017.7 5.45c1.18 2.35.45 6.18-.39 9.07z"/><path d="M1101.67 389.72l-26.58-11.05-1.32 14c5.78-.29 22.9-2.68 27.9-2.93-19.37 11.56-61.1 6.8-82.83.74 8.05 2 24 2.32 16.73-7.55l-16.73 7.55c-12.13-36 85.6-42.48 82.83-.76zm-55.5.45c.31.23 1.61 1.08-.07.06-.21-.15-1.64-1.09.07-.06zm-120.62.29l-16.73-7.55c-7.3 9.87 8.68 9.53 16.73 7.55-21.73 6.06-63.46 10.82-82.83-.74 5 .25 22.12 2.64 27.9 2.93l-1.32-14-26.58 11.05c-2.72-41.7 95-35.34 82.83.76zm-26.55-.78a10.73 10.73 0 01-1.59 1.06 10 10 0 011.59-1.06zm124 163.6H921.68c3.65-2.83 5.47-5.45 7.45-5.57 10.57-.64 20.82-4.07 31.77-2a63 63 0 0024 .15c11-2.32 21.23 1.45 31.85 1.46 2.23 0 4.45 2.32 6.68 3.57zm-20.45-62.41c-17.06 9.32-41.55 9.28-57.94.05 6.14-3.63 11.69-4.38 17.54-1.35 20.16 10.43 25.34-10.08 40.4 1.3zm-55.88 76.44h52c-10.99 11.48-34.53 11.96-52 0zM606.85 383.05c15.07 3.79 19 4 18.86 17.44-.15 10.52-13.47 60.86-23.83 80.86-12.79 24.69-15.23 6.39-25.57 29.53-26.67 59.7-65 92.37-117.67 115.59-23 10.15-44.19 8.72-67-1.27-27.56-12.08-52.52-27.22-72.18-50-52.27-60.66-36.58-72.46-57.77-80.77-12-4.7-33.19-76-34-89C226.63 390 229 387 245.1 383.47c3-10.18-1-54.94 1.73-89C259.62 136.41 436.4 130.6 510.6 161.16c109.94 45.29 96.25 134.43 96.25 221.89zm-298-196.27c-49.56 36.85-54.17 75.3-56.33 133.68-1.5 40.43 3.11 80.38 10 120.2a259.59 259.59 0 0044.28 107c21.26 30.07 45.39 57.34 106.43 77a44.47 44.47 0 0029-.56c35.59-12.3 67.66-29.77 92-59.91 49.22-61.08 55.81-112.4 64.05-177.73 5.6-44.4 1.15-73.44.55-81.67-2.46-33.63.81-69.89-43.67-109.55-63.44-56.55-179.49-58.13-246.29-8.46zm-43.7 302.82C247 398.24 252 425.85 249 397.89c-1.14-10.62-15.44-9.28-15.33.31.11 11.19 16.19 72.62 31.48 91.4zm322-1.86c11.07-8.49 13.63-19.71 31.83-82.26.84-2.89 1.57-6.72.35-9.07a11.58 11.58 0 00-7.69-5.45c-2.05-.26-5.07 2.69-6.66 4.92-1.38 1.89-4.56 56.63-17.86 91.86z"/><path d="M554.83 389.72l-26.58-11.05-1.32 14c5.79-.29 22.9-2.68 27.9-2.93-19.37 11.56-61.1 6.8-82.83.74 8.06 2 24 2.32 16.73-7.55L472 390.46c-12.13-35.98 85.6-42.46 82.83-.74zm-55.5.45c.31.23 1.62 1.08-.07.06-.21-.15-1.63-1.09.07-.06zm-120.62.29L362 382.91c-7.3 9.87 8.68 9.53 16.73 7.55-21.73 6.06-63.45 10.82-82.83-.74 5 .25 22.12 2.64 27.91 2.93l-1.33-14-26.58 11.05c-2.79-41.7 94.98-35.34 82.81.76zm-26.51-.78a10.73 10.73 0 01-1.59 1.06 10 10 0 011.59-1.06zm123.96 163.6H374.84c3.65-2.83 5.48-5.45 7.45-5.57 10.57-.64 20.82-4.07 31.77-2a63 63 0 0024 .15c11-2.32 21.24 1.45 31.85 1.46 2.23 0 4.45 2.32 6.68 3.57zm-20.45-62.41c-17.06 9.32-41.55 9.28-57.94.05 6.14-3.63 11.69-4.38 17.54-1.35 20.16 10.43 25.34-10.08 40.4 1.3zm-55.88 76.44h52c-10.99 11.48-34.53 11.96-52 0z"/><path d="M282.59 366.49c-3.13-36 71.65-40.51 101.14-32.86 4.91 1.28 10.62 2 12.23 10-40.44-4.54-29.29-5.22-73.11.71-16.11 2.18-29.47 9.26-40.26 22.15zm284.71 2.42c-13.31-13.71-20-22.73-51.24-27-17.72-2.39-35.45-4.8-53.28-.32-2.55.64-5.58-.65-10-1.27 6.09-7.6 13.37-8.75 20.13-9.2 22.37-1.49 44.69-1.34 66.54 5.08 14.75 4.37 24.55 15.04 27.85 32.71zm262.96-2.42c-3.13-36 71.65-40.51 101.13-32.86 4.92 1.28 10.63 2 12.24 10-40.44-4.54-29.29-5.22-73.12.71-16.1 2.18-29.46 9.26-40.25 22.15zm284.74 2.42c-13.3-13.71-20-22.73-51.23-27-17.72-2.39-35.46-4.8-53.29-.32-2.54.64-5.57-.65-10-1.27 6.1-7.6 13.38-8.75 20.14-9.2 22.37-1.49 44.69-1.34 66.54 5.08 14.71 4.37 24.5 15.04 27.84 32.71z"/><path d="M999.84 147.81a292.49 292.49 0 01-32.25-1.16 268.68 268.68 0 0132.25 1.16z" fill="none" stroke="#000" stroke-miterlimit="10" stroke-width="1.22"/><path d="M1136.61 340.1c-68.37-6.46-145.08 21.88-148 25.41a78 78 0 01-31 0c-2.79-3.39-78.57-32-148-25.41-20.27 1.93-11.79 15.34-9.43 34.52s22.16 40.26 39.12 51.76c12.88 8.74 35.19 6 54.9 7.95 16.68-.21 40.54-.64 51.62-15.13 3.11-4.07 15-26.28 15.62-35.25a51.85 51.85 0 0123.38 0c.58 8.79 12.37 31 15.61 35.25s17 13.69 32.52 14.38c0 0 57 4.31 74-7.2s36.77-32.59 39.13-51.76 10.8-32.62-9.47-34.52zm-188 50.78c-2.3 7.08-9.2 20.85-11.87 24.39-14.17 18.65-75.43 13.53-86.56 5.9-13.8-9.44-29.88-26.75-31.8-42.49s-8.8-26.75 7.66-28.33c55.58-5.29 117.91 17.94 120.27 20.86 1.94 2.35 4.63 12.58 2.33 19.67zm179.14-12.2c-1.92 15.74-18 33.05-31.79 42.49-11 7.53-72.25 12.94-86.56-5.9-2.68-3.54-9.57-17.31-11.87-24.39s.38-17.32 2.3-19.67c2.25-2.79 63.83-26.23 120.26-20.86 16.5 1.58 9.6 12.65 7.69 28.33z" fill="#736357"/></svg>