<svg xmlns="http://www.w3.org/2000/svg" viewBox="0 0 1400 780"><path fill="#f5e0cd" d="M0 0h1400v780H0z"/><path fill="none" stroke="red" stroke-miterlimit="10" stroke-width="4.51" d="M1297.47 292.96H102.53"/><path d="M653.88 497.46c-2.4-3.71-5.24-9.31-9.75-17-1.15-2-2.2-4-3.12-5.94h19.12c.27 1.83 0 3.39.15 5.94.19 3.55 4.18 6 6.08 5.26 1.43-.58 2.75-4.38 3.08-7.44a3.63 3.63 0 003.95-3.76h136.13c0 5 7.6 5 7.6 0h14.93c3.42 7.46 12.21 20.69 15.94 26.78 4.38 7.12 3 11.69 1.34 14.82s-3.33 3.51-14 4.84c-14.22 1.77-7 15.86-4.17 22.59-1.27.08-6.89.46-9.41 1.64-14.46 6.75-15.88 7.93 1.65 19.46a47.09 47.09 0 00-4.88 2.95c-2.86 2.29-3.42 22.81-10.26 34.21S757.84 606 739 605.18s-23 37.18-23 37.18H576.59s15.56-77.47 19.76-109.44c0 0 51.13-25.92 57.53-35.46zm183.28 19.37c-4-1.07-7.25-.52-12.15 3.46-.01 0 9.55-.04 12.15-3.46z" fill="#f1dbcb"/><path d="M825 520.29c4.9-4 8.18-4.53 12.15-3.46-2.59 3.42-12.15 3.46-12.15 3.46z" fill="#4a0f00"/><path d="M826.62 553.49a9.55 9.55 0 012 5.61c.12 2.15-2.47 3.93-5.19 5.5-17.53-11.53-16.11-12.71-1.65-19.46 2.52-1.18 8.14-1.56 9.41-1.64a9.22 9.22 0 01.94 3.06c-.19 3.7-5.51 6.93-5.51 6.93z" fill="#eacbc6"/><path d="M811.22 454.93c-1.66.73-21.74 7.84-21.74 7.84s15.58 4.27 19.76 4.08a2.33 2.33 0 002.1-1.67c.79-1.9.64-5.15.19-8.24-.09-.68-.19-1.36-.31-2.01zm-151.09 19.54H641c-6.73-14.21-7.51-27.83-2-36.65 6.27-10 13.68-8.77 41 5.95s109.48-109.62 109.48-109.62c1 .68 1.95 1.34 2.85 2 42.21 30.38 36.53 127.46 38.47 135.09a19.78 19.78 0 001.25 3.24h-14.93c0-4.86-7.12-5-7.58-.47v.47H673.39c0-5-7.6-5-7.6 0zM813.32 438s3-2.65 1.43-5.12-18.33-.67-18.81-.67-20.71 9.5-21 11.59 20.13-6.93 23.93-6.74 14.45.94 14.45.94z" fill="#f1dbcb"/><path d="M813.61 474.47h3.51c0 5-7.6 5-7.6 0h4.09z" fill="#4a0f00"/><path d="M814.75 432.85c1.61 2.47-1.43 5.12-1.43 5.12s-10.64-.75-14.44-.94-24.22 8.83-23.93 6.74 20.51-11.59 21-11.59 17.18-1.8 18.8.67zm-3.22 24.09c.45 3.09.6 6.34-.19 8.24-3.52-5.38.19-8.24.19-8.24z" fill="#7d4921"/><path d="M811.22 454.93c.12.65.22 1.33.31 2 0 0-3.71 2.86-.19 8.24a2.33 2.33 0 01-2.1 1.67c-4.18.19-19.76-4.08-19.76-4.08s20.08-7.1 21.74-7.83z" fill="#fff"/><path d="M641 474.47c.92 2 2 3.95 3.12 5.94 4.51 7.73 7.35 13.33 9.75 17-6.4 9.51-57.53 35.46-57.53 35.46a90.11 90.11 0 001-11.54c-.29-15.95-28.5-57.28-36.77-90.05s2.29-52.15 23.09-86.36 80.94-46.45 109.44-47c27.3-.55 73.68 20.87 96.33 36.2 0 0-82.08 124.35-109.44 109.62s-34.77-16-41-5.95c-5.49 8.85-4.71 22.47 2.01 36.68z" fill="#7d4921"/><path d="M673.39 474.47h-7.6c0-5.03 7.6-5.03 7.6 0zm-3.95 3.76a3.62 3.62 0 01-3.65-3.76h7.6a3.63 3.63 0 01-3.95 3.76z" fill="#4a0f00"/><path d="M669.44 478.23c-.33 3.06-1.65 6.86-3.08 7.44-1.9.76-5.89-1.71-6.08-5.26-.14-2.55.12-4.11-.15-5.94h5.66a3.62 3.62 0 003.65 3.76z" fill="#f1dbcb"/><path d="M596.35 532.92c-4.2 32-19.76 109.44-19.76 109.44H716s4.28-38 23.09-37.18 62.41 8 69.25-3.42 7.4-31.92 10.26-34.21a47.09 47.09 0 014.88-2.95c2.72-1.57 5.31-3.35 5.19-5.5a9.55 9.55 0 00-2-5.61s5.32-3.23 5.51-6.93a9.22 9.22 0 00-.94-3.06c-2.79-6.73-10.05-20.82 4.17-22.59 10.64-1.33 12.35-1.71 14-4.84s3-7.7-1.34-14.82c-3.73-6.09-12.52-19.32-15.94-26.78a19.78 19.78 0 01-1.25-3.24c-1.94-7.63 3.74-104.71-38.47-135.09-.9-.65-1.85-1.31-2.85-2-22.65-15.33-69-36.75-96.33-36.2-28.5.57-88.64 12.83-109.44 47s-31.34 53.58-23.09 86.36 36.48 74.1 36.77 90.05a90.11 90.11 0 01-1.12 11.57zM680 508.56s5.42 43.61 33.35 55.29m56.97 32.21a91.38 91.38 0 0010.32 4.55" fill="none" stroke="#000" stroke-miterlimit="10" stroke-width=".9"/><path d="M823.43 564.6c-17.53-11.53-16.11-12.71-1.65-19.46 2.52-1.18 8.14-1.56 9.41-1.64h.26m-4.83 9.99s-7.13-.19-9 0m-8-6.65s-.76 6.08-1.33 8.18" fill="none" stroke="#000" stroke-miterlimit="10" stroke-width=".9"/><path d="M837.16 516.83c-4-1.07-7.25-.52-12.15 3.46-.01 0 9.55-.04 12.15-3.46z" fill="none" stroke="#000" stroke-linecap="round" stroke-linejoin="round" stroke-width=".45"/><path d="M826.48 507.85s-14.72.09-9.22 12.12" fill="none" stroke="#000" stroke-miterlimit="10" stroke-width=".9"/><path d="M811.22 454.93c.12.65.22 1.33.31 2 .45 3.09.6 6.34-.19 8.24a2.33 2.33 0 01-2.1 1.67c-4.18.19-19.76-4.08-19.76-4.08s20.08-7.11 21.74-7.84h.11" fill="none" stroke="#000" stroke-linecap="round" stroke-linejoin="round" stroke-width=".45"/><path d="M813.32 443.77c-.09.29-3.42 4.75-3.42 5.22 0 0 .74 2.69 1.32 5.94m-1.32-5.46s-15.87 2.66-22 6.36m25.93 18.66h-.22m-19.67-4.78c4.63 2.41 11.29 3.69 15.6 4.29 1.73.25 3.09.39 3.78.45h.23m-.23-36.45s3-2.65 1.43-5.12-18.33-.67-18.81-.67-20.71 9.5-21 11.59 20.13-6.93 23.93-6.74 14.45.94 14.45.94zm-159.44 59.46c2.63 4.1 4.73 5.89 7.92 5.68 6.08-.38 11 .58 14.63-4.74m113.05-164.25S707.4 458.5 680 443.77s-34.77-16-41-5.95c-5.5 8.82-4.72 22.44 2 36.65.92 2 2 3.95 3.12 5.94 4.51 7.73 7.35 13.33 9.75 17" fill="none" stroke="#000" stroke-miterlimit="10" stroke-width=".9"/><path d="M666.55 466.86c.76-.95 5.7-12.54 4.75-17.39s-8.55-8.64-14.44-7.89c-17.26 2.23-14.14 8.43-12.73 18.05m4.77-16.27s1.17 11.15 0 14.95" fill="none" stroke="#000" stroke-miterlimit="10" stroke-width=".9"/><path d="M656.86 441.58s-3.23 6.66-1 7.89a4.66 4.66 0 004.37 0m11.07 0c-16.35 9.46-15.13 13.45-11.78 22.62a12.46 12.46 0 01.61 2.38c.27 1.83 0 3.39.15 5.94.19 3.55 4.18 6 6.08 5.26 1.43-.58 2.75-4.38 3.08-7.44a9.41 9.41 0 000-2.63m-18.85 1.52l6.56 8.69m-60.8 47.11s51.13-25.95 57.53-35.46h0" fill="none" stroke="#000" stroke-miterlimit="10" stroke-width=".9"/><path fill="none" stroke="red" stroke-miterlimit="10" stroke-width="4.51" d="M813.55 474.47H609.93"/><path fill="none" stroke="#000" stroke-miterlimit="10" stroke-width=".9" d="M813.61 474.47h-.06"/><path fill="none" stroke="red" stroke-miterlimit="10" stroke-width="4.51" d="M856.17 474.47h-42.56"/><path d="M673.39 474.47a3.8 3.8 0 01-7.6 0c0-5.03 7.6-5.03 7.6 0zm143.73 0c0 5-7.6 5-7.6 0V474c.48-4.55 7.6-4.39 7.6.47z" fill="none" stroke="#000" stroke-miterlimit="10" stroke-width=".9"/><path d="M811.53 456.94s-3.71 2.86-.19 8.24" fill="none" stroke="#000" stroke-linecap="round" stroke-linejoin="round" stroke-width=".45"/><path d="M280 507.09c-3.21-3-7.28-7.81-13.49-14.25a83.454 83.454 0 01-4.44-5l18.58-4.51c.7 1.72.81 3.29 1.55 5.74 1 3.4 5.49 4.86 7.15 3.67 1.26-.9 1.64-4.9 1.23-7.95a3.64 3.64 0 003-4.59L425.82 448c1.19 4.89 8.57 3.1 7.38-1.8l14.51-3.52c5.08 6.43 16.75 17.22 21.82 22.25 5.93 5.89 5.62 10.66 4.79 14.09s-2.4 4.2-12.43 8c-13.4 5.07-3 17 1.28 22.93-1.21.37-6.59 2.08-8.76 3.81-12.45 10-13.55 11.46 6.2 18.53a46.42 46.42 0 00-4 4c-2.23 2.89 2.06 23-1.9 35.66s-48 16.06-66.48 19.67-24.46 50.56-24.46 50.56H155.81c0-.06-.52-2.44 8.05-14.79 11.36-16.39 42.14-27.87 52.43-42.71a89 89 0 0013.46-29.56S276 517.85 280 507.09zm182.68-24.45c-4.11-.1-7.17 1.21-11 6.23.01 0 9.32-2.29 11-6.23z" fill="#f5e5da"/><path d="M451.69 488.87c3.82-5 6.88-6.33 11-6.23-1.69 3.94-11 6.23-11 6.23z" fill="#7e554a"/><path d="M461.1 520.76a9.55 9.55 0 013.26 5c.62 2.06-1.48 4.41-3.75 6.58-19.75-7.07-18.65-8.56-6.2-18.53 2.17-1.73 7.55-3.44 8.76-3.81a9.33 9.33 0 011.64 2.75c.69 3.61-3.71 8.01-3.71 8.01z" fill="#f0dad7"/><path d="M280.65 483.28l-18.58 4.51c-9.89-12.22-13.87-25.27-10.6-35.14 3.71-11.24 11.22-11.75 41.28-3.91 29.74 7.78 79.4-129.41 80.45-132.3 1.13.38 2.21.78 3.25 1.2 48.19 19.57 65.6 115.23 69.28 122.19a20.62 20.62 0 002 2.86l-14.51 3.52c-1.14-4.72-8.1-3.19-7.47 1.34a4.14 4.14 0 00.09.46l-132.3 32.14c-1.19-4.89-8.57-3.09-7.39 1.79zm142.2-54.66c-1.44 1.1-19.27 12.75-19.27 12.75s16.15.47 20.17-.7a2.28 2.28 0 001.62-1.94c.38-2-.48-5-1.61-7.93-.29-.75-.6-1.48-.91-2.18zm-2-17s2.33-3.3.18-5.32-18 3.68-18.43 3.79-17.85 14.15-17.6 16.25 17.93-11.49 21.67-12.21 14.22-2.48 14.22-2.48z" fill="#f5e5da"/><path d="M429.79 447l3.41-.83c1.19 4.9-6.19 6.69-7.38 1.8l3.91-.95z" fill="#7e554a"/><path d="M421.07 406.33c2.15 2-.18 5.32-.18 5.32s-10.51 1.77-14.25 2.48-21.45 14.31-21.64 12.21 17.2-16.11 17.67-16.22 16.25-5.81 18.4-3.79zm2.69 24.47c1.13 2.9 2 6 1.61 7.93-4.7-4.41-1.61-7.93-1.61-7.93z" fill="#a37e61"/><path d="M422.85 428.62c.31.7.62 1.43.91 2.18 0 0-3.09 3.52 1.61 7.93a2.28 2.28 0 01-1.62 1.94c-4 1.17-20.17.7-20.17.7s17.83-11.65 19.27-12.75z" fill="#fff"/><path d="M262.07 487.79c1.36 1.71 2.85 3.38 4.44 5 6.21 6.44 10.28 11.22 13.49 14.25-4 10.76-50.25 48-50.25 48 1.27-5.4 1.51-9.54 1-11.44-4-15.44-45.73-46.95-57-78.82-10.74-30.45-12.94-38.12-.8-76.27s72.58-66.43 100.13-73.71c26.39-7 74.62-7.14 100.1 1.56-1.05 2.89-50.71 140.08-80.45 132.3-30.06-7.84-37.57-7.33-41.28 3.91-3.25 9.95.73 23 10.62 35.22z" fill="#a37e61"/><path d="M293.54 480.15l-7.39 1.79c-1.15-4.88 6.2-6.68 7.39-1.79z" fill="#7e554a"/><path d="M290.58 484.74a3.63 3.63 0 01-4.43-2.8l7.39-1.79a3.64 3.64 0 01-2.96 4.59z" fill="#7e554a"/><path d="M290.58 484.74c.41 3.05 0 7.05-1.23 7.95-1.66 1.19-6.13-.27-7.15-3.67-.74-2.45-.85-4-1.55-5.74l5.5-1.34a3.63 3.63 0 004.43 2.8z" fill="#f5e5da"/><path d="M229.75 555.12a89 89 0 01-13.46 29.56C206 599.52 175.22 611 163.86 627.43c-8.57 12.35-8.06 14.73-8.05 14.79h207.92s6-47 24.46-50.56 62.53-7 66.48-19.67-.33-32.77 1.9-35.66a46.42 46.42 0 014-4c2.27-2.17 4.37-4.52 3.75-6.58a9.55 9.55 0 00-3.26-5s4.4-4.4 3.71-8a9.33 9.33 0 00-1.64-2.75c-4.29-5.88-14.68-17.86-1.28-22.93 10-3.81 11.6-4.59 12.43-8s1.14-8.2-4.79-14.09c-5.07-5-16.74-15.82-21.82-22.25a20.62 20.62 0 01-2-2.86c-3.68-7-21.09-102.62-69.28-122.19-1-.42-2.12-.82-3.25-1.2-25.48-8.7-73.71-8.53-100.1-1.56-27.55 7.28-88 35.57-100.13 73.71s-9.94 45.82.8 76.27c11.26 31.87 52.94 63.38 57 78.82.55 1.86.29 6-.96 11.4zm78.3-43.42s15.56 41.1 45.46 45.86m62.92 17.85a92.74 92.74 0 0011.11 2" fill="none" stroke="#4a4a4a" stroke-miterlimit="10" stroke-width=".9"/><path d="M460.61 532.31c-19.75-7.07-18.65-8.56-6.2-18.53 2.17-1.73 7.55-3.44 8.76-3.81l.25-.08m-2.32 10.87s-7 1.5-8.77 2.13m-9.33-4.58s.7 6.09.64 8.26" fill="none" stroke="#4a4a4a" stroke-miterlimit="10" stroke-width=".9"/><path d="M462.68 482.64c-4.11-.1-7.17 1.21-11 6.23.01 0 9.32-2.29 11-6.23z" fill="none" stroke="#4a4a4a" stroke-linecap="round" stroke-linejoin="round" stroke-width=".45"/><path d="M450.18 476.43s-14.28 3.58-6.09 14" fill="none" stroke="#4a4a4a" stroke-miterlimit="10" stroke-width=".9"/><path d="M422.85 428.62c.31.7.62 1.43.91 2.18 1.13 2.9 2 6 1.61 7.93a2.28 2.28 0 01-1.62 1.94c-4 1.17-20.17.7-20.17.7s17.83-11.65 19.27-12.75a.37.37 0 00.1-.07" fill="none" stroke="#4a4a4a" stroke-linecap="round" stroke-linejoin="round" stroke-width=".45"/><path d="M422.26 417.28c0 .3-2.2 5.42-2.09 5.88 0 0 1.36 2.44 2.68 5.46m-2.56-4.99S405.5 430 400.37 435M430 447h-.22m-20.22.05c5.06 1.26 11.83.93 16.17.5 1.74-.18 3.09-.35 3.78-.46h.22m-8.84-35.44s2.33-3.3.18-5.32-18 3.68-18.43 3.79-17.89 14.12-17.64 16.22 17.93-11.49 21.67-12.21 14.22-2.48 14.22-2.48zM280 507.09c3.53 3.36 6 4.61 9.05 3.66 5.82-1.81 10.84-2 13.09-8.07m71.07-186.29a.18.18 0 010 .05c-1.05 2.89-50.71 140.08-80.45 132.3-30.06-7.84-37.57-7.33-41.28 3.91-3.27 9.87.71 22.92 10.6 35.14 1.36 1.71 2.85 3.38 4.44 5 6.21 6.44 10.28 11.22 13.49 14.25" fill="none" stroke="#4a4a4a" stroke-miterlimit="10" stroke-width=".9"/><path d="M285.09 474.37c.51-1.11 2.58-13.54.51-18s-10.35-6.38-15.89-4.25c-16.25 6.24-11.75 11.52-8.11 20.54m.8-16.96s3.76 10.56 3.53 14.52" fill="none" stroke="#4a4a4a" stroke-miterlimit="10" stroke-width=".9"/><path d="M269.71 452.1s-1.57 7.22.94 7.88a4.63 4.63 0 004.24-1m10.71-2.63c-13.65 13-11.52 16.64-6.11 24.76a11.36 11.36 0 011.16 2.17c.7 1.72.81 3.29 1.55 5.74 1 3.4 5.49 4.86 7.15 3.67 1.26-.9 1.64-4.9 1.23-7.95a9.17 9.17 0 00-.65-2.55m-17.92 5.91l8.43 6.9m-50.69 60.12s46.27-37.27 50.25-48c0 0 0 0 0 0" fill="none" stroke="#4a4a4a" stroke-miterlimit="10" stroke-width=".9"/><path fill="none" stroke="#ff4a4a" stroke-miterlimit="10" stroke-width="4.51" d="M429.73 447.06l-3.91.95-132.28 32.14-7.39 1.79-5.5 1.34-18.58 4.52-30.2 7.33"/><path fill="none" stroke="#4a4a4a" stroke-miterlimit="10" stroke-width=".9" d="M429.79 447.04l-.06.02"/><path fill="none" stroke="#ff4a4a" stroke-miterlimit="10" stroke-width="4.51" d="M471.15 436.99l-23.44 5.7-14.51 3.52-3.41.83"/><path d="M293.54 480.15a3.8 3.8 0 01-7.39 1.79c-1.15-4.88 6.2-6.68 7.39-1.79zm139.66-33.94c1.19 4.9-6.19 6.69-7.38 1.8a4.14 4.14 0 01-.09-.46c-.63-4.55 6.33-6.06 7.47-1.34z" fill="none" stroke="#4a4a4a" stroke-miterlimit="10" stroke-width=".9"/><path d="M423.76 430.8s-3.09 3.52 1.61 7.93" fill="none" stroke="#4a4a4a" stroke-linecap="round" stroke-linejoin="round" stroke-width=".45"/><path d="M1041.52 493.93c-1.58-4.12-3.19-10.19-6-18.69q-1.08-3.27-1.82-6.45l18.71 4c-.12 1.85-.7 3.32-1.09 5.84-.55 3.51 2.85 6.76 4.86 6.41 1.52-.27 3.6-3.71 4.55-6.64a3.64 3.64 0 004.65-2.86l133.17 28.23c-1 4.92 6.39 6.5 7.43 1.57l14.61 3.1c1.8 8 7.65 22.76 10.05 29.5 2.8 7.87.46 12-1.77 14.77s-4 2.75-14.67 1.85c-14.28-1.22-10.1 14.07-8.76 21.23-1.26-.19-6.85-1-9.55-.35-15.54 3.6-17.18 4.47-2.42 19.38a46.81 46.81 0 00-5.39 1.88c-3.26 1.64-8.07 21.6-17.13 31.33s-50.23-6.28-68.45-11-30.3 23.89-30.3 23.89l-136.33 1.5s-6.8-16.18 4.69-52.33c3.72-11.72 14.33-23 22.74-39.1 6.66-12.73 10.61-29.29 18-45.3a14 14 0 00.87-2.51c1.83-.12 51.27-1.43 59.35-9.25zm175.29 56.95c-3.66-1.86-7-2-12.61.87 0 0 9.35 1.94 12.61-.87z" fill="#f5e5da"/><path d="M1204.2 551.75c5.62-2.88 9-2.73 12.61-.87-3.26 2.81-12.61.87-12.61.87z" fill="#7e554a"/><path d="M1198.9 584.57a9.53 9.53 0 01.79 5.89c-.33 2.13-3.24 3.34-6.22 4.31-14.76-14.91-13.12-15.78 2.42-19.38 2.7-.63 8.29.16 9.55.35a9.39 9.39 0 01.28 3.19c-.95 3.58-6.82 5.64-6.82 5.64z" fill="#f0dad7"/><path d="M1202.79 494a20.56 20.56 0 001.31-6.26c.08-.94.13-1.89.16-2.8-1.77.37-22.89 3.16-22.89 3.16s14.36 7.42 18.49 8.1c1.33.23 2.28-.68 2.93-2.2zm-4.12 9.25a3.45 3.45 0 00-.12.46l-133.17-28.23c1-4.92-6.4-6.49-7.44-1.57l-5.53-1.18-18.71-4c-3.63-15.3-1.58-28.79 5.64-36.27 8.21-8.53 15.19-5.75 38.91 14.32 23.48 19.9 127.78-82.57 129.76-84.51.85.84 1.65 1.67 2.4 2.5 35 38.48 9.32 132.27 9.63 140.14a19.85 19.85 0 00.55 3.43l-14.61-3.1c1.02-4.71-5.92-6.33-7.31-1.98zm11.16-34.46s3.53-2 2.46-4.72-17.79-4.45-18.26-4.55-22.23 5-22.94 7 21.14-2.6 24.81-1.63 13.93 3.91 13.93 3.91z" fill="#f5e5da"/><path d="M1202.55 504.56l3.43.73c-1 4.93-8.47 3.35-7.43-1.57l3.94.83z" fill="#7e554a"/><path d="M1212.29 464.08c1.07 2.75-2.46 4.72-2.46 4.72s-10.25-2.95-13.93-3.92-25.52 3.62-24.81 1.63 22.47-7.08 22.94-7 17.19 1.82 18.26 4.57zm-8.19 23.67a20.56 20.56 0 01-1.31 6.26c-2.31-6.01 1.31-6.26 1.31-6.26z" fill="#a37e61"/><path d="M1204.26 485c0 .91-.08 1.86-.16 2.8 0 0-3.62.27-1.31 6.26-.65 1.51-1.6 2.42-2.93 2.2-4.13-.68-18.49-8.1-18.49-8.1s21.12-2.84 22.89-3.16z" fill="#fff"/><path d="M1033.7 468.78q.73 3.18 1.82 6.45c2.81 8.5 4.42 14.57 6 18.69-8.08 7.82-57.51 9.13-59.35 9.19 4.07-16.49-11.35-57.07-12.58-89.07-1.29-33.78 6.26-45.25 33.71-74.4s88.7-28.42 116.7-23.07c26.81 5.13 68.93 26.81 88 45.75-2 1.94-106.28 104.41-129.76 84.51-23.72-20.07-30.7-22.85-38.91-14.32-7.21 7.49-9.26 20.97-5.63 36.27z" fill="#a37e61"/><path d="M1065.38 475.49l-7.44-1.57c1.06-4.92 8.48-3.35 7.44 1.57z" fill="#7e554a"/><path d="M1060.73 478.35a3.62 3.62 0 01-2.79-4.43l7.44 1.57a3.64 3.64 0 01-4.65 2.86z" fill="#7e554a"/><path d="M1060.73 478.35c-1 2.93-3 6.37-4.55 6.64-2 .35-5.41-2.9-4.86-6.41.39-2.52 1-4 1.09-5.84l5.53 1.18a3.62 3.62 0 002.79 4.43z" fill="#f5e5da"/><path d="M982.17 503.12a14 14 0 01-.87 2.51c-7.39 16-11.34 32.57-18 45.3-8.41 16.06-19 27.38-22.74 39.1-11.49 36.15-4.69 52.33-4.69 52.33l136.33-1.5s12.08-28.63 30.3-23.89 59.4 20.75 68.45 11 13.87-29.69 17.13-31.33a46.81 46.81 0 015.39-1.88c3-1 5.89-2.18 6.22-4.31a9.53 9.53 0 00-.79-5.89s5.87-2.06 6.82-5.64a9.39 9.39 0 00-.28-3.19c-1.34-7.16-5.52-22.45 8.76-21.23 10.68.9 12.44.88 14.67-1.85s4.57-6.9 1.77-14.77c-2.4-6.74-8.25-21.5-10.05-29.5a19.85 19.85 0 01-.59-3.38c-.31-7.87 25.36-101.66-9.63-140.14-.75-.83-1.55-1.66-2.4-2.5-19.09-18.94-61.21-40.62-88-45.75-28-5.35-89.25-6.06-116.69 23.08s-35 40.62-33.71 74.4c1.25 31.96 16.67 72.54 12.6 89.03zm82.65 7.1s-3.75 43.78 21.15 61m49.03 43.31a92 92 0 009.15 6.6" fill="none" stroke="#4a4a4a" stroke-miterlimit="10" stroke-width=".9"/><path d="M1193.47 594.77c-14.76-14.91-13.12-15.78 2.42-19.38 2.7-.63 8.29.16 9.55.35h.26m-6.8 8.83s-6.94-1.67-8.83-1.87m-6.43-8.17s-2 5.8-3 7.73" fill="none" stroke="#4a4a4a" stroke-miterlimit="10" stroke-width=".9"/><path d="M1216.81 550.88c-3.66-1.86-7-2-12.61.87 0 0 9.35 1.94 12.61-.87z" fill="none" stroke="#4a4a4a" stroke-linecap="round" stroke-linejoin="round" stroke-width=".45"/><path d="M1208.22 539.88s-14.42-3-11.53 10" fill="none" stroke="#4a4a4a" stroke-miterlimit="10" stroke-width=".9"/><path d="M1204.26 485c0 .91-.08 1.86-.16 2.8a20.56 20.56 0 01-1.31 6.26c-.65 1.51-1.6 2.42-2.93 2.2-4.13-.68-18.49-8.1-18.49-8.1s21.12-2.79 22.89-3.16a.22.22 0 00.12 0" fill="none" stroke="#4a4a4a" stroke-linecap="round" stroke-linejoin="round" stroke-width=".45"/><path d="M1208.63 474.47c-.15.26-4.33 3.94-4.43 4.4 0 0 .17 2.78.06 6.08m-.16-5.61s-16.07-.69-22.88 1.65m21.54 23.64l-.21-.07m-18.25-8.74c4 3.33 10.27 5.95 14.37 7.44 1.64.6 2.93 1 3.6 1.23l.22.06m7.34-35.75s3.53-2 2.46-4.72-17.79-4.45-18.26-4.55-22.23 5-22.94 7 21.14-2.6 24.81-1.63 13.93 3.9 13.93 3.9zm-168.31 25.13c1.73 4.56 3.41 6.75 6.58 7.21 6 .89 10.66 2.85 15.29-1.61M1208 362.29h0c-2 1.94-106.28 104.41-129.76 84.51-23.72-20.07-30.7-22.85-38.91-14.32-7.22 7.48-9.27 21-5.64 36.27q.73 3.18 1.82 6.45c2.81 8.5 4.42 14.57 6 18.69" fill="none" stroke="#4a4a4a" stroke-miterlimit="10" stroke-width=".9"/><path d="M1060.26 466.63c.94-.78 8.18-11.09 8.25-16s-6.57-10.23-12.49-10.71c-17.34-1.4-15.57 5.32-16.19 15m8.04-14.92s-1.17 11.15-3.1 14.62" fill="none" stroke="#4a4a4a" stroke-miterlimit="10" stroke-width=".9"/><path d="M1056 439.89s-4.53 5.84-2.56 7.52a4.68 4.68 0 004.27.91m10.8 2.28c-18 5.86-17.58 10-16.21 19.68a12.6 12.6 0 01.11 2.46c-.12 1.85-.7 3.32-1.09 5.84-.55 3.51 2.85 6.76 4.86 6.41 1.52-.27 3.6-3.71 4.55-6.64a8.87 8.87 0 00.51-2.58m-18.71-2.42l4.61 9.86m-65.03 19.9h.06c1.84-.06 51.27-1.37 59.35-9.19 0 0 0 0 0 0" fill="none" stroke="#4a4a4a" stroke-miterlimit="10" stroke-width=".9"/><path fill="none" stroke="#ff4a4a" stroke-miterlimit="10" stroke-width="4.51" d="M1202.49 504.55l-3.94-.83-133.17-28.23-7.44-1.57-5.53-1.18-18.71-3.96-30.41-6.45"/><path fill="none" stroke="#4a4a4a" stroke-miterlimit="10" stroke-width=".9" d="M1202.55 504.56l-.06-.01"/><path fill="none" stroke="#ff4a4a" stroke-miterlimit="10" stroke-width="4.51" d="M1244.19 513.39l-23.6-5-14.61-3.1-3.43-.73"/><path d="M1065.38 475.49a3.8 3.8 0 01-7.44-1.57c1.06-4.92 8.48-3.35 7.44 1.57zm140.62 29.8c-1 4.93-8.47 3.35-7.43-1.57a3.45 3.45 0 01.12-.46c1.37-4.35 8.31-2.73 7.31 2.03z" fill="none" stroke="#4a4a4a" stroke-miterlimit="10" stroke-width=".9"/><path d="M1204.1 487.75s-3.62.27-1.31 6.26h0" fill="none" stroke="#4a4a4a" stroke-linecap="round" stroke-linejoin="round" stroke-width=".45"/><path d="M657.92 159.08c9 14.44 21 28.86 31.11 42.66l10.43 14-14.29-.48c16.6-25.83 36.09-49.93 59.6-69.85a124.6 124.6 0 0110.84-8.2 124.39 124.39 0 01-5 12.63c-14.63 31.87-36.21 60-60 85.51-7.88-13.49-15.75-27.52-22-41.83-4.62-11-9.48-22.41-10.68-34.42z" fill="#7ac943"/><path d="M1121.16 152c-9.34 29.35-36.56 66-62.13 83.37 9.31-29.44 36.66-66 62.13-83.37z" fill="#b3b3b3"/><path d="M1058.91 152c25.48 17.34 52.89 53.89 62.25 83.37-25.58-17.33-52.87-54-62.25-83.37zm-712.5 0c-9.34 29.35-36.55 66-62.13 83.37 9.31-29.44 36.67-66 62.13-83.37z" fill="#b3b3b3"/><path d="M284.16 152c25.49 17.34 52.89 53.89 62.25 83.37-25.57-17.33-52.86-54-62.25-83.37z" fill="#b3b3b3"/></svg>