<svg xmlns="http://www.w3.org/2000/svg" viewBox="0 0 1400 780"><path fill="#d7d6cb" d="M0 0h1400v780H0z"/><path d="M949.31 710.4c0-20.22 3.21-9-16-51.47h-129.9C774 701.39 778.85 689 778.85 710.87h170.46" fill="#81d0d3" stroke="#666" stroke-linecap="round" stroke-linejoin="round" stroke-width="1.18" fill-rule="evenodd"/><path fill="#81d0d3" stroke="#666" stroke-linecap="round" stroke-linejoin="round" stroke-width="1.18" d="M948.84 694.35H778.85"/><path d="M893.78 394.13s-6.29 14.95-6.12 42.09c.2 33.17-13.66 70.5-12.56 78.84 1 7.62-.21 22.67-2.94 27-3.34 5.25-17.52 97.27-7.18 108.43 2.54 2.74 10.14 5.86 14.44 9.06 9.71 7.23 19.48 3.39 21.9 7 3.93 5.94.45 5.56-6.56 7.13s-18.41 5.06-23.93 1.22-15 2-23.28 1.88c-23.21-.38-20.84-3.86-13.95-25.21 6.66-20.64-7.76-63-.81-94.55 4.74-21.53 3.68-35 2.72-43.88-1.25-11.51 3.94-77.47-3.35-85.2z" fill="#f4e7d4" stroke="#666" stroke-linecap="round" stroke-linejoin="round" stroke-width="1.18" fill-rule="evenodd"/><path d="M843.83 681.92c-13.73-.24-22.54.92-14.22-24.85 7-21.64-8.39-64.73-2-93.89a195.59 195.59 0 004-51.79c-1.83-23.29 2.44-71.44-1.77-80.27-8.24-17.32-1.76-41-2.15-53.46-.2-6.45 3.67-13.76 5.89-17.36 12.23-19.76-11.06-76.07-3.74-108.6 1.29-5.7 4.15-20 8.86-25.67 6.22-7.53 1.88-23.14 1.88-23.14-17.58-32.89-21.49-59.53 16.71-67.2 12.53-2.52 18.41.9 25.63 6.52s10.17 11 10.11 20.21c0 3.56.79 8.11.45 9.12-4.35 12.83 12.3 19 1.8 21.16-4 .84-1.47 1.54-3.76 10.85-.91 3.7-2.25 2-3.38 5.6-.62 2-.11 3.57-1.46 5.19-7.77 9.28-13-6.38-11.11 10.22.37 3.33 7.27 6.61 10.47 11.51 16.79 25.71 21.29 40.2 9.37 85-4.79 18-.7 29.27-.07 44.37.25 5.92-2 16.52-2.36 28.72-1 30.7-9.44 16.13-9.32 47.58.12 33.18-13.67 70.5-12.56 78.84 2.77 20.93-5.23 2.94-13.27 97.66-2.52 29.69.48 34.52 3.16 37.73 23.52 28.16 34 17.16 39.88 25.54 2.9 4.15-1.53 6.39-8.61 7.54-34.18 5.57-34.87-6.9-48.43-7.13z" fill="#f4e7d4" stroke="#666" stroke-linecap="round" stroke-linejoin="round" stroke-width="1.18" fill-rule="evenodd"/><path d="M889 689.05c2.14-1.65-2.42-3.15-4.91-4.19M893 689c1.42-.78 2.1-4.21-3.67-5.61m7.07 4.13c2.31-.56.35-5.4-4.42-6.42m-7.76 8.28a5.86 5.86 0 00-4.84-3.14m23.88-15.49c.39-1.88-1.78-3.23-3.64-3.78s-5 0-5.43-1.84" fill="#f4e7d4" stroke="#666" stroke-linecap="round" stroke-linejoin="round" stroke-width="1.18"/><path d="M887.75 176.72c-1 4.32-.18 3.93-2.88 1 1-.43 1.55-1.21 4.18-2" fill="none" stroke="#666" stroke-linecap="round" stroke-linejoin="round" stroke-width="1.18"/><path d="M887.15 179.67a2.39 2.39 0 01.33-3c.75-.67.26 3.81-.33 3z" fill="#666" stroke="#666" stroke-linecap="round" stroke-linejoin="round" stroke-width=".67" fill-rule="evenodd"/><path d="M880.23 172.34c5.23-4.93 10-3.1 10.3-2.72 1.47 2.12-5.14-1.78-10.3 2.72z" fill="#524740" stroke="#524740" stroke-linecap="round" stroke-linejoin="round" stroke-width=".67" fill-rule="evenodd"/><path d="M884.92 202.55a17 17 0 005.49-.05m-36.86-17.34c-7.81-2.39-3.72-14.73-.09-10.63m4.7 15.16a6.17 6.17 0 01-5.87-.31m24.04 46.69c8.73-.46 4.83 2.9 9.42 2.65" fill="none" stroke="#666" stroke-linecap="round" stroke-linejoin="round" stroke-width="1.18"/><path d="M894.7 155.32c-2.59 2.8-8.12 3.1-11.94 3.23 2.24-.09 5.62-2.41 6.94-4.21l-.92-.27c-9.65 7.07-10.3-1.25-26.56 17.91a9.72 9.72 0 00-.6 1.75c-1 4.51-2.45 3.34-1.36 8-4.08-4.81-2-11.15-5.54-12-8.36-2-14.81 9.86-2.75 19.65-1.24 1.79-12.26 7.24-14.73 6.87-6.44-21.44-11-20.62-9.35-32.7.77-5.54 1.06-18.75 14.44-26.87 9.88-6 18.31-8.91 29.09-4.73 31.06 12.07 29.37 22.14 23.74 24.44-.07.15-.38-1.18-.46-1.07z" fill="#917960" stroke="#666" stroke-linecap="round" stroke-linejoin="round" stroke-width="1.18"/><path d="M895.57 362.48c2.08 3.25 2.37 3.78 1 8.65-.43 4.86 1.73 14.52.2 20.66-2.65 10.55-.15 17.09-2.56 43.67.25.5-1.2.39-5.32.39-1.22 4.58.14 4.3-63.94 2.16 2.76-7.79.4-54.88 1.58-63.54.59-4.33 6.5-15.53 7.09-17.11.93-2.5.29-5.88 2.36-6.31v2.16c25.35 8.86 33.1 8.71 59.41 12.2z" fill="#ef9d9c" stroke="#666" stroke-linecap="round" stroke-linejoin="round" stroke-width="1.18" fill-rule="evenodd"/><path d="M888.61 438c.8-25 2.39-22.21 2.6-24.83.24-3-2.93-2.06.77-2.94-.67-2.6 4.42-9 .1-10 1.5-.51 2-2.37 2-3.95-.07-2.95-2.12-4.48.69-6.09M872.74 404a26 26 0 0017.88-1.61m-30.49-3.17c5-1.4 18.35 1 24 1.82m4.56 35.2c-.79-8.24-1.63-15-.84-21" fill="#ef9d9c" stroke="#666" stroke-linecap="round" stroke-linejoin="round" stroke-width="1.18"/><path d="M840.47 274.41c7.65 6.35 2.59 23.11 9.51 58.48.47 13.15-.3 15.08-.07 20.89 1.19 29.73 5.73 43.75 6.49 59 .85 16.95-4.31 17.73 2.19 37.42 2.37 7.18.75 9.83 1.16 12.17.91 5.08 2.94 0 3.34 1.18.88 2.53 1.74 4.08 3 4.72.61.32 3.29-.26 4-.83 4.49-3.78 4.7-20.7 4.7-26.51s-3.34-12.78-4.52-19.86c-1.92-11.51 5.63-54.41 2.16-82-1.12-8.94 2.33-2.92 1.67-60.52 0 0 6.3-24.76-3.74-33.91" fill="#f4e7d4" stroke="#666" stroke-linecap="round" stroke-linejoin="round" stroke-width="1.18" fill-rule="evenodd"/><path d="M861.12 464.13c4.92.43 2.29-15.7 1.79-19.05m2.79 23.04c4.68-.52.13-15.46 2.12-21.66m3.54 18.54c1.18-5.5.42-13.88.62-18.66" fill="#f4e7d4" stroke="#666" stroke-linecap="round" stroke-linejoin="round" stroke-width="1.18"/><path d="M815.48 681c6.28 0 11.62 1.1 11.62-3.34V73.46h-15c2.2 0-4.54 607.54 3.38 607.54z" fill="#81d0d3" stroke="#666" stroke-linecap="round" stroke-linejoin="round" stroke-width="1.18"/><path fill="#81d0d3" stroke="#666" stroke-linecap="round" stroke-linejoin="round" stroke-width="1.18" d="M810.57 69.13h18.1v7.08h-18.1z"/><path d="M836.61 163.61c0 11.55-17.45 11.55-17.45 0s17.45-11.54 17.45 0zm0 101.84c0 11.55-17.45 11.55-17.45 0s17.45-11.55 17.45 0zm0 119.34c0 11.55-17.45 11.55-17.45 0s17.45-11.55 17.45 0zm0 201.61c0 11.55-17.45 11.55-17.45 0s17.45-11.55 17.45 0zm0 90.38c0 11.55-17.45 11.55-17.45 0s17.45-11.54 17.45 0zm-47.63-513.17H452.4" fill="none" stroke="red" stroke-linecap="round" stroke-linejoin="round" stroke-width="5"/><path d="M819.16 163.61c-14.2-5.26-31.82-14.25-42.74-23.77l8.6 23.77-8.6 23.78c10.92-9.52 28.58-18.51 42.74-23.78z" fill="red"/><path fill="none" stroke="red" stroke-linecap="round" stroke-linejoin="round" stroke-width="5" d="M788.98 265.45H452.4"/><path d="M819.16 265.45c-14.2-5.27-31.82-14.26-42.74-23.78l8.6 23.78-8.6 23.78c10.92-9.53 28.58-18.52 42.74-23.78z" fill="red"/><path fill="none" stroke="red" stroke-linecap="round" stroke-linejoin="round" stroke-width="5" d="M788.98 385.92H452.4"/><path d="M819.16 385.92c-14.2-5.27-31.82-14.26-42.74-23.78l8.6 23.78-8.6 23.77c10.92-9.52 28.58-18.51 42.74-23.77z" fill="red"/><path fill="none" stroke="red" stroke-linecap="round" stroke-linejoin="round" stroke-width="5" d="M788.98 586.4H452.4"/><path d="M819.16 586.4c-14.2-5.27-31.82-14.26-42.74-23.78L785 586.4l-8.6 23.77c10.94-9.52 28.6-18.51 42.76-23.77z" fill="red"/><path fill="none" stroke="red" stroke-linecap="round" stroke-linejoin="round" stroke-width="5" d="M788.98 676.78H452.4"/><path d="M819.16 676.78c-14.2-5.26-31.82-14.25-42.74-23.78l8.6 23.78-8.6 23.78c10.92-9.56 28.58-18.51 42.74-23.78z" fill="red"/></svg>