<svg xmlns="http://www.w3.org/2000/svg" viewBox="0 0 700 700"><path fill="#d4eded" d="M0 0h700v700H0z"/><path d="M486.07 302.89c-2-3.11-23.16-.83-23.75-.83s-26.15 12-26.52 14.63 25.44-8.75 30.24-8.51 18.23 1.2 18.23 1.2 3.84-3.38 1.8-6.49zm-4.3 40.83c1-2.41.79-6.52.24-10.41-.12-.86-.26-1.7-.4-2.51-2.09.9-27.45 9.88-27.45 9.88s19.67 5.4 24.95 5.16a3 3 0 002.66-2.12zm-190.93 11.74h-24.15c-8.49-17.94-9.49-35.14-2.54-46.29 7.92-12.68 17.28-11.08 51.83 7.52s138.18-138.41 138.18-138.41c1.27.84 2.46 1.69 3.6 2.51 53.29 38.37 46.13 160.94 48.58 170.57a25.54 25.54 0 001.56 4.1h-18.83c0-6.14-9-6.34-9.58-.59v.59H307.58c0-6.35-9.59-6.35-9.59 0z" fill="#f1dbcb"/><path d="M298 355.46c0-6.35 9.59-6.35 9.59 0z" fill="#4a0f00"/><path d="M482 333.31s-4.68 3.62-.24 10.41a3 3 0 01-2.66 2.12c-5.28.24-24.95-5.16-24.95-5.16s25.36-9 27.45-9.88c.15.81.29 1.65.4 2.51z" fill="#fff"/><path d="M499 413.31s12.05-.05 15.35-4.37c-5-1.36-9.14-.65-15.35 4.37zm-232.31-57.85h24.15c.33 2.31 0 4.28.18 7.49.24 4.49 5.28 7.6 7.68 6.64 1.8-.72 3.48-5.52 3.88-9.38a4.6 4.6 0 005-4.75h171.89c0 6.35 9.6 6.35 9.6 0h18.83c4.33 9.41 15.44 26.12 20.15 33.8 5.52 9 3.72 14.76 1.68 18.71s-4.2 4.44-17.63 6.12c-18 2.24-8.79 20-5.27 28.52-1.6.09-8.7.58-11.88 2.07-18.26 8.52-20.05 10 2.08 24.59a57.35 57.35 0 00-6.16 3.72c-3.6 2.87-4.32 28.79-13 43.18s-63.69 5.4-87.45 4.32-29.14 47-29.14 47h-176s19.65-97.84 25-138.2c0 0 64.59-32.79 72.62-44.78-3-4.68-6.6-11.76-12.29-21.52-1.43-2.54-2.75-5.05-3.92-7.53z" fill="#f1dbcb"/><path d="M298.7 369.59c-2.4 1-7.44-2.15-7.68-6.64-.17-3.21.15-5.18-.18-7.49H298a4.56 4.56 0 004.59 4.75c-.41 3.86-2.09 8.66-3.89 9.38z" fill="#f1dbcb"/><path d="M482 333.31c.55 3.89.74 8-.24 10.41-4.43-6.79.24-10.41.24-10.41z" fill="#fff"/><path d="M302.58 360.21a4.56 4.56 0 01-4.59-4.75h9.59a4.6 4.6 0 01-5 4.75z" fill="#4a0f00"/><path d="M497 469.27c-22.1-14.57-20.31-16.07-2-24.59 3.18-1.49 10.28-2 11.88-2.07a11.93 11.93 0 011.19 3.87c-.24 4.68-6.95 8.76-6.95 8.76a12 12 0 012.52 7.08c.09 2.68-3.18 4.96-6.64 6.95z" fill="#eacbc6"/><path d="M514.38 408.94c-3.3 4.32-15.35 4.37-15.35 4.37 6.18-5.02 10.32-5.73 15.35-4.37z" fill="#4a0f00"/><path d="M435.8 316.69c.37-2.64 25.92-14.63 26.52-14.63s21.71-2.28 23.75.83-1.8 6.49-1.8 6.49-13.44-1-18.23-1.2-30.59 11.16-30.24 8.51z" fill="#7d4921"/><path d="M489.07 355.46c0 6.35-9.6 6.35-9.6 0h9.6z" fill="#4a0f00"/><path d="M454.16 178.28S350.52 335.29 316 316.69s-43.91-20.2-51.83-7.52c-6.95 11.15-5.95 28.35 2.54 46.29 1.17 2.48 2.49 5 3.95 7.49 5.69 9.76 9.27 16.84 12.29 21.52-8 12-72.62 44.78-72.62 44.78a119 119 0 001.31-14.56c-.37-20.16-36-72.32-46.43-113.71s2.89-65.86 29.15-109 102.2-58.66 138.19-59.38c34.45-.72 93.01 26.31 121.61 45.68z" fill="#7d4921"/><path d="M210.31 429.25c-5.32 40.36-25 138.2-25 138.2h176s5.39-48 29.14-47 78.81 10.07 87.45-4.32 9.36-40.31 13-43.18a57.35 57.35 0 016.16-3.72c3.43-2 6.7-4.24 6.56-6.95a12 12 0 00-2.52-7.08s6.71-4.08 6.95-8.76a11.93 11.93 0 00-1.19-3.87c-3.52-8.49-12.69-26.28 5.27-28.52 13.43-1.68 15.6-2.15 17.63-6.12s3.84-9.71-1.68-18.71c-4.71-7.68-15.82-24.39-20.15-33.8a25.54 25.54 0 01-1.56-4.1c-2.45-9.63 4.71-132.2-48.58-170.57-1.14-.82-2.33-1.67-3.6-2.51-28.6-19.37-87.16-46.4-121.63-45.72-36 .72-111.92 16.2-138.19 59.38s-39.58 67.65-29.15 109 46.06 93.55 46.43 113.71a119 119 0 01-1.34 14.64zM316 398.5s6.84 55.05 42.1 69.81M430 509a116.46 116.46 0 0013 5.76" fill="none" stroke="#000" stroke-miterlimit="10" stroke-width="1.14"/><path d="M497 469.27c-22.1-14.57-20.31-16.07-2-24.59 3.18-1.49 10.28-2 11.88-2.07h.33m-6.14 12.63s-9-.24-11.4 0m-10.08-8.4s-1 7.68-1.68 10.31" fill="none" stroke="#000" stroke-miterlimit="10" stroke-width="1.14"/><path d="M514.38 408.94c-5-1.36-9.17-.65-15.35 4.37-.03 0 12.05-.05 15.35-4.37z" fill="none" stroke="#000" stroke-linecap="round" stroke-linejoin="round" stroke-width=".57"/><path d="M500.88 397.6s-18.59.11-11.63 15.29" fill="none" stroke="#000" stroke-miterlimit="10" stroke-width="1.14"/><path d="M481.61 330.8c.14.81.28 1.65.4 2.51.55 3.89.74 8-.24 10.41a3 3 0 01-2.66 2.12c-5.28.24-24.95-5.16-24.95-5.16s25.36-9 27.45-9.88l.14-.07" fill="none" stroke="#000" stroke-linecap="round" stroke-linejoin="round" stroke-width=".57"/><path d="M484.27 316.69c-.13.37-4.32 6-4.32 6.6 0 0 .94 3.41 1.66 7.51m-1.61-6.91s-20 3.35-27.83 8m32.43 23.57h-.11m.17 0h.24m-.41-.01h.11m-.11 0h-.22m-24.47-6.01c5.84 3.05 14.25 4.65 19.69 5.43 2.2.3 3.91.48 4.78.57m0-46.06s3.84-3.37 1.8-6.49-23.16-.83-23.75-.83-26.15 12-26.52 14.63 25.44-8.75 30.24-8.51 18.23 1.2 18.23 1.2zm-30.11-131.1S350.52 335.29 316 316.69s-43.91-20.2-51.83-7.52c-6.95 11.15-5.95 28.35 2.54 46.29 1.17 2.48 2.49 5 3.95 7.49 5.69 9.76 9.27 16.84 12.29 21.52 3.34 5.19 6 7.44 10 7.19 7.67-.48 13.91.72 18.47-6" fill="none" stroke="#000" stroke-miterlimit="10" stroke-width="1.14"/><path d="M298.94 345.84c1-1.2 7.19-15.84 6-21.95s-10.79-10.91-18.24-10c-21.78 2.82-17.84 10.64-16.06 22.8m6.03-20.52s1.47 14.07 0 18.87" fill="none" stroke="#000" stroke-miterlimit="10" stroke-width="1.14"/><path d="M286.7 313.93s-4.07 8.4-1.19 10a5.92 5.92 0 005.51 0m13.92-.04c-20.64 11.93-19.1 17-14.87 28.56a15.16 15.16 0 01.77 3c.33 2.31 0 4.28.18 7.49.24 4.49 5.28 7.6 7.68 6.64 1.8-.72 3.48-5.52 3.88-9.38a10.78 10.78 0 000-3.34m-23.8 1.94l8.3 10.96m-76.77 59.49s64.59-32.79 72.62-44.78" fill="none" stroke="#000" stroke-miterlimit="10" stroke-width="1.14"/><path fill="none" stroke="red" stroke-miterlimit="10" stroke-width="5.7" d="M484.6 355.46H227.45"/><path fill="none" stroke="#000" stroke-miterlimit="10" stroke-width="1.14" d="M484.66 355.46h-.06"/><path fill="none" stroke="red" stroke-miterlimit="10" stroke-width="5.7" d="M538.36 355.46h-53.7"/><path d="M307.58 355.46a4.8 4.8 0 01-9.59 0c.01-6.35 9.59-6.35 9.59 0zm181.49 0c0 6.35-9.6 6.35-9.6 0v-.59c.61-5.75 9.6-5.55 9.6.59z" fill="none" stroke="#000" stroke-miterlimit="10" stroke-width="1.14"/><path d="M482 333.31s-4.68 3.62-.24 10.41" fill="none" stroke="#000" stroke-linecap="round" stroke-linejoin="round" stroke-width=".57"/></svg>