<svg xmlns="http://www.w3.org/2000/svg" viewBox="0 0 1400 780"><path fill="#d4eded" d="M0 0h1400v780H0z"/><path d="M884.71 452.65c7.18-5.83 12-6.65 17.81-5.07-3.82 5.01-17.81 5.07-17.81 5.07zm-11.55-67.12c0 7.36-11.13 7.36-11.13 0h11.13z" fill="#4a0f00"/><path d="M887.08 501.3a13.91 13.91 0 012.92 8.21c.17 3.14-3.62 5.76-7.6 8.06-25.68-16.89-23.6-18.64-2.42-28.52 3.69-1.73 11.93-2.3 13.79-2.4a13.81 13.81 0 011.39 4.49c-.28 5.42-8.08 10.16-8.08 10.16z" fill="#eacbc6"/><path d="M868 385.53h-.15z" fill="#f1dbcb"/><path d="M864.7 371.92c-5.16-7.89.27-12.08.27-12.08.65 4.53.88 9.29-.27 12.08z" fill="#7d4921"/><path d="M861.62 374.37c-6.13.27-29-6-29-6s29.46-10.37 31.89-11.47c.17 1 .33 1.94.46 2.94 0 0-5.43 4.19-.27 12.08a3.46 3.46 0 01-3.08 2.45z" fill="#fff"/><path d="M842.13 323.57c.7 0 25.18-2.65 27.55 1s-2.09 7.51-2.09 7.51-15.59-1.08-21.15-1.41-35.49 12.94-35.07 9.88 30.06-16.98 30.76-16.98z" fill="#7d4921"/><path d="M651.45 385.53c0-7.37 11.14-7.37 11.14 0zm11.14 0a5.57 5.57 0 01-11.14 0z" fill="#4a0f00"/><path d="M643.16 385.53h8.29a5.29 5.29 0 005.34 5.51c-.47 4.48-2.4 10-4.5 10.88-2.78 1.11-8.62-2.5-8.9-7.69-.21-3.72.17-6.02-.23-8.7z" fill="#f1dbcb"/><path d="M902.52 447.58c-5.81-1.58-10.63-.76-17.81 5.07 0 0 13.99-.06 17.81-5.07zm-29.36-62.05H895c5 10.92 17.92 30.3 23.38 39.23 6.41 10.43 4.32 17.1 2 21.71s-4.88 5.14-20.47 7.08c-20.82 2.61-10.21 23.22-6.11 33.1-1.86.1-10.1.67-13.79 2.4-21.18 9.88-23.26 11.63 2.42 28.52a65.71 65.71 0 00-7.15 4.33c-4.17 3.33-5 33.4-15 50.09s-73.89 6.27-101.45 5-33.82 54.48-33.82 54.48H520.77s22.79-113.51 29-160.35c0 0 74.91-38 84.28-51.94-3.5-5.44-7.67-13.65-14.28-25-1.69-2.91-3.23-5.81-4.57-8.7h28c.4 2.68 0 5 .23 8.7.28 5.19 6.12 8.8 8.9 7.69 2.1-.83 4-6.4 4.5-10.88a5.34 5.34 0 005.8-5.51H862c0 7.41 11.16 7.41 11.16.05z" fill="#f1dbcb"/><path d="M869.68 324.55c-2.37-3.63-26.85-1-27.55-1s-30.35 13.92-30.76 17 29.5-10.16 35.07-9.88 21.15 1.39 21.15 1.39 4.46-3.9 2.09-7.51zm-37 43.83s22.83 6.26 29 6a3.46 3.46 0 003.08-2.45c1.15-2.79.92-7.55.27-12.08-.13-1-.29-2-.46-2.94-2.49 1.09-31.91 11.47-31.91 11.47zm4.18-185.52c61.84 44.52 53.53 186.73 56.36 197.91a30 30 0 001.81 4.76h-21.87c0-7.13-10.43-7.36-11.11-.69v.69H662.59c0-7.37-11.14-7.37-11.14 0h-36.3c-9.85-20.83-11-40.79-2.94-53.71 9.18-14.7 20-12.84 60.12 8.73S832.66 180 832.66 180c1.47.93 2.86 1.91 4.18 2.86z" fill="#f1dbcb"/><path d="M672.33 340.55c-40.09-21.57-50.94-23.43-60.12-8.73-8.06 12.92-6.91 32.88 2.94 53.71 1.34 2.89 2.88 5.79 4.57 8.7 6.61 11.31 10.78 19.52 14.28 25-9.37 13.94-84.28 51.94-84.28 51.94a133.38 133.38 0 001.52-16.89c-.41-23.37-41.75-83.92-53.86-131.94s3.34-76.41 33.82-126.51 118.59-68.06 160.34-68.89c40-.8 108 30.58 141.12 53 0 .06-120.24 182.18-160.33 160.61z" fill="#7d4921"/><path d="M549.72 471.14c-6.16 46.84-29 160.35-29 160.35h204.22s6.27-55.73 33.82-54.48 91.45 11.68 101.45-5 10.87-46.76 15-50.09a65.71 65.71 0 017.15-4.33c4-2.3 7.77-4.92 7.6-8.06a13.91 13.91 0 00-2.92-8.21s7.8-4.74 8.08-10.16a13.81 13.81 0 00-1.39-4.49c-4.1-9.88-14.71-30.49 6.11-33.1 15.59-1.94 18.1-2.5 20.47-7.08s4.45-11.28-2-21.71c-5.46-8.93-18.34-28.31-23.38-39.23a30 30 0 01-1.81-4.76c-2.83-11.18 5.48-153.39-56.36-197.91-1.32-1-2.71-1.93-4.18-2.91-33.17-22.46-101.12-53.84-141.12-53-41.75.83-129.85 18.78-160.34 68.89s-45.92 78.5-33.82 126.51 53.45 108.57 53.86 131.94a133.38 133.38 0 01-1.44 16.83zm122.61-35.67s7.93 63.88 48.86 81m83.4 47.18a134.92 134.92 0 0015.13 6.68" fill="none" stroke="#000" stroke-miterlimit="10" stroke-width="1.32"/><path d="M882.4 517.57c-25.68-16.89-23.6-18.64-2.42-28.52 3.69-1.73 11.93-2.3 13.79-2.4a3.58 3.58 0 01.38 0m-7.07 14.65s-10.43-.28-13.22 0m-11.69-9.75s-1.11 8.91-2 12" fill="none" stroke="#000" stroke-miterlimit="10" stroke-width="1.32"/><path d="M902.52 447.58c-5.81-1.58-10.63-.76-17.81 5.07 0 0 13.99-.06 17.81-5.07z" fill="none" stroke="#000" stroke-linecap="round" stroke-linejoin="round" stroke-width=".66"/><path d="M886.87 434.42s-21.57.15-13.5 17.74" fill="none" stroke="#000" stroke-miterlimit="10" stroke-width="1.32"/><path d="M864.51 356.9c.17 1 .33 1.94.46 2.94.65 4.53.88 9.29-.27 12.08a3.46 3.46 0 01-3.08 2.45c-6.13.27-29-6-29-6s29.46-10.37 31.89-11.47c.09 0 .15 0 .16-.07" fill="none" stroke="#000" stroke-linecap="round" stroke-linejoin="round" stroke-width=".66"/><path d="M867.59 340.55c-.13.42-5 6.95-5 7.65 0 .05 1.09 3.94 1.93 8.7m-1.94-8s-23.23 3.89-32.29 9.32M868 385.53h-.15m.23 0h.25m-.49-.02h.15m-.15 0h-.25m-28.39-6.97c6.76 3.55 16.52 5.4 22.85 6.3 2.54.36 4.54.55 5.54.66m0-53.44s4.46-3.9 2.09-7.51-26.85-1-27.55-1-30.35 13.92-30.76 17 29.5-10.16 35.07-9.88 21.15 1.39 21.15 1.39zM634 419.2c3.87 6 6.93 8.62 11.61 8.33 8.91-.55 16.14.83 21.43-6.95" fill="none" stroke="#000" stroke-miterlimit="10" stroke-width="1.32"/><path d="M832.66 180S712.42 362.12 672.33 340.55s-50.94-23.43-60.12-8.73c-8.06 12.92-6.91 32.88 2.94 53.71 1.34 2.89 2.88 5.79 4.57 8.7 6.61 11.31 10.78 19.52 14.28 25" fill="none" stroke="#000" stroke-miterlimit="10" stroke-width="1.32"/><path d="M652.56 374.38c1.11-1.4 8.36-18.38 7-25.48s-12.56-12.67-21.18-11.55a52.36 52.36 0 00-11.66 2.59c-11.94 4.41-8.65 12.5-7 23.85m7-23.85s1.7 16.34 0 21.91" fill="none" stroke="#000" stroke-miterlimit="10" stroke-width="1.32"/><path d="M638.38 337.35s-4.74 9.74-1.4 11.55a6.87 6.87 0 006.41 0m16.14 0c-24 13.86-22.16 19.69-17.27 33.14a15.92 15.92 0 01.9 3.49c.4 2.68 0 5 .23 8.7.28 5.19 6.12 8.8 8.9 7.69 2.1-.83 4-6.4 4.5-10.88a13.26 13.26 0 000-3.87m-27.6 2.23l9.61 12.72m-89.08 69.02s74.91-38 84.28-51.94h0" fill="none" stroke="#000" stroke-miterlimit="10" stroke-width="1.32"/><path fill="none" stroke="red" stroke-miterlimit="10" stroke-width="6.61" d="M867.99 385.53H569.62"/><path fill="none" stroke="#000" stroke-miterlimit="10" stroke-width="1.32" d="M868.08 385.53h-.09"/><path fill="none" stroke="red" stroke-miterlimit="10" stroke-width="6.61" d="M930.37 385.53h-62.29"/><path d="M662.59 385.53a5.57 5.57 0 01-11.14 0c0-7.37 11.14-7.37 11.14 0zm210.57 0c0 7.36-11.13 7.36-11.13 0v-.69c.7-6.67 11.13-6.44 11.13.69z" fill="none" stroke="#000" stroke-miterlimit="10" stroke-width="1.32"/><path d="M865 359.84s-5.43 4.19-.27 12.08" fill="none" stroke="#000" stroke-linecap="round" stroke-linejoin="round" stroke-width=".66"/></svg>