<svg xmlns="http://www.w3.org/2000/svg" viewBox="0 0 700 700"><path fill="#7dbdb4" d="M0 0h700v700H0z"/><path d="M131.1 360.66c-.95-39.75-.61-76.47-6.92-86.73-1.1 41.38-.63 43.34 6.92 86.73zm-29.2 28.43C91.24 215.26 89.32 283 92.46 196.51c34.33-24.09 48.33-34.71 50.46-35.34l-16 19.07-1.93 2.3 9.06 5.27-9.05 6.42 46 107.92c.82.82 1.65 8.2 2.22 18.76.25 4.49.45 9.56.59 14.94.79 29.89-.27 69.6-6.17 75.15-11.67 11.06-20 5-30.53-.18-.52-.26-.73-.29-.7-.38a12 12 0 001.15-1v-.05a3.4 3.4 0 00.49-.52c2.3-2.58 1.15-4.54-.59-6.78-.27-.38-.58-.74-.86-1.13s-.56-.72-.85-1.09a14.9 14.9 0 01-1.69-2.94 10.77 10.77 0 01-.54-1.83c-2-11.52-1.67-2.5-2-13.81l-26.36 7z" fill="#3b5569"/><path d="M131.57 381.24c.28 11.31-.08 2.29 2 13.81a10.77 10.77 0 00.54 1.83 14 14 0 001.69 2.94c.27.37.56.75.85 1.09s.59.75.86 1.13c1.68 2.24 2.8 4.22.59 6.78a5.85 5.85 0 01-.49.52v.05a12 12 0 01-1.15 1c-11.64 10.11-11.43 9.52-21.89.36-4.18-3.66-9.24-22.61-9.24-22.61z" fill="#fda88d"/><path d="M141.56 498.62c3.78-23.89-2.84-68.83-4.49-87.8 10.53 5.18 18.86 11.24 30.53.18 5.9-5.55 7-45.26 6.17-75.15h.09s7.73-.57 17.21-1.9c2.06-.3 4.19-.63 6.35-1 8.8-1.48 18-3.6 23.39-6.49 13.9 30.76 24.57 49.1 34.6 56.67 6.31 29.94 12.36 59.86 13.4 68.65 2.26 19.26 10.19 24.93 12.82 31.73 11.79 30.12 30.37 93.1 31 95.2-.36-1.1-6.21 6.7-11.13 9.22s-18.78 4.86-32.66 2.92c-2.26-4.83-14.35-48.43-15.48-57.87s-19.64-48-28.7-71-24.74-77-24.94-76.47c-1.47 4.43-.1 19.29-16.23 89.3-1.13 4.91-.18 44.2 0 48.92s-7.35 45.5-7.35 45.5c-19.5 9.77-21.14 12.37-32.32 9.38-5.29-22.1-7.73-45.85-2.26-79.99z" fill="#314856"/><path d="M143.17 161.42c.09-.19.07-.28-.07-.28s0-.09 0-.13c2.41-2 3.93-3.71 4.94-4 .73-.21 1.2.29 1.54 1.92.43 2.08 15.8 6.22 15.8 6.22a8.35 8.35 0 00-4.61 3.11c-5.06 6.76-1.56 21-4.82 20.12a20.76 20.76 0 00-6.3 0c-2-8.26-4.09-17.2-6.44-26.94z" fill="#deeffc"/><path d="M408.47 222.25c-.32-.05-.55-.11-.73-.14.26.05.5.11.73.14z" fill="#3b5569"/><path d="M390.29 233.68c2.26 2.89 4 4.95 4.59 6.37-.88-1.22-2.73-3.91-4.59-6.37z" fill="#ffa381"/><path d="M357.1 240.62a88.47 88.47 0 01-.27-10.51l3.27.21 5.13.36c-.17 1.28.37.29-8 10.77-.04 0-.08-.29-.13-.83zM143.06 161v.13a.36.36 0 00-.16 0z" fill="#30424d"/><path d="M137.2 119.27c-3.19 1.94-12.5-10.14-16.72 2.28-.16-.43-.32-.88-.47-1.33-5.47-17-6.6-29.83 7.95-36.83 24.59-11.82 19.82-8.3 40.68-3.39 1.6.38-.43 2.84-1.86 3.21-.29.08-.41.24-.41.47a3.82 3.82 0 01-2.64.95c-14.12 0-11.64-4-21.31 2.17-4.68 3-.25 11.5 0 13.69.38 3.68-3.3 5.29-4.25 7.64a7.5 7.5 0 00-.34 2.37v2.2c.05 2.91.23 6.05-.63 6.57z" fill="#400b06"/><path d="M143.17 161.44c-.64 1.47-7.26 8.22-16.29 18.8l16-19.07a.36.36 0 01.16 0 2.86 2.86 0 00.07.28z" fill="#30424d"/><path d="M137.57 409.38v.05z" fill="#fda88d"/><path d="M127.57 624c-14-8.27 5.54-33.33 16.25-45.38 11.17 3 12.82.36 32.29-9.37 1.68 7.39-3.43 13.26-9.46 17.57-14 0 1.89 8.1-21.33 27.75-7.32 6.21-13.59 11.88-17.75 9.43z" fill="#020202"/><path d="M402.88 225.19c-2.73-1.14-10.53 2.28 4-3.26h.28a5 5 0 00.5.11c.18 0 .41.09.73.14 1.83.34 5 .74 6.71.13a1.44 1.44 0 00.31-.13.06.06 0 00.05 0c1.17-.37 1.78-1 1.85-1.59a.39.39 0 000-.15 1.36 1.36 0 00-.43-.94c15.75-3.76.16-.73 182.64-32.66l4.54-7.55H598V145h7.66l3.21 43.8-188.8 38.05-12.32 2.47a41.11 41.11 0 00-4.87-4.13z" fill="#382d28"/><path d="M147.94 156.85c0-3.21-4.32-13.22-6-15.28 30 16.46 39.28 9.06 39.28 9.06l1 8.05-9.77 5.09c-2.32.42-4.79 1-7.11 1.38 0 0-15.37-4.14-15.8-6.22-.34-1.63-.81-2.13-1.54-1.92z" fill="#ffa186"/><path d="M357.48 221.44a20.59 20.59 0 013.93-10 26.12 26.12 0 00-3.93 10z" fill="#3b5569"/><path d="M363.9 209.86c1.06 0 2.22.12 3.44.21a14.86 14.86 0 01-3.44-.21z" fill="#30424d"/><path d="M367.34 210.07c-1.22-.09-2.38-.16-3.44-.21l-1-.08a16.36 16.36 0 015-3.35l.28-.11c-.37 2.68-.12 3.54-.84 3.75z" fill="#30424d"/><path d="M356.83 230.11a74.29 74.29 0 01.65-8.65 26.12 26.12 0 013.93-10v-.07a17.64 17.64 0 011.43-1.6l1 .08a14.86 14.86 0 003.44.21c15.73 1 43.05 2.67 49.64 9.47a1.36 1.36 0 01.43.94.39.39 0 010 .15c-.09.46-.52 1.06-1.85 1.59a.06.06 0 01-.05 0 15.42 15.42 0 01-7 0c-.23 0-.48-.09-.73-.14l-.5-.11h-.27c-14.55 5.54-6.75 2.12-4 3.26a41.11 41.11 0 014.88 4.09c7.06 6.44 5.76 4.56 5.13 8.09-.76 4.22-9.64.11-10 2s-7.55-.37-7.55 1.33c0 0-.17-.23-.45-.64-.61-1.42-2.33-3.48-4.59-6.37 1.86 2.46 3.74 5.15 4.59 6.37.86 2-.4 2.81-5.22 3.1-2.24.12-6.35-4.93-8.92-8.41-3.15-4.29.24-3.09-20.64-4.42z" fill="#ffa381"/><path d="M134 187.81l-9-5.27 1.93-2.3c9-10.58 15.65-17.33 16.29-18.8 2.35 9.74 4.49 18.68 6.44 26.94 10 42.52 15.19 67.47 18.82 93.43v.09c.93 6.58 1.76 13.23 2.53 20.25L125 194.23z" fill="#30424d"/><path d="M149.88 101.8c.43-.16 8.09-3.18 14.42-2.64-4.3-2.37-8.3-2.28-14.42 2.64zm-11.73 6.33c.95-2.35 4.63-4 4.25-7.64-.23-2.19-4.66-10.67 0-13.69 9.67-6.2 7.19-2.17 21.31-2.17a3.82 3.82 0 002.64-.95c0 1.51 5.23 6.19 9.7 12.2-2.94.14-5.13.93-5.72 3.84 0 0 2.74-3.11 5.76-3.79.66.92 1.32 1.85 1.93 2.82-3.26 2.55-3.85 4-9.68 3.62-8.83-.55-4.34-4.21-13.69 0-1 .49-16.86 8.13-16.86 8.13a7.5 7.5 0 01.36-2.37z" fill="#fca988"/><path d="M415.54 222.23c1.33-.53 1.76-1.13 1.85-1.59-.07.61-.68 1.22-1.85 1.59z" fill="#ffa381"/><path d="M244.36 200c-.14 0 .3 2.61 1.79 9.92.22 1.15.45 2.26.67 3.29.05.25.1.5.16.73s.07.31.11.47c.14.64.28 1.22.43 1.7a5.08 5.08 0 00.57 1.49c.09.13.18.07.23-.21a7.72 7.72 0 00.11-1.67v-.14c-.4-1.69-3.39-14.14-4-15.43l-.11-.37a1.51 1.51 0 00.04.22zm-34.08-27.33l-24.54-15.86 46 2.08c5.79.25 2.27-2.1 12.48 11.52 2.26 3 12.47 11.33 21.9 13.59 42.28 10.1 12.43-8.82 102 22.28l-.28.11a13.2 13.2 0 00-6.39 4.95v.07a20.59 20.59 0 00-3.93 10 63.74 63.74 0 00-.38 19.16c0 .54.09.83.09.83-58.78-17.87-61.38-18.86-109.13-21.91 6.56 94.21 26.63 66 43.05 149.93-13.6 17-24.22 22.39-35.68 13.67-10-7.57-20.7-25.91-34.6-56.67-1.35-2.94-3.2-7-5.14-11.41-4.43-10-9.28-21.79-9.28-25.95 8.86-32.51 9.42-29.26 10.3-107l-9.81-6.42zm205.21 49.58a1.44 1.44 0 01-.31.13c-1.74.61-4.88.21-6.71-.13a15.42 15.42 0 007.02 0zm-8.27-.25l.5.11a5 5 0 01-.5-.11z" fill="#3b5569"/><path d="M351 601.43c18.22 12.09-29.92 10.58-36 9.91s-21.81-6.6-21.81-6.6v2.82s-19.27-2.26-24.36-2.82v-13.88c13.88 1.94 27.7-.4 32.66-2.92s10.77-10.32 11.13-9.22c.19 1.47 20.1 10.63 38.38 22.71z" fill="#020202"/><path d="M220.83 326.47c-5.42 2.89-14.59 5-23.39 6.49 2.63-5.91-3.11-15-3.11-15l21.37-2.94c1.93 4.44 3.78 8.51 5.13 11.45z" fill="#10100e"/><path d="M189 175.83c-1-5.92-2.06-12.24-3.21-19l24.54 15.86-3.39 3 9.81 6.42c-.88 77.69-1.44 74.44-10.3 107-4.23-23.66-1.45-17.92-17.45-113.28z" fill="#30424d"/><path d="M215.68 315.06L194.31 318l-5.31.74-15 2.06c9.15-2.08 14.69-124.49 11.7-132.42-5.4-14.22-13-11-3.12-22.56 1.07 5 2.56 10.64 6.33 10 16 95.36 13.27 89.62 17.45 113.28.04 4.17 4.89 15.9 9.32 25.96z" fill="#d3e1f9"/><path d="M194.31 318s5.74 9.05 3.11 15c-2.16.36-4.29.69-6.35 1 1.93-3.1-2.07-15.26-2.07-15.26z" fill="#717b7f"/><path d="M189 318.74s4 12.16 2.07 15.21c-9.48 1.33-17.21 1.9-17.21 1.9h-.09c-.14-5.38-.34-10.45-.59-14.94l.84-.11z" fill="#10100e"/><path d="M189 175.83c-3.77.63-5.26-5-6.33-10-.72-3.34-5.12-3-10.17-2l9.77-5.09 3.52-1.83c1.1 6.68 2.15 13 3.21 18.92z" fill="#deeffc"/><path d="M172.45 163.77c5.05-1 9.45-1.29 10.17 2-9.85 11.51-2.28 8.34 3.12 22.56 3 7.93-2.55 130.34-11.7 132.42l-.84.11c-.57-10.56-1.4-17.94-2.22-18.76-.77-7-1.6-13.67-2.53-20.25v-.09c5-94.13 3.51-90.14 4.09-94.18 1.42-10.17-.81-13.95-11.79-19.37a8.35 8.35 0 014.61-3.11c2.3-.34 4.77-.91 7.09-1.33z" fill="#5e8dc9"/><path d="M185.74 100.31c.23 3.1.93 9.34-1 10.62a1.47 1.47 0 00-.58.79c-2.83 1-7-.85-8.12-1.92s-2.06-4.88-2.06-4.88c-7.5.18-1.91 3.39-6.62 7.84-1.69 1.61-4.52 1.33-8 1.9s-7-8-7-8l-14.49 6v-2.2s15.82-7.64 16.86-8.13c9.35-4.21 4.86-.55 13.69 0 5.83.38 6.42-1.07 9.68-3.62-.1.04 7.39-1.52 7.64 1.6z" fill="#111800"/><path d="M184.12 111.72c-.68 2.1 1.37 7 1 11.8-.41 5.53-1.42 14-1 16.72 1.42 8.91 1.87 8-2.92 10.39 0 0-9.26 7.4-39.28-9.06 0 0-15.56-4.13-21.44-20 4.22-12.42 13.53-.34 16.72-2.28.86-.52.68-3.66.61-6.57l14.49-6s3.5 8.51 7 8 6.33-.29 8-1.9c4.71-4.45-.88-7.66 6.62-7.84 0 0 .93 3.8 2.06 4.88s5.31 2.9 8.14 1.86zM182 131.84l.49-3.91c0-4.18-4.29-3.66-8.51-3.66-1.54 0-6.74 6.77-7.13 7.29s6.37 3.41 9.06 3.27a10.84 10.84 0 006.09-2.99z" fill="#fca988"/><path d="M182.53 127.93l-.49 3.91c-3.69.15-15.19-.25-15.19-.25 4.39-3.11 6.69-5.65 11.57-5.12 1.74.17 4.11 2.34 4.11 1.46z" fill="#fffbe9"/><path d="M182.53 127.93c0 .88-2.37-1.29-4.07-1.49-4.88-.53-7.18 2-11.57 5.12.39-.52 5.59-7.29 7.13-7.29 4.22 0 8.51-.52 8.51 3.66zm-15.68 3.66s11.5.4 15.19.25a10.84 10.84 0 01-6.13 3c-2.69.16-9.06-3.25-9.06-3.25z" fill="#f0a990"/><path d="M176.37 95.86l-.26.07v-.05a1.56 1.56 0 01.26-.02zm-.3.02v.05c-3 .68-5.76 3.79-5.76 3.79.63-2.91 2.82-3.72 5.76-3.84z" fill="#b76755"/><path d="M160.73 168.26c11 5.42 13.21 9.2 11.79 19.37-.58 4 .89.05-4.09 94.18-3.63-26-8.79-50.91-18.82-93.43a20.76 20.76 0 016.3 0c3.26.83-.24-13.38 4.82-20.12z" fill="#d3e1f9"/><path d="M164.3 99.16c-6.33-.54-14 2.48-14.42 2.64 6.12-4.92 10.12-5.01 14.42-2.64z" fill="#b76755"/><path d="M143.1 161.14c.14 0 .16.09.07.28a2.86 2.86 0 01-.07-.28z" fill="#3b5569"/><path d="M138.06 408.86c2.21-2.56 1.09-4.54-.59-6.78 1.74 2.24 2.89 4.2.59 6.78zm-.49.52a5.85 5.85 0 00.49-.52 3.4 3.4 0 01-.49.52z" fill="#fda88d"/><path d="M312.6 578.72c-.36-1.1-6.21 6.7-11.13 9.22s-18.78 4.86-32.66 2.92v13.88c5.09.56 24.36 2.82 24.36 2.82v-2.82s15.77 5.94 21.81 6.6 54.19 2.18 36-9.91-38.14-21.24-38.34-22.66m-136.53-9.53c1.68 7.39-3.43 13.26-9.46 17.57-14 0 1.89 8.1-21.33 27.75-7.37 6.22-13.59 11.89-17.75 9.43-14-8.27 5.54-33.33 16.25-45.38 11.18 2.99 12.82.39 32.29-9.37zm0 0s7.55-40.79 7.35-45.5-1.13-44 0-48.92c16.13-70 14.76-84.87 16.23-89.3.2-.57 15.88 53.42 24.94 76.47s27.57 61.55 28.7 71 13.22 53 15.48 57.87M174.03 320.8l-.85.11-.34.05m42.84-5.9L194.31 318l-5.31.74-14.96 2.06m41.69-5.74h-.04" fill="none" stroke="#060000" stroke-miterlimit="10" stroke-width=".9"/><path d="M137.07 410.82c1.65 19 8.27 63.91 4.49 87.8-5.47 34.14-3 57.89 2.26 80m111.5-195.97l.11.49c6.31 29.94 12.36 59.86 13.4 68.65 2.26 19.26 10.19 24.93 12.82 31.73 11.79 30.12 30.37 93.1 31 95.2a.43.43 0 010 0" fill="none" stroke="#060000" stroke-miterlimit="10" stroke-width=".9"/><path d="M136.37 410.44c0 .09.18.12.7.38 10.53 5.18 18.86 11.24 30.53.18 5.9-5.55 7-45.26 6.17-75.15-.14-5.38-.34-10.45-.59-14.94-.57-10.56-1.4-17.94-2.22-18.76m-35.2 97.71c.29.37.56.73.85 1.09m-2.55-4.07a14.9 14.9 0 001.69 2.94m7.17-238.65c-2.13.63-16.13 11.25-50.46 35.34-3.14 86.48-1.22 18.75 9.44 192.58l3.31-.88m37.96-226.79c.09-.19.07-.28-.07-.28" fill="none" stroke="#060000" stroke-miterlimit="10" stroke-width=".9"/><path d="M124.18 273.93c6.31 10.26 6 47 6.92 86.73-7.55-43.39-8-45.35-6.92-86.73v0M100 199.52s16.24 27.2 18.5 58.54m25.69 86.85l-1.5 10.59-10.26-4.42m117.49-51.48v6.8l16.25-6.8m95.29-88.22a13.2 13.2 0 016.39-4.95m-10.37 15.01a26.12 26.12 0 013.93-10m-4.31 29.18a63.74 63.74 0 01.38-19.16" fill="none" stroke="#060000" stroke-miterlimit="10" stroke-width=".9"/><path d="M206.4 289.11c0 4.16 4.85 15.93 9.28 25.95h0c1.94 4.4 3.79 8.47 5.14 11.41 13.9 30.76 24.57 49.1 34.6 56.67 11.46 8.72 22.08 3.32 35.68-13.67-16.42-84-36.49-55.72-43.05-149.93 47.75 3.05 50.35 4 109.13 21.91m10.95-35.13c-89.53-31.1-59.68-12.18-102-22.28-9.43-2.26-19.64-10.58-21.9-13.59-10.21-13.62-6.69-11.27-12.48-11.52l-46-2.08m62.66 58.87a.06.06 0 010 0m-2.26-5.72c-1.49-7.31-1.93-9.92-1.79-9.92s0 0 .07.11c.58 1.29 3.57 13.74 4 15.43M247 214c-.06-.23-.11-.48-.16-.73m.68 2.88c-.15-.48-.29-1.06-.43-1.7m1.23 2.98c0 .25-.14.3-.23.21" fill="none" stroke="#060000" stroke-miterlimit="10" stroke-width=".9"/><path d="M185.74 156.85l24.54 15.86-3.39 3 9.81 6.42c-.88 77.69-1.44 74.44-10.3 107-4.18-23.68-1.4-17.94-17.4-113.3-1.06-5.92-2.11-12.24-3.26-18.98zm58.58 42.93l.11.37 4 15.43v.14h0v0a7.72 7.72 0 01-.11 1.67c0 .28-.14.34-.23.21a5.08 5.08 0 01-.57-1.49c-.15-.48-.29-1.06-.43-1.7 0-.16-.08-.31-.11-.47s-.11-.48-.16-.73c-.22-1-.45-2.14-.67-3.29-.79-4-1.54-8.44-1.79-9.92a1.51 1.51 0 010-.26m115.74 30.58l5.13.36c-.17 1.28.37.29-8 10.77 0 0 0-.29-.09-.83a88.47 88.47 0 01-.27-10.51m6.02-20.33a16.36 16.36 0 015-3.35l.28-.11c-.32 2.64-.07 3.54-.79 3.75a14.86 14.86 0 01-3.44-.21m-192-45.83l.51-.26 9.77-5.09 3.52-1.83m46.05 2.08s3.4 31.54 6.06 35.3m4.9-13.2l-1.89 14.73m3.46 4.02v-.17a.41.41 0 000-.09m13.74-7.92c-2.08 1.13-9.63 15.1-9.63 24.12M143.06 161c2.41-2 3.93-3.71 4.94-4 .73-.21 1.2.29 1.54 1.92.43 2.08 15.8 6.22 15.8 6.22a8.35 8.35 0 00-4.61 3.11c-5.06 6.76-1.56 21-4.82 20.12a20.76 20.76 0 00-6.3 0h-.07" fill="none" stroke="#060000" stroke-miterlimit="10" stroke-width=".9"/><path d="M160.66 168.22h.07c11 5.42 13.21 9.2 11.79 19.37-.58 4 .89.05-4.09 94.18M174 320.8h0c9.15-2.08 14.69-124.49 11.7-132.42-5.4-14.22-13-11-3.12-22.56" fill="none" stroke="#060000" stroke-miterlimit="10" stroke-width=".9"/><path d="M189 175.83h0c-3.77.63-5.26-5-6.33-10-.72-3.34-5.12-3-10.17-2-2.32.42-4.79 1-7.11 1.38m8.47 170.64s7.73-.57 17.21-1.9c2.06-.3 4.19-.63 6.35-1 8.8-1.48 18-3.6 23.39-6.49M189 318.74s4 12.16 2.07 15.21m3.24-15.95s5.74 9.05 3.11 15m216.17-98.26c.82-1.28 5.47.28 6.49-7.93m-2.67-6.33a1.12 1.12 0 00-.16-.63m-1.71 2.38c1.33-.53 1.76-1.13 1.85-1.59m-9.65 1.47c.18 0 .41.09.73.14 1.83.34 5 .74 6.71.13a1.44 1.44 0 00.31-.13m-8.59-.32h.26a5 5 0 00.5.11m.06.07l-.5-.11m.5.11s0 0 0 0" fill="none" stroke="#060000" stroke-miterlimit="10" stroke-width=".9"/><path d="M415.49 222.25a15.42 15.42 0 01-7 0c-.23 0-.48-.09-.73-.14m7.73.14a.06.06 0 00.05 0m1.85-1.61c-.07.61-.68 1.22-1.85 1.59m1.85-1.59a.39.39 0 000-.15h0" fill="none" stroke="#060000" stroke-miterlimit="10" stroke-width=".9"/><path d="M389.69 232.92l.22.27.07.11h0c.09.13.18.25.29.38 2.26 2.89 4 4.95 4.59 6.37.86 2-.4 2.81-5.22 3.1-2.24.12-6.35-4.93-8.92-8.41-3.15-4.29.24-3.09-20.64-4.42l-3.27-.21a74.29 74.29 0 01.65-8.65v0a20.59 20.59 0 013.93-10v-.07a17.64 17.64 0 011.43-1.6l1 .08c1.06 0 2.22.12 3.44.21 15.73 1 43.05 2.67 49.64 9.47a1.36 1.36 0 01.43.94" fill="none" stroke="#060000" stroke-miterlimit="10" stroke-width=".9"/><path d="M398.61 231.13c.27.49.55 1 .82 1.47l.06.09a3.79 3.79 0 00.18.34.37.37 0 00.09.16l1 1.89c0 .07.08.16.13.23.63 1.22 1.16 2.3 1.51 3v.06a2.51 2.51 0 00.11.23.26.26 0 01.05.09 1 1 0 00.11.21.44.44 0 00.09.18v0h0a.06.06 0 000 0v0l.06.14c-.38 1.89-7.55-.37-7.55 1.33 0 0-.17-.23-.45-.64-.85-1.22-2.73-3.91-4.59-6.37m26.77-14c15.75-3.76.16-.73 182.64-32.66l4.54-7.55H598V145h7.66l3.21 43.8-188.8 38.05-12.32 2.47c7.06 6.44 5.76 4.56 5.13 8.09-.76 4.22-9.64.11-10 2m-254.94-82.56c0-3.21-4.32-13.22-6-15.28 0 0-15.56-4.13-21.44-20-.16-.43-.32-.88-.47-1.33-5.47-17-6.6-29.83 7.95-36.83 24.59-11.82 19.82-8.3 40.68-3.39 1.6.38-.43 2.84-1.86 3.21-.29.08-.41.24-.41.47 0 1.51 5.23 6.19 9.7 12.2v.05c.66.92 1.32 1.85 1.93 2.82 0 0 7.45-1.56 7.7 1.56s.93 9.34-1 10.62a1.47 1.47 0 00-.58.79c-.68 2.1 1.37 7 1 11.8-.41 5.53-1.42 14-1 16.72 1.42 8.91 1.87 8-2.92 10.39l1 8.05m-1.02-8.07s-9.26 7.4-39.28-9.06" fill="none" stroke="#060000" stroke-miterlimit="10" stroke-width=".9"/><path d="M166.89 131.56c.39-.52 5.59-7.29 7.13-7.29 4.22 0 8.51-.52 8.51 3.66 0 .88-2.37-1.29-4.07-1.49-4.88-.53-7.18 2-11.57 5.12 0 0 0 0 0 0" fill="none" stroke="#060000" stroke-miterlimit="10" stroke-width=".9"/><path d="M182.53 127.93l-.49 3.91c-3.69.15-15.19-.25-15.19-.25s6.37 3.41 9.06 3.27a10.84 10.84 0 006.13-3m-61.56-10.31c4.22-12.42 13.53-.34 16.72-2.28.86-.52.68-3.66.61-6.57v-2.2a7.5 7.5 0 01.34-2.37c.95-2.35 4.63-4 4.25-7.64-.23-2.19-4.66-10.67 0-13.69 9.67-6.2 7.19-2.17 21.31-2.17a3.82 3.82 0 002.64-.95 2.23 2.23 0 00.41-.47" fill="none" stroke="#060000" stroke-miterlimit="10" stroke-width=".9"/><path d="M137.81 112.7l14.49-6s3.5 8.51 7 8 6.33-.29 8-1.9c4.71-4.45-.88-7.66 6.62-7.84 0 0 .93 3.8 2.06 4.88s5.29 3 8.12 1.92" fill="none" stroke="#060000" stroke-miterlimit="10" stroke-width=".9"/><path d="M178 98.75c-3.26 2.55-3.85 4-9.68 3.62-8.83-.55-4.34-4.21-13.69 0-1 .49-16.86 8.13-16.86 8.13m12.11-8.7l-.02.02m.02-.02c.43-.16 8.09-3.18 14.42-2.64-4.3-2.37-8.3-2.28-14.42 2.64z" fill="none" stroke="#060000" stroke-miterlimit="10" stroke-width=".9"/><path d="M176.11 95.93l.26-.07a1.56 1.56 0 00-.3 0c-2.94.14-5.13.93-5.72 3.84 0 .02 2.74-3.09 5.76-3.77zM173.36 112c1.88 2 4.79 4.36 4.2 5.45a.94.94 0 01-.61.45m-7.09-1.36c.67 1.42 1.71 3.59 2.46 2.64m5.24-1.78s.14 2.25-2 2m-50.43.53c9.27-4.32 4.09 6.8 7.92 8.51m4.42 273.64c1.74 2.24 2.89 4.2.59 6.78a3.4 3.4 0 01-.49.52v.05a12 12 0 01-1.15 1h0c-11.64 10.11-11.43 9.52-21.89.36-4.18-3.66-9.24-22.61-9.24-22.61m30.47 11.68c.27.37.56.75.85 1.09m-2.55-4.07a14 14 0 001.69 2.94m-4.65-39.16l.47 20.58" fill="none" stroke="#060000" stroke-miterlimit="10" stroke-width=".9"/><path fill="none" stroke="#000" stroke-linecap="round" stroke-linejoin="round" stroke-width=".9" d="M581.5 104.92H201.22l380.28 47.36"/><path d="M406.9 221.93c-14.55 5.54-6.75 2.12-4 3.26a41.11 41.11 0 014.88 4.09m-264.61-67.84c2.35 9.74 4.49 18.68 6.44 26.94 10 42.52 15.19 67.47 18.82 93.43v.09c.93 6.58 1.76 13.23 2.53 20.25m-28.02-140.98l.12-.16v.13a2.86 2.86 0 00.07.28m-16.25 18.82l16.04-19.07" fill="none" stroke="#060000" stroke-miterlimit="10" stroke-width=".9"/><path d="M547.93 128.46v3.71h-14.07v-3.71zm7.18 13.73a20.44 20.44 0 004-.17 13.93 13.93 0 007.75-3.59 16.23 16.23 0 004.9-9.85h-.17a10.87 10.87 0 01-8.71 4c-6.67 0-10.94-5-10.94-11.33 0-7 5.07-13.16 12.64-13.16s12.25 6.15 12.25 15.61c0 8.14-2.73 13.84-6.38 17.37a18.44 18.44 0 01-10.77 5 23.48 23.48 0 01-4.61.29zm1.82-21.31c0 4.62 2.79 7.87 7.12 7.87a8.28 8.28 0 007.3-3.88 3.32 3.32 0 00.45-1.82c0-6.32-2.33-11.17-7.57-11.17-4.23 0-7.3 3.76-7.3 9zm38.69-6.78a7.56 7.56 0 01-7.64 7.64 7.25 7.25 0 01-7.46-7.35 7.49 7.49 0 017.58-7.69 7.27 7.27 0 017.52 7.4zm-12 .29a4.51 4.51 0 004.45 4.67 4.61 4.61 0 004.5-4.9c0-2.11-1.25-4.78-4.5-4.78-2.99 0-4.48 2.56-4.48 5.01z"/><path d="M499.34 104.93a18.41 18.41 0 0118.41 18.41c0 10.17-10 18.49-20.2 18.49" fill="none" stroke="#000" stroke-miterlimit="10" stroke-width=".43"/></svg>