<svg xmlns="http://www.w3.org/2000/svg" viewBox="0 0 1400 780"><path fill="#7dbdb4" d="M0 0h1400v780H0z"/><path d="M779.23 237.75a1.58 1.58 0 00-.5-1.1c18.51-4.42.19-.86 214.69-38.39l5.33-8.88h-7.23V149h9l3.77 51.49-221.91 44.7-14.49 2.91a46.5 46.5 0 00-5.73-4.8c-3.21-1.35-12.38 2.67 4.72-3.84a.7.7 0 00.13 0h.19c.15 0 .36.09.59.13a6.53 6.53 0 00.86.17c2.16.4 5.84.86 7.89.14a1.92 1.92 0 00.36-.14.07.07 0 00.06 0c1.37-.45 2.09-1.16 2.17-1.88a.5.5 0 000-.17z" fill="#382d28"/><path d="M762.16 260c-.45 2.22-8.88-.44-8.88 1.56l-.53-.76c-.72-1.68-2.72-4.09-5.4-7.48 2.2 2.89 4.41 6 5.4 7.48 1 2.37-.46 3.31-6.13 3.65-2.64.15-7.47-5.8-10.48-9.89-3.71-5 .27-3.62-24.27-5.18l-3.84-.26a84 84 0 01.76-10.16 30.79 30.79 0 014.62-11.75.28.28 0 00.06-.08 19.64 19.64 0 011.69-1.88c.42 0 .82.07 1.18.09 2.32.21 3.48.42 4 .25 18.49 1.14 50.6 3.14 58.34 11.13a1.58 1.58 0 01.5 1.1.5.5 0 010 .17c-.1.55-.61 1.26-2.17 1.88a.07.07 0 01-.06 0 18.3 18.3 0 01-8.25 0c-.27 0-.56-.11-.86-.17l-.59-.13h-.19a.7.7 0 01-.13 0c-17.1 6.51-7.93 2.49-4.72 3.84a46.5 46.5 0 015.73 4.8c8.31 7.57 6.77 5.36 6 9.51-.94 4.85-11.34.02-11.78 2.28z" fill="#ffa381"/><path d="M779.21 237.94c-.08.72-.8 1.43-2.17 1.88 1.56-.62 2.07-1.33 2.17-1.88z" fill="#ffa381"/><path d="M777 239.84a1.92 1.92 0 01-.36.14c-2 .72-5.73.26-7.89-.14a18.3 18.3 0 008.25 0zm-9.13-.17c.3.06.59.13.86.17a6.53 6.53 0 01-.86-.17zm-.61-.13l.59.13c-.23-.04-.44-.09-.59-.13z" fill="#3b5569"/><path d="M752.75 260.75c-1-1.43-3.2-4.59-5.4-7.48 2.65 3.39 4.65 5.8 5.4 7.48z" fill="#ffa381"/><path d="M580.61 232.16v-.15c-.47-2-4-16.61-4.66-18.13l-.13-.44a2.19 2.19 0 000 .31c-.16 0 .36 3.06 2.11 11.66.26 1.35.53 2.66.78 3.86.11.47.19.93.3 1.37.17.73.34 1.43.51 2a6 6 0 00.67 1.75c.11.15.21.08.27-.25a9.37 9.37 0 00.13-2zm-38.48 116.77c-5.21-11.78-10.9-25.62-10.9-30.51 10.41-38.2 11.07-34.39 12.1-125.71l-11.53-7.55 4-3.56-28.88-18.6 54.08 2.41c6.81.29 2.68-2.47 14.68 13.53 2.66 3.55 14.65 13.33 25.74 16 49.7 11.87 14.62-10.38 119.85 26.18l-.33.13a15.67 15.67 0 00-7.51 5.82.28.28 0 01-.06.08 24.18 24.18 0 00-4.62 11.75 74.79 74.79 0 00-.42 22.65c0 .54.08.84.08.84-69.1-21-72.15-22.16-128.28-25.75 4.66 66.91 7.42 62.65 30.17 110.53 12.88 27.08 20.43 65.7 20.43 65.7-16 20-28.46 26.32-41.94 16.07-11.78-8.9-24.33-30.47-40.67-66.61-1.54-3.44-3.71-8.23-5.99-13.4z" fill="#3b5569"/><path d="M721 221.24l.33-.13c-.38 3.1-.08 4.16-.92 4.41l-4-.25c-.36 0-.76-.07-1.18-.09a19.19 19.19 0 015.77-3.94z" fill="#30424d"/><path d="M720.39 225.52c-.57.17-1.73 0-4-.25zm-8.52 23.81l6 .42c-.19 1.49.44.33-9.45 12.65 0 0 0-.3-.08-.84a97.21 97.21 0 01-.34-12.49z" fill="#30424d"/><path d="M708.79 238.89a24.18 24.18 0 014.62-11.75 30.79 30.79 0 00-4.62 11.75z" fill="#3b5569"/><path d="M701.11 685.54c21.43 14.21-35.17 12.44-42.27 11.66s-25.64-7.76-25.64-7.76v3.31s-22.65-2.66-28.64-3.31v-16.32c16.32 2.28 32.56-.46 38.4-3.44s12.65-12.12 13.07-10.83v.06c.26 1.66 23.66 12.44 45.08 26.63z" fill="#020202"/><path d="M656 658.85c-.42-1.29-7.29 7.88-13.07 10.83s-22.08 5.72-38.4 3.44c-2.65-5.67-16.86-56.93-18.19-68s-23.09-56.38-33.74-83.46-28.89-89.88-29.31-89.88c-1.73 5.2-.12 22.66-19.08 105-1.33 5.78-.21 51.95 0 57.5s-8.65 53.49-8.65 53.49c-22.87 11.43-24.81 14.53-37.95 11-6.22-26-9.09-53.9-2.66-94 4.45-28.09-3.33-80.91-5.27-103.21 12.4 6.09 22.16 13.22 35.89.21 6.94-6.52 8.18-53.2 7.25-88.33h.18s9.09-.67 20.22-2.23c2.42-.36 4.93-.74 7.46-1.16 10.36-1.75 21.13-4.24 27.5-7.64 16.34 36.14 28.89 57.71 40.67 66.61 7.43 35.19 14.53 70.36 15.75 80.7 2.66 22.64 12 29.3 15.08 37.3 13.83 35.33 35.68 109.36 36.32 111.83z" fill="#314856"/><path d="M548.16 362.34c-6.37 3.4-17.14 5.89-27.5 7.64 3.1-7-3.64-17.59-3.64-17.59l25.11-3.46c2.28 5.17 4.45 9.96 6.03 13.41z" fill="#10100e"/><path d="M510.69 185.27c-1.18-7-2.42-14.38-3.77-22.31l28.84 18.64-4 3.56 11.53 7.55c-1 91.32-1.69 87.51-12.1 125.71-4.89-27.81-1.69-21.06-20.5-133.15z" fill="#30424d"/><path d="M542.11 348.93L517 352.39l-6.24.87-17.59 2.42c10.75-2.45 17.27-146.33 13.75-155.65-6.35-16.72-15.25-13-3.67-26.53 1.26 5.86 3 12.51 7.44 11.77 18.81 112.09 15.61 105.34 20.52 133.15 0 4.89 5.69 18.73 10.9 30.51z" fill="#d3e1f9"/><path d="M517 352.39s6.74 10.61 3.64 17.61c-2.53.42-5 .8-7.46 1.16 2.28-3.59-2.42-17.88-2.42-17.88z" fill="#717b7f"/><path d="M510.76 353.26s4.7 14.29 2.42 17.88c-11.13 1.56-20.22 2.23-20.22 2.23h-.11a600.4 600.4 0 00-.69-17.56l1-.13z" fill="#10100e"/><path d="M510.69 185.27c-4.43.74-6.18-5.91-7.44-11.77-.84-3.92-6-3.54-12-2.4l11.49-6 4.14-2.15c1.39 7.94 2.63 15.36 3.81 22.32z" fill="#deeffc"/><path d="M491.29 171.1c5.95-1.14 11.12-1.52 12 2.4-11.58 13.54-2.68 9.81 3.67 26.53 3.52 9.32-3 153.2-13.75 155.65l-1 .13c-.68-12.42-1.65-21.09-2.62-22.06-.9-8.24-1.87-16.07-3-23.8v-.11c5.86-110.63 4.13-105.95 4.81-110.7 1.66-11.95-.95-16.4-13.86-22.77a9.78 9.78 0 015.42-3.65c2.7-.46 5.61-1.14 8.33-1.62z" fill="#5e8dc9"/><path d="M506.92 96.5c.27 3.65 1.09 11-1.23 12.48a1.75 1.75 0 00-.67.93c-3.33 1.22-8.2-1-9.55-2.26s-2.43-5.73-2.43-5.73c-8.81.21-2.23 4-7.78 9.21-2 1.9-5.31 1.56-9.42 2.24s-8.23-9.34-8.23-9.34l-17 7v-2.59s18.59-9 19.82-9.56c11-5 5.71-.65 16.09 0 6.85.45 7.54-1.26 11.38-4.26-.03.04 8.72-1.79 9.02 1.88z" fill="#111800"/><path d="M505 109.91c-.8 2.47 1.6 8.29 1.16 13.87-.49 6.5-1.67 16.49-1.16 19.66 1.67 10.47 2.19 9.38-3.44 12.2 0 0-10.88 8.71-46.17-10.64 0 0-18.28-4.85-25.2-23.54 5-14.59 15.9-.4 19.65-2.67 1-.62.8-4.31.72-7.72l17-7s4.12 10 8.23 9.34 7.44-.34 9.42-2.24c5.55-5.23-1-9 7.78-9.21 0 0 1.1 4.47 2.43 5.73s6.27 3.44 9.58 2.22zm-2.45 23.66l.57-4.6c0-4.91-5-4.3-10-4.3-1.81 0-7.93 8-8.39 8.56h-.05c-.05 0 7.49 4 10.65 3.84a12.79 12.79 0 007.24-3.5z" fill="#fca988"/><path d="M503.14 129l-.57 4.6c-4.34.17-17.86-.3-17.86-.3h.05c5.16-3.65 7.86-6.64 13.6-6 2 .15 4.78 2.7 4.78 1.7z" fill="#fffbe9"/><path d="M503.14 129c0 1-2.78-1.52-4.78-1.75-5.74-.63-8.44 2.36-13.6 6 .46-.61 6.58-8.56 8.39-8.56 4.95-.02 9.99-.63 9.99 4.31z" fill="#f0a990"/><path d="M501.58 155.64l1.2 9.47-11.49 6c-2.72.48-5.63 1.16-8.35 1.62 0 0-18.07-4.87-18.57-7.31s-1.88-2.45-1.88-2.45c0-3.77-5.08-15.54-7.08-18 35.29 19.38 46.17 10.67 46.17 10.67z" fill="#ffa186"/><path d="M484.71 133.27s13.52.47 17.86.3a12.79 12.79 0 01-7.21 3.54c-3.16.17-10.65-3.84-10.65-3.84z" fill="#f0a990"/><path d="M495.91 91.27a2.14 2.14 0 00-.32.08v-.06a2.17 2.17 0 01.32-.02z" fill="#b76755"/><path d="M495.59 647.71c2 8.69-4 15.58-11.11 20.64-16.44 0 2.22 9.54-25.07 32.62-8.66 7.32-16 14-20.87 11.09s-8-12.41-1.77-24.62 20.87-28.72 20.87-28.72c13.14 3.52 15.08.42 37.95-11.01z" fill="#020202"/><path d="M464.77 98.25c.5-.19 9.51-3.73 17-3.1-5.07-2.78-9.83-2.68-17 3.1zm30.82-6.9c.79 1.08 1.57 2.18 2.28 3.31-3.84 3-4.53 4.71-11.38 4.26-10.38-.65-5.11-5-16.09 0-1.23.57-19.82 9.56-19.82 9.56a8.65 8.65 0 01.4-2.79c1.12-2.76 5.44-4.66 5-9-.28-2.57-5.49-12.55 0-16.09 11.36-7.29 8.45-2.55 25.05-2.55a4.44 4.44 0 003.1-1.12c0 1.77 6.17 7.28 11.4 14.34-3.46.17-6 1.1-6.72 4.51.02.02 3.24-3.62 6.78-4.43z" fill="#fca988"/><path d="M495.55 91.29v.06c-3.54.81-6.76 4.45-6.76 4.45.73-3.41 3.3-4.34 6.76-4.51z" fill="#b76755"/><path d="M443.24 426.72l-31 8.2-3.91 1c-12.52-204.34-14.78-124.72-11.09-226.37 40.36-28.32 56.81-40.8 59.32-41.54l-18.85 22.42-2.28 2.69 10.65 6.2-10.65 7.55 54.08 126.85c1 1 1.94 9.64 2.62 22.06.29 5.27.53 11.24.69 17.56.93 35.13-.31 81.81-7.25 88.33-13.73 13-23.49 5.88-35.89-.21-.57-.3-.82-.36-.82-.45v-.06a3.19 3.19 0 00.32-.23 11.07 11.07 0 001.05-.95 3.59 3.59 0 00.57-.61c2.7-3 1.35-5.34-.69-8-.32-.45-.68-.87-1-1.33s-.65-.84-1-1.29a17.2 17.2 0 01-2-3.46 11.93 11.93 0 01-.63-2.15c-2.32-13.51-1.9-2.93-2.24-16.21zm-.55-24.19c-1.12-46.72-.72-89.89-8.14-101.95-1.28 48.65-.74 50.95 8.14 101.95z" fill="#3b5569"/><path d="M477.52 176.37c12.91 6.37 15.52 10.82 13.86 22.77-.68 4.75 1.05.07-4.81 110.7-4.26-30.51-10.33-59.84-22.12-109.84.66-.11 5-.63 7.4 0 3.84 1-.27-15.68 5.67-23.63z" fill="#d3e1f9"/><path d="M464.45 200c11.79 50 17.86 79.3 22.12 109.81v.19c1.1 7.73 2.07 15.56 3 23.8l-54.11-126.9 10.65-7.55-10.65-6.2 2.28-2.69c10.62-12.44 18.36-20.37 19.14-22.1 2.76 11.45 5.27 21.95 7.57 31.64z" fill="#30424d"/><path d="M486.82 72.63c1.88.44-.5 3.33-2.19 3.77a.54.54 0 00-.48.55 4.44 4.44 0 01-3.1 1.12c-16.6 0-13.69-4.74-25.05 2.55-5.51 3.54-.3 13.52 0 16.09.44 4.32-3.88 6.22-5 9a8.65 8.65 0 00-.4 2.79v2.59c.08 3.41.29 7.1-.72 7.72-3.75 2.27-14.7-11.92-19.65 2.67-.19-.5-.38-1-.55-1.56-6.43-20-7.76-35.06 9.34-43.28 28.89-13.92 23.28-9.79 47.8-4.01z" fill="#400b06"/><path d="M481.72 95.15c-7.44-.63-16.45 2.91-17 3.1 7.22-5.78 11.98-5.88 17-3.1z" fill="#b76755"/><path d="M477.52 176.37c-5.94 7.95-1.83 24.63-5.67 23.66-2.44-.63-6.74-.11-7.4 0-2.3-9.72-4.81-20.22-7.57-31.67.11-.24.09-.34-.08-.34s0-.11 0-.15l5.73-4.89s1.37 0 1.88 2.45 18.57 7.31 18.57 7.31a9.78 9.78 0 00-5.46 3.63z" fill="#deeffc"/><path d="M456.8 168c.17 0 .19.1.08.34a2.37 2.37 0 01-.08-.34z" fill="#3b5569"/><path d="M456.88 168.34c-.78 1.73-8.52 9.66-19.14 22.1L456.59 168h.19a2.37 2.37 0 00.1.34zm-.12-.49v.15h-.19z" fill="#30424d"/><path d="M450.18 451.22c2 2.63 3.29 4.95.69 8a8 8 0 01-.57.61 11.07 11.07 0 01-1.05.95l-.32.23v.06c-13.69 11.9-13.43 11.2-25.73.43-4.91-4.31-10.85-26.57-10.85-26.57l31-8.2c.34 13.3-.08 2.7 2.3 16.23a11.93 11.93 0 00.63 2.15 16.3 16.3 0 002 3.46c.32.45.66.89 1 1.29s.58.91.9 1.36z" fill="#fda88d"/><path d="M450.87 459.19c2.6-3 1.29-5.34-.69-8 2.04 2.66 3.39 4.96.69 8zm-.57.61a8 8 0 00.57-.61 3.59 3.59 0 01-.57.61zm-1.05.95a3.19 3.19 0 01-.32.23z" fill="#fda88d"/><path d="M656 658.85c-.42-1.29-7.29 7.88-13.07 10.83s-22.08 5.72-38.4 3.44v16.32c6 .65 28.64 3.31 28.64 3.31v-3.31s18.53 7 25.64 7.76 63.7 2.55 42.27-11.66-44.82-25-45.06-26.63m-160.43-11.2c2 8.69-4 15.58-11.11 20.64-16.44 0 2.22 9.54-25.07 32.62-8.66 7.32-16 14-20.87 11.09s-8-12.41-1.77-24.62 20.87-28.72 20.87-28.72c13.14 3.52 15.08.42 37.95-11.01zm0 0s8.88-48 8.65-53.49-1.33-51.72 0-57.5c19-82.3 17.35-99.76 19.08-105 .42 0 18.73 62.94 29.31 89.88S585 594 586.37 605.1s15.54 62.35 18.19 68M493.15 355.68l-.99.13-.4.06m50.35-6.94L517 352.39l-6.25.86-17.58 2.43m49-6.75h-.04m-92.42 112.56c1.94 22.3 9.72 75.12 5.27 103.21-6.43 40.12-3.56 68 2.66 94" fill="none" stroke="#060000" stroke-miterlimit="10" stroke-width="1.05"/><path d="M588.71 428.38l.12.57c7.43 35.19 14.53 70.36 15.75 80.7 2.66 22.64 12 29.3 15.08 37.3 13.85 35.4 35.7 109.43 36.37 111.9v.06M448.89 461c0 .09.25.15.82.45 12.4 6.09 22.16 13.22 35.89.21 6.94-6.52 8.18-53.2 7.25-88.33a600.4 600.4 0 00-.69-17.56c-.68-12.42-1.65-21.09-2.62-22.06M448.17 448.6c.34.45.66.87 1 1.29m-3-4.79a17.2 17.2 0 002 3.46M456.59 168c-2.51.74-19 13.22-59.32 41.54-3.69 101.65-1.43 22 11.09 226.37l3.91-1m44.61-266.57c.11-.24.09-.34-.08-.34" fill="none" stroke="#060000" stroke-miterlimit="10" stroke-width="1.05"/><path d="M434.55 300.58c7.42 12.06 7 55.23 8.14 101.95-8.88-51-9.42-53.3-8.14-101.95v0m-28.4-87.46s19.08 32 21.74 68.8m30.19 102.1l-1.77 12.44-12.06-5.19m138.11-60.51v7.99l19.1-7.99m112.01-103.7a15.67 15.67 0 017.51-5.82m-12.19 17.65a30.79 30.79 0 014.62-11.75m-5.04 34.42a74.79 74.79 0 01.42-22.65" fill="none" stroke="#060000" stroke-miterlimit="10" stroke-width="1.05"/><path d="M531.21 318.42c0 4.89 5.69 18.73 10.9 30.51h0c2.28 5.17 4.45 10 6 13.41 16.34 36.14 28.89 57.71 40.67 66.61 13.48 10.25 26 3.9 41.94-16.07 0 0-7.55-38.62-20.43-65.7-22.75-47.88-25.51-43.62-30.17-110.53 56.13 3.59 59.18 4.75 128.28 25.75m12.91-41.29c-105.23-36.56-70.15-14.31-119.85-26.18-11.09-2.66-23.08-12.44-25.74-16-12-16-7.87-13.24-14.68-13.53l-54.12-2.4m73.67 69.14a.15.15 0 010 .06m-2.66-6.81c-1.75-8.6-2.27-11.66-2.11-11.66s0 .05.09.13c.67 1.52 4.19 16.15 4.66 18.13m-1.57-1.37c-.11-.44-.19-.9-.3-1.37m.84 3.42c-.17-.57-.34-1.27-.51-2m1.45 3.5c-.06.29-.16.35-.27.25" fill="none" stroke="#060000" stroke-miterlimit="10" stroke-width="1.05"/><path d="M506.92 163l28.84 18.64-4 3.56 11.53 7.55c-1 91.32-1.69 87.51-12.1 125.71-4.91-27.81-1.71-21.06-20.52-133.15-1.16-7-2.4-14.42-3.75-22.31zm68.86 50.42l.13.44 4.66 18.14v.15h0v0a9.37 9.37 0 01-.13 2c-.06.33-.16.4-.27.25a6 6 0 01-.67-1.75c-.15-.57-.32-1.25-.51-2 0 0 0 0 0 0-.09-.42-.19-.88-.3-1.37-.25-1.2-.52-2.51-.78-3.86-.92-4.74-1.81-9.91-2.11-11.66a2.19 2.19 0 010-.31v-.19m136.07 36.07l6 .42c-.19 1.49.44.33-9.45 12.65 0 0 0-.3-.08-.84a97.21 97.21 0 01-.34-12.49m7.16-23.89a19.19 19.19 0 015.82-3.94l.33-.13c-.38 3.1-.08 4.16-.92 4.41-.57.17-1.73 0-4-.25M490.7 171.39l.59-.29 11.5-5.99 4.13-2.15m54.08 2.45s4 37.06 7.13 41.49m5.8-15.52l-2.22 17.31m4.01 4.43a.54.54 0 010 .11m16.21-9.43c-2.44 1.33-11.32 17.76-11.32 28.36m-123.85-64.31l5.73-4.89s1.37 0 1.88 2.45 18.57 7.31 18.57 7.31a9.78 9.78 0 00-5.42 3.65c-5.94 7.95-1.83 24.63-5.67 23.66-2.44-.63-6.74-.11-7.4 0h-.08" fill="none" stroke="#060000" stroke-miterlimit="10" stroke-width="1.05"/><path d="M477.44 176.33h.08c12.91 6.37 15.52 10.82 13.86 22.77-.68 4.75 1.05.07-4.81 110.7m6.58 45.88h0c10.75-2.45 17.27-146.33 13.75-155.65-6.35-16.72-15.25-13-3.67-26.53" fill="none" stroke="#060000" stroke-miterlimit="10" stroke-width="1.05"/><path d="M510.71 185.27h0c-4.43.74-6.18-5.91-7.44-11.77-.84-3.92-6-3.54-12-2.4-2.72.48-5.63 1.16-8.35 1.62M493 373.37s9.09-.67 20.22-2.23c2.42-.36 4.93-.74 7.46-1.16 10.36-1.75 21.13-4.24 27.5-7.64m-37.42-9.08s4.7 14.29 2.42 17.88m3.82-18.75s6.74 10.61 3.64 17.61m254.1-115.49c1-1.49 6.43.34 7.64-9.32m-3.15-7.44a1.29 1.29 0 00-.18-.74m-2.05 2.81c1.56-.62 2.07-1.33 2.17-1.88m-11.3 1.73a6.53 6.53 0 00.86.17c2.16.4 5.84.86 7.89.14a1.92 1.92 0 00.36-.14m-10.1-.38h0a.7.7 0 00.13 0h.19c.15 0 .36.09.59.13m.06.08l-.59-.13m.59.13s0 0 0 0" fill="none" stroke="#060000" stroke-miterlimit="10" stroke-width="1.05"/><path d="M777 239.84a18.3 18.3 0 01-8.25 0c-.27 0-.56-.11-.86-.17m9.11.17a.07.07 0 00.06 0m2.15-1.9c-.08.72-.8 1.43-2.17 1.88m2.17-1.88a.5.5 0 000-.17v0" fill="none" stroke="#060000" stroke-miterlimit="10" stroke-width="1.05"/><path d="M746.66 252.38l.25.32s.06.08.09.13h0l.33.44c2.68 3.39 4.68 5.8 5.4 7.48 1 2.37-.46 3.31-6.13 3.65-2.64.15-7.47-5.8-10.48-9.89-3.71-5 .27-3.62-24.27-5.18l-3.84-.26a84 84 0 01.76-10.16v0a24.18 24.18 0 014.62-11.75.28.28 0 00.06-.08 19.64 19.64 0 011.69-1.88c.42 0 .82.07 1.18.09l4 .25c18.49 1.14 50.6 3.14 58.34 11.13a1.58 1.58 0 01.5 1.1" fill="none" stroke="#060000" stroke-miterlimit="10" stroke-width="1.05"/><path d="M757.14 250.27c.33.57.65 1.14 1 1.73a.54.54 0 01.06.11c.06.13.13.25.21.4a.62.62 0 00.11.19c.4.76.8 1.5 1.16 2.21a1.83 1.83 0 00.14.28c.74 1.43 1.37 2.7 1.78 3.56v.06c0 .06.08.19.12.28a.61.61 0 01.07.1 1.62 1.62 0 00.12.26.84.84 0 00.11.21v0h0a.07.07 0 000 .06h0a1.78 1.78 0 00.07.17c-.45 2.22-8.88-.44-8.88 1.56l-.53-.76c-1-1.43-3.2-4.59-5.4-7.48m31.45-16.56c18.51-4.42.19-.86 214.69-38.39l5.33-8.88h-7.23V149h9l3.77 51.49-221.91 44.7-14.49 2.91c8.31 7.57 6.77 5.36 6 9.51-.88 5-11.32.13-11.76 2.34M462.49 163c0-3.77-5.08-15.54-7.08-18 0 0-18.28-4.85-25.2-23.54-.19-.5-.38-1-.55-1.56-6.43-20-7.76-35.06 9.34-43.28 28.91-13.9 23.3-9.77 47.82-4 1.88.44-.5 3.33-2.19 3.77a.54.54 0 00-.48.55c0 1.77 6.17 7.28 11.4 14.34v.06c.79 1.08 1.57 2.18 2.28 3.31 0 0 8.75-1.83 9.05 1.84s1.09 11-1.23 12.48a1.75 1.75 0 00-.67.93c-.8 2.47 1.6 8.29 1.16 13.87-.49 6.5-1.67 16.49-1.16 19.66 1.67 10.47 2.19 9.38-3.44 12.2l1.2 9.47m-1.16-9.46s-10.88 8.71-46.17-10.64" fill="none" stroke="#060000" stroke-miterlimit="10" stroke-width="1.05"/><path d="M484.76 133.23c.46-.61 6.58-8.56 8.39-8.56 5 0 10-.61 10 4.3 0 1-2.78-1.52-4.78-1.75-5.74-.63-8.44 2.36-13.6 6h-.05" fill="none" stroke="#060000" stroke-miterlimit="10" stroke-width="1.05"/><path d="M503.14 129l-.57 4.6c-4.34.17-17.86-.3-17.86-.3s7.49 4 10.65 3.84a12.79 12.79 0 007.21-3.54m-72.36-12.14c5-14.59 15.9-.4 19.65-2.67 1-.62.8-4.31.72-7.72v-2.59a8.65 8.65 0 01.4-2.79c1.12-2.76 5.44-4.66 5-9-.28-2.57-5.49-12.55 0-16.09 11.36-7.29 8.45-2.55 25.05-2.55a4.44 4.44 0 003.1-1.12 2.47 2.47 0 00.48-.55" fill="none" stroke="#060000" stroke-miterlimit="10" stroke-width="1.05"/><path d="M450.58 111.07l17-7s4.12 10 8.23 9.34 7.44-.34 9.42-2.24c5.55-5.23-1-9 7.78-9.21 0 0 1.1 4.47 2.43 5.73s6.22 3.48 9.55 2.26" fill="none" stroke="#060000" stroke-miterlimit="10" stroke-width="1.05"/><path d="M497.87 94.66c-3.84 3-4.53 4.71-11.38 4.26-10.38-.65-5.11-5-16.09 0-1.23.57-19.82 9.56-19.82 9.56m14.19-10.23l-.02.02m.02-.02c.5-.19 9.51-3.73 17-3.1-5.07-2.78-9.83-2.68-17 3.1z" fill="none" stroke="#060000" stroke-miterlimit="10" stroke-width="1.05"/><path d="M495.59 91.35a2.14 2.14 0 01.32-.08 2.17 2.17 0 00-.36 0c-3.46.17-6 1.1-6.72 4.51 0 .02 3.22-3.62 6.76-4.43zm-3.22 18.83c2.21 2.3 5.63 5.13 4.93 6.41a1.05 1.05 0 01-.71.53m-8.33-1.54c.78 1.67 2 4.22 2.89 3.1m6.15-2.09s.17 2.64-2.34 2.37m-59.29.61s6.87-3.21 7 1.89 1.33 7.66 2.34 8.1m5.17 321.66c2 2.63 3.39 4.93.69 8a3.59 3.59 0 01-.57.61 11.07 11.07 0 01-1.05.95 3.19 3.19 0 01-.32.23v.06h0c-13.69 11.9-13.43 11.2-25.73.43-4.91-4.31-10.85-26.57-10.85-26.57m35.82 13.67c.32.45.66.89 1 1.29m-3-4.79a16.3 16.3 0 002 3.46m-5.48-46.03l.55 24.19" fill="none" stroke="#060000" stroke-miterlimit="10" stroke-width="1.05"/><path fill="none" stroke="#000" stroke-linecap="round" stroke-linejoin="round" stroke-width="1.05" d="M972.12 101.92H525.11l447.01 55.66"/><path d="M766.88 239.46c-17.1 6.51-7.93 2.49-4.72 3.84a46.5 46.5 0 015.73 4.8m-311.01-79.74c2.76 11.45 5.27 21.95 7.57 31.67 11.79 50 17.86 79.3 22.12 109.81v.16c1.1 7.73 2.07 15.56 3 23.8M456.61 168l.15-.19v.15a2.37 2.37 0 00.08.34m-19.1 22.16l18.85-22.42" fill="none" stroke="#060000" stroke-miterlimit="10" stroke-width="1.05"/><path d="M932.66 129.59V134h-16.54v-4.36zm8.44 16.14a24.13 24.13 0 004.75-.2 16.39 16.39 0 009.11-4.22c2.88-2.61 5-6.43 5.76-11.58h-.2a12.79 12.79 0 01-10.25 4.69c-7.83 0-12.85-5.9-12.85-13.33 0-8.24 6-15.47 14.86-15.47s14.4 7.23 14.4 18.35c0 9.58-3.21 16.27-7.5 20.42a21.69 21.69 0 01-12.66 5.83 27.62 27.62 0 01-5.42.34zm2.14-25c0 5.42 3.28 9.24 8.37 9.24a9.74 9.74 0 008.57-4.55 3.88 3.88 0 00.54-2.15c0-7.43-2.75-13.12-8.91-13.12-5.02-.04-8.57 4.38-8.57 10.54zm45.47-8.01a8.88 8.88 0 01-9 9 8.53 8.53 0 01-8.78-8.64 8.82 8.82 0 018.91-9 8.55 8.55 0 018.87 8.64zm-14.13.33a5.29 5.29 0 005.22 5.49c3 0 5.3-2.47 5.3-5.76 0-2.47-1.48-5.62-5.3-5.62-3.48 0-5.22 3.01-5.22 5.89z"/><path d="M875.54 101.93a21.64 21.64 0 0121.64 21.64c0 12-11.79 21.73-23.74 21.73" fill="none" stroke="#000" stroke-miterlimit="10" stroke-width=".5"/></svg>