<svg xmlns="http://www.w3.org/2000/svg" viewBox="0 0 1400 780"><path fill="#cfcfcf" d="M0 0h1400v780H0z"/><path d="M569.7 195.86c.53 2 .24 4.28.31 6.44-13.4-.42-30.16-13.14-38.58-24.69-17.72-24.27 5.45-100.09 71.8-108.61 6.11-.79 12.24-1.19 20.44-2 39.77 7.5 34.9 9 45.5 14.77 8.6 4.7 24.07-3.92 100.48-2.86 8.89.13 7.67-.25 3.93 28.81-1.37 10.69-1.77 10-10.7 9.37-89-6.35-73.45-4-89.1-2.49-6.15.59-9.42-20.88-42.81-20.42-64.24.91-90.17 55.53-68.1 93.17 1.63 2.8 6.37 6.65 6.83 8.51zm228.99 46.74c39.92-.44 40-.73 39.61 4-5.82 71.38-4.85 66-6 71.4-8.24-3.53-17.68-3.88-23.21-12.21-1.74-2.63-3.93-1.1-5.4.15-4.24 3.64-6.57.07-11.14-6.06-4.16-5.64-6.79 2.65-9.1 7.21-3.79 7.54-7.69-1.41-9.74-3.55-6.42-6.75-9.4-3.07-13-12.61-.69-1.79-1.41-3.73-2.18-5.58-2.94-7.1-6.46-13.07-9.88-5.42-15.17 33.93-13.89 38.25-19.33 34.9-11.58-7.15-13.17-11.95-20.07-19.38-4.18-4.5-8.22 1.78-17.81-7.25-10.47-9.86-10-12.57-22-7.63-8.2-7.52-12.24-8.31-20.55-4-9.94-7.05-16.47-6.06-23.43 2.87-23.26-6.48-27.8-10.16-30.53-2-.27.79-.53 1.59-.78 2.34-9.87 29.43-7.82 20.7-7.82-54.3 9 .38 18.3 1.08 27.55 1.08 29.61 0 44.29 9.13 64 8.66 36.95-.95 39.48 8.28 120.81 7.38z" fill="#fcfcfc"/><path d="M848.09 235.66c-130.44-2.21-73.85 1.87-144.84-6.09-13.62-1.54-26.21 1.17-46-4.45-24.56-7-31.11-3-79.28-9.26-4.65-.6-3.59-4-2.71-8.47 1.59-8 5.75-11.06 13.71-9.26 3.24.73 4.59-.26 6.26-2.69 9.57-13.82 18.76-21.49 61.8-59.54 5.44-4.81 8.88-.24 13.69-8.73 7.87-13.93 19.11-7.8 41.09-6.57 66.25 3.68 54-5.58 79.36 27.34 12.08 15.72 54.19 63.16 73.5 67.68 3.4.79 7.17 1.54 8.12 5.73.7 3-3.09 10.34-6.42 11.4-5.91 1.85-12 3-18.08 4.4z" fill="#fcfcfc"/><path d="M653.56 130.94c9.66-10.3 16.1-9.63 11.13-15.39-28.48-33-108.61-5.53-103.41 48.77 1.34 13.89 10 30.46 19 28 4.32-1.17 9.59.31 11.62-1.94 5.89-6.62 11.09-14 17.64-19.82 14.77-13.12 30.46-25.18 44.02-39.62zm137.65 17c-25.33-32.94-13.11-23.66-79.36-27.34-22-1.23-33.22-7.36-41.09 6.57-4.81 8.49-8.25 3.92-13.69 8.73-43 38-52.23 45.72-61.8 59.54-1.67 2.43-3 3.42-6.26 2.69-8-1.8-12.12 1.26-13.71 9.26-.88 4.46-1.94 7.87 2.71 8.47 48.17 6.24 54.72 2.25 79.28 9.26 19.75 5.62 32.34 2.91 46 4.45 71 8 14.4 3.88 144.84 6.09l.24 1.49c6-1.43 12.17-2.55 18.08-4.4 3.33-1.06 7.12-8.36 6.42-11.4-1-4.19-4.72-4.94-8.12-5.73-19.35-4.52-61.46-51.96-73.54-67.68zm-28.33-30.82c8.93.64 9.33 1.32 10.7-9.37 3.74-29.06 5-28.68-3.93-28.81-76.41-1.06-91.88 7.56-100.48 2.86-10.6-5.82-5.73-7.27-45.5-14.77-8.2.77-14.33 1.17-20.44 2-66.35 8.53-89.52 84.35-71.8 108.62 8.42 11.55 25.18 24.27 38.58 24.69-.07-2.16.22-4.41-.31-6.44-.46-1.85-5.2-5.71-6.83-8.48-22.07-37.64 3.86-92.26 68.1-93.17 33.39-.46 36.66 21 42.81 20.42 15.65-1.59.11-3.9 89.1 2.45zM788.68 310c-9.24 15.57-19.23-2.91-20.09-3.48-7.09-4.69-13.64-9.72-14.32-19.53l4.21-1.7c.77 1.85 1.49 3.79 2.18 5.58 3.61 9.54 6.59 5.86 13 12.61 2.05 2.14 6 11.09 9.74 3.55 2.31-4.56 4.94-12.85 9.1-7.21 4.57 6.13 6.9 9.7 11.14 6.06 1.47-1.25 3.66-2.78 5.4-.15 5.53 8.33 15 8.68 23.21 12.21 1.19-5.42.22 0 6-71.4.38-4.68.31-4.39-39.61-4-81.33.9-83.86-8.33-120.9-7.5-19.69.47-34.37-8.64-64-8.66-9.25 0-18.51-.7-27.55-1.08 0 75-2 83.73 7.82 54.3l5 1.65c-.07.24-.16.51-.22.8-1.46 5.75-3.47 13.05-7.68 17.23-6.5 6.44-4 8.62-2.33 41.78 6.39 123.5 4.08 270.48.66 304.34-4.72 46.93-2.27 34.28 64 48.21 33.27 7 93.17 17.26 134.24 15.85 7.36-.24 7.43-.26 10-7.32 23.43-63.4 9.94-114.11 27.22-313.44 5.65-65.25 11.49-62.87-1.17-67.3-6.37-2.23-13.16-3.64-16.42-8.07-11.42 0-7.23 1.89-17.33-5.49-.46.85-.91 1.51-1.3 2.16zm92.83-90c1.15 32-34.21 19.11-35.16 30.29-18.76 219.94-6.79 16.16-22.11 305.13-3 57.67-5.91 115.78-15.41 144.57-5.73 17.37-10.78 20.88-29.15 20.9-162.14-20.63-104.43-16.12-161.57-24.4-26.28-3.82-41.27-7.21-38.58-36.51 11.36-122.57-.59-366.2-2.24-425.9-.42-15.67-12.26-7.84-12-20.87.09-3.62-15.52-8.14-26.78-16.32C487.47 159.86 535 34.6 650.76 63.72c19.27 4.85 16.45 11 32.65 10.21 93.76-4.93 71.1-3.53 94.82-1.93 8.22.53 7.54 15.15 5.91 23.28-3 15-7.21 23.55 1 32.94 38.91 44.35 62.15 74.66 83.66 80 6.36 1.55 12.45 4 12.71 11.83z" fill="#055923"/><path d="M609.58 279.77c-8-.33-9.48-1.72-10.51 1.54l-5-1.65c.25-.75.51-1.55.78-2.34 2.73-8.13 7.27-4.45 30.53 2 7-8.93 13.49-9.92 23.43-2.87 8.31-4.27 12.35-3.48 20.55 4 12-4.94 11.55-2.23 22 7.63 9.59 9 13.63 2.75 17.81 7.25 6.9 7.43 8.49 12.23 20.07 19.38 5.44 3.35 4.16-1 19.33-34.9 3.42-7.65 6.94-1.68 9.88 5.42l-4.21 1.7c-2.61 1-1.53 2.62-3.53 5-5.8 6.94-8.58 15-10.23 23.83-1.21 6.52-7 8.88-13 6-4.83-2.31-6.57-4.23-18.74-18.71-7.21-8.58-10.47.46-20.1-9.37-10.19-10.41-8.29-12.5-15.41-7.59-10.52 7.28-9.11-10.49-19.31-5.53-7.28 3.55-7.32 3.55-13.14-1.85-4.15-3.84-7-.18-9.9 4.23-7.76 11.93-9.39-2.69-21.3-3.17z" fill="#055923"/><path d="M653.45 693.67c-66.22-13.93-68.67-1.28-64-48.21 3.42-33.86 5.73-180.84-.66-304.34-1.72-33.16-4.17-35.34 2.33-41.78 4.21-4.18 6.22-11.48 7.68-17.23.06-.29.15-.56.22-.8 1-3.26 2.53-1.87 10.51-1.54 11.91.48 13.54 15.1 21.32 3.26 2.89-4.41 5.75-8.07 9.9-4.23 5.82 5.4 5.86 5.4 13.14 1.85 10.2-5 8.79 12.81 19.31 5.53 7.12-4.91 5.22-2.82 15.41 7.59 9.63 9.83 12.89.79 20.1 9.37 12.17 14.48 13.91 16.4 18.74 18.71 6.06 2.89 11.8.53 13-6 1.71-8.85 4.49-16.85 10.29-23.85 2-2.41.92-4 3.53-5 .68 9.81 7.23 14.84 14.32 19.53.86.57 10.85 19.05 20.09 3.48.39-.66.84-1.32 1.34-2.11 10.1 7.38 5.91 5.49 17.33 5.49 3.26 4.43 10 5.84 16.42 8.07 12.66 4.43 6.82 2.05 1.17 67.3-17.28 199.33-3.79 250-27.22 313.44-2.6 7.06-2.67 7.08-10 7.32-41.1 1.41-101-8.84-134.27-15.85z" fill="#f4f4f4"/><path d="M779.68 720.94c-162.14-20.63-104.43-16.12-161.57-24.4-26.28-3.82-41.27-7.21-38.58-36.51 11.36-122.57-.59-366.2-2.24-425.9-.42-15.67-12.26-7.84-12-20.87.09-3.62-15.52-8.14-26.78-16.32C487.47 159.86 535 34.6 650.76 63.72c19.27 4.85 16.45 11 32.65 10.21 93.76-4.93 71.1-3.53 94.82-1.93 8.22.53 7.54 15.15 5.91 23.28-3 15-7.21 23.55 1 32.94 38.91 44.35 62.15 74.66 83.66 80 6.35 1.56 12.44 4 12.7 11.84 1.15 32-34.21 19.11-35.16 30.29-18.76 219.94-6.79 16.16-22.11 305.13-3 57.67-5.91 115.78-15.41 144.57-5.72 17.36-10.77 20.87-29.14 20.89z" fill="none" stroke="#000" stroke-miterlimit="10" stroke-width="2.2"/><path d="M754.27 287c-2.61 1-1.53 2.62-3.53 5-5.8 6.94-8.58 15-10.23 23.83-1.21 6.52-7 8.88-13 6-4.83-2.31-6.57-4.23-18.74-18.71-7.21-8.58-10.47.46-20.1-9.37-10.19-10.41-8.29-12.5-15.41-7.59-10.52 7.28-9.11-10.49-19.31-5.53-7.28 3.55-7.32 3.55-13.14-1.85-4.15-3.84-7-.18-9.9 4.23-7.78 11.84-9.41-2.78-21.32-3.26-8-.33-9.48-1.72-10.51 1.54-.07.24-.16.51-.22.8-1.46 5.75-3.47 13.05-7.68 17.23-6.5 6.44-4 8.62-2.33 41.78 6.39 123.5 4.08 270.48.66 304.34-4.72 46.93-2.27 34.28 64 48.21 33.27 7 93.17 17.26 134.24 15.85 7.36-.24 7.43-.26 10-7.32 23.43-63.4 9.94-114.11 27.22-313.44 5.65-65.25 11.49-62.87-1.17-67.3-6.37-2.23-13.16-3.64-16.42-8.07-11.42 0-7.23 1.89-17.33-5.49-.5.79-.95 1.45-1.34 2.11-9.24 15.57-19.23-2.91-20.09-3.48-7.12-4.67-13.62-9.7-14.35-19.51zm93.82-51.34l.24 1.49c6-1.43 12.17-2.55 18.08-4.4 3.33-1.06 7.12-8.36 6.42-11.4-1-4.19-4.72-4.94-8.12-5.73-19.31-4.52-61.42-52-73.5-67.68-25.33-32.94-13.11-23.66-79.36-27.34-22-1.23-33.22-7.36-41.09 6.57-4.81 8.49-8.25 3.92-13.69 8.73-43 38-52.23 45.72-61.8 59.54-1.67 2.43-3 3.42-6.26 2.69-8-1.8-12.12 1.26-13.71 9.26-.88 4.46-1.94 7.87 2.71 8.47 48.17 6.24 54.72 2.25 79.28 9.26 19.75 5.62 32.34 2.91 46 4.45 70.95 7.96 14.36 3.88 144.8 6.09z" fill="none" stroke="#000" stroke-miterlimit="10" stroke-width="2.2"/><path d="M758.48 285.3c.77 1.85 1.49 3.79 2.18 5.58 3.61 9.54 6.59 5.86 13 12.61 2.05 2.14 6 11.09 9.74 3.55 2.31-4.56 4.94-12.85 9.1-7.21 4.57 6.13 6.9 9.7 11.14 6.06 1.47-1.25 3.66-2.78 5.4-.15 5.53 8.33 15 8.68 23.21 12.21 1.19-5.42.22 0 6-71.4.38-4.68.31-4.39-39.61-4-81.33.9-83.86-8.33-120.9-7.5-19.69.47-34.37-8.64-64-8.66-9.25 0-18.51-.7-27.55-1.08 0 75-2 83.73 7.82 54.3.25-.75.51-1.55.78-2.34 2.73-8.13 7.27-4.45 30.53 2 7-8.93 13.49-9.92 23.43-2.87 8.31-4.27 12.35-3.48 20.55 4 12-4.94 11.55-2.23 22 7.63 9.59 9 13.63 2.75 17.81 7.25 6.9 7.43 8.49 12.23 20.07 19.38 5.44 3.35 4.16-1 19.33-34.9 3.49-7.53 7.03-1.56 9.97 5.54zM623.67 67c-8.2.77-14.33 1.17-20.44 2-66.35 8.53-89.52 84.35-71.8 108.62 8.42 11.55 25.18 24.27 38.58 24.69-.07-2.16.22-4.41-.31-6.44-.46-1.85-5.2-5.71-6.83-8.48-22.07-37.64 3.86-92.26 68.1-93.17 33.39-.46 36.66 21 42.81 20.42 15.65-1.55.11-3.86 89.1 2.49 8.93.64 9.33 1.32 10.7-9.37 3.74-29.06 5-28.68-3.93-28.81-76.41-1.06-91.88 7.56-100.48 2.86-10.6-5.81-5.73-7.28-45.5-14.81z" fill="none" stroke="#000" stroke-miterlimit="10" stroke-width="2.2"/><path d="M561.28 164.32c1.34 13.89 10 30.46 19 28 4.32-1.17 9.59.31 11.62-1.94 5.89-6.62 11.09-14 17.64-19.82 14.77-13.14 30.44-25.2 44-39.64 9.66-10.3 16.1-9.63 11.13-15.39-28.46-33.02-108.59-5.53-103.39 48.79z" fill="none" stroke="#000" stroke-miterlimit="10" stroke-width="2.2"/><path d="M656 523.14c1.55 12.79 1.12 13.66 3.26 13.16 15.81-3.66 31 11.9 17.41 36-2.77 4.91-.68 4.94 9.14 14.65 4.88 4.83.67 6.52-10.44 15.66 1.37 2.8 6.52 3.46 6.9 5.84.69 4.26-.13 8.82-.72 13.2-.62 4.66-3.94 2.93-26.35.32 1.89 1.48 3.29 2.54 4.67 3.64 14 11.1 1.12 22.09 10.65 22 9.36-.13 13.59-.67 13.28 4.86-.43 7.7 3.85 15-3.69 14.25-45.51-4.8-44.46-5.4-45.64-3-2.23 4.55-19.66-14.51-5.25-37.2 1.61-2.53 4.42-4.3 6.58-6.34-8.62-18.79-5.83-42.91 16.42-44.28-5.38-5.09-14.41-10.76-8.42-20.29 2.85-4.53-1.79-7.59 8.18-15.64.15-.12.12-.46.34-1.54-20.28 0-16.05 4-13.63-45.11.37-7.49-2.89-12.73 3.54-12.5a96.48 96.48 0 0117.47 2c7.89 1.67 8 1.84 6.43 9.76-1.47 7.45-1.39 7.54 6.24 8.9 17.24 3.06 19.76 2.4 19.38 7.86-.81 11.73 4.68 20.48-6.79 18.41-27.44-5.08-21.41-3.95-28.96-4.61zm15.24 139c.28-1.9 6.47 1.76 6.43-3.32 0-5.32-.6-6.15-4.58-6.37-12.84-.72-16.14-.22-14.24-9 .59-2.74 1.18-5.81.53-8.42-1.44-5.82-10.31-10.66-17.15-10-14.42 1.4-10.68 18.48-10.67 27.18.01 5.72.64 4.35 39.69 9.96zm8.68-72.42c-11.32-12.28-9-8.46-13.45-1.06-3.51 5.88-7.62 2-9-2.28-2.11-6.45-8.88-5.63-12.44-2.41-6.33 5.73-9 19.44-5.09 27 1.91 3.65.78 3.49 31.41 7.34 3.79.48 8-7.33-.33-9.4-14.02-3.43-2.49-9.07 8.91-19.16zm-20.38-101.09c-10-2-13.89-4.13-14.17 2.1-.92 20.44-2.41 14.21-.61 39.55.25 3.51 4.19 5.33 5.55-.86.27-1.22-.18-2.59-.29-3.9-1.19-13.86 2.21-8 35.56-3.78-1-11.68-.08-12.67-5-13.31-24.13-3.15-25.06-6.18-21.04-19.8zm-10.39 75.85c8.3 9.91 22.61 8.12 25.33-4.15 6-27-26.92-20.06-22.6-3.49.84 3.16.56 5.57-2.73 7.64zm13.92 16.74l2-3.19c-8.78-1.03-8.86-2.16-2 3.19z"/><path d="M656.12 435c-3.1-2.15-6.42-3.88-9-6.37-12.13-11.79-2.16-37.9 8.34-30.67 1.79 1.24 2.62 3.86 3.78 5.71 2.57-.61 5.77-2.43 7.8-1.55s2.49 4.52 4.17 8c.31-6-.49-9.27 3.37-8.51 14.12 2.79 19.89 3.17 21.24 8.41 2.24 8.68.61 17.27-2.72 25.32-.86 2.07-4.68 2.92-7.27 4.41 0-.1 8.19 1.28 7.43 12.94-1.68 25.76 3.18 39.54-13.68 35.74-19-4.28 2.35-23.22-11.8-20.54-5.08 14.91-1.77 13.3-24.78 5.07 7.47-7.64 3-16.75 4.84-30.47.85-6.49 1.97-7.21 8.28-7.49zm-4.44-32.11c-9.76 14.65-.22 31.2 33.72 29a4.3 4.3 0 003-2.85 98.28 98.28 0 001.41-15.1c0-3.5-9.87-11-13.85.58-.82 2.36-1.52 5-4.71 5-5-.1-6-5-7.69-9.87-6.8 13.4-9.05 1.81-11.88-6.81zm35.66 60.27c-1.44-.12-.53 0-.84-8.69-.33-9.33-1.85-9.47-5.6-10.48-2.8-.74-2.57 1.84-3.43 3.27-1.4 2.29-2.39 5.45-4.45 6.59-5 2.76-13.47-3.31-13.68-9.16-.05-1.26-1-2.48-1.47-3.72-1.09 1-3.09 2-3.13 3.1q-.36 12.89 0 25.77c0 .77 2.28 1.47 3.5 2.21.58-1 1.56-2 1.65-3 .17-2.17-2.89-8.09 1.55-7.83 17.38 1 20.64 1.23 19.06 6.29-3.72 11.88-3.69 13.65.5 14.66 5.13 1.17 4.31-3.07 6.34-19.06zm-21-26.79c0 8-.73 11.26 2.61 11s4.22-9 4.3-9.47z"/><path d="M769 456.15c3.92.18 6.88-6.57-.53-9.21a104 104 0 01-12.61-5.8 3.35 3.35 0 01-1.26-2.8.28.28 0 010-.18c.62-2 6.9-1.67 16.1-3 6.15-.86 10.27-9.42 4.87-11.51-12.74-4.89-21.91-9.15-28.46-10.58l1.17-5.14c11.9 2.69 23.54 6.22 34.15 12.92 7.67 4.83-.29 17.09-8.18 21.54 7.34 1.76 5.07 4 3.55 27.34l-5.8-.16a10.32 10.32 0 00-.07-2.58c-.44-3.39-.77-4.5-20.63 2-32.78 10.78-33.75 11.53-33.67 14.33s1.15 5.86 1.44 8.84c.46 4.7-.42 3.22 50.61 16.89l1.44-.89a110.3 110.3 0 00-2.91-12.65l5.44-1.7c1.06 3.27 1.85 6.68 2.76 10 .37 1.43-.42 3.17-.16 4.65.82 4.41 3.55 4.52 3.9 5.14 5.67 9.23-5.33 1.5-63.2-13.16-4.87-1.24-5.27-2-5.64-21.94-.09-5.07 1-3.72 39.11-15.85a3.87 3.87 0 002.24-2.16c-1.58-.15-3.1-.31-4.58-.44l.42-5.23c5.35.52 12 .98 20.5 1.33z" fill="#115602"/><path d="M768.18 495.57c-2.58-7.67-5.14-2.42-16.74-4.92-4.43-.94-5.24-4.12-1.69-6.9 9-7.07 21.45-5.46 22.22-14.15l5.8.16c-.09 1.54-.2 3.17-.29 4.91-.22 4.3-1.48 3.84-14.88 9.48 1.65 2.05 7.36 1.37 8.62 3.84a37.93 37.93 0 012.4 5.88zm-.18 88.71c3.07 2 6.55 4.26 10.63 7 2.47 1.65 2.87 3.9 1.3 6.79-9 16.6-7.87 27.07-24.45 8.73-4.21-4.65-3.94-6.19-4.8-6.19l3.06-3.88c1.15 1 2.4 2.31 3.79 3.77 4.65 4.82 8.8 10.56 10.63 5.62 3.24-8.84 5.2-13.63.15-16.29-.86-.47-1.72-.91-2.53-1.33zm-34.5-30.84c-18.72-7-20.83-4-20.94-16-.09-8 3.41-22.93 11.44-22.91 5.51 0 17.81-4 15.21 6.51-2.91 11.86-4.08 9.83-2 12 3.84-13 11.77-15.34 22.69-9 .26-5.91.5-6.31 5.77-5 18.15 4.32 20.57 6 20.62 8.93.35 27-.89 27.11-2.52 33.82-1.52 6.24-4.23 3.26-37.06-4.77-2-.48-4.21-.26-6.19-.81-2.41-.65-4.66-1.89-7.02-2.77zm-14.42-15.79c-.7 5.27 1.68 4.9 22.77 13.12 2.27.88 17.66 4.06 31.2 7.7 6.35 1.69 5.53-1 6.35-27.65.06-2.42-3.2-2.89-12.35-5.84 0 6.61-.53.88 1.74 16.18.44 2.89-1.43 5-3.88 4.1-11.7-4.06-16.8-6.15-16.8-8.75 0-1.24 1.17-2.58 3.31-4.32 1.17-1 1.57-2.8 2.32-4.26-1.57-.2-7.19-2.75-9.06 3.73a20.25 20.25 0 00-.36 4.8c0 2.47-.17 4.85-1.54 5.49-3.59 1.68-18.92-2.91-12.94-14.06 1.17-2.21 2-4.63 3.15-7.45-12.81-1.04-12.19 4.3-13.91 17.21zm28.97-77.55c-34.22-3.09-31.79 0-23.63-25.57.92-2.91 6.12 0 18.18 2.8 2.76-7.39-3.9-5.54-15.16-10-5.23-2.07-4.92-2.14 7.27-20.66a3.1 3.1 0 012.58-1c3.66.73 7.32 1.48 11 2.29l-1.17 5.14c-7.52-1.63-11.62.46-13.78 9.5 19.14 6.33 18.08 4.23 16.91 11.4a86.3 86.3 0 01-.66 3.66c-1.68 7.8-4 8-13.43 4.16-6.48-2.62-6.83-2.47-9.21 4.17-1.35 3.75-1.39 6.42 2.58 6.81s9.52 1.26 19 2.07z" fill="#115602"/><path d="M716.1 579c20.9 9.64 25.47 9.33 11.91 17-10.76 6.06-7.92 9 .15 15.94 4 3.48 6.15 0 12.5-12 4.54-8.62 7.45-8.49 13.12-3.22l-3.06 3.88a9.8 9.8 0 00-2.05.7c-15.79 26.46-14.6 24.54-36.51 2-4.1-4.24 13.07-10.28 12.65-14.51-23.61-7-20.92-2.47-5.73-23.41 4.7-6.48 4.3-5.95 11.18-1.85 17 10.14 16.4 7 37.78 20.74l-2.22 4.23c-39-20.5-39.68-21.56-41.8-19.26-2.65 2.87-4.94 6.05-7.92 9.76z" fill="#115602"/><path d="M652 370.56c-10.37-9.06-14.19-10.63-10.31-15.58 4-5.11 7.22-10.45 11.25-9.67 48.75 9.48 45.52 11.91 23.76 29.56 20.79 3.3 18.61-2.63 15.53 23.28-.23 1.91-.91 3.06-3.34 2.59-51.83-10.05-61.89-9.26-36.89-30.18zm31.39-10.25c-3.6-2.81-26.71-7.86-29-8.31-1.44-.29-8.36 4.69-4 9 5.11 5.05 16.8 4.13 6.88 13.18-15.6 14.23-18.81 10.89 28.32 20.07 3.3-16.24 3.9-10.5-15.18-14.82-10.21-2.3.59-8.02 12.98-19.12zm-45.23-27.02c-20.26 0-21.42 1.06-21.63-2.87-.74-14 1.51-37.49 14.9-33.19 8.53 2.74 27.48 10.89 39.16 14.94 4 1.39 2.62 2.14 2.77 14.05.09 7.91-4.65 6.06-35.15 7.86zm10.17-5.69l.06.91c5.05-.59 10.15-.95 15.13-1.91 3.19-.62 5.08-8.61.59-10.45-41.73-17.08-38.62-18.7-40.68 9-.24 3.32 7.27 2.45 24.9 2.45z"/><path d="M716.18 375c5.71-27.79 1.7-26.5 38.64-8a2.87 2.87 0 011.28 2.12c.5 14.47.35 14.4-4 13.9-34.95-4-34.8 5.69-35.42-7.92zm20.23 1.54c0-1.67 9.87 2.11 12.46-3.6.36-.79-.58-2.92-1.51-3.43-16.35-9-22-12.81-22.62-7.15-1.92 17.37-1.99 14.16 11.67 14.16z" fill="#115602"/><path d="M709.73 339c0 17.39-28.43 11.8-31.33-6.56-.46-2.95-.07-4.36 3.22-15.49 4.19-14.21 28.12 4.49 28.11 22.05zm-22.56-5.23c.83 5.61 3.24 8.07 8.89 9.16 4.68.91 6.73-.54 7-5.25.42-7.55-3.55-15.35-14.72-20.14-2.63 6.46-2.86 4.65-1.17 16.18z"/><path d="M792.2 385.8c.1 10.63-7.7 7.68-19.85 5.69a3 3 0 01-2-1c-2.51-4.7-12-17.88.35-21.13 8.39-2.16 21.41 7.8 21.5 16.44zm-9.2 1.84c7.23-1.31.2-10.43-6.17-11.92-1.42-.33-4.36.44-4.53 1.2-1.51 6.2 2.28 6.52 10.7 10.72z" fill="#115602"/><path d="M711 252.7c.3-5.32 4.93-8.1 9.91-5.93 7.73 3.35 11.05 18.82 5.39 25.07-3.9 4.31-11.37 3.51-13.92-1.84-1.36-2.86-1.67-6.22-2.45-9.36.64-.15.59.08 1.07-7.94zm5.36-.4c-.39.19-.44 2.31.08 2.91 2.85 3.26-2.26 2.92 1.54 12 .28.67 2.95 1.23 3.3.82a30.06 30.06 0 003.07-5.4c.73-1.4-1.54-13.45-8-10.33zm51.37 17.5c-4.46-.21-11-13.2.36-12.91 9.81.24 6.73 13.23-.36 12.91zM650.77 605.15c-4.56 2.16-2.76 3-7.57-1.46 3.88-3.69 1.91-4.26 7.7-.12zm12.94-43.45c-1.76-2.44-3.4-3.75-3.47-5.14-.06-1 2.42-3.3 2.88-3.09a8.12 8.12 0 013.78 3.63c.3.63-1.49 2.24-3.19 4.6z"/><path d="M743.78 488.86c3.45 6 3 4.06-.44 7.49-4.36-4.83-3.58-3-1.09-7.45z" fill="#115602"/><path d="M647.6 645c-4.56 2.16-2.76 3-7.56-1.46 3.87-3.69 1.9-4.26 7.7-.12z"/></svg>