<svg xmlns="http://www.w3.org/2000/svg" viewBox="0 0 700 700"><path fill="#8ee7fc" d="M2.11 2.11H700V700H2.11z"/><path d="M354.34 251.82c8 5.65 16.23 10.82 25.61 16.95 1.41-5 3.1-8.38 3.18-11.78 1.14-46.51 2.31-93 2.78-139.56a14.41 14.41 0 00-15.52-14.62c-19.56 1.28-12.29 22.28-14 75.94-1.85 55.55-6.06 70.25-2.05 73.07zm-48.53 89.84c-133.1-64-94-118.31-101.54-221.92-1.68-23.11-30.56-23.19-30.49.14.32 110.93-8.84 162.57 49.41 216 10.32 9.46 10.17 14.33-.51 24.22-28.64 26.52-45.45 59-47.44 98.23-1 20-1.12 93.26-.81 120 .14 12.55 5.59 19.05 15.33 18.82 9.39-.23 14.44-6.54 14.62-18.51 1.49-94.87-14.38-152.93 55.3-200.08 13.87-9.38 27.85-9.23 41.57.13 66 45.1 54.95 96.82 55 195.18 0 8.46-.29 23.17 15 23.25 8.75.05 15.2-5.12 15.2-19 .07-110.7 14.92-190.53-80.64-236.46z" fill="#fa8aa7"/><path d="M326.88 327.21c-48.29-26.48-86.23-37.27-97.91-93.42H332c-1.42 5.14-2.1 9.43-3.78 13.29C324.37 256 326.94 262 335 267c42.62 26.39 55.25 42.93 62.87 20.38 7.92-23.44 11.54-16.2 10.55-173.16-.12-19.65-18.59-34.82-38-34.29a37 37 0 00-36.41 35.92c-.28 6.5-.05 13-.05 19.86H226.8c0-6.51.24-12.11-.05-17.68C224 66 152.1 67.66 152 120c-.27 126.09-9.2 160.32 49.8 227.72-59.11 66.72-50.52 97.55-49.73 236 .25 43.81 64.26 49.84 73.8 7.91 3.79-16.69-4.48-27 10-26.79 101.48 1.31 97.12-7 98.09 18.91 1.82 49.18 74.67 48 74.89-.78.52-112.06 15.91-202.09-81.97-255.76zm25.79-81.37c6.55-126.15 2.93-56.85 3.95-126.57.33-22.79 29.48-20.51 29.29-1.84-.47 46.53-1.64 93-2.78 139.56-.08 3.4-1.77 6.76-3.18 11.78-27.65-18.06-27.6-16.72-27.28-22.93zm-125.84-43.53c1.48-37.68-3.87-44.08 7.72-44 98.58.72 99.73-3.6 99.48 7.38-.93 40.94 3.44 45-7.69 44.82-97.22-1.28-100.02 4.68-99.51-8.2zm107.06 340.4H227.06c0-19.19-.14-37.87.27-56.54 0-1.59 3.75-4.42 5.78-4.44q47.37-.42 94.73 0c2 0 5.74 3.49 5.79 5.42.44 18.14.26 36.24.26 55.56zm-105.23-83.45c6.4-16 12.92-43.22 44-61.59 3.61-2.14 10.27-3.16 13.48-1.25 22.78 13.6 37.83 33.44 44.19 59.5 1.09 4.47 5.85 3.34-101.67 3.34zM386.47 578c0 13.9-6.45 19.07-15.2 19-13.2-.07-15-10.81-15-23.25-.08-98.42 11-150.1-55-195.18-13.72-9.36-27.7-9.51-41.57-.13-69.85 47.27-53.84 106.91-55.3 200.08-.18 12-5.23 18.28-14.62 18.51-9.74.23-15.19-6.27-15.33-18.82-.31-26.57-.19-100.18.81-120 2-39.26 18.8-71.71 47.44-98.23 10.68-9.89 10.83-14.76.51-24.22-58.32-53.45-49.09-105.16-49.41-216-.07-23.33 28.81-23.25 30.49-.14 7.52 103.52-31.6 157.92 101.54 221.92 95.8 46.18 80.69 126.32 80.64 236.46z" fill="#153f83"/><path d="M498.58 260.47l-33.18 33.18c-11 11-27.55-5.62-16.59-16.59L482 243.88c11-10.97 27.55 5.62 16.58 16.59zM482 429.24l-33.18-33.18c-11-11 5.63-27.55 16.59-16.59l33.18 33.18c10.96 10.97-5.59 27.56-16.59 16.59zm55.19-80.95h-46.93c-15.51 0-15.51-23.46 0-23.46h46.93c15.51 0 15.51 23.46 0 23.46z" fill="#114080"/></svg>