<svg xmlns="http://www.w3.org/2000/svg" viewBox="0 0 1400 780"><path fill="#8ee7fc" d="M0 0h1400v780H0z"/><circle cx="1087.33" cy="236.52" r="32" fill="#ff8aa5"/><circle cx="270.77" cy="184.9" r="32.8" fill="#69cffa"/><path d="M261.82 358c0-31.54-47.69-31.54-47.69 0s47.69 31.55 47.69 0z" fill="#ff8aa5"/><circle cx="1071.78" cy="493.23" r="37.32" fill="#ff8aa5"/><path d="M1185.87 365.41c0-33.43-50.54-33.43-50.54 0s50.54 33.43 50.54 0zm-171.66 5.23c0-16.71-25.27-16.71-25.27 0s25.27 16.72 25.27 0z" fill="#69cffa"/><circle cx="352.11" cy="599.84" r="47.31" fill="#ff8aa5"/><path d="M399.42 434.76c0-31.3-47.31-31.3-47.31 0s47.31 31.3 47.31 0zm453.67-315.57c0-31.3-47.31-31.3-47.31 0s47.31 31.3 47.31 0zm-430.02 85.33c0-31.29-47.31-31.29-47.31 0s47.31 31.3 47.31 0zm535.08 452.21c0-36.69-55.46-36.69-55.46 0s55.46 36.69 55.46 0zm202.45 0c0-29.74-45-29.74-45 0s45 29.74 45 0zm-889.83 0c0-31.29-47.31-31.29-47.31 0s47.31 31.27 47.31 0z" fill="#69cffa"/><path d="M704.93 270.68c9.65 6.86 19.7 13.14 31.09 20.57 1.71-6.09 3.77-10.17 3.87-14.29 1.37-56.49 2.8-113 3.38-169.47a17.52 17.52 0 00-18.86-17.76c-23.75 1.55-14.92 27.05-17 92.22-2.24 67.45-7.35 85.27-2.48 88.73zM646 379.77C484.37 302.08 531.83 236.1 522.68 110.28c-2-28.06-37.11-28.16-37 .17.39 134.71-10.74 197.42 60 262.26 12.53 11.49 12.35 17.39-.62 29.4-34.78 32.21-55.19 71.62-57.6 119.29-1.23 24.27-1.37 113.25-1 145.7.17 15.24 6.79 23.13 18.61 22.85 11.41-.27 17.54-7.93 17.76-22.48 1.81-115.19-17.46-185.7 67.16-243 16.83-11.39 33.82-11.21 50.47.16 80.18 54.76 66.73 117.57 66.83 237 0 10.27-.35 28.13 18.2 28.23 10.63.06 18.46-6.22 18.46-23.09.05-134.28 18.05-231.22-97.95-287z" fill="#fa8aa7"/><path d="M671.58 362.23c-58.64-32.16-104.72-45.23-118.9-113.45h125.16c-1.72 6.24-2.54 11.46-4.59 16.14-4.72 10.83-1.6 18.13 8.22 24.21 51.75 32.05 67.09 52.14 76.34 24.75 9.62-28.47 14-19.68 12.81-210.28C770.47 79.74 748 61.32 724.5 62a45 45 0 00-44.22 43.61c-.34 7.9 0 15.83 0 24.13H550c0-7.91.3-14.71 0-21.48-3.32-63.16-90.66-61.19-90.79 2.39-.34 153.08-11.21 194.65 60.46 276.49-71.78 81-61.35 118.47-60.39 286.62.3 53.2 78 60.52 89.62 9.6 4.61-20.26-5.44-32.76 12.16-32.53 123.23 1.59 117.94-8.49 119.11 23 2.22 59.71 90.68 58.25 91-1 .58-136.1 19.26-245.43-99.59-310.6zm31.32-98.81c8-153.19 3.56-69 4.79-153.71.41-27.68 35.81-24.9 35.58-2.22-.58 56.49-2 113-3.38 169.47-.1 4.12-2.16 8.2-3.87 14.29-33.58-21.92-33.51-20.25-33.12-27.83zm-152.82-52.86c1.8-45.76-4.7-53.53 9.37-53.43 119.72.88 121.12-4.37 120.81 9-1.13 49.71 4.17 54.61-9.34 54.43-118.06-1.56-121.46 5.64-120.84-10zm130 413.36H550.37c0-23.31-.18-46 .31-68.66.05-1.93 4.56-5.37 7-5.39q57.51-.51 115 .06c2.48 0 7 4.24 7 6.59.63 21.96.41 43.94.41 67.4zM552.31 522.58c7.76-19.44 15.68-52.49 53.42-74.79 4.39-2.59 12.47-3.84 16.37-1.51 27.67 16.51 45.94 40.6 53.67 72.25 1.32 5.47 7.1 4.05-123.46 4.05zm191.63 144.25c0 16.87-7.83 23.15-18.46 23.09-16-.08-18.19-13.13-18.2-28.23-.1-119.52 13.32-182.28-66.83-237-16.65-11.37-33.64-11.55-50.47-.16-84.83 57.4-65.39 129.82-67.16 243-.22 14.55-6.35 22.21-17.76 22.48-11.82.28-18.44-7.61-18.61-22.85-.37-32.26-.23-121.65 1-145.7 2.41-47.67 22.82-87.08 57.6-119.29 13-12 13.15-17.91.62-29.4-70.82-64.92-59.61-127.7-60-262.26-.09-28.33 35-28.23 37-.17C531.82 236 484.32 302.06 646 379.77 762.35 435.7 744 533 743.94 666.83z" fill="#153f83"/><path d="M880.09 281.18l-40.3 40.29c-13.31 13.32-33.46-6.82-20.14-20.14L859.94 261c13.32-13.28 33.46 6.86 20.15 20.18zm-20.15 204.95l-40.29-40.29c-13.32-13.32 6.83-33.47 20.14-20.15l40.3 40.31c13.31 13.3-6.83 33.45-20.15 20.13zm67.06-98.3h-57c-18.83 0-18.83-28.49 0-28.49h57c18.8 0 18.8 28.49 0 28.49z" fill="#114080"/></svg>