<svg xmlns="http://www.w3.org/2000/svg" viewBox="0 0 700 700"><path fill="#d7d6cc" d="M0 0h700v700H0z"/><path d="M323.79 610.92c-219-21.38-306.08-281.16-173.16-432.58C312.45-6 612.27 109.66 612.27 349.6a262.5 262.5 0 01-119 219.9c-25.2 16.49-70.32 35.94-83 38.94" fill="none" stroke="#4d4d4f" stroke-miterlimit="10" stroke-width="1.66"/><path d="M410.24 605.17c3.4 1.29 6.64 4.87 3.94 7-3 2.38-26.6.56-31.36 0-18.56-2.17-4.15.45 27.42-7z" fill="#7b7c7f"/><path d="M321.82 252.94c-18.74 4.62-25.79 2.88-55 3.2-15.17-6.29-40.22-21.48-55.36-27.83-19.24-8.05-40.68-13.17-55.5-27.85-5.79-5.73-10.78-15.71-5.78-21.6 21.92-3.64 27.8 18.12 80.95 37.4 33.95 12.32 86.28 23.79 90.69 36.68zm231.45-65.25c2.75 20.09-26.38 28.53-40.3 33.67-24 8.87-81.88 33.64-82.45 33.54-12.1-2.07-16.67-4.24-28.94-4.65-6.28-.21-23.1.56-29.24-.66 1.3-3.11 18.52-11.28 22.23-11 34.13 2.36 65-18.65 97.94-27.83 9.58-2.66 19.69-4.46 27.93-10 6.99-4.76 29.82-35.08 32.83-13.07z"/><path d="M553.47 263.19c-38.7 6.26-78 12.53-116.93 7.77-13.73-1.68-29.63-7.2-39.1 3-2 2.19-2.22 1.86-9.83 38.69.5-11-.21.86 0 0-2.57 52.07 8.14 88.61-6.82 144.87-8.4 31.73-10.09 36.22-11 71.83-1.08 41.25-2.8 52.49 4.46 61.89 8.81 11.44 27.91 10.76 36 13.92-27.95 6.66-40.13 8.2-55.72-.5-4.1-4.14-14.84-69.45-15.17-74.35-1.63-25 7.76-47.44 10.07-116.49-12.6 80.37-19.16 110.52-13.54 143.09 1.89 10.94 9.86 39 13.64 43.75 5.56 7 12.39 6 17.38 11-16 1-42.1.56-44.9-1.78-4.1-3.44-1.74-10-.8-15.26 2.13-11.94-4.88-23.29-9.65-34.41-18.29-42.77.68-71.94.89-90.74.29-23.12-9.56-18.28-2.14-86.37 2.44-22.11 9.52-92.45-8.79-105.07-6.25-4.3-10.58-3.88-54.67-7.38-109.4-8.66-101.37-4.93-109.45-10.74-2.78-7.9 1.19-23.22 12.13-22.1 3.22.33 6.08 2.11 9 3.51 14.52 7 25.85 5.55 97.45 4.74 37.68-.41 72.12 4.11 79.6-19 6.33 5.75 20.68 2.07 23.82.28 3.17 16 26.2 13.83 34.51 14.11 12.27.41 24.24 3.71 36.33 5.8 71.57 12.36 104.51-14.67 129.88-.62 8.88 4.86 8.34 14.13-6.65 16.56z" fill="#7b7c7f"/><path d="M494.3 567.5c-2.51 5.59-34.35 20.59-40.86 23.39-5 1.54-6.55-.23-7.9-3.67-15.83-40.37-35.5-57.61-40.3-68.14-7.29-16.06.34-33.69-24.45-60.19 5.31-19.77 8.27-35.41 8.1-65.86 25.4 13.37 26 48.54 28.69 68.58 3.06 22.77 8.32 25.23 17.83 38 22.89 30.67 10.91 52.71 23.22 62.16 9.79 7.52 25.85-1.77 35.67 5.73zM309 455.6c-8.86 7.25-15.17 24.4-17.23 35.71-3.55 19.4-1.3 19.48-14.07 35.86-46.85 60-17.27 66.26-53.78 53A260.22 260.22 0 01199.41 565a19.47 19.47 0 01-1.57-2.84c9.8-7.49 25.86 1.77 35.65-5.73 6.31-4.85 6.57-14 7.43-21.94 3.44-32 21.48-44.83 27.69-56.49 8.45-15.94 5.49-40.74 13-62.64 7.93-23.2 25.33-30.68 28.72-30.13-7.68 69.46 3.72 66.27-1.33 70.37z"/><path fill="none" stroke="#4d4d4f" stroke-miterlimit="10" stroke-width="1.66" d="M349.69 612.19H133.98V178.34h433.75v433.85H341.2"/><path d="M358.11 206c0-1.26-2.61-1.26-2.61 0s2.61 1.25 2.61 0zm-13.06 7.19a4.54 4.54 0 004.05 0c-2.74-10.61-1.36-10.63-4.05-.02zm8.23 5.94h-12.67c2.82 3.99 9.24 6 12.67-.02zM336.05 206c0 1.27 2.61 1.27 2.61 0s-2.61-1.28-2.61 0zm-11.89-7.18c8.42-7.35 19.23 2.66 36.24-9.77 9.48 14.93 12.48 4.79 6.46 28.6-1.57 6.17-12.92 14.94-19.8 15.09-9.06.17-23.9-12.4-22.9-33.94z" fill="#f69167"/><path d="M340.61 219.11h12.67c-3.47 6.09-9.94 3.89-12.67 0z" fill="#fefbd8"/><path d="M356.8 205c1.73 0 1.73 1.91 0 1.91s-1.72-1.91 0-1.91zm-19.45 1.94c-1.72 0-1.73-1.91 0-1.91s1.73 1.91 0 1.91z" fill="#713014"/><path d="M345.05 213.17c2.69-10.6 1.32-10.59 4.05 0a4.54 4.54 0 01-4.05 0z" fill="#f27353"/><path d="M368.67 210.41a44.45 44.45 0 001-5.76c3.12.35 4.33 4.15-1 5.76zm-44.36-5.76c.43 5.8 1.42 6-.39 5.46-1.49-.44-3.87-4.01.39-5.46z" fill="#f37052"/><path d="M370 199.8c-4.08-3-6.65-6.13-9.59-10.77-16.39 12-28.18 2.73-36.24 9.77 0 0-1-7.18 1-11.21s10-9.34 16.05-9.48c21.19-.51 29.85.5 28.78 21.69z" fill="#662308"/><path d="M358.11 260.19c0-1.26-2.61-1.26-2.61 0s2.61 1.27 2.61 0zm-13.06 7.19a4.54 4.54 0 004.05 0c-2.74-10.59-1.36-10.6-4.05 0zm8.23 5.94h-12.67c2.82 4.01 9.24 6.02 12.67 0zm-17.23-13.13c0 1.27 2.61 1.27 2.61 0s-2.61-1.26-2.61 0zM324.16 253c8.42-7.35 19.23 2.67 36.24-9.77 9.48 14.93 12.48 4.79 6.46 28.6-1.57 6.18-12.92 14.94-19.8 15.09-9.06.2-23.9-12.37-22.9-33.92z" fill="#f69167"/><path d="M340.61 273.32h12.67c-3.47 6.09-9.94 3.89-12.67 0z" fill="#fefbd8"/><path d="M356.8 259.24c1.73 0 1.73 1.91 0 1.91s-1.72-1.91 0-1.91zm-19.45 1.91c-1.72 0-1.73-1.91 0-1.91s1.73 1.91 0 1.91z" fill="#713014"/><path d="M345.05 267.38c2.69-10.6 1.32-10.59 4.05 0a4.54 4.54 0 01-4.05 0z" fill="#f27353"/><path d="M368.67 264.62a44.45 44.45 0 001-5.76c3.12.3 4.33 4.14-1 5.76zm-44.36-5.76c.43 5.8 1.42 6-.39 5.46-1.49-.44-3.87-4.01.39-5.46z" fill="#f37052"/><path d="M370 254c-4.08-3-6.65-6.13-9.59-10.77-16.39 12-28.18 2.73-36.24 9.77 0 0-1-7.18 1-11.21s10-9.34 16.05-9.48c21.19-.5 29.85.51 28.78 21.69z" fill="#662308"/><path d="M358.11 314.4c0-1.26-2.61-1.26-2.61 0s2.61 1.27 2.61 0zm-13.06 7.19a4.54 4.54 0 004.05 0c-2.74-10.59-1.36-10.59-4.05 0zm8.23 5.94h-12.67c2.82 4.01 9.24 6.02 12.67 0zm-17.23-13.13c0 1.27 2.61 1.27 2.61 0s-2.61-1.26-2.61 0zm-11.89-7.18c8.42-7.35 19.23 2.67 36.24-9.77 9.48 14.93 12.48 4.79 6.46 28.6-1.57 6.18-12.92 14.94-19.8 15.09-9.06.19-23.9-12.38-22.9-33.92z" fill="#f69167"/><path d="M340.61 327.53h12.67c-3.47 6.09-9.94 3.89-12.67 0z" fill="#fefbd8"/><path d="M356.8 313.45c1.73 0 1.73 1.91 0 1.91s-1.72-1.91 0-1.91zm-19.45 1.91c-1.72 0-1.73-1.91 0-1.91s1.73 1.91 0 1.91z" fill="#713014"/><path d="M345.05 321.59c2.69-10.6 1.32-10.59 4.05 0a4.54 4.54 0 01-4.05 0z" fill="#f27353"/><path d="M368.67 318.83a44.45 44.45 0 001-5.76c3.12.3 4.33 4.15-1 5.76zm-44.36-5.76c.43 5.8 1.42 6-.39 5.46-1.49-.44-3.87-4.01.39-5.46z" fill="#f37052"/><path d="M370 308.22c-4.08-3-6.65-6.13-9.59-10.77-16.39 12-28.18 2.73-36.24 9.77 0 0-1-7.18 1-11.21s10-9.34 16.05-9.48c21.19-.53 29.85.47 28.78 21.69z" fill="#662308"/><path d="M358.11 368.61c0-1.26-2.61-1.26-2.61 0s2.61 1.27 2.61 0zm-13.06 7.19a4.54 4.54 0 004.05 0c-2.74-10.59-1.36-10.6-4.05 0zm8.23 5.94h-12.67c2.82 4.02 9.24 6.02 12.67 0zm-17.23-13.13c0 1.27 2.61 1.27 2.61 0s-2.61-1.26-2.61 0zm-11.89-7.18c8.42-7.35 19.23 2.67 36.24-9.77 9.48 14.93 12.48 4.79 6.46 28.6-1.57 6.18-12.92 14.94-19.8 15.09-9.06.19-23.9-12.35-22.9-33.92z" fill="#f69167"/><path d="M340.61 381.74h12.67c-3.47 6.09-9.94 3.89-12.67 0z" fill="#fefbd8"/><path d="M356.8 367.66c1.73 0 1.73 1.91 0 1.91s-1.72-1.91 0-1.91zm-19.45 1.91c-1.72 0-1.73-1.91 0-1.91s1.73 1.91 0 1.91z" fill="#713014"/><path d="M345.05 375.8c2.69-10.6 1.32-10.59 4.05 0a4.54 4.54 0 01-4.05 0z" fill="#f27353"/><path d="M368.67 373a44.45 44.45 0 001-5.76c3.12.34 4.33 4.19-1 5.76zm-44.36-5.72c.43 5.8 1.42 6-.39 5.46-1.49-.44-3.87-4.01.39-5.46z" fill="#f37052"/><path d="M370 362.43c-4.08-3-6.65-6.13-9.59-10.77-16.39 12-28.18 2.73-36.24 9.77 0 0-1-7.18 1-11.21s10-9.34 16.05-9.48c21.19-.51 29.85.51 28.78 21.69z" fill="#662308"/><path d="M358.11 422.82c0-1.26-2.61-1.26-2.61 0s2.61 1.27 2.61 0zM345.05 430a4.54 4.54 0 004.05 0c-2.74-10.58-1.36-10.59-4.05 0zm8.23 5.94h-12.67c2.82 4.06 9.24 6.06 12.67.06zm-17.23-13.13c0 1.27 2.61 1.27 2.61 0s-2.61-1.25-2.61.01zm-11.89-7.18c8.42-7.35 19.23 2.67 36.24-9.77 9.48 14.93 12.48 4.79 6.46 28.6-1.57 6.18-12.92 14.94-19.8 15.09-9.06.2-23.9-12.37-22.9-33.91z" fill="#f69167"/><path d="M340.61 436h12.67c-3.47 6-9.94 3.84-12.67 0z" fill="#fefbd8"/><path d="M356.8 421.87c1.73 0 1.73 1.91 0 1.91s-1.72-1.91 0-1.91zm-19.45 1.91c-1.72 0-1.73-1.91 0-1.91s1.73 1.91 0 1.91z" fill="#713014"/><path d="M345.05 430c2.69-10.6 1.32-10.59 4.05 0a4.54 4.54 0 01-4.05 0z" fill="#f27353"/><path d="M368.67 427.25a44.45 44.45 0 001-5.76c3.12.3 4.33 4.15-1 5.76zm-44.36-5.76c.43 5.8 1.42 6-.39 5.46-1.49-.44-3.87-4.01.39-5.46z" fill="#f37052"/><path d="M370 416.65c-4.08-3-6.65-6.14-9.59-10.78-16.39 12-28.18 2.73-36.24 9.77 0 0-1-7.18 1-11.21s10-9.34 16.05-9.48c21.19-.51 29.85.51 28.78 21.7z" fill="#662308"/><path d="M358.11 477c0-1.26-2.61-1.26-2.61 0s2.61 1.3 2.61 0zm-13.06 7.2a4.58 4.58 0 004.05 0c-2.74-10.57-1.36-10.58-4.05.03zm8.23 5.93h-12.67c2.82 4.05 9.24 6.05 12.67.03zM336.05 477c0 1.27 2.61 1.27 2.61 0s-2.61-1.22-2.61 0zm-11.89-7.18c8.42-7.35 19.23 2.67 36.24-9.77 9.48 14.93 12.48 4.79 6.46 28.6-1.57 6.18-12.92 14.94-19.8 15.09-9.06.26-23.9-12.35-22.9-33.89z" fill="#f69167"/><path d="M340.61 490.16h12.67c-3.47 6.09-9.94 3.89-12.67 0z" fill="#fefbd8"/><path d="M356.8 476.08c1.73 0 1.73 1.91 0 1.91s-1.72-1.91 0-1.91zM337.35 478c-1.72 0-1.73-1.91 0-1.91s1.73 1.91 0 1.91z" fill="#713014"/><path d="M345.05 484.23c2.69-10.61 1.32-10.6 4.05 0a4.58 4.58 0 01-4.05 0z" fill="#f27353"/><path d="M368.67 481.46a44.45 44.45 0 001-5.76c3.12.3 4.33 4.15-1 5.76zm-44.36-5.76c.43 5.8 1.42 6-.39 5.46-1.49-.44-3.87-4.01.39-5.46z" fill="#f37052"/><path d="M370 470.86c-4.08-3-6.65-6.14-9.59-10.78-16.39 12-28.18 2.73-36.24 9.77 0 0-1-7.18 1-11.21s10-9.34 16.05-9.48c21.19-.51 29.85.51 28.78 21.7z" fill="#662308"/><path d="M358.11 531.24c0-1.25-2.61-1.25-2.61 0s2.61 1.27 2.61 0zm-13.06 7.2a4.58 4.58 0 004.05 0c-2.74-10.6-1.36-10.61-4.05 0zm8.23 5.93h-12.67c2.82 4.02 9.24 6.02 12.67 0zm-17.23-13.13c0 1.27 2.61 1.27 2.61 0s-2.61-1.24-2.61 0zm-11.89-7.18c8.42-7.35 19.23 2.67 36.24-9.77 9.48 14.93 12.48 4.79 6.46 28.6-1.57 6.18-12.92 14.94-19.8 15.09-9.06.19-23.9-12.38-22.9-33.92z" fill="#f69167"/><path d="M340.61 544.37h12.67c-3.47 6.09-9.94 3.89-12.67 0z" fill="#fefbd8"/><path d="M356.8 530.29c1.73 0 1.73 1.91 0 1.91s-1.72-1.91 0-1.91zm-19.45 1.91c-1.72 0-1.73-1.91 0-1.91s1.73 1.91 0 1.91z" fill="#713014"/><path d="M345.05 538.44c2.69-10.61 1.32-10.6 4.05 0a4.58 4.58 0 01-4.05 0z" fill="#f27353"/><path d="M368.67 535.67a44.45 44.45 0 001-5.76c3.12.3 4.33 4.15-1 5.76zm-44.36-5.76c.43 5.8 1.42 6-.39 5.46-1.49-.44-3.87-4.01.39-5.46z" fill="#f37052"/><path d="M370 525.07c-4.08-3-6.65-6.14-9.59-10.78-16.39 12-28.18 2.73-36.24 9.77 0 0-1-7.18 1-11.21s10-9.34 16.05-9.48c21.19-.51 29.85.51 28.78 21.7z" fill="#662308"/><path d="M358.11 585.46c0-1.26-2.61-1.26-2.61 0s2.61 1.26 2.61 0zm-13.06 7.19a4.58 4.58 0 004.05 0c-2.74-10.6-1.36-10.65-4.05 0zm8.23 5.93h-12.67c2.82 4.02 9.24 6.02 12.67 0zm-17.23-13.12c0 1.26 2.61 1.26 2.61 0s-2.61-1.26-2.61 0zm-11.89-7.19c8.42-7.35 19.23 2.67 36.24-9.77 9.48 14.93 12.48 4.79 6.46 28.6-1.57 6.18-12.92 14.94-19.8 15.09-9.06.19-23.9-12.38-22.9-33.92z" fill="#f69167"/><path d="M340.61 598.58h12.67c-3.47 6.09-9.94 3.89-12.67 0z" fill="#fefbd8"/><path d="M356.8 584.5c1.73 0 1.73 1.91 0 1.91s-1.72-1.91 0-1.91zm-19.45 1.91c-1.72 0-1.73-1.91 0-1.91s1.73 1.91 0 1.91z" fill="#713014"/><path d="M345.05 592.65c2.69-10.61 1.32-10.6 4.05 0a4.58 4.58 0 01-4.05 0z" fill="#f27353"/><path d="M368.67 589.88a44.45 44.45 0 001-5.76c3.12.3 4.33 4.15-1 5.76zm-44.36-5.76c.43 5.8 1.42 6-.39 5.46-1.49-.44-3.87-4.01.39-5.46z" fill="#f37052"/><path d="M370 579.28c-4.08-3-6.65-6.14-9.59-10.78-16.39 12-28.18 2.73-36.24 9.77 0 0-1-7.18 1-11.21s10-9.34 16.05-9.48c21.19-.51 29.85.51 28.78 21.7z" fill="#662308"/></svg>