<svg xmlns="http://www.w3.org/2000/svg" viewBox="0 0 1400 780"><path fill="#d7d6cc" d="M0 0h1400v780H0z"/><path d="M668.87 704.07C405.7 678.38 301 366.15 460.75 184.16 655.24-37.39 1015.6 101.61 1015.6 390a315.5 315.5 0 01-143.05 264.3c-30.28 19.82-84.51 43.2-99.78 46.8" fill="none" stroke="#4d4d4f" stroke-miterlimit="10" stroke-width="2"/><path d="M772.77 697.17c4.09 1.55 8 5.85 4.74 8.43-3.61 2.87-32 .67-37.69 0-22.31-2.6-4.99.52 32.95-8.43z" fill="#7b7c7f"/><path d="M666.5 273.82c-22.52 5.55-31 3.46-66.08 3.85-18.24-7.56-48.35-25.82-66.55-33.45-23.12-9.68-48.89-15.83-66.71-33.47-7-6.89-13-18.89-6.94-26 26.34-4.38 33.41 21.77 97.3 44.94 40.79 14.85 103.68 28.64 108.98 44.13zm278.18-78.42c3.31 24.14-31.7 34.28-48.43 40.47-28.85 10.66-98.42 40.42-99.1 40.3-14.54-2.48-20-5.1-34.79-5.58-7.54-.26-27.76.67-35.14-.79 1.56-3.75 22.26-13.56 26.72-13.25 41 2.84 78.11-22.41 117.71-33.45 11.51-3.2 23.67-5.36 33.57-12 8.4-5.71 35.84-42.16 39.46-15.7z"/><path d="M944.92 286.13c-46.51 7.53-93.77 15.07-140.54 9.35-16.5-2-35.61-8.66-47 3.55-2.44 2.63-2.67 2.23-11.81 46.49.29-6.45.49-8.55-.08.39 0-.13 0-.26.08-.39-3.09 62.59 9.78 106.5-8.2 174.12-10.1 38.14-12.12 43.54-13.23 86.33-1.3 49.59-3.37 63.09 5.36 74.39 10.59 13.76 33.54 12.93 43.26 16.73-33.59 8-48.22 9.86-67-.6-2.34-2.37-3.16-6.39-3.75-9.46-12.23-62.69-13.76-69.17-14.47-79.9-2-30.09 9.31-57 12.09-140-15.14 96.58-23 132.82-16.27 172 2.27 13.15 11.86 46.9 16.4 52.58 6.68 8.38 14.89 7.23 20.89 13.25-19.21 1.26-50.61.68-54-2.14-4.94-4.14-2.09-12-1-18.34 2.56-14.35-5.87-28-11.6-41.36-22-51.41.81-86.46 1.07-109.06.35-27.79-11.49-22-2.57-103.8 2.93-26.58 11.44-111.12-10.57-126.29-7.51-5.17-12.72-4.66-65.71-8.86-131.49-10.43-121.83-5.93-131.54-12.92-3.35-9.49 1.43-27.91 14.58-26.56 3.87.4 7.31 2.53 10.82 4.21 17.46 8.41 31.07 6.68 117.13 5.71 45.29-.5 86.68 4.94 95.68-22.86 7.6 6.9 24.85 2.48 28.62.33 3.81 19.2 31.49 16.62 41.48 17 14.74.49 29.13 4.46 43.67 7 86 14.86 125.61-17.63 156.09-.75 10.8 5.81 10.14 16.94-7.88 19.86z" fill="#7b7c7f"/><path d="M873.8 651.89c-3 6.72-41.28 24.75-49.1 28.11-6 1.86-7.88-.28-9.5-4.41-19-48.52-42.67-69.24-48.43-81.89-6.65-14.63-2.43-27.91-14.23-52.29-7.42-15.32-11.49-16.14-15.16-20.06 6.38-23.76 9.94-42.56 9.74-79.15 30.52 16.06 31.25 58.34 34.47 82.42 3.68 27.37 10 30.32 21.43 45.67 27.52 36.87 13.12 63.35 27.92 74.72 11.77 8.99 31.06-2.1 42.86 6.88zM651.13 517.4c-10.65 8.7-18.23 29.32-20.71 42.92-4.26 23.32-1.56 23.41-16.91 43.1-56.3 72.16-20.76 79.63-64.64 63.71a316.1 316.1 0 01-29.5-18.3 23.5 23.5 0 01-1.88-3.42c11.78-9 31.08 2.13 42.85-6.88 7.59-5.83 7.89-16.85 8.92-26.37 4.15-38.44 25.83-53.88 33.29-67.91 10.15-19.14 6.6-48.95 15.58-75.27 9.53-27.89 30.45-36.89 34.53-36.23-9.2 83.55 4.5 79.72-1.53 84.65z"/><path fill="none" stroke="#4d4d4f" stroke-miterlimit="10" stroke-width="2" d="M700 705.6H440.73V184.16h521.33V705.6H689.8"/><path d="M710.12 217.38c0-1.51-3.13-1.51-3.13 0s3.13 1.52 3.13 0zm-15.7 8.62a5.42 5.42 0 004.87 0c-3.29-12.71-1.64-12.73-4.87 0zm9.9 7.14h-15.23c3.38 4.86 11.1 7.26 15.23.02zm-20.72-15.76c0 1.53 3.14 1.53 3.14 0s-3.14-1.51-3.14 0zm-14.28-8.63c5.66-4.95 17.66-3.33 27.52-4.15 6.35-.52 16-7.6 16-7.6 11.39 17.95 15 5.77 7.76 34.38-1.88 7.42-15.53 18-23.79 18.13-10.92.23-28.7-14.88-27.49-40.76z" fill="#f69167"/><path d="M689.09 233.16h15.23c-4.18 7.32-11.95 4.68-15.23 0z" fill="#fefbd8"/><path d="M708.54 216.24c2.09 0 2.08 2.29 0 2.29s-2.07-2.29 0-2.29zm-23.37 2.29c-2.07 0-2.08-2.29 0-2.29s2.07 2.29 0 2.29z" fill="#713014"/><path d="M694.42 226c3.23-12.74 1.58-12.73 4.87 0a5.42 5.42 0 01-4.87 0z" fill="#f27353"/><path d="M722.81 222.7a52.89 52.89 0 001.24-6.92c3.71.36 5.16 4.99-1.24 6.92zm-53.32-6.92c.52 7 1.71 7.19-.46 6.56-1.8-.53-4.65-4.82.46-6.56z" fill="#f37052"/><path d="M724.4 210c-4.9-3.6-8-7.38-11.53-13-19.69 14.4-33.87 3.29-43.55 11.75 0 0-1.17-8.64 1.18-13.47s12-11.23 19.3-11.4 19.07-.7 24.48 2.07C725 191.43 725.1 196.17 724.4 210z" fill="#662308"/><path d="M710.12 282.54c0-1.52-3.13-1.52-3.13 0s3.13 1.52 3.13 0zm-15.7 8.64a5.49 5.49 0 004.87 0c-3.29-12.73-1.64-12.75-4.87 0zm9.9 7.13h-15.23c3.38 4.83 11.1 7.24 15.23 0zm-20.72-15.77c0 1.52 3.14 1.52 3.14 0s-3.14-1.54-3.14 0zm-14.28-8.64c5.66-4.94 17.66-3.33 27.52-4.14 6.35-.52 16-7.6 16-7.6 11.39 17.95 15 5.76 7.76 34.37-1.88 7.43-15.53 18-23.79 18.14-10.92.23-28.7-14.88-27.49-40.77z" fill="#f69167"/><path d="M689.09 298.31h15.23c-4.18 7.33-11.95 4.69-15.23 0z" fill="#fefbd8"/><path d="M708.54 281.39c2.09 0 2.08 2.3 0 2.3s-2.07-2.3 0-2.3zm-23.37 2.3c-2.07 0-2.08-2.3 0-2.3s2.07 2.3 0 2.3z" fill="#713014"/><path d="M694.42 291.18c3.23-12.75 1.58-12.73 4.87 0a5.49 5.49 0 01-4.87 0z" fill="#f27353"/><path d="M722.81 287.86a53.48 53.48 0 001.24-6.92c3.71.36 5.16 4.98-1.24 6.92zm-53.32-6.92c.52 7 1.71 7.18-.46 6.55-1.8-.49-4.65-4.81.46-6.55z" fill="#f37052"/><path d="M724.4 275.11c-4.9-3.6-8-7.38-11.53-12.95-19.69 14.4-33.87 3.28-43.55 11.74 0 0-1.17-8.63 1.18-13.47s12-11.22 19.3-11.4 19.07-.69 24.48 2.08c10.72 5.47 10.82 10.22 10.12 24z" fill="#662308"/><path d="M710.12 347.69c0-1.51-3.13-1.51-3.13 0s3.13 1.52 3.13 0zm-15.7 8.65a5.49 5.49 0 004.87 0c-3.29-12.74-1.64-12.76-4.87 0zm9.9 7.13h-15.23c3.38 4.82 11.1 7.24 15.23 0zm-20.72-15.78c0 1.53 3.14 1.53 3.14 0s-3.14-1.51-3.14 0zm-14.28-8.63c5.66-4.95 17.66-3.33 27.52-4.15 6.35-.52 16-7.6 16-7.6 11.39 17.95 15 5.77 7.76 34.38-1.88 7.42-15.53 18-23.79 18.13-10.92.23-28.7-14.88-27.49-40.76z" fill="#f69167"/><path d="M689.09 363.47h15.23c-4.18 7.32-11.95 4.68-15.23 0z" fill="#fefbd8"/><path d="M708.54 346.55c2.09 0 2.08 2.3 0 2.3s-2.07-2.3 0-2.3zm-23.37 2.3c-2.07 0-2.08-2.3 0-2.3s2.07 2.3 0 2.3z" fill="#713014"/><path d="M694.42 356.34c3.23-12.75 1.58-12.74 4.87 0a5.49 5.49 0 01-4.87 0z" fill="#f27353"/><path d="M722.81 353a52.89 52.89 0 001.24-6.92c3.71.37 5.16 5-1.24 6.92zm-53.32-6.91c.52 7 1.71 7.19-.46 6.56-1.8-.52-4.65-4.82.46-6.56z" fill="#f37052"/><path d="M724.4 340.27c-4.9-3.6-8-7.38-11.53-13-19.69 14.41-33.87 3.29-43.55 11.75 0 0-1.17-8.64 1.18-13.47s12-11.23 19.3-11.4 19.07-.7 24.48 2.08c10.72 5.51 10.82 10.25 10.12 24.04z" fill="#662308"/><path d="M710.12 412.85c0-1.52-3.13-1.52-3.13 0s3.13 1.52 3.13 0zm-15.7 8.64a5.49 5.49 0 004.87 0c-3.29-12.73-1.64-12.75-4.87 0zm9.9 7.14h-15.23c3.38 4.82 11.1 7.23 15.23 0zm-20.72-15.78c0 1.52 3.14 1.52 3.14 0s-3.14-1.52-3.14 0zm-14.28-8.64c5.66-4.94 17.66-3.33 27.52-4.14 6.35-.52 16-7.6 16-7.6 11.39 17.95 15 5.76 7.76 34.37-1.88 7.43-15.53 18-23.79 18.14-10.92.23-28.7-14.88-27.49-40.77z" fill="#f69167"/><path d="M689.09 428.63h15.23c-4.18 7.37-11.95 4.67-15.23 0z" fill="#fefbd8"/><path d="M708.54 411.7c2.09 0 2.08 2.3 0 2.3s-2.07-2.3 0-2.3zm-23.37 2.3c-2.07 0-2.08-2.3 0-2.3s2.07 2.3 0 2.3z" fill="#713014"/><path d="M694.42 421.49c3.23-12.75 1.58-12.73 4.87 0a5.49 5.49 0 01-4.87 0z" fill="#f27353"/><path d="M722.81 418.17a53.18 53.18 0 001.24-6.92c3.71.36 5.16 4.98-1.24 6.92zm-53.32-6.92c.52 7 1.71 7.18-.46 6.55-1.8-.52-4.65-4.8.46-6.55z" fill="#f37052"/><path d="M724.4 405.42c-4.9-3.6-8-7.38-11.53-12.95-19.69 14.4-33.87 3.29-43.55 11.74 0 0-1.17-8.63 1.18-13.47s12-11.22 19.3-11.4 19.07-.69 24.48 2.08c10.72 5.48 10.82 10.22 10.12 24z" fill="#662308"/><path d="M710.12 478c0-1.51-3.13-1.51-3.13 0s3.13 1.53 3.13 0zm-15.7 8.65a5.49 5.49 0 004.87 0c-3.29-12.74-1.64-12.76-4.87 0zm9.9 7.13h-15.23c3.38 4.83 11.1 7.22 15.23 0zM683.6 478c0 1.53 3.14 1.53 3.14 0s-3.14-1.51-3.14 0zm-14.28-8.63c5.66-4.95 17.66-3.33 27.52-4.14 6.35-.53 16-7.6 16-7.6 11.39 17.95 15 5.76 7.76 34.37-1.88 7.42-15.53 18-23.79 18.13-10.92.23-28.7-14.88-27.49-40.76z" fill="#f69167"/><path d="M689.09 493.78h15.23c-4.18 7.32-11.95 4.68-15.23 0z" fill="#fefbd8"/><path d="M708.54 476.86c2.09 0 2.08 2.3 0 2.3s-2.07-2.3 0-2.3zm-23.37 2.3c-2.07 0-2.08-2.3 0-2.3s2.07 2.3 0 2.3z" fill="#713014"/><path d="M694.42 486.65c3.23-12.75 1.58-12.74 4.87 0a5.49 5.49 0 01-4.87 0z" fill="#f27353"/><path d="M722.81 483.32a52.89 52.89 0 001.24-6.92c3.71.36 5.16 4.99-1.24 6.92zm-53.32-6.92c.52 7 1.71 7.19-.46 6.56-1.8-.52-4.65-4.82.46-6.56z" fill="#f37052"/><path d="M724.4 470.58c-4.9-3.6-8-7.38-11.53-12.95-19.69 14.4-33.87 3.28-43.55 11.74 0 0-1.17-8.64 1.18-13.47s12-11.23 19.3-11.4 19.07-.69 24.48 2.08c10.72 5.47 10.82 10.21 10.12 24z" fill="#662308"/><path d="M710.12 543.16c0-1.52-3.13-1.52-3.13 0s3.13 1.52 3.13 0zm-15.7 8.64a5.49 5.49 0 004.87 0c-3.29-12.73-1.64-12.75-4.87 0zm9.9 7.14h-15.23c3.38 4.82 11.1 7.23 15.23 0zm-20.72-15.78c0 1.52 3.14 1.52 3.14 0s-3.14-1.52-3.14 0zm-14.28-8.64c5.66-4.94 17.66-3.33 27.52-4.14 6.35-.52 16-7.6 16-7.6 11.39 18 15 5.76 7.76 34.37-1.88 7.43-15.53 18-23.79 18.14-10.92.23-28.7-14.88-27.49-40.77z" fill="#f69167"/><path d="M689.09 558.94h15.23c-4.18 7.32-11.95 4.67-15.23 0z" fill="#fefbd8"/><path d="M708.54 542c2.09 0 2.08 2.3 0 2.3s-2.07-2.3 0-2.3zm-23.37 2.31c-2.07 0-2.08-2.3 0-2.3s2.07 2.3 0 2.3z" fill="#713014"/><path d="M694.42 551.8c3.23-12.75 1.58-12.73 4.87 0a5.49 5.49 0 01-4.87 0z" fill="#f27353"/><path d="M722.81 548.48a52.89 52.89 0 001.24-6.92c3.71.36 5.16 4.98-1.24 6.92zm-53.32-6.92c.52 7 1.71 7.18-.46 6.56-1.8-.53-4.65-4.82.46-6.56z" fill="#f37052"/><path d="M724.4 535.73c-4.9-3.59-8-7.38-11.53-13-19.69 14.4-33.87 3.29-43.55 11.74 0 0-1.17-8.63 1.18-13.47s12-11.22 19.3-11.39 19.07-.7 24.48 2.07C725 517.21 725.1 522 724.4 535.73z" fill="#662308"/><path d="M710.12 608.31c0-1.51-3.13-1.51-3.13 0s3.13 1.53 3.13 0zm-15.7 8.69a5.49 5.49 0 004.87 0c-3.29-12.78-1.64-12.79-4.87 0zm9.9 7.13h-15.23c3.38 4.79 11.1 7.2 15.23-.04zm-20.72-15.82c0 1.53 3.14 1.53 3.14 0s-3.14-1.51-3.14 0zm-14.28-8.63c5.66-4.95 17.66-3.33 27.52-4.14 6.35-.52 16-7.6 16-7.6 11.39 17.95 15 5.76 7.76 34.37-1.88 7.42-15.53 18-23.79 18.13-10.92.23-28.7-14.87-27.49-40.76z" fill="#f69167"/><path d="M689.09 624.09h15.23c-4.18 7.32-11.95 4.68-15.23 0z" fill="#fefbd8"/><path d="M708.54 607.17c2.09 0 2.08 2.3 0 2.3s-2.07-2.3 0-2.3zm-23.37 2.3c-2.07 0-2.08-2.3 0-2.3s2.07 2.3 0 2.3z" fill="#713014"/><path d="M694.42 617c3.23-12.75 1.58-12.74 4.87 0a5.49 5.49 0 01-4.87 0z" fill="#f27353"/><path d="M722.81 613.63a52.89 52.89 0 001.24-6.92c3.71.36 5.16 4.99-1.24 6.92zm-53.32-6.92c.52 7 1.71 7.19-.46 6.56-1.8-.52-4.65-4.82.46-6.56z" fill="#f37052"/><path d="M724.4 600.89c-4.9-3.6-8-7.38-11.53-12.95-19.69 14.4-33.87 3.28-43.55 11.74 0 0-1.17-8.63 1.18-13.47s12-11.23 19.3-11.4 19.07-.69 24.48 2.08c10.72 5.47 10.82 10.22 10.12 24z" fill="#662308"/><path d="M710.12 673.47c0-1.51-3.13-1.51-3.13 0s3.13 1.53 3.13 0zm-15.7 8.64a5.49 5.49 0 004.87 0c-3.29-12.73-1.64-12.75-4.87 0zm9.9 7.14h-15.23c3.38 4.82 11.1 7.23 15.23 0zm-20.72-15.78c0 1.52 3.14 1.52 3.14 0s-3.14-1.47-3.14 0zm-14.28-8.63c5.66-5 17.66-3.34 27.52-4.15 6.35-.52 16-7.6 16-7.6 11.39 17.95 15 5.76 7.76 34.37-1.88 7.43-15.53 18-23.79 18.14-10.92.23-28.7-14.88-27.49-40.76z" fill="#f69167"/><path d="M689.09 689.25h15.23c-4.18 7.32-11.95 4.68-15.23 0z" fill="#fefbd8"/><path d="M708.54 672.33c2.09 0 2.08 2.29 0 2.29s-2.07-2.29 0-2.29zm-23.37 2.29c-2.07 0-2.08-2.29 0-2.29s2.07 2.29 0 2.29z" fill="#713014"/><path d="M694.42 682.11c3.23-12.75 1.58-12.73 4.87 0a5.49 5.49 0 01-4.87 0z" fill="#f27353"/><path d="M722.81 678.79a52.89 52.89 0 001.24-6.92c3.71.36 5.16 4.98-1.24 6.92zm-53.32-6.92c.52 7 1.71 7.18-.46 6.56-1.8-.53-4.65-4.82.46-6.56z" fill="#f37052"/><path d="M724.4 666c-4.9-3.59-8-7.38-11.53-12.95-19.69 14.4-33.87 3.29-43.55 11.75 0 0-1.17-8.64 1.18-13.48s12-11.22 19.3-11.39 19.07-.7 24.48 2.07c10.72 5.52 10.82 10.26 10.12 24z" fill="#662308"/></svg>