<svg xmlns="http://www.w3.org/2000/svg" viewBox="0 0 1400 780"><path d="M131.46 222.8h16.63v334.4h-16.63zm53.37 0h16.63v334.4h-16.63zm53.36 0h16.63v334.4h-16.63zm53.36 0h16.63v334.4h-16.63zm53.37 0h16.63v334.4h-16.63zm53.36 0h16.63v334.4h-16.63zm53.36 0h16.63v334.4h-16.63z"/><path d="M450.41 222.8h-8.94v7.45h8.94v-7.45zm-17.88 0h-8.93v7.45h8.93v-7.45zm-17.87 0h-8.94v7.45h8.94v-7.45zm-17.87 0h-8.94v7.45h8.94v-7.45zm-17.87 0H370v7.45h8.94v-7.45zm-17.88 0h-8.93v7.45H361v-7.45zm-17.87 0h-8.93v7.45h8.93v-7.45zm-17.87 0h-8.94v7.45h8.94v-7.45zm-17.87 0h-8.94v7.45h8.94v-7.45zm-17.87 0h-8.94v7.45h8.94v-7.45zm-17.88 0h-8.93v7.45h8.93v-7.45zm-17.87 0h-8.94v7.45h8.94v-7.45zm-17.87 0H227v7.45h8.94v-7.45zm-17.87 0h-8.94v7.45h8.94v-7.45zm-17.88 0h-8.93v7.45h8.93v-7.45zm-17.87 0h-8.93v7.45h8.93v-7.45zm-17.87 0h-8.94v7.45h8.94v-7.45zm-17.87 0h-8.94v3.28H132V235h7.45v-4.76h7.15v-7.44zm-7.15 21.2H132v8.94h7.45V244zm0 17.87H132v8.94h7.45v-8.94zm0 17.87H132v8.94h7.45v-8.94zm0 17.88H132v8.93h7.45v-8.93zm0 17.87H132v8.94h7.45v-8.94zm0 17.87H132v8.94h7.45v-8.94zm0 17.87H132v8.94h7.45v-8.94zm0 17.88H132V378h7.45v-8.93zm0 17.87H132v8.93h7.45v-8.93zm0 17.87H132v8.94h7.45v-8.99zm0 17.87H132v8.94h7.45v-8.94zm0 17.88H132v8.93h7.45v-8.93zm0 17.87H132v8.93h7.45v-8.93zm0 17.87H132v8.94h7.45v-8.94zm0 17.87H132v8.94h7.45v-8.94zm0 17.87H132V521h7.45v-9zm0 17.88H132v8.93h7.45v-8.93zm0 17.87H132v8.93h7.45v-8.93zm10.35 1.55h-8.93v7.45h8.93v-7.45zm17.88 0h-8.94v7.45h8.94v-7.45zm17.87 0h-8.94v7.45h8.94v-7.45zm17.87 0h-8.93v7.45h8.93v-7.45zm17.87 0h-8.93v7.45h8.93v-7.45zm17.88 0h-8.94v7.45h8.94v-7.45zm17.87 0h-8.94v7.45H257v-7.45zm17.87 0H266v7.45h8.94v-7.45zm17.87 0h-8.93v7.45h8.93v-7.45zm17.88 0h-8.94v7.45h8.94v-7.45zm17.87 0h-8.94v7.45h8.94v-7.45zm17.87 0h-8.94v7.45h8.94v-7.45zm17.87 0h-8.93v7.45h8.93v-7.45zm17.87 0h-8.93v7.45h8.93v-7.45zm17.88 0h-8.94v7.45H400v-7.45zm17.87 0h-8.94v7.45h8.94v-7.45zm17.87 0h-8.94v7.45h8.94v-7.45zm17.87 0h-8.93v7.45h8.93v-7.45zm14.67 0h-5.73v4.24h-1.72v3.21h7.45v-7.45zm0-13.63h-7.45v8.94h7.45v-8.99zm0-17.87h-7.45v8.94h7.45v-8.94zm0-17.87h-7.45v8.93h7.45V500zm0-17.87h-7.45V491h7.45v-8.93zm0-17.88h-7.45v8.94h7.45v-8.94zm0-17.87h-7.45v8.94h7.45v-8.94zm0-17.87h-7.45v8.94h7.45v-8.94zm0-17.87h-7.45v8.93h7.45v-8.98zm0-17.88h-7.45v8.94h7.45v-8.94zm0-17.87h-7.45v8.94h7.45v-8.94zm0-17.87h-7.45v8.94h7.45V357zm0-17.87h-7.45V348h7.45v-8.93zm0-17.87h-7.45v8.93h7.45v-8.93zm0-17.88h-7.45v8.94h7.45v-8.94zm0-17.87h-7.45v8.94h7.45v-8.94zm0-17.87h-7.45v8.93h7.45v-8.93zm0-17.87h-7.45v8.93h7.45v-8.93zm0-17.88h-7.45v8.94h7.45v-8.94zm0-9.07h-8.94v7.45h8.94v-7.5z" fill="#ff6161"/><path d="M866.08 221.84v16.63h-334.4v-16.63zm.01 53.37v16.63h-334.4v-16.63zm0 53.36v16.63h-334.4v-16.63zm-.01 53.36v16.63h-334.4v-16.63zm.01 53.37v16.63h-334.4V435.3zm0 53.36v16.63h-334.4v-16.63zm0 53.36v16.63h-334.4v-16.63z"/><path d="M868.41 204.42H861V218h7.46v-13.6zm-14.92 0H846v7.46h7.46v-7.46zm-14.92 0h-7.45v7.46h7.45v-7.46zm-14.91 0h-7.46v7.46h7.46v-7.46zm-14.92 0h-7.46v7.46h7.46v-7.46zm-14.92 0h-7.45v7.46h7.45v-7.46zm-14.91 0h-7.46v7.46h7.46v-7.46zm-14.92 0h-7.46v7.46H764v-7.46zm-14.91 0h-7.46v7.46h7.46v-7.46zm-14.92 0h-7.46v7.46h7.46v-7.46zm-14.92 0h-7.46v7.46h7.46v-7.46zm-14.91 0h-7.46v7.46h7.46v-7.46zm-14.92 0H682v7.46h7.46v-7.46zm-14.92 0H667v7.46h7.45v-7.46zm-14.91 0h-7.46v7.46h7.46v-7.46zm-14.92 0h-7.46v7.46h7.46v-7.46zm-14.92 0h-7.45v7.46h7.45v-7.46zm-14.91 0h-7.46v7.46h7.46v-7.46zm-14.92 0h-7.46v7.46h7.46v-7.46zm-14.92 0h-7.45v7.46H585v-7.46zm-14.91 0h-7.46v7.46h7.46v-7.46zm-14.92 0h-7.46v7.46h7.46v-7.46zm-14.91 0h-7.46v6.36h-1.1v7.46h7.46v-6.36h1.1v-7.46zm-1.1 21.28h-7.46v7.46h7.46v-7.46zm0 14.92h-7.46v7.46h7.46v-7.46zm0 14.91h-7.46V263h7.46v-7.46zm0 14.92h-7.46v7.46h7.46v-7.46zm0 14.92h-7.46v7.46h7.46v-7.46zm0 14.91h-7.46v7.46h7.46v-7.46zm0 14.92h-7.46v7.46h7.46v-7.46zm0 14.92h-7.46v7.45h7.46v-7.45zm0 14.91h-7.46v7.46h7.46V345zm0 14.92h-7.46v7.46h7.46V360zm0 14.92h-7.46v7.45h7.46v-7.45zm0 14.91h-7.46v7.46h7.46v-7.46zm0 14.92h-7.46v7.46h7.46v-7.46zm0 14.91h-7.46v7.46h7.46v-7.46zm0 14.92h-7.46V442h7.46v-7.46zm0 14.92h-7.46v7.46h7.46v-7.46zm0 14.91h-7.46v7.46h7.46v-7.46zm0 14.92h-7.46v7.46h7.46v-7.46zm0 14.92h-7.46v7.46h7.46v-7.46zm0 14.91h-7.46v7.46h7.46v-7.46zm0 14.92h-7.46v7.46h7.46V524zm0 14.92h-7.46v7.45h7.46V539zm0 14.91h-7.46v7.46h7.46v-7.46zm-6.8 14.26h-.66v7.46h7.46v-6.8h-6.8v-.66zm14.92 0h-7.46v7.46h7.46v-7.46zm14.91 0h-7.45v7.46h7.45v-7.46zm14.92 0h-7.46v7.46h7.46v-7.46zm14.92 0h-7.46v7.46H592v-7.46zm14.91 0h-7.45v7.46h7.45v-7.46zm14.92 0h-7.46v7.46h7.46v-7.46zm14.92 0h-7.46v7.46h7.46v-7.46zm14.91 0h-7.46v7.46h7.46v-7.46zm14.92 0h-7.46v7.46h7.46v-7.46zm14.92 0h-7.46v7.46h7.46v-7.46zm14.91 0H689v7.46h7.46v-7.46zm14.92 0h-7.46v7.46h7.46v-7.46zm14.91 0h-7.45v7.46h7.45v-7.46zm14.92 0h-7.46v7.46h7.46v-7.46zm14.92 0h-7.46v7.46h7.46v-7.46zm14.91 0h-7.45v7.46H771v-7.46zm14.92 0h-7.46v7.46h7.46v-7.46zm14.92 0h-7.46v7.46h7.46v-7.46zm14.91 0h-7.46v7.46h7.46v-7.46zm14.92 0h-7.46v7.46h7.46v-7.46zm14.92 0h-7.46v7.46h7.46v-7.46zm14.91 0h-7.46v7.46h7.46v-7.46zm7.9 0H868v.44h-7v7h7.46v-7.46zm0-14.48H861v7.46h7.46v-7.46zm0-14.92H861v7.46h7.46v-7.46zm0-14.91H861v7.45h7.46v-7.45zm0-14.92H861v7.46h7.46v-7.46zm0-14.92H861v7.46h7.46V494zm0-14.91H861v7.45h7.46v-7.45zm0-14.92H861v7.46h7.46v-7.46zm0-14.92H861v7.46h7.46v-7.46zm0-14.91H861v7.46h7.46v-7.46zm0-14.92H861v7.46h7.46v-7.46zm0-14.92H861v7.46h7.46v-7.46zm0-14.91H861V397h7.46v-7.46zm0-14.92H861v7.46h7.46v-7.46zm0-14.91H861v7.45h7.46v-7.45zm0-14.92H861v7.46h7.46v-7.46zm0-14.92H861v7.46h7.46v-7.46zm0-14.91H861v7.45h7.46V315zm0-14.92H861v7.46h7.46v-7.46zm0-14.92H861v7.46h7.46v-7.46zm0-14.91H861v7.45h7.46v-7.45zm0-14.92H861v7.46h7.46v-7.46zm0-14.92H861v7.46h7.46v-7.46zm0-14.91H861v7.46h7.46v-7.46z" fill="#ff6161"/><path d="M1266.22 222.51v16.63h-334.4v-16.63zm0 53.36v16.63h-334.4v-16.63zm-.01 53.37v16.63h-334.4v-16.63zm.01 53.36v16.63h-334.4V382.6zm0 53.36v16.63h-334.4v-16.63zm-.01 53.37v16.63h-334.4v-16.63zm.01 53.36v16.63h-334.4v-16.63z"/><path d="M1253.08 190.63h-7.74v7.73h7.74v-7.73zm-15.47 0h-7.73v7.73h7.73v-7.73zm-15.46 0h-7.73v7.73h7.73v-7.73zm-15.46 0H1199v7.73h7.73v-7.73zm-15.46 0h-7.73v7.73h7.73v-7.73zm-15.46 0H1168v7.73h7.73v-7.73zm-15.46 0h-7.73v7.73h7.73v-7.73zm-15.46 0h-7.73v7.73h7.73v-7.73zm-15.46 0h-7.73v7.73h7.73v-7.73zm-15.46 0h-7.73v7.73h7.73v-7.73zm-15.46 0h-7.73v7.73h7.73v-7.73zm-15.46 0h-7.73v7.73h7.72v-7.73zm-15.47 0h-7.73v7.73h7.73v-7.73zm-15.46 0h-7.73v7.73h7.73v-7.73zm-15.46 0h-7.73v7.73h7.73v-7.73zm-15.46 0h-7.73v7.73h7.73v-7.73zm-15.46 0H998v7.73h7.73v-7.73zm-15.46 0h-7.73v7.73h7.73v-7.73zm-15.46 0h-7.73v7.73h7.73v-7.73zm-15.46 0h-7.73v7.73h7.73v-7.73zm-15.46 0h-7.73v3.42h-4.31v7.73h7.73v-3.42h4.31v-7.73zm-4.31 18.88h-7.73v7.73h7.73v-7.73zm0 15.46h-7.73v7.73h7.73V225zm0 15.46h-7.73v7.73h7.73v-7.73zm0 15.47h-7.73v7.73h7.73v-7.73zm0 15.46h-7.73v7.73h7.73v-7.73zm0 15.46h-7.73v7.73h7.73v-7.73zm0 15.46h-7.73V310h7.73v-7.73zm0 15.46h-7.73v7.73h7.73v-7.73zm0 15.46h-7.73v7.73h7.73v-7.73zm0 15.46h-7.73v7.73h7.73v-7.73zm0 15.46h-7.73v7.73h7.73v-7.73zm0 15.46h-7.73v7.73h7.73v-7.73zm0 15.46h-7.73v7.73h7.73V395zm0 15.46h-7.73v7.73h7.73v-7.73zm0 15.46h-7.73v7.74h7.73V426zm0 15.47h-7.73v7.73h7.73v-7.73zm0 15.46h-7.73v7.73h7.73v-7.73zm0 15.46h-7.73v7.73h7.73v-7.73zm0 15.46h-7.73v7.73h7.73v-7.73zm0 15.46h-7.73V511h7.73v-7.73zm0 15.46h-7.73v7.73h7.73v-7.73zm0 15.46h-7.73v7.73h7.73v-7.73zm0 15.46h-7.73v7.73h7.73v-7.73zm0 15.46h-7.73v7.73h7.73v-7.73zm0 15.46h-7.73v7.73h6.66v1.07h7.73v-7.73h-6.66v-1.07zm22.12 1.07h-7.73v7.73h7.73v-7.73zm15.47 0h-7.73v7.73h7.73v-7.73zm15.46 0h-7.73v7.73h7.73v-7.73zm15.46 0h-7.73v7.73h7.73v-7.73zm15.46 0h-7.73v7.73h7.73v-7.73zm15.46 0h-7.73v7.73h7.75v-7.73zm15.46 0h-7.73v7.73h7.73v-7.73zm15.46 0h-7.73v7.73h7.73v-7.73zm15.46 0h-7.73v7.73h7.73v-7.73zm15.46 0h-7.73v7.73h7.73v-7.73zm15.46 0h-7.73v7.73h7.73v-7.73zm15.46 0H1124v7.73h7.73v-7.73zm15.46 0h-7.73v7.73h7.73v-7.73zm15.47 0h-7.73v7.73h7.73v-7.73zm15.46 0h-7.73v7.73h7.73v-7.73zm15.46 0h-7.73v7.73h7.73v-7.73zm15.46 0h-7.73v7.73h7.73v-7.73zm15.46 0h-7.73v7.73h7.73v-7.73zm15.46 0h-7.73v7.73h7.76v-7.73zm15.46 0h-7.73v7.73h7.73v-7.73zm13.11 0h-5.38V587h-2.35v2.35h7.73v-7.73zm0-10.09h-7.73v7.74h7.73v-7.74zm0-15.46h-7.73v7.73h7.73v-7.73zm0-15.46h-7.73v7.73h7.73v-7.73zm0-15.46h-7.73v7.73h7.73v-7.73zm0-15.46h-7.73v7.73h7.73v-7.73zm0-15.46h-7.73V502h7.73v-7.73zm0-15.46h-7.73v7.73h7.73v-7.73zm0-15.46h-7.73v7.73h7.73v-7.73zm0-15.46h-7.73v7.73h7.73v-7.73zm0-15.46h-7.73v7.73h7.73v-7.73zm0-15.46h-7.73v7.73h7.73V417zm0-15.46h-7.73v7.73h7.73v-7.73zm0-15.47h-7.73v7.73h7.73V386zm0-15.46h-7.73v7.73h7.73v-7.73zm0-15.46h-7.73v7.73h7.73v-7.73zm0-15.46h-7.73v7.73h7.73v-7.73zm0-15.46h-7.73v7.73h7.73v-7.73zm0-15.46h-7.73v7.73h7.73v-7.73zm0-15.46h-7.73V301h7.73v-7.73zm0-15.46h-7.73v7.73h7.73v-7.73zm0-15.46h-7.73v7.73h7.73v-7.73zm0-15.46h-7.73v7.73h7.73v-7.73zm0-15.46h-7.73v7.73h7.73v-7.73zm0-15.46h-7.73v7.73h7.73V216zm0-15.47h-7.73v7.73h7.73v-7.73zm0-9.86h-7.73v7.73h7.73v-7.73z" fill="#ff6161"/><path fill="#9b9b9b" d="M1266.21 222.51v16.63h-167.2v-16.63zm.01 53.36v16.63h-167.2v-16.63zm0 53.37v16.63h-167.2v-16.63zm-.01 53.36v16.63h-167.2V382.6zm.01 53.36v16.63h-167.2v-16.63zm0 53.37v16.63h-167.2v-16.63zm-.01 53.36v16.63h-167.2v-16.63z"/></svg>