<svg xmlns="http://www.w3.org/2000/svg" viewBox="0 0 1400 780"><path fill="#f4f4f4" d="M0 0h1400v780H0z"/><path d="M160.11 165.82h22.3v448.36h-22.3zm71.55 0H254v448.36h-22.3zm71.55 0h22.3v448.36h-22.3zm71.55 0h22.3v448.36h-22.3zm71.55 0h22.3v448.36h-22.3zm71.55 0h22.3v448.36h-22.3zm71.55 0h22.3v448.36h-22.3zm671.12-1.62v22.3H812.17v-22.3zm0 71.54V258H812.17v-22.3zm0 71.55v22.3H812.17v-22.3zm0 71.55v22.3H812.17v-22.3zm0 71.55v22.3H812.17v-22.3zm0 71.55v22.3H812.17v-22.3zm0 71.55v22.3H812.16v-22.3z" fill="#e6e6e6"/><path fill="none" stroke="red" stroke-linecap="round" stroke-miterlimit="10" stroke-width="3" d="M1260.52 630.16v6.27h-6.27"/><path fill="none" stroke="red" stroke-linecap="round" stroke-miterlimit="10" stroke-width="3" stroke-dasharray="12.45 12.45" d="M1241.8 636.43H824.66"/><path fill="none" stroke="red" stroke-linecap="round" stroke-miterlimit="10" stroke-width="3" d="M818.44 636.43h-6.27v-6.27"/><path fill="none" stroke="red" stroke-linecap="round" stroke-miterlimit="10" stroke-width="3" stroke-dasharray="12.32 12.32" d="M812.17 617.84V156"/><path fill="none" stroke="red" stroke-linecap="round" stroke-miterlimit="10" stroke-width="3" d="M812.17 149.84v-6.27h6.27"/><path fill="none" stroke="red" stroke-linecap="round" stroke-miterlimit="10" stroke-width="3" stroke-dasharray="12.45 12.45" d="M830.89 143.57h417.13"/><path fill="none" stroke="red" stroke-linecap="round" stroke-miterlimit="10" stroke-width="3" d="M1254.25 143.57h6.27v6.27"/><path fill="none" stroke="red" stroke-linecap="round" stroke-miterlimit="10" stroke-width="3" stroke-dasharray="12.32 12.32" d="M1260.52 162.16V624"/><path fill="none" stroke="red" stroke-linecap="round" stroke-linejoin="round" stroke-width="3" d="M145.75 614.17h-6.27v-6.26"/><path fill="none" stroke="red" stroke-linecap="round" stroke-linejoin="round" stroke-width="3" stroke-dasharray="12.45 12.45" d="M139.48 595.46V178.32"/><path fill="none" stroke="red" stroke-linecap="round" stroke-linejoin="round" stroke-width="3" d="M139.48 172.09v-6.27h6.27"/><path fill="none" stroke="red" stroke-linecap="round" stroke-linejoin="round" stroke-width="3" stroke-dasharray="12.32 12.32" d="M158.07 165.83h461.84"/><path fill="none" stroke="red" stroke-linecap="round" stroke-linejoin="round" stroke-width="3" d="M626.07 165.82h6.26v6.27"/><path fill="none" stroke="red" stroke-linecap="round" stroke-linejoin="round" stroke-width="3" stroke-dasharray="12.45 12.45" d="M632.33 184.54v417.14"/><path fill="none" stroke="red" stroke-linecap="round" stroke-linejoin="round" stroke-width="3" d="M632.33 607.91v6.26h-6.26"/><path fill="none" stroke="red" stroke-linecap="round" stroke-linejoin="round" stroke-width="3" stroke-dasharray="12.32 12.32" d="M613.75 614.18H151.91"/></svg>
