<svg xmlns="http://www.w3.org/2000/svg" viewBox="0 0 1400 780"><path fill="#b3b3b3" d="M0 0h1400v780H0z"/><path fill="#fff" stroke="#000" stroke-miterlimit="10" stroke-width="3" d="M819.81 136.8h216v504h-216z"/><path fill="#fff" stroke="#000" stroke-miterlimit="10" stroke-width="5" d="M927.81 136.8v504"/><path fill="#fff" stroke="#000" stroke-miterlimit="10" stroke-width="3" d="M1107.81 136.8h216v504h-216z"/><path fill="#fff" stroke="#000" stroke-miterlimit="10" stroke-width="5" d="M1107.81 208.8h216m0 72h-216m216 72h-216m216 72h-216m216 72h-216m216 72h-216"/><path fill="none" stroke="#ed1c24" stroke-miterlimit="10" stroke-width="3" d="M783.57 124.52v541.05"/><path d="M783.57 106.41c-3.17 8.52-8.56 19.09-14.27 25.64l14.27-5.16 14.26 5.16c-5.71-6.55-11.11-17.12-14.26-25.64zm0 577.26c-3.17-8.52-8.57-19.09-14.27-25.67l14.27 5.16 14.26-5.16c-5.71 6.58-11.11 17.15-14.26 25.67z" fill="#ed1c24"/><path fill="none" stroke="#ed1c24" stroke-miterlimit="10" stroke-width="3" d="M1070.69 124.52v541.05"/><path d="M1070.69 106.41c-3.16 8.52-8.56 19.09-14.27 25.64l14.27-5.16 14.26 5.16c-5.71-6.55-11.1-17.12-14.26-25.64zm0 577.26c-3.16-8.52-8.56-19.09-14.27-25.64l14.27 5.16L1085 658c-5.76 6.58-11.15 17.15-14.31 25.67z" fill="#ed1c24"/><path fill="#fff" stroke="#969696" stroke-miterlimit="10" stroke-width="3" d="M399.18 136.8h216v504h-216z"/><path fill="#fff" stroke="#969696" stroke-miterlimit="10" stroke-width="3.59" d="M435.35 136.8v504m37.04-504v504m34.79-504v504m37.05-504v504m33.9-504v504m37.05-504v504"/><path fill="#fff" stroke="#969696" stroke-miterlimit="10" stroke-width="3" d="M111.18 136.8h216v504h-216z"/><path fill="#fff" stroke="#969696" stroke-miterlimit="10" stroke-width="5" d="M327.18 397.8h-216"/><path fill="none" stroke="#ed1c24" stroke-miterlimit="10" stroke-width="2.12" d="M87.49 106.41h551.66"/><path d="M74.69 106.41c6 2.24 13.5 6 18.13 10.09l-3.65-10.09 3.65-10.08c-4.63 4.04-12.11 7.85-18.13 10.08zm577.31 0c-6 2.24-13.5 6-18.13 10.09l3.65-10.09-3.65-10.08c4.58 4.04 12.06 7.85 18.13 10.08z" fill="#ed1c24"/></svg>