<svg xmlns="http://www.w3.org/2000/svg" viewBox="0 0 1400 780"><path fill="#7e9eac" d="M1.14 0h1400v776.93H1.14z"/><path d="M489.5 516.62c-47.94 0-264.66-4.54-264.75 0h60.68v5.32h207.34l-.15-7c-3.89.06-3.12-.49-3.12 1.68zm0 18.6c-47.79 0-265-4.54-265.14 0h61.07v5.32h207.72l-.14-7c-4.34.03-3.51-.54-3.51 1.68zm0 18.6c-61.9 0-61.86.92-61.86-1.65H224l-.14 7c.67 0 .47.81.47-5.32h61.07v5.32h208.1l-.14-7c-4.73 0-3.86-.54-3.86 1.65zM224.36 219h61.07v5.33h275c-.93-2.35-1.87-4.67-2.85-7-68.15 0-68.11-.92-68.11 1.65-61.9 0-61.86.92-61.86-1.65H160.49l-1.94 7h65.81zM489.5 479.42c-48.21 0-263.91-4.54-264 0h59.93v5.32H492l-.15-7c-2.96.02-2.35-.47-2.35 1.68zM224.36 200.4h61.07v5.33h267q-1.65-3.53-3.36-7c-59.62 0-59.58-.92-59.58 1.65-61.9 0-61.86.92-61.86-1.65H166c-3.77 9.6-9.8 7 58.36 7zM489.5 498c-48.08 0-264.28-4.54-264.38 0h60.31v5.32h207l-.14-7c-3.48.05-2.79-.46-2.79 1.68zM285.43 131.32c199.69 0 175.87 2.29 162.71-5.32h-20.5v-1.65c-156.84 0-152.42-.92-156.83 1.65h14.62zm0 18.6c245.07 0 213.19 2.28 197.71-5.32-55.55 0-55.5.92-55.5-1.65-126.13 0-269 1.65-142.21 1.65zm-61.07 180.69c3.47 0 2.74.43 3.46-1.65h-79.43c15.29 9.3 6.8 7 76 7zm203.28 314.56c-219.32 0-192.48-.71-186.56 1.65h44.35v5.33c185 0 166 2.28 184.9-5.33-42.75 0-42.69.92-42.69-1.65zM224.36 256.21h61.07v5.32H573q-1-3.51-2-7H150.16l-1.93 7h76.13zM489.5 572.42c-61.9 0-61.86.92-61.86-1.65h-204l-.14 7c1.13 0 .85 1 .85-5.32h61.07v5.32h208.5l-.14-7c-5.13 0-4.28-.55-4.28 1.65zM224.36 312h61.07v5.32c300 0 300-.64 300 1.15.25-.24.26-.06-1.2-8.12H134.68l-1.93 7h91.61zm0-74.39h61.07v5.32h281.83c-.79-2.34-1.59-4.67-2.42-7H155.32l-1.93 7h71zM489.5 460.82c-48.36 0-263.53-4.54-263.62 0h59.55v5.32h206.18l-.14-7c-2.47.02-1.97-.41-1.97 1.68zm0 130.18c-61.9 0-61.86.92-61.86-1.65H223.28l-.15 7c1.64 0 1.23 1.07 1.23-5.32h61.07v5.32H494.3l-.14-7c-5.59.02-4.66-.53-4.66 1.65zm0 18.62c-61.9 0-61.86.92-61.86-1.65H222.9l-.14 7c2.13 0 1.6 1.06 1.6-5.33h61.07V615h209.26l-.15-7c-6.04 0-5.04-.58-5.04 1.62zm0 18.6c-61.9 0-61.86.92-61.86-1.65H222.52l-.14 7c2.64 0 2 1.06 2-5.33h61.07v5.33h209.62l-.14-7c-6.51 0-5.43-.57-5.43 1.65zM224.36 293.41h61.07v5.32H582q-.71-3.51-1.46-7h-440.7l-1.93 7h86.45zm190.1 370.36H297.27a289.11 289.11 0 00117.19 0zM224.36 163.2h61.07v5.32c273.37 0 247.05 1.24 244.21-2.88-13-5.45-3.79-4.09-40.14-4.09 0 4.11 0 0-292.07 0-2.06.81-3.74 1.07-10.5 7h37.43zM489.5 367.81c-49.05 0-261.65-4.54-261.74 0h57.67v5.32h204.26c-.09-4.47-.19-9.8-.19-5.32zm-61.86-20.25c-139.58 0-282.41 1.65-142.21 1.65v5.32h203.88l-.11-5.32c-61.61 0-61.56.92-61.56-1.65zM494 335.93c61.53 0 59.1 2 76.18-7-101.9.07-79.8-2.08-76.18 7zm-75.51-228.58c-42.63 5.24-82.37 5.94-117.9 0a546.9 546.9 0 01-8.17 5.37h134.1c-2.71-1.72-5.4-3.55-8.03-5.37zM224.36 274.81h61.07v5.32h292.48c-.57-2.34-1.15-4.66-1.74-7H145l-1.93 7h81.29z" fill="#d19e7b"/><path d="M427.64 330.61c0-4.48-329.07 0-142.21 0v5.32h203.49l-.11-5.32zM224.36 535.85c-.1 5.21-.13 4.69 0 4.69zM489.5 405c-48.78 0-262.4-4.54-262.49 0h58.42v5.33h205l-.14-7c-1.04.03-.79-.33-.79 1.67zm0 37.21c-48.49 0-263.15-4.53-263.25 0h59.18v5.33h205.8l-.14-7c-2 .02-1.59-.41-1.59 1.67zM224.36 181.8h61.07v5.33h257.51c-1.31-2.36-2.65-4.68-4-7-49.47 0-49.42-.92-49.42 1.65-61.9 0-61.86.92-61.86-1.65H176.21a74.45 74.45 0 00-4.6 7h52.75zM489.5 423.61c-48.63 0-262.78-4.53-262.87 0h58.8v5.33h205.42l-.15-7c-1.55.06-1.2-.41-1.2 1.67zm0-37.2c-48.91 0-262-4.54-262.12 0h58.05v5.33h204.65l-.15-7c-.57.02-.43-.31-.43 1.67z" fill="#d19e7b"/><path d="M427.64 663.77v-3c-17.24 4.33-17.78 3 0 3z" fill="#936c5c"/><path d="M285.43 658.45H275.3q11 3.07 22 5.32c131.13 0 130.37 2.77 130.37-10h23.74c7.07-2.37 30.61-1.65-165.95-1.65zm0-18.6h-60.68c16.7 7.6-.13 5.32 202.89 5.32v-10h61.86v3.27c15.41-7.23 16.52-4.92-204.07-4.92zm-61.07-.18c0-7.35.66-6.12-2-6.12-.1 6.21-.62 4.92 2 6.12zm61.07-18.42h-61.07c0-7.56.53-6.3-1.6-6.3l-.24 11.62h205.12v-10h61.86v10h5.43l-.24-11.57H285.43zm0-18.6h-61.07v-6.31c-1.8 0-1.22-.15-1.46 11.63h204.74V598h61.86v10h5l-.24-11.63H285.43zm0-18.6h-61.07v-6.31c-1.32 0-.85-.07-1.08 11.63h204.36v-10h61.86v10h4.66l-.24-11.63H285.43zm0-18.6h-61.07c0-12.18-.5-5.19-.71 5.32h204v-10h61.85c0 11.8-1.42 10 4.28 10l-.25-11.63h-208.1zm0-18.61h-61.07c0-11.28-.1-6.13-.33 5.33h203.61v-10h61.86c0 11.49-1.29 10 3.89 10l-.24-11.63H285.43zm0-18.6h-60.92l-.1 5.33h203.23v-9.98h61.86v9.98h3.51l-.24-11.63H285.43v6.3zm0-18.6h-60.54l-.11 5.33h202.86v-9.98h61.86v9.98h3.12l-.24-11.63H285.43v6.3zm0-18.6h-60.16l-.11 5.33h202.48v-9.98h61.86v9.98h2.74l-.24-11.63H285.43v6.3zm0-18.6h-59.79l-.11 5.32h202.11v-9.97h61.86v9.97h2.35l-.24-11.62H285.43v6.3zm0-18.6h-59.41l-.11 5.32h201.73v-9.97h61.86v9.97h1.97l-.24-11.62h-205.8v6.3zm0-18.6H226.4l-.11 5.32h201.35v-9.97h61.86v9.97h1.58l-.23-11.62H285.43v6.3zm0-18.6h-58.66l-.11 5.32h201V412h61.84v10c1.81 0 1.2.1 1-11.62h-205zm0-18.64h-58.28l-.11 5.32h200.6v-10h61.86v10c1.27 0 .82 0 .58-11.62H285.43zm0-18.56h-57.91l-.1 5.32h200.22v-10h61.86c0 14.39.49 12.74.19-1.66H285.43zm204.07-13.28c.1 0 .05.17 0-2.23zm-204.07-5.32H227.9l-.11 5.32h199.85v-10c61.71 0 61.72.91 61.67-1.66H285.43zm142.21-23.26c61.33 0 61.34.92 61.28-1.65H285.43v6.31h-57.15l-.11 5.32h199.47zm-205.36 7.56c2.5-7.3 2.08-5.27 2.08-9.21h-62.91a107.67 107.67 0 0060.83 9.21zm272.84-.42c22.06-.86 41.73-3.56 58.11-8.79H494a19.74 19.74 0 011.12 8.79zm-266.53-18.03c-.93 2.72-1 2.27 0 2.27zm-96-9.36c0 .71-.06.76.16 0z" fill="#936c5c"/><path d="M427.64 329v-10h61.86v10h80.71c2.91-1.53 15.24-8.62 15.24-11.63h-300v6.3h-61.09v-6.3c-91.75 0-91.53-.3-91.77.55a152.92 152.92 0 0015.8 11.08zm0-28.62h61.86v10h94.75q-1.07-5.87-2.23-11.63H285.43V305h-61.07v-6.3h-86.45l-3.23 11.63h293zm0-18.6h61.86v10h91.06q-1.26-5.88-2.65-11.63H285.43v6.3h-61.07v-6.3h-81.29l-3.23 11.63h287.8zm0-18.6h61.86v10h86.67q-1.51-5.86-3.15-11.62H285.43v6.3h-61.07v-6.3h-76.13L145 273.15h282.64zm0-18.6h61.86v10H571c-1.18-3.92-2.43-7.79-3.71-11.62H285.43v6.3h-61.07v-6.3h-71l-3.23 11.62h277.51zm0-18.58h61.86v10h75.34q-2.1-5.89-4.38-11.62h-275v6.3h-61.1v-6.3h-65.81L155.32 236h272.32zm0-18.62h61.86v10h68.11q-2.49-5.9-5.17-11.62h-267V212h-61.08v-6.3h-60.65l-3.22 11.62h267.15zm0-18.6h61.86v10h59.58q-3-5.92-6.14-11.62H285.43v6.3h-61.07v-6.3h-52.75a81.57 81.57 0 00-5.61 11.59h261.64zm0-18.6h61.86v10h49.42q-3.54-5.94-7.33-11.63H285.43v6.31h-61.07v-6.31h-37.43a74.35 74.35 0 00-10.72 11.63h251.43zm0-18.6h61.86v10H520q-13.12-5.67-25.83-11.63H285.43v6.31h-61.07c0-9.09 5.38-7.35-26.93 5.32h230.21zm0-18.58c39.66 0 34 .57 29.91-1.66H285.43v6.31c-42.52 0-31.76-1.78-46.05 5.32h188.26zm0-18.63c1.94 0 2.06.43-1.12-1.65-141.22 0-130.94-1.9-141.09 4.45 0 2.42.77 1.85-3 1.85-12.33 7.61-33.53 5.33 145.19 5.33z" fill="#936c5c"/><path d="M285.43 652.15v-5.33h-44.35c16.8 6.71 9.6 5.33 44.35 5.33z" fill="#553e37"/><path d="M285.43 658.45v-6.3H255.3c21.62 7.56 19.8 6.3 30.13 6.3zm-61.07-30.23h61.07v5.32h-61.07zm0 11.63c.5 0 .52.06 0-.18z" fill="#553e37"/><path d="M224.75 639.85h60.68v-6.3h-61.07c0 7.03-.16 6.05.39 6.3zm-.39-30.23h61.07v5.32h-61.07zm0 5.33h61.07v6.3h-61.07zm0-23.93h61.07v5.32h-61.07zm0 5.32h61.07v6.3h-61.07zm0-23.92h61.07v5.32h-61.07zm0 5.32h61.07v6.3h-61.07zm0-23.92h61.07v5.32h-61.07z" fill="#553e37"/><path fill="#553e37" d="M224.36 559.14h61.07v6.3h-61.07zm0-23.92c0 .1 0 1.37 0 0zm0 0h61.07v5.32h-61.07z"/><path fill="#553e37" d="M224.36 540.54h61.07v6.3h-61.07zm.39-23.92c-.56 0-.39-.81-.39 5.32.4 0 .26.77.39-5.32z"/><path fill="#553e37" d="M285.43 521.94v-5.32h-60.68l-.11 5.32h60.79z"/><path d="M224.51 528.24c.15-7.23.24-6.3-.15-6.3 0 7-.07 6.3.15 6.3z" fill="#553e37"/><path fill="#553e37" d="M224.51 528.24h60.92v-6.3h-60.79l-.13 6.3zm.61-30.24c-1 0-.76-.88-.76 5.32.88.02.64.89.76-5.32z"/><path fill="#553e37" d="M285.43 503.34v-5.32h-60.3l-.11 5.32h60.41z"/><path d="M224.89 509.64c.15-7.25.39-6.3-.53-6.3 0 7.22-.22 6.3.53 6.3z" fill="#553e37"/><path fill="#553e37" d="M224.89 509.64h60.54v-6.3h-60.41l-.13 6.3zm.61-30.22c-1.52 0-1.14-1.06-1.14 5.32 1.38 0 1.01 1.06 1.14-5.32z"/><path fill="#553e37" d="M285.43 484.74v-5.32H225.5l-.11 5.32h60.04z"/><path d="M225.27 491c.15-7.5.47-6.3-.91-6.3 0 7.36-.3 6.3.91 6.3z" fill="#553e37"/><path fill="#553e37" d="M225.27 491.04h60.16v-6.3h-60.04l-.12 6.3zm.61-30.22c-2 0-1.52-1.06-1.52 5.32 1.88 0 1.39 1.06 1.52-5.32z"/><path fill="#553e37" d="M285.43 466.14v-5.32h-59.55l-.11 5.32h59.66z"/><path d="M225.64 472.44c.16-7.55.6-6.3-1.28-6.3 0 7.49-.43 6.3 1.28 6.3z" fill="#553e37"/><path fill="#553e37" d="M225.64 472.44h59.79v-6.3h-59.66l-.13 6.3zm.61-30.23c-2.52 0-1.89-1.06-1.89 5.33 2.38 0 1.76 1.06 1.89-5.33z"/><path fill="#553e37" d="M285.43 447.54v-5.33h-59.18l-.1 5.33h59.28z"/><path d="M226 453.84c.15-7.56.72-6.3-1.66-6.3.02 7.55-.55 6.3 1.66 6.3z" fill="#553e37"/><path fill="#553e37" d="M226.02 453.84h59.41v-6.3h-59.28l-.13 6.3zm.61-30.23c-3 0-2.27-1.06-2.27 5.33 2.88 0 2.14 1.06 2.27-5.33z"/><path fill="#553e37" d="M285.43 428.94v-5.33h-58.8l-.11 5.33h58.91z"/><path d="M226.4 435.24c.15-7.57.84-6.3-2-6.3-.04 7.56-.72 6.3 2 6.3z" fill="#553e37"/><path fill="#553e37" d="M226.4 435.24h59.03v-6.3h-58.91l-.12 6.3zM227 405c-3.51 0-2.65-1.23-2.65 5.33 3.35.01 2.52 1.29 2.65-5.33z"/><path fill="#553e37" d="M285.43 410.34v-5.33h-58.42l-.11 5.33h58.53z"/><path d="M226.77 416.64c.15-7.56 1-6.3-2.41-6.3 0 7.56-.81 6.3 2.41 6.3z" fill="#553e37"/><path fill="#553e37" d="M226.77 416.64h58.66v-6.3H226.9l-.13 6.3zm.61-30.23c-4 0-3-1.27-3 5.33 3.79 0 2.87 1.34 3-5.33z"/><path fill="#553e37" d="M285.43 391.74v-5.33h-58.05l-.1 5.33h58.15z"/><path d="M227.15 398c.16-7.88 1-6.3-2.79-6.3 0 7.78-.9 6.3 2.79 6.3z" fill="#553e37"/><path fill="#553e37" d="M227.15 398.04h58.28v-6.3h-58.15l-.13 6.3zm.61-30.23c-4.43 0-3.4-1.37-3.4 5.32 4.29 0 3.26 1.38 3.4-5.32z"/><path fill="#553e37" d="M285.43 373.13v-5.32h-57.67l-.11 5.32h57.78z"/><path d="M227.52 379.44c.16-7.89 1.14-6.31-3.16-6.31 0 7.92-.97 6.31 3.16 6.31z" fill="#553e37"/><path fill="#553e37" d="M227.53 379.44h57.9v-6.31h-57.78l-.12 6.31zm.61-30.23c-4.91 0-3.78-1.38-3.78 5.32 4.78 0 3.64 1.38 3.78-5.32z"/><path fill="#553e37" d="M285.43 354.53v-5.32h-57.29l-.11 5.32h57.4z"/><path d="M227.9 360.84c.16-7.91 1.25-6.31-3.54-6.31 0 7.94-1.07 6.31 3.54 6.31z" fill="#553e37"/><path fill="#553e37" d="M227.9 360.84h57.53v-6.31h-57.4l-.13 6.31zm.51-24.91c.12-6.39.52-5.32-1.16-5.32-2.25 6.63-2.75 5.32 1.16 5.32z"/><path d="M227.25 330.61c-3.8 0-2.89-1.26-2.89 5.32 1.43 0 .77.87 2.89-5.32zm1.26 0l-.1 5.32h57.02v-5.32h-56.92z" fill="#553e37"/><path d="M225.43 335.93c-1.29 3.77-1.07 2.32-1.07 6.31 5.1 0 3.88 1.62 4-6.31z" fill="#553e37"/><path d="M224.36 335.93c0 4.17-.36 4.17 1.07 0zm3.92 6.31h57.15v-6.31h-57.02l-.13 6.31zm-3.92-30.23h61.07v5.32h-61.07zm0 5.32h61.07v6.3h-61.07zm0-23.92h61.07v5.32h-61.07zm0 5.32h61.07v6.3h-61.07zm0-23.92h61.07v5.32h-61.07zm0 5.32h61.07v6.3h-61.07zm0-23.92h61.07v5.32h-61.07zm0 5.32h61.07v6.3h-61.07zm0-23.92h61.07v5.32h-61.07zm0 5.32h61.07v6.3h-61.07zm0-23.93h61.07v5.32h-61.07zm0 5.33h61.07v6.3h-61.07zm0-23.93h61.07v5.32h-61.07zm0 5.33h61.07v6.3h-61.07zm0-23.93h61.07v5.32h-61.07zm0 5.33h61.07v6.3h-61.07zm0-23.93h61.07v5.32h-61.07zm0 5.32h61.07v6.3h-61.07zm61.07-18.6v-5.32h-49.38c-15.59 7.61-26.31 5.32 49.38 5.32z" fill="#553e37"/><path d="M224.78 149.92c-.51 0-.42-.06-.42.2z" fill="#553e37"/><path d="M224.36 150.12v6.11h61.07v-6.31c-61.06 0-60.43-.1-61.07.2zm61.07-18.8V126h-14.62c-12.18 7.1-15.87 5.32 14.62 5.32z" fill="#553e37"/><path d="M249.82 137.63h35.61v-6.31c-29.36 0-20.43-1.63-35.61 6.31zm35.61-20.46c-1 .62-2 1.24-3 1.85 3.77-.02 3 .56 3-1.85zM427.64 653.8v7q11.87-3 23.74-7zm0-8.63c0 2.57-.06 1.65 42.69 1.65 5.87-2.36 13.24-1.65-42.69-1.65z" fill="#553e37"/><path d="M489.5 638.47v-3.27h-61.86v10c53.15-.03 42.87 2.18 61.86-6.73zm0-10.25c0-2.57 0-1.65-61.86-1.65 0 2.57-.04 1.65 61.86 1.65z" fill="#553e37"/><path fill="#553e37" d="M427.64 616.6h61.86v9.97h-61.86zm61.86-6.98c0-2.57 0-1.65-61.86-1.65 0 2.57-.04 1.65 61.86 1.65z"/><path fill="#553e37" d="M427.64 598h61.86v9.97h-61.86zm61.86-7c0-2.57 0-1.65-61.86-1.65 0 2.59-.04 1.65 61.86 1.65z"/><path fill="#553e37" d="M427.64 579.4h61.86v9.97h-61.86zm61.86-6.98c0-2.57 0-1.65-61.86-1.65 0 2.57-.04 1.65 61.86 1.65z"/><path fill="#553e37" d="M427.64 560.8h61.86v9.97h-61.86zm61.86-6.98c0-2.57 0-1.65-61.86-1.65 0 2.57-.04 1.65 61.86 1.65z"/><path fill="#553e37" d="M427.64 542.19h61.86v9.97h-61.86zm61.86-6.97c0-2.57 0-1.65-61.86-1.65 0 2.57-.04 1.65 61.86 1.65z"/><path fill="#553e37" d="M427.64 523.59h61.86v9.97h-61.86zm61.86-6.97c0-2.57 0-1.65-61.86-1.65 0 2.57-.04 1.65 61.86 1.65z"/><path fill="#553e37" d="M427.64 504.99h61.86v9.97h-61.86zM489.5 498c0-2.57 0-1.65-61.86-1.65 0 2.59-.04 1.65 61.86 1.65z"/><path fill="#553e37" d="M427.64 486.39h61.86v9.97h-61.86zm61.86-6.97c0-2.57 0-1.66-61.86-1.66 0 2.57-.04 1.66 61.86 1.66z"/><path fill="#553e37" d="M427.64 467.79h61.86v9.97h-61.86zm61.86-6.97c0-2.57 0-1.66-61.86-1.66 0 2.57-.04 1.66 61.86 1.66z"/><path fill="#553e37" d="M427.64 449.19h61.86v9.97h-61.86zm61.86-6.98c0-2.57 0-1.65-61.86-1.65 0 2.57-.04 1.65 61.86 1.65z"/><path fill="#553e37" d="M427.64 430.59h61.86v9.97h-61.86zm61.86-6.98c0-2.57 0-1.65-61.86-1.65 0 2.57-.04 1.65 61.86 1.65z"/><path fill="#553e37" d="M427.64 411.99h61.86v9.97h-61.86zM489.5 405c0-2.57 0-1.65-61.86-1.65 0 2.58-.04 1.65 61.86 1.65z"/><path fill="#553e37" d="M427.64 393.39h61.86v9.97h-61.86zm61.86-6.98c0-2.57 0-1.65-61.86-1.65 0 2.57-.04 1.65 61.86 1.65z"/><path fill="#553e37" d="M427.64 374.79h61.86v9.97h-61.86zm61.86-6.98c0-2.57 0-1.65-61.86-1.65 0 2.57-.04 1.65 61.86 1.65zm0-11.62c-.23 0-.18-.87 0 7.74z"/><path d="M489.34 356.19h-61.7v10h61.86c0-2.97.03-.95-.16-10zm-.14-6.98c.4 0 .3.33.3-1.65-.45 0-.34-.33-.3 1.65z" fill="#553e37"/><path d="M427.64 347.56c0 2.57 0 1.65 61.56 1.65-.05-2.57.04-1.65-61.56-1.65z" fill="#553e37"/><path d="M489 337.58c.23 11.09.05 10 .54 10-.04-10.02.26-10-.54-10z" fill="#553e37"/><path fill="#553e37" d="M427.64 347.56h61.52l-.2-9.98h-61.32v9.98zm61.17-16.95c.83 0 .69.05.69-.14-.88-.56-.7-.54-.69.14z"/><path d="M427.64 330.61c66.94 0 61.86.68 61.86-1.65-61.9.04-61.86-.96-61.86 1.65z" fill="#553e37"/><path fill="#553e37" d="M427.64 318.98h61.86v9.97h-61.86zm0-6.98c61.9 0 61.86.92 61.86-1.65-61.9.01-61.86-.91-61.86 1.65z"/><path fill="#553e37" d="M427.64 300.38h61.86v9.97h-61.86zm0-6.97c61.9 0 61.86.92 61.86-1.65-61.9 0-61.86-.92-61.86 1.65z"/><path fill="#553e37" d="M427.64 281.78h61.86v9.97h-61.86zm0-6.97c61.9 0 61.86.91 61.86-1.66-61.9 0-61.86-.91-61.86 1.66z"/><path fill="#553e37" d="M427.64 263.18h61.86v9.97h-61.86zm0-6.97c61.9 0 61.86.91 61.86-1.66-61.9 0-61.86-.91-61.86 1.66z"/><path fill="#553e37" d="M427.64 244.58h61.86v9.97h-61.86zm0-6.97c61.9 0 61.86.91 61.86-1.66-61.9.05-61.86-.95-61.86 1.66z"/><path fill="#553e37" d="M427.64 225.98h61.86v9.97h-61.86zm0-6.98c61.9 0 61.86.92 61.86-1.65-61.9 0-61.86-.92-61.86 1.65z"/><path fill="#553e37" d="M427.64 207.38h61.86v9.97h-61.86zm0-6.98c61.9 0 61.86.92 61.86-1.65-61.9 0-61.86-.92-61.86 1.65z"/><path fill="#553e37" d="M427.64 188.78h61.86v9.97h-61.86zm0-6.98c61.9 0 61.86.92 61.86-1.65-61.9 0-61.86-.92-61.86 1.65z"/><path fill="#553e37" d="M427.64 170.18h61.86v9.97h-61.86zm0-6.98c61.9 0 61.86.92 61.86-1.65-61.9 0-61.86-.92-61.86 1.65z"/><path fill="#553e37" d="M427.64 151.58h61.86v9.97h-61.86zm0-8.58c0 2.57-.05 1.65 55.5 1.65-4.81-2.41.04-1.65-55.5-1.65z"/><path d="M427.64 133v10h52.16c-25.23-12.61-11.2-10-52.16-10zm0-8.65V126h20.5c-3.82-2.2-.14-1.65-20.5-1.65z" fill="#553e37"/><path d="M427.64 114.37v10h17.65c-17.49-10.28-15.04-10-17.65-10z" fill="#553e37"/><path d="M929 113.68v558.37c2.88.12 5.77.23 8.65.31V113.83zm17 .21v558.67c2.89 0 5.77.08 8.65.09V113.87q-4.29.03-8.65.02zm-51.13-1.46v557.33q4.33.39 8.65.73V112.86c-2.87-.13-5.76-.27-8.65-.43zm204.63 27.25v515.74q4.34-1.09 8.65-2.26V142.85c-2.9-1.05-5.79-2.11-8.65-3.17zM911.93 113.2v557.91c2.88.2 5.76.37 8.64.53V113.48zm51.15.57v558.85c2.89 0 5.77-.07 8.65-.14V113.59c-2.87.08-5.73.13-8.65.18zm34.11-1.2v558.8c2.89-.19 5.77-.41 8.65-.63V112q-4.32.32-8.65.57zm34.1-1.52v557.11q4.34-.54 8.65-1.14V115.15q-4.38-2.04-8.65-4.1zm-51.15 2.29v558.89q4.32-.16 8.64-.38V113q-4.31.2-8.64.34zm102.31 19.84v526.26c2.89-.64 5.77-1.29 8.65-2V136.52q-4.36-1.67-8.65-3.34zm-17.05-6.88v536.58q4.33-.79 8.65-1.67V129.84q-4.38-1.76-8.65-3.54zm-204.82-16.16v555.69c2.89.39 6 .78 8.84 1.15V110.81c-2.88-.22-5.95-.44-8.84-.67zm153.66 1.28V670q4.34-.4 8.65-.88V110.7c-2.89.3-5.76.49-8.65.72zm15.09-1.31c-3.18.31-3.62.22.47.22zm-151.51 1.29V668q4.33.5 8.65.94V112l-8.65-.6zm-204.63 84.12v143.26c2.86.62 5.75 1.24 8.65 1.84v-155a99.84 99.84 0 00-8.65 9.9zm36.3-29.83c-3.42 1.75-2.2 0-2.2 179.64 3 .48 5.87.93 8.65 1.33V163.73zm-53.35 169.08c2.8.71 5.69 1.41 8.65 2.1V208.25c-11.59 20.5-8.65 8.28-8.65 126.52zm34.1-156.67v164.19c2.91.56 5.8 1.1 8.65 1.6v-172q-4.59 2.95-8.65 6.21zm447.91 466.04c-6.07-101.95-4.54-107.22-4.54 1.48zM639.08 330.07c2.68.82 5.58 1.66 8.65 2.5v-83c-10.89 29.25-8.65 11.78-8.65 80.5zm-8.4-2.82v-31.88c-10.9 29.26-12.51 27.2 0 31.88zm144.83-182.43v504.69c2.88.69 5.76 1.38 8.64 2V141.87q-4.27 1.49-8.64 2.95zm34.1-12.11V657.1q4.33.87 8.65 1.7V129.38q-4.26 1.62-8.65 3.33zm-17.05 6.23v514.53c2.88.64 5.77 1.27 8.65 1.89V135.83c-2.84 1.04-5.73 2.08-8.65 3.11zm-68.21 22.22v186.6c3.11.36 6 .65 8.65.84V158.49zM826.66 126v534.38q4.33.78 8.65 1.51V122.33q-4.21 1.83-8.65 3.67zm-85.26 29.87v193c12.77-.36 8.65.37 8.65-195.75zm102.32-37.33v544.75q4.32.69 8.64 1.33V114.35q-4.15 2.1-8.64 4.19zm-85.27 31.9v494.77l8.65 2.22V147.61q-4.29 1.39-8.65 2.83zm289.9-31.44v546.79c2.88-.45 5.77-.91 8.64-1.4V122.75c-2.91-1.25-5.8-2.52-8.64-3.75zm142.7 51.32l-6.28-1.95v175.44c2.9-.36 5.78-.77 8.65-1.21 0-172.32 1.31-168.6-2.37-172.28zm10.77 11.52v159.34q4.35-.78 8.65-1.7v-147c-2.78-3.61-5.65-7.17-8.65-10.64zm51.18 92.45v53.15c2.9-1 5.78-2.13 8.65-3.25-.02-23.9 2.21-19.39-8.65-49.9zm-119.39-122.5v180.45l8.65 13V154.71q-4.35-1.45-8.65-2.92zm-17.05-5.93v505c2.88-.83 5.77-1.68 8.65-2.56V148.9q-4.37-1.51-8.65-3.04zm51.16 17.14v182.5q4.33-.31 8.64-.74v-179c-2.89-.92-5.78-1.83-8.64-2.76zm68.21 70.84V333c2.89-.86 5.78-1.76 8.64-2.7 0-86.2 2.88-73.36-8.64-96.46zm-85.27-76.34v188.75q4.35-.08 8.65-.27V160.32zm68.21 46.81v133.28q4.35-1 8.65-2.19V218.22q-4.12-7.12-8.65-13.91z" fill="#f6e0cf"/><path d="M621.12 321.05c-.23.58.1 1.22.91 1.93-.03-5.6.44-5.35-.91-1.93zm9.56 6.2c2.44.91 5.26 1.85 8.4 2.82V272.8c-10.58 28.42-8.4 16.2-8.4 54.45zm17.05 5.32c2.68.73 5.49 1.47 8.41 2.2V227c-11.2 30.09-8.41 8.93-8.41 105.57zm17.06-124.32v128.62c2.75.65 5.56 1.28 8.4 1.91V195.52a107.61 107.61 0 00-8.4 12.73zm17.05-22.6v155c2.8.57 5.61 1.13 8.4 1.67V178.1a102.06 102.06 0 00-8.4 7.55zm17.05-13.81v172c2.85.51 5.66 1 8.4 1.44V166.85q-4.41 2.39-8.4 4.99zm17.05-8.11v182.93c2.94.42 5.75.78 8.41 1.1v-186.6zm17.06-5.24V348.6c3.25.24 6.09.34 8.4.28v-193zm18.28 484.82l7.17 1.9c0-282.13 2.96-210.16-7.17-1.9zm7.17-492.87l-8.4 2.69v190c3-5.58 8.14-14.62 8.14-14.62 1.72 40.95.26-108.51.26-178.07zm8.65-2.83v499.82c2.8.7 5.61 1.4 8.41 2.08V144.82zm17.05-5.74v509.69q4.22 1 8.41 1.91V138.94q-4.15 1.47-8.41 2.93zm17.06-6.04v519.53l8.4 1.74V132.71c-2.75 1.05-5.56 2.08-8.4 3.12zm17.05-6.45V658.8q4.2.81 8.4 1.58V126c-2.74 1.13-5.54 2.25-8.4 3.38zm17.05-7.05v539.56q4.22.72 8.41 1.4V118.54q-4.08 1.91-8.41 3.79zm25.27-12.22c-2.55 1.41-5.42 2.83-8.22 4.24v550.27c2.81.42 5.42.82 8.22 1.21zm8.84.7V667c2.8.35 5.6.68 8.4 1V111.4c-2.82-.19-5.6-.4-8.4-.59zm17.05 1.19v557q4.2.44 8.4.83v-557.4c-2.79-.14-5.59-.31-8.4-.43zm17.05.86v557.63q4.22.33 8.41.62V113.2c-2.8-.11-5.6-.2-8.41-.34zm17.05.62v558.16q4.21.23 8.41.41V113.68q-4.2-.08-8.41-.2zm17.06.35v558.53c2.8.09 5.6.15 8.4.2V113.89c-2.79-.01-5.6-.03-8.4-.06zm17.05.04v558.78h8.4V113.77c-2.79.04-5.59.08-8.4.1zm17.05-.28v558.89q4.21-.11 8.41-.25V113.34q-4.2.15-8.41.25zm17.05-.59v558.85c2.81-.15 5.61-.3 8.41-.48v-558.8c-2.8.15-5.6.3-8.41.43zm17.06-1v558.74q4.2-.35 8.4-.73V111.42q-4.18.33-8.4.58zm17.05-1.67c0 .51 0 .38 3.95 0zm8.4 0c-2 0-1.8-.15 0 .72z" fill="#c7ab80"/><path d="M1022.89 110.7v558.43c2.8-.3 5.61-.63 8.4-1 0-599 4.43-558.58-8.4-557.43zm17.05 4.45V667q4.21-.59 8.41-1.23V119q-4.26-1.93-8.41-3.85zm17.06 7.6v541.64q4.21-.72 8.41-1.51V126.3c-2.84-1.17-5.64-2.36-8.41-3.55zm17.05 7.09v531.37q4.2-.86 8.4-1.77V133.18c-2.82-1.11-5.63-2.18-8.4-3.34zm17.05 6.68v521q4.22-1 8.4-2.05V139.68q-4.23-1.58-8.4-3.16zm17.05 6.33v510.31c2.81-.75 5.61-1.54 8.41-2.34v-505c-2.82-.96-5.63-1.96-8.41-2.97zm17.06 6.05v499.36q4.2-1.29 8.4-2.64c0-153.17-11.55-241.35-2.68-317.41 3.83 5.76 2.68 31.37 2.68-176.42q-4.23-1.44-8.4-2.89zm17.05 5.81c0 191.6-.39 190 .7 191.61 2.58 0 5.15 0 7.7-.07V157.5zm17.05 5.61V346q4.23-.18 8.41-.48V163q-4.23-1.32-8.41-2.68zm17.05 5.43v179q4.23-.42 8.41-.95V168.37q-4.23-1.3-8.41-2.62zm17.06 6.97V342.6q4.21-.66 8.4-1.42V181.84c-2.7-3.12-5.51-6.16-8.4-9.12zm17.05 19.8v147c2.81-.59 5.62-1.22 8.4-1.89V204.31q-4.03-6.03-8.4-11.79zm17.05 25.7V335.4q4.23-1.14 8.41-2.38c0-111.89 2.8-95.43-8.41-114.8zm17.05 34.44v77.66q4.23-1.38 8.41-2.88c.02-60.86 2.18-49.79-8.41-74.78zm17.06 71.53q2.89-1.12 5.78-2.29c-7.71-29.77-5.78-26.79-5.78 2.29z" fill="#c7ab80"/></svg>