<svg xmlns="http://www.w3.org/2000/svg" viewBox="0 0 700 700"><path fill="#7e9eac" d="M0 0h700v700H0z"/><path d="M234.65 418.93H122.81v2.91h113.63l-.08-3.82c-2.14-.02-1.71-.28-1.71.91zm0 10.19H122.81V432h113.84l-.08-3.83c-2.38.04-1.92-.24-1.92.95zm-145.49 9.29c-.1 5.12.18 4.88.18.9h33.47v2.92h114.05l-.08-3.82zm.18-182.58h33.47v2.92c167.33 0 151.47 1.64 149.16-3.83H54.34c-1.48 5.36-6.49 3.83 35 3.83zm145.31 142.71H122.81v2.92H236l-.07-3.83c-1.62 0-1.28-.27-1.28.91zM89.34 245.64h33.47v2.91c162.34 0 147.21 1.64 144.48-3.82H57.36c-2.06 5.26-5.37 3.82 32 3.82zm145.31 163.09H122.81v2.92h113.41l-.07-3.82c-1.88 0-1.5-.28-1.5.9zM122.81 207.78c109.44 0 96.38 1.25 89.17-2.92-6.76 0-92.88-2.51-97.18 0 9.62 0 8.01-.97 8.01 2.92zm0 10.22c134.3 0 116.83 1.25 108.35-2.92-30.44 0-30.42.51-30.42-.9-69.12 0-147.4.9-77.93.9zm-33.47 99c1.91 0 1.51.23 1.9-.91H47.71c8.38 5.1 3.73 3.83 41.63 3.83zm111.4 172.37c-68.12 0-146 .91-77.93.91v2.92c101.4 0 90.95 1.25 101.33-2.92-23.43 0-23.4.5-23.4-.91zM89.34 276.22h33.47v2.91c174.73 0 158.14 1.65 156.48-3.82H48.68c-1.49 5.37-7.34 3.82 40.66 3.82zM89 448.6l-.08 3.82c.62 0 .46.53.46-2.91h33.47v2.91h114.22l-.07-3.82zm.34-141.8h33.47v2.91c164.39 0 164.42-.35 164.42.63.14-.13.14 0-.66-4.45H40.2c-1.48 5.35-8.66 3.82 49.14 3.82zm0-40.8h33.47v2.92c171.33 0 155.08 1.64 153.12-3.82H51.51c-1.48 5.35-6.91 3.82 37.83 3.82zm145.31 122.34H122.81v2.92h113l-.08-3.82c-1.36 0-1.08-.24-1.08.9zm-145.9 70.45l-.08 3.83c.9 0 .67.58.67-2.92h33.47v2.92h114.47l-.08-3.83zM88.54 469l-.07 3.82c1.17 0 .87.58.87-2.92h33.47v2.92h114.68l-.08-3.82zm-.2 10.18l-.08 3.82c1.45 0 1.08.59 1.08-2.91h33.47V483H237.7l-.08-3.82zm1-182.58h33.47v2.92c180.49 0 162.92 1.64 161.74-3.82H43c-1.49 5.35-8.24 3.82 46.31 3.82zm104.18 202.97H129.3a158.75 158.75 0 0064.22 0zM89.34 225.25h33.47v2.92c149.81 0 135.39.67 133.83-1.58-7.12-3-2.07-2.25-22-2.25 0 2.26 0 0-160.06 0-1.13.45-2 .59-5.75 3.83h20.5zm145.31 112.13H122.81v2.91h111.94c-.05-2.45-.1-5.37-.1-2.91zm-33.91-11.1c-76.49 0-154.76.9-77.93.9v2.92h111.73l-.06-2.92c-33.76 0-33.74.51-33.74-.9zm36.39-6.37c33.71 0 32.38 1.07 41.74-3.83-55.87 0-43.74-1.15-41.74 3.83zm-41.4-125.27c-23.36 2.87-45.14 3.25-64.61 0-1.48 1-3 2-4.48 2.94 85.36 0 75.19 1.27 69.09-2.94zM89.34 286.41h33.47v2.92c178 0 160.73 1.63 159.33-3.83H45.86c-1.49 5.36-7.81 3.83 43.48 3.83z" fill="#d19e7b"/><path d="M200.74 317c0-2.45-180.33 0-77.93 0v2.92h111.52l-.06-2.92zM89.35 429.47c-.06 2.85-.08 2.57 0 2.57zm145.3-71.71H122.81v2.92h112.36l-.08-3.82c-.58 0-.44-.23-.44.9zm0 20.39H122.81v2.92h112.78l-.08-3.82c-1.09 0-.86-.25-.86.9zM89.34 235.44h33.47v2.92c162.3 0 142.17 1.63 138.92-3.82-201.36 0-197.82-2.13-201.29 3.82h28.9zM234.65 368H122.81v2.91h112.57l-.08-3.82c-.85-.04-.65-.27-.65.91zm0-20.43H122.81v2.92H235c-.1-3.18-.35-5.2-.35-2.92z" fill="#d19e7b"/><path d="M200.74 499.57v-1.65c-9.44 2.37-9.74 1.65 0 1.65z" fill="#936c5c"/><path d="M122.81 496.65c-6.26 0-10.77-.61 6.49 2.92 71.86 0 71.44 1.52 71.44-5.47 48.47 0-26.54-.9-77.93-.9zm0-10.19H89.56c9.15 4.16-.07 2.91 111.18 2.91v-5.46h33.91v1.79c8.44-4 9-2.7-111.84-2.7zm-33.47-.1c0-4 .37-3.36-1.08-3.36-.07 3.41-.35 2.7 1.08 3.36zm33.47-10.1H89.34c0-4.14.3-3.45-.87-3.45l-.13 6.37h112.4v-5.46h33.91c0 6.83-.92 5.46 3 5.46l-.13-6.37H122.81zm0-10.19H89.34v-3.45c-1 0-.66-.09-.8 6.37h112.2v-5.47h33.91c0 6.72-.87 5.47 2.76 5.47l-.13-6.37H122.81zm0-10.19H89.34v-3.46c-.72 0-.46 0-.59 6.37h112v-5.46h33.91c0 6.77-.81 5.46 2.55 5.46l-.13-6.37H122.81zm0-10.2H89.34c0-6.67-.27-2.84-.38 2.92h111.78v-5.47h33.91c0 6.47-.78 5.47 2.34 5.47l-.13-6.37h-114zm0-10.19H89.35c0-6.19-.06-3.36-.19 2.92h111.58v-5.47h33.91c0 6.3-.71 5.47 2.13 5.47l-.13-6.37H122.81zm0-10.19H89.43l-.06 2.91h111.37v-5.46h33.91v5.46c2.56 0 1.94 1.28 1.79-6.37H122.81zm0-10.2H89.64l-.06 2.9h111.16v-5.47h33.91V418c2.28 0 1.73 1.27 1.57-6.37H122.81zm0-10.19h-33l-.06 2.92h111v-5.47h33.91v5.47c2 0 1.52 1.27 1.36-6.37H122.81zm0-10.19H90.05l-.05 2.91h110.74v-5.46h33.91v5.46c1.72 0 1.31 1.27 1.15-6.37h-113zm0-10.2H90.25v2.92h110.49V382h33.91v5.47c1.43 0 1.1 1.24.94-6.37H122.81zm0-10.19H90.46l-.06 2.92h110.34v-5.47h33.91v5.47c1.15 0 .89 1 .73-6.38H122.81zm0-10.19H90.67l-.06 2.91h110.13v-5.46h33.91v5.46c1 0 .65.06.52-6.37H122.81zm0-10.2H90.87l-.06 2.92h109.93v-5.47h33.91v5.47c.69 0 .44 0 .31-6.37H122.81zm0-10.19H91.08l-.08 2.92h109.74v-5.47h33.91c0 7.89.26 7 .1-.91H122.81zm111.84-7.28v-1.22zm-111.84-2.92H91.29l-.06 2.92h109.51V331c80.4 0 2.47-.91-77.93-.91zm77.93-12.74c80.08 0 2.15-.9-77.93-.9v3.45H91.49l-.06 2.92h109.31zM88.2 325c2.44-7.13 5.35-5-33.33-5a59.07 59.07 0 0033.33 5z" fill="#936c5c"/><path d="M237.72 324.73c12.1-.48 22.88-2 31.85-4.82h-32.44a10.86 10.86 0 01.59 4.82zm-146.06-9.89c-.51 1.49-.55 1.24 0 1.24zm-52.6-5.13c0 .39 0 .42.08 0z" fill="#936c5c"/><path d="M200.74 316.08v-5.46h33.91v5.46h44.22c1.6-.83 8.36-4.72 8.36-6.37H122.81v3.46H89.34v-3.46c-50.28 0-50.15-.16-50.28.31 10.88 8.67-.22 6.06 161.68 6.06zm0-15.65h33.91v5.46h51.92q-.58-3.21-1.22-6.37H122.81V303H89.34v-3.45H42l-1.77 6.37h160.51zm0-10.2h33.91v5.47h49.9c-.47-2.15-.95-4.27-1.46-6.37H122.81v3.45H89.34v-3.45H44.8L43 295.7h157.74zm0-10.23h33.91v5.46h47.49c-.55-2.14-1.13-4.27-1.72-6.37H122.81v3.46H89.34v-3.46H47.62l-1.76 6.37h154.88zm0-10.15h33.91v5.46h44.64q-1-3.22-2-6.37H122.81v3.45H89.34v-3.45H50.45l-1.77 6.37h152.06zm0-10.2h33.91v5.47h41.28c-.76-2.16-1.57-4.28-2.4-6.37H122.81v3.45H89.34v-3.45H53.28l-1.77 6.37h149.23zm0-10.19h33.91v5.46H272c-.91-2.15-1.85-4.28-2.83-6.37H122.81V252H89.34v-3.46H56.11l-1.77 6.37h146.4zm0-10.2h33.91v5.47h32.64q-1.62-3.24-3.36-6.37H122.81v3.45H89.34v-3.45h-28.9a45.21 45.21 0 00-3.08 6.37h143.38zm0-10.19h33.91v5.47h27.08c-1.29-2.17-2.63-4.3-4-6.37H122.81v3.45H89.34v-3.45h-20.5a39.9 39.9 0 00-5.84 6.37h137.74zm0-10.19h33.91v5.46h16.73c-19.93-8.6.28-6.37-128.57-6.37v3.46H89.34c0-5 3-4-14.75 2.91h126.15zm0-10.2c53.54 0-24.4-.9-77.93-.9v3.45c-23.3 0-17.41-1-25.24 2.92h103.17zm0-10.19c1.07 0 1.13.24-.61-.91-77.39 0-71.76-1-77.32 2.44 0 4.8-38.27 3.94 77.93 3.94z" fill="#936c5c"/><path d="M122.81 493.2v-2.92h-24.3c9.21 3.72 5.26 2.92 24.3 2.92z" fill="#553e37"/><path d="M122.81 496.65v-3.45H106.3c11.85 4.14 10.85 3.45 16.51 3.45zm-33.47-16.56h33.47v2.92H89.34zm0 6.37c.28 0 .29 0 0-.1z" fill="#553e37"/><path d="M89.56 486.46h33.25V483H89.34c0 3.86-.08 3.32.22 3.46zm-.22-16.57h33.47v2.92H89.34zm0 2.92h33.47v3.45H89.34zm0-13.11h33.47v2.92H89.34zm0 2.92h33.47v3.45H89.34zm0-13.11h33.47v2.92H89.34z" fill="#553e37"/><path fill="#553e37" d="M89.34 452.42h33.47v3.45H89.34zm0-13.11h33.47v2.92H89.34zm0 2.92h33.47v3.45H89.34zm.01-13.11c0 .05 0 .75 0 0zm0 0h33.47v2.92H89.35zm0 2.92h33.47v3.45H89.35zm.21-13.11c-.31 0-.22-.45-.22 2.91.22 0 .15.42.22-2.91z"/><path fill="#553e37" d="M122.81 421.84v-2.91H89.56l-.06 2.91h33.31z"/><path d="M89.43 425.3c.08-4 .13-3.46-.09-3.46 0 3.84-.03 3.46.09 3.46z" fill="#553e37"/><path fill="#553e37" d="M89.43 425.3h33.38v-3.46H89.5l-.07 3.46zm.33-16.57c-.56 0-.42-.48-.42 2.92.49 0 .36.48.42-2.92z"/><path fill="#553e37" d="M122.81 411.65v-2.92H89.76l-.06 2.92h33.11z"/><path d="M89.64 415.1c.08-4 .21-3.45-.3-3.45 0 3.95-.12 3.45.3 3.45z" fill="#553e37"/><path fill="#553e37" d="M89.64 415.1h33.17v-3.45H89.7l-.06 3.45zm.36-16.56c-.84 0-.63-.58-.63 2.92.73 0 .53.54.63-2.92z"/><path fill="#553e37" d="M122.81 401.45v-2.91H89.97l-.06 2.91h32.9z"/><path d="M89.84 404.91c.08-4.11.26-3.45-.5-3.45 0 4.01-.16 3.45.5 3.45z" fill="#553e37"/><path fill="#553e37" d="M89.84 404.91h32.97v-3.46h-32.9l-.07 3.46zm.34-16.57c-1.11 0-.84-.58-.84 2.92 1.04 0 .77.58.84-2.92z"/><path fill="#553e37" d="M122.81 391.26v-2.91H90.18l-.06 2.91h32.69z"/><path d="M90.05 394.72c.08-4.15.33-3.46-.71-3.46 0 4.11-.23 3.46.71 3.46z" fill="#553e37"/><path fill="#553e37" d="M90.05 394.72h32.76v-3.46H90.12l-.07 3.46zm.33-16.57c-1.38 0-1-.58-1 2.92 1.27 0 .93.58 1-2.92z"/><path fill="#553e37" d="M122.81 381.07v-2.92H90.38l-.06 2.92h32.49z"/><path d="M90.25 384.52c.09-4.14.4-3.45-.91-3.45 0 4.14-.34 3.45.91 3.45z" fill="#553e37"/><path fill="#553e37" d="M90.25 384.52h32.56v-3.45H90.32l-.07 3.45zm.34-16.52c-1.66 0-1.25-.59-1.25 2.91 1.59-.04 1.18.55 1.25-2.91z"/><path fill="#553e37" d="M122.81 370.88v-2.92H90.59l-.06 2.92h32.28z"/><path d="M90.46 374.33c.08-4.15.47-3.46-1.12-3.46 0 4.13-.34 3.46 1.12 3.46z" fill="#553e37"/><path fill="#553e37" d="M90.46 374.33h32.35v-3.45H90.53l-.07 3.45zm.34-16.57c-1.92 0-1.46-.67-1.46 2.92 1.84 0 1.38.7 1.46-2.92z"/><path fill="#553e37" d="M122.81 360.68v-2.92H90.8l-.06 2.92h32.07z"/><path d="M90.67 364.14c.08-4.15.53-3.46-1.33-3.46 0 4.15-.44 3.46 1.33 3.46z" fill="#553e37"/><path fill="#553e37" d="M90.67 364.13h32.14v-3.45H90.74l-.07 3.45zm.33-16.56c-2.18 0-1.66-.7-1.66 2.92 2.09 0 1.59.74 1.66-2.92z"/><path fill="#553e37" d="M122.81 350.49v-2.92H91l-.06 2.92h31.87z"/><path d="M90.87 353.94c.09-4.31.56-3.45-1.53-3.45 0 4.24-.49 3.45 1.53 3.45z" fill="#553e37"/><path fill="#553e37" d="M90.87 353.94h31.94v-3.45H90.94l-.07 3.45zm.34-16.56c-2.43 0-1.87-.75-1.87 2.91 2.35 0 1.79.76 1.87-2.91z"/><path fill="#553e37" d="M122.81 340.29v-2.91h-31.6l-.06 2.91h31.66z"/><path d="M91.08 343.75c.09-4.32.62-3.46-1.74-3.46 0 4.34-.53 3.46 1.74 3.46z" fill="#553e37"/><path fill="#553e37" d="M91.08 343.75h31.73v-3.46H91.15l-.07 3.46zm.33-16.57c-2.68 0-2.07-.75-2.07 2.92 2.66 0 2 .75 2.07-2.92z"/><path fill="#553e37" d="M122.81 330.1v-2.92H91.42l-.06 2.92h31.45z"/><path d="M91.29 333.55c.08-4.33.68-3.45-2-3.45.05 4.35-.53 3.45 2 3.45z" fill="#553e37"/><path fill="#553e37" d="M91.29 333.55h31.52v-3.45H91.36l-.07 3.45zm.27-13.64c.07-3.5.29-2.92-.63-2.92-1.24 3.64-1.51 2.92.63 2.92z"/><path d="M90.93 317c-2.08 0-1.59-.69-1.59 2.92.79-.01.43.46 1.59-2.92zm.69-.01l-.06 2.92h31.25v-2.92H91.62z" fill="#553e37"/><path d="M89.34 323.36c2.8 0 2.13.89 2.22-3.45-1.56 0-2.22-.53-2.22 3.45z" fill="#553e37"/><path d="M89.34 319.91c0 2.28-.19 2.28.59 0zm2.15 3.45h31.32v-3.45H91.56l-.07 3.45zm-2.15-16.56h33.47v2.92H89.34z" fill="#553e37"/><path fill="#553e37" d="M89.34 309.71h33.47v3.45H89.34zm0-13.11h33.47v2.92H89.34zm0 2.92h33.47v3.45H89.34zm0-13.11h33.47v2.92H89.34zm0 2.92h33.47v3.45H89.34zm0-13.11h33.47v2.92H89.34z"/><path fill="#553e37" d="M89.34 279.13h33.47v3.45H89.34zm0-13.11h33.47v2.92H89.34zm0 2.92h33.47v3.45H89.34zm0-13.11h33.47v2.92H89.34zm0 2.92h33.47v3.45H89.34zm0-13.11h33.47v2.92H89.34z"/><path fill="#553e37" d="M89.34 248.55h33.47V252H89.34zm0-13.11h33.47v2.92H89.34zm0 2.92h33.47v3.45H89.34zm0-13.11h33.47v2.92H89.34zm0 2.92h33.47v3.45H89.34zM122.81 218v-2.92H95.75c-8.54 4.14-14.42 2.92 27.06 2.92z"/><path d="M89.57 218c-.27 0-.23 0-.23.11z" fill="#553e37"/><path d="M89.34 218.08v3.35h33.47V218c-33.46 0-33.1-.09-33.47.08zm33.47-10.3c0-3.89 1.6-2.92-8-2.92-6.68 3.89-8.7 2.92 8 2.92z" fill="#553e37"/><path d="M103.3 211.23h19.51v-3.45c-16.09 0-11.22-.9-19.51 3.45zM122.81 200l-1.63 1c2.06 0 1.63.35 1.63-1zm77.93 294.1v3.82q6.51-1.64 13-3.82zm0-4.73c0 1.41 0 .91 23.4.91 3.22-1.28 7.25-.91-23.4-.91z" fill="#553e37"/><path d="M234.65 485.7v-1.79h-33.91v5.46c29.13 0 23.5 1.22 33.91-3.67zm0-5.61c0-1.41 0-.91-33.91-.91 0 1.41-.02.91 33.91.91z" fill="#553e37"/><path fill="#553e37" d="M200.74 473.72h33.9v5.47h-33.9zm33.91-3.83c0-1.41 0-.9-33.91-.9 0 1.41-.02.9 33.91.9z"/><path fill="#553e37" d="M200.74 463.52h33.9v5.47h-33.9zm33.91-3.82c0-1.41 0-.91-33.91-.91 0 1.41-.02.91 33.91.91z"/><path fill="#553e37" d="M200.74 453.33h33.9v5.47h-33.9zm33.91-3.82c0-1.41 0-.91-33.91-.91 0 1.4-.02.91 33.91.91z"/><path fill="#553e37" d="M200.74 443.13h33.9v5.47h-33.9zm33.91-3.82c0-1.41 0-.9-33.91-.9 0 1.41-.02.9 33.91.9z"/><path fill="#553e37" d="M200.74 432.94h33.9v5.47h-33.9zm33.91-3.82c0-1.41 0-.91-33.91-.91 0 1.41-.02.91 33.91.91z"/><path fill="#553e37" d="M200.74 422.75h33.9v5.47h-33.9zm33.91-3.82c0-1.41 0-.91-33.91-.91 0 1.41-.02.91 33.91.91z"/><path fill="#553e37" d="M200.74 412.55h33.9v5.47h-33.9zm33.91-3.82c0-1.41 0-.9-33.91-.9 0 1.4-.02.9 33.91.9z"/><path fill="#553e37" d="M200.74 402.36h33.9v5.47h-33.9zm33.91-3.82c0-1.41 0-.91-33.91-.91 0 1.37-.02.91 33.91.91z"/><path fill="#553e37" d="M200.74 392.17h33.9v5.47h-33.9zm33.91-3.83c0-1.4 0-.9-33.91-.9 0 1.41-.02.9 33.91.9z"/><path fill="#553e37" d="M200.74 381.97h33.9v5.47h-33.9zm33.91-3.82c0-1.41 0-.9-33.91-.9 0 1.4-.02.9 33.91.9z"/><path fill="#553e37" d="M200.74 371.78h33.9v5.47h-33.9zm33.91-3.78c0-1.41 0-.91-33.91-.91 0 1.37-.02.91 33.91.91z"/><path fill="#553e37" d="M200.74 361.59h33.9v5.47h-33.9zm33.91-3.83c0-1.4 0-.9-33.91-.9 0 1.41-.02.9 33.91.9z"/><path fill="#553e37" d="M200.74 351.39h33.9v5.47h-33.9zm33.91-3.82c0-1.41 0-.9-33.91-.9 0 1.4-.02.9 33.91.9z"/><path fill="#553e37" d="M200.74 341.2h33.9v5.47h-33.9zm33.91-3.82c0-1.41 0-.91-33.91-.91 0 1.41-.02.91 33.91.91zm0-6.38c-.13 0-.1-.48 0 4.24z"/><path d="M234.56 331h-33.82v5.46h33.91c0-1.6.01-.46-.09-5.46zm-.08-3.82c.22 0 .17.18.17-.9-.25 0-.19-.18-.17.9z" fill="#553e37"/><path d="M200.74 326.28c0 1.41 0 .9 33.74.9-.03-1.4.02-.9-33.74-.9z" fill="#553e37"/><path d="M234.35 320.81c.12 6.08 0 5.47.3 5.47 0-5.48.16-5.47-.3-5.47z" fill="#553e37"/><path fill="#553e37" d="M200.75 326.28h33.71l-.11-5.47h-33.6v5.47zm33.52-9.28c.45 0 .38 0 .38-.08-.49-.32-.39-.3-.38.08z"/><path d="M200.74 317c36.69 0 33.91.37 33.91-.91-33.93-.01-33.91-.51-33.91.91z" fill="#553e37"/><path fill="#553e37" d="M200.74 310.62h33.9v5.47h-33.9zm0-3.82c33.93 0 33.91.5 33.91-.91-33.93 0-33.91-.5-33.91.91z"/><path fill="#553e37" d="M200.74 300.43h33.9v5.47h-33.9zm0-3.83c33.93 0 33.91.51 33.91-.9-33.93 0-33.91-.51-33.91.9z"/><path fill="#553e37" d="M200.74 290.23h33.9v5.47h-33.9zm0-3.82c33.93 0 33.91.5 33.91-.91-33.93 0-33.91-.5-33.91.91z"/><path fill="#553e37" d="M200.74 280.04h33.9v5.47h-33.9zm0-3.82c33.93 0 33.91.5 33.91-.91-33.93 0-33.91-.5-33.91.91z"/><path fill="#553e37" d="M200.74 269.85h33.9v5.47h-33.9zm0-3.85c33.93 0 33.91.51 33.91-.9-33.93.02-33.91-.49-33.91.9z"/><path fill="#553e37" d="M200.74 259.65h33.9v5.47h-33.9zm0-3.82c33.93 0 33.91.5 33.91-.91-33.93 0-33.91-.5-33.91.91z"/><path fill="#553e37" d="M200.74 249.46h33.9v5.47h-33.9zm0-3.82c33.93 0 33.91.5 33.91-.91-33.93 0-33.91-.5-33.91.91z"/><path fill="#553e37" d="M200.74 239.26h33.9v5.47h-33.9zm0-3.82c33.93 0 33.91.5 33.91-.9-33.93 0-33.91-.54-33.91.9z"/><path fill="#553e37" d="M200.74 229.07h33.9v5.47h-33.9zm0-3.82c33.93 0 33.91.5 33.91-.91-33.93 0-33.91-.5-33.91.91z"/><path fill="#553e37" d="M200.74 218.88h33.9v5.47h-33.9zm0-4.73c0 1.41 0 .9 30.42.9-2.63-1.29.02-.9-30.42-.9z"/><path d="M200.74 208.68v5.47h28.59c-13.83-6.88-6.14-5.47-28.59-5.47zm0-4.68c0 1.4-.07.9 11.24.9-2.09-1.25-.08-.9-11.24-.9z" fill="#553e37"/><path d="M200.74 198.49V204h9.68c-9.59-5.67-8.24-5.51-9.68-5.51z" fill="#553e37"/><path d="M475.49 198.11v306c6.77.29 4.73 34.1 4.73-305.91zm9.34.12v306.15c6.78.12 4.74 33.94 4.74-306.17zM456.8 502.85c6.77.62 4.73 34.26 4.73-305.19-6.77-.3-4.73-34.23-4.73 305.19zm112.14-290.49c0 313.79-2 283.22 4.73 281.39V214.1zm-102.8 291.23c6.77.46 4.74 34.05 4.74-305.59-6.77-.2-4.74-34.17-4.74 305.59zm28.04-305.43c0 339.92-2 306.34 4.73 306.18 0-340.34 2.03-306.29-4.73-306.18zm18.69-.66c0 340.17-2 306.42 4.73 305.88 0-340.28 2.04-306.26-4.73-305.88zm18.69-.83c0 339.09-2 305.62 4.73 304.68V198.91q-2.4-1.11-4.73-2.24zm-28.04 1.25c0 339.92-2 306.42 4.74 306.07 0-340.32 2.03-306.3-4.74-306.07zm56.07 10.88c0 319.82-2 288.91 4.74 287.32v-285.5q-2.39-.9-4.74-1.82zm-9.34-3.8c0 326.34-2 294.5 4.73 293.13V207c-1.59-.68-3.17-1.32-4.73-2zM438 500.69c7 1 4.84 34.23 4.84-304.15-6.91-.54-4.84-34.09-4.84 304.15zm84.21-303.82c0 339.78-2 306.37 4.74 305.64.05-340.1 2.05-306.17-4.74-305.64zm8.27-.72c-1.75.17-2 .13.26.13zm-83.03 305.73c6.8.78 4.74 34.35 4.74-304.72-6.79-.41-4.74-33.94-4.74 304.72zM335.31 321.47c1.57.34 3.15.68 4.74 1v-84.92c-6.77 6.79-4.74-.26-4.74 83.92zm19.89-94.86c-1.87 1-1.2 0-1.2 98.45 1.63.26 3.21.51 4.74.72 0-111.39 1.58-100.72-3.54-99.17zM326 319.27c1.54.39 3.12.77 4.74 1.15v-70.48c-6.38 11.23-4.74 4.53-4.74 69.33zm18.65-85.86v90c1.6.31 3.18.6 4.74.88V230q-2.5 1.63-4.74 3.41zm245.46 255.4c-3.32-55.87-2.48-58.76-2.48.81zM316.62 316.69c1.46.46 3.05.91 4.74 1.38v-45.48c-5.97 16.02-4.74 6.41-4.74 44.1zm-4.62-1.54v-17.47c-6 16.04-6.84 14.91 0 17.47zm79.38-99.98v276.58c1.58.38 3.16.76 4.74 1.12 0-310.08 2.04-279.98-4.74-277.7zm18.69-6.63v287.37q2.37.48 4.74.93c0-322.46 2.03-290.84-4.74-288.3zm-9.35 3.46v282l4.74 1c0-316.46 2.04-285.44-4.74-283zm-37.38 12.13v102.26c1.71.2 3.3.35 4.74.46 0-119.85 1.92-104.77-4.74-102.72zm56.08-19.27v292.85l4.73.83c0-328.71 2.04-296.47-4.73-293.68zm-46.73 16.37V327c7-.19 4.74.21 4.74-107.27zm56.07-20.46V499.3c1.58.25 3.16.5 4.74.73 0-335.19 2.03-302.41-4.74-299.26zM382 218.25v271.14c1.59.42 3.17.82 4.74 1.22.03-304.32 2.07-274.55-4.74-272.36zM540.9 201c0 332.9-2 300.05 4.74 298.9V203.08zm78.21 28.15c-4.83-1.49-3.45-15.63-3.45 95.07q2.39-.3 4.74-.66c0-94.43.72-92.42-1.29-94.41zm5.89 6.32v87.31c1.58-.28 3.16-.6 4.74-.93.01-86.64 2.04-78.56-4.74-86.38zm28 50.66v29.13q2.38-.86 4.74-1.79c.04-13.1 1.26-10.62-4.74-27.34zM587.63 219c0 106.24-2 95.83 4.73 106V220.59zm-9.35-3.25c0 307.27-2 277.38 4.74 275.32V217.41zm28.04 9.4c0 110.86-2 100.26 4.74 99.59v-98.1zM643.7 264v54.35q2.37-.71 4.74-1.48c0-47.29 1.56-40.25-4.74-52.87zM597 222.12v103.44c1.59 0 3.17-.07 4.74-.15V223.67zm37.35 25.66v73q2.39-.57 4.74-1.2c0-72.05 1.58-62.34-4.74-71.8z" fill="#f6e0cf"/><path d="M306.77 311.75c-.12.32.06.67.5 1.06 0-3.07.24-2.93-.5-1.06zm5.23 3.4c1.34.5 2.89 1 4.61 1.54v-31.38c-5.79 15.57-4.61 8.87-4.61 29.84zm9.36 2.92c1.47.4 3 .8 4.6 1.2v-59c-6.13 16.43-4.6 4.84-4.6 57.8zm9.34 2.35c1.51.36 3.05.7 4.61 1.05V243c-6.38 8.27-4.61.86-4.61 77.42zm9.35 2.05c1.53.32 3.07.63 4.6.92v-90c-6.57 5.31-4.6-.21-4.6 89.08zm9.34-92.47v94.29c1.57.28 3.11.54 4.61.79 0-111.96 2-99.39-4.61-95.08zm9.35-4.46v100.24c1.61.23 3.15.44 4.6.61 0-117.75 1.84-102.82-4.6-100.85zm9.34-2.87v104.18c1.79.13 3.35.19 4.61.15 0-121.73 1.85-106.35-4.61-104.33zm10.02 265.68c1.31.36 2.62.7 3.93 1-.03-154.57 1.62-115.12-3.93-1zm3.9-270.1c-1.52.5-3.06 1-4.6 1.48v104.12c7.36-13.54 4.6.2 4.6-105.6zm4.77-1.54v273.9l4.61 1.14c0-307.18 1.98-277.21-4.61-275.04zm9.35-3.15v279.31l4.6 1.05c0-313.24 1.98-282.63-4.6-280.36zm9.34-3.31V495l4.61 1c0-319.47 1.93-288.15-4.61-285.75zm9.35-3.54v290.13c1.54.3 3.07.59 4.61.87 0-325.41 1.97-293.59-4.61-291zm9.34-3.86v295.69c1.54.26 3.08.52 4.61.76 0-331.93 1.98-299.3-4.61-296.45zm13.85-6.7c-1.39.78-3 1.55-4.5 2.33V500c6.43 1 4.5 34.34 4.5-303.85zm4.84 305.17c6.58.83 4.61 34.08 4.61-304.46-6.58-.44-4.61-34.22-4.61 304.46zm9.35 1.07c6.57.68 4.61 34.08 4.61-305-6.59-.31-4.61-33.88-4.61 305zm9.34.86c6.58.52 4.61 34.24 4.61-305.41-6.58-.24-4.61-34.16-4.61 305.41zm9.35.63c6.58.36 4.61 34 4.61-305.77-6.59-.11-4.61-34.05-4.61 305.77zm9.34-305.69v306.09c6.58.19 4.61 33.27 4.61-306zm9.35.02v306.22h4.61V198.16zm9.34-.15c0 329.72-2.27 306.4 4.61 306.14 0-340.26 1.98-306.31-4.61-306.14zm9.35-.32c0 329.68-2.28 306.44 4.61 306 0-339.87 1.97-306.3-4.61-306zm9.34-.53c0 340.06-2 306.39 4.61 305.78 0-340.14 1.97-306.23-4.61-305.78zm9.4-.93c0 .27 0 .2 2.16 0zm4.56 0c-1.1 0-1-.09 0 .39z" fill="#c7ab80"/><path d="M527 196.47c0 339.84-2 306.31 4.61 305.5-.05-328.28 2.39-306.13-4.61-305.5zm9.29 2.44c0 336-2 302.78 4.61 301.76V201c-1.56-.69-3.09-1.38-4.61-2.09zm9.35 4.17c0 329.59-2 297.23 4.61 296V205zM555 207c0 323.45-2 291.66 4.61 290.22V208.8zm9.33 3.62c0 317.11-2 286 4.61 284.37V212.36zm9.34 3.48c0 310.58-2 280.26 4.61 278.37V215.75zm9.33 3.31c0 304-2 274.34 4.61 272.21 0-83.94-6.33-132.26-1.47-173.94 2.09 3.15 1.47 17.19 1.47-96.69-1.53-.52-3.06-1.05-4.61-1.58zm9.36 3.18c0 105-.21 104.11.39 105h4.22V222.12c-1.54-.51-3.08-1.01-4.61-1.53zm9.35 3.08c0 112.86-2 102 4.61 101.48v-100zm9.35 2.97c0 108.83-2 98.41 4.6 97.58v-96.14c-1.54-.47-3.08-.95-4.6-1.44zm9.34 3.82c0 107-1.84 93.5 4.61 92.32-.01-92.53 1.99-85.58-4.61-92.32zm9.35 10.85v80.54c1.54-.32 3.07-.67 4.6-1 0-79.8 1.97-70.85-4.6-79.54zm9.34 14.09v64.22c1.54-.42 3.08-.85 4.61-1.31 0-61.31 1.53-52.31-4.61-62.91zm9.35 18.87v42.56c1.54-.5 3.07-1 4.6-1.57-.04-33.36 1.19-27.26-4.6-40.99zm9.34 39.2c1.06-.41 2.12-.82 3.17-1.26-4.22-16.3-3.17-14.67-3.17 1.26z" fill="#c7ab80"/></svg>