<svg xmlns="http://www.w3.org/2000/svg" viewBox="0 0 1400 780"><path fill="#d9d7ea" d="M1.14 0h1400v776.93H1.14z"/><path d="M748.67 249.83a1.25 1.25 0 002.5 0 1.25 1.25 0 00-2.5 0zm-3.8 1.19c0-7 10.58-7 10.58 0s-10.58 6.98-10.58-.02z" fill="#220512"/><path d="M671.5 247.05a1.25 1.25 0 01-2.49 0 1.25 1.25 0 012.49 0z" fill="#fabfaa"/><path d="M602 374.07s5.23 32.86 1.42 51.42-19.51 56.17-17.61 65.69 3.81 30 3.81 30l-39.52-36.66-38.55-42.85c58.53-60.84 46.13-51.98 90.45-67.6z" fill="#fdf6f0"/><path d="M617.7 429.3c-1.92-19.21 3.9-46.85 8.07-65.68v-.09a57.78 57.78 0 0019.58-14.68c5.72-6.67 19.52-7.15 19.52-7.15s-.48 3.34-1 5.73-3.69 4.61-7.58 6.87c-4.23 2.44-9.25 4.88-12.41 7.41-2.27 1.8-1.68 13.84-.64 26.89.77 9.68 1.79 19.91 2.07 26.9.41 10.22 5.82 16.74 11.41 23.48 5.46 6.59 11.09 13.4 12.3 24.07-13.22-5.61-27.95-13.73-45.48-22.33l6.06-11.42z" fill="#6bb8ce"/><path d="M755.45 251c0-7-10.58-7-10.58 0s10.58 7 10.58 0zm7.15-.06c0 15.44-23.33 15.44-23.33 0s23.33-15.41 23.33.06z" fill="#5e91d7"/><path d="M699.49 286.61c-1.45-.42.92-2.26 2.68-2.59 0 0 1 1.7 0 2.59s-2.05.17-2.68 0z" fill="#220512"/><path d="M628.17 725.4s3.38-7.69 7.8-18.59c39.92 30 146.39-17.55 146.39-17.55 3.75 9.27 7.64 21.19 13.36 24.23s5.83 2.93 28.12-12.39l3.55 5.71c-64.49 31.75-60.3 33.25-112.82 33.83-65.34.71-84.93 14.47-132.28-28.1l6.33-10.23c15.38 13.77 18.27 13.26 39.55 23.09z" fill="#faa6b3"/><path d="M819.54 164.62c-15.46-16.43-22.62-22.87-24.28-46.89 13.53 15.79 20 21.59 23 37.94.54 2.66.95 5.63 1.28 8.95z" fill="#4793cc"/><path d="M619.25 233.05c-6.07 19.44 2.54 26.9-5 33.21-1-4.71-10.86-4.07-9.64-34.64.53-13.17 9-25.88 16.31-15 0 .01.08 10.73-1.67 16.43z" fill="#fabfaa"/><path d="M680.09 236c5.48 4.05 7.62 20.94 7.62 20.94s-6.43 4.28-22.62 4.52c-8.34.12-11.88-3.69-13.4-7.53-1.45-3.61-1.12-7.24-1.35-7.7 0 0 6.9-9.28 11.66-11.61a17.8 17.8 0 016-1.61 17.59 17.59 0 0112.09 2.99zm-.48 11.3c0-15.43-23.32-15.43-23.32 0s23.32 15.47 23.32.03z" fill="#fff"/><path d="M672.58 211.35h16.12l.06.05c-1.45 1.47-2.86 2.91-4.27 4.3l-19.23 1.4c1.33-.93 2.69-1.9 4-2.92.85-.68 1.97-1.63 3.32-2.83z" fill="#a13b39"/><path d="M662.87 594c52.07 5.35 54.56-.43 90.49-8.51h.17c.72 8.07 1.67 16.4 3 24.9-36.72 14.48-55.55 15.18-97.7 13.7 1.11-8.32 2.44-18.49 3.78-30.11z" fill="#faa6b3"/><path d="M813.9 452.63c-7.9-10.83-2.09-34.82-23.4-79 34 9.64 47.17 18.43 87.12 65.7-19.64 27.36-13.64 19.47-40 48.07l-21.42 23.34c.28-9.6 2.44-51.62-2.3-58.11z" fill="#fdf6f0"/><path d="M550.1 484.52l39.52 36.66c-2.4 98.19-7.29 56.23-17.72 166.07-.28 2.93-.57 6-.85 9.11-1.33 14.59 1 19.95 7 23.13a52.21 52.21 0 009.72 3.53c12.84 3.8 11.18 12.73 11.18 12.73l-13.95 7.5 19.08 25 8.77 11.48h-50.37c-30.62-33.42-28.46-35.35-27.13-60.51 1.47-28-10.81-70.2 8.09-139.48 2.85-10.48 6.66-95.22 6.66-95.22z" fill="#fdd4c0"/><path d="M751.17 249.83a1.25 1.25 0 01-2.5 0 1.25 1.25 0 012.5 0z" fill="#fff"/><path d="M754.32 237.7c13.09-2.32 11.74-3.07 13.09 0 9.65-2.7 9.12-4.24 3.19 4.28 11.66 0 10.44-1.24 3.25 4.75 7.55 4.1 7.7 2.8-1.91 4.29 0 0-6.9-9.28-11.66-11.6a17.64 17.64 0 00-6-1.62z" fill="#220512"/><path d="M750 533.56v.22a1.77 1.77 0 010-.21z" fill="#faa6b3"/><path d="M614.25 266.26c7.54-6.31-1.07-13.77 5-33.21 1.78-5.7 1.67-16.42 1.67-16.42-7.27-10.89-15.78 1.82-16.31 15-1.22 30.56 8.69 29.92 9.64 34.63zm51-49.21c-15.32 10.7-28.63 16.26-32.77 32.78-5.69 7.84-7.66 10.23-9.28 23.56 2.07 3.62 8.22 3.77 12.1 3.11 3.29 17.87 10 31.57 25 43.11v.05s-29.55 9.79-51-5.56c-2.39-1.72-4.79-3.52-7.15-5.37-18.73-14.72-35.3-33.13-35-45.41.36-13.83-7.86-2 0-16.68s11.79-22.5 11.79-22.5-24.49 6.44-31.34 0-26.86-19.64-22.22-29.63l4.64-10s14.14 28.55 42.6 18.92 31.67-34.28 34.52-43.2-16.78 18.92-36.77 22.49-20-1.07-20-1.07c49.86-2.45 60.93-56.4 72.83-70.69 8.93-10.72 43.93-59.63 96.05-39.28S771 105.24 771 105.24l18.92 8.56c3.74 1.71 4.38 3.22 5.38 3.88 1.66 24 8.82 30.46 24.28 46.89-.33-3.32-.74-6.29-1.24-9l5.86-.1s16.8 14.28 9.9 61.42-9.9 55.33-9.9 55.33c-11.61 15.23 1.05 39.9 15.37 48.92-37.81 3-21.84-27.86-35.7 13.39-8.56 4-22.1-1-50.93-9.08 24.11-12.63 25.49-25.73 31.37-36.68 0 0 14.8 3.33 23.37-7.14s15.23-21 15.71-27.14 2.85-20.46-3.81-22.85-13.33.48-15.24 3.81-2.84 22.38-5.71 28.56-20 27.14-26.65 28.56a35.75 35.75 0 01-10.68 1c16.36-18.64 27-46.68 22.84-70.84h.17l-.19-.13a54.7 54.7 0 00-3.12-10.85c-6.67-16.66-22.86-51.89-22.86-51.89-31.12 44.7-39 50.13-82.83 64.74 2.85-2.69 6-5.68 9.19-8.9 1.41-1.39 2.82-2.83 4.27-4.3 16.72-17.12 35.49-39.36 41.29-58.2 0 0-42.58 44.82-57.47 58.15-1.35 1.2-2.47 2.15-3.31 2.78-1.37 1.02-2.73 1.99-4.06 2.92z" fill="#9e417d"/><path d="M647.23 677.22c47.88 14.79 68.33 10.09 126.11-7.14q2.8 6.49 6.22 12.95c1 1.8 1.87 3.94 2.81 6.23S675.89 736.78 636 706.81c3.45-8.59 7.59-19.2 11.23-29.59z" fill="#fdf6f0"/><path d="M824.16 272.32s3-8.21 9.9-55.33-9.9-61.42-9.9-61.42l-5.86.1c-3-16.35-9.51-22.15-23-37.94 1.2.78 2.94.34 11-2.44 11.43-3.94 15.35-6.44 33.2-.72s38.21 15 43.2 35.35 8.22 61.76 3.21 69.62S861.31 257 857 266.26c-4.63 10-6.92 31.15 15 26.07-.69.39-13.65 7.42-18.18 5s-1.06 3.92-1.06 3.92c-20.34-9.33-21.05-12.25-28.6-28.93z" fill="#9e417d"/><path d="M784.08 222.69l.19.13h-.17s-.01-.1-.02-.13z" fill="#a13b39"/><path d="M801.24 740.62a66.21 66.21 0 00-13.59 6.2c-4.28 2.85-11.9 1.42-11.43-4.76s14.75-10.48 22.37-19 31.9-9 32.37-10.48c.17-.51 0-7.34-.18-16.19-.39-15.91-1.07-38.38-.77-42.36.48-6.19-7.14-43.32-7.14-57.6 0-33.34-10.2-40.61-6.66-85.68l21.42-23.34a60.28 60.28 0 01-1.43 11.43c-1.43 6.66-2.85 82.83-2.38 94.26.68 16.29 8.8 10.29 15.71 55.22 15.23 98.94 18.09 91.78-18.09 131.44h-63.79c15.51-11.69 34.72-20.52 40-37.66.86-2.85-2.29-2.72-6.41-1.48z" fill="#f7d6c5"/><path d="M739.27 251c0 15.44 23.33 15.44 23.33 0s-23.33-15.47-23.33 0zm-4.7 10.78s2.14-16.9 7.62-21a18.69 18.69 0 0118.09-1.37c4.76 2.32 11.66 11.6 11.66 11.6-.23.46.1 4.1-1.35 7.7-1.52 3.85-5.05 7.66-13.41 7.54-16.18-.25-22.61-4.51-22.61-4.51z" fill="#fff"/><path d="M741 450.22c-25 25.27-45.46 24.09-72 12.83-1.21-10.67-6.84-17.48-12.3-24.07 25.49 19.79 58.95 12.37 88.75-.29a84.1 84.1 0 00-4.45 11.53z" fill="#fdf6f0"/><path d="M688.7 211.35h-16.12c14.89-13.33 57.47-58.15 57.47-58.15-5.8 18.84-24.57 41.08-41.29 58.2z" fill="#fabfaa"/><path d="M714.75 287.05c-.12 1.12-3.74 1.18-3.74-1.51.46-1.05 3.84.64 3.74 1.51z" fill="#220512"/><path d="M737.84 476.19c-25.29 6.92-40.93 7.29-68.38 6.07q0-7.87-.21-15.83a33.43 33.43 0 00-.23-3.38c26.52 11.26 47 12.44 71.93-12.83a81.58 81.58 0 00-2.81 11.45 35.41 35.41 0 00-.13 8.23c.14 1.94.38 4 .7 6.16zm-69.91 57.39c.5-8.49.91-17.25 1.17-26.21 9.76.24 11.32 2.25 73.62-11.26 1.5 6.28 3 12 4 16 .35 1.48.68 3 1 4.58s-20.22 15.16-45.39 16.84c-23.69 1.59-33.33.22-34.4.05zm105.41 136.5c-57.78 17.23-78.23 21.93-126.11 7.14 2.79-8 5.29-15.81 7-22.52 43.51 1.07 46.52 2.41 107-17.32l.77-.14a217.78 217.78 0 0011.34 32.84zm-106.78-116.7c6.23-.3 29.82-1.28 41.15.07 12.95 1.56 41.51-19.36 42.22-19.88a1.77 1.77 0 000 .21v.3l2 32.32c-12 2-79.9 12.9-86.71 2.32.48-4.97.93-10.09 1.34-15.34z" fill="#faa6b3"/><path d="M767.65 421.94c37.75-20.4 8.08-3.47 5.73-52 5.36 3.41 12.28 3 17.12 3.68 21.31 44.21 15.5 68.2 23.4 79 4.74 6.49 2.58 48.51 2.31 58.08-3.54 45.07 6.66 52.34 6.66 85.68 0 14.28 7.62 51.41 7.14 57.6-.3 4 .38 26.45.77 42.36l-6.93 4.75c-22.29 15.32-22.34 15.47-28.12 12.39s-9.61-15-13.36-24.23c-.94-2.29-1.86-4.43-2.81-6.23q-3.42-6.46-6.22-12.95A217.78 217.78 0 01762 637.24c-2.35-9.08-4.14-18.06-5.5-26.86-1.33-8.5-2.28-16.83-3-24.9-1.71-18.91-2.21-36.41-3.55-51.4v-.52c-.56-6-1.26-11.69-2.25-16.85-.29-1.57-.62-3.1-1-4.58-1-4-2.46-9.74-4-16-1.56-6.53-3.1-13.67-4-20.05a82.55 82.55 0 01-.7-6.16c15.41-22.1 28.42-19 38.21-34.41z" fill="#6bb8ce"/><path d="M651.69 254c-6.8-4.46-6.62-2.28-1.35-7.7.23.42-.1 4.05 1.35 7.7z" fill="#220512"/><path d="M734.57 218.89c-2.23.74-4.13-9.85 24.28-7.37 5.43.47 18 6.09 25.23 11.17v.1c-2.11-.48-23.93-5.31-30.84-5.09-7.24.24-17.24.71-18.67 1.19z" fill="#a13b39"/><path d="M711 285.54c0 2.69 3.62 2.63 3.74 1.51.11-.87-3.27-2.56-3.74-1.51zm31.18-44.75c-5.48 4.05-7.62 21-7.62 21s6.42 4.28 22.61 4.52c8.36.12 11.89-3.69 13.41-7.54 6.78-4.46 6.6-2.28 1.34-7.7 9.61-1.49 9.46-.19 1.91-4.29 7.19-6 8.41-4.75-3.25-4.75 5.93-8.52 6.46-7-3.19-4.28-1.35-3.07 0-2.32-13.09 0v.1a17.63 17.63 0 00-12.11 2.94zm-40 43.23c-1.76.33-4.13 2.17-2.68 2.59.63.17 1.69.89 2.68 0s-.01-2.61-.01-2.61zm-16.63 21.74c9.53 9.87 21.84 11.49 27.6 9.77 3.4-1 7.51-3.88 10.37-5.55 2.76-.69 3.72-1.41 2.73-1.25-9-4.87-5.4-.94-14.64-6.42-1.94 2.36-4.18 2.25-6.43 0-13.26 2.76-13.51 1.6-19.64 3.45zM648.43 242c-7.55 4.09-7.7 2.78 1.91 4.28-5.27 5.42-5.45 3.24 1.35 7.7 1.52 3.84 5.06 7.65 13.4 7.53 16.19-.24 22.62-4.52 22.62-4.52s-2.14-16.89-7.62-20.94A17.59 17.59 0 00668 233v-.11c-13.09-2.31-11.73-3.06-13.09 0-9.64-2.7-9.11-4.23-3.17 4.29-11.74.04-10.5-1.18-3.31 4.82zm-16 7.85c4.14-16.52 17.45-22.08 32.77-32.78l19.23-1.4c-3.23 3.22-6.34 6.21-9.19 8.9 43.85-14.61 51.71-20 82.83-64.74 0 0 16.19 35.23 22.86 51.89a54.7 54.7 0 013.09 10.94c-7.22-5.08-19.8-10.7-25.23-11.17-28.41-2.48-26.51 8.11-24.28 7.37 1.42-.48 11.43-.95 18.69-1.19 6.91-.22 28.73 4.61 30.84 5.09 4.19 24.16-6.48 52.2-22.84 70.84a35.75 35.75 0 0010.68-1c6.67-1.42 23.79-22.36 26.65-28.56s3.81-25.22 5.71-28.56 8.57-6.19 15.24-3.81 4.29 16.67 3.81 22.85-7.14 16.67-15.71 27.14-23.37 7.14-23.37 7.14c-5.88 10.95-7.26 24.05-31.37 36.68a137 137 0 01-15.06 6.64s-22.55 10.48-28.74 11.43c-8.28 1.26-27.49-4.48-40.12-18.09a91.2 91.2 0 01-8.71-5.92c-15-11.54-21.71-25.24-25-43.11a215.59 215.59 0 01-2.76-26.6z" fill="#fcd3bf"/><path d="M753.36 585.5c-35.93 8.08-38.42 13.86-90.49 8.51h-.26c.89-7.8 1.79-16.26 2.63-25.25 6.81 10.58 74.68-.36 86.71-2.32l-2-32.32c1.34 15 1.84 32.49 3.55 51.4zm-83.9-103.24c27.45 1.22 43.09.85 68.38-6.07l.87-.13c.94 6.38 2.48 13.52 4 20.05-62.3 13.51-63.86 11.5-73.62 11.26.25-8.23.38-16.62.37-25.11z" fill="#fdf6f0"/><path d="M685.54 305.76c19.2 6.83 32.33 5.61 38 4.22-2.86 1.67-7 4.53-10.37 5.55-5.79 1.72-18.1.1-27.63-9.77z" fill="#f69590"/><path d="M645.31 415.5c-.28-7-1.3-17.22-2.07-26.9 0 0 11.59 32.13 33.49 41.89s31.89 10.23 41.89 6.42 31.54-18.48 32.67-23 10-27.91 10-27.91c.09 1.13.16 2.25.21 3.35.47 11.42-5.71 34.27-11 40.94a46.52 46.52 0 00-5 8.44c-29.8 12.66-63.26 20.08-88.75.29-5.62-6.78-11.03-13.3-11.44-23.52z" fill="#faa6b3"/><path d="M676.73 430.49c-21.9-9.76-33.49-41.89-33.49-41.89-1-13.05-1.63-25.09.64-26.89 3.16-2.53 8.18-5 12.41-7.41l.05.1s-1 37.29 9.44 47.77S702.44 426 702.44 426s27.81-13.81 35.33-21.43 15.13-32.38 13.23-44.29c4.21 1.61 7.13 2 7.13 3.32s2.33 11.9 3.13 22.36c0 0-8.84 23.34-10 27.91s-22.67 19.24-32.67 23-19.96 3.38-41.86-6.38z" fill="#fdf6f0"/><path d="M623.17 273.39c1.62-13.33 3.59-15.72 9.28-23.56a215.59 215.59 0 002.82 26.67c-3.88.66-10.03.5-12.1-3.11z" fill="#fabfaa"/><path d="M663.43 247.39c0 7 10.6 7 10.6 0s-10.6-7.01-10.6 0zm-7.14-.06c0-15.43 23.32-15.43 23.32 0s-23.32 15.44-23.32 0z" fill="#5e91d7"/><path d="M702.44 426s-26.19-13.33-36.66-23.8-9.44-47.77-9.44-47.77l-.05-.1c3.89-2.26 7.12-4.53 7.58-6.87s1-5.73 1-5.73c5.24-4.75 4.15-16.17 4.15-16.17 12.63 13.61 31.84 19.35 40.12 18.09 6.19-.95 28.74-11.43 28.74-11.43v11.39h.65c-1 1.84.1 5.73 4.41 12.4a36 36 0 008.1 4.3c1.9 11.91-5.72 36.65-13.23 44.26S702.44 426 702.44 426z" fill="#fcd3bf"/><path d="M707.71 553.45c-11.33-1.35-34.92-.37-41.15-.07.51-6.4 1-13 1.37-19.8 1.11.17 10.71 1.54 34.32 0 25.17-1.68 45.39-16.84 45.39-16.84 1 5.16 1.69 10.8 2.25 16.85-.67.5-29.23 21.41-42.18 19.86z" fill="#fdf6f0"/><path d="M650.34 246.26c-9.61-1.5-9.46-.19-1.91-4.28-7.19-6-8.41-4.76 3.26-4.76-5.94-8.52-6.47-7 3.17-4.29 1.36-3.06 0-2.31 13.09 0v.11a17.8 17.8 0 00-6 1.61c-4.71 2.35-11.61 11.61-11.61 11.61z" fill="#220512"/><path d="M625.77 363.62c-4.17 18.83-10 46.47-8.07 65.68h11.9l-6.06 11.42c17.53 8.6 32.26 16.72 45.48 22.33a33.43 33.43 0 01.23 3.38q.19 7.95.21 15.83c0 8.49-.12 16.88-.36 25.11-.26 9-.67 17.72-1.17 26.21-.39 6.78-.86 13.4-1.37 19.8-.41 5.25-.86 10.37-1.32 15.34-.84 9-1.74 17.45-2.63 25.25-1.34 11.62-2.67 21.79-3.78 30.11-1.19 8.92-2.14 15.73-2.57 19.91a79.85 79.85 0 01-2 10.71c-1.69 6.71-4.19 14.56-7 22.52-3.64 10.39-7.78 21-11.26 29.59-4.42 10.9-7.8 18.59-7.8 18.59-21.28-9.83-24.16-9.32-39.54-23.09-4.2-3.77-9.34-8.59-16-15l-.69-.07c10.43-109.84 15.32-67.88 17.72-166.07 0 0-1.9-20.48-3.81-30s13.8-47.12 17.61-65.69-1.49-51.41-1.49-51.41 4.28-.95 6.65-3.32c2-2 8.87-3.35 17.08-7.22z" fill="#6bb8ce"/><path d="M771.94 251c5.26 5.42 5.44 3.24-1.34 7.7 1.4-3.58 1.11-7.22 1.34-7.7z" fill="#220512"/><path d="M767.65 779.72H612.83l-8.77-11.48c106.62 5.91 83.54 3.62 160.74-10 8.08-1.43 27.07-9.1 29.22-10.53s7.22-7.07 7.22-7.07c4.12-1.24 7.27-1.37 6.4 1.44-5.27 17.12-24.48 25.92-39.99 37.64z" fill="#163262"/><path d="M726.24 308.73c-16.24-3.31-7.67-.5-40.7-3 6.13-1.85 6.38-.69 19.63-3.45 2.25 2.25 4.49 2.36 6.43 0 9.24 5.51 5.63 1.58 14.64 6.45z" fill="#f69590"/><path d="M773.38 369.92c2.35 48.55 32 31.62-5.73 52l8.57 13.55c-9.79 15.39-22.8 12.31-38.21 34.41a35.41 35.41 0 01.13-8.23 81.58 81.58 0 012.86-11.43 84.1 84.1 0 014.52-11.53 46.52 46.52 0 015-8.44c5.24-6.67 11.42-29.52 11-40.94-.05-1.1-.12-2.22-.21-3.35-.8-10.46-3.13-21.07-3.13-22.36s-2.92-1.71-7.13-3.32a36 36 0 01-8.1-4.3c-4.31-6.67-5.37-10.56-4.41-12.4 2.85-5.5 23.82 7.54 29.16 19.55a14.86 14.86 0 005.68 6.79z" fill="#6bb8ce"/><path d="M776.22 742.06c-.47 6.18 7.15 7.61 11.43 4.76a66.21 66.21 0 0113.59-6.2s-5.09 5.64-7.22 7.07-21.14 9.1-29.22 10.53c-77.2 13.62-54.12 15.91-160.74 10l-19.08-25 13.93-7.5s1.66-8.93-11.18-12.73a52.21 52.21 0 01-9.72-3.53l4.3-7c47.35 42.57 66.94 28.81 132.28 28.1 52.52-.58 48.33-2.08 112.82-33.83l3.56 5.73c-.47 1.44-24.75 1.91-32.37 10.48s-21.9 12.92-22.38 19.12z" fill="#fdf6f0"/><path d="M723.51 310c-5.64 1.39-18.77 2.61-38-4.22 33 2.47 24.46-.34 40.7 3a9.62 9.62 0 00-2.7 1.22z" fill="#fff"/><path d="M663.43 247.39c0-7 10.6-7 10.6 0s-10.6 7.01-10.6 0zm5.58-.34a1.25 1.25 0 002.49 0 1.25 1.25 0 00-2.5 0z" fill="#220512"/><path d="M761.26 637.38c-60.53 19.73-63.54 18.39-107 17.32a79.85 79.85 0 002-10.71c.43-4.18 1.38-11 2.57-19.91 42.15 1.48 61 .78 97.7-13.7 1.36 8.8 3.15 17.78 5.5 26.86z" fill="#fdf6f0"/><path d="M604.05 768.24l-19.08-25 13.93-7.5s1.66-8.93-11.18-12.73a52.21 52.21 0 01-9.72-3.53c-5.91-3.18-8.28-8.54-7-23.13.28-3.15.57-6.18.85-9.11 10.43-109.84 15.32-67.88 17.72-166.07l-39.47-36.65s-3.81 84.74-6.66 95.21c-18.9 69.28-6.62 111.53-8.09 139.48-1.33 25.16-3.49 27.09 27.13 60.51h50.35l-8.77-11.48m-22.54 2.38l9.99 9.1m176.14 0h63.79c36.18-39.66 33.32-32.5 18.09-131.44-6.91-44.93-15-38.93-15.71-55.22-.47-11.43.95-87.6 2.38-94.26a60.28 60.28 0 001.43-11.43l-21.42 23.34c-3.54 45.07 6.66 52.34 6.66 85.68 0 14.28 7.62 51.41 7.14 57.6-.3 4 .38 26.45.77 42.36.22 8.85.35 15.68.18 16.19-.47 1.44-24.75 1.91-32.37 10.48s-21.89 12.84-22.37 19 7.15 7.61 11.43 4.76a66.21 66.21 0 0113.59-6.2c4.12-1.24 7.27-1.37 6.4 1.44-5.27 17.18-24.48 25.98-39.99 37.7zm46.25-11.48l-11.5 11.48m-34.75 0H612.83" fill="none" stroke="#000" stroke-miterlimit="10" stroke-width="1.13"/><path d="M604.05 768.24h0c106.62 5.91 83.54 3.62 160.74-10 8.08-1.43 27.07-9.1 29.22-10.53s7.22-7.07 7.22-7.07m-228.64-53.32c6.7 6.4 11.84 11.22 16 15 15.38 13.77 18.26 13.26 39.54 23.09 0 0 3.38-7.69 7.8-18.59 3.48-8.59 7.62-19.2 11.26-29.59 2.79-8 5.29-15.81 7-22.52a79.85 79.85 0 002-10.71c.43-4.18 1.38-11 2.57-19.91 1.11-8.32 2.44-18.49 3.78-30.11.89-7.8 1.79-16.26 2.63-25.25.46-5 .91-10.09 1.32-15.34.51-6.4 1-13 1.37-19.8.5-8.49.91-17.25 1.17-26.21.24-8.23.37-16.62.36-25.11q0-7.87-.21-15.83a33.43 33.43 0 00-.23-3.38c-1.21-10.67-6.84-17.48-12.3-24.07-5.59-6.74-11-13.26-11.41-23.48-.28-7-1.3-17.22-2.07-26.9-1-13.05-1.63-25.09.64-26.89 3.16-2.53 8.18-5 12.41-7.41 3.89-2.26 7.12-4.53 7.58-6.87s1-5.73 1-5.73-13.8.48-19.52 7.15a57.78 57.78 0 01-19.58 14.68c-8.21 3.87-15.07 5.22-17.08 7.22-2.37 2.37-6.65 3.32-6.65 3.32s5.23 32.86 1.42 51.42-19.51 56.17-17.61 65.69 3.81 30 3.81 30m160.34 12.37c-.56-6-1.26-11.69-2.25-16.85-.29-1.57-.62-3.1-1-4.58-1-4-2.46-9.74-4-16-1.56-6.53-3.1-13.67-4-20.05a82.55 82.55 0 01-.7-6.16 35.41 35.41 0 01.13-8.23 81.58 81.58 0 012.89-11.47 84.1 84.1 0 014.52-11.53 46.52 46.52 0 015-8.44c5.24-6.67 11.42-29.52 11-40.94-.05-1.1-.12-2.22-.21-3.35-.8-10.46-3.13-21.07-3.13-22.36s-2.92-1.71-7.13-3.32a36 36 0 01-8.1-4.3c-4.31-6.67-5.37-10.56-4.41-12.4 2.85-5.5 23.82 7.54 29.16 19.55a14.86 14.86 0 005.73 6.79c5.36 3.41 12.28 3 17.12 3.68 21.31 44.21 15.5 68.2 23.4 79 4.74 6.49 2.58 48.51 2.31 58.08M750 533.78a1.77 1.77 0 010-.21m80.78 162.78l-6.93 4.75c-22.29 15.32-22.34 15.47-28.12 12.39s-9.61-15-13.36-24.23c-.94-2.29-1.86-4.43-2.81-6.23q-3.42-6.46-6.22-12.95A217.78 217.78 0 01762 637.24c-2.35-9.08-4.14-18.06-5.5-26.86-1.33-8.5-2.28-16.83-3-24.9-1.71-18.91-2.21-36.41-3.55-51.4" fill="none" stroke="#000" stroke-miterlimit="10" stroke-width="1.13"/><path d="M737.77 470.24l.24-.34c15.41-22.1 28.42-19 38.21-34.41l-8.57-13.55c37.75-20.4 8.08-3.47 5.73-52a.57.57 0 010-.13M550.1 484.52l-38.55-42.85c58.53-60.84 46.13-52 90.45-67.6m235.63 113.3c26.35-28.6 20.35-20.71 40-48.07-40-47.27-53.07-56.06-87.12-65.7M578 719.49l4.3-6.95 6.33-10.23.07-.11m242.26 10.34l-3.56-5.73-3.55-5.71-.01-.02M656.34 354.4s-1 37.29 9.44 47.77S702.44 426 702.44 426s27.81-13.81 35.33-21.43 15.13-32.38 13.23-44.29h0" fill="none" stroke="#000" stroke-miterlimit="10" stroke-width="1.13"/><path d="M643.24 388.6s11.59 32.13 33.49 41.89 31.89 10.23 41.89 6.42 31.54-18.48 32.67-23 10-27.91 10-27.91m-23.45-42.38v-11.43s-22.55 10.48-28.74 11.43c-8.28 1.26-27.49-4.48-40.12-18.09 0 0 1.09 11.42-4.15 16.17m73.01-9.51a137 137 0 0015.06-6.64c24.11-12.63 25.49-25.73 31.37-36.68 0 0 14.8 3.33 23.37-7.14s15.23-21 15.71-27.14 2.85-20.46-3.81-22.85-13.33.48-15.24 3.81-2.84 22.38-5.71 28.56-20 27.14-26.65 28.56a35.75 35.75 0 01-10.68 1c16.36-18.64 27-46.68 22.84-70.84v-.1a54.7 54.7 0 00-3.1-10.98c-6.67-16.66-22.86-51.89-22.86-51.89-31.12 44.7-39 50.13-82.83 64.74 2.85-2.69 6-5.68 9.19-8.9 1.41-1.39 2.82-2.83 4.27-4.3 16.72-17.12 35.49-39.36 41.29-58.2 0 0-42.58 44.82-57.47 58.15-1.35 1.2-2.47 2.15-3.31 2.78-1.36 1-2.72 2-4 2.92-15.32 10.7-28.63 16.26-32.77 32.78a215.59 215.59 0 002.82 26.67c3.29 17.87 10 31.57 25 43.11a91.2 91.2 0 008.71 5.92" fill="none" stroke="#000" stroke-miterlimit="10" stroke-width="1.13"/><path d="M635.27 276.5c-3.88.66-10 .51-12.1-3.11 1.62-13.33 3.59-15.72 9.28-23.56m-11.53-33.2c-7.27-10.89-15.78 1.82-16.31 15-1.22 30.57 8.69 29.93 9.64 34.64 7.54-6.31-1.07-13.77 5-33.21 1.75-5.71 1.67-16.43 1.67-16.43zM872 292.32h0c-.69.39-13.65 7.42-18.18 5s-1.06 3.92-1.06 3.92c-20.33-9.32-21-12.28-28.59-28.92-11.61 15.23 1.05 39.9 15.37 48.92-37.81 3-21.84-27.86-35.7 13.39-8.56 4-22.1-1-50.93-9.08h-.11" fill="none" stroke="#000" stroke-miterlimit="10" stroke-width="1.13"/><path d="M602.1 308.71c-18.73-14.72-35.3-33.13-35-45.41.36-13.83-7.86-2 0-16.68s11.79-22.5 11.79-22.5-24.49 6.44-31.34 0-26.86-19.64-22.22-29.63l4.64-10s14.14 28.55 42.6 18.92 31.67-34.28 34.52-43.2-16.78 18.92-36.77 22.49-20-1.07-20-1.07c49.86-2.45 60.93-56.4 72.83-70.69 8.93-10.72 43.93-59.63 96.05-39.28s51.8 33.58 51.8 33.58l18.92 8.56c3.74 1.71 4.38 3.22 5.38 3.88 1.2.78 2.94.34 11-2.44 11.43-3.94 15.35-6.44 33.2-.72s38.21 15 43.2 35.35 8.22 61.76 3.21 69.62S861.31 257 857 266.26c-4.63 10-6.92 31.15 15 26.07m-211.77 27.33s-29.55 9.79-51-5.56c-2.39-1.72-4.79-3.52-7.15-5.37" fill="none" stroke="#000" stroke-miterlimit="10" stroke-width="1.13"/><path d="M824.16 155.57s16.8 14.28 9.9 61.42-9.9 55.33-9.9 55.33m-67.45-156.26s-22.71-14.28-55.38-10.47-51.35 6.2-66.06 21.9" fill="none" stroke="#000" stroke-miterlimit="10" stroke-width="1.13"/><path d="M732.91 110.35c-2.39 1.44-29 0-46.19 10.48s-31.89 24.75-45.22 37.61m96.34-35.71s-36.27 32.84-47 41.89-29.31 40.21-41.22 48m-40.02 47.57c-14.91 14.49-10.27 27.78-7.5 48.52v0m163.18-178.36c19.48-3 39 82.75 39 105.2m16.21-64.73c8.88 12-3 20.72-10.94 36.65m-14.29-89.74c1.66 24 8.82 30.46 24.28 46.89-.33-3.32-.74-6.29-1.24-9-3.05-16.3-9.51-22.1-23.04-37.89z" fill="none" stroke="#000" stroke-miterlimit="10" stroke-width="1.13"/><path d="M685.54 305.76c9.53 9.87 21.84 11.49 27.6 9.77 3.4-1 7.51-3.88 10.37-5.55a9.62 9.62 0 012.73-1.25c1-.16 0 .56-2.73 1.25-5.64 1.39-18.77 2.61-37.97-4.22z" fill="none" stroke="#000" stroke-miterlimit="10" stroke-width=".57"/><path d="M685.54 305.76c6.13-1.85 6.38-.69 19.63-3.45 2.25 2.25 4.49 2.36 6.43 0 9.24 5.48 5.63 1.55 14.64 6.42-16.24-3.31-7.67-.5-40.7-2.97z" fill="none" stroke="#000" stroke-miterlimit="10" stroke-width=".57"/><path d="M717 282.09c.48.47 5 3.09 3 5.11-2.56 2.55-3.87 4.91-12 .84-5.94 6.55-17.17-.4-17.1-2.63.41-11.71 9.21-10.61 10.68-20" fill="none" stroke="#000" stroke-linecap="round" stroke-linejoin="round" stroke-width=".28"/><path d="M702.17 284c-1.76.33-4.13 2.17-2.68 2.59.63.17 1.69.89 2.68 0s0-2.59 0-2.59zm8.83 1.54c0 2.69 3.62 2.63 3.74 1.51.11-.87-3.27-2.56-3.74-1.51zM771.94 251c-.23.46.1 4.1-1.35 7.7-1.52 3.85-5.05 7.66-13.41 7.54-16.19-.24-22.61-4.52-22.61-4.52s2.14-16.9 7.62-21a18.69 18.69 0 0118.09-1.37C765 241.74 771.94 251 771.94 251z" fill="none" stroke="#000" stroke-miterlimit="10" stroke-width="1.13"/><path d="M762.6 251c0 15.44-23.33 15.44-23.33 0s23.33-15.47 23.33 0z" fill="none" stroke="#000" stroke-miterlimit="10" stroke-width="1.13"/><path d="M744.87 251c0-7 10.58-7 10.58 0s-10.58 7-10.58 0zm25.73 7.72c6.78-4.46 6.6-2.28 1.34-7.7 9.61-1.49 9.46-.19 1.91-4.29 7.19-6 8.41-4.75-3.25-4.75 5.93-8.52 6.46-7-3.19-4.28-1.35-3.07 0-2.32-13.09 0m-103.98 8.56c.23.46-.1 4.09 1.35 7.7 1.52 3.84 5.06 7.65 13.4 7.53 16.19-.24 22.62-4.52 22.62-4.52s-2.14-16.89-7.62-20.94A17.59 17.59 0 00668 233a17.8 17.8 0 00-6 1.61c-4.76 2.39-11.66 11.65-11.66 11.65z" fill="none" stroke="#000" stroke-miterlimit="10" stroke-width="1.13"/><path d="M656.29 247.33c0 15.44 23.32 15.44 23.32 0s-23.32-15.43-23.32 0z" fill="none" stroke="#000" stroke-miterlimit="10" stroke-width="1.13"/><path d="M674 247.39c0-7-10.6-7-10.6 0s10.6 7.01 10.6 0zM651.69 254c-6.8-4.46-6.62-2.28-1.35-7.7-9.61-1.5-9.46-.19-1.91-4.28-7.19-6-8.41-4.76 3.26-4.76-5.94-8.52-6.47-7 3.17-4.29 1.36-3.06 0-2.31 13.09 0m116.13-10.28l.19.13h-.17c-2.11-.48-23.93-5.31-30.84-5.09-7.26.24-17.27.71-18.69 1.19-2.23.74-4.13-9.85 24.28-7.37 5.43.45 18.01 6.06 25.23 11.14zm-95.38-11.34h-16.12m11.87 4.31l-19.23 1.38-.39.04M582.3 712.54c47.35 42.57 66.94 28.81 132.28 28.1 52.52-.58 48.33-2.08 112.82-33.83m-45.04-17.55S675.89 736.78 636 706.81m11.23-29.59c47.88 14.79 68.33 10.09 126.11-7.14h.12m-12.2-32.7c-60.53 19.73-63.54 18.39-107 17.32m4.5-30.62h.07c42.15 1.48 61 .78 97.7-13.7h.11m-3.28-24.88c-35.93 8.08-38.42 13.86-90.49 8.51m2.13-25.68a2.93 2.93 0 00.21.39c6.81 10.58 74.68-.36 86.71-2.32l-2-32.32v-.52h0c-.71.52-29.27 21.44-42.22 19.88-11.33-1.35-34.92-.37-41.15-.07l-1.53.07m2.8-19.88h.11c1.11.17 10.71 1.54 34.32 0 25.17-1.68 45.39-16.84 45.39-16.84m-4.9-20.61c-62.3 13.51-63.86 11.5-73.62 11.26m-.12-25.13h.48c27.45 1.22 43.09.85 68.38-6.07m3.14-25.95c-25 25.27-45.46 24.09-72 12.83-13.22-5.61-27.95-13.73-45.48-22.33l6.06-11.42H617.7c-1.92-19.21 3.9-46.85 8.07-65.68" fill="none" stroke="#000" stroke-miterlimit="10" stroke-width="1.13"/><path d="M656.32 438.68l.4.3c25.49 19.79 58.95 12.37 88.75-.29h0m5.7-188.86a1.25 1.25 0 01-2.5 0 1.25 1.25 0 012.5 0z" fill="none" stroke="#000" stroke-miterlimit="10" stroke-width="1.13"/><path d="M671.5 247.05a1.25 1.25 0 01-2.49 0 1.25 1.25 0 012.49 0z" fill="none" stroke="#000" stroke-linecap="round" stroke-linejoin="round" stroke-width=".57"/></svg>
