<svg xmlns="http://www.w3.org/2000/svg" viewBox="0 0 700 700"><path fill="#d9d7ea" d="M0 0h700v700H0z"/><path d="M308 242.78c-5.89-3.87-5.74-2-1.17-6.69.17.4-.08 3.56 1.17 6.69z" fill="#220512"/><path d="M319.79 516.36c5.91 9.19 64.9-.32 75.36-2l-1.69-27.75c1.16 12.95 1.6 28 3.06 44.34h-.14c-31.23 7-33.4 12-78.66 7.39h-.22c.77-6.81 1.56-14.17 2.29-21.98z" fill="#fdf6f0"/><path d="M271.44 248.19c-2.44-3.41-4.95-9.75-4.35-24.82.46-11.45 7.86-22.5 14.18-13 0 0 .09 9.3-1.46 14.27-5.28 16.9 2.21 23.38-4.34 28.86-.36-1.8-2.17-2.71-4.03-5.31z" fill="#fabfaa"/><path d="M325.24 236.78a1.09 1.09 0 10-2.17 0 1.09 1.09 0 002.17 0zm-7 .29c0-6.09 9.21-6.09 9.21 0s-9.24 6.09-9.24 0z" fill="#220512"/><path d="M385.59 413.36c-21.67 22-39.47 20.94-62.52 11.15-1.06-9.29-6-15.2-10.71-20.94 22.18 17.24 51.25 10.79 77.17-.25a76.87 76.87 0 00-3.94 10.04z" fill="#fdf6f0"/><path d="M428.67 346.77c18.51 38.41 13.46 59.28 20.33 68.69 4.13 5.64 2.24 42.17 2 50.47-3.06 39.18 5.8 45.51 5.8 74.48 0 12.41 6.61 44.69 6.2 50.07-.26 3.46.33 23 .68 36.82l-6 4.11c-19.39 13.32-19.43 13.46-24.44 10.78s-8.36-13-11.64-21.05c-.81-2-1.61-3.87-2.43-5.43q-3-5.61-5.41-11.25a188.61 188.61 0 01-9.82-28.55 237.69 237.69 0 01-4.78-23.34c-1.16-7.39-2-14.63-2.62-21.63-1.46-16.31-1.9-31.39-3.06-44.34v-.81c-.48-5.26-1.09-10.16-1.95-14.64-.25-1.37-.54-2.69-.84-4-.84-3.49-2.14-8.47-3.44-13.94-1.36-5.68-2.7-11.87-3.51-17.41-.27-1.88-.49-3.67-.62-5.36 13.41-19.22 24.71-16.53 33.22-29.91l-7.44-11.77c32.8-17.75 7-3 5-45.21 4.53 2.99 10.56 2.62 14.77 3.22z" fill="#6bb8ce"/><path d="M398.19 240.23c0-6.09-9.19-6.09-9.19 0s9.19 6.09 9.19 0zm-14.06 0c0-13.41 20.27-13.41 20.27 0s-20.27 13.36-20.27-.05z" fill="#5e91d7"/><path d="M392.31 239.2a1.09 1.09 0 112.17 0 1.09 1.09 0 01-2.17 0z" fill="#fff"/><path d="M412.52 240.23c4.58 4.71 4.74 2.82-1.16 6.69 1.25-3.13.97-6.29 1.16-6.69z" fill="#220512"/><path d="M438 665.78c3.57-1.08 6.31-1.2 5.55 1.24-4.57 14.9-21.27 22.57-34.74 32.73H274.23l-7.62-10c92.67 5.13 72.61 3.15 139.71-8.69 7-1.24 23.54-7.91 25.39-9.16s6.29-6.14 6.29-6.14z" fill="#163262"/><path d="M293.74 262.37c-3.38.58-8.71.45-10.51-2.69 1.41-11.6 3.12-13.67 8.07-20.48a185.47 185.47 0 002.44 23.17z" fill="#fabfaa"/><path d="M267.09 223.37c-.6 15.07 1.91 21.41 4.35 24.82 1.86 2.6 3.67 3.51 4 5.28 6.55-5.48-.94-12 4.34-28.86 1.55-5 1.46-14.27 1.46-14.27-6.24-9.47-13.69 1.58-14.15 13.03zm176.46 43.55c7.45-9.11 13.25-18.21 13.66-23.59s2.48-17.79-3.31-19.86-11.58.42-13.23 3.32-2.49 19.43-5 24.82-17.37 23.58-23.17 24.82a31.37 31.37 0 01-9.27.83c14.21-16.21 23.49-40.56 19.85-61.58h.15l-.17-.12a46.68 46.68 0 00-2.68-9.51C414.6 191.62 400.52 161 400.52 161c-27 38.85-33.88 43.56-72 56.26 2.48-2.34 5.18-4.93 8-7.73 1.22-1.21 2.46-2.47 3.71-3.74 14.54-14.89 30.84-34.21 35.88-50.59 0 0-37 39-49.95 50.54-1.18 1-2.15 1.87-2.88 2.42-1.17.89-2.35 1.73-3.51 2.54-13.32 9.31-24.89 14.13-28.47 28.5-4.95 6.81-6.66 8.88-8.07 20.48 1.8 3.14 7.13 3.27 10.51 2.69 2.85 15.53 8.67 27.44 21.73 37.48s-25.69 8.51-44.32-4.84-36.93-32.13-36.61-44.15-6.84-1.78 0-14.5 10.25-19.55 10.25-19.55-21.28 5.58-27.24 0-23.35-17.07-19.31-25.76l4-8.68s12.28 24.82 37 16.44 27.52-29.79 30-37.55-14.6 16.45-32 19.56-17.37-.94-17.37-.94c43.32-2.12 52.94-49 63.3-61.44 7.75-9.31 38.17-51.82 83.47-34.13s45 29.16 45 29.16l16.51 7.53c3.25 1.48 3.79 2.8 4.67 3.37 1.44 20.87 7.66 26.47 21.1 40.75-.28-2.89-.64-5.46-1.08-7.78l5.09-.08s14.61 12.41 8.61 53.37-8.61 48.1-8.61 48.1c-10.08 13.24.92 34.68 13.37 42.51-32.86 2.61-19-24.2-31 11.65-7.5 3.53-19.3-.89-44.3-7.89 21-11 22.15-22.37 27.27-31.89-.02.01 12.84 2.89 20.28-6.19z" fill="#9e417d"/><path d="M320.26 371.59c9.1 9.11 31.86 20.7 31.86 20.7s24.17-12 30.71-18.62 13.17-28.13 11.49-38.47c3.67 1.39 6.2 1.72 6.2 2.88s2 10.34 2.73 19.43c0 0-7.69 20.29-8.67 24.25s-19.7 16.73-28.39 20-17.39 2.9-36.42-5.58c-18.88-8.42-28.95-36-29.11-36.4-.89-11.33-1.4-21.8.56-23.39 2.74-2.19 7.11-4.31 10.78-6.43l.06.1s-.9 32.43 8.2 41.53zm-6.04 192.89c36.63 1.29 53 .68 84.92-11.91a237.69 237.69 0 004.78 23.34l-.67.13C350.63 593.19 348 592 310.2 591.1a67.73 67.73 0 001.78-9.31c.38-3.64 1.2-9.55 2.24-17.31z" fill="#fdf6f0"/><path d="M339.31 245.4s-1.86-14.69-6.61-18.21a15.34 15.34 0 00-10.55-2.59v-.09c-11.37-2-10.2-2.67-11.37 0-8.39-2.35-7.93-3.68-2.77 3.72-10.13 0-9.08-1.08-2.82 4.14-6.56 3.55-6.69 2.41 1.65 3.72-4.57 4.71-4.72 2.82 1.17 6.69 1.33 3.34 4.41 6.66 11.66 6.55 14.06-.21 19.64-3.93 19.64-3.93zm23.52 26.14c.08-.75-2.86-2.22-3.26-1.32 0 2.35 3.14 2.3 3.26 1.32zm-13.27-.39c.54.16 1.48.78 2.32 0s0-2.25 0-2.25c-1.51.3-3.59 1.9-2.32 2.25zm23.24 19.22c-7.83-4.22-4.69-.8-12.71-5.56-1.68 2-3.64 1.95-5.6 0-11.51 2.4-11.73 1.39-17.06 3 8.28 8.58 19 10 24 8.48 3-.88 6.57-3.38 9.06-4.83 2.35-.59 3.18-1.22 2.31-1.09zm13.87-59c-4.76 3.51-6.63 18.19-6.63 18.19s5.6 3.73 19.66 3.94c7.26.1 10.34-3.21 11.65-6.55 5.9-3.87 5.74-2 1.16-6.69 8.35-1.31 8.23-.17 1.66-3.73 6.25-5.2 7.31-4.13-2.82-4.13 5.16-7.4 5.62-6.08-2.77-3.73-1.18-2.66 0-2-11.38 0v.1a15.28 15.28 0 00-10.53 2.57zm14.49-25.46c-24.69-2.15-23.05 7.07-21.12 6.42 1.25-.41 9.94-.82 16.25-1 6-.2 24.92 4 26.81 4.41 3.64 21-5.64 45.37-19.85 61.58a31.37 31.37 0 009.27-.83c5.8-1.24 20.7-19.45 23.17-24.82s3.32-21.94 5-24.82 7.44-5.39 13.23-3.32 3.73 14.48 3.31 19.86-6.21 14.48-13.66 23.59-20.3 6.2-20.3 6.2C418.13 282.64 416.94 294 396 305a119.31 119.31 0 01-13.1 5.77s-19.59 9.1-25 9.92c-7.19 1.12-23.9-3.87-34.9-15.69a78.59 78.59 0 01-7.57-5.13c-13.06-10-18.88-22-21.73-37.48a185.47 185.47 0 01-2.44-23.17c3.58-14.37 15.15-19.19 28.47-28.5l16.71-1.21c-2.81 2.8-5.51 5.39-8 7.73 38.11-12.7 45-17.41 72-56.26 0 0 14.08 30.62 19.88 45.09a46.68 46.68 0 012.68 9.51c-6.2-4.39-17.13-9.28-21.84-9.7z" fill="#fcd3bf"/><path d="M391.4 471.17s-17.56 13.18-39.4 14.62c-20.52 1.37-28.86.17-29.83 0 .44-7.38.79-15 1-22.77 8.48.21 9.84 2 64-9.8 1.3 5.47 2.6 10.45 3.44 13.94.3 1.29.59 2.61.84 4zm-8.25-47.85a31.21 31.21 0 00-.12 7.15c.13 1.69.35 3.48.62 5.36l-.77.11c-22 6-35.57 6.34-59.43 5.27q0-6.82-.18-13.75a27.72 27.72 0 00-.2-2.95c23.05 9.79 40.85 10.82 62.52-11.15a72.55 72.55 0 00-2.44 9.96zM310.2 591.1c37.82.93 40.43 2.09 93.05-15.06l.67-.13a188.61 188.61 0 009.82 28.55c-50.21 15-68 19.06-109.61 6.21 2.44-6.92 4.61-13.74 6.07-19.57z" fill="#faa6b3"/><path d="M404.4 240.18c0-13.41-20.27-13.41-20.27 0s20.27 13.41 20.27 0zm-24.4 9.35s1.87-14.68 6.63-18.19a16.28 16.28 0 0115.72-1.2c4.14 2 10.13 10.09 10.13 10.09-.19.4.09 3.56-1.17 6.69-1.31 3.34-4.39 6.65-11.65 6.55-14.02-.21-19.66-3.94-19.66-3.94z" fill="#fff"/><path d="M352 485.79c21.89-1.44 39.45-14.62 39.45-14.62.86 4.48 1.47 9.38 1.95 14.64-.74.55-25.46 18.65-36.69 17.3-9.85-1.19-30.32-.33-35.75-.07q.65-8.36 1.17-17.22c.96.18 9.3 1.34 29.87-.03z" fill="#fdf6f0"/><path d="M287.57 652.54c-18.48-8.53-21-8.1-34.37-20.07-3.66-3.27-8.12-7.47-13.94-13l-.6-.06c9.07-95.46 13.32-59 15.39-144.34 0 0-1.65-17.8-3.31-26.07s12-41 15.31-57.09-1.24-44.7-1.24-44.7 3.73-.82 5.79-2.9c1.74-1.72 7.72-2.89 14.86-6.26v.06c-3.64 16.39-8.69 40.41-7 57.1h10.35l-5.27 9.93c15.24 7.47 28 14.53 39.53 19.4a27.72 27.72 0 01.2 2.95q.17 6.92.18 13.75c0 7.39-.1 14.68-.31 21.83-.23 7.77-.58 15.39-1 22.77q-.51 8.85-1.17 17.22-.56 6.87-1.16 13.33c-.73 7.81-1.52 15.17-2.29 22-1.16 10.09-2.31 18.93-3.28 26.16-1 7.76-1.86 13.67-2.24 17.31a67.73 67.73 0 01-1.78 9.31c-1.46 5.83-3.63 12.65-6.07 19.57-3.15 9-6.75 18.25-9.79 25.72-3.86 9.4-6.79 16.08-6.79 16.08z" fill="#6bb8ce"/><path d="M382.88 435.94l.77-.11c.81 5.54 2.15 11.73 3.51 17.41-54.16 11.76-55.52 10-64 9.8.21-7.15.32-14.44.31-21.83 23.84 1.07 37.44.73 59.41-5.27zM449 415.46c-6.87-9.41-1.82-30.28-20.33-68.69 29.6 8.37 41 16 75.71 57.1-17.06 23.79-11.86 16.93-34.75 41.79L451 465.93c.24-8.3 2.13-44.83-2-50.47zm-262.8-9.52c50.87-52.89 40.09-45.2 78.61-58.76 0 0 4.55 28.55 1.24 44.7s-17 48.82-15.31 57.09 3.31 26.03 3.31 26.03l-34.34-31.86z" fill="#fdf6f0"/><path d="M317.72 538.34C363 543 365.15 538 396.38 531h.14c.63 7 1.46 14.24 2.62 21.63-31.91 12.59-48.29 13.2-84.92 11.91 1-7.23 2.12-16.07 3.28-26.16z" fill="#faa6b3"/><path d="M262.12 661.54s1.46-7.76-9.72-11.07a45.2 45.2 0 01-8.4-3.07l3.74-6c41.14 37 58.17 25 115 24.42 45.66-.5 42-1.82 98.07-29.4l3.1 5c-.43 1.24-21.52 1.65-28.15 9.1s-19 11.17-19.44 16.55 6.21 6.62 9.93 4.14a57.43 57.43 0 0111.75-5.43s-4.42 4.9-6.29 6.14-18.35 7.92-25.39 9.16c-67.1 11.84-47 13.82-139.71 8.69L250 668.06z" fill="#fdf6f0"/><path d="M351.88 271.15c-.84.78-1.78.16-2.32 0-1.27-.35.81-1.95 2.32-2.25 0 0 .86 1.48 0 2.25z" fill="#220512"/><path d="M395.15 514.35c-10.46 1.69-69.45 11.2-75.36 2q.6-6.45 1.16-13.33c5.43-.26 25.9-1.12 35.75.07 11.23 1.35 35.95-16.75 36.69-17.3 0 .27.05.53.07.8z" fill="#faa6b3"/><path d="M237.92 627.3c-1.15 12.69.91 17.34 6.05 20.1a45.2 45.2 0 008.43 3.07c11.18 3.31 9.72 11.07 9.72 11.07L250 668.06l16.58 21.72 7.62 10h-43.73c-26.61-29-24.73-30.73-23.58-52.59 1.27-24.29-9.39-61 7-121.23 2.49-9.11 5.79-82.75 5.79-82.75L254.05 475c-2.07 85.35-6.32 48.88-15.39 144.34q-.37 3.85-.74 7.96z" fill="#fdd4c0"/><path d="M332.7 227.19c4.75 3.52 6.61 18.21 6.61 18.21s-5.58 3.72-19.65 3.93c-7.25.11-10.33-3.21-11.66-6.55-1.25-3.13-1-6.29-1.17-6.69 0 0 6-8.07 10.15-10.09a15.53 15.53 0 015.17-1.4 15.34 15.34 0 0110.55 2.59zM312 237c0 13.41 20.29 13.41 20.29 0S312 223.61 312 237z" fill="#fff"/><path d="M393.91 396c4.55-5.79 9.92-25.65 9.51-35.58 0-1-.1-1.94-.17-2.92-.7-9.09-2.73-18.31-2.73-19.43s-2.53-1.49-6.2-2.88a31.41 31.41 0 01-7-3.74c-3.58-5.54-4.57-8.87-3.93-10.55 2-5.36 20.73 6.17 25.45 16.76a12.88 12.88 0 005 5.91c2 42.19 27.83 27.46-5 45.21l7.44 11.77c-8.51 13.38-19.81 10.69-33.22 29.91a31.21 31.21 0 01.12-7.15 72.55 72.55 0 012.44-10 76.87 76.87 0 013.94-10 41.34 41.34 0 014.35-7.31z" fill="#6bb8ce"/><path d="M452.82 157.35c-2.64-14.21-8.26-19.25-20-33 1.05.68 2.56.3 9.6-2.13 9.93-3.41 13.34-5.58 28.86-.62s33.2 13 37.54 30.73 7.18 53.67 2.81 60.49-21.42 32.58-25.14 40.65c-4 8.7-6 27.08 13 22.67-.6.33-11.87 6.44-15.79 4.33s-.94 3.41-.94 3.41c-17.66-8.1-18.27-10.67-24.85-25.14 0 0 2.62-7.13 8.61-48.1s-8.61-53.37-8.61-53.37z" fill="#9e417d"/><path d="M323.28 208.16c.73-.55 1.7-1.37 2.88-2.42h14.05c-1.25 1.27-2.49 2.53-3.71 3.74l-16.71 1.21c1.14-.8 2.32-1.64 3.49-2.53z" fill="#a13b39"/><path d="M376.11 155.2c-5 16.38-21.34 35.7-35.88 50.59h-14.05c12.92-11.62 49.93-50.59 49.93-50.59z" fill="#fabfaa"/><path d="M360.09 284.81c8 4.76 4.88 1.34 12.71 5.56-14.1-2.85-6.66-.42-35.37-2.56 5.33-1.61 5.55-.6 17.06-3 1.96 1.95 3.92 2.04 5.6 0zm10.39 6.65c-2.49 1.45-6.09 4-9.06 4.83-5 1.5-15.71.1-24-8.48 16.75 5.95 28.19 4.86 33.06 3.65z" fill="#f69590"/><path d="M380 212.3c-1.93.65-3.57-8.57 21.12-6.42 4.71.42 15.64 5.31 21.92 9.72a.24.24 0 010 .08c-1.89-.42-20.82-4.61-26.81-4.41-6.23.21-14.94.62-16.23 1.03z" fill="#a13b39"/><path d="M370.48 291.46c-4.87 1.21-16.31 2.3-33.05-3.65 28.71 2.14 21.27-.29 35.37 2.56a8.59 8.59 0 00-2.32 1.09z" fill="#fff"/><path d="M453.9 165.13c-13.44-14.28-19.66-19.88-21.1-40.75 11.76 13.72 17.38 18.76 20 33 .46 2.29.82 4.86 1.1 7.75z" fill="#4793cc"/><path d="M402.39 230.14a15.28 15.28 0 00-5.19-1.4v-.1c11.38-2 10.2-2.66 11.38 0 8.39-2.35 7.93-3.67 2.77 3.73 10.13 0 9.07-1.07 2.82 4.13 6.57 3.56 6.69 2.42-1.66 3.73.01 0-5.98-8.07-10.12-10.09z" fill="#220512"/><path d="M323.07 236.78a1.09 1.09 0 112.17 0 1.09 1.09 0 01-2.17 0z" fill="#fabfaa"/><path d="M319.43 319.05s-.41 2.9-.82 5-3.22 4-6.61 6c-3.67 2.12-8 4.24-10.78 6.43-2 1.59-1.45 12.06-.56 23.39.68 8.41 1.57 17.3 1.8 23.36.36 8.87 5.05 14.54 9.9 20.39s9.65 11.65 10.71 20.94c-11.49-4.87-24.29-11.93-39.53-19.4l5.27-9.93h-10.35c-1.66-16.69 3.39-40.71 7-57.1v-.06a50.07 50.07 0 0017-12.76c4.97-5.85 16.97-6.26 16.97-6.26z" fill="#6bb8ce"/><path d="M327.42 237.07c0-6.09-9.21-6.09-9.21 0s9.21 6.09 9.21 0zm4.87 0c0 13.41-20.29 13.41-20.29 0s20.29-13.46 20.29-.07z" fill="#5e91d7"/><path d="M359.57 270.22c.4-.9 3.34.57 3.26 1.32-.12.98-3.26 1.03-3.26-1.32z" fill="#220512"/><path d="M382.88 320.7l.48.21c-.64 1.68.35 5 3.93 10.55a31.41 31.41 0 007 3.74c1.65 10.34-5 31.84-11.49 38.47s-30.71 18.62-30.71 18.62-22.76-11.59-31.86-20.7-8.2-41.5-8.2-41.5L312 330c3.39-2 6.19-3.94 6.61-6s.82-5 .82-5c4.57-4.09 3.57-14 3.57-14 11 11.84 27.67 16.83 34.87 15.72 5.38-.82 25-9.92 25-9.92z" fill="#fcd3bf"/><path d="M393.46 486.6c0-.27 0-.53-.07-.8z" fill="#faa6b3"/><path d="M423.08 215.6l.17.12h-.15a.24.24 0 00-.02-.12z" fill="#a13b39"/><path d="M253.2 632.47c13.36 12 15.89 11.54 34.37 20.07 0 0 2.93-6.68 6.77-16.15 34.5 25.89 126.12-14.75 127.24-15.25 3.28 8 6.66 18.4 11.64 21.05s5 2.54 24.44-10.78l3.08 5c-56.06 27.58-52.41 28.9-98.07 29.4-56.79.62-73.82 12.57-115-24.42zm150.22-272.04c.41 9.93-5 29.79-9.51 35.58a41.34 41.34 0 00-4.38 7.31c-25.92 11-55 17.49-77.17.25-4.85-5.85-9.54-11.52-9.9-20.39-.23-6.06-1.12-14.95-1.8-23.36.16.42 10.23 28 29.11 36.4 19 8.48 27.72 8.89 36.42 5.58s27.41-16.07 28.39-20 8.67-24.25 8.67-24.25c.07.94.13 1.92.17 2.88z" fill="#faa6b3"/><path d="M443.55 667c.76-2.44-2-2.32-5.55-1.24a57.43 57.43 0 00-11.82 5.38c-3.72 2.48-10.35 1.24-9.93-4.14s12.83-9.1 19.44-16.55 27.72-7.86 28.15-9.1c.14-.44 0-6.38-.16-14.07-.35-13.84-.94-33.36-.68-36.82.41-5.38-6.2-37.66-6.2-50.07 0-29-8.86-35.3-5.8-74.48l18.63-20.27a52.49 52.49 0 01-1.24 9.93c-1.25 5.79-2.49 72-2.08 81.93.59 14.16 7.65 8.94 13.66 48 13.23 86 15.72 79.78-15.72 114.24h-55.44c13.47-10.15 30.19-17.82 34.74-32.74z" fill="#f7d6c5"/><path d="M421.58 621.14c-1.12.5-92.74 41.14-127.24 15.25 3-7.47 6.64-16.69 9.79-25.72 41.63 12.85 59.4 8.77 109.61-6.21q2.46 5.64 5.41 11.25c.85 1.56 1.62 3.42 2.43 5.43z" fill="#fdf6f0"/><path d="M310.77 224.51c1.17-2.67 0-2 11.37 0v.09A15.53 15.53 0 00317 226c-4.14 2-10.15 10.09-10.15 10.09-8.34-1.31-8.21-.17-1.65-3.72-6.26-5.22-7.31-4.14 2.82-4.14-5.18-7.4-5.64-6.07 2.75-3.72zm83.71 14.69a1.09 1.09 0 10-2.17 0 1.09 1.09 0 002.17 0zm-5.48 1c0-6.09 9.19-6.09 9.19 0s-9.19 6.12-9.19.03z" fill="#220512"/><path d="M274.23 699.75l-7.62-10L250 668.06l12.09-6.52s1.46-7.76-9.72-11.07a45.2 45.2 0 01-8.37-3.07c-5.14-2.76-7.2-7.41-6.05-20.1q.36-4.11.74-7.92c9.07-95.46 13.32-59 15.39-144.34l-34.34-31.86s-3.3 73.64-5.79 82.75c-16.42 60.22-5.76 96.94-7 121.23-1.15 21.86-3 23.54 23.58 52.59h43.76zm-27.21-7.9l8.7 7.9m153.09 0h55.44c31.44-34.46 28.95-28.24 15.72-114.24-6-39-13.07-33.83-13.66-48-.41-9.94.83-76.14 2.08-81.93a52.49 52.49 0 001.24-9.93L451 465.93c-3.06 39.18 5.8 45.51 5.8 74.48 0 12.41 6.61 44.69 6.2 50.07-.26 3.46.33 23 .68 36.82.19 7.69.3 13.63.16 14.07-.43 1.24-21.52 1.65-28.15 9.1s-19 11.17-19.44 16.55 6.21 6.62 9.93 4.14a57.43 57.43 0 0111.82-5.38c3.57-1.08 6.31-1.2 5.55 1.24-4.55 14.9-21.27 22.57-34.74 32.73zm40.19-9.97l-9.99 9.97m-30.2 0H274.23" fill="none" stroke="#000" stroke-miterlimit="10" stroke-width=".98"/><path d="M266.61 689.78c92.67 5.13 72.61 3.15 139.71-8.69 7-1.24 23.54-7.91 25.39-9.16s6.29-6.14 6.29-6.14M300.66 359.81c-.89-11.33-1.4-21.8.56-23.39 2.74-2.19 7.11-4.31 10.78-6.43 3.39-2 6.19-3.94 6.61-6s.82-5 .82-5-12 .41-17 6.21a50.07 50.07 0 01-17 12.76c-7.14 3.37-13.12 4.54-14.86 6.26-2.06 2.08-5.79 2.9-5.79 2.9s4.55 28.55 1.24 44.7-17 48.82-15.31 57.09 3.34 26.09 3.34 26.09" fill="none" stroke="#000" stroke-miterlimit="10" stroke-width=".98"/><path d="M239.26 619.44c5.82 5.56 10.28 9.76 13.94 13 13.36 12 15.89 11.54 34.37 20.07 0 0 2.93-6.68 6.77-16.15 3-7.47 6.64-16.69 9.79-25.72 2.44-6.92 4.61-13.74 6.07-19.57a67.73 67.73 0 001.78-9.31c.38-3.64 1.2-9.55 2.24-17.31 1-7.23 2.12-16.07 3.28-26.16.77-6.79 1.56-14.15 2.29-22q.6-6.45 1.16-13.33.65-8.36 1.17-17.22c.44-7.38.79-15 1-22.77.21-7.15.32-14.44.31-21.83q0-6.82-.18-13.75a27.72 27.72 0 00-.2-2.95c-1.06-9.29-6-15.2-10.71-20.94s-9.54-11.52-9.9-20.39c-.23-6.06-1.12-14.95-1.8-23.36M463.67 627.3l-6 4.11c-19.39 13.32-19.43 13.46-24.44 10.78s-8.36-13-11.64-21.05c-.81-2-1.61-3.87-2.43-5.43q-3-5.61-5.41-11.25a188.61 188.61 0 01-9.82-28.55 237.69 237.69 0 01-4.78-23.34c-1.16-7.39-2-14.63-2.62-21.63-1.46-16.31-1.9-31.39-3.06-44.34 0-.27 0-.53-.07-.8-.48-5.26-1.09-10.16-1.95-14.64-.25-1.37-.54-2.69-.84-4-.84-3.49-2.14-8.47-3.44-13.94-1.36-5.68-2.7-11.87-3.51-17.41-.27-1.88-.49-3.67-.62-5.36a31.21 31.21 0 01.12-7.15 72.55 72.55 0 012.44-10 76.87 76.87 0 013.94-10 41.34 41.34 0 014.38-7.31c4.55-5.79 9.92-25.65 9.51-35.58 0-1-.1-1.94-.17-2.92-.7-9.09-2.73-18.31-2.73-19.43s-2.53-1.49-6.2-2.88a31.41 31.41 0 01-7-3.74c-3.58-5.54-4.57-8.87-3.93-10.55 2-5.36 20.73 6.17 25.45 16.76a12.88 12.88 0 005 5.91c4.65 3 10.68 2.59 14.89 3.19 18.51 38.41 13.46 59.28 20.33 68.69 4.13 5.64 2.24 42.17 2 50.47" fill="none" stroke="#000" stroke-miterlimit="10" stroke-width=".98"/><path d="M382.83 430.76l.2-.29c13.41-19.22 24.71-16.53 33.22-29.91l-7.44-11.77c32.8-17.75 7-3 5-45.21a.49.49 0 010-.12m-194.1 99.72l-33.51-37.24c50.87-52.89 40.09-45.2 78.61-58.76m204.82 98.48c22.89-24.86 17.69-18 34.75-41.79-34.73-41.08-46.11-48.73-75.71-57.1m-184.7 300.64v-.01l3.74-6.03 5.49-8.9.06-.09m210.58 8.99l-3.1-4.98-3.08-4.98-.01-.01M312.06 330.09s-.9 32.4 8.2 41.5 31.86 20.7 31.86 20.7 24.17-12 30.71-18.62 13.17-28.13 11.49-38.47h0" fill="none" stroke="#000" stroke-miterlimit="10" stroke-width=".98"/><path d="M300.66 359.81h0c.16.42 10.23 28 29.11 36.4 19 8.48 27.72 8.89 36.42 5.58s27.41-16.07 28.39-20 8.67-24.25 8.67-24.25m-20.37-36.84v-9.92s-19.59 9.1-25 9.92c-7.17 1.11-23.88-3.88-34.88-15.7 0 0 .94 9.93-3.61 14.07" fill="none" stroke="#000" stroke-miterlimit="10" stroke-width=".98"/><path d="M382.88 310.78A119.31 119.31 0 00396 305c21-11 22.15-22.37 27.27-31.89 0 0 12.86 2.9 20.3-6.2s13.25-18.21 13.66-23.59 2.48-17.79-3.31-19.86-11.58.42-13.23 3.32-2.49 19.43-5 24.82-17.37 23.58-23.17 24.82a31.37 31.37 0 01-9.27.83c14.21-16.21 23.49-40.56 19.85-61.58a.24.24 0 000-.08 46.68 46.68 0 00-2.68-9.51c-5.82-14.46-19.9-45.08-19.9-45.08-27 38.85-33.88 43.56-72 56.26 2.48-2.34 5.18-4.93 8-7.73 1.22-1.21 2.46-2.47 3.71-3.74 14.54-14.89 30.84-34.21 35.88-50.59 0 0-37 39-49.95 50.54-1.18 1-2.15 1.87-2.88 2.42-1.17.89-2.35 1.73-3.51 2.54-13.32 9.31-24.89 14.13-28.47 28.5a185.47 185.47 0 002.44 23.17c2.85 15.53 8.67 27.44 21.73 37.48A78.59 78.59 0 00323 305" fill="none" stroke="#000" stroke-miterlimit="10" stroke-width=".98"/><path d="M293.74 262.37c-3.38.58-8.71.45-10.51-2.69 1.41-11.6 3.12-13.67 8.07-20.48m-10.03-28.86c-6.32-9.47-13.72 1.58-14.18 13-.6 15.07 1.91 21.41 4.35 24.82 1.86 2.6 3.67 3.51 4 5.28 6.55-5.48-.94-12 4.34-28.86 1.58-4.94 1.49-14.24 1.49-14.24zm218.25 65.79h0c-.6.33-11.87 6.44-15.79 4.33s-.94 3.41-.94 3.41c-17.66-8.1-18.27-10.67-24.85-25.14-10.08 13.24.92 34.68 13.37 42.51-32.86 2.61-19-24.2-31 11.65C432.8 316.42 421 312 396 305h-.1" fill="none" stroke="#000" stroke-miterlimit="10" stroke-width=".98"/><path d="M315.44 299.89s-25.69 8.51-44.32-4.84-36.93-32.13-36.61-44.15-6.84-1.78 0-14.5 10.25-19.55 10.25-19.55-21.28 5.58-27.24 0-23.35-17.07-19.31-25.76l4-8.68s12.28 24.82 37 16.44 27.52-29.79 30-37.55-14.6 16.45-32 19.56-17.37-.94-17.37-.94c43.32-2.12 52.94-49 63.3-61.44 7.75-9.31 38.17-51.82 83.47-34.13s45 29.16 45 29.16l16.54 7.49c3.25 1.48 3.79 2.8 4.67 3.37 1.05.68 2.56.3 9.6-2.13 9.93-3.41 13.34-5.58 28.86-.62s33.2 13 37.54 30.73 7.18 53.65 2.81 60.47-21.42 32.58-25.14 40.65c-4 8.7-6 27.08 13 22.67" fill="none" stroke="#000" stroke-miterlimit="10" stroke-width=".98"/><path d="M457.91 157.27s14.61 12.41 8.61 53.37-8.61 48.1-8.61 48.1m-58.62-135.81s-19.72-12.42-48.13-9.1-44.64 5.37-57.42 19" fill="none" stroke="#000" stroke-miterlimit="10" stroke-width=".98"/><path d="M378.6 118c-2.07 1.24-25.25 0-40.13 9.1s-27.72 21.52-39.31 32.7m83.72-31.08s-31.52 28.55-40.88 36.41-25.48 35-35.82 41.69m-34.74 41.37c-13 12.6-8.94 24.14-6.53 42.18m141.82-155.03c16.94-2.61 33.94 71.93 33.94 91.45m14.06-56.28c7.71 10.47-2.6 18-9.51 31.86m-12.42-77.99c1.44 20.87 7.66 26.47 21.1 40.75-.28-2.89-.64-5.46-1.08-7.78-2.64-14.21-8.26-19.25-20.02-32.97z" fill="none" stroke="#000" stroke-miterlimit="10" stroke-width=".98"/><path d="M337.43 287.81c8.28 8.58 19 10 24 8.48 3-.88 6.57-3.38 9.06-4.83a8.59 8.59 0 012.32-1.09c.87-.13 0 .5-2.32 1.09-4.88 1.21-16.32 2.3-33.06-3.65z" fill="none" stroke="#000" stroke-miterlimit="10" stroke-width=".49"/><path d="M337.43 287.81c5.33-1.61 5.55-.6 17.06-3 2 1.95 3.92 2 5.6 0 8 4.76 4.88 1.34 12.71 5.56-14.1-2.85-6.66-.37-35.37-2.56z" fill="none" stroke="#000" stroke-miterlimit="10" stroke-width=".49"/><path d="M364.73 267.22c.42.42 4.35 2.7 2.59 4.45-2.22 2.23-3.36 4.27-10.45.73-5.16 5.7-14.92-.34-14.86-2.28.36-10.18 8-9.24 9.28-17.37" fill="none" stroke="#000" stroke-linecap="round" stroke-linejoin="round" stroke-width=".25"/><path d="M351.88 268.9c-1.51.3-3.59 1.9-2.32 2.25.54.16 1.48.78 2.32 0s0-2.25 0-2.25zm7.69 1.32c0 2.35 3.14 2.3 3.26 1.32.08-.75-2.83-2.22-3.26-1.32zm52.95-29.99c-.19.4.09 3.56-1.17 6.69-1.31 3.34-4.39 6.65-11.65 6.55-14.06-.21-19.66-3.94-19.66-3.94s1.87-14.68 6.63-18.19a16.28 16.28 0 0115.72-1.2c4.14 2.02 10.13 10.09 10.13 10.09z" fill="none" stroke="#000" stroke-miterlimit="10" stroke-width=".98"/><path d="M404.4 240.18c0 13.41-20.27 13.41-20.27 0s20.27-13.41 20.27 0z" fill="none" stroke="#000" stroke-miterlimit="10" stroke-width=".98"/><path d="M389 240.23c0-6.09 9.19-6.09 9.19 0s-9.19 6.09-9.19 0zm22.36 6.69c5.9-3.87 5.74-2 1.16-6.69 8.35-1.31 8.23-.17 1.66-3.73 6.25-5.2 7.31-4.13-2.82-4.13 5.16-7.4 5.62-6.08-2.77-3.73-1.18-2.66 0-2-11.38 0m-90.38 7.45c.2.4-.08 3.56 1.17 6.69 1.33 3.34 4.41 6.66 11.66 6.55 14.07-.21 19.65-3.93 19.65-3.93s-1.86-14.69-6.61-18.21a15.34 15.34 0 00-10.55-2.59A15.53 15.53 0 00317 226c-4.16 2-10.17 10.09-10.17 10.09z" fill="none" stroke="#000" stroke-miterlimit="10" stroke-width=".98"/><path d="M312 237c0 13.41 20.29 13.41 20.29 0S312 223.61 312 237z" fill="none" stroke="#000" stroke-miterlimit="10" stroke-width=".98"/><path d="M327.42 237.07c0-6.09-9.21-6.09-9.21 0s9.21 6.09 9.21 0zM308 242.78c-5.89-3.87-5.74-2-1.17-6.69-8.34-1.31-8.21-.17-1.65-3.72-6.26-5.22-7.31-4.14 2.82-4.14-5.16-7.4-5.62-6.07 2.77-3.72 1.17-2.67 0-2 11.37 0m100.94-8.91l.17.12h-.15c-1.89-.42-20.82-4.61-26.81-4.41-6.31.21-15 .62-16.25 1-1.93.65-3.57-8.57 21.12-6.42 4.71.41 15.64 5.3 21.92 9.71zm-82.9-9.86h-14.02m10.32 3.75l-16.71 1.21-.34.03M247.7 641.37h0c41.14 37 58.17 25 115 24.42 45.66-.5 42-1.82 98.07-29.4" fill="none" stroke="#000" stroke-miterlimit="10" stroke-width=".98"/><path d="M421.59 621.14h0c-1.12.5-92.74 41.14-127.24 15.25m9.78-25.72c41.63 12.85 59.4 8.77 109.61-6.21h.11M403.25 576c-52.62 17.19-55.25 16-93.05 15.1h0m3.96-26.62h.06c36.63 1.29 53 .68 84.92-11.91h.1M396.38 531c-31.23 7-33.4 12-78.66 7.39M319.6 516c.06.11.12.22.19.33 5.91 9.19 64.9-.32 75.36-2l-1.69-27.75v-.81h0c-.74.55-25.46 18.65-36.69 17.3-9.85-1.19-30.32-.33-35.75-.07l-1.35.07m2.33-17.28h.09c1 .15 9.31 1.35 29.83 0 21.89-1.44 39.45-14.62 39.45-14.62m-4.21-17.93c-54.16 11.76-55.52 10-64 9.8m-.16-21.85h.41c23.86 1.07 37.46.73 59.43-5.27m2.75-22.56c-21.67 22-39.47 20.94-62.52 11.15-11.49-4.87-24.29-11.93-39.53-19.4l5.27-9.93h-10.35c-1.66-16.69 3.39-40.71 7-57.1" fill="none" stroke="#000" stroke-miterlimit="10" stroke-width=".98"/><path d="M312 403.32l.33.25c22.18 17.24 51.25 10.79 77.17-.25m4.98-164.12a1.09 1.09 0 01-2.17 0 1.09 1.09 0 112.17 0z" fill="none" stroke="#000" stroke-miterlimit="10" stroke-width=".98"/><path d="M325.24 236.78a1.09 1.09 0 01-2.17 0 1.09 1.09 0 112.17 0z" fill="none" stroke="#000" stroke-linecap="round" stroke-linejoin="round" stroke-width=".49"/></svg>
