<svg xmlns="http://www.w3.org/2000/svg" viewBox="0 0 1400 780"><defs><linearGradient id="a" y1="390" x2="1400" y2="390" gradientUnits="userSpaceOnUse"><stop offset=".02" stop-color="#ebd4cd"/><stop offset=".3" stop-color="#dac5ba"/><stop offset=".73" stop-color="#c6b3a3"/><stop offset="1" stop-color="#beac9a"/></linearGradient><linearGradient id="b" x1="-.5" y1="390" x2="1400.5" y2="390" gradientUnits="userSpaceOnUse"><stop offset=".02" stop-color="#ebd4cd"/><stop offset=".29" stop-color="#f2e3df"/><stop offset=".73" stop-color="#fcf8f6"/><stop offset="1" stop-color="#fff"/></linearGradient></defs><path stroke-miterlimit="10" fill="url(#a)" stroke="url(#b)" d="M0 0h1400v780H0z"/><path d="M477.24 668.72c.21.86 2.78 51.32-7.24 59.35-7.26 5.83-29.54 10.59-31.47 0s4.84-21.54 5.82-31.55-2.42-17.79 1.44-22.35a22.76 22.76 0 017.81-6.2c6.35-3 13.31-1.91 21.4.17.73.17 1.47.38 2.24.58z" fill="#b06a20"/><path d="M497.1 531.06Q482 570.12 475 668.14c-8.09-2.08-15.05-3.15-21.4-.17-24.33-51-12.65-85.76-12.65-136.91zm39.69 128.54c-6.32-5-11.16-136.74-11.16-136.74h47.94c-2.42 118.14.12 134.77-12.81 143.14-2.55-3.73-6.87-6.38-12.85-6.38z" fill="#302f2b"/><path d="M543.56 723.85c-10.67-3.64-13.55-31-13.55-31l6.78-33.28h11.12c6 0 10.3 2.65 12.85 6.38a16 16 0 012.63 10.94c-2.79 23.75 13.06 19 13.06 46.93 0 7.33-22.25 3.7-32.89.03z" fill="#b06a20"/><path d="M526.67 97.79a9.6 9.6 0 0010.64 0s-5.24-4.88-10.64 0zm-27.4 0a9.6 9.6 0 0010.64 0s-5.21-4.88-10.64 0zm-8.43-7c8.1-3.5 1.32-14.75 6.59-15.82 3.34-.69 7.21-3.26 10.12-4.24C515.67 68 512.94 70 528 71c4.38.29 4.69-.28 6.9 3a76.82 76.82 0 016.55 14c1.59 4.53 3.67 5.16 4 7.3.28 2 1.29 5.74 1.41 6.2l-.18 1.16a1 1 0 010 .29c-.68 2.85-5.49 23.15-8.71 25.6-3.43 2.66-6.56 7.36-9.68 8.26s-6.9-.58-5.34-2.37a34.69 34.69 0 002.52-3.15c-16.46.12-6.65-1.18-7.21 3.47-.88 7.33-15.6-2.46-19.27-8.87-5.99-10.32-8.7-18.69-8.99-18.69z" fill="#f7b282"/><path d="M490 107.2c.27 0 3 8.37 8.92 18.73 3.67 6.41 18.39 16.2 19.27 8.87.56-4.65-9.25-3.35 7.21-3.47a34.69 34.69 0 01-2.52 3.15c-1.56 1.79 2.18 3.26 5.34 2.37s6.25-5.6 9.68-8.26c3.22-2.45 8-22.75 8.71-25.6a1 1 0 000-.29c.06.72.55 6.69.4 11.63a33.3 33.3 0 01-.4 4.24c-.71 3.81-5.21 12.21-9.38 17.84a28.92 28.92 0 01-3.77 4.27c-4.69 4.13-16.28 3.84-25.69 0a17.34 17.34 0 01-6.37-5.05c-5.73-6.75-9.26-17.06-9.26-17.06-.06-.29-.09-.55-.15-.81-1.39-7.5-2.13-10.56-1.99-10.56z" fill="#28201e"/><path d="M546.69 102.67l.18-1.16c.58-2.91 1.26-5.34 2.48-6.17.89-.64 2.09-.35 3.71 1.33 1 1.09.16 2.85-.76 4.59-3.28 6 .21 6.58-5.21 13.1.15-4.94-.34-10.91-.4-11.63z" fill="#f7b282"/><path d="M533 97.5a1 1 0 01-1.93 0 1 1 0 011.93 0z" fill="#020000"/><path d="M483.83 99.84c-4.63-24.94-5.31-29.93 8.91-45 5-5.31 6.56-1.68 12.2-.61s3.13-1.36 6.29-5.31 8.85-2.45 14.06-2 8 3.55 11.9 8.25 12.65 9.85 12.32 14.06 1 7.68 2.72 11.11 1 2.17-2.14 7.57-.74 7.3-.74 7.3c-1.22.83-1.9 3.26-2.48 6.17-.12-.46-1.13-4.21-1.41-6.2-.34-2.14-2.42-2.77-4-7.3a76.82 76.82 0 00-6.53-14.06c-2.21-3.23-2.52-2.66-6.9-3-15.08-1-12.35-3-20.47-.28-2.91 1-6.78 3.55-10.12 4.24-5.27 1.07 1.51 12.32-6.59 15.82l-.85 16.6s-3.66-6.26-6.17-7.36z" fill="#28201e"/><path d="M522.69 276.24L536 170.56l3.71-29.47c66.91 60.07 56.3 34 71 86.28 9 32.21 7.76 94.79 5.83 118.52a59.06 59.06 0 01-4.17 17.95c-4.26 10.19-10.06 14.2-10.06 14.2-.64 2.46 8.4 144.79 8.4 144.79h-78l-9.93-246.54z" fill="#2c2e3e"/><path d="M508.13 276.24c-7-46.82-7.69-67-9.53-105.68s18.45 10.3 37.33 0l-13.24 105.68v.08l9.93 246.54h-16.15z" fill="#825c6d"/><path d="M499.67 316.1c0-5.63-9-5.63-9 0s9 5.63 9 0zm0 52c0-5.63-9-5.63-9 0s9 5.67 9 .04zm-79.35 16s-16.15-49.82-18.08-58.94 6.46-102.7 18.08-125.79 76.78-58.34 76.78-58.34c.61 11.11 1.1 20.75 1.5 29.47 1.84 38.71 2.54 58.86 9.53 105.68l8.34 246.62v8.2H415.78z" fill="#2c2e3e"/><path d="M505.25 97.5a1 1 0 01-1.93 0 1 1 0 011.93 0z" fill="#020000"/><path d="M490.63 368.14c0-5.63 9-5.63 9 0s-9 5.63-9 0z"/><path d="M492.07 117.76c-6.25 1.33-13.61-20.32-8.24-17.92 2.51 1.1 6.19 7.36 6.19 7.36-.16 0 .58 3.06 2.05 10.56z" fill="#f7b282"/><path d="M490.63 316.1c0-5.63 9-5.63 9 0s-9 5.63-9 0z"/><path d="M531 97.5a1 1 0 001.93 0 1 1 0 00-1.93 0zm6.28.29a9.6 9.6 0 01-10.64 0c5.43-4.88 10.67 0 10.67 0z" fill="#fbfdfc"/><path d="M498.6 170.56c-.4-8.72-.89-18.36-1.5-29.47l4.38-5.46a17.34 17.34 0 006.37 5.05c9.41 3.84 21 4.13 25.69 0a28.92 28.92 0 003.77-4.27l2.36 4.68-3.67 29.47c-18.88 10.3-37.33 0-37.33 0z" fill="#f7b282"/><path d="M503.32 97.5a1 1 0 001.93 0 1 1 0 00-1.93 0zm-4.05.29c5.43-4.88 10.64 0 10.64 0a9.6 9.6 0 01-10.64 0z" fill="#fbfdfc"/><path fill="#28201e" d="M546.69 102.67v.03h-.03l.03-.03z"/><path d="M536.79 659.6L530 692.88s2.88 27.33 13.55 31 32.89 7.3 32.89 0c0-27.94-15.85-23.18-13.06-46.93a16 16 0 00-2.62-10.95c-2.55-3.73-6.87-6.38-12.85-6.38zM475 668.14c.73.17 1.47.38 2.24.58.21.86 2.78 51.32-7.24 59.35-7.26 5.83-29.54 10.59-31.47 0s4.84-21.54 5.82-31.55-2.42-17.79 1.44-22.35a22.76 22.76 0 017.81-6.2c6.4-2.97 13.31-1.91 21.4.17z" fill="none" stroke="#000" stroke-miterlimit="10" stroke-width="2.97"/><path d="M560.76 666c12.93-8.35 10.39-25 12.81-143.12h-47.94s4.84 131.71 11.16 136.74m-83.09 8.52l-.1-.17c-24.33-51-12.65-85.76-12.65-136.91h56.15Q482 570.12 475 668.14m98.57-145.28h37.08s-9-142.33-8.4-144.79-14.83-41.91-13.54-53.46 8.4-106.34 8.4-111.21m-88.64 65.06c-.13-.75-.22-1.5-.34-2.22-7-46.82-7.69-67-9.53-105.68-.4-8.72-.89-18.36-1.5-29.47 0 0-65.16 35.24-76.78 58.34s-20 116.67-18.08 125.79 18.08 58.94 18.08 58.94l-4.54 146.9H441" fill="none" stroke="#000" stroke-miterlimit="10" stroke-width="2.97"/><path fill="none" stroke="#020000" stroke-miterlimit="10" stroke-width="2.97" d="M522.69 276.32l-.37 2.95"/><path d="M612.31 363.84a59.06 59.06 0 004.17-17.95c1.93-23.73 3.21-86.31-5.83-118.52-14.68-52.31-4.07-26.21-71-86.28L536 170.56l-13.31 105.68m79.56 101.83s5.8-4 10.06-14.2M497.1 531.06h19.37v-8.2h9.16m-27.89-268.73c-3.22-1.85-51-56.52-51-56.52 29.33-22 30.4-19.6-3.89-6.7l8.4-14" fill="none" stroke="#000" stroke-miterlimit="10" stroke-width="2.97"/><path fill="none" stroke="#000" stroke-miterlimit="10" stroke-width="2.97" d="M562.26 182.4l.03.02 18.05 16.4-40.67 43.76m40.67-60.18v6.09l-18.05-6.07m-26.97 122.59h7.26m-7.26 52.42h7.26"/><path d="M446.13 336.07c0 2.8-14.87 45.67-14.87 45.67m-6.43-165c0 .9 4.84 22.78 6.43 30.69s5.49 89.63 5.18 91.16l-18.08 24m10.97-63.2s-8.06-9.13-20.63-9.41m0 11.22l19.34 2.14m-.04 30.08s-11.92 4.85-14.83 7.91m178.94-46.65s13.85-6.09 15.81-4.7m-10.66 15.03h16.46m-10.64 22.78l10.64 9.58" fill="none" stroke="#020000" stroke-miterlimit="10" stroke-width="2.97"/><path fill="none" stroke="#000" stroke-miterlimit="10" stroke-width="2.97" d="M612.31 363.84v.03"/><path fill="none" stroke="#020000" stroke-miterlimit="10" stroke-width="2.97" d="M592.11 325.83l20.2 38.01M498.63 170.56s18.45 10.3 37.33 0h0"/><path d="M546.63 103c-.68 2.85-5.49 23.15-8.71 25.6-3.43 2.66-6.56 7.36-9.68 8.26s-6.9-.58-5.34-2.37a34.69 34.69 0 002.52-3.15c-16.46.12-6.65-1.18-7.21 3.47-.88 7.33-15.6-2.46-19.27-8.87-5.94-10.37-8.65-18.74-8.94-18.74s.58 3.06 2.05 10.56c.06.26.09.52.15.81 0 0 3.53 10.31 9.26 17.06a17.34 17.34 0 006.37 5.05c9.41 3.84 21 4.13 25.69 0a28.92 28.92 0 003.77-4.27c4.17-5.63 8.67-14 9.38-17.84a33.3 33.3 0 00.4-4.24c.15-4.94-.34-10.91-.4-11.63m.02-.03l-.03.03" fill="none" stroke="#020000" stroke-miterlimit="10" stroke-width="1.92"/><path d="M507.09 132.05c.86-9.61.3-7.93 8.61-11 4.11 1.64 3.71 2.25 7.26 0 .49-.29 8.46 3.26 8.86 3.55s1.41 5.6 1.41 5.6m8.22-37.09c-7.57-3.69-4.17-3.34-15.27-.86m-14.95.86c-10.64-2.16-7.85-2.94-15 2.17m50.64 6.23h0" fill="none" stroke="#020000" stroke-miterlimit="10" stroke-width="1.92"/><path d="M492.07 117.76c-6.25 1.33-13.61-20.32-8.24-17.92 2.51 1.1 6.19 7.36 6.19 7.36l.82-16.45c8.1-3.5 1.32-14.75 6.59-15.82 3.34-.69 7.21-3.26 10.12-4.24C515.67 68 512.94 70 528 71c4.38.29 4.69-.28 6.9 3a76.82 76.82 0 016.55 14c1.59 4.53 3.67 5.16 4 7.3.28 2 1.29 5.74 1.41 6.2m.23 12.83c5.42-6.52 1.93-7.13 5.21-13.1.92-1.74 1.8-3.5.76-4.59-1.62-1.68-2.82-2-3.71-1.33-1.22.83-1.9 3.26-2.48 6.17v0l-.18 1.16v0h0a1 1 0 010 .29" fill="none" stroke="#020000" stroke-miterlimit="10" stroke-width="1.92"/><path d="M549.35 95.28s-2.48-1.88.74-7.3 3.92-4.13 2.14-7.57-3-6.87-2.72-11.11-8.46-9.3-12.32-14.06-6.66-7.76-11.9-8.25-10.91-2-14.06 2-.65 6.41-6.29 5.31-7.2-4.7-12.2.61c-14.22 15-13.54 20-8.91 45m53.48 36.5l2.36 4.68m-42.57 0l4.38-5.46" fill="none" stroke="#020000" stroke-miterlimit="10" stroke-width="1.92"/><path d="M509.91 97.79s-5.21-4.88-10.64 0a9.6 9.6 0 0010.64 0zm27.4 0s-5.24-4.88-10.64 0a9.6 9.6 0 0010.64 0zm-24.89 28.75c1.66.92 13.58 1.39 15.82 0m-9.66-28c-.52.61-.67 17.32-.67 17.32s4.5 2 5.79 0" fill="none" stroke="#020000" stroke-miterlimit="10" stroke-width="1.92"/><path fill="none" stroke="#020000" stroke-miterlimit="10" stroke-width="2.97" d="M516.47 522.86l-8.34-246.62m14.56.08l9.93 246.54"/><path fill="none" stroke="#000" stroke-miterlimit="10" stroke-width="2.97" d="M522.69 276.24v.08"/><path fill="none" stroke="#000" stroke-miterlimit="10" stroke-width="3" d="M836.71 93.63h216v504h-216z"/><path fill="none" stroke="#000" stroke-miterlimit="10" stroke-width="5" d="M944.71 93.63v504"/><path fill="none" stroke="#f2152b" stroke-miterlimit="10" stroke-width="3" d="M800.47 81.35V622.4"/><path d="M800.47 63.25c-3.17 8.52-8.56 19.09-14.27 25.64l14.27-5.16 14.26 5.16c-5.73-6.55-11.11-17.12-14.26-25.64zm0 577.26c-3.17-8.52-8.56-19.09-14.27-25.64l14.27 5.13 14.26-5.16c-5.73 6.58-11.11 17.16-14.26 25.67z" fill="#f2152b"/></svg>