<svg xmlns="http://www.w3.org/2000/svg" viewBox="0 0 1400 780"><path fill="#809ead" d="M0 0h1400v780H0z"/><circle cx="1083.98" cy="389.38" r="60.76" fill="#ffe6d9" stroke="#020000" stroke-miterlimit="10" stroke-width="1.39"/><circle cx="477.04" cy="389.38" r="60.76" fill="#ffe6d9" stroke="#020000" stroke-miterlimit="10" stroke-width="1.39"/><path d="M1210.19 389.38c0 34.95-52.83 34.95-52.83 0s52.83-34.96 52.83 0zm-197.83 0c0 34.95-52.84 34.95-52.84 0s52.84-34.96 52.84 0zm48.9 87.17c0 35-52.83 35-52.83 0s52.83-34.95 52.83 0zm99.86 0c0 35-52.84 35-52.84 0s52.84-34.95 52.84 0zm0-171.71c0 35-52.84 35-52.84 0s52.84-34.96 52.84 0zm-99.86 0c0 35-52.83 35-52.83 0s52.83-34.96 52.83 0z" fill="#d7d6cb" stroke="#000" stroke-miterlimit="10" stroke-width="1.39"/><circle cx="675.39" cy="389.38" r="84.54" fill="#d7d6cb" stroke="#000" stroke-miterlimit="10" stroke-width="1.39"/><circle cx="575.14" cy="562.48" r="84.54" fill="#d7d6cb" stroke="#000" stroke-miterlimit="10" stroke-width="1.39"/><circle cx="374.18" cy="562.48" r="84.54" fill="#d7d6cb" stroke="#000" stroke-miterlimit="10" stroke-width="1.39"/><circle cx="274.34" cy="389.38" r="84.54" fill="#d7d6cb" stroke="#000" stroke-miterlimit="10" stroke-width="1.39"/><circle cx="575.14" cy="217.52" r="84.54" fill="#d7d6cb" stroke="#000" stroke-miterlimit="10" stroke-width="1.39"/><circle cx="374.18" cy="217.52" r="84.54" fill="#d7d6cb" stroke="#000" stroke-miterlimit="10" stroke-width="1.39"/></svg>