<svg xmlns="http://www.w3.org/2000/svg" viewBox="0 0 1400 780"><path fill="#f5e0cd" d="M0 0h1400v780H0z"/><path d="M631.71 144.79a12.87 12.87 0 00.14-1.54c3.17-8.15 3.2 12.64-2.33 14.35.8-5.6 1.91-11.38 2.19-12.81z" fill="#ffd3d1"/><path d="M696 684.52l-91.78.89h-.09c-.09-8.14.55-14.85 5.49-20.1a6.07 6.07 0 012.43-1.75c2-.67 3.46 1 5.75 1.31 9 1.28 12.56-2.58 16.56-5 2.64-1.63 5.47-2.65 10.17-1.16a13.94 13.94 0 015.86 3.52c1.39 1.26 3.05 2.89 5.84 5.1l.36.28c5.29 4.11 7 3.4 16.1 4.42 1.4.15 3 .35 4.76.61 13.7 2 18.55 8.61 18.55 8.61z" fill="#d8b8ab"/><path d="M628.38 133.3c-4.55-2.94-10.16-3.75-15-1.33l-1.33-1.46c4.58-2.82 13.41-3.41 17 .51z" fill="#84665e"/><path d="M552.61 355.49l-.32.1c-11.09-34.41-8.59-32.82 3.64-85.47 4.86 54.68 2.85 55.72 7.34 85.37z" fill="#c99f91"/><path d="M719.86 267.41c3.53 6.55 3.17 11.86 1.53 16.19.07-5.68.85-10.83-4.84-11.33-5.08-.44-7.73 1.32-10.16 2-1.35.37-4.55.53-7 1.33v-.1c-2.35-.16-2.74-3.59-2.6-5.28.3-4.02 19.56-8.52 23.07-2.81zm1.53 16.19v.73l-.22-.15c.07-.18.15-.38.22-.58z" fill="#fdcdcd"/><path d="M714.46 295.73s1.73 18-2.45 23-5.62 8.29-10.26 9.29c-13.63 2.91-13.87.49-28.06-7.63-2.92-28.24-3.62-28 11.35-43.63a94.78 94.78 0 00-1 10.05c-1.24 6.22-4 5.61.89 17 5.48 12.79 21.29 7.65 23.86 5.08s5.3-11.48 5.3-11.48a3.41 3.41 0 01.24-1.77z" fill="#d8b8ab"/><path d="M596.93 136.94c0 .07 4.84-1.48 1.22-4.5a3.6 3.6 0 015.62 3c0 4.17-5.5 4.68-6.87 1.56z" fill="#42292c"/><path d="M715 294.36a7.91 7.91 0 00-.63 1.33 3.41 3.41 0 00-.24 1.77s-2.65 8.83-5.3 11.48-18.38 7.71-23.86-5.08c-4.89-11.39-2.13-10.78-.89-17a94.78 94.78 0 011-10.05 26 26 0 012.12-7.62c6.17-11.3 3.23-21.29 4-24.31.44-1.76 5.74-7.06 7.5-2.65s-.44 18.56 3.54 18.12c6.24-.69 35.42-3.55 35.35-3.54 12.74 2.32-5.29 6.48-17.68 10.61-3.51-5.71-22.77-1.21-23.12 2.8-.14 1.69.25 5.12 2.6 5.28v.1c-2.47.78-4.21 2.18-2.7 5 1 1.94 3.44 2 4.45 2a10.06 10.06 0 015.27-1.71c2.65-.23 6.63-2.65 10.16 0 2.71 2 4.1 3 4.61 3.29-1.78 4.27-4.72 7.57-6.18 10.18z" fill="#fdcdcd"/><path d="M575.62 686h.1c0 2.52-.13 5.17-.19 8h-91.69v-8.83z" fill="#a17c76"/><path d="M658.27 394.64l-13.74 264c-4.7-1.49-7.53-.47-10.17 1.16l-.11-.19h-30c-1.69-217-3.12-167.4 3.56-244.36l.17-24c5.55 0 11.8-.82 24.28-3.34 6.01 7.53 16.4 7.68 26.01 6.73z" fill="#280a54"/><path d="M687.16 269.18a26 26 0 00-2.16 7.62c-15 15.61-14.27 15.39-11.35 43.63l-8.84-6.51v-96z" fill="#c99d90"/><path d="M610.19 151.48c0-.8-1.59-.8-1.59 0s1.59.8 1.59 0zm9.81 9.44c-12-1.11-4.88-1.82-21.43-1.11 1.83 4.44 16.43 5.83 21.43 1.11zM613.38 132c4.84-2.42 10.45-1.61 15 1.33l.68-2.28c-3.6-3.92-12.43-3.33-17-.51zm18.47 11.28a12.87 12.87 0 01-.14 1.54c-.28 1.43-1.39 7.25-2.19 12.81a76.58 76.58 0 00-.83 8.18c-.09 3.93-2.6 8.38-5.81 12.15-.47.21-13.37 6.36-20.09 4.62-13.29-3.43-13.85-4.52-21.21-16.79l-2.21-4.42c-5.25.44-4.27.77-8-7.51-1.77-4 0-13.48 3.09-15.47 4.32-2.77 8.57 4.83 9.06 9.94.2-7.57 1-25-2.9-31.37 14-.63 7.21-1.12 20.36-6 4.19-1.55 12.59-3.1 16.12-4.42s6.85-.89 11.56 0 2.36 2.87 3 6.41c.56 2.92.49 21.33.21 28.8.02.59 0 1.08-.02 1.5zm-22.45-17.9c-2.65-3.18-4.74-2.26-10.49-3.53-3-.67-9.17 3-9.17 3 2.72 2.85 11.18-2.8 18.33 2.26zM596.89 137c1.37 3.12 6.87 2.61 6.87-1.56a3.6 3.6 0 00-5.62-3 3.34 3.34 0 00-1.56 3 4 4 0 00.31 1.56z" fill="#fecece"/><path d="M629.89 204.07c2.2 19.84 2.75 30.62 2.63 98.62 0 21.79-.15 49.46-.29 85.2-12.48 2.52-18.73 3.36-24.28 3.34-5.31 0-10-.83-18.88-1.72 1.16-36.81 1.73-64.51 1.63-86.77-.19-46.63-3.32-69.36-10.07-102L604.54 212c4.62 8.42 3.46 0-1.77 136.1l13 18 11.16-19.1c-10.22-135.6-11.49-126.12-5.6-135.81l8.5-7.06z" fill="#fff"/><path d="M634.36 659.83c-4 2.46-7.57 6.32-16.56 5-2.29-.33-3.73-2-5.75-1.31v-3.92h22.2z" fill="#ffcfcf"/><path d="M549.16 197.89c2-1.74 8.94-4.4 15.46-6.65 6.77-2.34 13.11-4.25 13.11-4.25 1 4.8 2 9.35 2.9 13.72 6.75 32.67 9.88 55.4 10.07 102 .1 22.26-.47 50-1.63 86.77-1.47-.15-6.33 4.56-8.39 4.86-5.46-2.77-9.13-3.9-11.65-4.33V390c-2.66-15.12-4.48-26-5.77-34.46-4.49-29.65-2.48-30.69-7.34-85.37-12.23 52.65-14.73 51.06-3.64 85.47 2.42 7.51 5.48 16.74 9.24 28.62-8.39 0-15 1-21.8 6.62l-9.72 7.47c-29.66-57.53-29.63-88.49-7.36-168.65 2.95-10.6 22.36-28.27 26.52-31.81z" fill="#d8b8ab"/><path d="M598.15 132.44c3.62 3-1.19 4.57-1.22 4.5a4 4 0 01-.31-1.56 3.34 3.34 0 011.56-3z" fill="#fff6ff"/><path d="M608.07 127.12c-7.15-5.06-15.61.59-18.33-2.26 0 0 6.18-3.71 9.17-3 5.75 1.27 7.84.35 10.49 3.53z" fill="#7d615e"/><path d="M614.84 184.93c-9.52 5.63-21.59-2.79-25.25 7.78l-.06.08c-2.53-1.91-5.44-4.3-8.88-7.27l.91-19.74c7.36 12.27 7.92 13.36 21.21 16.79 6.72 1.74 19.62-4.41 20.09-4.62a34.07 34.07 0 01-8.02 6.98z" fill="#feb6b7"/><path d="M602.77 348.12c5.23-136 6.39-127.68 1.77-136.1l9.42-7.94 7.37 7.06c-5.89 9.69-4.62.21 5.6 135.81l-11.2 19.14z" fill="#280a54"/><path d="M589.59 192.71c3.66-10.57 15.73-2.15 25.25-7.78a34.07 34.07 0 008-7l.81 13.31c0 5.62-3 6.86-9.73 12.84-9.4-3.14-12.93-2.5-24.43-11.29z" fill="#ffcfcf"/><path d="M620 160.92c-5 4.72-19.6 3.33-21.43-1.11 16.55-.71 9.43 0 21.43 1.11z" fill="#fff6ff"/><path d="M545.49 660.41c4 2.45 7.57 6.31 16.56 5 2.28-.32 3.72-2 5.74-1.31a6 6 0 012.43 1.75c4.95 5.25 5.59 12 5.5 20.11h-.1l-91.78-.88v-3.32s4.86-6.63 18.56-8.62c1.77-.26 3.33-.45 4.72-.6 9.15-1 10.84-.31 16.12-4.42l.37-.28c2.79-2.22 4.45-3.84 5.84-5.11a14.07 14.07 0 015.87-3.51c4.68-1.46 7.53-.45 10.17 1.19z" fill="#d8b8ab"/><path d="M569 390c-6.42-1.1-5.43 2.23-7.5-5.83-3.76-11.88-6.82-21.11-9.24-28.62l.32-.1h10.66c1.29 8.49 3.11 19.34 5.77 34.46z" fill="#cd9d91"/><path d="M632.52 302.69c.12-68-.43-78.78-2.63-98.62-.35-3.2-.75-6.65-1.2-10.6 22.84 12.38 27.16 13.45 36.16 24.45v173.5l-6.58 3.22c-9.61.95-20 .8-26-6.75.1-35.74.21-63.41.25-85.2z" fill="#d8b8ab"/><path d="M564.62 113.2l16 3.75c3.87 6.4 3.1 23.8 2.9 31.37-.49-5.11-4.74-12.71-9.06-9.94z" fill="#7f6161"/><path d="M530 398.35l9.72-7.52c-.84.7-.42 2.36 1 6.49z" fill="#cd9d91"/><path d="M561.53 384.21c2.07 8.06 1.08 4.73 7.5 5.83 2.52.43 6.19 1.56 11.65 4.33-2.06.3 1 6.19 1 6.19-15.61 9.84-32.87 8.9-37.27 7.06-1.55-4.52-2.79-7.85-3.66-10.3-1.47-4.13-1.89-5.79-1-6.49 6.78-5.66 13.39-6.62 21.78-6.62z" fill="#fecece"/><path d="M567.79 664.13c-2-.66-3.46 1-5.74 1.31-9 1.28-12.56-2.58-16.56-5l.11-.19h22.19z" fill="#ffcfcf"/><path d="M572.28 660.22H545.6l-.11.19c-2.64-1.64-5.47-2.65-10.17-1.16 7.95-257.22 7.07-252.49 9.12-251.63 4.4 1.84 21.66 2.78 37.27-7.06 0 0-3.09-5.89-1-6.19s6.92-5 8.39-4.86c8.89.89 13.57 1.7 18.88 1.72l-.17 24z" fill="#280a54"/><path d="M716.55 272.27c5.69.5 4.91 5.65 4.84 11.33-.07.2-.15.39-.23.58-.51-.33-1.9-1.26-4.61-3.29-3.53-2.65-7.51-.23-10.16 0a10.06 10.06 0 00-5.27 1.71c-1 0-3.42-.06-4.45-2-1.51-2.83.23-4.23 2.7-5s5.67-1 7-1.33c2.45-.68 5.1-2.44 10.18-2z" fill="#fdcdcd"/><path d="M608.6 151.48c0-.8 1.59-.8 1.59 0s-1.59.8-1.59 0z" fill="#a56d6c"/><path d="M638.34 112.76c-.22 3.53-6.21 29-6.21 29h-.21c.28-7.47.35-25.88-.21-28.8-.66-3.54 1.7-5.53-3-6.41s-8-1.33-11.56 0S605.2 109.44 601 111c-13.15 4.84-6.36 5.33-20.36 6l-16-3.75c1.22-1.29 2.32-3.65 3.88-6.5 3.68-6.65 9.94-15.92 26.31-20 7.08-1.77 11.05.66 20 1.54s15 12.16 15 12.16a32 32 0 004.18 2c1.4.36 4.55 6.77 4.33 10.31z" fill="#806264"/><path d="M696 684.52v8.84h-91.68c-.07-2.78-.17-5.44-.19-8h.09z" fill="#a17c76"/><path d="M604.13 685.41c0 2.51.12 5.17.19 8H696v-12.2s-4.85-6.63-18.55-8.61c-1.79-.26-3.36-.46-4.76-.61-9.12-1-10.81-.31-16.1-4.42l-.36-.28c-2.79-2.21-4.45-3.84-5.84-5.1a13.94 13.94 0 00-5.86-3.52c-4.7-1.49-7.53-.47-10.17 1.16-4 2.46-7.57 6.32-16.56 5-2.29-.33-3.73-2-5.75-1.31a6.07 6.07 0 00-2.43 1.75c-4.94 5.29-5.62 12-5.49 20.14zm.09 0l91.78-.89" fill="none" stroke="#000" stroke-miterlimit="10" stroke-width=".7"/><path d="M659.77 663.1a30.26 30.26 0 00-9.38-.91c-6.06.51-7.71 3.47-10.51 2.23m8.4 4.64s4-.84 8.31-1.49c4-.59 8.24-1 10-.5m6.13 4.93h0c-.77 0-13.88.28-19 1.93m-19.47-14.29h-22.2v3.92M575.72 686c0 2.52-.13 5.17-.19 8h-91.69v-12.21s4.86-6.63 18.56-8.62c1.77-.26 3.33-.45 4.72-.6 9.15-1 10.84-.31 16.12-4.42l.37-.28c2.79-2.22 4.45-3.84 5.84-5.11a14.07 14.07 0 015.87-3.51c4.7-1.49 7.53-.48 10.17 1.16 4 2.45 7.57 6.31 16.56 5 2.28-.32 3.72-2 5.74-1.31a6 6 0 012.43 1.75c4.95 5.28 5.59 12.01 5.5 20.15zm-.1-.01l-91.78-.88" fill="none" stroke="#000" stroke-miterlimit="10" stroke-width=".7"/><path d="M520.07 663.67a30.28 30.28 0 019.38-.91c6.07.51 7.72 3.48 10.51 2.24m-8.4 4.64s-4-.85-8.32-1.49c-4-.6-8.22-1-10-.5m-6.12 4.92s13.77.24 19 1.93m19.48-14.28h22.19v3.91m76.74-5.46l13.74-264c-9.61.95-20 .8-26-6.75-12.48 2.52-18.73 3.36-24.28 3.34-5.31 0-10-.83-18.88-1.72-1.47-.15-6.33 4.56-8.39 4.86s1 6.19 1 6.19c-15.61 9.84-32.87 8.9-37.27 7.06-2.05-.86-1.17-5.59-9.12 251.63" fill="none" stroke="#000" stroke-miterlimit="10" stroke-width=".7"/><path d="M567.79 660.22h4.49l35.5-244.94c-6.68 77-5.25 27.32-3.56 244.36h7.83m72.02-372.79a94.78 94.78 0 011-10.05 26 26 0 012.12-7.62c6.17-11.3 3.23-21.29 4-24.31.44-1.76 5.74-7.06 7.5-2.65s-.44 18.56 3.54 18.12c6.24-.69 35.42-3.55 35.35-3.54 12.74 2.32-5.29 6.48-17.68 10.61 3.53 6.55 3.17 11.86 1.53 16.19-.07.2-.15.39-.23.58-1.76 4.27-4.7 7.57-6.17 10.18a7.91 7.91 0 00-.63 1.33 3.41 3.41 0 00-.24 1.77s-2.65 8.83-5.3 11.48-18.38 7.71-23.86-5.08c-4.89-11.39-2.13-10.78-.89-17" fill="none" stroke="#000" stroke-miterlimit="10" stroke-width=".7"/><path d="M684.07 286.85h0s4 10.15 5.75 11.48m25.18-3.98h0c-.41.24-7.1 4.19-8.6 4m5.6-11.5c-11 5-15.24-1-10.89-4.25a10.06 10.06 0 015.27-1.71c2.65-.23 6.63-2.65 10.16 0 2.71 2 4.1 3 4.61 3.29l.22.15v-.73c.07-5.68.85-10.83-4.84-11.33-5.08-.44-7.73 1.32-10.16 2-1.35.37-4.55.53-7 1.33s-4.21 2.18-2.7 5c1 1.94 3.44 2 4.45 2 .3 0 .48-.05.48-.05m18.26-15.14c-3.51-5.71-22.77-1.21-23.12 2.8-.14 1.69.25 5.12 2.6 5.28" fill="none" stroke="#000" stroke-miterlimit="10" stroke-width=".7"/><path d="M714.46 295.73s1.73 18-2.45 23-5.62 8.29-10.26 9.29c-13.63 2.91-13.87.49-28.06-7.63-2.92-28.24-3.62-28 11.35-43.63" fill="none" stroke="#000" stroke-miterlimit="10" stroke-width=".7"/><path fill="none" stroke="#000" stroke-miterlimit="10" stroke-width=".7" d="M673.69 320.43l-8.84-6.51v-96l22.31 51.26m-22.31 44.74v77.5l-6.58 3.22m-26.04-6.75c.14-35.74.25-63.41.29-85.2.12-68-.43-78.78-2.63-98.62-.35-3.2-.75-6.65-1.2-10.6M642 200.7l4.78 17.22"/><path fill="none" stroke="#000" stroke-miterlimit="10" stroke-width=".7" d="M648.73 227.05l2.35 17.38-12.08 2.95 9.43 7.36-15.91 47.95-.1.29m9.33 51.3l23.1-1.74m-77.33 44.78l-5.81 3.24m-1.03-6.19c-5.46-2.77-9.13-3.9-11.65-4.33-6.42-1.1-5.43 2.23-7.5-5.83-8.39 0-15 1-21.8 6.62-.84.7-.42 2.36 1 6.49.87 2.45 2.11 5.78 3.66 10.3"/><path fill="none" stroke="#000" stroke-miterlimit="10" stroke-width=".7" d="M539.73 390.83l-9.72 7.52 10.77-1.03h.02"/><path d="M589.07 389.51c1.16-36.81 1.73-64.51 1.63-86.77-.19-46.63-3.32-69.36-10.07-102-.9-4.37-1.86-8.92-2.9-13.72 0 0-6.34 1.91-13.11 4.25-6.52 2.25-13.43 4.91-15.46 6.65-4.12 3.54-23.57 21.21-26.51 31.81-22.27 80.16-22.3 111.12 7.36 168.65" fill="none" stroke="#000" stroke-miterlimit="10" stroke-width=".7"/><path d="M561.53 384.21c-3.76-11.88-6.82-21.11-9.24-28.62-11.09-34.41-8.59-32.82 3.64-85.47 4.86 54.68 2.85 55.72 7.34 85.37 1.29 8.49 3.11 19.34 5.77 34.46" fill="none" stroke="#000" stroke-miterlimit="10" stroke-width=".5"/><path fill="none" stroke="#000" stroke-miterlimit="10" stroke-width=".7" d="M573.61 355.49h-21m12.01-164.25l-1.5 30.22m.75 10.6c-.28 1.18 0 12.08 0 12.08h15.63l-13 9.13 24.16 49.47.11.24M604.54 212c4.62 8.42 3.46 0-1.77 136.1l13 18 11.16-19.1c-10.22-135.6-11.49-126.12-5.6-135.81l-7.33-7.11zm16.79-.86l8.5-7.06m-25.29 7.94l-23.89-11.32m42.21-22.7c-.47.21-13.37 6.36-20.09 4.62-13.29-3.43-13.85-4.52-21.21-16.79l-.91 19.74m43.04 5.67l-.81-13.31"/><path d="M577.73 187l2.92-1.47c3.44 3 6.35 5.36 8.88 7.27 11.5 8.79 15 8.15 24.43 11.29 6.78-6 9.73-7.22 9.73-12.84l.59.27h0l1.08.48h0l.92.41h0l.41.18.35.16h0s0 0 0 0l.31.13h0l.75.33h0l.31.14.17.08c22.84 12.38 27.16 13.45 36.16 24.45" fill="none" stroke="#000" stroke-miterlimit="10" stroke-width=".7"/><path d="M631.85 143.25c0-.42 0-.91.07-1.47.28-7.47.35-25.88-.21-28.8-.66-3.54 1.7-5.53-3-6.41s-8-1.33-11.56 0S605.2 109.44 601 111c-13.15 4.84-6.36 5.33-20.36 6 3.87 6.4 3.1 23.8 2.9 31.37-.49-5.11-4.74-12.71-9.06-9.94-3.09 2-4.86 11.49-3.09 15.47 3.68 8.28 2.7 8 8 7.51l2.21 4.42" fill="none" stroke="#000" stroke-miterlimit="10" stroke-width=".17"/><path d="M622.86 178h0c3.21-3.77 5.72-8.22 5.81-12.15a76.58 76.58 0 01.83-8.18c.8-5.56 1.91-11.38 2.19-12.81a12.87 12.87 0 00.14-1.54" fill="none" stroke="#000" stroke-miterlimit="10" stroke-width=".7"/><path d="M589.59 192.71c3.66-10.57 15.73-2.15 25.25-7.78a34.07 34.07 0 008-7" fill="none" stroke="#000" stroke-miterlimit="10" stroke-width=".17"/><path d="M574.71 142.14s3.17-1.77 3 2.65 1.4 2.43-.15 4.42c-2.11 2.72.64 4.47.7 8.39" fill="none" stroke="#000" stroke-miterlimit="10" stroke-width=".7"/><path d="M631.85 143.25c3.17-8.15 3.2 12.64-2.33 14.35" fill="none" stroke="#000" stroke-miterlimit="10" stroke-width=".17"/><path d="M632.13 141.79s6-25.5 6.21-29-2.93-10-4.33-10.39a32 32 0 01-4.18-2s-6-11.27-15-12.16-13-3.31-20-1.54c-16.37 4.09-22.63 13.36-26.31 20-1.56 2.85-2.66 5.21-3.88 6.5l9.87 25.18" fill="none" stroke="#000" stroke-miterlimit="10" stroke-width=".7"/><path d="M621.33 101.93c-14.28-5.71-31.39 7.48-40.68 6.63-2.76-.25-8.08-1.14-12.15-1.86-3-.53-5.38-1-5.38-1m1.5 7.5l16.03 3.75m49.18-16.56s-1.3 5.08-2.9 5.34m-18.86 21.39c-7.15-5.06-15.61.59-18.33-2.26 0 0 6.18-3.71 9.17-3 5.75 1.27 7.84.35 10.49 3.53zm5.31 4.88c4.84-2.42 10.45-1.61 15 1.33l.68-2.28c-3.6-3.92-12.43-3.33-17-.51z" fill="none" stroke="#000" stroke-miterlimit="10" stroke-width=".7"/><path d="M615.85 136.14c2.28-2.77 6.49-1.36 7.77.34" fill="none" stroke="#000" stroke-miterlimit="10" stroke-width="1.4"/><path d="M615.36 134.64c2.72-3 7.75-1.5 9.28.36m-31.26-2.4c4.49-2.49 8.91-1.47 10.38 0" fill="none" stroke="#000" stroke-miterlimit="10" stroke-width=".7"/><path d="M598.14 132.42a3.6 3.6 0 015.62 3c0 4.17-5.5 4.68-6.87 1.56a4 4 0 01-.31-1.56 3.34 3.34 0 011.56-3zm.01.02c3.62 3-1.19 4.57-1.22 4.5m15.12.06s4.42 10.37 2.21 12.75-.81 1.94-2.25 1.94m-4.82-3.88c-3.31 1.49-2.09 2.75-1.18 4.27m9.35-4.27s3.61 2.72 1.26 3.86" fill="none" stroke="#000" stroke-miterlimit="10" stroke-width=".7"/><path d="M610.19 151.48c0 .8-1.59.8-1.59 0s1.59-.8 1.59 0z" fill="none" stroke="#000" stroke-miterlimit="10" stroke-width=".35"/><path fill="none" stroke="#000" stroke-miterlimit="10" stroke-width=".7" d="M623.09 155.03l1.26 1.77m-32.4-1.77l-1.33 1.77m7.95 3.01c16.55-.71 9.46 0 21.43 1.11-5 4.72-19.6 3.33-21.43-1.11zm-.88-1.66c1.11 2.1 1.31 1.4-.76 2.66m22.52-1.99l.55 2.1m-12.81 6.74s3.24-1.22 4.82 0"/><path d="M1031 564.14c-22-37.81-21.38-32.72-25.48-48.95 10.36 5.38 19.27 14 25.81 23.65.08 10.16-.33 25.3-.33 25.3z" fill="#fedcd2"/><path d="M1070.51 308.37c-3.12 7.25-5.74 13.31-7.62 18.78-.61-5.55-1.49-9.39-.76-14.52.5-3.53 1.77-7.67 4.41-13.41z" fill="#d24848"/><path d="M1024.33 648.12l6.68-84s.4-15.18.36-25.31a58.72 58.72 0 00-.36-8.7c-.81-2.65-5.55-7.38-5.55-9.84 11.42 2.29 21.22-.65 36.35-5.11h.06c3.9 9.48 3.2 31.08 2.78 39.94-.73.41-.25 8.59-5 25.06-4.28 14.9-6.05 18.93-6.05 18.93l-13.75 43.28s-14.57 22.15-18.36 24.22c-10.08 5.55-.47 7.32-21.77 7.77z" fill="#fedcd2"/><path d="M1036.39 227.06c-5.27 5.76-14.39 3-12.24-.23z" fill="#fdfffc"/><path d="M1060.94 610.14l-7.34-11s1.77-4 6.05-18.93c4.75-16.47 4.27-24.65 5-25.06.39-.23 1.13 1.77 3.2 5.89h-.08c-1.43 36.74-3.77 33.36-6.83 49.1z" fill="#fbbeab"/><path d="M1041.24 386.54c3.54-2.28 2.46-5.49 3.84-6.88.51-.5 15.62-7.76 17-8.58s2.61-3.46 2.86-4.79l-2-4.92c3.73-1.12 8.14 1.29 13.62 3.78l14.14-16.65c10.15-2 8.34-1.37 26.49-6.82 4.24 14.11-1.66 16.28-5.8 19.69-17.09 14.07-30.45 12.38-34.83 24.73 0 0-9.46 8.7-11.73 8.9-4.91.4-13.75 4.29-13.25 1.32a.68.68 0 00-.16-.66c-.56-.5-2.44-.25-6.46-.1a11.63 11.63 0 01-2.09-3.78c-1.45.48-4.11-3.65-1.63-5.24z" fill="#fedcd2"/><path d="M955.26 301c-3.15-1.62-9.39-2.68-11.52-1.21s-3.2 2.14-3.57 2.36l-.16-.34c0-7.82-.32-9.74 11.57-6.74 1 .26 3.5.38 5.42 1s3.23 1.56 2.08 3.56c-1 1.77-3.8 1.39-3.8 1.39z" fill="#fcdad0"/><path d="M1024.15 226.83c-2.15 3.23 7 6 12.24.23zm.84-2.9c1.42-.15.69 1.17 2.49.85.52-.09 2.09-2.63 3.75-.22 0 0 1.14 1 4.26 1.13s2.85-.76 3.31-1.13-.09 1.8-.09 1.8c.72 2.14 1 1.88-.66 1.13-2.84 2.76-5.89 7.51-13.9 4.26-1.55-.63.53-1.56-3.14-4.26 2.3 0 .37-3.19 3.99-3.56z" fill="#d57b7a"/><path d="M1076.54 672.26c17.21-8.91 8.64-6.49 14.65-15.07 2.25-3.22 5.25-27.14 5.25-27.14 8.39 4.08 6.38 4.43 13.11 33.27l-3.4 1.67c-7.53-15.3-4.3-11.17-6.67-4.2-.55 1.62-4.76 9.83-4.76 9.83l-19.16 9.38c-4.9.19-2.08-3.89.98-7.74z" fill="#280a54"/><path d="M969.07 317.72c.3.19 9.85 6.61 10.59 10.08.53 2.47 1.72 12.82 1 16.41-1.49 1.21-3.77 3.11-6.33 4.86 6.87-10.53 2.31-18.46-5.26-31.35z" fill="#fbbdae"/><path d="M1028.11 244.71c10.45-1.87 19-6.46 26-16.08 1.4 13.68 2 17.56 4.12 19l-.06.12c3.54 9.09.92-2.19-9.84-2.46-7.54-.2-20.22-.58-20.22-.58z" fill="#fcc1b1"/><path d="M1037.44 209.48c-.7 2.3-4 2-4-.92 0-2.43 2.32-3 3.51-1.85-1 1.25-.57 2.2.54 2.75z" fill="#000407"/><path d="M979.66 327.8c-.74-3.47-10.29-9.89-10.59-10.08 24.9-48.84 29.36-59.48 30.69-59.48.63 0 .56 2.37 1.61 4.21s9.59 6.57 15.4 8.33 11.1 1 26.56.51 40.67-11.62 40.67-11.62c17.18 21.08 26.76 53.14 34.29 81.52l-1.06.49c-18.15 5.45-16.34 4.79-26.49 6.82l-20.19-40.13-4-9.15c-2.64 5.74-3.91 9.88-4.41 13.41l-8.27-.09a20.61 20.61 0 00.24-3.92s-20.69 11.11-31 10.61c-25.27-1.24-27.27-3.72-38.86-12.12-.26 11.57 5.28 11.63 10.35 18.92l.25 3.79-14.13 14.39c.66-3.59-.53-13.94-1.06-16.41z" fill="#e86060"/><path d="M1025.59 515.18s-.13 2.65-.13 5.11 4.74 7.19 5.55 9.84a58.72 58.72 0 01.36 8.7c-6.54-9.67-15.45-18.27-25.81-23.65-.23-.94-.48-2-.76-3 10 1.57 15.14 2.56 20.82 2.92z" fill="#fbbeab"/><path d="M1037.57 208.56a2.92 2.92 0 01-.13.92c-1.11-.55-1.51-1.5-.54-2.75a2.54 2.54 0 01.67 1.83z" fill="#fbffff"/><path d="M1010.22 197.11c-.17-.34-5.42-11-1.51-15.14 8.08-8.66 12.24-5.86 28.58-1.35-17-1.22-14-1.1-23.66 5.7-1.61 1.14-3.4 10.79-3.4 10.79z" fill="#712d2c"/><path d="M1019.17 243.39c2.61 3.59 8.94 1.32 8.94 1.32v4.17c-7.68.83-11.58 1.1-15 2.08a21.93 21.93 0 00-3.51 1.34c-1.08-3.32 2.66-23.28 3.11-25.62 2.07 6.59 4.86 14.51 6.46 16.71z" fill="#a04f4e"/><path d="M951.58 295c-11.89-3-11.58-1-11.58 6.77-1.61-3.6-1.53-7 1.17-11.62 2.7-4 17.57-.87 17.84 2 .12 1.2-.2 3.65-2 3.76v.08c-1.93-.58-4.41-.7-5.43-.99z" fill="#fcdad0"/><path d="M1060.94 610.14c3-15.74 5.4-12.36 6.83-49.11h.08c.71 1.42 1.59 3.1 2.66 5 1.26 2.27 16.66 46.94 19.18 55s6.75 9 6.75 9-3 23.92-5.25 27.14c-6 8.58 2.56 6.16-14.65 15.07l5.83-29.89z" fill="#fedcd2"/><path d="M1020.74 209.37c-1.1-.54-1.46-1.33-.49-2.57a2.57 2.57 0 01.6 1.76 3.45 3.45 0 01-.1.81z" fill="#fbffff"/><path d="M940.17 302.11l-.16.09v-.43z" fill="#fcdad0"/><path d="M1030.29 220c0-.32-1.89-.32-1.89 0s1.89.34 1.89 0zm7-39.4c.56 17.25 2.27 19 13.91 29.74 3.16-10.27 9.15-3.69 9.47-2.27.38 1.7-.38 9.46-1.14 11.07s-2 2-1.8 4.07.29 2.65-.47 3.22c-2.54 1.91-3.13-1-3.12 2.18-7.07 9.62-15.58 14.21-26 16.08 0 0-6.33 2.27-8.94-1.32-1.6-2.2-4.39-10.12-6.43-16.71a68.34 68.34 0 01-2.51-9.51c0-8.66 2.1-5.83.91-14.54-.21-1.48-.5-3.28-.91-5.52 0 0 1.79-9.65 3.4-10.79 9.61-6.78 6.59-6.9 23.63-5.68zm-17 26.18c-1.15-1.31-3.59-.72-3.59 1.76 0 3 3.46 3.24 4.09.81a3.45 3.45 0 00.1-.81 2.57 2.57 0 00-.64-1.74zm17.19 2.68a2.92 2.92 0 00.13-.92 2.54 2.54 0 00-.67-1.85c-1.19-1.19-3.51-.58-3.51 1.85-.04 2.94 3.31 3.24 4.01.94zm-16.43 18c3.67 2.7 1.59 3.63 3.14 4.26 8 3.25 11.06-1.5 13.9-4.26 1.62.75 1.38 1 .66-1.13 0 0 .57-2.18.09-1.8s-.18 1.23-3.31 1.13-4.26-1.13-4.26-1.13c-1.66-2.41-3.23.13-3.75.22-1.8.32-1.07-1-2.49-.85-3.65.4-1.72 3.59-4.03 3.59z" fill="#fedcd2"/><path d="M1065 366.29s-25.49 7-28.46 6.75-24.54.44-29.84-1.83-11.86-4.92-11.86-4.92v-36.47l-.25-3.79c33.9-3.76 38.67 6.39 56.31-3.27 1.51-.83 2.54-6.32 3-10.22l8.27.09c-.73 5.13.15 9 .76 14.52-4.18 12.06-4.88 21.28 0 34.22z" fill="#e86060"/><path d="M1028.4 220c0-.32 1.89-.32 1.89 0s-1.89.34-1.89 0z"/><path d="M1013.14 251l14.59.19.38-2.27v-4.17s12.68.38 20.25.57c10.76.27 13.38 11.55 9.84 2.46l.06-.12c2.68 1.76 7.78-.23 19.89 7.81 1.78 1.18 3.71 2.58 5.81 4.24 0 0-25.19 11.1-40.64 11.61s-20.76 1.26-26.56-.51-14.39-6.56-15.4-8.33-1-4.21-1.61-4.21l.09-.08a89.92 89.92 0 019.79-5.85 21.93 21.93 0 013.51-1.34z" fill="#fedcd2"/><path d="M1023.06 319.23c10.35.5 31-10.61 31-10.61a20.61 20.61 0 01-.24 3.92c-.46 3.9-1.49 9.39-3 10.22-17.64 9.66-22.41-.49-56.31 3.27-5.07-7.29-10.61-7.35-10.35-18.92 11.63 8.4 13.63 10.89 38.9 12.12z" fill="#d44849"/><path d="M1051.2 210.36c-11.64-10.78-13.35-12.49-13.91-29.74-16.34-4.51-20.5-7.31-28.58 1.35-3.91 4.19 1.34 14.8 1.51 15.14a26.23 26.23 0 01-3.87-2.17c-.51-.45-7.42-12.57 2.36-23.38 1.3-1.44 7.31-4.09 14.58-1.8 27.1-6.15 36.42-6.54 45.52 11.27 4.54 8.89.37 15.42-1.8 30s7.1 21.2 10 25.55c4.23 6.29 6.9 13.87 1.15 18.79v.07c-12.11-8-17.21-6.05-19.89-7.81-2.15-1.43-2.72-5.31-4.12-19 0-3.22.58-.27 3.12-2.18.76-.57.66-1.14.47-3.22s1-2.46 1.8-4.07 1.52-9.37 1.14-11.07c-.33-1.42-6.32-8-9.48 2.27z" fill="#a04f4e"/><path d="M1025.46 520.29c0-2.46.13-5.11.13-5.11v-.11c7.28.47 15.38-.09 35.35-1.78a13.58 13.58 0 01.93 1.87h-.06c-15.13 4.48-24.93 7.42-36.35 5.13z" fill="#fbbeab"/><path d="M1036.5 373c3 .25 28.46-6.75 28.46-6.75-.25 1.33-1.45 4-2.86 4.79s-16.51 8.08-17 8.58c-1.38 1.39-.3 4.6-3.84 6.88-2.48 1.59.18 5.72 1.63 5.24a11.63 11.63 0 002.09 3.78c4-.15 5.9-.4 6.46.1a.68.68 0 01.16.66c-.5 3 8.34-.92 13.25-1.32 2.27-.2 11.73-8.9 11.73-8.9 12.61 40.62 7 24.6-2.27 124.54l-13.35 2.65c-20 1.69-28.07 2.25-35.35 1.78-5.68-.36-10.86-1.35-20.82-2.92l-7.95-1.39c-6.71-94.94-8.38-89.32-2-144.47 0 0 6.56 2.65 11.86 4.92s26.84 1.61 29.8 1.83z" fill="#280a54"/><path d="M943.74 299.75c2.13-1.47 8.37-.41 11.52 1.21s2.78.38 3.8-1.39c1.15-2-.19-3-2.08-3.56v-.08c1.8-.11 2.12-2.56 2-3.76-.27-2.87-15.14-6-17.84-2-9.53-2.93-23.47-5.9-13.64-7.55l27.28 2.52c3.06.31 1.36-9.76 2.73-12.91s5.45.63 5.79 1.89-.34 6.61 0 7.87c3.4 12.54 5 10.91 5.46 22-1.79 10.19-4.74 12.93.27 13.7 7.57 12.89 12.13 20.82 5.27 31.35-4.51 3.08-9.85 5.74-13 3.53-1.5-1.05-9.55-17-12.11-37.48-4-5.56-7.33-9.42-9-13 .35-.2 1.42-.87 3.55-2.34z" fill="#fcdad0"/><path d="M1039.85 642.37c6.28 8.08 4.14 7.44-3.22 39.18h-4.16c0-18.74 1.17-13.1-4.55-7.38-1.32 1.33-9.46 7.38-9.46 7.38H995c-4.91-2.23-.14-4.89 4.73-7.19 21.3-.45 11.69-2.22 21.77-7.77 3.78-2.07 18.35-24.22 18.35-24.22z" fill="#280a54"/><path d="M1016.66 208.56c0-2.48 2.44-3.07 3.59-1.76-1 1.24-.61 2 .49 2.57-.62 2.43-4.08 2.16-4.08-.81z" fill="#000407"/><path d="M1013.14 251c3.39-1 7.29-1.25 15-2.08l-.38 2.27z" fill="#fdc0ad"/><path d="M999.72 674.36c-4.87 2.3-9.64 5-4.73 7.19h23.47s8.14-6 9.46-7.38c5.72-5.72 4.55-11.36 4.55 7.38h4.16c7.36-31.74 9.5-31.1 3.22-39.18 0 0-14.57 22.15-18.36 24.22-10.08 5.55-.49 7.32-21.77 7.77zm76.82-2.1c-3.06 3.85-5.88 7.93-1 7.78l19.16-9.42s4.21-8.21 4.76-9.83c2.37-7-.86-11.1 6.67 4.2l3.4-1.67c-6.73-28.84-4.72-29.19-13.11-33.27 0 0-3 23.92-5.25 27.14-5.99 8.58 2.58 6.16-14.63 15.07z" fill="none" stroke="#000" stroke-miterlimit="10" stroke-width=".6"/><path d="M1096.44 630.05s-4.23-.93-6.75-9-17.92-52.74-19.18-55c-1.07-1.94-2-3.62-2.66-5-2.07-4.12-2.81-6.12-3.2-5.89-.73.41-.25 8.59-5 25.06-4.28 14.9-6.05 18.93-6.05 18.93l7.34 11 21.43 32.23-5.83 29.89" fill="none" stroke="#000" stroke-miterlimit="10" stroke-width=".36"/><path d="M1067.77 561c-1.43 36.75-3.78 33.37-6.83 49.11" fill="none" stroke="#000" stroke-miterlimit="10" stroke-width=".18"/><path fill="none" stroke="#000" stroke-miterlimit="10" stroke-width=".36" d="M1039.85 642.37l13.75-43.28m11.05-43.99c.42-8.86 1.12-30.46-2.78-39.94a13.58 13.58 0 00-.93-1.87c-20 1.69-28.07 2.25-35.35 1.78-5.68-.36-10.86-1.35-20.82-2.92.28 1.09.53 2.1.76 3 4.1 16.23 3.51 11.14 25.48 48.95l-6.68 84-24.61 26.24"/><path d="M1031 564.14s.4-15.18.36-25.31a58.72 58.72 0 00-.36-8.7c-.81-2.65-5.55-7.38-5.55-9.84s.13-5.11.13-5.11" fill="none" stroke="#000" stroke-miterlimit="10" stroke-width=".36"/><path d="M1005.56 515.18c10.36 5.38 19.27 14 25.81 23.65h0m-5.91-18.54c11.42 2.29 21.22-.65 36.35-5.11" fill="none" stroke="#000" stroke-miterlimit="10" stroke-width=".15"/><path d="M1060.94 513.29l13.35-2.65c9.27-99.94 14.88-83.92 2.27-124.54 0 0-9.46 8.7-11.73 8.9-4.91.4-13.75 4.29-13.25 1.32a.68.68 0 00-.16-.66c-.56-.5-2.44-.25-6.46-.1a11.63 11.63 0 01-2.09-3.78c-1.45.48-4.11-3.65-1.63-5.24 3.54-2.28 2.46-5.49 3.84-6.88.51-.5 15.62-7.76 17-8.58s2.61-3.46 2.86-4.79c0 0-25.49 7-28.46 6.75s-24.54.44-29.84-1.83-11.86-4.92-11.86-4.92c-6.36 55.15-4.69 49.53 2 144.47l7.95 1.39" fill="none" stroke="#000" stroke-miterlimit="10" stroke-width=".6"/><path d="M1076.56 386.1c4.38-12.35 17.74-10.66 34.83-24.73 4.14-3.41 10-5.58 5.8-19.69-18.15 5.45-16.34 4.79-26.49 6.82l-14.14 16.65c-5.48-2.49-9.89-4.9-13.62-3.78l2 4.92" fill="none" stroke="#000" stroke-miterlimit="10" stroke-width=".36"/><path d="M1110.64 349s-5.69-3.57-9-2.8m-23.06 21.98l-2.02-3.03" fill="none" stroke="#000" stroke-miterlimit="10" stroke-width=".15"/><path fill="none" stroke="#000" stroke-miterlimit="10" stroke-width=".6" d="M1051.39 395.67l.03-.02 11.52-4.63m-21.55-.02c7.49-.12 9.76-1.33 19.09-6.06m-17.16-.48c8.38-2 9.1-1.92 15.08-5.08"/><path d="M969.07 317.72c.3.19 9.85 6.61 10.59 10.08.53 2.47 1.72 12.82 1 16.41l14.13-14.39v36.47m122.4-24.61l1.06-.49c-7.53-28.38-17.11-60.44-34.29-81.52 0 0-25.19 11.1-40.64 11.61s-20.76 1.26-26.56-.51-14.39-6.56-15.4-8.33-1-4.21-1.61-4.21c-1.33 0-5.79 10.64-30.69 59.48" fill="none" stroke="#000" stroke-miterlimit="10" stroke-width=".36"/><path d="M992 286.92c-5.77 18.68-7.82 17.05-7.82 20.19 11.59 8.4 13.59 10.88 38.86 12.12 10.35.5 31-10.61 31-10.61a20.61 20.61 0 01-.24 3.92c-.46 3.9-1.49 9.39-3 10.22-17.64 9.66-22.41-.49-56.31 3.27l.25 3.79" fill="none" stroke="#000" stroke-miterlimit="10" stroke-width=".15"/><path d="M984.2 307.11c-.26 11.57 5.28 11.63 10.35 18.92m68.39 35.34c-4.93-12.94-4.23-22.16 0-34.22 1.88-5.47 4.5-11.53 7.62-18.78l20.19 40.13" fill="none" stroke="#000" stroke-miterlimit="10" stroke-width=".36"/><path d="M1070.51 308.37l-4-9.15c-2.64 5.74-3.91 9.88-4.41 13.41-.73 5.13.15 9 .76 14.52v.51" fill="none" stroke="#000" stroke-miterlimit="10" stroke-width=".15"/><path d="M968.8 304c-.42-11.12-2.06-9.49-5.46-22-.34-1.26.34-6.61 0-7.87s-4.43-5-5.79-1.89.33 13.22-2.73 12.91l-27.28-2.52c-9.83 1.65 4.11 4.62 13.64 7.55-2.7 4.64-2.78 8-1.17 11.62l.16.34c1.69 3.59 5 7.45 9 13 2.56 20.48 10.61 36.43 12.11 37.48 3.19 2.21 8.53-.45 13-3.53 2.56-1.75 4.84-3.65 6.33-4.86" fill="none" stroke="#000" stroke-miterlimit="10" stroke-width=".5"/><path d="M947.25 304c7.79 3.29 10.33-.41 9.78-1.57a3.78 3.78 0 00-1.77-1.47c-3.15-1.62-9.39-2.68-11.52-1.21s-3.2 2.14-3.57 2.36l-.16.09v-.43c0-7.82-.32-9.74 11.57-6.74 1 .26 3.5.38 5.42 1s3.23 1.56 2.08 3.56c-1 1.77-3.8 1.39-3.8 1.39m-14.1-10.83c2.7-4 17.57-.87 17.84 2 .12 1.2-.2 3.65-2 3.76" fill="none" stroke="#000" stroke-miterlimit="10" stroke-width=".36"/><path d="M968.8 304h0c-.18.43-3.1 7.26-4.43 8.17m9.85 37.08l.12-.18c6.86-10.53 2.3-18.46-5.27-31.35h0c-5-.77-2.06-3.51-.27-13.7m31.04-45.87a89.92 89.92 0 019.79-5.85 21.93 21.93 0 013.51-1.34c3.39-1 7.29-1.25 15-2.08v-4.17c10.45-1.87 19-6.46 26-16.08 1.4 13.68 2 17.56 4.12 19 2.68 1.76 7.78-.23 19.89 7.81 1.78 1.18 3.71 2.58 5.81 4.24" fill="none" stroke="#000" stroke-linecap="round" stroke-linejoin="round" stroke-width=".15"/><path fill="none" stroke="#000" stroke-linecap="round" stroke-linejoin="round" stroke-width=".15" d="M1028.11 248.88l-.38 2.27-.87 5.3m31.34-8.71c3.54 9.09.92-2.19-9.84-2.46-7.57-.19-20.25-.57-20.25-.57s-6.33 2.27-8.94-1.32c-1.6-2.2-4.39-10.12-6.43-16.71a68.34 68.34 0 01-2.51-9.51c0-8.66 2.1-5.83.91-14.54-.21-1.48-.5-3.28-.91-5.52 0 0 1.79-9.65 3.4-10.79 9.64-6.8 6.62-6.92 23.66-5.7.56 17.25 2.27 19 13.91 29.74 3.16-10.27 9.15-3.69 9.47-2.27.38 1.7-.38 9.46-1.14 11.07s-2 2-1.8 4.07.29 2.65-.47 3.22c-2.54 1.91-3.13-1-3.12 2.18m.85 27.82l-9.08 6.05"/><path fill="none" stroke="#000" stroke-linecap="round" stroke-linejoin="round" stroke-width=".15" d="M1012.78 250.96l.36.01 14.59.18h.01m-17.51-54.04h0c-.17-.34-5.42-11-1.51-15.14 8.08-8.66 12.24-5.86 28.58-1.35"/><path d="M1078.19 255.36c5.75-4.92 3.08-12.5-1.15-18.79-2.93-4.35-12.21-11-10-25.55s6.34-21.1 1.8-30c-9.1-17.81-18.42-17.42-45.52-11.27-7.27-2.29-13.28.36-14.58 1.8-9.78 10.81-2.87 22.93-2.36 23.38a26.23 26.23 0 003.87 2.17" fill="none" stroke="#000" stroke-linecap="round" stroke-linejoin="round" stroke-width=".15"/><path d="M1023.09 202.31s-7.49-1.89-12 .32a4.85 4.85 0 00-.91.54m17.37-5.01s9.81-1.78 12.28-.42" fill="none" stroke="#000" stroke-width="1.8"/><path d="M1054.52 221.34l-.57-2.27c1.23-.41 2.31-2.63 1.32-3.46s-1.61-1.37-1.32-3.07c.51-3.11 2.88-7.46 4.63-4.64m-32.36-.38c-.61 9.59-3.1 6.43-4 8.62-1.3 3.25 1.72 3.33 4 3.68m4.07-2.82a3.38 3.38 0 012.65 3.22m11.35 2.35l.85 1.99m-27.34 0l-1.14 2.27m4.34.66c3.67 2.7 1.59 3.63 3.14 4.26 8 3.25 11.06-1.5 13.9-4.26 1.62.75 1.38 1 .66-1.13 0 0 .57-2.18.09-1.8s-.18 1.23-3.31 1.13-4.26-1.13-4.26-1.13c-1.66-2.41-3.23.13-3.75.22-1.8.32-1.07-1-2.49-.85-3.6.37-1.67 3.56-3.98 3.56z" fill="none" stroke="#000" stroke-linecap="round" stroke-linejoin="round" stroke-width=".3"/><path d="M1024.15 226.83l12.24.23c-5.27 5.76-14.39 3-12.24-.23zm1.19 9.87s1.45-1.89 5-.63" fill="none" stroke="#000" stroke-linecap="round" stroke-linejoin="round" stroke-width=".3"/><path d="M1043.06 207.28l-1.84.67c-3.16-3.55-8.85-2.68-9.89-.43m-19.45-.27l1.85.67c3.15-3.55 8.85-2.69 9.89-.43" fill="none" stroke="#000" stroke-linecap="round" stroke-linejoin="round" stroke-width="1.2"/><path d="M1036.9 206.71a2.54 2.54 0 01.67 1.85 2.92 2.92 0 01-.13.92c-.7 2.3-4 2-4-.92-.05-2.43 2.27-3.04 3.46-1.85zm-16.65.09a2.57 2.57 0 01.6 1.76 3.45 3.45 0 01-.1.81c-.63 2.43-4.09 2.16-4.09-.81 0-2.48 2.44-3.07 3.59-1.76z" fill="none" stroke="#000" stroke-linecap="round" stroke-linejoin="round" stroke-width=".6"/><path d="M1012.78 226.45v.23c-.45 2.34-4.19 22.3-3.11 25.62v0" fill="none" stroke="#000" stroke-linecap="round" stroke-linejoin="round" stroke-width=".3"/><path d="M368.22 197.62a8 8 0 001.85.77c-2.82 2.56.36 4.44 1.15 4.82-6.98-.15-2.82-5.3-3-5.59z" fill="#010101"/><path d="M330.84 276.76c11.27 2.82 7.86-.24 30.49 31.53l.65 1.43v.1l.68 1.48c.06.15.13.28.19.42l.78 1.7.61 1.33c.21.44.4.87.59 1.29l.56 1.2.17.38c.13.27.25.54.37.8s.18.38.26.57l.58 1.27.17.35c.08.18.16.35.23.52s.25.55.38.81c0 0-12.72 11.64-23.9 4.53s-26.63-20.94-29.07-24.4a14.34 14.34 0 01-1.83-3.91c-.3-1.5-.61-3.11-.95-4.83a23.14 23.14 0 00.95 4.83c4.1 20.66 5.64 21.69 28 39.44-8.27 1.12-10.28.75-17 2.2-5.42 1.16-12.47 5.77-13.28 9.3-3.44 9.67-2.22 16.2 1.44 20.21l-.09.07v1.94s-17.06-32.25-16.79-41.47-1.09-40.92 3-47.42c15.65-25.05 11.17-22 19.23-25.2 2.18 13.86 3.16 16.77 9.85 17.05z" fill="#fdeae9"/><path d="M388.63 181.68h-.92z" fill="#010101"/><path d="M391.81 691.38c-.23-2.4-.52-4.88-.74-7.3h59.54v7.31z" fill="#fdfdfb"/><path d="M345.47 273.78c5.92 12.87 11.41 24.83 15.86 34.51-22.63-31.77-19.22-28.71-30.49-31.53l-3.71-2.46c3.87.17 9.51-.52 18.34-.52zm-1.76 52.71c11.18 7.11 23.9-4.53 23.9-4.53s.09.2.13.3l.79 1.71.2.43c.06.14.13.29.2.43s.11.26.17.38l.18.39c.06.13.12.25.17.37s.11.25.17.37c.21.48.42.92.61 1.33 0 .11.09.21.14.3l.26.58c.05.09.09.18.13.27l.31.68c.12.25.22.48.31.68l.17.36a1.38 1.38 0 00.08.17c0 .11.09.21.13.3s.07.14.1.2 0 0 0 .05l.12.27a.54.54 0 01.05.11v.06a.15.15 0 000 .07c-16.3 3.51-25.4 5.06-31.31 5.85-22.35-17.75-23.89-18.78-28-39.44a14.34 14.34 0 001.83 3.91c2.53 3.46 17.98 17.28 29.16 24.4zm34.67-71.17c3.9-1.61 5.52-3.26 8.41-7.08h6.1c-5.74 9.57-15.08 14-26.58 17.77-1.46-2.06-2.83-3.92-4.12-5.61 8.25-2.46 12.99-3.76 16.19-5.08z" fill="#f3ccc9"/><path d="M400.89 317.75l.13.2s-7.31 5.69-7.58 8.94-20.85 4.84-21.32 4.88a.15.15 0 010-.07v-.06a.54.54 0 00-.05-.11l-.12-.27v-.05c0-.05-.06-.13-.1-.2s-.09-.19-.13-.3a1.38 1.38 0 01-.08-.17l-.17-.36c-.09-.2-.19-.43-.31-.68l-.31-.68c0-.09-.08-.18-.13-.27l-.26-.58c-.05-.09-.09-.19-.14-.3-.19-.41-.4-.85-.61-1.33-.06-.12-.11-.24-.17-.37l-.17-.37-.18-.39c-.06-.12-.12-.25-.17-.38s-.14-.29-.2-.43l-.2-.43-.79-1.71c0-.1-.09-.19-.13-.3s-.25-.54-.38-.81-.15-.34-.23-.52l-.17-.35-.58-1.27c-.08-.19-.17-.37-.26-.57s-.24-.53-.37-.8l-.17-.38-.56-1.2c-.19-.42-.38-.85-.59-1.29l-.61-1.33-.78-1.7-.19-.42-.68-1.48v-.1l-.65-1.43c-4.45-9.68-9.94-21.64-15.86-34.51-8.83 0-14.52.69-18.34.52-6.69-.28-7.67-3.19-9.85-17.05a2.68 2.68 0 012.85-1.9c2.44 0-.61-2.44 2.85-3s4.68-2 5.08-3.66-.61-1.63 1.63-1.83 3.32.82 3.9-1.82.56-3.46 3-2.85a45.46 45.46 0 019.76 3.41c5.28 2.66 9.73 6.84 15.84 14.85 1.29 1.69 2.66 3.55 4.12 5.61 2.82 4 6 8.67 9.73 14.24 4.74 7.11 10.35 15.64 17.16 25.93v.07l6.7 10z" fill="#fcdbd1"/><path d="M439 285.43c.2 4.88-7.11 23.31-7.11 23.31-5.46 8.87-1.9 6.23-16.53 11.11 5.27-6.09 9.23-7.51 8.4-10-.54-1.62-5.15-1.89-6.51-1.08-6.08 3.65-6 .18-8.94 4.33-2.16 3.07-4.74 3.85-7.32 4.88l-.13-.2-1-1.51-6.68-10.06c7.71-20.86 7.55-17.9 1.12-10.59L376 280.25c-3.72-5.57-6.91-10.27-9.73-14.24 11.5-3.81 20.84-8.2 26.58-17.77 16.48 3 16.67-.87 36.38 13.41 5.94 4.27 9.6 18.9 9.77 23.78z" fill="#f9e6e5"/><path d="M399.88 316.24l-6.7-10v-.07z" fill="#fcdbd1"/><path d="M414.85 350.51c-8.07-.2-17.88-1-20.33-.85-2 .13-6.23 1.44-11.38 3.27-11.36 4.05-27.45 10.7-35.88 13a27.55 27.55 0 01-3.42.77c-13 1.77-30 12.52-33.6-6.77 0 0-.55-7.32.27-10.84s7.86-8.14 13.28-9.3c6.73-1.45 8.74-1.08 17-2.2 5.91-.79 15-2.34 31.31-5.85.47 0 21-1.67 21.32-4.88S401 318 401 318c2.58-1 5.16-1.81 7.32-4.88 2.9-4.15 2.86-.68 8.94-4.33 1.36-.81 6-.54 6.51 1.08.83 2.52-3.13 3.94-8.4 10 14.63-4.88 11.07-2.24 16.53-11.11 3.52 3.52 6.19 4.65 1.35 15.71.53 7.46-.32 6.41-3 8.4-1.08.82 1.09 5.15 0 7s-3 2.44-3 3.79 1.73 3.83-1.35 6c-1 .68-4.16.9-8.15.89-.88 0-1.87-.02-2.9-.04z" fill="#fcdbd1"/><path d="M394.32 295.59c6.43-7.31 6.59-10.27-1.12 10.59-6.81-10.29-12.42-18.82-17.16-25.93z" fill="#f3ccc9"/><path d="M356.72 179.85c-7.82-1.52-16.4-3-17.69 1.32v.51h-3.74s-1.9-9.87 1.25-11.69c16.33-9.48 37.14-6.77 39.84-5.49 16.64 7.86 15.64 1.37 16 17.07h-1.81l-1.85.06h-1.46a7.5 7.5 0 00-1.29-2.17c-3.68-4.23-18.75 2.41-29.25.39z" fill="#5e1f21"/><path d="M348.84 198a15 15 0 01-2.53.29c-.78 1.24-1 5.43 1.45 5.13.84-.11 2.84-.54 2.84-.54-2.01-1.22-2.44-2.09-1.76-4.88zm18.54 26.41c-4.33-3.89-5-1.82-11.48-2.38.52 6-.7 2.42 7.58 3a15.5 15.5 0 003.9-.58zm2.69-26.06a8 8 0 01-1.85-.77c.18.29-4 5.44 3 5.6-.79-.38-4-2.26-1.15-4.82zm-10.59 33.13c-5.87 8.44-17.19-.81-18.62-7.52a.43.43 0 000-.05c-.09-.49-.17-1-.25-1.5-.66-4.16-1.1-8.8-1.39-13.41-.75-12.4-.39-24.67-.22-27.33v-.51c1.29-4.32 9.87-2.84 17.69-1.32 10.5 2 25.57-4.62 29.16-.31a7.5 7.5 0 011.29 2.17c2.73 7-5.22 16.89-2.1 30.14 2.29-6.37.91-7.33 5.49-11l1 .44c2.52 1.1 3 1.49 3.38 5.05 1 10-.81 11.82-4.88 15.45-3.19 2.82-2.43.43-3.19 1.34l-.09-.11c-15.14 13.58-19.9 12.99-27.27 8.51z" fill="#fcdbd1"/><path d="M383.54 228.72c-.58 7.94-.31 13.66 3.25 19.52-2.89 3.82-4.51 5.47-8.41 7.08-5.68-7.69-3.18-8-13.73-13.54v-.06a25.84 25.84 0 0018.89-13z" fill="#fcccc2"/><path d="M367.74 322.26l.79 1.71z" fill="#f3ccc9"/><path d="M325.12 544.91c14.1 6.32 24.21 4.63 38.72-3.92-6.7 88.79-10.53 97.69-3.48 126.34-1.87-.86-5.45 1-12.72 1a9.56 9.56 0 01-7.86-3.79c-1.35-1.9 1.63-4.34-.27-8.67-1.7-3.86-3.59-1.92-7.05-2.23-2.48-65.84-6.19-97.23-7.42-108.73z" fill="#fcdbd1"/><path d="M313.22 404.4c35.68 9.46 58.43 11.53 101.89-4.88l.28 7.33c-19.55 8.48-38.68 13.12-58.38 13a133.49 133.49 0 01-43.79-7.85z" fill="#efc8c3"/><path d="M399.88 316.24l1 1.51z" fill="#fcdbd1"/><path d="M416.5 353.89v.47c-.01-.16 0-.36 0-.47z" fill="#fdeae9"/><path d="M371.76 331c0 .07.07.14.1.2l-.1-.2z" fill="#f3ccc9"/><path d="M363.84 541c-14.51 8.55-24.62 10.24-38.72 3.92H325c-.41-3.92-.54-5.53-.23-5.44.61.21 14.83.82 20.32-.2s19.51-9.14 19.51-9.14q-.36 5.61-.76 10.86z" fill="#fcccc2"/><path d="M413.49 655.88c.46-2.29 4.65-2.65 8.94-2.4a79.59 79.59 0 018.41 1 46.89 46.89 0 01-3.53 5.69c-1.35 1.63 1.63 3.53 2.44 6.51.53 2 2.88 3.35 5.9 4.65 4.82 2.08 11.35 3.93 15 7.55v5.15h-59.58c-.73-7.7-.83-14.82 3.72-17.09 1.08-.54 4.88 1.35 7.58 1.35s4.61-3.52 8.68-6.77 1.95-2.93 2.44-5.64z" fill="#e2615e"/><path d="M365.44 317.24l-.56-1.2zM310.24 360c3.59 19.29 20.62 8.54 33.6 6.77a27.55 27.55 0 003.42-.77c-7.55 8.82-27.29 12.19-35.31 3.37-3.66-4-4.88-10.54-1.44-20.21-.82 3.48-.27 10.84-.27 10.84z" fill="#f3ccc9"/><path d="M414.85 350.51c-7.08 12-19 9.39-31.69 2.48v-.05c5.15-1.83 9.33-3.14 11.38-3.27 2.46-.17 12.24.64 20.31.84z" fill="#fcccc2"/><path d="M339.19 209l-2.6-6.4c-2.16-20.26-1-12.09-1.35-20.93H339c-.17 2.66-.53 14.93.22 27.33zm51.37-8.12c-4.58 3.64-3.2 4.6-5.49 11-3.12-13.25 4.83-23.15 2.1-30.14h1.46l1.85-.06h1.81l-.74 19.75z" fill="#010101"/><path d="M399.6 544.36c7.92-.2 16.87-7.11 16.87-7.11l.47 9.15c-15.87 7-22.39 7.3-39.47 2.45q-1.1-4.92-2.26-10.18c7.21 3.33 6.99 6.14 24.39 5.69z" fill="#fcccc2"/><path d="M416.22 363.06c0 .48 0 1-.05 1.48.02-.54.04-1.01.05-1.48z" fill="#fdeae9"/><path d="M282.33 691.38A10.49 10.49 0 01282 684l.19.06h80.62c.09 2.16.18 4.58.29 7.31z" fill="#fdfdfb"/><path d="M416.47 354.84c0 .44 0 .93-.05 1.48.02-.56.04-1.05.05-1.48z" fill="#fdeae9"/><path d="M348.84 198c-.68 2.75-.25 3.62 1.75 4.82 0 0-2 .43-2.84.54-2.44.3-2.23-3.89-1.45-5.13a15 15 0 002.53-.29z" fill="#010101"/><path d="M365.62 317.64c.13.27.25.54.37.8-.12-.26-.24-.53-.37-.8z" fill="#f3ccc9"/><path d="M416.47 537.25s-9 6.91-16.87 7.11c-17.4.45-17.18-2.41-24.39-5.69l-5.62-3.11c-11.09-90.29-10.21-90.51-12.7-90.51l.12-25.18c19.7.1 38.83-4.54 58.38-13L426 530.14z" fill="#260758"/><path d="M390.48 181.62h1.16z" fill="#010101"/><path d="M422.43 653.48c-4.29-.25-8.48.11-8.94 2.4-.54 2.71 1.62 2.44-2.44 5.69s-6 6.77-8.68 6.77-6.5-1.89-7.58-1.35c4.87-17.36 6.26-11.91-17.32-118.14 17.08 4.85 23.6 4.56 39.47-2.45l5.49 107z" fill="#fcdbd1"/><path d="M364.29 314.75l-.61-1.33zm-1.58-3.45l.19.42c-.06-.14-.13-.27-.19-.42z" fill="#f3ccc9"/><path d="M340.86 224c1.43 6.71 12.75 16 18.62 7.52 7.37 4.51 12.13 5.07 27.29-8.47l.09.11a64.48 64.48 0 00-3.32 5.56 25.84 25.84 0 01-18.89 13 24.55 24.55 0 01-18.3-4.46c-2.61-1.7-4.35-6.79-5.49-13.26z" fill="#5e1f21"/><path d="M366.25 319c-.08-.19-.17-.37-.26-.57.09.21.18.39.26.57z" fill="#f3ccc9"/><path d="M363.48 225.07c-8.28-.58-7.06 3-7.58-3 6.46.56 7.15-1.51 11.48 2.38a15.5 15.5 0 01-3.9.62z" fill="#fffdff"/><path d="M416.14 365.62v-.91zm-25.41-.25c2.71 2.17 8.94 1.9 15.17 3.8a10.93 10.93 0 0010.18-1.63c-.26 8.65-.61 20.14-1 32-43.46 16.41-66.21 14.34-101.89 4.88L311.86 376c30.75 7.49 29.42 3.47 71.3-16.05 0 .05 4.84 3.26 7.57 5.42zm25.49-2.37v-1.35c.03.44.02.89 0 1.35z" fill="#fdeae9"/><path d="M416.17 364.71v2.85a10.93 10.93 0 01-10.18 1.63c-6.23-1.9-12.46-1.63-15.17-3.8s-7.57-5.41-7.57-5.41c-41.88 19.52-40.55 23.54-71.3 16.05v-6.63l.09-.07c8 8.82 27.76 5.45 35.31-3.37 8.43-2.32 24.52-9 35.88-13v.05c12.66 6.91 24.61 9.48 31.69-2.48h3c-.41.69-.83 1.34-1.27 1.95a.59.59 0 010 .11v.3a.31.31 0 010 .09v1.76a.22.22 0 010 .08c0 .43 0 .92-.05 1.48v1.13c0 .52 0 1.08-.05 1.68v2.31a1.28 1.28 0 000 .19v1.41c0 .47 0 1-.05 1.48z" fill="#edc6c3"/><path d="M340.59 222.42c-5.63-9.39-6.58-10.77-4-19.81l2.6 6.4c.3 4.61.74 9.25 1.4 13.41z" fill="#fcdbd1"/><path d="M416.32 359.7v.64c-.01-.22 0-.43 0-.64z" fill="#fdeae9"/><path d="M315.66 535.29L313.22 412a133.49 133.49 0 0043.78 7.87l-.12 25.18c9.93 84.89 10.85 82.56 7.79 85.09 0 0-14 8.13-19.51 9.14s-19.71.41-20.32.2z" fill="#260758"/><path d="M311.71 671.78c5.91-2.87 13.24-7.4 14.25-9.4a.88.88 0 000-.54c-.38-1.69-3.59-5.78-3.56-6.51s4.36-3 8.7-1.9a7.58 7.58 0 001.35.22c3.46.31 5.35-1.63 7.05 2.23 1.9 4.33-1.08 6.77.27 8.67a9.56 9.56 0 007.86 3.79c7.27 0 10.85-1.87 12.72-1 1.94.89 2 4.74 2.46 16.73H282.2l-.2-.07c2.47-6.46 13.13-8.38 23.08-9.7a27.59 27.59 0 006.63-2.52z" fill="#e2615e"/><path d="M362.19 260.4c-6.11-8-10.56-12.19-15.84-14.85v-8.29a24.55 24.55 0 0018.3 4.46v.06c10.55 5.49 8.05 5.85 13.73 13.54-3.2 1.32-7.94 2.62-16.19 5.08z" fill="#fcdbd1"/><path d="M391.07 684.08c.22 2.42.51 4.9.74 7.3h58.8v-12.46c-3.61-3.62-10.14-5.47-15-7.55-3-1.3-5.37-2.69-5.9-4.65-.81-3-3.79-4.88-2.44-6.51a46.89 46.89 0 003.53-5.69 79.59 79.59 0 00-8.41-1c-4.29-.25-8.48.11-8.94 2.4-.54 2.71 1.62 2.44-2.44 5.69s-6 6.77-8.68 6.77-6.5-1.89-7.58-1.35c-4.51 2.23-4.41 9.35-3.68 17.05zm.11-.01h59.43" fill="none" stroke="#000" stroke-miterlimit="10" stroke-width=".64"/><path d="M422.43 674.31s8-2.1 13.22-2.94a16.56 16.56 0 013.85-.32m-26.01-10.3s8.13-3.25 13.82-.54m-66.95 7.13c1.94.89 2 4.74 2.46 16.73.09 2.16.18 4.58.29 7.31h-80.78A10.49 10.49 0 01282 684c2.47-6.46 13.13-8.38 23.08-9.7a27.59 27.59 0 006.62-2.53c5.91-2.87 13.24-7.4 14.25-9.4a.88.88 0 000-.54c-.38-1.69-3.59-5.78-3.56-6.51s4.36-3 8.7-1.9a7.58 7.58 0 001.35.22c3.46.31 5.35-1.63 7.05 2.23 1.9 4.33-1.08 6.77.27 8.67a9.56 9.56 0 007.86 3.79c7.27 0 10.85-1.87 12.72-1m-27.88-5.49h-8.94" fill="none" stroke="#000" stroke-miterlimit="10" stroke-width=".64"/><path d="M317.83 672.25c-.43 0-3.08-.25-6.12-.47l-10.14-.78m120.86-17.57l-5.49-107-.47-9.15s-9 6.91-16.87 7.11c-17.4.45-17.18-2.41-24.39-5.69q1.17 5.25 2.26 10.18c23.58 106.2 22.19 100.75 17.32 118.12m6.03-13.87c-5 5.83-1.66 8 .2 10.34m-40.66 3.87h0c-7.05-28.65-3.22-37.55 3.48-126.34q.39-5.24.8-10.85s-14 8.13-19.51 9.14-19.71.41-20.32.2c-.31-.09-.18 1.52.23 5.44 1.23 11.5 4.94 42.89 7.42 108.73h0m20.59-.23c5.76 8.9-.52 8.89 0 12.07m9.92 18.57H282.2" fill="none" stroke="#000" stroke-miterlimit="10" stroke-width=".64"/><path d="M363.85 541h0c-14.51 8.55-24.62 10.24-38.72 3.92m52.32 3.92h0c17.08 4.85 23.6 4.56 39.47-2.45" fill="none" stroke="#000" stroke-miterlimit="10" stroke-width=".16"/><path d="M416.47 537.25l9.49-7.11-10.57-123.29c-19.55 8.48-38.68 13.12-58.38 13a133.49 133.49 0 01-43.79-7.85l2.44 123.31 9.15 4.19" fill="none" stroke="#000" stroke-miterlimit="10" stroke-width=".64"/><path d="M364.64 530.14c3.06-2.53 2.14-.2-7.79-85.09h0c2.49 0 1.61.22 12.7 90.51l5.62 3.11" fill="none" stroke="#000" stroke-miterlimit="10" stroke-width=".64"/><path d="M313.22 412v-7.6c35.68 9.46 58.43 11.53 101.89-4.88l.28 7.33m-104.88-57.73c-.82 3.52-.27 10.84-.27 10.84 3.59 19.29 20.62 8.54 33.6 6.77a27.55 27.55 0 003.42-.77c8.43-2.32 24.52-9 35.88-13h0c5.15-1.83 9.33-3.14 11.38-3.27 2.45-.16 12.26.65 20.33.85h3c4 0 7.16-.21 8.15-.89 3.08-2.14 1.35-4.61 1.35-6s1.9-1.89 3-3.79-1.08-6.23 0-7c2.66-2 3.51-.94 3-8.4 4.84-11.06 2.17-12.19-1.35-15.71-5.46 8.87-1.9 6.23-16.53 11.11 5.27-6.09 9.23-7.51 8.4-10-.54-1.62-5.15-1.89-6.51-1.08-6.08 3.65-6 .18-8.94 4.33-2.16 3.07-4.74 3.85-7.32 4.88 0 0-7.31 5.69-7.58 8.94s-20.85 4.84-21.32 4.88h0c-16.3 3.51-25.4 5.06-31.31 5.85-8.27 1.12-10.28.75-17 2.2-5.52 1.14-12.57 5.73-13.38 9.26zm106.03 3.38c-8.5 12-20.41 8.46-36.62 1.73m38.45-4.64c-.19.33-.37.65-.56 1" fill="none" stroke="#000" stroke-miterlimit="10" stroke-width=".2"/><path d="M310.51 349.12c-3.44 9.67-2.22 16.2 1.44 20.21 8 8.82 27.76 5.45 35.31-3.37a.43.43 0 00.09-.1" fill="none" stroke="#000" stroke-miterlimit="10" stroke-width=".2"/><path d="M416.08 367.54a10.93 10.93 0 01-10.18 1.63c-6.23-1.9-12.46-1.63-15.17-3.8s-7.57-5.41-7.57-5.41c-41.88 19.52-40.55 23.54-71.3 16.05l1.36 28.39m102.95-39.69v.91m.05-2.56c0 .47 0 1-.05 1.48m.09-2.89V363m.06-3.3v.64m.15-5.5c0 .43 0 .92-.05 1.48m.08-2.43v.47m.04-1.86h0c.44-.61.86-1.26 1.27-1.95m-1.27 1.95a.59.59 0 010 .11v.3a.31.31 0 010 .09v.89m-.06.47v-.47m0 .47v.4a.22.22 0 010 .08m-.06 1.48c0-.55 0-1 .05-1.48m-.05 1.48v1.11c0 .52 0 1.08-.05 1.68v.59m-.07.64v-.64m0 .64v1.08a1.28 1.28 0 000 .19m-.08 1.39v-1.35m0 1.35v.06m-.08 2.56v-1.08c0-.5 0-1 .05-1.48m-.05 2.56v1.94m-1.03 31.96c.36-11.84.71-23.33 1-32m-104.25 8.49v-6.61m49.47-61.11c-22.63-31.77-19.22-28.71-30.49-31.53l-3.71-2.46-.36-.23m36.13 37.65c-.06-.14-.13-.27-.19-.42m1.58 3.45l-.61-1.33m1.76 3.82l-.56-1.2m1.37 2.96c-.08-.19-.17-.37-.26-.57s-.24-.53-.37-.8m2.91 6.37l-.79-1.71m1.71 3.71c-.05-.12-.11-.24-.17-.37m2.58 5.58c0-.06-.06-.13-.1-.2m.36.76a.64.64 0 000 .1v0m0-.1a.15.15 0 010-.07v-.06a.54.54 0 00-.05-.11l-.12-.27v-.05m-.19-.21c0 .07.07.14.1.2m-.1-.2c0-.09-.09-.19-.13-.3a1.38 1.38 0 01-.08-.17l-.17-.36c-.09-.2-.19-.43-.31-.68l-.31-.68c0-.09-.08-.18-.13-.27l-.26-.58c-.05-.09-.09-.19-.14-.3-.19-.41-.4-.85-.61-1.33-.06-.12-.11-.24-.17-.37m-1.71-3.7l.79 1.71.2.43c.06.14.13.29.2.43s.11.26.17.38l.18.39c.06.13.12.25.17.37m-1.71-3.71c0-.1-.09-.19-.13-.3m0 .04c-.13-.26-.25-.54-.38-.81s-.15-.34-.23-.52l-.17-.35-.58-1.27" fill="none" stroke="#000" stroke-miterlimit="10" stroke-width=".2"/><path d="M365.62 317.64c.13.27.25.54.37.8s.18.38.26.57m-.63-1.37l-.17-.38s0 0 0 0m-2.74-5.96l.19.42.78 1.7.61 1.33c.21.44.4.87.59 1.29l.56 1.2m-2.73-5.94l-.68-1.48v-.1l-.65-1.43m-49.52 63.05s-17.06-32.25-16.79-41.47-1.09-40.92 3-47.42c15.65-25.05 11.17-22 19.23-25.2 2.18 13.86 3.16 16.77 9.85 17.05 3.82.17 9.51-.52 18.34-.52 5.92 12.87 11.41 24.83 15.86 34.51" fill="none" stroke="#000" stroke-miterlimit="10" stroke-width=".2"/><path d="M312.81 298.18c4.1 20.66 5.64 21.69 28 39.44 0 0 0 0 0 0m-28-39.44a23.14 23.14 0 01-.95-4.83c.34 1.72.65 3.33.95 4.83z" fill="none" stroke="#000" stroke-miterlimit="10" stroke-width=".2"/><path d="M367.61 322s-12.72 11.64-23.9 4.53-26.63-20.94-29.07-24.4a14.34 14.34 0 01-1.83-3.91M401 318l-.13-.2-1-1.51-6.7-10v-.07c7.71-20.86 7.55-17.9 1.12-10.59L376 280.25l-.36-.3" fill="none" stroke="#000" stroke-miterlimit="10" stroke-width=".2"/><path d="M317.28 257.25a2.68 2.68 0 012.85-1.9c2.44 0-.61-2.44 2.85-3s4.68-2 5.08-3.66-.61-1.63 1.63-1.83 3.32.82 3.9-1.82.56-3.46 3-2.85a45.46 45.46 0 019.76 3.41c5.28 2.66 9.73 6.84 15.84 14.85 1.29 1.69 2.66 3.55 4.12 5.61 2.82 4 6 8.67 9.73 14.24 4.74 7.11 10.35 15.64 17.16 25.93l6.68 10.06 1 1.51" fill="none" stroke="#000" stroke-miterlimit="10" stroke-width=".2"/><path d="M431.92 308.74s7.31-18.43 7.11-23.31-3.86-19.51-9.76-23.78c-19.71-14.28-19.9-10.42-36.38-13.41-5.74 9.57-15.08 14-26.58 17.77h-.14m26.72-17.77h-6.1c-2.89 3.82-4.51 5.47-8.41 7.08-3.2 1.32-7.94 2.62-16.19 5.08h0" fill="none" stroke="#000" stroke-miterlimit="10" stroke-width=".39"/><path fill="none" stroke="#000" stroke-miterlimit="10" stroke-width=".2" d="M432.93 315.5h-5.35m5.69 8.95l-3.01 2.85m-107.49-63.42l16.97 9.86m-12.9-4.93a4.17 4.17 0 01-4.07-.86"/><path d="M386.79 248.24c-3.56-5.86-3.83-11.58-3.25-19.52a25.84 25.84 0 01-18.89 13 24.55 24.55 0 01-18.3-4.46v8.63" fill="none" stroke="#000" stroke-miterlimit="10" stroke-width=".39"/><path d="M364.65 241.78c10.55 5.49 8.05 5.85 13.73 13.54" fill="none" stroke="#000" stroke-miterlimit="10" stroke-width=".16"/><path d="M340.85 224s0 0 0 0c1.14 6.47 2.88 11.56 5.49 13.26m37.2-8.54a64.48 64.48 0 013.32-5.56c.76-.91 0 1.48 3.19-1.34 4.07-3.63 5.88-5.47 4.88-15.45-.36-3.56-.86-4-3.38-5.05l-1-.44c-4.58 3.64-3.2 4.6-5.49 11-3.12-13.25 4.83-23.15 2.1-30.14a7.5 7.5 0 00-1.29-2.17c-3.59-4.31-18.66 2.33-29.16.31-7.82-1.52-16.4-3-17.69 1.32v.51c-.17 2.66-.53 14.93.22 27.33.29 4.61.73 9.25 1.39 13.41.08.5.16 1 .25 1.5" fill="none" stroke="#000" stroke-miterlimit="10" stroke-width=".39"/><path d="M339.19 209l-2.6-6.4c-2.58 9-1.63 10.42 4 19.81l.22.38m51.48-41.22l-.74 19.75v.01m-1.07-19.71h1.16m-3.93.08h.92m-1.46.01h-.23m.23 0h.54m.92-.03h-.92m.92 0l1.85-.06m1.16-.03h-1.16m1.16 0h.65" fill="none" stroke="#000" stroke-miterlimit="10" stroke-width=".64"/><path d="M338.91 181.68h-3.67s-1.9-9.87 1.25-11.69c16.33-9.48 37.14-6.77 39.84-5.49 16.64 7.86 15.64 1.37 16 17.07m-55.74 21.04c-2.16-20.26-1-12.09-1.35-20.93M388 217.45c.62-3.76 2.65-3.95 1.72-5.19-1.83-2.45-.26-11.59 2.55-6.4m-25.44 21.65c-5 1.21-11.41 2.49-14.69-1.32m15.24-1.74a15.5 15.5 0 01-3.9.62c-8.28-.58-7.06 3-7.58-3 6.46.56 7.15-1.51 11.48 2.38z" fill="none" stroke="#000" stroke-miterlimit="10" stroke-width=".64"/><path d="M353.46 222.8h-2.51c-2 .07.06.1 1.19-1.23s2.14-3 2.95-3.15 3.31.71 4.39.41c3.69-1 3.49-2.34 7.09 2.95 0 0 1.73 1.93 2 2.13.13.08-.42.29-1.22.5" fill="none" stroke="#000" stroke-miterlimit="10" stroke-width=".64"/><path fill="none" stroke="#000" stroke-miterlimit="10" stroke-width=".64" d="M352.14 224.86l-1.19-2.02-.03-.05M370 224c-1.86 0-1.61-.42-.71 1.63m-2.72-15.91c1.77 7.17-.73 4.88-4.37 4.88-2.28 0-1.36 1.7-6.91-.2m-1.62-4.68c-1.72 1.86-2 3.4-.76 5.62m4.09-12.73c0 .5-.71 6.4-.71 6.4m9.77-19.51c2 2.53 3.32 3.05 6.1 3.25m-20.02-3.25c-1.78 2.79-2.93 2.61-6.6 3.25m8.13 1.62c-1.86 2.27-3 3.2-4.84 3.61a15 15 0 01-2.53.29c-1.39.08-3.15.09-5.49.17m27.41-.82a8 8 0 001.85.77c1.77.49 4 .5 8.19.77m-13.92-4.79a21.75 21.75 0 003.86 3.23"/><path d="M368.2 197.6h0c.18.29-4 5.44 3 5.6-.79-.38-4-2.26-1.15-4.82m-21.21-.38c-.68 2.75-.25 3.62 1.75 4.82l3.08-.86" fill="none" stroke="#000" stroke-miterlimit="10" stroke-width=".64"/><path d="M350.59 202.86s-2 .43-2.84.54c-2.44.3-2.23-3.89-1.45-5.13l.05-.07m24.87 5.02h2.26m-11.68-10.47c-.87 2.34-.82 3.6.4 5.45m-5.2-5.45c-1.07 2.23-.93 3.21.51 5.69" fill="none" stroke="#000" stroke-miterlimit="10" stroke-width=".64"/><path d="M386.79 223h0c-15.16 13.54-19.92 13-27.29 8.47-5.87 8.44-17.19-.81-18.62-7.52h0a.43.43 0 000-.05" fill="none" stroke="#000" stroke-linecap="round" stroke-linejoin="round" stroke-width=".5"/></svg>